<?xml version="1.0" standalone="no"?>
<!DOCTYPE svg PUBLIC "-//W3C//DTD SVG 1.1//EN" "http://www.w3.org/Graphics/SVG/1.1/DTD/svg11.dtd" >
<svg xmlns="http://www.w3.org/2000/svg" xmlns:xlink="http://www.w3.org/1999/xlink" version="1.1">
<metadata></metadata>
<defs>
<font id="sport1condensed_black" horiz-adv-x="493" >
<font-face units-per-em="1000" ascent="750" descent="-250" />
<missing-glyph horiz-adv-x="218" />
<glyph unicode=" "  horiz-adv-x="218" />
<glyph unicode="&#x09;" horiz-adv-x="218" />
<glyph unicode="&#xa0;" horiz-adv-x="218" />
<glyph unicode="!" horiz-adv-x="294" d="M218 0h-143q-3 0 -3 4v135q0 4 3 4h143q4 0 4 -4v-135q0 -4 -4 -4zM213 211h-133q-3 0 -3 4v461q0 4 3 4h133q3 0 3 -4v-461q0 -4 -3 -4z" />
<glyph unicode="&#x22;" horiz-adv-x="376" d="M332 680q6 0 6 -6v-215q0 -4 -3 -4h-113q-4 0 -4 4v214q0 7 4 7h110zM152 680q4 0 4 -6v-215q0 -4 -3 -4h-113q-3 0 -3 4v214q0 7 3 7h112z" />
<glyph unicode="#" horiz-adv-x="534" d="M228 300h73l6 91h-71zM193 0h-119q-4 0 -4 4l18 179h-54q-3 0 -3 4v109q0 4 3 4h68l7 91h-57q-5 0 -5 4v109q0 4 4 4h72q16 165 16 168q0 4 4 4h119q3 0 3 -4l-16 -168h72q16 165 16 168q0 4 4 4h120q5 0 3 -4l-16 -168h52q3 0 3 -4v-109q0 -4 -3 -4h-66l-7 -91h56 q4 0 4 -4v-109q0 -4 -4 -4h-70q-17 -176 -17 -179q0 -4 -4 -4h-120q-2 0 -2 4l17 179h-73q-17 -176 -17 -179q0 -4 -4 -4z" />
<glyph unicode="$" horiz-adv-x="536" d="M211 -85q-3 0 -3 4v75q-104 6 -168 38q-3 2 -2 6q43 129 43 134q0 4 4 2q78 -26 178 -26q30 0 47 7t17 31v30q0 19 -17.5 32t-73.5 22q-53 7 -84 16.5t-57.5 28.5t-37.5 51t-11 81v79q0 138 162 157v78q0 4 3 4h100q3 0 3 -4v-78q43 -3 80.5 -10.5t54 -13t17.5 -7.5 q2 -1 2 -5q0 -1 -19 -64t-20 -67q-2 -4 -5 -2q-2 1 -22.5 5.5t-60 9.5t-75.5 5q-30 0 -38.5 -8.5t-8.5 -27.5v-27q0 -22 14.5 -32t68.5 -19q47 -8 77 -17t61 -28t45.5 -53.5t14.5 -84.5v-79q0 -148 -186 -164v-75q0 -4 -3 -4h-100z" />
<glyph unicode="%" horiz-adv-x="723" d="M268 -6h-131q-2 1 -2 3q-9 2 74.5 173t167 341.5t73.5 171.5q2 4 5 4h132q1 0 0 -4l-314 -685q-1 -4 -5 -4zM543 -6q-25 0 -44.5 5t-39 17t-30 38t-10.5 64v82q0 121 127 121q52 0 86.5 -25t34.5 -96v-82q0 -39 -10.5 -65t-30 -38t-39 -16.5t-44.5 -4.5zM179 360 q-123 0 -123 124v82q0 121 127 121q52 0 86 -25t34 -96v-82q0 -73 -34.5 -98.5t-89.5 -25.5zM179 464q14 0 21.5 7t7.5 30v46q0 21 -7 28.5t-21 7.5q-30 0 -30 -36v-46q0 -22 7.5 -29.5t21.5 -7.5zM543 98q13 0 20.5 7t7.5 30v46q0 22 -6.5 29t-20.5 7q-30 0 -30 -36v-46 q0 -22 7.5 -29.5t21.5 -7.5z" />
<glyph unicode="&#x26;" horiz-adv-x="543" d="M260 -6q-29 0 -52.5 2.5t-55 13t-52.5 28.5t-36 53.5t-15 83.5v45q0 40 13.5 82.5t27.5 65.5l13 22q-23 43 -23 111v30q0 42 12 72.5t29 46t43 24.5t45.5 11t46.5 2q23 0 41 -2t42.5 -13t41 -29.5t28 -54.5t11.5 -86q0 -4 -4 -4h-102q-4 0 -4 4q0 83 -52 83 q-12 0 -23 -3.5t-22 -17.5t-11 -38v-16q0 -26 11 -52t38.5 -66.5t35.5 -54.5l68 -130q2 13 2 20v93q0 4 3 4h102q4 0 4 -4v-121q0 -19 -8 -44t-16 -40l-9 -15q65 -93 67 -96q4 -4 -1 -4h-136q-2 0 -5 4l-9 15q-36 -25 -89 -25zM260 108l20 6l-97 165q-7 -20 -7 -82v-9 q0 -47 21.5 -63.5t62.5 -16.5z" />
<glyph unicode="'" horiz-adv-x="217" d="M163 680q6 0 6 -6v-215q0 -4 -4 -4h-113q-3 0 -3 4v214q0 7 3 7h111z" />
<glyph unicode="(" horiz-adv-x="304" d="M131 -94q-2 0 -6 4q-67 89 -67 418q0 97 6.5 175t15.5 120.5t20 72.5t16.5 39t8.5 11q5 4 6 4h124q3 0 0 -4q-6 -10 -16.5 -37t-25.5 -132.5t-15 -248.5t15 -248t26 -135t16 -35q4 -4 0 -4h-124z" />
<glyph unicode=")" horiz-adv-x="305" d="M174 -94h-123q-4 0 0 4q2 2 7 13t13.5 43t16.5 76t13.5 120t5.5 166q0 143 -15 248.5t-25 133t-16 36.5q-3 4 1 4h122q2 0 7 -4q3 -2 8.5 -11t16 -39t19.5 -72.5t15.5 -120.5t6.5 -175q0 -330 -66 -418q-4 -4 -7 -4z" />
<glyph unicode="*" horiz-adv-x="364" d="M144 355q-4 0 -4 4v81q-53 -40 -55 -41q-3 -1 -4 2q0 1 -10 18.5t-20 34.5t-10 18q-1 2 2 5l55 41q-53 38 -55 40q-3 3 -2 5l40 71q2 3 4 2l55 -41v81q0 4 4 4h76q5 0 5 -4v-81q51 40 53 41q4 2 5 -2l39 -71q2 -4 -1 -5l-54 -40q52 -39 54 -41t1 -5l-39 -71q-2 -4 -5 -2 l-53 41v-81q0 -4 -4 -4h-77z" />
<glyph unicode="+" d="M184 64q-3 0 -3 4v139h-132q-3 0 -3 4v129q0 4 3 4h132v139q0 4 3 4h124q4 0 4 -4v-139h131q4 0 4 -4v-129q0 -4 -4 -4h-131v-139q0 -4 -4 -4h-124z" />
<glyph unicode="," horiz-adv-x="240" d="M20 -115q-3 0 -2 4l63 265q1 4 4 4h134q4 0 2 -4l-90 -265q-1 -4 -4 -4h-107z" />
<glyph unicode="-" horiz-adv-x="356" d="M43 207q-4 0 -4 4v129q0 4 4 4h269q4 0 4 -4v-129q0 -4 -4 -4h-269z" />
<glyph unicode="." horiz-adv-x="248" d="M52 0q-3 0 -3 4v155q0 4 3 4h143q4 0 4 -4v-155q0 -4 -4 -4h-143z" />
<glyph unicode="/" horiz-adv-x="399" d="M43 -5q-3 0 -2 4q1 3 81.5 342.5t80.5 341.5q1 4 5 4h151q3 0 2 -4l-162 -684q-1 -4 -5 -4h-151z" />
<glyph unicode="0" horiz-adv-x="540" d="M269 144q34 0 43.5 21t9.5 96v163q0 73 -10 93.5t-43 20.5q-32 0 -42.5 -20.5t-10.5 -93.5v-163q0 -76 9 -96.5t44 -20.5zM269 -10q-34 0 -57 2.5t-51.5 10.5t-47 26t-35 45.5t-24.5 71.5t-8 103v191q0 57 8 99.5t25 69.5t36 44.5t46.5 25.5t51 10.5t56.5 2.5 q40 0 66.5 -3t59.5 -17.5t52.5 -40t33 -74t13.5 -117.5v-191q0 -72 -14 -122.5t-33 -76.5t-52.5 -40t-59 -17t-66.5 -3z" />
<glyph unicode="1" horiz-adv-x="476" d="M364 0h-157q-3 0 -3 4v495q-99 -76 -101 -77q-1 -1 -2 -0.5t-1 2.5q0 1 -18.5 69.5t-19.5 70.5q-1 4 4 7l136 107q2 2 5 2h157q3 0 3 -4v-673q0 -3 -3 -3z" />
<glyph unicode="2" horiz-adv-x="489" d="M434 0h-373q-3 0 -3 4v131q0 6 4 12q14 17 42.5 52t42.5 53t36.5 47t33.5 46.5t24 39t18 37.5t5 30v42q0 18 -11 29t-21 13.5t-17 2.5q-29 0 -64.5 -6t-55.5 -11.5t-23 -6.5q-4 0 -4 3q0 1 -14 64.5t-14 64.5q-1 4 1 6q3 3 19.5 11t60.5 17.5t97 9.5q217 0 217 -169v-86 q0 -55 -31.5 -114.5t-99.5 -158.5v-11h130q3 0 3 -4v-144q0 -4 -3 -4z" />
<glyph unicode="3" d="M55 19q-2 1 -2 6q0 2 11.5 65t11.5 64q1 3 5 3q1 -1 24 -5t60.5 -8.5t66.5 -4.5q20 0 35 11t15 33v33q0 60 -48 60h-80q-4 0 -4 4v135q0 4 4 4h81q15 0 26 13t11 34v32q0 18 -11 29t-20.5 13.5t-17.5 2.5q-29 0 -65 -5t-56 -9.5t-24 -5.5q-1 -1 -3 0t-2 3q0 1 -11 64 t-11 65q-1 4 2 6q6 3 22.5 9t60 14t88.5 8q36 0 63 -3t56.5 -13t48.5 -27t31.5 -47t12.5 -72v-68q0 -26 -12 -52t-24 -39l-12 -13v-10q2 -1 6 -3.5t14 -12t17.5 -21.5t13.5 -32t6 -44v-81q0 -51 -16 -85t-48 -50.5t-66 -22.5t-82 -6q-51 0 -95.5 7t-63.5 15z" />
<glyph unicode="4" horiz-adv-x="494" d="M424 0h-146q-2 0 -2 4v90h-232q-3 0 -3 4v139q0 7 3 14l137 425q2 4 4 4h164q4 0 2 -4l-130 -420v-10h55v100q0 4 3 4h145q3 0 3 -4v-100h33q3 0 3 -4v-144q0 -4 -3 -4h-33v-90q0 -4 -3 -4z" />
<glyph unicode="5" d="M234 -11q-51 0 -96.5 7.5t-61 13t-21.5 8.5q-2 1 -2 6q0 2 11.5 65t12.5 65q0 3 3 2t26 -5t61 -8.5t66 -4.5q18 0 33.5 10.5t15.5 34.5v39q0 32 -17 45t-33 13h-163q-3 0 -3 4v387q0 9 8 9h352q4 0 4 -4v-134q0 -4 -4 -4h-213v-118h24q31 0 55 -2.5t55 -12t51 -26t34 -48 t14 -74.5v-104q0 -45 -14.5 -77t-34 -48.5t-51.5 -25.5t-55.5 -11t-56.5 -2z" />
<glyph unicode="6" horiz-adv-x="502" d="M250 128q12 0 20.5 3.5t16.5 21.5t8 51v29q0 63 -26 63q-14 0 -28 -3.5t-21 -6.5l-7 -4v-116q0 -21 11.5 -29.5t25.5 -8.5zM262 -10q-211 0 -211 175v338q0 51 18.5 88.5t43.5 56t57.5 29.5t52 13t36.5 2q100 0 176 -38q2 -1 2 -6q-1 -5 -15 -64t-14 -61t-4 -2l-9 2 q-9 2 -24 5.5t-32.5 6.5t-38 5t-38.5 2q-7 0 -17 -3t-21 -14.5t-11 -28.5v-76q66 14 92 14q31 0 52.5 -5.5t46 -23t37.5 -58.5t13 -103v-49q0 -55 -12 -94t-29 -60t-44.5 -33t-51 -15t-55.5 -3z" />
<glyph unicode="7" horiz-adv-x="474" d="M252 1h-165q-4 0 -3 4l165 518v10h-195q-4 0 -4 4v139q0 4 4 4h370q3 0 3 -4v-132q0 -8 -2 -13l-167 -526q-3 -4 -6 -4z" />
<glyph unicode="8" d="M246 128q43 0 43 61v29q0 28 -14.5 40.5t-28.5 12.5t-28 -13t-14 -40v-29q0 -61 42 -61zM246 423q15 0 27.5 11.5t12.5 37.5v29q0 55 -40 55q-39 0 -39 -55v-29q0 -25 12 -37t27 -12zM246 -10q-41 0 -72.5 6.5t-64.5 24.5t-51 58t-18 100v49q0 36 15 65.5t30 41.5l15 12 v4q-5 4 -12.5 12t-20 36t-12.5 60v48q0 62 15 101.5t45.5 56.5t58.5 22t72 5q34 0 58 -2.5t51.5 -13.5t44 -30t27.5 -54t11 -85v-49q0 -31 -11.5 -58t-22.5 -38l-12 -12v-3q2 -2 6.5 -5t14.5 -13.5t18 -23.5t14.5 -33.5t6.5 -43.5v-49q0 -48 -12 -83.5t-30.5 -55.5 t-47 -31.5t-55 -15t-61.5 -3.5z" />
<glyph unicode="9" d="M252 549q-12 0 -20.5 -3.5t-17 -21.5t-8.5 -50v-35q0 -63 27 -63q14 0 27.5 3.5t20.5 6.5l7 4v121q0 38 -36 38zM240 687q210 0 210 -175v-328q0 -43 -12.5 -76t-33.5 -52.5t-43.5 -33t-48.5 -18.5t-41 -7t-28 -2q-19 0 -37.5 1t-33 3t-28 4.5t-24.5 5.5t-20 6t-15.5 5.5 t-11 4.5t-7.5 3l-3 2q-1 0 -1 6q0 5 14 62t16 63q2 3 4 3q2 -1 23 -5.5t57 -9t64 -4.5q6 0 16 3t21 14.5t11 29.5v60q-66 -14 -91 -14q-30 0 -52.5 6t-47 23.5t-37.5 58t-13 102.5v54q0 55 12 94t29 60t45 33t51.5 15t55.5 3z" />
<glyph unicode=":" horiz-adv-x="261" d="M60 0q-4 0 -4 4v135q0 4 4 4h142q4 0 4 -4v-135q0 -4 -4 -4h-142zM60 344q-4 0 -4 4v135q0 4 4 4h142q4 0 4 -4v-135q0 -4 -4 -4h-142z" />
<glyph unicode=";" horiz-adv-x="261" d="M7 -115q-3 0 -2 4l64 265q1 4 4 4h134q4 0 2 -4l-91 -265q-1 -4 -4 -4h-107zM60 324q-4 0 -4 4v155q0 4 4 4h142q4 0 4 -4v-155q0 -4 -4 -4h-142z" />
<glyph unicode="&#x3c;" horiz-adv-x="494" d="M445 40l-99 42q-98 43 -196.5 86t-99.5 43q-3 3 -3 5v116q0 2 3 5l395 172q3 1 3 -3v-140q0 -4 -3 -5l-192 -86v-3q190 -83 192 -84q3 -2 3 -5v-140z" />
<glyph unicode="=" d="M49 98q-3 0 -3 4v131q0 4 3 4h394q4 0 4 -4v-131q0 -4 -4 -4h-394zM49 317q-3 0 -3 4v131q0 4 3 4h394q4 0 4 -4v-131q0 -4 -4 -4h-394z" />
<glyph unicode="&#x3e;" horiz-adv-x="494" d="M49 40q-1 1 -2 3v140q0 3 2 5l193 84v3q-191 84 -193 86t-2 5v140q1 3 2 3l395 -172q4 -2 4 -5v-116q0 -3 -4 -5q-1 0 -99.5 -43t-196.5 -86z" />
<glyph unicode="?" horiz-adv-x="429" d="M277 0h-143q-3 0 -3 4v135q0 4 3 4h143q3 0 3 -4v-135q0 -4 -3 -4zM281 208h-148q-3 0 -3 4v23q0 41 15.5 79.5t33.5 62.5t33.5 50.5t15.5 45.5v24q0 16 -7 26.5t-13.5 14t-10.5 3.5q-12 0 -24.5 -1.5t-24 -3.5t-22.5 -4.5t-19.5 -5t-15 -4.5t-10.5 -4l-4 -1q-4 0 -5 2 q0 1 -15 62t-15 62q0 5 2 6q5 4 21.5 11t55.5 16.5t79 9.5q189 0 189 -169v-44q0 -38 -52 -118t-52 -120v-23q0 -4 -4 -4z" />
<glyph unicode="@" horiz-adv-x="808" d="M403 -159q-43 0 -79.5 5.5t-80 20t-77 44.5t-62.5 74.5t-44.5 115.5t-15.5 162q0 418 358 418q61 0 108.5 -7.5t97 -32.5t82 -67t53.5 -115t21 -173q0 -74 -15.5 -123.5t-43.5 -72t-53.5 -30.5t-58.5 -8q-53 0 -92 27q-34 -27 -103 -27q-36 0 -60.5 5.5t-48.5 22 t-36 51.5t-12 89v85q0 91 38 129.5t93 38.5q48 0 65 -17v9q0 3 3 3h124q3 0 3 -3v-240q0 -59 33 -59q13 0 21 6t15.5 34.5t7.5 81.5q0 112 -25.5 173.5t-76 84t-140.5 22.5q-127 0 -179.5 -67.5t-52.5 -233.5q0 -75 13.5 -130.5t34.5 -87.5t53 -51.5t62.5 -25.5t69.5 -6 q34 0 81 6.5t76.5 13t31.5 7.5q3 1 4 -2l25 -104q0 -5 -1 -6q-7 -3 -29.5 -11t-77.5 -18.5t-110 -10.5zM400 163q25 0 31 8.5t6 40.5v131q0 20 -38 20q-28 0 -28 -65v-71q0 -64 29 -64z" />
<glyph unicode="A" horiz-adv-x="565" d="M170 0h-170q-4 0 -2 4l189 672q1 4 4 4h186q4 0 5 -4l184 -672q2 -4 -3 -4h-170q-3 0 -4 4l-20 107h-173q-21 -104 -22 -107q-1 -4 -4 -4zM231 244h103l-41 229h-20z" />
<glyph unicode="B" horiz-adv-x="532" d="M216 133h56q56 0 56 46v54q0 52 -56 52h-56v-152zM216 407h48q20 0 26 -1q17 31 17 76q0 65 -50 65h-41v-140zM295 0h-247v680h244q22 0 42 -2.5t47.5 -13.5t47 -29t33.5 -51.5t14 -79.5q0 -62 -38 -141q30 -23 44.5 -51t14.5 -77v-63q0 -46 -12 -79t-29 -51t-46 -27.5 t-54 -12t-61 -2.5z" />
<glyph unicode="C" horiz-adv-x="499" d="M285 -10q-41 0 -72.5 4.5t-66 20.5t-57 43t-37 75.5t-14.5 115.5v190q0 65 14.5 112t37 74t57 42.5t66.5 20t74 4.5q53 0 93.5 -7t53.5 -12.5t15 -7.5q3 -3 2 -6l-12 -33q-12 -34 -23 -66t-11 -33q0 -3 -4 -3q-2 1 -16.5 4t-42.5 6t-54 3q-17 0 -28 -3t-24.5 -13 t-20.5 -35t-7 -64v-159q0 -71 18.5 -91t58.5 -20q19 0 38.5 1.5t34 3.5t26.5 4t19 3.5t8 1.5q2 2 4 -2l45 -133q1 -3 -2 -6q-70 -35 -173 -35z" />
<glyph unicode="D" horiz-adv-x="546" d="M217 157h53q34 0 49 20.5t15 96.5v134q0 75 -14.5 95t-49.5 20h-53v-366zM270 0h-222v680h222q26 0 43 -1t44 -6t45.5 -15t40 -29t34.5 -45.5t21.5 -67.5t8.5 -93v-161q0 -53 -8 -94.5t-20.5 -68.5t-33 -46.5t-38.5 -29.5t-45 -15.5t-46 -6.5t-46 -1z" />
<glyph unicode="E" horiz-adv-x="483" d="M48 0v680h394q3 0 3 -4v-141q0 -4 -3 -4h-225v-114h183q4 0 4 -4v-140q0 -4 -4 -4h-183v-120h225q3 0 3 -4v-141q0 -4 -3 -4h-394z" />
<glyph unicode="F" horiz-adv-x="478" d="M51 0q-3 0 -3 4v676h394q3 0 3 -4v-141q0 -4 -3 -4h-225v-143h183q4 0 4 -4v-141q0 -4 -4 -4h-183v-235q0 -4 -3 -4h-163z" />
<glyph unicode="G" horiz-adv-x="546" d="M288 -10q-32 0 -57 2.5t-56 11t-53 26t-42 45t-30.5 71.5t-10.5 102v191q0 69 18 118.5t42 74.5t62.5 39t65.5 17t64 3q52 0 100.5 -7t70 -13t23.5 -8t1 -6l-37 -129q-1 -3 -6 -3q-2 1 -24 3.5t-59.5 5.5t-68.5 3q-18 0 -29.5 -3t-25.5 -13t-20.5 -34.5t-6.5 -63.5v-163 q0 -71 19.5 -92.5t59.5 -21.5l79 6v100h-64q-4 0 -4 4v133q0 4 4 4h201v-381q-142 -22 -216 -22z" />
<glyph unicode="H" horiz-adv-x="568" d="M51 0q-3 0 -3 4v672q0 4 3 4h163q3 0 3 -4v-261h134v261q0 4 3 4h163q3 0 3 -4v-672q0 -4 -3 -4h-163q-3 0 -3 4v262h-134v-262q0 -4 -3 -4h-163z" />
<glyph unicode="I" horiz-adv-x="265" d="M51 0q-3 0 -3 4v672q0 4 3 4h163q3 0 3 -4v-672q0 -4 -3 -4h-163z" />
<glyph unicode="J" horiz-adv-x="470" d="M186 -10q-18 0 -35 1t-30 2.5t-25 3.5t-21.5 4t-17 4t-13 4.5t-9 4t-5.5 2.5l-3 1q-3 1 -1 6l40 132q2 5 5 3q20 -10 110 -10q72 0 72 73v455q0 4 3 4h163q4 0 4 -4v-470q0 -59 -15.5 -101t-37 -64t-56.5 -34t-62 -14.5t-66 -2.5z" />
<glyph unicode="K" horiz-adv-x="581" d="M51 0q-3 0 -3 4v672q0 4 3 4h163q3 0 3 -4v-262h37q110 258 112 262q1 4 4 4h176q2 0 1 -4l-158 -332q166 -337 168 -340q3 -4 -1 -4h-175q-4 0 -5 4l-112 261h-47v-261q0 -4 -3 -4h-163z" />
<glyph unicode="L" horiz-adv-x="471" d="M48 0v676q0 4 3 4h163q3 0 3 -4v-527h225q3 0 3 -4v-141q0 -4 -3 -4h-394z" />
<glyph unicode="M" horiz-adv-x="711" d="M51 0q-3 0 -3 4v672q0 4 3 4h192q3 0 5 -3l105 -300h12q100 295 101 298q2 5 8 5h188q3 0 3 -4v-672q0 -4 -3 -4h-160q-3 0 -3 4v356h-12q-68 -210 -69 -213q-1 -4 -6 -4h-110q-6 0 -8 6l-67 211h-13v-356q0 -4 -3 -4h-160z" />
<glyph unicode="N" horiz-adv-x="590" d="M47 0q-3 0 -3 4v672q0 4 4 4h175q3 0 5 -3l151 -377h8v376q0 4 3 4h160q3 0 3 -4v-672q0 -4 -4 -4h-178q-5 0 -6 4l-148 375h-10v-375q0 -4 -3 -4h-157z" />
<glyph unicode="O" horiz-adv-x="545" d="M271 145q38 0 51 19.5t13 95.5v162q0 52 -8 77t-19.5 30.5t-36.5 5.5t-36.5 -5.5t-19.5 -30.5t-8 -77v-162q0 -76 12.5 -95.5t51.5 -19.5zM271 -11q-29 0 -49.5 1.5t-47 7.5t-45 16.5t-37 30t-30 46.5t-19 66.5t-7.5 90.5v189q0 68 14.5 116.5t35 74.5t54.5 40.5t62.5 18 t68.5 3.5t67.5 -3t62 -17.5t55.5 -40.5t35.5 -74.5t14.5 -117.5v-189q0 -52 -7.5 -92.5t-19.5 -67.5t-31.5 -46.5t-37.5 -29.5t-45 -15.5t-46 -6.5t-48 -1z" />
<glyph unicode="P" horiz-adv-x="534" d="M217 366h66q6 0 14 2t18.5 7.5t18 18.5t7.5 31v44q0 62 -59 62h-65v-165zM214 0h-163q-3 0 -3 4v676h245q27 0 51 -3t56.5 -14.5t55.5 -31.5t39 -57.5t16 -88.5v-75q0 -52 -17.5 -90t-41 -57t-57 -30t-55.5 -13.5t-47 -2.5h-76v-213q0 -4 -3 -4z" />
<glyph unicode="Q" horiz-adv-x="546" d="M271 -11q-29 0 -49.5 1.5t-47 7.5t-45 16.5t-37 30t-30 46.5t-19 66.5t-7.5 90.5v189q0 68 14.5 116.5t35 74.5t54.5 40.5t62.5 18t68.5 3.5t67.5 -3t62 -17.5t55.5 -40.5t35.5 -74.5t14.5 -117.5v-189q0 -97 -26 -157l34 -39q1 -3 -1 -5q-1 -2 -40 -43t-42 -44t-5 0 l-39 43q-39 -14 -116 -14zM233 178q-2 4 0 6l84 87q2 2 4 0l14 -16v5v162q0 52 -8 77t-19.5 30.5t-36.5 5.5t-36.5 -5.5t-19.5 -30.5t-8 -77v-162q0 -72 11.5 -93t43.5 -22z" />
<glyph unicode="R" horiz-adv-x="544" d="M216 366h67q9 0 20.5 4t24.5 19.5t13 39.5v37q0 37 -20 51t-40 14h-65v-165zM213 0h-162q-3 0 -3 4v676h245q25 0 48.5 -3t56.5 -15.5t56 -33.5t40 -61.5t17 -95.5v-49q0 -128 -76 -173l89 -245q1 -4 -3 -4h-179q-4 0 -5 4l-66 213h-55v-213q0 -4 -3 -4z" />
<glyph unicode="S" horiz-adv-x="525" d="M260 -10q-148 0 -220 36q-4 2 -2 6l38 137q0 3 4 3q81 -27 181 -27q32 0 48 7.5t16 30.5v35q0 43 -90 54q-104 14 -147 50t-43 127v84q0 159 217 159q60 0 111.5 -8.5t67.5 -14t23 -9.5q2 -1 2 -6q0 -1 -17.5 -64.5t-18.5 -65.5q-1 -3 -4 -3q-4 1 -25 5.5t-61.5 9.5 t-75.5 5q-45 0 -45 -36v-31q0 -23 14 -33t68 -18q106 -16 152 -55.5t46 -128.5v-84q0 -43 -15.5 -74.5t-38.5 -48.5t-57.5 -27t-63 -12.5t-64.5 -2.5z" />
<glyph unicode="T" horiz-adv-x="498" d="M168 0q-3 0 -3 4v523h-143q-3 0 -3 4v145q0 4 3 4h456q3 0 3 -4v-145q0 -4 -3 -4h-144v-523q0 -4 -3 -4h-163z" />
<glyph unicode="U" horiz-adv-x="560" d="M263 -10q-124 0 -170.5 61.5t-46.5 199.5v425q0 4 3 4h163q3 0 3 -4v-413q0 -27 0.5 -39.5t3 -30.5t7.5 -26t14.5 -14t23.5 -6h32q31 0 40 25.5t9 90.5v413q0 4 3 4h163q4 0 4 -4v-425q0 -65 -8.5 -108.5t-31 -80.5t-67 -54.5t-113.5 -17.5h-32z" />
<glyph unicode="V" horiz-adv-x="575" d="M189 0q-3 0 -4 3q0 1 -86 336.5t-86 336.5q0 4 3 4h171q3 0 4 -4l88 -434h16q91 431 91 434q0 4 4 4h169q4 0 3 -4l-176 -672q-2 -4 -4 -4h-193z" />
<glyph unicode="W" horiz-adv-x="787" d="M119 0q-5 0 -6 5l-98 671q-1 4 2 4h170q3 0 4 -4l47 -406h17q66 270 67 273q1 4 4 4h133q4 0 5 -5l68 -272h17q46 403 47 406q1 4 4 4h170q5 0 3 -4q-1 -2 -49.5 -335.5t-48.5 -335.5q-1 -5 -6 -5h-203q-5 0 -6 5l-61 267h-11q-60 -260 -61 -266t-7 -6h-201z" />
<glyph unicode="X" horiz-adv-x="546" d="M11 0q-3 0 -2 4l172 347q-161 322 -163 325q-3 4 3 4h177q3 0 4 -4l68 -163h6q64 160 66 163q3 4 4 4h177q4 0 2 -4l-161 -325q170 -345 171 -347q3 -4 -1 -4h-177q-2 0 -5 4l-76 185h-6q-76 -183 -77 -185q-1 -4 -5 -4h-177z" />
<glyph unicode="Y" horiz-adv-x="537" d="M187 0q-3 0 -3 4v255q-173 414 -174 417q-3 4 2 4h171q3 0 4 -4l81 -231h6q77 228 78 231q1 4 4 4h168q3 0 2 -4l-173 -417v-255q0 -4 -3 -4h-163z" />
<glyph unicode="Z" horiz-adv-x="492" d="M38 0q-3 0 -3 4v140q0 4 5 12l213 361v11h-205q-3 0 -3 4v144q0 4 3 4h403q3 0 3 -4v-139q0 -8 -4 -13l-214 -361v-11h214q4 0 4 -4v-144q0 -4 -4 -4h-412z" />
<glyph unicode="[" horiz-adv-x="285" d="M46 -94v844h208q4 0 4 -4v-119q0 -4 -4 -4h-74v-590h74q4 0 4 -4v-119q0 -4 -4 -4h-208z" />
<glyph unicode="\" horiz-adv-x="399" d="M359 -5h-151q-4 0 -5 4l-162 684q-1 4 2 4h151q5 0 5 -4q0 -2 80.5 -341.5t81.5 -342.5q1 -4 -2 -4z" />
<glyph unicode="]" horiz-adv-x="285" d="M239 -94h-208q-4 0 -4 4v119q0 4 4 4h74v590h-74q-4 0 -4 4v119q0 4 4 4h208v-844z" />
<glyph unicode="^" d="M41 246l140 430q2 4 4 4h122q2 0 4 -4l139 -430q2 -4 -3 -4h-140q-2 0 -3 4l-57 222h-2q-57 -220 -58 -222q-2 -4 -5 -4h-139q-4 0 -2 4z" />
<glyph unicode="_" horiz-adv-x="494" d="M13 -169q-3 0 -3 4v109q0 4 3 4h468q3 0 3 -4v-109q0 -4 -3 -4h-468z" />
<glyph unicode="`" horiz-adv-x="440" d="M205 550l-91 148q-3 4 1 4h135q4 0 5 -4l67 -148q1 -4 -1 -4h-111q-3 0 -5 4z" />
<glyph unicode="a" horiz-adv-x="466" d="M214 107q29 0 40 4.5t11 18.5v51q-26 14 -55 14q-13 0 -26 -8t-13 -21v-19q0 -18 14 -29t29 -11zM159 -12q-57 0 -94 32.5t-37 91.5v55q0 63 42 96.5t100 33.5q21 0 44.5 -3.5t36.5 -6.5l13 -3v42q0 24 -15 32.5t-57 8.5q-14 0 -30.5 -1t-29.5 -3t-24.5 -4t-18.5 -3 t-8 -1q-4 0 -5 3q0 2 -12 54l-13 52q0 4 3 5q4 3 20 8.5t55.5 13t84.5 7.5q33 0 56 -2t54 -12t50 -27.5t33 -52t14 -82.5v-318q0 -4 -4 -4h-148q-4 0 -4 4v7q-20 -23 -106 -23z" />
<glyph unicode="b" horiz-adv-x="488" d="M259 132q36 0 36 80v64q0 51 -5 65t-20 14q-14 0 -29 -3.5t-23 -7.5l-8 -3v-184q0 -13 8.5 -19t40.5 -6zM207 0h-157q-3 0 -3 4v672q0 4 3 4h157q3 0 3 -4v-197q66 14 92 14t44 -3t41 -14.5t37 -32.5t24 -61t10 -95v-84q0 -49 -6.5 -85.5t-19.5 -58.5t-27 -36t-35.5 -20 t-37 -7.5t-38.5 -1.5q-69 0 -84 21v-11q0 -4 -3 -4z" />
<glyph unicode="c" horiz-adv-x="435" d="M251 -8q-42 0 -69.5 3t-57 14.5t-47 32.5t-28.5 59t-11 91v110q0 52 14 89.5t34 57.5t51 31.5t56 14t59 2.5q40 0 73 -6.5t45.5 -11.5t14.5 -7q4 -4 3 -6l-31 -110q-1 -3 -5 -3q-1 0 -6 0.5t-13.5 1.5t-19.5 2t-25.5 1.5t-29.5 0.5q-10 0 -21 -4.5t-23 -21.5t-12 -44v-87 q0 -45 14 -58.5t41 -13.5q77 0 95 9q5 0 5 -3q0 -1 18 -57t18 -57q0 -3 -2 -5l-3 -1q-4 -2 -9.5 -4t-13.5 -5t-19.5 -5.5t-25 -4.5t-31.5 -3.5t-38 -1.5z" />
<glyph unicode="d" horiz-adv-x="488" d="M438 0h-156q-4 0 -4 4v12q-7 -10 -31 -17.5t-53 -7.5q-28 0 -46.5 2t-43 13.5t-39 33t-25 62.5t-10.5 99v87q0 55 10 94.5t24 60.5t37 33t41.5 14.5t43.5 2.5q12 0 35 -3.5t40 -7.5l17 -3v197q0 4 5 4h155q3 0 3 -4v-672q0 -4 -3 -4zM230 129q22 0 33 4.5t13 9.5t2 14 v184q-28 14 -61 14q-13 0 -18 -14t-5 -64v-68q0 -80 36 -80z" />
<glyph unicode="e" horiz-adv-x="469" d="M197 292h72q0 27 -8.5 43.5t-15 20t-12.5 3.5q-7 0 -14 -4.5t-14.5 -21t-7.5 -41.5zM246 -10q-214 0 -214 214v84q0 209 201 209q26 0 48.5 -3t51 -15.5t48.5 -33.5t34 -61.5t14 -95.5v-97h-232q0 -38 13.5 -52.5t38.5 -14.5q32 0 67.5 3.5t54.5 6.5t21 4t2 -1q1 -1 1 -2 q27 -95 27 -107q0 -8 -1 -8l-5 -2q-6 -2 -14 -4.5t-19.5 -5.5t-26.5 -6.5t-31.5 -6t-37 -4t-41.5 -1.5z" />
<glyph unicode="f" horiz-adv-x="344" d="M69 0q-3 0 -3 4v361h-33q-3 0 -3 4v114q0 4 3 4h33v3q0 54 12.5 92.5t30 58t45.5 30.5t48 13t49 2q22 0 44.5 -2.5t34.5 -4.5t14 -3q3 -1 3 -5q0 -2 -7 -58.5t-8 -62.5q0 -3 -4 -3l-10 1q-9 1 -21 2t-20 1q-48 0 -48 -61v-3h84q3 0 3 -4v-114q0 -4 -3 -4h-84v-361 q0 -4 -3 -4h-157z" />
<glyph unicode="g" horiz-adv-x="484" d="M215 131q13 0 28 3.5t24 7.5l9 4v183q0 26 -49 26q-10 0 -16.5 -4t-12.5 -23.5t-6 -53.5v-64q0 -34 3 -52t7.5 -22.5t12.5 -4.5zM214 -220q-45 0 -87 5.5t-60 10t-21 6.5q-3 1 -1 5q0 2 16.5 59.5t16.5 58.5q0 4 4 3l7 -1q7 -1 19 -3t27 -3.5t35 -2.5t40 -1q18 0 30.5 3 t24 19t11.5 44v31q-62 -14 -93 -14q-28 0 -47 3t-41 14t-35.5 31.5t-22.5 58.5t-9 92v84q0 56 9.5 95.5t23 61.5t37 34.5t44 15.5t50.5 3q69 0 84 -22v12q0 4 4 4h155q4 0 4 -4v-500q0 -56 -13.5 -95t-33 -60t-52.5 -32t-59 -13.5t-67 -2.5z" />
<glyph unicode="h" horiz-adv-x="500" d="M50 0q-3 0 -3 4v672q0 4 3 4h157q3 0 3 -4v-202q61 19 91 19q25 0 43 -2.5t41.5 -14t38.5 -32t25.5 -60.5t10.5 -96v-284q0 -4 -3 -4h-157q-3 0 -3 4v273q0 34 -4.5 52t-9.5 21.5t-14 3.5q-12 0 -27 -4t-24 -8l-8 -3v-335q0 -4 -3 -4h-157z" />
<glyph unicode="i" horiz-adv-x="256" d="M49 0q-3 0 -3 4v479q0 4 3 4h157q3 0 3 -4v-479q0 -4 -3 -4h-157zM50 550q-3 0 -3 4v122q0 4 3 4h155q3 0 3 -4v-122q0 -4 -3 -4h-155z" />
<glyph unicode="j" horiz-adv-x="277" d="M44 -186q-11 0 -25 1t-25 2.5t-21 3t-16 2.5l-6 1q-3 2 -3 5q0 2 7.5 62t8.5 62q1 3 3 3l9 -1q10 -1 22.5 -2t20.5 -1q13 0 21.5 2.5t17.5 18t9 44.5v466q0 4 3 4h156q4 0 4 -4v-466q0 -55 -12.5 -95t-29.5 -60.5t-44.5 -31.5t-48.5 -13.5t-51 -2.5zM71 550q-3 0 -3 4 v122q0 4 3 4h154q4 0 4 -4v-122q0 -4 -4 -4h-154z" />
<glyph unicode="k" horiz-adv-x="512" d="M50 0q-3 0 -3 4v672q0 4 3 4h157q3 0 3 -4v-359h29q72 163 74 166q3 4 5 4h170q3 0 1 -4l-117 -231q135 -246 136 -248q2 -4 -1 -4h-173q-2 0 -5 4l-90 182h-29v-182q0 -4 -3 -4h-157z" />
<glyph unicode="l" horiz-adv-x="307" d="M225 -6q-52 0 -80.5 5.5t-54 25.5t-35.5 61.5t-10 110.5v479q0 4 3 4h156q3 0 3 -4v-479q0 -39 11.5 -52t35.5 -13q8 0 18 1t17 2t8 1q3 0 4 -4q1 -1 7.5 -61t6.5 -62q0 -4 -2 -5t-14 -3t-33.5 -4.5t-40.5 -2.5z" />
<glyph unicode="m" horiz-adv-x="740" d="M50 0q-3 0 -3 4v479q0 4 3 4h157q3 0 3 -4v-9q60 19 88 19q78 0 114 -42q67 42 131 42q34 0 58 -6.5t48.5 -26t37 -63t12.5 -109.5v-284q0 -4 -4 -4h-155q-4 0 -4 4v273q0 35 -4 52.5t-8.5 21t-13.5 3.5q-13 0 -27 -5t-21 -10l-8 -5v-5.5t0.5 -16t0.5 -24.5v-284 q0 -4 -4 -4h-156q-3 0 -3 4v273q0 34 -4 52t-8.5 21.5t-13.5 3.5q-12 0 -26 -4t-22 -8l-8 -3v-335q0 -4 -3 -4h-157z" />
<glyph unicode="n" horiz-adv-x="500" d="M50 0q-3 0 -3 4v479q0 4 3 4h157q3 0 3 -4v-9q63 19 91 19q25 0 43 -2.5t41.5 -14t38.5 -32t25.5 -60.5t10.5 -96v-284q0 -4 -3 -4h-157q-3 0 -3 4v273q0 49 -6.5 63t-21.5 14q-12 0 -27 -4t-24 -8l-8 -3v-335q0 -4 -3 -4h-157z" />
<glyph unicode="o" horiz-adv-x="473" d="M238 130q13 0 21 4t14 22.5t6 53.5v71q0 48 -11.5 63t-31.5 15q-11 0 -18.5 -4t-14 -22t-6.5 -52v-71q0 -50 10 -65t31 -15zM238 -8q-46 0 -78 7t-63.5 27t-47.5 64t-16 112v87q0 55 12.5 95t30.5 61.5t47 33.5t53.5 15t59.5 3q44 0 74 -5.5t64 -24.5t51.5 -63t17.5 -112 v-90q0 -56 -12 -96t-30 -62t-47.5 -34t-54.5 -15t-61 -3z" />
<glyph unicode="p" horiz-adv-x="488" d="M50 487h157q3 0 3 -4v-12q14 22 83 22q29 0 47 -2t43 -13.5t39.5 -33t25 -62.5t10.5 -99v-86q0 -55 -10 -94.5t-24.5 -60.5t-37.5 -33t-41 -14.5t-44 -2.5q-12 0 -34.5 3t-39.5 7l-17 3v-194q0 -4 -4 -4h-156q-3 0 -3 4v672q0 4 3 4zM258 355q-22 0 -33 -3.5t-13 -8 t-2 -13.5v-187q27 -13 59 -13q15 0 20.5 14t5.5 64v67q0 80 -37 80z" />
<glyph unicode="q" horiz-adv-x="488" d="M230 355q-35 0 -35 -80v-67q0 -50 5 -64t18 -14q14 0 29.5 3t23.5 7l8 3v187q0 9 -2 13.5t-13.5 8t-33.5 3.5zM283 487h156q3 0 3 -4v-672q0 -4 -3 -4h-156q-4 0 -4 4v194q-65 -13 -93 -13q-26 0 -44 2.5t-40.5 14.5t-36.5 33t-24 60.5t-10 94.5v86q0 58 10.5 99t25 62.5 t39 33t43 13.5t46.5 2q69 0 84 -22v12q0 4 4 4z" />
<glyph unicode="r" horiz-adv-x="390" d="M50 0q-3 0 -3 4v479q0 4 3 4h157q3 0 3 -4v-14q47 24 74 24q68 0 100 -21q1 0 1 -5q0 -1 -17.5 -58t-18.5 -59q0 -3 -4 -3q-16 8 -78 8q-12 0 -26.5 -6t-22.5 -12l-8 -6v-327q0 -4 -3 -4h-157z" />
<glyph unicode="s" horiz-adv-x="451" d="M224 -8q-48 0 -94 6.5t-65.5 11.5t-23.5 7q-3 1 -3 5q0 2 15.5 56.5t16.5 56.5t4 2l10 -2q9 -2 24.5 -4.5t34 -4.5t40.5 -4t41 -2q37 0 37 19v17q0 14 -12.5 19.5t-49.5 10.5q-64 8 -108.5 37.5t-44.5 85.5v60q0 128 178 128q97 0 169 -24q2 -1 2 -5q0 -1 -14 -53 t-15 -54q-2 -3 -4 -3l-8 2q-8 1 -21 2.5t-29 3.5t-36.5 3.5t-40.5 1.5q-30 0 -30 -16v-17q0 -19 76 -28q71 -8 105.5 -37.5t34.5 -85.5v-61q0 -35 -12 -60t-29.5 -39t-44.5 -22t-50 -10.5t-53 -2.5z" />
<glyph unicode="t" horiz-adv-x="329" d="M238 -5q-28 0 -45 1t-38.5 5t-34 12.5t-26.5 23t-21 36t-11.5 53t-4.5 72.5v168h-37q-4 0 -4 4v114q0 4 4 4h37v149q0 4 3 4h157q3 0 3 -4v-149h77q4 0 4 -4v-114q0 -4 -4 -4h-77v-168q0 -42 12.5 -53.5t34.5 -11.5q10 0 20 1t16 2l6 1q2 0 3 -4q1 -2 8.5 -61.5 t7.5 -61.5q1 -2 -2 -5q-40 -10 -88 -10z" />
<glyph unicode="u" horiz-adv-x="503" d="M455 487q3 0 3 -4v-479q0 -4 -3 -4h-157q-3 0 -3 4v7q-63 -19 -91 -19q-25 0 -42.5 2.5t-41.5 14t-38.5 32t-25.5 60.5t-11 96v286q0 4 3 4h156q4 0 4 -4v-275q0 -34 4 -51.5t9.5 -21.5t14.5 -4q12 0 27 3.5t23 7.5l9 4v337q0 4 3 4h157z" />
<glyph unicode="v" horiz-adv-x="475" d="M160 0q-2 1 -3 4l-145 479q-1 4 1 4h164q4 0 4 -4l52 -254h12q48 252 49 254q0 4 4 4h163q2 0 2 -4q-1 -1 -37.5 -120t-73.5 -239l-36 -120q-2 -4 -3 -4h-153z" />
<glyph unicode="w" horiz-adv-x="653" d="M117 0q-2 0 -3 4q-1 1 -47.5 239t-46.5 240q0 4 3 4h157q5 0 5 -4l33 -252h6q48 154 49 157q3 4 4 4h104q2 0 3 -4l50 -157h5q29 249 29 252q2 4 6 4h157q3 0 2 -4q-1 -2 -46 -239.5t-45 -239.5q-1 -4 -5 -4h-142q-3 0 -4 4l-60 193h-6q-61 -190 -62 -193q-1 -4 -3 -4 h-143z" />
<glyph unicode="x" horiz-adv-x="479" d="M16 0q-4 0 -2 4l137 248q-127 228 -129 231q-2 4 2 4h170q4 0 5 -4l37 -96h9q37 93 38 96q4 4 5 4h166q4 0 2 -4l-127 -231q136 -246 137 -248q3 -4 -2 -4h-168q-2 0 -5 4l-47 113h-9q-47 -110 -49 -113q-3 -4 -4 -4h-166z" />
<glyph unicode="y" horiz-adv-x="474" d="M65 -180q-3 0 -3 4q1 2 7 64t6 64q0 4 4 4h27q38 0 49 43l6 30q-148 451 -149 454q-2 4 1 4h163q4 0 4 -4l57 -239h8q51 236 51 239q2 4 5 4h159q2 0 1 -4l-177 -538q-12 -35 -26 -59t-27 -37t-33 -19.5t-35 -8t-42 -1.5h-56z" />
<glyph unicode="z" horiz-adv-x="436" d="M46 0q-3 0 -3 4v121q0 3 4 7l154 215v7h-151q-3 0 -3 4v125q0 4 3 4h343q3 0 3 -4v-125q0 -3 -2 -6l-154 -211v-8h157q4 0 4 -4v-125q0 -4 -4 -4h-351z" />
<glyph unicode="{" horiz-adv-x="335" d="M234 -91q-67 0 -96 32.5t-29 104.5v129q0 48 -14 69.5t-51 21.5q-3 0 -3 4v119q0 4 3 4q38 0 51.5 23t13.5 68v129q0 71 28.5 104t96.5 33h69q3 0 3 -4v-116q0 -4 -3 -4h-26q-21 0 -27.5 -11t-6.5 -32v-122q0 -61 -14.5 -87.5t-49.5 -42.5v-3q35 -16 49.5 -42.5 t14.5 -86.5v-123q0 -21 6.5 -32t28.5 -11h25q3 0 3 -4v-116q0 -4 -3 -4h-69z" />
<glyph unicode="|" horiz-adv-x="319" d="M97 -94q-3 0 -3 4v836q0 4 3 4h125q3 0 3 -4v-836q0 -4 -3 -4h-125z" />
<glyph unicode="}" horiz-adv-x="335" d="M102 -91h-69q-3 0 -3 4v116q0 4 3 4h25q22 0 28.5 11t6.5 32v123q0 60 14.5 86.5t48.5 42.5v3q-34 17 -48.5 43t-14.5 87v122q0 43 -34 43h-26q-3 0 -3 4v116q0 4 3 4h69q68 0 96.5 -33t28.5 -104v-129q0 -45 13 -68t51 -23q4 0 4 -4v-119q0 -4 -4 -4q-36 0 -50 -21.5 t-14 -69.5v-129q0 -72 -29 -104.5t-96 -32.5z" />
<glyph unicode="~" d="M69 293q0 12 7 20q40 46 90 46q37 0 89 -29t78 -29q27 0 56.5 22.5t30.5 22.5q4 0 4 -7v-79q0 -13 -7 -21q-44 -49 -91 -49q-36 0 -86 30.5t-78 30.5q-21 0 -41 -11t-33 -22t-16 -11t-3 5v81z" />
<glyph unicode="&#xa1;" horiz-adv-x="273" d="M75 680h143q4 0 4 -4v-135q0 -4 -4 -4h-143q-3 0 -3 4v135q0 4 3 4zM80 469h133q3 0 3 -4v-461q0 -4 -3 -4h-133q-3 0 -3 4v461q0 4 3 4z" />
<glyph unicode="&#xa2;" horiz-adv-x="471" d="M215 -97q-3 0 -3 4v89q-20 2 -31 4.5t-32.5 9t-34.5 19.5t-27.5 33.5t-21.5 54t-7 76.5v104q0 59 16 99.5t44 59t48 25t46 9.5v89q0 4 3 4h87q3 0 3 -4v-87q66 -4 100 -27q4 -1 3 -5l-37 -111q-1 -2 -4 -2q-1 0 -5 1t-11.5 2t-17.5 2t-25 2t-31 1q-55 0 -55 -71v-80 q0 -44 13.5 -58t41.5 -14q73 0 93 10q5 0 5 -3q0 -1 18.5 -56.5t19.5 -57.5q2 -6 -1 -6l-4 -2q-5 -2 -14 -5.5t-20.5 -7t-30 -6t-38.5 -3.5v-88q0 -4 -3 -4h-87z" />
<glyph unicode="&#xa3;" d="M71 0q-3 0 -3 4v253h-25q-3 0 -3 4v105q0 4 3 4h25v147q0 169 208 169q49 0 91.5 -9t58 -16t18.5 -10q3 -1 3 -6q-1 -3 -16 -65.5t-15 -63.5q0 -3 -4 -3q-63 21 -133 21q-40 0 -40 -45v-119h123q3 0 3 -4v-105q0 -4 -3 -4h-123v-105h197q4 0 4 -4v-144q0 -4 -4 -4h-365z " />
<glyph unicode="&#xa4;" horiz-adv-x="442" d="M221 214q14 0 23 3t17 16.5t8 38.5v25q0 35 -12.5 45.5t-32.5 10.5q-14 0 -23.5 -2.5t-19 -16t-9.5 -37.5v-25q0 -34 12.5 -46t36.5 -12zM170 51h-100q-4 0 -4 4q-3 60 28 99q-28 37 -28 99v65q0 66 30 96q-32 35 -30 98q0 4 4 4h99q3 0 3 -4q6 -43 52 -43q21 0 32 9 t13 34q0 4 4 4h99q4 0 4 -4q0 -65 -28 -98q28 -32 28 -96v-65q0 -68 -30 -101q18 -22 24 -42.5t6 -54.5q0 -4 -4 -4h-98q-4 0 -4 4q-4 25 -16 34t-35 9q-22 0 -33.5 -8t-12.5 -35q0 -4 -3 -4z" />
<glyph unicode="&#xa5;" horiz-adv-x="529" d="M183 0q-3 0 -3 4v116h-92q-4 0 -4 4v85q0 4 4 4h92v37h-92q-4 0 -4 4v85q0 4 3 4h54q-134 331 -135 333q-2 4 2 4h171q3 0 4 -4l82 -231h6q77 228 78 231q1 4 4 4h168q3 0 2 -4l-135 -333h52q3 0 3 -4v-85q0 -4 -3 -4h-91v-37h91q3 0 3 -4v-85q0 -4 -3 -4h-92v-116 q0 -4 -3 -4h-162z" />
<glyph unicode="&#xa6;" horiz-adv-x="319" d="M96 -94q-3 0 -3 4v358q0 4 3 4h125q3 0 3 -4v-358q0 -4 -3 -4h-125zM96 389q-3 0 -3 4v353q0 4 3 4h125q3 0 3 -4v-353q0 -4 -3 -4h-125z" />
<glyph unicode="&#xa7;" horiz-adv-x="461" d="M40 25q-3 1 -1 6q0 1 17.5 54t17.5 54q0 3 5 3q1 -1 22.5 -5.5t58 -9.5t66.5 -5q37 0 37 19v14q0 14 -11 19.5t-51 10.5q-25 3 -47.5 9t-48.5 19t-41.5 37.5t-15.5 56.5v58q0 13 3 26t6 20t7 14t4 8q-20 30 -20 66v58q0 129 178 129q82 0 166 -28q3 -1 3 -5q0 -1 -8 -27 t-15 -51.5t-7 -26.5q0 -3 -5 -3q-3 1 -19 4t-48.5 6.5t-63.5 3.5t-31 -16v-14q0 -19 77 -28q65 -8 102 -34t37 -88v-61q0 -32 -19 -61q19 -27 19 -69v-60q0 -36 -12.5 -61.5t-30.5 -39.5t-45.5 -21.5t-49 -9.5t-50.5 -2q-49 0 -96 8t-66 14t-24 9zM277 303l1 11v17v14 q0 7 -12 8t-31.5 6t-33.5 20q-13 -8 -13 -28v-14q0 -3 1.5 -5.5t5.5 -5t7.5 -4.5t10 -3.5t11 -3t12.5 -3t12 -2.5t12.5 -2t11.5 -2zM202 380l-1 -1q0 1 1 1z" />
<glyph unicode="&#xa8;" horiz-adv-x="440" d="M249 550q-4 0 -4 4v122q0 4 4 4h113q3 0 3 -4v-122q0 -4 -3 -4h-113zM78 550q-4 0 -4 4v122q0 4 4 4h113q3 0 3 -4v-122q0 -4 -3 -4h-113z" />
<glyph unicode="&#xa9;" horiz-adv-x="673" d="M335 686q119 0 203.5 -101.5t84.5 -245.5q0 -143 -84.5 -244.5t-203.5 -101.5t-203 101.5t-84 244.5q0 144 84 245.5t203 101.5zM335 74q89 0 151.5 77.5t62.5 187.5t-62.5 188t-151.5 78q-88 0 -150.5 -78t-62.5 -188q0 -109 62.5 -187t150.5 -78zM350 152 q-76 0 -117 32.5t-41 120.5v74q0 148 158 148q29 0 53.5 -5t33 -8.5t10.5 -5.5t2 -4l-25 -85q0 -1 -1 -1.5t-2 0.5q-30 6 -66 6q-8 0 -15.5 -2.5t-16.5 -15.5t-9 -35v-60q0 -19 3 -31t9.5 -16.5t12.5 -6t16 -1.5q12 0 23 1t19 2t14 2t9 2l4 1q1 0 3 -2q0 -1 12.5 -43 t12.5 -43q0 -3 -2 -4q-40 -20 -100 -20z" />
<glyph unicode="&#xaa;" horiz-adv-x="264" d="M98 384q-36 0 -57.5 20.5t-21.5 54.5v32q0 36 23.5 55.5t56.5 19.5q12 0 28.5 -2t26.5 -4l11 -2v26q0 23 -11 30.5t-39 7.5q-9 0 -19 -1t-18 -2t-14 -2.5l-10 -2.5l-4 -1q-3 0 -3 2l-12 48q0 3 1 3q34 17 88 17q23 0 38.5 -2.5t34 -11.5t28.5 -30.5t10 -55.5v-191 q0 -2 -3 -2h-64q-2 0 -2 2v12q-18 -20 -68 -20zM120 441q46 0 46 28v39q-30 8 -51 8q-14 0 -23 -7.5t-9 -18.5v-16q0 -14 10 -23.5t27 -9.5z" />
<glyph unicode="&#xab;" horiz-adv-x="569" d="M235 522q79 -79 83 -87q3 -2 0 -5l-140 -166q139 -164 140 -166q3 -2 0 -5q-79 -79 -83 -87q-2 -2 -4 0q-3 3 -114 128.5t-111 126.5v6q2 2 113 128t112 127q2 2 4 0zM473 522q79 -79 83 -87q3 -2 0 -5l-139 -166q138 -164 139 -166q3 -2 0 -5q-79 -79 -83 -87 q-2 -2 -4 0l-225 255q-3 3 0 6q2 2 113 128t112 127q2 2 4 0z" />
<glyph unicode="&#xac;" d="M312 209h-262q-3 0 -3 4v129q0 4 3 4h394q4 0 4 -4v-258q0 -4 -4 -4h-128q-4 0 -4 4v125z" />
<glyph unicode="&#xad;" horiz-adv-x="356" d="M43 207q-4 0 -4 4v129q0 4 4 4h269q4 0 4 -4v-129q0 -4 -4 -4h-269z" />
<glyph unicode="&#xae;" horiz-adv-x="379" d="M171 500h19q2 0 5.5 1.5t7.5 6t4 12.5v11q0 21 -18 21h-18v-52zM170 385h-49q-2 0 -2 1v213h74q10 0 19 -2t20.5 -8t18.5 -20.5t7 -35.5v-15q0 -42 -23 -55l27 -77q1 -1 -1 -1h-53q-1 0 -1 1l-21 67h-15v-67zM189 341q50 0 85 43.5t35 105.5t-35 105.5t-85 43.5 t-85.5 -43.5t-35.5 -105.5t35.5 -105.5t85.5 -43.5zM189 684q67 0 114.5 -57t47.5 -137q0 -81 -47.5 -138t-114.5 -57t-114.5 57t-47.5 138q0 80 47.5 137t114.5 57z" />
<glyph unicode="&#xaf;" horiz-adv-x="439" d="M357 563h-273q-4 0 -4 4v109q0 4 4 4h273q3 0 3 -4v-109q0 -4 -3 -4z" />
<glyph unicode="&#xb0;" horiz-adv-x="350" d="M172 491q14 0 21.5 7t7.5 30v26q0 21 -7 28.5t-21 7.5q-15 0 -23 -7.5t-8 -28.5v-26q0 -22 8 -29.5t22 -7.5zM172 387q-25 0 -44.5 5t-39 17t-30 38t-10.5 64v62q0 121 128 121q120 0 120 -121v-62q0 -39 -10.5 -65t-30 -38t-39 -16.5t-44.5 -4.5z" />
<glyph unicode="&#xb1;" d="M184 207q-3 0 -3 4v139h-133q-3 0 -3 4v129q0 4 3 4h133v139q0 4 3 4h124q4 0 4 -4v-139h132q4 0 4 -4v-129q0 -4 -4 -4h-132v-139q0 -4 -4 -4h-124zM49 0q-3 0 -3 4v125q0 4 3 4h395q3 0 3 -4v-125q0 -4 -3 -4h-395z" />
<glyph unicode="&#xb2;" horiz-adv-x="273" d="M241 270h-208q-2 0 -2 2v63q0 3 2 5q8 10 28.5 36t28.5 36.5t23.5 31.5t22.5 32t15.5 25.5t12 25t3.5 18.5v29q0 37 -45 37q-10 0 -22 -1.5t-21.5 -3.5t-17.5 -4t-13 -4l-6 -1q-1 -1 -2 -0.5t-1 1.5l-7 29l-6 29q0 4 1 4q42 21 96 21q118 0 118 -96v-46 q0 -23 -16.5 -57.5t-32.5 -58t-54 -77.5v-6h103q1 0 1 -2v-66q0 -2 -1 -2z" />
<glyph unicode="&#xb3;" horiz-adv-x="277" d="M32 285q-1 1 -1 3q0 1 7 30l6 29q0 1 2 1l6 -1q5 -1 14 -3t19.5 -4t23 -3t23.5 -1q44 0 44 37v26q0 46 -41 46h-41q-3 0 -3 2v62q0 2 3 2h42q14 0 24 10.5t10 28.5v25q0 38 -44 38q-16 0 -36 -3t-31 -6t-13 -4q-4 -2 -4 1l-6 29q-5 29 -5 30q0 2 1 3t12 5.5t34 9t48 4.5 q32 0 54.5 -5t42 -27t19.5 -62v-39q0 -18 -7 -34t-13 -23l-7 -8v-5q4 -2 9.5 -6.5t14.5 -23.5t9 -43v-44q0 -57 -31.5 -76t-84.5 -19q-28 0 -53 4.5t-36 8.5z" />
<glyph unicode="&#xb4;" horiz-adv-x="440" d="M237 550q-4 -4 -5 -4h-112q-2 0 -1 4l67 148q3 4 6 4h133q5 0 2 -4z" />
<glyph unicode="&#xb6;" horiz-adv-x="604" d="M227 -180q-4 0 -4 4v394q-18 0 -39.5 4.5t-48.5 17.5t-48.5 33t-36 56t-14.5 82v80q0 52 20 91.5t51 59t60.5 29t57.5 9.5h329q3 0 3 -4v-852q0 -4 -3 -4h-140q-4 0 -4 4v719h-40v-719q0 -4 -3 -4h-140z" />
<glyph unicode="&#xb7;" horiz-adv-x="248" d="M57 191q-3 0 -3 4v142q0 4 3 4h136q3 0 3 -4v-142q0 -4 -3 -4h-136z" />
<glyph unicode="&#xb8;" horiz-adv-x="440" d="M257 -166h-134q-4 0 -2 4q1 3 36.5 84.5t36.5 83.5q3 4 6 4h110q3 0 2 -4l-51 -168q0 -4 -4 -4z" />
<glyph unicode="&#xb9;" horiz-adv-x="267" d="M190 270h-67q-2 0 -2 2v321q-61 -50 -62 -51q-2 0 -3 1q0 1 -8 32t-8 32q0 3 3 4q1 1 38 33t38 33t4 1h67q3 0 3 -2v-404q0 -2 -3 -2z" />
<glyph unicode="&#xba;" horiz-adv-x="263" d="M131 451q21 0 31.5 12t10.5 53v41q0 39 -10.5 51t-30.5 12t-31.5 -12t-11.5 -51v-41q0 -41 10.5 -53t31.5 -12zM131 387q-54 0 -83.5 24t-29.5 101v49q0 76 30.5 99.5t83.5 23.5q25 0 41 -3t34 -14.5t27.5 -37.5t9.5 -67v-50q0 -42 -9 -68.5t-27 -38t-34.5 -15 t-42.5 -3.5z" />
<glyph unicode="&#xbb;" horiz-adv-x="558" d="M324 6q-81 81 -84 87q-2 3 0 5l140 166q-139 164 -140 166q-2 2 0 5q81 81 84 87q2 2 4 0l225 -255q2 -2 0 -6q-1 -1 -112 -127t-113 -128t-4 0zM96 6q-79 79 -83 87q-3 2 0 5l139 166q-138 164 -139 166q-3 2 0 5q79 79 83 87q2 2 4 0l225 -255q3 -3 0 -6l-225 -255 q-2 -2 -4 0z" />
<glyph unicode="&#xbc;" horiz-adv-x="725" d="M186 -6q-2 1 -2 3q-8 2 62 172.5t139.5 340.5t61.5 173q3 3 4 3h82q3 0 2 -4l-262 -684q-3 -4 -6 -4h-81zM615 0h-63q-2 0 -2 2v63h-135q-1 0 -1 3v65q0 2 2 6q1 1 45.5 133.5t44.5 133.5q2 2 3 2h71v-2l-87 -265v-5h57v70q0 2 2 2h63q2 0 2 -2v-70h31q3 0 3 -3v-65 q0 -3 -3 -3h-31v-63q0 -2 -2 -2zM224 272h-67q-2 0 -2 2v321q-60 -50 -61 -51q-2 0 -3 1q0 1 -8 32t-8 32q0 3 3 4l76 66q1 1 3 1h67q3 0 3 -2v-404q0 -2 -3 -2z" />
<glyph unicode="&#xbd;" horiz-adv-x="754" d="M189 -6l-3 3q-7 2 62.5 172.5t139.5 340.5t62 173q2 3 4 3h82q3 0 2 -4q-1 -2 -132 -342.5t-131 -341.5q-1 -4 -5 -4h-81zM678 0h-209q-1 0 -1 2v63q0 4 1 5q8 10 28.5 36t28.5 36.5t23.5 31.5t22.5 32t15.5 25.5t12 25t3.5 18.5v29q0 37 -44 37q-10 0 -22 -1.5t-22 -3.5 t-18 -4t-13 -4l-6 -1q-1 1 -2 1l-7 29l-7 29q0 4 1 4q42 21 97 21q118 0 118 -96v-46q0 -36 -36.5 -111.5t-53.5 -81.5l-14 -6h104q1 0 1 -2v-66q0 -2 -1 -2zM224 272h-67q-2 0 -2 2v321q-60 -50 -61 -51q-2 0 -3 1q0 1 -8 32t-8 32q0 3 3 4l76 66q1 1 3 1h67q3 0 3 -2v-404 q0 -2 -3 -2z" />
<glyph unicode="&#xbe;" horiz-adv-x="777" d="M238 -6q-2 1 -2 3q-8 2 62 172.5t140 340.5t61 173q3 3 5 3h81q3 0 2 -4l-262 -684q-3 -4 -5 -4h-82zM77 289q-1 1 -1 3q0 1 6 30l6 29q0 1 2 1l6 -1q5 -1 14 -3t19.5 -4t23 -3t23.5 -1q44 0 44 37v26q0 46 -41 46h-41q-3 0 -3 2v62q0 2 3 2h42q14 0 24 10.5t10 28.5v25 q0 38 -43 38q-17 0 -36.5 -3t-31 -6t-13.5 -4q-4 -2 -4 1l-5 29q-5 29 -5 30q0 2 1 3t11.5 5t34 9t48.5 5q32 0 54 -5t41.5 -27t19.5 -62v-39q0 -18 -7 -34t-13 -23l-7 -8v-5q4 -2 9.5 -6.5t14.5 -23.5t9 -43v-44q0 -57 -31.5 -76t-84.5 -19q-28 0 -53 4.5t-35 8.5zM666 0 h-62q-3 0 -3 2v63h-134q-1 1 -1 3v65q0 2 2 6q1 1 45.5 133.5t44.5 133.5l2 2h71q1 0 1 -2l-87 -265v-5h56v70q0 2 3 2h62q3 0 3 -2v-70h30q3 0 3 -3v-65q0 -3 -3 -3h-30v-63q0 -2 -3 -2z" />
<glyph unicode="&#xbf;" horiz-adv-x="408" d="M133 680h143q3 0 3 -4v-135q0 -4 -3 -4h-143q-3 0 -3 4v135q0 4 3 4zM129 472h148q3 0 3 -4v-23q0 -41 -15.5 -79.5t-33.5 -62.5t-33.5 -50.5t-15.5 -45.5v-24q0 -16 7 -26.5t13.5 -14t10.5 -3.5q12 0 24.5 1.5t24 3.5t22.5 4.5t19.5 5t15 4.5t10.5 4l4 1q4 0 5 -2 q0 -1 15 -62t15 -62q0 -5 -2 -6q-5 -4 -21.5 -11t-55.5 -16.5t-79 -9.5q-189 0 -189 169v44q0 38 52 118t52 120v23q0 4 4 4z" />
<glyph unicode="&#xc0;" horiz-adv-x="545" d="M170 0h-170q-4 0 -2 4l189 672q1 4 4 4h186q4 0 5 -4l184 -672q2 -4 -3 -4h-170q-3 0 -4 4l-20 107h-173q-21 -104 -22 -107q-1 -4 -4 -4zM270 750l-91 148q-3 4 1 4h135q4 0 5 -4l67 -148q1 -4 -1 -4h-111q-3 0 -5 4zM231 244h103l-41 229h-20z" />
<glyph unicode="&#xc1;" horiz-adv-x="545" d="M170 0h-170q-4 0 -2 4l189 672q1 4 4 4h186q4 0 5 -4l184 -672q2 -4 -3 -4h-170q-3 0 -4 4l-20 107h-173q-21 -104 -22 -107q-1 -4 -4 -4zM296 750q-4 -4 -5 -4h-112q-2 0 -1 4l67 148q3 4 6 4h133q5 0 2 -4zM231 244h103l-41 229h-20z" />
<glyph unicode="&#xc2;" horiz-adv-x="545" d="M170 0h-170q-4 0 -2 4l189 672q1 4 4 4h186q4 0 5 -4l184 -672q2 -4 -3 -4h-170q-3 0 -4 4l-20 107h-173q-21 -104 -22 -107q-1 -4 -4 -4zM238 745h-111l-2 4q-1 2 45 75t46 74q-1 1 0.5 2t4.5 1h122q5 0 8 -4l88 -148q2 -4 -1 -4h-110q-3 0 -6 4l-39 63h-2 q-35 -60 -37 -63q-3 -4 -6 -4zM231 244h103l-41 229h-20z" />
<glyph unicode="&#xc3;" horiz-adv-x="545" d="M170 0h-170q-4 0 -2 4l189 672q1 4 4 4h186q4 0 5 -4l184 -672q2 -4 -3 -4h-170q-3 0 -4 4l-20 107h-173q-21 -104 -22 -107q-1 -4 -4 -4zM146 755q-3 0 -3 5v82q0 11 7 20q25 35 72 35q28 0 67.5 -19t60.5 -19q22 0 44 17.5t24 17.5q5 0 5 -6v-80q0 -13 -8 -21 q-39 -39 -73 -39q-29 0 -67.5 20.5t-57.5 20.5q-23 0 -46.5 -17t-24.5 -17zM231 244h103l-41 229h-20z" />
<glyph unicode="&#xc4;" horiz-adv-x="545" d="M170 0h-170q-4 0 -2 4l189 672q1 4 4 4h186q4 0 5 -4l184 -672q2 -4 -3 -4h-170q-3 0 -4 4l-20 107h-173q-21 -104 -22 -107q-1 -4 -4 -4zM141 750q-4 0 -4 4v122q0 4 4 4h113q3 0 3 -4v-122q0 -4 -3 -4h-113zM312 750q-4 0 -4 4v122q0 4 4 4h113q3 0 3 -4v-122 q0 -4 -3 -4h-113zM231 244h103l-41 229h-20z" />
<glyph unicode="&#xc5;" horiz-adv-x="545" d="M170 0h-170q-4 0 -2 4l189 672q1 4 4 4h186q4 0 5 -4l184 -672q2 -4 -3 -4h-170q-3 0 -4 4l-20 107h-173q-21 -104 -22 -107q-1 -4 -4 -4zM282 723q-45 0 -72.5 19.5t-27.5 79.5v25q0 57 28.5 77t74.5 20q27 0 45.5 -4.5t35 -27.5t16.5 -65v-25q0 -32 -8.5 -53.5 t-24.5 -30.5t-31 -12t-36 -3zM231 244h103l-41 229h-20zM282 789q11 0 18.5 2t13 11.5t5.5 26.5v11q0 39 -35 39q-39 0 -39 -39v-11q0 -25 9.5 -32.5t27.5 -7.5z" />
<glyph unicode="&#xc6;" horiz-adv-x="781" d="M275 244h87v240h-20zM181 0h-171q-2 0 -1 4q0 1 69 168.5t137.5 335t69.5 168.5q0 4 5 4h445q3 0 3 -4v-141q0 -4 -3 -4h-204v-113h163q3 0 3 -4v-141q0 -4 -3 -4h-163v-120h204q3 0 3 -4v-141q0 -4 -3 -4h-373v111h-144q-32 -104 -33 -107q-1 -4 -4 -4z" />
<glyph unicode="&#xc7;" horiz-adv-x="478" d="M290 -166h-134q-4 0 -2 4q12 37 67 156q-84 10 -133.5 67t-49.5 188v190q0 65 14.5 112t37 74t57 42.5t66.5 20t74 4.5q53 0 93.5 -7t53.5 -12.5t15 -7.5q3 -3 2 -6l-12 -33q-12 -34 -23 -66t-11 -33q0 -3 -4 -3q-2 1 -16.5 4t-42.5 6t-54 3q-17 0 -28 -3t-24.5 -13 t-20.5 -35t-7 -64v-159q0 -71 18.5 -91t58.5 -20q19 0 38.5 1.5t34 3.5t26.5 4t19 3.5t8 1.5q2 2 4 -2l45 -133q1 -3 -2 -6q-52 -26 -117 -32l-47 -155q0 -4 -4 -4z" />
<glyph unicode="&#xc8;" horiz-adv-x="463" d="M48 0v680h394q3 0 3 -4v-141q0 -4 -3 -4h-225v-114h183q4 0 4 -4v-140q0 -4 -4 -4h-183v-120h225q3 0 3 -4v-141q0 -4 -3 -4h-394zM228 750l-91 148q-3 4 1 4h135q4 0 5 -4l67 -148q1 -4 -1 -4h-111q-3 0 -5 4z" />
<glyph unicode="&#xc9;" horiz-adv-x="463" d="M48 0v680h394q3 0 3 -4v-141q0 -4 -3 -4h-225v-114h183q4 0 4 -4v-140q0 -4 -4 -4h-183v-120h225q3 0 3 -4v-141q0 -4 -3 -4h-394zM264 750q-4 -4 -5 -4h-112q-2 0 -1 4l67 148q3 4 6 4h133q5 0 2 -4z" />
<glyph unicode="&#xca;" horiz-adv-x="463" d="M48 0v680h394q3 0 3 -4v-141q0 -4 -3 -4h-225v-114h183q4 0 4 -4v-140q0 -4 -4 -4h-183v-120h225q3 0 3 -4v-141q0 -4 -3 -4h-394zM205 745h-111l-2 4q-1 2 45 75t46 74q-1 1 0.5 2t4.5 1h122q5 0 8 -4l88 -148q2 -4 -1 -4h-110q-3 0 -6 4l-39 63h-2q-35 -60 -37 -63 q-3 -4 -6 -4z" />
<glyph unicode="&#xcb;" horiz-adv-x="463" d="M48 0v680h394q3 0 3 -4v-141q0 -4 -3 -4h-225v-114h183q4 0 4 -4v-140q0 -4 -4 -4h-183v-120h225q3 0 3 -4v-141q0 -4 -3 -4h-394zM98 750q-4 0 -4 4v122q0 4 4 4h113q3 0 3 -4v-122q0 -4 -3 -4h-113zM269 750q-4 0 -4 4v122q0 4 4 4h113q3 0 3 -4v-122q0 -4 -3 -4h-113z " />
<glyph unicode="&#xcc;" horiz-adv-x="245" d="M51 0q-3 0 -3 4v672q0 4 3 4h163q3 0 3 -4v-672q0 -4 -3 -4h-163zM120 750l-91 148q-3 4 1 4h135q4 0 5 -4l67 -148q1 -4 -1 -4h-111q-3 0 -5 4z" />
<glyph unicode="&#xcd;" horiz-adv-x="245" d="M51 0q-3 0 -3 4v672q0 4 3 4h163q3 0 3 -4v-672q0 -4 -3 -4h-163zM147 750q-4 -4 -5 -4h-112q-2 0 -1 4l67 148q3 4 6 4h133q5 0 2 -4z" />
<glyph unicode="&#xce;" horiz-adv-x="245" d="M51 0q-3 0 -3 4v672q0 4 3 4h163q3 0 3 -4v-672q0 -4 -3 -4h-163zM88 745h-111l-2 4q-1 2 45 75t46 74q-1 1 0.5 2t4.5 1h122q5 0 8 -4l88 -148q2 -4 -1 -4h-110q-3 0 -6 4l-39 63h-2q-35 -60 -37 -63q-3 -4 -6 -4z" />
<glyph unicode="&#xcf;" horiz-adv-x="245" d="M51 0q-3 0 -3 4v672q0 4 3 4h163q3 0 3 -4v-672q0 -4 -3 -4h-163zM-9 750q-4 0 -4 4v122q0 4 4 4h113q3 0 3 -4v-122q0 -4 -3 -4h-113zM162 750q-4 0 -4 4v122q0 4 4 4h113q3 0 3 -4v-122q0 -4 -3 -4h-113z" />
<glyph unicode="&#xd0;" horiz-adv-x="546" d="M218 157h54q24 0 35.5 5.5t20 32t8.5 80.5v133q0 41 -4 65t-14 34.5t-19 13t-27 2.5h-54v-114h56q3 0 3 -4v-124q0 -4 -3 -4h-56v-120zM274 0h-225v277h-29q-3 0 -3 4v124q0 4 3 4h29v271h225q25 0 43 -1t44.5 -6.5t44.5 -15.5t38.5 -29t33 -45.5t21 -67.5t8.5 -92v-161 q0 -53 -8 -94.5t-19.5 -68.5t-31.5 -46.5t-37.5 -29.5t-44.5 -15.5t-45.5 -6.5t-46.5 -1z" />
<glyph unicode="&#xd1;" horiz-adv-x="569" d="M47 0q-3 0 -3 4v672q0 4 4 4h175q3 0 5 -3l151 -377h8v376q0 4 3 4h160q3 0 3 -4v-672q0 -4 -4 -4h-178q-5 0 -6 4l-148 375h-10v-375q0 -4 -3 -4h-157zM159 755q-3 0 -3 5v82q0 11 7 20q25 35 72 35q28 0 67.5 -19t60.5 -19q22 0 44 17.5t24 17.5q5 0 5 -6v-80 q0 -13 -8 -21q-39 -39 -73 -39q-29 0 -67.5 20.5t-57.5 20.5q-23 0 -46.5 -17t-24.5 -17z" />
<glyph unicode="&#xd2;" horiz-adv-x="524" d="M271 -11q-29 0 -49.5 1.5t-47 7.5t-45 16.5t-37 30t-30 46.5t-19 66.5t-7.5 90.5v189q0 68 14.5 116.5t35 74.5t54.5 40.5t62.5 18t68.5 3.5t67.5 -3t62 -17.5t55.5 -40.5t35.5 -74.5t14.5 -117.5v-189q0 -52 -7.5 -92.5t-19.5 -67.5t-31.5 -46.5t-37.5 -29.5t-45 -15.5 t-46 -6.5t-48 -1zM271 145q38 0 51 19.5t13 95.5v162q0 52 -8 77t-19.5 30.5t-36.5 5.5t-36.5 -5.5t-19.5 -30.5t-8 -77v-162q0 -76 12.5 -95.5t51.5 -19.5zM260 750l-91 148q-3 4 1 4h135q4 0 5 -4l67 -148q1 -4 -1 -4h-111q-3 0 -5 4z" />
<glyph unicode="&#xd3;" horiz-adv-x="524" d="M271 -11q-29 0 -49.5 1.5t-47 7.5t-45 16.5t-37 30t-30 46.5t-19 66.5t-7.5 90.5v189q0 68 14.5 116.5t35 74.5t54.5 40.5t62.5 18t68.5 3.5t67.5 -3t62 -17.5t55.5 -40.5t35.5 -74.5t14.5 -117.5v-189q0 -52 -7.5 -92.5t-19.5 -67.5t-31.5 -46.5t-37.5 -29.5t-45 -15.5 t-46 -6.5t-48 -1zM271 145q38 0 51 19.5t13 95.5v162q0 52 -8 77t-19.5 30.5t-36.5 5.5t-36.5 -5.5t-19.5 -30.5t-8 -77v-162q0 -76 12.5 -95.5t51.5 -19.5zM286 750q-4 -4 -5 -4h-112q-2 0 -1 4l67 148q3 4 6 4h133q5 0 2 -4z" />
<glyph unicode="&#xd4;" horiz-adv-x="524" d="M271 -11q-29 0 -49.5 1.5t-47 7.5t-45 16.5t-37 30t-30 46.5t-19 66.5t-7.5 90.5v189q0 68 14.5 116.5t35 74.5t54.5 40.5t62.5 18t68.5 3.5t67.5 -3t62 -17.5t55.5 -40.5t35.5 -74.5t14.5 -117.5v-189q0 -52 -7.5 -92.5t-19.5 -67.5t-31.5 -46.5t-37.5 -29.5t-45 -15.5 t-46 -6.5t-48 -1zM271 145q38 0 51 19.5t13 95.5v162q0 52 -8 77t-19.5 30.5t-36.5 5.5t-36.5 -5.5t-19.5 -30.5t-8 -77v-162q0 -76 12.5 -95.5t51.5 -19.5zM228 745h-111l-2 4q-1 2 45 75t46 74q-1 1 0.5 2t4.5 1h122q5 0 8 -4l88 -148q2 -4 -1 -4h-110q-3 0 -6 4l-39 63 h-2q-35 -60 -37 -63q-3 -4 -6 -4z" />
<glyph unicode="&#xd5;" horiz-adv-x="524" d="M271 145q38 0 51 19.5t13 95.5v162q0 52 -8 77t-19.5 30.5t-36.5 5.5t-36.5 -5.5t-19.5 -30.5t-8 -77v-162q0 -76 12.5 -95.5t51.5 -19.5zM271 -11q-29 0 -49.5 1.5t-47 7.5t-45 16.5t-37 30t-30 46.5t-19 66.5t-7.5 90.5v189q0 68 14.5 116.5t35 74.5t54.5 40.5t62.5 18 t68.5 3.5t67.5 -3t62 -17.5t55.5 -40.5t35.5 -74.5t14.5 -117.5v-189q0 -52 -7.5 -92.5t-19.5 -67.5t-31.5 -46.5t-37.5 -29.5t-45 -15.5t-46 -6.5t-48 -1zM136 755q-3 0 -3 5v82q0 11 7 20q25 35 72 35q28 0 67.5 -19t60.5 -19q22 0 44 17.5t24 17.5q5 0 5 -6v-80 q0 -13 -8 -21q-39 -39 -73 -39q-29 0 -67.5 20.5t-57.5 20.5q-23 0 -46.5 -17t-24.5 -17z" />
<glyph unicode="&#xd6;" horiz-adv-x="524" d="M271 -11q-29 0 -49.5 1.5t-47 7.5t-45 16.5t-37 30t-30 46.5t-19 66.5t-7.5 90.5v189q0 68 14.5 116.5t35 74.5t54.5 40.5t62.5 18t68.5 3.5t67.5 -3t62 -17.5t55.5 -40.5t35.5 -74.5t14.5 -117.5v-189q0 -52 -7.5 -92.5t-19.5 -67.5t-31.5 -46.5t-37.5 -29.5t-45 -15.5 t-46 -6.5t-48 -1zM271 145q38 0 51 19.5t13 95.5v162q0 52 -8 77t-19.5 30.5t-36.5 5.5t-36.5 -5.5t-19.5 -30.5t-8 -77v-162q0 -76 12.5 -95.5t51.5 -19.5zM302 750q-4 0 -4 4v122q0 4 4 4h113q3 0 3 -4v-122q0 -4 -3 -4h-113zM131 750q-4 0 -4 4v122q0 4 4 4h113q3 0 3 -4 v-122q0 -4 -3 -4h-113z" />
<glyph unicode="&#xd7;" d="M139 55l-21 23q-22 22 -42.5 43.5t-21.5 21.5q-2 2 0 6l102 126q-100 125 -102 127t0 5q81 81 85 89q3 3 4 0l103 -127q102 125 103 127q1 3 4 0l86 -89q2 -2 0 -5l-103 -127q102 -124 103 -126q2 -4 0 -6q-82 -82 -85 -88q-2 -3 -5 0l-103 126q-101 -124 -103 -126t-4 0 z" />
<glyph unicode="&#xd8;" horiz-adv-x="524" d="M42 -40q-3 0 -2 4l43 91q-47 63 -47 193v189q0 68 14.5 116.5t35 74.5t54.5 40.5t62.5 18t68.5 3.5q45 0 78 -5l15 33q0 4 5 4h131q3 0 2 -4l-43 -94q47 -64 47 -187v-189q0 -52 -7.5 -92.5t-19.5 -67.5t-31.5 -46.5t-37.5 -29.5t-45 -15.5t-46 -6.5t-48 -1q-48 0 -79 6 q-14 -30 -14 -31q-3 -4 -5 -4h-131zM271 145q38 0 51 19.5t13 95.5v162q0 52 -8 77t-19.5 30.5t-36.5 5.5t-36.5 -5.5t-19.5 -30.5t-8 -77v-162q0 -76 12.5 -95.5t51.5 -19.5z" />
<glyph unicode="&#xd9;" horiz-adv-x="540" d="M263 -10q-124 0 -170.5 61.5t-46.5 199.5v425q0 4 3 4h163q3 0 3 -4v-413q0 -27 0.5 -39.5t3 -30.5t7.5 -26t14.5 -14t23.5 -6h32q31 0 40 25.5t9 90.5v413q0 4 3 4h163q4 0 4 -4v-425q0 -65 -8.5 -108.5t-31 -80.5t-67 -54.5t-113.5 -17.5h-32zM266 750l-91 148 q-3 4 1 4h135q4 0 5 -4l67 -148q1 -4 -1 -4h-111q-3 0 -5 4z" />
<glyph unicode="&#xda;" horiz-adv-x="540" d="M263 -10q-124 0 -170.5 61.5t-46.5 199.5v425q0 4 3 4h163q3 0 3 -4v-413q0 -27 0.5 -39.5t3 -30.5t7.5 -26t14.5 -14t23.5 -6h32q31 0 40 25.5t9 90.5v413q0 4 3 4h163q4 0 4 -4v-425q0 -65 -8.5 -108.5t-31 -80.5t-67 -54.5t-113.5 -17.5h-32zM293 750q-4 -4 -5 -4 h-112q-2 0 -1 4l67 148q3 4 6 4h133q5 0 2 -4z" />
<glyph unicode="&#xdb;" horiz-adv-x="540" d="M263 -10q-124 0 -170.5 61.5t-46.5 199.5v425q0 4 3 4h163q3 0 3 -4v-413q0 -27 0.5 -39.5t3 -30.5t7.5 -26t14.5 -14t23.5 -6h32q31 0 40 25.5t9 90.5v413q0 4 3 4h163q4 0 4 -4v-425q0 -65 -8.5 -108.5t-31 -80.5t-67 -54.5t-113.5 -17.5h-32zM234 745h-111l-2 4 q-1 2 45 75t46 74q-1 1 0.5 2t4.5 1h122q5 0 8 -4l88 -148q2 -4 -1 -4h-110q-3 0 -6 4l-39 63h-2q-35 -60 -37 -63q-3 -4 -6 -4z" />
<glyph unicode="&#xdc;" horiz-adv-x="540" d="M263 -10q-124 0 -170.5 61.5t-46.5 199.5v425q0 4 3 4h163q3 0 3 -4v-413q0 -27 0.5 -39.5t3 -30.5t7.5 -26t14.5 -14t23.5 -6h32q31 0 40 25.5t9 90.5v413q0 4 3 4h163q4 0 4 -4v-425q0 -65 -8.5 -108.5t-31 -80.5t-67 -54.5t-113.5 -17.5h-32zM137 750q-4 0 -4 4v122 q0 4 4 4h113q3 0 3 -4v-122q0 -4 -3 -4h-113zM308 750q-4 0 -4 4v122q0 4 4 4h113q3 0 3 -4v-122q0 -4 -3 -4h-113z" />
<glyph unicode="&#xdd;" horiz-adv-x="517" d="M187 0q-3 0 -3 4v255q-173 414 -174 417q-3 4 2 4h171q3 0 4 -4l81 -231h6q77 228 78 231q1 4 4 4h168q3 0 2 -4l-173 -417v-255q0 -4 -3 -4h-163zM282 750q-4 -4 -5 -4h-112q-2 0 -1 4l67 148q3 4 6 4h133q5 0 2 -4z" />
<glyph unicode="&#xde;" horiz-adv-x="534" d="M217 274h66q8 0 19 3t25 17.5t14 38.5v34q0 62 -59 62h-65v-155zM213 0h-162q-3 0 -3 4v672q0 4 3 4h162q3 0 3 -4v-98h77q26 0 49.5 -2.5t56 -14t56 -31t40 -58t16.5 -89.5v-66q0 -52 -18 -90t-42 -57t-58 -30t-55 -13t-45 -2h-77v-121q0 -4 -3 -4z" />
<glyph unicode="&#xdf;" horiz-adv-x="509" d="M203 0h-153q-3 0 -3 4v483q0 116 53.5 157.5t151.5 41.5q31 0 55 -3t51.5 -14.5t45.5 -30.5t30 -53t12 -81v-44q0 -32 -7 -58t-13 -36l-7 -9v-7q6 -5 15.5 -14t25 -40.5t15.5 -67.5v-46q0 -59 -17 -98t-49.5 -57.5t-66.5 -25.5t-81 -7q-3 0 -3 4v130q0 4 3 4q50 0 50 60 v31q0 26 -17.5 41t-32.5 15q-3 0 -3 4v130q0 4 3 4q32 0 32 52v29q0 52 -42 52q-44 0 -44 -63v-483q0 -4 -4 -4z" />
<glyph unicode="&#xe0;" horiz-adv-x="445" d="M159 -12q-57 0 -94 32.5t-37 91.5v55q0 63 42 96.5t100 33.5q21 0 44.5 -3.5t36.5 -6.5l13 -3v42q0 24 -15 32.5t-57 8.5q-14 0 -30.5 -1t-29.5 -3t-24.5 -4t-18.5 -3t-8 -1q-4 0 -5 3q0 2 -12 54l-13 52q0 4 3 5q4 3 20 8.5t55.5 13t84.5 7.5q33 0 56 -2t54 -12 t50 -27.5t33 -52t14 -82.5v-318q0 -4 -4 -4h-148q-4 0 -4 4v7q-20 -23 -106 -23zM220 550l-91 148q-3 4 1 4h135q4 0 5 -4l67 -148q1 -4 -1 -4h-111q-3 0 -5 4zM214 107q29 0 40 4.5t11 18.5v51q-26 14 -55 14q-13 0 -26 -8t-13 -21v-19q0 -18 14 -29t29 -11z" />
<glyph unicode="&#xe1;" horiz-adv-x="445" d="M159 -12q-57 0 -94 32.5t-37 91.5v55q0 63 42 96.5t100 33.5q21 0 44.5 -3.5t36.5 -6.5l13 -3v42q0 24 -15 32.5t-57 8.5q-14 0 -30.5 -1t-29.5 -3t-24.5 -4t-18.5 -3t-8 -1q-4 0 -5 3q0 2 -12 54l-13 52q0 4 3 5q4 3 20 8.5t55.5 13t84.5 7.5q33 0 56 -2t54 -12 t50 -27.5t33 -52t14 -82.5v-318q0 -4 -4 -4h-148q-4 0 -4 4v7q-20 -23 -106 -23zM246 550q-4 -4 -5 -4h-112q-2 0 -1 4l67 148q3 4 6 4h133q5 0 2 -4zM214 107q29 0 40 4.5t11 18.5v51q-26 14 -55 14q-13 0 -26 -8t-13 -21v-19q0 -18 14 -29t29 -11z" />
<glyph unicode="&#xe2;" horiz-adv-x="445" d="M159 -12q-57 0 -94 32.5t-37 91.5v55q0 63 42 96.5t100 33.5q21 0 44.5 -3.5t36.5 -6.5l13 -3v42q0 24 -15 32.5t-57 8.5q-14 0 -30.5 -1t-29.5 -3t-24.5 -4t-18.5 -3t-8 -1q-4 0 -5 3q0 2 -12 54l-13 52q0 4 3 5q4 3 20 8.5t55.5 13t84.5 7.5q33 0 56 -2t54 -12 t50 -27.5t33 -52t14 -82.5v-318q0 -4 -4 -4h-148q-4 0 -4 4v7q-20 -23 -106 -23zM188 545h-111l-2 4q-1 2 45 75t46 74q-1 1 0.5 2t4.5 1h122q5 0 8 -4l88 -148q2 -4 -1 -4h-110q-3 0 -6 4l-39 63h-2q-35 -60 -37 -63q-3 -4 -6 -4zM214 107q29 0 40 4.5t11 18.5v51 q-26 14 -55 14q-13 0 -26 -8t-13 -21v-19q0 -18 14 -29t29 -11z" />
<glyph unicode="&#xe3;" horiz-adv-x="445" d="M214 107q29 0 40 4.5t11 18.5v51q-26 14 -55 14q-13 0 -26 -8t-13 -21v-19q0 -18 14 -29t29 -11zM159 -12q-57 0 -94 32.5t-37 91.5v55q0 63 42 96.5t100 33.5q21 0 44.5 -3.5t36.5 -6.5l13 -3v42q0 24 -15 32.5t-57 8.5q-14 0 -30.5 -1t-29.5 -3t-24.5 -4t-18.5 -3 t-8 -1q-4 0 -5 3q0 2 -12 54l-13 52q0 4 3 5q4 3 20 8.5t55.5 13t84.5 7.5q33 0 56 -2t54 -12t50 -27.5t33 -52t14 -82.5v-318q0 -4 -4 -4h-148q-4 0 -4 4v7q-20 -23 -106 -23zM96 555q-3 0 -3 5v82q0 11 7 20q25 35 72 35q28 0 67.5 -19t60.5 -19q22 0 44 17.5t24 17.5 q5 0 5 -6v-80q0 -13 -8 -21q-39 -39 -73 -39q-29 0 -67.5 20.5t-57.5 20.5q-23 0 -46.5 -17t-24.5 -17z" />
<glyph unicode="&#xe4;" horiz-adv-x="445" d="M159 -12q-57 0 -94 32.5t-37 91.5v55q0 63 42 96.5t100 33.5q21 0 44.5 -3.5t36.5 -6.5l13 -3v42q0 24 -15 32.5t-57 8.5q-14 0 -30.5 -1t-29.5 -3t-24.5 -4t-18.5 -3t-8 -1q-4 0 -5 3q0 2 -12 54l-13 52q0 4 3 5q4 3 20 8.5t55.5 13t84.5 7.5q33 0 56 -2t54 -12 t50 -27.5t33 -52t14 -82.5v-318q0 -4 -4 -4h-148q-4 0 -4 4v7q-20 -23 -106 -23zM91 550q-4 0 -4 4v122q0 4 4 4h113q3 0 3 -4v-122q0 -4 -3 -4h-113zM262 550q-4 0 -4 4v122q0 4 4 4h113q3 0 3 -4v-122q0 -4 -3 -4h-113zM214 107q29 0 40 4.5t11 18.5v51q-26 14 -55 14 q-13 0 -26 -8t-13 -21v-19q0 -18 14 -29t29 -11z" />
<glyph unicode="&#xe5;" horiz-adv-x="445" d="M214 107q29 0 40 4.5t11 18.5v51q-26 14 -55 14q-13 0 -26 -8t-13 -21v-19q0 -18 14 -29t29 -11zM159 -12q-57 0 -94 32.5t-37 91.5v55q0 63 42 96.5t100 33.5q21 0 44.5 -3.5t36.5 -6.5l13 -3v42q0 24 -15 32.5t-57 8.5q-14 0 -30.5 -1t-29.5 -3t-24.5 -4t-18.5 -3 t-8 -1q-4 0 -5 3q0 2 -12 54l-13 52q0 4 3 5q4 3 20 8.5t55.5 13t84.5 7.5q33 0 56 -2t54 -12t50 -27.5t33 -52t14 -82.5v-318q0 -4 -4 -4h-148q-4 0 -4 4v7q-20 -23 -106 -23zM233 589q11 0 18.5 2t13 11.5t5.5 26.5v11q0 39 -35 39q-39 0 -39 -39v-11q0 -25 9.5 -32.5 t27.5 -7.5zM233 523q-45 0 -72.5 19.5t-27.5 79.5v25q0 57 28.5 77t74.5 20q27 0 45.5 -4.5t35 -27.5t16.5 -65v-25q0 -32 -8.5 -53.5t-24.5 -30.5t-31 -12t-36 -3z" />
<glyph unicode="&#xe6;" horiz-adv-x="702" d="M221 108q51 0 51 28v46q-26 14 -55 14q-15 0 -27 -8t-12 -21v-18q0 -22 13 -31.5t30 -9.5zM434 293h73q0 35 -7.5 49t-28.5 14q-37 0 -37 -63zM176 -11q-141 0 -141 125v55q0 60 37 95t105 35q20 0 43.5 -3.5t37.5 -7.5l13 -3v38q0 24 -15 32t-56 8q-22 0 -49.5 -3.5 t-43 -6.5t-17.5 -4q-4 0 -4 4q-1 2 -14 53t-13 53q-2 3 2 5q5 3 22.5 8.5t58 13.5t80.5 8q90 0 134 -28q37 28 115 28q27 0 46.5 -2t50 -13t50 -31.5t34.5 -61t15 -97.5v-97h-232q1 -40 14 -51.5t37 -11.5q22 0 44.5 1.5t39 3.5t30 4t21.5 4l8 1q4 0 4 -3l29 -109 q2 -3 -3 -5q-6 -3 -23 -9t-61.5 -14t-91.5 -8q-86 0 -132 35q-55 -41 -175 -41z" />
<glyph unicode="&#xe7;" horiz-adv-x="413" d="M258 -166h-134q-4 0 -2 4l67 157q-74 7 -112.5 49t-38.5 148v110q0 52 14 89.5t34 57.5t51 31.5t56 14t59 2.5q40 0 73 -6.5t45.5 -11.5t14.5 -7q4 -4 3 -6l-31 -110q-1 -3 -5 -3q-1 0 -6 0.5t-13.5 1.5t-19.5 2t-25.5 1.5t-29.5 0.5q-10 0 -21 -4.5t-23 -21.5t-12 -44 v-87q0 -45 14 -58.5t41 -13.5q77 0 95 9q5 0 5 -3q0 -1 18 -57t18 -57q0 -3 -2 -5l-4 -2q-4 -2 -10.5 -4t-15.5 -5t-23 -5.5t-29 -4.5l-47 -158q0 -4 -4 -4z" />
<glyph unicode="&#xe8;" horiz-adv-x="449" d="M246 -10q-214 0 -214 214v84q0 209 201 209q26 0 48.5 -3t51 -15.5t48.5 -33.5t34 -61.5t14 -95.5v-97h-232q0 -38 13.5 -52.5t38.5 -14.5q32 0 67.5 3.5t54.5 6.5t21 4t2 -1q1 -1 1 -2q27 -95 27 -107q0 -8 -1 -8l-5 -2q-6 -2 -14 -4.5t-19.5 -5.5t-26.5 -6.5t-31.5 -6 t-37 -4t-41.5 -1.5zM221 550l-91 148q-3 4 1 4h135q4 0 5 -4l67 -148q1 -4 -1 -4h-111q-3 0 -5 4zM197 292h72q0 27 -8.5 43.5t-15 20t-12.5 3.5q-7 0 -14 -4.5t-14.5 -21t-7.5 -41.5z" />
<glyph unicode="&#xe9;" horiz-adv-x="449" d="M246 -10q-214 0 -214 214v84q0 209 201 209q26 0 48.5 -3t51 -15.5t48.5 -33.5t34 -61.5t14 -95.5v-97h-232q0 -38 13.5 -52.5t38.5 -14.5q32 0 67.5 3.5t54.5 6.5t21 4t2 -1q1 -1 1 -2q27 -95 27 -107q0 -8 -1 -8l-5 -2q-6 -2 -14 -4.5t-19.5 -5.5t-26.5 -6.5t-31.5 -6 t-37 -4t-41.5 -1.5zM248 550q-4 -4 -5 -4h-112q-2 0 -1 4l67 148q3 4 6 4h133q5 0 2 -4zM197 292h72q0 27 -8.5 43.5t-15 20t-12.5 3.5q-7 0 -14 -4.5t-14.5 -21t-7.5 -41.5z" />
<glyph unicode="&#xea;" horiz-adv-x="449" d="M246 -10q-214 0 -214 214v84q0 209 201 209q26 0 48.5 -3t51 -15.5t48.5 -33.5t34 -61.5t14 -95.5v-97h-232q0 -38 13.5 -52.5t38.5 -14.5q32 0 67.5 3.5t54.5 6.5t21 4t2 -1q1 -1 1 -2q27 -95 27 -107q0 -8 -1 -8l-5 -2q-6 -2 -14 -4.5t-19.5 -5.5t-26.5 -6.5t-31.5 -6 t-37 -4t-41.5 -1.5zM189 545h-111l-2 4q-1 2 45 75t46 74q-1 1 0.5 2t4.5 1h122q5 0 8 -4l88 -148q2 -4 -1 -4h-110q-3 0 -6 4l-39 63h-2q-35 -60 -37 -63q-3 -4 -6 -4zM197 292h72q0 27 -8.5 43.5t-15 20t-12.5 3.5q-7 0 -14 -4.5t-14.5 -21t-7.5 -41.5z" />
<glyph unicode="&#xeb;" horiz-adv-x="449" d="M246 -10q-214 0 -214 214v84q0 209 201 209q26 0 48.5 -3t51 -15.5t48.5 -33.5t34 -61.5t14 -95.5v-97h-232q0 -38 13.5 -52.5t38.5 -14.5q32 0 67.5 3.5t54.5 6.5t21 4t2 -1q1 -1 1 -2q27 -95 27 -107q0 -8 -1 -8l-5 -2q-6 -2 -14 -4.5t-19.5 -5.5t-26.5 -6.5t-31.5 -6 t-37 -4t-41.5 -1.5zM92 550q-4 0 -4 4v122q0 4 4 4h113q3 0 3 -4v-122q0 -4 -3 -4h-113zM263 550q-4 0 -4 4v122q0 4 4 4h113q3 0 3 -4v-122q0 -4 -3 -4h-113zM197 292h72q0 27 -8.5 43.5t-15 20t-12.5 3.5q-7 0 -14 -4.5t-14.5 -21t-7.5 -41.5z" />
<glyph unicode="&#xec;" horiz-adv-x="234" d="M38 0q-3 0 -3 4v479q0 4 3 4h157q3 0 3 -4v-479q0 -4 -3 -4h-157zM114 550l-91 148q-3 4 1 4h135q4 0 5 -4l67 -148q1 -4 -1 -4h-111q-3 0 -5 4z" />
<glyph unicode="&#xed;" horiz-adv-x="234" d="M38 0q-3 0 -3 4v479q0 4 3 4h157q3 0 3 -4v-479q0 -4 -3 -4h-157zM141 550q-4 -4 -5 -4h-112q-2 0 -1 4l67 148q3 4 6 4h133q5 0 2 -4z" />
<glyph unicode="&#xee;" horiz-adv-x="234" d="M38 0q-3 0 -3 4v479q0 4 3 4h157q3 0 3 -4v-479q0 -4 -3 -4h-157zM82 545h-111l-2 4q-1 2 45 75t46 74q-1 1 0.5 2t4.5 1h122q5 0 8 -4l88 -148q2 -4 -1 -4h-110q-3 0 -6 4l-39 63h-2q-35 -60 -37 -63q-3 -4 -6 -4z" />
<glyph unicode="&#xef;" horiz-adv-x="234" d="M38 0q-3 0 -3 4v479q0 4 3 4h157q3 0 3 -4v-479q0 -4 -3 -4h-157zM-14 550q-4 0 -4 4v122q0 4 4 4h113q3 0 3 -4v-122q0 -4 -3 -4h-113zM157 550q-4 0 -4 4v122q0 4 4 4h113q3 0 3 -4v-122q0 -4 -3 -4h-113z" />
<glyph unicode="&#xf0;" horiz-adv-x="515" d="M231 132q31 0 40 6t9 19v184q-29 14 -61 14q-7 0 -11.5 -3.5t-8 -22t-3.5 -52.5v-65q0 -49 9.5 -64.5t25.5 -15.5zM196 -6q-40 0 -65.5 6.5t-50 27t-36.5 64.5t-12 112v84q0 67 12.5 110.5t37 62.5t48 25.5t57.5 6.5q19 0 42 -3.5t37 -7.5l14 -3v55h-80q-3 0 -3 5v103 q0 4 4 4h79v30q0 4 3 4h157q3 0 3 -4v-30h42q4 0 4 -4v-104q0 -4 -3 -4h-43v-530q0 -4 -3 -4h-157q-3 0 -3 4v12q-19 -22 -84 -22z" />
<glyph unicode="&#xf1;" horiz-adv-x="479" d="M50 0q-3 0 -3 4v479q0 4 3 4h157q3 0 3 -4v-9q63 19 91 19q25 0 43 -2.5t41.5 -14t38.5 -32t25.5 -60.5t10.5 -96v-284q0 -4 -3 -4h-157q-3 0 -3 4v273q0 49 -6.5 63t-21.5 14q-12 0 -27 -4t-24 -8l-8 -3v-335q0 -4 -3 -4h-157zM113 555q-3 0 -3 5v82q0 11 7 20 q25 35 72 35q28 0 67.5 -19t60.5 -19q22 0 44 17.5t24 17.5q5 0 5 -6v-80q0 -13 -8 -21q-39 -39 -73 -39q-29 0 -67.5 20.5t-57.5 20.5q-23 0 -46.5 -17t-24.5 -17z" />
<glyph unicode="&#xf2;" horiz-adv-x="453" d="M238 -8q-46 0 -78 7t-63.5 27t-47.5 64t-16 112v87q0 55 12.5 95t30.5 61.5t47 33.5t53.5 15t59.5 3q44 0 74 -5.5t64 -24.5t51.5 -63t17.5 -112v-90q0 -56 -12 -96t-30 -62t-47.5 -34t-54.5 -15t-61 -3zM223 550l-91 148q-3 4 1 4h135q4 0 5 -4l67 -148q1 -4 -1 -4h-111 q-3 0 -5 4zM238 130q13 0 21 4t14 22.5t6 53.5v71q0 48 -11.5 63t-31.5 15q-11 0 -18.5 -4t-14 -22t-6.5 -52v-71q0 -50 10 -65t31 -15z" />
<glyph unicode="&#xf3;" horiz-adv-x="453" d="M238 -8q-46 0 -78 7t-63.5 27t-47.5 64t-16 112v87q0 55 12.5 95t30.5 61.5t47 33.5t53.5 15t59.5 3q44 0 74 -5.5t64 -24.5t51.5 -63t17.5 -112v-90q0 -56 -12 -96t-30 -62t-47.5 -34t-54.5 -15t-61 -3zM249 550q-4 -4 -5 -4h-112q-2 0 -1 4l67 148q3 4 6 4h133 q5 0 2 -4zM238 130q13 0 21 4t14 22.5t6 53.5v71q0 48 -11.5 63t-31.5 15q-11 0 -18.5 -4t-14 -22t-6.5 -52v-71q0 -50 10 -65t31 -15z" />
<glyph unicode="&#xf4;" horiz-adv-x="453" d="M238 -8q-46 0 -78 7t-63.5 27t-47.5 64t-16 112v87q0 55 12.5 95t30.5 61.5t47 33.5t53.5 15t59.5 3q44 0 74 -5.5t64 -24.5t51.5 -63t17.5 -112v-90q0 -56 -12 -96t-30 -62t-47.5 -34t-54.5 -15t-61 -3zM191 545h-111l-2 4q-1 2 45 75t46 74q-1 1 0.5 2t4.5 1h122 q5 0 8 -4l88 -148q2 -4 -1 -4h-110q-3 0 -6 4l-39 63h-2q-35 -60 -37 -63q-3 -4 -6 -4zM238 130q13 0 21 4t14 22.5t6 53.5v71q0 48 -11.5 63t-31.5 15q-11 0 -18.5 -4t-14 -22t-6.5 -52v-71q0 -50 10 -65t31 -15z" />
<glyph unicode="&#xf5;" horiz-adv-x="453" d="M238 130q13 0 21 4t14 22.5t6 53.5v71q0 48 -11.5 63t-31.5 15q-11 0 -18.5 -4t-14 -22t-6.5 -52v-71q0 -50 10 -65t31 -15zM238 -8q-46 0 -78 7t-63.5 27t-47.5 64t-16 112v87q0 55 12.5 95t30.5 61.5t47 33.5t53.5 15t59.5 3q44 0 74 -5.5t64 -24.5t51.5 -63t17.5 -112 v-90q0 -56 -12 -96t-30 -62t-47.5 -34t-54.5 -15t-61 -3zM99 555q-3 0 -3 5v82q0 11 7 20q25 35 72 35q28 0 67.5 -19t60.5 -19q22 0 44 17.5t24 17.5q5 0 5 -6v-80q0 -13 -8 -21q-39 -39 -73 -39q-29 0 -67.5 20.5t-57.5 20.5q-23 0 -46.5 -17t-24.5 -17z" />
<glyph unicode="&#xf6;" horiz-adv-x="453" d="M238 -8q-46 0 -78 7t-63.5 27t-47.5 64t-16 112v87q0 55 12.5 95t30.5 61.5t47 33.5t53.5 15t59.5 3q44 0 74 -5.5t64 -24.5t51.5 -63t17.5 -112v-90q0 -56 -12 -96t-30 -62t-47.5 -34t-54.5 -15t-61 -3zM238 130q13 0 21 4t14 22.5t6 53.5v71q0 48 -11.5 63t-31.5 15 q-11 0 -18.5 -4t-14 -22t-6.5 -52v-71q0 -50 10 -65t31 -15zM266 550q-4 0 -4 4v122q0 4 4 4h113q3 0 3 -4v-122q0 -4 -3 -4h-113zM95 550q-4 0 -4 4v122q0 4 4 4h113q3 0 3 -4v-122q0 -4 -3 -4h-113z" />
<glyph unicode="&#xf7;" d="M49 209q-3 0 -3 4v125q0 4 3 4h394q4 0 4 -4v-125q0 -4 -4 -4h-394zM179 402q-3 0 -3 4v142q0 4 3 4h135q4 0 4 -4v-142q0 -4 -4 -4h-135zM179 0q-3 0 -3 4v142q0 4 3 4h135q4 0 4 -4v-142q0 -4 -4 -4h-135z" />
<glyph unicode="&#xf8;" horiz-adv-x="453" d="M103 -45q-3 0 -2 4q0 1 18 53q-86 40 -86 190v87q0 55 12.5 95t30.5 61.5t47 33.5t53.5 15t59.5 3q19 0 29 -1q2 7 5 15t4 13l2 4q1 4 5 4h94q4 0 3 -4l-19 -53q84 -42 84 -183v-90q0 -56 -12 -96t-30 -62t-47.5 -34t-54.5 -15t-61 -3q-16 0 -24 1q-3 -8 -6 -16.5 t-4 -12.5l-2 -5q-2 -4 -6 -4h-93zM238 130q13 0 21 4t14 22.5t6 53.5v71q0 48 -11.5 63t-31.5 15q-11 0 -18.5 -4t-14 -22t-6.5 -52v-71q0 -50 10 -65t31 -15z" />
<glyph unicode="&#xf9;" horiz-adv-x="482" d="M455 487q3 0 3 -4v-479q0 -4 -3 -4h-157q-3 0 -3 4v7q-63 -19 -91 -19q-25 0 -42.5 2.5t-41.5 14t-38.5 32t-25.5 60.5t-11 96v286q0 4 3 4h156q4 0 4 -4v-275q0 -34 4 -51.5t9.5 -21.5t14.5 -4q12 0 27 3.5t23 7.5l9 4v337q0 4 3 4h157zM239 550l-91 148q-3 4 1 4h135 q4 0 5 -4l67 -148q1 -4 -1 -4h-111q-3 0 -5 4z" />
<glyph unicode="&#xfa;" horiz-adv-x="482" d="M455 487q3 0 3 -4v-479q0 -4 -3 -4h-157q-3 0 -3 4v7q-63 -19 -91 -19q-25 0 -42.5 2.5t-41.5 14t-38.5 32t-25.5 60.5t-11 96v286q0 4 3 4h156q4 0 4 -4v-275q0 -34 4 -51.5t9.5 -21.5t14.5 -4q12 0 27 3.5t23 7.5l9 4v337q0 4 3 4h157zM265 550q-4 -4 -5 -4h-112 q-2 0 -1 4l67 148q3 4 6 4h133q5 0 2 -4z" />
<glyph unicode="&#xfb;" horiz-adv-x="482" d="M455 487q3 0 3 -4v-479q0 -4 -3 -4h-157q-3 0 -3 4v7q-63 -19 -91 -19q-25 0 -42.5 2.5t-41.5 14t-38.5 32t-25.5 60.5t-11 96v286q0 4 3 4h156q4 0 4 -4v-275q0 -34 4 -51.5t9.5 -21.5t14.5 -4q12 0 27 3.5t23 7.5l9 4v337q0 4 3 4h157zM207 545h-111l-2 4q-1 2 45 75 t46 74q-1 1 0.5 2t4.5 1h122q5 0 8 -4l88 -148q2 -4 -1 -4h-110q-3 0 -6 4l-39 63h-2q-35 -60 -37 -63q-3 -4 -6 -4z" />
<glyph unicode="&#xfc;" horiz-adv-x="482" d="M455 487q3 0 3 -4v-479q0 -4 -3 -4h-157q-3 0 -3 4v7q-63 -19 -91 -19q-25 0 -42.5 2.5t-41.5 14t-38.5 32t-25.5 60.5t-11 96v286q0 4 3 4h156q4 0 4 -4v-275q0 -34 4 -51.5t9.5 -21.5t14.5 -4q12 0 27 3.5t23 7.5l9 4v337q0 4 3 4h157zM110 550q-4 0 -4 4v122q0 4 4 4 h113q3 0 3 -4v-122q0 -4 -3 -4h-113zM281 550q-4 0 -4 4v122q0 4 4 4h113q3 0 3 -4v-122q0 -4 -3 -4h-113z" />
<glyph unicode="&#xfd;" horiz-adv-x="453" d="M65 -180q-3 0 -3 4q1 2 7 64t6 64q0 4 4 4h27q38 0 49 43l6 30q-148 451 -149 454q-2 4 1 4h163q4 0 4 -4l57 -239h8q51 236 51 239q2 4 5 4h159q2 0 1 -4l-177 -538q-12 -35 -26 -59t-27 -37t-33 -19.5t-35 -8t-42 -1.5h-56zM255 550q-4 -4 -5 -4h-112q-2 0 -1 4l67 148 q3 4 6 4h133q5 0 2 -4z" />
<glyph unicode="&#xfe;" horiz-adv-x="488" d="M210 146q29 -14 60 -14q9 0 13.5 3.5t8 21t3.5 53.5v65q0 80 -37 80q-48 0 -48 -25v-184zM207 -180h-157q-3 0 -3 4v852q0 4 3 4h157q3 0 3 -4v-205q18 22 84 22q27 0 43 -1.5t42 -12.5t41 -31.5t26.5 -62.5t11.5 -102v-84q0 -58 -12 -99.5t-27 -61.5t-40 -30.5 t-39.5 -12t-37.5 -1.5q-13 0 -36 3.5t-40 6.5l-16 4v-184q0 -4 -3 -4z" />
<glyph unicode="&#xff;" horiz-adv-x="453" d="M65 -180q-3 0 -3 4q1 2 7 64t6 64q0 4 4 4h27q38 0 49 43l6 30q-148 451 -149 454q-2 4 1 4h163q4 0 4 -4l57 -239h8q51 236 51 239q2 4 5 4h159q2 0 1 -4l-177 -538q-12 -35 -26 -59t-27 -37t-33 -19.5t-35 -8t-42 -1.5h-56zM99 550q-4 0 -4 4v122q0 4 4 4h113q3 0 3 -4 v-122q0 -4 -3 -4h-113zM270 550q-4 0 -4 4v122q0 4 4 4h113q3 0 3 -4v-122q0 -4 -3 -4h-113z" />
<glyph unicode="&#x100;" horiz-adv-x="545" d="M170 0h-170q-4 0 -2 4l189 672q1 4 4 4h186q4 0 5 -4l184 -672q2 -4 -3 -4h-170q-3 0 -4 4l-20 107h-173q-21 -104 -22 -107q-1 -4 -4 -4zM419 756h-273q-4 0 -4 4v109q0 4 4 4h273q3 0 3 -4v-109q0 -4 -3 -4zM231 244h103l-41 229h-20z" />
<glyph unicode="&#x101;" horiz-adv-x="445" d="M214 107q29 0 40 4.5t11 18.5v51q-26 14 -55 14q-13 0 -26 -8t-13 -21v-19q0 -18 14 -29t29 -11zM159 -12q-57 0 -94 32.5t-37 91.5v55q0 63 42 96.5t100 33.5q21 0 44.5 -3.5t36.5 -6.5l13 -3v42q0 24 -15 32.5t-57 8.5q-14 0 -30.5 -1t-29.5 -3t-24.5 -4t-18.5 -3 t-8 -1q-4 0 -5 3q0 2 -12 54l-13 52q0 4 3 5q4 3 20 8.5t55.5 13t84.5 7.5q33 0 56 -2t54 -12t50 -27.5t33 -52t14 -82.5v-318q0 -4 -4 -4h-148q-4 0 -4 4v7q-20 -23 -106 -23zM369 563h-273q-4 0 -4 4v109q0 4 4 4h273q3 0 3 -4v-109q0 -4 -3 -4z" />
<glyph unicode="&#x102;" horiz-adv-x="545" d="M170 0h-170q-4 0 -2 4l189 672q1 4 4 4h186q4 0 5 -4l184 -672q2 -4 -3 -4h-170q-3 0 -4 4l-20 107h-173q-21 -104 -22 -107q-1 -4 -4 -4zM284 735q-140 0 -140 141q0 7 8 7h66q7 0 9 -6q10 -25 20.5 -33t34.5 -8q43 0 55 41q2 6 11 6h66q9 0 9 -7q-4 -141 -139 -141z M231 244h103l-41 229h-20z" />
<glyph unicode="&#x103;" horiz-adv-x="445" d="M214 107q29 0 40 4.5t11 18.5v51q-26 14 -55 14q-13 0 -26 -8t-13 -21v-19q0 -18 14 -29t29 -11zM159 -12q-57 0 -94 32.5t-37 91.5v55q0 63 42 96.5t100 33.5q21 0 44.5 -3.5t36.5 -6.5l13 -3v42q0 24 -15 32.5t-57 8.5q-14 0 -30.5 -1t-29.5 -3t-24.5 -4t-18.5 -3 t-8 -1q-4 0 -5 3q0 2 -12 54l-13 52q0 4 3 5q4 3 20 8.5t55.5 13t84.5 7.5q33 0 56 -2t54 -12t50 -27.5t33 -52t14 -82.5v-318q0 -4 -4 -4h-148q-4 0 -4 4v7q-20 -23 -106 -23zM234 542q-140 0 -140 141q0 7 8 7h66q7 0 9 -6q10 -25 20.5 -33t34.5 -8q43 0 55 41q2 6 11 6 h66q9 0 9 -7q-4 -141 -139 -141z" />
<glyph unicode="&#x104;" horiz-adv-x="545" d="M473 -195q-45 0 -72 20t-27 77q0 63 46 98h-27q-3 0 -4 4l-20 107h-173q-21 -104 -22 -107q-1 -4 -4 -4h-170q-4 0 -2 4l189 672q1 4 4 4h186q4 0 5 -4l184 -672q0 -3 -1 -4q-2 -1 -3 -2q-3 -2 -8 -5q-22 -13 -32.5 -20.5t-21 -19.5t-10.5 -23q0 -15 10 -15q8 0 22 9 q4 3 8 -1q1 -2 20 -38t19 -37q2 -6 -1 -9q-4 -4 -14.5 -11t-34 -15t-46.5 -8zM231 244h103l-41 229h-20z" />
<glyph unicode="&#x105;" horiz-adv-x="445" d="M328 -195q-45 0 -72 20t-27 77q0 63 46 98h-6q-4 0 -4 4v7q-20 -23 -106 -23q-57 0 -94 32.5t-37 91.5v55q0 63 42 96.5t100 33.5q21 0 44.5 -3.5t36.5 -6.5l13 -3v42q0 24 -15 32.5t-57 8.5q-14 0 -30.5 -1t-29.5 -3t-24.5 -4t-18.5 -3t-8 -1q-4 0 -5 3q0 2 -12 54 l-13 52q0 4 3 5q4 3 20 8.5t55.5 13t84.5 7.5q33 0 56 -2t54 -12t50 -27.5t33 -52t14 -82.5v-318v-1q0 -2 -4 -5q-3 -2 -8 -5q-22 -13 -32.5 -20.5t-21 -19.5t-10.5 -23q0 -15 10 -15q9 0 22 9q4 3 8 -1q1 -2 20 -38t19 -37q2 -6 -1 -9q-4 -4 -14.5 -11t-34 -15t-46.5 -8z M214 107q29 0 40 4.5t11 18.5v51q-26 14 -55 14q-13 0 -26 -8t-13 -21v-19q0 -18 14 -29t29 -11z" />
<glyph unicode="&#x106;" horiz-adv-x="478" d="M285 -10q-41 0 -72.5 4.5t-66 20.5t-57 43t-37 75.5t-14.5 115.5v190q0 65 14.5 112t37 74t57 42.5t66.5 20t74 4.5q53 0 93.5 -7t53.5 -12.5t15 -7.5q3 -3 2 -6l-12 -33q-12 -34 -23 -66t-11 -33q0 -3 -4 -3q-2 1 -16.5 4t-42.5 6t-54 3q-17 0 -28 -3t-24.5 -13 t-20.5 -35t-7 -64v-159q0 -71 18.5 -91t58.5 -20q19 0 38.5 1.5t34 3.5t26.5 4t19 3.5t8 1.5q2 2 4 -2l45 -133q1 -3 -2 -6q-70 -35 -173 -35zM300 743q-4 -4 -5 -4h-112q-2 0 -1 4l67 148q3 4 6 4h133q5 0 2 -4z" />
<glyph unicode="&#x107;" horiz-adv-x="414" d="M251 -8q-42 0 -69.5 3t-57 14.5t-47 32.5t-28.5 59t-11 91v110q0 52 14 89.5t34 57.5t51 31.5t56 14t59 2.5q40 0 73 -6.5t45.5 -11.5t14.5 -7q4 -4 3 -6l-31 -110q-1 -3 -5 -3q-1 0 -6 0.5t-13.5 1.5t-19.5 2t-25.5 1.5t-29.5 0.5q-10 0 -21 -4.5t-23 -21.5t-12 -44v-87 q0 -45 14 -58.5t41 -13.5q77 0 95 9q5 0 5 -3q0 -1 18 -57t18 -57q0 -3 -2 -5l-3 -1q-4 -2 -9.5 -4t-13.5 -5t-19.5 -5.5t-25 -4.5t-31.5 -3.5t-38 -1.5zM268 550q-4 -4 -5 -4h-112q-2 0 -1 4l67 148q3 4 6 4h133q5 0 2 -4z" />
<glyph unicode="&#x108;" horiz-adv-x="478" d="M285 -10q-41 0 -72.5 4.5t-66 20.5t-57 43t-37 75.5t-14.5 115.5v190q0 65 14.5 112t37 74t57 42.5t66.5 20t74 4.5q53 0 93.5 -7t53.5 -12.5t15 -7.5q3 -3 2 -6l-12 -33q-12 -34 -23 -66t-11 -33q0 -3 -4 -3q-2 1 -16.5 4t-42.5 6t-54 3q-17 0 -28 -3t-24.5 -13 t-20.5 -35t-7 -64v-159q0 -71 18.5 -91t58.5 -20q19 0 38.5 1.5t34 3.5t26.5 4t19 3.5t8 1.5q2 2 4 -2l45 -133q1 -3 -2 -6q-70 -35 -173 -35zM242 738h-111l-2 4q-1 2 45 75t46 74q-1 1 0.5 2t4.5 1h122q5 0 8 -4l88 -148q2 -4 -1 -4h-110q-3 0 -6 4l-39 63h-2 q-35 -60 -37 -63q-3 -4 -6 -4z" />
<glyph unicode="&#x109;" horiz-adv-x="414" d="M251 -8q-42 0 -69.5 3t-57 14.5t-47 32.5t-28.5 59t-11 91v110q0 52 14 89.5t34 57.5t51 31.5t56 14t59 2.5q40 0 73 -6.5t45.5 -11.5t14.5 -7q4 -4 3 -6l-31 -110q-1 -3 -5 -3q-1 0 -6 0.5t-13.5 1.5t-19.5 2t-25.5 1.5t-29.5 0.5q-10 0 -21 -4.5t-23 -21.5t-12 -44v-87 q0 -45 14 -58.5t41 -13.5q77 0 95 9q5 0 5 -3q0 -1 18 -57t18 -57q0 -3 -2 -5l-3 -1q-4 -2 -9.5 -4t-13.5 -5t-19.5 -5.5t-25 -4.5t-31.5 -3.5t-38 -1.5zM198 545h-111l-2 4q-1 2 45 75t46 74q-1 1 0.5 2t4.5 1h122q5 0 8 -4l88 -148q2 -4 -1 -4h-110q-3 0 -6 4l-39 63h-2 q-35 -60 -37 -63q-3 -4 -6 -4z" />
<glyph unicode="&#x10a;" horiz-adv-x="478" d="M285 -10q-41 0 -72.5 4.5t-66 20.5t-57 43t-37 75.5t-14.5 115.5v190q0 65 14.5 112t37 74t57 42.5t66.5 20t74 4.5q53 0 93.5 -7t53.5 -12.5t15 -7.5q3 -3 2 -6l-12 -33q-12 -34 -23 -66t-11 -33q0 -3 -4 -3q-2 1 -16.5 4t-42.5 6t-54 3q-17 0 -28 -3t-24.5 -13 t-20.5 -35t-7 -64v-159q0 -71 18.5 -91t58.5 -20q19 0 38.5 1.5t34 3.5t26.5 4t19 3.5t8 1.5q2 2 4 -2l45 -133q1 -3 -2 -6q-70 -35 -173 -35zM214 735q-4 0 -4 4v130q0 4 4 4h144q3 0 3 -4v-130q0 -4 -4 -4h-143z" />
<glyph unicode="&#x10b;" horiz-adv-x="414" d="M251 -8q-42 0 -69.5 3t-57 14.5t-47 32.5t-28.5 59t-11 91v110q0 52 14 89.5t34 57.5t51 31.5t56 14t59 2.5q40 0 73 -6.5t45.5 -11.5t14.5 -7q4 -4 3 -6l-31 -110q-1 -3 -5 -3q-1 0 -6 0.5t-13.5 1.5t-19.5 2t-25.5 1.5t-29.5 0.5q-10 0 -21 -4.5t-23 -21.5t-12 -44v-87 q0 -45 14 -58.5t41 -13.5q77 0 95 9q5 0 5 -3q0 -1 18 -57t18 -57q0 -3 -2 -5l-3 -1q-4 -2 -9.5 -4t-13.5 -5t-19.5 -5.5t-25 -4.5t-31.5 -3.5t-38 -1.5zM182 542q-4 0 -4 4v130q0 4 4 4h144q3 0 3 -4v-130q0 -4 -4 -4h-143z" />
<glyph unicode="&#x10c;" horiz-adv-x="478" d="M285 -10q-41 0 -72.5 4.5t-66 20.5t-57 43t-37 75.5t-14.5 115.5v190q0 65 14.5 112t37 74t57 42.5t66.5 20t74 4.5q53 0 93.5 -7t53.5 -12.5t15 -7.5q3 -3 2 -6l-12 -33q-12 -34 -23 -66t-11 -33q0 -3 -4 -3q-2 1 -16.5 4t-42.5 6t-54 3q-17 0 -28 -3t-24.5 -13 t-20.5 -35t-7 -64v-159q0 -71 18.5 -91t58.5 -20q19 0 38.5 1.5t34 3.5t26.5 4t19 3.5t8 1.5q2 2 4 -2l45 -133q1 -3 -2 -6q-70 -35 -173 -35zM331 890h115q5 0 2 -4l-102 -148q-3 -4 -7 -4h-104q-7 0 -7 4q1 2 -25.5 38.5l-53 73t-24.5 36.5q-2 4 2 4h115q2 0 5 -4l38 -62 h2q37 59 39 62q3 4 5 4z" />
<glyph unicode="&#x10d;" horiz-adv-x="414" d="M251 -8q-42 0 -69.5 3t-57 14.5t-47 32.5t-28.5 59t-11 91v110q0 52 14 89.5t34 57.5t51 31.5t56 14t59 2.5q40 0 73 -6.5t45.5 -11.5t14.5 -7q4 -4 3 -6l-31 -110q-1 -3 -5 -3q-1 0 -6 0.5t-13.5 1.5t-19.5 2t-25.5 1.5t-29.5 0.5q-10 0 -21 -4.5t-23 -21.5t-12 -44v-87 q0 -45 14 -58.5t41 -13.5q77 0 95 9q5 0 5 -3q0 -1 18 -57t18 -57q0 -3 -2 -5l-3 -1q-4 -2 -9.5 -4t-13.5 -5t-19.5 -5.5t-25 -4.5t-31.5 -3.5t-38 -1.5zM287 697h115q5 0 2 -4l-102 -148q-3 -4 -7 -4h-104q-7 0 -7 4q1 2 -25.5 38.5l-53 73t-24.5 36.5q-2 4 2 4h115 q2 0 5 -4l38 -62h2q37 59 39 62q3 4 5 4z" />
<glyph unicode="&#x10e;" horiz-adv-x="526" d="M217 157h53q34 0 49 20.5t15 96.5v134q0 75 -14.5 95t-49.5 20h-53v-366zM270 0h-222v680h222q26 0 43 -1t44 -6t45.5 -15t40 -29t34.5 -45.5t21.5 -67.5t8.5 -93v-161q0 -53 -8 -94.5t-20.5 -68.5t-33 -46.5t-38.5 -29.5t-45 -15.5t-46 -6.5t-46 -1zM306 890h115 q5 0 2 -4l-102 -148q-3 -4 -7 -4h-104q-7 0 -7 4q1 2 -25.5 38.5l-53 73t-24.5 36.5q-2 4 2 4h115q2 0 5 -4l38 -62h2q37 59 39 62q3 4 5 4z" />
<glyph unicode="&#x10f;" horiz-adv-x="634" d="M438 0h-156q-4 0 -4 4v12q-7 -10 -31 -17.5t-53 -7.5q-28 0 -46.5 2t-43 13.5t-39 33t-25 62.5t-10.5 99v87q0 55 10 94.5t24 60.5t37 33t41.5 14.5t43.5 2.5q12 0 35 -3.5t40 -7.5l17 -3v197q0 4 5 4h155q3 0 3 -4v-672q0 -4 -3 -4zM501 458q-5 -2 -5 4v214q0 4 3 4h119 q4 0 4 -4v-132q0 -4 -4 -7q-1 -1 -19.5 -13t-39.5 -26.5t-39 -27.5zM230 129q22 0 33 4.5t13 9.5t2 14v184q-28 14 -61 14q-13 0 -18 -14t-5 -64v-68q0 -80 36 -80z" />
<glyph unicode="&#x110;" horiz-adv-x="546" d="M218 157h54q24 0 35.5 5.5t20 32t8.5 80.5v133q0 41 -4 65t-14 34.5t-19 13t-27 2.5h-54v-114h56q3 0 3 -4v-124q0 -4 -3 -4h-56v-120zM274 0h-225v277h-29q-3 0 -3 4v124q0 4 3 4h29v271h225q25 0 43 -1t44.5 -6.5t44.5 -15.5t38.5 -29t33 -45.5t21 -67.5t8.5 -92v-161 q0 -53 -8 -94.5t-19.5 -68.5t-31.5 -46.5t-37.5 -29.5t-44.5 -15.5t-45.5 -6.5t-46.5 -1z" />
<glyph unicode="&#x111;" horiz-adv-x="515" d="M231 132q31 0 40 6t9 19v184q-29 14 -61 14q-7 0 -11.5 -3.5t-8 -22t-3.5 -52.5v-65q0 -49 9.5 -64.5t25.5 -15.5zM196 -6q-40 0 -65.5 6.5t-50 27t-36.5 64.5t-12 112v84q0 67 12.5 110.5t37 62.5t48 25.5t57.5 6.5q19 0 42 -3.5t37 -7.5l14 -3v55h-80q-3 0 -3 5v103 q0 4 4 4h79v30q0 4 3 4h157q3 0 3 -4v-30h42q4 0 4 -4v-104q0 -4 -3 -4h-43v-530q0 -4 -3 -4h-157q-3 0 -3 4v12q-19 -22 -84 -22z" />
<glyph unicode="&#x112;" horiz-adv-x="463" d="M48 0v680h394q3 0 3 -4v-141q0 -4 -3 -4h-225v-114h183q4 0 4 -4v-140q0 -4 -4 -4h-183v-120h225q3 0 3 -4v-141q0 -4 -3 -4h-394zM384 756h-273q-4 0 -4 4v109q0 4 4 4h273q3 0 3 -4v-109q0 -4 -3 -4z" />
<glyph unicode="&#x113;" horiz-adv-x="449" d="M197 292h72q0 27 -8.5 43.5t-15 20t-12.5 3.5q-7 0 -14 -4.5t-14.5 -21t-7.5 -41.5zM246 -10q-214 0 -214 214v84q0 209 201 209q26 0 48.5 -3t51 -15.5t48.5 -33.5t34 -61.5t14 -95.5v-97h-232q0 -38 13.5 -52.5t38.5 -14.5q32 0 67.5 3.5t54.5 6.5t21 4t2 -1q1 -1 1 -2 q27 -95 27 -107q0 -8 -1 -8l-5 -2q-6 -2 -14 -4.5t-19.5 -5.5t-26.5 -6.5t-31.5 -6t-37 -4t-41.5 -1.5zM371 563h-273q-4 0 -4 4v109q0 4 4 4h273q3 0 3 -4v-109q0 -4 -3 -4z" />
<glyph unicode="&#x114;" horiz-adv-x="463" d="M48 0v680h394q3 0 3 -4v-141q0 -4 -3 -4h-225v-114h183q4 0 4 -4v-140q0 -4 -4 -4h-183v-120h225q3 0 3 -4v-141q0 -4 -3 -4h-394zM260 735q-140 0 -140 141q0 7 8 7h66q7 0 9 -6q10 -25 20.5 -33t34.5 -8q43 0 55 41q2 6 11 6h66q9 0 9 -7q-4 -141 -139 -141z" />
<glyph unicode="&#x115;" horiz-adv-x="449" d="M197 292h72q0 27 -8.5 43.5t-15 20t-12.5 3.5q-7 0 -14 -4.5t-14.5 -21t-7.5 -41.5zM246 -10q-214 0 -214 214v84q0 209 201 209q26 0 48.5 -3t51 -15.5t48.5 -33.5t34 -61.5t14 -95.5v-97h-232q0 -38 13.5 -52.5t38.5 -14.5q32 0 67.5 3.5t54.5 6.5t21 4t2 -1q1 -1 1 -2 q27 -95 27 -107q0 -8 -1 -8l-5 -2q-6 -2 -14 -4.5t-19.5 -5.5t-26.5 -6.5t-31.5 -6t-37 -4t-41.5 -1.5zM235 542q-140 0 -140 141q0 7 8 7h66q7 0 9 -6q10 -25 20.5 -33t34.5 -8q43 0 55 41q2 6 11 6h66q9 0 9 -7q-4 -141 -139 -141z" />
<glyph unicode="&#x116;" horiz-adv-x="463" d="M48 0v680h394q3 0 3 -4v-141q0 -4 -3 -4h-225v-114h183q4 0 4 -4v-140q0 -4 -4 -4h-183v-120h225q3 0 3 -4v-141q0 -4 -3 -4h-394zM195 735q-4 0 -4 4v130q0 4 4 4h144q3 0 3 -4v-130q0 -4 -4 -4h-143z" />
<glyph unicode="&#x117;" horiz-adv-x="449" d="M246 -10q-214 0 -214 214v84q0 209 201 209q26 0 48.5 -3t51 -15.5t48.5 -33.5t34 -61.5t14 -95.5v-97h-232q0 -38 13.5 -52.5t38.5 -14.5q32 0 67.5 3.5t54.5 6.5t21 4t2 -1q1 -1 1 -2q27 -95 27 -107q0 -8 -1 -8l-5 -2q-6 -2 -14 -4.5t-19.5 -5.5t-26.5 -6.5t-31.5 -6 t-37 -4t-41.5 -1.5zM167 542q-4 0 -4 4v130q0 4 4 4h144q3 0 3 -4v-130q0 -4 -4 -4h-143zM197 292h72q0 27 -8.5 43.5t-15 20t-12.5 3.5q-7 0 -14 -4.5t-14.5 -21t-7.5 -41.5z" />
<glyph unicode="&#x118;" horiz-adv-x="463" d="M48 0v680h394q3 0 3 -4v-141q0 -4 -3 -4h-225v-114h183q4 0 4 -4v-140q0 -4 -4 -4h-183v-120h225q3 0 3 -4v-141v-1q0 -2 -4 -5q-3 -2 -8 -5q-22 -13 -32.5 -20.5t-21 -19.5t-10.5 -23q0 -15 10 -15q9 0 22 9q4 3 8 -1q1 -2 20 -38t19 -37q2 -6 -1 -9q-4 -4 -14.5 -11 t-34 -15t-46.5 -8q-45 0 -72 20t-27 77q0 63 46 98h-251z" />
<glyph unicode="&#x119;" horiz-adv-x="449" d="M222 -196q-45 0 -72 20t-27 77q0 61 45 98q-136 32 -136 205v84q0 209 201 209q26 0 48.5 -3t51 -15.5t48.5 -33.5t34 -61.5t14 -95.5v-97h-232q0 -38 13.5 -52.5t38.5 -14.5q32 0 67.5 3.5t54.5 6.5t21 4t2 -1q1 -1 1 -2q27 -95 27 -107q0 -8 -1 -8q-61 -20 -116 -26 q-23 -15 -33 -22t-21.5 -19.5t-11.5 -23.5q0 -15 10 -15q9 0 22 9q4 3 8 -1q1 -2 20 -38t19 -37q2 -6 -1 -9q-4 -4 -14.5 -11t-34 -15t-46.5 -8zM197 292h72q0 27 -8.5 43.5t-15 20t-12.5 3.5q-7 0 -14 -4.5t-14.5 -21t-7.5 -41.5z" />
<glyph unicode="&#x11a;" horiz-adv-x="463" d="M48 0v680h394q3 0 3 -4v-141q0 -4 -3 -4h-225v-114h183q4 0 4 -4v-140q0 -4 -4 -4h-183v-120h225q3 0 3 -4v-141q0 -4 -3 -4h-394zM312 890h115q5 0 2 -4l-102 -148q-3 -4 -7 -4h-104q-7 0 -7 4q1 2 -25.5 38.5l-53 73t-24.5 36.5q-2 4 2 4h115q2 0 5 -4l38 -62h2 q37 59 39 62q3 4 5 4z" />
<glyph unicode="&#x11b;" horiz-adv-x="449" d="M197 292h72q0 27 -8.5 43.5t-15 20t-12.5 3.5q-7 0 -14 -4.5t-14.5 -21t-7.5 -41.5zM246 -10q-214 0 -214 214v84q0 209 201 209q26 0 48.5 -3t51 -15.5t48.5 -33.5t34 -61.5t14 -95.5v-97h-232q0 -38 13.5 -52.5t38.5 -14.5q32 0 67.5 3.5t54.5 6.5t21 4t2 -1q1 -1 1 -2 q27 -95 27 -107q0 -8 -1 -8l-5 -2q-6 -2 -14 -4.5t-19.5 -5.5t-26.5 -6.5t-31.5 -6t-37 -4t-41.5 -1.5zM280 697h115q5 0 2 -4l-102 -148q-3 -4 -7 -4h-104q-7 0 -7 4q1 2 -25.5 38.5l-53 73t-24.5 36.5q-2 4 2 4h115q2 0 5 -4l38 -62h2q37 59 39 62q3 4 5 4z" />
<glyph unicode="&#x11c;" horiz-adv-x="525" d="M288 -10q-32 0 -57 2.5t-56 11t-53 26t-42 45t-30.5 71.5t-10.5 102v191q0 69 18 118.5t42 74.5t62.5 39t65.5 17t64 3q52 0 100.5 -7t70 -13t23.5 -8t1 -6l-37 -129q-1 -3 -6 -3q-2 1 -24 3.5t-59.5 5.5t-68.5 3q-18 0 -29.5 -3t-25.5 -13t-20.5 -34.5t-6.5 -63.5v-163 q0 -71 19.5 -92.5t59.5 -21.5l79 6v100h-64q-4 0 -4 4v133q0 4 4 4h201v-381q-142 -22 -216 -22zM247 738h-111l-2 4q-1 2 45 75t46 74q-1 1 0.5 2t4.5 1h122q5 0 8 -4l88 -148q2 -4 -1 -4h-110q-3 0 -6 4l-39 63h-2q-35 -60 -37 -63q-3 -4 -6 -4z" />
<glyph unicode="&#x11d;" horiz-adv-x="464" d="M214 -220q-45 0 -87 5.5t-60 10t-21 6.5q-3 1 -1 5q0 2 16.5 59.5t16.5 58.5q0 4 4 3l7 -1q7 -1 19 -3t27 -3.5t35 -2.5t40 -1q18 0 30.5 3t24 19t11.5 44v31q-62 -14 -93 -14q-28 0 -47 3t-41 14t-35.5 31.5t-22.5 58.5t-9 92v84q0 56 9.5 95.5t23 61.5t37 34.5t44 15.5 t50.5 3q69 0 84 -22v12q0 4 4 4h155q4 0 4 -4v-500q0 -56 -13.5 -95t-33 -60t-52.5 -32t-59 -13.5t-67 -2.5zM201 545h-111l-2 4q-1 2 45 75t46 74q-1 1 0.5 2t4.5 1h122q5 0 8 -4l88 -148q2 -4 -1 -4h-110q-3 0 -6 4l-39 63h-2q-35 -60 -37 -63q-3 -4 -6 -4zM215 131 q13 0 28 3.5t24 7.5l9 4v183q0 26 -49 26q-10 0 -16.5 -4t-12.5 -23.5t-6 -53.5v-64q0 -34 3 -52t7.5 -22.5t12.5 -4.5z" />
<glyph unicode="&#x11e;" horiz-adv-x="525" d="M288 -10q-32 0 -57 2.5t-56 11t-53 26t-42 45t-30.5 71.5t-10.5 102v191q0 69 18 118.5t42 74.5t62.5 39t65.5 17t64 3q52 0 100.5 -7t70 -13t23.5 -8t1 -6l-37 -129q-1 -3 -6 -3q-2 1 -24 3.5t-59.5 5.5t-68.5 3q-18 0 -29.5 -3t-25.5 -13t-20.5 -34.5t-6.5 -63.5v-163 q0 -71 19.5 -92.5t59.5 -21.5l79 6v100h-64q-4 0 -4 4v133q0 4 4 4h201v-381q-142 -22 -216 -22zM284 735q-140 0 -140 141q0 7 8 7h66q7 0 9 -6q10 -25 20.5 -33t34.5 -8q43 0 55 41q2 6 11 6h66q9 0 9 -7q-4 -141 -139 -141z" />
<glyph unicode="&#x11f;" horiz-adv-x="464" d="M215 131q13 0 28 3.5t24 7.5l9 4v183q0 26 -49 26q-10 0 -16.5 -4t-12.5 -23.5t-6 -53.5v-64q0 -34 3 -52t7.5 -22.5t12.5 -4.5zM214 -220q-45 0 -87 5.5t-60 10t-21 6.5q-3 1 -1 5q0 2 16.5 59.5t16.5 58.5q0 4 4 3l7 -1q7 -1 19 -3t27 -3.5t35 -2.5t40 -1q18 0 30.5 3 t24 19t11.5 44v31q-62 -14 -93 -14q-28 0 -47 3t-41 14t-35.5 31.5t-22.5 58.5t-9 92v84q0 56 9.5 95.5t23 61.5t37 34.5t44 15.5t50.5 3q69 0 84 -22v12q0 4 4 4h155q4 0 4 -4v-500q0 -56 -13.5 -95t-33 -60t-52.5 -32t-59 -13.5t-67 -2.5zM240 542q-140 0 -140 141 q0 7 8 7h66q7 0 9 -6q10 -25 20.5 -33t34.5 -8q43 0 55 41q2 6 11 6h66q9 0 9 -7q-4 -141 -139 -141z" />
<glyph unicode="&#x120;" horiz-adv-x="525" d="M288 -10q-32 0 -57 2.5t-56 11t-53 26t-42 45t-30.5 71.5t-10.5 102v191q0 69 18 118.5t42 74.5t62.5 39t65.5 17t64 3q52 0 100.5 -7t70 -13t23.5 -8t1 -6l-37 -129q-1 -3 -6 -3q-2 1 -24 3.5t-59.5 5.5t-68.5 3q-18 0 -29.5 -3t-25.5 -13t-20.5 -34.5t-6.5 -63.5v-163 q0 -71 19.5 -92.5t59.5 -21.5l79 6v100h-64q-4 0 -4 4v133q0 4 4 4h201v-381q-142 -22 -216 -22zM204 735q-4 0 -4 4v130q0 4 4 4h144q3 0 3 -4v-130q0 -4 -4 -4h-143z" />
<glyph unicode="&#x121;" horiz-adv-x="464" d="M214 -220q-45 0 -87 5.5t-60 10t-21 6.5q-3 1 -1 5q0 2 16.5 59.5t16.5 58.5q0 4 4 3l7 -1q7 -1 19 -3t27 -3.5t35 -2.5t40 -1q18 0 30.5 3t24 19t11.5 44v31q-62 -14 -93 -14q-28 0 -47 3t-41 14t-35.5 31.5t-22.5 58.5t-9 92v84q0 56 9.5 95.5t23 61.5t37 34.5t44 15.5 t50.5 3q69 0 84 -22v12q0 4 4 4h155q4 0 4 -4v-500q0 -56 -13.5 -95t-33 -60t-52.5 -32t-59 -13.5t-67 -2.5zM165 542q-4 0 -4 4v130q0 4 4 4h144q3 0 3 -4v-130q0 -4 -4 -4h-143zM215 131q13 0 28 3.5t24 7.5l9 4v183q0 26 -49 26q-10 0 -16.5 -4t-12.5 -23.5t-6 -53.5v-64 q0 -34 3 -52t7.5 -22.5t12.5 -4.5z" />
<glyph unicode="&#x122;" horiz-adv-x="525" d="M288 -10q-32 0 -57 2.5t-56 11t-53 26t-42 45t-30.5 71.5t-10.5 102v191q0 69 18 118.5t42 74.5t62.5 39t65.5 17t64 3q52 0 100.5 -7t70 -13t23.5 -8t1 -6l-37 -129q-1 -3 -6 -3q-2 1 -24 3.5t-59.5 5.5t-68.5 3q-18 0 -29.5 -3t-25.5 -13t-20.5 -34.5t-6.5 -63.5v-163 q0 -71 19.5 -92.5t59.5 -21.5l79 6v100h-64q-4 0 -4 4v133q0 4 4 4h201v-381q-142 -22 -216 -22zM223 -269q-5 -3 -5 4v214q0 4 3 4h119q4 0 4 -4v-132q0 -4 -4 -7q-1 -1 -19.5 -13t-39.5 -26.5t-39 -26.5z" />
<glyph unicode="&#x123;" horiz-adv-x="464" d="M214 -220q-45 0 -87 5.5t-60 10t-21 6.5q-3 1 -1 5q0 2 16.5 59.5t16.5 58.5q0 4 4 3l7 -1q7 -1 19 -3t27 -3.5t35 -2.5t40 -1q18 0 30.5 3t24 19t11.5 44v31q-62 -14 -93 -14q-28 0 -47 3t-41 14t-35.5 31.5t-22.5 58.5t-9 92v84q0 56 9.5 95.5t23 61.5t37 34.5t44 15.5 t50.5 3q69 0 84 -22v12q0 4 4 4h155q4 0 4 -4v-500q0 -56 -13.5 -95t-33 -60t-52.5 -32t-59 -13.5t-67 -2.5zM283 769q6 3 6 -4v-214q0 -4 -4 -4h-119q-3 0 -3 4v132q0 4 4 7zM215 131q13 0 28 3.5t24 7.5l9 4v183q0 26 -49 26q-10 0 -16.5 -4t-12.5 -23.5t-6 -53.5v-64 q0 -34 3 -52t7.5 -22.5t12.5 -4.5z" />
<glyph unicode="&#x124;" horiz-adv-x="548" d="M51 0q-3 0 -3 4v672q0 4 3 4h163q3 0 3 -4v-261h134v261q0 4 3 4h163q3 0 3 -4v-672q0 -4 -3 -4h-163q-3 0 -3 4v262h-134v-262q0 -4 -3 -4h-163zM240 738h-111l-2 4q-1 2 45 75t46 74q-1 1 0.5 2t4.5 1h122q5 0 8 -4l88 -148q2 -4 -1 -4h-110q-3 0 -6 4l-39 63h-2 q-35 -60 -37 -63q-3 -4 -6 -4z" />
<glyph unicode="&#x125;" horiz-adv-x="479" d="M50 0q-3 0 -3 4v672q0 4 3 4h157q3 0 3 -4v-202q61 19 91 19q25 0 43 -2.5t41.5 -14t38.5 -32t25.5 -60.5t10.5 -96v-284q0 -4 -3 -4h-157q-3 0 -3 4v273q0 34 -4.5 52t-9.5 21.5t-14 3.5q-12 0 -27 -4t-24 -8l-8 -3v-335q0 -4 -3 -4h-157zM205 750h-111l-2 4q-1 2 45 75 t46 74q-1 1 0.5 2t4.5 1h122q5 0 8 -4l88 -148q2 -4 -1 -4h-110q-3 0 -6 4l-39 63h-2q-35 -60 -37 -63q-3 -4 -6 -4z" />
<glyph unicode="&#x128;" horiz-adv-x="245" d="M51 0q-3 0 -3 4v672q0 4 3 4h163q3 0 3 -4v-672q0 -4 -3 -4h-163zM-4 748q-3 0 -3 5v82q0 11 7 20q25 35 72 35q28 0 67.5 -19t60.5 -19q22 0 44 17.5t24 17.5q5 0 5 -6v-80q0 -13 -8 -21q-39 -39 -73 -39q-29 0 -67.5 20.5t-57.5 20.5q-23 0 -46.5 -17t-24.5 -17z" />
<glyph unicode="&#x129;" horiz-adv-x="234" d="M38 0q-3 0 -3 4v479q0 4 3 4h157q3 0 3 -4v-479q0 -4 -3 -4h-157zM-10 555q-3 0 -3 5v82q0 11 7 20q25 35 72 35q28 0 67.5 -19t60.5 -19q22 0 44 17.5t24 17.5q5 0 5 -6v-80q0 -13 -8 -21q-39 -39 -73 -39q-29 0 -67.5 20.5t-57.5 20.5q-23 0 -46.5 -17t-24.5 -17z" />
<glyph unicode="&#x12a;" horiz-adv-x="245" d="M51 0q-3 0 -3 4v672q0 4 3 4h163q3 0 3 -4v-672q0 -4 -3 -4h-163zM269 756h-273q-4 0 -4 4v109q0 4 4 4h273q3 0 3 -4v-109q0 -4 -3 -4z" />
<glyph unicode="&#x12b;" horiz-adv-x="234" d="M38 0q-3 0 -3 4v479q0 4 3 4h157q3 0 3 -4v-479q0 -4 -3 -4h-157zM264 563h-273q-4 0 -4 4v109q0 4 4 4h273q3 0 3 -4v-109q0 -4 -3 -4z" />
<glyph unicode="&#x12e;" horiz-adv-x="245" d="M51 0q-3 0 -3 4v672q0 4 3 4h163q3 0 3 -4v-670v-2q0 -4 -3 -4h-3q-25 -15 -35 -22t-22.5 -20t-12.5 -25q0 -15 10 -15q9 0 22 9q4 3 8 -1q1 -2 20 -38t19 -37q2 -6 -1 -9q-4 -4 -14.5 -11t-34 -15t-46.5 -8q-45 0 -72 20t-27 77q0 60 42 95h-16z" />
<glyph unicode="&#x12f;" horiz-adv-x="235" d="M49 0q-3 0 -3 4v479q0 4 3 4h157q3 0 3 -4v-479q0 -2 -2 -4q-2 -1 -3 -2q-3 -2 -8 -5q-22 -13 -32.5 -20.5t-21 -19.5t-10.5 -23q0 -15 10 -15q8 0 22 9q4 3 8 -1q1 -2 20 -38t19 -37q2 -6 -1 -9q-4 -4 -14.5 -11t-34 -15t-46.5 -8q-45 0 -72 20t-27 77q0 63 46 98h-13z M50 550q-3 0 -3 4v122q0 4 3 4h155q3 0 3 -4v-122q0 -4 -3 -4h-155z" />
<glyph unicode="&#x130;" horiz-adv-x="245" d="M51 0q-3 0 -3 4v672q0 4 3 4h163q3 0 3 -4v-672q0 -4 -3 -4h-163zM61 735q-4 0 -4 4v130q0 4 4 4h144q3 0 3 -4v-130q0 -4 -4 -4h-143z" />
<glyph unicode="&#x131;" horiz-adv-x="234" d="M38 0q-3 0 -3 4v479q0 4 3 4h157q3 0 3 -4v-479q0 -4 -3 -4h-157z" />
<glyph unicode="&#x134;" horiz-adv-x="449" d="M186 -10q-18 0 -35 1t-30 2.5t-25 3.5t-21.5 4t-17 4t-13 4.5t-9 4t-5.5 2.5l-3 1q-3 1 -1 6l40 132q2 5 5 3q20 -10 110 -10q72 0 72 73v455q0 4 3 4h163q4 0 4 -4v-470q0 -59 -15.5 -101t-37 -64t-56.5 -34t-62 -14.5t-66 -2.5zM293 738h-111l-2 4q-1 2 45 75t46 74 q-1 1 0.5 2t4.5 1h122q5 0 8 -4l88 -148q2 -4 -1 -4h-110q-3 0 -6 4l-39 63h-2q-35 -60 -37 -63q-3 -4 -6 -4z" />
<glyph unicode="&#x136;" horiz-adv-x="561" d="M51 0q-3 0 -3 4v672q0 4 3 4h163q3 0 3 -4v-262h37q110 258 112 262q1 4 4 4h176q2 0 1 -4l-158 -332q166 -337 168 -340q3 -4 -1 -4h-175q-4 0 -5 4l-112 261h-47v-261q0 -4 -3 -4h-163zM229 -269q-5 -3 -5 4v214q0 4 3 4h119q4 0 4 -4v-132q0 -4 -4 -7q-1 -1 -19.5 -13 t-39.5 -26.5t-39 -26.5z" />
<glyph unicode="&#x137;" horiz-adv-x="491" d="M50 0q-3 0 -3 4v672q0 4 3 4h157q3 0 3 -4v-359h29q72 163 74 166q3 4 5 4h170q3 0 1 -4l-117 -231q135 -246 136 -248q2 -4 -1 -4h-173q-2 0 -5 4l-90 182h-29v-182q0 -4 -3 -4h-157zM198 -269q-5 -3 -5 4v214q0 4 3 4h119q4 0 4 -4v-132q0 -4 -4 -7q-1 -1 -19.5 -13 t-39.5 -26.5t-40 -26.5z" />
<glyph unicode="&#x139;" horiz-adv-x="450" d="M48 0v676q0 4 3 4h163q3 0 3 -4v-527h225q3 0 3 -4v-141q0 -4 -3 -4h-394zM249 743q-4 -4 -5 -4h-112q-2 0 -1 4l67 148q3 4 6 4h133q5 0 2 -4z" />
<glyph unicode="&#x13a;" horiz-adv-x="286" d="M225 -6q-52 0 -80.5 5.5t-54 25.5t-35.5 61.5t-10 110.5v479q0 4 3 4h156q3 0 3 -4v-479q0 -39 11.5 -52t35.5 -13q8 0 18 1t17 2t8 1q3 0 4 -4q1 -1 7.5 -61t6.5 -62q0 -4 -2 -5t-14 -3t-33.5 -4.5t-40.5 -2.5zM163 754q-4 -4 -5 -4h-112q-2 0 -1 4l67 148q3 4 6 4h133 q5 0 2 -4z" />
<glyph unicode="&#x13b;" horiz-adv-x="450" d="M48 0v676q0 4 3 4h163q3 0 3 -4v-527h225q3 0 3 -4v-141q0 -4 -3 -4h-394zM194 -269q-5 -3 -5 4v214q0 4 3 4h119q4 0 4 -4v-132q0 -4 -4 -7q-1 -1 -19.5 -13t-39.5 -26.5t-40 -26.5z" />
<glyph unicode="&#x13c;" horiz-adv-x="286" d="M225 -6q-52 0 -80.5 5.5t-54 25.5t-35.5 61.5t-10 110.5v479q0 4 3 4h156q3 0 3 -4v-479q0 -39 11.5 -52t35.5 -13q8 0 18 1t17 2t8 1q3 0 4 -4q1 -1 7.5 -61t6.5 -62q0 -4 -2 -5t-14 -3t-33.5 -4.5t-40.5 -2.5zM116 -269q-5 -3 -5 4v214q0 4 3 4h119q4 0 4 -4v-132 q0 -4 -4 -7q-1 -1 -19.5 -13t-39.5 -26.5t-40 -26.5z" />
<glyph unicode="&#x13d;" horiz-adv-x="450" d="M48 0v676q0 4 3 4h163q3 0 3 -4v-527h225q3 0 3 -4v-141q0 -4 -3 -4h-394zM269 528q-5 -2 -5 4v214q0 4 3 4h119q4 0 4 -4v-132q0 -4 -4 -7q-1 -1 -19.5 -13t-39.5 -26.5t-39 -27.5z" />
<glyph unicode="&#x13e;" horiz-adv-x="429" d="M225 -6q-52 0 -80.5 5.5t-54 25.5t-35.5 61.5t-10 110.5v479q0 4 3 4h156q3 0 3 -4v-479q0 -39 11.5 -52t35.5 -13q8 0 18 1t17 2t8 1q3 0 4 -4q1 -1 7.5 -61t6.5 -62q0 -4 -2 -5t-14 -3t-33.5 -4.5t-40.5 -2.5zM289 458q-5 -2 -5 4v214q0 4 3 4h119q4 0 4 -4v-132 q0 -4 -4 -7q-1 -1 -19.5 -13t-39.5 -26.5t-39 -27.5z" />
<glyph unicode="&#x141;" horiz-adv-x="476" d="M48 0v230q-32 -26 -34 -27q-3 -1 -3 3v138q0 6 3 7l34 26v300q0 3 3 3h163q4 0 4 -4v-197q99 74 100 75q2 1 2.5 0.5t0.5 -3.5v-138q0 -5 -3 -7l-100 -74v-183h224q3 0 3 -4v-141q0 -4 -3 -4h-394z" />
<glyph unicode="&#x142;" horiz-adv-x="329" d="M226 -6q-50 0 -78 5.5t-54 25t-36.5 61.5t-10.5 111v50q-30 -21 -31 -22t-2 1q-1 1 -1 2v128q0 5 3 7l31 22v291q0 4 3 4h155q4 0 4 -4v-194q55 40 57 41t2 0.5v-3.5v-128q0 -6 -2 -7l-57 -41v-147q0 -41 11.5 -53t34.5 -12q8 0 18 1t17 2l8 1q3 2 3 -3q0 -2 8 -62.5 t8 -61.5q0 -5 -4 -5l-5 -1l-15 -2.5t-19.5 -3t-23.5 -2.5t-24 -1z" />
<glyph unicode="&#x143;" horiz-adv-x="569" d="M47 0q-3 0 -3 4v672q0 4 4 4h175q3 0 5 -3l151 -377h8v376q0 4 3 4h160q3 0 3 -4v-672q0 -4 -4 -4h-178q-5 0 -6 4l-148 375h-10v-375q0 -4 -3 -4h-157zM309 743q-4 -4 -5 -4h-112q-2 0 -1 4l67 148q3 4 6 4h133q5 0 2 -4z" />
<glyph unicode="&#x144;" horiz-adv-x="479" d="M50 0q-3 0 -3 4v479q0 4 3 4h157q3 0 3 -4v-9q63 19 91 19q25 0 43 -2.5t41.5 -14t38.5 -32t25.5 -60.5t10.5 -96v-284q0 -4 -3 -4h-157q-3 0 -3 4v273q0 49 -6.5 63t-21.5 14q-12 0 -27 -4t-24 -8l-8 -3v-335q0 -4 -3 -4h-157zM273 550q-4 -4 -5 -4h-112q-2 0 -1 4 l67 148q3 4 6 4h133q5 0 2 -4z" />
<glyph unicode="&#x145;" horiz-adv-x="569" d="M47 0q-3 0 -3 4v672q0 4 4 4h175q3 0 5 -3l151 -377h8v376q0 4 3 4h160q3 0 3 -4v-672q0 -4 -4 -4h-178q-5 0 -6 4l-148 375h-10v-375q0 -4 -3 -4h-157zM244 -269q-5 -3 -5 4v214q0 4 3 4h119q4 0 4 -4v-132q0 -4 -4 -7q-1 -1 -19.5 -13t-39.5 -26.5t-40 -26.5z" />
<glyph unicode="&#x146;" horiz-adv-x="479" d="M50 0q-3 0 -3 4v479q0 4 3 4h157q3 0 3 -4v-9q63 19 91 19q25 0 43 -2.5t41.5 -14t38.5 -32t25.5 -60.5t10.5 -96v-284q0 -4 -3 -4h-157q-3 0 -3 4v273q0 49 -6.5 63t-21.5 14q-12 0 -27 -4t-24 -8l-8 -3v-335q0 -4 -3 -4h-157zM198 -269q-5 -3 -5 4v214q0 4 3 4h119 q4 0 4 -4v-132q0 -4 -4 -7q-1 -1 -19.5 -13t-39.5 -26.5t-40 -26.5z" />
<glyph unicode="&#x147;" horiz-adv-x="569" d="M47 0q-3 0 -3 4v672q0 4 4 4h175q3 0 5 -3l151 -377h8v376q0 4 3 4h160q3 0 3 -4v-672q0 -4 -4 -4h-178q-5 0 -6 4l-148 375h-10v-375q0 -4 -3 -4h-157zM339 890h115q5 0 2 -4l-102 -148q-3 -4 -7 -4h-104q-7 0 -7 4q1 2 -25.5 38.5l-53 73t-24.5 36.5q-2 4 2 4h115 q2 0 5 -4l38 -62h2q37 59 39 62q3 4 5 4z" />
<glyph unicode="&#x148;" horiz-adv-x="479" d="M50 0q-3 0 -3 4v479q0 4 3 4h157q3 0 3 -4v-9q63 19 91 19q25 0 43 -2.5t41.5 -14t38.5 -32t25.5 -60.5t10.5 -96v-284q0 -4 -3 -4h-157q-3 0 -3 4v273q0 49 -6.5 63t-21.5 14q-12 0 -27 -4t-24 -8l-8 -3v-335q0 -4 -3 -4h-157zM294 697h115q5 0 2 -4l-102 -148 q-3 -4 -7 -4h-104q-7 0 -7 4q1 2 -25.5 38.5l-53 73t-24.5 36.5q-2 4 2 4h115q2 0 5 -4l38 -62h2q37 59 39 62q3 4 5 4z" />
<glyph unicode="&#x14c;" horiz-adv-x="524" d="M271 145q38 0 51 19.5t13 95.5v162q0 52 -8 77t-19.5 30.5t-36.5 5.5t-36.5 -5.5t-19.5 -30.5t-8 -77v-162q0 -76 12.5 -95.5t51.5 -19.5zM271 -11q-29 0 -49.5 1.5t-47 7.5t-45 16.5t-37 30t-30 46.5t-19 66.5t-7.5 90.5v189q0 68 14.5 116.5t35 74.5t54.5 40.5t62.5 18 t68.5 3.5t67.5 -3t62 -17.5t55.5 -40.5t35.5 -74.5t14.5 -117.5v-189q0 -52 -7.5 -92.5t-19.5 -67.5t-31.5 -46.5t-37.5 -29.5t-45 -15.5t-46 -6.5t-48 -1zM410 756h-273q-4 0 -4 4v109q0 4 4 4h273q3 0 3 -4v-109q0 -4 -3 -4z" />
<glyph unicode="&#x14d;" horiz-adv-x="453" d="M238 130q13 0 21 4t14 22.5t6 53.5v71q0 48 -11.5 63t-31.5 15q-11 0 -18.5 -4t-14 -22t-6.5 -52v-71q0 -50 10 -65t31 -15zM238 -8q-46 0 -78 7t-63.5 27t-47.5 64t-16 112v87q0 55 12.5 95t30.5 61.5t47 33.5t53.5 15t59.5 3q44 0 74 -5.5t64 -24.5t51.5 -63t17.5 -112 v-90q0 -56 -12 -96t-30 -62t-47.5 -34t-54.5 -15t-61 -3zM373 563h-273q-4 0 -4 4v109q0 4 4 4h273q3 0 3 -4v-109q0 -4 -3 -4z" />
<glyph unicode="&#x14e;" horiz-adv-x="524" d="M271 145q38 0 51 19.5t13 95.5v162q0 52 -8 77t-19.5 30.5t-36.5 5.5t-36.5 -5.5t-19.5 -30.5t-8 -77v-162q0 -76 12.5 -95.5t51.5 -19.5zM271 -11q-29 0 -49.5 1.5t-47 7.5t-45 16.5t-37 30t-30 46.5t-19 66.5t-7.5 90.5v189q0 68 14.5 116.5t35 74.5t54.5 40.5t62.5 18 t68.5 3.5t67.5 -3t62 -17.5t55.5 -40.5t35.5 -74.5t14.5 -117.5v-189q0 -52 -7.5 -92.5t-19.5 -67.5t-31.5 -46.5t-37.5 -29.5t-45 -15.5t-46 -6.5t-48 -1zM274 735q-140 0 -140 141q0 7 8 7h66q7 0 9 -6q10 -25 20.5 -33t34.5 -8q43 0 55 41q2 6 11 6h66q9 0 9 -7 q-4 -141 -139 -141z" />
<glyph unicode="&#x14f;" horiz-adv-x="453" d="M238 130q13 0 21 4t14 22.5t6 53.5v71q0 48 -11.5 63t-31.5 15q-11 0 -18.5 -4t-14 -22t-6.5 -52v-71q0 -50 10 -65t31 -15zM238 -8q-46 0 -78 7t-63.5 27t-47.5 64t-16 112v87q0 55 12.5 95t30.5 61.5t47 33.5t53.5 15t59.5 3q44 0 74 -5.5t64 -24.5t51.5 -63t17.5 -112 v-90q0 -56 -12 -96t-30 -62t-47.5 -34t-54.5 -15t-61 -3zM237 542q-140 0 -140 141q0 7 8 7h66q7 0 9 -6q10 -25 20.5 -33t34.5 -8q43 0 55 41q2 6 11 6h66q9 0 9 -7q-4 -141 -139 -141z" />
<glyph unicode="&#x150;" horiz-adv-x="524" d="M271 -11q-29 0 -49.5 1.5t-47 7.5t-45 16.5t-37 30t-30 46.5t-19 66.5t-7.5 90.5v189q0 68 14.5 116.5t35 74.5t54.5 40.5t62.5 18t68.5 3.5t67.5 -3t62 -17.5t55.5 -40.5t35.5 -74.5t14.5 -117.5v-189q0 -52 -7.5 -92.5t-19.5 -67.5t-31.5 -46.5t-37.5 -29.5t-45 -15.5 t-46 -6.5t-48 -1zM271 145q38 0 51 19.5t13 95.5v162q0 52 -8 77t-19.5 30.5t-36.5 5.5t-36.5 -5.5t-19.5 -30.5t-8 -77v-162q0 -76 12.5 -95.5t51.5 -19.5zM232 741q0 -4 -5 -4h-111q-2 0 -1 4q1 1 34 74t34 74q1 4 5 4h133q3 0 2 -4zM397 741q-3 -4 -5 -4h-111q-2 0 -1 4 q1 1 34 74t34 74q1 4 5 4h134q4 0 1 -4z" />
<glyph unicode="&#x151;" horiz-adv-x="453" d="M238 -8q-46 0 -78 7t-63.5 27t-47.5 64t-16 112v87q0 55 12.5 95t30.5 61.5t47 33.5t53.5 15t59.5 3q44 0 74 -5.5t64 -24.5t51.5 -63t17.5 -112v-90q0 -56 -12 -96t-30 -62t-47.5 -34t-54.5 -15t-61 -3zM199 548q0 -4 -5 -4h-111q-2 0 -1 4q1 1 34 74t34 74q1 4 5 4h133 q3 0 2 -4zM364 548q-3 -4 -5 -4h-111q-2 0 -1 4q1 1 34 74t34 74q1 4 5 4h134q4 0 1 -4zM238 130q13 0 21 4t14 22.5t6 53.5v71q0 48 -11.5 63t-31.5 15q-11 0 -18.5 -4t-14 -22t-6.5 -52v-71q0 -50 10 -65t31 -15z" />
<glyph unicode="&#x152;" horiz-adv-x="771" d="M272 150q17 0 26 2.5t19 13.5t14.5 38t4.5 71v133q0 42 -4.5 68.5t-15 37t-19.5 13.5t-25 3t-24.5 -3t-19 -13.5t-15.5 -37t-5 -68.5v-133q0 -57 9.5 -85.5t21 -34t33.5 -5.5zM271 0q-37 0 -63.5 3t-61.5 18t-56.5 41.5t-37 77.5t-15.5 123v160q0 68 14 117t35 75.5 t54 41.5t62 19t69 4q11 0 24 -3t26.5 -7.5t14.5 -4.5v15h394q3 0 3 -4v-141q0 -4 -3 -4h-224v-113h182q4 0 4 -4v-141q0 -4 -4 -4h-182v-120h224q3 0 3 -4v-141q0 -4 -3 -4h-394v16q-45 -16 -65 -16z" />
<glyph unicode="&#x153;" horiz-adv-x="714" d="M240 132q14 0 21 3.5t13.5 22.5t6.5 55v64q0 49 -10.5 63.5t-31.5 14.5q-9 0 -14.5 -2t-12 -9.5t-10 -24t-3.5 -42.5v-64q0 -35 6.5 -54t14.5 -23t20 -4zM446 292h73q0 63 -36 63q-13 0 -25 -14t-12 -49zM240 -6q-47 0 -80 7.5t-63.5 28t-46 64.5t-15.5 110v81 q0 56 13 96t31.5 61.5t48.5 33.5t53.5 14.5t57.5 2.5q21 0 59 -8.5t60 -25.5q53 34 125 34q27 0 49 -2.5t51 -14.5t48 -33t33 -60.5t14 -94.5v-97h-232q1 -37 12.5 -50t39.5 -13q15 0 31 1t29.5 2t26 2.5t22 3t17 2.5t11.5 2l4 1q3 0 4 -3l30 -109q0 -3 -2 -5 q-93 -31 -175 -31q-87 0 -136 36q-50 -36 -120 -36z" />
<glyph unicode="&#x154;" horiz-adv-x="524" d="M213 0h-162q-3 0 -3 4v676h245q25 0 48.5 -3t56.5 -15.5t56 -33.5t40 -61.5t17 -95.5v-49q0 -128 -76 -173l89 -245q1 -4 -3 -4h-179q-4 0 -5 4l-66 213h-55v-213q0 -4 -3 -4zM286 743q-4 -4 -5 -4h-112q-2 0 -1 4l67 148q3 4 6 4h133q5 0 2 -4zM216 366h67q9 0 20.5 4 t24.5 19.5t13 39.5v37q0 37 -20 51t-40 14h-65v-165z" />
<glyph unicode="&#x155;" horiz-adv-x="369" d="M50 0q-3 0 -3 4v479q0 4 3 4h157q3 0 3 -4v-14q47 24 74 24q68 0 100 -21q1 0 1 -5q0 -1 -17.5 -58t-18.5 -59q0 -3 -4 -3q-16 8 -78 8q-12 0 -26.5 -6t-22.5 -12l-8 -6v-327q0 -4 -3 -4h-157zM218 550q-4 -4 -5 -4h-112q-2 0 -1 4l67 148q3 4 6 4h133q5 0 2 -4z" />
<glyph unicode="&#x156;" horiz-adv-x="524" d="M213 0h-162q-3 0 -3 4v676h245q25 0 48.5 -3t56.5 -15.5t56 -33.5t40 -61.5t17 -95.5v-49q0 -128 -76 -173l89 -245q1 -4 -3 -4h-179q-4 0 -5 4l-66 213h-55v-213q0 -4 -3 -4zM216 -269q-5 -3 -5 4v214q0 4 3 4h119q4 0 4 -4v-132q0 -4 -4 -7q-1 -1 -19.5 -13 t-39.5 -26.5t-40 -26.5zM216 366h67q9 0 20.5 4t24.5 19.5t13 39.5v37q0 37 -20 51t-40 14h-65v-165z" />
<glyph unicode="&#x157;" horiz-adv-x="369" d="M50 0q-3 0 -3 4v479q0 4 3 4h157q3 0 3 -4v-14q47 24 74 24q68 0 100 -21q1 0 1 -5q0 -1 -17.5 -58t-18.5 -59q0 -3 -4 -3q-16 8 -78 8q-12 0 -26.5 -6t-22.5 -12l-8 -6v-327q0 -4 -3 -4h-157zM156 -249q-5 -3 -5 4v214q0 4 3 4h119q4 0 4 -4v-132q0 -4 -4 -7 q-1 -1 -19.5 -13t-39.5 -26.5t-40 -26.5z" />
<glyph unicode="&#x158;" horiz-adv-x="524" d="M216 366h67q9 0 20.5 4t24.5 19.5t13 39.5v37q0 37 -20 51t-40 14h-65v-165zM213 0h-162q-3 0 -3 4v676h245q25 0 48.5 -3t56.5 -15.5t56 -33.5t40 -61.5t17 -95.5v-49q0 -128 -76 -173l89 -245q1 -4 -3 -4h-179q-4 0 -5 4l-66 213h-55v-213q0 -4 -3 -4zM299 890h115 q5 0 2 -4l-102 -148q-3 -4 -7 -4h-104q-7 0 -7 4q1 2 -25.5 38.5l-53 73t-24.5 36.5q-2 4 2 4h115q2 0 5 -4l38 -62h2q37 59 39 62q3 4 5 4z" />
<glyph unicode="&#x159;" horiz-adv-x="369" d="M50 0q-3 0 -3 4v479q0 4 3 4h157q3 0 3 -4v-14q47 24 74 24q68 0 100 -21q1 0 1 -5q0 -1 -17.5 -58t-18.5 -59q0 -3 -4 -3q-16 8 -78 8q-12 0 -26.5 -6t-22.5 -12l-8 -6v-327q0 -4 -3 -4h-157zM239 697h115q5 0 2 -4l-102 -148q-3 -4 -7 -4h-104q-7 0 -7 4 q1 2 -25.5 38.5l-53 73t-24.5 36.5q-2 4 2 4h115q2 0 5 -4l38 -62h2q37 59 39 62q3 4 5 4z" />
<glyph unicode="&#x15a;" horiz-adv-x="504" d="M260 -10q-148 0 -220 36q-4 2 -2 6l38 137q0 3 4 3q81 -27 181 -27q32 0 48 7.5t16 30.5v35q0 43 -90 54q-104 14 -147 50t-43 127v84q0 159 217 159q60 0 111.5 -8.5t67.5 -14t23 -9.5q2 -1 2 -6q0 -1 -17.5 -64.5t-18.5 -65.5q-1 -3 -4 -3q-4 1 -25 5.5t-61.5 9.5 t-75.5 5q-45 0 -45 -36v-31q0 -23 14 -33t68 -18q106 -16 152 -55.5t46 -128.5v-84q0 -43 -15.5 -74.5t-38.5 -48.5t-57.5 -27t-63 -12.5t-64.5 -2.5zM295 743q-4 -4 -5 -4h-112q-2 0 -1 4l67 148q3 4 6 4h133q5 0 2 -4z" />
<glyph unicode="&#x15b;" horiz-adv-x="430" d="M224 -8q-48 0 -94 6.5t-65.5 11.5t-23.5 7q-3 1 -3 5q0 2 15.5 56.5t16.5 56.5t4 2l10 -2q9 -2 24.5 -4.5t34 -4.5t40.5 -4t41 -2q37 0 37 19v17q0 14 -12.5 19.5t-49.5 10.5q-64 8 -108.5 37.5t-44.5 85.5v60q0 128 178 128q97 0 169 -24q2 -1 2 -5q0 -1 -14 -53 t-15 -54q-2 -3 -4 -3l-8 2q-8 1 -21 2.5t-29 3.5t-36.5 3.5t-40.5 1.5q-30 0 -30 -16v-17q0 -19 76 -28q71 -8 105.5 -37.5t34.5 -85.5v-61q0 -35 -12 -60t-29.5 -39t-44.5 -22t-50 -10.5t-53 -2.5zM252 550q-4 -4 -5 -4h-112q-2 0 -1 4l67 148q3 4 6 4h133q5 0 2 -4z" />
<glyph unicode="&#x15c;" horiz-adv-x="504" d="M260 -10q-148 0 -220 36q-4 2 -2 6l38 137q0 3 4 3q81 -27 181 -27q32 0 48 7.5t16 30.5v35q0 43 -90 54q-104 14 -147 50t-43 127v84q0 159 217 159q60 0 111.5 -8.5t67.5 -14t23 -9.5q2 -1 2 -6q0 -1 -17.5 -64.5t-18.5 -65.5q-1 -3 -4 -3q-4 1 -25 5.5t-61.5 9.5 t-75.5 5q-45 0 -45 -36v-31q0 -23 14 -33t68 -18q106 -16 152 -55.5t46 -128.5v-84q0 -43 -15.5 -74.5t-38.5 -48.5t-57.5 -27t-63 -12.5t-64.5 -2.5zM217 738h-111l-2 4q-1 2 45 75t46 74q-1 1 0.5 2t4.5 1h122q5 0 8 -4l88 -148q2 -4 -1 -4h-110q-3 0 -6 4l-39 63h-2 q-35 -60 -37 -63q-3 -4 -6 -4z" />
<glyph unicode="&#x15d;" horiz-adv-x="430" d="M224 -8q-48 0 -94 6.5t-65.5 11.5t-23.5 7q-3 1 -3 5q0 2 15.5 56.5t16.5 56.5t4 2l10 -2q9 -2 24.5 -4.5t34 -4.5t40.5 -4t41 -2q37 0 37 19v17q0 14 -12.5 19.5t-49.5 10.5q-64 8 -108.5 37.5t-44.5 85.5v60q0 128 178 128q97 0 169 -24q2 -1 2 -5q0 -1 -14 -53 t-15 -54q-2 -3 -4 -3l-8 2q-8 1 -21 2.5t-29 3.5t-36.5 3.5t-40.5 1.5q-30 0 -30 -16v-17q0 -19 76 -28q71 -8 105.5 -37.5t34.5 -85.5v-61q0 -35 -12 -60t-29.5 -39t-44.5 -22t-50 -10.5t-53 -2.5zM186 545h-111l-2 4q-1 2 45 75t46 74q-1 1 0.5 2t4.5 1h122q5 0 8 -4 l88 -148q2 -4 -1 -4h-110q-3 0 -6 4l-39 63h-2q-35 -60 -37 -63q-3 -4 -6 -4z" />
<glyph unicode="&#x15e;" horiz-adv-x="504" d="M295 -166h-134q-4 0 -2 4q8 24 66 153q-125 5 -185 35q-4 2 -2 6l38 137q0 3 4 3q81 -27 181 -27q32 0 48 7.5t16 30.5v35q0 43 -90 54q-104 14 -147 50t-43 127v84q0 159 217 159q60 0 111.5 -8.5t67.5 -14t23 -9.5q2 -1 2 -6q0 -1 -17.5 -64.5t-18.5 -65.5q-1 -3 -4 -3 q-4 1 -25 5.5t-61.5 9.5t-75.5 5q-45 0 -45 -36v-31q0 -23 14 -33t68 -18q106 -16 152 -55.5t46 -128.5v-84q0 -136 -152 -159l-48 -158q0 -4 -4 -4z" />
<glyph unicode="&#x15f;" horiz-adv-x="430" d="M252 -166h-134q-4 0 -2 4q11 33 67 155q-38 2 -73.5 8t-51.5 10.5t-17 5.5q-3 1 -3 5q0 2 15.5 56.5t16.5 56.5t4 2l10 -2q9 -2 24.5 -4.5t34 -4.5t40.5 -4t41 -2q37 0 37 19v17q0 14 -12.5 19.5t-49.5 10.5q-64 8 -108.5 37.5t-44.5 85.5v60q0 128 178 128q97 0 169 -24 q2 -1 2 -5q0 -1 -14 -53t-15 -54q-2 -3 -4 -3l-8 2q-8 1 -21 2.5t-29 3.5t-36.5 3.5t-40.5 1.5q-30 0 -30 -16v-17q0 -19 76 -28q71 -8 105.5 -37.5t34.5 -85.5v-61q0 -107 -108 -127l-49 -161q0 -4 -4 -4z" />
<glyph unicode="&#x160;" horiz-adv-x="504" d="M260 -10q-148 0 -220 36q-4 2 -2 6l38 137q0 3 4 3q81 -27 181 -27q32 0 48 7.5t16 30.5v35q0 43 -90 54q-104 14 -147 50t-43 127v84q0 159 217 159q60 0 111.5 -8.5t67.5 -14t23 -9.5q2 -1 2 -6q0 -1 -17.5 -64.5t-18.5 -65.5q-1 -3 -4 -3q-4 1 -25 5.5t-61.5 9.5 t-75.5 5q-45 0 -45 -36v-31q0 -23 14 -33t68 -18q106 -16 152 -55.5t46 -128.5v-84q0 -43 -15.5 -74.5t-38.5 -48.5t-57.5 -27t-63 -12.5t-64.5 -2.5zM306 890h115q5 0 2 -4l-102 -148q-3 -4 -7 -4h-104q-7 0 -7 4q1 2 -25.5 38.5l-53 73t-24.5 36.5q-2 4 2 4h115q2 0 5 -4 l38 -62h2q37 59 39 62q3 4 5 4z" />
<glyph unicode="&#x161;" horiz-adv-x="430" d="M224 -8q-48 0 -94 6.5t-65.5 11.5t-23.5 7q-3 1 -3 5q0 2 15.5 56.5t16.5 56.5t4 2l10 -2q9 -2 24.5 -4.5t34 -4.5t40.5 -4t41 -2q37 0 37 19v17q0 14 -12.5 19.5t-49.5 10.5q-64 8 -108.5 37.5t-44.5 85.5v60q0 128 178 128q97 0 169 -24q2 -1 2 -5q0 -1 -14 -53 t-15 -54q-2 -3 -4 -3l-8 2q-8 1 -21 2.5t-29 3.5t-36.5 3.5t-40.5 1.5q-30 0 -30 -16v-17q0 -19 76 -28q71 -8 105.5 -37.5t34.5 -85.5v-61q0 -35 -12 -60t-29.5 -39t-44.5 -22t-50 -10.5t-53 -2.5zM270 697h115q5 0 2 -4l-102 -148q-3 -4 -7 -4h-104q-7 0 -7 4 q1 2 -25.5 38.5l-53 73t-24.5 36.5q-2 4 2 4h115q2 0 5 -4l38 -62h2q37 59 39 62q3 4 5 4z" />
<glyph unicode="&#x164;" horiz-adv-x="478" d="M168 0q-3 0 -3 4v523h-143q-3 0 -3 4v145q0 4 3 4h456q3 0 3 -4v-145q0 -4 -3 -4h-144v-523q0 -4 -3 -4h-163zM293 890h115q5 0 2 -4l-102 -148q-3 -4 -7 -4h-104q-7 0 -7 4q1 2 -25.5 38.5l-53 73t-24.5 36.5q-2 4 2 4h115q2 0 5 -4l38 -62h2q37 59 39 62q3 4 5 4z" />
<glyph unicode="&#x165;" horiz-adv-x="448" d="M238 -5q-28 0 -45 1t-38.5 5t-34 12.5t-26.5 23t-21 36t-11.5 53t-4.5 72.5v168h-37q-4 0 -4 4v114q0 4 4 4h37v149q0 4 3 4h157q3 0 3 -4v-149h77q4 0 4 -4v-114q0 -4 -4 -4h-77v-168q0 -42 12.5 -53.5t34.5 -11.5q10 0 20 1t16 2l6 1q2 0 3 -4q1 -2 8.5 -61.5 t7.5 -61.5q1 -2 -2 -5q-40 -10 -88 -10zM332 458q-5 -2 -5 4v214q0 4 3 4h119q4 0 4 -4v-132q0 -4 -4 -7q-1 -1 -19.5 -13t-39.5 -26.5t-40 -27.5z" />
<glyph unicode="&#x168;" horiz-adv-x="540" d="M263 -10q-124 0 -170.5 61.5t-46.5 199.5v425q0 4 3 4h163q3 0 3 -4v-413q0 -27 0.5 -39.5t3 -30.5t7.5 -26t14.5 -14t23.5 -6h32q31 0 40 25.5t9 90.5v413q0 4 3 4h163q4 0 4 -4v-425q0 -65 -8.5 -108.5t-31 -80.5t-67 -54.5t-113.5 -17.5h-32zM142 748q-3 0 -3 5v82 q0 11 7 20q25 35 72 35q28 0 67.5 -19t60.5 -19q22 0 44 17.5t24 17.5q5 0 5 -6v-80q0 -13 -8 -21q-39 -39 -73 -39q-29 0 -67.5 20.5t-57.5 20.5q-23 0 -46.5 -17t-24.5 -17z" />
<glyph unicode="&#x169;" horiz-adv-x="482" d="M455 487q3 0 3 -4v-479q0 -4 -3 -4h-157q-3 0 -3 4v7q-63 -19 -91 -19q-25 0 -42.5 2.5t-41.5 14t-38.5 32t-25.5 60.5t-11 96v286q0 4 3 4h156q4 0 4 -4v-275q0 -34 4 -51.5t9.5 -21.5t14.5 -4q12 0 27 3.5t23 7.5l9 4v337q0 4 3 4h157zM115 555q-3 0 -3 5v82q0 11 7 20 q25 35 72 35q28 0 67.5 -19t60.5 -19q22 0 44 17.5t24 17.5q5 0 5 -6v-80q0 -13 -8 -21q-39 -39 -73 -39q-29 0 -67.5 20.5t-57.5 20.5q-23 0 -46.5 -17t-24.5 -17z" />
<glyph unicode="&#x16a;" horiz-adv-x="540" d="M263 -10q-124 0 -170.5 61.5t-46.5 199.5v425q0 4 3 4h163q3 0 3 -4v-413q0 -27 0.5 -39.5t3 -30.5t7.5 -26t14.5 -14t23.5 -6h32q31 0 40 25.5t9 90.5v413q0 4 3 4h163q4 0 4 -4v-425q0 -65 -8.5 -108.5t-31 -80.5t-67 -54.5t-113.5 -17.5h-32zM416 756h-273q-4 0 -4 4 v109q0 4 4 4h273q3 0 3 -4v-109q0 -4 -3 -4z" />
<glyph unicode="&#x16b;" horiz-adv-x="482" d="M455 487q3 0 3 -4v-479q0 -4 -3 -4h-157q-3 0 -3 4v7q-63 -19 -91 -19q-25 0 -42.5 2.5t-41.5 14t-38.5 32t-25.5 60.5t-11 96v286q0 4 3 4h156q4 0 4 -4v-275q0 -34 4 -51.5t9.5 -21.5t14.5 -4q12 0 27 3.5t23 7.5l9 4v337q0 4 3 4h157zM389 563h-273q-4 0 -4 4v109 q0 4 4 4h273q3 0 3 -4v-109q0 -4 -3 -4z" />
<glyph unicode="&#x16c;" horiz-adv-x="540" d="M263 -10q-124 0 -170.5 61.5t-46.5 199.5v425q0 4 3 4h163q3 0 3 -4v-413q0 -27 0.5 -39.5t3 -30.5t7.5 -26t14.5 -14t23.5 -6h32q31 0 40 25.5t9 90.5v413q0 4 3 4h163q4 0 4 -4v-425q0 -65 -8.5 -108.5t-31 -80.5t-67 -54.5t-113.5 -17.5h-32zM282 735q-140 0 -140 141 q0 7 8 7h66q7 0 9 -6q10 -25 20.5 -33t34.5 -8q43 0 55 41q2 6 11 6h66q9 0 9 -7q-4 -141 -139 -141z" />
<glyph unicode="&#x16d;" horiz-adv-x="482" d="M455 487q3 0 3 -4v-479q0 -4 -3 -4h-157q-3 0 -3 4v7q-63 -19 -91 -19q-25 0 -42.5 2.5t-41.5 14t-38.5 32t-25.5 60.5t-11 96v286q0 4 3 4h156q4 0 4 -4v-275q0 -34 4 -51.5t9.5 -21.5t14.5 -4q12 0 27 3.5t23 7.5l9 4v337q0 4 3 4h157zM253 542q-140 0 -140 141 q0 7 8 7h66q7 0 9 -6q10 -25 20.5 -33t34.5 -8q43 0 55 41q2 6 11 6h66q9 0 9 -7q-4 -141 -139 -141z" />
<glyph unicode="&#x16e;" horiz-adv-x="540" d="M263 -10q-124 0 -170.5 61.5t-46.5 199.5v425q0 4 3 4h163q3 0 3 -4v-413q0 -27 0.5 -39.5t3 -30.5t7.5 -26t14.5 -14t23.5 -6h32q31 0 40 25.5t9 90.5v413q0 4 3 4h163q4 0 4 -4v-425q0 -65 -8.5 -108.5t-31 -80.5t-67 -54.5t-113.5 -17.5h-32zM279 716 q-45 0 -72.5 19.5t-27.5 79.5v25q0 57 28.5 77t74.5 20q27 0 45.5 -4.5t35 -27.5t16.5 -65v-25q0 -32 -8.5 -53.5t-24.5 -30.5t-31 -12t-36 -3zM279 782q11 0 18.5 2t13 11.5t5.5 26.5v11q0 39 -35 39q-39 0 -39 -39v-11q0 -25 9.5 -32.5t27.5 -7.5z" />
<glyph unicode="&#x16f;" horiz-adv-x="482" d="M455 487q3 0 3 -4v-479q0 -4 -3 -4h-157q-3 0 -3 4v7q-63 -19 -91 -19q-25 0 -42.5 2.5t-41.5 14t-38.5 32t-25.5 60.5t-11 96v286q0 4 3 4h156q4 0 4 -4v-275q0 -34 4 -51.5t9.5 -21.5t14.5 -4q12 0 27 3.5t23 7.5l9 4v337q0 4 3 4h157zM252 523q-45 0 -72.5 19.5 t-27.5 79.5v25q0 57 28.5 77t74.5 20q27 0 45.5 -4.5t35 -27.5t16.5 -65v-25q0 -32 -8.5 -53.5t-24.5 -30.5t-31 -12t-36 -3zM252 589q11 0 18.5 2t13 11.5t5.5 26.5v11q0 39 -35 39q-39 0 -39 -39v-11q0 -25 9.5 -32.5t27.5 -7.5z" />
<glyph unicode="&#x170;" horiz-adv-x="540" d="M263 -10q-124 0 -170.5 61.5t-46.5 199.5v425q0 4 3 4h163q3 0 3 -4v-413q0 -27 0.5 -39.5t3 -30.5t7.5 -26t14.5 -14t23.5 -6h32q31 0 40 25.5t9 90.5v413q0 4 3 4h163q4 0 4 -4v-425q0 -65 -8.5 -108.5t-31 -80.5t-67 -54.5t-113.5 -17.5h-32zM245 741q0 -4 -5 -4h-111 q-2 0 -1 4q1 1 34 74t34 74q1 4 5 4h133q3 0 2 -4zM410 741q-3 -4 -5 -4h-111q-2 0 -1 4q1 1 34 74t34 74q1 4 5 4h134q4 0 1 -4z" />
<glyph unicode="&#x171;" horiz-adv-x="482" d="M455 487q3 0 3 -4v-479q0 -4 -3 -4h-157q-3 0 -3 4v7q-63 -19 -91 -19q-25 0 -42.5 2.5t-41.5 14t-38.5 32t-25.5 60.5t-11 96v286q0 4 3 4h156q4 0 4 -4v-275q0 -34 4 -51.5t9.5 -21.5t14.5 -4q12 0 27 3.5t23 7.5l9 4v337q0 4 3 4h157zM218 548q0 -4 -5 -4h-111 q-2 0 -1 4q1 1 34 74t34 74q1 4 5 4h133q3 0 2 -4zM383 548q-3 -4 -5 -4h-111q-2 0 -1 4q1 1 34 74t34 74q1 4 5 4h134q4 0 1 -4z" />
<glyph unicode="&#x172;" horiz-adv-x="540" d="M265 -197q-45 0 -72 20t-27 77q0 59 40 94q-90 12 -125 73.5t-35 183.5v425q0 4 3 4h163q3 0 3 -4v-413q0 -27 0.5 -39.5t3 -30.5t7.5 -26t14.5 -14t23.5 -6h32q31 0 40 25.5t9 90.5v413q0 4 3 4h163q4 0 4 -4v-425q0 -118 -34 -181t-131 -76q-23 -14 -34 -22 t-22.5 -20.5t-11.5 -23.5q0 -15 10 -15q8 0 22 9q4 3 8 -1q1 -2 20 -38t19 -37q2 -6 -1 -9q-4 -4 -14.5 -11t-34 -15t-46.5 -8z" />
<glyph unicode="&#x173;" horiz-adv-x="482" d="M364 -195q-45 0 -72 20t-27 77q0 63 46 98h-13q-3 0 -3 4v7q-63 -19 -91 -19q-25 0 -42.5 2.5t-41.5 14t-38.5 32t-25.5 60.5t-11 96v286q0 4 3 4h156q4 0 4 -4v-275q0 -34 4 -51.5t9.5 -21.5t14.5 -4q12 0 27 3.5t23 7.5l9 4v337q0 4 3 4h157q3 0 3 -4v-479q0 -4 -2 -4 q-1 0 -3 -2q-3 -2 -8 -5q-22 -13 -32.5 -20.5t-21 -19.5t-10.5 -23q0 -15 10 -15q9 0 22 9q4 3 8 -1q1 -2 20 -38t19 -37q2 -6 -1 -9q-4 -4 -14.5 -11t-34 -15t-46.5 -8z" />
<glyph unicode="&#x174;" horiz-adv-x="781" d="M127 0q-5 0 -6 5l-98 671q-1 4 2 4h170q3 0 4 -4l47 -406h17q66 270 67 273q1 4 4 4h133q4 0 5 -5l68 -272h17q46 403 47 406q1 4 4 4h170q5 0 3 -4q-1 -2 -49.5 -335.5t-48.5 -335.5q-1 -5 -6 -5h-203q-5 0 -6 5l-61 267h-11q-60 -260 -61 -266t-7 -6h-201zM355 738 h-111l-2 4q-1 2 45 75t46 74q-1 1 0.5 2t4.5 1h122q5 0 8 -4l88 -148q2 -4 -1 -4h-110q-3 0 -6 4l-39 63h-2q-35 -60 -37 -63q-3 -4 -6 -4z" />
<glyph unicode="&#x175;" horiz-adv-x="648" d="M124 0q-2 0 -3 4q-1 1 -47.5 239t-46.5 240q0 4 3 4h157q5 0 5 -4l33 -252h6q48 154 49 157q3 4 4 4h104q2 0 3 -4l50 -157h5q29 249 29 252q2 4 6 4h157q3 0 2 -4q-1 -2 -46 -239.5t-45 -239.5q-1 -4 -5 -4h-142q-3 0 -4 4l-60 193h-6q-61 -190 -62 -193q-1 -4 -3 -4 h-143zM289 545h-111l-2 4q-1 2 45 75t46 74q-1 1 0.5 2t4.5 1h122q5 0 8 -4l88 -148q2 -4 -1 -4h-110q-3 0 -6 4l-39 63h-2q-35 -60 -37 -63q-3 -4 -6 -4z" />
<glyph unicode="&#x176;" horiz-adv-x="517" d="M187 0q-3 0 -3 4v255q-173 414 -174 417q-3 4 2 4h171q3 0 4 -4l81 -231h6q77 228 78 231q1 4 4 4h168q3 0 2 -4l-173 -417v-255q0 -4 -3 -4h-163zM223 738h-111l-2 4q-1 2 45 75t46 74q-1 1 0.5 2t4.5 1h122q5 0 8 -4l88 -148q2 -4 -1 -4h-110q-3 0 -6 4l-39 63h-2 q-35 -60 -37 -63q-3 -4 -6 -4z" />
<glyph unicode="&#x177;" horiz-adv-x="453" d="M65 -180q-3 0 -3 4q1 2 7 64t6 64q0 4 4 4h27q38 0 49 43l6 30q-148 451 -149 454q-2 4 1 4h163q4 0 4 -4l57 -239h8q51 236 51 239q2 4 5 4h159q2 0 1 -4l-177 -538q-12 -35 -26 -59t-27 -37t-33 -19.5t-35 -8t-42 -1.5h-56zM196 545h-111l-2 4q-1 2 45 75t46 74 q-1 1 0.5 2t4.5 1h122q5 0 8 -4l88 -148q2 -4 -1 -4h-110q-3 0 -6 4l-39 63h-2q-35 -60 -37 -63q-3 -4 -6 -4z" />
<glyph unicode="&#x178;" horiz-adv-x="517" d="M187 0q-3 0 -3 4v255q-173 414 -174 417q-3 4 2 4h171q3 0 4 -4l81 -231h6q77 228 78 231q1 4 4 4h168q3 0 2 -4l-173 -417v-255q0 -4 -3 -4h-163zM130 750q-4 0 -4 4v122q0 4 4 4h113q3 0 3 -4v-122q0 -4 -3 -4h-113zM301 750q-4 0 -4 4v122q0 4 4 4h113q3 0 3 -4v-122 q0 -4 -3 -4h-113z" />
<glyph unicode="&#x179;" horiz-adv-x="471" d="M38 0q-3 0 -3 4v140q0 4 5 12l213 361v11h-205q-3 0 -3 4v144q0 4 3 4h403q3 0 3 -4v-139q0 -8 -4 -13l-214 -361v-11h214q4 0 4 -4v-144q0 -4 -4 -4h-412zM286 743q-4 -4 -5 -4h-112q-2 0 -1 4l67 148q3 4 6 4h133q5 0 2 -4z" />
<glyph unicode="&#x17a;" horiz-adv-x="416" d="M46 0q-3 0 -3 4v121q0 3 4 7l154 215v7h-151q-3 0 -3 4v125q0 4 3 4h343q3 0 3 -4v-125q0 -3 -2 -6l-154 -211v-8h157q4 0 4 -4v-125q0 -4 -4 -4h-351zM259 550q-4 -4 -5 -4h-112q-2 0 -1 4l67 148q3 4 6 4h133q5 0 2 -4z" />
<glyph unicode="&#x17b;" horiz-adv-x="471" d="M38 0q-3 0 -3 4v140q0 4 5 12l213 361v11h-205q-3 0 -3 4v144q0 4 3 4h403q3 0 3 -4v-139q0 -8 -4 -13l-214 -361v-11h214q4 0 4 -4v-144q0 -4 -4 -4h-412zM182 735q-4 0 -4 4v130q0 4 4 4h144q3 0 3 -4v-130q0 -4 -4 -4h-143z" />
<glyph unicode="&#x17c;" horiz-adv-x="416" d="M46 0q-3 0 -3 4v121q0 3 4 7l154 215v7h-151q-3 0 -3 4v125q0 4 3 4h343q3 0 3 -4v-125q0 -3 -2 -6l-154 -211v-8h157q4 0 4 -4v-125q0 -4 -4 -4h-351zM155 542q-4 0 -4 4v130q0 4 4 4h144q3 0 3 -4v-130q0 -4 -4 -4h-143z" />
<glyph unicode="&#x17d;" horiz-adv-x="471" d="M38 0q-3 0 -3 4v140q0 4 5 12l213 361v11h-205q-3 0 -3 4v144q0 4 3 4h403q3 0 3 -4v-139q0 -8 -4 -13l-214 -361v-11h214q4 0 4 -4v-144q0 -4 -4 -4h-412zM290 890h115q5 0 2 -4l-102 -148q-3 -4 -7 -4h-104q-7 0 -7 4q1 2 -25.5 38.5l-53 73t-24.5 36.5q-2 4 2 4h115 q2 0 5 -4l38 -62h2q37 59 39 62q3 4 5 4z" />
<glyph unicode="&#x17e;" horiz-adv-x="415" d="M46 0q-3 0 -3 4v121q0 3 4 7l154 215v7h-151q-3 0 -3 4v125q0 4 3 4h343q3 0 3 -4v-125q0 -3 -2 -6l-154 -211v-8h157q4 0 4 -4v-125q0 -4 -4 -4h-351zM263 697h115q5 0 2 -4l-102 -148q-3 -4 -7 -4h-104q-7 0 -7 4q1 2 -25.5 38.5l-53 73t-24.5 36.5q-2 4 2 4h115 q2 0 5 -4l38 -62h2q37 59 39 62q3 4 5 4z" />
<glyph unicode="&#x192;" horiz-adv-x="506" d="M149 -187q-10 0 -23.5 1t-25 2.5t-21.5 3t-17 2.5l-6 1q-2 0 -2 5q0 2 7.5 61t7.5 60q0 3 4 3q8 -4 52 -4q47 0 47 61v293h-53q-3 0 -3 4v114q0 4 3 4h53v65q0 53 12.5 91t29.5 58t44.5 31t48.5 13.5t50 2.5q8 0 21 -1t25 -2.5t22.5 -3l17.5 -2.5l7 -1q2 -1 2 -5 q0 -2 -7 -61t-7 -60q0 -3 -4 -3l-10 1q-9 1 -21.5 2t-21.5 1q-46 0 -46 -61v-65h73q3 0 3 -4v-114q0 -4 -3 -4h-73v-293q0 -53 -12.5 -91t-29.5 -58t-44.5 -31t-48.5 -13.5t-51 -2.5z" />
<glyph unicode="&#x218;" horiz-adv-x="504" d="M260 -10q-148 0 -220 36q-4 2 -2 6l38 137q0 3 4 3q81 -27 181 -27q32 0 48 7.5t16 30.5v35q0 43 -90 54q-104 14 -147 50t-43 127v84q0 159 217 159q60 0 111.5 -8.5t67.5 -14t23 -9.5q2 -1 2 -6q0 -1 -17.5 -64.5t-18.5 -65.5q-1 -3 -4 -3q-4 1 -25 5.5t-61.5 9.5 t-75.5 5q-45 0 -45 -36v-31q0 -23 14 -33t68 -18q106 -16 152 -55.5t46 -128.5v-84q0 -43 -15.5 -74.5t-38.5 -48.5t-57.5 -27t-63 -12.5t-64.5 -2.5zM211 -269q-5 -3 -5 4v214q0 4 3 4h119q4 0 4 -4v-132q0 -4 -4 -7q-1 -1 -19.5 -13t-39.5 -26.5t-39 -26.5z" />
<glyph unicode="&#x219;" horiz-adv-x="430" d="M224 -8q-48 0 -94 6.5t-65.5 11.5t-23.5 7q-3 1 -3 5q0 2 15.5 56.5t16.5 56.5t4 2l10 -2q9 -2 24.5 -4.5t34 -4.5t40.5 -4t41 -2q37 0 37 19v17q0 14 -12.5 19.5t-49.5 10.5q-64 8 -108.5 37.5t-44.5 85.5v60q0 128 178 128q97 0 169 -24q2 -1 2 -5q0 -1 -14 -53 t-15 -54q-2 -3 -4 -3l-8 2q-8 1 -21 2.5t-29 3.5t-36.5 3.5t-40.5 1.5q-30 0 -30 -16v-17q0 -19 76 -28q71 -8 105.5 -37.5t34.5 -85.5v-61q0 -35 -12 -60t-29.5 -39t-44.5 -22t-50 -10.5t-53 -2.5zM172 -269q-5 -3 -5 4v214q0 4 3 4h119q4 0 4 -4v-132q0 -4 -4 -7 q-1 -1 -19.5 -13t-39.5 -26.5t-40 -26.5z" />
<glyph unicode="&#x21a;" horiz-adv-x="478" d="M168 0q-3 0 -3 4v523h-143q-3 0 -3 4v145q0 4 3 4h456q3 0 3 -4v-145q0 -4 -3 -4h-144v-523q0 -4 -3 -4h-163zM192 -269q-5 -3 -5 4v214q0 4 3 4h119q4 0 4 -4v-132q0 -4 -4 -7q-1 -1 -19.5 -13t-39.5 -26.5t-40 -26.5z" />
<glyph unicode="&#x21b;" horiz-adv-x="308" d="M238 -5q-28 0 -45 1t-38.5 5t-34 12.5t-26.5 23t-21 36t-11.5 53t-4.5 72.5v168h-37q-4 0 -4 4v114q0 4 4 4h37v149q0 4 3 4h157q3 0 3 -4v-149h77q4 0 4 -4v-114q0 -4 -4 -4h-77v-168q0 -42 12.5 -53.5t34.5 -11.5q10 0 20 1t16 2l6 1q2 0 3 -4q1 -2 8.5 -61.5 t7.5 -61.5q1 -2 -2 -5q-40 -10 -88 -10zM128 -269q-5 -3 -5 4v214q0 4 3 4h119q4 0 4 -4v-132q0 -4 -4 -7q-1 -1 -19.5 -13t-39.5 -26.5t-40 -26.5z" />
<glyph unicode="&#x2c6;" horiz-adv-x="440" d="M176 545h-111l-2 4q-1 2 45 75t46 74q-1 1 0.5 2t4.5 1h122q5 0 8 -4l88 -148q2 -4 -1 -4h-110q-3 0 -6 4l-39 63h-2q-35 -60 -37 -63q-3 -4 -6 -4z" />
<glyph unicode="&#x2c7;" horiz-adv-x="439" d="M263 697h115q5 0 2 -4l-102 -148q-3 -4 -7 -4h-104q-7 0 -7 4q1 2 -25.5 38.5l-53 73t-24.5 36.5q-2 4 2 4h115q2 0 5 -4l38 -62h2q37 59 39 62q3 4 5 4z" />
<glyph unicode="&#x2d8;" horiz-adv-x="440" d="M221 542q-140 0 -140 141q0 7 8 7h66q7 0 9 -6q10 -25 20.5 -33t34.5 -8q43 0 55 41q2 6 11 6h66q9 0 9 -7q-4 -141 -139 -141z" />
<glyph unicode="&#x2d9;" horiz-adv-x="439" d="M147 542q-4 0 -4 4v130q0 4 4 4h144q3 0 3 -4v-130q0 -4 -4 -4h-143z" />
<glyph unicode="&#x2da;" horiz-adv-x="440" d="M217 589q11 0 18.5 2t13 11.5t5.5 26.5v11q0 39 -35 39q-39 0 -39 -39v-11q0 -25 9.5 -32.5t27.5 -7.5zM217 523q-45 0 -72.5 19.5t-27.5 79.5v25q0 57 28.5 77t74.5 20q27 0 45.5 -4.5t35 -27.5t16.5 -65v-25q0 -32 -8.5 -53.5t-24.5 -30.5t-31 -12t-36 -3z" />
<glyph unicode="&#x2db;" horiz-adv-x="440" d="M214 -192q-45 0 -72 20t-27 77q0 65 50 101q5 4 14 4h122q5 0 6 -3t-4 -6q-3 -2 -8 -5q-22 -13 -32.5 -20.5t-21 -19.5t-10.5 -23q0 -15 10 -15q8 0 22 9q4 3 8 -1q1 -2 20 -38t19 -37q2 -6 -1 -9q-4 -4 -14.5 -11t-34 -15t-46.5 -8z" />
<glyph unicode="&#x2dc;" horiz-adv-x="439" d="M83 555q-3 0 -3 5v82q0 11 7 20q25 35 72 35q28 0 67.5 -19t60.5 -19q22 0 44 17.5t24 17.5q5 0 5 -6v-80q0 -13 -8 -21q-39 -39 -73 -39q-29 0 -67.5 20.5t-57.5 20.5q-23 0 -46.5 -17t-24.5 -17z" />
<glyph unicode="&#x2dd;" horiz-adv-x="440" d="M154 548q0 -4 -5 -4h-111q-2 0 -1 4q1 1 34 74t34 74q1 4 5 4h133q3 0 2 -4zM319 548q-3 -4 -5 -4h-111q-2 0 -1 4q1 1 34 74t34 74q1 4 5 4h134q4 0 1 -4z" />
<glyph unicode="&#x1e80;" horiz-adv-x="781" d="M127 0q-5 0 -6 5l-98 671q-1 4 2 4h170q3 0 4 -4l47 -406h17q66 270 67 273q1 4 4 4h133q4 0 5 -5l68 -272h17q46 403 47 406q1 4 4 4h170q5 0 3 -4q-1 -2 -49.5 -335.5t-48.5 -335.5q-1 -5 -6 -5h-203q-5 0 -6 5l-61 267h-11q-60 -260 -61 -266t-7 -6h-201zM380 743 l-91 148q-3 4 1 4h135q4 0 5 -4l67 -148q1 -4 -1 -4h-111q-3 0 -5 4z" />
<glyph unicode="&#x1e81;" horiz-adv-x="648" d="M124 0q-2 0 -3 4q-1 1 -47.5 239t-46.5 240q0 4 3 4h157q5 0 5 -4l33 -252h6q48 154 49 157q3 4 4 4h104q2 0 3 -4l50 -157h5q29 249 29 252q2 4 6 4h157q3 0 2 -4q-1 -2 -46 -239.5t-45 -239.5q-1 -4 -5 -4h-142q-3 0 -4 4l-60 193h-6q-61 -190 -62 -193q-1 -4 -3 -4 h-143zM303 550l-91 148q-3 4 1 4h135q4 0 5 -4l67 -148q1 -4 -1 -4h-111q-3 0 -5 4z" />
<glyph unicode="&#x1e82;" horiz-adv-x="781" d="M127 0q-5 0 -6 5l-98 671q-1 4 2 4h170q3 0 4 -4l47 -406h17q66 270 67 273q1 4 4 4h133q4 0 5 -5l68 -272h17q46 403 47 406q1 4 4 4h170q5 0 3 -4q-1 -2 -49.5 -335.5t-48.5 -335.5q-1 -5 -6 -5h-203q-5 0 -6 5l-61 267h-11q-60 -260 -61 -266t-7 -6h-201zM433 743 q-4 -4 -5 -4h-112q-2 0 -1 4l67 148q3 4 6 4h133q5 0 2 -4z" />
<glyph unicode="&#x1e83;" horiz-adv-x="648" d="M124 0q-2 0 -3 4q-1 1 -47.5 239t-46.5 240q0 4 3 4h157q5 0 5 -4l33 -252h6q48 154 49 157q3 4 4 4h104q2 0 3 -4l50 -157h5q29 249 29 252q2 4 6 4h157q3 0 2 -4q-1 -2 -46 -239.5t-45 -239.5q-1 -4 -5 -4h-142q-3 0 -4 4l-60 193h-6q-61 -190 -62 -193q-1 -4 -3 -4 h-143zM364 550q-4 -4 -5 -4h-112q-2 0 -1 4l67 148q3 4 6 4h133q5 0 2 -4z" />
<glyph unicode="&#x1e84;" horiz-adv-x="781" d="M127 0q-5 0 -6 5l-98 671q-1 4 2 4h170q3 0 4 -4l47 -406h17q66 270 67 273q1 4 4 4h133q4 0 5 -5l68 -272h17q46 403 47 406q1 4 4 4h170q5 0 3 -4q-1 -2 -49.5 -335.5t-48.5 -335.5q-1 -5 -6 -5h-203q-5 0 -6 5l-61 267h-11q-60 -260 -61 -266t-7 -6h-201zM259 743 q-4 0 -4 4v122q0 4 4 4h113q3 0 3 -4v-122q0 -4 -3 -4h-113zM430 743q-4 0 -4 4v122q0 4 4 4h113q3 0 3 -4v-122q0 -4 -3 -4h-113z" />
<glyph unicode="&#x1e85;" horiz-adv-x="648" d="M124 0q-2 0 -3 4q-1 1 -47.5 239t-46.5 240q0 4 3 4h157q5 0 5 -4l33 -252h6q48 154 49 157q3 4 4 4h104q2 0 3 -4l50 -157h5q29 249 29 252q2 4 6 4h157q3 0 2 -4q-1 -2 -46 -239.5t-45 -239.5q-1 -4 -5 -4h-142q-3 0 -4 4l-60 193h-6q-61 -190 -62 -193q-1 -4 -3 -4 h-143zM193 550q-4 0 -4 4v122q0 4 4 4h113q3 0 3 -4v-122q0 -4 -3 -4h-113zM364 550q-4 0 -4 4v122q0 4 4 4h113q3 0 3 -4v-122q0 -4 -3 -4h-113z" />
<glyph unicode="&#x1e9e;" horiz-adv-x="554" d="M48 0q-3 0 -3 4v477q0 64 17 105.5t50.5 61t68.5 26t86 6.5h212q5 0 5 -5v-154q0 -7 -3 -12l-59 -111q39 -19 62.5 -53.5t23.5 -101.5v-53q0 -61 -19.5 -101t-55.5 -58t-71 -24.5t-82 -6.5q-4 0 -4 4v135q0 4 4 4q64 0 64 56v39q0 54 -61 54q-3 0 -3 4v137l51 111h-64 q-10 0 -20.5 -4t-21.5 -19t-11 -40v-477q0 -4 -4 -4h-162z" />
<glyph unicode="&#x2000;" horiz-adv-x="472" />
<glyph unicode="&#x2001;" horiz-adv-x="944" />
<glyph unicode="&#x2002;" horiz-adv-x="472" />
<glyph unicode="&#x2003;" horiz-adv-x="944" />
<glyph unicode="&#x2004;" horiz-adv-x="314" />
<glyph unicode="&#x2005;" horiz-adv-x="236" />
<glyph unicode="&#x2006;" horiz-adv-x="157" />
<glyph unicode="&#x2007;" horiz-adv-x="157" />
<glyph unicode="&#x2008;" horiz-adv-x="118" />
<glyph unicode="&#x2009;" horiz-adv-x="188" />
<glyph unicode="&#x200a;" horiz-adv-x="52" />
<glyph unicode="&#x2010;" horiz-adv-x="356" d="M43 207q-4 0 -4 4v129q0 4 4 4h269q4 0 4 -4v-129q0 -4 -4 -4h-269z" />
<glyph unicode="&#x2011;" horiz-adv-x="356" d="M43 207q-4 0 -4 4v129q0 4 4 4h269q4 0 4 -4v-129q0 -4 -4 -4h-269z" />
<glyph unicode="&#x2012;" horiz-adv-x="356" d="M43 207q-4 0 -4 4v129q0 4 4 4h269q4 0 4 -4v-129q0 -4 -4 -4h-269z" />
<glyph unicode="&#x2013;" horiz-adv-x="427" d="M37 207q-3 0 -3 4v129q0 4 3 4h353q3 0 3 -4v-129q0 -4 -3 -4h-353z" />
<glyph unicode="&#x2014;" horiz-adv-x="537" d="M26 207q-4 0 -4 4v129q0 4 4 4h485q3 0 3 -4v-129q0 -4 -3 -4h-485z" />
<glyph unicode="&#x2018;" horiz-adv-x="226" d="M170 686q6 3 6 -4v-214q0 -4 -4 -4h-119q-3 0 -3 4v132q0 4 4 7z" />
<glyph unicode="&#x2019;" horiz-adv-x="226" d="M55 458q-5 -2 -5 4v214q0 4 3 4h119q4 0 4 -4v-132q0 -4 -4 -7q-1 -1 -19.5 -13t-39.5 -26.5t-39 -27.5z" />
<glyph unicode="&#x201a;" horiz-adv-x="226" d="M56 -84q-6 -4 -6 3v214q0 4 3 4h119q4 0 4 -4v-131q0 -5 -4 -7q-2 -2 -58 -40t-58 -39z" />
<glyph unicode="&#x201c;" horiz-adv-x="402" d="M170 686q6 3 6 -4v-214q0 -4 -4 -4h-119q-3 0 -3 4v132q0 4 4 7zM346 686q5 2 5 -4v-214q0 -4 -3 -4h-119q-3 0 -3 4v132q0 4 4 7z" />
<glyph unicode="&#x201d;" horiz-adv-x="402" d="M55 458q-5 -2 -5 4v214q0 4 3 4h119q4 0 4 -4v-132q0 -4 -4 -7q-1 -1 -19.5 -13t-39.5 -26.5t-39 -27.5zM231 458q-5 -2 -5 4v214q0 4 3 4h119q3 0 3 -4v-132q0 -4 -4 -7z" />
<glyph unicode="&#x201e;" horiz-adv-x="402" d="M56 -84q-6 -4 -6 3v214q0 4 3 4h119q4 0 4 -4v-131q0 -5 -4 -7q-2 -2 -58 -40t-58 -39zM232 -84q-5 -3 -5 3v214q0 4 4 4h117q3 0 3 -4v-131q0 -5 -3 -7q-2 -2 -58 -40t-58 -39z" />
<glyph unicode="&#x2020;" horiz-adv-x="513" d="M186 -180q-3 0 -3 4v509h-138q-3 0 -3 4v129q0 4 3 4h138v206q0 4 3 4h140q4 0 4 -4v-206h135q4 0 4 -4v-129q0 -4 -4 -4h-135v-509q0 -4 -4 -4h-140z" />
<glyph unicode="&#x2021;" horiz-adv-x="514" d="M185 -180q-3 0 -3 4v176h-138q-3 0 -3 4v129q0 4 3 4h138v226h-138q-3 0 -3 4v129q0 4 3 4h138v176q0 4 3 4h141q3 0 3 -4v-176h135q4 0 4 -4v-129q0 -4 -4 -4h-135v-226h135q4 0 4 -4v-129q0 -4 -4 -4h-135v-176q0 -4 -3 -4h-141z" />
<glyph unicode="&#x2022;" horiz-adv-x="385" d="M193 199q-46 0 -73 19.5t-27 79.5v25q0 57 28 77t75 20q20 0 34 -3t29.5 -11.5t24 -29.5t8.5 -53v-25q0 -61 -27 -80t-72 -19z" />
<glyph unicode="&#x2026;" horiz-adv-x="681" d="M500 0q-4 0 -4 4v155q0 4 4 4h143q3 0 3 -4v-155q0 -4 -3 -4h-143zM38 0q-3 0 -3 4v155q0 4 3 4h143q4 0 4 -4v-155q0 -4 -4 -4h-143zM269 0q-3 0 -3 4v155q0 4 3 4h143q3 0 3 -4v-155q0 -4 -3 -4h-143z" />
<glyph unicode="&#x202f;" horiz-adv-x="188" />
<glyph unicode="&#x2030;" horiz-adv-x="1005" d="M268 -6h-131q-2 1 -2 3q-9 2 74.5 173t167 341.5t73.5 171.5q2 4 5 4h132q1 0 0 -4l-314 -685q-1 -4 -5 -4zM543 -6q-25 0 -44.5 5t-39 17t-30 38t-10.5 64v82q0 121 127 121q52 0 86.5 -25t34.5 -96v-82q0 -39 -10.5 -65t-30 -38t-39 -16.5t-44.5 -4.5zM824 -6 q-123 0 -123 124v82q0 121 127 121q52 0 86.5 -25t34.5 -96v-82q0 -39 -11 -65t-30.5 -38t-39 -16.5t-44.5 -4.5zM179 360q-123 0 -123 124v82q0 121 127 121q52 0 86 -25t34 -96v-82q0 -73 -34.5 -98.5t-89.5 -25.5zM824 98q15 0 22.5 7t7.5 30v46q0 21 -7 28.5t-21 7.5 q-15 0 -23 -7.5t-8 -28.5v-46q0 -22 7.5 -29.5t21.5 -7.5zM179 464q14 0 21.5 7t7.5 30v46q0 21 -7 28.5t-21 7.5q-30 0 -30 -36v-46q0 -22 7.5 -29.5t21.5 -7.5zM543 98q13 0 20.5 7t7.5 30v46q0 22 -6.5 29t-20.5 7q-30 0 -30 -36v-46q0 -22 7.5 -29.5t21.5 -7.5z" />
<glyph unicode="&#x2039;" horiz-adv-x="352" d="M241 522q79 -79 83 -87q3 -2 0 -5l-140 -166q139 -164 140 -166q3 -2 0 -5q-79 -79 -83 -87q-2 -2 -4 0q-3 3 -114 128.5t-111 126.5v6q2 2 113 128t112 127q2 2 4 0z" />
<glyph unicode="&#x203a;" horiz-adv-x="352" d="M111 6q-79 79 -83 87q-3 2 0 5l139 166q-138 164 -139 166q-3 2 0 5q79 79 83 87q2 2 4 0l225 -255q3 -3 0 -6l-225 -255q-2 -2 -4 0z" />
<glyph unicode="&#x2044;" horiz-adv-x="399" d="M43 -5q-3 0 -2 4q1 3 81.5 342.5t80.5 341.5q1 4 5 4h151q3 0 2 -4l-162 -684q-1 -4 -5 -4h-151z" />
<glyph unicode="&#x205f;" horiz-adv-x="236" />
<glyph unicode="&#x2070;" horiz-adv-x="302" d="M151 338q28 0 38.5 16t10.5 70v103q0 52 -11 68t-38 16q-28 0 -39 -15.5t-11 -68.5v-103q0 -54 11 -70t39 -16zM151 267q-29 0 -47 4t-38 17.5t-30 46t-10 83.5v117q0 49 10 80t29.5 45t38.5 18t47 4t45.5 -3.5t38.5 -17t31 -45t10 -81.5v-117q0 -52 -10 -84.5t-31 -46 t-38 -17t-46 -3.5z" />
<glyph unicode="&#x2074;" horiz-adv-x="277" d="M224 270h-62q-3 0 -3 2v63h-134q-2 0 -2 3v65q0 2 2 6q1 1 46 133.5t45 133.5l2 2h71q1 0 1 -2l-87 -265v-5h56v70q0 2 3 2h62q3 0 3 -2v-70h30q3 0 3 -3v-65q0 -3 -3 -3h-30v-63q0 -2 -3 -2z" />
<glyph unicode="&#x2075;" horiz-adv-x="277" d="M133 267q-63 0 -99 18q-2 1 -2 3t6 29.5t6 29.5q0 1 2 1l6 -1q6 -1 15 -3t19.5 -4t23 -3t22.5 -1q45 0 45 36v29q0 26 -12.5 37t-28.5 11h-94q-2 0 -2 2v222q0 5 5 5h191q2 0 2 -2v-61q0 -3 -2 -3h-130v-98h31q21 0 37 -3t35.5 -12t30 -30.5t10.5 -54.5v-53 q0 -26 -8.5 -44.5t-19.5 -27.5t-29 -14.5t-30.5 -6.5t-29.5 -1z" />
<glyph unicode="&#x2076;" horiz-adv-x="278" d="M140 331q12 0 19.5 3t14.5 17t7 39v16q0 53 -35 53q-8 0 -19.5 -2.5t-19.5 -5.5l-8 -3v-81q0 -36 41 -36zM144 267q-116 0 -116 98v212q0 34 13 56.5t34 32t36.5 13t31.5 3.5q17 0 33 -2.5t27 -5.5t19 -6t12 -6l5 -2q1 0 1 -3q-13 -52 -13 -57q0 -1 -4 -1l-5 1 q-5 2 -13 4t-18 3.5t-21.5 3t-21.5 1.5q-45 0 -45 -38v-61q43 11 62 11q18 0 31 -3t28 -13.5t23 -34.5t8 -61v-27q0 -39 -9.5 -64.5t-27 -36.5t-33 -14t-37.5 -3z" />
<glyph unicode="&#x2077;" horiz-adv-x="268" d="M127 270h-71q-4 0 -2 3l108 331v6h-130q-2 0 -2 2v63q0 3 2 3h207q2 0 2 -2v-62q0 -1 -1 -3.5t-1 -3.5t-54 -167t-54 -167q-1 -3 -4 -3z" />
<glyph unicode="&#x2078;" horiz-adv-x="276" d="M138 331q41 0 41 49v19q0 47 -40 47q-43 0 -43 -47v-19q0 -49 42 -49zM138 515q39 0 39 41v18q0 44 -38 44q-40 0 -40 -44v-18q0 -41 39 -41zM137 267q-50 0 -81 21.5t-31 86.5v29q0 24 9.5 43t19.5 26l9 7v2q-32 21 -32 68v27q0 34 9 56.5t26.5 32.5t33.5 13t39 3 q48 0 77 -20.5t29 -84.5v-28q0 -20 -7.5 -36.5t-15.5 -23.5l-8 -7v-2q4 -2 10 -7t16.5 -25t10.5 -44v-29q0 -35 -9 -57.5t-27 -33t-35.5 -14t-42.5 -3.5z" />
<glyph unicode="&#x2079;" horiz-adv-x="277" d="M139 617q-12 0 -19.5 -3t-14.5 -16.5t-7 -38.5v-24q0 -31 8.5 -42t25.5 -11q8 0 19.5 3t18.5 5l8 3v89q0 35 -39 35zM135 682q115 0 115 -98v-212q0 -34 -13 -56.5t-34 -32t-36.5 -13t-30.5 -3.5q-60 0 -98 19v3q0 1 6 28t6 29t3 2l5 -1q6 -1 14.5 -3t18.5 -4t22 -3 t22 -1q43 0 43 40v53q-42 -11 -60 -11t-31 3t-28.5 13.5t-23.5 34.5t-8 61v33q0 39 9.5 65t27.5 36.5t33.5 14t37.5 3.5z" />
<glyph unicode="&#x2080;" horiz-adv-x="302" d="M151 68q28 0 38.5 16t10.5 70v103q0 52 -11 68t-38 16q-28 0 -39 -15.5t-11 -68.5v-103q0 -54 11 -70t39 -16zM151 -3q-29 0 -47 4t-38 17.5t-30 46t-10 83.5v117q0 49 10 80t29.5 45t38.5 18t47 4t45.5 -3.5t38.5 -17t31 -45t10 -81.5v-117q0 -52 -10 -84.5t-31 -46 t-38 -17t-46 -3.5z" />
<glyph unicode="&#x2081;" horiz-adv-x="267" d="M190 0h-67q-2 0 -2 2v321q-61 -50 -62 -51q-2 0 -3 1q0 1 -8 32t-8 32q0 3 3 4q1 1 38 33t38 33t4 1h67q3 0 3 -2v-404q0 -2 -3 -2z" />
<glyph unicode="&#x2082;" horiz-adv-x="273" d="M241 0h-208q-2 0 -2 2v63q0 3 2 5q8 10 28.5 36t28.5 36.5t23.5 31.5t22.5 32t15.5 25.5t12 25t3.5 18.5v29q0 37 -45 37q-10 0 -22 -1.5t-21.5 -3.5t-17.5 -4t-13 -4l-6 -1q-1 -1 -2 -0.5t-1 1.5l-7 29l-6 29q0 4 1 4q42 21 96 21q118 0 118 -96v-46q0 -23 -16.5 -57.5 t-32.5 -58t-54 -77.5v-6h103q1 0 1 -2v-66q0 -2 -1 -2z" />
<glyph unicode="&#x2083;" horiz-adv-x="277" d="M32 15q-1 1 -1 3q0 1 7 30l6 29q0 1 2 1l6 -1q5 -1 14 -3t19.5 -4t23 -3t23.5 -1q44 0 44 37v26q0 46 -41 46h-41q-3 0 -3 2v62q0 2 3 2h42q14 0 24 10.5t10 28.5v25q0 38 -44 38q-16 0 -36 -3t-31 -6t-13 -4q-4 -2 -4 1l-6 29q-5 29 -5 30q0 2 1 3t12 5.5t34 9t48 4.5 q32 0 54.5 -5t42 -27t19.5 -62v-39q0 -18 -7 -34t-13 -23l-7 -8v-5q4 -2 9.5 -6.5t14.5 -23.5t9 -43v-44q0 -57 -31.5 -76t-84.5 -19q-28 0 -53 4.5t-36 8.5z" />
<glyph unicode="&#x2084;" horiz-adv-x="277" d="M224 0h-62q-3 0 -3 2v63h-134q-2 0 -2 3v65q0 2 2 6q1 1 46 133.5t45 133.5l2 2h71q1 0 1 -2l-87 -265v-5h56v70q0 2 3 2h62q3 0 3 -2v-70h30q3 0 3 -3v-65q0 -3 -3 -3h-30v-63q0 -2 -3 -2z" />
<glyph unicode="&#x2085;" horiz-adv-x="277" d="M133 -3q-63 0 -99 18q-2 1 -2 3t6 29.5t6 29.5q0 1 2 1l6 -1q6 -1 15 -3t19.5 -4t23 -3t22.5 -1q45 0 45 36v29q0 26 -12.5 37t-28.5 11h-94q-2 0 -2 2v222q0 5 5 5h191q2 0 2 -2v-61q0 -3 -2 -3h-130v-98h31q21 0 37 -3t35.5 -12t30 -30.5t10.5 -54.5v-53 q0 -26 -8.5 -44.5t-19.5 -27.5t-29 -14.5t-30.5 -6.5t-29.5 -1z" />
<glyph unicode="&#x2086;" horiz-adv-x="278" d="M140 61q12 0 19.5 3t14.5 17t7 39v16q0 53 -35 53q-8 0 -19.5 -2.5t-19.5 -5.5l-8 -3v-81q0 -36 41 -36zM144 -3q-116 0 -116 98v212q0 34 13 56.5t34 32t36.5 13t31.5 3.5q17 0 33 -2.5t27 -5.5t19 -6t12 -6l5 -2q1 0 1 -3q-13 -52 -13 -57q0 -1 -4 -1l-5 1q-5 2 -13 4 t-18 3.5t-21.5 3t-21.5 1.5q-45 0 -45 -38v-61q43 11 62 11q18 0 31 -3t28 -13.5t23 -34.5t8 -61v-27q0 -39 -9.5 -64.5t-27 -36.5t-33 -14t-37.5 -3z" />
<glyph unicode="&#x2087;" horiz-adv-x="268" d="M127 0h-71q-4 0 -2 3l108 331v6h-130q-2 0 -2 2v63q0 3 2 3h207q2 0 2 -2v-62q0 -1 -1 -3.5t-1 -3.5t-54 -167t-54 -167q-1 -3 -4 -3z" />
<glyph unicode="&#x2088;" horiz-adv-x="276" d="M138 61q41 0 41 49v19q0 47 -40 47q-43 0 -43 -47v-19q0 -49 42 -49zM138 245q39 0 39 41v18q0 44 -38 44q-40 0 -40 -44v-18q0 -41 39 -41zM137 -3q-50 0 -81 21.5t-31 86.5v29q0 24 9.5 43t19.5 26l9 7v2q-32 21 -32 68v27q0 34 9 56.5t26.5 32.5t33.5 13t39 3 q48 0 77 -20.5t29 -84.5v-28q0 -20 -7.5 -36.5t-15.5 -23.5l-8 -7v-2q4 -2 10 -7t16.5 -25t10.5 -44v-29q0 -35 -9 -57.5t-27 -33t-35.5 -14t-42.5 -3.5z" />
<glyph unicode="&#x2089;" horiz-adv-x="277" d="M139 347q-12 0 -19.5 -3t-14.5 -16.5t-7 -38.5v-24q0 -31 8.5 -42t25.5 -11q8 0 19.5 3t18.5 5l8 3v89q0 35 -39 35zM135 412q115 0 115 -98v-212q0 -34 -13 -56.5t-34 -32t-36.5 -13t-30.5 -3.5q-60 0 -98 19v3q0 1 6 28.5t6 28.5q0 2 3 2l5 -1q6 -1 14.5 -3t18.5 -4 t22 -3t22 -1q43 0 43 40v53q-42 -11 -60 -11t-31 3t-28.5 13.5t-23.5 34.5t-8 61v33q0 39 9.5 65t27.5 36.5t33.5 14t37.5 3.5z" />
<glyph unicode="&#x20ac;" horiz-adv-x="528" d="M327 -8q-32 0 -60 4t-64.5 18.5t-61.5 39.5t-43 71t-18 109h-40q-3 0 -3 4v79q0 4 3 4h40v41h-40q-3 0 -3 4v79q0 4 3 4h40q0 239 250 239q51 0 91 -7t54.5 -13t15.5 -8q4 -1 2 -5l-41 -130q-2 -3 -4 -2q-1 1 -17.5 3t-45 4.5t-55.5 2.5q-31 0 -48.5 -17.5t-28.5 -66.5 h110q4 0 4 -4v-79q0 -4 -4 -4h-112v-41h112q4 0 4 -4v-79q0 -4 -4 -4h-110q8 -49 24 -64.5t51 -15.5q30 0 61 3t47 6t18 4q3 1 4 -2l44 -133q2 -4 -2 -5q-1 -3 -18.5 -10.5t-60.5 -16t-94 -8.5z" />
<glyph unicode="&#x2122;" horiz-adv-x="722" d="M338 291v386q0 3 3 3h104q3 0 3 -2l57 -173h7q54 170 55 172q3 3 5 3h102q2 0 2 -3v-386l-1 -2h-89q-1 0 -1 2v205h-7q-36 -121 -37 -123t-3 -2h-60q-3 0 -4 3l-37 122h-7v-205q0 -2 -2 -2h-87q-3 0 -3 2zM117 291v301h-79v2v83v3h250q2 0 2 -3v-83q0 -2 -2 -2h-78v-301 q0 -2 -3 -2h-88q-2 0 -2 2z" />
<glyph unicode="&#x2190;" horiz-adv-x="732" d="M301 360h377q4 0 4 -4v-129q0 -4 -4 -4h-377l133 -133q2 -2 0 -5q-3 -2 -92 -91q-2 -2 -5 0l-295 294q-3 3 0 6l295 295q3 3 5 0l92 -91q3 -3 0 -6z" />
<glyph unicode="&#x2191;" horiz-adv-x="699" d="M418 381v-377q0 -4 -4 -4h-129q-4 0 -4 4v377l-133 -133q-2 -2 -5 0q-1 1 -15.5 15t-30.5 30.5t-31 31.5l-14 15q-2 2 0 5l294 295q3 3 6 0l295 -295q3 -3 0 -5l-91 -92q-3 -3 -6 0z" />
<glyph unicode="&#x2192;" horiz-adv-x="732" d="M431 223h-377q-4 0 -4 4v129q0 4 4 4h377l-133 133q-2 3 0 5q3 2 92 91q2 3 5 0l295 -294q3 -3 0 -6l-295 -295q-3 -2 -5 0l-92 91q-3 3 0 6z" />
<glyph unicode="&#x2193;" horiz-adv-x="699" d="M281 260v377q0 4 4 4h129q4 0 4 -4v-377l133 133q3 3 5 0q1 -1 15.5 -15t30.5 -30.5t30 -31.5l15 -15q3 -3 0 -5l-294 -295q-3 -3 -6 0l-295 295q-2 2 0 5l91 92q3 3 6 0z" />
<glyph unicode="&#x2194;" horiz-adv-x="977" d="M337 -5l-295 294q-3 3 0 6l295 295q3 2 5 0q3 -2 92 -91q3 -3 0 -6l-133 -132h375q-131 130 -132 132q-3 3 0 6l91 91q3 2 5 0l295 -295q3 -3 0 -6l-295 -294q-2 -3 -5 0l-91 91q-2 2 0 5l132 133h-375l133 -133q2 -3 0 -5l-92 -91q-2 -3 -5 0z" />
<glyph unicode="&#x2195;" horiz-adv-x="699" d="M52 492q1 2 294 295q3 3 6 0l295 -295q3 -3 0 -6l-10 -10q-10 -10 -23 -22.5t-26 -26t-22.5 -22.5t-9.5 -10q-3 -3 -6 0l-132 132v-374l132 132q3 3 6 0l91 -91q3 -3 0 -6l-295 -295q-3 -3 -6 0l-294 295q-3 3 0 6l91 91q3 3 5 0l133 -132v374q-131 -130 -133 -132 q-2 -3 -5 0l-91 91q-3 3 0 6z" />
<glyph unicode="&#x2196;" horiz-adv-x="613" d="M561 163q3 -3 0 -6l-92 -91q-3 -2 -5 0l-267 266v-187q0 -4 -4 -4h-129q-4 0 -4 4v417q0 4 4 4h417q4 0 4 -4v-129q0 -4 -4 -4h-187z" />
<glyph unicode="&#x2197;" horiz-adv-x="612" d="M149 65q-3 -3 -6 0l-91 92q-2 3 0 5l266 267h-187q-4 0 -4 4v129q0 4 4 4h417q4 0 4 -4v-417q0 -4 -4 -4h-129q-4 0 -4 4v187z" />
<glyph unicode="&#x2198;" horiz-adv-x="613" d="M52 467q-3 3 0 6l92 91q2 2 5 0l267 -266v187q0 4 4 4h129q4 0 4 -4v-417q0 -4 -4 -4h-417q-4 0 -4 4v129q0 4 4 4h187z" />
<glyph unicode="&#x2199;" horiz-adv-x="612" d="M463 565q3 3 6 0l91 -92q2 -3 0 -5l-266 -267h187q4 0 4 -4v-129q0 -4 -4 -4h-417q-4 0 -4 4v417q0 4 4 4h129q4 0 4 -4v-187z" />
<glyph unicode="&#x2212;" horiz-adv-x="356" d="M43 207q-4 0 -4 4v129q0 4 4 4h269q4 0 4 -4v-129q0 -4 -4 -4h-269z" />
<glyph unicode="&#x221a;" horiz-adv-x="877" d="M32 296l106 110q3 3 6 0l181 -181q407 411 408 412q3 3 6 0l106 -110q3 -3 0 -5l-517 -527q-3 -3 -6 0l-30 31q-31 31 -73 74t-84.5 86t-72 73.5t-30.5 30.5q-2 4 0 6z" />
<glyph unicode="&#x2248;" d="M65 184q0 11 7 20q4 6 14 15t31.5 19.5t44.5 10.5q37 0 89 -29t78 -29q27 0 56.5 22.5t30.5 22.5q4 0 4 -6v-80q0 -14 -7 -21q-49 -49 -91 -49q-36 0 -86 30.5t-78 30.5q-21 0 -41 -11t-33 -22t-16 -11t-3 5v82zM65 405q0 12 7 20q5 7 14.5 16t31 19.5t44.5 10.5 q37 0 89 -29t78 -29q27 0 56.5 22.5t30.5 22.5q4 0 4 -6v-80q0 -14 -7 -21q-49 -49 -91 -49q-36 0 -86 30.5t-78 30.5q-21 0 -41 -11t-33 -22t-16 -11t-3 5v81z" />
<glyph unicode="&#x2260;" horiz-adv-x="494" d="M87 0q-5 0 -3 4l36 93h-70q-3 0 -3 4v131q0 4 3 4h135l24 80h-159q-3 0 -3 4v131q0 4 3 4h224q36 93 38 97q1 4 5 4h94q3 0 3 -4l-38 -97h68q4 0 4 -4v-131q0 -4 -4 -4h-132l-25 -80h157q4 0 4 -4v-131q0 -4 -4 -4h-223q-34 -91 -35 -93q-1 -4 -5 -4h-94z" />
<glyph unicode="&#x2264;" horiz-adv-x="492" d="M445 169l-396 171q-3 3 -3 5v115q0 5 3 5l396 172q3 1 3 -3v-139q0 -5 -3 -6l-191 -85v-3q189 -84 191 -84q3 -1 3 -6v-139q-1 -3 -3 -3zM47 0q-3 0 -3 4v132q0 4 3 4h398q3 0 3 -4v-132q0 -4 -3 -4h-398z" />
<glyph unicode="&#x2265;" horiz-adv-x="492" d="M47 169q-1 -1 -2 1q-1 1 -1 2v139q0 6 3 6l192 84v3q-190 84 -192 85q-3 1 -3 6v139q0 4 3 3t199 -86.5t197 -85.5q3 0 3 -5v-115q0 -2 -3 -5zM445 0h-398q-3 0 -3 4v132q0 4 3 4h398q3 0 3 -4v-132q0 -4 -3 -4z" />
<glyph unicode="&#x25b2;" horiz-adv-x="710" d="M695 323v-207l-3 -3l-332 236h-9q-331 -236 -332 -237q-4 -4 -4 3v208q0 3 4 6l328 236q8 6 16 0q2 -1 84 -60.5t163 -117.5t82 -58q3 -3 3 -6z" />
<glyph unicode="&#x25ba;" horiz-adv-x="617" d="M282 0h-207q-6 0 -3 3l236 332v9q-236 331 -237 332q-4 4 3 4h208q3 0 6 -4l236 -328q6 -8 0 -16q-1 -2 -60.5 -84t-117.5 -163t-58 -82q-3 -3 -6 -3z" />
<glyph unicode="&#x25bc;" horiz-adv-x="710" d="M15 356v207l3 3l332 -236h9q331 236 332 237q4 4 4 -3v-208q0 -3 -4 -6l-328 -236q-8 -6 -16 0q-2 1 -84 60.5t-163 117.5t-82 58q-3 3 -3 6z" />
<glyph unicode="&#x25c4;" horiz-adv-x="617" d="M335 680h207q6 0 3 -3l-236 -332v-9q236 -331 237 -332q4 -4 -3 -4h-208q-3 0 -6 4l-236 328q-6 8 0 16q1 2 60.5 84t117.5 163t58 82q3 3 6 3z" />
<glyph unicode="&#x25fc;" horiz-adv-x="485" d="M0 485h485v-485h-485v485z" />
<glyph horiz-adv-x="490" />
<glyph horiz-adv-x="490" d="M244 144q34 0 43.5 21t9.5 96v163q0 73 -10 93.5t-43 20.5q-32 0 -42.5 -20.5t-10.5 -93.5v-163q0 -76 9 -96.5t44 -20.5zM244 -10q-34 0 -57 2.5t-51.5 10.5t-47 26t-35 45.5t-24.5 71.5t-8 103v191q0 57 8 99.5t25 69.5t36 44.5t46.5 25.5t51 10.5t56.5 2.5 q40 0 66.5 -3t59.5 -17.5t52.5 -40t33 -74t13.5 -117.5v-191q0 -72 -14 -122.5t-33 -76.5t-52.5 -40t-59 -17t-66.5 -3z" />
<glyph horiz-adv-x="490" d="M371 0h-157q-3 0 -3 4v495q-99 -76 -101 -77q-1 -1 -2 -0.5t-1 2.5q0 1 -18.5 69.5t-19.5 70.5q-1 4 4 7l136 107q2 2 5 2h157q3 0 3 -4v-673q0 -3 -3 -3z" />
<glyph horiz-adv-x="490" d="M434 0h-373q-3 0 -3 4v131q0 6 4 12q14 17 42.5 52t42.5 53t36.5 47t33.5 46.5t24 39t18 37.5t5 30v42q0 18 -11 29t-21 13.5t-17 2.5q-29 0 -64.5 -6t-55.5 -11.5t-23 -6.5q-4 0 -4 3q0 1 -14 64.5t-14 64.5q-1 4 1 6q3 3 19.5 11t60.5 17.5t97 9.5q217 0 217 -169v-86 q0 -55 -31.5 -114.5t-99.5 -158.5v-11h130q3 0 3 -4v-144q0 -4 -3 -4z" />
<glyph horiz-adv-x="490" d="M55 19q-2 1 -2 6q0 2 11.5 65t11.5 64q1 3 5 3q1 -1 24 -5t60.5 -8.5t66.5 -4.5q20 0 35 11t15 33v33q0 60 -48 60h-80q-4 0 -4 4v135q0 4 4 4h81q15 0 26 13t11 34v32q0 18 -11 29t-20.5 13.5t-17.5 2.5q-29 0 -65 -5t-56 -9.5t-24 -5.5q-1 -1 -3 0t-2 3q0 1 -11 64 t-11 65q-1 4 2 6q6 3 22.5 9t60 14t88.5 8q36 0 63 -3t56.5 -13t48.5 -27t31.5 -47t12.5 -72v-68q0 -26 -12 -52t-24 -39l-12 -13v-10q2 -1 6 -3.5t14 -12t17.5 -21.5t13.5 -32t6 -44v-81q0 -51 -16 -85t-48 -50.5t-66 -22.5t-82 -6q-51 0 -95.5 7t-63.5 15z" />
<glyph horiz-adv-x="490" d="M422 0h-146q-2 0 -2 4v90h-232q-3 0 -3 4v139q0 7 3 14l137 425q2 4 4 4h164q4 0 2 -4l-130 -420v-10h55v100q0 4 3 4h145q3 0 3 -4v-100h33q3 0 3 -4v-144q0 -4 -3 -4h-33v-90q0 -4 -3 -4z" />
<glyph horiz-adv-x="490" d="M234 -11q-51 0 -96.5 7.5t-61 13t-21.5 8.5q-2 1 -2 6q0 2 11.5 65t12.5 65q0 3 3 2t26 -5t61 -8.5t66 -4.5q18 0 33.5 10.5t15.5 34.5v39q0 32 -17 45t-33 13h-163q-3 0 -3 4v387q0 9 8 9h352q4 0 4 -4v-134q0 -4 -4 -4h-213v-118h24q31 0 55 -2.5t55 -12t51 -26t34 -48 t14 -74.5v-104q0 -45 -14.5 -77t-34 -48.5t-51.5 -25.5t-55.5 -11t-56.5 -2z" />
<glyph horiz-adv-x="490" d="M244 128q12 0 20.5 3.5t16.5 21.5t8 51v29q0 63 -26 63q-14 0 -28 -3.5t-21 -6.5l-7 -4v-116q0 -21 11.5 -29.5t25.5 -8.5zM256 -10q-211 0 -211 175v338q0 51 18.5 88.5t43.5 56t57.5 29.5t52 13t36.5 2q100 0 176 -38q2 -1 2 -6q-1 -5 -15 -64t-14 -61t-4 -2l-9 2 q-9 2 -24 5.5t-32.5 6.5t-38 5t-38.5 2q-7 0 -17 -3t-21 -14.5t-11 -28.5v-76q66 14 92 14q31 0 52.5 -5.5t46 -23t37.5 -58.5t13 -103v-49q0 -55 -12 -94t-29 -60t-44.5 -33t-51 -15t-55.5 -3z" />
<glyph horiz-adv-x="490" d="M260 1h-165q-4 0 -3 4l165 518v10h-195q-4 0 -4 4v139q0 4 4 4h370q3 0 3 -4v-132q0 -8 -2 -13l-167 -526q-3 -4 -6 -4z" />
<glyph horiz-adv-x="490" d="M246 128q43 0 43 61v29q0 28 -14.5 40.5t-28.5 12.5t-28 -13t-14 -40v-29q0 -61 42 -61zM246 423q15 0 27.5 11.5t12.5 37.5v29q0 55 -40 55q-39 0 -39 -55v-29q0 -25 12 -37t27 -12zM246 -10q-41 0 -72.5 6.5t-64.5 24.5t-51 58t-18 100v49q0 36 15 65.5t30 41.5l15 12 v4q-5 4 -12.5 12t-20 36t-12.5 60v48q0 62 15 101.5t45.5 56.5t58.5 22t72 5q34 0 58 -2.5t51.5 -13.5t44 -30t27.5 -54t11 -85v-49q0 -31 -11.5 -58t-22.5 -38l-12 -12v-3q2 -2 6.5 -5t14.5 -13.5t18 -23.5t14.5 -33.5t6.5 -43.5v-49q0 -48 -12 -83.5t-30.5 -55.5 t-47 -31.5t-55 -15t-61.5 -3.5z" />
<glyph horiz-adv-x="490" d="M252 549q-12 0 -20.5 -3.5t-17 -21.5t-8.5 -50v-35q0 -63 27 -63q14 0 27.5 3.5t20.5 6.5l7 4v121q0 38 -36 38zM240 687q210 0 210 -175v-328q0 -43 -12.5 -76t-33.5 -52.5t-43.5 -33t-48.5 -18.5t-41 -7t-28 -2q-19 0 -37.5 1t-33 3t-28 4.5t-24.5 5.5t-20 6t-15.5 5.5 t-11 4.5t-7.5 3l-3 2q-1 0 -1 6q0 5 14 62t16 63q2 3 4 3q2 -1 23 -5.5t57 -9t64 -4.5q6 0 16 3t21 14.5t11 29.5v60q-66 -14 -91 -14q-30 0 -52.5 6t-47 23.5t-37.5 58t-13 102.5v54q0 55 12 94t29 60t45 33t51.5 15t55.5 3z" />
<glyph horiz-adv-x="490" d="M174 95q-4 0 -4 4v135q0 4 4 4h142q4 0 4 -4v-135q0 -4 -4 -4h-142zM174 439q-4 0 -4 4v135q0 4 4 4h142q4 0 4 -4v-135q0 -4 -4 -4h-142z" />
<glyph horiz-adv-x="470" d="M95 166q-2 4 0 6l84 87q2 2 4 0l193 -219q1 -3 -1 -5q-1 -2 -40 -43t-42 -44t-5 0z" />
<glyph horiz-adv-x="413" d="M69 -45q-3 0 -2 4q31 93 41 113q1 4 6 4h93q3 0 3 -4l-42 -113q-2 -4 -6 -4h-93zM206 414q-5 0 -3 4l39 110q1 4 5 4h94q4 0 3 -4l-39 -110q0 -4 -5 -4h-94z" />
<glyph horiz-adv-x="574" d="M312 571q-3 0 -2 4l66 143q0 4 5 4h131q3 0 2 -4q-1 -2 -33 -71.5t-33 -71.5q-3 -4 -5 -4h-131zM54 -40q-3 0 -2 4q1 1 17 35t32 69l16 34q1 4 6 4h130q4 0 1 -4q-1 -1 -32 -68.5t-32 -69.5q-3 -4 -5 -4h-131z" />
<glyph horiz-adv-x="1068" d="M270 -10q-148 0 -220 36q-4 2 -2 6l38 137q0 3 4 3q81 -27 181 -27q32 0 48 7.5t16 30.5v35q0 43 -90 54q-104 14 -147 50t-43 127v84q0 159 217 159q60 0 111.5 -8.5t67.5 -14t23 -9.5q2 -1 2 -6q0 -1 -17.5 -64.5t-18.5 -65.5q-1 -3 -4 -3q-4 1 -25 5.5t-61.5 9.5 t-75.5 5q-45 0 -45 -36v-31q0 -23 14 -33t68 -18q106 -16 152 -55.5t46 -128.5v-84q0 -43 -15.5 -74.5t-38.5 -48.5t-57.5 -27t-63 -12.5t-64.5 -2.5zM768 -10q-148 0 -220 36q-4 2 -2 6l38 137q0 3 4 3q81 -27 181 -27q32 0 48 7.5t16 30.5v35q0 43 -90 54q-104 14 -147 50 t-43 127v84q0 159 217 159q60 0 111.5 -8.5t67.5 -14t23 -9.5q2 -1 2 -6q0 -1 -17.5 -64.5t-18.5 -65.5q-1 -3 -4 -3q-4 1 -25 5.5t-61.5 9.5t-75.5 5q-45 0 -45 -36v-31q0 -23 14 -33t68 -18q106 -16 152 -55.5t46 -128.5v-84q0 -43 -15.5 -74.5t-38.5 -48.5t-57.5 -27 t-63 -12.5t-64.5 -2.5z" />
<glyph horiz-adv-x="438" d="M133 0h-144q-3 0 -1 3l150 538q2 3 4 3h157q3 0 4 -3l147 -538q2 -3 -3 -3h-144q-1 0 -3 3l-15 83h-133q-15 -81 -16 -83q-2 -3 -3 -3zM182 198h74l-29 172h-15z" />
<glyph horiz-adv-x="411" d="M230 0h-202v544h199q17 0 33.5 -2.5t38.5 -11t38 -22.5t27.5 -41t11.5 -63q0 -51 -29 -113q24 -19 35 -41t11 -61v-50q0 -46 -13 -75.5t-38.5 -42.5t-50 -17t-61.5 -4zM170 113h39q40 0 40 32v43q0 37 -39 37h-40v-112zM170 328h52q12 23 12 57q0 46 -37 46h-27v-103z " />
<glyph horiz-adv-x="383" d="M219 -4q-33 0 -58.5 3.5t-53 16.5t-45.5 35t-30 61t-12 93v141q0 64 16.5 107t47.5 63t62.5 27t74.5 7t76.5 -6t44 -10.5t12.5 -6.5t0 -5q-1 -2 -20.5 -57t-19.5 -56q0 -2 -4 -2l-5 1q-5 1 -13.5 2.5t-18.5 3.5t-24 3t-27 1q-12 0 -20 -2t-18 -10t-15 -27t-5 -48v-114 q0 -53 13 -68t42 -15q24 0 48.5 3t37.5 5l13 3q2 2 4 -1l39 -114q2 -4 -1 -5q-58 -29 -141 -29z" />
<glyph horiz-adv-x="422" d="M171 134h37q25 0 35.5 15t10.5 73v101q0 58 -10 72.5t-36 14.5h-37v-276zM208 0h-180v544h180q24 0 40.5 -1.5t42 -7t42.5 -19.5t33.5 -35.5t25 -58.5t8.5 -86v-124q0 -59 -13 -100.5t-30 -63t-46.5 -33t-50 -13.5t-52.5 -2z" />
<glyph horiz-adv-x="369" d="M28 0v544h319q2 0 2 -3v-120q0 -4 -2 -4h-176v-80h143q3 0 3 -3v-119q0 -4 -3 -4h-143v-84h176q2 0 2 -4v-120q0 -3 -2 -3h-319z" />
<glyph horiz-adv-x="366" d="M30 0q-2 2 -2 3v541h319q2 0 2 -3v-120q0 -4 -2 -4h-176v-103h143q3 0 3 -3v-120q0 -3 -0.5 -3h-2.5h-143v-185q0 -3 -2 -3h-139z" />
<glyph horiz-adv-x="422" d="M223 -4q-32 0 -55.5 3t-53 15t-48.5 33t-32 61.5t-13 95.5v142q0 55 14 95t33.5 60.5t49.5 32t51.5 13.5t51.5 2q42 0 81.5 -6.5t56.5 -11.5t19 -7t0 -5l-34 -109q-1 -2 -4 -2h-4q-4 1 -10.5 2t-15 2t-19.5 2l-22 2t-24 1.5t-25 0.5q-13 0 -21 -2t-17 -10t-13 -26.5 t-4 -47.5v-118q0 -54 14 -69.5t44 -15.5l59 6v63h-49q-2 1 -2 4v113q0 3 2 3h166v-292q-115 -30 -176 -30z" />
<glyph horiz-adv-x="440" d="M30 0q-2 0 -2 3v538q0 3 2 3h139q2 0 2 -3v-205h98v205l2 3h139q2 0 2 -3v-538l-2 -3h-139q-2 0 -2 3v206h-98v-206q0 -3 -2 -3h-139z" />
<glyph horiz-adv-x="200" d="M30 0q-2 0 -2 3v538q0 3 2 3h139q2 0 2 -3v-538l-2 -3h-139z" />
<glyph horiz-adv-x="364" d="M142 -8q-81 0 -129 24q-3 1 -1 5l34 113q2 4 4 2l4 -1q4 -1 11.5 -2t17.5 -2.5t24.5 -2.5t29.5 -1q56 0 56 56v358q0 3 3 3h138q2 0 2 -3v-371q0 -48 -12.5 -82.5t-30 -52.5t-46 -28.5t-51 -12.5t-54.5 -2z" />
<glyph horiz-adv-x="455" d="M30 0q-2 1 -2 3v538l2 3h139q2 0 2 -3v-207h30q82 204 83 207t5 3h146q2 0 1 -3l-121 -266q128 -270 130 -272q3 -3 -1 -3h-148q-1 0 -4 3l-82 205h-39v-205q0 -3 -2 -3h-139z" />
<glyph horiz-adv-x="360" d="M28 0v541l2 3h139q2 0 2 -3v-414h176q2 0 2 -4v-120q0 -3 -2 -3h-319z" />
<glyph horiz-adv-x="558" d="M30 0q-2 1 -2 3v538q0 3 3 3h161q4 0 5 -2l80 -229h10q75 225 76 227q1 4 6 4h160q3 0 3 -3v-538q0 -3 -3 -3h-135q-3 0 -3 3v271h-10q-49 -154 -50 -156q-1 -3 -5 -3h-92q-5 0 -7 4l-49 155h-10v-271q0 -3 -3 -3h-135z" />
<glyph horiz-adv-x="457" d="M26 0q-2 1 -2 3v538q0 3 3 3h148q3 0 4 -2l114 -287h6v286q0 3 3 3h135q2 0 2 -3v-538q0 -3 -3 -3h-150q-4 0 -5 3l-111 285h-8v-285q0 -3 -2 -3h-134z" />
<glyph horiz-adv-x="420" d="M209 128q28 0 37 14t9 72v117q0 57 -9.5 71t-36.5 14t-36 -14t-9 -71v-117q0 -58 8 -72t37 -14zM209 -5q-34 0 -56.5 3t-50 15t-44 33t-28 61.5t-11.5 96.5v140q0 55 11.5 94t28 60t44 32.5t50.5 14.5t56 3q41 0 68.5 -5.5t58.5 -24t47 -62.5t16 -112v-140 q0 -58 -12 -98.5t-28.5 -62t-44.5 -33t-49.5 -13.5t-55.5 -2z" />
<glyph horiz-adv-x="413" d="M171 295h48q5 0 13 2.5t18.5 13t10.5 27.5v34q0 45 -43 45h-47v-122zM169 0h-139q-2 0 -2 3v541h200q21 0 40.5 -2.5t46 -12t45 -25.5t32 -46.5t13.5 -71.5v-62q0 -42 -14 -72.5t-33.5 -46t-46.5 -24.5t-45 -11t-38 -2h-57v-165z" />
<glyph horiz-adv-x="422" d="M209 -5q-34 0 -56.5 3t-50 15t-44 33t-28 61.5t-11.5 96.5v140q0 55 11.5 94t28 60t44 32.5t50.5 14.5t56 3q41 0 68.5 -5.5t58.5 -24t47 -62.5t16 -112v-140q0 -82 -22 -129l26 -29q1 -3 1 -4q-1 -2 -35 -38l-34 -36q0 -2 -1.5 -2t-3.5 2l-32 36q-32 -9 -89 -9zM174 147 q-3 2 0 5l70 73q2 2 3 0l8 -10v116q0 57 -9.5 71t-36.5 14t-36 -14t-9 -71v-117q0 -48 5 -65t20 -20z" />
<glyph horiz-adv-x="421" d="M170 295h49q5 0 13.5 3t18.5 14t10 29v28q0 27 -15 37.5t-29 10.5h-47v-122zM168 0h-138q-2 0 -2 3v541h200q26 0 50.5 -5.5t56 -21t51 -52.5t19.5 -91v-39q0 -103 -60 -139l70 -193q1 -3 -3 -3h-151q-3 0 -4 3l-50 165h-37v-165q0 -3 -2 -3z" />
<glyph horiz-adv-x="403" d="M200 -4q-113 0 -179 33q-4 1 -2 5q1 2 19.5 57.5t18.5 56.5q0 3 4 3l7 -3q8 -2 20.5 -5t28.5 -6.5t38.5 -6t45.5 -2.5q46 0 46 25v21q0 30 -69 40q-82 11 -117 40t-35 103v65q0 128 176 128q108 0 164 -28q3 -2 3 -5q0 -1 -16.5 -55t-17.5 -56t-3 -2l-8 2q-8 2 -20.5 4.5 t-28 4.5t-35 4t-36.5 2q-31 0 -31 -24v-18q0 -11 2.5 -16t16.5 -11t43 -10q85 -13 122 -45t37 -104v-64q0 -43 -17.5 -71t-49.5 -40.5t-61 -17t-66 -4.5z" />
<glyph horiz-adv-x="385" d="M123 0q-2 1 -2 3v411h-113q-2 1 -2 3v124l2 3h368q2 0 2 -3v-124q0 -3 -2 -3h-112v-411q0 -3 -3 -3h-138z" />
<glyph horiz-adv-x="431" d="M202 -4q-100 0 -138 49.5t-38 158.5v337q0 3 2 3h139q2 -1 2 -3v-327q0 -31 1 -45t9 -26.5t24 -12.5h26q21 0 27.5 18.5t6.5 65.5v327q0 3 3 3h138q2 -1 2 -3v-337q0 -51 -6.5 -85.5t-25 -64t-54.5 -44t-92 -14.5h-26z" />
<glyph horiz-adv-x="447" d="M140 0q-1 0 -3 2q0 2 -68 270t-68 269q0 3 2 3h145q2 -1 3 -3l66 -336h12q68 334 68 336q0 3 3 3h145l1 -3l-138 -538q-2 -3 -5 -3h-163z" />
<glyph horiz-adv-x="630" d="M107 0q-3 0 -4 4l-101 537q-2 3 1 3h144q1 0 3 -3l47 -312h13q46 212 47 214q1 3 3 3h112q3 0 4 -4l47 -213h14q45 310 46 312q1 3 3 3h145q3 0 2 -3q-1 -1 -51.5 -268.5t-50.5 -268.5q-1 -4 -6 -4h-167q-4 0 -5 4l-32 210h-9q-30 -204 -31 -209q-3 -5 -7 -5h-167z" />
<glyph horiz-adv-x="423" d="M-2 0q-2 0 -1 3l137 277q-128 259 -130 261l1 3h150q3 0 4 -3l49 -123h6q47 121 49 123l3 3h151q1 0 1.5 -1t-0.5 -2l-129 -261q135 -276 136 -277q3 -3 -1 -3h-150q-3 0 -4 3l-56 140h-5q-56 -138 -57 -140q-2 -3 -5 -3h-149z" />
<glyph horiz-adv-x="419" d="M141 0q-3 0 -3 3v203q-139 333 -140 335q-1 3 2 3h144q4 0 4 -3l61 -178h5q57 176 58 178q2 3 3 3h142q5 0 3 -3l-139 -335v-203q0 -3 -3 -3h-137z" />
<glyph horiz-adv-x="378" d="M21 0q-3 0 -3 3v119q0 4 4 10l166 274v9h-159q-2 0 -2 3v123q0 3 2 3h326q2 0 2 -3v-118q0 -8 -2 -11l-166 -274v-9h166q2 0 2 -3v-123q0 -3 -2 -3h-334z" />
<glyph horiz-adv-x="340" d="M53 436q-2 0 -2 3v102q0 3 2 3h96q2 0 2 -3v-102l-2 -3h-96zM192 436q-4 0 -4 3v102q0 3 4 3h93q2 0 2 -3v-102q0 -3 -2 -3h-93z" />
<glyph horiz-adv-x="340" d="M156 440l-74 119q-3 3 1 3h113q2 0 3 -3l55 -120q1 -3 0 -3h-94q-3 0 -4 4z" />
<glyph horiz-adv-x="340" d="M135 435h-94q-1 2 0 2q-2 0 16.5 29t37 59t17.5 33q1 0 3 1.5t4 1.5h102q4 0 6 -3q1 -1 18.5 -30t35 -59t18.5 -31q3 -3 0 -3h-94q-3 0 -5 3l-29 49h-1q-28 -47 -30 -49q-2 -3 -5 -3z" />
<glyph horiz-adv-x="339" d="M58 441q-3 0 -3 4v69q0 9 6 17q23 28 60 28q23 0 55 -15t48 -15q18 0 36.5 14t20.5 14q3 0 3 -5v-68q0 -12 -6 -18q-31 -31 -60 -31q-23 0 -54.5 16.5t-46.5 16.5t-28 -7t-21 -13.5t-10 -6.5z" />
<glyph horiz-adv-x="340" d="M282 446h-223q-2 2 -2 3v93l2 3h223q2 0 2 -3v-93q0 -3 -2 -3z" />
<glyph horiz-adv-x="340" d="M184 439q-2 -3 -3 -3h-94q-3 0 -1 3l55 120q3 3 4 3h112q4 0 1 -3z" />
<glyph horiz-adv-x="341" d="M202 -134h-113q-1 1 0 3l15 34q14 34 28 67.5t15 34.5q3 3 4 3h95q1 -1 0 -3l-41 -136q-1 -3 -3 -3z" />
<glyph horiz-adv-x="339" d="M170 431q-115 0 -115 116q0 5 7 5h57q6 0 8 -5q7 -19 15 -24.5t27 -5.5q33 0 41 30q2 5 11 5h55q7 0 7 -5q-3 -116 -113 -116z" />
<glyph horiz-adv-x="340" d="M107 429q-2 0 -2 3v109q0 3 2 3h122q4 0 4 -3v-109q0 -3 -5 -3h-121z" />
<glyph horiz-adv-x="339" d="M167 472q14 0 21 6t7 26v8q0 31 -26 31q-30 0 -30 -31v-8q0 -20 7 -26t21 -6zM167 417q-17 0 -29 2.5t-25 10.5t-20 25t-7 43v20q0 47 23 63t61 16q16 0 27.5 -2t24.5 -9.5t19.5 -24.5t6.5 -43v-20q0 -27 -7 -44t-20 -24.5t-25 -10t-29 -2.5z" />
<glyph horiz-adv-x="341" d="M253 437q-1 -3 -3 -3h-94q-2 0 -2 3q1 1 28 60t28 60q2 3 4 3h112q4 0 1 -3q-1 -1 -19 -30t-36 -59t-19 -31zM117 437q0 -3 -3 -3h-94q-2 0 -1 3l55 120q0 3 4 3h112q2 0 1 -3l-37 -59q-36 -59 -37 -61z" />
<glyph horiz-adv-x="339" d="M164 -155q-37 0 -59.5 16.5t-22.5 63.5q0 51 39 80q5 3 12 3h103q4 0 5 -2t-4 -5q-58 -32 -58 -52q0 -11 8 -11q10 0 17 7q4 2 7 -1l32 -64q1 -4 -1 -7t-11 -9t-28.5 -12.5t-38.5 -6.5z" />
<glyph horiz-adv-x="340" d="M203 557h97q3 0 2 -2l-84 -120q-2 -4 -6 -4h-87q-4 0 -7 3q3 0 -72 104q-13 17 -11 16q-1 3 1 3h97q3 0 4 -3l31 -47h1q28 45 30 47q3 3 4 3z" />
<glyph horiz-adv-x="438" d="M133 0h-144q-3 0 -1 3l150 538q2 3 4 3h157q3 0 4 -3l147 -538q2 -3 -3 -3h-144q-1 0 -3 3l-15 83h-133q-15 -81 -16 -83q-2 -3 -3 -3zM207 600l-74 119q-3 3 1 3h113q1 0 3 -3l55 -120q1 -3 0 -3h-94q-3 0 -4 4zM182 198h74l-29 172h-15z" />
<glyph horiz-adv-x="438" d="M133 0h-144q-3 0 -1 3l150 538q2 3 4 3h157q3 0 4 -3l147 -538q2 -3 -3 -3h-144q-1 0 -3 3l-15 83h-133q-15 -81 -16 -83q-2 -3 -3 -3zM230 599q-2 -3 -3 -3h-94q-3 0 -1 3l55 120q3 3 4 3h112q4 0 1 -3zM182 198h74l-29 172h-15z" />
<glyph horiz-adv-x="438" d="M133 0h-144q-3 0 -1 3l150 538q2 3 4 3h157q3 0 4 -3l147 -538q2 -3 -3 -3h-144q-1 0 -3 3l-15 83h-133q-15 -81 -16 -83q-2 -3 -3 -3zM183 595h-94q-1 2 0 2q-2 0 16.5 29t37 59t17.5 33q1 0 3 1.5t4 1.5h102q4 0 6 -3q1 -1 18.5 -30t35 -59t18.5 -31q3 -3 0 -3h-94 q-3 0 -5 3l-29 49h-1q-28 -47 -30 -49q-2 -3 -5 -3zM182 198h74l-29 172h-15z" />
<glyph horiz-adv-x="438" d="M133 0h-144q-3 0 -1 3l150 538q2 3 4 3h157q3 0 4 -3l147 -538q2 -3 -3 -3h-144q-1 0 -3 3l-15 83h-133q-15 -81 -16 -83q-2 -3 -3 -3zM108 601q-3 0 -3 4v69q0 9 6 17q23 28 60 28q23 0 55 -15t48 -15q18 0 36.5 14t20.5 14q3 0 3 -5v-68q0 -12 -6 -18q-31 -31 -60 -31 q-23 0 -54.5 16.5t-46.5 16.5q-14 0 -27.5 -7t-21.5 -13.5t-10 -6.5zM182 198h74l-29 172h-15z" />
<glyph horiz-adv-x="438" d="M133 0h-144q-3 0 -1 3l150 538q2 3 4 3h157q3 0 4 -3l147 -538q2 -3 -3 -3h-144q-1 0 -3 3l-15 83h-133q-15 -81 -16 -83q-2 -3 -3 -3zM103 596q-2 0 -2 3v102q0 3 2 3h96q2 0 2 -3v-102l-2 -3h-96zM242 596q-4 0 -4 3v102q0 3 4 3h93q2 0 2 -3v-102q0 -3 -2 -3h-93z M182 198h74l-29 172h-15z" />
<glyph horiz-adv-x="438" d="M133 0h-144q-3 0 -1 3l150 538q2 3 4 3h157q3 0 4 -3l147 -538q2 -3 -3 -3h-144q-1 0 -3 3l-15 83h-133q-15 -81 -16 -83q-2 -3 -3 -3zM219 577q-17 0 -29 2.5t-25 10.5t-20 25t-7 43v20q0 47 23 63t61 16q16 0 27.5 -2t24.5 -9.5t19.5 -24.5t6.5 -43v-20q0 -27 -7 -44 t-20 -24.5t-25 -10t-29 -2.5zM182 198h74l-29 172h-15zM219 632q14 0 21 6t7 26v8q0 31 -26 31q-30 0 -30 -31v-8q0 -20 7 -26t21 -6z" />
<glyph horiz-adv-x="383" d="M227 -134h-113q-1 1 0 3l55 130q-69 9 -109 54.5t-40 151.5v141q0 64 16.5 107t47.5 63t62.5 27t74.5 7t76.5 -6t44 -10.5t12.5 -6.5t0 -5q-1 -2 -20.5 -57t-19.5 -56q0 -2 -4 -2l-5 1q-5 1 -13.5 2.5t-18.5 3.5t-24 3t-27 1q-12 0 -20 -2t-18 -10t-15 -27t-5 -48v-114 q0 -53 13 -68t42 -15q24 0 48.5 3t37.5 5l13 3q2 2 4 -1l39 -114q2 -4 -1 -5q-42 -21 -91 -26l-39 -130q-2 -3 -3 -3z" />
<glyph horiz-adv-x="369" d="M28 0v544h319q2 0 2 -3v-120q0 -4 -2 -4h-176v-80h143q3 0 3 -3v-119q0 -4 -3 -4h-143v-84h176q2 0 2 -4v-120q0 -3 -2 -3h-319zM173 600l-74 119q-3 3 1 3h113q1 0 3 -3l55 -120q1 -3 0 -3h-94q-3 0 -4 4z" />
<glyph horiz-adv-x="369" d="M28 0v544h319q2 0 2 -3v-120q0 -4 -2 -4h-176v-80h143q3 0 3 -3v-119q0 -4 -3 -4h-143v-84h176q2 0 2 -4v-120q0 -3 -2 -3h-319zM203 599q-1 -3 -3 -3h-94q-2 0 -1 3l55 120q3 3 4 3h112q4 0 1 -3z" />
<glyph horiz-adv-x="369" d="M28 0v544h319q2 0 2 -3v-120q0 -4 -2 -4h-176v-80h143q3 0 3 -3v-119q0 -4 -3 -4h-143v-84h176q2 0 2 -4v-120q0 -3 -2 -3h-319zM156 595h-94q-1 2 0 2q-2 0 16.5 29t37 59t17.5 33q1 0 3 1.5t4 1.5h102q4 0 6 -3q1 -1 18.5 -30t35 -59t18.5 -31q3 -3 0 -3h-94q-4 0 -5 3 l-29 49h-1q-28 -47 -30 -49q-2 -3 -5 -3z" />
<glyph horiz-adv-x="369" d="M28 0v544h319q2 0 2 -3v-120q0 -4 -2 -4h-176v-80h143q3 0 3 -3v-119q0 -4 -3 -4h-143v-84h176q2 0 2 -4v-120q0 -3 -2 -3h-319zM66 596q-2 0 -2 3v102q0 3 2 3h96q2 0 2 -3v-102l-2 -3h-96zM205 596q-4 0 -4 3v102q0 3 4 3h93q2 0 2 -3v-102q0 -3 -2 -3h-93z" />
<glyph horiz-adv-x="200" d="M30 0q-2 0 -2 3v538q0 3 2 3h139q2 0 2 -3v-538l-2 -3h-139zM88 600l-74 119q-3 3 1 3h113q2 0 3 -3l55 -120q1 -3 0 -3h-94q-3 0 -4 4z" />
<glyph horiz-adv-x="200" d="M30 0q-2 0 -2 3v538q0 3 2 3h139q2 0 2 -3v-538l-2 -3h-139zM111 599q-1 -3 -3 -3h-94q-2 0 -1 3l55 120q3 3 4 3h112q4 0 1 -3z" />
<glyph horiz-adv-x="200" d="M30 0q-2 0 -2 3v538q0 3 2 3h139q2 0 2 -3v-538l-2 -3h-139zM64 595h-94q-1 2 0 2q-2 0 16.5 29t37 59t17.5 33q1 0 3 1.5t4 1.5h102q4 0 6 -3q1 -1 18.5 -30t35 -59t18.5 -31q3 -3 0 -3h-94q-4 0 -5 3l-29 49h-1q-28 -47 -30 -49q-2 -3 -5 -3z" />
<glyph horiz-adv-x="200" d="M30 0q-2 0 -2 3v538q0 3 2 3h139q2 0 2 -3v-538l-2 -3h-139zM-17 596q-2 0 -2 3v102q0 3 2 3h96q2 0 2 -3v-102l-2 -3h-96zM122 596q-4 0 -4 3v102q0 3 4 3h93q2 0 2 -3v-102q0 -3 -2 -3h-93z" />
<glyph horiz-adv-x="457" d="M26 0q-2 1 -2 3v538q0 3 3 3h148q3 0 4 -2l114 -287h6v286q0 3 3 3h135q2 0 2 -3v-538q0 -3 -3 -3h-150q-4 0 -5 3l-111 285h-8v-285q0 -3 -2 -3h-134zM117 601q-3 0 -3 4v69q0 9 6 17q23 28 60 28q22 0 54 -15t49 -15q18 0 36.5 14t20.5 14q3 0 3 -5v-68q0 -12 -6 -18 q-31 -31 -60 -31q-23 0 -54.5 16.5t-46.5 16.5q-14 0 -27.5 -7t-21.5 -13.5t-10 -6.5z" />
<glyph horiz-adv-x="420" d="M209 -5q-34 0 -56.5 3t-50 15t-44 33t-28 61.5t-11.5 96.5v140q0 55 11.5 94t28 60t44 32.5t50.5 14.5t56 3q41 0 68.5 -5.5t58.5 -24t47 -62.5t16 -112v-140q0 -58 -12 -98.5t-28.5 -62t-44.5 -33t-49.5 -13.5t-55.5 -2zM209 128q28 0 37 14t9 72v117q0 57 -9.5 71 t-36.5 14t-36 -14t-9 -71v-117q0 -58 8 -72t37 -14zM199 600l-74 119q-3 3 1 3h113q1 0 3 -3l55 -120q1 -3 0 -3h-94q-3 0 -4 4z" />
<glyph horiz-adv-x="420" d="M209 -5q-34 0 -56.5 3t-50 15t-44 33t-28 61.5t-11.5 96.5v140q0 55 11.5 94t28 60t44 32.5t50.5 14.5t56 3q41 0 68.5 -5.5t58.5 -24t47 -62.5t16 -112v-140q0 -58 -12 -98.5t-28.5 -62t-44.5 -33t-49.5 -13.5t-55.5 -2zM209 128q28 0 37 14t9 72v117q0 57 -9.5 71 t-36.5 14t-36 -14t-9 -71v-117q0 -58 8 -72t37 -14zM222 599q-2 -3 -3 -3h-94q-3 0 -1 3l55 120q3 3 4 3h112q4 0 1 -3z" />
<glyph horiz-adv-x="420" d="M209 -5q-34 0 -56.5 3t-50 15t-44 33t-28 61.5t-11.5 96.5v140q0 55 11.5 94t28 60t44 32.5t50.5 14.5t56 3q41 0 68.5 -5.5t58.5 -24t47 -62.5t16 -112v-140q0 -58 -12 -98.5t-28.5 -62t-44.5 -33t-49.5 -13.5t-55.5 -2zM209 128q28 0 37 14t9 72v117q0 57 -9.5 71 t-36.5 14t-36 -14t-9 -71v-117q0 -58 8 -72t37 -14zM175 595h-94q-1 2 0 2q-2 0 16.5 29t37 59t17.5 33q1 0 3 1.5t4 1.5h102q4 0 6 -3q1 -1 18.5 -30t35 -59t18.5 -31q3 -3 0 -3h-94q-3 0 -5 3l-29 49h-1q-28 -47 -30 -49q-2 -3 -5 -3z" />
<glyph horiz-adv-x="420" d="M209 128q28 0 37 14t9 72v117q0 57 -9.5 71t-36.5 14t-36 -14t-9 -71v-117q0 -58 8 -72t37 -14zM209 -5q-34 0 -56.5 3t-50 15t-44 33t-28 61.5t-11.5 96.5v140q0 55 11.5 94t28 60t44 32.5t50.5 14.5t56 3q41 0 68.5 -5.5t58.5 -24t47 -62.5t16 -112v-140 q0 -58 -12 -98.5t-28.5 -62t-44.5 -33t-49.5 -13.5t-55.5 -2zM99 601q-3 0 -3 4v69q0 9 6 17q23 28 60 28q22 0 54 -15t49 -15q18 0 36.5 14t20.5 14q3 0 3 -5v-68q0 -12 -6 -18q-31 -31 -60 -31q-23 0 -54.5 16.5t-46.5 16.5q-14 0 -27.5 -7t-21.5 -13.5t-10 -6.5z" />
<glyph horiz-adv-x="420" d="M209 -5q-34 0 -56.5 3t-50 15t-44 33t-28 61.5t-11.5 96.5v140q0 55 11.5 94t28 60t44 32.5t50.5 14.5t56 3q41 0 68.5 -5.5t58.5 -24t47 -62.5t16 -112v-140q0 -58 -12 -98.5t-28.5 -62t-44.5 -33t-49.5 -13.5t-55.5 -2zM209 128q28 0 37 14t9 72v117q0 57 -9.5 71 t-36.5 14t-36 -14t-9 -71v-117q0 -58 8 -72t37 -14zM94 596q-2 0 -2 3v102q0 3 2 3h96q2 0 2 -3v-102l-2 -3h-96zM233 596q-4 0 -4 3v102q0 3 4 3h93q2 0 2 -3v-102q0 -3 -2 -3h-93z" />
<glyph horiz-adv-x="431" d="M202 -4q-100 0 -138 49.5t-38 158.5v337q0 3 2 3h139q2 -1 2 -3v-327q0 -31 1 -45t9 -26.5t24 -12.5h26q21 0 27.5 18.5t6.5 65.5v327q0 3 3 3h138q2 -1 2 -3v-337q0 -51 -6.5 -85.5t-25 -64t-54.5 -44t-92 -14.5h-26zM204 600l-74 119q-3 3 1 3h113q2 0 3 -3l55 -120 q1 -3 0 -3h-94q-3 0 -4 4z" />
<glyph horiz-adv-x="431" d="M202 -4q-100 0 -138 49.5t-38 158.5v337q0 3 2 3h139q2 -1 2 -3v-327q0 -31 1 -45t9 -26.5t24 -12.5h26q21 0 27.5 18.5t6.5 65.5v327q0 3 3 3h138q2 -1 2 -3v-337q0 -51 -6.5 -85.5t-25 -64t-54.5 -44t-92 -14.5h-26zM228 599q-2 -3 -3 -3h-94q-3 0 -1 3l55 120q3 3 4 3 h112q4 0 1 -3z" />
<glyph horiz-adv-x="431" d="M202 -4q-100 0 -138 49.5t-38 158.5v337q0 3 2 3h139q2 -1 2 -3v-327q0 -31 1 -45t9 -26.5t24 -12.5h26q21 0 27.5 18.5t6.5 65.5v327q0 3 3 3h138q2 -1 2 -3v-337q0 -51 -6.5 -85.5t-25 -64t-54.5 -44t-92 -14.5h-26zM181 595h-94q-1 2 0 2q-2 0 16.5 29t37 59t17.5 33 q1 0 3 1.5t4 1.5h102q4 0 6 -3q1 -1 18.5 -30t35 -59t18.5 -31q3 -3 0 -3h-94q-3 0 -5 3l-29 49h-1q-28 -47 -30 -49q-2 -3 -5 -3z" />
<glyph horiz-adv-x="431" d="M202 -4q-100 0 -138 49.5t-38 158.5v337q0 3 2 3h139q2 -1 2 -3v-327q0 -31 1 -45t9 -26.5t24 -12.5h26q21 0 27.5 18.5t6.5 65.5v327q0 3 3 3h138q2 -1 2 -3v-337q0 -51 -6.5 -85.5t-25 -64t-54.5 -44t-92 -14.5h-26zM99 596q-2 0 -2 3v102q0 3 2 3h96q2 0 2 -3v-102 l-2 -3h-96zM238 596q-4 0 -4 3v102q0 3 4 3h93q2 0 2 -3v-102q0 -3 -2 -3h-93z" />
<glyph horiz-adv-x="419" d="M141 0q-3 0 -3 3v203q-139 333 -140 335q-1 3 2 3h144q4 0 4 -3l61 -178h5q57 176 58 178q2 3 3 3h142q5 0 3 -3l-139 -335v-203q0 -3 -3 -3h-137zM221 599q-1 -3 -3 -3h-94q-2 0 -1 3l55 120q3 3 4 3h112q4 0 1 -3z" />
<glyph horiz-adv-x="419" d="M141 0q-3 0 -3 3v203q-139 333 -140 335q-1 3 2 3h144q4 0 4 -3l61 -178h5q57 176 58 178q2 3 3 3h142q5 0 3 -3l-139 -335v-203q0 -3 -3 -3h-137zM95 596q-2 0 -2 3v102q0 3 2 3h96q2 0 2 -3v-102l-2 -3h-96zM234 596q-4 0 -4 3v102q0 3 4 3h93q2 0 2 -3v-102 q0 -3 -2 -3h-93z" />
<glyph horiz-adv-x="420" d="M23 -32q-1 0 -1 3q0 2 35 77q-38 49 -38 156v140q0 55 11.5 94t28 60t44 32.5t50.5 14.5t56 3q32 0 57 -4l15 31q1 3 5 3h111v-3l-36 -81q38 -50 38 -150v-140q0 -58 -12 -98.5t-28.5 -62t-44.5 -33t-49.5 -13.5t-55.5 -2t-59 4q-3 -7 -6.5 -14l-5.5 -11l-1 -3 q-3 -3 -4 -3h-110zM209 128q28 0 37 14t9 72v117q0 57 -9.5 71t-36.5 14t-36 -14t-9 -71v-117q0 -58 8 -72t37 -14z" />
<glyph horiz-adv-x="403" d="M200 -4q-113 0 -179 33q-4 1 -2 5q1 2 19.5 57.5t18.5 56.5q0 3 4 3l7 -3q8 -2 20.5 -5t28.5 -6.5t38.5 -6t45.5 -2.5q46 0 46 25v21q0 30 -69 40q-82 11 -117 40t-35 103v65q0 128 176 128q108 0 164 -28q3 -2 3 -5q0 -1 -16.5 -55t-17.5 -56t-3 -2l-8 2q-8 2 -20.5 4.5 t-28 4.5t-35 4t-36.5 2q-31 0 -31 -24v-18q0 -11 2.5 -16t16.5 -11t43 -10q85 -13 122 -45t37 -104v-64q0 -43 -17.5 -71t-49.5 -40.5t-61 -17t-66 -4.5zM236 711h97q3 0 2 -2l-84 -120q-2 -4 -6 -4h-87q-4 0 -7 3q3 0 -72 104q-13 17 -11 16q-2 3 1 3h97q2 0 4 -3l31 -47h1 q28 45 30 47q3 3 4 3z" />
<glyph horiz-adv-x="378" d="M21 0q-3 0 -3 3v119q0 4 4 10l166 274v9h-159q-2 0 -2 3v123q0 3 2 3h326q2 0 2 -3v-118q0 -8 -2 -11l-166 -274v-9h166q2 0 2 -3v-123q0 -3 -2 -3h-334zM222 711h97q3 0 2 -2l-84 -120q-2 -4 -6 -4h-87q-4 0 -7 3q3 0 -72 104q-13 17 -11 16q-2 3 1 3h97q2 0 4 -3 l31 -47h1q28 45 30 47q3 3 4 3z" />
<glyph horiz-adv-x="608" d="M217 198h62v181h-16zM143 0h-144q-3 0 -1 3q0 1 54 135t107.5 268t54.5 135q0 3 4 3h361q4 0 4 -3v-120q0 -4 -4 -4h-156v-79h124q2 0 2 -3v-120q0 -4 -2 -4h-124v-84h156q4 0 4 -4v-120q0 -3 -4 -3h-300v86h-110q-22 -80 -23 -83q0 -3 -3 -3z" />
<glyph horiz-adv-x="598" d="M210 128q17 0 24.5 3.5t14.5 25t7 65.5v102q0 43 -7 64t-15 24.5t-24 3.5q-15 0 -23 -3.5t-15 -25t-7 -64.5v-100q0 -44 6.5 -65.5t14.5 -25.5t24 -4zM209 0q-30 0 -51.5 2.5t-49.5 14.5t-45.5 33.5t-30 63t-12.5 99.5v123q0 55 11 94.5t28 61t44 34t50.5 15.5t55.5 3 q7 0 47 -9v9h318q3 0 3 -3v-120q0 -4 -3 -4h-175v-79h142q3 0 3 -3v-120q0 -4 -3 -4h-142v-84h175q3 0 3 -4v-120q0 -3 -3 -3h-318v9q-3 -1 -12.5 -3.5t-18 -4t-16.5 -1.5z" />
<glyph horiz-adv-x="422" d="M171 134h38q27 0 37 15t10 74v100q0 40 -6.5 60t-15 23.5t-25.5 3.5h-38v-80h41q2 0 2 -3v-105l-2 -4h-41v-84zM212 0h-184v218h-22q-2 2 -2 4v105l2 3h22v214h184q30 0 50 -2t48.5 -13.5t46 -32.5t30.5 -62t13 -98v-124q0 -50 -7.5 -87t-23 -59.5t-31 -36.5t-40.5 -20 t-42 -7.5t-44 -1.5z" />
<glyph horiz-adv-x="413" d="M171 224h48q4 0 12 2t19 12.5t11 28.5v26q0 46 -43 46h-47v-115zM168 0h-138q-2 1 -2 3v538q0 3 2 3h138q2 0 2 -3v-76h58q27 0 51.5 -5t56 -19t50.5 -48.5t19 -85.5v-54q0 -42 -14.5 -73t-34.5 -46t-47.5 -24t-45 -11t-35.5 -2h-58v-94q0 -3 -2 -3z" />
<glyph horiz-adv-x="365" d="M27 0v179q-24 -20 -26 -21q-1 -1 -1.5 -0.5t-0.5 3.5v117q0 5 2 6l26 20v238q0 2 3 2h138q3 0 3 -3v-150q76 57 77 58q4 2 4 -2v-118q0 -3 -4 -5l-77 -58v-139h175q2 0 2 -4v-120q0 -3 -2 -3h-319z" />
<glyph horiz-adv-x="438" d="M133 0h-144q-3 0 -1 3l150 538q2 3 4 3h157q3 0 4 -3l147 -538q2 -3 -3 -3h-144q-1 0 -3 3l-15 83h-133q-15 -81 -16 -83q-2 -3 -3 -3zM330 600h-223q-2 2 -2 3v93l2 3h223q2 0 2 -3v-93q0 -3 -2 -3zM182 198h74l-29 172h-15z" />
<glyph horiz-adv-x="438" d="M133 0h-144q-3 0 -1 3l150 538q2 3 4 3h157q3 0 4 -3l147 -538q2 -3 -3 -3h-144q-1 0 -3 3l-15 83h-133q-15 -81 -16 -83q-2 -3 -3 -3zM220 585q-115 0 -115 116q0 5 7 5h57q6 0 8 -5q7 -19 15 -24.5t27 -5.5q33 0 41 30q2 5 11 5h55q7 0 7 -5q-3 -116 -113 -116z M182 198h74l-29 172h-15z" />
<glyph horiz-adv-x="438" d="M373 -158q-37 0 -59.5 16.5t-22.5 63.5q0 51 36 78h-24q-1 0 -3 3l-15 83h-133q-15 -81 -16 -83q-2 -3 -3 -3h-144q-3 0 -1 3l150 538q2 3 4 3h157q3 0 4 -3l147 -538q0 -2 -1 -3q-1 0 -3 -2q-58 -32 -58 -52q0 -11 8 -11q10 0 17 7q4 2 7 -1l32 -64q2 -5 -1 -7 q-2 -3 -11 -9t-28.5 -12.5t-38.5 -6.5zM182 198h74l-29 172h-15z" />
<glyph horiz-adv-x="383" d="M219 -4q-33 0 -58.5 3.5t-53 16.5t-45.5 35t-30 61t-12 93v141q0 64 16.5 107t47.5 63t62.5 27t74.5 7t76.5 -6t44 -10.5t12.5 -6.5t0 -5q-1 -2 -20.5 -57t-19.5 -56q0 -2 -4 -2l-5 1q-5 1 -13.5 2.5t-18.5 3.5t-24 3t-27 1q-12 0 -20 -2t-18 -10t-15 -27t-5 -48v-114 q0 -53 13 -68t42 -15q24 0 48.5 3t37.5 5l13 3q2 2 4 -1l39 -114q2 -4 -1 -5q-58 -29 -141 -29zM233 592q-1 -3 -3 -3h-94q-2 0 -1 3l55 120q3 3 4 3h112q4 0 1 -3z" />
<glyph horiz-adv-x="383" d="M219 -4q-33 0 -58.5 3.5t-53 16.5t-45.5 35t-30 61t-12 93v141q0 64 16.5 107t47.5 63t62.5 27t74.5 7t76.5 -6t44 -10.5t12.5 -6.5t0 -5q-1 -2 -20.5 -57t-19.5 -56q0 -2 -4 -2l-5 1q-5 1 -13.5 2.5t-18.5 3.5t-24 3t-27 1q-12 0 -20 -2t-18 -10t-15 -27t-5 -48v-114 q0 -53 13 -68t42 -15q24 0 48.5 3t37.5 5l13 3q2 2 4 -1l39 -114q2 -4 -1 -5q-58 -29 -141 -29zM187 589h-94q-1 2 0 2q-2 0 16.5 29t37 59t17.5 33q1 0 3 1.5t4 1.5h102q4 0 6 -3q1 -1 18.5 -30t35 -59t18.5 -31q3 -3 0 -3h-94q-3 0 -5 3l-29 49h-1q-28 -47 -30 -49 q-2 -3 -5 -3z" />
<glyph horiz-adv-x="383" d="M219 -4q-33 0 -58.5 3.5t-53 16.5t-45.5 35t-30 61t-12 93v141q0 64 16.5 107t47.5 63t62.5 27t74.5 7t76.5 -6t44 -10.5t12.5 -6.5t0 -5q-1 -2 -20.5 -57t-19.5 -56q0 -2 -4 -2l-5 1q-5 1 -13.5 2.5t-18.5 3.5t-24 3t-27 1q-12 0 -20 -2t-18 -10t-15 -27t-5 -48v-114 q0 -53 13 -68t42 -15q24 0 48.5 3t37.5 5l13 3q2 2 4 -1l39 -114q2 -4 -1 -5q-58 -29 -141 -29zM160 583q-2 0 -2 3v109q0 3 2 3h122q4 0 4 -3v-109q0 -3 -5 -3h-121z" />
<glyph horiz-adv-x="383" d="M219 -4q-33 0 -58.5 3.5t-53 16.5t-45.5 35t-30 61t-12 93v141q0 64 16.5 107t47.5 63t62.5 27t74.5 7t76.5 -6t44 -10.5t12.5 -6.5t0 -5q-1 -2 -20.5 -57t-19.5 -56q0 -2 -4 -2l-5 1q-5 1 -13.5 2.5t-18.5 3.5t-24 3t-27 1q-12 0 -20 -2t-18 -10t-15 -27t-5 -48v-114 q0 -53 13 -68t42 -15q24 0 48.5 3t37.5 5l13 3q2 2 4 -1l39 -114q2 -4 -1 -5q-58 -29 -141 -29zM257 711h97q3 0 2 -2l-84 -120q-2 -4 -6 -4h-87q-4 0 -7 3q3 0 -72 104q-13 17 -11 16q-1 3 1 3h97q3 0 4 -3l31 -47h1q28 45 30 47q3 3 4 3z" />
<glyph horiz-adv-x="422" d="M171 134h37q25 0 35.5 15t10.5 73v101q0 58 -10 72.5t-36 14.5h-37v-276zM208 0h-180v544h180q24 0 40.5 -1.5t42 -7t42.5 -19.5t33.5 -35.5t25 -58.5t8.5 -86v-124q0 -59 -13 -100.5t-30 -63t-46.5 -33t-50 -13.5t-52.5 -2zM235 711h97q3 0 2 -2l-84 -120q-2 -4 -6 -4 h-87q-4 0 -7 3q3 0 -72 104q-13 17 -11 16q-1 3 1 3h97q3 0 4 -3l31 -47h1q28 45 30 47q3 3 4 3z" />
<glyph horiz-adv-x="422" d="M171 134h38q27 0 37 15t10 74v100q0 40 -6.5 60t-15 23.5t-25.5 3.5h-38v-80h41q2 0 2 -3v-105l-2 -4h-41v-84zM212 0h-184v218h-22q-2 2 -2 4v105l2 3h22v214h184q30 0 50 -2t48.5 -13.5t46 -32.5t30.5 -62t13 -98v-124q0 -50 -7.5 -87t-23 -59.5t-31 -36.5t-40.5 -20 t-42 -7.5t-44 -1.5z" />
<glyph horiz-adv-x="369" d="M28 0v544h319q2 0 2 -3v-120q0 -4 -2 -4h-176v-80h143q3 0 3 -3v-119q0 -4 -3 -4h-143v-84h176q2 0 2 -4v-120q0 -3 -2 -3h-319zM300 600h-223q-2 2 -2 3v93l2 3h223q2 0 2 -3v-93q0 -3 -2 -3z" />
<glyph horiz-adv-x="369" d="M28 0v544h319q2 0 2 -3v-120q0 -4 -2 -4h-176v-80h143q3 0 3 -3v-119q0 -4 -3 -4h-143v-84h176q2 0 2 -4v-120q0 -3 -2 -3h-319zM200 585q-115 0 -115 116q0 5 7 5h57q6 0 8 -5q7 -19 15 -24.5t27 -5.5q33 0 41 30q2 5 11 5h55q7 0 7 -5q-3 -116 -113 -116z" />
<glyph horiz-adv-x="369" d="M28 0v544h319q2 0 2 -3v-120q0 -4 -2 -4h-176v-80h143q3 0 3 -3v-119q0 -4 -3 -4h-143v-84h176q2 0 2 -4v-120q0 -3 -2 -3h-319zM143 583q-2 0 -2 3v109q0 3 2 3h122q4 0 4 -3v-109q0 -3 -5 -3h-121z" />
<glyph horiz-adv-x="369" d="M28 0v544h319q2 0 2 -3v-120q0 -4 -2 -4h-176v-80h143q3 0 3 -3v-119q0 -4 -3 -4h-143v-84h176q2 0 2 -4v-117v-2v-1q0 -3 -2 -3h-4q-56 -29 -56 -51q0 -11 8 -11q10 0 17 7q4 2 7 -1l32 -64q1 -4 -1 -7t-11 -9t-28.5 -12.5t-38.5 -6.5q-37 0 -59.5 16.5t-22.5 63.5 q0 48 32 75h-194z" />
<glyph horiz-adv-x="369" d="M28 0v544h319q2 0 2 -3v-120q0 -4 -2 -4h-176v-80h143q3 0 3 -3v-119q0 -4 -3 -4h-143v-84h176q2 0 2 -4v-120q0 -3 -2 -3h-319zM241 711h97q3 0 2 -2l-84 -120q-2 -4 -6 -4h-87q-4 0 -7 3q3 0 -72 104q-13 17 -11 16q-1 3 1 3h97q3 0 4 -3l31 -47h1q28 45 30 47q3 3 4 3 z" />
<glyph horiz-adv-x="422" d="M223 -4q-32 0 -55.5 3t-53 15t-48.5 33t-32 61.5t-13 95.5v142q0 55 14 95t33.5 60.5t49.5 32t51.5 13.5t51.5 2q42 0 81.5 -6.5t56.5 -11.5t19 -7t0 -5l-34 -109q-1 -2 -4 -2h-4q-4 1 -10.5 2t-15 2t-19.5 2l-22 2t-24 1.5t-25 0.5q-13 0 -21 -2t-17 -10t-13 -26.5 t-4 -47.5v-118q0 -54 14 -69.5t44 -15.5l59 6v63h-49q-2 1 -2 4v113q0 3 2 3h166v-292q-115 -30 -176 -30zM192 589h-94q-1 2 0 2q-2 0 16.5 29t37 59t17.5 33q1 0 3 1.5t4 1.5h102q4 0 6 -3q1 -1 18.5 -30t35 -59t18.5 -31q3 -3 0 -3h-94q-4 0 -5 3l-29 49h-1 q-28 -47 -30 -49q-2 -3 -5 -3z" />
<glyph horiz-adv-x="422" d="M223 -4q-32 0 -55.5 3t-53 15t-48.5 33t-32 61.5t-13 95.5v142q0 55 14 95t33.5 60.5t49.5 32t51.5 13.5t51.5 2q42 0 81.5 -6.5t56.5 -11.5t19 -7t0 -5l-34 -109q-1 -2 -4 -2h-4q-4 1 -10.5 2t-15 2t-19.5 2l-22 2t-24 1.5t-25 0.5q-13 0 -21 -2t-17 -10t-13 -26.5 t-4 -47.5v-118q0 -54 14 -69.5t44 -15.5l59 6v63h-49q-2 1 -2 4v113q0 3 2 3h166v-292q-115 -30 -176 -30zM220 585q-115 0 -115 116q0 5 7 5h57q6 0 8 -5q7 -19 15 -24.5t27 -5.5q33 0 41 30q2 5 11 5h55q7 0 7 -5q-3 -116 -113 -116z" />
<glyph horiz-adv-x="422" d="M223 -4q-32 0 -55.5 3t-53 15t-48.5 33t-32 61.5t-13 95.5v142q0 55 14 95t33.5 60.5t49.5 32t51.5 13.5t51.5 2q42 0 81.5 -6.5t56.5 -11.5t19 -7t0 -5l-34 -109q-1 -2 -4 -2h-4q-4 1 -10.5 2t-15 2t-19.5 2l-22 2t-24 1.5t-25 0.5q-13 0 -21 -2t-17 -10t-13 -26.5 t-4 -47.5v-118q0 -54 14 -69.5t44 -15.5l59 6v63h-49q-2 1 -2 4v113q0 3 2 3h166v-292q-115 -30 -176 -30zM151 583q-2 0 -2 3v109q0 3 2 3h122q4 0 4 -3v-109q0 -3 -5 -3h-121z" />
<glyph horiz-adv-x="440" d="M30 0q-2 0 -2 3v538q0 3 2 3h139q2 0 2 -3v-205h98v205l2 3h139q2 0 2 -3v-538l-2 -3h-139q-2 0 -2 3v206h-98v-206q0 -3 -2 -3h-139zM184 589h-94q-1 2 0 2q-2 0 16.5 29t37 59t17.5 33q1 0 3 1.5t4 1.5h102q4 0 6 -3q1 -1 18.5 -30t35 -59t18.5 -31q3 -3 0 -3h-94 q-4 0 -5 3l-29 49h-1q-28 -47 -30 -49q-2 -3 -5 -3z" />
<glyph horiz-adv-x="200" d="M30 0q-2 0 -2 3v538q0 3 2 3h139q2 0 2 -3v-538l-2 -3h-139zM-12 594q-3 0 -3 4v69q0 9 6 17q23 28 60 28q23 0 55 -15t48 -15q18 0 36.5 14t20.5 14q3 0 3 -5v-68q0 -12 -6 -18q-31 -31 -60 -31q-23 0 -54.5 16.5t-46.5 16.5q-14 0 -27.5 -6.5t-21.5 -13.5t-10 -7z" />
<glyph horiz-adv-x="200" d="M30 0q-2 0 -2 3v538q0 3 2 3h139q2 0 2 -3v-538l-2 -3h-139zM211 600h-223q-2 2 -2 3v93l2 3h223q2 0 2 -3v-93q0 -3 -2 -3z" />
<glyph horiz-adv-x="200" d="M30 0q-2 0 -2 3v538q0 3 2 3h139q2 0 2 -3v-534q2 -2 0 -4l-2 -3h-3q-56 -29 -56 -51q0 -11 8 -11q10 0 17 7q4 2 7 -1l32 -64q2 -4 -1 -7q-2 -3 -11 -9t-28.5 -12.5t-38.5 -6.5q-37 0 -59.5 16.5t-22.5 63.5q0 48 32 75h-15z" />
<glyph horiz-adv-x="200" d="M30 0q-2 0 -2 3v538q0 3 2 3h139q2 0 2 -3v-538l-2 -3h-139zM38 583q-2 0 -2 3v109q0 3 2 3h122q4 0 4 -3v-109q0 -3 -5 -3h-121z" />
<glyph horiz-adv-x="364" d="M142 -8q-81 0 -129 24q-3 1 -1 5l34 113q2 4 4 2l4 -1q4 -1 11.5 -2t17.5 -2.5t24.5 -2.5t29.5 -1q56 0 56 56v358q0 3 3 3h138q2 0 2 -3v-371q0 -48 -12.5 -82.5t-30 -52.5t-46 -28.5t-51 -12.5t-54.5 -2zM229 589h-94q-1 2 0 2q-2 0 16.5 29t37 59t17.5 33q1 0 3 1.5 t4 1.5h102q4 0 6 -3q1 -1 18.5 -30t35 -59t18.5 -31q3 -3 0 -3h-94q-3 0 -5 3l-29 49h-1q-28 -47 -30 -49q-2 -3 -5 -3z" />
<glyph horiz-adv-x="360" d="M28 0v541l2 3h139q2 0 2 -3v-414h176q2 0 2 -4v-120q0 -3 -2 -3h-319zM191 592q-1 -3 -3 -3h-94q-2 0 -1 3l55 120q3 3 4 3h112q4 0 1 -3z" />
<glyph horiz-adv-x="457" d="M26 0q-2 1 -2 3v538q0 3 3 3h148q3 0 4 -2l114 -287h6v286q0 3 3 3h135q2 0 2 -3v-538q0 -3 -3 -3h-150q-4 0 -5 3l-111 285h-8v-285q0 -3 -2 -3h-134zM241 592q-1 -3 -3 -3h-94q-2 0 -1 3l55 120q3 3 4 3h112q4 0 1 -3z" />
<glyph horiz-adv-x="457" d="M26 0q-2 1 -2 3v538q0 3 3 3h148q3 0 4 -2l114 -287h6v286q0 3 3 3h135q2 0 2 -3v-538q0 -3 -3 -3h-150q-4 0 -5 3l-111 285h-8v-285q0 -3 -2 -3h-134zM264 711h97q3 0 2 -2l-84 -120q-2 -4 -6 -4h-87q-4 0 -7 3q3 0 -72 104q-13 17 -11 16q-2 3 1 3h97q2 0 4 -3l31 -47 h1q28 45 30 47q3 3 4 3z" />
<glyph horiz-adv-x="420" d="M209 128q28 0 37 14t9 72v117q0 57 -9.5 71t-36.5 14t-36 -14t-9 -71v-117q0 -58 8 -72t37 -14zM209 -5q-34 0 -56.5 3t-50 15t-44 33t-28 61.5t-11.5 96.5v140q0 55 11.5 94t28 60t44 32.5t50.5 14.5t56 3q41 0 68.5 -5.5t58.5 -24t47 -62.5t16 -112v-140 q0 -58 -12 -98.5t-28.5 -62t-44.5 -33t-49.5 -13.5t-55.5 -2zM322 600h-223q-2 2 -2 3v93l2 3h223q2 0 2 -3v-93q0 -3 -2 -3z" />
<glyph horiz-adv-x="420" d="M209 128q28 0 37 14t9 72v117q0 57 -9.5 71t-36.5 14t-36 -14t-9 -71v-117q0 -58 8 -72t37 -14zM209 -5q-34 0 -56.5 3t-50 15t-44 33t-28 61.5t-11.5 96.5v140q0 55 11.5 94t28 60t44 32.5t50.5 14.5t56 3q41 0 68.5 -5.5t58.5 -24t47 -62.5t16 -112v-140 q0 -58 -12 -98.5t-28.5 -62t-44.5 -33t-49.5 -13.5t-55.5 -2zM211 585q-115 0 -115 116q0 5 7 5h57q6 0 8 -5q7 -19 15 -24.5t27 -5.5q33 0 41 30q2 5 11 5h55q7 0 7 -5q-3 -116 -113 -116z" />
<glyph horiz-adv-x="420" d="M209 -5q-34 0 -56.5 3t-50 15t-44 33t-28 61.5t-11.5 96.5v140q0 55 11.5 94t28 60t44 32.5t50.5 14.5t56 3q41 0 68.5 -5.5t58.5 -24t47 -62.5t16 -112v-140q0 -58 -12 -98.5t-28.5 -62t-44.5 -33t-49.5 -13.5t-55.5 -2zM209 128q28 0 37 14t9 72v117q0 57 -9.5 71 t-36.5 14t-36 -14t-9 -71v-117q0 -58 8 -72t37 -14zM315 591q-1 -3 -3 -3h-94q-2 0 -2 3q1 1 28 60t28 60q2 3 4 3h112q4 0 1 -3q-1 -1 -19 -30t-36 -59t-19 -31zM179 591q0 -3 -3 -3h-94q-2 0 -1 3l55 120q0 3 4 3h112q2 0 1 -3l-37 -59q-36 -59 -37 -61z" />
<glyph horiz-adv-x="421" d="M168 0h-138q-2 0 -2 3v541h200q26 0 50.5 -5.5t56 -21t51 -52.5t19.5 -91v-39q0 -103 -60 -139l70 -193q1 -3 -3 -3h-151q-3 0 -4 3l-50 165h-37v-165q0 -3 -2 -3zM222 592q-2 -3 -3 -3h-94q-3 0 -1 3l55 120q3 3 4 3h112q4 0 1 -3zM170 295h49q5 0 13.5 3t18.5 14t10 29 v28q0 27 -15 37.5t-29 10.5h-47v-122z" />
<glyph horiz-adv-x="421" d="M170 295h49q5 0 13.5 3t18.5 14t10 29v28q0 27 -15 37.5t-29 10.5h-47v-122zM168 0h-138q-2 0 -2 3v541h200q26 0 50.5 -5.5t56 -21t51 -52.5t19.5 -91v-39q0 -103 -60 -139l70 -193q1 -3 -3 -3h-151q-3 0 -4 3l-50 165h-37v-165q0 -3 -2 -3zM231 711h97q3 0 2 -2 l-84 -120q-2 -4 -6 -4h-87q-4 0 -7 3q3 0 -72 104q-13 17 -11 16q-1 3 1 3h97q3 0 4 -3l31 -47h1q28 45 30 47q3 3 4 3z" />
<glyph horiz-adv-x="403" d="M200 -4q-113 0 -179 33q-4 1 -2 5q1 2 19.5 57.5t18.5 56.5q0 3 4 3l7 -3q8 -2 20.5 -5t28.5 -6.5t38.5 -6t45.5 -2.5q46 0 46 25v21q0 30 -69 40q-82 11 -117 40t-35 103v65q0 128 176 128q108 0 164 -28q3 -2 3 -5q0 -1 -16.5 -55t-17.5 -56t-3 -2l-8 2q-8 2 -20.5 4.5 t-28 4.5t-35 4t-36.5 2q-31 0 -31 -24v-18q0 -11 2.5 -16t16.5 -11t43 -10q85 -13 122 -45t37 -104v-64q0 -43 -17.5 -71t-49.5 -40.5t-61 -17t-66 -4.5zM228 592q-2 -3 -3 -3h-94q-3 0 -1 3l55 120q3 3 4 3h112q4 0 1 -3z" />
<glyph horiz-adv-x="403" d="M200 -4q-113 0 -179 33q-4 1 -2 5q1 2 19.5 57.5t18.5 56.5q0 3 4 3l7 -3q8 -2 20.5 -5t28.5 -6.5t38.5 -6t45.5 -2.5q46 0 46 25v21q0 30 -69 40q-82 11 -117 40t-35 103v65q0 128 176 128q108 0 164 -28q3 -2 3 -5q0 -1 -16.5 -55t-17.5 -56t-3 -2l-8 2q-8 2 -20.5 4.5 t-28 4.5t-35 4t-36.5 2q-31 0 -31 -24v-18q0 -11 2.5 -16t16.5 -11t43 -10q85 -13 122 -45t37 -104v-64q0 -43 -17.5 -71t-49.5 -40.5t-61 -17t-66 -4.5zM166 589h-94q-1 2 0 2q-2 0 16.5 29t37 59t17.5 33q1 0 3 1.5t4 1.5h102q4 0 6 -3q1 -1 18.5 -30t35 -59t18.5 -31 q3 -3 0 -3h-94q-4 0 -5 3l-29 49h-1q-28 -47 -30 -49q-2 -3 -5 -3z" />
<glyph horiz-adv-x="385" d="M123 0q-2 1 -2 3v411h-113q-2 1 -2 3v124l2 3h368q2 0 2 -3v-124q0 -3 -2 -3h-112v-411q0 -3 -3 -3h-138zM227 711h97q3 0 2 -2l-84 -120q-2 -4 -6 -4h-87q-4 0 -7 3q3 0 -72 104q-13 17 -11 16q-1 3 1 3h97q3 0 4 -3l31 -47h1q28 45 30 47q3 3 4 3z" />
<glyph horiz-adv-x="431" d="M202 -4q-100 0 -138 49.5t-38 158.5v337q0 3 2 3h139q2 -1 2 -3v-327q0 -31 1 -45t9 -26.5t24 -12.5h26q21 0 27.5 18.5t6.5 65.5v327q0 3 3 3h138q2 -1 2 -3v-337q0 -51 -6.5 -85.5t-25 -64t-54.5 -44t-92 -14.5h-26zM105 594q-3 0 -3 4v69q0 9 6 17q23 28 60 28 q22 0 54 -15t49 -15q18 0 36.5 14t20.5 14q3 0 3 -5v-68q0 -12 -6 -18q-31 -31 -60 -31q-23 0 -54.5 16.5t-46.5 16.5q-14 0 -27.5 -6.5t-21.5 -13.5t-10 -7z" />
<glyph horiz-adv-x="431" d="M202 -4q-100 0 -138 49.5t-38 158.5v337q0 3 2 3h139q2 -1 2 -3v-327q0 -31 1 -45t9 -26.5t24 -12.5h26q21 0 27.5 18.5t6.5 65.5v327q0 3 3 3h138q2 -1 2 -3v-337q0 -51 -6.5 -85.5t-25 -64t-54.5 -44t-92 -14.5h-26zM328 600h-223q-2 2 -2 3v93l2 3h223q2 0 2 -3v-93 q0 -3 -2 -3z" />
<glyph horiz-adv-x="431" d="M202 -4q-100 0 -138 49.5t-38 158.5v337q0 3 2 3h139q2 -1 2 -3v-327q0 -31 1 -45t9 -26.5t24 -12.5h26q21 0 27.5 18.5t6.5 65.5v327q0 3 3 3h138q2 -1 2 -3v-337q0 -51 -6.5 -85.5t-25 -64t-54.5 -44t-92 -14.5h-26zM218 585q-115 0 -115 116q0 5 7 5h57q6 0 8 -5 q7 -19 15 -24.5t27 -5.5q33 0 41 30q2 5 11 5h55q7 0 7 -5q-3 -116 -113 -116z" />
<glyph horiz-adv-x="431" d="M202 -4q-100 0 -138 49.5t-38 158.5v337q0 3 2 3h139q2 -1 2 -3v-327q0 -31 1 -45t9 -26.5t24 -12.5h26q21 0 27.5 18.5t6.5 65.5v327q0 3 3 3h138q2 -1 2 -3v-337q0 -51 -6.5 -85.5t-25 -64t-54.5 -44t-92 -14.5h-26zM216 570q-17 0 -29 2.5t-25 10.5t-20 25t-7 43v20 q0 47 23 63t61 16q16 0 27.5 -2t24.5 -9.5t19.5 -24.5t6.5 -43v-20q0 -27 -7 -44t-20 -24.5t-25 -10t-29 -2.5zM216 625q14 0 21 6t7 26v8q0 31 -26 31q-30 0 -30 -31v-8q0 -20 7 -26t21 -6z" />
<glyph horiz-adv-x="431" d="M202 -4q-100 0 -138 49.5t-38 158.5v337q0 3 2 3h139q2 -1 2 -3v-327q0 -31 1 -45t9 -26.5t24 -12.5h26q21 0 27.5 18.5t6.5 65.5v327q0 3 3 3h138q2 -1 2 -3v-337q0 -51 -6.5 -85.5t-25 -64t-54.5 -44t-92 -14.5h-26zM324 591q-2 -3 -3 -3h-94q-2 0 -2 3q1 1 28 60 t28 60q1 3 4 3h112q4 0 1 -3q-1 -1 -19 -30t-36 -59t-19 -31zM188 591q0 -3 -3 -3h-94q-3 0 -1 3l55 120q0 3 4 3h112q3 0 1 -3l-36 -59q-37 -59 -38 -61z" />
<glyph horiz-adv-x="431" d="M205 -159q-37 0 -59.5 16.5t-22.5 63.5q0 49 35 78q-74 9 -103 58.5t-29 146.5v337q0 3 2 3h139q2 -1 2 -3v-327q0 -31 1 -45t9 -26.5t24 -12.5h26q21 0 27.5 18.5t6.5 65.5v327q0 3 3 3h138q2 -1 2 -3v-337q0 -91 -25.5 -141t-98.5 -63l-2 -1l-2 -2q-58 -32 -58 -52 q0 -11 8 -11q10 0 17 7q4 2 7 -1l32 -64q2 -4 -1 -7q-2 -3 -11 -9t-28.5 -12.5t-38.5 -6.5z" />
<glyph horiz-adv-x="630" d="M107 0q-3 0 -4 4l-101 537q-2 3 1 3h144q1 0 3 -3l47 -312h13q46 212 47 214q1 3 3 3h112q3 0 4 -4l47 -213h14q45 310 46 312q1 3 3 3h145q3 0 2 -3q-1 -1 -51.5 -268.5t-50.5 -268.5q-1 -4 -6 -4h-167q-4 0 -5 4l-32 210h-9q-30 -204 -31 -209q-3 -5 -7 -5h-167z M280 589h-94q-1 2 0 2q-2 0 16.5 29t37 59t17.5 33q1 0 3 1.5t4 1.5h102q4 0 6 -3q1 -1 18.5 -30t35 -59t18.5 -31q3 -3 0 -3h-94q-4 0 -5 3l-29 49h-1q-28 -47 -30 -49q-2 -3 -5 -3z" />
<glyph horiz-adv-x="419" d="M141 0q-3 0 -3 3v203q-139 333 -140 335q-1 3 2 3h144q4 0 4 -3l61 -178h5q57 176 58 178q2 3 3 3h142q5 0 3 -3l-139 -335v-203q0 -3 -3 -3h-137zM174 589h-94q-1 2 0 2q-2 0 16.5 29t37 59t17.5 33q1 0 3 1.5t4 1.5h102q4 0 6 -3q1 -1 18.5 -30t35 -59t18.5 -31 q3 -3 0 -3h-94q-4 0 -5 3l-29 49h-1q-28 -47 -30 -49q-2 -3 -5 -3z" />
<glyph horiz-adv-x="378" d="M21 0q-3 0 -3 3v119q0 4 4 10l166 274v9h-159q-2 0 -2 3v123q0 3 2 3h326q2 0 2 -3v-118q0 -8 -2 -11l-166 -274v-9h166q2 0 2 -3v-123q0 -3 -2 -3h-334zM222 592q-2 -3 -3 -3h-94q-3 0 -1 3l55 120q3 3 4 3h112q4 0 1 -3z" />
<glyph horiz-adv-x="378" d="M21 0q-3 0 -3 3v119q0 4 4 10l166 274v9h-159q-2 0 -2 3v123q0 3 2 3h326q2 0 2 -3v-118q0 -8 -2 -11l-166 -274v-9h166q2 0 2 -3v-123q0 -3 -2 -3h-334zM134 583q-2 0 -2 3v109q0 3 2 3h122q4 0 4 -3v-109q0 -3 -5 -3h-121z" />
<glyph horiz-adv-x="630" d="M107 0q-3 0 -4 4l-101 537q-2 3 1 3h144q1 0 3 -3l47 -312h13q46 212 47 214q1 3 3 3h112q3 0 4 -4l47 -213h14q45 310 46 312q1 3 3 3h145q3 0 2 -3q-1 -1 -51.5 -268.5t-50.5 -268.5q-1 -4 -6 -4h-167q-4 0 -5 4l-32 210h-9q-30 -204 -31 -209q-3 -5 -7 -5h-167z M296 593l-74 119q-3 3 1 3h113q2 0 3 -3l55 -120q1 -3 0 -3h-94q-3 0 -4 4z" />
<glyph horiz-adv-x="630" d="M107 0q-3 0 -4 4l-101 537q-2 3 1 3h144q1 0 3 -3l47 -312h13q46 212 47 214q1 3 3 3h112q3 0 4 -4l47 -213h14q45 310 46 312q1 3 3 3h145q3 0 2 -3q-1 -1 -51.5 -268.5t-50.5 -268.5q-1 -4 -6 -4h-167q-4 0 -5 4l-32 210h-9q-30 -204 -31 -209q-3 -5 -7 -5h-167z M342 592q-2 -3 -3 -3h-94q-3 0 -1 3l55 120q3 3 4 3h112q4 0 1 -3z" />
<glyph horiz-adv-x="630" d="M107 0q-3 0 -4 4l-101 537q-2 3 1 3h144q1 0 3 -3l47 -312h13q46 212 47 214q1 3 3 3h112q3 0 4 -4l47 -213h14q45 310 46 312q1 3 3 3h145q3 0 2 -3q-1 -1 -51.5 -268.5t-50.5 -268.5q-1 -4 -6 -4h-167q-4 0 -5 4l-32 210h-9q-30 -204 -31 -209q-3 -5 -7 -5h-167z M200 589q-2 0 -2 3v102q0 3 2 3h96q2 0 2 -3v-102l-2 -3h-96zM339 589q-4 0 -4 3v102q0 3 4 3h93q2 0 2 -3v-102q0 -3 -2 -3h-93z" />
<glyph horiz-adv-x="360" d="M28 0v541l2 3h139q2 0 2 -3v-414h176q2 0 2 -4v-120q0 -3 -2 -3h-319zM211 408q-5 -2 -5 4v214q0 4 3 4h119q4 0 4 -4v-132q0 -4 -4 -7q-1 -1 -19.5 -13t-39.5 -26.5t-39 -27.5z" />
<glyph horiz-adv-x="455" d="M30 0q-2 1 -2 3v538l2 3h139q2 0 2 -3v-207h30q82 204 83 207t5 3h146q2 0 1 -3l-121 -266q128 -270 130 -272q3 -3 -1 -3h-148q-1 0 -4 3l-82 205h-39v-205q0 -3 -2 -3h-139zM175 -226q-5 -2 -5 4v214q0 4 3 4h119q4 0 4 -4v-132q0 -4 -4 -7q-1 -1 -19.5 -13 t-39.5 -26.5t-39 -27.5z" />
<glyph horiz-adv-x="360" d="M28 0v541l2 3h139q2 0 2 -3v-414h176q2 0 2 -4v-120q0 -3 -2 -3h-319zM145 -226q-5 -2 -5 4v214q0 4 3 4h119q4 0 4 -4v-132q0 -4 -4 -7q-1 -1 -19.5 -13t-39.5 -26.5t-39 -27.5z" />
<glyph horiz-adv-x="457" d="M26 0q-2 1 -2 3v538q0 3 3 3h148q3 0 4 -2l114 -287h6v286q0 3 3 3h135q2 0 2 -3v-538q0 -3 -3 -3h-150q-4 0 -5 3l-111 285h-8v-285q0 -3 -2 -3h-134zM186 -226q-5 -2 -5 4v214q0 4 3 4h119q4 0 4 -4v-132q0 -4 -4 -7q-1 -1 -19.5 -13t-39.5 -26.5t-40 -27.5z" />
<glyph horiz-adv-x="421" d="M168 0h-138q-2 0 -2 3v541h200q26 0 50.5 -5.5t56 -21t51 -52.5t19.5 -91v-39q0 -103 -60 -139l70 -193q1 -3 -3 -3h-151q-3 0 -4 3l-50 165h-37v-165q0 -3 -2 -3zM163 -226q-5 -2 -5 4v214q0 4 3 4h119q4 0 4 -4v-132q0 -4 -4 -7q-1 -1 -19.5 -13t-39.5 -26.5t-39 -27.5 zM170 295h49q5 0 13.5 3t18.5 14t10 29v28q0 27 -15 37.5t-29 10.5h-47v-122z" />
<glyph horiz-adv-x="422" d="M169 -226q-5 -2 -5 4v214q0 4 3 4h42q-38 1 -66.5 8t-58.5 27t-46.5 64t-16.5 109v142q0 55 14 95t33.5 60.5t49.5 32t51.5 13.5t51.5 2q42 0 81.5 -6.5t56.5 -11.5t19 -7t0 -5l-34 -109q-1 -2 -4 -2h-4q-4 1 -10.5 2t-15 2t-19.5 2l-22 2t-24 1.5t-25 0.5q-13 0 -21 -2 t-17 -10t-13 -26.5t-4 -47.5v-118q0 -54 14 -69.5t44 -15.5l59 6v63h-49q-2 1 -2 4v113q0 3 2 3h166v-292q-104 -27 -167 -30h54q4 0 4 -4v-132q0 -4 -4 -7q-1 -1 -19.5 -13t-39.5 -26.5t-39 -27.5z" />
<glyph horiz-adv-x="403" d="M159 -226q-5 -2 -5 4v214q0 4 3 4h25q-100 3 -161 33q-4 1 -2 5q1 2 19.5 57.5t18.5 56.5q0 3 4 3l7 -3q8 -2 20.5 -5t28.5 -6.5t38.5 -6t45.5 -2.5q46 0 46 25v21q0 30 -69 40q-82 11 -117 40t-35 103v65q0 128 176 128q108 0 164 -28q3 -2 3 -5q0 -1 -16.5 -55 t-17.5 -56t-3 -2l-8 2q-8 2 -20.5 4.5t-28 4.5t-35 4t-36.5 2q-31 0 -31 -24v-18q0 -11 2.5 -16t16.5 -11t43 -10q85 -13 122 -45t37 -104v-64q0 -129 -182 -133h64q4 0 4 -4v-132q0 -4 -4 -7q-1 -1 -19.5 -13t-39.5 -26.5t-39 -27.5z" />
<glyph horiz-adv-x="385" d="M123 0q-2 1 -2 3v411h-113q-2 1 -2 3v124l2 3h368q2 0 2 -3v-124q0 -3 -2 -3h-112v-411q0 -3 -3 -3h-138zM144 -226q-5 -2 -5 4v214q0 4 3 4h119q4 0 4 -4v-132q0 -4 -4 -7q-1 -1 -19.5 -13t-39.5 -26.5t-40 -27.5z" />
<glyph horiz-adv-x="403" d="M229 -134h-113q-1 1 0 3q0 1 11 26.5t24 57t19 44.5q-92 4 -149 32q-4 1 -2 5q1 2 19.5 57.5t18.5 56.5q0 3 4 3l7 -3q8 -2 20.5 -5t28.5 -6.5t38.5 -6t45.5 -2.5q46 0 46 25v21q0 30 -69 40q-82 11 -117 40t-35 103v65q0 128 176 128q108 0 164 -28q3 -2 3 -5 q0 -1 -16.5 -55t-17.5 -56t-3 -2l-8 2q-8 2 -20.5 4.5t-28 4.5t-35 4t-36.5 2q-31 0 -31 -24v-18q0 -11 2.5 -16t16.5 -11t43 -10q85 -13 122 -45t37 -104v-64q0 -109 -122 -128l-40 -132q-2 -3 -3 -3z" />
<glyph horiz-adv-x="366" d="M68 136q-3 2 0 5l70 73q2 2 3 0q1 -1 78 -89.5t78 -89.5q1 -3 1 -4q-1 -2 -35 -38l-34 -36q0 -1 -1.5 -1t-3.5 1z" />
<glyph horiz-adv-x="318" d="M50 -37q-4 0 -2 3q0 1 16.5 47t17.5 48q0 3 4 3h78q4 0 3 -3l-35 -95q-1 -3 -5 -3h-77zM156 329q-5 0 -3 4l32 91q1 3 4 3h80l2 -3l-33 -91q-2 -4 -4 -4h-78z" />
<glyph horiz-adv-x="449" d="M240 454q-4 0 -2 3l55 118q1 3 5 3h111v-3q-1 -3 -27 -60t-27 -58q-3 -3 -4 -3h-111zM35 -32q-1 0 -1 3l52 114q3 3 6 3h109q4 0 1 -3q-1 -1 -26.5 -57t-26.5 -57q-3 -3 -4 -3h-110z" />
<glyph horiz-adv-x="418" d="M208 127q26 0 32 15t6 73v118q0 56 -6.5 71t-31.5 15q-23 0 -29.5 -15t-6.5 -71v-118q0 -59 5 -73.5t31 -14.5zM208 -4q-28 0 -47 2t-41.5 8.5t-37.5 21t-28 36.5t-19.5 58t-6.5 83v142q0 54 10.5 92.5t26 59.5t41.5 33t48 15t54 3q42 0 68.5 -5.5t55.5 -24t43.5 -62 t14.5 -111.5v-142q0 -58 -11 -98.5t-26.5 -62t-42.5 -32.5t-48 -13.5t-54 -2.5z" />
<glyph horiz-adv-x="366" d="M289 0h-133q-2 1 -2 3v388q-79 -59 -81 -60q-1 -1 -1 1q0 1 -15.5 60t-16.5 60l2 5q1 1 54.5 42.5t55.5 42.5q2 2 4 2h133q2 0 2 -3v-539q0 -2 -2 -2z" />
<glyph horiz-adv-x="378" d="M343 0h-302q-2 0 -2 3v111q0 7 3 10q9 11 26 31.5t26 32t23.5 29.5t23 29t19 26t16.5 26t12 22.5t8.5 21.5t2.5 18v27q0 13 -8.5 21t-15 10t-10.5 2q-15 0 -32 -2t-31 -5t-25.5 -6.5t-18.5 -5.5l-8 -2q-4 0 -4 2q0 1 -12 55t-12 55q0 4 1 5q1 2 15.5 9.5t50.5 15.5t79 8 q176 0 176 -137v-66q0 -43 -23.5 -88t-74.5 -120v-9h97q3 0 3 -3v-123q0 -3 -3 -3z" />
<glyph horiz-adv-x="380" d="M33 21q-2 1 -2 5q0 1 10.5 55t10.5 55q1 2 4 2l8 -2q8 -1 21 -3.5t28 -4.5t32.5 -3.5t32.5 -1.5q14 0 24.5 8t10.5 23v19q0 44 -35 44h-65q-3 0 -3 4v115q0 3 3 3h66q11 0 18.5 9.5t7.5 24.5v18q0 12 -8 20t-15 10t-11 2q-24 0 -52.5 -4t-45 -8t-18.5 -5q-5 -2 -5 2 q0 1 -10 55t-10 55q0 5 1 5q54 27 140 27q29 0 51.5 -2.5t46.5 -10.5t39.5 -21.5t25.5 -38t10 -58.5v-50q0 -20 -9.5 -40.5t-18.5 -30.5l-10 -11v-9q5 -3 12.5 -8.5t20 -28t12.5 -51.5v-61q0 -78 -44.5 -105.5t-127.5 -27.5q-42 0 -78.5 6t-52.5 12z" />
<glyph horiz-adv-x="380" d="M329 0h-122q-3 0 -3 3v69h-179q-3 0 -3 3v118q0 6 3 12l108 336q1 3 3 3h139q3 0 1 -3l-101 -332v-8h29v76q0 4 3 4h122q3 0 3 -4v-76h30q3 0 3 -3v-123q0 -3 -3 -3h-30v-69q0 -3 -3 -3z" />
<glyph horiz-adv-x="379" d="M179 -5q-96 0 -146 25q-1 0 -1 5q-1 1 9.5 55t11.5 56q2 3 4 2t20.5 -4.5t48.5 -7.5t52 -4q13 0 24.5 8t11.5 24v25q0 23 -13.5 32t-24.5 9h-130q-3 0 -3 3v314q0 7 7 7h286q3 0 3 -3v-114q0 -4 -3 -4h-168v-84h12q26 0 46 -2t45 -9.5t41.5 -21t28 -38.5t11.5 -59v-81 q0 -36 -11.5 -62t-27.5 -39.5t-42 -21t-45 -9t-47 -1.5z" />
<glyph horiz-adv-x="388" d="M193 113q9 0 14.5 2.5t11.5 16t6 37.5v19q0 45 -15 45q-12 0 -22 -2.5t-14 -5.5l-5 -3v-83q0 -26 24 -26zM203 -4q-171 0 -171 142v258q0 41 15.5 72t35.5 46t46.5 24t42 10.5t29.5 1.5q91 0 143 -32l1 -1q2 -1 2 -5q-1 -4 -13.5 -55t-12.5 -52q0 -2 -3 -2l-8 2 q-7 2 -19 4.5t-26 5.5t-31 5t-32 2q-2 0 -9 -2t-15.5 -10t-8.5 -20v-51q51 11 71 11q25 0 42.5 -4.5t37 -19t30 -47t10.5 -82.5v-35q0 -55 -13 -90t-38 -50.5t-48.5 -20.5t-57.5 -5z" />
<glyph horiz-adv-x="364" d="M198 1h-140q-4 0 -2 3l128 407v8h-152q-2 2 -2 3v119l2 3h301q4 0 4 -3v-112q0 -5 -3 -11l-132 -414q-2 -3 -4 -3z" />
<glyph horiz-adv-x="381" d="M189 113q31 0 31 44v18q0 19 -11 28t-20 9t-19 -9.5t-10 -27.5v-18q0 -44 29 -44zM189 341q10 0 19.5 9t9.5 27v17q0 40 -29 40q-27 0 -27 -40v-17q0 -18 8.5 -27t18.5 -9zM188 -4q-33 0 -58 5t-52 20t-41.5 47.5t-14.5 80.5v34q0 28 12 51.5t24 33.5l12 9v3 q-4 3 -10 9.5t-16 29t-10 47.5v33q0 35 5.5 61t17.5 42t24.5 26t32.5 14.5t36 6t40 1.5q36 0 59 -4.5t48 -18.5t37 -46t12 -82v-34q0 -24 -9 -45.5t-19 -31.5l-9 -9v-2q5 -3 13.5 -10t22 -31.5t13.5 -52.5v-34q0 -48 -14 -80.5t-40 -47t-52.5 -20t-63.5 -5.5z" />
<glyph horiz-adv-x="380" d="M194 433q-32 0 -32 -56v-26q0 -45 16 -45q12 0 22 2.5t14 5.5l4 2v91q0 26 -24 26zM184 550q172 0 172 -143v-257q0 -41 -15.5 -72t-35.5 -46t-47 -24t-42.5 -10.5t-28.5 -1.5q-89 0 -147 29q-1 1 -1 5t12 53t14 53q1 3 3 3l8 -1q7 -2 19.5 -4.5t26.5 -5t31 -4t31 -1.5 q3 0 10 2.5t15.5 10.5t8.5 21v42q-51 -11 -72 -11q-24 0 -41.5 5t-36.5 19t-29.5 47t-10.5 82v43q0 55 13 90t38 50.5t48.5 20.5t56.5 5z" />
<glyph horiz-adv-x="820" d="M208 -4q-113 0 -179 33q-4 1 -2 5q1 2 19.5 57.5t18.5 56.5q0 3 4 3l7 -3q8 -2 20.5 -5t28.5 -6.5t38.5 -6t45.5 -2.5q46 0 46 25v21q0 30 -69 40q-82 11 -117 40t-35 103v65q0 128 176 128q108 0 164 -28q3 -2 3 -5q0 -1 -16.5 -55t-17.5 -56t-3 -2l-8 2q-8 2 -20.5 4.5 t-28 4.5t-35 4t-36.5 2q-31 0 -31 -24v-18q0 -11 2.5 -16t16.5 -11t43 -10q85 -13 122 -45t37 -104v-64q0 -43 -17.5 -71t-49.5 -40.5t-61 -17t-66 -4.5zM597 -4q-113 0 -179 33q-4 1 -2 5q1 2 19.5 57.5t18.5 56.5q0 3 4 3l8 -3q7 -2 19.5 -5t28.5 -6.5t38.5 -6t45.5 -2.5 q46 0 46 25v21q0 30 -69 40q-82 11 -117 40t-35 103v65q0 128 176 128q108 0 164 -28q3 -2 3 -5q0 -1 -16.5 -55t-17.5 -56t-3 -2l-8 2q-8 2 -20.5 4.5t-28 4.5t-35 4t-36.5 2q-31 0 -31 -24v-18q0 -11 2.5 -16t16.5 -11t43 -10q85 -13 122 -45t37 -104v-64q0 -43 -17.5 -71 t-49.5 -40.5t-61 -17t-66 -4.5z" />
<glyph horiz-adv-x="380" d="M137 50q-3 0 -3 3v109h-105q-2 0 -2 3v110q0 4 2 4h105v108q0 3 3 3h105q3 0 3 -3v-108h105q2 0 2 -4v-110q0 -3 -2 -3h-105v-109q0 -3 -3 -3h-105z" />
<glyph horiz-adv-x="179" d="M6 -94q-4 0 -2 4q1 1 26.5 109.5t26.5 109.5q1 3 3 3h113q3 0 1 -3l-74 -219q-2 -4 -4 -4h-90z" />
<glyph horiz-adv-x="269" d="M24 162q-2 0 -2 3v110q0 4 2 4h220q2 0 2 -4v-110q0 -3 -2 -3h-220z" />
<glyph horiz-adv-x="184" d="M32 0q-2 0 -2 3v130q0 4 2 4h120q2 0 2 -4v-130q0 -3 -2 -3h-120z" />
<glyph horiz-adv-x="304" d="M24 -4q-4 0 -2 3q1 1 66 273.5t65 274.5q0 3 3 3h128q4 0 2 -3q0 -1 -64.5 -274t-65.5 -274q-2 -3 -4 -3h-128z" />
<glyph horiz-adv-x="380" d="M29 251q-2 0 -2 3v112q0 3 2 3h321q2 0 2 -3v-112q0 -3 -2 -3h-321zM29 74q-2 0 -2 3v112q0 3 2 3h321q2 0 2 -3v-112q0 -3 -2 -3h-321z" />
<glyph horiz-adv-x="222" d="M171 0h-120q-3 0 -3 3v113q0 3 3 3h120q3 0 3 -3v-113q0 -3 -3 -3zM167 171h-112q-2 0 -2 3v367q0 3 2 3h112q3 0 3 -3v-367q0 -3 -3 -3z" />
<glyph horiz-adv-x="329" d="M217 0h-119q-4 0 -4 3v113q0 3 4 3h119q4 0 4 -3v-113q0 -3 -4 -3zM221 169h-125q-2 1 -2 3v16q0 42 19 79.5t38 65t19 45.5v16q0 11 -5 19t-9.5 10.5t-6.5 2.5q-13 0 -27 -2t-26 -5t-21.5 -6t-15.5 -5l-6 -2q-5 0 -4 2l-12 53l-12 53q0 4 1 5l4 2q4 2 10 4.5t14.5 5.5 t19 6.5t22.5 6t27 4t30 1.5q152 0 152 -137v-34q0 -30 -40 -94t-40 -96v-16q0 -3 -4 -3z" />
<glyph horiz-adv-x="195" d="M-4 -94q-4 0 -2 4q1 1 26.5 109.5t26.5 109.5q1 3 3 3h112q2 0 1 -3l-73 -219q-2 -4 -4 -4h-90zM39 254q-3 0 -3 3v130q0 3 3 3h119q3 0 3 -3v-130q0 -3 -3 -3h-119z" />
<glyph horiz-adv-x="289" d="M116 544q4 0 4 -5v-177q0 -3 -2 -3h-96q-3 0 -3 3v176q0 6 3 6h94zM264 544q5 0 5 -5v-177q0 -3 -2 -3h-95q-4 0 -4 3v176q0 6 4 6h92z" />
<glyph horiz-adv-x="415" d="M178 243h55l5 67h-54zM149 0h-100q-3 0 -3 3l14 141h-42q-2 1 -2 3v93l2 3h54l6 67h-46q-3 0 -3 3v93l2 3h57q13 129 13 132l2 3h102q2 0 2 -3l-12 -132h55q12 130 12 132q0 3 3 3h102q1 0 2 -1t0 -2l-13 -132h41q2 0 2 -3v-93q0 -3 -2 -3h-53l-4 -67h43q3 0 3 -3v-93 q0 -3 -3 -3h-55q-14 -139 -14 -141q0 -3 -3 -3h-102q-1 1 -1 3l14 141h-56q-13 -139 -13 -141q0 -3 -4 -3z" />
<glyph horiz-adv-x="416" d="M159 -69q-3 0 -3 3v61q-79 5 -134 32q-3 2 -2 5q1 2 20 58t19 57q0 3 3 1q4 -2 18.5 -6.5t49.5 -10t72 -5.5q46 0 46 25v22q0 28 -70 40q-84 12 -117.5 39t-33.5 104v64q0 110 129 126v64q0 3 3 3h82q4 0 4 -3v-64q81 -5 123 -26v-4q0 -1 -15.5 -55.5t-16.5 -56.5 q-2 -3 -4 -2t-18.5 5t-48 8.5t-60.5 4.5q-12 0 -19 -1.5t-9.5 -6.5t-3 -7t-0.5 -10v-18q0 -16 10 -23t53 -14q37 -6 60.5 -13.5t49 -23t37.5 -43.5t12 -69v-64q0 -119 -150 -132v-61q0 -3 -4 -3h-82z" />
<glyph horiz-adv-x="566" d="M211 -5h-111q-4 0 0 2q-7 -3 13 41q11 26 165 342q81 166 73 167q1 0 2 1.5t3 1.5h111q1 -1 0 -4q0 -1 -125 -272.5t-127 -275.5q-1 -3 -4 -3zM430 83q11 0 16.5 5.5t5.5 22.5v33q0 27 -20 27q-23 0 -23 -27v-33q0 -28 21 -28zM430 -5q-101 0 -101 101v64q0 99 104 99 q99 0 99 -99v-64q0 -101 -102 -101zM135 374q11 0 16 5.5t5 22.5v33q0 27 -21 27q-23 0 -23 -27v-33q0 -28 23 -28zM135 286q-101 0 -101 101v64q0 99 104 99q98 0 98 -99v-64q0 -101 -101 -101z" />
<glyph horiz-adv-x="420" d="M199 -5q-171 0 -171 145v37q0 32 11 66t22 52l11 18q-17 33 -17 86v24q0 43 13 70.5t37.5 38.5t44 14.5t47.5 3.5q25 0 43 -4t41 -17.5t36 -46.5t13 -84q0 -3 -2 -3h-87q-2 1 -2 3q0 66 -40 66q-9 0 -17.5 -2.5t-17.5 -13.5t-9 -29v-12q0 -21 10 -42t31.5 -51.5 t28.5 -43.5l49 -96q2 9 2 14v71q0 4 2 4h85q4 0 4 -4v-95q0 -16 -6.5 -36t-13.5 -32l-7 -13q56 -78 57 -80q1 -3 -1 -3h-115q-2 0 -5 3l-6 12q-29 -20 -71 -20zM199 91q5 0 8 1t3 2l1 1l-72 124q-4 -14 -4 -62v-6q0 -35 16.5 -47.5t47.5 -12.5z" />
<glyph horiz-adv-x="161" d="M126 544q5 0 5 -5v-177q0 -3 -3 -3h-95q-2 0 -2 3v176q0 6 2 6h93z" />
<glyph horiz-adv-x="166" d="M36 -70q-5 -2 -5 2v177l2 3h100q2 0 2 -3v-107q0 -4 -2 -6q-1 -1 -48 -33t-49 -33z" />
<glyph horiz-adv-x="311" d="M36 -70q-5 -2 -5 2v177l2 3h100q2 0 2 -3v-107q0 -4 -2 -6q-1 -1 -48 -33t-49 -33zM181 -70q-4 -2 -4 2v177q0 3 2 3h98q3 0 3 -3v-107q0 -4 -3 -6q-1 -1 -47.5 -33t-48.5 -33z" />
<glyph horiz-adv-x="409" d="M255 -5q-25 0 -47.5 3t-52 14.5t-50 30.5t-35.5 56t-15 86h-32q-2 1 -2 4v66q0 3 2 3h32v30h-32q-2 1 -2 3v67q0 3 2 3h32q0 188 203 188q42 0 74 -6t42.5 -10.5t13.5 -7.5q2 -1 1 -4l-36 -111q-1 -3 -3 -2q-1 1 -13.5 3t-35 4t-43.5 2q-22 0 -35 -11t-22 -45h85 q4 0 4 -3v-67q0 -3 -4 -3h-86v-30h86q4 0 4 -3v-66q0 -4 -4 -4h-85q6 -33 18 -42.5t37 -9.5q23 0 47.5 2.5t37 5t14.5 3.5t3 -2l38 -114q1 -3 -1 -4q-2 -2 -15 -8t-48.5 -13.5t-76.5 -7.5z" />
<glyph horiz-adv-x="362" d="M163 -77q-3 0 -3 3v71q-25 3 -39.5 7t-37.5 18.5t-35 48t-12 84.5v83q0 47 13 79.5t36 47.5t38.5 20t36.5 8v71q0 3 3 3h73q2 0 2 -3v-70q14 -1 27.5 -3.5t22.5 -5.5t15.5 -5.5t10.5 -5.5l5 -2q2 -1 1 -4l-30 -94q-1 -2 -3 -2h-3q-4 1 -10 2t-14 2t-20 1.5t-24 0.5 q-41 0 -41 -51v-63q0 -32 10 -42t31 -10q57 0 73 8q3 0 3 -3q0 -1 15.5 -48.5t16.5 -48.5q2 -5 -1 -5l-3 -2q-4 -2 -11 -4.5t-16.5 -5t-24 -4.5t-30.5 -3v-70q0 -3 -2 -3h-73z" />
<glyph horiz-adv-x="635" d="M315 134q19 0 22.5 6t3.5 31v104q0 11 -26 11q-20 0 -20 -47v-59q0 -46 20 -46zM318 -130q-42 0 -77 5.5t-77 26.5t-70 56t-47.5 99.5t-19.5 152.5q0 336 288 336q50 0 88 -6t78.5 -26t67 -53.5t43.5 -92.5t17 -139q0 -60 -13 -100.5t-36 -58.5t-44 -24t-48 -6 q-40 0 -73 20q-28 -20 -81 -20q-62 0 -95 26.5t-33 107.5v71q0 73 30.5 103.5t74.5 30.5q17 0 29.5 -3t16.5 -6l4 -3v6q0 2 3 2h104q2 0 2 -2v-190q0 -46 25 -46q9 0 15 4.5t11.5 26.5t5.5 63q0 129 -42 174.5t-149 45.5q-102 0 -143 -53.5t-41 -183.5q0 -59 10.5 -103 t27.5 -69.5t42.5 -40.5t50 -20t55.5 -5q25 0 62.5 5.5t62 10.5t26.5 6q3 2 3 -2l22 -88q0 -4 -1 -5q-6 -3 -24.5 -9.5t-63 -15t-87.5 -8.5z" />
<glyph horiz-adv-x="230" d="M95 -75q-1 0 -5 3l-2 3q-2 3 -5 8.5t-7 14.5t-8.5 23.5t-9 32.5t-8 43.5t-6.5 55t-5 69.5t-2 84q0 77 5.5 140t12.5 97t15.5 58t13 31.5t6.5 8.5q4 3 5 3h104q3 0 1 -3q-45 -90 -45 -335q0 -114 11.5 -197.5t20 -108t12.5 -28.5q3 -3 0 -3h-104z" />
<glyph horiz-adv-x="230" d="M136 -75h-104q-3 0 0 3q4 4 12.5 28.5t20 108t11.5 197.5q0 115 -11.5 199t-19.5 106t-13 30q-2 3 1 3h103q2 0 6 -3q3 -3 7 -9.5t12.5 -31t15 -58t12 -96.5t5.5 -140q0 -78 -5.5 -140.5t-12 -96t-15 -58t-12.5 -30.5t-7 -9t-6 -3z" />
<glyph horiz-adv-x="279" d="M107 280q-2 0 -2 4v63q-42 -31 -44 -32t-3 1l-33 61q-1 1 1 4l42 32l-42 31q-2 2 -1 4l33 60q1 2 3 2l44 -33v64q0 3 2 3h64q4 0 4 -3v-64q41 32 43 33q3 1 4 -2l8 -14q7 -15 15.5 -30t8.5 -16q2 -2 -1 -4l-42 -31q41 -31 42 -32q2 -2 0 -4l-32 -61q-1 -2 -3 -1l-43 32 v-63q0 -4 -3 -4h-65z" />
<glyph horiz-adv-x="215" d="M26 -75v675h173q3 0 3 -3v-102q0 -3 -3 -3h-60v-459h60q3 0 3 -4v-101q0 -3 -3 -3h-173z" />
<glyph horiz-adv-x="215" d="M188 -75h-172q-3 0 -3 3v101q0 4 3 4h59v459h-59q-3 0 -3 3v102q0 3 3 3h172v-675z" />
<glyph horiz-adv-x="300" d="M27 162q-2 0 -2 3v110q0 4 2 4h246q2 0 2 -4v-110q0 -3 -2 -3h-246z" />
<glyph horiz-adv-x="344" d="M16 162q-3 0 -3 3v110q0 4 3 4h312q2 0 2 -4v-110q0 -3 -2 -3h-312z" />
<glyph horiz-adv-x="304" d="M24 -4q-4 0 -2 3q1 1 66 273.5t65 274.5q0 3 3 3h128q4 0 2 -3q0 -1 -64.5 -274t-65.5 -274q-2 -3 -4 -3h-128z" />
<glyph horiz-adv-x="269" d="M24 162q-2 0 -2 3v110q0 4 2 4h220q2 0 2 -4v-110q0 -3 -2 -3h-220z" />
<glyph horiz-adv-x="380" d="M29 164q-2 0 -2 3v107q0 3 2 3h321q2 0 2 -3v-107q0 -3 -2 -3h-321zM133 -7q-2 0 -2 4v118q0 4 2 4h113q2 0 2 -4v-118q0 -4 -2 -4h-113zM133 323q-2 0 -2 3v119q0 3 2 3h113q2 0 2 -3v-119q0 -3 -2 -3h-113z" />
<glyph horiz-adv-x="380" d="M45 0q-2 2 -2 3v200h-20q-2 0 -2 3v89l2 3h20v114q0 137 170 137q79 0 137 -29q3 -2 3 -5q0 -1 -13 -55l-14 -55q0 -2 -2 -2q-1 0 -7.5 2t-17.5 4.5t-24 4.5t-29.5 4t-30.5 2q-27 0 -27 -33v-89h97q3 0 3 -3v-89q0 -3 -3 -3h-97v-74h155q3 0 3 -3v-123q0 -3 -3 -3h-298z " />
<glyph horiz-adv-x="354" d="M21 21q-1 1 -1 5q0 1 14.5 45.5t14.5 45.5q0 3 5 3q2 -1 18.5 -4.5t45.5 -7.5t54 -4t25 11v10q0 10 -8 13.5t-39 7.5q-123 15 -123 98v48q0 11 2.5 21t5 15.5t5.5 10.5t3 6q-16 32 -16 51v48q0 105 145 105q36 0 70 -6t48 -10.5t18 -6.5q3 -1 3 -4q-26 -78 -26 -89 q0 -3 -5 -3q-1 0 -6.5 1t-15.5 3t-22 3.5t-28.5 2.5t-32.5 1q-21 0 -21 -9v-9q0 -13 61 -20q51 -6 80.5 -27.5t29.5 -70.5v-51q0 -23 -14 -46q14 -19 14 -55v-50q0 -35 -14 -58.5t-40 -33.5t-48 -13t-51 -3q-39 0 -77.5 7t-53.5 12t-20 7zM145 270q0 -11 66 -23q0 -1 1 -1 q0 1 -0.5 8.5t-0.5 11.5v10q0 6 -59 22q-7 -7 -7 -19v-9z" />
<glyph horiz-adv-x="412" d="M137 0q-3 0 -3 3v90h-73q-3 0 -3 3v72q0 3 3 3h73v27h-73q-3 0 -3 3v72q0 3 3 3h40q-105 263 -106 265q-1 3 2 3h144q1 0 3 -3l61 -177h5l59 177l3 3h142q4 0 2 -3l-107 -265h38q2 0 2 -3v-72q0 -3 -2 -3h-70v-27h70q2 0 2 -3v-72q0 -3 -2 -3h-71v-90q0 -3 -2 -3h-137z " />
<glyph horiz-adv-x="254" d="M181 -73q-56 0 -79.5 27t-23.5 85v98q0 39 -11.5 56t-40.5 17q-3 0 -3 3v101q0 3 3 3q31 0 41.5 18.5t10.5 54.5v98q0 58 23.5 85t79.5 27h56q3 0 3 -3v-99q0 -3 -3 -3h-19q-28 0 -28 -34v-91q0 -49 -12 -70.5t-40 -34.5v-3q29 -13 40.5 -34t11.5 -70v-92q0 -34 29 -34 h18q3 0 3 -3v-99q0 -3 -3 -3h-56z" />
<glyph horiz-adv-x="243" d="M69 -75q-3 0 -3 3v669q0 3 3 3h104q3 0 3 -3v-669q0 -3 -3 -3h-104z" />
<glyph horiz-adv-x="254" d="M75 -73h-58q-2 0 -2 3v99l2 3h20q13 0 19 5.5t7 11.5t1 17v92q0 48 12.5 69.5t40.5 34.5v3q-28 13 -40.5 34.5t-12.5 70.5v91q0 11 -1 17t-7 11.5t-18 5.5h-21q-2 0 -2 3v99q0 3 2 3h58q56 0 79 -27t23 -85v-98q0 -36 11 -54.5t42 -18.5q3 0 3 -3v-101q0 -3 -3 -3 q-30 0 -41.5 -17t-11.5 -56v-98q0 -58 -23.5 -85t-78.5 -27z" />
<glyph horiz-adv-x="243" d="M68 -75q-3 0 -3 3v286q0 4 3 4h104q3 0 3 -4v-286q0 -3 -3 -3h-104zM68 311q-3 0 -3 3v283q0 3 3 3h104q3 0 3 -3v-283q0 -3 -3 -3h-104z" />
<glyph horiz-adv-x="380" d="M104 40l-72 75v5l82 100q-80 99 -82 101t0 4q1 1 36 37.5t36 38.5q2 1 3 -1l81 -100q81 99 83 100q4 2 4 1q1 -2 34.5 -37.5t36.5 -38.5q2 -2 0 -4l-82 -101q81 -98 82 -100q2 -2 0 -5q-69 -69 -72 -75q-2 -2 -3 0l-83 100q-79 -99 -81 -100t-3 0z" />
<glyph horiz-adv-x="380" d="M350 28l-80 34q-79 35 -159 69.5t-81 34.5q-2 1 -2 4v98q0 4 2 5l320 138q3 1 3 -2v-120q0 -1 -3 -4l-149 -65v-2q148 -64 149 -65q3 -1 3 -3v-120q0 -1 -1 -2t-2 0z" />
<glyph horiz-adv-x="380" d="M30 28q-2 -1 -2 2v120q0 2 2 3l148 65v2q-147 64 -148 65q-2 2 -2 4v120q0 3 2 2l321 -138q2 -1 2 -5v-98q0 -3 -2 -4q-1 0 -81 -34.5t-160 -69.5z" />
<glyph horiz-adv-x="304" d="M284 -4h-128q-2 0 -3 3q-1 1 -66 274t-65 274q-2 3 1 3h129q4 0 4 -3q0 -2 64.5 -274.5t65.5 -273.5q2 -3 -2 -3z" />
<glyph horiz-adv-x="381" d="M23 194l112 347l1 1q1 2 2 2h104q2 0 3 -3l110 -347q1 -3 -2 -3h-119q-2 0 -2 3l-42 170h-2q-40 -168 -41 -170q-1 -3 -4 -3h-118q-3 0 -2 3z" />
<glyph horiz-adv-x="385" d="M2 -139q-2 0 -2 3v93q0 3 2 3h381q2 0 2 -3v-93q0 -3 -2 -3h-381z" />
<glyph horiz-adv-x="381" d="M48 236q0 10 6 17q32 37 72 37q31 0 72 -23.5t62 -23.5q22 0 46 18t25 18q4 0 4 -6v-67q0 -10 -7 -17q-40 -40 -74 -40q-29 0 -69.5 24.5t-62.5 24.5q-17 0 -33 -9t-26.5 -17.5t-12.5 -8.5t-2 4v69z" />
<glyph horiz-adv-x="295" d="M147 157q-23 0 -38.5 4.5t-29 23.5t-13.5 53v21q0 79 84 79q16 0 28 -2.5t24.5 -9.5t19.5 -24t7 -43v-21q0 -50 -22 -65.5t-60 -15.5z" />
<glyph horiz-adv-x="286" d="M142 547q54 0 92.5 -45.5t38.5 -109.5q0 -65 -38.5 -110.5t-92.5 -45.5q-53 0 -91 45.5t-38 110.5q0 64 38 109.5t91 45.5zM142 274q40 0 67.5 34t27.5 84q0 49 -27.5 83.5t-67.5 34.5t-68 -34.5t-28 -83.5t28 -83.5t68 -34.5zM128 308h-40q-3 0 -3 1v170h61q52 0 52 -54 v-11q0 -34 -18 -45l22 -60l-1 -1h-45q-1 0 -1 1l-16 52h-11v-53zM128 400h15q1 0 4 1t6 5t3 9v9q0 6 -3 10t-5.5 5t-4.5 1h-15v-40z" />
<glyph horiz-adv-x="520" d="M259 549q95 0 162.5 -81.5t67.5 -196.5t-67.5 -196t-162.5 -81q-96 0 -163 81t-67 196q0 116 67 197t163 81zM259 62q69 0 118.5 61.5t49.5 147.5q0 87 -49.5 148.5t-118.5 61.5q-70 0 -119 -61.5t-49 -148.5q0 -86 49 -147.5t119 -61.5zM271 122q-62 0 -95.5 26.5 t-33.5 95.5v59q0 118 129 118q24 0 43.5 -4t26 -7t8.5 -5q1 -1 1 -3q0 -1 -10 -36t-11 -36q-1 0 -2 -1l-3 1q-3 0 -7.5 1t-10.5 1.5t-14.5 1t-16.5 0.5q-4 0 -10 -2t-13 -11.5t-7 -24.5v-47q0 -18 5 -27t10 -10.5t15 -1.5t18.5 0.5t15 1.5t11 2t6.5 2h3h2l1 -1q0 -1 10 -37 t10 -37q0 -3 -1 -3q-32 -16 -80 -16z" />
<glyph horiz-adv-x="563" d="M262 233v309q0 2 3 2h86q2 0 2 -2l45 -133h5q41 130 42 132l1 1q0 2 2 2h88v-2v-309l-1 -2h-74v160h-7q-26 -91 -27 -93q-1 -1 -4 -1h-48q-3 0 -4 2l-28 92h-4v-158q0 -2 -2 -2h-72q-3 0 -3 2zM84 233v237h-62q-1 0 -1 2v70l1 2h201q2 0 2 -2v-70q0 -2 -2 -2h-61v-237 q0 -2 -2 -2h-74q-2 0 -2 2z" />
<glyph horiz-adv-x="380" d="M59 -3q-3 0 -1 3l27 73h-55q-2 0 -2 3v112l2 3h110l17 59h-127q-2 0 -2 4v111l2 3h180q30 74 31 77t4 3h79q1 0 2 -1t0 -2l-29 -77h54q2 0 2 -3v-111q0 -4 -2 -4h-109l-17 -59h126q2 0 2 -3v-112q0 -3 -2 -3h-182q-25 -71 -26 -73q-1 -3 -4 -3h-80z" />
<glyph horiz-adv-x="380" d="M138 173q-3 0 -3 3v109h-106q-2 0 -2 3v110l2 3h106v109q0 3 3 3h105q3 0 3 -3v-109h105q2 0 2 -3v-110l-2 -3h-105v-109q0 -3 -3 -3h-105zM31 0q-3 0 -3 3v107q0 3 3 3h320q2 0 2 -3v-107q0 -3 -2 -3h-320z" />
<glyph horiz-adv-x="379" d="M350 138l-80 34q-79 35 -159 69.5t-81 34.5q-2 1 -2 4v98l2 4q1 0 159 69t161 70t3 -3v-118q0 -4 -3 -5l-148 -65v-2l148 -64q3 0 3 -5v-118q-1 -3 -3 -3zM28 0q-2 2 -2 3v113l2 3h322q3 0 3 -3v-113q0 -3 -3 -3h-322z" />
<glyph horiz-adv-x="379" d="M28 138q-1 1 -2 3v118q0 5 2 5l148 64v2q-146 64 -148 65t-2 5v118q1 3 2 3q2 -1 160.5 -70t159.5 -69q4 0 4 -4v-98q0 -2 -4 -4q-1 0 -81 -34.5t-159 -69.5zM350 0h-322q-2 0 -2 3v113q0 3 2 3h322q3 0 3 -3v-113q0 -3 -3 -3z" />
<glyph horiz-adv-x="381" d="M44 147q0 9 6 17q30 36 72 36q31 0 72 -23t62 -23q22 0 46 18t25 18q4 0 4 -5v-68q0 -11 -7 -18q-39 -39 -74 -39q-29 0 -69.5 24.5t-62.5 24.5q-17 0 -33 -8.5t-26.5 -17.5t-12.5 -9t-2 4v69zM44 327q0 10 6 16q26 37 72 37q31 0 72 -23t62 -23q22 0 46 18t25 18 q4 0 4 -5v-68q0 -10 -7 -17q-40 -40 -74 -40q-29 0 -69.5 24.5t-62.5 24.5q-17 0 -33 -8.5t-26.5 -17.5t-12.5 -9t-2 4v69z" />
<glyph horiz-adv-x="184" d="M36 150q-2 0 -2 3v119l2 3h113q3 0 3 -3v-119q0 -3 -3 -3h-113z" />
<glyph horiz-adv-x="311" d="M276 549q4 2 4 -3v-177q0 -3 -3 -3h-99q-3 0 -3 3v108q0 3 3 6zM131 549q4 2 4 -3v-177q0 -3 -2 -3h-100q-2 0 -2 3v108q0 4 2 6z" />
<glyph horiz-adv-x="311" d="M179 361q-4 -2 -4 3v177q0 3 3 3h99q3 0 3 -3v-108q0 -3 -3 -6zM35 361q-4 -2 -4 3v177q0 3 2 3h100q2 0 2 -3v-108q0 -4 -2 -6z" />
<glyph horiz-adv-x="166" d="M131 549q4 2 4 -3v-177q0 -3 -2 -3h-100q-2 0 -2 3v108q0 4 2 6z" />
<glyph horiz-adv-x="166" d="M35 361q-4 -2 -4 3v177l2 3h100q2 0 2 -3v-108q0 -4 -2 -6z" />
<glyph horiz-adv-x="794" d="M211 -5h-111q-4 0 0 2q-7 -3 13 41q11 26 165 342q81 166 73 167q1 0 2 1.5t3 1.5h111q1 -1 0 -4q0 -1 -125 -272.5t-127 -275.5q-1 -3 -4 -3zM430 83q11 0 16.5 5.5t5.5 22.5v33q0 27 -20 27q-23 0 -23 -27v-33q0 -28 21 -28zM430 -5q-101 0 -101 101v64q0 99 104 99 q99 0 99 -99v-64q0 -101 -102 -101zM135 374q11 0 16 5.5t5 22.5v33q0 27 -21 27q-23 0 -23 -27v-33q0 -28 23 -28zM135 286q-101 0 -101 101v64q0 99 104 99q98 0 98 -99v-64q0 -101 -101 -101zM658 83q23 0 23 28v33q0 27 -21 27q-23 0 -23 -27v-33q0 -28 21 -28zM658 -5 q-101 0 -101 101v64q0 99 104 99q99 0 99 -99v-64q0 -101 -102 -101z" />
<glyph horiz-adv-x="261" d="M128 395q7 0 11 1.5t7 8t3 17.5v19q0 27 -21 27q-22 0 -22 -27v-19q0 -27 22 -27zM128 307q-100 0 -100 101v49q0 99 103 99q98 0 98 -99v-49q0 -59 -28.5 -80t-72.5 -21z" />
<glyph horiz-adv-x="463" d="M385 423l70 -74q2 -2 0 -4l-112 -134q111 -132 112 -134q4 0 0 -4l-70 -74q-2 -2 -4 0t-93 105.5t-91 104.5v5q1 1 92 104.5t92 104.5q2 2 4 0zM190 423q70 -70 70 -74q3 -1 0 -4l-112 -134q112 -132 112 -134q4 0 0 -4q-66 -66 -70 -74q-2 -1 -3 0q-2 2 -93.5 105.5 t-91.5 104.5v5q1 0 46.5 52t91.5 104t47 53t3 0z" />
<glyph horiz-adv-x="455" d="M265 -1q-67 67 -71 75q-3 0 0 3l113 134q-112 132 -113 134q-2 2 0 4l71 74q2 2 4 0q1 -1 91.5 -104.5t91.5 -104.5q2 -2 0 -5q-2 -2 -92.5 -105.5t-91.5 -104.5q-2 -1 -3 0zM79 -1q-72 72 -70 75q-3 0 0 3l111 134l-111 134q-3 1 0 4q66 66 70 74q2 2 3 0l184 -209 q2 -3 0 -5t-92.5 -105.5t-91.5 -104.5q-2 -1 -3 0z" />
<glyph horiz-adv-x="288" d="M196 423q70 -70 70 -74q3 -1 0 -4l-112 -134q112 -132 112 -134q4 0 0 -4q-66 -66 -70 -74q-2 -1 -3 0q-2 2 -93 105.5t-91 104.5v5q1 0 46.5 52l91 104t46.5 53t3 0z" />
<glyph horiz-adv-x="288" d="M92 -1q-72 72 -70 75q-3 0 0 3l111 134l-111 134q-3 1 0 4q66 66 70 74q2 2 3 0l184 -209q2 -3 0 -5t-92.5 -105.5t-91.5 -104.5t-3 0z" />
<glyph horiz-adv-x="261" d="M60 95q-4 0 -4 4v135q0 4 4 4h142q4 0 4 -4v-135q0 -4 -4 -4h-142zM60 439q-4 0 -4 4v135q0 4 4 4h142q4 0 4 -4v-135q0 -4 -4 -4h-142z" />
</font>
</defs>
</svg>
