<?xml version="1.0" standalone="no"?>
<!DOCTYPE svg PUBLIC "-//W3C//DTD SVG 1.1//EN" "http://www.w3.org/Graphics/SVG/1.1/DTD/svg11.dtd" >
<svg xmlns="http://www.w3.org/2000/svg" xmlns:xlink="http://www.w3.org/1999/xlink" version="1.1">
<metadata></metadata>
<defs>
<font id="sport1condensed_medium" horiz-adv-x="470" >
<font-face units-per-em="1000" ascent="750" descent="-250" />
<missing-glyph horiz-adv-x="209" />
<glyph unicode=" "  horiz-adv-x="209" />
<glyph unicode="&#x09;" horiz-adv-x="209" />
<glyph unicode="&#xa0;" horiz-adv-x="209" />
<glyph unicode="!" horiz-adv-x="260" d="M181 0h-101q-4 0 -4 4v104q0 4 4 4h101q3 0 3 -4v-104q0 -4 -3 -4zM175 196h-90q-3 0 -3 4v476q0 4 3 4h90q3 0 3 -4v-476q0 -4 -3 -4z" />
<glyph unicode="&#x22;" horiz-adv-x="323" d="M127 680q5 0 5 -5v-182q0 -4 -4 -4h-80q-3 0 -3 4v181q0 6 2 6h80zM273 680q5 0 5 -5v-182q0 -4 -3 -4h-80q-4 0 -4 4v181q0 6 4 6h78z" />
<glyph unicode="#" horiz-adv-x="486" d="M190 281h97l12 130h-97zM157 0h-78q-3 0 -3 4l19 196h-63q-3 0 -3 4v73q0 4 3 4h72l13 130h-68q-4 0 -4 4v74q0 3 4 3h77q18 181 18 184q2 4 4 4h79q3 0 3 -4l-18 -184h97q18 181 18 184q0 4 4 4h79q3 0 3 -4l-18 -184h61q3 0 3 -3v-74q0 -4 -3 -4h-71l-12 -130h66 q3 0 3 -4v-73q0 -4 -3 -4h-75q-20 -193 -20 -196q0 -4 -4 -4h-79q-2 0 -2 4l19 196h-97q-19 -193 -19 -196q0 -4 -5 -4z" />
<glyph unicode="$" horiz-adv-x="508" d="M219 -78q-3 0 -3 4v68q-46 2 -87 11t-59 16.5t-20 9.5q-4 2 -2 5l29 88q0 2 4 2q4 -2 23.5 -8t62.5 -13t84 -7q49 0 75.5 14t26.5 57v47q0 33 -23.5 51t-87.5 25q-103 11 -146 44.5t-43 123.5v72q0 140 163 151v71q0 3 3 3h67q3 0 3 -3v-71q40 -2 75 -9t50.5 -12.5 t16.5 -7.5q3 -1 3 -5l-27 -85q-2 -4 -5 -2q-3 1 -21.5 5.5t-56 9.5t-71.5 5q-43 0 -64 -13.5t-21 -50.5v-46q0 -36 22 -51.5t85 -24.5q101 -12 147 -46.5t46 -122.5v-73q0 -41 -13.5 -71t-31 -45.5t-45.5 -26t-45.5 -13t-43.5 -4.5v-68q0 -4 -3 -4h-67z" />
<glyph unicode="%" horiz-adv-x="676" d="M222 -6h-88q-3 0 -1 4q18 58 157.5 342.5t157.5 341.5q2 4 5 4h87q4 0 1 -4l-314 -683q-2 -5 -5 -5zM175 372q-49 0 -80 23t-31 89v93q0 109 114 109q21 0 37.5 -3.5t34 -14t27 -33.5t9.5 -58v-93q0 -67 -30.5 -89.5t-80.5 -22.5zM501 -6q-49 0 -80 23t-31 89v94 q0 108 114 108q21 0 37.5 -3.5t33.5 -14t26.5 -33t9.5 -57.5v-94q0 -67 -30.5 -89.5t-79.5 -22.5zM501 67q20 0 31 9.5t11 39.5v72q0 28 -10.5 38t-30.5 10q-21 0 -32.5 -10t-11.5 -38v-72q0 -30 11 -39.5t32 -9.5zM175 444q20 0 31 10t11 40v71q0 29 -10 38.5t-31 9.5 t-32.5 -10t-11.5 -38v-71q0 -30 11 -40t32 -10z" />
<glyph unicode="&#x26;" horiz-adv-x="511" d="M254 -6q-30 0 -53 2.5t-51.5 13t-47 29t-31.5 53.5t-13 83v38q0 41 14 84t28 65l13 22q-28 50 -28 128v29q0 145 156 145q24 0 41.5 -2t39.5 -11.5t36 -26.5t23.5 -48.5t9.5 -75.5q0 -4 -4 -4h-71q-4 0 -4 4q0 54 -19 72t-50 18q-27 0 -48.5 -17t-21.5 -60v-20 q0 -14 3 -29t6.5 -25.5t13 -29.5t14 -27t20 -33.5t20.5 -34.5l103 -182q9 20 9 28v116q0 4 3 4h72q4 0 4 -4v-131q0 -17 -8.5 -39t-16.5 -36l-8 -14q49 -71 51 -74q2 -4 -1 -4h-95q-3 0 -6 4l-10 17q-35 -27 -93 -27zM254 76q13 0 23.5 3.5t14.5 6.5l5 4l-127 214 q-22 -33 -22 -103v-18q0 -64 26 -85.5t80 -21.5z" />
<glyph unicode="'" horiz-adv-x="191" d="M134 680q5 0 5 -5v-182q0 -4 -3 -4h-81q-3 0 -3 4v181q0 6 3 6h79z" />
<glyph unicode="(" horiz-adv-x="270" d="M135 -94q-2 0 -6 4q-3 3 -8 11t-16.5 39t-20 73t-15.5 120.5t-7 174.5t7 174.5t15.5 120.5t19.5 73t16 39t8 11q5 4 7 4h83q3 0 0 -4t-7.5 -13.5t-14.5 -43t-18 -76.5t-14.5 -119t-6.5 -166t6.5 -166t14.5 -120t17.5 -76t15 -43t7.5 -13q4 -4 0 -4h-83z" />
<glyph unicode=")" horiz-adv-x="270" d="M134 -94h-81q-4 0 0 4q61 122 61 418q0 90 -6.5 166t-14.5 119t-18 76.5t-14.5 43t-7.5 13.5t0 4h82q3 0 7 -4q3 -2 8.5 -11t16.5 -39t20 -73t15.5 -121t6.5 -174t-7 -174.5t-15.5 -120.5t-20 -73t-16.5 -39t-8 -11q-4 -4 -8 -4z" />
<glyph unicode="*" horiz-adv-x="330" d="M138 378q-4 0 -4 4v91q-60 -45 -62 -46q-3 -1 -5 2q-1 2 -13.5 25t-13.5 24q-2 3 1 6l63 45q-61 43 -63 45t-1 6l27 49q3 3 5 2l62 -46v91q0 4 4 4h54q4 0 4 -4v-91q60 45 62 46q1 1 2.5 0.5t2.5 -2.5l26 -49q2 -4 -1 -6l-62 -45q61 -44 62 -45q2 -2 1 -6l-26 -49 q-2 -4 -5 -2l-62 46v-91q0 -4 -4 -4h-54z" />
<glyph unicode="+" horiz-adv-x="469" d="M193 71q-4 0 -4 4v154h-136q-3 0 -3 4v85q0 4 3 4h136v156q0 4 4 4h82q4 0 4 -4v-156h137q3 0 3 -4v-85q0 -4 -3 -4h-137v-154q0 -4 -4 -4h-82z" />
<glyph unicode="," horiz-adv-x="211" d="M31 -105q-3 0 -2 4q0 2 25.5 109t26.5 110q1 4 4 4h94q3 0 2 -4l-8 -23q-8 -23 -18.5 -54.5t-21.5 -63.5t-18.5 -54.5t-7.5 -23.5q-1 -4 -4 -4h-72z" />
<glyph unicode="-" horiz-adv-x="335" d="M44 228q-4 0 -4 4v86q0 4 4 4h247q4 0 4 -4v-86q0 -4 -4 -4h-247z" />
<glyph unicode="." horiz-adv-x="217" d="M58 0q-3 0 -3 4v114q0 4 3 4h101q4 0 4 -4v-114q0 -4 -4 -4h-101z" />
<glyph unicode="/" horiz-adv-x="371" d="M55 -5q-4 0 -2 4q0 2 81 341t82 342q0 4 4 4h98q3 0 2 -4q-1 -3 -81.5 -342t-80.5 -341q-2 -4 -4 -4h-99z" />
<glyph unicode="0" horiz-adv-x="511" d="M254 94q34 0 51.5 9.5t28.5 43.5t11 100v190q0 93 -20.5 121.5t-70.5 28.5q-48 0 -68.5 -28t-20.5 -122v-190q0 -50 5.5 -81.5t18 -46.5t27 -20t38.5 -5zM254 -10q-37 0 -61 3t-53.5 17t-47 39t-29.5 73t-12 116v211q0 65 12 111.5t29.5 71.5t46.5 38.5t54 17t61 3.5 q30 0 50 -2t46.5 -9t44 -23.5t33.5 -42t24 -67.5t8 -98v-211q0 -50 -6.5 -89t-16.5 -65t-27 -44.5t-32.5 -28t-39.5 -14.5t-41 -6t-43 -1z" />
<glyph unicode="1" horiz-adv-x="452" d="M314 0h-103q-3 0 -3 4v551q-103 -88 -104 -89q-3 -2 -3 2q0 1 -12.5 46.5t-12.5 46.5q-2 3 3 6q1 2 64 57l63 54q2 2 5 2h103q3 0 3 -4v-673q0 -3 -3 -3z" />
<glyph unicode="2" horiz-adv-x="464" d="M402 0h-341q-3 0 -3 3v94q0 5 3 8q16 21 48.5 63.5t48 63t40.5 55t37.5 54.5t27 44.5t20 42.5t5.5 32v58q0 69 -79 69q-27 0 -60.5 -5.5t-52 -10.5t-21.5 -6q-4 0 -4 3q0 1 -9.5 42t-9.5 42q0 5 1 6q5 4 19 10t53.5 14t85.5 8q191 0 191 -157v-81q0 -40 -28 -98.5 t-57.5 -103t-96.5 -138.5v-9h182q3 0 3 -4v-95q0 -4 -3 -4z" />
<glyph unicode="3" horiz-adv-x="469" d="M62 17q-3 1 -1 6q0 1 7.5 42t7.5 43q1 2 5 2q2 -1 23 -5.5t56.5 -9t63.5 -4.5q81 0 81 69v53q0 85 -72 85h-69q-4 0 -4 4v89q0 4 4 4h70q23 0 41.5 19t18.5 53v53q0 70 -78 70q-17 0 -37 -2t-37 -5t-30.5 -6t-22 -5t-9.5 -2q-2 -1 -3.5 -0.5t-1.5 2.5t-7.5 43t-7.5 42 q0 4 2 5q58 29 154 29q29 0 51.5 -2.5t49.5 -11.5t45 -25t30 -45t12 -70v-71q0 -31 -11 -58.5t-23 -39.5l-11 -12v-8q2 -1 6 -4t13.5 -13.5t17 -23.5t13.5 -35.5t6 -49.5v-77q0 -50 -16.5 -83t-47 -47.5t-59 -19.5t-68.5 -5q-45 0 -85.5 7t-58.5 13z" />
<glyph unicode="4" d="M377 0h-96q-3 0 -3 4v111h-230q-3 0 -3 3v98q0 1 2 9l77 225q77 224 78 226q2 4 4 4h108q4 0 2 -4l-150 -449v-9h112v123q0 4 3 4h96q4 0 4 -4v-123h48q3 0 3 -4v-95q0 -4 -3 -4h-48v-111q0 -4 -4 -4z" />
<glyph unicode="5" horiz-adv-x="469" d="M226 -11q-45 0 -86 7.5t-55.5 12.5t-20.5 8q-2 1 -2 5l16 85q1 3 5 2l9 -2q10 -2 25 -4.5t33 -5t38.5 -4.5t37.5 -2q81 0 81 68v57q0 48 -21 68.5t-52 20.5h-155q-3 0 -3 4v362q0 9 8 9h310q3 0 3 -4v-89q0 -4 -3 -4h-219v-182h62q34 0 59.5 -4.5t56 -20t47.5 -52 t17 -91.5v-89q0 -42 -13.5 -72.5t-32 -46t-47.5 -24.5t-49.5 -10.5t-48.5 -1.5z" />
<glyph unicode="6" d="M236 85q16 0 27 3t23 13t18.5 32.5t6.5 57.5v34q0 57 -17 77.5t-49 20.5q-13 0 -33.5 -5t-34.5 -10l-14 -5v-151q0 -35 21.5 -51t51.5 -16zM243 -10q-189 0 -189 159v372q0 44 15 76.5t35.5 50t48.5 28t48 13t39 2.5q21 0 41 -1.5t35 -4.5t28 -6.5t23 -6.5t16.5 -6 t10.5 -5l4 -2q2 -1 2 -6l-10.5 -42t-9.5 -40t-4 -2q-1 0 -9 2t-22 5t-30 6t-36 5t-37 2q-31 0 -55 -16t-24 -56v-119q72 20 103 20q24 0 41 -2.5t39.5 -13t37 -29t24.5 -54t10 -85.5v-50q0 -53 -11.5 -90.5t-28 -57t-42.5 -30.5t-46 -13.5t-47 -2.5z" />
<glyph unicode="7" horiz-adv-x="456" d="M211 0h-110q-3 0 -2 4l183 566v9h-221q-4 0 -4 4v92q0 5 4 5h338q3 0 3 -4v-92q0 -2 -2 -10l-184 -570q-1 -4 -5 -4z" />
<glyph unicode="8" horiz-adv-x="469" d="M235 84q36 0 55 19.5t19 71.5v39q0 87 -73 87q-75 0 -75 -87v-39q0 -52 19 -71.5t55 -19.5zM235 403q70 0 70 75v39q0 80 -69 80q-72 0 -72 -80v-39q0 -75 71 -75zM234 -11q-39 0 -67.5 6t-57 23.5t-43.5 55t-15 93.5v54q0 26 6.5 49t15.5 37.5t17.5 24.5t15.5 14l6 5v4 q-6 4 -14.5 12t-22.5 37t-14 65v52q0 55 15 91t43.5 52t55 21.5t62.5 5.5q28 0 49 -3t45.5 -13t40 -28t26 -50t10.5 -76v-52q0 -35 -12.5 -63.5t-25.5 -39.5l-12 -11v-3q2 -1 6.5 -4t14.5 -14.5t18 -25t14.5 -37t6.5 -50.5v-54q0 -57 -15 -94.5t-43.5 -54.5t-57 -23 t-68.5 -6z" />
<glyph unicode="9" horiz-adv-x="469" d="M229 688q188 0 188 -159v-367q0 -44 -15 -76.5t-35.5 -50t-48 -28t-47.5 -13t-39 -2.5q-102 0 -160 29q-3 2 -2 6l20 83q2 2 4 2q2 -1 21.5 -5t53.5 -8.5t61 -4.5q31 0 54.5 16t23.5 57v103q-72 -20 -103 -20q-23 0 -40 2.5t-39.5 13t-37 29t-24.5 54t-10 85.5v60 q0 53 11.5 90.5t28 57t42.5 30.5t45.5 13.5t47.5 2.5zM236 593q-16 0 -27 -3t-23.5 -13t-18.5 -32t-6 -57v-44q0 -57 17 -78t49 -21q13 0 33 5t34 10l14 5v161q0 67 -72 67z" />
<glyph unicode=":" horiz-adv-x="228" d="M64 369q-4 0 -4 5v104q0 4 4 4h101q3 0 3 -4v-104q0 -5 -3 -5h-101zM64 0q-4 0 -4 4v104q0 4 4 4h101q3 0 3 -4v-104q0 -4 -3 -4h-101z" />
<glyph unicode=";" horiz-adv-x="228" d="M18 -105q-2 0 -2 4l53 219q1 4 4 4h94q3 0 2 -4l-8 -23q-8 -23 -18.5 -54.5t-21.5 -63.5t-18.5 -54.5t-7.5 -23.5q-1 -4 -5 -4h-72zM63 359q-3 0 -3 5v114q0 4 3 4h101q4 0 4 -4v-114q0 -5 -4 -5h-101z" />
<glyph unicode="&#x3c;" horiz-adv-x="469" d="M417 66l-363 165q-3 1 -3 5v77q0 3 3 5l363 166q2 0 2 -4v-92q0 -2 -2 -6l-225 -106v-4q222 -103 225 -105q2 -2 2 -5v-93q-1 -2 -2 -3z" />
<glyph unicode="=" horiz-adv-x="469" d="M53 126q-3 0 -3 4v87q0 4 3 4h363q3 0 3 -4v-87q0 -4 -3 -4h-363zM53 332q-3 0 -3 4v87q0 4 3 4h363q3 0 3 -4v-87q0 -4 -3 -4h-363z" />
<glyph unicode="&#x3e;" horiz-adv-x="469" d="M53 66q-1 1 -2 3v93q0 3 2 5l225 105v4q-223 104 -225 106q-2 4 -2 6v92q0 4 2 4l363 -166q3 -2 3 -5v-77q0 -4 -3 -5q-1 0 -91 -41t-180.5 -82t-91.5 -42z" />
<glyph unicode="?" horiz-adv-x="402" d="M247 0h-101q-3 0 -3 4v105q0 4 3 4h101q3 0 3 -4v-105q0 -4 -3 -4zM246 190h-98q-3 0 -3 4v42q0 48 27.5 95t54.5 84t27 61v42q0 68 -62 68q-25 0 -54 -5.5t-45.5 -11t-17.5 -6.5q-5 -2 -5 2q-1 4 -10.5 41.5t-9.5 40.5q0 5 1 6q5 3 19.5 9.5t50 14.5t73.5 8q32 0 57 -5 t52.5 -19.5t43 -48t15.5 -84.5v-52q0 -40 -56 -120.5t-56 -119.5v-42q0 -4 -4 -4z" />
<glyph unicode="@" horiz-adv-x="762" d="M377 139q31 0 46 13t15 53v136q0 49 -65 49q-28 0 -42 -21t-14 -74v-59q0 -59 17 -78t43 -19zM376 -143q-333 0 -333 407q0 406 339 406q56 0 101 -8t91 -32.5t76.5 -66t50 -112.5t19.5 -167q0 -127 -40.5 -175t-107.5 -48q-56 0 -91 35q-36 -36 -106 -36 q-68 0 -107.5 35t-39.5 136v70q0 85 34 126.5t90 41.5q32 0 53.5 -6.5t26.5 -13.5l6 -7v18q0 4 3 4h82q4 0 4 -4v-252q0 -67 49 -67q19 0 30.5 7.5t21 41t9.5 96.5q0 93 -17.5 154.5t-53 94t-79 45t-106.5 12.5q-124 0 -187.5 -72.5t-63.5 -253.5q0 -322 246 -322 q44 0 91 6.5t71 12t27 7.5q3 1 4 -2l18 -71q2 -4 -1 -5q-105 -35 -210 -35z" />
<glyph unicode="A" horiz-adv-x="533" d="M123 0h-111q-3 0 -2 4l192 672q0 4 4 4h124q3 0 4 -4l189 -672q2 -4 -3 -4h-111q-3 0 -4 4l-31 128h-215q-30 -125 -31 -128q-1 -4 -5 -4zM185 226h163l-72 301h-18z" />
<glyph unicode="B" horiz-adv-x="517" d="M174 93h97q87 0 87 74v57q0 78 -88 78h-96v-209zM174 390h91q28 0 43 -3q26 52 26 101q0 33 -6.5 54t-19.5 30t-24.5 11.5t-30.5 2.5h-79v-196zM282 0h-220v680h211q25 0 44 -2.5t45 -12.5t43 -28t29.5 -53t12.5 -83q0 -60 -39 -144q31 -20 47 -49t16 -82v-62 q0 -45 -11 -76.5t-27.5 -48.5t-44 -26t-50 -11t-56.5 -2z" />
<glyph unicode="C" horiz-adv-x="482" d="M270 -10q-38 0 -66 4t-60 18.5t-52 40.5t-33.5 73t-13.5 112v211q0 63 13.5 109t34 71t52 39.5t60 18.5t66.5 4q98 0 156 -29q3 -3 2 -6q-1 -2 -16.5 -43t-15.5 -42q-2 -3 -4 -2q-51 17 -122 17q-24 0 -40 -4t-34.5 -17.5t-28 -45.5t-9.5 -83v-188q0 -49 8 -80t25 -45.5 t34 -19.5t44 -5q19 0 39.5 2.5t36 5.5t28 6t20.5 6l8 2q2 2 4 -2l31 -85q2 -3 -2 -5q-33 -16 -43 -20q-54 -18 -122 -18z" />
<glyph unicode="D" horiz-adv-x="531" d="M175 105h90q26 0 42.5 4.5t32 19t22.5 46t7 81.5v171q0 50 -7.5 81.5t-24 45t-32 17.5t-40.5 4h-90v-470zM265 0h-203v680h203q35 0 58 -2t57 -15t54 -37t35.5 -72t15.5 -116v-191q0 -69 -14.5 -117.5t-34 -73t-53 -38t-57.5 -16t-61 -2.5z" />
<glyph unicode="E" horiz-adv-x="473" d="M62 0v680h367q3 0 3 -4v-94q0 -3 -3 -3h-254v-184h214q3 0 3 -4v-93q0 -4 -3 -4h-214v-193h254q3 0 3 -4v-93q0 -4 -3 -4h-367z" />
<glyph unicode="F" horiz-adv-x="469" d="M65 0q-3 0 -3 4v676h367q3 0 3 -4v-94q0 -3 -3 -3h-254v-215h214q3 0 3 -4v-94q0 -4 -3 -4h-214v-258q0 -4 -3 -4h-107z" />
<glyph unicode="G" horiz-adv-x="527" d="M267 -10q-36 0 -62.5 3.5t-58.5 18t-52 40t-34 73t-14 113.5v211q0 66 15.5 113t37 71.5t55.5 38t59 16t60 2.5q48 0 93.5 -7t65.5 -13.5t24 -8.5q3 -1 1 -6l-26 -83q-1 -3 -4 -3q-3 1 -25 5t-60.5 8t-68.5 4q-24 0 -39.5 -3.5t-35 -17t-29 -45.5t-9.5 -83v-190 q0 -50 8.5 -82t25 -46.5t33 -19t41.5 -4.5l110 9v168h-82q-3 0 -3 4v89q0 4 3 4h178v-357q-144 -22 -207 -22z" />
<glyph unicode="H" horiz-adv-x="555" d="M65 0q-3 0 -3 4v672q0 4 3 4h107q3 0 3 -4v-284h205v284q0 4 3 4h107q3 0 3 -4v-672q0 -4 -3 -4h-107q-3 0 -3 4v288h-205v-288q0 -4 -3 -4h-107z" />
<glyph unicode="I" horiz-adv-x="236" d="M65 0q-3 0 -3 4v672q0 4 3 4h107q3 0 3 -4v-672q0 -4 -3 -4h-107z" />
<glyph unicode="J" horiz-adv-x="431" d="M176 -10q-37 0 -72.5 5.5t-51 10t-19.5 6.5q-3 1 -1 6l25 86q3 3 5 2q1 -1 17 -3t43 -4.5t50 -2.5q26 0 42.5 4.5t30 25t13.5 57.5v493q0 4 3 4h107q4 0 4 -4v-501q0 -51 -12.5 -87t-30.5 -54.5t-47 -29t-51 -12.5t-55 -2z" />
<glyph unicode="K" horiz-adv-x="530" d="M65 0q-3 0 -3 4v672q0 4 3 4h107q3 0 3 -4v-283h32q157 279 159 283q1 4 4 4h120q3 0 1 -4l-192 -331q204 -338 205 -341q3 -4 -1 -4h-120q-3 0 -6 4l-164 288h-38v-288q0 -4 -3 -4h-107z" />
<glyph unicode="L" horiz-adv-x="457" d="M62 0v676q0 4 3 4h107q3 0 3 -4v-575h254q3 0 3 -4v-93q0 -4 -3 -4h-367z" />
<glyph unicode="M" horiz-adv-x="672" d="M65 0q-3 0 -3 4v673q0 3 2 3h131q3 0 5 -3l134 -377h11q128 373 129 376q2 4 6 4h129q2 0 2 -4v-672q0 -4 -3 -4h-105q-3 0 -3 4v449h-13q-103 -305 -104 -307q-1 -4 -6 -4h-80q-5 0 -7 5l-104 305h-13v-448q0 -4 -3 -4h-105z" />
<glyph unicode="N" horiz-adv-x="567" d="M63 0q-3 0 -3 4v672q0 4 3 4h122q5 0 6 -4l199 -471h10v471q0 4 3 4h105q3 0 3 -4v-672q0 -4 -3 -4h-124q-4 0 -5 4l-199 473h-11v-473q0 -4 -3 -4h-103z" />
<glyph unicode="O" horiz-adv-x="527" d="M262 94q27 0 43 4.5t31.5 19t22.5 46t7 82.5v190q0 50 -7 81t-23 45t-32 18.5t-42 4.5q-25 0 -41 -4.5t-31.5 -18.5t-23 -45.5t-7.5 -80.5v-190q0 -51 7.5 -83t23 -46.5t31 -18.5t41.5 -4zM262 -11q-37 0 -62 3t-57.5 17t-51.5 39t-33 73t-14 116v210q0 65 13.5 112 t33 72t51 39t57.5 17t63 3t61.5 -2.5t57 -16t52.5 -38.5t34 -72t14 -114v-210q0 -58 -8.5 -101.5t-26.5 -69.5t-36.5 -42.5t-47 -23.5t-49 -9t-51.5 -2z" />
<glyph unicode="P" horiz-adv-x="512" d="M175 353h101q89 0 89 88v49q0 29 -8 48t-22.5 27.5t-27.5 11t-31 2.5h-101v-226zM172 0h-107q-3 0 -3 4v676h219q29 0 50.5 -2t51.5 -12.5t48.5 -29t32.5 -54t14 -84.5v-65q0 -181 -197 -181h-106v-248q0 -4 -3 -4z" />
<glyph unicode="Q" horiz-adv-x="524" d="M262 -11q-37 0 -62 3t-57.5 17t-51.5 39t-33 73t-14 116v210q0 65 13.5 112t33 72t51 39t57.5 17t63 3t61.5 -2.5t57 -16t52.5 -38.5t34 -72t14 -114v-210q0 -107 -32 -166l39 -45q2 -2 0 -5q-2 -2 -29.5 -31t-28.5 -29q-2 -5 -5 0q-13 13 -42 47q-42 -19 -121 -19z M258 152q-3 3 0 6q55 55 58 61q2 3 5 0l5 -5q4 -6 15 -18.5t19 -22.5q6 29 6 73v190q0 50 -7 81t-23 45t-32 18.5t-42 4.5q-25 0 -41 -4.5t-31.5 -18.5t-23 -45.5t-7.5 -80.5v-190q0 -51 7.5 -83t23 -46.5t31 -18.5t41.5 -4q30 0 43 4z" />
<glyph unicode="R" horiz-adv-x="529" d="M174 353h102q89 0 89 90v46q0 29 -8 48.5t-23 27.5t-28 11t-30 3h-102v-226zM171 0h-106q-3 0 -3 4v676h219q28 0 49.5 -2.5t51 -13t49 -29.5t33.5 -56t14 -88v-52q0 -129 -86 -168l103 -267q1 -4 -2 -4h-118q-5 0 -6 4l-88 247h-107v-247q0 -4 -3 -4z" />
<glyph unicode="S" horiz-adv-x="511" d="M253 -10q-130 0 -200 35q-3 3 -1 6l26 89q0 3 4 3q87 -29 173 -29q48 0 74.5 13.5t26.5 57.5v52q0 35 -27 53t-84 23q-106 12 -147.5 48.5t-41.5 119.5v77q0 153 199 153q53 0 98 -7.5t62 -14t20 -9.5q3 -1 1 -5q0 -1 -12 -42t-13 -43q-2 -4 -5 -2q-3 1 -22 5.5t-56.5 10 t-71.5 5.5q-84 0 -84 -65v-50q0 -36 21.5 -52.5t83.5 -23.5q108 -13 151.5 -49.5t43.5 -120.5v-78q0 -52 -19.5 -86t-55.5 -49t-68 -20t-76 -5z" />
<glyph unicode="T" d="M182 0q-3 0 -3 4v572h-157q-3 0 -3 4v96q0 4 3 4h426q4 0 4 -4v-96q0 -4 -4 -4h-156v-572q0 -4 -3 -4h-107z" />
<glyph unicode="U" horiz-adv-x="545" d="M254 -10q-112 0 -154.5 61.5t-42.5 207.5v417q0 4 3 4h107q3 0 3 -4v-408q0 -96 15.5 -134.5t69.5 -38.5h37q53 0 68 37t15 136v408q0 4 3 4h107q3 0 3 -4v-417q0 -56 -4.5 -95.5t-17 -74t-34 -55.5t-57 -32.5t-84.5 -11.5h-37z" />
<glyph unicode="V" horiz-adv-x="532" d="M201 0q-3 0 -4 3l-182 673q0 4 3 4h112q3 0 4 -4l124 -506h16q125 503 126 506q0 4 4 4h111q4 0 2 -4l-184 -672q-1 -4 -5 -4h-127z" />
<glyph unicode="W" horiz-adv-x="730" d="M130 0q-3 0 -4 4q0 1 -53.5 335.5t-54.5 336.5q-1 4 2 4h111q3 0 4 -4l72 -492h16q92 352 93 354q1 4 4 4h89q4 0 5 -4l92 -354h16q71 489 72 492q1 4 5 4h111q4 0 2 -4q-1 -2 -54.5 -336t-53.5 -336q-1 -4 -4 -4h-138q-3 0 -4 4l-88 344h-10q-87 -339 -87 -343 q-3 -5 -6 -5h-137z" />
<glyph unicode="X" horiz-adv-x="503" d="M19 0q-4 0 -3 4l174 349q-159 320 -161 323q-2 4 3 4h116q2 0 5 -4l96 -211h5q94 208 96 211q3 4 4 4h117q4 0 2 -4l-160 -323q172 -346 173 -349q3 -4 -2 -4h-117q-3 0 -4 4l-109 238h-5q-107 -236 -108 -238q-1 -4 -5 -4h-117z" />
<glyph unicode="Y" horiz-adv-x="486" d="M190 0q-3 0 -3 4v263q-173 406 -174 409q-2 4 2 4h114q1 0 4 -4l109 -279h6q106 276 107 279q3 4 4 4h112q3 0 2 -4l-173 -409v-263q0 -4 -3 -4h-107z" />
<glyph unicode="Z" horiz-adv-x="472" d="M42 0q-3 0 -3 3v98q0 2 3 8l255 458v9h-244q-3 0 -3 4v95q0 5 3 5h374q4 0 4 -5v-95q0 -6 -3 -11l-255 -457v-9h254q4 0 4 -4v-95q0 -4 -4 -4h-385z" />
<glyph unicode="[" horiz-adv-x="262" d="M63 -93v843h163q4 0 4 -4v-79q0 -4 -4 -4h-71v-670h71q4 0 4 -4v-78q0 -4 -4 -4h-163z" />
<glyph unicode="\" horiz-adv-x="371" d="M318 -5h-98q-4 0 -4 4l-163 683q-1 4 2 4h99q3 0 4 -4q0 -2 81 -341t82 -342q0 -4 -3 -4z" />
<glyph unicode="]" horiz-adv-x="262" d="M199 -93h-163q-4 0 -4 4v78q0 4 4 4h72v670h-72q-4 0 -4 4v79q0 4 4 4h163v-843z" />
<glyph unicode="^" horiz-adv-x="469" d="M46 265l144 411q2 4 4 4h81q2 0 4 -4l143 -411q0 -4 -3 -4h-93q-1 0 -4 4l-86 269h-3q-86 -267 -87 -269q-1 -4 -5 -4h-92q-4 0 -3 4z" />
<glyph unicode="_" horiz-adv-x="442" d="M9 -146q-4 0 -4 4v74q0 5 4 5h425q3 0 3 -5v-74q0 -4 -3 -4h-425z" />
<glyph unicode="`" horiz-adv-x="398" d="M198 556l-82 141q-3 4 1 4h94q4 0 5 -4l63 -141q1 -4 -1 -4h-76q-4 0 -4 4z" />
<glyph unicode="a" horiz-adv-x="447" d="M206 75q26 0 40.5 2.5t27 14t12.5 34.5v77q-53 14 -92 14q-24 0 -40 -14.5t-16 -35.5v-31q0 -26 17.5 -43.5t50.5 -17.5zM172 -10q-61 0 -96.5 35t-35.5 91v52q0 58 39 90.5t92 32.5q20 0 49 -3.5t48 -7.5l18 -3v52q0 45 -19.5 59t-67.5 14q-16 0 -33 -1.5t-30 -3.5 t-24 -4t-18 -3l-6 -2q-4 -2 -4 3q-15 52 -18 71q-2 3 2 5q50 25 144 25q29 0 49.5 -2t47 -11t43 -25.5t28 -48.5t11.5 -77v-324q0 -4 -4 -4h-98q-3 0 -3 4v16q-21 -30 -114 -30z" />
<glyph unicode="b" horiz-adv-x="466" d="M249 88q15 0 24.5 3t21.5 13t17.5 35.5t5.5 66.5v70q0 39 -5 64t-15.5 35.5t-19.5 13.5t-24 3q-13 0 -34.5 -5t-35.5 -10l-15 -5v-227q0 -57 80 -57zM166 0h-102q-4 0 -4 4v672q0 4 4 4h102q3 0 3 -4v-208q71 19 103 19q33 0 54.5 -5t47.5 -23t39.5 -62t13.5 -113v-85 q0 -57 -9.5 -97t-23 -61t-36.5 -32.5t-40 -13.5t-43 -2q-84 0 -106 32v-22q0 -3 -3 -3z" />
<glyph unicode="c" horiz-adv-x="414" d="M232 -8q-44 0 -71.5 5.5t-57 23.5t-44 60t-14.5 108v109q0 52 12 89.5t29.5 57t45 30.5t49.5 13.5t52 2.5q86 0 128 -21q3 -3 2 -6l-21 -73q-1 -2 -4 -2q-1 0 -6.5 0.5t-15 1.5t-21 2.5t-27.5 2t-32 0.5q-82 0 -82 -107v-93q0 -36 6.5 -59.5t20 -33.5t25.5 -13t30 -3 q26 0 52 2.5t38 5t14 3.5q4 0 5 -3q0 -1 11.5 -37.5t11.5 -37.5q2 -3 -2 -5q-46 -23 -134 -23z" />
<glyph unicode="d" horiz-adv-x="466" d="M402 0h-101q-4 0 -4 3v22q-9 -14 -38 -24t-68 -10q-33 0 -54 5t-46.5 23.5t-38.5 63.5t-13 115v87q0 68 13.5 112t39.5 62t47.5 23t54.5 5q14 0 40 -4.5t44 -9.5l19 -5v208q0 4 4 4h101q4 0 4 -4v-672q0 -4 -4 -4zM217 86q80 0 80 59v227q-54 20 -84 20q-15 0 -24 -3 t-19.5 -13.5t-15.5 -35t-5 -63.5v-73q0 -40 5.5 -65.5t17 -36t21 -13.5t24.5 -3z" />
<glyph unicode="e" horiz-adv-x="445" d="M147 277h145q0 69 -18.5 93.5t-51.5 24.5q-35 0 -55 -23.5t-20 -94.5zM233 -9q-28 0 -50.5 3t-51.5 15.5t-48 34t-32.5 62t-13.5 96.5v83q0 53 13 92.5t31.5 60.5t45.5 33.5t48.5 15.5t46.5 3q26 0 46 -2.5t46.5 -15t43.5 -33.5t29.5 -62t12.5 -97v-77h-253 q0 -73 22.5 -96t64.5 -23q19 0 39.5 1.5t36.5 3.5t29 4t21 3l8 2q2 1 4 -3q0 -1 3 -12.5t6.5 -23.5t6 -23t2.5 -12q0 -6 -2 -7q-78 -26 -155 -26z" />
<glyph unicode="f" horiz-adv-x="302" d="M80 0q-3 0 -3 4v393h-40q-3 0 -3 4v77q0 4 3 4h40v42q0 44 9.5 75.5t22.5 48t34 25t36.5 10.5t37.5 2q14 0 31 -2t28 -3.5t12 -2.5q3 -1 3 -5q0 -3 -5 -38.5t-6 -40.5q0 -3 -4 -3l-8 1q-9 1 -20.5 1.5t-19.5 0.5q-43 0 -43 -68v-43h81q4 0 4 -4v-77q0 -4 -4 -4h-81v-393 q0 -4 -3 -4h-102z" />
<glyph unicode="g" horiz-adv-x="461" d="M208 88q13 0 34 5t36 9l14 5v229q0 56 -80 56q-21 0 -33.5 -5.5t-23.5 -33t-11 -79.5v-70q0 -72 16 -94t48 -22zM209 -203q-43 0 -81.5 6t-53 10.5t-18.5 6.5q-3 1 -1 5q0 1 11.5 38.5t11.5 38.5q1 4 4 3q42 -14 124 -14q20 0 32.5 2.5t26.5 10.5t20.5 26t6.5 46v38 q-68 -18 -103 -18t-57.5 5.5t-47.5 23.5t-37.5 61t-12.5 110v84q0 68 12 112t36 63.5t47 25.5t58 6q84 0 105 -31v22q0 4 4 4h102q3 0 3 -4v-502q0 -50 -12 -84.5t-29 -53t-45.5 -28t-50 -11.5t-55.5 -2z" />
<glyph unicode="h" horiz-adv-x="477" d="M64 0q-4 0 -4 4v672q0 4 4 4h102q3 0 3 -4v-215q70 26 105 26q25 0 41.5 -2t38.5 -12t35.5 -28t23 -53t9.5 -84v-304q0 -4 -3 -4h-102q-3 0 -3 4v298q0 57 -14.5 74t-43.5 17q-14 0 -35.5 -6.5t-36.5 -12.5l-15 -6v-364q0 -4 -3 -4h-102z" />
<glyph unicode="i" horiz-adv-x="229" d="M63 0q-3 0 -3 4v474q0 4 3 4h102q4 0 4 -4v-474q0 -4 -4 -4h-102zM62 578q-3 0 -3 4v94q0 4 3 4h105q3 0 3 -4v-94q0 -4 -3 -4h-105z" />
<glyph unicode="j" horiz-adv-x="240" d="M40 -186q-14 0 -31 2t-29 4l-11 2q-3 2 -3 5q0 1 6 40.5t7 40.5q0 4 3 4l8 -1q9 -1 20.5 -2t19.5 -1q41 0 41 70v500q0 4 3 4h102q4 0 4 -4v-500q0 -45 -9.5 -77t-22.5 -48.5t-34 -25.5t-36.5 -11t-37.5 -2zM73 578q-3 0 -3 4v94q0 4 3 4h104q4 0 4 -4v-94q0 -4 -4 -4 h-104z" />
<glyph unicode="k" horiz-adv-x="460" d="M64 0q-4 0 -4 4v672q0 4 4 4h102q3 0 3 -4v-378h32q97 177 98 180q3 4 6 4h115q5 0 1 -4l-131 -226q150 -245 151 -248q2 -4 -1 -4h-118q-4 0 -5 4l-117 201h-31v-201q0 -4 -3 -4h-102z" />
<glyph unicode="l" horiz-adv-x="268" d="M195 -6q-38 0 -58.5 4t-40.5 20t-28.5 50t-8.5 91v517q0 4 3 4h101q4 0 4 -4v-518q0 -43 10.5 -56.5t31.5 -13.5q8 0 25 2l17 1q4 0 4 -3q1 -1 6 -40.5t6 -40.5q0 -3 -3 -5q-16 -8 -69 -8z" />
<glyph unicode="m" horiz-adv-x="724" d="M64 0q-4 0 -4 4v474q0 4 4 4h102q3 0 3 -4v-17q69 26 104 26q46 0 70.5 -9.5t42.5 -34.5q77 44 136 44q33 0 54.5 -5t45 -21.5t35.5 -55t12 -97.5v-304q0 -4 -3 -4h-102q-3 0 -3 4v298q0 58 -14 74.5t-44 16.5q-14 0 -35.5 -7.5t-36.5 -14.5l-15 -7q3 -18 3 -56v-304 q0 -4 -3 -4h-102q-3 0 -3 4v298q0 41 -8.5 61.5t-19 25t-29.5 4.5q-14 0 -35 -6.5t-35 -12.5l-15 -6v-364q0 -4 -3 -4h-102z" />
<glyph unicode="n" horiz-adv-x="477" d="M64 0q-4 0 -4 4v474q0 4 4 4h102q3 0 3 -4v-17q71 26 105 26q24 0 40.5 -2t39 -12t36 -28t23 -53t9.5 -84v-304q0 -4 -3 -4h-102q-3 0 -3 4v298q0 58 -14 74.5t-44 16.5q-14 0 -35.5 -6.5t-36.5 -12.5l-15 -6v-364q0 -4 -3 -4h-102z" />
<glyph unicode="o" horiz-adv-x="450" d="M224 87q18 0 29 3t23 14t17.5 36t5.5 65v75q0 72 -18.5 94t-55.5 22q-38 0 -57.5 -22t-19.5 -94v-75q0 -75 19 -96.5t57 -21.5zM224 -8q-42 0 -70 6t-57 25.5t-43.5 63.5t-14.5 112v88q0 54 11 93t27 60t42.5 33t49.5 15t56 3q32 0 53.5 -2.5t48.5 -14t43 -32t27.5 -60 t11.5 -94.5v-89q0 -56 -11 -96t-27 -61t-43 -33t-49 -14.5t-55 -2.5z" />
<glyph unicode="p" horiz-adv-x="466" d="M64 482h102q3 0 3 -4v-22q21 31 105 31q26 0 43 -2t40 -13.5t36.5 -32.5t23.5 -61.5t10 -97.5v-84q0 -56 -10 -95.5t-24.5 -60t-37.5 -32t-40.5 -14t-42.5 -2.5q-14 0 -40 4.5t-44 9.5l-19 4v-204q0 -4 -4 -4h-101q-4 0 -4 4v672q0 4 4 4zM249 392q-80 0 -80 -55v-232 q54 -18 84 -18q15 0 24.5 3.5t20 14t15.5 35.5t5 64v70q0 40 -5.5 65.5t-17.5 36t-21.5 13.5t-24.5 3z" />
<glyph unicode="q" horiz-adv-x="466" d="M217 392q-15 0 -24.5 -3t-21 -13.5t-17 -36t-5.5 -65.5v-72q0 -39 5 -63.5t15.5 -35t19.5 -13.5t24 -3q13 0 34 4.5t35 8.5l15 5v232q0 55 -80 55zM301 482h102q3 0 3 -4v-672q0 -4 -3 -4h-102q-4 0 -4 4v204q-71 -18 -103 -18q-26 0 -43 2.5t-40 13.5t-37 31.5t-24 60 t-10 94.5v86q0 57 9.5 97.5t23 61.5t36.5 32.5t40 13.5t43 2q84 0 105 -31v22q0 4 4 4z" />
<glyph unicode="r" horiz-adv-x="362" d="M64 0q-4 0 -4 4v474q0 4 4 4h102q3 0 3 -4v-19q52 28 85 28q62 0 88 -17q3 -1 1 -5q0 -1 -11.5 -38t-11.5 -38q-1 -4 -5 -3q-16 8 -71 8q-14 0 -32.5 -8t-30.5 -16l-12 -7v-359q0 -4 -3 -4h-102z" />
<glyph unicode="s" horiz-adv-x="427" d="M215 -8q-100 0 -166 22q-2 1 -2 5l21 76q1 3 5 3q2 -1 21 -5t54.5 -8t66.5 -4q34 0 51 8.5t17 36.5v25q0 20 -17.5 31.5t-66.5 18.5q-146 21 -146 120v49q0 120 160 120q25 0 49.5 -2t41.5 -5t30 -6.5t20 -5.5l8 -2q1 -1 1 -5q0 -1 -9 -36.5t-10 -36.5q-2 -2 -3 -2l-7 1 q-8 2 -21 4t-28 4t-34.5 3.5t-36.5 1.5q-58 0 -58 -41v-26q0 -19 19.5 -29.5t65.5 -16.5q72 -9 108 -37t36 -83v-49q0 -42 -14 -69.5t-40.5 -39.5t-52.5 -16t-63 -4z" />
<glyph unicode="t" horiz-adv-x="297" d="M208 -5q-37 0 -57 3.5t-41 18.5t-30 50t-9 92v238h-42q-3 0 -3 4v78q0 3 3 3h42v154q0 4 3 4h102q3 0 3 -4v-154h78q4 0 4 -3v-78q0 -4 -4 -4h-78v-238q0 -23 3.5 -38.5t10.5 -21.5t13 -8t15 -2q8 0 18 0.5t17 1.5l7 1q3 0 4 -4q0 -1 5.5 -40.5t6.5 -40.5q1 -3 -3 -5 q-21 -7 -68 -7z" />
<glyph unicode="u" horiz-adv-x="476" d="M414 482q3 0 3 -4v-474q0 -4 -3 -4h-102q-3 0 -3 4v13q-71 -25 -105 -25q-31 0 -51.5 4.5t-45.5 20.5t-38 55t-13 99v307q0 4 3 4h102q3 0 3 -4v-300q0 -57 14 -74t44 -17q14 0 35.5 5.5t36.5 11.5l15 6v368q0 4 3 4h102z" />
<glyph unicode="v" horiz-adv-x="435" d="M168 0q-3 0 -4 4l-146 474q-1 4 1 4h108q5 0 5 -4l82 -316h11q78 314 79 316q0 4 4 4h107q3 0 2 -4l-146 -474q-1 -4 -3 -4h-100z" />
<glyph unicode="w" horiz-adv-x="626" d="M133 0q-2 0 -3 4l-101 474q0 4 2 4h104q4 0 4 -4l58 -314h7q69 218 70 222q2 3 4 3h73q1 0 3 -3l71 -222h8q53 311 53 314q2 4 5 4h104q3 0 2 -4l-100 -474q0 -4 -4 -4h-96q-2 0 -3 4l-76 245h-8q-77 -242 -78 -245q-1 -4 -3 -4h-96z" />
<glyph unicode="x" horiz-adv-x="435" d="M22 0q-4 0 -2 4l138 247q-125 224 -127 228q-1 1 -0.5 2t1.5 1h113q4 0 5 -4l64 -134h9q64 131 64 134q4 4 5 4h110q1 0 2 -1t0 -2l-126 -228q136 -244 137 -247q3 -4 -1 -4h-112q-2 0 -5 4l-75 153h-9q-74 -150 -76 -153q-3 -4 -4 -4h-111z" />
<glyph unicode="y" horiz-adv-x="434" d="M61 -180q-3 0 -3 4q1 2 5.5 43t4.5 43q0 4 4 4h23q12 0 20 3t20 18.5t20 44.5l10 39q-145 456 -146 459q-2 4 1 4h107q4 0 4 -4l85 -308h8q81 305 81 308q2 4 5 4h104q3 0 2 -4l-171 -529q-15 -46 -29.5 -73.5t-33.5 -39t-34 -14t-44 -2.5h-43z" />
<glyph unicode="z" horiz-adv-x="414" d="M48 0q-3 0 -3 4v82q0 3 4 8l189 288v7h-182q-3 0 -3 5v84q0 4 3 4h311q3 0 3 -4v-84q0 -4 -2 -7l-189 -287v-8h191q3 0 3 -4v-84q0 -4 -3 -4h-322z" />
<glyph unicode="{" horiz-adv-x="302" d="M212 -91q-52 0 -76 28.5t-24 94.5v163q0 44 -13 67t-47 23q-3 0 -3 4v81q0 4 3 4q35 0 47.5 22.5t12.5 67.5v162q0 66 24 95t76 29h54q3 0 3 -4v-78q0 -3 -3 -3h-27q-36 0 -36 -47v-165q0 -61 -12.5 -84.5t-41.5 -37.5v-4q29 -14 41.5 -37t12.5 -83v-167q0 -45 37 -45h26 q3 0 3 -5v-77q0 -4 -3 -4h-54z" />
<glyph unicode="|" horiz-adv-x="266" d="M91 -94q-3 0 -3 4v836q0 4 3 4h84q3 0 3 -4v-836q0 -4 -3 -4h-84z" />
<glyph unicode="}" horiz-adv-x="302" d="M90 -91h-53q-4 0 -4 4v77q0 5 4 5h26q36 0 36 45v167q0 60 12.5 83t41.5 37v4q-29 14 -41.5 37.5t-12.5 84.5v165q0 47 -36 47h-26q-4 0 -4 3v78q0 4 4 4h53q53 0 77 -29t24 -95v-162q0 -45 12.5 -67.5t46.5 -22.5q4 0 4 -4v-81q0 -4 -4 -4q-34 0 -46.5 -23t-12.5 -67 v-163q0 -66 -24.5 -94.5t-76.5 -28.5z" />
<glyph unicode="~" horiz-adv-x="469" d="M64 283q0 9 5 16q45 45 89 45q32 0 81 -29.5t75 -29.5q19 0 38 11.5t31.5 23t15.5 11.5q4 0 4 -6v-55q0 -10 -5 -16q-47 -47 -90 -47q-32 0 -80 30t-73 30q-19 0 -39 -11t-33.5 -22.5t-15.5 -11.5q-3 0 -3 6v55z" />
<glyph unicode="&#xa1;" horiz-adv-x="249" d="M80 680h101q3 0 3 -4v-104q0 -4 -3 -4h-101q-4 0 -4 4v104q0 4 4 4zM85 484h90q3 0 3 -4v-476q0 -4 -3 -4h-90q-3 0 -3 4v476q0 4 3 4z" />
<glyph unicode="&#xa2;" horiz-adv-x="454" d="M215 -100q-3 0 -3 5v91q-22 2 -37 4.5t-38 14.5t-37 31.5t-24.5 56.5t-10.5 88v103q0 60 14.5 100.5t40.5 58.5t45.5 24t46.5 9v90q0 4 3 4h61q3 0 3 -4v-89q29 -1 54.5 -6.5t35.5 -9.5t13 -6q4 -2 2 -5l-25 -74q-1 -2 -4 -2q-1 0 -6 1t-13.5 2t-20 2t-27 2t-32.5 1 q-38 0 -60 -21.5t-22 -85.5v-86q0 -67 21.5 -88t60.5 -21q26 0 51.5 3t38 5.5t13.5 3.5q4 0 5 -3q0 -1 12 -37t13 -38q1 -4 -2 -6l-5 -2q-5 -2 -14 -5t-21 -6.5t-30 -6t-38 -3.5v-90q0 -5 -3 -5h-61z" />
<glyph unicode="&#xa3;" horiz-adv-x="469" d="M88 0q-3 0 -3 3v271h-30q-3 0 -3 4v73q0 4 3 4h30v173q0 157 182 157q43 0 80.5 -8t52 -14.5t16.5 -8.5q4 -1 2 -6q0 -2 -10 -42t-11 -42q0 -3 -4 -3q-63 21 -124 21q-34 0 -52 -13.5t-18 -55.5v-158h132q4 0 4 -4v-73q0 -4 -4 -4h-132v-171h212q3 0 3 -4v-95q0 -4 -3 -4 h-323z" />
<glyph unicode="&#xa4;" horiz-adv-x="409" d="M204 216q30 0 46 13.5t16 55.5v37q0 41 -16 54t-44 13q-29 0 -46 -14t-17 -53v-37q0 -42 15.5 -55.5t45.5 -13.5zM141 80h-70q-4 0 -4 4q1 58 31 89q-32 32 -32 101v60q0 66 33 97q-30 30 -32 90q0 4 4 4h69q3 0 3 -4q9 -51 63 -51q28 0 41.5 11t17.5 40q0 4 4 4h70 q3 0 3 -4q-1 -58 -30 -89q31 -29 31 -98v-60q0 -73 -32 -102q30 -31 31 -88q0 -4 -3 -4h-70q-3 0 -3 4q-4 29 -19.5 39.5t-43.5 10.5q-17 0 -27.5 -2.5t-20 -14t-11.5 -33.5q0 -4 -3 -4z" />
<glyph unicode="&#xa5;" horiz-adv-x="489" d="M191 0q-3 0 -3 4v136h-105q-3 0 -3 4v63q0 4 3 4h105v51h-105q-3 0 -3 4v63q0 4 3 4h74q-142 341 -143 343q-2 4 2 4h114q2 0 4 -4l110 -280h4q107 277 108 280q2 4 4 4h113q4 0 2 -4l-144 -343h72q4 0 4 -4v-63q0 -4 -4 -4h-102v-51h102q4 0 4 -4v-63q0 -4 -4 -4h-102 v-136q0 -4 -3 -4h-107z" />
<glyph unicode="&#xa6;" horiz-adv-x="266" d="M90 -94q-3 0 -3 4v357q0 4 3 4h84q3 0 3 -4v-357q0 -4 -3 -4h-84zM90 389q-3 0 -3 4v353q0 4 3 4h84q3 0 3 -4v-353q0 -4 -3 -4h-84z" />
<glyph unicode="&#xa7;" horiz-adv-x="451" d="M55 20q-3 1 -1 6q1 4 12.5 38t11.5 35q1 3 5 3q1 -1 20 -5.5t53.5 -9t65.5 -4.5q36 0 52 9.5t16 35.5v22q0 24 -18.5 34t-65.5 17q-23 3 -39 6.5t-38 12.5t-35.5 20.5t-23.5 32t-10 47.5v47q0 50 27 77q-27 25 -27 73v48q0 67 42.5 93.5t118.5 26.5q75 0 147 -24 q2 -1 2 -4q-21 -63 -21 -72q0 -3 -4 -3q-2 1 -18.5 4.5t-47 7.5t-58.5 4q-59 0 -59 -41v-24q0 -21 21 -30.5t65 -15.5q30 -4 53.5 -10.5t45 -19.5t33.5 -35.5t12 -53.5v-49q0 -52 -24 -78q24 -24 24 -70v-48q0 -35 -10.5 -59.5t-25.5 -38t-39.5 -20.5t-45 -9t-49.5 -2 q-45 0 -87.5 7t-58.5 12t-21 7zM280 279q18 11 18 46v22q0 7 -3.5 12.5t-12.5 10t-17.5 8t-26.5 9.5t-32 12l-21 5q-5 -1 -10.5 -5t-11.5 -14.5t-6 -25.5v-23q0 -35 89 -48q24 -4 34 -9z" />
<glyph unicode="&#xa8;" horiz-adv-x="398" d="M75 577q-4 0 -4 4v95q0 4 4 4h80q4 0 4 -4v-95q0 -4 -4 -4h-80zM243 577q-3 0 -3 4v95q0 4 3 4h80q3 0 3 -4v-95q0 -4 -3 -4h-80z" />
<glyph unicode="&#xa9;" horiz-adv-x="680" d="M340 685q119 0 202.5 -101t83.5 -245q0 -143 -84 -244t-202 -101q-119 0 -203 101t-84 244q0 144 84 245t203 101zM340 54q96 0 163.5 83.5t67.5 201.5q0 119 -67.5 202.5t-163.5 83.5t-164.5 -84t-68.5 -202t68.5 -201.5t164.5 -83.5zM349 149q-67 0 -105 31.5 t-38 122.5v78q0 150 143 150q64 0 98 -17q1 0 1 -4q0 -1 -8 -28t-9 -28q-2 -3 -3 -2h-4q-5 1 -12 2.5t-15.5 2.5t-20.5 1.5t-24 0.5q-64 0 -64 -84v-68q0 -29 5 -47.5t15.5 -26t20 -9.5t23.5 -2q13 0 25.5 1t21.5 2.5t16.5 3t11.5 2.5l4 1q3 0 4 -3q0 -2 8 -29t9 -28 q0 -4 -2 -4q-38 -19 -101 -19z" />
<glyph unicode="&#xaa;" horiz-adv-x="261" d="M104 385q-37 0 -58 21.5t-21 54.5v30q0 34 22 53.5t54 19.5l73 -9v30q0 30 -13 39.5t-42 9.5q-16 0 -32 -2.5t-24 -4.5t-9 -3q-2 -1 -3 2l-10 36q0 2 1 3t9.5 4.5t29 7.5t44.5 4q22 0 36 -2.5t31 -11t25.5 -29.5t8.5 -53v-193q0 -2 -3 -2h-47q-2 0 -2 2v15 q-14 -22 -70 -22zM119 430q55 0 55 38v47q-39 8 -63 8q-17 0 -27 -9.5t-10 -23.5v-20q0 -17 11 -28.5t34 -11.5z" />
<glyph unicode="&#xab;" horiz-adv-x="509" d="M428 487q53 -53 55 -57q3 -2 0 -6l-133 -160q132 -158 133 -160q3 -2 0 -5q-52 -52 -55 -58q-3 -3 -4 0l-192 220q-3 3 0 6l192 220q2 4 4 0zM223 487l56 -57q3 -2 0 -6l-134 -160q132 -158 134 -160q3 -2 0 -5l-56 -58q-2 -2 -4 0l-192 220q-2 4 0 6t96.5 110.5 t95.5 109.5q2 4 4 0z" />
<glyph unicode="&#xac;" horiz-adv-x="469" d="M326 230h-272q-3 0 -3 4v85q0 4 3 4h362q3 0 3 -4v-217q0 -4 -3 -4h-86q-4 0 -4 4v128z" />
<glyph unicode="&#xad;" horiz-adv-x="335" d="M44 228q-4 0 -4 4v86q0 4 4 4h247q4 0 4 -4v-86q0 -4 -4 -4h-247z" />
<glyph unicode="&#xae;" horiz-adv-x="380" d="M166 498h27q24 0 24 26v14q0 26 -24 26h-27v-66zM164 386h-35q-2 0 -2 1v213h68q61 0 61 -61v-16q0 -41 -26 -53l30 -83q0 -1 -1 -1h-39q-1 0 -1 1l-26 75h-27v-75q0 -1 -2 -1zM190 335q53 0 90 45.5t37 110.5t-37 111t-90 46t-90.5 -46t-37.5 -111t37.5 -110.5 t90.5 -45.5zM190 684q67 0 114 -56.5t47 -136.5t-47 -136.5t-114 -56.5t-114 56.5t-47 136.5t47 136.5t114 56.5z" />
<glyph unicode="&#xaf;" horiz-adv-x="398" d="M321 590h-244q-3 0 -3 4v76q0 4 3 4h244q3 0 3 -4v-76q0 -4 -3 -4z" />
<glyph unicode="&#xb0;" horiz-adv-x="361" d="M177 478q21 0 32 9.5t11 39.5v42q0 29 -10.5 38.5t-31.5 9.5t-32.5 -10t-11.5 -38v-42q0 -30 11 -39.5t32 -9.5zM177 405q-49 0 -79.5 23t-30.5 89v63q0 109 113 109q21 0 37.5 -3.5t34 -14t27 -33.5t9.5 -58v-63q0 -67 -30.5 -89.5t-80.5 -22.5z" />
<glyph unicode="&#xb1;" horiz-adv-x="469" d="M193 158q-3 0 -3 4v155h-137q-3 0 -3 4v86q0 4 3 4h137v154q0 4 3 4h83q4 0 4 -4v-154h136q3 0 3 -4v-86q0 -4 -3 -4h-136v-155q0 -4 -4 -4h-83zM53 0q-3 0 -3 4v83q0 4 3 4h363q3 0 3 -4v-83q0 -4 -3 -4h-363z" />
<glyph unicode="&#xb2;" horiz-adv-x="268" d="M231 270h-196l-2 1v51q0 3 1 4q103 134 124 172q18 32 18 50v34q0 20 -9.5 30.5t-19.5 12.5t-25 2q-16 0 -35 -3.5t-30 -6.5t-12 -4q-3 0 -3 2q0 1 -5 22l-5 21q0 2 1 3q40 20 89 20q109 0 109 -93v-44q0 -24 -18.5 -60.5t-38.5 -66t-63 -88.5v-6h120q2 0 2 -2v-49 q0 -2 -2 -2z" />
<glyph unicode="&#xb3;" horiz-adv-x="272" d="M37 284q-1 1 -1 3q0 1 4 23l5 21q0 1 3 1l5 -1q5 -1 13.5 -3t19 -4t22.5 -3t23 -1q55 0 55 45v33q0 54 -49 54h-38q-3 0 -3 2v47q0 2 3 2h39q16 0 28.5 12.5t12.5 34.5v33q0 45 -53 45q-16 0 -35.5 -3t-30.5 -6t-12 -4q-3 -1 -3 1q0 1 -5 22l-4 22q0 2 1 3t11 5t31.5 8.5 t45.5 4.5q21 0 36 -2.5t33.5 -11t28.5 -28t10 -49.5v-40q0 -19 -6.5 -35.5t-13.5 -23.5l-7 -7v-5q4 -2 9.5 -7t15 -25t9.5 -46v-43q0 -30 -9.5 -49.5t-28 -28t-34 -11t-37.5 -2.5q-26 0 -49.5 4.5t-33.5 8.5z" />
<glyph unicode="&#xb4;" horiz-adv-x="398" d="M201 556q-2 -4 -5 -4h-76q-2 0 -1 4l63 141q3 4 6 4h93q3 0 2 -4z" />
<glyph unicode="&#xb6;" horiz-adv-x="544" d="M231 -181q-4 0 -4 5v418q-29 0 -57.5 7t-59 25t-49.5 56.5t-19 92.5v79q0 52 19 89.5t49.5 55t59.5 25t59 7.5h257q3 0 3 -4v-851q0 -5 -3 -5h-92q-4 0 -4 5v762h-63v-762q0 -5 -3 -5h-93z" />
<glyph unicode="&#xb7;" horiz-adv-x="217" d="M61 208q-3 0 -3 4v108q0 4 3 4h96q4 0 4 -4v-108q0 -4 -4 -4h-96z" />
<glyph unicode="&#xb8;" horiz-adv-x="398" d="M219 -156h-94q-3 0 -1 5q0 1 16 39.5t32 77.5t16 40q3 4 6 4h75q3 0 2 -4l-47 -157q-1 -5 -5 -5z" />
<glyph unicode="&#xb9;" horiz-adv-x="262" d="M174 270h-48q-2 0 -2 2v340q-62 -54 -63 -55q-2 0 -3 1l-6 24l-6 24q0 1 3 4q1 1 36 33t37 34q1 1 4 1h48q3 0 3 -2v-404q0 -2 -3 -2z" />
<glyph unicode="&#xba;" horiz-adv-x="260" d="M128 436q27 0 40.5 14.5t13.5 63.5v42q0 47 -13 61.5t-39 14.5q-27 0 -41 -14.5t-14 -61.5v-42q0 -49 13.5 -63.5t39.5 -14.5zM128 387q-24 0 -40 3.5t-32.5 15t-25 38t-8.5 67.5v49q0 75 28.5 98.5t79.5 23.5q23 0 38 -3t32.5 -14t26 -37t8.5 -67v-50q0 -42 -8.5 -68.5 t-25.5 -37.5t-32.5 -14.5t-40.5 -3.5z" />
<glyph unicode="&#xbb;" horiz-adv-x="503" d="M280 41q-2 4 -55 57q-2 4 0 6l134 160q-133 158 -134 160q-3 2 0 5q52 52 55 58q2 3 5 0q2 -3 96.5 -111t95.5 -109q3 -3 0 -6l-192 -220q-3 -3 -5 0zM81 41l-55 57q-3 3 0 6l134 160q-133 158 -134 160q-3 2 0 5q52 52 55 58q3 3 5 0q1 -2 95.5 -110.5t96.5 -109.5 q3 -3 0 -6q-2 -2 -96.5 -110.5t-95.5 -109.5q-2 -3 -5 0z" />
<glyph unicode="&#xbc;" horiz-adv-x="682" d="M174 -6q-4 0 -2 4q15 58 131.5 341.5t131.5 341.5q2 4 5 4h56q3 0 2 -4q0 -1 -65.5 -171.5t-130.5 -340.5l-66 -170q-1 -5 -5 -5h-57zM567 0h-46q-2 0 -2 2v70h-135q-1 0 -1 2v51q0 4 1 5t48.5 138t47.5 138q2 2 3 2h52q1 0 1 -2l-94 -275v-4h77v77q0 2 2 2h46q3 0 3 -2 v-77h35q3 0 3 -4v-48q0 -3 -3 -3h-35v-70q0 -2 -3 -2zM203 272h-49q-2 0 -2 2v340q-62 -54 -62 -55q-3 -1 -3 1l-6 24l-6 24q0 2 2 4l74 67q1 1 3 1h49q3 0 3 -2v-404q0 -2 -3 -2z" />
<glyph unicode="&#xbd;" horiz-adv-x="712" d="M176 -6q-4 0 -2 4q15 60 131.5 343t131.5 340q2 4 5 4h56q3 0 2 -4q-1 -2 -131.5 -341.5t-130.5 -340.5q-1 -5 -4 -5h-58zM635 0h-197l-1 1v51q0 3 1 4q9 11 30.5 39.5t30 40t25 34t24 34.5t16.5 27.5t12.5 26.5t3.5 20v34q0 45 -54 45q-16 0 -35.5 -3.5t-30.5 -6.5 t-12 -4q-2 0 -2 2q0 1 -5 22l-5 21q0 2 1 3q40 20 89 20q109 0 109 -93v-44q0 -36 -44 -123t-60 -92l-17 -6h121q2 0 2 -2v-49q0 -2 -2 -2zM203 272h-49q-2 0 -2 2v340q-62 -54 -62 -55q-3 -1 -3 1l-6 24l-6 24q0 2 2 4l74 67q1 1 3 1h49q3 0 3 -2v-404q0 -2 -3 -2z" />
<glyph unicode="&#xbe;" horiz-adv-x="739" d="M230 -6q-3 0 -1 4q15 57 131.5 340.5t131.5 342.5q0 4 4 4h57q4 0 1 -4q-1 -2 -131 -341.5t-130 -340.5q-3 -5 -6 -5h-57zM77 288q-1 1 -1 3q0 1 4 23l5 21q0 1 3 1l5 -1q5 -1 13.5 -3t18.5 -4t22.5 -3t22.5 -1q55 0 55 45v33q0 54 -48 54h-39q-3 0 -3 2v47q0 2 3 2h39 q17 0 29.5 12.5t12.5 34.5v33q0 45 -53 45q-17 0 -36 -3t-30 -6t-12 -4q-4 -2 -4 1q0 1 -4 22l-4 22q0 2 1 3t11 5t31.5 8.5t45.5 4.5q21 0 36 -2.5t33 -11t28 -28t10 -49.5v-40q0 -19 -6.5 -36t-13.5 -24l-6 -7v-4q4 -2 9.5 -7t14.5 -25t9 -46v-43q0 -30 -9.5 -49.5 t-28 -28t-34 -11t-37.5 -2.5q-25 0 -48.5 4.5t-33.5 8.5zM624 0h-46q-2 0 -2 2v70h-135q-1 1 -1 2v51q0 4 1 5t49 138t48 138l2 2h52q1 0 1 -2l-93 -275v-4h76v77q0 2 2 2h46q3 0 3 -2v-77h35q3 0 3 -4v-48q0 -3 -3 -3h-35v-70q0 -2 -3 -2z" />
<glyph unicode="&#xbf;" horiz-adv-x="391" d="M154 680h101q3 0 3 -4v-105q0 -4 -3 -4h-101q-3 0 -3 4v105q0 4 3 4zM155 490h98q3 0 3 -4v-42q0 -38 -17 -76t-37.5 -63.5t-37.5 -53.5t-17 -47v-42q0 -68 62 -68q25 0 54 5.5t45.5 11t17.5 6.5q5 2 5 -2q1 -4 10.5 -41.5t9.5 -40.5q0 -5 -1 -6q-5 -3 -19.5 -9.5 t-50 -14.5t-73.5 -8q-32 0 -57 5t-52.5 19.5t-43 48t-15.5 84.5v52q0 40 56 120.5t56 119.5v42q0 4 4 4z" />
<glyph unicode="&#xc0;" horiz-adv-x="521" d="M123 0h-111q-3 0 -2 4l192 672q0 4 4 4h124q3 0 4 -4l189 -672q2 -4 -3 -4h-111q-3 0 -4 4l-31 128h-215q-30 -125 -31 -128q-1 -4 -5 -4zM185 226h163l-72 301h-18zM267 756l-82 141q-3 4 1 4h94q4 0 5 -4l63 -141q1 -4 -1 -4h-76q-4 0 -4 4z" />
<glyph unicode="&#xc1;" horiz-adv-x="521" d="M123 0h-111q-3 0 -2 4l192 672q0 4 4 4h124q3 0 4 -4l189 -672q2 -4 -3 -4h-111q-3 0 -4 4l-31 128h-215q-30 -125 -31 -128q-1 -4 -5 -4zM185 226h163l-72 301h-18zM266 756q-2 -4 -5 -4h-76q-2 0 -1 4l63 141q3 4 6 4h93q3 0 2 -4z" />
<glyph unicode="&#xc2;" horiz-adv-x="521" d="M123 0h-111q-3 0 -2 4l192 672q0 4 4 4h124q3 0 4 -4l189 -672q2 -4 -3 -4h-111q-3 0 -4 4l-31 128h-215q-30 -125 -31 -128q-1 -4 -5 -4zM185 226h163l-72 301h-18zM214 751h-76q-2 0 -2 4q5 13 40.5 71.5t40.5 70.5q0 3 5 3h87q5 0 8 -4q1 -2 39 -70t40 -71q2 -4 -2 -4 h-75q-3 0 -5 4l-47 77h-3q-43 -74 -45 -77q-2 -4 -5 -4z" />
<glyph unicode="&#xc3;" horiz-adv-x="521" d="M123 0h-111q-3 0 -2 4l192 672q0 4 4 4h124q3 0 4 -4l189 -672q2 -4 -3 -4h-111q-3 0 -4 4l-31 128h-215q-30 -125 -31 -128q-1 -4 -5 -4zM185 226h163l-72 301h-18zM147 777q-3 0 -3 5v56q0 10 5 15q23 35 64 35q25 0 59 -19t52 -19q20 0 40 17.5t21 17.5q4 0 4 -5v-55 q0 -10 -5 -16q-32 -37 -65 -37q-25 0 -58.5 20t-50.5 20q-21 0 -41.5 -17.5t-21.5 -17.5z" />
<glyph unicode="&#xc4;" horiz-adv-x="521" d="M123 0h-111q-3 0 -2 4l192 672q0 4 4 4h124q3 0 4 -4l189 -672q2 -4 -3 -4h-111q-3 0 -4 4l-31 128h-215q-30 -125 -31 -128q-1 -4 -5 -4zM185 226h163l-72 301h-18zM142 777q-4 0 -4 4v95q0 4 4 4h80q4 0 4 -4v-95q0 -4 -4 -4h-80zM310 777q-3 0 -3 4v95q0 4 3 4h80 q3 0 3 -4v-95q0 -4 -3 -4h-80z" />
<glyph unicode="&#xc5;" horiz-adv-x="521" d="M123 0h-111q-3 0 -2 4l192 672q0 4 4 4h124q3 0 4 -4l189 -672q2 -4 -3 -4h-111q-3 0 -4 4l-31 128h-215q-30 -125 -31 -128q-1 -4 -5 -4zM266 733q-40 0 -64 17.5t-24 70.5v22q0 51 24.5 68.5t65.5 17.5q18 0 30 -2.5t26 -10.5t21.5 -26.5t7.5 -46.5v-22 q0 -29 -7.5 -47.5t-21.5 -27t-26.5 -11t-31.5 -2.5zM185 226h163l-72 301h-18zM266 782q19 0 29.5 8.5t10.5 35.5v12q0 26 -10 34.5t-29 8.5q-20 0 -31 -9t-11 -34v-12q0 -27 10.5 -35.5t30.5 -8.5z" />
<glyph unicode="&#xc6;" horiz-adv-x="781" d="M231 226h145v314h-18zM129 0h-112q-4 0 -1 4q1 3 153.5 336.5t153.5 334.5q1 5 5 5h404q3 0 3 -4v-94q0 -3 -3 -3h-243v-183h202q4 0 4 -5v-93q0 -4 -4 -4h-202v-193h243q3 0 3 -4v-93q0 -4 -3 -4h-356v132h-189q-52 -125 -53 -128q-3 -4 -5 -4z" />
<glyph unicode="&#xc7;" d="M263 -156h-94q-3 0 -1 5q0 1 11 28t26 63t21 52q-39 3 -68.5 14.5t-56.5 37.5t-41.5 74.5t-14.5 119.5v211q0 63 13.5 109t34 71t52 39.5t60 18.5t66.5 4q98 0 156 -29q3 -3 2 -6q-1 -2 -16.5 -43t-15.5 -42q-2 -3 -4 -2q-51 17 -122 17q-24 0 -40 -4t-34.5 -17.5 t-28 -45.5t-9.5 -83v-188q0 -49 8 -80t25 -45.5t34 -19.5t44 -5q19 0 39.5 2.5t36 5.5t28 6t20.5 6l8 2q2 2 4 -2l31 -85q2 -3 -2 -5q-61 -31 -125 -36l-42 -143q-1 -5 -5 -5z" />
<glyph unicode="&#xc8;" horiz-adv-x="462" d="M62 0v680h367q3 0 3 -4v-94q0 -3 -3 -3h-254v-184h214q3 0 3 -4v-93q0 -4 -3 -4h-214v-193h254q3 0 3 -4v-93q0 -4 -3 -4h-367zM237 756l-82 141q-3 4 1 4h94q4 0 5 -4l63 -141q1 -4 -1 -4h-76q-4 0 -4 4z" />
<glyph unicode="&#xc9;" horiz-adv-x="462" d="M62 0v680h367q3 0 3 -4v-94q0 -3 -3 -3h-254v-184h214q3 0 3 -4v-93q0 -4 -3 -4h-214v-193h254q3 0 3 -4v-93q0 -4 -3 -4h-367zM245 756q-2 -4 -5 -4h-76q-2 0 -1 4l63 141q3 4 6 4h93q3 0 2 -4z" />
<glyph unicode="&#xca;" horiz-adv-x="462" d="M62 0v680h367q3 0 3 -4v-94q0 -3 -3 -3h-254v-184h214q3 0 3 -4v-93q0 -4 -3 -4h-214v-193h254q3 0 3 -4v-93q0 -4 -3 -4h-367zM192 751h-76q-2 0 -2 4q5 13 40.5 71.5t40.5 70.5q0 3 5 3h87q5 0 8 -4q1 -2 39 -70t40 -71q2 -4 -2 -4h-75q-3 0 -5 4l-47 77h-3 q-43 -74 -45 -77q-2 -4 -5 -4z" />
<glyph unicode="&#xcb;" horiz-adv-x="462" d="M62 0v680h367q3 0 3 -4v-94q0 -3 -3 -3h-254v-184h214q3 0 3 -4v-93q0 -4 -3 -4h-214v-193h254q3 0 3 -4v-93q0 -4 -3 -4h-367zM115 777q-4 0 -4 4v95q0 4 4 4h80q4 0 4 -4v-95q0 -4 -4 -4h-80zM283 777q-3 0 -3 4v95q0 4 3 4h80q3 0 3 -4v-95q0 -4 -3 -4h-80z" />
<glyph unicode="&#xcc;" horiz-adv-x="226" d="M65 0q-3 0 -3 4v672q0 4 3 4h107q3 0 3 -4v-672q0 -4 -3 -4h-107zM119 756l-82 141q-3 4 1 4h94q4 0 5 -4l63 -141q1 -4 -1 -4h-76q-4 0 -4 4z" />
<glyph unicode="&#xcd;" horiz-adv-x="226" d="M65 0q-3 0 -3 4v672q0 4 3 4h107q3 0 3 -4v-672q0 -4 -3 -4h-107zM119 756q-2 -4 -5 -4h-76q-2 0 -1 4l63 141q3 4 6 4h93q3 0 2 -4z" />
<glyph unicode="&#xce;" horiz-adv-x="226" d="M65 0q-3 0 -3 4v672q0 4 3 4h107q3 0 3 -4v-672q0 -4 -3 -4h-107zM67 751h-76q-2 0 -2 4q5 13 40.5 71.5t40.5 70.5q0 3 5 3h87q5 0 8 -4q1 -2 39 -70t40 -71q2 -4 -2 -4h-75q-3 0 -5 4l-47 77h-3q-43 -74 -45 -77q-2 -4 -5 -4z" />
<glyph unicode="&#xcf;" horiz-adv-x="226" d="M65 0q-3 0 -3 4v672q0 4 3 4h107q3 0 3 -4v-672q0 -4 -3 -4h-107zM-5 777q-4 0 -4 4v95q0 4 4 4h80q4 0 4 -4v-95q0 -4 -4 -4h-80zM163 777q-3 0 -3 4v95q0 4 3 4h80q3 0 3 -4v-95q0 -4 -3 -4h-80z" />
<glyph unicode="&#xd0;" horiz-adv-x="532" d="M176 105h91q25 0 40 3.5t31.5 17t24.5 46t8 84.5v171q0 42 -6.5 71t-15 43.5t-24.5 22.5t-27.5 9.5t-30.5 1.5h-91v-186h83q4 0 4 -4v-83q0 -4 -4 -4h-83v-193zM263 0h-201v298h-35q-3 0 -3 4v83q0 4 3 4h35v291h201q25 0 43 -1.5t42.5 -6.5t42.5 -15t36.5 -28t30.5 -43 t19.5 -62.5t7.5 -85.5v-191q0 -50 -8 -90t-19.5 -65.5t-31 -43.5t-36.5 -27.5t-43 -14t-42 -5.5t-42 -1z" />
<glyph unicode="&#xd1;" horiz-adv-x="556" d="M63 0q-3 0 -3 4v672q0 4 3 4h122q5 0 6 -4l199 -471h10v471q0 4 3 4h105q3 0 3 -4v-672q0 -4 -3 -4h-124q-4 0 -5 4l-199 473h-11v-473q0 -4 -3 -4h-103zM164 777q-3 0 -3 5v56q0 10 5 15q23 35 64 35q24 0 58 -19t53 -19q20 0 40 17.5t21 17.5q4 0 4 -5v-55 q0 -10 -5 -16q-32 -37 -65 -37q-25 0 -58.5 20t-50.5 20q-21 0 -41.5 -17.5t-21.5 -17.5z" />
<glyph unicode="&#xd2;" horiz-adv-x="516" d="M262 -11q-37 0 -62 3t-57.5 17t-51.5 39t-33 73t-14 116v210q0 65 13.5 112t33 72t51 39t57.5 17t63 3t61.5 -2.5t57 -16t52.5 -38.5t34 -72t14 -114v-210q0 -58 -8.5 -101.5t-26.5 -69.5t-36.5 -42.5t-47 -23.5t-49 -9t-51.5 -2zM262 94q27 0 43 4.5t31.5 19t22.5 46 t7 82.5v190q0 50 -7 81t-23 45t-32 18.5t-42 4.5q-25 0 -41 -4.5t-31.5 -18.5t-23 -45.5t-7.5 -80.5v-190q0 -51 7.5 -83t23 -46.5t31 -18.5t41.5 -4zM264 756l-82 141q-3 4 1 4h94q4 0 5 -4l63 -141q1 -4 -1 -4h-76q-4 0 -4 4z" />
<glyph unicode="&#xd3;" horiz-adv-x="516" d="M262 -11q-37 0 -62 3t-57.5 17t-51.5 39t-33 73t-14 116v210q0 65 13.5 112t33 72t51 39t57.5 17t63 3t61.5 -2.5t57 -16t52.5 -38.5t34 -72t14 -114v-210q0 -58 -8.5 -101.5t-26.5 -69.5t-36.5 -42.5t-47 -23.5t-49 -9t-51.5 -2zM262 94q27 0 43 4.5t31.5 19t22.5 46 t7 82.5v190q0 50 -7 81t-23 45t-32 18.5t-42 4.5q-25 0 -41 -4.5t-31.5 -18.5t-23 -45.5t-7.5 -80.5v-190q0 -51 7.5 -83t23 -46.5t31 -18.5t41.5 -4zM263 756q-2 -4 -5 -4h-76q-2 0 -1 4l63 141q3 4 6 4h93q3 0 2 -4z" />
<glyph unicode="&#xd4;" horiz-adv-x="516" d="M262 94q27 0 43 4.5t31.5 19t22.5 46t7 82.5v190q0 50 -7 81t-23 45t-32 18.5t-42 4.5q-25 0 -41 -4.5t-31.5 -18.5t-23 -45.5t-7.5 -80.5v-190q0 -51 7.5 -83t23 -46.5t31 -18.5t41.5 -4zM262 -11q-37 0 -62 3t-57.5 17t-51.5 39t-33 73t-14 116v210q0 65 13.5 112 t33 72t51 39t57.5 17t63 3t61.5 -2.5t57 -16t52.5 -38.5t34 -72t14 -114v-210q0 -58 -8.5 -101.5t-26.5 -69.5t-36.5 -42.5t-47 -23.5t-49 -9t-51.5 -2zM211 751h-76q-2 0 -2 4q5 13 40.5 71.5t40.5 70.5q0 3 5 3h87q5 0 8 -4q1 -2 39 -70t40 -71q2 -4 -2 -4h-75q-3 0 -5 4 l-47 77h-3q-43 -74 -45 -77q-2 -4 -5 -4z" />
<glyph unicode="&#xd5;" horiz-adv-x="516" d="M262 94q27 0 43 4.5t31.5 19t22.5 46t7 82.5v190q0 50 -7 81t-23 45t-32 18.5t-42 4.5q-25 0 -41 -4.5t-31.5 -18.5t-23 -45.5t-7.5 -80.5v-190q0 -51 7.5 -83t23 -46.5t31 -18.5t41.5 -4zM262 -11q-37 0 -62 3t-57.5 17t-51.5 39t-33 73t-14 116v210q0 65 13.5 112 t33 72t51 39t57.5 17t63 3t61.5 -2.5t57 -16t52.5 -38.5t34 -72t14 -114v-210q0 -58 -8.5 -101.5t-26.5 -69.5t-36.5 -42.5t-47 -23.5t-49 -9t-51.5 -2zM144 777q-3 0 -3 5v56q0 10 5 15q23 35 64 35q25 0 58.5 -19t52.5 -19q20 0 40 17.5t21 17.5q4 0 4 -5v-55 q0 -10 -5 -16q-32 -37 -65 -37q-25 0 -58.5 20t-50.5 20q-21 0 -41.5 -17.5t-21.5 -17.5z" />
<glyph unicode="&#xd6;" horiz-adv-x="516" d="M262 -11q-37 0 -62 3t-57.5 17t-51.5 39t-33 73t-14 116v210q0 65 13.5 112t33 72t51 39t57.5 17t63 3t61.5 -2.5t57 -16t52.5 -38.5t34 -72t14 -114v-210q0 -58 -8.5 -101.5t-26.5 -69.5t-36.5 -42.5t-47 -23.5t-49 -9t-51.5 -2zM262 94q27 0 43 4.5t31.5 19t22.5 46 t7 82.5v190q0 50 -7 81t-23 45t-32 18.5t-42 4.5q-25 0 -41 -4.5t-31.5 -18.5t-23 -45.5t-7.5 -80.5v-190q0 -51 7.5 -83t23 -46.5t31 -18.5t41.5 -4zM139 777q-4 0 -4 4v95q0 4 4 4h80q4 0 4 -4v-95q0 -4 -4 -4h-80zM307 777q-3 0 -3 4v95q0 4 3 4h80q3 0 3 -4v-95 q0 -4 -3 -4h-80z" />
<glyph unicode="&#xd7;" horiz-adv-x="469" d="M123 80l-15 15q-14 15 -27.5 29.5t-14.5 14.5q-2 2 0 6l107 131q-106 129 -107 131q-3 3 0 6q56 56 56 59q4 2 5 0l108 -131q106 129 107 131q2 2 5 0q2 -4 57 -59q3 -3 0 -6l-107 -131q106 -129 107 -131q4 -2 0 -6q-55 -55 -57 -59q-3 -2 -5 0l-107 131 q-106 -129 -108 -131t-4 0z" />
<glyph unicode="&#xd8;" horiz-adv-x="516" d="M56 -40q-2 0 -1 4q15 31 38 82q-49 59 -49 191v210q0 65 13.5 112t33 72t51 39t57.5 17t63 3q64 0 99 -11q3 8 7.5 18t7.5 15l2 5q2 4 5 4h87q5 0 2 -4l-39 -86q48 -58 48 -184v-210q0 -58 -8.5 -101.5t-26.5 -69.5t-36.5 -42.5t-47 -23.5t-49 -9t-51.5 -2q-63 0 -97 11 q-16 -34 -16 -36q-4 -4 -5 -4h-88zM262 94q27 0 43 4.5t31.5 19t22.5 46t7 82.5v190q0 50 -7 81t-23 45t-32 18.5t-42 4.5q-25 0 -41 -4.5t-31.5 -18.5t-23 -45.5t-7.5 -80.5v-190q0 -51 7.5 -83t23 -46.5t31 -18.5t41.5 -4z" />
<glyph unicode="&#xd9;" horiz-adv-x="534" d="M254 -10q-112 0 -154.5 61.5t-42.5 207.5v417q0 4 3 4h107q3 0 3 -4v-408q0 -96 15.5 -134.5t69.5 -38.5h37q53 0 68 37t15 136v408q0 4 3 4h107q3 0 3 -4v-417q0 -56 -4.5 -95.5t-17 -74t-34 -55.5t-57 -32.5t-84.5 -11.5h-37zM272 756l-82 141q-3 4 1 4h94q4 0 5 -4 l63 -141q1 -4 -1 -4h-76q-4 0 -4 4z" />
<glyph unicode="&#xda;" horiz-adv-x="534" d="M254 -10q-112 0 -154.5 61.5t-42.5 207.5v417q0 4 3 4h107q3 0 3 -4v-408q0 -96 15.5 -134.5t69.5 -38.5h37q53 0 68 37t15 136v408q0 4 3 4h107q3 0 3 -4v-417q0 -56 -4.5 -95.5t-17 -74t-34 -55.5t-57 -32.5t-84.5 -11.5h-37zM272 756q-2 -4 -5 -4h-76q-2 0 -1 4 l63 141q3 4 6 4h93q3 0 2 -4z" />
<glyph unicode="&#xdb;" horiz-adv-x="534" d="M254 -10q-112 0 -154.5 61.5t-42.5 207.5v417q0 4 3 4h107q3 0 3 -4v-408q0 -96 15.5 -134.5t69.5 -38.5h37q53 0 68 37t15 136v408q0 4 3 4h107q3 0 3 -4v-417q0 -56 -4.5 -95.5t-17 -74t-34 -55.5t-57 -32.5t-84.5 -11.5h-37zM220 751h-76q-2 0 -2 4q5 13 40.5 71.5 t40.5 70.5q0 3 5 3h87q5 0 8 -4q1 -2 39 -70t40 -71q2 -4 -2 -4h-75q-3 0 -5 4l-47 77h-3q-43 -74 -45 -77q-2 -4 -5 -4z" />
<glyph unicode="&#xdc;" horiz-adv-x="534" d="M254 -10q-112 0 -154.5 61.5t-42.5 207.5v417q0 4 3 4h107q3 0 3 -4v-408q0 -96 15.5 -134.5t69.5 -38.5h37q53 0 68 37t15 136v408q0 4 3 4h107q3 0 3 -4v-417q0 -56 -4.5 -95.5t-17 -74t-34 -55.5t-57 -32.5t-84.5 -11.5h-37zM149 777q-4 0 -4 4v95q0 4 4 4h80 q4 0 4 -4v-95q0 -4 -4 -4h-80zM317 777q-3 0 -3 4v95q0 4 3 4h80q3 0 3 -4v-95q0 -4 -3 -4h-80z" />
<glyph unicode="&#xdd;" horiz-adv-x="476" d="M190 0q-3 0 -3 4v263q-173 406 -174 409q-2 4 2 4h114q1 0 4 -4l109 -279h6q106 276 107 279q3 4 4 4h112q3 0 2 -4l-173 -409v-263q0 -4 -3 -4h-107zM243 756q-2 -4 -5 -4h-76q-2 0 -1 4l63 141q3 4 6 4h93q3 0 2 -4z" />
<glyph unicode="&#xde;" horiz-adv-x="512" d="M175 243h101q89 0 89 88v40q0 28 -8 47t-22 27t-27.5 11t-31.5 3h-101v-216zM171 0h-106q-3 0 -3 4v672q0 4 3 4h106q3 0 3 -4v-116h107q28 0 49 -2t51 -12t49 -28t33.5 -54t14.5 -85v-56q0 -181 -197 -181h-107v-138q0 -4 -3 -4z" />
<glyph unicode="&#xdf;" horiz-adv-x="481" d="M164 0h-100q-4 0 -4 4v478q0 64 14 106.5t41 62.5t55.5 27t69.5 7q33 0 58 -5.5t52.5 -21t43 -51.5t15.5 -90v-48q0 -35 -8.5 -62.5t-16.5 -37.5l-8 -10v-6q2 -1 6 -4t14.5 -14.5t18 -25.5t14 -38t6.5 -51v-49q0 -56 -15 -92.5t-44.5 -53.5t-59.5 -22.5t-73 -5.5 q-3 0 -3 4v87q0 4 3 4q38 0 60.5 18t22.5 68v38q0 50 -24.5 69t-58.5 19q-3 0 -3 4v88q0 3 3 3q62 0 62 77v36q0 79 -65 79q-36 0 -54 -21t-18 -88v-478q0 -4 -4 -4z" />
<glyph unicode="&#xe0;" horiz-adv-x="436" d="M172 -10q-61 0 -96.5 35t-35.5 91v52q0 58 39 90.5t92 32.5q20 0 49 -3.5t48 -7.5l18 -3v52q0 45 -19.5 59t-67.5 14q-16 0 -33 -1.5t-30 -3.5t-24 -4t-18 -3l-6 -2q-4 -2 -4 3q-15 52 -18 71q-2 3 2 5q50 25 144 25q29 0 49.5 -2t47 -11t43 -25.5t28 -48.5t11.5 -77 v-324q0 -4 -4 -4h-98q-3 0 -3 4v16q-21 -30 -114 -30zM206 75q26 0 40.5 2.5t27 14t12.5 34.5v77q-53 14 -92 14q-24 0 -40 -14.5t-16 -35.5v-31q0 -26 17.5 -43.5t50.5 -17.5zM224 556l-82 141q-3 4 1 4h94q4 0 5 -4l63 -141q1 -4 -1 -4h-76q-4 0 -4 4z" />
<glyph unicode="&#xe1;" horiz-adv-x="436" d="M172 -10q-61 0 -96.5 35t-35.5 91v52q0 58 39 90.5t92 32.5q20 0 49 -3.5t48 -7.5l18 -3v52q0 45 -19.5 59t-67.5 14q-16 0 -33 -1.5t-30 -3.5t-24 -4t-18 -3l-6 -2q-4 -2 -4 3q-15 52 -18 71q-2 3 2 5q50 25 144 25q29 0 49.5 -2t47 -11t43 -25.5t28 -48.5t11.5 -77 v-324q0 -4 -4 -4h-98q-3 0 -3 4v16q-21 -30 -114 -30zM206 75q26 0 40.5 2.5t27 14t12.5 34.5v77q-53 14 -92 14q-24 0 -40 -14.5t-16 -35.5v-31q0 -26 17.5 -43.5t50.5 -17.5zM223 556q-2 -4 -5 -4h-76q-2 0 -1 4l63 141q3 4 6 4h93q3 0 2 -4z" />
<glyph unicode="&#xe2;" horiz-adv-x="436" d="M206 75q26 0 40.5 2.5t27 14t12.5 34.5v77q-53 14 -92 14q-24 0 -40 -14.5t-16 -35.5v-31q0 -26 17.5 -43.5t50.5 -17.5zM172 -10q-61 0 -96.5 35t-35.5 91v52q0 58 39 90.5t92 32.5q20 0 49 -3.5t48 -7.5l18 -3v52q0 45 -19.5 59t-67.5 14q-16 0 -33 -1.5t-30 -3.5 t-24 -4t-18 -3l-6 -2q-4 -2 -4 3q-15 52 -18 71q-2 3 2 5q50 25 144 25q29 0 49.5 -2t47 -11t43 -25.5t28 -48.5t11.5 -77v-324q0 -4 -4 -4h-98q-3 0 -3 4v16q-21 -30 -114 -30zM172 551h-76q-2 0 -2 4q5 13 40.5 71.5t40.5 70.5q0 3 5 3h87q5 0 8 -4q1 -2 39 -70t40 -71 q2 -4 -2 -4h-75q-3 0 -5 4l-47 77h-3q-43 -74 -45 -77q-2 -4 -5 -4z" />
<glyph unicode="&#xe3;" horiz-adv-x="436" d="M206 75q26 0 40.5 2.5t27 14t12.5 34.5v77q-53 14 -92 14q-24 0 -40 -14.5t-16 -35.5v-31q0 -26 17.5 -43.5t50.5 -17.5zM172 -10q-61 0 -96.5 35t-35.5 91v52q0 58 39 90.5t92 32.5q20 0 49 -3.5t48 -7.5l18 -3v52q0 45 -19.5 59t-67.5 14q-16 0 -33 -1.5t-30 -3.5 t-24 -4t-18 -3l-6 -2q-4 -2 -4 3q-15 52 -18 71q-2 3 2 5q50 25 144 25q29 0 49.5 -2t47 -11t43 -25.5t28 -48.5t11.5 -77v-324q0 -4 -4 -4h-98q-3 0 -3 4v16q-21 -30 -114 -30zM104 577q-3 0 -3 5v56q0 10 5 15q23 35 64 35q24 0 58 -19t53 -19q20 0 40 17.5t21 17.5 q4 0 4 -5v-55q0 -10 -5 -16q-32 -37 -65 -37q-25 0 -58.5 20t-50.5 20q-21 0 -41.5 -17.5t-21.5 -17.5z" />
<glyph unicode="&#xe4;" horiz-adv-x="436" d="M172 -10q-61 0 -96.5 35t-35.5 91v52q0 58 39 90.5t92 32.5q20 0 49 -3.5t48 -7.5l18 -3v52q0 45 -19.5 59t-67.5 14q-16 0 -33 -1.5t-30 -3.5t-24 -4t-18 -3l-6 -2q-4 -2 -4 3q-15 52 -18 71q-2 3 2 5q50 25 144 25q29 0 49.5 -2t47 -11t43 -25.5t28 -48.5t11.5 -77 v-324q0 -4 -4 -4h-98q-3 0 -3 4v16q-21 -30 -114 -30zM206 75q26 0 40.5 2.5t27 14t12.5 34.5v77q-53 14 -92 14q-24 0 -40 -14.5t-16 -35.5v-31q0 -26 17.5 -43.5t50.5 -17.5zM100 577q-4 0 -4 4v95q0 4 4 4h80q4 0 4 -4v-95q0 -4 -4 -4h-80zM268 577q-3 0 -3 4v95q0 4 3 4 h80q3 0 3 -4v-95q0 -4 -3 -4h-80z" />
<glyph unicode="&#xe5;" horiz-adv-x="436" d="M206 75q26 0 40.5 2.5t27 14t12.5 34.5v77q-53 14 -92 14q-24 0 -40 -14.5t-16 -35.5v-31q0 -26 17.5 -43.5t50.5 -17.5zM172 -10q-61 0 -96.5 35t-35.5 91v52q0 58 39 90.5t92 32.5q20 0 49 -3.5t48 -7.5l18 -3v52q0 45 -19.5 59t-67.5 14q-16 0 -33 -1.5t-30 -3.5 t-24 -4t-18 -3l-6 -2q-4 -2 -4 3q-15 52 -18 71q-2 3 2 5q50 25 144 25q29 0 49.5 -2t47 -11t43 -25.5t28 -48.5t11.5 -77v-324q0 -4 -4 -4h-98q-3 0 -3 4v16q-21 -30 -114 -30zM224 582q19 0 29.5 8.5t10.5 35.5v12q0 26 -10 34.5t-29 8.5q-20 0 -31 -9t-11 -34v-12 q0 -27 10.5 -35.5t30.5 -8.5zM224 533q-40 0 -64 17.5t-24 70.5v22q0 51 24.5 68.5t65.5 17.5q18 0 30 -2.5t26 -10.5t21.5 -26.5t7.5 -46.5v-22q0 -29 -7.5 -47.5t-21.5 -27t-26.5 -11t-31.5 -2.5z" />
<glyph unicode="&#xe6;" horiz-adv-x="690" d="M209 76q80 0 80 56v71q-51 14 -92 14q-23 0 -39.5 -13.5t-16.5 -36.5v-29q0 -34 20.5 -48t47.5 -14zM398 277h145q0 70 -17.5 93t-53.5 23q-37 0 -55.5 -23.5t-18.5 -92.5zM180 -8q-17 0 -33 2.5t-35.5 10.5t-34 21t-24.5 37t-10 55v52q0 61 38 91.5t93 30.5 q20 0 48.5 -3.5t47.5 -6.5l18 -4v47q0 46 -19.5 59t-66.5 13q-16 0 -32.5 -1.5t-29.5 -3.5t-23.5 -4.5t-16.5 -3.5l-7 -2q-4 0 -4 3q-1 2 -10 36t-9 35q-2 5 1 5q54 27 145 27q100 0 132 -45q38 45 124 45q25 0 43 -2t45.5 -13.5t45 -32t31 -62t13.5 -98.5v-76h-252 q1 -72 22 -94t64 -22q20 0 41 1.5t36.5 4t28 4.5t20.5 4l7 1q3 0 4 -3l20 -73q2 -3 -2 -5q-5 -3 -20 -8t-55 -12t-82 -7q-56 0 -86.5 12.5t-52.5 39.5q-26 -31 -63 -43t-100 -12z" />
<glyph unicode="&#xe7;" horiz-adv-x="402" d="M229 -156h-94q-3 0 -1 5q0 1 11 28t26.5 64.5t21.5 51.5q-71 5 -109.5 46t-38.5 150v109q0 52 12 89.5t29.5 57t45 30.5t49.5 13.5t52 2.5q86 0 128 -21q3 -3 2 -6l-21 -73q-1 -2 -4 -2q-1 0 -6.5 0.5t-15 1.5t-21 2.5t-27.5 2t-32 0.5q-82 0 -82 -107v-93 q0 -36 6.5 -59.5t20 -33.5t25.5 -13t30 -3q26 0 52 2.5t38 5t14 3.5q4 0 5 -3q0 -1 11.5 -37.5t11.5 -37.5q2 -3 -2 -5q-30 -15 -89 -21l-43 -145q-1 -5 -5 -5z" />
<glyph unicode="&#xe8;" horiz-adv-x="434" d="M233 -9q-28 0 -50.5 3t-51.5 15.5t-48 34t-32.5 62t-13.5 96.5v83q0 53 13 92.5t31.5 60.5t45.5 33.5t48.5 15.5t46.5 3q26 0 46 -2.5t46.5 -15t43.5 -33.5t29.5 -62t12.5 -97v-77h-253q0 -73 22.5 -96t64.5 -23q19 0 39.5 1.5t36.5 3.5t29 4t21 3l8 2q2 1 4 -3 q0 -1 3 -12.5t6.5 -23.5t6 -23t2.5 -12q0 -6 -2 -7q-78 -26 -155 -26zM147 277h145q0 69 -18.5 93.5t-51.5 24.5q-35 0 -55 -23.5t-20 -94.5zM222 556l-82 141q-3 4 1 4h94q4 0 5 -4l63 -141q1 -4 -1 -4h-76q-4 0 -4 4z" />
<glyph unicode="&#xe9;" horiz-adv-x="434" d="M233 -9q-28 0 -50.5 3t-51.5 15.5t-48 34t-32.5 62t-13.5 96.5v83q0 53 13 92.5t31.5 60.5t45.5 33.5t48.5 15.5t46.5 3q26 0 46 -2.5t46.5 -15t43.5 -33.5t29.5 -62t12.5 -97v-77h-253q0 -73 22.5 -96t64.5 -23q19 0 39.5 1.5t36.5 3.5t29 4t21 3l8 2q2 1 4 -3 q0 -1 3 -12.5t6.5 -23.5t6 -23t2.5 -12q0 -6 -2 -7q-78 -26 -155 -26zM147 277h145q0 69 -18.5 93.5t-51.5 24.5q-35 0 -55 -23.5t-20 -94.5zM222 556q-2 -4 -5 -4h-76q-2 0 -1 4l63 141q3 4 6 4h93q3 0 2 -4z" />
<glyph unicode="&#xea;" horiz-adv-x="434" d="M147 277h145q0 69 -18.5 93.5t-51.5 24.5q-35 0 -55 -23.5t-20 -94.5zM233 -9q-28 0 -50.5 3t-51.5 15.5t-48 34t-32.5 62t-13.5 96.5v83q0 53 13 92.5t31.5 60.5t45.5 33.5t48.5 15.5t46.5 3q26 0 46 -2.5t46.5 -15t43.5 -33.5t29.5 -62t12.5 -97v-77h-253 q0 -73 22.5 -96t64.5 -23q19 0 39.5 1.5t36.5 3.5t29 4t21 3l8 2q2 1 4 -3q0 -1 3 -12.5t6.5 -23.5t6 -23t2.5 -12q0 -6 -2 -7q-78 -26 -155 -26zM170 551h-76q-2 0 -2 4q5 13 40.5 71.5t40.5 70.5q0 3 5 3h87q5 0 8 -4q1 -2 39 -70t40 -71q2 -4 -2 -4h-75q-3 0 -5 4l-47 77 h-3q-43 -74 -45 -77q-2 -4 -5 -4z" />
<glyph unicode="&#xeb;" horiz-adv-x="434" d="M233 -9q-28 0 -50.5 3t-51.5 15.5t-48 34t-32.5 62t-13.5 96.5v83q0 53 13 92.5t31.5 60.5t45.5 33.5t48.5 15.5t46.5 3q26 0 46 -2.5t46.5 -15t43.5 -33.5t29.5 -62t12.5 -97v-77h-253q0 -73 22.5 -96t64.5 -23q19 0 39.5 1.5t36.5 3.5t29 4t21 3l8 2q2 1 4 -3 q0 -1 3 -12.5t6.5 -23.5t6 -23t2.5 -12q0 -6 -2 -7q-78 -26 -155 -26zM147 277h145q0 69 -18.5 93.5t-51.5 24.5q-35 0 -55 -23.5t-20 -94.5zM98 577q-4 0 -4 4v95q0 4 4 4h80q4 0 4 -4v-95q0 -4 -4 -4h-80zM266 577q-3 0 -3 4v95q0 4 3 4h80q3 0 3 -4v-95q0 -4 -3 -4h-80z " />
<glyph unicode="&#xec;" horiz-adv-x="217" d="M57 0q-3 0 -3 4v474q0 4 3 4h103q3 0 3 -4v-474q0 -4 -3 -4h-103zM114 556l-82 141q-3 4 1 4h94q4 0 5 -4l63 -141q1 -4 -1 -4h-76q-4 0 -4 4z" />
<glyph unicode="&#xed;" horiz-adv-x="217" d="M57 0q-3 0 -3 4v474q0 4 3 4h103q3 0 3 -4v-474q0 -4 -3 -4h-103zM114 556q-2 -4 -5 -4h-76q-2 0 -1 4l63 141q3 4 6 4h93q3 0 2 -4z" />
<glyph unicode="&#xee;" horiz-adv-x="217" d="M57 0q-3 0 -3 4v474q0 4 3 4h103q3 0 3 -4v-474q0 -4 -3 -4h-103zM62 551h-76q-2 0 -2 4q5 13 40.5 71.5t40.5 70.5q0 3 5 3h87q5 0 8 -4q1 -2 39 -70t40 -71q2 -4 -2 -4h-75q-3 0 -5 4l-47 77h-3q-43 -74 -45 -77q-2 -4 -5 -4z" />
<glyph unicode="&#xef;" horiz-adv-x="217" d="M57 0q-3 0 -3 4v474q0 4 3 4h103q3 0 3 -4v-474q0 -4 -3 -4h-103zM-10 577q-4 0 -4 4v95q0 4 4 4h80q4 0 4 -4v-95q0 -4 -4 -4h-80zM158 577q-3 0 -3 4v95q0 4 3 4h80q3 0 3 -4v-95q0 -4 -3 -4h-80z" />
<glyph unicode="&#xf0;" horiz-adv-x="472" d="M217 90q81 0 81 55v227q-54 20 -85 20t-47.5 -22.5t-16.5 -92.5v-70q0 -72 17 -94.5t51 -22.5zM192 -6q-29 0 -48.5 3.5t-41 15.5t-34 33.5t-21 61t-8.5 94.5v82q0 54 9.5 93t23 60t36 32.5t41 14.5t45.5 3q18 0 44 -5t43 -10l17 -5v81h-98q-4 0 -4 4v72q0 4 4 4h98v47 q0 4 3 4h102q3 0 3 -4v-47h39q4 0 4 -4v-72q0 -4 -3 -4h-40v-544q0 -4 -3 -4h-102q-3 0 -3 3v22q-24 -31 -106 -31z" />
<glyph unicode="&#xf1;" horiz-adv-x="465" d="M64 0q-4 0 -4 4v474q0 4 4 4h102q3 0 3 -4v-17q71 26 105 26q24 0 40.5 -2t39 -12t36 -28t23 -53t9.5 -84v-304q0 -4 -3 -4h-102q-3 0 -3 4v298q0 58 -14 74.5t-44 16.5q-14 0 -35.5 -6.5t-36.5 -12.5l-15 -6v-364q0 -4 -3 -4h-102zM119 577q-3 0 -3 5v56q0 10 5 15 q23 35 64 35q24 0 58.5 -19t52.5 -19q20 0 40 17.5t21 17.5q4 0 4 -5v-55q0 -10 -5 -16q-32 -37 -65 -37q-25 0 -58.5 20t-50.5 20q-21 0 -41.5 -17.5t-21.5 -17.5z" />
<glyph unicode="&#xf2;" horiz-adv-x="439" d="M224 -8q-42 0 -70 6t-57 25.5t-43.5 63.5t-14.5 112v88q0 54 11 93t27 60t42.5 33t49.5 15t56 3q32 0 53.5 -2.5t48.5 -14t43 -32t27.5 -60t11.5 -94.5v-89q0 -56 -11 -96t-27 -61t-43 -33t-49 -14.5t-55 -2.5zM224 87q18 0 29 3t23 14t17.5 36t5.5 65v75q0 72 -18.5 94 t-55.5 22q-38 0 -57.5 -22t-19.5 -94v-75q0 -75 19 -96.5t57 -21.5zM225 556l-82 141q-3 4 1 4h94q4 0 5 -4l63 -141q1 -4 -1 -4h-76q-4 0 -4 4z" />
<glyph unicode="&#xf3;" horiz-adv-x="439" d="M224 -8q-42 0 -70 6t-57 25.5t-43.5 63.5t-14.5 112v88q0 54 11 93t27 60t42.5 33t49.5 15t56 3q32 0 53.5 -2.5t48.5 -14t43 -32t27.5 -60t11.5 -94.5v-89q0 -56 -11 -96t-27 -61t-43 -33t-49 -14.5t-55 -2.5zM224 87q18 0 29 3t23 14t17.5 36t5.5 65v75q0 72 -18.5 94 t-55.5 22q-38 0 -57.5 -22t-19.5 -94v-75q0 -75 19 -96.5t57 -21.5zM224 556q-2 -4 -5 -4h-76q-2 0 -1 4l63 141q3 4 6 4h93q3 0 2 -4z" />
<glyph unicode="&#xf4;" horiz-adv-x="439" d="M224 87q18 0 29 3t23 14t17.5 36t5.5 65v75q0 72 -18.5 94t-55.5 22q-38 0 -57.5 -22t-19.5 -94v-75q0 -75 19 -96.5t57 -21.5zM224 -8q-42 0 -70 6t-57 25.5t-43.5 63.5t-14.5 112v88q0 54 11 93t27 60t42.5 33t49.5 15t56 3q32 0 53.5 -2.5t48.5 -14t43 -32t27.5 -60 t11.5 -94.5v-89q0 -56 -11 -96t-27 -61t-43 -33t-49 -14.5t-55 -2.5zM172 551h-76q-2 0 -2 4q5 13 40.5 71.5t40.5 70.5q0 3 5 3h87q5 0 8 -4q1 -2 39 -70t40 -71q2 -4 -2 -4h-75q-3 0 -5 4l-47 77h-3q-43 -74 -45 -77q-2 -4 -5 -4z" />
<glyph unicode="&#xf5;" horiz-adv-x="439" d="M224 87q18 0 29 3t23 14t17.5 36t5.5 65v75q0 72 -18.5 94t-55.5 22q-38 0 -57.5 -22t-19.5 -94v-75q0 -75 19 -96.5t57 -21.5zM224 -8q-42 0 -70 6t-57 25.5t-43.5 63.5t-14.5 112v88q0 54 11 93t27 60t42.5 33t49.5 15t56 3q32 0 53.5 -2.5t48.5 -14t43 -32t27.5 -60 t11.5 -94.5v-89q0 -56 -11 -96t-27 -61t-43 -33t-49 -14.5t-55 -2.5zM105 577q-3 0 -3 5v56q0 10 5 15q23 35 64 35q25 0 59 -19t52 -19q20 0 40 17.5t21 17.5q4 0 4 -5v-55q0 -10 -5 -16q-32 -37 -65 -37q-25 0 -58.5 20t-50.5 20q-21 0 -41.5 -17.5t-21.5 -17.5z" />
<glyph unicode="&#xf6;" horiz-adv-x="439" d="M224 -8q-42 0 -70 6t-57 25.5t-43.5 63.5t-14.5 112v88q0 54 11 93t27 60t42.5 33t49.5 15t56 3q32 0 53.5 -2.5t48.5 -14t43 -32t27.5 -60t11.5 -94.5v-89q0 -56 -11 -96t-27 -61t-43 -33t-49 -14.5t-55 -2.5zM224 87q18 0 29 3t23 14t17.5 36t5.5 65v75q0 72 -18.5 94 t-55.5 22q-38 0 -57.5 -22t-19.5 -94v-75q0 -75 19 -96.5t57 -21.5zM101 577q-4 0 -4 4v95q0 4 4 4h80q4 0 4 -4v-95q0 -4 -4 -4h-80zM269 577q-3 0 -3 4v95q0 4 3 4h80q3 0 3 -4v-95q0 -4 -3 -4h-80z" />
<glyph unicode="&#xf7;" horiz-adv-x="469" d="M53 229q-3 0 -3 4v84q0 4 3 4h363q3 0 3 -4v-84q0 -4 -3 -4h-363zM187 42q-4 0 -4 4v109q0 4 4 4h95q4 0 4 -4v-109q0 -4 -4 -4h-95zM187 392q-4 0 -4 4v108q0 4 4 4h95q4 0 4 -4v-108q0 -4 -4 -4h-95z" />
<glyph unicode="&#xf8;" horiz-adv-x="439" d="M96 -40q-2 0 -1 4q0 1 2.5 8t7.5 19t8 21q-74 40 -74 187v88q0 54 11 93t27 60t42.5 33t49.5 15t56 3q25 0 51 -3q2 6 5 14t5 12l1 4q3 4 5 4h66q3 0 2 -4l-19 -50q68 -42 68 -180v-89q0 -56 -11 -96t-27 -61t-43 -33t-49 -14.5t-55 -2.5q-16 0 -46 2q-3 -7 -6 -14.5 t-4 -11.5l-2 -4q-1 -4 -5 -4h-65zM224 87q18 0 29 3t23 14t17.5 36t5.5 65v75q0 72 -18.5 94t-55.5 22q-38 0 -57.5 -22t-19.5 -94v-75q0 -75 19 -96.5t57 -21.5z" />
<glyph unicode="&#xf9;" horiz-adv-x="464" d="M414 482q3 0 3 -4v-474q0 -4 -3 -4h-102q-3 0 -3 4v13q-71 -25 -105 -25q-31 0 -51.5 4.5t-45.5 20.5t-38 55t-13 99v307q0 4 3 4h102q3 0 3 -4v-300q0 -57 14 -74t44 -17q14 0 35.5 5.5t36.5 11.5l15 6v368q0 4 3 4h102zM238 556l-82 141q-3 4 1 4h94q4 0 5 -4l63 -141 q1 -4 -1 -4h-76q-4 0 -4 4z" />
<glyph unicode="&#xfa;" horiz-adv-x="464" d="M414 482q3 0 3 -4v-474q0 -4 -3 -4h-102q-3 0 -3 4v13q-71 -25 -105 -25q-31 0 -51.5 4.5t-45.5 20.5t-38 55t-13 99v307q0 4 3 4h102q3 0 3 -4v-300q0 -57 14 -74t44 -17q14 0 35.5 5.5t36.5 11.5l15 6v368q0 4 3 4h102zM237 556q-2 -4 -5 -4h-76q-2 0 -1 4l63 141 q3 4 6 4h93q3 0 2 -4z" />
<glyph unicode="&#xfb;" horiz-adv-x="464" d="M414 482q3 0 3 -4v-474q0 -4 -3 -4h-102q-3 0 -3 4v13q-71 -25 -105 -25q-31 0 -51.5 4.5t-45.5 20.5t-38 55t-13 99v307q0 4 3 4h102q3 0 3 -4v-300q0 -57 14 -74t44 -17q14 0 35.5 5.5t36.5 11.5l15 6v368q0 4 3 4h102zM185 551h-76q-2 0 -2 4q5 13 40.5 71.5 t40.5 70.5q0 3 5 3h87q5 0 8 -4q1 -2 39 -70t40 -71q2 -4 -2 -4h-75q-3 0 -5 4l-47 77h-3q-43 -74 -45 -77q-2 -4 -5 -4z" />
<glyph unicode="&#xfc;" horiz-adv-x="464" d="M414 482q3 0 3 -4v-474q0 -4 -3 -4h-102q-3 0 -3 4v13q-71 -25 -105 -25q-31 0 -51.5 4.5t-45.5 20.5t-38 55t-13 99v307q0 4 3 4h102q3 0 3 -4v-300q0 -57 14 -74t44 -17q14 0 35.5 5.5t36.5 11.5l15 6v368q0 4 3 4h102zM114 577q-4 0 -4 4v95q0 4 4 4h80q4 0 4 -4v-95 q0 -4 -4 -4h-80zM282 577q-3 0 -3 4v95q0 4 3 4h80q3 0 3 -4v-95q0 -4 -3 -4h-80z" />
<glyph unicode="&#xfd;" horiz-adv-x="423" d="M61 -180q-3 0 -3 4q1 2 5.5 43t4.5 43q0 4 4 4h23q12 0 20 3t20 18.5t20 44.5l10 39q-145 456 -146 459q-2 4 1 4h107q4 0 4 -4l85 -308h8q81 305 81 308q2 4 5 4h104q3 0 2 -4l-171 -529q-15 -46 -29.5 -73.5t-33.5 -39t-34 -14t-44 -2.5h-43zM221 556q-2 -4 -5 -4h-76 q-2 0 -1 4l63 141q3 4 6 4h93q3 0 2 -4z" />
<glyph unicode="&#xfe;" horiz-adv-x="466" d="M169 109q53 -19 84 -19q15 0 24 2.5t20 12.5t16 35t5 65v69q0 39 -5.5 64.5t-16.5 36t-21.5 14t-25.5 3.5q-80 0 -80 -55v-228zM165 -180h-101q-4 0 -4 4v852q0 4 4 4h101q4 0 4 -4v-220q2 4 8.5 9.5t33 13.5t64.5 8q25 0 40 -1.5t39 -12.5t37.5 -31t24.5 -61.5 t11 -100.5v-83q0 -42 -6 -75t-14.5 -54t-23.5 -36t-26.5 -22t-30 -11t-28 -4.5t-26.5 -0.5q-10 0 -35.5 5t-46.5 10l-21 5v-190q0 -4 -4 -4z" />
<glyph unicode="&#xff;" horiz-adv-x="423" d="M61 -180q-3 0 -3 4q1 2 5.5 43t4.5 43q0 4 4 4h23q12 0 20 3t20 18.5t20 44.5l10 39q-145 456 -146 459q-2 4 1 4h107q4 0 4 -4l85 -308h8q81 305 81 308q2 4 5 4h104q3 0 2 -4l-171 -529q-15 -46 -29.5 -73.5t-33.5 -39t-34 -14t-44 -2.5h-43zM97 577q-4 0 -4 4v95 q0 4 4 4h80q4 0 4 -4v-95q0 -4 -4 -4h-80zM265 577q-3 0 -3 4v95q0 4 3 4h80q3 0 3 -4v-95q0 -4 -3 -4h-80z" />
<glyph unicode="&#x100;" horiz-adv-x="521" d="M123 0h-111q-3 0 -2 4l192 672q0 4 4 4h124q3 0 4 -4l189 -672q2 -4 -3 -4h-111q-3 0 -4 4l-31 128h-215q-30 -125 -31 -128q-1 -4 -5 -4zM185 226h163l-72 301h-18zM388 788h-244q-3 0 -3 4v76q0 4 3 4h244q3 0 3 -4v-76q0 -4 -3 -4z" />
<glyph unicode="&#x101;" horiz-adv-x="436" d="M206 75q26 0 40.5 2.5t27 14t12.5 34.5v77q-53 14 -92 14q-24 0 -40 -14.5t-16 -35.5v-31q0 -26 17.5 -43.5t50.5 -17.5zM172 -10q-61 0 -96.5 35t-35.5 91v52q0 58 39 90.5t92 32.5q20 0 49 -3.5t48 -7.5l18 -3v52q0 45 -19.5 59t-67.5 14q-16 0 -33 -1.5t-30 -3.5 t-24 -4t-18 -3l-6 -2q-4 -2 -4 3q-15 52 -18 71q-2 3 2 5q50 25 144 25q29 0 49.5 -2t47 -11t43 -25.5t28 -48.5t11.5 -77v-324q0 -4 -4 -4h-98q-3 0 -3 4v16q-21 -30 -114 -30zM346 590h-244q-3 0 -3 4v76q0 4 3 4h244q3 0 3 -4v-76q0 -4 -3 -4z" />
<glyph unicode="&#x102;" horiz-adv-x="521" d="M123 0h-111q-3 0 -2 4l192 672q0 4 4 4h124q3 0 4 -4l189 -672q2 -4 -3 -4h-111q-3 0 -4 4l-31 128h-215q-30 -125 -31 -128q-1 -4 -5 -4zM185 226h163l-72 301h-18zM268 754q-123 0 -123 125q0 6 5 6h45q7 0 8 -5q10 -33 22.5 -43.5t41.5 -10.5q27 0 40.5 11.5 t21.5 42.5q2 5 8 5h47q6 0 6 -6q-6 -125 -122 -125z" />
<glyph unicode="&#x103;" horiz-adv-x="436" d="M206 75q26 0 40.5 2.5t27 14t12.5 34.5v77q-53 14 -92 14q-24 0 -40 -14.5t-16 -35.5v-31q0 -26 17.5 -43.5t50.5 -17.5zM172 -10q-61 0 -96.5 35t-35.5 91v52q0 58 39 90.5t92 32.5q20 0 49 -3.5t48 -7.5l18 -3v52q0 45 -19.5 59t-67.5 14q-16 0 -33 -1.5t-30 -3.5 t-24 -4t-18 -3l-6 -2q-4 -2 -4 3q-15 52 -18 71q-2 3 2 5q50 25 144 25q29 0 49.5 -2t47 -11t43 -25.5t28 -48.5t11.5 -77v-324q0 -4 -4 -4h-98q-3 0 -3 4v16q-21 -30 -114 -30zM225 556q-123 0 -123 125q0 6 5 6h45q7 0 8 -5q10 -33 22.5 -43.5t41.5 -10.5q27 0 40.5 11.5 t21.5 42.5q2 5 8 5h47q6 0 6 -6q-6 -125 -122 -125z" />
<glyph unicode="&#x104;" horiz-adv-x="521" d="M447 -184q-37 0 -59 17t-22 64q0 57 52 103h-9q-3 0 -4 4l-31 128h-215q-30 -125 -31 -128q-1 -4 -5 -4h-111q-3 0 -2 4l192 672q0 4 4 4h124q3 0 4 -4l189 -672q2 -4 -3 -4h-1q-1 0 -1 -1q-37 -28 -54 -46.5t-17 -37.5q0 -13 4 -17t13 -4t24 10q5 2 7 -2l25 -49 q2 -7 0 -9q-28 -28 -73 -28zM185 226h163l-72 301h-18z" />
<glyph unicode="&#x105;" horiz-adv-x="436" d="M316 -184q-37 0 -59 17t-22 64q0 60 53 103q-2 2 -2 4v16q-21 -30 -114 -30q-61 0 -96.5 35t-35.5 91v52q0 58 39 90.5t92 32.5q20 0 49 -3.5t48 -7.5l18 -3v52q0 45 -19.5 59t-67.5 14q-16 0 -33 -1.5t-30 -3.5t-24 -4t-18 -3l-6 -2q-4 -2 -4 3q-15 52 -18 71q-2 3 2 5 q50 25 144 25q29 0 49.5 -2t47 -11t43 -25.5t28 -48.5t11.5 -77v-324q0 -2 -2 -4q-2 0 -2 -1q-37 -28 -54 -46.5t-17 -37.5q0 -13 4 -17t13 -4t24 10q5 2 7 -2l25 -49q2 -7 0 -9q-28 -28 -73 -28zM206 75q26 0 40.5 2.5t27 14t12.5 34.5v77q-53 14 -92 14q-24 0 -40 -14.5 t-16 -35.5v-31q0 -26 17.5 -43.5t50.5 -17.5z" />
<glyph unicode="&#x106;" d="M270 -10q-38 0 -66 4t-60 18.5t-52 40.5t-33.5 73t-13.5 112v211q0 63 13.5 109t34 71t52 39.5t60 18.5t66.5 4q98 0 156 -29q3 -3 2 -6q-1 -2 -16.5 -43t-15.5 -42q-2 -3 -4 -2q-51 17 -122 17q-24 0 -40 -4t-34.5 -17.5t-28 -45.5t-9.5 -83v-188q0 -49 8 -80t25 -45.5 t34 -19.5t44 -5q19 0 39.5 2.5t36 5.5t28 6t20.5 6l8 2q2 2 4 -2l31 -85q2 -3 -2 -5q-33 -16 -43 -20q-54 -18 -122 -18zM268 754q-2 -4 -5 -4h-76q-2 0 -1 4l63 141q3 4 6 4h93q3 0 2 -4z" />
<glyph unicode="&#x107;" horiz-adv-x="403" d="M232 -8q-44 0 -71.5 5.5t-57 23.5t-44 60t-14.5 108v109q0 52 12 89.5t29.5 57t45 30.5t49.5 13.5t52 2.5q86 0 128 -21q3 -3 2 -6l-21 -73q-1 -2 -4 -2q-1 0 -6.5 0.5t-15 1.5t-21 2.5t-27.5 2t-32 0.5q-82 0 -82 -107v-93q0 -36 6.5 -59.5t20 -33.5t25.5 -13t30 -3 q26 0 52 2.5t38 5t14 3.5q4 0 5 -3q0 -1 11.5 -37.5t11.5 -37.5q2 -3 -2 -5q-46 -23 -134 -23zM234 556q-2 -4 -5 -4h-76q-2 0 -1 4l63 141q3 4 6 4h93q3 0 2 -4z" />
<glyph unicode="&#x108;" d="M270 -10q-38 0 -66 4t-60 18.5t-52 40.5t-33.5 73t-13.5 112v211q0 63 13.5 109t34 71t52 39.5t60 18.5t66.5 4q98 0 156 -29q3 -3 2 -6q-1 -2 -16.5 -43t-15.5 -42q-2 -3 -4 -2q-51 17 -122 17q-24 0 -40 -4t-34.5 -17.5t-28 -45.5t-9.5 -83v-188q0 -49 8 -80t25 -45.5 t34 -19.5t44 -5q19 0 39.5 2.5t36 5.5t28 6t20.5 6l8 2q2 2 4 -2l31 -85q2 -3 -2 -5q-33 -16 -43 -20q-54 -18 -122 -18zM216 749h-76q-2 0 -2 4q5 13 40.5 71.5t40.5 70.5q0 3 5 3h87q5 0 8 -4q1 -2 39 -70t40 -71q2 -4 -2 -4h-75q-3 0 -5 4l-47 77h-3q-43 -74 -45 -77 q-2 -4 -5 -4z" />
<glyph unicode="&#x109;" horiz-adv-x="403" d="M232 -8q-44 0 -71.5 5.5t-57 23.5t-44 60t-14.5 108v109q0 52 12 89.5t29.5 57t45 30.5t49.5 13.5t52 2.5q86 0 128 -21q3 -3 2 -6l-21 -73q-1 -2 -4 -2q-1 0 -6.5 0.5t-15 1.5t-21 2.5t-27.5 2t-32 0.5q-82 0 -82 -107v-93q0 -36 6.5 -59.5t20 -33.5t25.5 -13t30 -3 q26 0 52 2.5t38 5t14 3.5q4 0 5 -3q0 -1 11.5 -37.5t11.5 -37.5q2 -3 -2 -5q-46 -23 -134 -23zM176 551h-76q-2 0 -2 4q5 13 40.5 71.5t40.5 70.5q0 3 5 3h87q5 0 8 -4q1 -2 39 -70t40 -71q2 -4 -2 -4h-75q-3 0 -5 4l-47 77h-3q-43 -74 -45 -77q-2 -4 -5 -4z" />
<glyph unicode="&#x10a;" d="M270 -10q-38 0 -66 4t-60 18.5t-52 40.5t-33.5 73t-13.5 112v211q0 63 13.5 109t34 71t52 39.5t60 18.5t66.5 4q98 0 156 -29q3 -3 2 -6q-1 -2 -16.5 -43t-15.5 -42q-2 -3 -4 -2q-51 17 -122 17q-24 0 -40 -4t-34.5 -17.5t-28 -45.5t-9.5 -83v-188q0 -49 8 -80t25 -45.5 t34 -19.5t44 -5q19 0 39.5 2.5t36 5.5t28 6t20.5 6l8 2q2 2 4 -2l31 -85q2 -3 -2 -5q-33 -16 -43 -20q-54 -18 -122 -18zM219 770q-4 0 -4 4v100q0 4 4 4h99q3 0 3 -4v-100q0 -4 -4 -4h-98z" />
<glyph unicode="&#x10b;" horiz-adv-x="403" d="M232 -8q-44 0 -71.5 5.5t-57 23.5t-44 60t-14.5 108v109q0 52 12 89.5t29.5 57t45 30.5t49.5 13.5t52 2.5q86 0 128 -21q3 -3 2 -6l-21 -73q-1 -2 -4 -2q-1 0 -6.5 0.5t-15 1.5t-21 2.5t-27.5 2t-32 0.5q-82 0 -82 -107v-93q0 -36 6.5 -59.5t20 -33.5t25.5 -13t30 -3 q26 0 52 2.5t38 5t14 3.5q4 0 5 -3q0 -1 11.5 -37.5t11.5 -37.5q2 -3 -2 -5q-46 -23 -134 -23zM185 572q-4 0 -4 4v100q0 4 4 4h99q3 0 3 -4v-100q0 -4 -4 -4h-98z" />
<glyph unicode="&#x10c;" d="M270 -10q-38 0 -66 4t-60 18.5t-52 40.5t-33.5 73t-13.5 112v211q0 63 13.5 109t34 71t52 39.5t60 18.5t66.5 4q98 0 156 -29q3 -3 2 -6q-1 -2 -16.5 -43t-15.5 -42q-2 -3 -4 -2q-51 17 -122 17q-24 0 -40 -4t-34.5 -17.5t-28 -45.5t-9.5 -83v-188q0 -49 8 -80t25 -45.5 t34 -19.5t44 -5q19 0 39.5 2.5t36 5.5t28 6t20.5 6l8 2q2 2 4 -2l31 -85q2 -3 -2 -5q-33 -16 -43 -20q-54 -18 -122 -18zM321 896h79q4 0 1 -3l-90 -142q-4 -4 -6 -4h-72q-6 0 -6 4q-6 12 -46.5 71t-45.5 71q-1 3 2 3h79q2 0 5 -3l46 -76h3q44 72 46 76q3 3 5 3z" />
<glyph unicode="&#x10d;" horiz-adv-x="403" d="M232 -8q-44 0 -71.5 5.5t-57 23.5t-44 60t-14.5 108v109q0 52 12 89.5t29.5 57t45 30.5t49.5 13.5t52 2.5q86 0 128 -21q3 -3 2 -6l-21 -73q-1 -2 -4 -2q-1 0 -6.5 0.5t-15 1.5t-21 2.5t-27.5 2t-32 0.5q-82 0 -82 -107v-93q0 -36 6.5 -59.5t20 -33.5t25.5 -13t30 -3 q26 0 52 2.5t38 5t14 3.5q4 0 5 -3q0 -1 11.5 -37.5t11.5 -37.5q2 -3 -2 -5q-46 -23 -134 -23zM281 698h79q4 0 1 -3l-90 -142q-4 -4 -6 -4h-72q-6 0 -6 4q-6 12 -46.5 71t-45.5 71q-1 3 2 3h79q2 0 5 -3l46 -76h3q44 72 46 76q3 3 5 3z" />
<glyph unicode="&#x10e;" horiz-adv-x="520" d="M175 105h90q26 0 42.5 4.5t32 19t22.5 46t7 81.5v171q0 50 -7.5 81.5t-24 45t-32 17.5t-40.5 4h-90v-470zM265 0h-203v680h203q35 0 58 -2t57 -15t54 -37t35.5 -72t15.5 -116v-191q0 -69 -14.5 -117.5t-34 -73t-53 -38t-57.5 -16t-61 -2.5zM312 896h79q4 0 1 -3l-90 -142 q-4 -4 -6 -4h-72q-6 0 -6 4q-6 12 -46.5 71t-45.5 71q-2 3 2 3h79q2 0 5 -3l46 -76h3q44 72 46 76q3 3 5 3z" />
<glyph unicode="&#x10f;" horiz-adv-x="580" d="M402 0h-101q-4 0 -4 3v22q-9 -14 -38 -24t-68 -10q-33 0 -54 5t-46.5 23.5t-38.5 63.5t-13 115v87q0 68 13.5 112t39.5 62t47.5 23t54.5 5q14 0 40 -4.5t44 -9.5l19 -5v208q0 4 4 4h101q4 0 4 -4v-672q0 -4 -4 -4zM217 86q80 0 80 59v227q-54 20 -84 20q-15 0 -24 -3 t-19.5 -13.5t-15.5 -35t-5 -63.5v-73q0 -40 5.5 -65.5t17 -36t21 -13.5t24.5 -3zM465 492q-5 -2 -5 4v180q0 4 3 4h84q3 0 3 -4v-116q0 -3 -3 -6z" />
<glyph unicode="&#x110;" horiz-adv-x="532" d="M176 105h91q25 0 40 3.5t31.5 17t24.5 46t8 84.5v171q0 42 -6.5 71t-15 43.5t-24.5 22.5t-27.5 9.5t-30.5 1.5h-91v-186h83q4 0 4 -4v-83q0 -4 -4 -4h-83v-193zM263 0h-201v298h-35q-3 0 -3 4v83q0 4 3 4h35v291h201q25 0 43 -1.5t42.5 -6.5t42.5 -15t36.5 -28t30.5 -43 t19.5 -62.5t7.5 -85.5v-191q0 -50 -8 -90t-19.5 -65.5t-31 -43.5t-36.5 -27.5t-43 -14t-42 -5.5t-42 -1z" />
<glyph unicode="&#x111;" horiz-adv-x="472" d="M217 90q81 0 81 55v227q-54 20 -85 20t-47.5 -22.5t-16.5 -92.5v-70q0 -72 17 -94.5t51 -22.5zM192 -6q-29 0 -48.5 3.5t-41 15.5t-34 33.5t-21 61t-8.5 94.5v82q0 54 9.5 93t23 60t36 32.5t41 14.5t45.5 3q18 0 44 -5t43 -10l17 -5v81h-98q-4 0 -4 4v72q0 4 4 4h98v47 q0 4 3 4h102q3 0 3 -4v-47h39q4 0 4 -4v-72q0 -4 -3 -4h-40v-544q0 -4 -3 -4h-102q-3 0 -3 3v22q-24 -31 -106 -31z" />
<glyph unicode="&#x112;" horiz-adv-x="462" d="M62 0v680h367q3 0 3 -4v-94q0 -3 -3 -3h-254v-184h214q3 0 3 -4v-93q0 -4 -3 -4h-214v-193h254q3 0 3 -4v-93q0 -4 -3 -4h-367zM369 788h-244q-3 0 -3 4v76q0 4 3 4h244q3 0 3 -4v-76q0 -4 -3 -4z" />
<glyph unicode="&#x113;" horiz-adv-x="434" d="M147 277h145q0 69 -18.5 93.5t-51.5 24.5q-35 0 -55 -23.5t-20 -94.5zM233 -9q-28 0 -50.5 3t-51.5 15.5t-48 34t-32.5 62t-13.5 96.5v83q0 53 13 92.5t31.5 60.5t45.5 33.5t48.5 15.5t46.5 3q26 0 46 -2.5t46.5 -15t43.5 -33.5t29.5 -62t12.5 -97v-77h-253 q0 -73 22.5 -96t64.5 -23q19 0 39.5 1.5t36.5 3.5t29 4t21 3l8 2q2 1 4 -3q0 -1 3 -12.5t6.5 -23.5t6 -23t2.5 -12q0 -6 -2 -7q-78 -26 -155 -26zM344 590h-244q-3 0 -3 4v76q0 4 3 4h244q3 0 3 -4v-76q0 -4 -3 -4z" />
<glyph unicode="&#x114;" horiz-adv-x="462" d="M62 0v680h367q3 0 3 -4v-94q0 -3 -3 -3h-254v-184h214q3 0 3 -4v-93q0 -4 -3 -4h-214v-193h254q3 0 3 -4v-93q0 -4 -3 -4h-367zM255 754q-123 0 -123 125q0 6 5 6h45q7 0 8 -5q10 -33 22.5 -43.5t41.5 -10.5q27 0 40.5 11.5t21.5 42.5q2 5 8 5h47q6 0 6 -6 q-6 -125 -122 -125z" />
<glyph unicode="&#x115;" horiz-adv-x="434" d="M147 277h145q0 69 -18.5 93.5t-51.5 24.5q-35 0 -55 -23.5t-20 -94.5zM233 -9q-28 0 -50.5 3t-51.5 15.5t-48 34t-32.5 62t-13.5 96.5v83q0 53 13 92.5t31.5 60.5t45.5 33.5t48.5 15.5t46.5 3q26 0 46 -2.5t46.5 -15t43.5 -33.5t29.5 -62t12.5 -97v-77h-253 q0 -73 22.5 -96t64.5 -23q19 0 39.5 1.5t36.5 3.5t29 4t21 3l8 2q2 1 4 -3q0 -1 3 -12.5t6.5 -23.5t6 -23t2.5 -12q0 -6 -2 -7q-78 -26 -155 -26zM226 556q-123 0 -123 125q0 6 5 6h45q7 0 8 -5q10 -33 22.5 -43.5t41.5 -10.5q27 0 40.5 11.5t21.5 42.5q2 5 8 5h47q6 0 6 -6 q-6 -125 -122 -125z" />
<glyph unicode="&#x116;" horiz-adv-x="462" d="M62 0v680h367q3 0 3 -4v-94q0 -3 -3 -3h-254v-184h214q3 0 3 -4v-93q0 -4 -3 -4h-214v-193h254q3 0 3 -4v-93q0 -4 -3 -4h-367zM212 770q-4 0 -4 4v100q0 4 4 4h99q3 0 3 -4v-100q0 -4 -4 -4h-98z" />
<glyph unicode="&#x117;" horiz-adv-x="434" d="M233 -9q-28 0 -50.5 3t-51.5 15.5t-48 34t-32.5 62t-13.5 96.5v83q0 53 13 92.5t31.5 60.5t45.5 33.5t48.5 15.5t46.5 3q26 0 46 -2.5t46.5 -15t43.5 -33.5t29.5 -62t12.5 -97v-77h-253q0 -73 22.5 -96t64.5 -23q19 0 39.5 1.5t36.5 3.5t29 4t21 3l8 2q2 1 4 -3 q0 -1 3 -12.5t6.5 -23.5t6 -23t2.5 -12q0 -6 -2 -7q-78 -26 -155 -26zM147 277h145q0 69 -18.5 93.5t-51.5 24.5q-35 0 -55 -23.5t-20 -94.5zM177 572q-4 0 -4 4v100q0 4 4 4h99q3 0 3 -4v-100q0 -4 -4 -4h-98z" />
<glyph unicode="&#x118;" horiz-adv-x="462" d="M62 0v680h367q3 0 3 -4v-94q0 -3 -3 -3h-254v-184h214q3 0 3 -4v-93q0 -4 -3 -4h-214v-193h254q3 0 3 -4v-92q0 -2 -1 -4l-2 -2q-37 -28 -54 -46.5t-17 -37.5q0 -13 4 -17t13 -4t24 10q5 2 7 -2l25 -49q2 -7 0 -9q-28 -28 -73 -28q-37 0 -59 17t-22 64q0 57 52 103h-267z " />
<glyph unicode="&#x119;" horiz-adv-x="434" d="M216 -187q-37 0 -59 17t-22 64q0 56 49 100q-147 21 -147 208v83q0 53 13 92.5t31.5 60.5t45.5 33.5t48.5 15.5t46.5 3q26 0 46 -2.5t46.5 -15t43.5 -33.5t29.5 -62t12.5 -97v-77h-253q0 -73 22.5 -96t64.5 -23q19 0 39.5 1.5t36.5 3.5t29 4t21 3l8 2q2 1 4 -3 q0 -1 3 -12.5t6.5 -23.5t6 -23t2.5 -12q0 -6 -2 -7q-55 -18 -105 -23q-67 -52 -67 -82q0 -13 4 -17t13 -4t24 10q5 2 7 -2l25 -49q2 -7 0 -9q-28 -28 -73 -28zM147 277h145q0 69 -18.5 93.5t-51.5 24.5q-35 0 -55 -23.5t-20 -94.5z" />
<glyph unicode="&#x11a;" horiz-adv-x="462" d="M62 0v680h367q3 0 3 -4v-94q0 -3 -3 -3h-254v-184h214q3 0 3 -4v-93q0 -4 -3 -4h-214v-193h254q3 0 3 -4v-93q0 -4 -3 -4h-367zM310 896h79q4 0 1 -3l-90 -142q-4 -4 -6 -4h-72q-6 0 -6 4q-6 12 -46.5 71t-45.5 71q-2 3 2 3h79q2 0 5 -3l46 -76h3q44 72 46 76q3 3 5 3z " />
<glyph unicode="&#x11b;" horiz-adv-x="434" d="M147 277h145q0 69 -18.5 93.5t-51.5 24.5q-35 0 -55 -23.5t-20 -94.5zM233 -9q-28 0 -50.5 3t-51.5 15.5t-48 34t-32.5 62t-13.5 96.5v83q0 53 13 92.5t31.5 60.5t45.5 33.5t48.5 15.5t46.5 3q26 0 46 -2.5t46.5 -15t43.5 -33.5t29.5 -62t12.5 -97v-77h-253 q0 -73 22.5 -96t64.5 -23q19 0 39.5 1.5t36.5 3.5t29 4t21 3l8 2q2 1 4 -3q0 -1 3 -12.5t6.5 -23.5t6 -23t2.5 -12q0 -6 -2 -7q-78 -26 -155 -26zM277 698h79q4 0 1 -3l-90 -142q-4 -4 -6 -4h-72q-6 0 -6 4q-6 12 -46.5 71t-45.5 71q-1 3 2 3h79q2 0 5 -3l46 -76h3 q44 72 46 76q3 3 5 3z" />
<glyph unicode="&#x11c;" horiz-adv-x="516" d="M267 -10q-36 0 -62.5 3.5t-58.5 18t-52 40t-34 73t-14 113.5v211q0 66 15.5 113t37 71.5t55.5 38t59 16t60 2.5q48 0 93.5 -7t65.5 -13.5t24 -8.5q3 -1 1 -6l-26 -83q-1 -3 -4 -3q-3 1 -25 5t-60.5 8t-68.5 4q-24 0 -39.5 -3.5t-35 -17t-29 -45.5t-9.5 -83v-190 q0 -50 8.5 -82t25 -46.5t33 -19t41.5 -4.5l110 9v168h-82q-3 0 -3 4v89q0 4 3 4h178v-357q-144 -22 -207 -22zM224 749h-76q-2 0 -2 4q5 13 40.5 71.5t40.5 70.5q0 3 5 3h87q5 0 8 -4q1 -2 39 -70t40 -71q2 -4 -2 -4h-75q-3 0 -5 4l-47 77h-3q-43 -74 -45 -77q-2 -4 -5 -4z " />
<glyph unicode="&#x11d;" horiz-adv-x="449" d="M208 88q13 0 34 5t36 9l14 5v229q0 56 -80 56q-21 0 -33.5 -5.5t-23.5 -33t-11 -79.5v-70q0 -72 16 -94t48 -22zM209 -203q-43 0 -81.5 6t-53 10.5t-18.5 6.5q-3 1 -1 5q0 1 11.5 38.5t11.5 38.5q1 4 4 3q42 -14 124 -14q20 0 32.5 2.5t26.5 10.5t20.5 26t6.5 46v38 q-68 -18 -103 -18t-57.5 5.5t-47.5 23.5t-37.5 61t-12.5 110v84q0 68 12 112t36 63.5t47 25.5t58 6q84 0 105 -31v22q0 4 4 4h102q3 0 3 -4v-502q0 -50 -12 -84.5t-29 -53t-45.5 -28t-50 -11.5t-55.5 -2zM177 551h-76q-2 0 -2 4q5 13 40.5 71.5t40.5 70.5q0 3 5 3h87 q5 0 8 -4q1 -2 39 -70t40 -71q2 -4 -2 -4h-75q-3 0 -5 4l-47 77h-3q-43 -74 -45 -77q-2 -4 -5 -4z" />
<glyph unicode="&#x11e;" horiz-adv-x="516" d="M267 -10q-36 0 -62.5 3.5t-58.5 18t-52 40t-34 73t-14 113.5v211q0 66 15.5 113t37 71.5t55.5 38t59 16t60 2.5q48 0 93.5 -7t65.5 -13.5t24 -8.5q3 -1 1 -6l-26 -83q-1 -3 -4 -3q-3 1 -25 5t-60.5 8t-68.5 4q-24 0 -39.5 -3.5t-35 -17t-29 -45.5t-9.5 -83v-190 q0 -50 8.5 -82t25 -46.5t33 -19t41.5 -4.5l110 9v168h-82q-3 0 -3 4v89q0 4 3 4h178v-357q-144 -22 -207 -22zM271 754q-123 0 -123 125q0 6 5 6h45q7 0 8 -5q10 -33 22.5 -43.5t41.5 -10.5q27 0 40.5 11.5t21.5 42.5q2 5 8 5h47q6 0 6 -6q-6 -125 -122 -125z" />
<glyph unicode="&#x11f;" horiz-adv-x="449" d="M208 88q13 0 34 5t36 9l14 5v229q0 56 -80 56q-21 0 -33.5 -5.5t-23.5 -33t-11 -79.5v-70q0 -72 16 -94t48 -22zM209 -203q-43 0 -81.5 6t-53 10.5t-18.5 6.5q-3 1 -1 5q0 1 11.5 38.5t11.5 38.5q1 4 4 3q42 -14 124 -14q20 0 32.5 2.5t26.5 10.5t20.5 26t6.5 46v38 q-68 -18 -103 -18t-57.5 5.5t-47.5 23.5t-37.5 61t-12.5 110v84q0 68 12 112t36 63.5t47 25.5t58 6q84 0 105 -31v22q0 4 4 4h102q3 0 3 -4v-502q0 -50 -12 -84.5t-29 -53t-45.5 -28t-50 -11.5t-55.5 -2zM228 556q-123 0 -123 125q0 6 5 6h45q7 0 8 -5q10 -33 22.5 -43.5 t41.5 -10.5q27 0 40.5 11.5t21.5 42.5q2 5 8 5h47q6 0 6 -6q-6 -125 -122 -125z" />
<glyph unicode="&#x120;" horiz-adv-x="516" d="M267 -10q-36 0 -62.5 3.5t-58.5 18t-52 40t-34 73t-14 113.5v211q0 66 15.5 113t37 71.5t55.5 38t59 16t60 2.5q48 0 93.5 -7t65.5 -13.5t24 -8.5q3 -1 1 -6l-26 -83q-1 -3 -4 -3q-3 1 -25 5t-60.5 8t-68.5 4q-24 0 -39.5 -3.5t-35 -17t-29 -45.5t-9.5 -83v-190 q0 -50 8.5 -82t25 -46.5t33 -19t41.5 -4.5l110 9v168h-82q-3 0 -3 4v89q0 4 3 4h178v-357q-144 -22 -207 -22zM215 770q-4 0 -4 4v100q0 4 4 4h99q3 0 3 -4v-100q0 -4 -4 -4h-98z" />
<glyph unicode="&#x121;" horiz-adv-x="449" d="M209 -203q-43 0 -81.5 6t-53 10.5t-18.5 6.5q-3 1 -1 5q0 1 11.5 38.5t11.5 38.5q1 4 4 3q42 -14 124 -14q20 0 32.5 2.5t26.5 10.5t20.5 26t6.5 46v38q-68 -18 -103 -18t-57.5 5.5t-47.5 23.5t-37.5 61t-12.5 110v84q0 68 12 112t36 63.5t47 25.5t58 6q84 0 105 -31v22 q0 4 4 4h102q3 0 3 -4v-502q0 -50 -12 -84.5t-29 -53t-45.5 -28t-50 -11.5t-55.5 -2zM208 88q13 0 34 5t36 9l14 5v229q0 56 -80 56q-21 0 -33.5 -5.5t-23.5 -33t-11 -79.5v-70q0 -72 16 -94t48 -22zM177 572q-4 0 -4 4v100q0 4 4 4h99q3 0 3 -4v-100q0 -4 -4 -4h-98z" />
<glyph unicode="&#x122;" horiz-adv-x="516" d="M267 -10q-36 0 -62.5 3.5t-58.5 18t-52 40t-34 73t-14 113.5v211q0 66 15.5 113t37 71.5t55.5 38t59 16t60 2.5q48 0 93.5 -7t65.5 -13.5t24 -8.5q3 -1 1 -6l-26 -83q-1 -3 -4 -3q-3 1 -25 5t-60.5 8t-68.5 4q-24 0 -39.5 -3.5t-35 -17t-29 -45.5t-9.5 -83v-190 q0 -50 8.5 -82t25 -46.5t33 -19t41.5 -4.5l110 9v168h-82q-3 0 -3 4v89q0 4 3 4h178v-357q-144 -22 -207 -22zM231 -259q-5 -3 -5 4v180q0 4 3 4h84q3 0 3 -4v-116q0 -3 -3 -6z" />
<glyph unicode="&#x123;" horiz-adv-x="449" d="M209 -203q-43 0 -81.5 6t-53 10.5t-18.5 6.5q-3 1 -1 5q0 1 11.5 38.5t11.5 38.5q1 4 4 3q42 -14 124 -14q20 0 32.5 2.5t26.5 10.5t20.5 26t6.5 46v38q-68 -18 -103 -18t-57.5 5.5t-47.5 23.5t-37.5 61t-12.5 110v84q0 68 12 112t36 63.5t47 25.5t58 6q84 0 105 -31v22 q0 4 4 4h102q3 0 3 -4v-502q0 -50 -12 -84.5t-29 -53t-45.5 -28t-50 -11.5t-55.5 -2zM208 88q13 0 34 5t36 9l14 5v229q0 56 -80 56q-21 0 -33.5 -5.5t-23.5 -33t-11 -79.5v-70q0 -72 16 -94t48 -22zM259 758q5 2 5 -4v-180q0 -4 -3 -4h-84q-3 0 -3 4v116q0 3 4 6z" />
<glyph unicode="&#x124;" horiz-adv-x="544" d="M65 0q-3 0 -3 4v672q0 4 3 4h107q3 0 3 -4v-284h205v284q0 4 3 4h107q3 0 3 -4v-672q0 -4 -3 -4h-107q-3 0 -3 4v288h-205v-288q0 -4 -3 -4h-107zM225 749h-76q-2 0 -2 4q5 13 40.5 71.5t40.5 70.5q0 3 5 3h87q5 0 8 -4q1 -2 39 -70t40 -71q2 -4 -2 -4h-75q-3 0 -5 4 l-47 77h-3q-43 -74 -45 -77q-2 -4 -5 -4z" />
<glyph unicode="&#x125;" horiz-adv-x="465" d="M64 0q-4 0 -4 4v672q0 4 4 4h102q3 0 3 -4v-215q70 26 105 26q25 0 41.5 -2t38.5 -12t35.5 -28t23 -53t9.5 -84v-304q0 -4 -3 -4h-102q-3 0 -3 4v298q0 57 -14.5 74t-43.5 17q-14 0 -35.5 -6.5t-36.5 -12.5l-15 -6v-364q0 -4 -3 -4h-102zM186 749h-76q-2 0 -2 4 q5 13 40.5 71.5t40.5 70.5q0 3 5 3h87q5 0 8 -4q1 -2 39 -70t40 -71q2 -4 -2 -4h-75q-3 0 -5 4l-47 77h-3q-43 -74 -45 -77q-2 -4 -5 -4z" />
<glyph unicode="&#x128;" horiz-adv-x="226" d="M65 0q-3 0 -3 4v672q0 4 3 4h107q3 0 3 -4v-672q0 -4 -3 -4h-107zM-1 775q-3 0 -3 5v56q0 10 5 15q23 35 64 35q25 0 59 -19t52 -19q20 0 40 17.5t21 17.5q4 0 4 -5v-55q0 -10 -5 -16q-32 -37 -65 -37q-25 0 -58.5 20t-50.5 20q-21 0 -41.5 -17.5t-21.5 -17.5z" />
<glyph unicode="&#x129;" horiz-adv-x="217" d="M57 0q-3 0 -3 4v474q0 4 3 4h103q3 0 3 -4v-474q0 -4 -3 -4h-103zM-5 577q-3 0 -3 5v56q0 10 5 15q23 35 64 35q25 0 59 -19t52 -19q20 0 40 17.5t21 17.5q4 0 4 -5v-55q0 -10 -5 -16q-32 -37 -65 -37q-25 0 -58.5 20t-50.5 20q-21 0 -41.5 -17.5t-21.5 -17.5z" />
<glyph unicode="&#x12a;" horiz-adv-x="226" d="M65 0q-3 0 -3 4v672q0 4 3 4h107q3 0 3 -4v-672q0 -4 -3 -4h-107zM241 788h-244q-3 0 -3 4v76q0 4 3 4h244q3 0 3 -4v-76q0 -4 -3 -4z" />
<glyph unicode="&#x12b;" horiz-adv-x="217" d="M57 0q-3 0 -3 4v474q0 4 3 4h103q3 0 3 -4v-474q0 -4 -3 -4h-103zM236 590h-244q-3 0 -3 4v76q0 4 3 4h244q3 0 3 -4v-76q0 -4 -3 -4z" />
<glyph unicode="&#x12e;" horiz-adv-x="226" d="M65 0q-3 0 -3 4v672q0 4 3 4h107q3 0 3 -4v-672q0 -4 -3 -4h-3q-69 -52 -69 -83q0 -13 4 -17t13 -4t24 10q5 2 7 -2l25 -49q2 -7 0 -9q-28 -28 -73 -28q-37 0 -59 17t-22 64q0 57 50 101h-4z" />
<glyph unicode="&#x12f;" horiz-adv-x="218" d="M63 0q-3 0 -3 4v474q0 4 3 4h102q4 0 4 -4v-474q0 -2 -2 -4q-2 0 -2 -1q-37 -28 -54 -46.5t-17 -37.5q0 -13 4 -17t13 -4t24 10q5 2 7 -2l25 -49q2 -7 0 -9q-28 -28 -73 -28q-37 0 -59 17t-22 64q0 57 52 103h-2zM62 578q-3 0 -3 4v94q0 4 3 4h105q3 0 3 -4v-94 q0 -4 -3 -4h-105z" />
<glyph unicode="&#x130;" horiz-adv-x="226" d="M65 0q-3 0 -3 4v672q0 4 3 4h107q3 0 3 -4v-672q0 -4 -3 -4h-107zM70 770q-4 0 -4 4v100q0 4 4 4h99q3 0 3 -4v-100q0 -4 -4 -4h-98z" />
<glyph unicode="&#x131;" horiz-adv-x="217" d="M57 0q-3 0 -3 4v474q0 4 3 4h103q3 0 3 -4v-474q0 -4 -3 -4h-103z" />
<glyph unicode="&#x134;" horiz-adv-x="420" d="M176 -10q-37 0 -72.5 5.5t-51 10t-19.5 6.5q-3 1 -1 6l25 86q3 3 5 2q1 -1 17 -3t43 -4.5t50 -2.5q26 0 42.5 4.5t30 25t13.5 57.5v493q0 4 3 4h107q4 0 4 -4v-501q0 -51 -12.5 -87t-30.5 -54.5t-47 -29t-51 -12.5t-55 -2zM262 749h-76q-2 0 -2 4q5 13 40.5 71.5 t40.5 70.5q0 3 5 3h87q5 0 8 -4q1 -2 39 -70t40 -71q2 -4 -2 -4h-75q-3 0 -5 4l-47 77h-3q-43 -74 -45 -77q-2 -4 -5 -4z" />
<glyph unicode="&#x136;" horiz-adv-x="519" d="M65 0q-3 0 -3 4v672q0 4 3 4h107q3 0 3 -4v-283h32q157 279 159 283q1 4 4 4h120q3 0 1 -4l-192 -331q204 -338 205 -341q3 -4 -1 -4h-120q-3 0 -6 4l-164 288h-38v-288q0 -4 -3 -4h-107zM224 -259q-5 -3 -5 4v180q0 4 3 4h84q3 0 3 -4v-116q0 -3 -3 -6z" />
<glyph unicode="&#x137;" horiz-adv-x="448" d="M64 0q-4 0 -4 4v672q0 4 4 4h102q3 0 3 -4v-378h32q97 177 98 180q3 4 6 4h115q5 0 1 -4l-131 -226q150 -245 151 -248q2 -4 -1 -4h-118q-4 0 -5 4l-117 201h-31v-201q0 -4 -3 -4h-102zM189 -259q-5 -3 -5 4v180q0 4 3 4h84q3 0 3 -4v-116q0 -3 -3 -6z" />
<glyph unicode="&#x139;" horiz-adv-x="445" d="M62 0v676q0 4 3 4h107q3 0 3 -4v-575h254q3 0 3 -4v-93q0 -4 -3 -4h-367zM228 754q-2 -4 -5 -4h-76q-2 0 -1 4l63 141q3 4 6 4h93q3 0 2 -4z" />
<glyph unicode="&#x13a;" horiz-adv-x="256" d="M195 -6q-38 0 -58.5 4t-40.5 20t-28.5 50t-8.5 91v517q0 4 3 4h101q4 0 4 -4v-518q0 -43 10.5 -56.5t31.5 -13.5q8 0 25 2l17 1q4 0 4 -3q1 -1 6 -40.5t6 -40.5q0 -3 -3 -5q-16 -8 -69 -8zM143 754q-2 -4 -5 -4h-76q-2 0 -1 4l63 141q3 4 6 4h93q3 0 2 -4z" />
<glyph unicode="&#x13b;" horiz-adv-x="445" d="M62 0v676q0 4 3 4h107q3 0 3 -4v-575h254q3 0 3 -4v-93q0 -4 -3 -4h-367zM206 -259q-5 -3 -5 4v180q0 4 3 4h84q3 0 3 -4v-116q0 -3 -3 -6z" />
<glyph unicode="&#x13c;" horiz-adv-x="256" d="M195 -6q-38 0 -58.5 4t-40.5 20t-28.5 50t-8.5 91v517q0 4 3 4h101q4 0 4 -4v-518q0 -43 10.5 -56.5t31.5 -13.5q8 0 25 2l17 1q4 0 4 -3q1 -1 6 -40.5t6 -40.5q0 -3 -3 -5q-16 -8 -69 -8zM114 -259q-5 -3 -5 4v180q0 4 3 4h84q3 0 3 -4v-116q0 -3 -3 -6z" />
<glyph unicode="&#x13d;" horiz-adv-x="445" d="M62 0v676q0 4 3 4h107q3 0 3 -4v-575h254q3 0 3 -4v-93q0 -4 -3 -4h-367zM238 562q-5 -2 -5 4v180q0 4 3 4h84q3 0 3 -4v-116q0 -3 -3 -6z" />
<glyph unicode="&#x13e;" horiz-adv-x="375" d="M195 -6q-38 0 -58.5 4t-40.5 20t-28.5 50t-8.5 91v517q0 4 3 4h101q4 0 4 -4v-518q0 -43 10.5 -56.5t31.5 -13.5q8 0 25 2l17 1q4 0 4 -3q1 -1 6 -40.5t6 -40.5q0 -3 -3 -5q-16 -8 -69 -8zM250 492q-5 -2 -5 4v180q0 4 3 4h84q3 0 3 -4v-116q0 -3 -3 -6z" />
<glyph unicode="&#x141;" horiz-adv-x="459" d="M62 0v261q-40 -30 -42 -32q-4 -2 -4 3v93q0 6 4 7l42 31v313q0 4 3 4h107q3 0 3 -4v-246q116 84 117 85t2 0t1 -3v-93q0 -4 -3 -7l-117 -84v-227h254q3 0 3 -4v-93q0 -4 -3 -4h-367z" />
<glyph unicode="&#x142;" horiz-adv-x="278" d="M195 -6q-37 0 -58.5 4.5t-41.5 20t-28.5 50t-8.5 90.5v126q-33 -24 -34 -25q-3 0 -3 3v87q0 4 3 6l34 25v295q0 4 3 4h102q3 0 3 -4v-231q57 41 59 41q1 1 1.5 0.5t0.5 -3.5v-86q0 -6 -2 -7l-59 -41v-191q0 -43 11 -56.5t31 -13.5q7 0 17 1t17 1l8 1q3 1 4 -3 q0 -2 5.5 -41t6.5 -40q0 -5 -4 -5l-4 -1q-5 -1 -11.5 -2t-15 -2t-18.5 -2t-18 -1z" />
<glyph unicode="&#x143;" horiz-adv-x="556" d="M63 0q-3 0 -3 4v672q0 4 3 4h122q5 0 6 -4l199 -471h10v471q0 4 3 4h105q3 0 3 -4v-672q0 -4 -3 -4h-124q-4 0 -5 4l-199 473h-11v-473q0 -4 -3 -4h-103zM283 754q-2 -4 -5 -4h-76q-2 0 -1 4l63 141q3 4 6 4h93q3 0 2 -4z" />
<glyph unicode="&#x144;" horiz-adv-x="465" d="M64 0q-4 0 -4 4v474q0 4 4 4h102q3 0 3 -4v-17q71 26 105 26q24 0 40.5 -2t39 -12t36 -28t23 -53t9.5 -84v-304q0 -4 -3 -4h-102q-3 0 -3 4v298q0 58 -14 74.5t-44 16.5q-14 0 -35.5 -6.5t-36.5 -12.5l-15 -6v-364q0 -4 -3 -4h-102zM243 556q-2 -4 -5 -4h-76q-2 0 -1 4 l63 141q3 4 6 4h93q3 0 2 -4z" />
<glyph unicode="&#x145;" horiz-adv-x="556" d="M63 0q-3 0 -3 4v672q0 4 3 4h122q5 0 6 -4l199 -471h10v471q0 4 3 4h105q3 0 3 -4v-672q0 -4 -3 -4h-124q-4 0 -5 4l-199 473h-11v-473q0 -4 -3 -4h-103zM251 -259q-5 -3 -5 4v180q0 4 3 4h84q3 0 3 -4v-116q0 -3 -3 -6z" />
<glyph unicode="&#x146;" horiz-adv-x="465" d="M64 0q-4 0 -4 4v474q0 4 4 4h102q3 0 3 -4v-17q71 26 105 26q24 0 40.5 -2t39 -12t36 -28t23 -53t9.5 -84v-304q0 -4 -3 -4h-102q-3 0 -3 4v298q0 58 -14 74.5t-44 16.5q-14 0 -35.5 -6.5t-36.5 -12.5l-15 -6v-364q0 -4 -3 -4h-102zM204 -259q-5 -3 -5 4v180q0 4 3 4h84 q3 0 3 -4v-116q0 -3 -3 -6z" />
<glyph unicode="&#x147;" horiz-adv-x="556" d="M63 0q-3 0 -3 4v672q0 4 3 4h122q5 0 6 -4l199 -471h10v471q0 4 3 4h105q3 0 3 -4v-672q0 -4 -3 -4h-124q-4 0 -5 4l-199 473h-11v-473q0 -4 -3 -4h-103zM336 896h79q4 0 1 -3l-90 -142q-4 -4 -6 -4h-72q-6 0 -6 4q-6 12 -46.5 71t-45.5 71q-2 3 2 3h79q2 0 5 -3l46 -76 h3q44 72 46 76q3 3 5 3z" />
<glyph unicode="&#x148;" horiz-adv-x="465" d="M64 0q-4 0 -4 4v474q0 4 4 4h102q3 0 3 -4v-17q71 26 105 26q24 0 40.5 -2t39 -12t36 -28t23 -53t9.5 -84v-304q0 -4 -3 -4h-102q-3 0 -3 4v298q0 58 -14 74.5t-44 16.5q-14 0 -35.5 -6.5t-36.5 -12.5l-15 -6v-364q0 -4 -3 -4h-102zM290 698h79q4 0 1 -3l-90 -142 q-4 -4 -6 -4h-72q-6 0 -6 4q-6 12 -46.5 71t-45.5 71q-2 3 2 3h79q2 0 5 -3l46 -76h3q44 72 46 76q3 3 5 3z" />
<glyph unicode="&#x14c;" horiz-adv-x="516" d="M262 94q27 0 43 4.5t31.5 19t22.5 46t7 82.5v190q0 50 -7 81t-23 45t-32 18.5t-42 4.5q-25 0 -41 -4.5t-31.5 -18.5t-23 -45.5t-7.5 -80.5v-190q0 -51 7.5 -83t23 -46.5t31 -18.5t41.5 -4zM262 -11q-37 0 -62 3t-57.5 17t-51.5 39t-33 73t-14 116v210q0 65 13.5 112 t33 72t51 39t57.5 17t63 3t61.5 -2.5t57 -16t52.5 -38.5t34 -72t14 -114v-210q0 -58 -8.5 -101.5t-26.5 -69.5t-36.5 -42.5t-47 -23.5t-49 -9t-51.5 -2zM385 788h-244q-3 0 -3 4v76q0 4 3 4h244q3 0 3 -4v-76q0 -4 -3 -4z" />
<glyph unicode="&#x14d;" horiz-adv-x="439" d="M224 87q18 0 29 3t23 14t17.5 36t5.5 65v75q0 72 -18.5 94t-55.5 22q-38 0 -57.5 -22t-19.5 -94v-75q0 -75 19 -96.5t57 -21.5zM224 -8q-42 0 -70 6t-57 25.5t-43.5 63.5t-14.5 112v88q0 54 11 93t27 60t42.5 33t49.5 15t56 3q32 0 53.5 -2.5t48.5 -14t43 -32t27.5 -60 t11.5 -94.5v-89q0 -56 -11 -96t-27 -61t-43 -33t-49 -14.5t-55 -2.5zM347 590h-244q-3 0 -3 4v76q0 4 3 4h244q3 0 3 -4v-76q0 -4 -3 -4z" />
<glyph unicode="&#x14e;" horiz-adv-x="516" d="M262 94q27 0 43 4.5t31.5 19t22.5 46t7 82.5v190q0 50 -7 81t-23 45t-32 18.5t-42 4.5q-25 0 -41 -4.5t-31.5 -18.5t-23 -45.5t-7.5 -80.5v-190q0 -51 7.5 -83t23 -46.5t31 -18.5t41.5 -4zM262 -11q-37 0 -62 3t-57.5 17t-51.5 39t-33 73t-14 116v210q0 65 13.5 112 t33 72t51 39t57.5 17t63 3t61.5 -2.5t57 -16t52.5 -38.5t34 -72t14 -114v-210q0 -58 -8.5 -101.5t-26.5 -69.5t-36.5 -42.5t-47 -23.5t-49 -9t-51.5 -2zM265 754q-123 0 -123 125q0 6 5 6h45q7 0 8 -5q10 -33 22.5 -43.5t41.5 -10.5q27 0 40.5 11.5t21.5 42.5q2 5 8 5h47 q6 0 6 -6q-6 -125 -122 -125z" />
<glyph unicode="&#x14f;" horiz-adv-x="439" d="M224 87q18 0 29 3t23 14t17.5 36t5.5 65v75q0 72 -18.5 94t-55.5 22q-38 0 -57.5 -22t-19.5 -94v-75q0 -75 19 -96.5t57 -21.5zM224 -8q-42 0 -70 6t-57 25.5t-43.5 63.5t-14.5 112v88q0 54 11 93t27 60t42.5 33t49.5 15t56 3q32 0 53.5 -2.5t48.5 -14t43 -32t27.5 -60 t11.5 -94.5v-89q0 -56 -11 -96t-27 -61t-43 -33t-49 -14.5t-55 -2.5zM226 556q-123 0 -123 125q0 6 5 6h45q7 0 8 -5q10 -33 22.5 -43.5t41.5 -10.5q27 0 40.5 11.5t21.5 42.5q2 5 8 5h47q6 0 6 -6q-6 -125 -122 -125z" />
<glyph unicode="&#x150;" horiz-adv-x="516" d="M262 -11q-37 0 -62 3t-57.5 17t-51.5 39t-33 73t-14 116v210q0 65 13.5 112t33 72t51 39t57.5 17t63 3t61.5 -2.5t57 -16t52.5 -38.5t34 -72t14 -114v-210q0 -58 -8.5 -101.5t-26.5 -69.5t-36.5 -42.5t-47 -23.5t-49 -9t-51.5 -2zM262 94q27 0 43 4.5t31.5 19t22.5 46 t7 82.5v190q0 50 -7 81t-23 45t-32 18.5t-42 4.5q-25 0 -41 -4.5t-31.5 -18.5t-23 -45.5t-7.5 -80.5v-190q0 -51 7.5 -83t23 -46.5t31 -18.5t41.5 -4zM215 753q-1 -4 -5 -4h-76q-2 0 -1 4l63 141q1 4 5 4h94q3 0 2 -4zM352 753q-3 -4 -5 -4h-76q-2 0 -1 4l63 141q1 4 6 4h93 q4 0 1 -4z" />
<glyph unicode="&#x151;" horiz-adv-x="439" d="M224 -8q-42 0 -70 6t-57 25.5t-43.5 63.5t-14.5 112v88q0 54 11 93t27 60t42.5 33t49.5 15t56 3q32 0 53.5 -2.5t48.5 -14t43 -32t27.5 -60t11.5 -94.5v-89q0 -56 -11 -96t-27 -61t-43 -33t-49 -14.5t-55 -2.5zM224 87q18 0 29 3t23 14t17.5 36t5.5 65v75q0 72 -18.5 94 t-55.5 22q-38 0 -57.5 -22t-19.5 -94v-75q0 -75 19 -96.5t57 -21.5zM181 555q-1 -4 -5 -4h-76q-2 0 -1 4l63 141q1 4 5 4h94q3 0 2 -4zM318 555q-3 -4 -5 -4h-76q-2 0 -1 4l63 141q1 4 6 4h93q4 0 1 -4z" />
<glyph unicode="&#x152;" horiz-adv-x="779" d="M264 99q24 0 39.5 5t32 20t24.5 49.5t8 87.5v161q0 53 -9 87t-26 48.5t-32 18.5t-37 4q-23 0 -38 -4t-32 -18t-25.5 -47t-8.5 -84v-171q0 -53 8 -86.5t25 -48t32 -18.5t39 -4zM263 -3q-35 0 -60 3t-57 17.5t-52 39.5t-34 74t-14 117v189q0 66 13.5 113.5t33 72.5t51 39 t57 17t62.5 3q59 0 105 -39v37h367q3 0 3 -4v-94q0 -3 -3 -3h-254v-183h214q4 0 4 -5v-93q0 -4 -4 -4h-214v-193h254q3 0 3 -3v-94q0 -4 -3 -4h-367v37q-15 -12 -22.5 -17.5t-31.5 -14t-51 -8.5z" />
<glyph unicode="&#x153;" horiz-adv-x="705" d="M226 90q17 0 28 3t23.5 14t18.5 36t6 65v71q0 71 -19.5 92t-55.5 21q-17 0 -28.5 -3t-23.5 -13.5t-18 -35t-6 -63.5v-69q0 -72 18.5 -95t56.5 -23zM412 277h145q0 69 -18 92t-53 23t-54.5 -23t-19.5 -92zM226 -6q-43 0 -72.5 7t-57 27t-41.5 63.5t-14 110.5v81 q0 55 11.5 94t28 60t43.5 32.5t49 14.5t54 3q37 0 71.5 -14.5t55.5 -39.5q52 54 132 54q28 0 48.5 -3t46.5 -14.5t42.5 -33t28.5 -61.5t12 -95v-77h-252q2 -68 20.5 -92t66.5 -24q19 0 39 1.5t36 3.5t29 4.5t21 3.5l7 2q3 1 4 -3l21 -73q0 -4 -3 -5q-81 -27 -155 -27 q-101 0 -143 57q-16 -17 -28.5 -27t-40 -20t-60.5 -10z" />
<glyph unicode="&#x154;" horiz-adv-x="518" d="M171 0h-106q-3 0 -3 4v676h219q28 0 49.5 -2.5t51 -13t49 -29.5t33.5 -56t14 -88v-52q0 -129 -86 -168l103 -267q1 -4 -2 -4h-118q-5 0 -6 4l-88 247h-107v-247q0 -4 -3 -4zM174 353h102q89 0 89 90v46q0 29 -8 48.5t-23 27.5t-28 11t-30 3h-102v-226zM264 754 q-2 -4 -5 -4h-76q-2 0 -1 4l63 141q3 4 6 4h93q3 0 2 -4z" />
<glyph unicode="&#x155;" horiz-adv-x="350" d="M64 0q-4 0 -4 4v474q0 4 4 4h102q3 0 3 -4v-19q52 28 85 28q62 0 88 -17q3 -1 1 -5q0 -1 -11.5 -38t-11.5 -38q-1 -4 -5 -3q-16 8 -71 8q-14 0 -32.5 -8t-30.5 -16l-12 -7v-359q0 -4 -3 -4h-102zM187 556q-2 -4 -5 -4h-76q-2 0 -1 4l63 141q3 4 6 4h93q3 0 2 -4z" />
<glyph unicode="&#x156;" horiz-adv-x="518" d="M171 0h-106q-3 0 -3 4v676h219q28 0 49.5 -2.5t51 -13t49 -29.5t33.5 -56t14 -88v-52q0 -129 -86 -168l103 -267q1 -4 -2 -4h-118q-5 0 -6 4l-88 247h-107v-247q0 -4 -3 -4zM174 353h102q89 0 89 90v46q0 29 -8 48.5t-23 27.5t-28 11t-30 3h-102v-226zM228 -259 q-5 -3 -5 4v180q0 4 3 4h84q3 0 3 -4v-116q0 -3 -3 -6z" />
<glyph unicode="&#x157;" horiz-adv-x="350" d="M64 0q-4 0 -4 4v474q0 4 4 4h102q3 0 3 -4v-19q52 28 85 28q62 0 88 -17q3 -1 1 -5q0 -1 -11.5 -38t-11.5 -38q-1 -4 -5 -3q-16 8 -71 8q-14 0 -32.5 -8t-30.5 -16l-12 -7v-359q0 -4 -3 -4h-102zM156 -249q-5 -3 -5 4v180q0 4 3 4h84q3 0 3 -4v-116q0 -3 -3 -6z" />
<glyph unicode="&#x158;" horiz-adv-x="518" d="M174 353h102q89 0 89 90v46q0 29 -8 48.5t-23 27.5t-28 11t-30 3h-102v-226zM171 0h-106q-3 0 -3 4v676h219q28 0 49.5 -2.5t51 -13t49 -29.5t33.5 -56t14 -88v-52q0 -129 -86 -168l103 -267q1 -4 -2 -4h-118q-5 0 -6 4l-88 247h-107v-247q0 -4 -3 -4zM300 896h79 q4 0 1 -3l-90 -142q-4 -4 -6 -4h-72q-6 0 -6 4q-6 12 -46.5 71t-45.5 71q-2 3 2 3h79q2 0 5 -3l46 -76h3q44 72 46 76q3 3 5 3z" />
<glyph unicode="&#x159;" horiz-adv-x="350" d="M64 0q-4 0 -4 4v474q0 4 4 4h102q3 0 3 -4v-19q52 28 85 28q62 0 88 -17q3 -1 1 -5q0 -1 -11.5 -38t-11.5 -38q-1 -4 -5 -3q-16 8 -71 8q-14 0 -32.5 -8t-30.5 -16l-12 -7v-359q0 -4 -3 -4h-102zM233 698h79q4 0 1 -3l-90 -142q-4 -4 -6 -4h-72q-6 0 -6 4q-6 12 -46.5 71 t-45.5 71q-1 3 2 3h79q2 0 5 -3l46 -76h3q44 72 46 76q3 3 5 3z" />
<glyph unicode="&#x15a;" horiz-adv-x="500" d="M253 -10q-130 0 -200 35q-3 3 -1 6l26 89q0 3 4 3q87 -29 173 -29q48 0 74.5 13.5t26.5 57.5v52q0 35 -27 53t-84 23q-106 12 -147.5 48.5t-41.5 119.5v77q0 153 199 153q53 0 98 -7.5t62 -14t20 -9.5q3 -1 1 -5q0 -1 -12 -42t-13 -43q-2 -4 -5 -2q-3 1 -22 5.5t-56.5 10 t-71.5 5.5q-84 0 -84 -65v-50q0 -36 21.5 -52.5t83.5 -23.5q108 -13 151.5 -49.5t43.5 -120.5v-78q0 -52 -19.5 -86t-55.5 -49t-68 -20t-76 -5zM269 754q-2 -4 -5 -4h-76q-2 0 -1 4l63 141q3 4 6 4h93q3 0 2 -4z" />
<glyph unicode="&#x15b;" horiz-adv-x="416" d="M215 -8q-100 0 -166 22q-2 1 -2 5l21 76q1 3 5 3q2 -1 21 -5t54.5 -8t66.5 -4q34 0 51 8.5t17 36.5v25q0 20 -17.5 31.5t-66.5 18.5q-146 21 -146 120v49q0 120 160 120q25 0 49.5 -2t41.5 -5t30 -6.5t20 -5.5l8 -2q1 -1 1 -5q0 -1 -9 -36.5t-10 -36.5q-2 -2 -3 -2l-7 1 q-8 2 -21 4t-28 4t-34.5 3.5t-36.5 1.5q-58 0 -58 -41v-26q0 -19 19.5 -29.5t65.5 -16.5q72 -9 108 -37t36 -83v-49q0 -42 -14 -69.5t-40.5 -39.5t-52.5 -16t-63 -4zM224 556q-2 -4 -5 -4h-76q-2 0 -1 4l63 141q3 4 6 4h93q3 0 2 -4z" />
<glyph unicode="&#x15c;" horiz-adv-x="500" d="M253 -10q-130 0 -200 35q-3 3 -1 6l26 89q0 3 4 3q87 -29 173 -29q48 0 74.5 13.5t26.5 57.5v52q0 35 -27 53t-84 23q-106 12 -147.5 48.5t-41.5 119.5v77q0 153 199 153q53 0 98 -7.5t62 -14t20 -9.5q3 -1 1 -5q0 -1 -12 -42t-13 -43q-2 -4 -5 -2q-3 1 -22 5.5t-56.5 10 t-71.5 5.5q-84 0 -84 -65v-50q0 -36 21.5 -52.5t83.5 -23.5q108 -13 151.5 -49.5t43.5 -120.5v-78q0 -52 -19.5 -86t-55.5 -49t-68 -20t-76 -5zM203 749h-76q-2 0 -2 4q5 13 40.5 71.5t40.5 70.5q0 3 5 3h87q5 0 8 -4q1 -2 39 -70t40 -71q2 -4 -2 -4h-75q-3 0 -5 4l-47 77 h-3q-43 -74 -45 -77q-2 -4 -5 -4z" />
<glyph unicode="&#x15d;" horiz-adv-x="416" d="M215 -8q-100 0 -166 22q-2 1 -2 5l21 76q1 3 5 3q2 -1 21 -5t54.5 -8t66.5 -4q34 0 51 8.5t17 36.5v25q0 20 -17.5 31.5t-66.5 18.5q-146 21 -146 120v49q0 120 160 120q25 0 49.5 -2t41.5 -5t30 -6.5t20 -5.5l8 -2q1 -1 1 -5q0 -1 -9 -36.5t-10 -36.5q-2 -2 -3 -2l-7 1 q-8 2 -21 4t-28 4t-34.5 3.5t-36.5 1.5q-58 0 -58 -41v-26q0 -19 19.5 -29.5t65.5 -16.5q72 -9 108 -37t36 -83v-49q0 -42 -14 -69.5t-40.5 -39.5t-52.5 -16t-63 -4zM165 551h-76q-2 0 -2 4q5 13 40.5 71.5t40.5 70.5q0 3 5 3h87q5 0 8 -4q1 -2 39 -70t40 -71q2 -4 -2 -4 h-75q-3 0 -5 4l-47 77h-3q-43 -74 -45 -77q-2 -4 -5 -4z" />
<glyph unicode="&#x15e;" horiz-adv-x="500" d="M273 -156h-94q-3 0 -1 5q0 2 57 141q-118 3 -182 35q-3 3 -1 6l26 89q0 3 4 3q87 -29 173 -29q48 0 74.5 13.5t26.5 57.5v52q0 35 -27 53t-84 23q-106 12 -147.5 48.5t-41.5 119.5v77q0 153 199 153q53 0 98 -7.5t62 -14t20 -9.5q3 -1 1 -5q0 -1 -12 -42t-13 -43 q-2 -4 -5 -2q-3 1 -22 5.5t-56.5 10t-71.5 5.5q-84 0 -84 -65v-50q0 -36 21.5 -52.5t83.5 -23.5q108 -13 151.5 -49.5t43.5 -120.5v-78q0 -139 -151 -156l-43 -145q-1 -5 -5 -5z" />
<glyph unicode="&#x15f;" horiz-adv-x="416" d="M227 -156h-94q-3 0 -1 5q0 1 11 28t26 64t21 52q-87 3 -141 21q-2 1 -2 5l21 76q1 3 5 3q2 -1 21 -5t54.5 -8t66.5 -4q34 0 51 8.5t17 36.5v25q0 20 -17.5 31.5t-66.5 18.5q-146 21 -146 120v49q0 120 160 120q25 0 49.5 -2t41.5 -5t30 -6.5t20 -5.5l8 -2q1 -1 1 -5 q0 -1 -9 -36.5t-10 -36.5q-2 -2 -3 -2l-7 1q-8 2 -21 4t-28 4t-34.5 3.5t-36.5 1.5q-58 0 -58 -41v-26q0 -19 19.5 -29.5t65.5 -16.5q72 -9 108 -37t36 -83v-49q0 -62 -29 -90t-80 -35l-44 -147q-1 -5 -5 -5z" />
<glyph unicode="&#x160;" horiz-adv-x="500" d="M253 -10q-130 0 -200 35q-3 3 -1 6l26 89q0 3 4 3q87 -29 173 -29q48 0 74.5 13.5t26.5 57.5v52q0 35 -27 53t-84 23q-106 12 -147.5 48.5t-41.5 119.5v77q0 153 199 153q53 0 98 -7.5t62 -14t20 -9.5q3 -1 1 -5q0 -1 -12 -42t-13 -43q-2 -4 -5 -2q-3 1 -22 5.5t-56.5 10 t-71.5 5.5q-84 0 -84 -65v-50q0 -36 21.5 -52.5t83.5 -23.5q108 -13 151.5 -49.5t43.5 -120.5v-78q0 -52 -19.5 -86t-55.5 -49t-68 -20t-76 -5zM307 896h79q4 0 1 -3l-90 -142q-4 -4 -6 -4h-72q-6 0 -6 4q-6 12 -46.5 71t-45.5 71q-1 3 2 3h79q2 0 5 -3l46 -76h3 q44 72 46 76q3 3 5 3z" />
<glyph unicode="&#x161;" horiz-adv-x="416" d="M215 -8q-100 0 -166 22q-2 1 -2 5l21 76q1 3 5 3q2 -1 21 -5t54.5 -8t66.5 -4q34 0 51 8.5t17 36.5v25q0 20 -17.5 31.5t-66.5 18.5q-146 21 -146 120v49q0 120 160 120q25 0 49.5 -2t41.5 -5t30 -6.5t20 -5.5l8 -2q1 -1 1 -5q0 -1 -9 -36.5t-10 -36.5q-2 -2 -3 -2l-7 1 q-8 2 -21 4t-28 4t-34.5 3.5t-36.5 1.5q-58 0 -58 -41v-26q0 -19 19.5 -29.5t65.5 -16.5q72 -9 108 -37t36 -83v-49q0 -42 -14 -69.5t-40.5 -39.5t-52.5 -16t-63 -4zM266 698h79q4 0 1 -3l-90 -142q-4 -4 -6 -4h-72q-6 0 -6 4q-6 12 -46.5 71t-45.5 71q-2 3 2 3h79q2 0 5 -3 l46 -76h3q44 72 46 76q3 3 5 3z" />
<glyph unicode="&#x164;" horiz-adv-x="459" d="M182 0q-3 0 -3 4v572h-157q-3 0 -3 4v96q0 4 3 4h426q4 0 4 -4v-96q0 -4 -4 -4h-156v-572q0 -4 -3 -4h-107zM287 896h79q4 0 1 -3l-90 -142q-4 -4 -6 -4h-72q-6 0 -6 4q-6 12 -46.5 71t-45.5 71q-1 3 2 3h79q2 0 5 -3l46 -76h3q44 72 46 76q3 3 5 3z" />
<glyph unicode="&#x165;" horiz-adv-x="390" d="M208 -5q-37 0 -57 3.5t-41 18.5t-30 50t-9 92v238h-42q-3 0 -3 4v78q0 3 3 3h42v154q0 4 3 4h102q3 0 3 -4v-154h78q4 0 4 -3v-78q0 -4 -4 -4h-78v-238q0 -23 3.5 -38.5t10.5 -21.5t13 -8t15 -2q8 0 18 0.5t17 1.5l7 1q3 0 4 -4q0 -1 5.5 -40.5t6.5 -40.5q1 -3 -3 -5 q-21 -7 -68 -7zM290 492q-5 -2 -5 4v180q0 4 3 4h84q3 0 3 -4v-116q0 -3 -3 -6z" />
<glyph unicode="&#x168;" horiz-adv-x="534" d="M254 -10q-112 0 -154.5 61.5t-42.5 207.5v417q0 4 3 4h107q3 0 3 -4v-408q0 -96 15.5 -134.5t69.5 -38.5h37q53 0 68 37t15 136v408q0 4 3 4h107q3 0 3 -4v-417q0 -56 -4.5 -95.5t-17 -74t-34 -55.5t-57 -32.5t-84.5 -11.5h-37zM153 775q-3 0 -3 5v56q0 10 5 15 q23 35 64 35q24 0 58.5 -19t52.5 -19q20 0 40 17.5t21 17.5q4 0 4 -5v-55q0 -10 -5 -16q-32 -37 -65 -37q-25 0 -58.5 20t-50.5 20q-21 0 -41.5 -17.5t-21.5 -17.5z" />
<glyph unicode="&#x169;" horiz-adv-x="464" d="M414 482q3 0 3 -4v-474q0 -4 -3 -4h-102q-3 0 -3 4v13q-71 -25 -105 -25q-31 0 -51.5 4.5t-45.5 20.5t-38 55t-13 99v307q0 4 3 4h102q3 0 3 -4v-300q0 -57 14 -74t44 -17q14 0 35.5 5.5t36.5 11.5l15 6v368q0 4 3 4h102zM118 577q-3 0 -3 5v56q0 10 5 15q23 35 64 35 q25 0 58.5 -19t52.5 -19q20 0 40 17.5t21 17.5q4 0 4 -5v-55q0 -10 -5 -16q-32 -37 -65 -37q-25 0 -58.5 20t-50.5 20q-21 0 -41.5 -17.5t-21.5 -17.5z" />
<glyph unicode="&#x16a;" horiz-adv-x="534" d="M254 -10q-112 0 -154.5 61.5t-42.5 207.5v417q0 4 3 4h107q3 0 3 -4v-408q0 -96 15.5 -134.5t69.5 -38.5h37q53 0 68 37t15 136v408q0 4 3 4h107q3 0 3 -4v-417q0 -56 -4.5 -95.5t-17 -74t-34 -55.5t-57 -32.5t-84.5 -11.5h-37zM394 788h-244q-3 0 -3 4v76q0 4 3 4h244 q3 0 3 -4v-76q0 -4 -3 -4z" />
<glyph unicode="&#x16b;" horiz-adv-x="464" d="M414 482q3 0 3 -4v-474q0 -4 -3 -4h-102q-3 0 -3 4v13q-71 -25 -105 -25q-31 0 -51.5 4.5t-45.5 20.5t-38 55t-13 99v307q0 4 3 4h102q3 0 3 -4v-300q0 -57 14 -74t44 -17q14 0 35.5 5.5t36.5 11.5l15 6v368q0 4 3 4h102zM360 590h-244q-3 0 -3 4v76q0 4 3 4h244 q3 0 3 -4v-76q0 -4 -3 -4z" />
<glyph unicode="&#x16c;" horiz-adv-x="534" d="M254 -10q-112 0 -154.5 61.5t-42.5 207.5v417q0 4 3 4h107q3 0 3 -4v-408q0 -96 15.5 -134.5t69.5 -38.5h37q53 0 68 37t15 136v408q0 4 3 4h107q3 0 3 -4v-417q0 -56 -4.5 -95.5t-17 -74t-34 -55.5t-57 -32.5t-84.5 -11.5h-37zM274 754q-123 0 -123 125q0 6 5 6h45 q7 0 8 -5q10 -33 22.5 -43.5t41.5 -10.5q27 0 40.5 11.5t21.5 42.5q2 5 8 5h47q6 0 6 -6q-6 -125 -122 -125z" />
<glyph unicode="&#x16d;" horiz-adv-x="464" d="M414 482q3 0 3 -4v-474q0 -4 -3 -4h-102q-3 0 -3 4v13q-71 -25 -105 -25q-31 0 -51.5 4.5t-45.5 20.5t-38 55t-13 99v307q0 4 3 4h102q3 0 3 -4v-300q0 -57 14 -74t44 -17q14 0 35.5 5.5t36.5 11.5l15 6v368q0 4 3 4h102zM239 556q-123 0 -123 125q0 6 5 6h45q7 0 8 -5 q10 -33 22.5 -43.5t41.5 -10.5q27 0 40.5 11.5t21.5 42.5q2 5 8 5h47q6 0 6 -6q-6 -125 -122 -125z" />
<glyph unicode="&#x16e;" horiz-adv-x="534" d="M254 -10q-112 0 -154.5 61.5t-42.5 207.5v417q0 4 3 4h107q3 0 3 -4v-408q0 -96 15.5 -134.5t69.5 -38.5h37q53 0 68 37t15 136v408q0 4 3 4h107q3 0 3 -4v-417q0 -56 -4.5 -95.5t-17 -74t-34 -55.5t-57 -32.5t-84.5 -11.5h-37zM273 731q-40 0 -64 17.5t-24 70.5v22 q0 51 24.5 68.5t65.5 17.5q18 0 30 -2.5t26 -10.5t21.5 -26.5t7.5 -46.5v-22q0 -29 -7.5 -47.5t-21.5 -27t-26.5 -11t-31.5 -2.5zM273 780q19 0 29.5 8.5t10.5 35.5v12q0 26 -10 34.5t-29 8.5q-20 0 -31 -9t-11 -34v-12q0 -27 10.5 -35.5t30.5 -8.5z" />
<glyph unicode="&#x16f;" horiz-adv-x="464" d="M414 482q3 0 3 -4v-474q0 -4 -3 -4h-102q-3 0 -3 4v13q-71 -25 -105 -25q-31 0 -51.5 4.5t-45.5 20.5t-38 55t-13 99v307q0 4 3 4h102q3 0 3 -4v-300q0 -57 14 -74t44 -17q14 0 35.5 5.5t36.5 11.5l15 6v368q0 4 3 4h102zM238 533q-40 0 -64 17.5t-24 70.5v22 q0 51 24.5 68.5t65.5 17.5q18 0 30 -2.5t26 -10.5t21.5 -26.5t7.5 -46.5v-22q0 -29 -7.5 -47.5t-21.5 -27t-26.5 -11t-31.5 -2.5zM238 582q19 0 29.5 8.5t10.5 35.5v12q0 26 -10 34.5t-29 8.5q-20 0 -31 -9t-11 -34v-12q0 -27 10.5 -35.5t30.5 -8.5z" />
<glyph unicode="&#x170;" horiz-adv-x="534" d="M254 -10q-112 0 -154.5 61.5t-42.5 207.5v417q0 4 3 4h107q3 0 3 -4v-408q0 -96 15.5 -134.5t69.5 -38.5h37q53 0 68 37t15 136v408q0 4 3 4h107q3 0 3 -4v-417q0 -56 -4.5 -95.5t-17 -74t-34 -55.5t-57 -32.5t-84.5 -11.5h-37zM234 753q-1 -4 -5 -4h-76q-2 0 -1 4 l63 141q1 4 5 4h94q3 0 2 -4zM371 753q-3 -4 -5 -4h-76q-2 0 -1 4l63 141q1 4 6 4h93q4 0 1 -4z" />
<glyph unicode="&#x171;" horiz-adv-x="464" d="M414 482q3 0 3 -4v-474q0 -4 -3 -4h-102q-3 0 -3 4v13q-71 -25 -105 -25q-31 0 -51.5 4.5t-45.5 20.5t-38 55t-13 99v307q0 4 3 4h102q3 0 3 -4v-300q0 -57 14 -74t44 -17q14 0 35.5 5.5t36.5 11.5l15 6v368q0 4 3 4h102zM200 555q-1 -4 -5 -4h-76q-2 0 -1 4l63 141 q1 4 5 4h94q3 0 2 -4zM337 555q-3 -4 -5 -4h-76q-2 0 -1 4l63 141q1 4 6 4h93q4 0 1 -4z" />
<glyph unicode="&#x172;" horiz-adv-x="534" d="M257 -188q-37 0 -59 17t-22 64q0 55 47 99q-94 7 -130 69t-36 198v417q0 4 3 4h107q3 0 3 -4v-408q0 -96 15.5 -134.5t69.5 -38.5h37q53 0 68 37t15 136v408q0 4 3 4h107q3 0 3 -4v-417q0 -133 -33.5 -196.5t-131.5 -71.5q-34 -26 -50 -44t-16 -36q0 -13 4 -17t13 -4 t24 10q5 2 7 -2l25 -49q2 -7 0 -9q-28 -28 -73 -28z" />
<glyph unicode="&#x173;" horiz-adv-x="464" d="M342 -184q-37 0 -59 17t-22 64q0 57 52 103h-1q-3 0 -3 4v13q-71 -25 -105 -25q-31 0 -51.5 4.5t-45.5 20.5t-38 55t-13 99v307q0 4 3 4h102q3 0 3 -4v-300q0 -57 14 -74t44 -17q14 0 35.5 5.5t36.5 11.5l15 6v368q0 4 3 4h102q3 0 3 -4v-474q0 -4 -3 -4q-1 0 -1 -1 q-37 -28 -54 -46.5t-17 -37.5q0 -13 4 -17t13 -4t24 10q5 2 7 -2l25 -49q2 -7 0 -9q-28 -28 -73 -28z" />
<glyph unicode="&#x174;" horiz-adv-x="734" d="M138 0q-3 0 -4 4q0 1 -53.5 335.5t-54.5 336.5q-1 4 2 4h111q3 0 4 -4l72 -492h16q92 352 93 354q1 4 4 4h89q4 0 5 -4l92 -354h16q71 489 72 492q1 4 5 4h111q4 0 2 -4q-1 -2 -54.5 -336t-53.5 -336q-1 -4 -4 -4h-138q-3 0 -4 4l-88 344h-10q-87 -339 -87 -343 q-3 -5 -6 -5h-137zM319 749h-76q-2 0 -2 4q5 13 40.5 71.5t40.5 70.5q0 3 5 3h87q5 0 8 -4q1 -2 39 -70t40 -71q2 -4 -2 -4h-75q-3 0 -5 4l-47 77h-3q-43 -74 -45 -77q-2 -4 -5 -4z" />
<glyph unicode="&#x175;" horiz-adv-x="631" d="M141 0q-2 0 -3 4l-101 474q0 4 2 4h104q4 0 4 -4l58 -314h7q69 218 70 222q2 3 4 3h73q1 0 3 -3l71 -222h8q53 311 53 314q2 4 5 4h104q3 0 2 -4l-100 -474q0 -4 -4 -4h-96q-2 0 -3 4l-76 245h-8q-77 -242 -78 -245q-1 -4 -3 -4h-96zM268 551h-76q-2 0 -2 4 q5 13 40.5 71.5t40.5 70.5q0 3 5 3h87q5 0 8 -4q1 -2 39 -70t40 -71q2 -4 -2 -4h-75q-3 0 -5 4l-47 77h-3q-43 -74 -45 -77q-2 -4 -5 -4z" />
<glyph unicode="&#x176;" horiz-adv-x="476" d="M190 0q-3 0 -3 4v263q-173 406 -174 409q-2 4 2 4h114q1 0 4 -4l109 -279h6q106 276 107 279q3 4 4 4h112q3 0 2 -4l-173 -409v-263q0 -4 -3 -4h-107zM191 749h-76q-2 0 -2 4q5 13 40.5 71.5t40.5 70.5q0 3 5 3h87q5 0 8 -4q1 -2 39 -70t40 -71q2 -4 -2 -4h-75q-3 0 -5 4 l-47 77h-3q-43 -74 -45 -77q-2 -4 -5 -4z" />
<glyph unicode="&#x177;" horiz-adv-x="423" d="M61 -180q-3 0 -3 4q1 2 5.5 43t4.5 43q0 4 4 4h23q12 0 20 3t20 18.5t20 44.5l10 39q-145 456 -146 459q-2 4 1 4h107q4 0 4 -4l85 -308h8q81 305 81 308q2 4 5 4h104q3 0 2 -4l-171 -529q-15 -46 -29.5 -73.5t-33.5 -39t-34 -14t-44 -2.5h-43zM168 551h-76q-2 0 -2 4 q5 13 40.5 71.5t40.5 70.5q0 3 5 3h87q5 0 8 -4q1 -2 39 -70t40 -71q2 -4 -2 -4h-75q-3 0 -5 4l-47 77h-3q-43 -74 -45 -77q-2 -4 -5 -4z" />
<glyph unicode="&#x178;" horiz-adv-x="476" d="M190 0q-3 0 -3 4v263q-173 406 -174 409q-2 4 2 4h114q1 0 4 -4l109 -279h6q106 276 107 279q3 4 4 4h112q3 0 2 -4l-173 -409v-263q0 -4 -3 -4h-107zM122 777q-4 0 -4 4v95q0 4 4 4h80q4 0 4 -4v-95q0 -4 -4 -4h-80zM290 777q-3 0 -3 4v95q0 4 3 4h80q3 0 3 -4v-95 q0 -4 -3 -4h-80z" />
<glyph unicode="&#x179;" horiz-adv-x="460" d="M42 0q-3 0 -3 3v98q0 2 3 8l255 458v9h-244q-3 0 -3 4v95q0 5 3 5h374q4 0 4 -5v-95q0 -6 -3 -11l-255 -457v-9h254q4 0 4 -4v-95q0 -4 -4 -4h-385zM257 754q-2 -4 -5 -4h-76q-2 0 -1 4l63 141q3 4 6 4h93q3 0 2 -4z" />
<glyph unicode="&#x17a;" horiz-adv-x="403" d="M48 0q-3 0 -3 4v82q0 3 4 8l189 288v7h-182q-3 0 -3 5v84q0 4 3 4h311q3 0 3 -4v-84q0 -4 -2 -7l-189 -287v-8h191q3 0 3 -4v-84q0 -4 -3 -4h-322zM229 556q-2 -4 -5 -4h-76q-2 0 -1 4l63 141q3 4 6 4h93q3 0 2 -4z" />
<glyph unicode="&#x17b;" horiz-adv-x="460" d="M42 0q-3 0 -3 3v98q0 2 3 8l255 458v9h-244q-3 0 -3 4v95q0 5 3 5h374q4 0 4 -5v-95q0 -6 -3 -11l-255 -457v-9h254q4 0 4 -4v-95q0 -4 -4 -4h-385zM195 770q-4 0 -4 4v100q0 4 4 4h99q3 0 3 -4v-100q0 -4 -4 -4h-98z" />
<glyph unicode="&#x17c;" horiz-adv-x="403" d="M48 0q-3 0 -3 4v82q0 3 4 8l189 288v7h-182q-3 0 -3 5v84q0 4 3 4h311q3 0 3 -4v-84q0 -4 -2 -7l-189 -287v-8h191q3 0 3 -4v-84q0 -4 -3 -4h-322zM164 572q-4 0 -4 4v100q0 4 4 4h99q3 0 3 -4v-100q0 -4 -4 -4h-98z" />
<glyph unicode="&#x17d;" horiz-adv-x="460" d="M42 0q-3 0 -3 3v98q0 2 3 8l255 458v9h-244q-3 0 -3 4v95q0 5 3 5h374q4 0 4 -5v-95q0 -6 -3 -11l-255 -457v-9h254q4 0 4 -4v-95q0 -4 -4 -4h-385zM288 896h79q4 0 1 -3l-90 -142q-4 -4 -6 -4h-72q-6 0 -6 4q-6 12 -46.5 71t-45.5 71q-2 3 2 3h79q2 0 5 -3l46 -76h3 q44 72 46 76q3 3 5 3z" />
<glyph unicode="&#x17e;" horiz-adv-x="403" d="M48 0q-3 0 -3 4v82q0 3 4 8l189 288v7h-182q-3 0 -3 5v84q0 4 3 4h311q3 0 3 -4v-84q0 -4 -2 -7l-189 -287v-8h191q3 0 3 -4v-84q0 -4 -3 -4h-322zM260 698h79q4 0 1 -3l-90 -142q-4 -4 -6 -4h-72q-6 0 -6 4q-6 12 -46.5 71t-45.5 71q-2 3 2 3h79q2 0 5 -3l46 -76h3 q44 72 46 76q3 3 5 3z" />
<glyph unicode="&#x192;" horiz-adv-x="447" d="M138 -186q-13 0 -30.5 2t-29.5 4l-12 2q-3 0 -3 5q0 1 6 40l6 39q0 4 4 4q8 -4 48 -4q42 0 42 68v356h-57q-3 0 -3 4v77q0 4 3 4h57v109q0 43 9 73.5t22 47t33 26t37 12t39 2.5q9 0 26.5 -2t31.5 -4l14 -2q2 -1 2 -5q0 -2 -5.5 -40.5t-5.5 -39.5q0 -3 -4 -3l-8 1 q-9 0 -21 1t-20 1q-41 0 -41 -68v-109h68q4 0 4 -4v-77q0 -4 -4 -4h-68v-355q0 -52 -12 -86.5t-34.5 -49.5t-43.5 -20t-50 -5z" />
<glyph unicode="&#x218;" horiz-adv-x="500" d="M253 -10q-130 0 -200 35q-3 3 -1 6l26 89q0 3 4 3q87 -29 173 -29q48 0 74.5 13.5t26.5 57.5v52q0 35 -27 53t-84 23q-106 12 -147.5 48.5t-41.5 119.5v77q0 153 199 153q53 0 98 -7.5t62 -14t20 -9.5q3 -1 1 -5q0 -1 -12 -42t-13 -43q-2 -4 -5 -2q-3 1 -22 5.5t-56.5 10 t-71.5 5.5q-84 0 -84 -65v-50q0 -36 21.5 -52.5t83.5 -23.5q108 -13 151.5 -49.5t43.5 -120.5v-78q0 -52 -19.5 -86t-55.5 -49t-68 -20t-76 -5zM222 -259q-5 -3 -5 4v180q0 4 3 4h84q3 0 3 -4v-116q0 -3 -3 -6z" />
<glyph unicode="&#x219;" horiz-adv-x="416" d="M215 -8q-100 0 -166 22q-2 1 -2 5l21 76q1 3 5 3q2 -1 21 -5t54.5 -8t66.5 -4q34 0 51 8.5t17 36.5v25q0 20 -17.5 31.5t-66.5 18.5q-146 21 -146 120v49q0 120 160 120q25 0 49.5 -2t41.5 -5t30 -6.5t20 -5.5l8 -2q1 -1 1 -5q0 -1 -9 -36.5t-10 -36.5q-2 -2 -3 -2l-7 1 q-8 2 -21 4t-28 4t-34.5 3.5t-36.5 1.5q-58 0 -58 -41v-26q0 -19 19.5 -29.5t65.5 -16.5q72 -9 108 -37t36 -83v-49q0 -42 -14 -69.5t-40.5 -39.5t-52.5 -16t-63 -4zM181 -259q-5 -3 -5 4v180q0 4 3 4h84q3 0 3 -4v-116q0 -3 -3 -6z" />
<glyph unicode="&#x21a;" horiz-adv-x="459" d="M182 0q-3 0 -3 4v572h-157q-3 0 -3 4v96q0 4 3 4h426q4 0 4 -4v-96q0 -4 -4 -4h-156v-572q0 -4 -3 -4h-107zM194 -259q-5 -3 -5 4v180q0 4 3 4h84q3 0 3 -4v-116q0 -3 -3 -6z" />
<glyph unicode="&#x21b;" horiz-adv-x="285" d="M208 -5q-37 0 -57 3.5t-41 18.5t-30 50t-9 92v238h-42q-3 0 -3 4v78q0 3 3 3h42v154q0 4 3 4h102q3 0 3 -4v-154h78q4 0 4 -3v-78q0 -4 -4 -4h-78v-238q0 -23 3.5 -38.5t10.5 -21.5t13 -8t15 -2q8 0 18 0.5t17 1.5l7 1q3 0 4 -4q0 -1 5.5 -40.5t6.5 -40.5q1 -3 -3 -5 q-21 -7 -68 -7zM125 -259q-5 -3 -5 4v180q0 4 3 4h84q3 0 3 -4v-116q0 -3 -3 -6z" />
<glyph unicode="&#x2c6;" horiz-adv-x="398" d="M147 551h-76q-2 0 -2 4q5 13 40.5 71.5t40.5 70.5q0 3 5 3h87q5 0 8 -4q1 -2 39 -70t40 -71q2 -4 -2 -4h-75q-3 0 -5 4l-47 77h-3q-43 -74 -45 -77q-2 -4 -5 -4z" />
<glyph unicode="&#x2c7;" horiz-adv-x="398" d="M251 698h79q4 0 1 -3l-90 -142q-4 -4 -6 -4h-72q-6 0 -6 4q-6 12 -46.5 71t-45.5 71q-1 3 2 3h79q2 0 5 -3l46 -76h3q44 72 46 76q3 3 5 3z" />
<glyph unicode="&#x2d8;" horiz-adv-x="398" d="M200 556q-123 0 -123 125q0 6 5 6h45q7 0 8 -5q10 -33 22.5 -43.5t41.5 -10.5q27 0 40.5 11.5t21.5 42.5q2 5 8 5h47q6 0 6 -6q-6 -125 -122 -125z" />
<glyph unicode="&#x2d9;" horiz-adv-x="398" d="M149 572q-4 0 -4 4v100q0 4 4 4h99q3 0 3 -4v-100q0 -4 -4 -4h-98z" />
<glyph unicode="&#x2da;" horiz-adv-x="398" d="M197 582q19 0 29.5 8.5t10.5 35.5v12q0 26 -10 34.5t-29 8.5q-20 0 -31 -9t-11 -34v-12q0 -27 10.5 -35.5t30.5 -8.5zM197 533q-40 0 -64 17.5t-24 70.5v22q0 51 24.5 68.5t65.5 17.5q18 0 30 -2.5t26 -10.5t21.5 -26.5t7.5 -46.5v-22q0 -29 -7.5 -47.5t-21.5 -27 t-26.5 -11t-31.5 -2.5z" />
<glyph unicode="&#x2db;" horiz-adv-x="398" d="M197 -182q-37 0 -59 17t-22 64q0 60 57 107q5 4 14 4h79q4 0 5 -3t-3 -6q-37 -28 -54 -46.5t-17 -37.5q0 -13 4 -17t13 -4t24 10q5 2 7 -2l25 -49q2 -7 0 -9q-28 -28 -73 -28z" />
<glyph unicode="&#x2dc;" horiz-adv-x="398" d="M79 577q-3 0 -3 5v56q0 10 5 15q23 35 64 35q25 0 59 -19t52 -19q20 0 40 17.5t21 17.5q4 0 4 -5v-55q0 -10 -5 -16q-32 -37 -65 -37q-25 0 -58.5 20t-50.5 20q-21 0 -41.5 -17.5t-21.5 -17.5z" />
<glyph unicode="&#x2dd;" horiz-adv-x="399" d="M134 555q-1 -4 -5 -4h-76q-2 0 -1 4l63 141q1 4 5 4h94q3 0 2 -4zM271 555q-3 -4 -5 -4h-76q-2 0 -1 4l63 141q1 4 6 4h93q4 0 1 -4z" />
<glyph unicode="&#x1e80;" horiz-adv-x="734" d="M138 0q-3 0 -4 4q0 1 -53.5 335.5t-54.5 336.5q-1 4 2 4h111q3 0 4 -4l72 -492h16q92 352 93 354q1 4 4 4h89q4 0 5 -4l92 -354h16q71 489 72 492q1 4 5 4h111q4 0 2 -4q-1 -2 -54.5 -336t-53.5 -336q-1 -4 -4 -4h-138q-3 0 -4 4l-88 344h-10q-87 -339 -87 -343 q-3 -5 -6 -5h-137zM364 754l-82 141q-3 4 1 4h94q4 0 5 -4l63 -141q1 -4 -1 -4h-76q-4 0 -4 4z" />
<glyph unicode="&#x1e81;" horiz-adv-x="631" d="M141 0q-2 0 -3 4l-101 474q0 4 2 4h104q4 0 4 -4l58 -314h7q69 218 70 222q2 3 4 3h73q1 0 3 -3l71 -222h8q53 311 53 314q2 4 5 4h104q3 0 2 -4l-100 -474q0 -4 -4 -4h-96q-2 0 -3 4l-76 245h-8q-77 -242 -78 -245q-1 -4 -3 -4h-96zM307 556l-82 141q-3 4 1 4h94 q4 0 5 -4l63 -141q1 -4 -1 -4h-76q-4 0 -4 4z" />
<glyph unicode="&#x1e82;" horiz-adv-x="734" d="M138 0q-3 0 -4 4q0 1 -53.5 335.5t-54.5 336.5q-1 4 2 4h111q3 0 4 -4l72 -492h16q92 352 93 354q1 4 4 4h89q4 0 5 -4l92 -354h16q71 489 72 492q1 4 5 4h111q4 0 2 -4q-1 -2 -54.5 -336t-53.5 -336q-1 -4 -4 -4h-138q-3 0 -4 4l-88 344h-10q-87 -339 -87 -343 q-3 -5 -6 -5h-137zM386 754q-2 -4 -5 -4h-76q-2 0 -1 4l63 141q3 4 6 4h93q3 0 2 -4z" />
<glyph unicode="&#x1e83;" horiz-adv-x="631" d="M141 0q-2 0 -3 4l-101 474q0 4 2 4h104q4 0 4 -4l58 -314h7q69 218 70 222q2 3 4 3h73q1 0 3 -3l71 -222h8q53 311 53 314q2 4 5 4h104q3 0 2 -4l-100 -474q0 -4 -4 -4h-96q-2 0 -3 4l-76 245h-8q-77 -242 -78 -245q-1 -4 -3 -4h-96zM337 556q-2 -4 -5 -4h-76q-2 0 -1 4 l63 141q3 4 6 4h93q3 0 2 -4z" />
<glyph unicode="&#x1e84;" horiz-adv-x="734" d="M138 0q-3 0 -4 4q0 1 -53.5 335.5t-54.5 336.5q-1 4 2 4h111q3 0 4 -4l72 -492h16q92 352 93 354q1 4 4 4h89q4 0 5 -4l92 -354h16q71 489 72 492q1 4 5 4h111q4 0 2 -4q-1 -2 -54.5 -336t-53.5 -336q-1 -4 -4 -4h-138q-3 0 -4 4l-88 344h-10q-87 -339 -87 -343 q-3 -5 -6 -5h-137zM248 775q-4 0 -4 4v95q0 4 4 4h80q4 0 4 -4v-95q0 -4 -4 -4h-80zM416 775q-3 0 -3 4v95q0 4 3 4h80q3 0 3 -4v-95q0 -4 -3 -4h-80z" />
<glyph unicode="&#x1e85;" horiz-adv-x="631" d="M141 0q-2 0 -3 4l-101 474q0 4 2 4h104q4 0 4 -4l58 -314h7q69 218 70 222q2 3 4 3h73q1 0 3 -3l71 -222h8q53 311 53 314q2 4 5 4h104q3 0 2 -4l-100 -474q0 -4 -4 -4h-96q-2 0 -3 4l-76 245h-8q-77 -242 -78 -245q-1 -4 -3 -4h-96zM197 577q-4 0 -4 4v95q0 4 4 4h80 q4 0 4 -4v-95q0 -4 -4 -4h-80zM365 577q-3 0 -3 4v95q0 4 3 4h80q3 0 3 -4v-95q0 -4 -3 -4h-80z" />
<glyph unicode="&#x1e9e;" horiz-adv-x="527" d="M60 0q-3 0 -3 4v475q0 51 11 88t28.5 58.5t45 34t54.5 16.5t62 4h190q5 0 5 -5v-101q0 -6 -3 -10l-81 -166q19 -7 33.5 -15.5t32 -25.5t27.5 -47.5t10 -71.5v-61q0 -47 -13 -81t-32 -52t-49.5 -28.5t-57 -13t-63.5 -2.5q-3 0 -3 4v89q0 4 3 4q24 0 39 2.5t32.5 10 t26 26.5t8.5 48v49q0 88 -93 88q-3 0 -3 4v91l80 170h-89q-89 0 -89 -107v-475q0 -4 -3 -4h-106z" />
<glyph unicode="&#x2000;" horiz-adv-x="464" />
<glyph unicode="&#x2001;" horiz-adv-x="929" />
<glyph unicode="&#x2002;" horiz-adv-x="464" />
<glyph unicode="&#x2003;" horiz-adv-x="929" />
<glyph unicode="&#x2004;" horiz-adv-x="309" />
<glyph unicode="&#x2005;" horiz-adv-x="232" />
<glyph unicode="&#x2006;" horiz-adv-x="154" />
<glyph unicode="&#x2007;" horiz-adv-x="154" />
<glyph unicode="&#x2008;" horiz-adv-x="116" />
<glyph unicode="&#x2009;" horiz-adv-x="185" />
<glyph unicode="&#x200a;" horiz-adv-x="51" />
<glyph unicode="&#x2010;" horiz-adv-x="335" d="M44 228q-4 0 -4 4v86q0 4 4 4h247q4 0 4 -4v-86q0 -4 -4 -4h-247z" />
<glyph unicode="&#x2011;" horiz-adv-x="335" d="M44 228q-4 0 -4 4v86q0 4 4 4h247q4 0 4 -4v-86q0 -4 -4 -4h-247z" />
<glyph unicode="&#x2012;" horiz-adv-x="335" d="M44 228q-4 0 -4 4v86q0 4 4 4h247q4 0 4 -4v-86q0 -4 -4 -4h-247z" />
<glyph unicode="&#x2013;" horiz-adv-x="400" d="M35 228q-3 0 -3 4v86q0 4 3 4h330q4 0 4 -4v-86q0 -4 -4 -4h-330z" />
<glyph unicode="&#x2014;" horiz-adv-x="506" d="M21 228q-3 0 -3 4v86q0 4 3 4h463q4 0 4 -4v-86q0 -4 -4 -4h-463z" />
<glyph unicode="&#x2018;" horiz-adv-x="201" d="M140 685q5 3 5 -4v-180q0 -4 -3 -4h-84q-3 0 -3 4v116q0 3 4 6z" />
<glyph unicode="&#x2019;" horiz-adv-x="201" d="M60 492q-5 -2 -5 4v180q0 4 3 4h84q3 0 3 -4v-116q0 -3 -3 -6z" />
<glyph unicode="&#x201a;" horiz-adv-x="201" d="M61 -66q-5 -5 -5 2v180q0 4 3 4h83q4 0 4 -4v-115q0 -4 -4 -6q-1 -2 -40.5 -31.5t-40.5 -29.5z" />
<glyph unicode="&#x201c;" horiz-adv-x="349" d="M140 685q5 3 5 -4v-180q0 -4 -3 -4h-84q-3 0 -3 4v116q0 3 4 6zM288 685q5 3 5 -4v-180q0 -4 -3 -4h-83q-4 0 -4 4v116q0 3 3 6z" />
<glyph unicode="&#x201d;" horiz-adv-x="349" d="M60 492q-5 -2 -5 4v180q0 4 3 4h84q3 0 3 -4v-116q0 -3 -3 -6zM208 492q-5 -2 -5 4v180q0 4 4 4h83q3 0 3 -4v-116q0 -3 -3 -6z" />
<glyph unicode="&#x201e;" horiz-adv-x="349" d="M61 -66q-5 -5 -5 2v180q0 4 3 4h83q4 0 4 -4v-115q0 -4 -4 -6q-1 -2 -40.5 -31.5t-40.5 -29.5zM209 -66q-5 -5 -5 2v180q0 4 3 4h83q3 0 3 -4v-115q0 -4 -3 -6q-2 -2 -41 -31.5t-40 -29.5z" />
<glyph unicode="&#x2020;" horiz-adv-x="447" d="M177 -180q-3 0 -3 4v533h-131q-3 0 -3 4v86q0 4 3 4h131v225q0 4 3 4h93q3 0 3 -4v-225h130q3 0 3 -4v-86q0 -4 -3 -4h-130v-533q0 -4 -3 -4h-93z" />
<glyph unicode="&#x2021;" horiz-adv-x="448" d="M177 -180q-3 0 -3 4v197h-132q-3 0 -3 4v86q0 4 3 4h132v270h-132q-3 0 -3 4v85q0 4 3 4h132v198q0 4 3 4h93q3 0 3 -4v-198h130q3 0 3 -4v-85q0 -4 -3 -4h-130v-270h130q3 0 3 -4v-86q0 -4 -3 -4h-130v-197q0 -4 -3 -4h-93z" />
<glyph unicode="&#x2022;" horiz-adv-x="352" d="M176 210q-39 0 -63.5 17.5t-24.5 70.5v23q0 50 24.5 67.5t65.5 17.5q24 0 40 -4t30.5 -24t14.5 -57v-23q0 -29 -7.5 -47.5t-21.5 -27t-26.5 -11t-31.5 -2.5z" />
<glyph unicode="&#x2026;" horiz-adv-x="618" d="M460 0q-4 0 -4 4v114q0 4 4 4h101q3 0 3 -4v-114q0 -4 -3 -4h-101zM259 0q-4 0 -4 4v114q0 4 4 4h101q3 0 3 -4v-114q0 -4 -3 -4h-101zM58 0q-3 0 -3 4v114q0 4 3 4h101q3 0 3 -4v-114q0 -4 -3 -4h-101z" />
<glyph unicode="&#x202f;" horiz-adv-x="185" />
<glyph unicode="&#x2030;" horiz-adv-x="938" d="M222 -6h-88q-3 0 -1 4q18 58 157.5 342.5t157.5 341.5q2 4 5 4h87q4 0 1 -4l-314 -683q-2 -5 -5 -5zM175 372q-49 0 -80 23t-31 89v93q0 109 114 109q21 0 37.5 -3.5t34 -14t27 -33.5t9.5 -58v-93q0 -67 -30.5 -89.5t-80.5 -22.5zM763 -6q-49 0 -79.5 23t-30.5 89v94 q0 108 113 108q22 0 38 -3.5t33.5 -14t27 -33t9.5 -57.5v-94q0 -67 -30.5 -89.5t-80.5 -22.5zM501 -6q-49 0 -80 23t-31 89v94q0 108 114 108q21 0 37.5 -3.5t33.5 -14t26.5 -33t9.5 -57.5v-94q0 -67 -30.5 -89.5t-79.5 -22.5zM763 67q21 0 32 9.5t11 39.5v72q0 28 -10.5 38 t-30.5 10q-21 0 -33 -10t-12 -38v-72q0 -30 11.5 -39.5t31.5 -9.5zM501 67q20 0 31 9.5t11 39.5v72q0 28 -10.5 38t-30.5 10q-21 0 -32.5 -10t-11.5 -38v-72q0 -30 11 -39.5t32 -9.5zM175 444q20 0 31 10t11 40v71q0 29 -10 38.5t-31 9.5t-32.5 -10t-11.5 -38v-71 q0 -30 11 -40t32 -10z" />
<glyph unicode="&#x2039;" horiz-adv-x="304" d="M215 487q53 -53 55 -57q3 -2 0 -6l-134 -160q133 -158 134 -160q3 -2 0 -5l-55 -58q-3 -3 -4 0l-192 220q-2 4 0 6l192 220q1 3 4 0z" />
<glyph unicode="&#x203a;" horiz-adv-x="304" d="M89 41l-55 57q-3 3 0 6l134 160q-133 158 -134 160q-3 2 0 5q52 52 55 58q3 3 5 0q1 -2 95 -110t96 -110q3 -3 0 -6q-2 -2 -96 -110.5t-95 -109.5q-2 -3 -5 0z" />
<glyph unicode="&#x2044;" horiz-adv-x="371" d="M55 -5q-4 0 -2 4q0 2 81 341t82 342q0 4 4 4h98q3 0 2 -4q-1 -3 -81.5 -342t-80.5 -341q-2 -4 -4 -4h-99z" />
<glyph unicode="&#x205f;" horiz-adv-x="232" />
<glyph unicode="&#x2070;" horiz-adv-x="295" d="M148 321q33 0 47.5 18.5t14.5 79.5v112q0 60 -15 78t-47 18q-33 0 -47.5 -18t-14.5 -78v-112q0 -61 14.5 -79.5t47.5 -18.5zM148 267q-27 0 -44 3.5t-36.5 17t-29 45t-9.5 81.5v124q0 48 9.5 78.5t28.5 43.5t36.5 17t44.5 4q21 0 34 -1.5t31 -9.5t28 -22t17.5 -42 t7.5 -68v-124q0 -51 -9.5 -83t-29.5 -44.5t-36 -16t-43 -3.5z" />
<glyph unicode="&#x2074;" horiz-adv-x="272" d="M210 270h-45q-3 0 -3 2v70h-134q-2 0 -2 2v52q0 3 1 4t48.5 138t47.5 138q2 2 3 2h52q1 0 1 -2l-93 -275v-5h76v78q0 2 2 2h46q3 0 3 -2v-78h35q2 0 2 -2v-49q0 -3 -2 -3h-35v-70q0 -2 -3 -2z" />
<glyph unicode="&#x2075;" horiz-adv-x="272" d="M132 267q-25 0 -48.5 4t-33.5 8t-11 5q-2 1 -2 3q0 1 4.5 21t4.5 23q0 1 3 1l5 -1q6 -1 14.5 -3t19 -4t22.5 -3t22 -1q55 0 55 44v35q0 58 -48 58h-92q-2 0 -2 2v214q0 5 5 5h177q2 0 2 -2v-46q0 -3 -2 -3h-132v-120h45q19 0 33 -3t32 -12t27.5 -30.5t9.5 -55.5v-48 q0 -31 -11 -51t-30.5 -28t-34 -10t-34.5 -2z" />
<glyph unicode="&#x2076;" horiz-adv-x="270" d="M136 316q24 0 38 13.5t14 55.5v18q0 38 -12.5 51.5t-36.5 13.5q-7 0 -20.5 -3t-23.5 -6l-10 -3v-94q0 -46 51 -46zM139 267q-108 0 -108 93v223q0 31 11.5 52t30 30t34 12.5t31.5 3.5t31 -2t25 -4.5t17.5 -5.5l12.5 -5l4 -2q1 0 1 -3q-10 -30 -10 -43q0 -1 -3 -1l-5 1 q-5 2 -13 4t-17.5 3.5t-20.5 3t-21 1.5q-54 0 -54 -47v-75q44 12 64 12q18 0 30.5 -3t28 -12.5t24 -33.5t8.5 -61v-27q0 -38 -9.5 -63t-26.5 -35t-31 -13t-34 -3z" />
<glyph unicode="&#x2077;" horiz-adv-x="265" d="M115 270h-53q-2 0 -1 2l113 348v5h-138q-2 0 -2 2v48q0 3 2 3h196q1 -1 1 -2v-49q0 -1 -1 -3v-2l-57 -174q-57 -175 -57 -176q-2 -2 -3 -2z" />
<glyph unicode="&#x2078;" horiz-adv-x="272" d="M136 316q26 0 39 12t13 47v22q0 59 -51 59q-53 0 -53 -59v-22q0 -34 13 -46.5t39 -12.5zM136 508q49 0 49 50v21q0 53 -48 53q-50 0 -50 -53v-21q0 -50 49 -50zM135 266q-48 0 -76 21.5t-28 83.5v30q0 27 9.5 47t19.5 26l9 7v2q-33 21 -33 70v29q0 99 102 99 q43 0 70.5 -20t27.5 -79v-30q0 -21 -8 -38t-16 -24l-8 -6v-2q4 -2 10.5 -7.5t17 -26t10.5 -47.5v-30q0 -64 -28.5 -84.5t-78.5 -20.5z" />
<glyph unicode="&#x2079;" horiz-adv-x="272" d="M136 631q-12 0 -19.5 -2t-16 -8t-12.5 -20.5t-4 -37.5v-27q0 -37 12 -50.5t36 -13.5q8 0 21.5 3t23.5 7l10 3v101q0 45 -51 45zM133 681q108 0 108 -92v-224q0 -31 -11.5 -52t-30 -30t-34 -12.5t-31.5 -3.5q-58 0 -92 17q-1 1 0 3q0 1 4.5 21.5t4.5 21.5t4 1l5 -1 q5 -1 13 -2.5t17.5 -3.5t21 -3t21.5 -1q54 0 54 48v67q-44 -13 -64 -13q-18 0 -31 3t-28.5 12.5t-24 33.5t-8.5 61v34q0 39 9.5 64t27 35t31.5 13t34 3z" />
<glyph unicode="&#x2080;" horiz-adv-x="295" d="M148 51q33 0 47.5 18.5t14.5 79.5v112q0 60 -15 78t-47 18q-33 0 -47.5 -18t-14.5 -78v-112q0 -62 14.5 -80t47.5 -18zM148 -3q-27 0 -44 3.5t-36.5 17t-29 45t-9.5 81.5v124q0 48 9.5 78.5t28.5 43.5t36.5 17t44.5 4q21 0 34 -1.5t31 -9.5t28 -22t17.5 -42t7.5 -68v-124 q0 -51 -9.5 -83t-29.5 -44.5t-36 -16t-43 -3.5z" />
<glyph unicode="&#x2081;" horiz-adv-x="262" d="M174 0h-48q-2 0 -2 2v340q-62 -54 -63 -55q-2 0 -3 1l-6 24l-6 24q0 1 3 4q1 1 36 33t37 34q1 1 4 1h48q3 0 3 -2v-404q0 -2 -3 -2z" />
<glyph unicode="&#x2082;" horiz-adv-x="268" d="M231 0h-196l-2 1v51q0 3 1 4q103 134 124 172q18 32 18 50v34q0 20 -9.5 30.5t-19.5 12.5t-25 2q-16 0 -35 -3.5t-30 -6.5t-12 -4q-3 0 -3 2q0 1 -5 22l-5 21q0 2 1 3q40 20 89 20q109 0 109 -93v-44q0 -24 -18.5 -61t-38 -65.5t-63.5 -88.5v-6h120q2 0 2 -2v-49 q0 -2 -2 -2z" />
<glyph unicode="&#x2083;" horiz-adv-x="272" d="M37 14q-1 1 -1 3q0 1 4.5 22.5t4.5 22.5h3l5 -1q5 -1 13.5 -3t19 -4t22.5 -3t23 -1q55 0 55 45v33q0 54 -49 54h-38q-3 0 -3 2v47q0 2 3 2h39q16 0 28.5 12.5t12.5 34.5v33q0 46 -53 46q-16 0 -35.5 -3.5t-30.5 -6.5t-12 -4q-3 -1 -3 1q0 1 -5 22l-4 22q0 2 1 4l5 2 q4 2 11.5 4.5t17.5 4.5t24.5 4t29.5 2q108 0 108 -90v-41q0 -19 -6.5 -36t-13.5 -24l-7 -7v-4q4 -2 9.5 -7t15 -25t9.5 -46v-43q0 -30 -9.5 -49.5t-28 -28t-34 -11t-37.5 -2.5q-26 0 -49.5 4t-33.5 9z" />
<glyph unicode="&#x2084;" horiz-adv-x="272" d="M210 0h-45q-3 0 -3 2v70h-134q-2 0 -2 2v51q0 4 1 5t48.5 138t47.5 138q2 2 3 2h52q1 0 1 -2l-93 -275v-4h76v77q0 2 2 2h46q3 0 3 -2v-77h35q2 0 2 -4v-48q0 -3 -2 -3h-35v-70q0 -2 -3 -2z" />
<glyph unicode="&#x2085;" horiz-adv-x="272" d="M132 -3q-25 0 -48.5 4t-33.5 8t-11 5q-2 1 -2 3q0 1 4.5 20.5t4.5 23.5q0 1 3 1l5 -1q6 -1 14.5 -3t19 -4t22.5 -3t22 -1q55 0 55 44v35q0 58 -48 58h-92q-2 0 -2 2v214q0 5 5 5h177q2 0 2 -2v-46q0 -3 -2 -3h-132v-120h45q19 0 33 -3t32 -12t27.5 -30.5t9.5 -55.5v-48 q0 -31 -11 -51t-30.5 -28t-34 -10t-34.5 -2z" />
<glyph unicode="&#x2086;" horiz-adv-x="270" d="M136 46q24 0 38 13.5t14 55.5v18q0 38 -12.5 51.5t-36.5 13.5q-7 0 -20.5 -3t-23.5 -7l-10 -3v-93q0 -46 51 -46zM139 -3q-108 0 -108 93v223q0 40 21 64t42 29t44 5q16 0 31 -2t25 -4.5t17.5 -5.5l12.5 -5l4 -2q1 0 1 -3q-10 -30 -10 -43q0 -1 -3 -1l-5 1q-5 2 -13 4 t-17.5 3.5t-20.5 3t-21 1.5q-54 0 -54 -47v-76q44 13 64 13q18 0 30.5 -3t28 -12.5t24 -33.5t8.5 -61v-27q0 -38 -9.5 -63t-26.5 -35t-31 -13t-34 -3z" />
<glyph unicode="&#x2087;" horiz-adv-x="265" d="M115 0h-53q-2 0 -1 2l113 348v5h-138q-2 0 -2 2v48q0 3 2 3h196q1 -1 1 -2v-49q0 -1 -0.5 -2.5t-0.5 -2.5l-57 -174q-57 -175 -57 -176q-2 -2 -3 -2z" />
<glyph unicode="&#x2088;" horiz-adv-x="272" d="M136 46q26 0 39 12t13 47v22q0 59 -51 59q-53 0 -53 -59v-22q0 -34 13 -46.5t39 -12.5zM136 238q49 0 49 50v21q0 53 -48 53q-50 0 -50 -53v-21q0 -50 49 -50zM135 -3q-48 0 -76 21t-28 83v30q0 26 9.5 46t19.5 27l9 7v2q-4 2 -9.5 7t-14.5 23t-9 40v29q0 59 29 79t73 20 q43 0 70.5 -20t27.5 -79v-30q0 -21 -8 -38t-16 -24l-8 -6v-2q4 -2 10.5 -7t17 -26t10.5 -48v-30q0 -64 -28.5 -84t-78.5 -20z" />
<glyph unicode="&#x2089;" horiz-adv-x="272" d="M136 361q-12 0 -19.5 -2t-16 -8t-12.5 -20.5t-4 -37.5v-27q0 -37 12 -50.5t36 -13.5q8 0 21.5 3t23.5 7l10 3v101q0 45 -51 45zM133 411q108 0 108 -92v-224q0 -31 -11.5 -52t-30 -30t-34 -12.5t-31.5 -3.5q-58 0 -92 17q-2 2 0 3q0 1 4.5 21.5t4.5 21.5t4 1l5 -1 q5 -1 13 -2.5t17.5 -3.5t21 -3t21.5 -1q54 0 54 48v67q-44 -13 -64 -13q-18 0 -31 3t-28.5 12.5t-24 33.5t-8.5 61v34q0 39 9.5 64t27 35t31.5 13t34 3z" />
<glyph unicode="&#x20ac;" horiz-adv-x="500" d="M308 -8q-35 0 -62.5 4t-59.5 19.5t-53 42t-35 74.5t-14 114h-43q-3 0 -3 4v59q0 4 3 4h43v58h-43q-3 0 -3 4v59q0 5 3 5h43q0 60 12.5 105t32.5 72t50 43.5t61 22t70 5.5q98 0 156 -29q2 -2 1 -6l-28 -84q-2 -3 -4 -2t-18.5 5t-47.5 8t-59 4q-54 0 -79.5 -30.5 t-31.5 -113.5h135q3 0 3 -5v-59q0 -4 -3 -4h-136v-58h136q3 0 3 -4v-59q0 -4 -3 -4h-135q4 -88 29 -117t80 -29q20 0 41 2.5t36.5 5.5t28.5 6t20 6l8 2q3 1 4 -2l30 -85q2 -4 -2 -5q-3 -3 -18.5 -11t-57 -17.5t-90.5 -9.5z" />
<glyph unicode="&#x2122;" horiz-adv-x="702" d="M341 291v386q0 3 2 3h79q2 0 2 -2l70 -206h6q66 204 67 205q1 3 4 3h78q1 -1 1 -3v-386l-1 -2h-66q-1 0 -1 2v245h-7q-52 -162 -52 -163q-1 -3 -3 -3h-48q-3 0 -3 4l-53 162h-7v-245q0 -2 -2 -2h-64q-2 0 -2 2zM128 291v322h-85q-1 0 -1 2v62l1 3h238q2 0 2 -3v-62 q-1 -2 -2 -2h-84v-322q0 -2 -2 -2h-65q-2 0 -2 2z" />
<glyph unicode="&#x2190;" horiz-adv-x="711" d="M223 337h429q4 0 4 -4v-85q0 -4 -4 -4h-429l170 -170q2 -4 0 -6q-1 -1 -30.5 -29.5t-30.5 -29.5q-2 -4 -5 0q-6 4 -280 278q-3 3 0 6l280 280q3 3 5 0l61 -60q3 -3 0 -6z" />
<glyph unicode="&#x2191;" horiz-adv-x="679" d="M386 433v-429q0 -4 -4 -4h-86q-4 0 -4 4v429l-170 -170q-2 -3 -5 0q-1 1 -7.5 7t-15 15t-17 17.5t-14.5 15.5l-6 6q-3 2 0 5q2 2 140 140.5t139 139.5q3 3 6 0l280 -280q2 -1 0 -5l-61 -61q-3 -3 -5 0z" />
<glyph unicode="&#x2192;" horiz-adv-x="711" d="M488 244h-429q-4 0 -4 4v86q0 4 4 4h429l-170 170q-2 2 0 5q3 2 61 60q3 3 5 0q2 -2 140.5 -140t139.5 -139q3 -3 0 -6q-278 -278 -280 -279q-1 -3 -5 0l-61 60q-2 3 0 5z" />
<glyph unicode="&#x2193;" horiz-adv-x="679" d="M293 177v429q0 4 4 4h85q4 0 4 -4v-429l170 170q3 3 6 0l10 -10q9 -10 20 -21t20 -20.5t10 -9.5q2 -2 0 -5l-279 -280q-3 -3 -6 0l-280 280q-3 3 0 5l60 61q3 3 6 0z" />
<glyph unicode="&#x2194;" horiz-adv-x="927" d="M327 8l-280 280q-4 2 0 6l280 280q3 2 5 0l61 -61q3 -3 0 -6l-170 -169h482q-169 167 -170 169q-3 3 0 6l60 61q3 3 6 0l140 -140t139 -140q3 -3 0 -6l-279 -280q-4 -2 -6 0l-60 61q-3 2 0 5l170 170h-482l170 -170q3 -2 0 -5l-61 -61q-2 -2 -5 0z" />
<glyph unicode="&#x2195;" horiz-adv-x="679" d="M57 477q1 2 279 280q3 3 6 0l280 -280q2 -3 0 -6l-61 -60q-3 -3 -5 0l-170 169v-481l170 170q2 3 5 0l61 -61q2 -2 0 -5l-280 -280q-4 -2 -6 0q-278 278 -279 280q-3 2 0 5l60 61q3 3 5 0l170 -170v481q-168 -167 -170 -169q-2 -3 -5 0l-60 60q-3 3 0 6z" />
<glyph unicode="&#x2196;" horiz-adv-x="576" d="M524 142q3 -3 0 -6l-61 -60q-3 -3 -6 0l-304 303v-240q0 -4 -4 -4h-85q-4 0 -4 4v396q0 4 4 4h396q4 0 4 -4v-86q0 -4 -4 -4h-241z" />
<glyph unicode="&#x2197;" horiz-adv-x="575" d="M118 75q-3 -3 -6 0l-60 61q-3 2 0 5l304 304h-241q-3 0 -3 4v86q0 4 3 4h396q4 0 4 -4v-396q0 -4 -4 -4h-86q-4 0 -4 4v240z" />
<glyph unicode="&#x2198;" horiz-adv-x="576" d="M52 471q-3 3 0 6l61 60q3 3 5 0l304 -304v240q0 4 4 4h86q4 0 4 -4v-395q0 -4 -4 -4h-396q-4 0 -4 4v85q0 4 4 4h240z" />
<glyph unicode="&#x2199;" horiz-adv-x="575" d="M457 538q3 3 6 0l60 -61q2 -4 0 -6l-304 -304h240q4 0 4 -4v-85q0 -4 -4 -4h-395q-4 0 -4 4v396q0 4 4 4h85q4 0 4 -4v-241z" />
<glyph unicode="&#x2212;" horiz-adv-x="335" d="M44 228q-4 0 -4 4v86q0 4 4 4h247q4 0 4 -4v-86q0 -4 -4 -4h-247z" />
<glyph unicode="&#x221a;" horiz-adv-x="877" d="M47 285l68 70q3 3 5 0l198 -198q436 439 438 440q3 3 6 0l68 -70q2 -3 0 -5q-16 -16 -262 -264.5t-247 -249.5q-3 -3 -6 0l-28 28q-28 29 -67 68.5l-78 79t-66.5 67.5t-28.5 28q-3 3 0 6z" />
<glyph unicode="&#x2248;" horiz-adv-x="469" d="M62 388q0 9 5 15q7 10 33.5 27.5t55.5 17.5q32 0 81 -29t75 -29q19 0 38 11.5t31.5 23t15.5 11.5t3 -6v-56q0 -10 -5 -15q-40 -47 -89 -47q-31 0 -79.5 30t-74.5 30q-18 0 -38 -11t-33.5 -22.5t-15.5 -11.5q-3 0 -3 5v56zM62 182q0 9 5 15q7 10 33.5 27.5t55.5 17.5 q32 0 81 -29t75 -29q19 0 38 11t31.5 22.5t15.5 11.5t3 -5v-55q0 -11 -5 -16q-47 -47 -89 -47q-31 0 -79.5 30t-74.5 30q-18 0 -38 -11t-33.5 -22t-15.5 -11q-3 0 -3 5v55z" />
<glyph unicode="&#x2260;" d="M90 21q-3 0 -2 4l42 101h-76q-3 0 -3 3v87q0 4 3 4h122l44 112h-166q-3 0 -3 4v86q0 4 3 4h212q41 99 43 103q3 4 5 4h67q4 0 2 -4l-43 -103h76q3 0 3 -4v-86q0 -4 -3 -4h-122l-44 -112h166q3 0 3 -4v-86q0 -4 -3 -4h-212q-41 -99 -42 -101q-1 -4 -5 -4h-67z" />
<glyph unicode="&#x2264;" horiz-adv-x="469" d="M416 148l-363 165q-3 3 -3 4v77q0 2 3 5q4 2 183.5 83.5t180.5 81.5q1 1 2 0.5t1 -3.5v-92q0 -3 -3 -5l-224 -106v-5q222 -103 224 -104q3 -1 3 -6v-92q0 -5 -4 -3zM52 0q-3 0 -3 4v87q0 4 3 4h365q3 0 3 -4v-87q0 -4 -3 -4h-365z" />
<glyph unicode="&#x2265;" horiz-adv-x="469" d="M52 148q-1 -1 -2 1q-1 1 -1 2v92q0 3 3 6l225 104v5q-223 104 -225 106q-3 2 -3 5v92q0 3 0.5 3.5t2.5 -0.5q1 0 181.5 -82.5t181.5 -82.5q4 -2 4 -5v-77q0 -2 -4 -4t-182 -83t-181 -82zM417 0h-365q-3 0 -3 4v87q0 4 3 4h365q3 0 3 -4v-87q0 -4 -3 -4z" />
<glyph unicode="&#x25b2;" horiz-adv-x="715" d="M697 286v-133q0 -4 -1 -4t-2 1l-332 237h-9q-331 -237 -332 -238q-4 -4 -4 3v134q0 2 4 5l328 236q8 5 17 0q33 -23 170.5 -122.5t157.5 -113.5q3 -3 3 -5z" />
<glyph unicode="&#x25ba;" horiz-adv-x="552" d="M212 0h-132q-5 0 -3 3l237 332v9q-237 331 -238 332q-4 4 3 4h133q3 0 6 -4l236 -328q6 -8 0 -16l-236 -329q-3 -3 -6 -3z" />
<glyph unicode="&#x25bc;" horiz-adv-x="715" d="M17 393v133q0 6 4 3l331 -238h9q331 237 333 239q1 1 2 -1q1 -1 1 -2v-134q0 -2 -3 -5q-3 -1 -164.5 -117.5t-163.5 -118.5q-8 -6 -17 0q-33 23 -170.5 122.5t-157.5 113.5q-4 1 -4 5z" />
<glyph unicode="&#x25c4;" horiz-adv-x="552" d="M340 680h132q6 0 3 -3l-237 -332v-9q237 -331 238 -333q0 -2 -2 -3h-134q-3 0 -6 4l-236 328q-6 8 0 16q19 26 117 162.5t119 166.5q3 3 6 3z" />
<glyph unicode="&#x25fc;" horiz-adv-x="480" d="M0 480h480v-480h-480v480z" />
<glyph />
<glyph d="M234 94q34 0 51.5 9.5t28.5 43.5t11 100v190q0 93 -20.5 121.5t-70.5 28.5q-48 0 -68.5 -28t-20.5 -122v-190q0 -50 5.5 -81.5t18 -46.5t27 -20t38.5 -5zM234 -10q-37 0 -61 3t-53.5 17t-47 39t-29.5 73t-12 116v211q0 65 12 111.5t29.5 71.5t46.5 38.5t54 17t61 3.5 q30 0 50 -2t46.5 -9t44 -23.5t33.5 -42t24 -67.5t8 -98v-211q0 -50 -6.5 -89t-16.5 -65t-27 -44.5t-32.5 -28t-39.5 -14.5t-41 -6t-43 -1z" />
<glyph d="M324 0h-103q-3 0 -3 4v551q-103 -88 -104 -89q-3 -2 -3 2q0 1 -12.5 46.5t-12.5 46.5q-2 3 3 6q1 2 64 57l63 54q2 2 5 2h103q3 0 3 -4v-673q0 -3 -3 -3z" />
<glyph d="M405 0h-341q-3 0 -3 3v94q0 5 3 8q16 21 48.5 63.5t48 63t40.5 55t37.5 54.5t27 44.5t20 42.5t5.5 32v58q0 69 -79 69q-27 0 -60.5 -5.5t-52 -10.5t-21.5 -6q-4 0 -4 3q0 1 -9.5 42t-9.5 42q0 5 1 6q5 4 19 10t53.5 14t85.5 8q191 0 191 -157v-81q0 -40 -28 -98.5 t-57.5 -103t-96.5 -138.5v-9h182q3 0 3 -4v-95q0 -4 -3 -4z" />
<glyph d="M62 17q-3 1 -1 6q0 1 7.5 42t7.5 43q1 2 5 2q2 -1 23 -5.5t56.5 -9t63.5 -4.5q81 0 81 69v53q0 85 -72 85h-69q-4 0 -4 4v89q0 4 4 4h70q23 0 41.5 19t18.5 53v53q0 70 -78 70q-17 0 -37 -2t-37 -5t-30.5 -6t-22 -5t-9.5 -2q-2 -1 -3.5 -0.5t-1.5 2.5t-7.5 43t-7.5 42 q0 4 2 5q58 29 154 29q29 0 51.5 -2.5t49.5 -11.5t45 -25t30 -45t12 -70v-71q0 -31 -11 -58.5t-23 -39.5l-11 -12v-8q2 -1 6 -4t13.5 -13.5t17 -23.5t13.5 -35.5t6 -49.5v-77q0 -50 -16.5 -83t-47 -47.5t-59 -19.5t-68.5 -5q-45 0 -85.5 7t-58.5 13z" />
<glyph d="M377 0h-96q-3 0 -3 4v111h-230q-3 0 -3 3v98q0 1 2 9l77 225q77 224 78 226q2 4 4 4h108q4 0 2 -4l-150 -449v-9h112v123q0 4 3 4h96q4 0 4 -4v-123h48q3 0 3 -4v-95q0 -4 -3 -4h-48v-111q0 -4 -4 -4z" />
<glyph d="M226 -11q-45 0 -86 7.5t-55.5 12.5t-20.5 8q-2 1 -2 5l16 85q1 3 5 2l9 -2q10 -2 25 -4.5t33 -5t38.5 -4.5t37.5 -2q81 0 81 68v57q0 48 -21 68.5t-52 20.5h-155q-3 0 -3 4v362q0 9 8 9h310q3 0 3 -4v-89q0 -4 -3 -4h-219v-182h62q34 0 59.5 -4.5t56 -20t47.5 -52 t17 -91.5v-89q0 -42 -13.5 -72.5t-32 -46t-47.5 -24.5t-49.5 -10.5t-48.5 -1.5z" />
<glyph d="M236 85q16 0 27 3t23 13t18.5 32.5t6.5 57.5v34q0 57 -17 77.5t-49 20.5q-13 0 -33.5 -5t-34.5 -10l-14 -5v-151q0 -35 21.5 -51t51.5 -16zM243 -10q-189 0 -189 159v372q0 44 15 76.5t35.5 50t48.5 28t48 13t39 2.5q21 0 41 -1.5t35 -4.5t28 -6.5t23 -6.5t16.5 -6 t10.5 -5l4 -2q2 -1 2 -6l-10.5 -42t-9.5 -40t-4 -2q-1 0 -9 2t-22 5t-30 6t-36 5t-37 2q-31 0 -55 -16t-24 -56v-119q72 20 103 20q24 0 41 -2.5t39.5 -13t37 -29t24.5 -54t10 -85.5v-50q0 -53 -11.5 -90.5t-28 -57t-42.5 -30.5t-46 -13.5t-47 -2.5z" />
<glyph d="M218 0h-110q-3 0 -2 4l183 566v9h-221q-4 0 -4 4v92q0 5 4 5h338q3 0 3 -4v-92q0 -2 -2 -10l-184 -570q-1 -4 -5 -4z" />
<glyph d="M235 84q36 0 55 19.5t19 71.5v39q0 87 -73 87q-75 0 -75 -87v-39q0 -52 19 -71.5t55 -19.5zM235 403q70 0 70 75v39q0 80 -69 80q-72 0 -72 -80v-39q0 -75 71 -75zM234 -11q-39 0 -67.5 6t-57 23.5t-43.5 55t-15 93.5v54q0 26 6.5 49t15.5 37.5t17.5 24.5t15.5 14l6 5v4 q-6 4 -14.5 12t-22.5 37t-14 65v52q0 55 15 91t43.5 52t55 21.5t62.5 5.5q28 0 49 -3t45.5 -13t40 -28t26 -50t10.5 -76v-52q0 -35 -12.5 -63.5t-25.5 -39.5l-12 -11v-3q2 -1 6.5 -4t14.5 -14.5t18 -25t14.5 -37t6.5 -50.5v-54q0 -57 -15 -94.5t-43.5 -54.5t-57 -23 t-68.5 -6z" />
<glyph d="M229 688q188 0 188 -159v-367q0 -44 -15 -76.5t-35.5 -50t-48 -28t-47.5 -13t-39 -2.5q-102 0 -160 29q-3 2 -2 6l20 83q2 2 4 2q2 -1 21.5 -5t53.5 -8.5t61 -4.5q31 0 54.5 16t23.5 57v103q-72 -20 -103 -20q-23 0 -40 2.5t-39.5 13t-37 29t-24.5 54t-10 85.5v60 q0 53 11.5 90.5t28 57t42.5 30.5t45.5 13.5t47.5 2.5zM236 593q-16 0 -27 -3t-23.5 -13t-18.5 -32t-6 -57v-44q0 -57 17 -78t49 -21q13 0 33 5t34 10l14 5v161q0 67 -72 67z" />
<glyph d="M185 97q-4 0 -4 4v105q0 4 4 4h101q3 0 3 -4v-105q0 -4 -3 -4h-101zM185 467q-4 0 -4 4v104q0 4 4 4h101q3 0 3 -4v-104q0 -4 -3 -4h-101z" />
<glyph horiz-adv-x="410" d="M90 146q-3 3 0 6q55 55 58 61q2 3 5 0l167 -193q2 -2 0 -5q-2 -2 -29.5 -31t-28.5 -29q-2 -5 -5 0z" />
<glyph horiz-adv-x="376" d="M215 425q-4 0 -2 4l34 89q3 4 5 4h66q3 0 2 -4l-34 -89q-4 -4 -5 -4h-66zM56 -40q-2 0 -1 4t17 44.5t17 42.5q1 4 5 4h65q3 0 3 -4l-36 -87q-1 -4 -5 -4h-65z" />
<glyph horiz-adv-x="521" d="M316 592q-2 0 -1 4l56 121q2 4 5 4h87q5 0 2 -4q-1 -2 -28 -60.5t-28 -60.5q-3 -4 -5 -4h-88zM49 -40q-2 0 -1 4q1 2 26.5 57.5t26.5 58.5t6 3h87q4 0 1 -3l-53 -116q-4 -4 -5 -4h-88z" />
<glyph horiz-adv-x="1024" d="M258 -10q-130 0 -200 35q-3 3 -1 6l26 89q0 3 4 3q87 -29 173 -29q48 0 74.5 13.5t26.5 57.5v52q0 35 -27 53t-84 23q-106 12 -147.5 48.5t-41.5 119.5v77q0 153 199 153q53 0 98 -7.5t62 -14t20 -9.5q3 -1 1 -5q0 -1 -12 -42t-13 -43q-2 -4 -5 -2q-3 1 -22 5.5t-56.5 10 t-71.5 5.5q-84 0 -84 -65v-50q0 -36 21.5 -52.5t83.5 -23.5q108 -13 151.5 -49.5t43.5 -120.5v-78q0 -52 -19.5 -86t-55.5 -49t-68 -20t-76 -5zM741 -10q-130 0 -200 35q-3 3 -1 6l26 89q0 3 4 3q87 -29 173 -29q48 0 74.5 13.5t26.5 57.5v52q0 35 -27 53t-84 23 q-106 12 -147.5 48.5t-41.5 119.5v77q0 153 199 153q53 0 98 -7.5t62 -14t20 -9.5q3 -1 1 -5q0 -1 -12 -42t-13 -43q-2 -4 -5 -2q-3 1 -22 5.5t-56.5 10t-71.5 5.5q-84 0 -84 -65v-50q0 -36 21.5 -52.5t83.5 -23.5q108 -13 151.5 -49.5t43.5 -120.5v-78q0 -52 -19.5 -86 t-55.5 -49t-68 -20t-76 -5z" />
<glyph horiz-adv-x="421" d="M100 0h-97q-3 0 -2 3q1 2 77 269.5t76 268.5q2 3 3 3h108q3 0 4 -3l150 -538q1 -3 -2 -3h-97q-2 0 -4 3l-23 99h-166q-23 -97 -24 -99q-1 -3 -3 -3zM149 183h122l-53 230h-14z" />
<glyph horiz-adv-x="406" d="M141 81h71q65 0 65 54v46q0 58 -65 58h-71v-158zM141 314h66q25 0 33 -2q19 40 19 77q0 46 -16 60t-45 14h-57v-149zM223 0h-180v544h173q25 0 45 -4t44 -17t38 -43.5t14 -77.5q0 -48 -31 -116q49 -32 49 -104v-50q0 -45 -12 -73t-36.5 -40t-46.5 -15.5t-57 -3.5z" />
<glyph horiz-adv-x="377" d="M212 -4q-31 0 -53.5 3t-48 15t-42 33t-27.5 58.5t-11 90.5v157q0 63 15 104.5t44 60.5t56.5 25t67.5 6q41 0 72.5 -6.5t41.5 -11.5t12 -7q2 -1 1 -4q-1 -2 -14 -38.5t-13 -37.5q0 -2 -4 -2q-2 1 -14 4.5t-36 7t-45 3.5q-18 0 -30 -3t-26 -13t-21.5 -35t-7.5 -63v-138 q0 -71 20.5 -92.5t62.5 -21.5q15 0 31.5 2t28.5 4.5t22 5t16 4.5l6 2q1 1 3 -2q1 -2 14.5 -38t13.5 -37q2 -4 -1 -5q-30 -15 -44 -19q-40 -12 -90 -12z" />
<glyph horiz-adv-x="418" d="M141 92h67q40 0 59 21.5t19 94.5v131q0 72 -19 92t-59 20h-67v-359zM208 0h-165v544h165q28 0 46.5 -1.5t46 -12t44 -30t29 -58.5t12.5 -94v-147q0 -47 -7 -82t-22 -56.5t-30 -35t-38 -19t-39.5 -7t-41.5 -1.5z" />
<glyph horiz-adv-x="370" d="M43 0v544h297q3 0 3 -3v-83q0 -3 -3 -3h-199v-136h167q3 0 3 -3v-82q0 -3 -3 -3h-167v-142h199q3 0 3 -4v-82q0 -3 -3 -3h-297z" />
<glyph horiz-adv-x="366" d="M45 0q-2 1 -2 3v541h297q3 0 3 -3v-83q0 -3 -3 -3h-199v-160h167q3 0 3 -3v-83q0 -3 -3 -3h-167v-203q0 -3 -2 -3h-94z" />
<glyph horiz-adv-x="414" d="M211 -4q-29 0 -50.5 3t-48 14.5t-43 32t-28 59t-11.5 91.5v157q0 53 12.5 91.5t29.5 58t44.5 30.5t48 13t48.5 2q39 0 76 -6.5t51.5 -11.5t19.5 -7q4 -2 2 -5l-26 -73q-1 -2 -3 -1l-7 2l-20 2.5t-27 3.5t-33 3.5t-33 1.5q-18 0 -29.5 -2.5t-26 -12.5t-21.5 -35t-7 -64 v-140q0 -71 21 -93t61 -22q12 0 33 3t36 6l15 3v114h-63q-2 0 -2 4v78q0 3 2 3h146v-273q-115 -30 -167 -30z" />
<glyph horiz-adv-x="437" d="M45 0q-2 0 -2 3v538q0 3 2 3h94q2 0 2 -3v-224h154v224q0 3 3 3h93q3 0 3 -3v-538q0 -3 -3 -3h-93q-3 0 -3 3v227h-154v-227q0 -3 -2 -3h-94z" />
<glyph horiz-adv-x="184" d="M45 0q-2 0 -2 3v538q0 3 2 3h94q2 0 2 -3v-538q0 -3 -2 -3h-94z" />
<glyph horiz-adv-x="340" d="M137 -6q-76 0 -116 20q-2 1 -1 4l23 77q1 2 4 1l5 -1q6 -1 14 -2t18.5 -2.5t24 -2.5t25.5 -1q31 0 49 13t18 54v387q0 3 3 3h93q2 0 2 -3v-394q0 -42 -10.5 -71.5t-25 -45t-38.5 -24t-42.5 -10.5t-45.5 -2z" />
<glyph horiz-adv-x="422" d="M45 0q-2 1 -2 3v538l2 3h94q2 0 2 -3v-224h26q119 221 121 224t4 3h103q3 0 1 -3l-149 -265q158 -271 159 -273q3 -3 -1 -3h-103q-3 0 -5 3l-124 226h-32v-226q0 -3 -2 -3h-94z" />
<glyph horiz-adv-x="357" d="M43 0v541q0 3 2 3h94q2 0 2 -3v-452h199q3 0 3 -4v-82q0 -3 -3 -3h-297z" />
<glyph horiz-adv-x="534" d="M45 0q-2 1 -2 3v538q0 3 2 3h113q3 0 4 -2l103 -290h9q98 286 99 288q1 4 5 4h112q2 0 2 -3v-538q0 -3 -2 -3h-92q-3 0 -3 3v345h-10q-77 -229 -78 -231q-1 -3 -5 -3h-68q-5 0 -6 3l-79 230h-9v-344q0 -3 -3 -3h-92z" />
<glyph horiz-adv-x="446" d="M43 0q-3 0 -3 3v538q0 3 3 3h106q3 0 4 -3l152 -362h8v362q0 3 3 3h91q2 0 2 -3v-538q0 -3 -2 -3h-107q-2 0 -4 3l-152 363h-8v-363q0 -3 -2 -3h-91z" />
<glyph horiz-adv-x="414" d="M206 87q41 0 59.5 21.5t18.5 94.5v140q0 50 -11 75.5t-25.5 31.5t-41.5 6q-40 0 -58.5 -21t-18.5 -92v-140q0 -74 18.5 -95t58.5 -21zM206 -5q-30 0 -50.5 2.5t-47 14t-42 31.5t-26.5 59t-11 94v156q0 53 11 90.5t26.5 57.5t41.5 31.5t47 14t51 2.5t50 -2.5t46 -13.5 t42 -30.5t27.5 -57.5t11.5 -92v-156q0 -56 -11.5 -95.5t-27 -59.5t-42 -31t-46 -13t-50.5 -2z" />
<glyph horiz-adv-x="402" d="M141 285h76q67 0 67 66v38q0 22 -6 36.5t-17 20t-20.5 7.5t-23.5 2h-76v-170zM139 0h-94q-2 0 -2 3v541h179q29 0 51.5 -4t50 -17.5t43 -45.5t15.5 -81v-54q0 -146 -160 -146h-81v-193q0 -3 -2 -3z" />
<glyph horiz-adv-x="413" d="M206 -5q-30 0 -50.5 2.5t-47 14t-42 31.5t-26.5 59t-11 94v156q0 53 11 90.5t26.5 57.5t41.5 31.5t47 14t51 2.5t50 -2.5t46 -13.5t42 -30.5t27.5 -57.5t11.5 -92v-156q0 -90 -27 -136q31 -36 32 -36q1 -1 0 -4q-6 -9 -50 -53q0 -4 -4 0l-35 41q-31 -13 -93 -13zM198 125 q-2 3 0 5l49 52q3 3 4 0q0 -2 29 -34q4 30 4 55v140q0 50 -11 75.5t-25.5 31.5t-41.5 6q-40 0 -58.5 -21t-18.5 -92v-140q0 -74 18.5 -95t58.5 -21q16 0 23 1z" />
<glyph horiz-adv-x="416" d="M141 284h76q67 0 67 68v35q0 68 -67 68h-76v-171zM138 0h-93q-2 0 -2 3v541h179q160 0 160 -154v-42q0 -105 -68 -134l81 -211q1 -3 -2 -3h-103q-2 0 -4 3l-67 192h-78v-192q0 -3 -3 -3z" />
<glyph horiz-adv-x="400" d="M198 -4q-100 0 -162 31q-4 1 -2 5q0 1 13 38.5t14 38.5q0 4 4 2l7 -3q7 -2 19.5 -5.5t28.5 -7t37.5 -6t42.5 -2.5q36 0 55.5 10t19.5 42v35q0 26 -20.5 39t-64.5 18q-85 9 -118.5 38.5t-33.5 97.5v59q0 123 162 123q43 0 79.5 -7t50.5 -12.5t16 -7.5q3 -2 2 -4 q0 -3 -24 -75q-1 -2 -3 -2q-3 1 -18 5t-44.5 8.5t-57.5 4.5q-18 0 -30 -2.5t-22 -13.5t-10 -31v-33q0 -26 16.5 -38.5t64.5 -18.5q86 -11 121 -40.5t35 -97.5v-59q0 -42 -16 -69.5t-45 -39.5t-55 -16t-62 -4z" />
<glyph horiz-adv-x="370" d="M138 0q-3 0 -3 3v451h-123q-2 0 -2 2v85q0 3 2 3h345q3 0 3 -3v-85q0 -2 -3 -2h-123v-451q0 -3 -3 -3h-93z" />
<glyph horiz-adv-x="427" d="M199 -4q-91 0 -125.5 49.5t-34.5 164.5v331q0 3 2 3h94q2 -2 2 -3v-323q0 -72 11.5 -101t51.5 -29h29q39 0 50 28t11 102v323q0 3 3 3h93q2 0 2 -3v-331q0 -113 -32 -163.5t-128 -50.5h-29z" />
<glyph horiz-adv-x="422" d="M154 0q-1 0 -3 2q0 2 -71.5 269t-72.5 270q0 3 2 3h98q2 -1 3 -3l95 -394h12q95 391 96 394q0 3 3 3h97q3 0 2 -3l-146 -538q-1 -3 -4 -3h-111z" />
<glyph horiz-adv-x="593" d="M121 0q-3 0 -3 3l-108 538q-2 3 1 3h97q2 0 4 -3l67 -380h13q63 276 64 278q2 3 3 3h77q2 0 4 -3l62 -278h14q66 378 67 380q1 3 4 3h97q4 0 2 -3q-1 -2 -54.5 -268.5t-53.5 -269.5q-2 -3 -5 -3h-114q-4 0 -4 3l-53 271h-9q-52 -266 -52 -270q-3 -4 -5 -4h-115z" />
<glyph horiz-adv-x="397" d="M8 0q-2 0 -1 3l138 279q-127 257 -129 259q-2 3 2 3h102q2 0 3 -3l73 -162h4q72 160 73 162q3 3 4 3h102q1 0 1.5 -1t-0.5 -2l-128 -259q137 -278 138 -279q3 -3 -1 -3h-102q-3 0 -4 3l-83 182h-4q-81 -180 -82 -182q-2 -3 -4 -3h-102z" />
<glyph horiz-adv-x="386" d="M147 0q-3 0 -3 3v209q-138 327 -139 329q-1 3 1 3h99q3 0 4 -3l83 -216h5q80 214 82 216q1 3 3 3h97q3 0 2 -3l-139 -329v-209q0 -3 -2 -3h-93z" />
<glyph horiz-adv-x="370" d="M28 0q-2 0 -2 2v85q0 2 2 8l199 351v7h-191q-2 0 -2 4v83q0 4 2 4h303q3 0 3 -4v-83q0 -7 -2 -9l-198 -350v-8h197q3 0 3 -3v-84q0 -3 -2 -3h-312z" />
<glyph horiz-adv-x="314" d="M55 458q-3 0 -3 3v80q0 3 3 3h69q3 0 3 -3v-80q0 -3 -3 -3h-69zM191 458q-4 0 -4 3v80q0 3 4 3h68q2 0 2 -3v-80q0 -3 -2 -3h-68z" />
<glyph horiz-adv-x="314" d="M154 444l-66 114q-3 3 1 3h80q3 0 4 -3l51 -114q1 -4 -1 -4h-65q-2 0 -4 4z" />
<glyph horiz-adv-x="314" d="M116 440h-66q-1 2 0 3q2 8 31.5 57t32.5 57l6 3h74q4 0 6 -3l64 -114q2 -3 0 -3h-66q-4 0 -5 4l-35 58h-2q-34 -57 -35 -58q-3 -4 -5 -4z" />
<glyph horiz-adv-x="314" d="M59 458q-3 0 -3 4v49q0 7 5 13q28 28 52 28q20 0 48 -15t43 -15q16 0 32 14t18 14q3 0 3 -4v-49q0 -8 -5 -14q-24 -29 -53 -29q-20 0 -47.5 16t-41.5 16q-17 0 -34 -14z" />
<glyph horiz-adv-x="314" d="M257 468h-199q-3 0 -3 3v66q0 3 3 3h199q2 0 2 -3v-66q0 -3 -2 -3z" />
<glyph horiz-adv-x="315" d="M160 444q0 -4 -3 -4h-66q-3 0 -1 4l52 114q2 3 4 3h80q2 0 1 -3z" />
<glyph horiz-adv-x="315" d="M176 -126h-81l-1 3q0 1 13 32.5l26 63t14 32.5q1 3 4 3h65q2 0 1 -3l-38 -128q-1 -3 -3 -3z" />
<glyph horiz-adv-x="314" d="M157 442q-101 0 -101 103q0 5 5 5h40q5 0 7 -5q7 -25 16.5 -32.5t32.5 -7.5q21 0 31 8.5t17 31.5q1 5 8 5h39q5 0 5 -5q-5 -103 -100 -103z" />
<glyph horiz-adv-x="314" d="M113 454q-2 0 -2 2v85q0 3 2 3h86q3 0 3 -3v-85q0 -2 -4 -2h-85z" />
<glyph horiz-adv-x="314" d="M154 466q15 0 23.5 7t8.5 28v9q0 20 -7.5 27t-22.5 7q-33 0 -33 -34v-9q0 -21 8 -28t23 -7zM154 425q-32 0 -51.5 14t-19.5 58v18q0 42 20 56t54 14q14 0 24 -2t21.5 -8.5t17.5 -21.5t6 -38v-18q0 -44 -19.5 -58t-52.5 -14z" />
<glyph horiz-adv-x="314" d="M105 443q-1 -3 -4 -3h-66q-3 0 -1 3l51 114q1 3 4 3h81q2 0 1 -3l-33 -56q-32 -56 -33 -58zM218 443q-2 -3 -4 -3h-66q-1 0 -1 3l52 114q1 3 4 3h80q3 0 2 -3q-1 -1 -33.5 -56.5t-33.5 -57.5z" />
<glyph horiz-adv-x="314" d="M154 -147q-31 0 -49 14t-18 53q0 48 45 85q6 3 11 3h70q2 0 3 -2.5t-2 -4.5q-57 -41 -57 -65q0 -16 13 -16q10 0 18 8q4 2 6 -1q1 -1 11.5 -21.5t11.5 -22.5q2 -3 -1 -7q-23 -23 -62 -23z" />
<glyph horiz-adv-x="314" d="M197 558h68q3 0 1 -3l-74 -114q-3 -3 -5 -3h-61q-4 0 -6 3q-3 8 -37.5 57.5t-36.5 56.5q-2 3 1 3h68q3 0 4 -3l36 -58h3q33 56 35 58q3 3 4 3z" />
<glyph horiz-adv-x="421" d="M100 0h-97q-3 0 -2 3q1 2 77 269.5t76 268.5q2 3 3 3h108q3 0 4 -3l150 -538q1 -3 -2 -3h-97q-2 0 -4 3l-23 99h-166q-23 -97 -24 -99q-1 -3 -3 -3zM149 183h122l-53 230h-14zM208 604l-66 114q-3 3 1 3h80q3 0 4 -3l51 -114q1 -4 -1 -4h-65q-2 0 -4 4z" />
<glyph horiz-adv-x="421" d="M100 0h-97q-3 0 -2 3q1 2 77 269.5t76 268.5q2 3 3 3h108q3 0 4 -3l150 -538q1 -3 -2 -3h-97q-2 0 -4 3l-23 99h-166q-23 -97 -24 -99q-1 -3 -3 -3zM149 183h122l-53 230h-14zM211 604q0 -4 -3 -4h-66q-3 0 -1 4l52 114q1 3 4 3h80q3 0 1 -3z" />
<glyph horiz-adv-x="421" d="M100 0h-97q-3 0 -2 3q1 2 77 269.5t76 268.5q2 3 3 3h108q3 0 4 -3l150 -538q1 -3 -2 -3h-97q-2 0 -4 3l-23 99h-166q-23 -97 -24 -99q-1 -3 -3 -3zM149 183h122l-53 230h-14zM169 600h-66q-1 2 0 3q3 8 32 57t32 57l6 3h74q4 0 6 -3l64 -114q1 -3 0 -3h-66q-4 0 -5 4 l-35 58h-2q-34 -57 -35 -58q-3 -4 -5 -4z" />
<glyph horiz-adv-x="421" d="M100 0h-97q-3 0 -2 3q1 2 77 269.5t76 268.5q2 3 3 3h108q3 0 4 -3l150 -538q1 -3 -2 -3h-97q-2 0 -4 3l-23 99h-166q-23 -97 -24 -99q-1 -3 -3 -3zM149 183h122l-53 230h-14zM113 618q-3 0 -3 4v49q0 7 5 13q28 28 52 28q20 0 48 -15t43 -15q16 0 32 14t18 14q3 0 3 -4 v-49q0 -8 -5 -14q-24 -29 -53 -29q-20 0 -47.5 16t-41.5 16q-17 0 -34 -14z" />
<glyph horiz-adv-x="421" d="M100 0h-97q-3 0 -2 3q1 2 77 269.5t76 268.5q2 3 3 3h108q3 0 4 -3l150 -538q1 -3 -2 -3h-97q-2 0 -4 3l-23 99h-166q-23 -97 -24 -99q-1 -3 -3 -3zM149 183h122l-53 230h-14zM108 618q-3 0 -3 3v80q0 3 3 3h69q3 0 3 -3v-80q0 -3 -3 -3h-69zM244 618q-4 0 -4 3v80 q0 3 4 3h68q2 0 2 -3v-80q0 -3 -2 -3h-68z" />
<glyph horiz-adv-x="421" d="M100 0h-97q-3 0 -2 3q1 2 77 269.5t76 268.5q2 3 3 3h108q3 0 4 -3l150 -538q1 -3 -2 -3h-97q-2 0 -4 3l-23 99h-166q-23 -97 -24 -99q-1 -3 -3 -3zM210 585q-32 0 -51.5 14t-19.5 58v18q0 42 20 56t54 14q14 0 24 -2t21.5 -8.5t17.5 -21.5t6 -38v-18q0 -44 -19.5 -58 t-52.5 -14zM149 183h122l-53 230h-14zM210 626q15 0 23.5 7t8.5 28v9q0 20 -7.5 27t-22.5 7q-33 0 -33 -34v-9q0 -21 8 -28t23 -7z" />
<glyph horiz-adv-x="377" d="M209 -126h-81l-1 3q0 1 10 25t22 53.5t17 41.5q-67 5 -106.5 48t-39.5 151v157q0 63 15 104.5t44 60.5t56.5 25t67.5 6q41 0 72.5 -6.5t41.5 -11.5t12 -7q2 -1 1 -4q-1 -2 -14 -38.5t-13 -37.5q0 -2 -4 -2q-2 1 -14 4.5t-36 7t-45 3.5q-18 0 -30 -3t-26 -13t-21.5 -35 t-7.5 -63v-138q0 -71 20.5 -92.5t62.5 -21.5q15 0 31.5 2t28.5 4.5t22 5t16 4.5l6 2q1 1 3 -2q1 -2 14.5 -38t13.5 -37q2 -4 -1 -5q-49 -24 -98 -29l-36 -121q-2 -3 -3 -3z" />
<glyph horiz-adv-x="370" d="M43 0v544h297q3 0 3 -3v-83q0 -3 -3 -3h-199v-136h167q3 0 3 -3v-82q0 -3 -3 -3h-167v-142h199q3 0 3 -4v-82q0 -3 -3 -3h-297zM183 604l-66 114q-3 3 1 3h80q2 0 4 -3l51 -114q1 -4 -1 -4h-65q-2 0 -4 4z" />
<glyph horiz-adv-x="370" d="M43 0v544h297q3 0 3 -3v-83q0 -3 -3 -3h-199v-136h167q3 0 3 -3v-82q0 -3 -3 -3h-167v-142h199q3 0 3 -4v-82q0 -3 -3 -3h-297zM193 604q0 -4 -3 -4h-66q-3 0 -1 4l52 114q1 3 4 3h80q3 0 1 -3z" />
<glyph horiz-adv-x="370" d="M43 0v544h297q3 0 3 -3v-83q0 -3 -3 -3h-199v-136h167q3 0 3 -3v-82q0 -3 -3 -3h-167v-142h199q3 0 3 -4v-82q0 -3 -3 -3h-297zM150 600h-66q-1 2 0 3q2 8 32 57t32 57l6 3h74q4 0 6 -3l64 -114q2 -3 0 -3h-66q-4 0 -5 4l-35 58h-2q-34 -57 -35 -58q-3 -4 -5 -4z" />
<glyph horiz-adv-x="370" d="M43 0v544h297q3 0 3 -3v-83q0 -3 -3 -3h-199v-136h167q3 0 3 -3v-82q0 -3 -3 -3h-167v-142h199q3 0 3 -4v-82q0 -3 -3 -3h-297zM84 618q-3 0 -3 3v80q0 3 3 3h69q3 0 3 -3v-80q0 -3 -3 -3h-69zM220 618q-4 0 -4 3v80q0 3 4 3h68q2 0 2 -3v-80q0 -3 -2 -3h-68z" />
<glyph horiz-adv-x="184" d="M45 0q-2 0 -2 3v538q0 3 2 3h94q2 0 2 -3v-538q0 -3 -2 -3h-94zM90 604l-66 114q-3 3 1 3h80q3 0 4 -3l51 -114q1 -4 -1 -4h-65q-2 0 -4 4z" />
<glyph horiz-adv-x="184" d="M45 0q-2 0 -2 3v538q0 3 2 3h94q2 0 2 -3v-538q0 -3 -2 -3h-94zM93 604q0 -4 -3 -4h-66q-3 0 -1 4l52 114q1 3 4 3h80q3 0 1 -3z" />
<glyph horiz-adv-x="184" d="M45 0q-2 0 -2 3v538q0 3 2 3h94q2 0 2 -3v-538q0 -3 -2 -3h-94zM50 600h-66q-1 2 0 3q2 8 32 57t32 57l6 3h74q4 0 6 -3l64 -114q2 -3 0 -3h-66q-4 0 -5 4l-35 58h-2q-34 -57 -35 -58q-3 -4 -5 -4z" />
<glyph horiz-adv-x="184" d="M45 0q-2 0 -2 3v538q0 3 2 3h94q2 0 2 -3v-538q0 -3 -2 -3h-94zM-10 618q-3 0 -3 3v80q0 3 3 3h69q3 0 3 -3v-80q0 -3 -3 -3h-69zM126 618q-4 0 -4 3v80q0 3 4 3h68q2 0 2 -3v-80q0 -3 -2 -3h-68z" />
<glyph horiz-adv-x="446" d="M43 0q-3 0 -3 3v538q0 3 3 3h106q3 0 4 -3l152 -362h8v362q0 3 3 3h91q2 0 2 -3v-538q0 -3 -2 -3h-107q-2 0 -4 3l-152 363h-8v-363q0 -3 -2 -3h-91zM126 618q-3 0 -3 4v49q0 7 5 13q28 28 52 28q20 0 48 -15t43 -15q16 0 32 14t18 14q3 0 3 -4v-49q0 -8 -5 -14 q-24 -29 -53 -29q-20 0 -47.5 16t-41.5 16q-17 0 -34 -14z" />
<glyph horiz-adv-x="414" d="M206 -5q-30 0 -50.5 2.5t-47 14t-42 31.5t-26.5 59t-11 94v156q0 53 11 90.5t26.5 57.5t41.5 31.5t47 14t51 2.5t50 -2.5t46 -13.5t42 -30.5t27.5 -57.5t11.5 -92v-156q0 -56 -11.5 -95.5t-27 -59.5t-42 -31t-46 -13t-50.5 -2zM206 87q41 0 59.5 21.5t18.5 94.5v140 q0 50 -11 75.5t-25.5 31.5t-41.5 6q-40 0 -58.5 -21t-18.5 -92v-140q0 -74 18.5 -95t58.5 -21zM205 604l-66 114q-3 3 1 3h80q2 0 4 -3l51 -114q1 -4 -1 -4h-65q-2 0 -4 4z" />
<glyph horiz-adv-x="414" d="M206 -5q-30 0 -50.5 2.5t-47 14t-42 31.5t-26.5 59t-11 94v156q0 53 11 90.5t26.5 57.5t41.5 31.5t47 14t51 2.5t50 -2.5t46 -13.5t42 -30.5t27.5 -57.5t11.5 -92v-156q0 -56 -11.5 -95.5t-27 -59.5t-42 -31t-46 -13t-50.5 -2zM206 87q41 0 59.5 21.5t18.5 94.5v140 q0 50 -11 75.5t-25.5 31.5t-41.5 6q-40 0 -58.5 -21t-18.5 -92v-140q0 -74 18.5 -95t58.5 -21zM208 604q0 -4 -3 -4h-66q-3 0 -1 4l52 114q2 3 4 3h80q2 0 1 -3z" />
<glyph horiz-adv-x="414" d="M206 -5q-30 0 -50.5 2.5t-47 14t-42 31.5t-26.5 59t-11 94v156q0 53 11 90.5t26.5 57.5t41.5 31.5t47 14t51 2.5t50 -2.5t46 -13.5t42 -30.5t27.5 -57.5t11.5 -92v-156q0 -56 -11.5 -95.5t-27 -59.5t-42 -31t-46 -13t-50.5 -2zM206 87q41 0 59.5 21.5t18.5 94.5v140 q0 50 -11 75.5t-25.5 31.5t-41.5 6q-40 0 -58.5 -21t-18.5 -92v-140q0 -74 18.5 -95t58.5 -21zM166 600h-66q-1 2 0 3q2 8 32 57t32 57l6 3h74q4 0 6 -3l64 -114q2 -3 0 -3h-66q-4 0 -5 4l-35 58h-2q-34 -57 -35 -58q-3 -4 -5 -4z" />
<glyph horiz-adv-x="414" d="M206 87q41 0 59.5 21.5t18.5 94.5v140q0 50 -11 75.5t-25.5 31.5t-41.5 6q-40 0 -58.5 -21t-18.5 -92v-140q0 -74 18.5 -95t58.5 -21zM206 -5q-30 0 -50.5 2.5t-47 14t-42 31.5t-26.5 59t-11 94v156q0 53 11 90.5t26.5 57.5t41.5 31.5t47 14t51 2.5t50 -2.5t46 -13.5 t42 -30.5t27.5 -57.5t11.5 -92v-156q0 -56 -11.5 -95.5t-27 -59.5t-42 -31t-46 -13t-50.5 -2zM109 618q-3 0 -3 4v49q0 7 5 13q28 28 52 28q20 0 48 -15t43 -15q16 0 32 14t18 14q3 0 3 -4v-49q0 -8 -5 -14q-24 -29 -53 -29q-20 0 -47.5 16t-41.5 16q-17 0 -34 -14z" />
<glyph horiz-adv-x="414" d="M206 -5q-30 0 -50.5 2.5t-47 14t-42 31.5t-26.5 59t-11 94v156q0 53 11 90.5t26.5 57.5t41.5 31.5t47 14t51 2.5t50 -2.5t46 -13.5t42 -30.5t27.5 -57.5t11.5 -92v-156q0 -56 -11.5 -95.5t-27 -59.5t-42 -31t-46 -13t-50.5 -2zM206 87q41 0 59.5 21.5t18.5 94.5v140 q0 50 -11 75.5t-25.5 31.5t-41.5 6q-40 0 -58.5 -21t-18.5 -92v-140q0 -74 18.5 -95t58.5 -21zM105 618q-3 0 -3 3v80q0 3 3 3h69q3 0 3 -3v-80q0 -3 -3 -3h-69zM241 618q-4 0 -4 3v80q0 3 4 3h68q2 0 2 -3v-80q0 -3 -2 -3h-68z" />
<glyph horiz-adv-x="427" d="M199 -4q-91 0 -125.5 49.5t-34.5 164.5v331q0 3 2 3h94q2 -2 2 -3v-323q0 -72 11.5 -101t51.5 -29h29q39 0 50 28t11 102v323q0 3 3 3h93q2 0 2 -3v-331q0 -113 -32 -163.5t-128 -50.5h-29zM212 604l-66 114q-3 3 1 3h80q3 0 4 -3l51 -114q1 -4 -1 -4h-65q-2 0 -4 4z" />
<glyph horiz-adv-x="427" d="M199 -4q-91 0 -125.5 49.5t-34.5 164.5v331q0 3 2 3h94q2 -2 2 -3v-323q0 -72 11.5 -101t51.5 -29h29q39 0 50 28t11 102v323q0 3 3 3h93q2 0 2 -3v-331q0 -113 -32 -163.5t-128 -50.5h-29zM215 604q0 -4 -3 -4h-66q-3 0 -1 4l52 114q1 3 4 3h80q3 0 1 -3z" />
<glyph horiz-adv-x="427" d="M199 -4q-91 0 -125.5 49.5t-34.5 164.5v331q0 3 2 3h94q2 -2 2 -3v-323q0 -72 11.5 -101t51.5 -29h29q39 0 50 28t11 102v323q0 3 3 3h93q2 0 2 -3v-331q0 -113 -32 -163.5t-128 -50.5h-29zM172 600h-66q-1 2 0 3q3 8 32 57t32 57l6 3h74q4 0 6 -3l64 -114q2 -3 0 -3h-66 q-4 0 -5 4l-35 58h-2q-34 -57 -35 -58q-3 -4 -5 -4z" />
<glyph horiz-adv-x="427" d="M199 -4q-91 0 -125.5 49.5t-34.5 164.5v331q0 3 2 3h94q2 -2 2 -3v-323q0 -72 11.5 -101t51.5 -29h29q39 0 50 28t11 102v323q0 3 3 3h93q2 0 2 -3v-331q0 -113 -32 -163.5t-128 -50.5h-29zM112 618q-3 0 -3 3v80q0 3 3 3h69q3 0 3 -3v-80q0 -3 -3 -3h-69zM248 618 q-4 0 -4 3v80q0 3 4 3h68q2 0 2 -3v-80q0 -3 -2 -3h-68z" />
<glyph horiz-adv-x="386" d="M147 0q-3 0 -3 3v209q-138 327 -139 329q-1 3 1 3h99q3 0 4 -3l83 -216h5q80 214 82 216q1 3 3 3h97q3 0 2 -3l-139 -329v-209q0 -3 -2 -3h-93zM194 604q0 -4 -3 -4h-66q-3 0 -1 4l52 114q2 3 4 3h80q2 0 1 -3z" />
<glyph horiz-adv-x="386" d="M147 0q-3 0 -3 3v209q-138 327 -139 329q-1 3 1 3h99q3 0 4 -3l83 -216h5q80 214 82 216q1 3 3 3h97q3 0 2 -3l-139 -329v-209q0 -3 -2 -3h-93zM93 618q-3 0 -3 3v80q0 3 3 3h69q3 0 3 -3v-80q0 -3 -3 -3h-69zM229 618q-4 0 -4 3v80q0 3 4 3h68q2 0 2 -3v-80q0 -3 -2 -3 h-68z" />
<glyph horiz-adv-x="414" d="M39 -32q-1 0 0 3q0 1 30 69q-40 50 -40 156v156q0 53 11 90.5t26.5 57.5t41.5 31.5t47 14t51 2.5q47 0 74 -8l17 34q1 3 4 3h76q1 0 0 -3l-32 -74q38 -48 38 -148v-156q0 -56 -11.5 -95.5t-27 -59.5t-42 -31t-46 -13t-50.5 -2q-45 0 -73 7q-12 -29 -14 -31q-1 -3 -4 -3 h-76zM206 87q41 0 59.5 21.5t18.5 94.5v140q0 50 -11 75.5t-25.5 31.5t-41.5 6q-40 0 -58.5 -21t-18.5 -92v-140q0 -74 18.5 -95t58.5 -21z" />
<glyph horiz-adv-x="400" d="M198 -4q-100 0 -162 31q-4 1 -2 5q0 1 13 38.5t14 38.5q0 4 4 2l7 -3q7 -2 19.5 -5.5t28.5 -7t37.5 -6t42.5 -2.5q36 0 55.5 10t19.5 42v35q0 26 -20.5 39t-64.5 18q-85 9 -118.5 38.5t-33.5 97.5v59q0 123 162 123q43 0 79.5 -7t50.5 -12.5t16 -7.5q3 -2 2 -4 q0 -3 -24 -75q-1 -2 -3 -2q-3 1 -18 5t-44.5 8.5t-57.5 4.5q-18 0 -30 -2.5t-22 -13.5t-10 -31v-33q0 -26 16.5 -38.5t64.5 -18.5q86 -11 121 -40.5t35 -97.5v-59q0 -42 -16 -69.5t-45 -39.5t-55 -16t-62 -4zM241 715h68q3 0 1 -3l-74 -114q-3 -3 -5 -3h-61q-4 0 -6 3 q-3 8 -37.5 57.5t-36.5 56.5q-2 3 1 3h68q3 0 4 -3l36 -58h3q33 56 35 58q3 3 4 3z" />
<glyph horiz-adv-x="370" d="M28 0q-2 0 -2 2v85q0 2 2 8l199 351v7h-191q-2 0 -2 4v83q0 4 2 4h303q3 0 3 -4v-83q0 -7 -2 -9l-198 -350v-8h197q3 0 3 -3v-84q0 -3 -2 -3h-312zM225 715h68q3 0 1 -3l-74 -114q-3 -3 -5 -3h-61q-4 0 -6 3q-3 8 -37.5 57.5t-36.5 56.5q-2 3 1 3h68q3 0 4 -3l36 -58h3 q33 56 35 58q3 3 4 3z" />
<glyph horiz-adv-x="615" d="M185 183h109v241h-15zM106 0h-98q-2 0 -1 3q0 1 60 134.5t120 267.5t61 135q1 4 4 4h329q3 0 3 -3v-83q0 -3 -3 -3h-189v-135h157q2 0 2 -3v-83q0 -3 -2 -3h-157v-142h189q3 0 3 -4v-82q0 -3 -3 -3h-287v102h-145q-38 -97 -40 -99q-1 -3 -3 -3z" />
<glyph horiz-adv-x="611" d="M207 87q18 0 30 3.5t24 15t18 38t6 67.5v124q0 41 -6.5 67t-19.5 37t-24 14t-28 3t-28 -3t-23.5 -13.5t-19 -35.5t-6.5 -65v-131q0 -41 6 -67t18.5 -37t23.5 -14t29 -3zM207 -2q-29 0 -49 2.5t-46.5 14t-42.5 32t-27.5 60t-11.5 94.5v146q0 66 15 108.5t43.5 61t54.5 24 t64 5.5q42 0 78 -29v27h297q3 0 3 -3v-83q0 -3 -3 -3h-199v-135h167q3 0 3 -3v-83q0 -3 -3 -3h-167v-142h199q3 0 3 -4v-82q0 -3 -3 -3h-297v26q-36 -28 -78 -28z" />
<glyph horiz-adv-x="418" d="M141 92h67q20 0 31 2.5t24 13t18.5 35.5t5.5 65v131q0 39 -6 63.5t-19.5 34t-24 12t-29.5 2.5h-67v-137h63q3 0 3 -3v-73q0 -3 -3 -3h-63v-143zM207 0h-165v235h-27q-2 1 -2 3v73l2 3h27v230h165q29 0 49 -2.5t46.5 -13.5t43 -30.5t28.5 -58t12 -91.5v-147 q0 -47 -7.5 -83t-22.5 -57t-30.5 -34t-39 -18.5t-39 -7t-40.5 -1.5z" />
<glyph horiz-adv-x="402" d="M141 199h76q67 0 67 66v31q0 40 -18.5 53t-48.5 13h-76v-163zM138 0h-93q-2 1 -2 3v538q0 3 2 3h93q3 0 3 -3v-90h81q22 0 39 -1.5t41.5 -10t40.5 -23.5t27.5 -44t11.5 -69v-46q0 -146 -160 -146h-81v-108q0 -3 -3 -3z" />
<glyph horiz-adv-x="359" d="M42 0v204q-31 -23 -33 -25q-1 -1 -1.5 0t-0.5 3v81q0 5 2 6l33 23v249q0 3 4 3h92q3 0 3 -3v-189q90 65 91 66t1.5 0.5t0.5 -2.5v-82q0 -4 -2 -5l-91 -66v-174h199q2 0 2 -4v-82q0 -3 -2 -3h-298z" />
<glyph horiz-adv-x="421" d="M100 0h-97q-3 0 -2 3q1 2 77 269.5t76 268.5q2 3 3 3h108q3 0 4 -3l150 -538q1 -3 -2 -3h-97q-2 0 -4 3l-23 99h-166q-23 -97 -24 -99q-1 -3 -3 -3zM149 183h122l-53 230h-14zM310 626h-199q-3 0 -3 3v66q0 3 3 3h199q2 0 2 -3v-66q0 -3 -2 -3z" />
<glyph horiz-adv-x="421" d="M100 0h-97q-3 0 -2 3q1 2 77 269.5t76 268.5q2 3 3 3h108q3 0 4 -3l150 -538q1 -3 -2 -3h-97q-2 0 -4 3l-23 99h-166q-23 -97 -24 -99q-1 -3 -3 -3zM149 183h122l-53 230h-14zM211 599q-101 0 -101 103q0 5 5 5h40q5 0 7 -5q7 -25 16.5 -32.5t32.5 -7.5q21 0 31 8.5 t17 31.5q1 5 8 5h39q5 0 5 -5q-5 -103 -100 -103z" />
<glyph horiz-adv-x="421" d="M355 -149q-31 0 -49 14t-18 53q0 47 41 82h-9q-2 0 -4 3l-23 99h-166q-23 -97 -24 -99q-1 -3 -3 -3h-97q-3 0 -2 3q1 2 77 269.5t76 268.5q2 3 3 3h108q3 0 4 -3l150 -538q1 -3 -2 -3h-1q-1 0 -1 -1q-57 -41 -57 -65q0 -16 13 -16q10 0 18 8q4 2 6 -1q1 -2 12 -22t11 -22 q2 -3 -1 -7q-23 -23 -62 -23zM149 183h122l-53 230h-14z" />
<glyph horiz-adv-x="377" d="M212 -4q-31 0 -53.5 3t-48 15t-42 33t-27.5 58.5t-11 90.5v157q0 63 15 104.5t44 60.5t56.5 25t67.5 6q41 0 72.5 -6.5t41.5 -11.5t12 -7q2 -1 1 -4q-1 -2 -14 -38.5t-13 -37.5q0 -2 -4 -2q-2 1 -14 4.5t-36 7t-45 3.5q-18 0 -30 -3t-26 -13t-21.5 -35t-7.5 -63v-138 q0 -71 20.5 -92.5t62.5 -21.5q15 0 31.5 2t28.5 4.5t22 5t16 4.5l6 2q1 1 3 -2q1 -2 14.5 -38t13.5 -37q2 -4 -1 -5q-30 -15 -44 -19q-40 -12 -90 -12zM213 601q0 -4 -3 -4h-66q-3 0 -1 4l52 114q1 3 4 3h80q3 0 1 -3z" />
<glyph horiz-adv-x="377" d="M212 -4q-31 0 -53.5 3t-48 15t-42 33t-27.5 58.5t-11 90.5v157q0 63 15 104.5t44 60.5t56.5 25t67.5 6q41 0 72.5 -6.5t41.5 -11.5t12 -7q2 -1 1 -4q-1 -2 -14 -38.5t-13 -37.5q0 -2 -4 -2q-2 1 -14 4.5t-36 7t-45 3.5q-18 0 -30 -3t-26 -13t-21.5 -35t-7.5 -63v-138 q0 -71 20.5 -92.5t62.5 -21.5q15 0 31.5 2t28.5 4.5t22 5t16 4.5l6 2q1 1 3 -2q1 -2 14.5 -38t13.5 -37q2 -4 -1 -5q-30 -15 -44 -19q-40 -12 -90 -12zM171 598h-66q-1 2 0 3q3 8 32.5 57t31.5 57l6 3h74q4 0 6 -3l64 -114q1 -3 0 -3h-66q-4 0 -5 4l-35 58h-2 q-34 -57 -35 -58q-3 -4 -5 -4z" />
<glyph horiz-adv-x="377" d="M212 -4q-31 0 -53.5 3t-48 15t-42 33t-27.5 58.5t-11 90.5v157q0 63 15 104.5t44 60.5t56.5 25t67.5 6q41 0 72.5 -6.5t41.5 -11.5t12 -7q2 -1 1 -4q-1 -2 -14 -38.5t-13 -37.5q0 -2 -4 -2q-2 1 -14 4.5t-36 7t-45 3.5q-18 0 -30 -3t-26 -13t-21.5 -35t-7.5 -63v-138 q0 -71 20.5 -92.5t62.5 -21.5q15 0 31.5 2t28.5 4.5t22 5t16 4.5l6 2q1 1 3 -2q1 -2 14.5 -38t13.5 -37q2 -4 -1 -5q-30 -15 -44 -19q-40 -12 -90 -12zM168 611q-2 0 -2 2v85q0 3 2 3h86q3 0 3 -3v-85q0 -2 -4 -2h-85z" />
<glyph horiz-adv-x="377" d="M212 -4q-31 0 -53.5 3t-48 15t-42 33t-27.5 58.5t-11 90.5v157q0 63 15 104.5t44 60.5t56.5 25t67.5 6q41 0 72.5 -6.5t41.5 -11.5t12 -7q2 -1 1 -4q-1 -2 -14 -38.5t-13 -37.5q0 -2 -4 -2q-2 1 -14 4.5t-36 7t-45 3.5q-18 0 -30 -3t-26 -13t-21.5 -35t-7.5 -63v-138 q0 -71 20.5 -92.5t62.5 -21.5q15 0 31.5 2t28.5 4.5t22 5t16 4.5l6 2q1 1 3 -2q1 -2 14.5 -38t13.5 -37q2 -4 -1 -5q-30 -15 -44 -19q-40 -12 -90 -12zM253 715h68q3 0 1 -3l-74 -114q-3 -3 -5 -3h-61q-4 0 -6 3q-3 8 -37.5 57.5t-36.5 56.5q-2 3 1 3h68q3 0 4 -3l36 -58h3 q33 56 35 58q3 3 4 3z" />
<glyph horiz-adv-x="418" d="M141 92h67q40 0 59 21.5t19 94.5v131q0 72 -19 92t-59 20h-67v-359zM208 0h-165v544h165q28 0 46.5 -1.5t46 -12t44 -30t29 -58.5t12.5 -94v-147q0 -47 -7 -82t-22 -56.5t-30 -35t-38 -19t-39.5 -7t-41.5 -1.5zM244 715h68q3 0 1 -3l-74 -114q-3 -3 -5 -3h-61q-5 0 -6 3 q-3 8 -37.5 57.5t-36.5 56.5q-1 3 1 3h68q2 0 4 -3l36 -58h3q33 56 35 58q3 3 4 3z" />
<glyph horiz-adv-x="418" d="M141 92h67q20 0 31 2.5t24 13t18.5 35.5t5.5 65v131q0 39 -6 63.5t-19.5 34t-24 12t-29.5 2.5h-67v-137h63q3 0 3 -3v-73q0 -3 -3 -3h-63v-143zM207 0h-165v235h-27q-2 1 -2 3v73l2 3h27v230h165q29 0 49 -2.5t46.5 -13.5t43 -30.5t28.5 -58t12 -91.5v-147 q0 -47 -7.5 -83t-22.5 -57t-30.5 -34t-39 -18.5t-39 -7t-40.5 -1.5z" />
<glyph horiz-adv-x="370" d="M43 0v544h297q3 0 3 -3v-83q0 -3 -3 -3h-199v-136h167q3 0 3 -3v-82q0 -3 -3 -3h-167v-142h199q3 0 3 -4v-82q0 -3 -3 -3h-297zM292 626h-199q-3 0 -3 3v66q0 3 3 3h199q2 0 2 -3v-66q0 -3 -2 -3z" />
<glyph horiz-adv-x="370" d="M43 0v544h297q3 0 3 -3v-83q0 -3 -3 -3h-199v-136h167q3 0 3 -3v-82q0 -3 -3 -3h-167v-142h199q3 0 3 -4v-82q0 -3 -3 -3h-297zM199 599q-101 0 -101 103q0 5 5 5h40q5 0 7 -5q7 -25 16.5 -32.5t32.5 -7.5q21 0 31 8.5t17 31.5q1 5 8 5h39q5 0 5 -5q-5 -103 -100 -103z " />
<glyph horiz-adv-x="370" d="M43 0v544h297q3 0 3 -3v-83q0 -3 -3 -3h-199v-136h167q3 0 3 -3v-82q0 -3 -3 -3h-167v-142h199q3 0 3 -4v-82q0 -3 -3 -3h-297zM162 611q-2 0 -2 2v85q0 3 2 3h86q3 0 3 -3v-85q0 -2 -4 -2h-85z" />
<glyph horiz-adv-x="370" d="M43 0v544h297q3 0 3 -3v-83q0 -3 -3 -3h-199v-136h167q3 0 3 -3v-82q0 -3 -3 -3h-167v-142h199q3 0 3 -4v-82q0 -3 -3 -3h-2q-55 -40 -55 -64q0 -16 13 -16q10 0 18 8q4 2 6 -1q0 -2 11 -22t12 -22q2 -3 -1 -7q-23 -23 -62 -23q-31 0 -49 14t-18 53q0 46 39 80h-209z" />
<glyph horiz-adv-x="370" d="M43 0v544h297q3 0 3 -3v-83q0 -3 -3 -3h-199v-136h167q3 0 3 -3v-82q0 -3 -3 -3h-167v-142h199q3 0 3 -4v-82q0 -3 -3 -3h-297zM244 715h68q3 0 1 -3l-74 -114q-3 -3 -5 -3h-61q-5 0 -6 3q-3 8 -37.5 57.5t-36.5 56.5q-1 3 1 3h68q2 0 4 -3l36 -58h3q33 56 35 58q3 3 4 3 z" />
<glyph horiz-adv-x="414" d="M211 -4q-29 0 -50.5 3t-48 14.5t-43 32t-28 59t-11.5 91.5v157q0 53 12.5 91.5t29.5 58t44.5 30.5t48 13t48.5 2q39 0 76 -6.5t51.5 -11.5t19.5 -7q4 -2 2 -5l-26 -73q-1 -2 -3 -1l-7 2l-20 2.5t-27 3.5t-33 3.5t-33 1.5q-18 0 -29.5 -2.5t-26 -12.5t-21.5 -35t-7 -64 v-140q0 -71 21 -93t61 -22q12 0 33 3t36 6l15 3v114h-63q-2 0 -2 4v78q0 3 2 3h146v-273q-115 -30 -167 -30zM177 598h-66q-1 2 0 3q3 8 32 57t32 57l6 3h74q4 0 6 -3l64 -114q1 -3 0 -3h-66q-4 0 -5 4l-35 58h-2q-34 -57 -35 -58q-3 -4 -5 -4z" />
<glyph horiz-adv-x="414" d="M211 -4q-29 0 -50.5 3t-48 14.5t-43 32t-28 59t-11.5 91.5v157q0 53 12.5 91.5t29.5 58t44.5 30.5t48 13t48.5 2q39 0 76 -6.5t51.5 -11.5t19.5 -7q4 -2 2 -5l-26 -73q-1 -2 -3 -1l-7 2l-20 2.5t-27 3.5t-33 3.5t-33 1.5q-18 0 -29.5 -2.5t-26 -12.5t-21.5 -35t-7 -64 v-140q0 -71 21 -93t61 -22q12 0 33 3t36 6l15 3v114h-63q-2 0 -2 4v78q0 3 2 3h146v-273q-115 -30 -167 -30zM213 599q-101 0 -101 103q0 5 5 5h40q5 0 7 -5q7 -25 16.5 -32.5t32.5 -7.5q21 0 31 8.5t17 31.5q1 5 8 5h39q5 0 5 -5q-5 -103 -100 -103z" />
<glyph horiz-adv-x="414" d="M211 -4q-29 0 -50.5 3t-48 14.5t-43 32t-28 59t-11.5 91.5v157q0 53 12.5 91.5t29.5 58t44.5 30.5t48 13t48.5 2q39 0 76 -6.5t51.5 -11.5t19.5 -7q4 -2 2 -5l-26 -73q-1 -2 -3 -1l-7 2l-20 2.5t-27 3.5t-33 3.5t-33 1.5q-18 0 -29.5 -2.5t-26 -12.5t-21.5 -35t-7 -64 v-140q0 -71 21 -93t61 -22q12 0 33 3t36 6l15 3v114h-63q-2 0 -2 4v78q0 3 2 3h146v-273q-115 -30 -167 -30zM165 611q-2 0 -2 2v85q0 3 2 3h86q3 0 3 -3v-85q0 -2 -4 -2h-85z" />
<glyph horiz-adv-x="437" d="M45 0q-2 0 -2 3v538q0 3 2 3h94q2 0 2 -3v-224h154v224q0 3 3 3h93q3 0 3 -3v-538q0 -3 -3 -3h-93q-3 0 -3 3v227h-154v-227q0 -3 -2 -3h-94zM177 598h-66q-1 2 0 3q3 8 32 57t32 57l6 3h74q4 0 6 -3l64 -114q1 -3 0 -3h-66q-4 0 -5 4l-35 58h-2q-34 -57 -35 -58 q-3 -4 -5 -4z" />
<glyph horiz-adv-x="184" d="M45 0q-2 0 -2 3v538q0 3 2 3h94q2 0 2 -3v-538q0 -3 -2 -3h-94zM-6 615q-3 0 -3 4v49q0 7 5 13q28 28 52 28q20 0 48 -15t43 -15q16 0 32 14t18 14q3 0 3 -4v-49q0 -8 -5 -14q-24 -29 -53 -29q-20 0 -47.5 16t-41.5 16q-17 0 -34 -14z" />
<glyph horiz-adv-x="184" d="M45 0q-2 0 -2 3v538q0 3 2 3h94q2 0 2 -3v-538q0 -3 -2 -3h-94zM192 626h-199q-3 0 -3 3v66q0 3 3 3h199q2 0 2 -3v-66q0 -3 -2 -3z" />
<glyph horiz-adv-x="184" d="M45 0q-2 0 -2 3v538q0 3 2 3h94q2 0 2 -3v-538q0 -3 -2 -3h-3q-55 -40 -55 -64q0 -16 13 -16q10 0 18 8q4 2 6 -1q1 -2 11.5 -22t11.5 -22q2 -3 -1 -7q-23 -23 -62 -23q-31 0 -49 14t-18 53q0 46 39 80h-5z" />
<glyph horiz-adv-x="184" d="M45 0q-2 0 -2 3v538q0 3 2 3h94q2 0 2 -3v-538q0 -3 -2 -3h-94zM49 611q-2 0 -2 2v85q0 3 2 3h86q3 0 3 -3v-85q0 -2 -4 -2h-85z" />
<glyph horiz-adv-x="340" d="M137 -6q-76 0 -116 20q-2 1 -1 4l23 77q1 2 4 1l5 -1q6 -1 14 -2t18.5 -2.5t24 -2.5t25.5 -1q31 0 49 13t18 54v387q0 3 3 3h93q2 0 2 -3v-394q0 -42 -10.5 -71.5t-25 -45t-38.5 -24t-42.5 -10.5t-45.5 -2zM208 598h-66q-1 2 0 3q2 8 32 57t32 57l6 3h74q4 0 6 -3 l64 -114q2 -3 0 -3h-66q-4 0 -5 4l-35 58h-2q-34 -57 -35 -58q-3 -4 -5 -4z" />
<glyph horiz-adv-x="357" d="M43 0v541q0 3 2 3h94q2 0 2 -3v-452h199q3 0 3 -4v-82q0 -3 -3 -3h-297zM179 601q0 -4 -3 -4h-66q-3 0 -1 4l52 114q1 3 4 3h80q3 0 1 -3z" />
<glyph horiz-adv-x="446" d="M43 0q-3 0 -3 3v538q0 3 3 3h106q3 0 4 -3l152 -362h8v362q0 3 3 3h91q2 0 2 -3v-538q0 -3 -2 -3h-107q-2 0 -4 3l-152 363h-8v-363q0 -3 -2 -3h-91zM224 601q0 -4 -3 -4h-66q-3 0 -1 4l52 114q2 3 4 3h80q2 0 1 -3z" />
<glyph horiz-adv-x="446" d="M43 0q-3 0 -3 3v538q0 3 3 3h106q3 0 4 -3l152 -362h8v362q0 3 3 3h91q2 0 2 -3v-538q0 -3 -2 -3h-107q-2 0 -4 3l-152 363h-8v-363q0 -3 -2 -3h-91zM264 715h68q3 0 1 -3l-74 -114q-3 -3 -5 -3h-61q-5 0 -6 3q-3 8 -37.5 57.5t-36.5 56.5q-1 3 1 3h68q2 0 4 -3l36 -58h3 q33 56 35 58q3 3 4 3z" />
<glyph horiz-adv-x="414" d="M206 87q41 0 59.5 21.5t18.5 94.5v140q0 50 -11 75.5t-25.5 31.5t-41.5 6q-40 0 -58.5 -21t-18.5 -92v-140q0 -74 18.5 -95t58.5 -21zM206 -5q-30 0 -50.5 2.5t-47 14t-42 31.5t-26.5 59t-11 94v156q0 53 11 90.5t26.5 57.5t41.5 31.5t47 14t51 2.5t50 -2.5t46 -13.5 t42 -30.5t27.5 -57.5t11.5 -92v-156q0 -56 -11.5 -95.5t-27 -59.5t-42 -31t-46 -13t-50.5 -2zM307 626h-199q-3 0 -3 3v66q0 3 3 3h199q2 0 2 -3v-66q0 -3 -2 -3z" />
<glyph horiz-adv-x="414" d="M206 87q41 0 59.5 21.5t18.5 94.5v140q0 50 -11 75.5t-25.5 31.5t-41.5 6q-40 0 -58.5 -21t-18.5 -92v-140q0 -74 18.5 -95t58.5 -21zM206 -5q-30 0 -50.5 2.5t-47 14t-42 31.5t-26.5 59t-11 94v156q0 53 11 90.5t26.5 57.5t41.5 31.5t47 14t51 2.5t50 -2.5t46 -13.5 t42 -30.5t27.5 -57.5t11.5 -92v-156q0 -56 -11.5 -95.5t-27 -59.5t-42 -31t-46 -13t-50.5 -2zM207 599q-101 0 -101 103q0 5 5 5h40q5 0 7 -5q7 -25 16.5 -32.5t32.5 -7.5q21 0 31 8.5t17 31.5q1 5 8 5h39q5 0 5 -5q-5 -103 -100 -103z" />
<glyph horiz-adv-x="414" d="M206 -5q-30 0 -50.5 2.5t-47 14t-42 31.5t-26.5 59t-11 94v156q0 53 11 90.5t26.5 57.5t41.5 31.5t47 14t51 2.5t50 -2.5t46 -13.5t42 -30.5t27.5 -57.5t11.5 -92v-156q0 -56 -11.5 -95.5t-27 -59.5t-42 -31t-46 -13t-50.5 -2zM206 87q41 0 59.5 21.5t18.5 94.5v140 q0 50 -11 75.5t-25.5 31.5t-41.5 6q-40 0 -58.5 -21t-18.5 -92v-140q0 -74 18.5 -95t58.5 -21zM169 601q-1 -3 -4 -3h-66q-3 0 -1 3l51 114q1 3 4 3h81q2 0 1 -3l-33 -56q-32 -56 -33 -58zM282 601q-2 -3 -4 -3h-66q-1 0 -1 3l52 114q1 3 4 3h80q3 0 2 -3q-1 -1 -33.5 -56.5 t-33.5 -57.5z" />
<glyph horiz-adv-x="416" d="M138 0h-93q-2 0 -2 3v541h179q160 0 160 -154v-42q0 -105 -68 -134l81 -211q1 -3 -2 -3h-103q-2 0 -4 3l-67 192h-78v-192q0 -3 -3 -3zM141 284h76q67 0 67 68v35q0 68 -67 68h-76v-171zM209 601q0 -4 -3 -4h-66q-3 0 -1 4l52 114q1 3 4 3h80q3 0 1 -3z" />
<glyph horiz-adv-x="416" d="M141 284h76q67 0 67 68v35q0 68 -67 68h-76v-171zM138 0h-93q-2 0 -2 3v541h179q160 0 160 -154v-42q0 -105 -68 -134l81 -211q1 -3 -2 -3h-103q-2 0 -4 3l-67 192h-78v-192q0 -3 -3 -3zM235 715h68q3 0 1 -3l-74 -114q-3 -3 -5 -3h-61q-4 0 -6 3q-3 8 -37.5 57.5 t-36.5 56.5q-2 3 1 3h68q3 0 4 -3l36 -58h3q33 56 35 58q3 3 4 3z" />
<glyph horiz-adv-x="400" d="M198 -4q-100 0 -162 31q-4 1 -2 5q0 1 13 38.5t14 38.5q0 4 4 2l7 -3q7 -2 19.5 -5.5t28.5 -7t37.5 -6t42.5 -2.5q36 0 55.5 10t19.5 42v35q0 26 -20.5 39t-64.5 18q-85 9 -118.5 38.5t-33.5 97.5v59q0 123 162 123q43 0 79.5 -7t50.5 -12.5t16 -7.5q3 -2 2 -4 q0 -3 -24 -75q-1 -2 -3 -2q-3 1 -18 5t-44.5 8.5t-57.5 4.5q-18 0 -30 -2.5t-22 -13.5t-10 -31v-33q0 -26 16.5 -38.5t64.5 -18.5q86 -11 121 -40.5t35 -97.5v-59q0 -42 -16 -69.5t-45 -39.5t-55 -16t-62 -4zM213 601q0 -4 -3 -4h-66q-3 0 -1 4l52 114q1 3 4 3h80q3 0 1 -3z " />
<glyph horiz-adv-x="400" d="M198 -4q-100 0 -162 31q-4 1 -2 5q0 1 13 38.5t14 38.5q0 4 4 2l7 -3q7 -2 19.5 -5.5t28.5 -7t37.5 -6t42.5 -2.5q36 0 55.5 10t19.5 42v35q0 26 -20.5 39t-64.5 18q-85 9 -118.5 38.5t-33.5 97.5v59q0 123 162 123q43 0 79.5 -7t50.5 -12.5t16 -7.5q3 -2 2 -4 q0 -3 -24 -75q-1 -2 -3 -2q-3 1 -18 5t-44.5 8.5t-57.5 4.5q-18 0 -30 -2.5t-22 -13.5t-10 -31v-33q0 -26 16.5 -38.5t64.5 -18.5q86 -11 121 -40.5t35 -97.5v-59q0 -42 -16 -69.5t-45 -39.5t-55 -16t-62 -4zM159 598h-66q-1 2 0 3q3 8 32 57t32 57l6 3h74q4 0 6 -3l64 -114 q1 -3 0 -3h-66q-4 0 -5 4l-35 58h-2q-34 -57 -35 -58q-3 -4 -5 -4z" />
<glyph horiz-adv-x="370" d="M138 0q-3 0 -3 3v451h-123q-2 0 -2 2v85q0 3 2 3h345q3 0 3 -3v-85q0 -2 -3 -2h-123v-451q0 -3 -3 -3h-93zM226 715h68q3 0 1 -3l-74 -114q-3 -3 -5 -3h-61q-5 0 -6 3q-3 8 -37.5 57.5t-36.5 56.5q-1 3 1 3h68q2 0 4 -3l36 -58h3q33 56 35 58q3 3 4 3z" />
<glyph horiz-adv-x="427" d="M199 -4q-91 0 -125.5 49.5t-34.5 164.5v331q0 3 2 3h94q2 -2 2 -3v-323q0 -72 11.5 -101t51.5 -29h29q39 0 50 28t11 102v323q0 3 3 3h93q2 0 2 -3v-331q0 -113 -32 -163.5t-128 -50.5h-29zM116 615q-3 0 -3 4v49q0 7 5 13q28 28 52 28q20 0 48 -15t43 -15q16 0 32 14 t18 14q3 0 3 -4v-49q0 -8 -5 -14q-24 -29 -53 -29q-20 0 -47.5 16t-41.5 16q-17 0 -34 -14z" />
<glyph horiz-adv-x="427" d="M199 -4q-91 0 -125.5 49.5t-34.5 164.5v331q0 3 2 3h94q2 -2 2 -3v-323q0 -72 11.5 -101t51.5 -29h29q39 0 50 28t11 102v323q0 3 3 3h93q2 0 2 -3v-331q0 -113 -32 -163.5t-128 -50.5h-29zM313 626h-199q-3 0 -3 3v66q0 3 3 3h199q2 0 2 -3v-66q0 -3 -2 -3z" />
<glyph horiz-adv-x="427" d="M199 -4q-91 0 -125.5 49.5t-34.5 164.5v331q0 3 2 3h94q2 -2 2 -3v-323q0 -72 11.5 -101t51.5 -29h29q39 0 50 28t11 102v323q0 3 3 3h93q2 0 2 -3v-331q0 -113 -32 -163.5t-128 -50.5h-29zM214 599q-101 0 -101 103q0 5 5 5h40q5 0 7 -5q7 -25 16.5 -32.5t32.5 -7.5 q21 0 31 8.5t17 31.5q1 5 8 5h39q5 0 5 -5q-5 -103 -100 -103z" />
<glyph horiz-adv-x="427" d="M199 -4q-91 0 -125.5 49.5t-34.5 164.5v331q0 3 2 3h94q2 -2 2 -3v-323q0 -72 11.5 -101t51.5 -29h29q39 0 50 28t11 102v323q0 3 3 3h93q2 0 2 -3v-331q0 -113 -32 -163.5t-128 -50.5h-29zM213 582q-32 0 -51.5 14t-19.5 58v18q0 42 20 56t54 14q14 0 24 -2t21.5 -8.5 t17.5 -21.5t6 -38v-18q0 -44 -19.5 -58t-52.5 -14zM213 623q15 0 23.5 7t8.5 28v9q0 20 -7.5 27t-22.5 7q-33 0 -33 -34v-9q0 -21 8 -28t23 -7z" />
<glyph horiz-adv-x="427" d="M199 -4q-91 0 -125.5 49.5t-34.5 164.5v331q0 3 2 3h94q2 -2 2 -3v-323q0 -72 11.5 -101t51.5 -29h29q39 0 50 28t11 102v323q0 3 3 3h93q2 0 2 -3v-331q0 -113 -32 -163.5t-128 -50.5h-29zM184 601q-2 -3 -4 -3h-66q-2 0 -1 3l51 114q2 3 4 3h81q3 0 1 -3l-32 -56 q-33 -56 -34 -58zM297 601q-1 -3 -4 -3h-66q-1 0 -1 3l52 114q2 3 4 3h80q4 0 2 -3q-1 -1 -33.5 -56.5t-33.5 -57.5z" />
<glyph horiz-adv-x="427" d="M201 -152q-31 0 -49 14t-18 53q0 47 41 82q-77 6 -106.5 55.5t-29.5 157.5v331q0 3 2 3h94q2 -2 2 -3v-323q0 -72 11.5 -101t51.5 -29h29q39 0 50 28t11 102v323q0 3 3 3h93q2 0 2 -3v-331q0 -51 -5 -85t-18 -63t-38 -44.5t-64 -19.5l-2 -2q-57 -41 -57 -65q0 -16 13 -16 q10 0 18 8q4 2 6 -1q0 -2 11.5 -22.5t11.5 -21.5q2 -3 -1 -7q-23 -23 -62 -23z" />
<glyph horiz-adv-x="593" d="M121 0q-3 0 -3 3l-108 538q-2 3 1 3h97q2 0 4 -3l67 -380h13q63 276 64 278q2 3 3 3h77q2 0 4 -3l62 -278h14q66 378 67 380q1 3 4 3h97q4 0 2 -3q-1 -2 -54.5 -268.5t-53.5 -269.5q-2 -3 -5 -3h-114q-4 0 -4 3l-53 271h-9q-52 -266 -52 -270q-3 -4 -5 -4h-115zM255 598 h-66q-1 2 0 3q3 8 32 57t32 57l6 3h74q4 0 6 -3l64 -114q1 -3 0 -3h-66q-4 0 -5 4l-35 58h-2q-34 -57 -35 -58q-3 -4 -5 -4z" />
<glyph horiz-adv-x="386" d="M147 0q-3 0 -3 3v209q-138 327 -139 329q-1 3 1 3h99q3 0 4 -3l83 -216h5q80 214 82 216q1 3 3 3h97q3 0 2 -3l-139 -329v-209q0 -3 -2 -3h-93zM152 598h-66q-1 2 0 3q2 8 31.5 57t32.5 57l6 3h74q4 0 6 -3l64 -114q2 -3 0 -3h-66q-4 0 -5 4l-35 58h-2q-34 -57 -35 -58 q-3 -4 -5 -4z" />
<glyph horiz-adv-x="370" d="M28 0q-2 0 -2 2v85q0 2 2 8l199 351v7h-191q-2 0 -2 4v83q0 4 2 4h303q3 0 3 -4v-83q0 -7 -2 -9l-198 -350v-8h197q3 0 3 -3v-84q0 -3 -2 -3h-312zM204 601q0 -4 -3 -4h-66q-3 0 -1 4l52 114q2 3 4 3h80q2 0 1 -3z" />
<glyph horiz-adv-x="370" d="M28 0q-2 0 -2 2v85q0 2 2 8l199 351v7h-191q-2 0 -2 4v83q0 4 2 4h303q3 0 3 -4v-83q0 -7 -2 -9l-198 -350v-8h197q3 0 3 -3v-84q0 -3 -2 -3h-312zM148 611q-2 0 -2 2v85q0 3 2 3h86q3 0 3 -3v-85q0 -2 -4 -2h-85z" />
<glyph horiz-adv-x="593" d="M121 0q-3 0 -3 3l-108 538q-2 3 1 3h97q2 0 4 -3l67 -380h13q63 276 64 278q2 3 3 3h77q2 0 4 -3l62 -278h14q66 378 67 380q1 3 4 3h97q4 0 2 -3q-1 -2 -54.5 -268.5t-53.5 -269.5q-2 -3 -5 -3h-114q-4 0 -4 3l-53 271h-9q-52 -266 -52 -270q-3 -4 -5 -4h-115zM288 601 l-66 114q-3 3 1 3h80q3 0 4 -3l51 -114q1 -4 -1 -4h-65q-2 0 -4 4z" />
<glyph horiz-adv-x="593" d="M121 0q-3 0 -3 3l-108 538q-2 3 1 3h97q2 0 4 -3l67 -380h13q63 276 64 278q2 3 3 3h77q2 0 4 -3l62 -278h14q66 378 67 380q1 3 4 3h97q4 0 2 -3q-1 -2 -54.5 -268.5t-53.5 -269.5q-2 -3 -5 -3h-114q-4 0 -4 3l-53 271h-9q-52 -266 -52 -270q-3 -4 -5 -4h-115zM309 601 q0 -4 -3 -4h-66q-3 0 -1 4l52 114q1 3 4 3h80q3 0 1 -3z" />
<glyph horiz-adv-x="593" d="M121 0q-3 0 -3 3l-108 538q-2 3 1 3h97q2 0 4 -3l67 -380h13q63 276 64 278q2 3 3 3h77q2 0 4 -3l62 -278h14q66 378 67 380q1 3 4 3h97q4 0 2 -3q-1 -2 -54.5 -268.5t-53.5 -269.5q-2 -3 -5 -3h-114q-4 0 -4 3l-53 271h-9q-52 -266 -52 -270q-3 -4 -5 -4h-115zM195 615 q-3 0 -3 3v80q0 3 3 3h69q3 0 3 -3v-80q0 -3 -3 -3h-69zM331 615q-4 0 -4 3v80q0 3 4 3h68q2 0 2 -3v-80q0 -3 -2 -3h-68z" />
<glyph horiz-adv-x="357" d="M43 0v541q0 3 2 3h94q2 0 2 -3v-452h199q3 0 3 -4v-82q0 -3 -3 -3h-297zM189 436q-5 -2 -5 4v180q0 4 3 4h84q3 0 3 -4v-116q0 -3 -3 -6z" />
<glyph horiz-adv-x="422" d="M45 0q-2 1 -2 3v538l2 3h94q2 0 2 -3v-224h26q119 221 121 224t4 3h103q3 0 1 -3l-149 -265q158 -271 159 -273q3 -3 -1 -3h-103q-3 0 -5 3l-124 226h-32v-226q0 -3 -2 -3h-94zM174 -216q-5 -2 -5 4v180q0 4 3 4h84q3 0 3 -4v-116q0 -3 -3 -6z" />
<glyph horiz-adv-x="357" d="M43 0v541q0 3 2 3h94q2 0 2 -3v-452h199q3 0 3 -4v-82q0 -3 -3 -3h-297zM157 -216q-5 -2 -5 4v180q0 4 3 4h84q3 0 3 -4v-116q0 -3 -3 -6z" />
<glyph horiz-adv-x="446" d="M43 0q-3 0 -3 3v538q0 3 3 3h106q3 0 4 -3l152 -362h8v362q0 3 3 3h91q2 0 2 -3v-538q0 -3 -2 -3h-107q-2 0 -4 3l-152 363h-8v-363q0 -3 -2 -3h-91zM194 -216q-5 -2 -5 4v180q0 4 3 4h84q3 0 3 -4v-116q0 -3 -3 -6z" />
<glyph horiz-adv-x="416" d="M138 0h-93q-2 0 -2 3v541h179q160 0 160 -154v-42q0 -105 -68 -134l81 -211q1 -3 -2 -3h-103q-2 0 -4 3l-67 192h-78v-192q0 -3 -3 -3zM141 284h76q67 0 67 68v35q0 68 -67 68h-76v-171zM175 -216q-5 -2 -5 4v180q0 4 3 4h84q3 0 3 -4v-116q0 -3 -3 -6z" />
<glyph horiz-adv-x="414" d="M211 -4q-29 0 -50.5 3t-48 14.5t-43 32t-28 59t-11.5 91.5v157q0 53 12.5 91.5t29.5 58t44.5 30.5t48 13t48.5 2q39 0 76 -6.5t51.5 -11.5t19.5 -7q4 -2 2 -5l-26 -73q-1 -2 -3 -1l-7 2l-20 2.5t-27 3.5t-33 3.5t-33 1.5q-18 0 -29.5 -2.5t-26 -12.5t-21.5 -35t-7 -64 v-140q0 -71 21 -93t61 -22q12 0 33 3t36 6l15 3v114h-63q-2 0 -2 4v78q0 3 2 3h146v-273q-115 -30 -167 -30zM179 -216q-5 -2 -5 4v180q0 4 3 4h84q3 0 3 -4v-116q0 -3 -3 -6z" />
<glyph horiz-adv-x="400" d="M198 -4q-100 0 -162 31q-4 1 -2 5q0 1 13 38.5t14 38.5q0 4 4 2l7 -3q7 -2 19.5 -5.5t28.5 -7t37.5 -6t42.5 -2.5q36 0 55.5 10t19.5 42v35q0 26 -20.5 39t-64.5 18q-85 9 -118.5 38.5t-33.5 97.5v59q0 123 162 123q43 0 79.5 -7t50.5 -12.5t16 -7.5q3 -2 2 -4 q0 -3 -24 -75q-1 -2 -3 -2q-3 1 -18 5t-44.5 8.5t-57.5 4.5q-18 0 -30 -2.5t-22 -13.5t-10 -31v-33q0 -26 16.5 -38.5t64.5 -18.5q86 -11 121 -40.5t35 -97.5v-59q0 -42 -16 -69.5t-45 -39.5t-55 -16t-62 -4zM171 -216q-5 -2 -5 4v180q0 4 3 4h84q3 0 3 -4v-116q0 -3 -3 -6z " />
<glyph horiz-adv-x="370" d="M138 0q-3 0 -3 3v451h-123q-2 0 -2 2v85q0 3 2 3h345q3 0 3 -3v-85q0 -2 -3 -2h-123v-451q0 -3 -3 -3h-93zM149 -216q-5 -2 -5 4v180q0 4 3 4h84q3 0 3 -4v-116q0 -3 -3 -6z" />
<glyph horiz-adv-x="400" d="M216 -126h-81l-1 3l10 24q9 24 21 53.5t18 41.5q-91 3 -147 31q-4 1 -2 5q0 1 13 38.5t14 38.5q0 4 4 2l7 -3q7 -2 19.5 -5.5t28.5 -7t37.5 -6t42.5 -2.5q36 0 55.5 10t19.5 42v35q0 26 -20.5 39t-64.5 18q-85 9 -118.5 38.5t-33.5 97.5v59q0 123 162 123q43 0 79.5 -7 t50.5 -12.5t16 -7.5q3 -2 2 -4q0 -3 -24 -75q-1 -2 -3 -2q-3 1 -18 5t-44.5 8.5t-57.5 4.5q-18 0 -30 -2.5t-22 -13.5t-10 -31v-33q0 -26 16.5 -38.5t64.5 -18.5q86 -11 121 -40.5t35 -97.5v-59q0 -110 -121 -126l-36 -122q-1 -3 -3 -3z" />
<glyph horiz-adv-x="325" d="M68 120q-2 2 0 5l49 52q3 3 4 0l137 -158q1 -1 0 -4q-6 -9 -50 -53q0 -4 -4 0z" />
<glyph horiz-adv-x="296" d="M167 339q-3 0 -2 3l28 74q1 3 4 3h56q3 0 2 -3q0 -1 -7 -19l-14 -36t-8 -19q-2 -3 -3 -3h-56zM43 -33q-1 0 -2 1t0 2l29 75q0 2 4 2h55q4 0 2 -2q-1 -3 -14.5 -38t-14.5 -37q-1 -3 -4 -3h-55z" />
<glyph horiz-adv-x="414" d="M248 470q-4 0 -2 3q1 3 23.5 51.5t23.5 49.5q1 3 4 3h76q1 0 0 -3t-22.5 -51.5t-22.5 -49.5q-3 -3 -5 -3h-75zM35 -32q-1 0 0 3l43 96q2 3 4 3h76q4 0 1 -3q-1 -1 -22 -48t-22 -48q-1 -3 -4 -3h-76z" />
<glyph horiz-adv-x="402" d="M200 87q38 0 53 21.5t15 95.5v140q0 71 -15 92.5t-53 21.5q-36 0 -51 -21.5t-15 -92.5v-140q0 -73 14.5 -95t51.5 -22zM200 -4q-38 0 -62 5t-50.5 23.5t-39.5 61t-13 110.5v158q0 52 9.5 89.5t24 57.5t38 31.5t44 14t49.5 2.5q30 0 49 -2t43.5 -13t39 -31t25 -57.5 t10.5 -91.5v-158q0 -69 -13.5 -112t-41 -61t-51 -22.5t-61.5 -4.5z" />
<glyph horiz-adv-x="355" d="M253 0h-90q-2 1 -2 3v432q-81 -68 -83 -69t-2 1q0 1 -11 41t-11 41q-1 2 2 5l103 88q2 2 4 2h90q2 0 2 -3v-539q0 -2 -2 -2z" />
<glyph horiz-adv-x="365" d="M321 0h-277q-2 0 -2 2v81q0 5 2 7q11 15 37.5 49.5t38 49.5t32 42.5t30 42.5t20.5 34.5t15.5 33.5t4.5 25v40q0 51 -59 51q-14 0 -29.5 -2t-28.5 -5t-24 -5.5t-18 -4.5l-7 -2q-4 0 -4 2q0 1 -8.5 37t-8.5 37q0 4 1 5q56 28 129 28q156 0 156 -128v-61q0 -32 -21.5 -77.5 t-43.5 -78.5t-73 -105v-8h138q3 0 3 -3v-84q0 -3 -3 -3z" />
<glyph horiz-adv-x="368" d="M43 20q-3 0 -1 4q0 1 7.5 37.5t7.5 37.5q0 2 4 2q1 -1 18 -4.5t45.5 -7.5t50.5 -4q60 0 60 51v35q0 64 -54 64h-57q-2 0 -2 3v79q0 3 2 3h57q19 0 32.5 14t13.5 40v35q0 51 -59 51q-22 0 -49 -4t-42 -8t-17 -5q-4 -2 -4 2q0 1 -7.5 37t-7.5 37q0 5 1 5q50 25 126 25 q31 0 54 -4t48.5 -15.5t39 -38t13.5 -67.5v-52q0 -24 -9.5 -45.5t-18.5 -31.5l-9 -10v-7q5 -3 12.5 -9t19.5 -31t12 -58v-59q0 -40 -13 -66.5t-37 -38.5t-48 -16t-56 -4q-37 0 -70.5 6t-47.5 12z" />
<glyph horiz-adv-x="368" d="M297 0h-83q-3 0 -3 3v85h-179q-2 0 -2 3v85q0 2 2 8l121 357q1 3 3 3h94q4 0 2 -3l-117 -355v-8h76v95q0 4 3 4h83q3 0 3 -4v-95h41q3 0 3 -3v-83q0 -4 -3 -4h-41v-85q0 -3 -3 -3z" />
<glyph horiz-adv-x="368" d="M177 -5q-85 0 -133 24q-1 1 -1 5l15 75q1 2 4 1l8 -2q7 -1 19 -3.5t26.5 -4.5t31 -3.5t29.5 -1.5q61 0 61 50v39q0 35 -16.5 50.5t-39.5 15.5h-124q-3 0 -3 3v294q0 7 6 7h254q3 0 3 -3v-79q0 -3 -3 -3h-174v-135h44q28 0 49 -4t46 -16t39 -41t14 -72v-71 q0 -34 -11 -58.5t-26 -37t-38.5 -19.5t-40 -8.5t-39.5 -1.5z" />
<glyph horiz-adv-x="371" d="M186 78q12 0 20 2.5t17 10t14 24.5t5 43v23q0 42 -12 57.5t-35 15.5q-11 0 -26.5 -4t-25.5 -8l-10 -3v-111q0 -26 15.5 -38t37.5 -12zM192 -4q-154 0 -154 130v284q0 44 17.5 74.5t45 43t48.5 17t41 4.5q73 0 129 -28q1 -1 1 -5q0 -3 -9 -37.5t-9 -35.5q0 -2 -3 -2l-7 2 q-7 2 -18 4.5t-24 5t-29 4.5t-30 2q-22 0 -40 -11.5t-18 -41.5v-84q56 15 81 15q24 0 41.5 -4t37.5 -17.5t30.5 -45.5t10.5 -81v-36q0 -52 -12.5 -86t-36 -48t-44 -18.5t-49.5 -4.5z" />
<glyph horiz-adv-x="357" d="M169 0h-95q-4 0 -2 3l143 445v8h-173q-2 0 -2 3v81q0 4 2 4h275q3 0 3 -3v-80q0 -3 -2 -9q-1 -2 -73 -225t-72 -224q-1 -3 -4 -3z" />
<glyph horiz-adv-x="369" d="M184 78q27 0 41.5 14.5t14.5 53.5v26q0 64 -55 64q-56 0 -56 -64v-26q0 -68 55 -68zM184 325q52 0 52 56v26q0 60 -51 60q-53 0 -53 -60v-26q0 -56 52 -56zM184 -5q-67 0 -108 29.5t-41 115.5v37q0 32 12 58t25 35l12 10v3q-5 3 -11.5 9.5t-18 30t-11.5 51.5v37 q0 45 12 74t35 42t44.5 17.5t51.5 4.5t51 -4.5t43 -17.5t33.5 -42t11.5 -74v-38q0 -27 -9.5 -49.5t-19.5 -31.5l-10 -9v-2q5 -3 13.5 -10t22 -34t13.5 -60v-37q0 -87 -40.5 -116t-110.5 -29z" />
<glyph horiz-adv-x="368" d="M186 466q-16 0 -26.5 -4t-20 -23t-9.5 -53v-32q0 -42 12 -57.5t35 -15.5q11 0 26 3.5t25 7.5l10 4v121q0 49 -52 49zM179 549q154 0 154 -130v-284q0 -44 -17.5 -74.5t-45 -43t-48 -17t-40.5 -4.5q-81 0 -131 25q-2 1 -2 5q17 68 19 72q0 2 3 2l7 -2q7 -1 18.5 -3.5 t24.5 -4.5t29.5 -3.5t29.5 -1.5q22 0 40 12t18 42v74q-56 -15 -81 -15q-24 0 -41 4t-37 17.5t-31 45.5t-11 81v45q0 42 9.5 73t22.5 47t34 25t37.5 11t38.5 2z" />
<glyph horiz-adv-x="802" d="M202 -4q-100 0 -162 31q-4 1 -2 5q0 1 13 38.5t14 38.5q0 4 4 2l7 -3q7 -2 19.5 -5.5t28.5 -7t37.5 -6t42.5 -2.5q36 0 55.5 10t19.5 42v35q0 26 -20.5 39t-64.5 18q-85 9 -118.5 38.5t-33.5 97.5v59q0 123 162 123q43 0 79.5 -7t50.5 -12.5t16 -7.5q3 -2 2 -4 q0 -3 -24 -75q-1 -2 -3 -2q-3 1 -18 5t-44.5 8.5t-57.5 4.5q-18 0 -30 -2.5t-22 -13.5t-10 -31v-33q0 -26 16.5 -38.5t64.5 -18.5q86 -11 121 -40.5t35 -97.5v-59q0 -42 -16 -69.5t-45 -39.5t-55 -16t-62 -4zM585 -4q-100 0 -162 31q-4 1 -2 5q0 1 13 38.5t14 38.5q0 4 4 2 l7 -3q7 -2 19.5 -5.5t28.5 -7t37.5 -6t42.5 -2.5q36 0 55.5 10t19.5 42v35q0 26 -20.5 39t-64.5 18q-85 9 -118.5 38.5t-33.5 97.5v59q0 123 162 123q43 0 79.5 -7t50.5 -12.5t16 -7.5q3 -2 2 -4q0 -3 -24 -75q-1 -2 -3 -2q-3 1 -18 5t-44.5 8.5t-57.5 4.5q-18 0 -30 -2.5 t-22 -13.5t-10 -31v-33q0 -26 16.5 -38.5t64.5 -18.5q86 -11 121 -40.5t35 -97.5v-59q0 -42 -16 -69.5t-45 -39.5t-55 -16t-62 -4z" />
<glyph horiz-adv-x="368" d="M148 56q-4 0 -4 3v120h-108q-2 0 -2 4v75q0 3 2 3h108v122q0 3 4 3h72q2 0 2 -3v-122h109q2 0 2 -3v-75q0 -4 -2 -4h-109v-120q0 -3 -2 -3h-72z" />
<glyph horiz-adv-x="163" d="M19 -86q-4 0 -2 4q0 2 21.5 91.5t22.5 90.5q1 3 3 3h80q2 0 1 -3q-1 -2 -30.5 -91.5t-29.5 -90.5q-2 -4 -4 -4h-62z" />
<glyph horiz-adv-x="260" d="M29 179q-2 0 -2 3v75q0 4 2 4h202q2 0 2 -4v-75q0 -3 -2 -3h-202z" />
<glyph horiz-adv-x="168" d="M40 0q-2 0 -2 3v98q0 4 2 4h87q3 0 3 -4v-98q0 -3 -3 -3h-87z" />
<glyph horiz-adv-x="290" d="M38 -3q-3 0 -2 2q0 1 65 273.5t65 273.5q2 3 3 3h86q3 0 2 -3q-1 -1 -65 -273.5t-65 -273.5q0 -2 -3 -2h-86z" />
<glyph horiz-adv-x="368" d="M36 263q-2 0 -2 3v77q0 3 2 3h295q2 0 2 -3v-77q0 -3 -2 -3h-295zM36 96q-2 0 -2 4v76q0 3 2 3h295q2 0 2 -3v-76q0 -4 -2 -4h-295z" />
<glyph horiz-adv-x="203" d="M144 0h-86q-3 0 -3 3v88q0 3 3 3h86q3 0 3 -3v-88q0 -3 -3 -3zM140 159h-78q-2 0 -2 3v379q0 3 2 3h78q3 0 3 -3v-379q0 -3 -3 -3z" />
<glyph horiz-adv-x="315" d="M196 0h-85q-3 0 -3 3v89q0 3 3 3h85q4 0 4 -3v-89q0 -3 -4 -3zM197 154h-85q-3 0 -3 4v31q0 39 21.5 76.5t43 67t21.5 48.5v30q0 51 -46 51q-20 0 -43.5 -5t-35.5 -8.5t-15 -5.5q-4 0 -3 2q-7 18 -18 72q0 5 1 5l3 2q4 1 9.5 3.5t13 5t17.5 5.5t21 5t24.5 3.5t27.5 1.5 q27 0 47 -4t42.5 -16t35 -39t12.5 -68v-40q0 -32 -44 -97t-44 -96v-30q0 -4 -3 -4z" />
<glyph horiz-adv-x="176" d="M9 -86q-4 0 -2 4q0 2 21.5 91.5t22.5 90.5q1 3 3 3h80q2 0 1 -3l-61 -182q0 -4 -3 -4h-62zM46 282q-3 0 -3 3v98q0 3 3 3h86q3 0 3 -3v-98q0 -3 -3 -3h-86z" />
<glyph horiz-adv-x="255" d="M100 544q4 0 4 -4v-151q0 -3 -3 -3h-70q-2 1 -2 3v150q0 5 3 5h68zM221 544q4 0 4 -4v-151q0 -3 -2 -3h-69q-3 0 -3 3v150q0 5 3 5h67z" />
<glyph horiz-adv-x="385" d="M152 228h74l9 98h-74zM125 0h-68q-3 0 -3 3l16 154h-50q-2 1 -2 4v64l2 3h59l9 98h-54q-2 0 -2 3v64q0 3 2 3h61q14 142 14 145t3 3h69q3 0 3 -3l-15 -145h75q13 143 13 145q0 3 4 3h69q1 0 2 -1t0 -2l-14 -145h47q3 0 3 -3v-64q0 -3 -3 -3h-56l-9 -98h52q3 0 3 -3v-64 q0 -4 -3 -4h-60q-15 -152 -15 -154q0 -3 -3 -3h-69q-2 0 -2 3l16 154h-75q-15 -152 -15 -154q0 -3 -4 -3z" />
<glyph horiz-adv-x="400" d="M169 -63q-3 0 -3 2v56q-76 3 -132 31q-3 2 -2 5q1 2 14 39t13 38q1 2 4 2l7 -2q7 -3 19.5 -6.5t28 -7t37 -6t42.5 -2.5q36 0 56 10t20 42v35q0 24 -18.5 37.5t-67.5 19.5q-82 10 -116.5 36.5t-34.5 99.5v59q0 112 130 121v58q0 3 3 3h58q3 0 3 -3v-58q73 -4 115 -25 q2 -1 1 -4q0 -1 -11.5 -37t-12.5 -38q-2 -3 -4 -2q-3 1 -17.5 5t-44 8.5t-57.5 4.5q-33 0 -47.5 -10t-14.5 -37v-33q0 -27 16.5 -38.5t64.5 -18.5q80 -11 118 -39t38 -99v-59q0 -40 -14.5 -67t-40.5 -39t-44.5 -16.5t-44.5 -6.5v-56q0 -2 -3 -2h-58z" />
<glyph horiz-adv-x="537" d="M178 -5h-76q-2 0 0 3q10 37 125.5 273.5t125.5 274.5q3 3 5 3h76q2 0 1 -4l-252 -546q-1 -4 -5 -4zM135 295q-39 0 -64.5 19t-25.5 72v74q0 89 93 89q38 0 63 -18t25 -71v-74q0 -54 -25.5 -72.5t-65.5 -18.5zM401 -5q-40 0 -65 19t-25 73v73q0 89 92 89q39 0 63.5 -18 t24.5 -71v-73q0 -55 -25 -73.5t-65 -18.5zM401 58q16 0 24 7.5t8 30.5v53q0 22 -7.5 29.5t-22.5 7.5q-17 0 -25.5 -7.5t-8.5 -29.5v-53q0 -23 8.5 -30.5t23.5 -7.5zM135 359q11 0 17 2t10.5 10.5t4.5 24.5v53q0 22 -7.5 29.5t-22.5 7.5q-17 0 -25.5 -7.5t-8.5 -29.5v-53 q0 -23 8 -30t24 -7z" />
<glyph horiz-adv-x="402" d="M199 -5q-31 0 -54 4.5t-49.5 17.5t-41 44.5t-14.5 78.5v31q0 33 11 67.5t22 51.5l11 18q-21 38 -21 100v23q0 118 127 118q24 0 41.5 -4t38 -16t31.5 -41t11 -74q0 -3 -3 -3h-62q-2 1 -2 3q0 43 -15 57t-39 14q-20 0 -37 -12.5t-17 -46.5v-15q0 -13 2.5 -25.5t10.5 -28.5 t13 -25t18 -31t19 -32l77 -138q7 15 7 21v90q0 3 2 3h62q3 0 3 -3v-104q0 -13 -6.5 -31.5t-12.5 -30.5l-7 -11q42 -60 43 -62q2 -3 -1 -3h-82q-2 0 -5 3l-7 13q-28 -21 -74 -21zM199 66q9 0 16.5 2.5t10.5 5.5l3 2l-96 163q-15 -24 -15 -79v-13q0 -49 20 -65t61 -16z" />
<glyph horiz-adv-x="147" d="M106 544q5 0 5 -4v-151q0 -3 -3 -3h-70q-2 0 -2 3v150q0 5 2 5h68z" />
<glyph horiz-adv-x="154" d="M43 -56q-4 -4 -4 2v150q0 3 2 3h72q2 0 2 -3v-95q0 -3 -2 -5z" />
<glyph horiz-adv-x="277" d="M43 -56q-4 -4 -4 2v150q0 3 2 3h72q2 0 2 -3v-95q0 -3 -2 -5zM166 -56q-4 -4 -4 2v150q0 3 2 3h71q3 0 3 -3v-95q0 -2 -3 -5z" />
<glyph horiz-adv-x="394" d="M244 -5q-28 0 -49.5 3t-48 15.5t-44 33t-29.5 58.5t-12 90h-34q-2 0 -2 3v50q0 3 2 3h34v45h-34q-2 1 -2 2v51q0 3 2 3h34q0 60 15 100.5t42.5 60.5t57.5 27.5t70 7.5q38 0 69 -6t42 -11t14 -8q2 -1 1 -4l-25 -74q-2 -3 -4 -2t-14.5 4t-36.5 6.5t-46 3.5q-41 0 -60 -21.5 t-25 -83.5h105q3 0 3 -3v-51q0 -2 -3 -2h-105v-45h105q3 0 3 -3v-50q0 -3 -3 -3h-105q4 -64 23 -84.5t60 -20.5q25 0 51 4.5t38.5 8.5t15.5 5q1 1 3 -1l27 -76q1 -3 -1 -5l-6 -3q-6 -3 -17 -8t-26 -9.5t-37.5 -7.5t-47.5 -3z" />
<glyph horiz-adv-x="356" d="M167 -79q-3 0 -3 3v73q-22 2 -38 6.5t-36.5 18.5t-32 47.5t-11.5 83.5v83q0 48 12 80.5t32.5 46.5t37 19.5t36.5 6.5v73q0 3 3 3h52q2 0 2 -3v-72q52 -3 82 -18q3 -2 2 -4q0 -1 -10.5 -32t-11.5 -32q-1 -3 -3 -3l-4 1q-4 0 -10.5 1t-15.5 2.5t-22 2t-26 0.5 q-29 0 -45 -16t-16 -64v-68q0 -50 15.5 -66t45.5 -16q21 0 41 2.5t29.5 4.5t10.5 3q4 0 4 -3q1 -1 11.5 -33t10.5 -33q2 -3 -2 -5l-4 -2q-4 -1 -11 -3.5t-16.5 -5t-24 -4.5t-30.5 -2v-73q0 -3 -2 -3h-52z" />
<glyph horiz-adv-x="606" d="M300 115q24 0 35 9.5t11 40.5v108q0 34 -49 34q-21 0 -31 -15t-10 -55v-50q0 -72 44 -72zM300 -117q-270 0 -270 328q0 327 273 327q46 0 82 -6.5t74 -26t62.5 -53t40.5 -90.5t16 -135q0 -180 -122 -180q-46 0 -73 27q-31 -27 -85 -27q-55 0 -87 28t-32 108v58 q0 69 27.5 101.5t73.5 32.5q24 0 40.5 -4.5t21.5 -9.5l4 -5v13q0 2 2 2h71q2 0 2 -2v-200q0 -52 39 -52q14 0 22 5.5t15.5 31.5t7.5 75q0 73 -13.5 121.5t-41 74t-62 35.5t-85.5 10q-99 0 -148.5 -57.5t-49.5 -199.5q0 -254 195 -254q33 0 71 5t58 9.5t22 5.5q3 1 3 -1 l16 -62q0 -3 -2 -4q-5 -3 -22 -8.5t-59.5 -13t-86.5 -7.5z" />
<glyph horiz-adv-x="210" d="M103 -75q-2 0 -6 3v1q-41 55 -51 241q-2 43 -2 92q0 77 5.5 139.5t12.5 97t15.5 58.5t13 31.5t6.5 8.5q4 3 5 3h72q2 0 0 -3q-48 -96 -48 -335q0 -115 12.5 -198.5t21.5 -107t14 -28.5q3 -3 0 -3h-71z" />
<glyph horiz-adv-x="210" d="M108 -75h-71q-3 0 0 3q5 5 14 28.5t21.5 107t12.5 198.5q0 114 -13 198.5t-21 106t-14 30.5q-1 3 1 3h71q2 0 5 -3t7 -9.5t13 -31t15.5 -58.5t12 -96.5t5.5 -139.5t-5.5 -139.5t-12.5 -96.5t-15.5 -58t-13.5 -31.5t-7 -8.5q-3 -3 -5 -3z" />
<glyph horiz-adv-x="259" d="M106 299q-2 0 -2 3v71q-48 -35 -50 -36t-3 2l-23 43q-2 2 1 4l48 36l-48 35q-3 2 -1 4q1 2 11.5 22t11.5 21q1 2 3 2l50 -37v72q0 3 2 3h46q4 0 4 -3v-72q47 36 49 37q3 2 4 -2l5 -10q6 -11 12 -21.5t6 -11.5q2 -2 -1 -4l-49 -35q47 -35 49 -36q1 -1 0 -4 q-1 -2 -11.5 -22t-11.5 -21q-1 -3 -3 -2l-49 36v-71q0 -3 -3 -3h-47z" />
<glyph horiz-adv-x="203" d="M43 -75v675h137q2 0 2 -3v-70q0 -3 -2 -3h-58v-523h58q2 0 2 -4v-69q0 -3 -2 -3h-137z" />
<glyph horiz-adv-x="203" d="M160 -75h-137q-3 0 -3 3v69q0 4 3 4h58v523h-58q-3 0 -3 3v70q0 3 3 3h137v-675z" />
<glyph horiz-adv-x="283" d="M27 179q-2 0 -2 3v75q0 4 2 4h229q2 0 2 -4v-75q0 -3 -2 -3h-229z" />
<glyph horiz-adv-x="325" d="M15 179q-3 0 -3 3v75q0 4 3 4h294q3 0 3 -4v-75q0 -3 -3 -3h-294z" />
<glyph horiz-adv-x="290" d="M38 -3q-3 0 -2 2q0 1 65 273.5t65 273.5q2 3 3 3h86q3 0 2 -3q-1 -1 -65 -273.5t-65 -273.5q0 -2 -3 -2h-86z" />
<glyph horiz-adv-x="260" d="M29 179q-2 0 -2 3v75q0 4 2 4h202q2 0 2 -4v-75q0 -3 -2 -3h-202z" />
<glyph horiz-adv-x="368" d="M36 181q-2 0 -2 2v74q0 3 2 3h295q2 0 2 -3v-74q0 -2 -2 -2h-295zM142 27q-2 0 -2 3v92q0 4 2 4h83q2 0 2 -4v-92q0 -3 -2 -3h-83zM142 316q-2 0 -2 2v92q0 4 2 4h83q2 0 2 -4v-92q0 -2 -2 -2h-83z" />
<glyph horiz-adv-x="369" d="M62 0q-2 0 -2 2v215h-23q-2 0 -2 3v63q0 3 2 3h23v134q0 128 150 128q69 0 121 -26q3 -2 2 -4q0 -1 -9 -38l-9 -37q-1 -2 -3 -2l-16 5q-15 4 -39.5 8t-45.5 4q-25 0 -38.5 -10.5t-13.5 -40.5v-121h105q2 0 2 -3v-63q0 -3 -2 -3h-105v-127h168q3 0 3 -3v-84q0 -3 -3 -3 h-265z" />
<glyph horiz-adv-x="353" d="M37 17q-1 1 -1 5q0 3 10 31.5t10 31.5t5 3q1 -1 16.5 -4.5t43 -7t52.5 -3.5q27 0 38.5 7t11.5 25v16q0 17 -13.5 24t-50.5 13q-23 3 -39 7.5t-36.5 14.5t-31.5 28.5t-11 45.5v40q0 38 21 59q-21 21 -21 58v39q0 55 34.5 76.5t96.5 21.5q81 0 121 -20q2 -1 2 -3 q-1 -2 -10 -32t-9 -31q0 -2 -4 -2l-6 1q-6 1 -15.5 3t-21.5 4t-27 3t-29 1q-43 0 -43 -29v-17q0 -15 17 -22.5t50 -11.5q53 -7 84 -28t31 -68v-40q0 -37 -19 -61q19 -19 19 -55v-41q0 -35 -12 -57t-34.5 -31.5t-43 -12.5t-49.5 -3q-37 0 -71.5 5.5t-47.5 10t-17 6.5z M219 227q12 8 12 34v16q0 22 -73 40l-12 2q-7 -1 -14 -9.5t-7 -23.5v-17q0 -26 71 -36q10 -2 23 -6z" />
<glyph horiz-adv-x="386" d="M147 0q-3 0 -3 3v106h-82q-3 0 -3 3v54q0 3 3 3h82v39h-82q-3 0 -3 3v54q0 3 3 3h56q-112 271 -113 273q-1 3 1 3h100q2 -1 3 -3l84 -217h3q81 214 82 217l3 3h98q3 0 2 -3l-113 -273h54q3 0 3 -3v-54q0 -3 -3 -3h-80v-39h80q3 0 3 -3v-54q0 -3 -3 -3h-80v-106 q0 -3 -2 -3h-93z" />
<glyph horiz-adv-x="236" d="M168 -73q-44 0 -64 23.5t-20 77.5v125q0 36 -10 54t-38 18q-3 0 -3 3v71q0 3 3 3q28 0 38 18t10 54v125q0 54 20 77.5t64 23.5h45q2 0 2 -3v-68q0 -4 -2 -4h-21q-29 0 -29 -36v-126q0 -48 -10 -67.5t-34 -30.5v-3q24 -12 34 -31t10 -67v-126q0 -36 29 -36h21q2 0 2 -4 v-68q0 -3 -2 -3h-45z" />
<glyph horiz-adv-x="209" d="M68 -75q-2 0 -2 3v669q0 3 2 3h73q2 0 2 -3v-669q0 -3 -2 -3h-73z" />
<glyph horiz-adv-x="236" d="M70 -73h-46q-2 0 -2 3v68l2 4h21q29 0 29 36v126q0 48 10 67t34 31v3q-23 11 -33.5 30.5t-10.5 67.5v126q0 36 -28 36h-22q-2 0 -2 4v68q0 3 2 3h46q43 0 63 -24t20 -77v-125q0 -36 10 -54t38 -18q2 0 2 -3v-71q0 -3 -2 -3q-28 0 -38 -18t-10 -54v-125q0 -54 -20 -77.5 t-63 -23.5z" />
<glyph horiz-adv-x="209" d="M67 -75q-2 0 -2 3v286q0 3 2 3h73q2 0 2 -3v-286q0 -3 -2 -3h-73zM67 311q-2 0 -2 3v283q0 3 2 3h73q2 0 2 -3v-283q0 -3 -2 -3h-73z" />
<glyph horiz-adv-x="369" d="M95 60q0 1 -12.5 13.5t-24.5 25.5l-12 13v5l85 103q-84 104 -85 105q-2 2 0 4q3 6 49 52q0 1 1 1t2 -1l85 -104q84 102 86 104q3 2 4 0q2 -4 50 -52q1 -1 0 -4l-86 -105q85 -102 86 -103q3 -3 0 -5q-50 -50 -51 -52q-1 -1 -3 0l-86 104q-83 -102 -85 -104q-2 -1 -3 0z " />
<glyph horiz-adv-x="368" d="M331 49l-295 133q-2 1 -2 4v67q0 3 2 4l295 134q3 0 3 -2v-82q0 -2 -3 -5l-175 -81v-3q174 -80 175 -81q3 -1 3 -4v-82q0 -3 -3 -2z" />
<glyph horiz-adv-x="368" d="M36 49q-1 -1 -1.5 0t-0.5 2v82q0 3 2 4l175 81v3q-173 80 -175 81q-2 4 -2 5v82q0 2 2 2l296 -134q2 -1 2 -4v-67q0 -3 -2 -4z" />
<glyph horiz-adv-x="289" d="M255 -3h-86q-2 0 -3 2q0 2 -64.5 274t-65.5 273q-2 3 1 3h87q3 0 3 -3q1 -1 65 -273.5t65 -273.5q0 -2 -2 -2z" />
<glyph horiz-adv-x="369" d="M32 209l114 332q0 3 3 3h71q2 0 3 -3q1 -2 57 -166.5t56 -165.5q2 -3 -1 -3h-82q-1 0 -3 3l-65 208h-2q-65 -206 -66 -208q-1 -3 -4 -3h-80q-3 0 -1 3z" />
<glyph horiz-adv-x="351" d="M2 -121q-2 0 -2 3v66q0 3 2 3h346q3 0 3 -3v-66q0 -3 -3 -3h-346z" />
<glyph horiz-adv-x="369" d="M47 228q0 7 5 13q4 5 11.5 12t25 15.5t34.5 8.5q27 0 66.5 -23.5t59.5 -23.5t44 18l24 19q4 0 4 -5v-48q0 -7 -5 -12q-32 -39 -72 -39q-26 0 -64.5 24t-59.5 24q-20 0 -46 -18l-25 -18q-2 0 -2 5v48z" />
<glyph horiz-adv-x="276" d="M138 166q-32 0 -52 14.5t-20 57.5v19q0 70 74 70q15 0 25 -2t21.5 -8.5t17.5 -21.5t6 -38v-19q0 -44 -19.5 -58t-52.5 -14z" />
<glyph horiz-adv-x="294" d="M146 547q54 0 92 -45t38 -109t-38 -109.5t-92 -45.5q-53 0 -90.5 45.5t-37.5 109.5t37.5 109t90.5 45zM146 269q43 0 72.5 36t29.5 88q0 51 -29.5 87.5t-72.5 36.5q-42 0 -71.5 -36.5t-29.5 -87.5q0 -52 29.5 -88t71.5 -36zM127 309h-30q-1 0 -1 1v170h54q50 0 50 -50 v-12q0 -32 -20 -44l23 -64v-1h-34q-1 0 -1 1l-20 58h-20v-58q0 -1 -1 -1zM128 398h21q18 0 18 20v11q0 21 -18 21h-21v-52z" />
<glyph horiz-adv-x="533" d="M266 548q95 0 162.5 -81t67.5 -196q0 -114 -67.5 -195t-162.5 -81q-96 0 -163 81t-67 195q0 116 67 196.5t163 80.5zM266 46q76 0 129.5 66t53.5 159q0 94 -53.5 160t-129.5 66t-130 -66t-54 -160q0 -93 54 -159t130 -66zM274 120q-55 0 -85.5 25t-30.5 97v62 q0 120 116 120q50 0 78 -14q2 -2 1 -3q0 -1 -7 -25t-8 -25q1 -1 0 -1h-2h-3q-3 1 -8.5 2t-12.5 2t-16.5 1.5t-18.5 0.5q-48 0 -48 -63v-52q0 -41 12.5 -52.5t35.5 -11.5q10 0 20 0.5t17 1.5t12.5 2.5t9.5 2.5h3l2 -1q0 -1 7 -26l8 -25q2 -3 -2 -3q-1 -1 -8 -4t-27 -7t-45 -4 z" />
<glyph horiz-adv-x="554" d="M267 233v309q0 2 3 2h66q2 0 2 -2l54 -159h5q51 157 52 158l1 1q0 2 1 2h67q1 -1 1 -2v-309l-1 -2h-56v191h-6q-39 -123 -40 -124q-1 -2 -3 -2h-39q-2 0 -3 3l-40 123h-6v-189q0 -2 -1 -2h-54q-3 0 -3 2zM96 233v254h-66q-2 0 -2 2v53q0 2 2 2h191q1 0 1 -2v-53 q0 -2 -1 -2h-66v-254q0 -2 -2 -2h-55q-2 0 -2 2z" />
<glyph horiz-adv-x="368" d="M65 13q-3 0 -1 4l33 79h-61q-2 1 -2 3v76l2 3h100l33 85h-133q-2 0 -2 3v76l2 4h172q32 78 34 80q1 4 4 4h57q4 0 2 -4l-34 -80h60q3 0 3 -4v-76q0 -3 -3 -3h-99l-32 -85h131q3 0 3 -3v-76q0 -3 -3 -3h-171q-32 -78 -33 -80q-1 -3 -4 -3h-58z" />
<glyph horiz-adv-x="368" d="M148 134q-3 0 -3 3v122h-109q-2 0 -2 3v75l2 3h109v122q0 3 3 3h72q3 0 3 -3v-122h108q3 0 3 -3v-75q0 -3 -3 -3h-108v-122q0 -3 -3 -3h-72zM37 0q-3 0 -3 3v73q0 4 3 4h295q2 0 2 -4v-73q0 -3 -2 -3h-295z" />
<glyph horiz-adv-x="368" d="M331 121q-1 1 -74 34t-147 66l-73 33q-3 3 -3 4v68q0 3 3 3l294 134q3 1 3 -2v-82q0 -2 -3 -5l-174 -81v-3q173 -79 174 -80q3 -2 3 -5v-81q0 -4 -3 -3zM35 0q-2 2 -2 3v77l2 3h296q3 0 3 -3v-77q0 -3 -3 -3h-296z" />
<glyph horiz-adv-x="368" d="M35 121q-1 1 -2 3v81q0 3 2 5l175 80v3q-173 80 -175 81q-2 2 -2 5v82q0 3 2 2l295 -134q3 0 3 -3v-68q0 -1 -3 -4q-1 0 -74 -33t-146.5 -66t-74.5 -34zM331 0h-296q-2 0 -2 3v77q0 3 2 3h296q3 0 3 -3v-77q0 -3 -3 -3z" />
<glyph horiz-adv-x="369" d="M45 146q0 8 4 13q36 36 72 36q27 0 66 -23.5t59 -23.5q21 0 44.5 18t24.5 18q3 0 3 -4v-48q0 -9 -4 -13q-39 -39 -73 -39q-25 0 -64 24.5t-60 24.5q-15 0 -31 -9t-26.5 -18t-12.5 -9t-2 4v49zM45 313q0 8 4 13t12 12t25.5 15.5t34.5 8.5q27 0 66 -23.5t59 -23.5 q21 0 44.5 18.5t24.5 18.5q3 0 3 -4v-49q0 -9 -4 -13q-38 -38 -73 -38q-25 0 -64 24t-60 24q-15 0 -31 -9t-26.5 -18t-12.5 -9t-2 4v49z" />
<glyph horiz-adv-x="168" d="M43 163q-2 0 -2 4v91l2 3h82q4 0 4 -3v-91q0 -4 -4 -4h-82z" />
<glyph horiz-adv-x="277" d="M234 548q4 2 4 -3v-149q0 -3 -3 -3h-71q-3 0 -3 3v95q0 3 2 5zM111 548q4 2 4 -3v-149q0 -3 -2 -3h-72q-2 0 -2 3v95q0 3 2 5z" />
<glyph horiz-adv-x="276" d="M165 388q-4 -2 -4 3v150q0 3 3 3h71q3 0 3 -3v-95q0 -3 -3 -6zM43 388q-4 -2 -4 3v150q0 3 2 3h72q2 0 2 -3v-95q0 -4 -2 -6z" />
<glyph horiz-adv-x="154" d="M111 548q4 2 4 -3v-149q0 -3 -2 -3h-72q-2 0 -2 3v95q0 3 2 5z" />
<glyph horiz-adv-x="154" d="M43 388q-4 -2 -4 3v150q0 3 2 3h72q2 0 2 -3v-95q0 -4 -2 -6z" />
<glyph horiz-adv-x="750" d="M178 -5h-76q-2 0 0 3q10 37 125.5 273.5t125.5 274.5q3 3 5 3h76q2 0 1 -4l-252 -546q-1 -4 -5 -4zM135 295q-39 0 -64.5 19t-25.5 72v74q0 89 93 89q38 0 63 -18t25 -71v-74q0 -54 -25.5 -72.5t-65.5 -18.5zM401 -5q-40 0 -65 19t-25 73v73q0 89 92 89q39 0 63.5 -18 t24.5 -71v-73q0 -55 -25 -73.5t-65 -18.5zM614 -5q-40 0 -65 19t-25 73v73q0 89 92 89q39 0 63.5 -18t24.5 -71v-73q0 -55 -25 -73.5t-65 -18.5zM614 58q16 0 24.5 7.5t8.5 30.5v53q0 22 -8 29.5t-24 7.5t-24.5 -7.5t-8.5 -29.5v-53q0 -23 8.5 -30.5t23.5 -7.5zM401 58 q16 0 24 7.5t8 30.5v53q0 22 -7.5 29.5t-22.5 7.5q-17 0 -25.5 -7.5t-8.5 -29.5v-53q0 -23 8.5 -30.5t23.5 -7.5zM135 359q11 0 17 2t10.5 10.5t4.5 24.5v53q0 22 -7.5 29.5t-22.5 7.5q-17 0 -25.5 -7.5t-8.5 -29.5v-53q0 -23 8 -30t24 -7z" />
<glyph horiz-adv-x="277" d="M136 384q32 0 32 38v31q0 21 -8 28.5t-23 7.5q-17 0 -25.5 -7.5t-8.5 -28.5v-31q0 -23 8.5 -30.5t24.5 -7.5zM136 321q-40 0 -65 19t-25 72v51q0 89 92 89q38 0 63 -18t25 -71v-51q0 -54 -25 -72.5t-65 -18.5z" />
<glyph horiz-adv-x="415" d="M349 396q3 -6 48 -51q3 -3 0 -5l-108 -129q107 -127 108 -129q4 0 0 -4q-45 -45 -48 -51q-2 -1 -3 0l-159 182v5q1 1 79.5 91t79.5 91h3zM180 396q48 -48 48 -51q3 -2 0 -5l-107 -129q107 -127 107 -129q4 0 0 -4q-3 -6 -48 -51q-1 -1 -3 0q-1 1 -79 91t-79 91v5 q1 1 78.5 90t79.5 92h3z" />
<glyph horiz-adv-x="410" d="M67 27q-48 48 -48 51q-3 1 0 4l107 129q-107 128 -107 129q-3 1 0 4q45 45 48 51q3 1 3 0l158 -181q2 -2 0 -5q-1 -1 -78.5 -90.5t-79.5 -91.5q-2 -1 -3 0zM230 27q-2 4 -49 51v4l108 129q-106 128 -108 129v4l49 51q2 2 4 0q1 -1 78.5 -90.5t78.5 -90.5q3 -2 0 -5 l-158 -182q-1 -1 -3 0z" />
<glyph horiz-adv-x="250" d="M176 396q0 -1 12 -13.5t24 -24.5l11 -13q3 -2 0 -5l-107 -129q107 -127 107 -129q4 0 0 -4q-1 -1 -24 -25.5t-23 -25.5q-2 -1 -4 0q-1 1 -79 91t-79 91v5q1 1 78.5 90t79.5 92h4z" />
<glyph horiz-adv-x="250" d="M75 27q-48 48 -48 51q-3 1 0 4l107 129q-107 128 -107 129q-3 1 0 4l48 51q2 1 3 0l158 -181q2 -2 0 -5q-1 -1 -78.5 -90.5t-79.5 -91.5q-2 -1 -3 0z" />
<glyph horiz-adv-x="228" d="M64 97q-4 0 -4 4v105q0 4 4 4h101q3 0 3 -4v-105q0 -4 -3 -4h-101zM64 467q-4 0 -4 4v104q0 4 4 4h101q3 0 3 -4v-104q0 -4 -3 -4h-101z" />
</font>
</defs>
</svg>
