<?xml version="1.0" standalone="no"?>
<!DOCTYPE svg PUBLIC "-//W3C//DTD SVG 1.1//EN" "http://www.w3.org/Graphics/SVG/1.1/DTD/svg11.dtd" >
<svg xmlns="http://www.w3.org/2000/svg" xmlns:xlink="http://www.w3.org/1999/xlink" version="1.1">
<metadata></metadata>
<defs>
<font id="sport1condensed_black_italic" horiz-adv-x="493" >
<font-face units-per-em="1000" ascent="750" descent="-250" />
<missing-glyph horiz-adv-x="218" />
<glyph unicode=" "  horiz-adv-x="218" />
<glyph unicode="&#x09;" horiz-adv-x="218" />
<glyph unicode="&#xa0;" horiz-adv-x="218" />
<glyph unicode="!" horiz-adv-x="294" d="M178 0h-143q-3 0 -3 4l19 135q0 4 4 4h143q4 0 3 -4l-19 -135q0 -4 -4 -4zM203 211h-133q-3 0 -3 4l65 461q0 4 3 4h133q3 0 3 -4l-65 -461q0 -4 -3 -4z" />
<glyph unicode="&#x22;" horiz-adv-x="376" d="M387 680q6 0 6 -6l-31 -215q0 -4 -3 -4h-113q-4 0 -4 4l30 214q0 7 5 7h110zM207 680q4 0 4 -6l-31 -215q0 -4 -3 -4h-113q-3 0 -3 4l30 214q0 7 4 7h112z" />
<glyph unicode="#" horiz-adv-x="534" d="M230 300h73l19 91h-71zM153 0h-119q-4 0 -3 4l43 179h-54q-3 0 -3 4l16 109q0 4 3 4h68l20 91h-57q-5 0 -4 4l15 109q1 4 5 4h72q39 165 39 168q0 4 5 4h119q4 0 2 -4l-39 -168h72q39 165 39 168q0 4 5 4h120q4 0 2 -4l-39 -168h52q2 0 2 -4l-15 -109q-1 -4 -4 -4h-66 l-20 -91h56q4 0 4 -4l-16 -109q0 -4 -4 -4h-70q-42 -176 -42 -179q0 -4 -5 -4h-120q-1 0 -1 3l42 180h-73q-42 -176 -42 -179q0 -4 -5 -4z" />
<glyph unicode="$" horiz-adv-x="536" d="M159 -85q-2 0 -2 4l11 75q-98 6 -163 38q-2 2 -1 6q0 1 30.5 67t30.5 67q0 4 5 2q78 -26 174 -26q29 0 47 7t22 31l5 30q3 19 -13.5 32t-70.5 22q-52 8 -82 17t-53.5 28t-30 51t0.5 81l11 79q19 138 184 157l11 78q0 4 4 4h100q2 0 2 -4l-11 -78q43 -3 79.5 -10.5t52 -13 t16.5 -7.5q1 -1 1 -3q0 -3 -27.5 -66.5t-29.5 -66.5q-2 -4 -6 -2q-3 1 -22.5 5.5t-58 9.5t-74.5 5q-30 0 -39.5 -8.5t-12.5 -27.5l-4 -27q-3 -22 10.5 -32t65.5 -19q37 -6 61 -12.5t50 -19.5t40 -31.5t20.5 -48.5t0.5 -71l-11 -79q-21 -148 -208 -164l-11 -75q0 -4 -4 -4 h-100z" />
<glyph unicode="%" horiz-adv-x="723" d="M227 -6h-131q-2 1 -2 3q-9 2 99 173t215.5 341.5t97.5 171.5q2 4 5 4h132q3 0 0 -4l-410 -685q-3 -4 -6 -4zM502 -6q-125 0 -107 124l12 82q17 121 144 121q52 0 83 -25t21 -96l-12 -82q-18 -124 -141 -124zM189 360q-53 0 -83.5 26t-21.5 98l11 82q17 121 144 121 q52 0 82 -25t21 -96l-11 -82q-17 -124 -142 -124zM204 464q14 0 22.5 7t11.5 30l7 46q3 21 -3 28.5t-20 7.5t-23 -7.5t-12 -28.5l-7 -46q-6 -37 24 -37zM517 98q9 0 14.5 2t11 10.5t7.5 24.5l6 46q3 22 -2.5 29t-19.5 7q-30 0 -35 -36l-6 -46q-3 -22 3.5 -29.5t20.5 -7.5z " />
<glyph unicode="&#x26;" horiz-adv-x="543" d="M219 -6q-29 0 -52 2.5t-53 13t-48 28.5t-28.5 53.5t-3.5 83.5l6 45q5 40 24.5 82.5t36.5 65.5l17 22q-2 5 -4 14t-5.5 38t2.5 59l4 30q6 42 22 72.5t35 46t47 24.5t47.5 11t46.5 2q26 0 45.5 -4t44 -16.5t38 -44t13.5 -79.5q0 -45 -8 -45h-102q-1 0 -1 28q0 59 -43 59 q-12 0 -23 -3.5t-24.5 -17.5t-16.5 -38l-2 -16q-3 -26 4.5 -51.5t28.5 -67t27 -54.5q12 -27 24.5 -59.5t19.5 -51.5l6 -19q4 13 5 20l13 93q0 4 4 4h102q3 0 3 -4l-17 -121q-3 -19 -14.5 -44t-21.5 -40l-11 -15q52 -93 54 -96q2 -4 -2 -4h-136q-3 0 -4 4l-7 15 q-40 -25 -93 -25zM235 108q7 0 12 1.5t7 2.5l2 2l-74 165q-11 -20 -18 -82l-1 -9q-6 -47 12.5 -63.5t59.5 -16.5z" />
<glyph unicode="'" horiz-adv-x="217" d="M218 680q6 0 6 -6l-31 -215q0 -4 -4 -4h-113q-3 0 -3 4l30 214q0 7 4 7h111z" />
<glyph unicode="(" horiz-adv-x="304" d="M78 -94q-3 0 -6 4q-28 42 -28 216q0 134 15 247t34 177.5t42.5 112.5t36 63.5t18.5 19.5q5 4 6 4h124q3 0 0 -4q-4 -4 -16 -23.5t-34 -72.5t-40.5 -120.5t-32.5 -178t-14 -235.5q0 -67 5 -118.5t8.5 -68.5t5.5 -19q4 -4 0 -4h-124z" />
<glyph unicode=")" horiz-adv-x="305" d="M121 -94h-123q-3 0 1 4t15.5 24t33 73t40 121t32.5 179t14 235q0 66 -4.5 117.5t-8 67t-5.5 19.5q-3 4 2 4h122q1 0 6 -4q3 -3 8.5 -17.5t12.5 -67.5t7 -128q0 -136 -15.5 -250.5t-33.5 -177t-43.5 -113t-35 -62t-18.5 -20.5q-4 -4 -7 -4z" />
<glyph unicode="*" horiz-adv-x="364" d="M154 355q-4 0 -3 4l11 81q-59 -40 -61 -41t-3 2q-11 33 -30 71q-1 2 2 5l61 41q-47 38 -49 40q-3 3 -1 5l49 71q3 3 5 2l49 -41l11 81q1 4 5 4h76q5 0 4 -4l-11 -81q57 40 59 41q4 2 5 -2l28 -71q2 -4 -1 -5l-60 -40q46 -39 48 -41q2 -3 0 -5l-48 -71q-3 -3 -6 -2l-47 41 l-11 -81q0 -4 -5 -4h-77z" />
<glyph unicode="+" d="M153 64q-3 0 -3 4l20 139h-132q-3 0 -3 4l18 129q0 4 4 4h132l20 139q0 4 3 4h124q4 0 4 -4l-20 -139h131q4 0 3 -4l-18 -129q0 -4 -4 -4h-131l-20 -139q0 -4 -4 -4h-124z" />
<glyph unicode="," horiz-adv-x="240" d="M-36 -115q-4 0 -1 4l100 265q1 4 4 4h134q3 0 1 -4l-127 -265q-3 -4 -4 -4h-107z" />
<glyph unicode="-" horiz-adv-x="356" d="M32 207q-3 0 -3 4l18 129q0 4 4 4h269q4 0 4 -4l-18 -129q0 -4 -5 -4h-269z" />
<glyph unicode="." horiz-adv-x="248" d="M12 0q-3 0 -3 4l22 155q0 4 4 4h143q3 0 3 -4l-21 -155q-1 -4 -5 -4h-143z" />
<glyph unicode="/" horiz-adv-x="399" d="M2 -5q-3 0 -2 4q1 2 129.5 342.5t129.5 341.5q1 4 5 4h151q4 0 1 -4l-258 -684q-1 -4 -5 -4h-151z" />
<glyph unicode="0" horiz-adv-x="540" d="M249 144q34 0 46.5 21t23.5 96l23 163q10 75 3 94.5t-40 19.5q-32 0 -45.5 -20.5t-23.5 -93.5l-23 -163q-11 -74 -5 -95.5t41 -21.5zM228 -10q-25 0 -43 1.5t-39.5 5t-36.5 11.5t-30.5 20.5t-24 32t-14.5 45.5t-5.5 62.5t6.5 80.5l27 191q10 67 29.5 115t42.5 74.5 t56.5 41t61.5 18t68 3.5q21 0 36.5 -1t35.5 -3.5t34 -7.5t29.5 -14.5t25.5 -22.5t19 -32t12.5 -43t3.5 -56.5t-6 -71.5l-27 -191q-10 -72 -31 -122.5t-43.5 -76.5t-58 -40t-61.5 -17t-67 -3z" />
<glyph unicode="1" horiz-adv-x="476" d="M324 0h-157q-3 0 -2 4l69 495q-109 -76 -111 -77q-1 -1 -2 -0.5t-1 2.5q0 3 -8.5 71t-9.5 69q-1 4 5 7l151 107q2 2 5 2h157q2 0 2 -4l-94 -673q-2 -3 -4 -3z" />
<glyph unicode="2" horiz-adv-x="489" d="M394 0h-373q-3 0 -3 4l19 131q0 7 5 12q18 19 49.5 52.5t49.5 52.5t43.5 47t40 46.5t30 39t23 37t9.5 30.5l6 42q3 18 -7 29t-19.5 13.5t-16.5 2.5q-29 0 -65 -6t-57 -11.5t-24 -6.5q-3 0 -3 3t-5.5 65.5t-5.5 63.5q0 4 2 6q3 3 21 11t63.5 17.5t98.5 9.5q28 0 52 -2.5 t54.5 -13t50.5 -27.5t31 -49.5t5 -76.5l-12 -86q-7 -55 -47 -114.5t-122 -158.5l-2 -11h130q3 0 2 -4l-20 -144q0 -4 -3 -4z" />
<glyph unicode="3" d="M18 19q-2 0 -2 3t20.5 66.5t21.5 65.5q1 3 5 3q1 -1 23.5 -5t59.5 -8.5t66 -4.5q20 0 36.5 11t19.5 33l4 33q8 60 -39 60h-80q-4 0 -4 4l19 135q0 4 5 4h81q15 0 28 13t16 34l4 32q2 18 -7.5 29t-18.5 13.5t-17 2.5q-29 0 -65.5 -5t-57 -9.5t-24.5 -5.5q-1 -1 -3 0t-2 3 q0 5 -2 66.5t-2 62.5q0 4 3 6q5 3 23.5 9t62.5 14t89 8q36 0 62.5 -3t54.5 -13t44.5 -27t25 -47t2.5 -72l-9 -68q-4 -26 -19.5 -52t-29.5 -39l-14 -13l-1 -10q2 -1 5.5 -3.5t12 -12t14 -21.5t9 -32t0.5 -44l-11 -81q-7 -51 -28 -85t-55 -50.5t-69 -22.5t-83 -6 q-51 0 -94.5 7t-61.5 15z" />
<glyph unicode="4" horiz-adv-x="494" d="M384 0h-146q-2 0 -2 4l13 90h-232q-3 0 -3 4l20 139q0 6 5 14l197 425q2 4 4 4h164q4 0 2 -4l-190 -420l-1 -10h55l14 100q0 4 4 4h145q2 0 2 -4l-14 -100h33q2 0 2 -4l-20 -144q-1 -4 -3 -4h-33l-13 -90q0 -4 -3 -4z" />
<glyph unicode="5" d="M193 -11q-117 0 -175 29q-2 2 -2 3q0 4 43 133q1 3 3 2q3 -1 25.5 -5t60 -8.5t65.5 -4.5q18 0 35 10.5t20 34.5l5 39q4 32 -10.5 45t-30.5 13h-163q-3 0 -3 4l55 387q0 9 9 9h352q4 0 3 -4l-19 -134q0 -4 -4 -4h-213l-17 -118h24q31 0 55 -2.5t53 -12t47 -26t27.5 -48 t3.5 -74.5l-14 -104q-6 -45 -25 -77t-41 -48.5t-55 -25.5t-57 -11t-57 -2z" />
<glyph unicode="6" horiz-adv-x="502" d="M228 128q12 0 21 3.5t19.5 21.5t15.5 51l4 29q9 63 -17 63q-14 0 -28.5 -3.5t-22.5 -6.5l-7 -4l-16 -116q-5 -38 31 -38zM221 -10q-31 0 -56.5 3t-54 14t-46 29.5t-26.5 51.5t-3 77l47 338q7 51 31 88.5t51.5 56t62 29.5t54 13t36.5 2q111 0 169 -37l1 -1q3 -1 1 -6 q-1 -5 -23.5 -64.5t-22.5 -60.5q0 -2 -4 -2l-9 2q-9 2 -23 5.5t-31 6.5t-37.5 5t-38.5 2q-7 0 -17.5 -3t-23.5 -14.5t-15 -28.5l-11 -76q68 14 94 14q17 0 29.5 -1.5t28.5 -5.5t26.5 -12.5t22 -22.5t15 -34t6 -48.5t-4.5 -65.5l-7 -49q-8 -55 -25.5 -94t-37.5 -60.5 t-49.5 -33t-53 -14.5t-55.5 -3z" />
<glyph unicode="7" horiz-adv-x="474" d="M212 1h-165q-4 0 -3 4l238 518l2 10h-195q-4 0 -4 4l20 139q0 4 4 4h370q3 0 3 -4l-19 -132q0 -3 -4 -13l-241 -526q-3 -4 -6 -4z" />
<glyph unicode="8" d="M224 128q43 0 52 61l4 29q4 28 -8.5 40.5t-26.5 12.5t-30 -13t-20 -40l-4 -29q-8 -61 33 -61zM266 423q15 0 29.5 11.5t17.5 37.5l4 29q8 55 -32 55t-47 -55l-4 -29q-3 -25 7 -37t25 -12zM205 -10q-32 0 -57 3.5t-52 15t-43.5 31t-24.5 55.5t-2 84l6 49q4 36 23.5 65.5 t36.5 41.5l17 12l1 4q-4 4 -10.5 12t-15 36t-4.5 60l7 48q9 62 29.5 101.5t53.5 56.5t61.5 22t72.5 5q24 0 41.5 -1.5t38.5 -5.5t34 -12t27.5 -21.5t19 -33t9 -47.5t-3.5 -64l-7 -49q-4 -31 -19.5 -58t-28.5 -38l-13 -12l-1 -3q2 -2 6 -5t12.5 -13.5t15 -23.5t10 -33.5 t0.5 -43.5l-7 -49q-7 -48 -24 -83.5t-38.5 -55.5t-51.5 -31.5t-57 -15t-62 -3.5z" />
<glyph unicode="9" d="M289 549q-12 0 -21.5 -3.5t-20 -21.5t-15.5 -50l-5 -35q-9 -63 19 -63q14 0 28 3.5t22 6.5l7 4l17 121q5 38 -31 38zM296 687q31 0 56.5 -3t54 -14t46 -29.5t26.5 -51.5t3 -77l-46 -328q-6 -43 -23 -76t-41 -52.5t-48.5 -33t-51 -18.5t-42 -7t-28.5 -2q-24 0 -46.5 2 t-39.5 5t-31.5 6.5t-25 7.5t-17.5 7t-11 5l-4 2q-1 0 -1 2q0 6 22 64t26 65q2 3 5 3q2 -1 22.5 -5.5t55.5 -9t63 -4.5q6 0 16.5 3t23.5 14.5t15 29.5l8 60q-68 -14 -93 -14q-19 0 -34 2t-33.5 8.5t-29 19t-21 34t-10 52t4.5 74.5l8 54q8 55 25.5 94t37.5 60.5t49.5 33 t53 14.5t55.5 3z" />
<glyph unicode=":" horiz-adv-x="261" d="M20 0q-4 0 -3 4l19 135q0 4 4 4h142q4 0 4 -4l-19 -135q0 -4 -5 -4h-142zM68 344q-4 0 -3 4l19 135q0 4 4 4h142q4 0 4 -4l-19 -135q0 -4 -5 -4h-142z" />
<glyph unicode=";" horiz-adv-x="261" d="M-49 -115q-4 0 -1 4l101 265q1 4 4 4h134q3 0 1 -4l-128 -265q-3 -4 -4 -4h-107zM66 324q-5 0 -4 4l22 155q0 4 4 4h142q4 0 4 -4l-22 -155q0 -4 -4 -4h-142z" />
<glyph unicode="&#x3c;" horiz-adv-x="494" d="M411 40l-93 42q-92 43 -184.5 86t-93.5 43q-3 3 -3 5l17 116q0 2 3 5l419 172q3 1 3 -3l-20 -140q0 -4 -3 -5l-204 -86l-1 -3q178 -83 180 -84q3 -2 3 -5l-20 -140z" />
<glyph unicode="=" d="M23 98q-3 0 -3 4l19 131q0 4 3 4h394q4 0 4 -4l-19 -131q0 -4 -4 -4h-394zM54 317q-3 0 -3 4l19 131q0 4 3 4h394q3 0 3 -4l-18 -131q0 -4 -4 -4h-394z" />
<glyph unicode="&#x3e;" horiz-adv-x="494" d="M15 40q-1 1 -2 3l20 140q0 3 2 5l205 84l1 3q-179 84 -181 86t-2 5l20 140q0 4 3 3l370 -172q4 -2 4 -5l-17 -116q0 -3 -4 -5q-1 0 -105.5 -43t-208.5 -86z" />
<glyph unicode="?" horiz-adv-x="429" d="M237 0h-143q-3 0 -3 4l19 135q0 4 4 4h143q3 0 2 -4l-19 -135q0 -4 -3 -4zM270 208h-148q-3 0 -2 4l3 23q5 41 25.5 79.5t42 62.5t41 50.5t22.5 45.5l4 24q3 16 -2.5 26.5t-12 14t-10.5 3.5q-12 0 -25 -1.5t-24.5 -3.5t-22.5 -4.5t-20 -5t-16 -4.5t-11 -4l-4 -1 q-5 -2 -5 2q0 2 -6.5 62t-6.5 62q0 5 3 6q5 3 23 10.5t58 17t80 9.5q36 0 64 -6t56 -22t40 -52t5 -89l-6 -44q-5 -38 -68.5 -118t-68.5 -120l-3 -23q0 -4 -5 -4z" />
<glyph unicode="@" horiz-adv-x="808" d="M340 -159q-46 0 -84 6t-81.5 26.5t-73 54.5t-49.5 96t-20 146q0 131 30 228t74 149.5t105.5 84.5t111 40.5t104.5 8.5q53 0 95 -6.5t85 -26t71 -52t46 -89t18 -132.5q0 -83 -14.5 -144.5t-35 -94.5t-51 -53t-56 -25.5t-55.5 -5.5q-53 0 -88 27q-37 -27 -107 -27 q-36 0 -60 5.5t-45.5 22t-28.5 51.5t1 89l12 85q13 91 56 129.5t98 38.5q46 0 63 -17l1 9q0 3 3 3h124q3 0 3 -3l-34 -240q-8 -59 25 -59q14 0 24.5 6t21.5 25t17 62.5t6 109.5q0 114 -49 156.5t-162 42.5q-73 0 -125 -18.5t-82 -48.5t-47 -81t-22 -102t-5 -126 q0 -69 16 -116t46 -69.5t62 -31.5t74 -9q34 0 82 6.5t78.5 13t32.5 7.5q3 1 3 -2l11 -104l-2 -6q-6 -3 -30.5 -11t-81 -18.5t-111.5 -10.5zM383 163q25 0 31.5 8t11.5 41l19 131q1 12 -8 16t-27 4q-29 0 -38 -65l-9 -71q-8 -64 20 -64z" />
<glyph unicode="A" horiz-adv-x="565" d="M130 0h-170q-3 0 -1 4l283 672q1 4 4 4h186q4 0 5 -4l89 -672q2 -4 -3 -4h-170q-3 0 -4 4l-5 107h-173q-36 -104 -37 -107q-1 -4 -4 -4zM225 244h103l-9 229h-20z" />
<glyph unicode="B" horiz-adv-x="532" d="M195 133h56q56 0 62 46l8 54q8 52 -49 52h-56zM233 407h48q20 0 26 -1q29 41 29 91t-42 50h-41zM255 0h-247l96 680h244q19 0 37.5 -2.5t42 -11.5t41 -23.5t29.5 -42.5t12 -66q0 -74 -61 -171q27 -23 37.5 -51t3.5 -77l-9 -63q-7 -46 -23 -79t-36 -51t-50 -27.5 t-55.5 -12t-61.5 -2.5z" />
<glyph unicode="C" horiz-adv-x="499" d="M244 -10q-25 0 -45 1.5t-43 6.5t-40 13t-35 21.5t-27.5 33t-18.5 45.5t-7.5 60.5t5.5 77.5l27 190q9 65 30.5 112t47.5 74t63 42.5t69.5 20t74.5 4.5q53 0 92.5 -7t51 -12t14.5 -8t1 -6t-33 -67t-31 -65q0 -3 -5 -3q-2 1 -16 4t-41.5 6t-53.5 3q-17 0 -28.5 -3t-26.5 -13 t-25 -35t-16 -64l-23 -159q-10 -71 5.5 -91t56.5 -20q19 0 38.5 1.5t34.5 3.5t27.5 4t19.5 3.5t8 1.5q2 2 4 -2l26 -133q1 -2 -3 -6q-70 -35 -178 -35z" />
<glyph unicode="D" horiz-adv-x="546" d="M199 157h53q17 0 27.5 3t21.5 14t19 35.5t13 64.5l18 134q3 41 4.5 64t-7.5 34.5t-17.5 14t-26.5 2.5h-53zM230 0h-222l96 680h222q26 0 42.5 -1t44 -6t42 -15t36.5 -28.5t27 -46t13 -67.5t-5 -93l-22 -161q-10 -73 -33 -124.5t-48 -77.5t-63 -40.5t-64.5 -17t-65.5 -2.5 z" />
<glyph unicode="E" horiz-adv-x="483" d="M8 0l96 680h394q2 0 2 -4l-20 -141q0 -4 -3 -4h-225l-16 -114h183q4 0 3 -4l-20 -140q0 -4 -4 -4h-183l-17 -120h225q3 0 2 -4l-19 -141q-2 -4 -4 -4h-394z" />
<glyph unicode="F" horiz-adv-x="478" d="M11 0q-3 0 -3 4l95 676h394q3 0 3 -4l-20 -141q0 -4 -4 -4h-225l-20 -143h183q4 0 4 -4l-20 -141q0 -4 -5 -4h-183l-33 -235q0 -4 -3 -4h-163z" />
<glyph unicode="G" horiz-adv-x="546" d="M246 -10q-21 0 -37.5 1t-37.5 4t-36 8.5t-33.5 15t-29 23.5t-22.5 33t-15 44t-6 57t5 72l26 191q9 69 34 118.5t53 74.5t68.5 39t68 17t64.5 3q52 0 99.5 -7t68 -13t22.5 -8q2 -1 0 -6l-55 -129q-1 -3 -6 -3q-2 1 -23.5 3.5t-59 5.5t-68.5 3q-18 0 -30 -3t-27 -13 t-25.5 -34.5t-15.5 -63.5l-23 -163q-10 -71 6 -92.5t57 -21.5l80 6l14 100h-64q-4 0 -3 4l18 133q1 4 5 4h201l-54 -381q-145 -22 -219 -22z" />
<glyph unicode="H" horiz-adv-x="568" d="M11 0q-3 0 -3 4l95 672q0 4 3 4h163q3 0 3 -4l-37 -261h134l37 261q0 4 3 4h163q3 0 3 -4l-95 -672q0 -4 -3 -4h-163q-3 0 -3 4l37 262h-134l-37 -262q0 -4 -3 -4h-163z" />
<glyph unicode="I" horiz-adv-x="265" d="M11 0q-3 0 -3 4l95 672q0 4 3 4h163q3 0 3 -4l-95 -672q0 -4 -3 -4h-163z" />
<glyph unicode="J" horiz-adv-x="470" d="M145 -10q-23 0 -43.5 1.5t-35.5 4t-27.5 5t-21.5 5.5t-14.5 5t-8.5 4l-4 2q-3 1 -1 6l59 132q2 5 6 3q20 -10 108 -10q72 0 83 73l63 455q1 4 4 4h163q4 0 3 -4l-66 -470q-8 -59 -29.5 -101t-46 -64t-61.5 -34t-64 -14.5t-66 -2.5z" />
<glyph unicode="K" horiz-adv-x="581" d="M11 0q-3 0 -3 4l95 672q0 4 3 4h163q3 0 3 -4l-37 -262h37q147 258 149 262q3 4 4 4h176q2 0 1 -4l-205 -332q118 -337 120 -340q3 -4 -1 -4h-175q-4 0 -5 4l-75 261h-47l-37 -261q0 -4 -3 -4h-163z" />
<glyph unicode="L" horiz-adv-x="471" d="M8 0l95 676q0 4 4 4h163q2 0 2 -4l-74 -527h225q3 0 2 -4l-19 -141q-2 -4 -4 -4h-394z" />
<glyph unicode="M" horiz-adv-x="711" d="M11 0q-3 0 -3 4l95 672q0 4 3 4h192q4 0 5 -3l63 -300h12q142 295 143 298q2 5 8 5h188q3 0 3 -4l-95 -672q0 -4 -3 -4h-160q-3 0 -3 4l50 356h-12q-97 -210 -98 -213q-1 -4 -7 -4h-110q-5 0 -7 6l-38 211h-13l-50 -356q0 -4 -3 -4h-160z" />
<glyph unicode="N" horiz-adv-x="590" d="M7 0q-3 0 -3 4l95 672q0 4 4 4h175q4 0 5 -3l98 -377h8l53 376q0 4 3 4h160q4 0 3 -4l-95 -672q0 -4 -4 -4h-178q-5 0 -6 4l-95 375h-10l-53 -375q0 -4 -3 -4h-157z" />
<glyph unicode="O" horiz-adv-x="545" d="M252 145q38 0 53.5 19.5t26.5 95.5l22 162q3 40 5 62.5t-7 34t-18 14t-28 2.5q-36 0 -52.5 -19t-26.5 -94l-23 -162q-11 -76 -1 -95.5t49 -19.5zM230 -11q-22 0 -38.5 1t-37 4t-35 8.5t-30.5 15t-27 23t-20 33t-13 44t-4 57.5t6 73l27 189q10 68 31 116.5t45.5 74.5 t60.5 40.5t64.5 18t68.5 3.5q21 0 37 -1t36.5 -4t35.5 -8t31 -14.5t27 -22t20.5 -32t14 -43.5t4.5 -56.5t-6 -71.5l-27 -189q-10 -72 -32 -122.5t-46 -76.5t-61 -40t-64 -17t-68 -3z" />
<glyph unicode="P" horiz-adv-x="534" d="M228 366h66q6 0 14 2t19.5 7.5t20.5 18.5t12 31l7 44q6 37 -11.5 49.5t-39.5 12.5h-65zM174 0h-163q-3 0 -3 4l95 676h245q22 0 41.5 -2t46 -8.5t45.5 -20t35.5 -34t22.5 -54t0 -76.5l-11 -75q-6 -43 -22.5 -77t-39.5 -54t-47 -33.5t-52 -19t-46 -7.5t-38 -2h-76 l-30 -213q0 -4 -3 -4z" />
<glyph unicode="Q" horiz-adv-x="546" d="M230 -11q-22 0 -38.5 1t-37 4t-35 8.5t-30.5 15t-27 23t-20 33t-13 44t-4 57.5t6 73l27 189q10 68 31 116.5t45.5 74.5t60.5 40.5t64.5 18t68.5 3.5q21 0 37 -1t36.5 -4t35.5 -8t31 -14.5t27 -22t20.5 -32t14 -43.5t4.5 -56.5t-6 -71.5l-27 -189q-14 -97 -48 -157l28 -39 q1 -3 -1 -5t-48 -45l-46 -42q-4 -4 -6 0l-32 43q-41 -14 -118 -14zM218 178q-2 3 1 6l96 87q4 4 4 0q0 -1 12 -16l1 5l22 162q3 40 5 62.5t-7 34t-18 14t-28 2.5q-36 0 -52.5 -19t-26.5 -94l-23 -162q-9 -75 -1 -94.5t40 -20.5z" />
<glyph unicode="R" horiz-adv-x="544" d="M227 366h67q9 0 21 4t27.5 19.5t18.5 39.5l5 37q5 37 -13 51t-38 14h-65zM173 0h-162q-3 0 -3 4l95 676h245q25 0 48.5 -3t54.5 -15.5t51 -33.5t31.5 -61.5t3.5 -95.5l-7 -49q-9 -65 -36.5 -109t-63.5 -64l54 -245q1 -4 -3 -4h-179q-4 0 -5 4l-36 213h-55l-30 -213 q0 -4 -3 -4z" />
<glyph unicode="S" horiz-adv-x="525" d="M219 -10q-143 0 -215 36q-4 2 -2 6l58 137q0 3 4 3q81 -27 177 -27q32 0 49.5 7.5t20.5 30.5l5 35q3 21 -17 34t-66 20q-101 14 -139.5 50t-25.5 127l12 84q23 159 239 159q134 0 198 -32q2 -2 2 -3q0 -3 -26.5 -66t-28.5 -67q-2 -3 -5 -3q-5 2 -24.5 6t-59.5 9t-75 5 q-46 0 -50 -36l-4 -31q-3 -22 9.5 -32.5t65.5 -18.5q104 -16 144 -55.5t28 -128.5l-12 -84q-7 -53 -34 -88t-68 -50.5t-77.5 -21t-82.5 -5.5z" />
<glyph unicode="T" horiz-adv-x="498" d="M128 0q-3 0 -3 4l74 523h-143q-3 0 -3 4l21 145q0 4 3 4h456q3 0 3 -4l-21 -145q0 -4 -3 -4h-144l-74 -523q0 -4 -3 -4h-163z" />
<glyph unicode="U" horiz-adv-x="560" d="M222 -10q-124 0 -162 61.5t-18 199.5l59 425q1 4 4 4h163q3 0 2 -4l-58 -413q-11 -52 -5.5 -84t38.5 -32h32q31 0 43.5 25.5t21.5 90.5l58 413q0 4 4 4h163q4 0 4 -4l-60 -425q-9 -65 -23.5 -108.5t-42.5 -80.5t-75 -54.5t-116 -17.5h-32z" />
<glyph unicode="V" horiz-adv-x="575" d="M149 0q-3 0 -4 3q0 1 -19 168t-38.5 335t-19.5 170q0 4 4 4h171q2 0 3 -4l27 -434h16q152 431 152 434q0 4 5 4h169q3 0 2 -4l-271 -672q-2 -4 -4 -4h-193z" />
<glyph unicode="W" horiz-adv-x="787" d="M79 0q-6 0 -6 5l-4 671q0 4 3 4h170q3 0 4 -4l-10 -406h17q104 270 105 273q1 4 4 4h133q4 0 5 -5l30 -272h17q103 403 104 406q1 4 4 4h170q5 0 3 -4q-1 -2 -96.5 -335.5t-96.5 -335.5q-3 -5 -6 -5h-203q-6 0 -6 5l-23 267h-11q-97 -260 -99 -266t-7 -6h-201z" />
<glyph unicode="X" horiz-adv-x="546" d="M-29 0q-5 0 -2 4l221 347q-115 322 -117 325q-3 4 3 4h177q3 0 4 -4l45 -163h6q87 160 89 163q3 4 4 4h177q4 0 2 -4l-207 -325q121 -345 122 -347q1 -4 -1 -4h-177q-3 0 -4 4l-51 185h-6q-102 -183 -103 -185q-3 -4 -5 -4h-177z" />
<glyph unicode="Y" horiz-adv-x="537" d="M147 0q-3 0 -3 4l36 255q-115 414 -116 417q-1 4 3 4h171q4 0 4 -4l48 -231h6q110 228 111 231q1 4 4 4h168q3 0 2 -4l-232 -417l-36 -255q-1 -4 -3 -4h-163z" />
<glyph unicode="Z" horiz-adv-x="492" d="M-2 0q-3 0 -3 4l20 140q0 2 7 12l263 361l2 11h-205q-2 0 -2 4l20 144q0 4 3 4h403q3 0 3 -4l-20 -139q-1 -6 -6 -13l-264 -361l-2 -11h214q4 0 3 -4l-20 -144q-1 -4 -4 -4h-412z" />
<glyph unicode="[" horiz-adv-x="285" d="M-7 -94l119 844h208q3 0 3 -4l-17 -119q0 -4 -4 -4h-74l-83 -590h74q3 0 3 -4l-16 -119q-2 -4 -5 -4h-208z" />
<glyph unicode="\" horiz-adv-x="399" d="M318 -5h-151q-4 0 -5 4l-66 684q0 4 3 4h151q5 0 5 -4q0 -5 32 -343.5t33 -340.5q1 -4 -2 -4z" />
<glyph unicode="]" horiz-adv-x="285" d="M186 -94h-208q-3 0 -3 4l16 119q2 4 5 4h74l83 590h-74q-4 0 -4 4l17 119q0 4 5 4h208z" />
<glyph unicode="^" d="M35 246l201 430q2 4 4 4h122q2 0 4 -4l78 -430q2 -4 -3 -4h-140q-2 0 -3 4l-26 222h-2q-88 -220 -89 -222q-2 -4 -5 -4h-139q-4 0 -2 4z" />
<glyph unicode="_" horiz-adv-x="494" d="M-50 -169q-3 0 -3 4l16 109q0 4 3 4h468q3 0 3 -4l-16 -109q0 -4 -3 -4h-468z" />
<glyph unicode="`" horiz-adv-x="440" d="M243 550l-70 148q-3 4 1 4h135q3 0 4 -4l47 -148q0 -4 -2 -4h-111q-2 0 -4 4z" />
<glyph unicode="a" horiz-adv-x="466" d="M189 107q29 0 40.5 4.5t13.5 18.5l7 51q-24 14 -53 14q-13 0 -27 -8t-16 -21l-3 -19q-3 -18 10 -29t28 -11zM117 -12q-57 0 -90 32.5t-24 91.5l8 55q9 63 56 96.5t105 33.5q21 0 44 -3.5t36 -6.5l12 -3l6 42q3 24 -11 32.5t-56 8.5q-14 0 -30.5 -1t-30 -3t-25 -4 t-18.5 -3t-8 -1q-5 0 -5 3t-2.5 29t-5.5 51l-2 26q0 3 4 5q4 3 21 9t57.5 13t85.5 7q33 0 55.5 -2t52 -12t46.5 -27.5t26 -52t2 -82.5l-45 -318q0 -4 -4 -4h-148q-4 0 -4 4l1 7q-23 -23 -109 -23z" />
<glyph unicode="b" horiz-adv-x="488" d="M238 132q36 0 47 80l9 64q6 35 5 52.5t-5 22t-14 4.5q-14 0 -29.5 -3.5t-24.5 -7.5l-8 -3l-26 -184q-2 -13 6 -19t40 -6zM167 0h-157q-3 0 -3 4l95 672q0 4 4 4h157q2 0 2 -4l-28 -197q68 14 94 14q18 0 31 -1.5t30 -6t27 -13t22 -23.5t15.5 -37t6.5 -53t-5 -72l-11 -84 q-10 -71 -30 -116.5t-50 -64t-54 -23.5t-60 -5q-70 0 -81 21l-1 -11q0 -4 -4 -4z" />
<glyph unicode="c" horiz-adv-x="435" d="M210 -8q-29 0 -49.5 1.5t-44.5 6t-37.5 13.5t-29 23.5t-20 36t-8.5 51t4 68.5l15 110q7 52 26.5 89.5t42 57.5t55.5 31.5t58.5 14t59.5 2.5q40 0 72 -6.5t43.5 -11.5t13.5 -7q3 -3 2 -6l-46 -110q-1 -3 -6 -3q-1 0 -6 0.5t-13.5 1.5t-19 2t-25 1.5t-29.5 0.5 q-6 0 -14.5 -3t-20 -9.5t-20 -21.5t-11.5 -36l-12 -87q-6 -45 6 -58.5t39 -13.5q78 0 96 9q5 0 5 -3q0 -2 10 -57.5t10 -56.5q0 -2 -3 -5l-3 -1q-2 -1 -5.5 -2.5t-8.5 -3.5t-12 -4t-15.5 -4t-19.5 -4t-22.5 -3t-26.5 -2t-30 -1z" />
<glyph unicode="d" horiz-adv-x="488" d="M398 0h-156q-3 0 -3 4l2 12q-9 -10 -34 -17.5t-54 -7.5q-17 0 -29 1t-28 3.5t-27 8.5t-23 16t-18.5 26t-11.5 37t-4 51t6 67l13 87q8 55 23.5 94.5t32.5 60.5t41.5 33t43 14.5t43.5 2.5q12 0 34.5 -3.5t38.5 -7.5l17 -3l28 197q0 4 6 4h155q2 0 2 -4l-94 -672 q-1 -4 -4 -4zM208 129q22 0 33.5 4.5t14.5 9.5t4 14l26 184q-26 14 -59 14q-13 0 -20 -14t-14 -64l-9 -68q-7 -37 -1 -55t11 -21.5t14 -3.5z" />
<glyph unicode="e" horiz-adv-x="469" d="M198 292h72q4 27 -2.5 43.5t-12.5 20t-12 3.5q-7 0 -14.5 -4.5t-17 -21t-13.5 -41.5zM204 -10q-215 0 -184 214l12 84q30 209 231 209q16 0 29 -1t31 -4.5t31.5 -10t29 -17t24 -26t17.5 -37t8 -49.5t-4 -64l-14 -97h-231q-6 -38 5.5 -52.5t36.5 -14.5q32 0 68 3.5 t55.5 6.5t21.5 4q3 1 3 -3q12 -84 12 -106q0 -8 -2 -9l-6 -2q-5 -2 -13.5 -4.5t-21 -5.5t-28 -6.5t-32.5 -6t-37.5 -4t-41.5 -1.5z" />
<glyph unicode="f" horiz-adv-x="344" d="M29 0q-3 0 -3 4l51 361h-33q-2 0 -2 4l16 114q0 4 3 4h34v3q3 54 19.5 92.5t37 58t52 30.5t52.5 13t51 2q22 0 44.5 -2.5t34 -4.5t13.5 -3q4 -1 2 -5q-9 -43 -32 -121q-1 -3 -4 -3l-9 1q-10 1 -22 2t-20 1q-53 0 -56 -61v-3h83q3 0 3 -4l-16 -114q0 -4 -4 -4h-84 l-51 -361q0 -4 -3 -4h-157z" />
<glyph unicode="g" horiz-adv-x="484" d="M193 131q13 0 28.5 3.5t24.5 7.5l10 4l26 183q2 12 -6.5 19t-38.5 7q-36 0 -47 -81l-9 -64q-6 -34 -5 -52t5 -22.5t12 -4.5zM143 -220q-45 0 -86 5.5t-58 10t-21 6.5q-3 2 0 5q0 2 24.5 59.5t24.5 58.5q0 5 5 3l7 -1q7 -1 18.5 -3t26 -3.5t34.5 -2.5t40 -1q18 0 30.5 3 t26 19t18.5 44l5 31q-64 -14 -95 -14q-19 0 -33 1.5t-31 6t-27 13t-21.5 22.5t-14 35.5t-5.5 51.5t5 69l11 84q9 69 28 113.5t47.5 64t54.5 26t64 6.5q68 0 81 -22l2 12q0 4 4 4h155q4 0 4 -4l-71 -500q-8 -56 -27 -95t-41 -60t-56.5 -32t-61 -13.5t-67.5 -2.5z" />
<glyph unicode="h" horiz-adv-x="500" d="M10 0q-3 0 -3 4l95 672q0 4 3 4h157q3 0 3 -4l-29 -202q64 19 94 19q15 0 26 -1t26 -3.5t26 -9t22.5 -16t18.5 -25t12 -36t4.5 -49.5t-5.5 -65l-40 -284q0 -4 -3 -4h-157q-3 0 -3 4l39 273q6 35 3 52.5t-7 21t-13 3.5q-12 0 -27.5 -4t-24.5 -8l-9 -3l-48 -335q0 -4 -3 -4 h-157z" />
<glyph unicode="i" horiz-adv-x="256" d="M9 0q-3 0 -3 4l68 479q0 4 3 4h157q3 0 3 -4l-68 -479q0 -4 -3 -4h-157zM87 550q-2 0 -2 4l17 122q0 4 3 4h155q3 0 3 -4l-17 -122q0 -4 -4 -4h-155z" />
<glyph unicode="j" horiz-adv-x="277" d="M-22 -186q-11 0 -24.5 1t-25 2.5t-21 3t-15.5 2.5l-6 1q-2 0 -2 4q0 1 16 61.5t17 63.5t4 3l9 -1q9 -1 21.5 -2t20.5 -1q13 0 22 2.5t20.5 18t15.5 44.5l65 466q1 4 4 4h156q4 0 3 -4l-66 -466q-7 -47 -19.5 -82t-30.5 -56.5t-36.5 -35t-43 -19.5t-42.5 -8t-42 -2z M108 550q-2 0 -2 4l17 122q0 4 4 4h154q3 0 3 -4l-17 -122q0 -4 -5 -4h-154z" />
<glyph unicode="k" horiz-adv-x="512" d="M10 0q-3 0 -3 4l95 672q0 4 3 4h157q3 0 3 -4l-50 -359h28q96 163 98 166q3 4 5 4h170q3 0 1 -4l-150 -231q100 -246 101 -248q2 -4 -1 -4h-173q-2 0 -5 4l-64 182h-29l-26 -182q0 -4 -3 -4h-157z" />
<glyph unicode="l" horiz-adv-x="307" d="M184 -6q-29 0 -48 1.5t-39 6t-32 13.5t-22 23.5t-13.5 36.5t-3.5 52t6 70l68 479q0 4 3 4h156q3 0 3 -4l-68 -479q-6 -39 4 -52t34 -13q8 0 18.5 1t17.5 2t8 1q2 0 3 -4v-25q0 -101 -6 -103q-2 -1 -14.5 -3t-34 -4.5t-40.5 -2.5z" />
<glyph unicode="m" horiz-adv-x="740" d="M10 0q-3 0 -3 4l68 479q0 4 3 4h157q3 0 3 -4l-2 -9q63 19 91 19q79 0 108 -42q76 42 137 42q22 0 38.5 -2.5t35 -9.5t29 -21t20.5 -36.5t9 -56t-5 -79.5l-40 -284q0 -4 -4 -4h-155q-4 0 -4 4l39 273q6 36 3.5 53t-6 20.5t-12.5 3.5q-13 0 -27.5 -5t-22.5 -10l-9 -5 l-1 -5q-1 -5 -2 -17.5t-3 -23.5l-40 -284q0 -4 -4 -4h-156q-3 0 -3 4l39 273q6 35 3.5 52.5t-6 21t-12.5 3.5q-12 0 -26.5 -4t-23.5 -8l-8 -3l-48 -335q0 -4 -3 -4h-157z" />
<glyph unicode="n" horiz-adv-x="500" d="M10 0q-3 0 -3 4l68 479q0 4 3 4h157q3 0 3 -4l-2 -9q66 19 94 19q15 0 26 -1t26 -3.5t26 -9t22.5 -16t18.5 -25t12 -36t4.5 -49.5t-5.5 -65l-40 -284q0 -4 -3 -4h-157q-3 0 -3 4l39 273q6 34 4 51.5t-6.5 21.5t-14.5 4q-12 0 -27.5 -4t-24.5 -8l-9 -3l-48 -335 q0 -4 -3 -4h-157z" />
<glyph unicode="o" horiz-adv-x="473" d="M216 130q13 0 21.5 4t17.5 22.5t14 53.5l10 71q7 48 -2.5 63t-30.5 15q-11 0 -19 -4t-16.5 -22t-13.5 -52l-10 -71q-7 -50 1 -65t28 -15zM197 -8q-30 0 -52 2.5t-47.5 10t-39.5 22t-27.5 37.5t-13.5 57t4 81l13 87q10 69 33 113t58 63.5t66 25.5t75 6q18 0 32 -0.5 t32.5 -3t31 -7t27.5 -12t23.5 -18t19 -26t12.5 -35.5t4.5 -45.5t-4.5 -57.5l-13 -90q-8 -56 -26 -96t-38.5 -62t-51.5 -34t-56.5 -15t-61.5 -3z" />
<glyph unicode="p" horiz-adv-x="488" d="M78 487h157q3 0 3 -4l-2 -12q17 22 86 22q17 0 29 -1t28 -3.5t27 -8.5t23 -16t18.5 -26t11.5 -37t4.5 -51t-5.5 -67l-12 -86q-8 -55 -23.5 -94.5t-32.5 -60.5t-42 -33t-43.5 -14.5t-44.5 -2.5q-12 0 -34 3t-38 7l-17 3l-28 -194q0 -4 -4 -4h-156q-3 0 -3 4l95 672 q0 4 3 4zM268 355q-32 0 -41 -6t-11 -19l-26 -187q25 -13 57 -13q15 0 22.5 14t14.5 64l10 67q12 80 -26 80z" />
<glyph unicode="q" horiz-adv-x="488" d="M240 355q-35 0 -46 -80l-9 -67q-5 -35 -4.5 -52t4 -21.5t12.5 -4.5q14 0 29.5 3t23.5 7l9 3l27 187q1 9 -0.5 13.5t-12.5 8t-33 3.5zM312 487h156q2 0 2 -4l-94 -672q-1 -4 -4 -4h-156q-4 0 -3 4l27 194q-67 -13 -95 -13q-18 0 -31 1.5t-30 6t-27 13t-22 23.5t-15 36.5 t-6 52.5t5 72l12 86q8 58 24.5 99t34 62.5t43.5 33t45 13.5t47 2q68 0 80 -22l2 12q0 4 5 4z" />
<glyph unicode="r" horiz-adv-x="390" d="M10 0q-3 0 -3 4l68 479q0 4 3 4h157q3 0 3 -4l-2 -14q50 24 77 24q65 0 97 -21q1 0 1 -2q0 -3 -25 -58t-28 -62q-1 -3 -5 -3q-16 8 -76 8q-12 0 -27.5 -6t-24.5 -12l-9 -6l-46 -327q0 -4 -3 -4h-157z" />
<glyph unicode="s" horiz-adv-x="451" d="M183 -8q-48 0 -93.5 6.5t-64 11.5t-22.5 7q-2 1 -2 4q0 2 23 56.5t25 57.5q1 2 4 2q1 0 10 -2t24 -4.5t33 -4.5t40 -4t41 -2q37 0 40 19l2 17q1 14 -10.5 19.5t-47.5 10.5q-63 8 -103.5 37.5t-32.5 85.5l9 60q19 128 196 128q94 0 166 -24q1 -1 1 -3t-21.5 -54t-22.5 -55 t-5 -3l-8 2q-8 1 -20.5 2.5t-28 3.5t-36 3.5t-40.5 1.5q-31 0 -32 -16l-2 -17q-1 -11 16 -17t56 -11q69 -8 99 -37t23 -86l-8 -61q-6 -43 -26.5 -71.5t-52.5 -41t-61.5 -17t-67.5 -4.5z" />
<glyph unicode="t" horiz-adv-x="329" d="M197 -5q-24 0 -39.5 1t-34.5 3.5t-30.5 8.5t-23.5 15.5t-18 24.5t-10 36t-3 49.5t6 64.5l24 168h-37q-3 0 -3 4l16 114q0 4 4 4h37l21 149q0 4 4 4h157q2 0 2 -4l-21 -149h77q4 0 4 -4l-16 -114q0 -4 -5 -4h-77l-24 -168q-4 -29 1.5 -44t13.5 -18t23 -3q10 0 20 1t17 2 l6 1q1 0 2 -4v-13.5v-30.5t-0.5 -35.5t-0.5 -30.5v-13q0 -2 -3 -5q-40 -10 -89 -10z" />
<glyph unicode="u" horiz-adv-x="503" d="M483 487q3 0 3 -4l-68 -479q0 -4 -3 -4h-157q-3 0 -3 4l1 7q-65 -19 -93 -19q-15 0 -26 1t-26 3.5t-26 9t-22.5 16t-18.5 25t-12 36t-5 49.5t5 65l41 286q0 4 3 4h156q4 0 4 -4l-39 -275q-6 -34 -3.5 -51.5t7 -21.5t13.5 -4q12 0 27.5 3.5t24.5 7.5l9 4l48 337q0 4 3 4 h157z" />
<glyph unicode="v" horiz-adv-x="475" d="M120 0q-2 1 -3 4l-77 479q-1 4 1 4h164q4 0 4 -4l16 -254h12q83 252 85 254q0 4 4 4h163q2 0 2 -4q-2 -2 -108 -240t-107 -239q-2 -4 -3 -4h-153z" />
<glyph unicode="w" horiz-adv-x="653" d="M77 0q-1 0 -2 4q-1 1 -14 236t-13 243q0 4 4 4h157q4 0 4 -3l-2 -253h6q69 154 71 157q3 4 4 4h104q2 0 3 -4l28 -157h5q64 249 64 252q2 4 7 4h157q2 0 1 -4q0 -1 -78.5 -239.5t-79.5 -239.5q-1 -4 -6 -4h-142q-3 0 -3 4l-33 193h-6q-88 -190 -89 -193q-1 -4 -4 -4h-143 z" />
<glyph unicode="x" horiz-adv-x="479" d="M-24 0q-3 0 -1 4l171 248q-95 228 -96 231q-2 4 2 4h170q4 0 5 -4l23 -96h9q50 93 52 96q4 4 5 4h166q4 0 2 -4l-160 -231q102 -246 103 -248q1 -4 -3 -4h-168q-1 0 -4 4l-32 113h-9q-62 -110 -64 -113q-3 -4 -5 -4h-166z" />
<glyph unicode="y" horiz-adv-x="474" d="M0 -180q-5 0 -3 4q1 2 16 64.5t15 63.5q0 4 5 4h27q39 0 55 43l10 30q-84 451 -85 454q-2 4 1 4h163q4 0 4 -4l23 -239h8q84 236 85 239q2 4 5 4h159q2 0 1 -4l-253 -538q-21 -44 -41 -70.5t-44 -38t-42.5 -14t-52.5 -2.5h-56z" />
<glyph unicode="z" horiz-adv-x="436" d="M6 0q-3 0 -3 4l17 121l2 3q1 2 3 4l185 215l1 7h-151q-3 0 -3 4l18 125q0 4 3 4h343q3 0 3 -4l-18 -125q0 -2 -3 -6l-183 -211l-1 -8h157q3 0 3 -4l-18 -125q0 -4 -4 -4h-351z" />
<glyph unicode="{" horiz-adv-x="335" d="M182 -91q-67 0 -91.5 32.5t-14.5 104.5l18 129q7 48 -4 69.5t-48 21.5q-3 0 -3 4l17 119q0 4 4 4q38 0 54.5 22.5t23.5 68.5l18 129q10 71 43 104t101 33h69q2 0 2 -4l-16 -116q0 -4 -4 -4h-26q-21 0 -29 -11t-11 -32l-17 -122q-8 -61 -26.5 -87.5t-55.5 -42.5v-3 q32 -16 43 -42.5t2 -86.5l-17 -123q-3 -21 2 -32t27 -11h25q3 0 3 -4l-17 -116q0 -4 -3 -4h-69z" />
<glyph unicode="|" horiz-adv-x="319" d="M44 -94q-3 0 -3 4l118 836q0 4 3 4h125q3 0 3 -4l-118 -836q0 -4 -3 -4h-125z" />
<glyph unicode="}" horiz-adv-x="335" d="M49 -91h-69q-3 0 -3 4l17 116q0 4 3 4h25q22 0 30 11t11 32l17 123q8 60 26.5 86.5t55.5 42.5v3q-32 17 -42.5 43t-2.5 87l17 122q6 43 -28 43h-26q-2 0 -2 4l16 116q0 4 4 4h69q68 0 92 -33t14 -104l-18 -129q-7 -45 3 -68t48 -23q3 0 3 -4l-17 -119q0 -4 -4 -4 q-36 0 -53 -21.5t-24 -69.5l-18 -129q-10 -72 -43.5 -104.5t-100.5 -32.5z" />
<glyph unicode="~" d="M70 293q1 11 10 20q46 46 96 46q37 0 85 -29t74 -29q27 0 60 22.5t34 22.5q4 0 3 -7l-11 -79q-2 -13 -10 -21q-49 -49 -98 -49q-36 0 -82 30.5t-74 30.5q-21 0 -42.5 -11t-36 -22t-17.5 -11q-4 0 -2 5z" />
<glyph unicode="&#xa1;" horiz-adv-x="273" d="M130 680h143q4 0 4 -4l-19 -135q0 -4 -5 -4h-143q-2 0 -2 4l19 135q0 4 3 4zM106 469h133q2 0 2 -4l-65 -461q0 -4 -3 -4h-133q-3 0 -3 4l65 461q1 4 4 4z" />
<glyph unicode="&#xa2;" horiz-adv-x="471" d="M162 -97q-3 0 -3 4l13 89q-11 1 -17 2t-18.5 3.5t-20 5.5t-19 8.5t-18 13.5t-15 18.5t-12.5 24.5t-7.5 31.5t-3 40.5t4.5 49l14 104q8 59 29.5 99.5t52.5 59t51.5 25t47.5 9.5l13 89q0 4 3 4h87q4 0 3 -4l-12 -87q61 -4 96 -27q3 -1 2 -5l-53 -111q-1 -2 -4 -2q-1 0 -5 1 t-11.5 2t-17.5 2t-24.5 2t-30.5 1q-55 0 -65 -71l-11 -80q-6 -44 5.5 -58t39.5 -14q16 0 31 1t26 2.5t19 3t13 2.5l5 1q5 0 5 -3q0 -2 10.5 -57.5t11.5 -56.5q2 -6 -2 -6l-5 -2q-5 -2 -14 -5.5t-21.5 -7t-31.5 -6t-39 -3.5l-12 -88q-1 -4 -3 -4h-87z" />
<glyph unicode="&#xa3;" d="M31 0q-3 0 -3 4l36 253h-25q-3 0 -3 4l15 105q0 4 4 4h24l21 147q24 169 232 169q49 0 90.5 -9t55.5 -16t17 -10q4 -1 2 -6q0 -1 -12.5 -33t-24.5 -63.5t-12 -32.5q0 -3 -4 -3q-63 21 -130 21q-40 0 -47 -45l-17 -119h124q2 0 2 -4l-15 -105q0 -4 -3 -4h-123l-15 -105 h197q3 0 3 -4l-20 -144q0 -4 -4 -4h-365z" />
<glyph unicode="&#xa4;" horiz-adv-x="442" d="M211 214q14 0 23.5 3t20 16.5t13.5 38.5l3 25q4 35 -7 45.5t-30 10.5q-54 0 -60 -56l-3 -25q-4 -34 6 -46t34 -12zM137 51h-100q-3 0 -3 3q0 55 42 100q-23 36 -14 99l9 65q9 66 44 96q-20 25 -20 68q0 34 8 34h99q2 0 2 -5q0 -42 46 -42q41 0 51 43q1 4 5 4h99q3 0 3 -3 q0 -56 -41 -99q23 -32 14 -96l-9 -65q-10 -66 -44 -101q19 -29 19 -67q0 -34 -8 -34h-98q-3 0 -3 4q0 25 -11 34t-34 9q-22 0 -34.5 -8t-17.5 -35q0 -4 -4 -4z" />
<glyph unicode="&#xa5;" horiz-adv-x="529" d="M143 0q-4 0 -3 4l16 116h-91q-4 0 -4 4l12 85q0 4 5 4h92l5 37h-92q-4 0 -4 4l12 85q0 4 4 4h54q-87 331 -88 333q-2 4 2 4h171q3 0 4 -4l49 -231h6q110 228 111 231q1 4 4 4h168q3 0 2 -4l-182 -333h52q3 0 2 -4l-12 -85q0 -4 -3 -4h-91l-5 -37h91q2 0 2 -4l-12 -85 q0 -4 -3 -4h-93l-16 -116q-1 -4 -3 -4h-162z" />
<glyph unicode="&#xa6;" horiz-adv-x="319" d="M43 -94q-3 0 -3 4l51 358q0 4 3 4h125q3 0 3 -4l-51 -358q0 -4 -3 -4h-125zM111 389q-3 0 -3 4l50 353q0 4 3 4h125q3 0 3 -4l-50 -353q0 -4 -3 -4h-125z" />
<glyph unicode="&#xa7;" horiz-adv-x="461" d="M4 25q-2 0 -2 3t26 56.5t26 54.5q0 3 5 3q1 -1 21.5 -5.5t56.5 -9.5t66 -5q38 0 40 19l2 14q2 14 -8.5 19.5t-49.5 10.5q-24 3 -46 9t-46 19t-36.5 37.5t-7.5 56.5l8 58q2 13 6.5 26t8.5 20t9.5 14t5.5 8q-16 29 -11 66l8 58q18 129 196 129q78 0 162 -28q5 -2 3 -5 q0 -2 -22.5 -52.5t-22.5 -52.5q0 -3 -5 -3q-42 14 -129 14q-32 0 -34 -16l-2 -14q-1 -6 4 -10.5t16 -8t23 -5.5t30 -4q64 -8 97 -34t25 -88l-8 -61q-4 -32 -28 -61q15 -27 9 -69l-8 -60q-5 -36 -21 -61.5t-36 -39.5t-48.5 -21.5t-50.5 -9.5t-51 -2q-49 0 -95 8t-63 14t-23 9 zM280 303q0 4 4 28l2 14q1 7 -10.5 8t-30.5 6t-31 20q-15 -9 -17 -28l-2 -14q-2 -12 25 -20.5t55 -8.5zM215 380l-1 -1q0 1 1 1z" />
<glyph unicode="&#xa8;" horiz-adv-x="440" d="M286 550q-4 0 -3 4l17 122q0 4 5 4h113q2 0 2 -4l-17 -122q0 -4 -4 -4h-113zM115 550q-4 0 -3 4l17 122q0 4 5 4h113q2 0 2 -4l-17 -122q0 -4 -4 -4h-113z" />
<glyph unicode="&#xa9;" horiz-adv-x="673" d="M392 686q105 0 174 -86t69 -213q0 -158 -104 -276t-237 -118q-105 0 -173.5 86t-68.5 212q0 159 103.5 277t236.5 118zM306 74q100 0 177 90.5t77 212.5q0 97 -50.5 162.5t-128.5 65.5q-98 0 -176 -91t-78 -212q0 -96 50.5 -162t128.5 -66zM332 152q-76 0 -113 32.5 t-24 120.5l11 74q21 148 179 148q29 0 53 -5t31.5 -8.5t9.5 -5.5q1 -1 1 -4l-37 -85q0 -1 -1 -1.5t-2 0.5q-29 6 -65 6q-8 0 -16 -2.5t-18.5 -15.5t-13.5 -35l-9 -60q-4 -25 0.5 -37.5t11.5 -15t21 -2.5q12 0 23.5 1t19.5 2t14 2t10 2l4 1l2 -2q0 -1 6.5 -42.5t6.5 -43.5 q0 -3 -2 -4q-40 -20 -103 -20z" />
<glyph unicode="&#xaa;" horiz-adv-x="264" d="M112 384q-36 0 -55 20.5t-14 54.5l5 32q6 36 31.5 55.5t58.5 19.5q12 0 28.5 -2t26.5 -4l10 -2l4 26q4 23 -6.5 30.5t-38.5 7.5q-9 0 -19 -1t-18 -2t-14.5 -2.5t-10.5 -2.5l-4 -1q-3 0 -3 2l-5 48q0 3 1 3q34 17 91 17q23 0 38 -2.5t32.5 -11.5t24.5 -30.5t2 -55.5 l-27 -191q0 -2 -3 -2h-64q-2 0 -2 2l2 12q-23 -20 -71 -20zM142 441q46 0 50 28l5 39q-29 8 -50 8q-30 0 -35 -26l-3 -16q-2 -14 7 -23.5t26 -9.5z" />
<glyph unicode="&#xab;" horiz-adv-x="569" d="M268 522q2 -2 36 -44t35 -43q3 -1 -1 -5l-163 -166q116 -164 116 -166q3 -2 0 -5q-1 -1 -25 -22.5t-47.5 -42.5t-23.5 -22q-2 -2 -4 0t-95.5 128t-93.5 127q0 5 1 6l41 40q42 40 90 87.5t89 87t41 40.5q2 2 4 0zM506 522q2 -2 36 -44t35 -43q3 -1 -1 -5l-162 -166 q115 -164 115 -166q3 -2 0 -5q-1 -1 -25 -22.5t-47.5 -42.5t-23.5 -22q-2 -2 -4 0l-189 255q-2 3 1 6l41 40q42 40 90 87.5t89 87t41 40.5q2 2 4 0z" />
<glyph unicode="&#xac;" d="M302 209h-262q-3 0 -3 4l19 129q0 4 3 4h394q4 0 3 -4l-36 -258q0 -4 -4 -4h-128q-4 0 -4 4z" />
<glyph unicode="&#xad;" horiz-adv-x="356" d="M32 207q-3 0 -3 4l18 129q0 4 4 4h269q4 0 4 -4l-18 -129q0 -4 -5 -4h-269z" />
<glyph unicode="&#xae;" horiz-adv-x="379" d="M202 500h19q2 0 5.5 1.5t8 6t5.5 12.5l2 11q2 12 -3.5 16.5t-11.5 4.5h-18zM185 385h-49q-2 0 -2 1l30 213h74q10 0 18.5 -2t19 -8t15.5 -20.5t2 -35.5l-2 -15q-6 -42 -31 -55l17 -77q0 -1 -1 -1h-53q-1 0 -1 1l-12 67h-15l-9 -67zM197 341q57 0 100 50.5t43 119.5 q0 54 -28.5 91t-72.5 37q-56 0 -100 -51t-44 -119q0 -54 29 -91t73 -37zM246 684q59 0 98 -48t39 -119q0 -89 -58.5 -155.5t-133.5 -66.5q-59 0 -98 48.5t-39 119.5q0 89 58.5 155t133.5 66z" />
<glyph unicode="&#xaf;" horiz-adv-x="439" d="M396 563h-273q-4 0 -4 4l16 109q0 4 4 4h273q3 0 3 -4l-16 -109q0 -4 -3 -4z" />
<glyph unicode="&#xb0;" horiz-adv-x="350" d="M201 491q14 0 22.5 7t11.5 30l4 26q6 36 -23 36q-15 0 -24 -7.5t-12 -28.5l-4 -26q-3 -22 3.5 -29.5t21.5 -7.5zM186 387q-54 0 -85 26t-21 98l9 62q17 121 145 121q120 0 103 -121l-9 -62q-18 -124 -142 -124z" />
<glyph unicode="&#xb1;" d="M173 207q-3 0 -3 4l20 139h-133q-3 0 -3 4l19 129q0 4 3 4h133l20 139q0 4 3 4h124q4 0 4 -4l-20 -139h132q4 0 4 -4l-19 -129q0 -4 -4 -4h-132l-20 -139q0 -4 -4 -4h-124zM9 0q-3 0 -3 4l18 125q0 4 3 4h395q3 0 3 -4l-18 -125q0 -4 -3 -4h-395z" />
<glyph unicode="&#xb2;" horiz-adv-x="273" d="M239 270h-208q-2 0 -2 2l9 63q0 2 3 5q10 11 33 36t33.5 36.5t28.5 31.5t27 31.5t19.5 26t15.5 25t6 18.5l4 29q2 16 -5 24.5t-15.5 10.5t-19.5 2q-10 0 -22 -1.5t-22 -3.5t-18.5 -4t-13.5 -4l-6 -1q-1 -1 -2 -0.5t-1 1.5t-2.5 29t-2.5 30t2 3q42 21 99 21q21 0 38 -3 t35.5 -12t26.5 -29.5t4 -51.5l-6 -46q-3 -23 -24.5 -57.5t-40 -57.5t-65.5 -78l-1 -6h103v-2l-9 -66q0 -2 -1 -2z" />
<glyph unicode="&#xb3;" horiz-adv-x="277" d="M32 285q0 1 -0.5 1t-0.5 1t11 31l11 29q0 1 2 1l5 -1q6 -1 14.5 -3t19 -4t22.5 -3t23 -1q43 0 49 37l4 26q7 46 -34 46h-41q-3 0 -3 2l9 62q0 2 3 2h42q14 0 25 10t14 29l4 25q2 16 -5 25t-15 11t-19 2q-16 0 -36 -3t-32 -6t-14 -4q-4 -2 -4 1q0 1 -1 28.5t-1 30.5 q0 2 1 3t12.5 5.5t35.5 9t49 4.5q23 0 40.5 -3t35 -12t25 -29t2.5 -50l-6 -39q-3 -18 -12 -34t-17 -23l-7 -8l-1 -5q3 -2 8 -6.5t12 -23.5t3 -43l-6 -44q-8 -57 -42 -76t-87 -19q-28 0 -52.5 4.5t-35.5 8.5z" />
<glyph unicode="&#xb4;" horiz-adv-x="440" d="M274 550q-4 -4 -5 -4h-112q-3 0 0 4l88 148q3 4 6 4h133q4 0 1 -4z" />
<glyph unicode="&#xb6;" horiz-adv-x="604" d="M162 -180q-5 0 -4 4l55 394q-18 0 -38.5 4.5t-45.5 17.5t-43.5 33t-28 56t-3.5 82l11 80q7 52 32.5 91.5t59 59t64.5 29t59 9.5h329q3 0 3 -4l-120 -852q0 -4 -3 -4h-140q-5 0 -4 4l101 719h-40l-101 -719q0 -4 -3 -4h-140z" />
<glyph unicode="&#xb7;" horiz-adv-x="248" d="M44 191q-3 0 -3 4l20 142q0 4 4 4h136q2 0 2 -4l-20 -142q0 -4 -3 -4h-136z" />
<glyph unicode="&#xb8;" horiz-adv-x="440" d="M194 -166h-134q-4 0 -2 4q1 1 48.5 84t48.5 84q3 4 6 4h110q3 0 2 -4l-75 -168q0 -4 -4 -4z" />
<glyph unicode="&#xb9;" horiz-adv-x="267" d="M188 270h-67q-2 0 -2 2l45 321q-68 -50 -69 -51q-2 0 -3 1q0 1 -3.5 32t-3.5 32q0 2 4 4q1 1 42.5 33t42.5 33t4 1h67q3 0 3 -2l-57 -404q0 -2 -3 -2z" />
<glyph unicode="&#xba;" horiz-adv-x="263" d="M154 451q21 0 34 12t18 53l5 41q5 39 -3.5 51t-28.5 12q-13 0 -22 -3.5t-18 -18t-12 -41.5l-5 -41q-5 -41 3 -53t29 -12zM145 387q-54 0 -80 24t-15 101l7 49q11 76 44.5 99.5t86.5 23.5q25 0 40.5 -3t32 -14.5t22.5 -37.5t0 -67l-7 -50q-6 -42 -18.5 -68.5t-32.5 -38 t-37 -15t-43 -3.5z" />
<glyph unicode="&#xbb;" horiz-adv-x="558" d="M285 6q-2 2 -36.5 44t-35.5 43q-2 2 1 5l163 166q-116 164 -117 166q-2 2 1 5q1 1 25 22.5t47.5 42.5t23.5 22q2 2 4 0l189 -255q1 -1 -1 -6q0 -1 -40.5 -40.5t-89 -87t-89.5 -87.5l-41 -40q-2 -2 -4 0zM57 6q-2 2 -36 44t-35 43q-3 1 1 5l162 166q-115 164 -116 166 q-3 1 1 5q1 1 24.5 22.5t47 42.5t23.5 22q2 2 4 0l189 -255q3 -3 0 -6l-261 -255q-2 -2 -4 0z" />
<glyph unicode="&#xbc;" horiz-adv-x="725" d="M146 -6q-2 1 -2 3q-7 2 86.5 172.5t187 340.5t85.5 173q4 3 5 3h82q4 0 1 -4l-358 -684q-3 -4 -6 -4h-81zM575 0h-63q-1 0 -1 2l9 63h-135q-1 0 -1 3l9 65l3 6l32 67q32 66 64 133l32 67q2 2 3 2h70v-2l-124 -265v-5h57l9 70q2 2 3 2h63q3 0 1 -2l-9 -70h31q2 0 2 -3 l-9 -65q0 -3 -3 -3h-31l-9 -63q0 -2 -3 -2zM223 272h-67q-2 0 -2 2l45 321q-67 -50 -68 -51q-2 0 -3 1q0 1 -3.5 32t-3.5 32t4 4l85 66q1 1 3 1h67q3 0 3 -2l-57 -404q0 -2 -3 -2z" />
<glyph unicode="&#xbd;" horiz-adv-x="754" d="M149 -6l-3 3q-7 2 87 172.5t187.5 340.5t85.5 173q3 3 5 3h82q4 0 1 -4q-1 -1 -180 -342t-179 -342q-1 -4 -5 -4h-81zM638 0h-209v2l9 63q0 4 1 5q10 11 33 36t33.5 36.5t28.5 31.5t27 31.5t19.5 26t15.5 25t6 18.5l4 29q2 16 -5 24.5t-15 10.5t-19 2q-10 0 -22.5 -1.5 t-22.5 -3.5t-18.5 -4t-13.5 -4l-6 -1l-1 1q0 1 -3 29t-3 30q0 3 1 3q42 21 100 21q21 0 38 -3t36 -12t27.5 -29.5t3.5 -51.5l-7 -46q-5 -35 -52 -110.5t-65 -82.5l-15 -6h104q1 0 1 -2l-9 -66q0 -2 -2 -2zM223 272h-67q-2 0 -2 2l45 321q-67 -50 -68 -51q-2 0 -3 1 q0 1 -3.5 32t-3.5 32t4 4l85 66q1 1 3 1h67q3 0 3 -2l-57 -404q0 -2 -3 -2z" />
<glyph unicode="&#xbe;" horiz-adv-x="777" d="M197 -6q-1 1 -1 3q-8 2 86 172.5t187.5 340.5t85.5 173q3 3 5 3h81q5 0 2 -4l-358 -684q-4 -4 -6 -4h-82zM78 289q-1 1 -1 2t10 31l10 29q0 1 2 1l5 -1q6 -1 15 -3t19 -4t22.5 -3t23.5 -1q43 0 49 37l4 26q7 46 -35 46h-41q-3 0 -3 2l9 62q0 2 3 2h42q14 0 26 10.5 t14 28.5l3 25q4 38 -37 38q-17 0 -37 -3t-32 -6t-14 -4q-4 -2 -4 1q0 2 -1 28.5t-1 29.5q0 2 2 4q1 1 12 5.5t35 9t49 4.5q23 0 39.5 -3t34 -12t25 -29t3.5 -50l-5 -39q-2 -18 -11 -34t-17 -23l-8 -8l-1 -5q3 -2 8 -6.5t12 -23.5t3 -43l-7 -44q-9 -57 -43 -76t-86 -19 q-28 0 -52 4.5t-34 8.5zM626 0h-62q-3 0 -3 2l9 63h-134v3l9 65l3 6l32 67q31 66 63 133l32 67l2 2h71q1 0 1 -2l-124 -265l-1 -5h56l10 70q0 2 3 2h62q3 0 3 -2l-10 -70h30q3 0 3 -3l-9 -65q0 -3 -4 -3h-30l-9 -63q0 -2 -3 -2z" />
<glyph unicode="&#xbf;" horiz-adv-x="408" d="M189 680h143q2 0 2 -4l-19 -135q0 -4 -3 -4h-143q-3 0 -3 4l19 135q0 4 4 4zM156 472h148q2 0 2 -4l-3 -23q-5 -41 -26 -79.5t-43 -62.5t-41 -50.5t-22 -45.5l-3 -24q-2 -16 3 -26.5t11.5 -14t10.5 -3.5q12 0 25 1.5t24.5 3.5t22.5 4.5t20 5t16 4.5t11 4l4 1q5 2 5 -2 q0 -2 6 -62t6 -62q0 -5 -2 -6q-5 -3 -23 -10.5t-58.5 -17t-80.5 -9.5q-36 0 -64 6t-56 22t-40 52t-5 89l6 44q5 38 69 118t69 120l3 23q0 4 5 4z" />
<glyph unicode="&#xc0;" horiz-adv-x="545" d="M130 0h-170q-3 0 -1 4l283 672q1 4 4 4h186q4 0 5 -4l89 -672q2 -4 -3 -4h-170q-3 0 -4 4l-5 107h-173q-36 -104 -37 -107q-1 -4 -4 -4zM335 750l-70 148q-3 4 1 4h135q4 0 5 -4l46 -148q1 -4 -1 -4h-111q-3 0 -5 4zM225 244h103l-9 229h-20z" />
<glyph unicode="&#xc1;" horiz-adv-x="545" d="M130 0h-170q-3 0 -1 4l283 672q1 4 4 4h186q4 0 5 -4l89 -672q2 -4 -3 -4h-170q-3 0 -4 4l-5 107h-173q-36 -104 -37 -107q-1 -4 -4 -4zM361 750q-4 -4 -5 -4h-112q-4 0 -1 4l88 148q3 4 6 4h133q5 0 2 -4zM225 244h103l-9 229h-20z" />
<glyph unicode="&#xc2;" horiz-adv-x="545" d="M130 0h-170q-3 0 -1 4l283 672q1 4 4 4h186q4 0 5 -4l89 -672q2 -4 -3 -4h-170q-3 0 -4 4l-5 107h-173q-36 -104 -37 -107q-1 -4 -4 -4zM302 745h-111q-1 0 -1 4q-1 2 55.5 75t56.5 74q-1 1 0.5 2t4.5 1h122q6 0 8 -4l67 -148q2 -4 -2 -4h-110q-4 0 -5 4l-30 63h-2 q-44 -60 -46 -63q-3 -4 -7 -4zM225 244h103l-9 229h-20z" />
<glyph unicode="&#xc3;" horiz-adv-x="545" d="M130 0h-170q-3 0 -1 4l283 672q1 4 4 4h186q4 0 5 -4l89 -672q2 -4 -3 -4h-170q-3 0 -4 4l-5 107h-173q-36 -104 -37 -107q-1 -4 -4 -4zM212 755q-4 0 -2 5l11 82q1 10 10 20q30 35 77 35q28 0 64.5 -19t57.5 -19q22 0 46.5 17.5t26.5 17.5q5 0 4 -6l-11 -80 q-2 -13 -11 -21q-43 -39 -78 -39q-29 0 -64.5 20.5t-54.5 20.5q-23 0 -49 -17t-27 -17zM225 244h103l-9 229h-20z" />
<glyph unicode="&#xc4;" horiz-adv-x="545" d="M130 0h-170q-3 0 -1 4l283 672q1 4 4 4h186q4 0 5 -4l89 -672q2 -4 -3 -4h-170q-3 0 -4 4l-5 107h-173q-36 -104 -37 -107q-1 -4 -4 -4zM206 750q-4 0 -3 4l17 122q0 4 4 4h113q3 0 3 -4l-17 -122q0 -4 -4 -4h-113zM377 750q-4 0 -3 4l17 122q0 4 4 4h113q3 0 3 -4 l-17 -122q0 -4 -4 -4h-113zM225 244h103l-9 229h-20z" />
<glyph unicode="&#xc5;" horiz-adv-x="545" d="M130 0h-170q-3 0 -1 4l283 672q1 4 4 4h186q4 0 5 -4l89 -672q2 -4 -3 -4h-170q-3 0 -4 4l-5 107h-173q-36 -104 -37 -107q-1 -4 -4 -4zM343 723q-45 0 -70 19.5t-16 79.5l4 25q9 58 39.5 77.5t76.5 19.5q20 0 34 -3t29 -11.5t20.5 -29.5t0.5 -53l-4 -25q-9 -61 -39 -80 t-75 -19zM225 244h103l-9 229h-20zM353 789q17 0 27.5 7.5t14.5 32.5l2 11q7 39 -30 39t-44 -39l-2 -11q-4 -24 5 -32t27 -8z" />
<glyph unicode="&#xc6;" horiz-adv-x="781" d="M269 244h87l34 240h-20zM141 0h-171q-4 0 -1 4q2 3 186 337t185 335q0 4 5 4h445q3 0 3 -4l-20 -141q0 -4 -4 -4h-204l-15 -113h163q2 0 2 -4l-20 -141q0 -4 -3 -4h-163l-17 -120h204q3 0 2 -4l-20 -141q0 -4 -3 -4h-373l15 111h-144q-47 -104 -48 -107q-1 -4 -4 -4z" />
<glyph unicode="&#xc7;" horiz-adv-x="478" d="M226 -166h-134q-3 0 -1 4q1 1 18.5 32t39 69.5t31.5 54.5q-82 10 -123.5 67t-23.5 188l26 190q9 65 30.5 112t47.5 74t63 42.5t69.5 20t74.5 4.5q53 0 92.5 -7t51 -12t14.5 -8t1 -6t-33 -67t-31 -65q0 -3 -5 -3q-2 1 -16 4t-41.5 6t-53.5 3q-17 0 -28.5 -3t-26.5 -13 t-25.5 -35t-15.5 -64l-22 -159q-10 -71 5.5 -91t55.5 -20q19 0 38.5 1.5t34.5 3.5t27.5 4t19.5 3.5t8 1.5q2 2 4 -2l26 -133q1 -2 -3 -6q-52 -26 -122 -32l-68 -155q-2 -4 -5 -4z" />
<glyph unicode="&#xc8;" horiz-adv-x="463" d="M8 0l96 680h394q2 0 2 -4l-20 -141q0 -4 -3 -4h-225l-16 -114h183q4 0 3 -4l-20 -140q0 -4 -4 -4h-183l-17 -120h225q3 0 2 -4l-19 -141q-2 -4 -4 -4h-394zM293 750l-70 148q-1 4 2 4h135q3 0 4 -4l46 -148q1 -4 -1 -4h-111q-3 0 -5 4z" />
<glyph unicode="&#xc9;" horiz-adv-x="463" d="M8 0l96 680h394q2 0 2 -4l-20 -141q0 -4 -3 -4h-225l-16 -114h183q4 0 3 -4l-20 -140q0 -4 -4 -4h-183l-17 -120h225q3 0 2 -4l-19 -141q-2 -4 -4 -4h-394zM329 750q-4 -4 -5 -4h-112q-3 0 0 4l87 148q3 4 7 4h133q4 0 1 -4z" />
<glyph unicode="&#xca;" horiz-adv-x="463" d="M8 0l96 680h394q2 0 2 -4l-20 -141q0 -4 -3 -4h-225l-16 -114h183q4 0 3 -4l-20 -140q0 -4 -4 -4h-183l-17 -120h225q3 0 2 -4l-19 -141q-2 -4 -4 -4h-394zM270 745h-111q-2 0 -2 4q-1 2 55.5 75t56.5 74q3 2 6 3h122q5 0 7 -4l67 -148q2 -4 -1 -4h-110q-5 0 -6 4l-30 63 h-2q-44 -60 -46 -63q-3 -4 -6 -4z" />
<glyph unicode="&#xcb;" horiz-adv-x="463" d="M8 0l96 680h394q2 0 2 -4l-20 -141q0 -4 -3 -4h-225l-16 -114h183q4 0 3 -4l-20 -140q0 -4 -4 -4h-183l-17 -120h225q3 0 2 -4l-19 -141q-2 -4 -4 -4h-394zM163 750q-4 0 -3 4l17 122q0 4 5 4h113q2 0 2 -4l-17 -122q0 -4 -4 -4h-113zM334 750q-4 0 -3 4l17 122q0 4 5 4 h113q2 0 2 -4l-17 -122q0 -4 -4 -4h-113z" />
<glyph unicode="&#xcc;" horiz-adv-x="245" d="M11 0q-3 0 -3 4l95 672q0 4 3 4h163q3 0 3 -4l-95 -672q0 -4 -3 -4h-163zM185 750l-70 148q-3 4 1 4h135q4 0 5 -4l46 -148q1 -4 -1 -4h-111q-3 0 -5 4z" />
<glyph unicode="&#xcd;" horiz-adv-x="245" d="M11 0q-3 0 -3 4l95 672q0 4 3 4h163q3 0 3 -4l-95 -672q0 -4 -3 -4h-163zM212 750q-4 -4 -5 -4h-112q-4 0 -1 4l88 148q3 4 6 4h133q5 0 2 -4z" />
<glyph unicode="&#xce;" horiz-adv-x="245" d="M11 0q-3 0 -3 4l95 672q0 4 3 4h163q3 0 3 -4l-95 -672q0 -4 -3 -4h-163zM152 745h-111q-1 0 -1 4q-1 2 55.5 75t56.5 74q-1 1 0.5 2t4.5 1h122q6 0 8 -4l67 -148q2 -4 -2 -4h-110q-4 0 -5 4l-30 63h-2q-44 -60 -46 -63q-3 -4 -7 -4z" />
<glyph unicode="&#xcf;" horiz-adv-x="245" d="M11 0q-3 0 -3 4l95 672q0 4 4 4h163q3 0 2 -4l-94 -672q0 -4 -4 -4h-163zM56 750q-4 0 -3 4l17 122q0 4 5 4h113q2 0 2 -4l-17 -122q0 -4 -4 -4h-113zM227 750q-4 0 -3 4l17 122q0 4 5 4h113q2 0 2 -4l-17 -122q0 -4 -4 -4h-113z" />
<glyph unicode="&#xd0;" horiz-adv-x="546" d="M200 157h54q36 0 53.5 20.5t27.5 97.5l18 133q4 33 4 55t-3 34t-11 18t-15.5 7t-21.5 1h-54l-17 -114h56q3 0 3 -4l-18 -124q0 -4 -3 -4h-56zM234 0h-225l39 277h-29q-2 0 -2 4l17 124q1 4 3 4h29l39 271h225q17 0 29.5 -0.5t30.5 -2.5t31 -6t28.5 -10.5t27 -16.5 t22.5 -23.5t17.5 -33t11 -43t4 -54.5t-5.5 -67l-22 -161q-10 -73 -32.5 -124.5t-46.5 -77.5t-61.5 -40.5t-63.5 -17t-66 -2.5z" />
<glyph unicode="&#xd1;" horiz-adv-x="569" d="M7 0q-3 0 -3 4l95 672q0 4 4 4h175q4 0 5 -3l98 -377h8l53 376q0 4 3 4h160q4 0 3 -4l-95 -672q0 -4 -4 -4h-178q-5 0 -6 4l-95 375h-10l-53 -375q0 -4 -3 -4h-157zM225 755q-4 0 -2 5l11 82q1 10 10 20q30 35 77 35q28 0 65 -19t58 -19q22 0 46.5 17.5t26.5 17.5 q4 0 4 -6l-12 -80q-2 -13 -11 -21q-43 -39 -78 -39q-29 0 -64.5 20.5t-54.5 20.5q-23 0 -49 -17t-27 -17z" />
<glyph unicode="&#xd2;" horiz-adv-x="524" d="M230 -11q-22 0 -38.5 1t-37 4t-35 8.5t-30.5 15t-27 23t-20 33t-13 44t-4 57.5t6 73l27 189q10 68 31 116.5t45.5 74.5t60.5 40.5t64.5 18t68.5 3.5q21 0 37 -1t36.5 -4t35.5 -8t31 -14.5t27 -22t20.5 -32t14 -43.5t4.5 -56.5t-6 -71.5l-27 -189q-10 -72 -32 -122.5 t-46 -76.5t-61 -40t-64 -17t-68 -3zM252 145q38 0 53.5 19.5t26.5 95.5l22 162q3 40 5 62.5t-7 34t-18 14t-28 2.5q-36 0 -52.5 -19t-26.5 -94l-23 -162q-11 -76 -1 -95.5t49 -19.5zM325 750l-70 148q-1 4 2 4h135q3 0 4 -4l46 -148q1 -4 -1 -4h-111q-3 0 -5 4z" />
<glyph unicode="&#xd3;" horiz-adv-x="524" d="M230 -11q-22 0 -38.5 1t-37 4t-35 8.5t-30.5 15t-27 23t-20 33t-13 44t-4 57.5t6 73l27 189q10 68 31 116.5t45.5 74.5t60.5 40.5t64.5 18t68.5 3.5q21 0 37 -1t36.5 -4t35.5 -8t31 -14.5t27 -22t20.5 -32t14 -43.5t4.5 -56.5t-6 -71.5l-27 -189q-10 -72 -32 -122.5 t-46 -76.5t-61 -40t-64 -17t-68 -3zM252 145q38 0 53.5 19.5t26.5 95.5l22 162q3 40 5 62.5t-7 34t-18 14t-28 2.5q-36 0 -52.5 -19t-26.5 -94l-23 -162q-11 -76 -1 -95.5t49 -19.5zM351 750q-4 -4 -5 -4h-112q-3 0 0 4l88 148q3 4 6 4h133q4 0 1 -4z" />
<glyph unicode="&#xd4;" horiz-adv-x="524" d="M230 -11q-22 0 -38.5 1t-37 4t-35 8.5t-30.5 15t-27 23t-20 33t-13 44t-4 57.5t6 73l27 189q10 68 31 116.5t45.5 74.5t60.5 40.5t64.5 18t68.5 3.5q21 0 37 -1t36.5 -4t35.5 -8t31 -14.5t27 -22t20.5 -32t14 -43.5t4.5 -56.5t-6 -71.5l-27 -189q-10 -72 -32 -122.5 t-46 -76.5t-61 -40t-64 -17t-68 -3zM252 145q38 0 53.5 19.5t26.5 95.5l22 162q3 40 5 62.5t-7 34t-18 14t-28 2.5q-36 0 -52.5 -19t-26.5 -94l-23 -162q-11 -76 -1 -95.5t49 -19.5zM293 745h-111q-1 0 -1 4q-1 2 55 75t56 74q3 2 6 3h122q5 0 7 -4l67 -148q2 -4 -1 -4h-110 q-5 0 -6 4l-30 63h-2q-44 -60 -46 -63q-3 -4 -6 -4z" />
<glyph unicode="&#xd5;" horiz-adv-x="524" d="M252 145q38 0 53.5 19.5t26.5 95.5l22 162q3 40 5 62.5t-7 34t-18 14t-28 2.5q-36 0 -52.5 -19t-26.5 -94l-23 -162q-11 -76 -1 -95.5t49 -19.5zM230 -11q-22 0 -38.5 1t-37 4t-35 8.5t-30.5 15t-27 23t-20 33t-13 44t-4 57.5t6 73l27 189q10 68 31 116.5t45.5 74.5 t60.5 40.5t64.5 18t68.5 3.5q21 0 37 -1t36.5 -4t35.5 -8t31 -14.5t27 -22t20.5 -32t14 -43.5t4.5 -56.5t-6 -71.5l-27 -189q-10 -72 -32 -122.5t-46 -76.5t-61 -40t-64 -17t-68 -3zM202 755q-2 0 -2 5l11 82q1 10 10 20q30 35 77 35q28 0 65 -19t58 -19q22 0 46.5 17.5 t26.5 17.5q6 0 4 -6l-11 -80q-2 -13 -11 -21q-43 -39 -79 -39q-29 0 -64.5 20.5t-54.5 20.5q-23 0 -49 -17t-27 -17z" />
<glyph unicode="&#xd6;" horiz-adv-x="524" d="M230 -11q-22 0 -38.5 1t-37 4t-35 8.5t-30.5 15t-27 23t-20 33t-13 44t-4 57.5t6 73l27 189q10 68 31 116.5t45.5 74.5t60.5 40.5t64.5 18t68.5 3.5q21 0 37 -1t36.5 -4t35.5 -8t31 -14.5t27 -22t20.5 -32t14 -43.5t4.5 -56.5t-6 -71.5l-27 -189q-10 -72 -32 -122.5 t-46 -76.5t-61 -40t-64 -17t-68 -3zM252 145q38 0 53.5 19.5t26.5 95.5l22 162q3 40 5 62.5t-7 34t-18 14t-28 2.5q-36 0 -52.5 -19t-26.5 -94l-23 -162q-11 -76 -1 -95.5t49 -19.5zM368 750q-5 0 -4 4l17 122q0 4 5 4h113q2 0 2 -4l-17 -122q0 -4 -3 -4h-113zM197 750 q-5 0 -4 4l17 122q0 4 5 4h113q2 0 2 -4l-17 -122q0 -4 -3 -4h-113z" />
<glyph unicode="&#xd7;" d="M106 55l-36 43q-35 44 -36 45t1 6l119 126q-82 125 -84 127t1 5q1 1 25 23t48 43.5t24 22.5q3 3 4 0l85 -127q120 125 121 127q2 3 5 0l73 -89q1 -1 -1 -5l-121 -127q85 -124 86 -126q2 -3 -1 -6q-1 -1 -25.5 -22.5t-48.5 -43t-24 -22.5q-1 -1 -2.5 -1t-2.5 1l-85 126 q-119 -124 -121 -126t-4 0z" />
<glyph unicode="&#xd8;" horiz-adv-x="524" d="M-3 -40q-4 0 -1 4l55 91q-38 64 -20 193l27 189q10 68 31 116.5t45.5 74.5t60.5 40.5t64.5 18t68.5 3.5q46 0 78 -5l19 33q2 4 6 4h131q4 0 1 -4l-56 -94q39 -64 21 -187l-27 -189q-10 -72 -32 -122.5t-46 -76.5t-61 -40t-64 -17t-68 -3q-48 0 -78 6q-5 -7 -9.5 -15 t-6.5 -12l-3 -4q-3 -4 -5 -4h-131zM252 145q38 0 53.5 19.5t26.5 95.5l23 162q3 40 5 62.5t-7 34t-18 14t-28 2.5q-36 0 -53 -19t-27 -94l-23 -162q-11 -76 -1 -95.5t49 -19.5z" />
<glyph unicode="&#xd9;" horiz-adv-x="540" d="M222 -10q-124 0 -162 61.5t-18 199.5l59 425q1 4 4 4h163q3 0 2 -4l-58 -413q-11 -52 -5.5 -84t38.5 -32h32q31 0 43.5 25.5t21.5 90.5l58 413q0 4 4 4h163q4 0 4 -4l-60 -425q-9 -65 -23.5 -108.5t-42.5 -80.5t-75 -54.5t-116 -17.5h-32zM332 750l-70 148q-3 4 1 4h135 q4 0 5 -4l46 -148q1 -4 -2 -4h-111q-2 0 -4 4z" />
<glyph unicode="&#xda;" horiz-adv-x="540" d="M222 -10q-124 0 -162 61.5t-18 199.5l59 425q1 4 4 4h163q3 0 2 -4l-58 -413q-11 -52 -5.5 -84t38.5 -32h32q31 0 43.5 25.5t21.5 90.5l58 413q0 4 4 4h163q4 0 4 -4l-60 -425q-9 -65 -23.5 -108.5t-42.5 -80.5t-75 -54.5t-116 -17.5h-32zM359 750q-4 -4 -6 -4h-112 q-3 0 0 4l88 148q3 4 6 4h133q5 0 2 -4z" />
<glyph unicode="&#xdb;" horiz-adv-x="540" d="M222 -10q-124 0 -162 61.5t-18 199.5l59 425q1 4 4 4h163q3 0 2 -4l-58 -413q-11 -52 -5.5 -84t38.5 -32h32q31 0 43.5 25.5t21.5 90.5l58 413q0 4 4 4h163q4 0 4 -4l-60 -425q-9 -65 -23.5 -108.5t-42.5 -80.5t-75 -54.5t-116 -17.5h-32zM299 745h-111q-1 0 -1 4 q-1 2 55.5 75t56.5 74q-1 1 0.5 2t4.5 1h122q6 0 8 -4l67 -148q2 -4 -2 -4h-110q-4 0 -5 4l-30 63h-2q-44 -60 -46 -63q-3 -4 -7 -4z" />
<glyph unicode="&#xdc;" horiz-adv-x="540" d="M222 -10q-124 0 -162 61.5t-18 199.5l59 425q1 4 4 4h163q3 0 2 -4l-58 -413q-11 -52 -5.5 -84t38.5 -32h32q31 0 43.5 25.5t21.5 90.5l58 413q0 4 4 4h163q4 0 4 -4l-60 -425q-9 -65 -23.5 -108.5t-42.5 -80.5t-75 -54.5t-116 -17.5h-32zM203 750q-4 0 -4 4l18 122 q0 4 4 4h113q3 0 3 -4l-18 -122q0 -4 -3 -4h-113zM374 750q-4 0 -4 4l18 122q0 4 4 4h113q3 0 3 -4l-18 -122q0 -4 -3 -4h-113z" />
<glyph unicode="&#xdd;" horiz-adv-x="517" d="M147 0q-3 0 -3 4l36 255q-115 414 -116 417q-1 4 3 4h171q4 0 4 -4l48 -231h6q110 228 111 231q1 4 4 4h168q3 0 2 -4l-232 -417l-36 -255q-1 -4 -3 -4h-163zM347 750q-4 -4 -6 -4h-112q-3 0 0 4l88 148q3 4 6 4h133q5 0 2 -4z" />
<glyph unicode="&#xde;" horiz-adv-x="534" d="M215 274h66q8 0 19.5 3t28 17.5t19.5 38.5l4 34q8 62 -50 62h-65zM173 0h-162q-3 0 -3 4l95 672q0 4 3 4h162q3 0 3 -4l-14 -98h77q26 0 49 -2.5t54.5 -14t52 -31t32 -58t3.5 -89.5l-10 -66q-8 -52 -31.5 -90t-50 -57t-61.5 -30t-56.5 -13t-45.5 -2h-77l-17 -121 q0 -4 -3 -4z" />
<glyph unicode="&#xdf;" horiz-adv-x="509" d="M163 0h-153q-3 0 -3 4l68 483q17 116 76 157.5t157 41.5q31 0 54.5 -3t49.5 -14.5t41.5 -30.5t22.5 -53t1 -81l-6 -44q-4 -32 -14.5 -57.5t-18.5 -35.5l-9 -10l-1 -7q6 -5 14 -14t19 -40.5t6 -67.5l-7 -46q-9 -59 -31.5 -98t-57.5 -57.5t-69.5 -25.5t-81.5 -7q-2 0 -2 4 l18 130q0 4 3 4q22 0 38.5 14t20.5 46l4 31q3 26 -12 41t-30 15q-2 0 -2 4l18 130q1 4 3 4q33 0 40 52l4 29q8 52 -35 52q-44 0 -53 -63l-68 -483q0 -4 -4 -4z" />
<glyph unicode="&#xe0;" horiz-adv-x="445" d="M117 -12q-57 0 -90 32.5t-24 91.5l8 55q9 63 56 96.5t105 33.5q21 0 44 -3.5t36 -6.5l12 -3l6 42q3 24 -11 32.5t-56 8.5q-14 0 -30.5 -1t-30 -3t-25 -4t-18.5 -3t-8 -1q-5 0 -5 3t-5 54l-5 52q0 3 4 5q4 3 21 9t57.5 13t85.5 7q33 0 55.5 -2t52 -12t46.5 -27.5t26 -52 t2 -82.5l-45 -318q0 -4 -4 -4h-148q-4 0 -4 4l1 7q-23 -23 -109 -23zM257 550l-70 148q-3 4 1 4h135q4 0 5 -4l46 -148q1 -4 -1 -4h-111q-3 0 -5 4zM189 107q29 0 40.5 4.5t13.5 18.5l7 51q-24 14 -53 14q-13 0 -27 -8t-16 -21l-3 -19q-3 -18 10 -29t28 -11z" />
<glyph unicode="&#xe1;" horiz-adv-x="445" d="M117 -12q-57 0 -90 32.5t-24 91.5l8 55q9 63 56 96.5t105 33.5q21 0 44 -3.5t36 -6.5l12 -3l6 42q3 24 -11 32.5t-56 8.5q-14 0 -30.5 -1t-30 -3t-25 -4t-18.5 -3t-8 -1q-5 0 -5 3t-5 54l-5 52q0 3 4 5q4 3 21 9t57.5 13t85.5 7q33 0 55.5 -2t52 -12t46.5 -27.5t26 -52 t2 -82.5l-45 -318q0 -4 -4 -4h-148q-4 0 -4 4l1 7q-23 -23 -109 -23zM283 550q-4 -4 -5 -4h-112q-4 0 -1 4l88 148q3 4 6 4h133q5 0 2 -4zM189 107q29 0 40.5 4.5t13.5 18.5l7 51q-24 14 -53 14q-13 0 -27 -8t-16 -21l-3 -19q-3 -18 10 -29t28 -11z" />
<glyph unicode="&#xe2;" horiz-adv-x="445" d="M117 -12q-57 0 -90 32.5t-24 91.5l8 55q9 63 56 96.5t105 33.5q21 0 44 -3.5t36 -6.5l12 -3l6 42q3 24 -11 32.5t-56 8.5q-14 0 -30.5 -1t-30 -3t-25 -4t-18.5 -3t-8 -1q-5 0 -5 3t-5 54l-5 52q0 3 4 5q4 3 21 9t57.5 13t85.5 7q33 0 55.5 -2t52 -12t46.5 -27.5t26 -52 t2 -82.5l-45 -318q0 -4 -4 -4h-148q-4 0 -4 4l1 7q-23 -23 -109 -23zM224 545h-111q-1 0 -1 4q-1 2 55.5 75t56.5 74q-1 1 0.5 2t4.5 1h122q6 0 8 -4l67 -148q2 -4 -2 -4h-110q-4 0 -5 4l-30 63h-2q-44 -60 -46 -63q-3 -4 -7 -4zM189 107q29 0 40.5 4.5t13.5 18.5l7 51 q-24 14 -53 14q-13 0 -27 -8t-16 -21l-3 -19q-3 -18 10 -29t28 -11z" />
<glyph unicode="&#xe3;" horiz-adv-x="445" d="M189 107q29 0 40.5 4.5t13.5 18.5l7 51q-24 14 -53 14q-13 0 -27 -8t-16 -21l-3 -19q-3 -18 10 -29t28 -11zM117 -12q-57 0 -90 32.5t-24 91.5l8 55q9 63 56 96.5t105 33.5q21 0 44 -3.5t36 -6.5l12 -3l6 42q3 24 -11 32.5t-56 8.5q-14 0 -30.5 -1t-30 -3t-25 -4 t-18.5 -3t-8 -1q-5 0 -5 3t-2.5 29t-5.5 51l-2 26q0 3 4 5q4 3 21 9t57.5 13t85.5 7q33 0 55.5 -2t52 -12t46.5 -27.5t26 -52t2 -82.5l-45 -318q0 -4 -4 -4h-148q-4 0 -4 4l1 7q-23 -23 -109 -23zM134 555q-4 0 -2 5l11 82q1 10 10 20q30 35 77 35q28 0 64.5 -19t57.5 -19 q22 0 46.5 17.5t26.5 17.5q5 0 4 -6l-11 -80q-2 -13 -11 -21q-43 -39 -78 -39q-29 0 -64.5 20.5t-54.5 20.5q-23 0 -49 -17t-27 -17z" />
<glyph unicode="&#xe4;" horiz-adv-x="445" d="M117 -12q-57 0 -90 32.5t-24 91.5l8 55q9 63 56 96.5t105 33.5q21 0 44 -3.5t36 -6.5l12 -3l6 42q3 24 -11 32.5t-56 8.5q-14 0 -30.5 -1t-30 -3t-25 -4t-18.5 -3t-8 -1q-5 0 -5 3t-5 54l-5 52q0 3 4 5q4 3 21 9t57.5 13t85.5 7q33 0 55.5 -2t52 -12t46.5 -27.5t26 -52 t2 -82.5l-45 -318q0 -4 -4 -4h-148q-4 0 -4 4l1 7q-23 -23 -109 -23zM128 550q-4 0 -3 4l17 122q0 4 4 4h113q3 0 3 -4l-17 -122q0 -4 -4 -4h-113zM299 550q-4 0 -3 4l17 122q0 4 4 4h113q3 0 3 -4l-17 -122q0 -4 -4 -4h-113zM189 107q29 0 40.5 4.5t13.5 18.5l7 51 q-24 14 -53 14q-13 0 -27 -8t-16 -21l-3 -19q-3 -18 10 -29t28 -11z" />
<glyph unicode="&#xe5;" horiz-adv-x="445" d="M189 107q29 0 40.5 4.5t13.5 18.5l7 51q-24 14 -53 14q-13 0 -27 -8t-16 -21l-3 -19q-3 -18 10 -29t28 -11zM117 -12q-57 0 -90 32.5t-24 91.5l8 55q9 63 56 96.5t105 33.5q21 0 44 -3.5t36 -6.5l12 -3l6 42q3 24 -11 32.5t-56 8.5q-14 0 -30.5 -1t-30 -3t-25 -4 t-18.5 -3t-8 -1q-5 0 -5 3t-2.5 29t-5.5 51l-2 26q0 3 4 5q4 3 21 9t57.5 13t85.5 7q33 0 55.5 -2t52 -12t46.5 -27.5t26 -52t2 -82.5l-45 -318q0 -4 -4 -4h-148q-4 0 -4 4l1 7q-23 -23 -109 -23zM276 589q17 0 27.5 7.5t14.5 32.5l2 11q7 39 -30 39t-44 -39l-2 -11 q-4 -24 5 -32t27 -8zM266 523q-45 0 -70 19.5t-16 79.5l4 25q9 58 39.5 77.5t76.5 19.5q20 0 34 -3t29 -11.5t20.5 -29.5t0.5 -53l-4 -25q-9 -61 -39 -80t-75 -19z" />
<glyph unicode="&#xe6;" horiz-adv-x="702" d="M196 108q51 0 55 28l6 46q-24 14 -53 14q-15 0 -28.5 -8t-14.5 -21l-2 -18q-3 -22 8.5 -31.5t28.5 -9.5zM435 293h73q5 35 -0.5 49t-26.5 14q-37 0 -46 -63zM134 -11q-18 0 -33.5 2t-35 9.5t-32.5 20.5t-20 37t-2 56l8 55q8 60 50 95t110 35q20 0 43 -3.5t36 -7.5l13 -3 l5 38q3 24 -11 32t-54 8q-22 0 -50 -3.5t-44 -6.5t-18 -4q-4 0 -4 4q0 1 -6 52.5t-6 53.5q0 3 3 5q5 2 23.5 8t60 14t81.5 8q90 0 130 -28q41 28 119 28q35 0 59.5 -5t58 -22t46.5 -62.5t3 -115.5l-14 -97h-231q-5 -40 6.5 -51.5t35.5 -11.5q22 0 44.5 1.5t39.5 3.5t31 4 t22 4l8 1q3 0 3 -3l14 -109q0 -4 -3 -5q-5 -3 -24 -9t-64.5 -14t-92.5 -8q-86 0 -127 35q-60 -41 -181 -41z" />
<glyph unicode="&#xe7;" horiz-adv-x="413" d="M195 -166h-134q-4 0 -2 4l89 157q-35 3 -59 13t-43.5 32t-23 58.5t2.5 93.5l16 110q7 52 26.5 89.5t42 57.5t55.5 31.5t58 14t59 2.5q40 0 72.5 -6.5t44 -11.5t13.5 -7q3 -3 2 -6l-47 -110q-1 -3 -5 -3q-1 0 -6 0.5t-13.5 1.5t-19 2t-25 1.5t-29.5 0.5q-6 0 -14.5 -3 t-20 -9.5t-20 -21.5t-11.5 -36l-12 -87q-6 -45 6 -58.5t39 -13.5q78 0 96 9q4 0 4 -3q0 -2 10 -57.5t10 -56.5q0 -3 -2 -5q-53 -18 -85 -21l-69 -158q-2 -4 -5 -4z" />
<glyph unicode="&#xe8;" horiz-adv-x="449" d="M204 -10q-215 0 -184 214l12 84q30 209 231 209q16 0 29 -1t31 -4.5t31.5 -10t29 -17t24 -26t17.5 -37t8 -49.5t-4 -64l-14 -97h-231q-6 -38 5.5 -52.5t36.5 -14.5q32 0 68 3.5t55.5 6.5t21.5 4q3 1 3 -3q12 -84 12 -106q0 -8 -2 -9l-6 -2q-5 -2 -13.5 -4.5t-21 -5.5 t-28 -6.5t-32.5 -6t-37.5 -4t-41.5 -1.5zM258 550l-70 148q-3 4 2 4h135q3 0 4 -4l46 -148q1 -4 -1 -4h-111q-3 0 -5 4zM198 292h72q4 27 -2.5 43.5t-12.5 20t-12 3.5q-7 0 -14.5 -4.5t-17 -21t-13.5 -41.5z" />
<glyph unicode="&#xe9;" horiz-adv-x="449" d="M204 -10q-215 0 -184 214l12 84q30 209 231 209q16 0 29 -1t31 -4.5t31.5 -10t29 -17t24 -26t17.5 -37t8 -49.5t-4 -64l-14 -97h-231q-6 -38 5.5 -52.5t36.5 -14.5q32 0 68 3.5t55.5 6.5t21.5 4q3 1 3 -3q12 -84 12 -106q0 -8 -2 -9l-6 -2q-5 -2 -13.5 -4.5t-21 -5.5 t-28 -6.5t-32.5 -6t-37.5 -4t-41.5 -1.5zM285 550q-4 -4 -5 -4h-112q-2 0 -1 4l88 148q3 4 7 4h133q4 0 1 -4zM198 292h72q4 27 -2.5 43.5t-12.5 20t-12 3.5q-7 0 -14.5 -4.5t-17 -21t-13.5 -41.5z" />
<glyph unicode="&#xea;" horiz-adv-x="449" d="M204 -10q-215 0 -184 214l12 84q30 209 231 209q16 0 29 -1t31 -4.5t31.5 -10t29 -17t24 -26t17.5 -37t8 -49.5t-4 -64l-14 -97h-231q-6 -38 5.5 -52.5t36.5 -14.5q32 0 68 3.5t55.5 6.5t21.5 4q3 1 3 -3q12 -84 12 -106q0 -8 -2 -9l-6 -2q-5 -2 -13.5 -4.5t-21 -5.5 t-28 -6.5t-32.5 -6t-37.5 -4t-41.5 -1.5zM225 545h-111q-1 0 -1 4q-1 2 55.5 75t56.5 74q-1 1 0.5 2t4.5 1h122q6 0 8 -4l67 -148q2 -4 -2 -4h-110q-4 0 -5 4l-30 63h-2q-44 -60 -46 -63q-3 -4 -7 -4zM198 292h72q4 27 -2.5 43.5t-12.5 20t-12 3.5q-7 0 -14.5 -4.5t-17 -21 t-13.5 -41.5z" />
<glyph unicode="&#xeb;" horiz-adv-x="449" d="M204 -10q-215 0 -184 214l12 84q30 209 231 209q16 0 29 -1t31 -4.5t31.5 -10t29 -17t24 -26t17.5 -37t8 -49.5t-4 -64l-14 -97h-231q-6 -38 5.5 -52.5t36.5 -14.5q32 0 68 3.5t55.5 6.5t21.5 4q3 1 3 -3q12 -84 12 -106q0 -8 -2 -9l-6 -2q-5 -2 -13.5 -4.5t-21 -5.5 t-28 -6.5t-32.5 -6t-37.5 -4t-41.5 -1.5zM129 550q-4 0 -3 4l17 122q0 4 4 4h113q3 0 3 -4l-17 -122q0 -4 -4 -4h-113zM300 550q-4 0 -3 4l17 122q0 4 4 4h113q3 0 3 -4l-17 -122q0 -4 -4 -4h-113zM198 292h72q4 27 -2.5 43.5t-12.5 20t-12 3.5q-7 0 -14.5 -4.5t-17 -21 t-13.5 -41.5z" />
<glyph unicode="&#xec;" horiz-adv-x="234" d="M-2 0q-3 0 -3 4l68 479q0 4 3 4h157q3 0 3 -4l-68 -479q0 -4 -3 -4h-157zM151 550l-70 148q-3 4 2 4h135q3 0 4 -4l46 -148q1 -4 -1 -4h-111q-3 0 -5 4z" />
<glyph unicode="&#xed;" horiz-adv-x="234" d="M-2 0q-3 0 -3 4l68 479q0 4 3 4h157q3 0 3 -4l-68 -479q0 -4 -3 -4h-157zM178 550q-4 -4 -5 -4h-112q-2 0 -1 4l88 148q3 4 7 4h133q4 0 1 -4z" />
<glyph unicode="&#xee;" horiz-adv-x="234" d="M-2 0q-3 0 -3 4l68 479q0 4 3 4h157q3 0 3 -4l-68 -479q0 -4 -3 -4h-157zM118 545h-111q-1 0 -1 4q-1 2 55.5 75t56.5 74q-1 1 0.5 2t4.5 1h122q6 0 8 -4l67 -148q2 -4 -2 -4h-110q-4 0 -5 4l-30 63h-2q-44 -60 -46 -63q-3 -4 -7 -4z" />
<glyph unicode="&#xef;" horiz-adv-x="234" d="M-2 0q-3 0 -2 4l67 479q1 4 3 4h157q3 0 3 -4l-67 -479q-1 -4 -4 -4h-157zM23 550q-4 0 -3 4l17 122q0 4 5 4h113q2 0 2 -4l-17 -122q0 -4 -4 -4h-113zM194 550q-4 0 -3 4l17 122q0 4 5 4h113q2 0 2 -4l-17 -122q0 -4 -4 -4h-113z" />
<glyph unicode="&#xf0;" horiz-adv-x="515" d="M209 132q31 0 41 6t12 19l26 184q-27 14 -59 14q-7 0 -12 -3.5t-11 -22t-11 -52.5l-9 -65q-6 -35 -2 -53t9.5 -22.5t15.5 -4.5zM155 -6q-22 0 -38 1.5t-33.5 7t-29 14.5t-21.5 25t-14.5 38t-4.5 53t6 71l12 84q10 67 28.5 110.5t46 62.5t51.5 25.5t58 6.5q19 0 41.5 -3.5 t36.5 -7.5l13 -3l8 55h-80q-4 0 -2 5l14 103q1 4 5 4h79l4 30q0 4 3 4h157q3 0 3 -4l-4 -30h42q3 0 3 -4l-14 -104q-2 -4 -4 -4h-44l-74 -530q-1 -4 -3 -4h-157q-3 0 -3 4l2 12q-22 -22 -87 -22z" />
<glyph unicode="&#xf1;" horiz-adv-x="479" d="M10 0q-3 0 -3 4l68 479q0 4 3 4h157q3 0 3 -4l-2 -9q66 19 94 19q15 0 26 -1t26 -3.5t26 -9t22.5 -16t18.5 -25t12 -36t4.5 -49.5t-5.5 -65l-40 -284q0 -4 -3 -4h-157q-3 0 -3 4l39 273q6 34 4 51.5t-6.5 21.5t-14.5 4q-12 0 -27.5 -4t-24.5 -8l-9 -3l-48 -335 q0 -4 -3 -4h-157zM151 555q-4 0 -2 5l11 82q1 10 10 20q30 35 77 35q28 0 64.5 -19t57.5 -19q22 0 46.5 17.5t26.5 17.5q6 0 4 -6l-11 -80q-2 -13 -11 -21q-43 -39 -78 -39q-29 0 -64.5 20.5t-54.5 20.5q-23 0 -49 -17t-27 -17z" />
<glyph unicode="&#xf2;" horiz-adv-x="453" d="M197 -8q-30 0 -52 2.5t-47.5 10t-39.5 22t-27.5 37.5t-13.5 57t4 81l13 87q10 69 33 113t58 63.5t66 25.5t75 6q18 0 32 -0.5t32.5 -3t31 -7t27.5 -12t23.5 -18t19 -26t12.5 -35.5t4.5 -45.5t-4.5 -57.5l-13 -90q-8 -56 -26 -96t-38.5 -62t-51.5 -34t-56.5 -15t-61.5 -3z M260 550l-70 148q-1 4 2 4h135q3 0 4 -4l46 -148q1 -4 -1 -4h-111q-3 0 -5 4zM216 130q13 0 21.5 4t17.5 22.5t14 53.5l10 71q7 48 -2.5 63t-30.5 15q-11 0 -19 -4t-16.5 -22t-13.5 -52l-10 -71q-7 -50 1 -65t28 -15z" />
<glyph unicode="&#xf3;" horiz-adv-x="453" d="M197 -8q-30 0 -52 2.5t-47.5 10t-39.5 22t-27.5 37.5t-13.5 57t4 81l13 87q10 69 33 113t58 63.5t66 25.5t75 6q18 0 32 -0.5t32.5 -3t31 -7t27.5 -12t23.5 -18t19 -26t12.5 -35.5t4.5 -45.5t-4.5 -57.5l-13 -90q-8 -56 -26 -96t-38.5 -62t-51.5 -34t-56.5 -15t-61.5 -3z M286 550q-4 -4 -5 -4h-112q-3 0 0 4l87 148q3 4 7 4h133q4 0 1 -4zM216 130q13 0 21.5 4t17.5 22.5t14 53.5l10 71q7 48 -2.5 63t-30.5 15q-11 0 -19 -4t-16.5 -22t-13.5 -52l-10 -71q-7 -50 1 -65t28 -15z" />
<glyph unicode="&#xf4;" horiz-adv-x="453" d="M197 -8q-30 0 -52 2.5t-47.5 10t-39.5 22t-27.5 37.5t-13.5 57t4 81l13 87q10 69 33 113t58 63.5t66 25.5t75 6q18 0 32 -0.5t32.5 -3t31 -7t27.5 -12t23.5 -18t19 -26t12.5 -35.5t4.5 -45.5t-4.5 -57.5l-13 -90q-8 -56 -26 -96t-38.5 -62t-51.5 -34t-56.5 -15t-61.5 -3z M228 545h-111q-2 0 -2 4q-1 2 55.5 75t56.5 74q3 2 6 3h122q5 0 7 -4l67 -148q2 -4 -1 -4h-110q-5 0 -6 4l-30 63h-2q-44 -60 -46 -63q-3 -4 -6 -4zM216 130q13 0 21.5 4t17.5 22.5t14 53.5l10 71q7 48 -2.5 63t-30.5 15q-11 0 -19 -4t-16.5 -22t-13.5 -52l-10 -71 q-7 -50 1 -65t28 -15z" />
<glyph unicode="&#xf5;" horiz-adv-x="453" d="M216 130q13 0 21.5 4t17.5 22.5t14 53.5l10 71q7 48 -2.5 63t-30.5 15q-11 0 -19 -4t-16.5 -22t-13.5 -52l-10 -71q-7 -50 1 -65t28 -15zM197 -8q-30 0 -52 2.5t-47.5 10t-39.5 22t-27.5 37.5t-13.5 57t4 81l13 87q10 69 33 113t58 63.5t66 25.5t75 6q18 0 32 -0.5 t32.5 -3t31 -7t27.5 -12t23.5 -18t19 -26t12.5 -35.5t4.5 -45.5t-4.5 -57.5l-13 -90q-8 -56 -26 -96t-38.5 -62t-51.5 -34t-56.5 -15t-61.5 -3zM137 555q-4 0 -2 5l11 82q1 10 10 20q30 35 77 35q28 0 65 -19t58 -19q22 0 46.5 17.5t26.5 17.5q4 0 4 -6l-12 -80 q-2 -14 -10 -21q-43 -39 -79 -39q-29 0 -64.5 20.5t-54.5 20.5q-23 0 -49 -17t-27 -17z" />
<glyph unicode="&#xf6;" horiz-adv-x="453" d="M197 -8q-30 0 -52 2.5t-47.5 10t-39.5 22t-27.5 37.5t-13.5 57t4 81l13 87q10 69 33 113t58 63.5t66 25.5t75 6q18 0 32 -0.5t32.5 -3t31 -7t27.5 -12t23.5 -18t19 -26t12.5 -35.5t4.5 -45.5t-4.5 -57.5l-13 -90q-8 -56 -26 -96t-38.5 -62t-51.5 -34t-56.5 -15t-61.5 -3z M216 130q13 0 21.5 4t17.5 22.5t14 53.5l10 71q7 48 -2.5 63t-30.5 15q-11 0 -19 -4t-16.5 -22t-13.5 -52l-10 -71q-7 -50 1 -65t28 -15zM303 550q-4 0 -3 4l17 122q0 4 5 4h113q2 0 2 -4l-17 -122q0 -4 -4 -4h-113zM132 550q-4 0 -3 4l17 122q0 4 5 4h113q2 0 2 -4 l-17 -122q0 -4 -4 -4h-113z" />
<glyph unicode="&#xf7;" d="M38 209q-2 0 -2 4l18 125q0 4 3 4h394q4 0 4 -4l-18 -125q0 -4 -5 -4h-394zM195 402q-3 0 -2 4l20 142q0 4 4 4h135q3 0 3 -4l-20 -142q0 -4 -5 -4h-135zM139 0q-3 0 -2 4l20 142q0 4 3 4h135q4 0 4 -4l-20 -142q0 -4 -5 -4h-135z" />
<glyph unicode="&#xf8;" horiz-adv-x="453" d="M57 -45q-2 0 -2 2q0 3 26 55q-80 41 -59 190l12 87q8 55 26 95t39 61.5t51.5 33.5t55.5 15t60 3q19 0 29 -1q4 7 8 15t6 13l2 4q3 4 5 4h94q6 0 3 -4l-26 -53q77 -42 57 -183l-12 -90q-8 -56 -25.5 -96t-38.5 -62t-52.5 -34t-57 -15t-61.5 -3q-16 0 -23 1q-3 -7 -8 -16 t-7 -13l-2 -5q-3 -4 -7 -4h-93zM217 130q13 0 21.5 4t17 22.5t13.5 53.5l10 71q7 48 -2.5 63t-29.5 15q-11 0 -19 -4t-17 -22t-14 -52l-10 -71q-7 -50 1 -65t29 -15z" />
<glyph unicode="&#xf9;" horiz-adv-x="482" d="M483 487q3 0 3 -4l-68 -479q0 -4 -3 -4h-157q-3 0 -3 4l1 7q-65 -19 -93 -19q-15 0 -26 1t-26 3.5t-26 9t-22.5 16t-18.5 25t-12 36t-5 49.5t5 65l41 286q0 4 3 4h156q4 0 4 -4l-39 -275q-6 -34 -3.5 -51.5t7 -21.5t13.5 -4q12 0 27.5 3.5t24.5 7.5l9 4l48 337q0 4 3 4 h157zM276 550l-70 148q-3 4 1 4h135q4 0 5 -4l46 -148q1 -4 -2 -4h-111q-2 0 -4 4z" />
<glyph unicode="&#xfa;" horiz-adv-x="482" d="M483 487q3 0 3 -4l-68 -479q0 -4 -3 -4h-157q-3 0 -3 4l1 7q-65 -19 -93 -19q-15 0 -26 1t-26 3.5t-26 9t-22.5 16t-18.5 25t-12 36t-5 49.5t5 65l41 286q0 4 3 4h156q4 0 4 -4l-39 -275q-6 -34 -3.5 -51.5t7 -21.5t13.5 -4q12 0 27.5 3.5t24.5 7.5l9 4l48 337q0 4 3 4 h157zM302 550q-4 -4 -6 -4h-112q-3 0 0 4l88 148q3 4 6 4h133q5 0 2 -4z" />
<glyph unicode="&#xfb;" horiz-adv-x="482" d="M483 487q3 0 3 -4l-68 -479q0 -4 -3 -4h-157q-3 0 -3 4l1 7q-65 -19 -93 -19q-15 0 -26 1t-26 3.5t-26 9t-22.5 16t-18.5 25t-12 36t-5 49.5t5 65l41 286q0 4 3 4h156q4 0 4 -4l-39 -275q-6 -34 -3.5 -51.5t7 -21.5t13.5 -4q12 0 27.5 3.5t24.5 7.5l9 4l48 337q0 4 3 4 h157zM243 545h-111q-1 0 -1 4q-1 2 55.5 75t56.5 74q-1 1 0.5 2t4.5 1h122q6 0 8 -4l67 -148q2 -4 -2 -4h-110q-4 0 -5 4l-30 63h-2q-44 -60 -46 -63q-3 -4 -7 -4z" />
<glyph unicode="&#xfc;" horiz-adv-x="482" d="M483 487q3 0 3 -4l-68 -479q0 -4 -3 -4h-157q-3 0 -3 4l1 7q-65 -19 -93 -19q-15 0 -26 1t-26 3.5t-26 9t-22.5 16t-18.5 25t-12 36t-5 49.5t5 65l41 286q0 4 3 4h156q4 0 4 -4l-39 -275q-6 -34 -3.5 -51.5t7 -21.5t13.5 -4q12 0 27.5 3.5t24.5 7.5l9 4l48 337q0 4 3 4 h157zM147 550q-4 0 -3 4l17 122q0 4 4 4h113q3 0 3 -4l-17 -122q0 -4 -4 -4h-113zM318 550q-4 0 -3 4l17 122q0 4 4 4h113q3 0 3 -4l-17 -122q0 -4 -4 -4h-113z" />
<glyph unicode="&#xfd;" horiz-adv-x="453" d="M0 -180q-5 0 -3 4q1 2 16 64.5t15 63.5q0 4 5 4h27q39 0 55 43l10 30q-84 451 -85 454q-2 4 1 4h163q4 0 4 -4l23 -239h8q84 236 85 239q2 4 5 4h159q2 0 1 -4l-253 -538q-21 -44 -41 -70.5t-44 -38t-42.5 -14t-52.5 -2.5h-56zM292 550q-4 -4 -5 -4h-112q-3 0 0 4l87 148 q3 4 7 4h133q4 0 1 -4z" />
<glyph unicode="&#xfe;" horiz-adv-x="488" d="M191 146q27 -14 58 -14q9 0 14 3.5t11 21t11 53.5l9 65q12 80 -26 80q-48 0 -51 -25zM142 -180h-157q-3 0 -3 4l120 852q0 4 4 4h157q2 0 2 -4l-29 -205q21 22 87 22q17 0 26 -0.5t26.5 -2.5t27 -8t23 -15t20.5 -25t12.5 -37.5t5 -52.5t-5.5 -69l-12 -84 q-8 -58 -26 -99.5t-35.5 -61.5t-44.5 -30.5t-41.5 -12t-37.5 -1.5q-13 0 -35.5 3.5t-38.5 6.5l-16 4l-26 -184q0 -4 -3 -4z" />
<glyph unicode="&#xff;" horiz-adv-x="453" d="M0 -180q-5 0 -3 4q1 2 16 64.5t15 63.5q0 4 5 4h27q39 0 55 43l10 30q-84 451 -85 454q-2 4 1 4h163q4 0 4 -4l23 -239h8q84 236 85 239q2 4 5 4h159q2 0 1 -4l-253 -538q-21 -44 -41 -70.5t-44 -38t-42.5 -14t-52.5 -2.5h-56zM136 550q-4 0 -3 4l17 122q0 4 5 4h113 q2 0 2 -4l-17 -122q0 -4 -4 -4h-113zM307 550q-4 0 -3 4l17 122q0 4 5 4h113q2 0 2 -4l-17 -122q0 -4 -4 -4h-113z" />
<glyph unicode="&#x100;" horiz-adv-x="545" d="M130 0h-170q-3 0 -1 4l283 672q1 4 4 4h186q4 0 5 -4l89 -672q2 -4 -3 -4h-170q-3 0 -4 4l-5 107h-173q-36 -104 -37 -107q-1 -4 -4 -4zM485 756h-273q-4 0 -4 4l16 109q0 4 4 4h273q3 0 3 -4l-15 -109q-1 -4 -4 -4zM225 244h103l-9 229h-20z" />
<glyph unicode="&#x101;" horiz-adv-x="445" d="M189 107q29 0 40.5 4.5t13.5 18.5l7 51q-24 14 -53 14q-13 0 -27 -8t-16 -21l-3 -19q-3 -18 10 -29t28 -11zM117 -12q-57 0 -90 32.5t-24 91.5l8 55q9 63 56 96.5t105 33.5q21 0 44 -3.5t36 -6.5l12 -3l6 42q3 24 -11 32.5t-56 8.5q-14 0 -30.5 -1t-30 -3t-25 -4 t-18.5 -3t-8 -1q-5 0 -5 3t-2.5 29t-5.5 51l-2 26q0 3 4 5q4 3 21 9t57.5 13t85.5 7q33 0 55.5 -2t52 -12t46.5 -27.5t26 -52t2 -82.5l-45 -318q0 -4 -4 -4h-148q-4 0 -4 4l1 7q-23 -23 -109 -23zM408 563h-273q-3 0 -3 4l15 109q0 4 4 4h273q3 0 3 -4l-16 -109q0 -4 -3 -4z " />
<glyph unicode="&#x102;" horiz-adv-x="545" d="M130 0h-170q-3 0 -1 4l283 672q1 4 4 4h186q4 0 5 -4l89 -672q2 -4 -3 -4h-170q-3 0 -4 4l-5 107h-173q-36 -104 -37 -107q-1 -4 -4 -4zM347 735q-123 0 -123 115q0 33 12 33h66q7 0 8 -6q6 -25 15.5 -33t33.5 -8q43 0 61 41q3 6 12 6h66q5 0 7 -1.5t1 -5.5 q-24 -141 -159 -141zM225 244h103l-9 229h-20z" />
<glyph unicode="&#x103;" horiz-adv-x="445" d="M189 107q29 0 40.5 4.5t13.5 18.5l7 51q-24 14 -53 14q-13 0 -27 -8t-16 -21l-3 -19q-3 -18 10 -29t28 -11zM117 -12q-57 0 -90 32.5t-24 91.5l8 55q9 63 56 96.5t105 33.5q21 0 44 -3.5t36 -6.5l12 -3l6 42q3 24 -11 32.5t-56 8.5q-14 0 -30.5 -1t-30 -3t-25 -4 t-18.5 -3t-8 -1q-5 0 -5 3t-2.5 29t-5.5 51l-2 26q0 3 4 5q4 3 21 9t57.5 13t85.5 7q33 0 55.5 -2t52 -12t46.5 -27.5t26 -52t2 -82.5l-45 -318q0 -4 -4 -4h-148q-4 0 -4 4l1 7q-23 -23 -109 -23zM270 542q-123 0 -123 115q0 33 12 33h66q7 0 8 -6q6 -25 15.5 -33t33.5 -8 q43 0 61 41q3 6 12 6h66q5 0 7 -1.5t1 -5.5q-24 -141 -159 -141z" />
<glyph unicode="&#x104;" horiz-adv-x="545" d="M405 -195q-87 0 -87 77q0 75 62 118h-27q-3 0 -4 4l-5 107h-173q-36 -104 -37 -107q-1 -4 -4 -4h-170q-3 0 -1 4l283 672q1 4 4 4h186q4 0 5 -4l89 -672q0 -3 -1 -4q-3 -1 -4 -2q-61 -35 -74 -52q-8 -11 -8 -21t9 -10q10 0 23 9q4 3 8 -1q0 -2 6.5 -20t14 -36t7.5 -19 q2 -5 -2 -9q-43 -34 -100 -34zM225 244h103l-9 229h-20z" />
<glyph unicode="&#x105;" horiz-adv-x="445" d="M260 -195q-87 0 -87 77q0 75 62 118h-6q-4 0 -4 4l1 7q-23 -23 -109 -23q-57 0 -90 32.5t-24 91.5l8 55q9 63 56 96.5t105 33.5q21 0 44 -3.5t36 -6.5l12 -3l6 42q3 24 -11 32.5t-56 8.5q-14 0 -30.5 -1t-30 -3t-25 -4t-18.5 -3t-8 -1q-5 0 -5 3t-5 54l-5 52q0 3 4 5 q4 3 21 9t57.5 13t85.5 7q33 0 55.5 -2t52 -12t46.5 -27.5t26 -52t2 -82.5l-45 -318v-1q0 -2 -5 -5q-61 -35 -74 -52q-8 -11 -8 -21t9 -10t23 9q4 3 8 -1q0 -2 6.5 -20t14 -36t7.5 -19q2 -5 -2 -9q-6 -4 -17 -10.5t-35.5 -15t-47.5 -8.5zM189 107q29 0 40.5 4.5t13.5 18.5 l7 51q-24 14 -53 14q-13 0 -27 -8t-16 -21l-3 -19q-3 -18 10 -29t28 -11z" />
<glyph unicode="&#x106;" horiz-adv-x="478" d="M244 -10q-25 0 -45 1.5t-43 6.5t-40 13t-35 21.5t-27.5 33t-18.5 45.5t-7.5 60.5t5.5 77.5l27 190q9 65 30.5 112t47.5 74t63 42.5t69.5 20t74.5 4.5q53 0 92.5 -7t51 -12t14.5 -8t1 -6t-33 -67t-31 -65q0 -3 -5 -3q-2 1 -16 4t-41.5 6t-53.5 3q-17 0 -28.5 -3t-26.5 -13 t-25 -35t-16 -64l-23 -159q-10 -71 5.5 -91t56.5 -20q19 0 38.5 1.5t34.5 3.5t27.5 4t19.5 3.5t8 1.5q2 2 4 -2l26 -133q1 -2 -3 -6q-70 -35 -178 -35zM365 743q-4 -4 -6 -4h-112q-3 0 0 4l88 148q3 4 6 4h133q5 0 2 -4z" />
<glyph unicode="&#x107;" horiz-adv-x="414" d="M210 -8q-29 0 -49.5 1.5t-44.5 6t-37.5 13.5t-29 23.5t-20 36t-8.5 51t4 68.5l15 110q7 52 26.5 89.5t42 57.5t55.5 31.5t58.5 14t59.5 2.5q40 0 72 -6.5t43.5 -11.5t13.5 -7q3 -3 2 -6l-46 -110q-1 -3 -6 -3q-1 0 -6 0.5t-13.5 1.5t-19 2t-25 1.5t-29.5 0.5 q-6 0 -14.5 -3t-20 -9.5t-20 -21.5t-11.5 -36l-12 -87q-6 -45 6 -58.5t39 -13.5q78 0 96 9q5 0 5 -3q0 -2 10 -57.5t10 -56.5q0 -2 -3 -5l-3 -1q-2 -1 -5.5 -2.5t-8.5 -3.5t-12 -4t-15.5 -4t-19.5 -4t-22.5 -3t-26.5 -2t-30 -1zM305 550q-4 -4 -6 -4h-112q-3 0 0 4l88 148 q3 4 6 4h133q5 0 2 -4z" />
<glyph unicode="&#x108;" horiz-adv-x="478" d="M244 -10q-25 0 -45 1.5t-43 6.5t-40 13t-35 21.5t-27.5 33t-18.5 45.5t-7.5 60.5t5.5 77.5l27 190q9 65 30.5 112t47.5 74t63 42.5t69.5 20t74.5 4.5q53 0 92.5 -7t51 -12t14.5 -8t1 -6t-33 -67t-31 -65q0 -3 -5 -3q-2 1 -16 4t-41.5 6t-53.5 3q-17 0 -28.5 -3t-26.5 -13 t-25 -35t-16 -64l-23 -159q-10 -71 5.5 -91t56.5 -20q19 0 38.5 1.5t34.5 3.5t27.5 4t19.5 3.5t8 1.5q2 2 4 -2l26 -133q1 -2 -3 -6q-70 -35 -178 -35zM306 738h-111q-1 0 -1 4q-1 2 55.5 75t56.5 74q-1 1 0.5 2t4.5 1h122q6 0 8 -4l67 -148q2 -4 -2 -4h-110q-4 0 -5 4 l-30 63h-2q-44 -60 -46 -63q-3 -4 -7 -4z" />
<glyph unicode="&#x109;" horiz-adv-x="414" d="M210 -8q-29 0 -49.5 1.5t-44.5 6t-37.5 13.5t-29 23.5t-20 36t-8.5 51t4 68.5l15 110q7 52 26.5 89.5t42 57.5t55.5 31.5t58.5 14t59.5 2.5q40 0 72 -6.5t43.5 -11.5t13.5 -7q3 -3 2 -6l-46 -110q-1 -3 -6 -3q-1 0 -6 0.5t-13.5 1.5t-19 2t-25 1.5t-29.5 0.5 q-6 0 -14.5 -3t-20 -9.5t-20 -21.5t-11.5 -36l-12 -87q-6 -45 6 -58.5t39 -13.5q78 0 96 9q5 0 5 -3q0 -2 10 -57.5t10 -56.5q0 -2 -3 -5l-3 -1q-2 -1 -5.5 -2.5t-8.5 -3.5t-12 -4t-15.5 -4t-19.5 -4t-22.5 -3t-26.5 -2t-30 -1zM234 545h-111q-1 0 -1 4q-1 2 55.5 75 t56.5 74q-1 1 0.5 2t4.5 1h122q6 0 8 -4l67 -148q2 -4 -2 -4h-110q-4 0 -5 4l-30 63h-2q-44 -60 -46 -63q-3 -4 -7 -4z" />
<glyph unicode="&#x10a;" horiz-adv-x="478" d="M244 -10q-25 0 -45 1.5t-43 6.5t-40 13t-35 21.5t-27.5 33t-18.5 45.5t-7.5 60.5t5.5 77.5l27 190q9 65 30.5 112t47.5 74t63 42.5t69.5 20t74.5 4.5q53 0 92.5 -7t51 -12t14.5 -8t1 -6t-33 -67t-31 -65q0 -3 -5 -3q-2 1 -16 4t-41.5 6t-53.5 3q-17 0 -28.5 -3t-26.5 -13 t-25 -35t-16 -64l-23 -159q-10 -71 5.5 -91t56.5 -20q19 0 38.5 1.5t34.5 3.5t27.5 4t19.5 3.5t8 1.5q2 2 4 -2l26 -133q1 -2 -3 -6q-70 -35 -178 -35zM278 735q-4 0 -4 4l19 130q0 4 4 4h144q3 0 3 -4l-19 -130q0 -4 -4 -4h-143z" />
<glyph unicode="&#x10b;" horiz-adv-x="414" d="M210 -8q-29 0 -49.5 1.5t-44.5 6t-37.5 13.5t-29 23.5t-20 36t-8.5 51t4 68.5l15 110q7 52 26.5 89.5t42 57.5t55.5 31.5t58.5 14t59.5 2.5q40 0 72 -6.5t43.5 -11.5t13.5 -7q3 -3 2 -6l-46 -110q-1 -3 -6 -3q-1 0 -6 0.5t-13.5 1.5t-19 2t-25 1.5t-29.5 0.5 q-6 0 -14.5 -3t-20 -9.5t-20 -21.5t-11.5 -36l-12 -87q-6 -45 6 -58.5t39 -13.5q78 0 96 9q5 0 5 -3q0 -2 10 -57.5t10 -56.5q0 -2 -3 -5l-3 -1q-2 -1 -5.5 -2.5t-8.5 -3.5t-12 -4t-15.5 -4t-19.5 -4t-22.5 -3t-26.5 -2t-30 -1zM218 542q-3 0 -3 4l18 130q0 4 4 4h144 q3 0 3 -4l-19 -130q0 -4 -4 -4h-143z" />
<glyph unicode="&#x10c;" horiz-adv-x="478" d="M244 -10q-25 0 -45 1.5t-43 6.5t-40 13t-35 21.5t-27.5 33t-18.5 45.5t-7.5 60.5t5.5 77.5l27 190q9 65 30.5 112t47.5 74t63 42.5t69.5 20t74.5 4.5q53 0 92.5 -7t51 -12t14.5 -8t1 -6t-33 -67t-31 -65q0 -3 -5 -3q-2 1 -16 4t-41.5 6t-53.5 3q-17 0 -28.5 -3t-26.5 -13 t-25 -35t-16 -64l-23 -159q-10 -71 5.5 -91t56.5 -20q19 0 38.5 1.5t34.5 3.5t27.5 4t19.5 3.5t8 1.5q2 2 4 -2l26 -133q1 -2 -3 -6q-70 -35 -178 -35zM417 890h115q4 0 1 -4l-123 -148q-3 -4 -7 -4h-104q-7 0 -7 4q1 2 -20 38.5t-42.5 73t-19.5 36.5q-2 4 3 4h115q3 0 4 -4 l29 -62h2q46 59 48 62q3 4 6 4z" />
<glyph unicode="&#x10d;" horiz-adv-x="414" d="M210 -8q-29 0 -49.5 1.5t-44.5 6t-37.5 13.5t-29 23.5t-20 36t-8.5 51t4 68.5l15 110q7 52 26.5 89.5t42 57.5t55.5 31.5t58.5 14t59.5 2.5q40 0 72 -6.5t43.5 -11.5t13.5 -7q3 -3 2 -6l-46 -110q-1 -3 -6 -3q-1 0 -6 0.5t-13.5 1.5t-19 2t-25 1.5t-29.5 0.5 q-6 0 -14.5 -3t-20 -9.5t-20 -21.5t-11.5 -36l-12 -87q-6 -45 6 -58.5t39 -13.5q78 0 96 9q5 0 5 -3q0 -2 10 -57.5t10 -56.5q0 -2 -3 -5l-3 -1q-2 -1 -5.5 -2.5t-8.5 -3.5t-12 -4t-15.5 -4t-19.5 -4t-22.5 -3t-26.5 -2t-30 -1zM345 697h115q5 0 1 -4l-123 -148q-3 -4 -7 -4 h-104q-7 0 -7 4q1 2 -20 38.5t-42.5 73t-19.5 36.5q-2 4 3 4h115q3 0 4 -4l29 -62h2q46 59 48 62q3 4 6 4z" />
<glyph unicode="&#x10e;" horiz-adv-x="526" d="M199 157h53q17 0 27.5 3t21.5 14t19 35.5t13 64.5l18 134q3 41 4.5 64t-7.5 34.5t-17.5 14t-26.5 2.5h-53zM230 0h-222l96 680h222q26 0 42.5 -1t44 -6t42 -15t36.5 -28.5t27 -46t13 -67.5t-5 -93l-22 -161q-10 -73 -33 -124.5t-48 -77.5t-63 -40.5t-64.5 -17t-65.5 -2.5 zM391 890h115q5 0 1 -4l-122 -148q-4 -4 -8 -4h-104q-2 0 -4.5 1.5t-1.5 2.5q1 2 -20.5 38.5t-42.5 73t-19 36.5q-2 4 2 4h115q3 0 4 -4l30 -62h2q46 59 48 62q3 4 5 4z" />
<glyph unicode="&#x10f;" horiz-adv-x="634" d="M398 0h-156q-3 0 -3 4l2 12q-9 -10 -34 -17.5t-54 -7.5q-17 0 -29 1t-28 3.5t-27 8.5t-23 16t-18.5 26t-11.5 37t-4 51t6 67l13 87q8 55 23.5 94.5t32.5 60.5t41.5 33t43 14.5t43.5 2.5q12 0 34.5 -3.5t38.5 -7.5l17 -3l28 197q0 4 6 4h155q2 0 2 -4l-94 -672 q-1 -4 -4 -4zM525 458q-2 -1 -3.5 0t-0.5 4l30 214q0 4 4 4h119q3 0 3 -4l-18 -132q-2 -5 -5 -7q-3 -1 -64.5 -39t-64.5 -40zM208 129q22 0 33.5 4.5t14.5 9.5t4 14l26 184q-26 14 -59 14q-13 0 -20 -14t-14 -64l-9 -68q-7 -37 -1 -55t11 -21.5t14 -3.5z" />
<glyph unicode="&#x110;" horiz-adv-x="546" d="M200 157h54q36 0 53.5 20.5t27.5 97.5l18 133q4 33 4 55t-3 34t-11 18t-15.5 7t-21.5 1h-54l-17 -114h56q3 0 3 -4l-18 -124q0 -4 -3 -4h-56zM234 0h-225l39 277h-29q-2 0 -2 4l17 124q1 4 3 4h29l39 271h225q17 0 29.5 -0.5t30.5 -2.5t31 -6t28.5 -10.5t27 -16.5 t22.5 -23.5t17.5 -33t11 -43t4 -54.5t-5.5 -67l-22 -161q-10 -73 -32.5 -124.5t-46.5 -77.5t-61.5 -40.5t-63.5 -17t-66 -2.5z" />
<glyph unicode="&#x111;" horiz-adv-x="515" d="M209 132q31 0 41 6t12 19l26 184q-27 14 -59 14q-7 0 -12 -3.5t-11 -22t-11 -52.5l-9 -65q-6 -35 -2 -53t9.5 -22.5t15.5 -4.5zM155 -6q-22 0 -38 1.5t-33.5 7t-29 14.5t-21.5 25t-14.5 38t-4.5 53t6 71l12 84q10 67 28.5 110.5t46 62.5t51.5 25.5t58 6.5q19 0 41.5 -3.5 t36.5 -7.5l13 -3l8 55h-80q-4 0 -2 5l14 103q1 4 5 4h79l4 30q0 4 3 4h157q3 0 3 -4l-4 -30h42q3 0 3 -4l-14 -104q-2 -4 -4 -4h-44l-74 -530q-1 -4 -3 -4h-157q-3 0 -3 4l2 12q-22 -22 -87 -22z" />
<glyph unicode="&#x112;" horiz-adv-x="463" d="M8 0l96 680h394q2 0 2 -4l-20 -141q0 -4 -3 -4h-225l-16 -114h183q4 0 3 -4l-20 -140q0 -4 -4 -4h-183l-17 -120h225q3 0 2 -4l-19 -141q-2 -4 -4 -4h-394zM450 756h-273q-3 0 -3 4l15 109q0 4 5 4h273q2 0 2 -4l-15 -109q-1 -4 -4 -4z" />
<glyph unicode="&#x113;" horiz-adv-x="449" d="M198 292h72q4 27 -2.5 43.5t-12.5 20t-12 3.5q-7 0 -14.5 -4.5t-17 -21t-13.5 -41.5zM204 -10q-215 0 -184 214l12 84q30 209 231 209q16 0 29 -1t31 -4.5t31.5 -10t29 -17t24 -26t17.5 -37t8 -49.5t-4 -64l-14 -97h-231q-6 -38 5.5 -52.5t36.5 -14.5q32 0 68 3.5 t55.5 6.5t21.5 4q3 1 3 -3q12 -84 12 -106q0 -8 -2 -9l-6 -2q-5 -2 -13.5 -4.5t-21 -5.5t-28 -6.5t-32.5 -6t-37.5 -4t-41.5 -1.5zM410 563h-273q-3 0 -3 4l15 109q0 4 4 4h273q3 0 3 -4l-15 -109q-1 -4 -4 -4z" />
<glyph unicode="&#x114;" horiz-adv-x="463" d="M8 0l96 680h394q2 0 2 -4l-20 -141q0 -4 -3 -4h-225l-16 -114h183q4 0 3 -4l-20 -140q0 -4 -4 -4h-183l-17 -120h225q3 0 2 -4l-19 -141q-2 -4 -4 -4h-394zM323 735q-122 0 -122 115q0 15 1.5 22.5t3.5 9t6 1.5h66q7 0 8 -6q6 -25 15.5 -33t33.5 -8q43 0 61 41q3 6 12 6 h66q5 0 7 -1.5t1 -5.5q-24 -141 -159 -141z" />
<glyph unicode="&#x115;" horiz-adv-x="449" d="M198 292h72q4 27 -2.5 43.5t-12.5 20t-12 3.5q-7 0 -14.5 -4.5t-17 -21t-13.5 -41.5zM204 -10q-215 0 -184 214l12 84q30 209 231 209q16 0 29 -1t31 -4.5t31.5 -10t29 -17t24 -26t17.5 -37t8 -49.5t-4 -64l-14 -97h-231q-6 -38 5.5 -52.5t36.5 -14.5q32 0 68 3.5 t55.5 6.5t21.5 4q3 1 3 -3q12 -84 12 -106q0 -8 -2 -9l-6 -2q-5 -2 -13.5 -4.5t-21 -5.5t-28 -6.5t-32.5 -6t-37.5 -4t-41.5 -1.5zM271 542q-122 0 -122 115q0 15 1.5 22.5t3.5 9t6 1.5h66q7 0 8 -6q6 -25 15.5 -33t33.5 -8q43 0 61 41q3 6 12 6h66q5 0 7 -1.5t1 -5.5 q-24 -141 -159 -141z" />
<glyph unicode="&#x116;" horiz-adv-x="463" d="M8 0l96 680h394q2 0 2 -4l-20 -141q0 -4 -3 -4h-225l-16 -114h183q4 0 3 -4l-20 -140q0 -4 -4 -4h-183l-17 -120h225q3 0 2 -4l-19 -141q-2 -4 -4 -4h-394zM258 735q-3 0 -3 4l18 130q0 4 5 4h144q2 0 2 -4l-18 -130q0 -4 -5 -4h-143z" />
<glyph unicode="&#x117;" horiz-adv-x="449" d="M204 -10q-215 0 -184 214l12 84q30 209 231 209q16 0 29 -1t31 -4.5t31.5 -10t29 -17t24 -26t17.5 -37t8 -49.5t-4 -64l-14 -97h-231q-6 -38 5.5 -52.5t36.5 -14.5q32 0 68 3.5t55.5 6.5t21.5 4q3 1 3 -3q12 -84 12 -106q0 -8 -2 -9l-6 -2q-5 -2 -13.5 -4.5t-21 -5.5 t-28 -6.5t-32.5 -6t-37.5 -4t-41.5 -1.5zM203 542q-3 0 -3 4l18 130q0 4 4 4h144q3 0 3 -4l-18 -130q0 -4 -5 -4h-143zM198 292h72q4 27 -2.5 43.5t-12.5 20t-12 3.5q-7 0 -14.5 -4.5t-17 -21t-13.5 -41.5z" />
<glyph unicode="&#x118;" horiz-adv-x="463" d="M8 0l96 680h394q2 0 2 -4l-20 -141q0 -4 -3 -4h-225l-16 -114h183q4 0 3 -4l-20 -140q0 -4 -4 -4h-183l-17 -120h225q2 0 2 -4l-20 -141v-1q0 -2 -4 -5q-61 -35 -74 -52q-8 -11 -8 -21t8 -10q9 0 23 9q5 3 8 -1q1 -2 15 -38t14 -37q1 -4 -3 -9q-42 -34 -99 -34 q-88 0 -88 77q0 75 62 118h-251z" />
<glyph unicode="&#x119;" horiz-adv-x="449" d="M154 -196q-87 0 -87 77q0 73 61 118q-129 32 -107 205l11 84q28 209 231 209q16 0 29 -1t31 -4.5t31.5 -10t29 -17t24 -26t17.5 -37t8 -49.5t-4 -64l-14 -97h-231q-6 -38 5.5 -52.5t36.5 -14.5q32 0 68 3.5t55.5 6.5t21.5 4q3 1 3 -3q12 -84 12 -106q0 -8 -2 -9 q-60 -20 -120 -26q-27 -16 -38.5 -23t-24.5 -20.5t-13 -26.5q0 -10 9 -10t23 9q4 3 8 -1q0 -2 6.5 -20t14 -36t7.5 -19q2 -5 -2 -9q-6 -4 -17 -10.5t-35.5 -15t-47.5 -8.5zM198 292h72q4 27 -2.5 43.5t-12.5 20t-12 3.5q-7 0 -14.5 -4.5t-17 -21t-13.5 -41.5z" />
<glyph unicode="&#x11a;" horiz-adv-x="463" d="M8 0l96 680h394q2 0 2 -4l-20 -141q0 -4 -3 -4h-225l-16 -114h183q4 0 3 -4l-20 -140q0 -4 -4 -4h-183l-17 -120h225q3 0 2 -4l-19 -141q-2 -4 -4 -4h-394zM397 890h115q5 0 1 -4l-122 -148q-4 -4 -8 -4h-104q-2 0 -4.5 1.5t-1.5 2.5q1 2 -20.5 38.5t-42.5 73t-19 36.5 q-2 4 2 4h115q3 0 4 -4l30 -62h2q46 59 48 62q3 4 5 4z" />
<glyph unicode="&#x11b;" horiz-adv-x="449" d="M198 292h72q4 27 -2.5 43.5t-12.5 20t-12 3.5q-7 0 -14.5 -4.5t-17 -21t-13.5 -41.5zM204 -10q-215 0 -184 214l12 84q30 209 231 209q16 0 29 -1t31 -4.5t31.5 -10t29 -17t24 -26t17.5 -37t8 -49.5t-4 -64l-14 -97h-231q-6 -38 5.5 -52.5t36.5 -14.5q32 0 68 3.5 t55.5 6.5t21.5 4q3 1 3 -3q12 -84 12 -106q0 -8 -2 -9l-6 -2q-5 -2 -13.5 -4.5t-21 -5.5t-28 -6.5t-32.5 -6t-37.5 -4t-41.5 -1.5zM338 697h115q5 0 2 -4l-124 -148q-3 -4 -7 -4h-104q-2 0 -4.5 1.5t-1.5 2.5q1 2 -20.5 38.5l-43 73t-19.5 36.5q0 4 3 4h115q3 0 4 -4l30 -62 h2q45 59 47 62q3 4 6 4z" />
<glyph unicode="&#x11c;" horiz-adv-x="525" d="M246 -10q-21 0 -37.5 1t-37.5 4t-36 8.5t-33.5 15t-29 23.5t-22.5 33t-15 44t-6 57t5 72l26 191q9 69 34 118.5t53 74.5t68.5 39t68 17t64.5 3q52 0 99.5 -7t68 -13t22.5 -8q2 -1 0 -6l-55 -129q-1 -3 -6 -3q-2 1 -23.5 3.5t-59 5.5t-68.5 3q-18 0 -30 -3t-27 -13 t-25.5 -34.5t-15.5 -63.5l-23 -163q-10 -71 6 -92.5t57 -21.5l80 6l14 100h-64q-4 0 -3 4l18 133q1 4 5 4h201l-54 -381q-145 -22 -219 -22zM310 738h-111q-1 0 -1 4q-1 2 55.5 75t56.5 74q-1 1 0.5 2t4.5 1h122q6 0 8 -4l67 -148q2 -4 -2 -4h-110q-4 0 -5 4l-30 63h-2 q-44 -60 -46 -63q-3 -4 -7 -4z" />
<glyph unicode="&#x11d;" horiz-adv-x="464" d="M143 -220q-45 0 -86 5.5t-58 10t-21 6.5q-3 2 0 5q0 2 24.5 59.5t24.5 58.5q0 3 5 3l7 -1q7 -1 18.5 -3t26 -3.5t34.5 -2.5t40 -1q18 0 30.5 3t26 19t18.5 44l5 31q-64 -14 -95 -14q-19 0 -33 1.5t-31 6t-27 13t-21.5 22.5t-14 35.5t-5.5 51.5t5 69l11 84q9 69 28 113.5 t47.5 64t54.5 26t64 6.5q68 0 81 -22l2 12q0 4 4 4h155q4 0 4 -4l-71 -500q-8 -56 -27 -95t-41 -60t-56.5 -32t-61 -13.5t-67.5 -2.5zM237 545h-111q-1 0 -1 4q-1 2 55.5 75t56.5 74q-1 1 0.5 2t4.5 1h122q6 0 8 -4l67 -148q2 -4 -2 -4h-110q-4 0 -5 4l-30 63h-2 q-44 -60 -46 -63q-3 -4 -7 -4zM193 131q13 0 28.5 3.5t24.5 7.5l10 4l26 183q2 12 -6.5 19t-38.5 7q-36 0 -47 -81l-9 -64q-6 -34 -5 -52t5 -22.5t12 -4.5z" />
<glyph unicode="&#x11e;" horiz-adv-x="525" d="M246 -10q-21 0 -37.5 1t-37.5 4t-36 8.5t-33.5 15t-29 23.5t-22.5 33t-15 44t-6 57t5 72l26 191q9 69 34 118.5t53 74.5t68.5 39t68 17t64.5 3q52 0 99.5 -7t68 -13t22.5 -8q2 -1 0 -6l-55 -129q-1 -3 -6 -3q-2 1 -23.5 3.5t-59 5.5t-68.5 3q-18 0 -30 -3t-27 -13 t-25.5 -34.5t-15.5 -63.5l-23 -163q-10 -71 6 -92.5t57 -21.5l80 6l14 100h-64q-4 0 -3 4l18 133q1 4 5 4h201l-54 -381q-145 -22 -219 -22zM347 735q-122 0 -122 115q0 15 1.5 22.5t3.5 9t6 1.5h66q7 0 8 -6q6 -25 15.5 -33t33.5 -8q43 0 61 41q3 6 12 6h66q5 0 7 -1.5 t1 -5.5q-24 -141 -159 -141z" />
<glyph unicode="&#x11f;" horiz-adv-x="464" d="M193 131q13 0 28.5 3.5t24.5 7.5l10 4l26 183q2 12 -6.5 19t-38.5 7q-36 0 -47 -81l-9 -64q-6 -34 -5 -52t5 -22.5t12 -4.5zM143 -220q-45 0 -86 5.5t-58 10t-21 6.5q-3 2 0 5q0 2 24.5 59.5t24.5 58.5q0 5 5 3l7 -1q7 -1 18.5 -3t26 -3.5t34.5 -2.5t40 -1q18 0 30.5 3 t26 19t18.5 44l5 31q-64 -14 -95 -14q-19 0 -33 1.5t-31 6t-27 13t-21.5 22.5t-14 35.5t-5.5 51.5t5 69l11 84q9 69 28 113.5t47.5 64t54.5 26t64 6.5q68 0 81 -22l2 12q0 4 4 4h155q4 0 4 -4l-71 -500q-8 -56 -27 -95t-41 -60t-56.5 -32t-61 -13.5t-67.5 -2.5zM276 542 q-123 0 -123 115q0 33 12 33h66q7 0 8 -6q6 -25 15.5 -33t33.5 -8q43 0 61 41q3 6 12 6h66q5 0 7 -1.5t1 -5.5q-24 -141 -159 -141z" />
<glyph unicode="&#x120;" horiz-adv-x="525" d="M246 -10q-21 0 -37.5 1t-37.5 4t-36 8.5t-33.5 15t-29 23.5t-22.5 33t-15 44t-6 57t5 72l26 191q9 69 34 118.5t53 74.5t68.5 39t68 17t64.5 3q52 0 99.5 -7t68 -13t22.5 -8q2 -1 0 -6l-55 -129q-1 -3 -6 -3q-2 1 -23.5 3.5t-59 5.5t-68.5 3q-18 0 -30 -3t-27 -13 t-25.5 -34.5t-15.5 -63.5l-23 -163q-10 -71 6 -92.5t57 -21.5l80 6l14 100h-64q-4 0 -3 4l18 133q1 4 5 4h201l-54 -381q-145 -22 -219 -22zM267 735q-3 0 -3 4l18 130q0 4 4 4h144q3 0 3 -4l-18 -130q0 -4 -5 -4h-143z" />
<glyph unicode="&#x121;" horiz-adv-x="464" d="M143 -220q-45 0 -86 5.5t-58 10t-21 6.5q-3 2 0 5q0 2 24.5 59.5t24.5 58.5q0 3 5 3l7 -1q7 -1 18.5 -3t26 -3.5t34.5 -2.5t40 -1q18 0 30.5 3t26 19t18.5 44l5 31q-64 -14 -95 -14q-19 0 -33 1.5t-31 6t-27 13t-21.5 22.5t-14 35.5t-5.5 51.5t5 69l11 84q9 69 28 113.5 t47.5 64t54.5 26t64 6.5q68 0 81 -22l2 12q0 4 4 4h155q4 0 4 -4l-71 -500q-8 -56 -27 -95t-41 -60t-56.5 -32t-61 -13.5t-67.5 -2.5zM201 542q-4 0 -4 4l19 130q0 4 4 4h144q3 0 3 -4l-19 -130q0 -4 -4 -4h-143zM193 131q13 0 28.5 3.5t24.5 7.5l10 4l26 183q2 12 -6.5 19 t-38.5 7q-36 0 -47 -81l-9 -64q-6 -34 -5 -52t5 -22.5t12 -4.5z" />
<glyph unicode="&#x122;" horiz-adv-x="525" d="M246 -10q-21 0 -37.5 1t-37.5 4t-36 8.5t-33.5 15t-29 23.5t-22.5 33t-15 44t-6 57t5 72l26 191q9 69 34 118.5t53 74.5t68.5 39t68 17t64.5 3q52 0 99.5 -7t68 -13t22.5 -8q2 -1 0 -6l-55 -129q-1 -3 -6 -3q-2 1 -23.5 3.5t-59 5.5t-68.5 3q-18 0 -30 -3t-27 -13 t-25.5 -34.5t-15.5 -63.5l-23 -163q-10 -71 6 -92.5t57 -21.5l80 6l14 100h-64q-4 0 -3 4l18 133q1 4 5 4h201l-54 -381q-145 -22 -219 -22zM145 -269q-2 -1 -3.5 0t-0.5 4l30 214q0 4 3 4h119q4 0 4 -4l-19 -132q0 -4 -5 -7q-3 -1 -64 -39t-64 -40z" />
<glyph unicode="&#x123;" horiz-adv-x="464" d="M143 -220q-45 0 -86 5.5t-58 10t-21 6.5q-3 2 0 5q0 2 24.5 59.5t24.5 58.5q0 3 5 3l7 -1q7 -1 18.5 -3t26 -3.5t34.5 -2.5t40 -1q18 0 30.5 3t26 19t18.5 44l5 31q-64 -14 -95 -14q-19 0 -33 1.5t-31 6t-27 13t-21.5 22.5t-14 35.5t-5.5 51.5t5 69l11 84q9 69 28 113.5 t47.5 64t54.5 26t64 6.5q68 0 81 -22l2 12q0 4 4 4h155q4 0 4 -4l-71 -500q-8 -56 -27 -95t-41 -60t-56.5 -32t-61 -13.5t-67.5 -2.5zM351 769q2 1 4 0t1 -4l-30 -214q0 -4 -4 -4h-119q-3 0 -3 4l19 132q0 4 5 7zM193 131q13 0 28.5 3.5t24.5 7.5l10 4l26 183q2 12 -6.5 19 t-38.5 7q-36 0 -47 -81l-9 -64q-6 -34 -5 -52t5 -22.5t12 -4.5z" />
<glyph unicode="&#x124;" horiz-adv-x="548" d="M11 0q-3 0 -3 4l95 672q0 4 3 4h163q3 0 3 -4l-37 -261h134l37 261q0 4 3 4h163q3 0 3 -4l-95 -672q0 -4 -3 -4h-163q-3 0 -3 4l37 262h-134l-37 -262q0 -4 -3 -4h-163zM304 738h-111q-2 0 -2 4q-1 2 55.5 75t56.5 74q3 2 6 3h122q5 0 7 -4l67 -148q2 -4 -1 -4h-110 q-5 0 -6 4l-30 63h-2q-44 -60 -46 -63q-3 -4 -6 -4z" />
<glyph unicode="&#x125;" horiz-adv-x="479" d="M10 0q-3 0 -3 4l95 672q0 4 3 4h157q3 0 3 -4l-29 -202q64 19 94 19q15 0 26 -1t26 -3.5t26 -9t22.5 -16t18.5 -25t12 -36t4.5 -49.5t-5.5 -65l-40 -284q0 -4 -3 -4h-157q-3 0 -3 4l39 273q6 35 3 52.5t-7 21t-13 3.5q-12 0 -27.5 -4t-24.5 -8l-9 -3l-48 -335q0 -4 -3 -4 h-157zM270 750h-111q-1 0 -1 4q-1 2 55.5 75t56.5 74q-1 1 0.5 2t4.5 1h122q6 0 8 -4l67 -148q2 -4 -2 -4h-110q-4 0 -5 4l-30 63h-2q-44 -60 -46 -63q-3 -4 -7 -4z" />
<glyph unicode="&#x128;" horiz-adv-x="245" d="M11 0q-3 0 -3 4l95 672q0 4 4 4h163q3 0 2 -4l-94 -672q0 -4 -4 -4h-163zM61 748q-2 0 -2 5l11 82q1 10 10 20q30 35 77 35q28 0 65 -19t58 -19q22 0 46.5 17.5t26.5 17.5q4 0 4 -6l-11 -80q-2 -13 -11 -21q-43 -39 -79 -39q-29 0 -64.5 20.5t-54.5 20.5q-23 0 -49 -17 t-27 -17z" />
<glyph unicode="&#x129;" horiz-adv-x="234" d="M-2 0q-3 0 -2 4l67 479q1 4 3 4h157q3 0 3 -4l-67 -479q-1 -4 -4 -4h-157zM28 555q-4 0 -2 5l11 82q1 10 10 20q30 35 77 35q28 0 65 -19t58 -19q22 0 46.5 17.5t26.5 17.5q4 0 4 -6l-12 -80q-2 -13 -11 -21q-43 -39 -78 -39q-29 0 -64.5 20.5t-54.5 20.5q-23 0 -49 -17 t-27 -17z" />
<glyph unicode="&#x12a;" horiz-adv-x="245" d="M11 0q-3 0 -3 4l95 672q0 4 3 4h163q3 0 3 -4l-95 -672q0 -4 -3 -4h-163zM335 756h-273q-4 0 -4 4l16 109q0 4 4 4h273q3 0 3 -4l-15 -109q-1 -4 -4 -4z" />
<glyph unicode="&#x12b;" horiz-adv-x="234" d="M-2 0q-3 0 -3 4l68 479q0 4 3 4h157q3 0 3 -4l-68 -479q0 -4 -3 -4h-157zM303 563h-273q-3 0 -3 4l15 109q0 4 4 4h273q3 0 3 -4l-15 -109q-1 -4 -4 -4z" />
<glyph unicode="&#x12e;" horiz-adv-x="245" d="M11 0q-2 0 -2 4l94 672q1 4 4 4h163q3 0 2 -4l-94 -670v-2q0 -4 -4 -4h-3q-28 -16 -40 -23.5t-26 -21.5t-14 -27q0 -10 9 -10q10 0 23 9q4 3 8 -1q0 -2 6.5 -20t14 -36t7.5 -19q2 -5 -2 -9q-6 -4 -17 -10.5t-35.5 -15t-47.5 -8.5q-87 0 -87 77q0 72 57 115h-16z" />
<glyph unicode="&#x12f;" horiz-adv-x="235" d="M9 0q-3 0 -3 4l67 479q1 4 4 4h157q3 0 3 -4l-68 -479q0 -2 -2 -4q-3 -1 -4 -2q-61 -35 -74 -52q-8 -11 -8 -21t9 -10q10 0 23 9q4 3 8 -1q0 -2 6.5 -20t14 -36t7.5 -19q2 -5 -2 -9q-6 -4 -17 -10.5t-35.5 -15t-47.5 -8.5q-87 0 -87 77q0 76 62 118h-13zM87 550 q-3 0 -3 4l18 122q0 4 3 4h155q3 0 3 -4l-18 -122q0 -4 -3 -4h-155z" />
<glyph unicode="&#x130;" horiz-adv-x="245" d="M11 0q-3 0 -3 4l95 672q0 4 3 4h163q3 0 3 -4l-95 -672q0 -4 -3 -4h-163zM124 735q-3 0 -3 4l18 130q0 4 4 4h144q3 0 3 -4l-18 -130q0 -4 -5 -4h-143z" />
<glyph unicode="&#x131;" horiz-adv-x="234" d="M-2 0q-3 0 -3 4l68 479q0 4 3 4h157q3 0 3 -4l-68 -479q0 -4 -3 -4h-157z" />
<glyph unicode="&#x134;" horiz-adv-x="449" d="M145 -10q-23 0 -43.5 1.5t-35.5 4t-27.5 5t-21.5 5.5t-14.5 5t-8.5 4l-4 2q-3 1 -1 6l59 132q2 5 6 3q20 -10 108 -10q72 0 83 73l63 455q1 4 4 4h163q4 0 3 -4l-66 -470q-8 -59 -29.5 -101t-46 -64t-61.5 -34t-64 -14.5t-66 -2.5zM357 738h-111q-1 0 -1 4q-1 2 55.5 75 t56.5 74q-1 1 0.5 2t4.5 1h122q6 0 8 -4l67 -148q2 -4 -2 -4h-110q-4 0 -5 4l-30 63h-2q-44 -60 -46 -63q-3 -4 -7 -4z" />
<glyph unicode="&#x136;" horiz-adv-x="561" d="M11 0q-3 0 -3 4l95 672q0 4 3 4h163q3 0 3 -4l-37 -262h37q147 258 149 262q3 4 4 4h176q2 0 1 -4l-205 -332q118 -337 120 -340q3 -4 -1 -4h-175q-4 0 -5 4l-75 261h-47l-37 -261q0 -4 -3 -4h-163zM151 -269q-2 -1 -3.5 0t-0.5 4l30 214q0 4 3 4h119q4 0 4 -4l-19 -132 q0 -4 -5 -7q-3 -1 -64 -39t-64 -40z" />
<glyph unicode="&#x137;" horiz-adv-x="491" d="M10 0q-3 0 -3 4l95 672q0 4 3 4h157q3 0 3 -4l-50 -359h28q96 163 98 166q3 4 5 4h170q3 0 1 -4l-150 -231q100 -246 101 -248q2 -4 -1 -4h-173q-2 0 -5 4l-64 182h-29l-26 -182q0 -4 -3 -4h-157zM120 -269q-2 -1 -3.5 0t-0.5 4l30 214q0 4 3 4h119q4 0 4 -4l-19 -132 q0 -4 -5 -7q-3 -1 -64 -39t-64 -40z" />
<glyph unicode="&#x139;" horiz-adv-x="450" d="M8 0l95 676q0 4 4 4h163q2 0 2 -4l-74 -527h225q3 0 2 -4l-19 -141q-2 -4 -4 -4h-394zM313 743q-4 -4 -5 -4h-112q-3 0 0 4l87 148q3 4 7 4h133q4 0 1 -4z" />
<glyph unicode="&#x13a;" horiz-adv-x="286" d="M184 -6q-29 0 -48 1.5t-39 6t-32 13.5t-22 23.5t-13.5 36.5t-3.5 52t6 70l68 479q0 4 3 4h156q3 0 3 -4l-68 -479q-6 -39 4 -52t34 -13q8 0 18.5 1t17.5 2t8 1q2 0 3 -4v-25q0 -101 -6 -103q-2 -1 -14.5 -3t-34 -4.5t-40.5 -2.5zM228 754q-4 -4 -5 -4h-112q-3 0 0 4 l88 148q3 4 6 4h133q4 0 1 -4z" />
<glyph unicode="&#x13b;" horiz-adv-x="450" d="M8 0l95 676q0 4 4 4h163q2 0 2 -4l-74 -527h225q3 0 2 -4l-19 -141q-2 -4 -4 -4h-394zM116 -269q-2 -1 -3.5 0t-0.5 4l30 214q0 4 3 4h119q4 0 4 -4l-19 -132q0 -4 -5 -7q-3 -1 -64 -39t-64 -40z" />
<glyph unicode="&#x13c;" horiz-adv-x="286" d="M184 -6q-29 0 -48 1.5t-39 6t-32 13.5t-22 23.5t-13.5 36.5t-3.5 52t6 70l68 479q0 4 3 4h156q3 0 3 -4l-68 -479q-6 -39 4 -52t34 -13q8 0 18.5 1t17.5 2t8 1q2 0 3 -4v-25q0 -101 -6 -103q-2 -1 -14.5 -3t-34 -4.5t-40.5 -2.5zM38 -269q-5 -3 -5 4l30 214q0 4 4 4h119 q4 0 3 -4l-18 -132q-2 -5 -5 -7q-3 -1 -64 -39t-64 -40z" />
<glyph unicode="&#x13d;" horiz-adv-x="450" d="M8 0l95 676q0 4 4 4h163q2 0 2 -4l-74 -527h225q3 0 2 -4l-19 -141q-2 -4 -4 -4h-394zM303 528q-2 -1 -3.5 0t-0.5 4l30 214q0 4 3 4h119q4 0 4 -4l-19 -132q0 -4 -5 -7q-3 -1 -64 -39t-64 -40z" />
<glyph unicode="&#x13e;" horiz-adv-x="429" d="M184 -6q-29 0 -48 1.5t-39 6t-32 13.5t-22 23.5t-13.5 36.5t-3.5 52t6 70l68 479q0 4 3 4h156q3 0 3 -4l-68 -479q-6 -39 4 -52t34 -13q8 0 18.5 1t17.5 2t8 1q2 0 3 -4v-25q0 -101 -6 -103q-2 -1 -14.5 -3t-34 -4.5t-40.5 -2.5zM313 458q-2 -1 -3.5 0t-0.5 4l30 214 q0 4 3 4h119q4 0 4 -4l-19 -132q0 -4 -5 -7q-3 -1 -64 -39t-64 -40z" />
<glyph unicode="&#x141;" horiz-adv-x="476" d="M8 0l33 230q-36 -26 -38 -27q-3 -1 -3 3l20 138q0 5 4 7l37 26l43 300q0 3 3 3h163q4 0 3 -4l-27 -197q109 74 110 75q2 1 3 0.5t0 -3.5l-19 -138q-2 -6 -4 -7l-111 -74l-26 -183h224q3 0 3 -4l-20 -141q0 -4 -4 -4h-394z" />
<glyph unicode="&#x142;" horiz-adv-x="329" d="M186 -6q-28 0 -46.5 1.5t-38.5 6t-31.5 13t-22 23.5t-14.5 36.5t-4 52t6 70.5l7 50q-33 -21 -34 -22t-2 1q-1 1 -1 2l18 128q0 4 4 7l34 22l41 291q0 4 4 4h155q4 0 3 -4l-27 -194q61 40 63 41t2 0t-1 -3l-18 -128q-1 -6 -3 -7l-62 -41l-21 -147q-5 -41 4.5 -53t32.5 -12 q8 0 18 1t18 2l7 1q3 2 3 -3q0 -2 -0.5 -62.5t-0.5 -61.5q0 -5 -5 -5l-6 -1q-5 -1 -14 -2.5t-20 -3t-24 -2.5t-24 -1z" />
<glyph unicode="&#x143;" horiz-adv-x="569" d="M7 0q-3 0 -3 4l95 672q0 4 4 4h175q4 0 5 -3l98 -377h8l53 376q0 4 3 4h160q4 0 3 -4l-95 -672q0 -4 -4 -4h-178q-5 0 -6 4l-95 375h-10l-53 -375q0 -4 -3 -4h-157zM373 743q-4 -4 -5 -4h-112q-2 0 -1 4l88 148q3 4 7 4h133q4 0 1 -4z" />
<glyph unicode="&#x144;" horiz-adv-x="479" d="M10 0q-3 0 -3 4l68 479q0 4 3 4h157q3 0 3 -4l-2 -9q66 19 94 19q15 0 26 -1t26 -3.5t26 -9t22.5 -16t18.5 -25t12 -36t4.5 -49.5t-5.5 -65l-40 -284q0 -4 -3 -4h-157q-3 0 -3 4l39 273q6 34 4 51.5t-6.5 21.5t-14.5 4q-12 0 -27.5 -4t-24.5 -8l-9 -3l-48 -335 q0 -4 -3 -4h-157zM310 550q-4 -4 -5 -4h-112q-2 0 -1 4l88 148q3 4 7 4h133q4 0 1 -4z" />
<glyph unicode="&#x145;" horiz-adv-x="569" d="M7 0q-3 0 -3 4l95 672q0 4 4 4h175q4 0 5 -3l98 -377h8l53 376q0 4 3 4h160q4 0 3 -4l-95 -672q0 -4 -4 -4h-178q-5 0 -6 4l-95 375h-10l-53 -375q0 -4 -3 -4h-157zM166 -269q-2 -1 -3.5 0t-0.5 4l30 214q0 4 3 4h119q4 0 4 -4l-19 -132q0 -4 -5 -7q-3 -1 -64 -39 t-64 -40z" />
<glyph unicode="&#x146;" horiz-adv-x="479" d="M10 0q-3 0 -3 4l68 479q0 4 3 4h157q3 0 3 -4l-2 -9q66 19 94 19q15 0 26 -1t26 -3.5t26 -9t22.5 -16t18.5 -25t12 -36t4.5 -49.5t-5.5 -65l-40 -284q0 -4 -3 -4h-157q-3 0 -3 4l39 273q6 34 4 51.5t-6.5 21.5t-14.5 4q-12 0 -27.5 -4t-24.5 -8l-9 -3l-48 -335 q0 -4 -3 -4h-157zM120 -269q-2 -1 -3.5 0t-0.5 4l30 214q0 4 3 4h119q4 0 4 -4l-19 -132q0 -4 -5 -7q-3 -1 -64 -39t-64 -40z" />
<glyph unicode="&#x147;" horiz-adv-x="569" d="M7 0q-3 0 -3 4l95 672q0 4 4 4h175q4 0 5 -3l98 -377h8l53 376q0 4 3 4h160q4 0 3 -4l-95 -672q0 -4 -4 -4h-178q-5 0 -6 4l-95 375h-10l-53 -375q0 -4 -3 -4h-157zM424 890h115q5 0 1 -4l-122 -148q-4 -4 -8 -4h-104q-2 0 -4.5 1.5t-1.5 2.5q1 2 -20.5 38.5l-43 73 t-19.5 36.5q0 4 3 4h115q3 0 4 -4l30 -62h2q45 59 47 62q3 4 6 4z" />
<glyph unicode="&#x148;" horiz-adv-x="479" d="M10 0q-3 0 -3 4l68 479q0 4 3 4h157q3 0 3 -4l-2 -9q66 19 94 19q15 0 26 -1t26 -3.5t26 -9t22.5 -16t18.5 -25t12 -36t4.5 -49.5t-5.5 -65l-40 -284q0 -4 -3 -4h-157q-3 0 -3 4l39 273q6 34 4 51.5t-6.5 21.5t-14.5 4q-12 0 -27.5 -4t-24.5 -8l-9 -3l-48 -335 q0 -4 -3 -4h-157zM352 697h115q5 0 2 -4l-124 -148q-3 -4 -7 -4h-104q-7 0 -7 4q1 2 -20 38.5t-42.5 73t-19.5 36.5q0 4 3 4h115q3 0 4 -4l30 -62h2q45 59 47 62q3 4 6 4z" />
<glyph unicode="&#x14c;" horiz-adv-x="524" d="M252 145q38 0 53.5 19.5t26.5 95.5l22 162q3 40 5 62.5t-7 34t-18 14t-28 2.5q-36 0 -52.5 -19t-26.5 -94l-23 -162q-11 -76 -1 -95.5t49 -19.5zM230 -11q-22 0 -38.5 1t-37 4t-35 8.5t-30.5 15t-27 23t-20 33t-13 44t-4 57.5t6 73l27 189q10 68 31 116.5t45.5 74.5 t60.5 40.5t64.5 18t68.5 3.5q21 0 37 -1t36.5 -4t35.5 -8t31 -14.5t27 -22t20.5 -32t14 -43.5t4.5 -56.5t-6 -71.5l-27 -189q-10 -72 -32 -122.5t-46 -76.5t-61 -40t-64 -17t-68 -3zM476 756h-273q-3 0 -3 4l15 109q0 4 5 4h273q2 0 2 -4l-15 -109q-1 -4 -4 -4z" />
<glyph unicode="&#x14d;" horiz-adv-x="453" d="M216 130q13 0 21.5 4t17.5 22.5t14 53.5l10 71q7 48 -2.5 63t-30.5 15q-11 0 -19 -4t-16.5 -22t-13.5 -52l-10 -71q-7 -50 1 -65t28 -15zM197 -8q-30 0 -52 2.5t-47.5 10t-39.5 22t-27.5 37.5t-13.5 57t4 81l13 87q10 69 33 113t58 63.5t66 25.5t75 6q18 0 32 -0.5 t32.5 -3t31 -7t27.5 -12t23.5 -18t19 -26t12.5 -35.5t4.5 -45.5t-4.5 -57.5l-13 -90q-8 -56 -26 -96t-38.5 -62t-51.5 -34t-56.5 -15t-61.5 -3zM412 563h-273q-3 0 -3 4l15 109q0 4 5 4h273q2 0 2 -4l-15 -109q-1 -4 -4 -4z" />
<glyph unicode="&#x14e;" horiz-adv-x="524" d="M252 145q38 0 53.5 19.5t26.5 95.5l22 162q3 40 5 62.5t-7 34t-18 14t-28 2.5q-36 0 -52.5 -19t-26.5 -94l-23 -162q-11 -76 -1 -95.5t49 -19.5zM230 -11q-22 0 -38.5 1t-37 4t-35 8.5t-30.5 15t-27 23t-20 33t-13 44t-4 57.5t6 73l27 189q10 68 31 116.5t45.5 74.5 t60.5 40.5t64.5 18t68.5 3.5q21 0 37 -1t36.5 -4t35.5 -8t31 -14.5t27 -22t20.5 -32t14 -43.5t4.5 -56.5t-6 -71.5l-27 -189q-10 -72 -32 -122.5t-46 -76.5t-61 -40t-64 -17t-68 -3zM337 735q-122 0 -122 115q0 15 1.5 22.5t3.5 9t6 1.5h66q8 0 9 -6q6 -25 15.5 -33t33.5 -8 q42 0 60 41q3 6 12 6h66q5 0 7 -1.5t1 -5.5q-24 -141 -159 -141z" />
<glyph unicode="&#x14f;" horiz-adv-x="453" d="M216 130q13 0 21.5 4t17.5 22.5t14 53.5l10 71q7 48 -2.5 63t-30.5 15q-11 0 -19 -4t-16.5 -22t-13.5 -52l-10 -71q-7 -50 1 -65t28 -15zM197 -8q-30 0 -52 2.5t-47.5 10t-39.5 22t-27.5 37.5t-13.5 57t4 81l13 87q10 69 33 113t58 63.5t66 25.5t75 6q18 0 32 -0.5 t32.5 -3t31 -7t27.5 -12t23.5 -18t19 -26t12.5 -35.5t4.5 -45.5t-4.5 -57.5l-13 -90q-8 -56 -26 -96t-38.5 -62t-51.5 -34t-56.5 -15t-61.5 -3zM273 542q-122 0 -122 115q0 15 1.5 22.5t3.5 9t6 1.5h66q7 0 8 -6q6 -25 15.5 -33t33.5 -8q43 0 61 41q3 6 12 6h66q5 0 7 -1.5 t1 -5.5q-24 -141 -159 -141z" />
<glyph unicode="&#x150;" horiz-adv-x="524" d="M230 -11q-22 0 -38.5 1t-37 4t-35 8.5t-30.5 15t-27 23t-20 33t-13 44t-4 57.5t6 73l27 189q10 68 31 116.5t45.5 74.5t60.5 40.5t64.5 18t68.5 3.5q21 0 37 -1t36.5 -4t35.5 -8t31 -14.5t27 -22t20.5 -32t14 -43.5t4.5 -56.5t-6 -71.5l-27 -189q-10 -72 -32 -122.5 t-46 -76.5t-61 -40t-64 -17t-68 -3zM252 145q38 0 53.5 19.5t26.5 95.5l22 162q3 40 5 62.5t-7 34t-18 14t-28 2.5q-36 0 -52.5 -19t-26.5 -94l-23 -162q-11 -76 -1 -95.5t49 -19.5zM296 741q0 -4 -5 -4h-111q-2 0 -1 4q2 1 45 74t44 74q3 4 6 4h133q4 0 1 -4zM461 741 q-3 -4 -5 -4h-111q-2 0 -1 4q2 1 45 74t44 74q3 4 6 4h134q3 0 0 -4z" />
<glyph unicode="&#x151;" horiz-adv-x="453" d="M197 -8q-30 0 -52 2.5t-47.5 10t-39.5 22t-27.5 37.5t-13.5 57t4 81l13 87q10 69 33 113t58 63.5t66 25.5t75 6q18 0 32 -0.5t32.5 -3t31 -7t27.5 -12t23.5 -18t19 -26t12.5 -35.5t4.5 -45.5t-4.5 -57.5l-13 -90q-8 -56 -26 -96t-38.5 -62t-51.5 -34t-56.5 -15t-61.5 -3z M236 548q0 -4 -6 -4h-111q-1 0 0 4q1 1 44.5 74t44.5 74q1 4 5 4h133q3 0 2 -4zM401 548q-3 -4 -6 -4h-111q-1 0 0 4q1 1 44.5 74t44.5 74q1 4 5 4h134q4 0 1 -4zM216 130q13 0 21.5 4t17.5 22.5t14 53.5l10 71q7 48 -2.5 63t-30.5 15q-11 0 -19 -4t-16.5 -22t-13.5 -52 l-10 -71q-7 -50 1 -65t28 -15z" />
<glyph unicode="&#x152;" horiz-adv-x="771" d="M253 150q23 0 34.5 5t25.5 33.5t22 86.5l19 133q5 34 4.5 58t-3.5 36t-11.5 18.5t-16 8t-20.5 1.5q-15 0 -24.5 -3t-21.5 -13.5t-20.5 -37t-14.5 -68.5l-19 -133q-5 -35 -5 -59t3 -37t11.5 -19.5t16 -8t20.5 -1.5zM231 0q-20 0 -34.5 0.5t-34.5 3.5t-34.5 8.5t-31.5 15 t-28 23t-21 33.5t-14.5 45t-4.5 59t6 75l23 160q10 68 31 117t45.5 75.5t60 41.5t64.5 19t69 4q11 0 23.5 -3t25.5 -7.5t14 -4.5l2 15h394q2 0 2 -4l-20 -141q0 -4 -3 -4h-224l-16 -113h182q3 0 3 -4l-19 -141q-1 -4 -5 -4h-182l-17 -120h224q3 0 3 -4l-20 -141q0 -4 -4 -4 h-394l2 16q-45 -16 -67 -16z" />
<glyph unicode="&#x153;" horiz-adv-x="714" d="M219 132q13 0 21 3.5t17 22.5t14 55l9 64q7 49 -1.5 63.5t-29.5 14.5q-9 0 -15 -2t-13.5 -9.5t-13 -24t-9.5 -42.5l-9 -64q-7 -36 -1.5 -54t12.5 -22.5t19 -4.5zM447 292h73q9 63 -27 63q-13 0 -27 -14t-19 -49zM199 -6q-31 0 -53.5 3t-47 11t-38.5 22t-26.5 37.5t-13 57 t3.5 79.5l11 81q8 56 26.5 96t40 61.5t53 33.5t55.5 14.5t58 2.5q21 0 58 -8.5t57 -25.5q57 34 129 34q19 0 34 -1.5t36 -6t35 -13t30.5 -23.5t23 -37t11.5 -52.5t-3 -71.5l-14 -97h-232q-4 -37 5.5 -50t37.5 -13q15 0 31 1t29.5 2t26.5 2.5t23 3t17.5 2.5t11.5 2l4 1 q3 0 4 -3l14 -109q0 -3 -2 -5q-93 -31 -180 -31q-86 0 -131 36q-55 -36 -125 -36z" />
<glyph unicode="&#x154;" horiz-adv-x="524" d="M173 0h-162q-3 0 -3 4l95 676h245q25 0 48.5 -3t54.5 -15.5t51 -33.5t31.5 -61.5t3.5 -95.5l-7 -49q-9 -65 -36.5 -109t-63.5 -64l54 -245q1 -4 -3 -4h-179q-4 0 -5 4l-36 213h-55l-30 -213q0 -4 -3 -4zM350 743q-4 -4 -5 -4h-112q-2 0 -1 4l88 148q3 4 7 4h133q4 0 1 -4 zM227 366h67q9 0 21 4t27.5 19.5t18.5 39.5l5 37q5 37 -13 51t-38 14h-65z" />
<glyph unicode="&#x155;" horiz-adv-x="369" d="M10 0q-3 0 -3 4l68 479q0 4 3 4h157q3 0 3 -4l-2 -14q50 24 77 24q65 0 97 -21q1 0 1 -2q0 -3 -25 -58t-28 -62q-1 -3 -5 -3q-16 8 -76 8q-12 0 -27.5 -6t-24.5 -12l-9 -6l-46 -327q0 -4 -3 -4h-157zM255 550q-4 -4 -6 -4h-112q-3 0 0 4l88 148q3 4 6 4h133q5 0 2 -4z " />
<glyph unicode="&#x156;" horiz-adv-x="524" d="M173 0h-162q-3 0 -3 4l95 676h245q25 0 48.5 -3t54.5 -15.5t51 -33.5t31.5 -61.5t3.5 -95.5l-7 -49q-9 -65 -36.5 -109t-63.5 -64l54 -245q1 -4 -3 -4h-179q-4 0 -5 4l-36 213h-55l-30 -213q0 -4 -3 -4zM138 -269q-2 -1 -3.5 0t-0.5 4l30 214q0 4 3 4h119q4 0 4 -4 l-19 -132q0 -4 -5 -7q-3 -1 -64 -39t-64 -40zM227 366h67q9 0 21 4t27.5 19.5t18.5 39.5l5 37q5 37 -13 51t-38 14h-65z" />
<glyph unicode="&#x157;" horiz-adv-x="369" d="M10 0q-3 0 -3 4l68 479q0 4 3 4h157q3 0 3 -4l-2 -14q50 24 77 24q65 0 97 -21q1 0 1 -2q0 -3 -25 -58t-28 -62q-1 -3 -5 -3q-16 8 -76 8q-12 0 -27.5 -6t-24.5 -12l-9 -6l-46 -327q0 -4 -3 -4h-157zM81 -249q-5 -3 -5 4l30 214q0 4 4 4h119q4 0 3 -4l-18 -132 q-2 -5 -5 -7q-3 -1 -64 -39t-64 -40z" />
<glyph unicode="&#x158;" horiz-adv-x="524" d="M227 366h67q9 0 21 4t27.5 19.5t18.5 39.5l5 37q5 37 -13 51t-38 14h-65zM173 0h-162q-3 0 -3 4l95 676h245q25 0 48.5 -3t54.5 -15.5t51 -33.5t31.5 -61.5t3.5 -95.5l-7 -49q-9 -65 -36.5 -109t-63.5 -64l54 -245q1 -4 -3 -4h-179q-4 0 -5 4l-36 213h-55l-30 -213 q0 -4 -3 -4zM384 890h115q5 0 1 -4l-122 -148q-4 -4 -8 -4h-104q-2 0 -4.5 1.5t-1.5 2.5q1 2 -20.5 38.5l-43 73t-19.5 36.5q0 4 3 4h115q3 0 4 -4l30 -62h2q45 59 47 62q3 4 6 4z" />
<glyph unicode="&#x159;" horiz-adv-x="369" d="M10 0q-3 0 -3 4l68 479q0 4 3 4h157q3 0 3 -4l-2 -14q50 24 77 24q65 0 97 -21q1 0 1 -2q0 -3 -25 -58t-28 -62q-1 -3 -5 -3q-16 8 -76 8q-12 0 -27.5 -6t-24.5 -12l-9 -6l-46 -327q0 -4 -3 -4h-157zM297 697h115q5 0 1 -4l-123 -148q-3 -4 -7 -4h-104q-7 0 -7 4 q1 2 -20 38.5t-42.5 73t-19.5 36.5q-2 4 3 4h115q3 0 4 -4l29 -62h2q46 59 48 62q3 4 6 4z" />
<glyph unicode="&#x15a;" horiz-adv-x="504" d="M219 -10q-143 0 -215 36q-4 2 -2 6l58 137q0 3 4 3q81 -27 177 -27q32 0 49.5 7.5t20.5 30.5l5 35q3 21 -17 34t-66 20q-101 14 -139.5 50t-25.5 127l12 84q23 159 239 159q134 0 198 -32q2 -2 2 -3q0 -3 -26.5 -66t-28.5 -67q-2 -3 -5 -3q-5 2 -24.5 6t-59.5 9t-75 5 q-46 0 -50 -36l-4 -31q-3 -22 9.5 -32.5t65.5 -18.5q104 -16 144 -55.5t28 -128.5l-12 -84q-7 -53 -34 -88t-68 -50.5t-77.5 -21t-82.5 -5.5zM359 743q-4 -4 -5 -4h-112q-3 0 0 4l87 148q3 4 7 4h133q4 0 1 -4z" />
<glyph unicode="&#x15b;" horiz-adv-x="430" d="M183 -8q-48 0 -93.5 6.5t-64 11.5t-22.5 7q-2 1 -2 4q0 2 23 56.5t25 57.5q1 2 4 2q1 0 10 -2t24 -4.5t33 -4.5t40 -4t41 -2q37 0 40 19l2 17q1 14 -10.5 19.5t-47.5 10.5q-63 8 -103.5 37.5t-32.5 85.5l9 60q19 128 196 128q94 0 166 -24q1 -1 1 -3t-21.5 -54t-22.5 -55 t-5 -3l-8 2q-8 1 -20.5 2.5t-28 3.5t-36 3.5t-40.5 1.5q-31 0 -32 -16l-2 -17q-1 -11 16 -17t56 -11q69 -8 99 -37t23 -86l-8 -61q-6 -43 -26.5 -71.5t-52.5 -41t-61.5 -17t-67.5 -4.5zM289 550q-4 -4 -5 -4h-112q-3 0 0 4l87 148q3 4 7 4h133q4 0 1 -4z" />
<glyph unicode="&#x15c;" horiz-adv-x="504" d="M219 -10q-143 0 -215 36q-4 2 -2 6l58 137q0 3 4 3q81 -27 177 -27q32 0 49.5 7.5t20.5 30.5l5 35q3 21 -17 34t-66 20q-101 14 -139.5 50t-25.5 127l12 84q23 159 239 159q134 0 198 -32q2 -2 2 -3q0 -3 -26.5 -66t-28.5 -67q-2 -3 -5 -3q-5 2 -24.5 6t-59.5 9t-75 5 q-46 0 -50 -36l-4 -31q-3 -22 9.5 -32.5t65.5 -18.5q104 -16 144 -55.5t28 -128.5l-12 -84q-7 -53 -34 -88t-68 -50.5t-77.5 -21t-82.5 -5.5zM281 738h-111q-2 0 -2 4q-1 2 55.5 75t56.5 74q3 2 6 3h122q5 0 7 -4l67 -148q2 -4 -1 -4h-110q-5 0 -6 4l-30 63h-2 q-44 -60 -46 -63q-3 -4 -6 -4z" />
<glyph unicode="&#x15d;" horiz-adv-x="430" d="M183 -8q-48 0 -93.5 6.5t-64 11.5t-22.5 7q-2 1 -2 4q0 2 23 56.5t25 57.5q1 2 4 2q1 0 10 -2t24 -4.5t33 -4.5t40 -4t41 -2q37 0 40 19l2 17q1 14 -10.5 19.5t-47.5 10.5q-63 8 -103.5 37.5t-32.5 85.5l9 60q19 128 196 128q94 0 166 -24q1 -1 1 -3t-21.5 -54t-22.5 -55 t-5 -3l-8 2q-8 1 -20.5 2.5t-28 3.5t-36 3.5t-40.5 1.5q-31 0 -32 -16l-2 -17q-1 -11 16 -17t56 -11q69 -8 99 -37t23 -86l-8 -61q-6 -43 -26.5 -71.5t-52.5 -41t-61.5 -17t-67.5 -4.5zM223 545h-111q-2 0 -2 4q-1 2 55.5 75t56.5 74q3 2 6 3h122q5 0 7 -4l67 -148 q2 -4 -1 -4h-110q-5 0 -6 4l-30 63h-2q-44 -60 -46 -63q-3 -4 -6 -4z" />
<glyph unicode="&#x15e;" horiz-adv-x="504" d="M232 -166h-134q-4 0 -2 4q1 1 17.5 30.5t38.5 67.5t32 55q-120 5 -180 35q-4 2 -2 6l58 137q0 3 4 3q81 -27 177 -27q32 0 49.5 7.5t20.5 30.5l5 35q3 21 -17 34t-66 20q-101 14 -139.5 50t-25.5 127l12 84q23 159 239 159q134 0 198 -32q2 -2 2 -3q0 -3 -26.5 -66 t-28.5 -67q-2 -3 -5 -3q-5 2 -24.5 6t-59.5 9t-75 5q-46 0 -50 -36l-4 -31q-3 -22 9.5 -32.5t65.5 -18.5q104 -16 144 -55.5t28 -128.5l-12 -84q-19 -136 -175 -159l-70 -158q-2 -4 -4 -4z" />
<glyph unicode="&#x15f;" horiz-adv-x="430" d="M189 -166h-134q-4 0 -2 4q1 1 18.5 31.5t39 69t31.5 54.5q-38 2 -72.5 8t-50 10.5t-16.5 5.5q-2 1 -2 4q0 2 23 56.5t25 57.5q1 2 4 2q1 0 10 -2t24 -4.5t33 -4.5t40 -4t41 -2q37 0 40 19l2 17q1 14 -10.5 19.5t-47.5 10.5q-63 8 -103.5 37.5t-32.5 85.5l9 60 q19 128 196 128q94 0 166 -24q1 -1 1 -3t-21.5 -54t-22.5 -55t-5 -3l-8 2q-8 1 -20.5 2.5t-28 3.5t-36 3.5t-40.5 1.5q-31 0 -32 -16l-2 -17q-1 -11 16 -17t56 -11q69 -8 99 -37t23 -86l-8 -61q-14 -106 -126 -127l-71 -161q-2 -4 -5 -4z" />
<glyph unicode="&#x160;" horiz-adv-x="504" d="M219 -10q-143 0 -215 36q-4 2 -2 6l58 137q0 3 4 3q81 -27 177 -27q32 0 49.5 7.5t20.5 30.5l5 35q3 21 -17 34t-66 20q-101 14 -139.5 50t-25.5 127l12 84q23 159 239 159q134 0 198 -32q2 -2 2 -3q0 -3 -26.5 -66t-28.5 -67q-2 -3 -5 -3q-5 2 -24.5 6t-59.5 9t-75 5 q-46 0 -50 -36l-4 -31q-3 -22 9.5 -32.5t65.5 -18.5q104 -16 144 -55.5t28 -128.5l-12 -84q-7 -53 -34 -88t-68 -50.5t-77.5 -21t-82.5 -5.5zM391 890h115q5 0 1 -4l-122 -148q-4 -4 -8 -4h-104q-6 0 -6 4q1 2 -20.5 38.5t-42.5 73t-19 36.5q-2 4 2 4h115q4 0 5 -4l29 -62h2 q46 59 48 62q3 4 5 4z" />
<glyph unicode="&#x161;" horiz-adv-x="430" d="M183 -8q-48 0 -93.5 6.5t-64 11.5t-22.5 7q-2 1 -2 4q0 2 23 56.5t25 57.5q1 2 4 2q1 0 10 -2t24 -4.5t33 -4.5t40 -4t41 -2q37 0 40 19l2 17q1 14 -10.5 19.5t-47.5 10.5q-63 8 -103.5 37.5t-32.5 85.5l9 60q19 128 196 128q94 0 166 -24q1 -1 1 -3t-21.5 -54t-22.5 -55 t-5 -3l-8 2q-8 1 -20.5 2.5t-28 3.5t-36 3.5t-40.5 1.5q-31 0 -32 -16l-2 -17q-1 -11 16 -17t56 -11q69 -8 99 -37t23 -86l-8 -61q-6 -43 -26.5 -71.5t-52.5 -41t-61.5 -17t-67.5 -4.5zM328 697h115q5 0 1 -4l-122 -148q-4 -4 -8 -4h-104q-2 0 -4.5 1.5t-1.5 2.5 q1 2 -20.5 38.5l-43 73t-19.5 36.5q0 4 3 4h115q3 0 4 -4l30 -62h2q45 59 47 62q3 4 6 4z" />
<glyph unicode="&#x164;" horiz-adv-x="478" d="M128 0q-3 0 -3 4l74 523h-143q-3 0 -3 4l21 145q0 4 3 4h456q3 0 3 -4l-21 -145q0 -4 -3 -4h-144l-74 -523q0 -4 -3 -4h-163zM378 890h115q5 0 1 -4l-122 -148q-4 -4 -8 -4h-104q-2 0 -4.5 1.5t-1.5 2.5q1 2 -20.5 38.5l-43 73t-19.5 36.5q0 4 3 4h115q3 0 4 -4l30 -62h2 q45 59 47 62q3 4 6 4z" />
<glyph unicode="&#x165;" horiz-adv-x="448" d="M197 -5q-24 0 -39.5 1t-34.5 3.5t-30.5 8.5t-23.5 15.5t-18 24.5t-10 36t-3 49.5t6 64.5l24 168h-37q-3 0 -3 4l16 114q0 4 4 4h37l21 149q0 4 4 4h157q2 0 2 -4l-21 -149h77q4 0 4 -4l-16 -114q0 -4 -5 -4h-77l-24 -168q-4 -29 1.5 -44t13.5 -18t23 -3q10 0 20 1t17 2 l6 1q1 0 2 -4v-13.5v-30.5t-0.5 -35.5t-0.5 -30.5v-13q0 -2 -3 -5q-40 -10 -89 -10zM356 458q-2 -1 -3.5 0t-0.5 4l30 214q0 4 3 4h119q4 0 4 -4l-19 -132q0 -4 -5 -7q-3 -1 -64 -39t-64 -40z" />
<glyph unicode="&#x168;" horiz-adv-x="540" d="M222 -10q-124 0 -162 61.5t-18 199.5l59 425q1 4 4 4h163q3 0 2 -4l-58 -413q-11 -52 -5.5 -84t38.5 -32h32q31 0 43.5 25.5t21.5 90.5l58 413q0 4 4 4h163q4 0 4 -4l-60 -425q-9 -65 -23.5 -108.5t-42.5 -80.5t-75 -54.5t-116 -17.5h-32zM208 748q-3 0 -3 5l12 82 q1 10 10 20q30 35 77 35q28 0 64.5 -19t57.5 -19q22 0 46.5 17.5t26.5 17.5q5 0 4 -6l-11 -80q-2 -13 -11 -21q-43 -39 -78 -39q-29 0 -65 20.5t-55 20.5q-23 0 -48.5 -17t-26.5 -17z" />
<glyph unicode="&#x169;" horiz-adv-x="482" d="M483 487q3 0 3 -4l-68 -479q0 -4 -3 -4h-157q-3 0 -3 4l1 7q-65 -19 -93 -19q-15 0 -26 1t-26 3.5t-26 9t-22.5 16t-18.5 25t-12 36t-5 49.5t5 65l41 286q0 4 3 4h156q4 0 4 -4l-39 -275q-6 -34 -3.5 -51.5t7 -21.5t13.5 -4q12 0 27.5 3.5t24.5 7.5l9 4l48 337q0 4 3 4 h157zM153 555q-3 0 -3 5l12 82q1 10 10 20q30 35 77 35q28 0 64.5 -19t57.5 -19q22 0 46.5 17.5t26.5 17.5q6 0 4 -6l-11 -80q-2 -13 -11 -21q-43 -39 -78 -39q-29 0 -65 20.5t-55 20.5q-23 0 -48.5 -17t-26.5 -17z" />
<glyph unicode="&#x16a;" horiz-adv-x="540" d="M222 -10q-124 0 -162 61.5t-18 199.5l59 425q1 4 4 4h163q3 0 2 -4l-58 -413q-11 -52 -5.5 -84t38.5 -32h32q31 0 43.5 25.5t21.5 90.5l58 413q0 4 4 4h163q4 0 4 -4l-60 -425q-9 -65 -23.5 -108.5t-42.5 -80.5t-75 -54.5t-116 -17.5h-32zM483 756h-273q-4 0 -4 4l16 109 q0 4 4 4h273q3 0 3 -4l-16 -109q0 -4 -3 -4z" />
<glyph unicode="&#x16b;" horiz-adv-x="482" d="M483 487q3 0 3 -4l-68 -479q0 -4 -3 -4h-157q-3 0 -3 4l1 7q-65 -19 -93 -19q-15 0 -26 1t-26 3.5t-26 9t-22.5 16t-18.5 25t-12 36t-5 49.5t5 65l41 286q0 4 3 4h156q4 0 4 -4l-39 -275q-6 -34 -3.5 -51.5t7 -21.5t13.5 -4q12 0 27.5 3.5t24.5 7.5l9 4l48 337q0 4 3 4 h157zM428 563h-273q-4 0 -4 4l16 109q0 4 4 4h273q3 0 3 -4l-16 -109q0 -4 -3 -4z" />
<glyph unicode="&#x16c;" horiz-adv-x="540" d="M222 -10q-124 0 -162 61.5t-18 199.5l59 425q1 4 4 4h163q3 0 2 -4l-58 -413q-11 -52 -5.5 -84t38.5 -32h32q31 0 43.5 25.5t21.5 90.5l58 413q0 4 4 4h163q4 0 4 -4l-60 -425q-9 -65 -23.5 -108.5t-42.5 -80.5t-75 -54.5t-116 -17.5h-32zM346 735q-123 0 -123 115 q0 33 12 33h66q7 0 8 -6q6 -25 15.5 -33t33.5 -8q43 0 61 41q3 6 12 6h66q5 0 7 -1.5t1 -5.5q-24 -141 -159 -141z" />
<glyph unicode="&#x16d;" horiz-adv-x="482" d="M483 487q3 0 3 -4l-68 -479q0 -4 -3 -4h-157q-3 0 -3 4l1 7q-65 -19 -93 -19q-15 0 -26 1t-26 3.5t-26 9t-22.5 16t-18.5 25t-12 36t-5 49.5t5 65l41 286q0 4 3 4h156q4 0 4 -4l-39 -275q-6 -34 -3.5 -51.5t7 -21.5t13.5 -4q12 0 27.5 3.5t24.5 7.5l9 4l48 337q0 4 3 4 h157zM289 542q-123 0 -123 115q0 33 12 33h66q7 0 8 -6q6 -25 15.5 -33t33.5 -8q43 0 61 41q3 6 12 6h66q5 0 7 -1.5t1 -5.5q-24 -141 -159 -141z" />
<glyph unicode="&#x16e;" horiz-adv-x="540" d="M222 -10q-124 0 -162 61.5t-18 199.5l59 425q1 4 4 4h163q3 0 2 -4l-58 -413q-11 -52 -5.5 -84t38.5 -32h32q31 0 43.5 25.5t21.5 90.5l58 413q0 4 4 4h163q4 0 4 -4l-60 -425q-9 -65 -23.5 -108.5t-42.5 -80.5t-75 -54.5t-116 -17.5h-32zM340 716q-45 0 -70 19.5 t-16 79.5l4 25q9 58 39.5 77.5t76.5 19.5q20 0 33.5 -3t28 -11.5t20 -29.5t1.5 -53l-3 -25q-4 -32 -15 -53.5t-29 -30.5t-33.5 -12t-36.5 -3zM349 782q11 0 18.5 2t14.5 11.5t10 26.5l2 11q7 39 -30 39t-44 -39l-2 -11q-4 -24 4.5 -32t26.5 -8z" />
<glyph unicode="&#x16f;" horiz-adv-x="482" d="M483 487q3 0 3 -4l-68 -479q0 -4 -3 -4h-157q-3 0 -3 4l1 7q-65 -19 -93 -19q-15 0 -26 1t-26 3.5t-26 9t-22.5 16t-18.5 25t-12 36t-5 49.5t5 65l41 286q0 4 3 4h156q4 0 4 -4l-39 -275q-6 -34 -3.5 -51.5t7 -21.5t13.5 -4q12 0 27.5 3.5t24.5 7.5l9 4l48 337q0 4 3 4 h157zM285 523q-45 0 -70 19.5t-16 79.5l4 25q9 58 39.5 77.5t76.5 19.5q20 0 34 -3t29 -11.5t20.5 -29.5t0.5 -53l-4 -25q-9 -61 -39 -80t-75 -19zM294 589q11 0 18.5 2t14.5 11.5t10 26.5l2 11q7 39 -30 39t-44 -39l-2 -11q-4 -24 4.5 -32t26.5 -8z" />
<glyph unicode="&#x170;" horiz-adv-x="540" d="M222 -10q-124 0 -162 61.5t-18 199.5l59 425q1 4 4 4h163q3 0 2 -4l-58 -413q-11 -52 -5.5 -84t38.5 -32h32q31 0 43.5 25.5t21.5 90.5l58 413q0 4 4 4h163q4 0 4 -4l-60 -425q-9 -65 -23.5 -108.5t-42.5 -80.5t-75 -54.5t-116 -17.5h-32zM310 741q-1 -4 -6 -4h-111 q-3 0 0 4q1 1 44 74t44 74q3 4 6 4h133q4 0 1 -4zM474 741q-3 -4 -5 -4h-111q-3 0 0 4q1 1 44 74t44 74q3 4 6 4h134q3 0 0 -4z" />
<glyph unicode="&#x171;" horiz-adv-x="482" d="M483 487q3 0 3 -4l-68 -479q0 -4 -3 -4h-157q-3 0 -3 4l1 7q-65 -19 -93 -19q-15 0 -26 1t-26 3.5t-26 9t-22.5 16t-18.5 25t-12 36t-5 49.5t5 65l41 286q0 4 3 4h156q4 0 4 -4l-39 -275q-6 -34 -3.5 -51.5t7 -21.5t13.5 -4q12 0 27.5 3.5t24.5 7.5l9 4l48 337q0 4 3 4 h157zM255 548q-1 -4 -6 -4h-111q-3 0 0 4q1 1 44 74t45 74q1 4 5 4h133q3 0 2 -4zM420 548q-4 -4 -6 -4h-111q-3 0 0 4q1 1 44 74t45 74q1 4 5 4h134q4 0 1 -4z" />
<glyph unicode="&#x172;" horiz-adv-x="540" d="M197 -197q-87 0 -87 77q0 72 55 114q-89 12 -115 73.5t-9 183.5l60 425q0 4 3 4h163q3 0 2 -4l-58 -413q-11 -52 -5.5 -84t38.5 -32h32q31 0 43.5 25.5t21.5 90.5l59 413q0 4 3 4h163q4 0 4 -4l-60 -425q-17 -118 -60 -181t-141 -76q-26 -15 -39 -23t-26 -21.5t-13 -26.5 q0 -10 8 -10q10 0 24 9q4 3 7 -1q1 -2 15 -38t14 -37q2 -5 -2 -9q-6 -4 -17 -10.5t-35.5 -15t-47.5 -8.5z" />
<glyph unicode="&#x173;" horiz-adv-x="482" d="M296 -195q-87 0 -87 77q0 75 62 118h-13q-3 0 -3 4l1 7q-65 -19 -93 -19q-15 0 -26 1t-26 3.5t-26 9t-22.5 16t-18.5 25t-12 36t-5 49.5t5 65l41 286q0 4 3 4h156q4 0 4 -4l-39 -275q-6 -34 -3.5 -51.5t7 -21.5t13.5 -4q12 0 27.5 3.5t24.5 7.5l9 4l48 337q0 4 3 4h157 q3 0 3 -4l-68 -479q0 -4 -2 -4t-4 -2q-61 -35 -74 -52q-8 -11 -8 -21t9 -10t23 9q4 3 8 -1q0 -2 6.5 -20t14 -36t7.5 -19q2 -5 -2 -9q-6 -4 -17 -10.5t-35.5 -15t-47.5 -8.5z" />
<glyph unicode="&#x174;" horiz-adv-x="781" d="M87 0q-6 0 -6 5l-4 671q0 4 3 4h170q3 0 4 -4l-10 -406h17q104 270 105 273q1 4 4 4h133q4 0 5 -5l30 -272h17q103 403 104 406q1 4 4 4h170q5 0 3 -4q-1 -2 -96.5 -335.5t-96.5 -335.5q-3 -5 -6 -5h-203q-6 0 -6 5l-23 267h-11q-97 -260 -99 -266t-7 -6h-201zM418 738 h-111q-1 0 -1 4q-1 2 55.5 75t56.5 74q-1 1 0.5 2t4.5 1h122q6 0 8 -4l67 -148q2 -4 -2 -4h-110q-4 0 -5 4l-30 63h-2q-44 -60 -46 -63q-3 -4 -7 -4z" />
<glyph unicode="&#x175;" horiz-adv-x="648" d="M84 0q-1 0 -2 4q-1 1 -14 236t-13 243q0 4 4 4h157q4 0 4 -3l-2 -253h6q69 154 71 157q3 4 4 4h104q2 0 3 -4l28 -157h5q64 249 64 252q2 4 7 4h157q2 0 1 -4q0 -1 -78.5 -239.5t-79.5 -239.5q-1 -4 -6 -4h-142q-3 0 -3 4l-33 193h-6q-88 -190 -89 -193q-1 -4 -4 -4h-143 zM326 545h-111q-2 0 -2 4q-1 2 55.5 75t56.5 74q3 2 6 3h122q5 0 7 -4l67 -148q2 -4 -1 -4h-110q-5 0 -6 4l-30 63h-2q-44 -60 -46 -63q-3 -4 -6 -4z" />
<glyph unicode="&#x176;" horiz-adv-x="517" d="M147 0q-3 0 -3 4l36 255q-115 414 -116 417q-1 4 3 4h171q4 0 4 -4l48 -231h6q110 228 111 231q1 4 4 4h168q3 0 2 -4l-232 -417l-36 -255q-1 -4 -3 -4h-163zM286 738h-111q-1 0 -1 4q-1 2 55.5 75t56.5 74q-1 1 0.5 2t4.5 1h122q6 0 8 -4l67 -148q2 -4 -2 -4h-110 q-4 0 -5 4l-30 63h-2q-44 -60 -46 -63q-3 -4 -7 -4z" />
<glyph unicode="&#x177;" horiz-adv-x="453" d="M0 -180q-5 0 -3 4q1 2 16 64.5t15 63.5q0 4 5 4h27q39 0 55 43l10 30q-84 451 -85 454q-2 4 1 4h163q4 0 4 -4l23 -239h8q84 236 85 239q2 4 5 4h159q2 0 1 -4l-253 -538q-21 -44 -41 -70.5t-44 -38t-42.5 -14t-52.5 -2.5h-56zM233 545h-111q-2 0 -2 4q-1 2 55.5 75 t56.5 74q3 2 6 3h122q5 0 7 -4l67 -148q2 -4 -1 -4h-110q-5 0 -6 4l-30 63h-2q-44 -60 -46 -63q-3 -4 -6 -4z" />
<glyph unicode="&#x178;" horiz-adv-x="517" d="M147 0q-3 0 -3 4l36 255q-115 414 -116 417q-1 4 3 4h171q4 0 4 -4l48 -231h6q110 228 111 231q1 4 4 4h168q3 0 2 -4l-232 -417l-36 -255q-1 -4 -3 -4h-163zM195 750q-4 0 -3 4l17 122q0 4 4 4h113q3 0 3 -4l-17 -122q0 -4 -4 -4h-113zM366 750q-4 0 -3 4l17 122 q0 4 4 4h113q3 0 3 -4l-17 -122q0 -4 -4 -4h-113z" />
<glyph unicode="&#x179;" horiz-adv-x="471" d="M-2 0q-3 0 -3 4l20 140q0 2 7 12l263 361l2 11h-205q-2 0 -2 4l20 144q0 4 3 4h403q3 0 3 -4l-20 -139q-1 -6 -6 -13l-264 -361l-2 -11h214q4 0 3 -4l-20 -144q-1 -4 -4 -4h-412zM350 743q-4 -4 -5 -4h-112q-4 0 -1 4l88 148q3 4 7 4h133q4 0 1 -4z" />
<glyph unicode="&#x17a;" horiz-adv-x="416" d="M6 0q-3 0 -3 4l17 121l2 3q1 2 3 4l185 215l1 7h-151q-3 0 -3 4l18 125q0 4 3 4h343q3 0 3 -4l-18 -125q0 -2 -3 -6l-183 -211l-1 -8h157q3 0 3 -4l-18 -125q0 -4 -4 -4h-351zM296 550q-4 -4 -5 -4h-112q-2 0 -1 4l88 148q3 4 7 4h133q4 0 1 -4z" />
<glyph unicode="&#x17b;" horiz-adv-x="471" d="M-2 0q-3 0 -3 4l20 140q0 2 7 12l263 361l2 11h-205q-2 0 -2 4l20 144q0 4 3 4h403q3 0 3 -4l-20 -139q-1 -6 -6 -13l-264 -361l-2 -11h214q4 0 3 -4l-20 -144q-1 -4 -4 -4h-412zM245 735q-3 0 -3 4l18 130q0 4 4 4h144q3 0 3 -4l-18 -130q0 -4 -5 -4h-143z" />
<glyph unicode="&#x17c;" horiz-adv-x="416" d="M6 0q-3 0 -3 4l17 121l2 3q1 2 3 4l185 215l1 7h-151q-3 0 -3 4l18 125q0 4 3 4h343q3 0 3 -4l-18 -125q0 -2 -3 -6l-183 -211l-1 -8h157q3 0 3 -4l-18 -125q0 -4 -4 -4h-351zM191 542q-3 0 -3 4l18 130q0 4 4 4h144q3 0 3 -4l-18 -130q0 -4 -5 -4h-143z" />
<glyph unicode="&#x17d;" horiz-adv-x="471" d="M-2 0q-3 0 -3 4l20 140q0 2 7 12l263 361l2 11h-205q-2 0 -2 4l20 144q0 4 3 4h403q3 0 3 -4l-20 -139q-1 -6 -6 -13l-264 -361l-2 -11h214q4 0 3 -4l-20 -144q-1 -4 -4 -4h-412zM375 890h115q5 0 2 -4l-124 -148q-3 -4 -7 -4h-104q-7 0 -7 4q1 2 -20 38.5t-42.5 73 t-19.5 36.5q0 4 3 4h115q3 0 4 -4l30 -62h2q45 59 47 62q3 4 6 4z" />
<glyph unicode="&#x17e;" horiz-adv-x="415" d="M6 0q-3 0 -3 4l17 121l2 3q1 2 3 4l185 215l1 7h-151q-3 0 -3 4l18 125q0 4 3 4h343q3 0 3 -4l-18 -125q0 -2 -3 -6l-183 -211l-1 -8h157q3 0 3 -4l-18 -125q0 -4 -4 -4h-351zM321 697h115q5 0 2 -4l-124 -148q-3 -4 -7 -4h-104q-7 0 -7 4q1 2 -20 38.5t-42.5 73 t-19.5 36.5q0 4 3 4h115q3 0 4 -4l30 -62h2q45 59 47 62q3 4 6 4z" />
<glyph unicode="&#x192;" horiz-adv-x="506" d="M83 -187q-10 0 -23.5 1t-24.5 2.5t-21 3t-16 2.5l-7 1q-1 1 -1 4q0 2 16 61.5t16 60.5q0 3 5 3q8 -4 51 -4q47 0 56 61l41 293h-53q-3 0 -3 4l16 114q0 4 4 4h53l9 65q7 53 25 91t38 58t49 31t50.5 13.5t50.5 2.5q8 0 20.5 -1t24.5 -2.5t22 -3t17 -2.5l7 -1q2 -2 2 -3 q0 -2 -16 -62t-16 -61q0 -3 -4 -3l-9 1q-9 1 -21.5 2t-21.5 1q-46 0 -55 -61l-9 -65h73q3 0 2 -4l-16 -114q0 -4 -3 -4h-73l-41 -293q-7 -53 -25 -91t-38 -58t-49 -31t-50.5 -13.5t-51.5 -2.5z" />
<glyph unicode="&#x218;" horiz-adv-x="504" d="M219 -10q-143 0 -215 36q-4 2 -2 6l58 137q0 3 4 3q81 -27 177 -27q32 0 49.5 7.5t20.5 30.5l5 35q3 21 -17 34t-66 20q-101 14 -139.5 50t-25.5 127l12 84q23 159 239 159q134 0 198 -32q2 -2 2 -3q0 -3 -26.5 -66t-28.5 -67q-2 -3 -5 -3q-5 2 -24.5 6t-59.5 9t-75 5 q-46 0 -50 -36l-4 -31q-3 -22 9.5 -32.5t65.5 -18.5q104 -16 144 -55.5t28 -128.5l-12 -84q-7 -53 -34 -88t-68 -50.5t-77.5 -21t-82.5 -5.5zM133 -269q-2 -1 -3.5 0t-0.5 4l30 214q0 4 3 4h119q4 0 4 -4l-19 -132q0 -4 -5 -7q-3 -1 -64 -39t-64 -40z" />
<glyph unicode="&#x219;" horiz-adv-x="430" d="M183 -8q-48 0 -93.5 6.5t-64 11.5t-22.5 7q-2 1 -2 4q0 2 23 56.5t25 57.5q1 2 4 2q1 0 10 -2t24 -4.5t33 -4.5t40 -4t41 -2q37 0 40 19l2 17q1 14 -10.5 19.5t-47.5 10.5q-63 8 -103.5 37.5t-32.5 85.5l9 60q19 128 196 128q94 0 166 -24q1 -1 1 -3t-21.5 -54t-22.5 -55 t-5 -3l-8 2q-8 1 -20.5 2.5t-28 3.5t-36 3.5t-40.5 1.5q-31 0 -32 -16l-2 -17q-1 -11 16 -17t56 -11q69 -8 99 -37t23 -86l-8 -61q-6 -43 -26.5 -71.5t-52.5 -41t-61.5 -17t-67.5 -4.5zM94 -269q-2 -1 -3.5 0t-0.5 4l30 214q0 4 3 4h119q4 0 4 -4l-19 -132q0 -4 -5 -7 q-3 -1 -64 -39t-64 -40z" />
<glyph unicode="&#x21a;" horiz-adv-x="478" d="M128 0q-3 0 -3 4l74 523h-143q-3 0 -3 4l21 145q0 4 3 4h456q3 0 3 -4l-21 -145q0 -4 -3 -4h-144l-74 -523q0 -4 -3 -4h-163zM114 -269q-2 -1 -3.5 0t-0.5 4l30 214q0 4 3 4h119q4 0 4 -4l-19 -132q0 -4 -5 -7q-3 -1 -64 -39t-64 -40z" />
<glyph unicode="&#x21b;" horiz-adv-x="308" d="M197 -5q-24 0 -39.5 1t-34.5 3.5t-30.5 8.5t-23.5 15.5t-18 24.5t-10 36t-3 49.5t6 64.5l24 168h-37q-3 0 -3 4l16 114q0 4 4 4h37l21 149q0 4 4 4h157q2 0 2 -4l-21 -149h77q4 0 4 -4l-16 -114q0 -4 -5 -4h-77l-24 -168q-4 -29 1.5 -44t13.5 -18t23 -3q10 0 20 1t17 2 l6 1q1 0 2 -4v-13.5v-30.5t-0.5 -35.5t-0.5 -30.5v-13q0 -2 -3 -5q-40 -10 -89 -10zM50 -269q-5 -3 -5 4l30 214q0 4 4 4h119q4 0 3 -4l-18 -132q-2 -5 -5 -7q-3 -1 -64 -39t-64 -40z" />
<glyph unicode="&#x2c6;" horiz-adv-x="440" d="M213 545h-111q-1 0 -1 4q-1 2 55 75t56 74q3 2 6 3h122q5 0 7 -4l67 -148q2 -4 -1 -4h-110q-4 0 -5 4l-31 63h-2q-44 -60 -46 -63q-3 -4 -6 -4z" />
<glyph unicode="&#x2c7;" horiz-adv-x="439" d="M321 697h115q5 0 1 -4l-123 -148q-3 -4 -7 -4h-104q-2 0 -4.5 1.5t-1.5 2.5q1 2 -20.5 38.5l-43 73t-19.5 36.5q-2 4 3 4h115q3 0 4 -4l29 -62h2q46 59 48 62q3 4 6 4z" />
<glyph unicode="&#x2d8;" horiz-adv-x="440" d="M258 542q-123 0 -123 115q0 15 1.5 22.5t3.5 9t6 1.5h66q8 0 9 -6q6 -25 15.5 -33t33.5 -8q42 0 60 41q3 6 12 6h66q5 0 7 -1.5t1 -5.5q-24 -141 -158 -141z" />
<glyph unicode="&#x2d9;" horiz-adv-x="439" d="M183 542q-3 0 -3 4l18 130q0 4 5 4h144q2 0 2 -4l-18 -130q0 -4 -5 -4h-143z" />
<glyph unicode="&#x2da;" horiz-adv-x="440" d="M260 589q17 0 27.5 7.5t14.5 32.5l2 11q7 39 -29 39q-38 0 -45 -39l-2 -11q-4 -24 5 -32t27 -8zM251 523q-45 0 -69 19.5t-17 79.5l3 25q7 57 38.5 77t78.5 20q20 0 33.5 -3t28 -11.5t20 -29.5t1.5 -53l-3 -25q-4 -32 -15 -53.5t-29 -30.5t-33.5 -12t-36.5 -3z" />
<glyph unicode="&#x2db;" horiz-adv-x="440" d="M147 -192q-87 0 -87 77t66 121q6 4 15 4h122q3 0 4.5 -1.5t0 -3.5t-4.5 -4q-61 -35 -74 -52q-8 -10 -8 -21q0 -10 9 -10q10 0 23 9q4 3 8 -1q0 -2 6.5 -20t14 -36t7.5 -19q2 -5 -2 -9q-6 -4 -17 -10.5t-35.5 -15t-47.5 -8.5z" />
<glyph unicode="&#x2dc;" horiz-adv-x="439" d="M121 555q-4 0 -2 5l11 82q1 10 10 20q30 35 77 35q28 0 65 -19t58 -19q22 0 46.5 17.5t26.5 17.5q4 0 4 -6l-12 -80q-2 -13 -11 -21q-43 -39 -78 -39q-29 0 -64.5 20.5t-54.5 20.5q-23 0 -49 -17t-27 -17z" />
<glyph unicode="&#x2dd;" horiz-adv-x="440" d="M191 548q0 -4 -5 -4h-111q-2 0 -1 4q2 1 45 74t44 74q3 4 6 4h133q4 0 1 -4zM356 548q-3 -4 -5 -4h-111q-2 0 -1 4q2 1 45 74t44 74q3 4 6 4h134q3 0 0 -4z" />
<glyph unicode="&#x1e80;" horiz-adv-x="781" d="M87 0q-6 0 -6 5l-4 671q0 4 3 4h170q3 0 4 -4l-10 -406h17q104 270 105 273q1 4 4 4h133q4 0 5 -5l30 -272h17q103 403 104 406q1 4 4 4h170q5 0 3 -4q-1 -2 -96.5 -335.5t-96.5 -335.5q-3 -5 -6 -5h-203q-6 0 -6 5l-23 267h-11q-97 -260 -99 -266t-7 -6h-201zM444 743 l-70 148q-3 4 1 4h135q4 0 5 -4l46 -148q1 -4 -2 -4h-111q-2 0 -4 4z" />
<glyph unicode="&#x1e81;" horiz-adv-x="648" d="M84 0q-1 0 -2 4q-1 1 -14 236t-13 243q0 4 4 4h157q4 0 4 -3l-2 -253h6q69 154 71 157q3 4 4 4h104q2 0 3 -4l28 -157h5q64 249 64 252q2 4 7 4h157q2 0 1 -4q0 -1 -78.5 -239.5t-79.5 -239.5q-1 -4 -6 -4h-142q-3 0 -3 4l-33 193h-6q-88 -190 -89 -193q-1 -4 -4 -4h-143 zM340 550l-70 148q-1 4 2 4h135q3 0 4 -4l46 -148q1 -4 -1 -4h-111q-3 0 -5 4z" />
<glyph unicode="&#x1e82;" horiz-adv-x="781" d="M87 0q-6 0 -6 5l-4 671q0 4 3 4h170q3 0 4 -4l-10 -406h17q104 270 105 273q1 4 4 4h133q4 0 5 -5l30 -272h17q103 403 104 406q1 4 4 4h170q5 0 3 -4q-1 -2 -96.5 -335.5t-96.5 -335.5q-3 -5 -6 -5h-203q-6 0 -6 5l-23 267h-11q-97 -260 -99 -266t-7 -6h-201zM497 743 q-4 -4 -6 -4h-112q-3 0 0 4l88 148q3 4 6 4h133q5 0 2 -4z" />
<glyph unicode="&#x1e83;" horiz-adv-x="648" d="M84 0q-1 0 -2 4q-1 1 -14 236t-13 243q0 4 4 4h157q4 0 4 -3l-2 -253h6q69 154 71 157q3 4 4 4h104q2 0 3 -4l28 -157h5q64 249 64 252q2 4 7 4h157q2 0 1 -4q0 -1 -78.5 -239.5t-79.5 -239.5q-1 -4 -6 -4h-142q-3 0 -3 4l-33 193h-6q-88 -190 -89 -193q-1 -4 -4 -4h-143 zM401 550q-4 -4 -5 -4h-112q-3 0 0 4l87 148q3 4 7 4h133q4 0 1 -4z" />
<glyph unicode="&#x1e84;" horiz-adv-x="781" d="M87 0q-6 0 -6 5l-4 671q0 4 3 4h170q3 0 4 -4l-10 -406h17q104 270 105 273q1 4 4 4h133q4 0 5 -5l30 -272h17q103 403 104 406q1 4 4 4h170q5 0 3 -4q-1 -2 -96.5 -335.5t-96.5 -335.5q-3 -5 -6 -5h-203q-6 0 -6 5l-23 267h-11q-97 -260 -99 -266t-7 -6h-201zM323 743 q-4 0 -3 4l17 122q0 4 4 4h113q3 0 3 -4l-17 -122q0 -4 -4 -4h-113zM494 743q-4 0 -3 4l17 122q0 4 4 4h113q3 0 3 -4l-17 -122q0 -4 -4 -4h-113z" />
<glyph unicode="&#x1e85;" horiz-adv-x="648" d="M84 0q-1 0 -2 4q-1 1 -14 236t-13 243q0 4 4 4h157q4 0 4 -3l-2 -253h6q69 154 71 157q3 4 4 4h104q2 0 3 -4l28 -157h5q64 249 64 252q2 4 7 4h157q2 0 1 -4q0 -1 -78.5 -239.5t-79.5 -239.5q-1 -4 -6 -4h-142q-3 0 -3 4l-33 193h-6q-88 -190 -89 -193q-1 -4 -4 -4h-143 zM230 550q-4 0 -3 4l17 122q0 4 5 4h113q2 0 2 -4l-17 -122q0 -4 -4 -4h-113zM401 550q-4 0 -3 4l17 122q0 4 5 4h113q2 0 2 -4l-17 -122q0 -4 -4 -4h-113z" />
<glyph unicode="&#x1e9e;" horiz-adv-x="554" d="M8 0q-3 0 -3 4l67 477q9 64 32 105.5t59 61t72 26t87 6.5h212q5 0 5 -5l-22 -154q0 -5 -5 -12l-74 -111q36 -19 55 -53.5t9 -101.5l-8 -53q-7 -49 -26 -85t-43 -55.5t-57.5 -31t-62 -15t-65.5 -3.5q-4 0 -4 4l19 135q0 4 5 4q64 0 72 56l5 39q4 31 -13 42.5t-40 11.5 q-4 0 -3 4l19 137l67 111h-64q-10 0 -21 -4t-24 -19t-17 -40l-67 -477q0 -4 -4 -4h-162z" />
<glyph unicode="&#x2000;" horiz-adv-x="472" />
<glyph unicode="&#x2001;" horiz-adv-x="944" />
<glyph unicode="&#x2002;" horiz-adv-x="472" />
<glyph unicode="&#x2003;" horiz-adv-x="944" />
<glyph unicode="&#x2004;" horiz-adv-x="314" />
<glyph unicode="&#x2005;" horiz-adv-x="236" />
<glyph unicode="&#x2006;" horiz-adv-x="157" />
<glyph unicode="&#x2007;" horiz-adv-x="157" />
<glyph unicode="&#x2008;" horiz-adv-x="118" />
<glyph unicode="&#x2009;" horiz-adv-x="188" />
<glyph unicode="&#x200a;" horiz-adv-x="52" />
<glyph unicode="&#x2010;" horiz-adv-x="356" d="M32 207q-3 0 -3 4l18 129q0 4 4 4h269q4 0 4 -4l-18 -129q0 -4 -5 -4h-269z" />
<glyph unicode="&#x2011;" horiz-adv-x="356" d="M32 207q-3 0 -3 4l18 129q0 4 4 4h269q4 0 4 -4l-18 -129q0 -4 -5 -4h-269z" />
<glyph unicode="&#x2012;" horiz-adv-x="356" d="M32 207q-3 0 -3 4l18 129q0 4 4 4h269q4 0 4 -4l-18 -129q0 -4 -5 -4h-269z" />
<glyph unicode="&#x2013;" horiz-adv-x="427" d="M26 207q-2 0 -2 4l18 129q0 4 3 4h353q3 0 3 -4l-18 -129q0 -4 -4 -4h-353z" />
<glyph unicode="&#x2014;" horiz-adv-x="537" d="M15 207q-3 0 -3 4l18 129q0 4 4 4h485q3 0 3 -4l-18 -129q0 -4 -4 -4h-485z" />
<glyph unicode="&#x2018;" horiz-adv-x="226" d="M226 686q6 3 6 -4l-31 -214q0 -4 -4 -4h-119q-3 0 -3 4l19 132q0 4 5 7z" />
<glyph unicode="&#x2019;" horiz-adv-x="226" d="M79 458q-2 -1 -3.5 0t-0.5 4l30 214q0 4 4 4h119q3 0 3 -4l-19 -132q0 -4 -5 -7q-3 -1 -64 -39t-64 -40z" />
<glyph unicode="&#x201a;" horiz-adv-x="226" d="M4 -84q-2 -2 -4 -1t-1 4l30 214q0 4 3 4h119q4 0 4 -4l-19 -131q0 -5 -5 -7q-2 -2 -63.5 -40t-63.5 -39z" />
<glyph unicode="&#x201c;" horiz-adv-x="402" d="M226 686q6 3 6 -4l-31 -214q0 -4 -4 -4h-119q-3 0 -3 4l19 132q0 4 5 7zM402 686q5 2 5 -4l-31 -214q0 -4 -3 -4h-119q-3 0 -3 4l19 132q0 4 5 7z" />
<glyph unicode="&#x201d;" horiz-adv-x="402" d="M79 458q-2 -1 -3.5 0t-0.5 4l30 214q0 4 4 4h119q3 0 3 -4l-19 -132q0 -4 -5 -7q-3 -1 -64 -39t-64 -40zM255 458q-2 -1 -3.5 0t-0.5 4l30 214q0 4 4 4h119q2 0 2 -4l-19 -132q0 -4 -5 -7z" />
<glyph unicode="&#x201e;" horiz-adv-x="402" d="M4 -84q-2 -2 -4 -1t-1 4l30 214q0 4 3 4h119q4 0 4 -4l-19 -131q0 -5 -5 -7q-2 -2 -63.5 -40t-63.5 -39zM180 -84q-2 -2 -3.5 -1t-0.5 4l30 214q0 4 4 4h117q3 0 3 -4l-19 -131q0 -4 -4 -7q-3 -2 -64 -40t-63 -39z" />
<glyph unicode="&#x2020;" horiz-adv-x="513" d="M121 -180q-3 0 -3 4l72 509h-138q-3 0 -3 4l19 129q0 4 3 4h138l29 206q0 4 4 4h140q3 0 3 -4l-29 -206h135q5 0 3 -4l-18 -129q0 -4 -4 -4h-135l-72 -509q0 -4 -4 -4h-140z" />
<glyph unicode="&#x2021;" horiz-adv-x="514" d="M120 -180q-3 0 -3 4l25 176h-138q-3 0 -3 4l18 129l4 4h138l32 226h-138q-3 0 -2 4l18 129q0 4 3 4h138l25 176q0 4 3 4h141q3 0 3 -4l-25 -176h135q4 0 4 -4l-19 -129q0 -4 -4 -4h-135l-32 -226h135q5 0 3 -4l-18 -129q0 -4 -4 -4h-135l-25 -176q0 -4 -3 -4h-141z" />
<glyph unicode="&#x2022;" horiz-adv-x="385" d="M181 199q-46 0 -71 19.5t-16 79.5l4 25q9 57 40 77t77 20q20 0 33 -3t27.5 -11.5t20 -29.5t1.5 -53l-3 -25q-4 -32 -15 -53.5t-28.5 -30.5t-33 -12t-36.5 -3z" />
<glyph unicode="&#x2026;" horiz-adv-x="681" d="M460 0q-4 0 -4 4l22 155q0 4 5 4h143q2 0 2 -4l-21 -155q-1 -4 -4 -4h-143zM-2 0q-3 0 -3 4l22 155q0 4 4 4h143q3 0 3 -4l-21 -155q-1 -4 -5 -4h-143zM229 0q-3 0 -3 4l22 155q0 4 4 4h143q2 0 2 -4l-21 -155q-1 -4 -4 -4h-143z" />
<glyph unicode="&#x202f;" horiz-adv-x="188" />
<glyph unicode="&#x2030;" horiz-adv-x="1005" d="M227 -6h-131q-2 1 -2 3q-9 2 99 173t215.5 341.5t97.5 171.5q2 4 5 4h132q3 0 0 -4l-410 -685q-3 -4 -6 -4zM502 -6q-125 0 -107 124l12 82q17 121 144 121q52 0 83 -25t21 -96l-12 -82q-18 -124 -141 -124zM783 -6q-53 0 -83.5 26t-21.5 98l11 82q17 121 144 121 q52 0 83 -25t21 -96l-12 -82q-18 -124 -142 -124zM189 360q-53 0 -83.5 26t-21.5 98l11 82q17 121 144 121q52 0 82 -25t21 -96l-11 -82q-17 -124 -142 -124zM798 98q15 0 23.5 7t11.5 30l6 46q3 21 -3 28.5t-20 7.5q-15 0 -24 -7.5t-12 -28.5l-6 -46q-3 -22 3.5 -29.5 t20.5 -7.5zM204 464q14 0 22.5 7t11.5 30l7 46q3 21 -3 28.5t-20 7.5t-23 -7.5t-12 -28.5l-7 -46q-6 -37 24 -37zM517 98q9 0 14.5 2t11 10.5t7.5 24.5l6 46q3 22 -2.5 29t-19.5 7q-30 0 -35 -36l-6 -46q-3 -22 3.5 -29.5t20.5 -7.5z" />
<glyph unicode="&#x2039;" horiz-adv-x="352" d="M274 522q2 -2 36 -44t35 -43q3 -1 -1 -5l-163 -166q116 -164 116 -166q3 -2 0 -5q-1 -1 -25 -22.5t-47.5 -42.5t-23.5 -22q-2 -2 -4 0t-95.5 128t-93.5 127q0 5 1 6l41 40q42 40 90 87.5t89 87t41 40.5q2 2 4 0z" />
<glyph unicode="&#x203a;" horiz-adv-x="352" d="M72 6q-2 2 -36 44t-35 43q-3 1 1 5l162 166q-115 164 -116 166q-3 1 1 5q1 1 24.5 22.5t47 42.5t23.5 22q2 2 4 0l189 -255q3 -3 0 -6l-261 -255q-2 -2 -4 0z" />
<glyph unicode="&#x2044;" horiz-adv-x="399" d="M2 -5q-3 0 -2 4q1 2 129.5 342.5t129.5 341.5q1 4 5 4h151q4 0 1 -4l-258 -684q-1 -4 -5 -4h-151z" />
<glyph unicode="&#x205f;" horiz-adv-x="236" />
<glyph unicode="&#x2070;" horiz-adv-x="302" d="M159 338q28 0 41 16t20 70l14 103q7 52 -1.5 68t-35.5 16q-28 0 -41.5 -15.5t-20.5 -68.5l-14 -103q-8 -54 1 -70t37 -16zM149 267q-14 0 -23.5 0.5t-22 3t-21 7t-17 11.5t-13.5 18.5t-8.5 26.5t-3 36.5t4.5 47.5l17 117q7 49 21.5 80t36 45t40.5 18t47 4q15 0 25.5 -1 t25 -4t22.5 -9t18 -16.5t12.5 -26t5.5 -38t-4 -52.5l-17 -117q-7 -52 -22 -84.5t-37.5 -46t-40 -17t-46.5 -3.5z" />
<glyph unicode="&#x2074;" horiz-adv-x="277" d="M222 270h-62q-3 0 -3 2l9 63h-134q-2 0 -2 3l9 65l3 6l32 67q32 66 64 133l33 67l2 2h71q1 0 1 -2l-124 -265l-1 -5h56l10 70q0 2 3 2h62q3 0 3 -2l-10 -70h30q2 0 2 -3l-9 -65q0 -3 -3 -3h-30l-9 -63q0 -2 -3 -2z" />
<glyph unicode="&#x2075;" horiz-adv-x="277" d="M130 267q-60 0 -96 18l-2 2q0 2 10 30.5t10 29.5t3 1l5 -1q6 -1 15 -3t19.5 -4t22.5 -3t22 -1q45 0 50 36l4 29q6 48 -34 48h-94q-2 0 -2 2l31 222q0 5 6 5h191q2 0 2 -2l-9 -61q0 -3 -2 -3h-130l-14 -98h31q21 0 37 -3t34 -12t25.5 -30.5t2.5 -54.5l-8 -53 q-5 -32 -18.5 -52.5t-35 -28.5t-38 -10.5t-38.5 -2.5z" />
<glyph unicode="&#x2076;" horiz-adv-x="278" d="M146 331q12 0 20.5 3t17.5 17t12 39l2 16q7 53 -28 53q-8 0 -20 -2.5t-20 -5.5l-8 -3l-12 -81q-5 -36 36 -36zM141 267q-21 0 -38 3.5t-34.5 13t-25.5 30.5t-4 51l30 212q5 34 21.5 56.5t38.5 32t38.5 13t31.5 3.5q17 0 33 -2.5t26 -5.5t18 -6t12 -6l4 -2q2 0 0 -3 q0 -2 -10.5 -29t-10.5 -28t-4 -1l-5 1q-5 2 -12.5 4t-17 3.5t-21 3t-21.5 1.5q-46 0 -51 -38l-8 -61q44 11 63 11q18 0 30.5 -3t26.5 -13.5t18.5 -34.5t-0.5 -61l-4 -27q-6 -39 -19 -64.5t-32.5 -36.5t-35 -14t-37.5 -3z" />
<glyph unicode="&#x2077;" horiz-adv-x="268" d="M125 270h-71q-4 0 -2 3l155 331l1 6h-130q-2 0 -2 2l9 63q0 3 2 3h207q2 0 2 -2l-9 -62q0 -1 -1.5 -3.5t-1.5 -3.5t-77.5 -167t-77.5 -167q-1 -3 -4 -3z" />
<glyph unicode="&#x2078;" horiz-adv-x="276" d="M144 331q41 0 48 49l3 19q7 47 -34 47q-42 0 -49 -47l-3 -19q-8 -49 35 -49zM170 515q40 0 45 41l2 18q5 44 -31 44q-39 0 -46 -44l-3 -18q-3 -21 7 -31t26 -10zM134 267q-23 0 -39.5 3.5t-32.5 14t-22.5 33.5t-1.5 57l4 29q3 24 15 43t23 26l10 7l1 2q-3 2 -8 7 t-11.5 22.5t-3.5 38.5l4 27q5 34 17.5 56.5t31 32.5t35 13t39.5 3q48 0 74 -20.5t17 -84.5l-4 -28q-3 -20 -13 -36.5t-19 -23.5l-8 -7l-1 -2q4 -2 9.5 -7t13.5 -25t4 -44l-5 -29q-11 -66 -44 -87t-85 -21z" />
<glyph unicode="&#x2079;" horiz-adv-x="277" d="M186 617q-12 0 -19.5 -3t-16.5 -16.5t-13 -38.5l-4 -24q-5 -31 2.5 -42t24.5 -11q8 0 20 3l20 5l7 3l13 89q5 35 -34 35zM191 682q20 0 37 -3.5t34.5 -13t25.5 -30.5t4 -51l-30 -212q-6 -44 -34 -69.5t-50 -30.5t-44 -5q-58 0 -96 19v1q0 2 10.5 30t10.5 29q0 2 3 2l5 -1 q5 -1 13.5 -3t18 -4t21.5 -3t22 -1q43 0 49 40l7 53q-43 -11 -61 -11t-30.5 3t-26 13.5t-18.5 34.5t0 61l4 33q5 39 18 65t33 36.5t36 14t38 3.5z" />
<glyph unicode="&#x2080;" horiz-adv-x="302" d="M121 68q28 0 41 16t20 70l14 103q7 52 -1.5 68t-35.5 16q-28 0 -41.5 -15.5t-20.5 -68.5l-14 -103q-8 -54 1 -70t37 -16zM111 -3q-14 0 -23.5 0.5t-22 3t-21 7t-17 11.5t-13.5 18.5t-8.5 26.5t-3 36.5t4.5 47.5l17 117q7 49 21.5 80t36 45t40.5 18t47 4q15 0 25.5 -1 t24.5 -4t22 -9t18 -16.5t12 -26t5 -38t-3 -52.5l-16 -117q-7 -52 -21.5 -84.5t-37.5 -46t-40.5 -17t-46.5 -3.5z" />
<glyph unicode="&#x2081;" horiz-adv-x="267" d="M150 0h-67q-2 0 -2 2l45 321q-68 -50 -69 -51q-2 0 -3 1q0 1 -3.5 32t-3.5 32q0 2 4 4q1 1 42.5 33t42.5 33t4 1h67q3 0 3 -2l-57 -404q0 -2 -3 -2z" />
<glyph unicode="&#x2082;" horiz-adv-x="273" d="M201 0h-208q-2 0 -2 2l9 63q0 2 3 5q10 11 33 36t33.5 36.5t28.5 31.5t27 31.5t19.5 26t15.5 25t6 18.5l4 29q2 16 -5 24.5t-15.5 10.5t-19.5 2q-10 0 -22 -1.5t-22 -3.5t-18.5 -4t-13.5 -4l-6 -1q-1 -1 -2 -0.5t-1 1.5t-2.5 29t-2.5 30t2 3q42 21 99 21q21 0 38 -3 t35.5 -12t26.5 -29.5t4 -51.5l-6 -46q-3 -23 -24.5 -57.5t-40 -57.5t-65.5 -78l-1 -6h103v-2l-9 -66q0 -2 -1 -2z" />
<glyph unicode="&#x2083;" horiz-adv-x="277" d="M-6 15q0 1 -0.5 1t-0.5 1t11 31l11 29q0 1 2 1l5 -1q6 -1 14.5 -3t19 -4t22.5 -3t23 -1q45 0 50 37l3 26q5 46 -34 46h-41q-3 0 -3 2l9 62q0 2 3 2h42q14 0 25 10t14 29l4 25q2 16 -5 25t-15 11t-19 2q-16 0 -36 -3t-32 -6t-14 -4q-3 -2 -3 1q0 1 -1.5 28.5t-1.5 30.5 q0 2 1 3t12.5 5.5t35.5 9t49 4.5q23 0 40.5 -3t35 -12t25 -29t2.5 -50l-6 -39q-3 -18 -12 -34t-17 -23l-7 -8l-1 -5q3 -2 8 -6.5t12 -23.5t3 -43l-6 -44q-8 -57 -42 -76t-87 -19q-28 0 -52.5 4.5t-35.5 8.5z" />
<glyph unicode="&#x2084;" horiz-adv-x="277" d="M184 0h-62q-3 0 -3 2l9 63h-134q-2 0 -2 3l9 65l3 6l32 67q32 66 64 133l33 67l2 2h71q1 0 1 -2l-124 -265l-1 -5h56l10 70q0 2 3 2h62q3 0 3 -2l-10 -70h30q2 0 2 -3l-9 -65q0 -3 -3 -3h-30l-9 -63q0 -2 -3 -2z" />
<glyph unicode="&#x2085;" horiz-adv-x="277" d="M92 -3q-60 0 -96 18l-2 2q0 2 10 30.5t10 29.5t3 1l5 -1q6 -1 15 -3t19.5 -4t22.5 -3t22 -1q45 0 50 36l4 29q6 48 -34 48h-94q-2 0 -2 2l31 222q0 5 6 5h191q2 0 2 -2l-9 -61q0 -3 -2 -3h-130l-14 -98h31q21 0 37 -3t34 -12t25.5 -30.5t2.5 -54.5l-8 -53 q-5 -32 -18.5 -52.5t-35 -28.5t-38 -10.5t-38.5 -2.5z" />
<glyph unicode="&#x2086;" horiz-adv-x="278" d="M108 61q12 0 20.5 3t17.5 17t12 39l2 16q7 53 -28 53q-8 0 -20 -2.5t-20 -5.5l-8 -3l-12 -81q-5 -36 36 -36zM103 -3q-21 0 -38 3.5t-34.5 13t-25.5 30.5t-4 51l30 212q5 34 21.5 56.5t38.5 32t38.5 13t31.5 3.5q17 0 33 -2.5t26 -5.5t18 -6t12 -6l4 -2q2 0 0 -3 q0 -2 -10.5 -29t-10.5 -28t-4 -1l-5 1q-5 2 -12.5 4t-17 3.5t-21 3t-21.5 1.5q-46 0 -51 -38l-8 -61q44 11 63 11q18 0 30.5 -3t26.5 -13.5t18.5 -34.5t-0.5 -61l-4 -27q-6 -39 -19 -64.5t-32.5 -36.5t-35 -14t-37.5 -3z" />
<glyph unicode="&#x2087;" horiz-adv-x="268" d="M87 0h-71q-4 0 -2 3l155 331l1 6h-130q-2 0 -2 2l9 63q0 3 2 3h207q2 0 2 -2l-9 -62q0 -1 -1.5 -3.5t-1.5 -3.5t-78 -167l-77 -167q-1 -3 -4 -3z" />
<glyph unicode="&#x2088;" horiz-adv-x="276" d="M106 61q41 0 48 49l3 19q7 47 -34 47q-42 0 -49 -47l-3 -19q-8 -49 35 -49zM132 245q40 0 45 41l2 18q5 44 -31 44q-42 0 -47 -44l-2 -18q-5 -41 33 -41zM96 -3q-23 0 -40 3.5t-33.5 14t-23 33.5t-0.5 57l5 29q4 24 16 43t22 26l10 7l1 2q-3 2 -8 7t-11.5 22.5t-3.5 38.5 l4 27q5 34 17.5 56.5t31 32.5t35 13t39.5 3q48 0 74 -20.5t17 -84.5l-4 -28q-3 -20 -13 -36.5t-19 -23.5l-8 -7l-1 -2q4 -2 9.5 -7t13.5 -25t4 -44l-5 -29q-11 -66 -44 -87t-85 -21z" />
<glyph unicode="&#x2089;" horiz-adv-x="277" d="M148 347q-12 0 -19.5 -3t-16.5 -16.5t-13 -38.5l-4 -24q-5 -31 2.5 -42t24.5 -11q8 0 20 3l20 5l7 3l13 89q5 35 -34 35zM153 412q20 0 37 -3.5t34.5 -13t25.5 -30.5t4 -51l-30 -212q-6 -44 -34 -69.5t-50 -30.5t-44 -5q-58 0 -96 19v1q0 2 10.5 30t10.5 29q0 2 3 2l5 -1 q5 -1 13.5 -3t18 -4t21.5 -3t22 -1q43 0 49 40l7 53q-43 -11 -61 -11t-30.5 3t-26 13.5t-18.5 34.5t0 61l4 33q5 39 18 65t33 36.5t36 14t38 3.5z" />
<glyph unicode="&#x20ac;" horiz-adv-x="528" d="M286 -8q-32 0 -59.5 4t-61.5 18.5t-56 39.5t-33.5 71t-2.5 109h-40q-3 0 -3 4l12 79q0 4 3 4h40l6 41h-40q-3 0 -3 4l12 79q0 4 3 4h40q34 239 284 239q51 0 90 -7t52.5 -13t14.5 -8q3 -1 1 -5l-59 -130q-2 -4 -5 -2q-2 1 -17 3t-43.5 4.5t-55.5 2.5q-31 0 -51 -17.5 t-38 -66.5h110q3 0 3 -4l-11 -79q0 -4 -4 -4h-112l-6 -41h112q4 0 3 -4l-11 -79q0 -4 -4 -4h-110q1 -49 15 -64.5t49 -15.5q30 0 61 3t47.5 6t18.5 4q4 1 4 -2l26 -133q0 -4 -3 -5q-3 -3 -20.5 -10t-62 -16t-95.5 -9z" />
<glyph unicode="&#x2122;" horiz-adv-x="722" d="M339 291l54 386q0 3 3 3h104q3 0 3 -2l33 -173h7q78 170 79 172q3 3 5 3h102q2 0 2 -3l-54 -386l-2 -2h-89v2l29 205h-7q-54 -121 -55 -123t-3 -2h-60q-3 0 -4 3l-19 122h-7l-29 -205q0 -2 -3 -2h-87q-2 0 -2 2zM118 291l42 301h-79v2l12 83v3h250q2 0 2 -3l-12 -83 q0 -2 -2 -2h-78l-42 -301q0 -2 -4 -2h-88q-1 0 -1 2z" />
<glyph unicode="&#x2190;" horiz-adv-x="732" d="M312 360h377q3 0 3 -4l-18 -129q0 -4 -4 -4h-377l114 -133q2 -2 -1 -5q-2 -1 -52.5 -45t-52.5 -46q-3 -2 -5 0l-253 294q-3 3 0 6l337 295q2 3 5 0l79 -91q2 -2 -1 -6z" />
<glyph unicode="&#x2191;" horiz-adv-x="699" d="M431 381l-53 -377q0 -4 -4 -4h-129q-4 0 -4 4l53 377l-151 -133q-3 -2 -5 0q-1 1 -39 46t-39 46q-3 3 1 5l335 295q3 3 6 0l253 -295q3 -3 0 -5l-104 -92q-4 -4 -6 0z" />
<glyph unicode="&#x2192;" horiz-adv-x="732" d="M423 223h-377q-4 0 -4 4l18 129q0 4 5 4h377l-114 133q-2 3 0 5q2 1 52.5 45t52.5 46q3 3 5 0l254 -294q2 -3 -1 -6l-336 -295q-3 -3 -5 0l-80 91q-2 3 1 6z" />
<glyph unicode="&#x2193;" horiz-adv-x="699" d="M278 260l53 377q0 4 4 4h129q4 0 4 -4l-53 -377l151 133q2 3 5 0q1 -1 39 -46t39 -46q3 -3 -1 -5l-335 -295q-3 -3 -6 0l-253 295q-2 2 0 5l104 92q4 4 6 0z" />
<glyph unicode="&#x2194;" horiz-adv-x="977" d="M296 -5l-253 294q-3 3 1 6l336 295q2 2 5 0q1 -1 39.5 -45.5t39.5 -45.5q2 -3 -1 -6l-151 -132h375q-113 130 -114 132q-2 3 1 6l104 91q2 2 5 0q2 -2 127 -148t126 -147q2 -4 0 -6l-337 -294q-3 -3 -5 0l-78 91q-2 2 1 5l150 133h-374l114 -133q2 -2 -1 -5l-105 -91 q-3 -3 -5 0z" />
<glyph unicode="&#x2195;" horiz-adv-x="699" d="M81 492q1 1 168 147.5t168 147.5q3 3 5 0q1 -2 126.5 -147.5t127.5 -147.5t-1 -6q-1 -1 -52 -45.5t-52 -45.5q-3 -3 -5 0l-114 132l-52 -374l150 132q3 3 6 0l78 -91q3 -3 0 -6l-337 -295q-3 -3 -6 0l-253 295q-2 2 1 6l104 91q3 3 5 0l115 -132l52 374 q-149 -130 -151 -132q-3 -3 -5 0l-79 91q-2 2 1 6z" />
<glyph unicode="&#x2196;" horiz-adv-x="613" d="M544 163q2 -3 -1 -6l-105 -91q-2 -2 -5 0l-229 266l-27 -187q0 -4 -4 -4h-129q-4 0 -4 4l59 417q0 4 5 4h417q3 0 3 -4l-18 -129q0 -4 -5 -4h-187z" />
<glyph unicode="&#x2197;" horiz-adv-x="612" d="M118 65q-4 -3 -6 0l-78 92q-2 3 0 5l304 267h-187q-4 0 -4 4l18 129q0 4 5 4h417q4 0 4 -4l-59 -417q0 -4 -5 -4h-129q-4 0 -3 4l26 187z" />
<glyph unicode="&#x2198;" horiz-adv-x="613" d="M78 467q-3 3 1 6l104 91q3 2 5 0l230 -266l26 187q0 4 5 4h129q3 0 3 -4l-58 -417q-2 -4 -5 -4h-417q-4 0 -3 4l18 129q0 4 4 4h187z" />
<glyph unicode="&#x2199;" horiz-adv-x="612" d="M502 565q4 2 6 0l78 -92q2 -3 0 -5l-304 -267h187q4 0 4 -4l-19 -129q0 -4 -4 -4h-417q-4 0 -4 4l59 417q0 4 5 4h129q4 0 3 -4l-26 -187z" />
<glyph unicode="&#x2212;" horiz-adv-x="356" d="M32 207q-3 0 -3 4l18 129q0 4 4 4h269q4 0 4 -4l-18 -129q0 -4 -5 -4h-269z" />
<glyph unicode="&#x221a;" horiz-adv-x="877" d="M33 296l121 110q4 3 7 0l155 -181q465 411 466 412q4 3 7 0l90 -110q2 -2 -1 -5l-591 -527q-3 -3 -6 0q-1 1 -63 74.5t-123.5 147t-62.5 73.5q0 5 1 6z" />
<glyph unicode="&#x2248;" d="M51 184q1 10 10 20q5 6 16 15t34 19.5t46 10.5q37 0 85 -29t74 -29q27 0 59.5 22.5t33.5 22.5q5 0 3 -6l-11 -80q-2 -14 -10 -21q-54 -49 -98 -49q-36 0 -81.5 30.5t-73.5 30.5q-21 0 -42.5 -11t-36 -22t-17.5 -11t-3 5zM82 405q1 11 10 20q6 7 17 16t33.5 19.5 t45.5 10.5q37 0 85 -29t74 -29q27 0 59.5 22.5t33.5 22.5q4 0 3 -6l-11 -80q-2 -14 -10 -21q-54 -49 -98 -49q-36 0 -81.5 30.5t-73.5 30.5q-21 0 -42.5 -11t-36 -22t-17.5 -11q-4 0 -2 5z" />
<glyph unicode="&#x2260;" horiz-adv-x="494" d="M47 0q-4 0 -2 4l49 93h-70q-3 0 -3 4l19 131q0 4 3 4h135l36 80h-159q-3 0 -3 4l19 131q0 4 3 4h224q50 93 52 97q3 4 5 4h94q3 0 3 -4l-52 -97h68q4 0 4 -4l-19 -131q0 -4 -4 -4h-132l-37 -80h157q4 0 4 -4l-19 -131q0 -4 -4 -4h-223q-47 -91 -48 -93q-3 -4 -6 -4h-94z " />
<glyph unicode="&#x2264;" horiz-adv-x="492" d="M428 169l-372 171q-2 2 -2 5l16 115q0 5 4 5l420 172q3 1 3 -3l-20 -139q0 -4 -4 -6l-203 -85v-3q177 -84 179 -84q3 -2 2 -6l-19 -139q-2 -5 -4 -3zM7 0q-3 0 -3 4l19 132q0 4 3 4h398q3 0 3 -4l-19 -132q0 -4 -3 -4h-398z" />
<glyph unicode="&#x2265;" horiz-adv-x="492" d="M30 169q-1 1 -2 3l19 139q2 6 4 6l204 84v3q-178 84 -180 85t-2 6l20 139q0 4 3 3q4 -2 187.5 -87t184.5 -85q4 0 2 -5l-16 -115q0 -1 -4 -5zM405 0h-398q-3 0 -3 4l19 132q0 4 3 4h398q3 0 3 -4l-19 -132q0 -4 -3 -4z" />
<glyph unicode="&#x25b2;" horiz-adv-x="710" d="M701 323l-29 -207q0 -2 -1.5 -3t-2.5 0l-299 236h-9q-364 -236 -365 -237q-4 -4 -4 3l30 208q0 3 5 6l361 236q8 6 16 0l17 -14q18 -14 43.5 -34.5t57 -45.5t62.5 -50t56.5 -45.5t42.5 -33.5l16 -13q4 -4 3 -6z" />
<glyph unicode="&#x25ba;" horiz-adv-x="617" d="M242 0h-207q-6 0 -3 3l283 332l1 9q-189 331 -190 332q-4 4 3 4h208q3 0 6 -4l190 -328q4 -8 -2 -16q-2 -2 -72.5 -84t-140 -163t-70.5 -82q-3 -3 -6 -3z" />
<glyph unicode="&#x25bc;" horiz-adv-x="710" d="M25 356l29 207l3 3l299 -236h9q364 236 365 237q4 4 4 -3l-29 -208q0 -3 -5 -6l-361 -236q-8 -6 -16 0q-294 235 -296 236q-3 3 -2 6z" />
<glyph unicode="&#x25c4;" horiz-adv-x="617" d="M391 680h207q5 0 2 -3l-283 -332l-1 -9q189 -331 190 -332q4 -4 -3 -4h-208q-3 0 -6 4l-189 328q-5 7 2 16q1 1 72 84t140.5 163.5t69.5 81.5q3 3 7 3z" />
<glyph unicode="&#x25fc;" horiz-adv-x="485" d="M0 485h485v-485h-485v485z" />
<glyph horiz-adv-x="490" />
<glyph horiz-adv-x="490" d="M224 144q34 0 46.5 21t23.5 96l23 163q10 75 3 94.5t-40 19.5q-32 0 -45.5 -20.5t-23.5 -93.5l-23 -163q-11 -74 -5 -95.5t41 -21.5zM203 -10q-25 0 -43 1.5t-39.5 5t-36.5 11.5t-30.5 20.5t-24 32t-14.5 45.5t-5.5 62.5t6.5 80.5l27 191q10 67 29.5 115t42.5 74.5 t56.5 41t61.5 18t68 3.5q21 0 36.5 -1t35.5 -3.5t34 -7.5t29.5 -14.5t25.5 -22.5t19 -32t12.5 -43t3.5 -56.5t-6 -71.5l-27 -191q-10 -72 -31 -122.5t-43.5 -76.5t-58 -40t-61.5 -17t-67 -3z" />
<glyph horiz-adv-x="490" d="M331 0h-157q-3 0 -2 4l69 495q-109 -76 -111 -77q-1 -1 -2 -0.5t-1 2.5q0 3 -8.5 71t-9.5 69q-1 4 5 7l151 107q2 2 5 2h157q2 0 2 -4l-94 -673q-1 -3 -4 -3z" />
<glyph horiz-adv-x="490" d="M394 0h-373q-3 0 -3 4l19 131q0 7 5 12q18 19 49.5 52.5t49.5 52.5t43.5 47t40 46.5t30 39t23 37t9.5 30.5l6 42q3 18 -7 29t-19.5 13.5t-16.5 2.5q-29 0 -65 -6t-57 -11.5t-24 -6.5q-3 0 -3 3t-5.5 65.5t-5.5 63.5q0 4 2 6q3 3 21 11t63.5 17.5t98.5 9.5q28 0 52 -2.5 t54.5 -13t50.5 -27.5t31 -49.5t5 -76.5l-12 -86q-7 -55 -47 -114.5t-122 -158.5l-2 -11h130q3 0 2 -4l-20 -144q0 -4 -3 -4z" />
<glyph horiz-adv-x="490" d="M18 19q-2 0 -2 3t20.5 66.5t21.5 65.5q1 3 5 3q1 -1 23.5 -5t59.5 -8.5t66 -4.5q20 0 36.5 11t19.5 33l4 33q8 60 -39 60h-80q-4 0 -4 4l19 135q0 4 5 4h81q15 0 28 13t16 34l4 32q2 18 -7.5 29t-18.5 13.5t-17 2.5q-29 0 -65.5 -5t-57 -9.5t-24.5 -5.5q-1 -1 -3 0t-2 3 q0 5 -2 66.5t-2 62.5q0 4 3 6q5 3 23.5 9t62.5 14t89 8q36 0 62.5 -3t54.5 -13t44.5 -27t25 -47t2.5 -72l-9 -68q-4 -26 -19.5 -52t-29.5 -39l-14 -13l-1 -10q2 -1 5.5 -3.5t12 -12t14 -21.5t9 -32t0.5 -44l-11 -81q-7 -51 -28 -85t-55 -50.5t-69 -22.5t-83 -6 q-51 0 -94.5 7t-61.5 15z" />
<glyph horiz-adv-x="490" d="M382 0h-146q-2 0 -2 4l13 90h-232q-3 0 -3 4l20 139q0 6 5 14l197 425q2 4 4 4h164q4 0 2 -4l-190 -420l-1 -10h55l14 100q0 4 4 4h145q2 0 2 -4l-14 -100h33q2 0 2 -4l-20 -144q-1 -4 -3 -4h-33l-13 -90q0 -4 -3 -4z" />
<glyph horiz-adv-x="490" d="M193 -11q-117 0 -175 29q-2 2 -2 3q0 4 43 133q1 3 3 2q3 -1 25.5 -5t60 -8.5t65.5 -4.5q18 0 35 10.5t20 34.5l5 39q4 32 -10.5 45t-30.5 13h-163q-3 0 -3 4l55 387q0 9 9 9h352q4 0 3 -4l-19 -134q0 -4 -4 -4h-213l-17 -118h24q31 0 55 -2.5t53 -12t47 -26t27.5 -48 t3.5 -74.5l-14 -104q-6 -45 -25 -77t-41 -48.5t-55 -25.5t-57 -11t-57 -2z" />
<glyph horiz-adv-x="490" d="M222 128q12 0 21 3.5t19.5 21.5t15.5 51l4 29q9 63 -17 63q-14 0 -28.5 -3.5t-22.5 -6.5l-7 -4l-16 -116q-5 -38 31 -38zM215 -10q-31 0 -56.5 3t-54 14t-46 29.5t-26.5 51.5t-3 77l47 338q7 51 31 88.5t51.5 56t62 29.5t54 13t36.5 2q111 0 169 -37l1 -1q3 -1 1 -6 q-1 -5 -23.5 -64.5t-22.5 -60.5q0 -2 -4 -2l-9 2q-9 2 -23 5.5t-31 6.5t-37.5 5t-38.5 2q-7 0 -17.5 -3t-23.5 -14.5t-15 -28.5l-11 -76q68 14 94 14q17 0 29.5 -1.5t28.5 -5.5t26.5 -12.5t22 -22.5t15 -34t6 -48.5t-4.5 -65.5l-7 -49q-8 -55 -25.5 -94t-37.5 -60.5 t-49.5 -33t-53 -14.5t-55.5 -3z" />
<glyph horiz-adv-x="490" d="M219 1h-165q-4 0 -3 4l238 518l2 10h-195q-4 0 -4 4l20 139q0 4 4 4h370q3 0 3 -4l-19 -132q0 -3 -4 -13l-241 -526q-3 -4 -6 -4z" />
<glyph horiz-adv-x="490" d="M224 128q43 0 52 61l4 29q4 28 -8.5 40.5t-26.5 12.5t-30 -13t-20 -40l-4 -29q-8 -61 33 -61zM266 423q15 0 29.5 11.5t17.5 37.5l4 29q8 55 -32 55t-47 -55l-4 -29q-3 -25 7 -37t25 -12zM205 -10q-32 0 -57 3.5t-52 15t-43.5 31t-24.5 55.5t-2 84l6 49q4 36 23.5 65.5 t36.5 41.5l17 12l1 4q-4 4 -10.5 12t-15 36t-4.5 60l7 48q9 62 29.5 101.5t53.5 56.5t61.5 22t72.5 5q24 0 41.5 -1.5t38.5 -5.5t34 -12t27.5 -21.5t19 -33t9 -47.5t-3.5 -64l-7 -49q-4 -31 -19.5 -58t-28.5 -38l-13 -12l-1 -3q2 -2 6 -5t12.5 -13.5t15 -23.5t10 -33.5 t0.5 -43.5l-7 -49q-7 -48 -24 -83.5t-38.5 -55.5t-51.5 -31.5t-57 -15t-62 -3.5z" />
<glyph horiz-adv-x="490" d="M289 549q-12 0 -21.5 -3.5t-20 -21.5t-15.5 -50l-5 -35q-9 -63 19 -63q14 0 28 3.5t22 6.5l7 4l17 121q5 38 -31 38zM296 687q31 0 56.5 -3t54 -14t46 -29.5t26.5 -51.5t3 -77l-46 -328q-6 -43 -23 -76t-41 -52.5t-48.5 -33t-51 -18.5t-42 -7t-28.5 -2q-24 0 -46.5 2 t-39.5 5t-31.5 6.5t-25 7.5t-17.5 7t-11 5l-4 2q-1 0 -1 2q0 6 22 64t26 65q2 3 5 3q2 -1 22.5 -5.5t55.5 -9t63 -4.5q6 0 16.5 3t23.5 14.5t15 29.5l8 60q-68 -14 -93 -14q-19 0 -34 2t-33.5 8.5t-29 19t-21 34t-10 52t4.5 74.5l8 54q8 55 25.5 94t37.5 60.5t49.5 33 t53 14.5t55.5 3z" />
<glyph horiz-adv-x="490" d="M145 95q-4 0 -3 4l19 135q0 4 4 4h142q4 0 4 -4l-19 -135q0 -4 -5 -4h-142zM194 439q-4 0 -4 4l19 135q0 4 5 4h142q3 0 3 -4l-19 -135q0 -4 -4 -4h-142z" />
<glyph horiz-adv-x="470" d="M78 166q0 5 1 6l96 87q3 3 5 0l161 -219q1 -3 -1 -5t-48 -45l-46 -42q-3 -3 -5 0z" />
<glyph horiz-adv-x="413" d="M23 -45q-3 0 -2 4q0 1 9 18.5t19 37.5t19.5 38t9.5 19q3 4 7 4h93q3 0 2 -4l-58 -113q-2 -4 -6 -4h-93zM224 414q-4 0 -2 4l54 110q3 4 6 4h94q5 0 2 -4l-54 -110q0 -4 -6 -4h-94z" />
<glyph horiz-adv-x="574" d="M353 571q-5 0 -2 4l86 143q2 4 6 4h131q2 0 1 -4q-1 -2 -42.5 -71t-43.5 -72q-3 -4 -5 -4h-131zM9 -40q-4 0 -1 4q2 2 42.5 69.5t41.5 68.5q3 4 6 4h130q4 0 1 -4q-1 -1 -42 -69t-42 -69q-3 -4 -5 -4h-131z" />
<glyph horiz-adv-x="1068" d="M229 -10q-143 0 -215 36q-4 2 -2 6l58 137q0 3 4 3q81 -27 177 -27q32 0 49.5 7.5t20.5 30.5l5 35q3 21 -17 34t-66 20q-101 14 -139.5 50t-25.5 127l12 84q23 159 239 159q134 0 198 -32q2 -2 2 -3q0 -3 -26.5 -66t-28.5 -67q-2 -3 -5 -3q-5 2 -24.5 6t-59.5 9t-75 5 q-46 0 -50 -36l-4 -31q-3 -22 9.5 -32.5t65.5 -18.5q104 -16 144 -55.5t28 -128.5l-12 -84q-7 -53 -34 -88t-68 -50.5t-77.5 -21t-82.5 -5.5zM727 -10q-143 0 -215 36q-4 2 -2 6l58 137q0 3 4 3q81 -27 177 -27q32 0 49.5 7.5t20.5 30.5l5 35q3 21 -17 34t-66 20 q-101 14 -139.5 50t-25.5 127l12 84q23 159 239 159q134 0 198 -32q2 -2 2 -3q0 -3 -26.5 -66t-28.5 -67q-2 -3 -5 -3q-5 2 -24.5 6t-59.5 9t-75 5q-46 0 -50 -36l-4 -31q-3 -22 9.5 -32.5t65.5 -18.5q104 -16 144 -55.5t28 -128.5l-12 -84q-7 -53 -34 -88t-68 -50.5 t-77.5 -21t-82.5 -5.5z" />
<glyph horiz-adv-x="438" d="M93 0h-144q-3 0 -1 3l226 538q2 3 4 3h157q4 0 4 -3l71 -538q2 -3 -3 -3h-144q-1 0 -3 3l-3 83h-133q-27 -81 -28 -83q-2 -3 -3 -3zM170 198h74l-5 172h-15z" />
<glyph horiz-adv-x="411" d="M190 0h-202l76 544h199q20 0 39.5 -4t42 -15t36.5 -36t14 -62q0 -60 -47 -136q21 -19 29.5 -41t2.5 -61l-7 -50q-5 -37 -18.5 -63.5t-29.5 -41t-40.5 -22.5t-45 -10t-49.5 -2zM146 113h39q40 0 44 32l6 43q3 23 -6.5 30t-26.5 7h-40zM176 328h52q21 32 21 66q0 37 -31 37 h-27z" />
<glyph horiz-adv-x="383" d="M179 -4q-23 0 -41.5 2t-39.5 7t-35 14.5t-28.5 25t-20 37.5t-9.5 52.5t4 70.5l20 141q9 64 31.5 107t56.5 63t66.5 27t75.5 7t75.5 -6t42 -10.5t11.5 -6.5t0 -5q-56 -112 -56 -113q0 -2 -4 -2l-5 1q-5 1 -13 2.5t-18.5 3.5t-24 3t-26.5 1q-12 0 -20.5 -2t-19 -10 t-18.5 -27t-12 -48l-16 -114q-8 -54 3 -68.5t40 -14.5q24 0 49 3t39 5l13 3q2 2 4 -1l23 -114q2 -3 -2 -5q-58 -29 -145 -29z" />
<glyph horiz-adv-x="422" d="M150 134h37q25 0 37.5 15t20.5 73l14 101q8 58 0.5 72.5t-33.5 14.5h-37zM168 0h-180l76 544h180q14 0 23.5 -0.5t24.5 -1.5t25.5 -4.5t24 -8.5t22.5 -13t19 -19t15.5 -26.5t9.5 -35t3.5 -44.5t-4.5 -55l-17 -124q-8 -59 -26.5 -100.5t-39 -63t-51.5 -33t-52 -13.5 t-53 -2z" />
<glyph horiz-adv-x="369" d="M-12 0l76 544h319q2 0 2 -3l-17 -120q0 -4 -2 -4h-176l-12 -80h143q3 0 3 -3l-17 -119q0 -4 -3 -4h-143l-12 -84h176q1 0 1 -4l-17 -120q0 -3 -2 -3h-319z" />
<glyph horiz-adv-x="366" d="M-10 0q-2 2 -2 3l76 541h319q2 0 2 -3l-17 -120q0 -4 -3 -4h-176l-14 -103h143q2 0 2 -3l-16 -120q-1 -3 -4 -3h-143l-26 -185q0 -3 -2 -3h-139z" />
<glyph horiz-adv-x="422" d="M183 -4q-17 0 -30 1t-30.5 3t-29.5 7t-27 12.5t-24 18.5t-19 26.5t-12.5 35.5t-4.5 46t4 58l20 142q8 55 27.5 95t42 60.5t54.5 32t53.5 13.5t51.5 2q42 0 80.5 -6.5t54.5 -11.5t18 -7t0 -5l-50 -109q-1 -2 -4 -2h-4q-3 1 -9.5 2t-15 2t-19.5 2l-22 2t-24 1.5t-25 0.5 q-13 0 -21 -2t-18 -10t-17 -26.5t-11 -47.5l-16 -118q-8 -54 4 -69.5t42 -15.5l59 6l9 63h-49q-1 1 -1 4l16 113q0 3 2 3h166l-41 -292q-119 -30 -180 -30z" />
<glyph horiz-adv-x="440" d="M-10 0q-2 0 -2 3l76 538q0 3 2 3h139q2 0 2 -3l-29 -205h98l29 205l2 3h139q2 0 2 -3l-76 -538l-2 -3h-139q-2 0 -2 3l29 206h-98l-29 -206q0 -3 -2 -3h-139z" />
<glyph horiz-adv-x="200" d="M-10 0q-2 0 -2 3l76 538q0 3 2 3h139q2 0 2 -3l-76 -538l-2 -3h-139z" />
<glyph horiz-adv-x="364" d="M100 -8q-77 0 -125 24q-2 1 0 5l50 113q2 4 4 2l4 -1q4 -1 11 -2t16.5 -2.5t24 -2.5t29.5 -1q57 0 64 56l51 358q0 3 3 3h138q2 0 2 -3l-52 -371q-7 -48 -24.5 -82.5t-37.5 -52.5t-50.5 -28.5t-53 -12.5t-54.5 -2z" />
<glyph horiz-adv-x="455" d="M-10 0q-2 1 -2 3l76 538l2 3h139q2 0 2 -3l-29 -207h30q111 204 112 207t5 3h146q3 0 1 -3l-158 -266q89 -270 91 -272q3 -3 -1 -3h-148q-1 0 -4 3l-53 205h-39l-29 -205q0 -3 -2 -3h-139z" />
<glyph horiz-adv-x="360" d="M-12 0l76 541l2 3h139q2 0 2 -3l-58 -414h176q1 0 1 -4l-17 -120q0 -3 -2 -3h-319z" />
<glyph horiz-adv-x="558" d="M-10 0q-2 1 -2 3l76 538q0 3 3 3h161q4 0 5 -2l48 -229h10q107 225 108 227q3 4 6 4h160q3 0 3 -3l-76 -538q0 -3 -3 -3h-135q-3 0 -3 3l38 271h-10q-70 -154 -71 -156q-2 -3 -6 -3h-92q-5 0 -7 4l-27 155h-10l-38 -271q0 -3 -3 -3h-135z" />
<glyph horiz-adv-x="457" d="M-14 0q-2 1 -2 3l76 538q0 3 3 3h148q3 0 4 -2l74 -287h6l40 286q0 3 3 3h135q2 0 2 -3l-76 -538q0 -3 -3 -3h-150q-4 0 -5 3l-71 285h-8l-40 -285q0 -3 -2 -3h-134z" />
<glyph horiz-adv-x="420" d="M187 128q28 0 39 14t19 72l16 117q8 57 0.5 71t-34.5 14t-38 -14t-19 -71l-16 -117q-7 -60 -1.5 -73t34.5 -13zM168 -5q-18 0 -31.5 0.5t-30 3t-28.5 7t-25 12.5t-21.5 18.5t-16 26.5t-10.5 36t-3 46.5t5 58.5l20 140q8 55 25 94t36.5 60t49 32.5t52.5 14.5t56 3 q17 0 30 -0.5t29.5 -3t28.5 -7t25 -12t22 -18t16.5 -26t10.5 -35t3 -45.5t-4 -57l-20 -140q-8 -58 -26 -98.5t-37 -62t-49 -33t-51.5 -13.5t-55.5 -2z" />
<glyph horiz-adv-x="413" d="M172 295h48q5 0 13.5 2.5t20.5 13t14 27.5l5 34q7 45 -37 45h-47zM129 0h-139q-2 0 -2 3l76 541h200q21 0 40.5 -2.5t44.5 -12t41.5 -25.5t25.5 -46.5t3 -71.5l-9 -62q-7 -51 -31.5 -85.5t-59 -48t-58.5 -18t-50 -4.5h-57l-23 -165z" />
<glyph horiz-adv-x="422" d="M168 -5q-18 0 -31.5 0.5t-30 3t-28.5 7t-25 12.5t-21.5 18.5t-16 26.5t-10.5 36t-3 46.5t5 58.5l20 140q8 55 25 94t36.5 60t49 32.5t52.5 14.5t56 3q17 0 30 -0.5t29.5 -3t28.5 -7t25 -12t22 -18t16.5 -26t10.5 -35t3 -45.5t-4 -57l-20 -140q-11 -81 -40 -129 q5 -7 11 -14.5t8 -10.5l3 -4q1 -3 1 -4q-1 -1 -21 -19.5t-39 -36.5l-20 -18q0 -2 -2 -2t-3 2l-27 36q-33 -9 -90 -9zM154 147q-2 2 1 5l80 73q3 3 3 0q0 -1 2 -3q3 -4 5 -7l16 116q8 57 0.5 71t-34.5 14t-38 -14t-19 -71l-16 -117q-7 -48 -4.5 -65t17.5 -20z" />
<glyph horiz-adv-x="421" d="M171 295h49q5 0 14 3t20.5 14t14.5 29l4 28q4 27 -10 37.5t-28 10.5h-47zM128 0h-138q-2 0 -2 3l76 541h200q20 0 38.5 -2.5t43 -13t41.5 -27.5t26.5 -50t3.5 -77l-5 -39q-13 -102 -80 -139l43 -193q1 -3 -3 -3h-151q-3 0 -4 3l-27 165h-37l-23 -165q0 -3 -2 -3z" />
<glyph horiz-adv-x="403" d="M159 -4q-108 0 -174 33q-3 1 -1 5q54 108 54 114q0 3 4 3l7 -3q7 -2 19.5 -5t28 -6.5t37.5 -6t45 -2.5q46 0 49 25l3 21q5 30 -63 40q-81 11 -111.5 40t-20.5 103l9 65q17 128 194 128q104 0 160 -28q3 -2 3 -4t-24 -54.5t-26 -57.5q-1 -2 -3 -2l-7 2q-8 2 -20.5 4.5 t-27.5 4.5t-34.5 4t-36.5 2q-31 0 -34 -24l-3 -18q-2 -11 0 -16t15 -11t42 -10q83 -13 115.5 -45t22.5 -104l-9 -64q-6 -43 -27.5 -71t-55 -40.5t-63.5 -17t-67 -4.5z" />
<glyph horiz-adv-x="385" d="M83 0q-2 1 -2 3l58 411h-113q-2 1 -2 3l18 124l2 3h368q2 0 2 -3l-18 -124q0 -3 -2 -3h-112l-58 -411q0 -3 -3 -3h-138z" />
<glyph horiz-adv-x="431" d="M161 -4q-100 0 -131 49.5t-15 158.5l47 337q0 3 2 3h139q2 -1 2 -3l-46 -327q-8 -36 -4.5 -60t26.5 -24h26q21 0 30 19t16 65l46 327q0 3 3 3h138q2 -1 2 -3l-47 -337q-7 -51 -18.5 -85.5t-34 -64t-61 -44t-94.5 -14.5h-26z" />
<glyph horiz-adv-x="447" d="M100 0q-1 0 -3 2q1 2 -29.5 270t-30.5 269q0 3 2 3h145q2 -1 3 -3l19 -336h12q115 334 115 336q0 3 3 3h145l1 -3l-214 -538q-2 -3 -5 -3h-163z" />
<glyph horiz-adv-x="630" d="M67 0q-4 0 -4 4l-25 537q-2 3 1 3h144q1 0 3 -3l3 -312h13q76 212 77 214q1 3 3 3h112q3 0 4 -4l17 -213h14q89 310 90 312q1 3 3 3h145q3 0 2 -3q0 -1 -18.5 -56t-44.5 -133.5l-52 -157t-44 -134.5l-19 -56q-1 -4 -6 -4h-167q-4 0 -5 4l-2 210h-9q-59 -204 -61 -209 q-3 -5 -7 -5h-167z" />
<glyph horiz-adv-x="423" d="M-42 0q-2 0 -1 3l176 277q-91 259 -93 261l1 3h150q3 0 4 -3l32 -123h6q64 121 66 123l3 3h151q1 0 1.5 -1t-0.5 -2l-166 -261q96 -276 97 -277q3 -3 -1 -3h-150q-3 0 -4 3l-36 140h-5q-76 -138 -77 -140q-2 -3 -5 -3h-149z" />
<glyph horiz-adv-x="419" d="M101 0q-3 0 -3 3l28 203q-91 333 -92 335q-1 3 2 3h144q4 0 4 -3l36 -178h5q82 176 83 178q2 3 3 3h142q5 0 3 -3l-187 -335l-28 -203q-1 -3 -3 -3h-137z" />
<glyph horiz-adv-x="378" d="M-19 0q-3 0 -3 3l17 119q0 5 5 10l205 274l1 9h-159q-2 0 -2 3l18 123q0 3 2 3h326q2 0 2 -3l-17 -118q-1 -9 -3 -11l-205 -274l-1 -9h166q1 0 1 -3l-17 -123q0 -3 -2 -3h-334z" />
<glyph horiz-adv-x="340" d="M74 436l-1 3l14 102q0 3 2 3h96q2 0 2 -3l-14 -102l-3 -3h-96zM213 436q-4 0 -3 3l14 102q0 3 4 3h93q2 0 2 -3l-14 -102q0 -3 -3 -3h-93z" />
<glyph horiz-adv-x="340" d="M178 440l-58 119q-2 3 2 3h113q1 0 3 -3l38 -120q1 -3 -1 -3h-94q-2 0 -3 4z" />
<glyph horiz-adv-x="340" d="M157 435h-94q-1 2 0 2q-2 0 20.5 29t45 59t22.5 33q1 0 3 1.5t4 1.5h102q4 0 6 -3q0 -1 13.5 -30.5l27 -59t14.5 -30.5q3 -3 0 -3h-94q-3 0 -5 3l-22 49h-1q-35 -47 -37 -49q-3 -3 -5 -3z" />
<glyph horiz-adv-x="339" d="M80 441q-3 0 -3 4l10 69q1 8 9 17q28 28 64 28q22 0 52 -15t46 -15q18 0 38.5 14t22.5 14q3 0 3 -5l-10 -68q-2 -12 -9 -18q-35 -31 -64 -31q-23 0 -52 16.5t-44 16.5t-29 -7t-23 -13.5t-11 -6.5z" />
<glyph horiz-adv-x="340" d="M305 446h-223q-2 2 -2 3l13 93l3 3h223q1 0 1 -3l-13 -93q0 -3 -2 -3z" />
<glyph horiz-adv-x="340" d="M206 439q-3 -3 -4 -3h-94q-2 0 -1 3l72 120q4 3 5 3h112q3 0 0 -3z" />
<glyph horiz-adv-x="341" d="M143 -134h-113q-1 1 0 3q1 1 38.5 68t38.5 68q3 3 5 3h95q1 -1 0 -3l-61 -136q-2 -3 -3 -3z" />
<glyph horiz-adv-x="339" d="M191 431q-101 0 -101 95q0 26 10 26h57q6 0 7 -5q4 -19 11.5 -24.5t26.5 -5.5q33 0 45 30q3 5 12 5h55q4 0 5.5 -1t0.5 -4q-19 -116 -129 -116z" />
<glyph horiz-adv-x="340" d="M127 429q-1 0 -1 3l15 109q0 3 2 3h122q4 0 4 -3l-15 -109q0 -3 -6 -3h-121z" />
<glyph horiz-adv-x="339" d="M194 472q14 0 21.5 6t10.5 26l1 8q4 31 -21 31q-31 0 -35 -31l-1 -8q-3 -20 3.5 -26t20.5 -6zM186 417q-17 0 -29 2.5t-24 10.5t-16.5 25t-0.5 43l3 20q7 47 32 63t63 16q16 0 27 -2t23 -9.5t16.5 -24.5t0.5 -43l-3 -20q-5 -35 -21 -54t-31.5 -23t-39.5 -4z" />
<glyph horiz-adv-x="341" d="M274 437q-2 -3 -3 -3h-94q-2 0 -2 3q2 1 37 60t36 60q3 3 5 3h112q3 0 0 -3q-1 -1 -45 -59t-46 -61zM138 437q-2 -3 -3 -3h-94q-3 0 -1 3l72 120q0 3 5 3h112q1 0 0 -3q0 -1 -45 -59.5t-46 -60.5z" />
<glyph horiz-adv-x="339" d="M102 -155q-33 0 -52.5 13t-19.5 51q0 62 52 96q5 3 12 3h103q14 0 0 -7q-53 -28 -62 -43q-3 -6 -3 -12q0 -8 6 -8q11 0 18 7q4 3 7 -1l23 -64q1 -4 -2 -7t-13 -9t-30 -12.5t-39 -6.5z" />
<glyph horiz-adv-x="340" d="M241 557h97q3 0 2 -2l-101 -120q-2 -4 -7 -4h-87q-2 0 -3.5 1t-2.5 1q2 0 -56 103q-12 19 -10 18q-1 3 1 3h97q3 0 4 -3l24 -47h1q35 45 37 47q3 3 4 3z" />
<glyph horiz-adv-x="438" d="M93 0h-144q-3 0 -1 3l226 538q2 3 4 3h157q4 0 4 -3l71 -538q2 -3 -3 -3h-144q-1 0 -3 3l-3 83h-133q-27 -81 -28 -83q-2 -3 -3 -3zM251 600l-57 119q-2 3 1 3h113q2 0 3 -3l38 -120q1 -3 0 -3h-94q-3 0 -4 4zM170 198h74l-5 172h-15z" />
<glyph horiz-adv-x="438" d="M93 0h-144q-3 0 -1 3l226 538q2 3 4 3h157q4 0 4 -3l71 -538q2 -3 -3 -3h-144q-1 0 -3 3l-3 83h-133q-27 -81 -28 -83q-2 -3 -3 -3zM274 599q-2 -3 -3 -3h-94q-3 0 -1 3l72 120q3 3 4 3h112q4 0 1 -3zM170 198h74l-5 172h-15z" />
<glyph horiz-adv-x="438" d="M93 0h-144q-3 0 -1 3l226 538q2 3 4 3h157q4 0 4 -3l71 -538q2 -3 -3 -3h-144q-1 0 -3 3l-3 83h-133q-27 -81 -28 -83q-2 -3 -3 -3zM226 595h-94q0 2 1 2q-2 0 20.5 29t45 59t22.5 33q1 0 3 1.5t4 1.5h102q4 0 6 -3q0 -1 13.5 -30.5l27 -59t14.5 -30.5q0 -2 -1 -3h-94 q-2 0 -4 3l-22 49h-1q-35 -47 -37 -49q-3 -3 -6 -3zM170 198h74l-5 172h-15z" />
<glyph horiz-adv-x="438" d="M93 0h-144q-3 0 -1 3l226 538q2 3 4 3h157q4 0 4 -3l71 -538q2 -3 -3 -3h-144q-1 0 -3 3l-3 83h-133q-27 -81 -28 -83q-2 -3 -3 -3zM152 601q-2 0 -2 4l10 69q1 9 8 17q28 28 64 28q22 0 52 -15t47 -15q18 0 38.5 14t22.5 14t2 -5l-10 -68q-2 -13 -8 -18q-35 -31 -65 -31 q-23 0 -52 16.5t-44 16.5t-29 -7t-23 -13.5t-11 -6.5zM170 198h74l-5 172h-15z" />
<glyph horiz-adv-x="438" d="M93 0h-144q-3 0 -1 3l226 538q2 3 4 3h157q4 0 4 -3l71 -538q2 -3 -3 -3h-144q-1 0 -3 3l-3 83h-133q-27 -81 -28 -83q-2 -3 -3 -3zM147 596q-2 0 -2 3l14 102q0 3 3 3h96q1 0 1.5 -1t-0.5 -2l-14 -102l-2 -3h-96zM286 596q-4 0 -4 3l14 102q0 3 5 3h93q1 0 1.5 -1 t-0.5 -2l-14 -102q0 -3 -2 -3h-93zM170 198h74l-5 172h-15z" />
<glyph horiz-adv-x="438" d="M93 0h-144q-3 0 -1 3l226 538q2 3 4 3h157q4 0 4 -3l71 -538q2 -3 -3 -3h-144q-1 0 -3 3l-3 83h-133q-27 -81 -28 -83q-2 -3 -3 -3zM260 577q-17 0 -29 2.5t-24 10.5t-16.5 25t-0.5 43l3 20q7 47 32 63t63 16q16 0 27 -2t23 -9.5t16.5 -24.5t0.5 -43l-3 -20 q-5 -35 -21 -54t-31.5 -23t-39.5 -4zM170 198h74l-5 172h-15zM268 632q14 0 21.5 6t10.5 26l1 8q4 31 -21 31q-31 0 -35 -31l-1 -8q-3 -20 3.5 -26t20.5 -6z" />
<glyph horiz-adv-x="383" d="M168 -134h-113q-1 1 0 3l73 130q-67 9 -100 54.5t-19 151.5l19 141q9 64 31.5 107t56.5 63t66.5 27t75.5 7t76 -6t42.5 -10.5t11.5 -6.5q1 -1 -1 -5q-56 -112 -56 -113q0 -2 -4 -2l-5 1q-5 1 -13 2.5t-18 3.5t-23.5 3t-26.5 1q-12 0 -20.5 -2t-19.5 -10t-19 -27t-12 -48 l-16 -114q-8 -53 3.5 -68t40.5 -15q24 0 48.5 3t37.5 5l14 3q2 2 4 -1l23 -114q2 -3 -2 -5q-42 -21 -94 -26l-58 -130q-1 -3 -3 -3z" />
<glyph horiz-adv-x="369" d="M-12 0l76 544h319q2 0 2 -3l-17 -120q0 -4 -2 -4h-176l-12 -80h143q3 0 3 -3l-17 -119q0 -4 -3 -4h-143l-12 -84h176q1 0 1 -4l-17 -120q0 -3 -2 -3h-319zM217 600l-57 119q-2 3 1 3h113q2 0 3 -3l38 -120q1 -3 0 -3h-94q-3 0 -4 4z" />
<glyph horiz-adv-x="369" d="M-12 0l76 544h319q2 0 2 -3l-17 -120q0 -4 -2 -4h-176l-12 -80h143q3 0 3 -3l-17 -119q0 -4 -3 -4h-143l-12 -84h176q1 0 1 -4l-17 -120q0 -3 -2 -3h-319zM247 599q-1 -3 -3 -3h-94q-2 0 -1 3l72 120q3 3 4 3h112q4 0 1 -3z" />
<glyph horiz-adv-x="369" d="M-12 0l76 544h319q2 0 2 -3l-17 -120q0 -4 -2 -4h-176l-12 -80h143q3 0 3 -3l-17 -119q0 -4 -3 -4h-143l-12 -84h176q1 0 1 -4l-17 -120q0 -3 -2 -3h-319zM200 595h-94q-1 2 0 2q-2 0 20.5 29t45 59t22.5 33q1 0 3 1.5t4 1.5h102q4 0 6 -3q0 -1 13.5 -30.5l27 -59 t14.5 -30.5q3 -3 0 -3h-94q-4 0 -5 3l-22 49h-1q-35 -47 -37 -49q-3 -3 -5 -3z" />
<glyph horiz-adv-x="369" d="M-12 0l76 544h319q2 0 2 -3l-17 -120q0 -4 -2 -4h-176l-12 -80h143q3 0 3 -3l-17 -119q0 -4 -3 -4h-143l-12 -84h176q1 0 1 -4l-17 -120q0 -3 -2 -3h-319zM110 596q-2 0 -2 3l15 102q0 3 2 3h96q1 0 1.5 -1t-0.5 -2l-14 -102l-2 -3h-96zM249 596q-4 0 -4 3l15 102 q0 3 4 3h93q1 0 1.5 -1t-0.5 -2l-14 -102q0 -3 -2 -3h-93z" />
<glyph horiz-adv-x="200" d="M-10 0q-2 0 -2 3l76 538q0 3 2 3h139q2 0 2 -3l-76 -538l-2 -3h-139zM132 600l-57 119q-1 3 1 3h113q1 0 3 -3l38 -120q1 -3 -1 -3h-94q-2 0 -3 4z" />
<glyph horiz-adv-x="200" d="M-10 0q-2 0 -2 3l76 538q0 3 2 3h139q2 0 2 -3l-76 -538l-2 -3h-139zM155 599q-1 -3 -4 -3h-94q-1 0 0 3l72 120q3 3 4 3h112q4 0 1 -3z" />
<glyph horiz-adv-x="200" d="M-10 0q-2 0 -2 3l76 538q0 3 2 3h139q2 0 2 -3l-76 -538l-2 -3h-139zM107 595h-94q0 2 1 2q-2 0 20.5 29t45 59t22.5 33q1 0 3 1.5t4 1.5h102q4 0 6 -3q0 -1 13.5 -30.5l27 -59t14.5 -30.5q0 -2 -1 -3h-94q-3 0 -4 3l-22 49h-1q-35 -47 -37 -49q-3 -3 -6 -3z" />
<glyph horiz-adv-x="200" d="M-10 0q-2 0 -2 3l76 538q0 3 2 3h139q2 0 2 -3l-76 -538l-2 -3h-139zM27 596q-2 0 -2 3l15 102q0 3 2 3h96q1 0 1.5 -1t-0.5 -2l-14 -102l-2 -3h-96zM166 596q-4 0 -4 3l15 102q0 3 4 3h93q1 0 1.5 -1t-0.5 -2l-14 -102q0 -3 -2 -3h-93z" />
<glyph horiz-adv-x="457" d="M-14 0q-2 1 -2 3l76 538q0 3 3 3h148q3 0 4 -2l74 -287h6l40 286q0 3 3 3h135q2 0 2 -3l-76 -538q0 -3 -3 -3h-150q-4 0 -5 3l-71 285h-8l-40 -285q0 -3 -2 -3h-134zM161 601q-2 0 -2 4l10 69q1 9 8 17q28 28 64 28q23 0 53 -15t46 -15q18 0 38.5 14t22.5 14t2 -5 l-10 -68q-2 -13 -8 -18q-35 -31 -65 -31q-23 0 -52 16.5t-44 16.5q-14 0 -28.5 -7t-23.5 -13.5t-11 -6.5z" />
<glyph horiz-adv-x="420" d="M168 -5q-18 0 -31.5 0.5t-30 3t-28.5 7t-25 12.5t-21.5 18.5t-16 26.5t-10.5 36t-3 46.5t5 58.5l20 140q8 55 25 94t36.5 60t49 32.5t52.5 14.5t56 3q17 0 30 -0.5t29.5 -3t28.5 -7t25 -12t22 -18t16.5 -26t10.5 -35t3 -45.5t-4 -57l-20 -140q-8 -58 -26 -98.5t-37 -62 t-49 -33t-51.5 -13.5t-55.5 -2zM187 128q28 0 39 14t19 72l16 117q8 57 0.5 71t-34.5 14t-38 -14t-19 -71l-16 -117q-7 -60 -1.5 -73t34.5 -13zM243 600l-57 119q-2 3 1 3h113q2 0 3 -3l38 -120q1 -3 -1 -3h-94q-2 0 -3 4z" />
<glyph horiz-adv-x="420" d="M168 -5q-18 0 -31.5 0.5t-30 3t-28.5 7t-25 12.5t-21.5 18.5t-16 26.5t-10.5 36t-3 46.5t5 58.5l20 140q8 55 25 94t36.5 60t49 32.5t52.5 14.5t56 3q17 0 30 -0.5t29.5 -3t28.5 -7t25 -12t22 -18t16.5 -26t10.5 -35t3 -45.5t-4 -57l-20 -140q-8 -58 -26 -98.5t-37 -62 t-49 -33t-51.5 -13.5t-55.5 -2zM187 128q28 0 39 14t19 72l16 117q8 57 0.5 71t-34.5 14t-38 -14t-19 -71l-16 -117q-7 -60 -1.5 -73t34.5 -13zM266 599q-2 -3 -4 -3h-94q-2 0 0 3l72 120q3 3 4 3h112q4 0 1 -3z" />
<glyph horiz-adv-x="420" d="M168 -5q-18 0 -31.5 0.5t-30 3t-28.5 7t-25 12.5t-21.5 18.5t-16 26.5t-10.5 36t-3 46.5t5 58.5l20 140q8 55 25 94t36.5 60t49 32.5t52.5 14.5t56 3q17 0 30 -0.5t29.5 -3t28.5 -7t25 -12t22 -18t16.5 -26t10.5 -35t3 -45.5t-4 -57l-20 -140q-8 -58 -26 -98.5t-37 -62 t-49 -33t-51.5 -13.5t-55.5 -2zM187 128q28 0 39 14t19 72l16 117q8 57 0.5 71t-34.5 14t-38 -14t-19 -71l-16 -117q-7 -60 -1.5 -73t34.5 -13zM218 595h-94q0 2 1 2q-2 0 20.5 29t45 59t22.5 33q1 0 3 1.5t4 1.5h102q4 0 6 -3q0 -1 13.5 -30.5l27 -59t14.5 -30.5 q0 -2 -1 -3h-94q-2 0 -4 3l-22 49h-1q-35 -47 -37 -49q-3 -3 -6 -3z" />
<glyph horiz-adv-x="420" d="M187 128q28 0 39 14t19 72l16 117q8 57 0.5 71t-34.5 14t-38 -14t-19 -71l-16 -117q-7 -60 -1.5 -73t34.5 -13zM168 -5q-18 0 -31.5 0.5t-30 3t-28.5 7t-25 12.5t-21.5 18.5t-16 26.5t-10.5 36t-3 46.5t5 58.5l20 140q8 55 25 94t36.5 60t49 32.5t52.5 14.5t56 3 q17 0 30 -0.5t29.5 -3t28.5 -7t25 -12t22 -18t16.5 -26t10.5 -35t3 -45.5t-4 -57l-20 -140q-8 -58 -26 -98.5t-37 -62t-49 -33t-51.5 -13.5t-55.5 -2zM143 601q-2 0 -2 4l9 69q1 8 9 17q28 28 64 28q23 0 53 -15t46 -15q18 0 38.5 14t22.5 14t2 -5l-10 -68q-2 -13 -8 -18 q-35 -31 -65 -31q-23 0 -52 16.5t-44 16.5q-14 0 -28.5 -7t-23.5 -13.5t-11 -6.5z" />
<glyph horiz-adv-x="420" d="M168 -5q-18 0 -31.5 0.5t-30 3t-28.5 7t-25 12.5t-21.5 18.5t-16 26.5t-10.5 36t-3 46.5t5 58.5l20 140q8 55 25 94t36.5 60t49 32.5t52.5 14.5t56 3q17 0 30 -0.5t29.5 -3t28.5 -7t25 -12t22 -18t16.5 -26t10.5 -35t3 -45.5t-4 -57l-20 -140q-8 -58 -26 -98.5t-37 -62 t-49 -33t-51.5 -13.5t-55.5 -2zM187 128q28 0 39 14t19 72l16 117q8 57 0.5 71t-34.5 14t-38 -14t-19 -71l-16 -117q-7 -60 -1.5 -73t34.5 -13zM137 596q-1 0 -1 3l14 102q0 3 3 3h96q1 0 1 -3l-14 -102l-3 -3h-96zM276 596q-3 0 -3 3l14 102q0 3 5 3h93q1 0 1 -3l-14 -102 q0 -3 -3 -3h-93z" />
<glyph horiz-adv-x="431" d="M161 -4q-100 0 -131 49.5t-15 158.5l47 337q0 3 2 3h139q2 -1 2 -3l-46 -327q-8 -36 -4.5 -60t26.5 -24h26q21 0 30 19t16 65l46 327q0 3 3 3h138q2 -1 2 -3l-47 -337q-7 -51 -18.5 -85.5t-34 -64t-61 -44t-94.5 -14.5h-26zM248 600l-57 119q-1 3 1 3h113q1 0 3 -3 l38 -120q1 -3 0 -3h-94q-3 0 -4 4z" />
<glyph horiz-adv-x="431" d="M161 -4q-100 0 -131 49.5t-15 158.5l47 337q0 3 2 3h139q2 -1 2 -3l-46 -327q-8 -36 -4.5 -60t26.5 -24h26q21 0 30 19t16 65l46 327q0 3 3 3h138q2 -1 2 -3l-47 -337q-7 -51 -18.5 -85.5t-34 -64t-61 -44t-94.5 -14.5h-26zM272 599q-2 -3 -3 -3h-94q-3 0 -1 3l72 120 q3 3 4 3h112q4 0 1 -3z" />
<glyph horiz-adv-x="431" d="M161 -4q-100 0 -131 49.5t-15 158.5l47 337q0 3 2 3h139q2 -1 2 -3l-46 -327q-8 -36 -4.5 -60t26.5 -24h26q21 0 30 19t16 65l46 327q0 3 3 3h138q2 -1 2 -3l-47 -337q-7 -51 -18.5 -85.5t-34 -64t-61 -44t-94.5 -14.5h-26zM224 595h-94q0 2 1 2q-2 0 20.5 29t45 59 t22.5 33q1 0 3 1.5t4 1.5h102q4 0 6 -3q0 -1 13.5 -30.5l27 -59t14.5 -30.5q0 -2 -1 -3h-94q-2 0 -4 3l-22 49h-1q-35 -47 -37 -49q-3 -3 -6 -3z" />
<glyph horiz-adv-x="431" d="M161 -4q-100 0 -131 49.5t-15 158.5l47 337q0 3 2 3h139q2 -1 2 -3l-46 -327q-8 -36 -4.5 -60t26.5 -24h26q21 0 30 19t16 65l46 327q0 3 3 3h138q2 -1 2 -3l-47 -337q-7 -51 -18.5 -85.5t-34 -64t-61 -44t-94.5 -14.5h-26zM143 596q-2 0 -2 3l14 102q0 3 3 3h96 q1 0 1.5 -1t-0.5 -2l-14 -102l-2 -3h-96zM282 596q-4 0 -4 3l14 102q0 3 5 3h93q1 0 1.5 -1t-0.5 -2l-14 -102q0 -3 -2 -3h-93z" />
<glyph horiz-adv-x="419" d="M101 0q-3 0 -3 3l28 203q-91 333 -92 335q-1 3 2 3h144q4 0 4 -3l36 -178h5q82 176 83 178q2 3 3 3h142q5 0 3 -3l-187 -335l-28 -203q-1 -3 -3 -3h-137zM265 599q-3 -3 -4 -3h-94q-1 0 0 3l72 120q3 3 4 3h112q4 0 1 -3z" />
<glyph horiz-adv-x="419" d="M101 0q-3 0 -3 3l28 203q-91 333 -92 335q-1 3 2 3h144q4 0 4 -3l36 -178h5q82 176 83 178q2 3 3 3h142q5 0 3 -3l-187 -335l-28 -203q-1 -3 -3 -3h-137zM138 596l-1 3l14 102q0 3 2 3h96q2 0 2 -3l-14 -102l-3 -3h-96zM277 596q-4 0 -3 3l14 102q0 3 4 3h93q2 0 2 -3 l-14 -102q0 -3 -3 -3h-93z" />
<glyph horiz-adv-x="420" d="M-21 -32l-1 1q0 5 46 79q-32 49 -16 156l20 140q10 68 31.5 111.5t54.5 62.5t61.5 24.5t70.5 5.5q32 0 57 -4l19 31q2 3 6 3h111l-1 -3l-47 -81q31 -51 17 -150l-20 -140q-8 -58 -26 -98.5t-37 -62t-49 -33t-51.5 -13.5t-55.5 -2t-59 4q-4 -7 -8.5 -14t-6.5 -11l-2 -3 q-3 -3 -4 -3h-110zM187 128q28 0 38.5 14t19.5 72l17 117q8 57 0.5 71t-34.5 14t-38 -14t-19 -71l-17 -117q-7 -60 -1.5 -73t34.5 -13z" />
<glyph horiz-adv-x="403" d="M159 -4q-108 0 -174 33q-3 1 -1 5q54 108 54 114q0 3 4 3l7 -3q7 -2 19.5 -5t28 -6.5t37.5 -6t45 -2.5q46 0 49 25l3 21q5 30 -63 40q-81 11 -111.5 40t-20.5 103l9 65q17 128 194 128q104 0 160 -28q3 -2 3 -4t-24 -54.5t-26 -57.5q-1 -2 -3 -2l-7 2q-8 2 -20.5 4.5 t-27.5 4.5t-34.5 4t-36.5 2q-31 0 -34 -24l-3 -18q-2 -11 0 -16t15 -11t42 -10q83 -13 115.5 -45t22.5 -104l-9 -64q-6 -43 -27.5 -71t-55 -40.5t-63.5 -17t-67 -4.5zM296 711h97q3 0 1 -2l-100 -120q-4 -4 -7 -4h-87q-4 0 -7 3q3 0 -59 107q-8 14 -7 13q0 3 2 3h97 q2 0 3 -3l25 -47h1q34 45 36 47q3 3 5 3z" />
<glyph horiz-adv-x="378" d="M-19 0q-3 0 -3 3l17 119q0 5 5 10l205 274l1 9h-159q-2 0 -2 3l18 123q0 3 2 3h326q2 0 2 -3l-17 -118q-1 -9 -3 -11l-205 -274l-1 -9h166q1 0 1 -3l-17 -123q0 -3 -2 -3h-334zM282 711h97q3 0 1 -2l-100 -120q-4 -4 -7 -4h-87q-4 0 -7 3q3 0 -59 107q-8 14 -7 13 q0 3 2 3h97q2 0 3 -3l25 -47h1q34 45 36 47q3 3 5 3z" />
<glyph horiz-adv-x="608" d="M205 198h62l25 181h-16zM103 0h-144q-3 0 -1 3q2 4 146.5 270.5t145.5 267.5q0 3 4 3h361q4 0 4 -3l-17 -120q0 -4 -5 -4h-156l-11 -79h124q2 0 2 -3l-17 -120q0 -4 -2 -4h-124l-12 -84h156q3 0 3 -4l-17 -120q0 -3 -4 -3h-300l12 86h-110q-34 -80 -35 -83q-2 -3 -3 -3z " />
<glyph horiz-adv-x="598" d="M188 128q13 0 19 1.5t15 10t15 28.5t11 54l14 102q2 34 3.5 52.5t-6 27.5t-13 10.5t-17.5 1.5q-11 0 -17.5 -2t-15 -10t-14.5 -28t-11 -53l-14 -100q-9 -63 -1 -79t32 -16zM169 0q-16 0 -28 0.5t-28 3t-28 7t-25 12t-22.5 18.5t-17.5 27t-11.5 36.5t-3.5 48t5 60.5 l18 123q10 68 31.5 112t54 63.5t62 26t70.5 6.5q6 0 46 -9l1 9h318q3 0 3 -3l-17 -120q0 -4 -4 -4h-175l-11 -79h142q3 0 3 -3l-17 -120q0 -4 -4 -4h-142l-12 -84h175q3 0 3 -4l-17 -120q0 -3 -4 -3h-318l2 9q-4 -1 -13.5 -3.5t-18.5 -4t-17 -1.5z" />
<glyph horiz-adv-x="422" d="M150 134h38q27 0 39 15t20 74l14 100q2 32 3.5 49.5t-5.5 26t-13 10t-19 1.5h-38l-12 -80h41q2 0 2 -3l-15 -105l-2 -4h-41zM172 0h-184l31 218h-22q-2 2 -2 4l15 105l2 3h22l30 214h184q14 0 24 -0.5t24.5 -2t25 -4.5t23.5 -8.5t22 -13.5t18 -19t14.5 -26.5t9 -35 t3 -44.5t-4.5 -54l-17 -124q-8 -59 -26 -100.5t-37.5 -63t-50 -33t-51.5 -13.5t-53 -2z" />
<glyph horiz-adv-x="413" d="M162 224h48q4 0 12 2t20.5 12.5t15.5 28.5l4 26q7 46 -36 46h-47zM128 0h-138q-2 1 -2 3l76 538q0 3 2 3h138q2 0 2 -3l-11 -76h58q21 0 39.5 -2t44 -11.5t42 -25.5t26 -46.5t3.5 -72.5l-8 -54q-6 -42 -25.5 -73t-41 -46t-50 -24t-46.5 -11t-36 -2h-58l-13 -94 q0 -3 -2 -3z" />
<glyph horiz-adv-x="365" d="M-13 0l25 179q-27 -20 -29 -21q-1 -1 -1.5 -0.5t-0.5 3.5l17 117q0 4 3 6l29 20l33 238q0 2 3 2h138q3 0 3 -3l-21 -150q84 57 85 58q4 2 4 -2l-17 -118q0 -3 -5 -5l-85 -58l-19 -139h175q2 0 1 -4l-17 -120q0 -3 -2 -3h-319z" />
<glyph horiz-adv-x="438" d="M93 0h-144q-3 0 -1 3l226 538q2 3 4 3h157q4 0 4 -3l71 -538q2 -3 -3 -3h-144q-1 0 -3 3l-3 83h-133q-27 -81 -28 -83q-2 -3 -3 -3zM374 600h-223l-1 3l13 93l2 3h223q2 0 2 -3l-13 -93q0 -3 -3 -3zM170 198h74l-5 172h-15z" />
<glyph horiz-adv-x="438" d="M93 0h-144q-3 0 -1 3l226 538q2 3 4 3h157q4 0 4 -3l71 -538q2 -3 -3 -3h-144q-1 0 -3 3l-3 83h-133q-27 -81 -28 -83q-2 -3 -3 -3zM262 585q-101 0 -101 95q0 26 10 26h57q6 0 7 -5q4 -19 11.5 -24.5t26.5 -5.5q33 0 45 30q2 5 12 5h55q4 0 5.5 -1t0.5 -4 q-19 -116 -129 -116zM170 198h74l-5 172h-15z" />
<glyph horiz-adv-x="438" d="M311 -158q-73 0 -73 64q0 62 49 94h-24q-1 0 -3 3l-3 83h-133q-27 -81 -28 -83q-2 -3 -3 -3h-144q-3 0 -1 3l226 538q2 3 4 3h157q4 0 4 -3l71 -538q0 -3 -1 -3t-3 -2q-52 -28 -62 -42q-4 -7 -4 -13q0 -8 7 -8q11 0 18 7q4 2 6 -1l23 -64q2 -5 -1 -7q-3 -3 -13 -9 t-30 -12.5t-39 -6.5zM170 198h74l-5 172h-15z" />
<glyph horiz-adv-x="383" d="M179 -4q-23 0 -41.5 2t-39.5 7t-35 14.5t-28.5 25t-20 37.5t-9.5 52.5t4 70.5l20 141q9 64 31.5 107t56.5 63t66.5 27t75.5 7t75.5 -6t42 -10.5t11.5 -6.5t0 -5q-56 -112 -56 -113q0 -2 -4 -2l-5 1q-5 1 -13 2.5t-18.5 3.5t-24 3t-26.5 1q-12 0 -20.5 -2t-19 -10 t-18.5 -27t-12 -48l-16 -114q-8 -54 3 -68.5t40 -14.5q24 0 49 3t39 5l13 3q2 2 4 -1l23 -114q2 -3 -2 -5q-58 -29 -145 -29zM277 592q-3 -3 -4 -3h-94q-1 0 0 3l72 120q3 3 4 3h112q4 0 1 -3z" />
<glyph horiz-adv-x="383" d="M179 -4q-23 0 -41.5 2t-39.5 7t-35 14.5t-28.5 25t-20 37.5t-9.5 52.5t4 70.5l20 141q9 64 31.5 107t56.5 63t66.5 27t75.5 7t75.5 -6t42 -10.5t11.5 -6.5t0 -5q-56 -112 -56 -113q0 -2 -4 -2l-5 1q-5 1 -13 2.5t-18.5 3.5t-24 3t-26.5 1q-12 0 -20.5 -2t-19 -10 t-18.5 -27t-12 -48l-16 -114q-8 -54 3 -68.5t40 -14.5q24 0 49 3t39 5l13 3q2 2 4 -1l23 -114q2 -3 -2 -5q-58 -29 -145 -29zM230 589h-94q-1 2 0 2q-1 0 21 29t45 59t22 33q1 0 3.5 1.5t4.5 1.5h102q4 0 6 -3q0 -1 13.5 -30.5l27 -59t14.5 -30.5q0 -2 -1 -3h-94q-2 0 -4 3 l-23 49h-1q-34 -47 -36 -49q-3 -3 -6 -3z" />
<glyph horiz-adv-x="383" d="M179 -4q-23 0 -41.5 2t-39.5 7t-35 14.5t-28.5 25t-20 37.5t-9.5 52.5t4 70.5l20 141q9 64 31.5 107t56.5 63t66.5 27t75.5 7t75.5 -6t42 -10.5t11.5 -6.5t0 -5q-56 -112 -56 -113q0 -2 -4 -2l-5 1q-5 1 -13 2.5t-18.5 3.5t-24 3t-26.5 1q-12 0 -20.5 -2t-19 -10 t-18.5 -27t-12 -48l-16 -114q-8 -54 3 -68.5t40 -14.5q24 0 49 3t39 5l13 3q2 2 4 -1l23 -114q2 -3 -2 -5q-58 -29 -145 -29zM202 583q-1 0 -1 3l15 109q0 3 2 3h122q4 0 4 -3l-15 -109q0 -3 -6 -3h-121z" />
<glyph horiz-adv-x="383" d="M179 -4q-23 0 -41.5 2t-39.5 7t-35 14.5t-28.5 25t-20 37.5t-9.5 52.5t4 70.5l20 141q9 64 31.5 107t56.5 63t66.5 27t75.5 7t75.5 -6t42 -10.5t11.5 -6.5t0 -5q-56 -112 -56 -113q0 -2 -4 -2l-5 1q-5 1 -13 2.5t-18.5 3.5t-24 3t-26.5 1q-12 0 -20.5 -2t-19 -10 t-18.5 -27t-12 -48l-16 -114q-8 -54 3 -68.5t40 -14.5q24 0 49 3t39 5l13 3q2 2 4 -1l23 -114q2 -3 -2 -5q-58 -29 -145 -29zM317 711h97q3 0 2 -2l-101 -120q-2 -4 -6 -4h-87q-4 0 -7 3q3 0 -41 75l-25 45q-1 3 1 3h97q3 0 4 -3l24 -47h1q35 45 37 47q3 3 4 3z" />
<glyph horiz-adv-x="422" d="M150 134h37q25 0 37.5 15t20.5 73l14 101q8 58 0.5 72.5t-33.5 14.5h-37zM168 0h-180l76 544h180q14 0 23.5 -0.5t24.5 -1.5t25.5 -4.5t24 -8.5t22.5 -13t19 -19t15.5 -26.5t9.5 -35t3.5 -44.5t-4.5 -55l-17 -124q-8 -59 -26.5 -100.5t-39 -63t-51.5 -33t-52 -13.5 t-53 -2zM295 711h97q3 0 2 -2l-101 -120q-2 -4 -7 -4h-87q-2 0 -3.5 1t-2.5 1q2 0 -56 103q-12 19 -10 18q-1 3 1 3h97q3 0 4 -3l24 -47h1q35 45 37 47q3 3 4 3z" />
<glyph horiz-adv-x="422" d="M150 134h38q27 0 39 15t20 74l14 100q2 32 3.5 49.5t-5.5 26t-13 10t-19 1.5h-38l-12 -80h41q2 0 2 -3l-15 -105l-2 -4h-41zM172 0h-184l31 218h-22q-2 2 -2 4l15 105l2 3h22l30 214h184q14 0 24 -0.5t24.5 -2t25 -4.5t23.5 -8.5t22 -13.5t18 -19t14.5 -26.5t9 -35 t3 -44.5t-4.5 -54l-17 -124q-8 -59 -26 -100.5t-37.5 -63t-50 -33t-51.5 -13.5t-53 -2z" />
<glyph horiz-adv-x="369" d="M-12 0l76 544h319q2 0 2 -3l-17 -120q0 -4 -2 -4h-176l-12 -80h143q3 0 3 -3l-17 -119q0 -4 -3 -4h-143l-12 -84h176q1 0 1 -4l-17 -120q0 -3 -2 -3h-319zM344 600h-223q-1 2 -1 3l13 93l2 3h223q2 0 2 -3l-13 -93q0 -3 -3 -3z" />
<glyph horiz-adv-x="369" d="M-12 0l76 544h319q2 0 2 -3l-17 -120q0 -4 -2 -4h-176l-12 -80h143q3 0 3 -3l-17 -119q0 -4 -3 -4h-143l-12 -84h176q1 0 1 -4l-17 -120q0 -3 -2 -3h-319zM242 585q-100 0 -100 95q0 17 2 21.5t7 4.5h57q6 0 7 -5q4 -19 11.5 -24.5t26.5 -5.5q34 0 46 30q3 5 11 5h55 q4 0 5.5 -1t0.5 -4q-19 -116 -129 -116z" />
<glyph horiz-adv-x="369" d="M-12 0l76 544h319q2 0 2 -3l-17 -120q0 -4 -2 -4h-176l-12 -80h143q3 0 3 -3l-17 -119q0 -4 -3 -4h-143l-12 -84h176q1 0 1 -4l-17 -120q0 -3 -2 -3h-319zM185 583q-2 0 -2 3l16 109q0 3 2 3h122q4 0 4 -3l-16 -109q0 -3 -5 -3h-121z" />
<glyph horiz-adv-x="369" d="M-12 0l76 544h319q2 0 2 -3l-17 -120q0 -4 -2 -4h-176l-12 -80h143q3 0 3 -3l-17 -119q0 -4 -3 -4h-143l-12 -84h176q2 0 1 -4l-16 -117v-2l-1 -1q0 -3 -2 -3h-4q-20 -10 -31 -16.5t-21.5 -17t-10.5 -20.5q0 -8 6 -8q11 0 18 7q4 3 7 -1l23 -64q1 -4 -2 -7t-13 -9 t-30 -12.5t-39 -6.5q-33 0 -52.5 13t-19.5 51q0 58 44 91h-194z" />
<glyph horiz-adv-x="369" d="M-12 0l76 544h319q2 0 2 -3l-17 -120q0 -4 -2 -4h-176l-12 -80h143q3 0 3 -3l-17 -119q0 -4 -3 -4h-143l-12 -84h176q1 0 1 -4l-17 -120q0 -3 -2 -3h-319zM301 711h97q3 0 2 -2l-101 -120q-2 -4 -7 -4h-87q-5 0 -6 3q3 0 -41 75l-25 45q-1 3 1 3h97q3 0 4 -3l24 -47h1 q35 45 37 47q3 3 4 3z" />
<glyph horiz-adv-x="422" d="M183 -4q-17 0 -30 1t-30.5 3t-29.5 7t-27 12.5t-24 18.5t-19 26.5t-12.5 35.5t-4.5 46t4 58l20 142q8 55 27.5 95t42 60.5t54.5 32t53.5 13.5t51.5 2q42 0 80.5 -6.5t54.5 -11.5t18 -7t0 -5l-50 -109q-1 -2 -4 -2h-4q-3 1 -9.5 2t-15 2t-19.5 2l-22 2t-24 1.5t-25 0.5 q-13 0 -21 -2t-18 -10t-17 -26.5t-11 -47.5l-16 -118q-8 -54 4 -69.5t42 -15.5l59 6l9 63h-49q-1 1 -1 4l16 113q0 3 2 3h166l-41 -292q-119 -30 -180 -30zM235 589h-94q0 2 1 2q-2 0 20.5 29t45 59t22.5 33q1 0 3 1.5t4 1.5h102q4 0 6 -3q0 -1 13.5 -30.5l27 -59 t14.5 -30.5q0 -2 -1 -3h-94q-3 0 -4 3l-22 49h-1q-35 -47 -37 -49q-3 -3 -6 -3z" />
<glyph horiz-adv-x="422" d="M183 -4q-17 0 -30 1t-30.5 3t-29.5 7t-27 12.5t-24 18.5t-19 26.5t-12.5 35.5t-4.5 46t4 58l20 142q8 55 27.5 95t42 60.5t54.5 32t53.5 13.5t51.5 2q42 0 80.5 -6.5t54.5 -11.5t18 -7t0 -5l-50 -109q-1 -2 -4 -2h-4q-3 1 -9.5 2t-15 2t-19.5 2l-22 2t-24 1.5t-25 0.5 q-13 0 -21 -2t-18 -10t-17 -26.5t-11 -47.5l-16 -118q-8 -54 4 -69.5t42 -15.5l59 6l9 63h-49q-1 1 -1 4l16 113q0 3 2 3h166l-41 -292q-119 -30 -180 -30zM263 585q-101 0 -101 95q0 26 10 26h57q6 0 7 -5q4 -19 11.5 -24.5t26.5 -5.5q33 0 45 30q3 5 12 5h55q4 0 5.5 -1 t0.5 -4q-19 -116 -129 -116z" />
<glyph horiz-adv-x="422" d="M183 -4q-17 0 -30 1t-30.5 3t-29.5 7t-27 12.5t-24 18.5t-19 26.5t-12.5 35.5t-4.5 46t4 58l20 142q8 55 27.5 95t42 60.5t54.5 32t53.5 13.5t51.5 2q42 0 80.5 -6.5t54.5 -11.5t18 -7t0 -5l-50 -109q-1 -2 -4 -2h-4q-3 1 -9.5 2t-15 2t-19.5 2l-22 2t-24 1.5t-25 0.5 q-13 0 -21 -2t-18 -10t-17 -26.5t-11 -47.5l-16 -118q-8 -54 4 -69.5t42 -15.5l59 6l9 63h-49q-1 1 -1 4l16 113q0 3 2 3h166l-41 -292q-119 -30 -180 -30zM193 583q-1 0 -1 3l15 109q0 3 3 3h122q3 0 3 -3l-15 -109q0 -3 -6 -3h-121z" />
<glyph horiz-adv-x="440" d="M-10 0q-2 0 -2 3l76 538q0 3 2 3h139q2 0 2 -3l-29 -205h98l29 205l2 3h139q2 0 2 -3l-76 -538l-2 -3h-139q-2 0 -2 3l29 206h-98l-29 -206q0 -3 -2 -3h-139zM227 589h-94q-1 2 0 2q-2 0 20.5 29t45 59t22.5 33q1 0 3 1.5t4 1.5h102q4 0 6 -3q0 -1 13.5 -30.5l27 -59 t14.5 -30.5q3 -3 0 -3h-94q-3 0 -5 3l-22 49h-1q-35 -47 -37 -49q-3 -3 -5 -3z" />
<glyph horiz-adv-x="200" d="M-10 0q-2 0 -2 3l76 538q0 3 2 3h139q2 0 2 -3l-76 -538l-2 -3h-139zM31 594q-2 0 -2 4l10 69q1 9 8 17q28 28 64 28q23 0 53 -15t46 -15q18 0 38.5 14t22.5 14t2 -5l-9 -68q-2 -12 -9 -18q-35 -31 -64 -31q-23 0 -52.5 16.5t-44.5 16.5q-14 0 -28.5 -6.5t-23.5 -13.5 t-11 -7z" />
<glyph horiz-adv-x="200" d="M-10 0q-2 0 -2 3l76 538q0 3 2 3h139q2 0 2 -3l-76 -538l-2 -3h-139zM255 600h-223q-2 2 -2 3l14 93l2 3h223q1 0 1.5 -1t-0.5 -2l-13 -93q0 -3 -2 -3z" />
<glyph horiz-adv-x="200" d="M-10 0q-1 0 -1.5 1t0.5 2l75 538l2 3h139q2 0 2 -3l-75 -534q0 -1 0.5 -1t0.5 -1l-4 -5h-3q-20 -10 -31 -16.5t-21.5 -17t-10.5 -20.5q0 -8 6 -8q11 0 18 7q4 3 7 -1l23 -64q1 -4 -2 -7t-13 -9t-30 -12.5t-39 -6.5q-33 0 -52.5 13t-19.5 51q0 58 44 91h-15z" />
<glyph horiz-adv-x="200" d="M-10 0q-2 0 -2 3l76 538q0 3 2 3h139q2 0 2 -3l-76 -538l-2 -3h-139zM80 583q-2 0 -2 3l15 109l1 1q1 2 2 2h122q3 0 3 -3l-15 -109q0 -3 -5 -3h-121z" />
<glyph horiz-adv-x="364" d="M100 -8q-77 0 -125 24q-2 1 0 5l50 113q2 4 4 2l4 -1q4 -1 11 -2t16.5 -2.5t24 -2.5t29.5 -1q57 0 64 56l51 358q0 3 3 3h138q2 0 2 -3l-52 -371q-7 -48 -24.5 -82.5t-37.5 -52.5t-50.5 -28.5t-53 -12.5t-54.5 -2zM271 589h-94q0 2 1 2q-2 0 20.5 29t45 59t22.5 33 q1 0 3 1.5t4 1.5h102q4 0 6 -3q0 -1 13.5 -30.5l27 -59t14.5 -30.5q0 -2 -1 -3h-94q-3 0 -4 3l-22 49h-1q-35 -47 -37 -49q-3 -3 -6 -3z" />
<glyph horiz-adv-x="360" d="M-12 0l76 541l2 3h139q2 0 2 -3l-58 -414h176q1 0 1 -4l-17 -120q0 -3 -2 -3h-319zM234 592q-2 -3 -3 -3h-94q-3 0 -1 3l72 120q3 3 4 3h112q4 0 1 -3z" />
<glyph horiz-adv-x="457" d="M-14 0q-2 1 -2 3l76 538q0 3 3 3h148q3 0 4 -2l74 -287h6l40 286q0 3 3 3h135q2 0 2 -3l-76 -538q0 -3 -3 -3h-150q-4 0 -5 3l-71 285h-8l-40 -285q0 -3 -2 -3h-134zM284 592q-2 -3 -3 -3h-94q-3 0 -1 3l72 120q3 3 4 3h112q4 0 1 -3z" />
<glyph horiz-adv-x="457" d="M-14 0q-2 1 -2 3l76 538q0 3 3 3h148q3 0 4 -2l74 -287h6l40 286q0 3 3 3h135q2 0 2 -3l-76 -538q0 -3 -3 -3h-150q-4 0 -5 3l-71 285h-8l-40 -285q0 -3 -2 -3h-134zM324 711h97q3 0 2 -2l-101 -120q-2 -4 -7 -4h-87q-4 0 -7 3q3 0 -59 107q-8 14 -7 13q0 3 2 3h97 q2 0 3 -3l25 -47h1q34 45 36 47q3 3 5 3z" />
<glyph horiz-adv-x="420" d="M187 128q28 0 39 14t19 72l16 117q8 57 0.5 71t-34.5 14t-38 -14t-19 -71l-16 -117q-7 -60 -1.5 -73t34.5 -13zM168 -5q-18 0 -31.5 0.5t-30 3t-28.5 7t-25 12.5t-21.5 18.5t-16 26.5t-10.5 36t-3 46.5t5 58.5l20 140q8 55 25 94t36.5 60t49 32.5t52.5 14.5t56 3 q17 0 30 -0.5t29.5 -3t28.5 -7t25 -12t22 -18t16.5 -26t10.5 -35t3 -45.5t-4 -57l-20 -140q-8 -58 -26 -98.5t-37 -62t-49 -33t-51.5 -13.5t-55.5 -2zM366 600h-223q-1 2 -1 3l13 93l2 3h223q1 0 1 -3l-13 -93q0 -3 -2 -3z" />
<glyph horiz-adv-x="420" d="M187 128q28 0 39 14t19 72l16 117q8 57 0.5 71t-34.5 14t-38 -14t-19 -71l-16 -117q-7 -60 -1.5 -73t34.5 -13zM168 -5q-18 0 -31.5 0.5t-30 3t-28.5 7t-25 12.5t-21.5 18.5t-16 26.5t-10.5 36t-3 46.5t5 58.5l20 140q8 55 25 94t36.5 60t49 32.5t52.5 14.5t56 3 q17 0 30 -0.5t29.5 -3t28.5 -7t25 -12t22 -18t16.5 -26t10.5 -35t3 -45.5t-4 -57l-20 -140q-8 -58 -26 -98.5t-37 -62t-49 -33t-51.5 -13.5t-55.5 -2zM253 585q-101 0 -101 95q0 26 10 26h57q6 0 7 -5q4 -19 11.5 -24.5t26.5 -5.5q33 0 45 30q3 5 12 5h55q4 0 5.5 -1t0.5 -4 q-19 -116 -129 -116z" />
<glyph horiz-adv-x="420" d="M168 -5q-18 0 -31.5 0.5t-30 3t-28.5 7t-25 12.5t-21.5 18.5t-16 26.5t-10.5 36t-3 46.5t5 58.5l20 140q8 55 25 94t36.5 60t49 32.5t52.5 14.5t56 3q17 0 30 -0.5t29.5 -3t28.5 -7t25 -12t22 -18t16.5 -26t10.5 -35t3 -45.5t-4 -57l-20 -140q-8 -58 -26 -98.5t-37 -62 t-49 -33t-51.5 -13.5t-55.5 -2zM187 128q28 0 39 14t19 72l16 117q8 57 0.5 71t-34.5 14t-38 -14t-19 -71l-16 -117q-7 -60 -1.5 -73t34.5 -13zM358 591q-2 -3 -4 -3h-94q-1 0 -1 3q1 1 36.5 60t36.5 60q3 3 4 3h112q4 0 1 -3q-1 -1 -45 -59t-46 -61zM222 591q-2 -3 -4 -3 h-94q-2 0 0 3l72 120q0 3 4 3h112q2 0 1 -3q0 -1 -45 -59.5t-46 -60.5z" />
<glyph horiz-adv-x="421" d="M128 0h-138q-2 0 -2 3l76 541h200q20 0 38.5 -2.5t43 -13t41.5 -27.5t26.5 -50t3.5 -77l-5 -39q-13 -102 -80 -139l43 -193q1 -3 -3 -3h-151q-3 0 -4 3l-27 165h-37l-23 -165q0 -3 -2 -3zM265 592q-1 -3 -3 -3h-94q-2 0 -1 3l72 120q3 3 4 3h112q4 0 1 -3zM171 295h49 q5 0 14 3t20.5 14t14.5 29l4 28q4 27 -10 37.5t-28 10.5h-47z" />
<glyph horiz-adv-x="421" d="M171 295h49q5 0 14 3t20.5 14t14.5 29l4 28q4 27 -10 37.5t-28 10.5h-47zM128 0h-138q-2 0 -2 3l76 541h200q20 0 38.5 -2.5t43 -13t41.5 -27.5t26.5 -50t3.5 -77l-5 -39q-13 -102 -80 -139l43 -193q1 -3 -3 -3h-151q-3 0 -4 3l-27 165h-37l-23 -165q0 -3 -2 -3zM291 711 h97q3 0 2 -2l-101 -120q-2 -4 -7 -4h-87q-2 0 -4 1t-3 1q3 0 -59 108q-8 14 -7 13q0 3 2 3h97q1 0 3 -3l25 -47h1q34 45 36 47q3 3 5 3z" />
<glyph horiz-adv-x="403" d="M159 -4q-108 0 -174 33q-3 1 -1 5q54 108 54 114q0 3 4 3l7 -3q7 -2 19.5 -5t28 -6.5t37.5 -6t45 -2.5q46 0 49 25l3 21q5 30 -63 40q-81 11 -111.5 40t-20.5 103l9 65q17 128 194 128q104 0 160 -28q3 -2 3 -4t-24 -54.5t-26 -57.5q-1 -2 -3 -2l-7 2q-8 2 -20.5 4.5 t-27.5 4.5t-34.5 4t-36.5 2q-31 0 -34 -24l-3 -18q-2 -11 0 -16t15 -11t42 -10q83 -13 115.5 -45t22.5 -104l-9 -64q-6 -43 -27.5 -71t-55 -40.5t-63.5 -17t-67 -4.5zM271 592q-1 -3 -3 -3h-94q-2 0 -1 3l72 120q3 3 4 3h112q4 0 1 -3z" />
<glyph horiz-adv-x="403" d="M159 -4q-108 0 -174 33q-3 1 -1 5q54 108 54 114q0 3 4 3l7 -3q7 -2 19.5 -5t28 -6.5t37.5 -6t45 -2.5q46 0 49 25l3 21q5 30 -63 40q-81 11 -111.5 40t-20.5 103l9 65q17 128 194 128q104 0 160 -28q3 -2 3 -4t-24 -54.5t-26 -57.5q-1 -2 -3 -2l-7 2q-8 2 -20.5 4.5 t-27.5 4.5t-34.5 4t-36.5 2q-31 0 -34 -24l-3 -18q-2 -11 0 -16t15 -11t42 -10q83 -13 115.5 -45t22.5 -104l-9 -64q-6 -43 -27.5 -71t-55 -40.5t-63.5 -17t-67 -4.5zM209 589h-94q-1 2 0 2q-2 0 20.5 29t45 59t22.5 33q1 0 3 1.5t4 1.5h102q4 0 6 -3q0 -1 13.5 -30.5 l27 -59t14.5 -30.5q3 -3 0 -3h-94q-3 0 -5 3l-22 49h-1q-35 -47 -37 -49q-3 -3 -5 -3z" />
<glyph horiz-adv-x="385" d="M83 0q-2 1 -2 3l58 411h-113q-2 1 -2 3l18 124l2 3h368q2 0 2 -3l-18 -124q0 -3 -2 -3h-112l-58 -411q0 -3 -3 -3h-138zM287 711h97q3 0 1 -2l-100 -120q-4 -4 -7 -4h-87q-4 0 -7 3q3 0 -59 107q-8 14 -7 13q-2 3 2 3h97q1 0 3 -3l25 -47h1q34 45 36 47q3 3 5 3z" />
<glyph horiz-adv-x="431" d="M161 -4q-100 0 -131 49.5t-15 158.5l47 337q0 3 2 3h139q2 -1 2 -3l-46 -327q-8 -36 -4.5 -60t26.5 -24h26q21 0 30 19t16 65l46 327q0 3 3 3h138q2 -1 2 -3l-47 -337q-7 -51 -18.5 -85.5t-34 -64t-61 -44t-94.5 -14.5h-26zM148 594q-2 0 -2 4l10 69q1 9 8 17 q28 28 64 28q22 0 52 -15t47 -15q18 0 38.5 14t22.5 14t2 -5l-10 -68q-2 -13 -8 -18q-35 -31 -64 -31q-23 0 -52.5 16.5t-44.5 16.5q-14 0 -28.5 -6.5t-23.5 -13.5t-11 -7z" />
<glyph horiz-adv-x="431" d="M161 -4q-100 0 -131 49.5t-15 158.5l47 337q0 3 2 3h139q2 -1 2 -3l-46 -327q-8 -36 -4.5 -60t26.5 -24h26q21 0 30 19t16 65l46 327q0 3 3 3h138q2 -1 2 -3l-47 -337q-7 -51 -18.5 -85.5t-34 -64t-61 -44t-94.5 -14.5h-26zM372 600h-223l-1 3l13 93l2 3h223q2 0 2 -3 l-13 -93q0 -3 -3 -3z" />
<glyph horiz-adv-x="431" d="M161 -4q-100 0 -131 49.5t-15 158.5l47 337q0 3 2 3h139q2 -1 2 -3l-46 -327q-8 -36 -4.5 -60t26.5 -24h26q21 0 30 19t16 65l46 327q0 3 3 3h138q2 -1 2 -3l-47 -337q-7 -51 -18.5 -85.5t-34 -64t-61 -44t-94.5 -14.5h-26zM260 585q-101 0 -101 95q0 26 10 26h57 q6 0 7 -5q4 -19 11.5 -24.5t26.5 -5.5q33 0 45 30q2 5 12 5h55q4 0 5.5 -1t0.5 -4q-19 -116 -129 -116z" />
<glyph horiz-adv-x="431" d="M161 -4q-100 0 -131 49.5t-15 158.5l47 337q0 3 2 3h139q2 -1 2 -3l-46 -327q-8 -36 -4.5 -60t26.5 -24h26q21 0 30 19t16 65l46 327q0 3 3 3h138q2 -1 2 -3l-47 -337q-7 -51 -18.5 -85.5t-34 -64t-61 -44t-94.5 -14.5h-26zM256 570q-17 0 -29 2.5t-24 10.5t-16.5 25 t-0.5 43l3 20q7 47 32 63t63 16q16 0 27 -2t23 -9.5t16.5 -24.5t0.5 -43l-3 -20q-5 -35 -21 -54t-31.5 -23t-39.5 -4zM264 625q14 0 21.5 6t10.5 26l1 8q4 31 -21 31q-31 0 -35 -31l-1 -8q-3 -20 3.5 -26t20.5 -6z" />
<glyph horiz-adv-x="431" d="M161 -4q-100 0 -131 49.5t-15 158.5l47 337q0 3 2 3h139q2 -1 2 -3l-46 -327q-8 -36 -4.5 -60t26.5 -24h26q21 0 30 19t16 65l46 327q0 3 3 3h138q2 -1 2 -3l-47 -337q-7 -51 -18.5 -85.5t-34 -64t-61 -44t-94.5 -14.5h-26zM367 591q-1 -3 -3 -3h-94q-2 0 -2 3 q1 1 36.5 60t36.5 60q3 3 4 3h112q4 0 1 -3q-1 -1 -45 -59t-46 -61zM231 591q-1 -3 -3 -3h-94q-2 0 -1 3l72 120q0 3 4 3h112q3 0 1 -3q0 -1 -45 -59.5t-46 -60.5z" />
<glyph horiz-adv-x="431" d="M142 -159q-72 0 -72 64q0 59 47 94q-73 9 -94.5 58.5t-8.5 146.5l48 337q0 3 2 3h139q2 -1 2 -3l-46 -327q-8 -36 -4.5 -60t26.5 -24h26q21 0 30 19t16 65l46 327q0 3 3 3h138q2 -1 2 -3l-48 -337q-13 -95 -45.5 -145.5t-106.5 -50.5l-1 -2l-2 -6t-2 -3q-53 -28 -62 -43 q-3 -6 -3 -12q0 -8 6 -8q11 0 18 7q4 3 7 -1l23 -64q1 -4 -2 -7t-13 -9t-30 -12.5t-39 -6.5z" />
<glyph horiz-adv-x="630" d="M67 0q-4 0 -4 4l-25 537q-2 3 1 3h144q1 0 3 -3l3 -312h13q76 212 77 214q1 3 3 3h112q3 0 4 -4l17 -213h14q89 310 90 312q1 3 3 3h145q3 0 2 -3q0 -1 -18.5 -56t-44.5 -133.5l-52 -157t-44 -134.5l-19 -56q-1 -4 -6 -4h-167q-4 0 -5 4l-2 210h-9q-59 -204 -61 -209 q-3 -5 -7 -5h-167zM322 589h-94q0 2 1 2q-2 0 20.5 29t45 59t22.5 33q1 0 3 1.5t4 1.5h102q4 0 6 -3q0 -1 13.5 -30.5l27 -59t14.5 -30.5q0 -2 -1 -3h-94q-2 0 -4 3l-22 49h-1q-35 -47 -37 -49q-3 -3 -6 -3z" />
<glyph horiz-adv-x="419" d="M101 0q-3 0 -3 3l28 203q-91 333 -92 335q-1 3 2 3h144q4 0 4 -3l36 -178h5q82 176 83 178q2 3 3 3h142q5 0 3 -3l-187 -335l-28 -203q-1 -3 -3 -3h-137zM216 589h-94q0 2 1 2q-2 0 20.5 29t45 59t22.5 33q1 0 3 1.5t4 1.5h102q4 0 6 -3q0 -1 13.5 -30.5l27 -59 t14.5 -30.5q0 -2 -1 -3h-94q-2 0 -4 3l-22 49h-1q-35 -47 -37 -49q-3 -3 -6 -3z" />
<glyph horiz-adv-x="378" d="M-19 0q-3 0 -3 3l17 119q0 5 5 10l205 274l1 9h-159q-2 0 -2 3l18 123q0 3 2 3h326q2 0 2 -3l-17 -118q-1 -9 -3 -11l-205 -274l-1 -9h166q1 0 1 -3l-17 -123q0 -3 -2 -3h-334zM265 592q-1 -3 -4 -3h-94q-1 0 0 3l72 120q3 3 4 3h112q4 0 1 -3z" />
<glyph horiz-adv-x="378" d="M-19 0q-3 0 -3 3l17 119q0 5 5 10l205 274l1 9h-159q-2 0 -2 3l18 123q0 3 2 3h326q2 0 2 -3l-17 -118q-1 -9 -3 -11l-205 -274l-1 -9h166q1 0 1 -3l-17 -123q0 -3 -2 -3h-334zM176 583q-2 0 -2 3l15 109l1 1q1 2 2 2h122q3 0 3 -3l-15 -109q0 -3 -5 -3h-121z" />
<glyph horiz-adv-x="630" d="M67 0q-4 0 -4 4l-25 537q-2 3 1 3h144q1 0 3 -3l3 -312h13q76 212 77 214q1 3 3 3h112q3 0 4 -4l17 -213h14q89 310 90 312q1 3 3 3h145q3 0 2 -3q0 -1 -18.5 -56t-44.5 -133.5l-52 -157t-44 -134.5l-19 -56q-1 -4 -6 -4h-167q-4 0 -5 4l-2 210h-9q-59 -204 -61 -209 q-3 -5 -7 -5h-167zM339 593l-57 119q-2 3 1 3h113q2 0 3 -3l38 -120q1 -3 -1 -3h-94q-2 0 -3 4z" />
<glyph horiz-adv-x="630" d="M67 0q-4 0 -4 4l-25 537q-2 3 1 3h144q1 0 3 -3l3 -312h13q76 212 77 214q1 3 3 3h112q3 0 4 -4l17 -213h14q89 310 90 312q1 3 3 3h145q3 0 2 -3q0 -1 -18.5 -56t-44.5 -133.5l-52 -157t-44 -134.5l-19 -56q-1 -4 -6 -4h-167q-4 0 -5 4l-2 210h-9q-59 -204 -61 -209 q-3 -5 -7 -5h-167zM385 592q-1 -3 -4 -3h-94q-1 0 0 3l72 120q3 3 4 3h112q4 0 1 -3z" />
<glyph horiz-adv-x="630" d="M67 0q-4 0 -4 4l-25 537q-2 3 1 3h144q1 0 3 -3l3 -312h13q76 212 77 214q1 3 3 3h112q3 0 4 -4l17 -213h14q89 310 90 312q1 3 3 3h145q3 0 2 -3q0 -1 -18.5 -56t-44.5 -133.5l-52 -157t-44 -134.5l-19 -56q-1 -4 -6 -4h-167q-4 0 -5 4l-2 210h-9q-59 -204 -61 -209 q-3 -5 -7 -5h-167zM242 589q-1 0 -1 3l14 102q0 3 3 3h96q1 0 1 -3l-14 -102l-3 -3h-96zM381 589q-3 0 -3 3l14 102q0 3 5 3h93q1 0 1 -3l-14 -102q0 -3 -3 -3h-93z" />
<glyph horiz-adv-x="360" d="M-12 0l76 541l2 3h139q2 0 2 -3l-58 -414h176q1 0 1 -4l-17 -120q0 -3 -2 -3h-319zM228 408q-2 -1 -3.5 0t-0.5 4l30 214q0 4 4 4h119q3 0 3 -4l-19 -132q0 -4 -5 -7q-3 -1 -64 -39t-64 -40z" />
<glyph horiz-adv-x="455" d="M-10 0q-2 1 -2 3l76 538l2 3h139q2 0 2 -3l-29 -207h30q111 204 112 207t5 3h146q3 0 1 -3l-158 -266q89 -270 91 -272q3 -3 -1 -3h-148q-1 0 -4 3l-53 205h-39l-29 -205q0 -3 -2 -3h-139zM103 -226q-2 -1 -3.5 0t-0.5 4l30 214q0 4 3 4h119q4 0 4 -4l-19 -132 q0 -4 -5 -7q-3 -1 -64 -39t-64 -40z" />
<glyph horiz-adv-x="360" d="M-12 0l76 541l2 3h139q2 0 2 -3l-58 -414h176q1 0 1 -4l-17 -120q0 -3 -2 -3h-319zM73 -226q-2 -1 -3.5 0t-0.5 4l30 214q0 4 3 4h119q4 0 4 -4l-19 -132q0 -4 -5 -7q-3 -1 -64 -39t-64 -40z" />
<glyph horiz-adv-x="457" d="M-14 0q-2 1 -2 3l76 538q0 3 3 3h148q3 0 4 -2l74 -287h6l40 286q0 3 3 3h135q2 0 2 -3l-76 -538q0 -3 -3 -3h-150q-4 0 -5 3l-71 285h-8l-40 -285q0 -3 -2 -3h-134zM114 -226q-2 -1 -3.5 0t-0.5 4l30 214q0 4 3 4h119q4 0 4 -4l-19 -132q0 -4 -5 -7q-3 -1 -64 -39 t-64 -40z" />
<glyph horiz-adv-x="421" d="M128 0h-138q-2 0 -2 3l76 541h200q20 0 38.5 -2.5t43 -13t41.5 -27.5t26.5 -50t3.5 -77l-5 -39q-13 -102 -80 -139l43 -193q1 -3 -3 -3h-151q-3 0 -4 3l-27 165h-37l-23 -165q0 -3 -2 -3zM91 -226q-2 -1 -3.5 0t-0.5 4l30 214q0 4 3 4h119q4 0 4 -4l-19 -132q0 -4 -5 -7 q-3 -1 -64 -39t-64 -40zM171 295h49q5 0 14 3t20.5 14t14.5 29l4 28q4 27 -10 37.5t-28 10.5h-47z" />
<glyph horiz-adv-x="422" d="M97 -226q-2 -1 -3.5 0t-0.5 4l30 214q0 4 4 4h42q-21 0 -37 2.5t-36 7.5t-33.5 14.5t-27.5 25t-19.5 37t-9.5 52t4 69.5l20 142q8 55 27.5 95t41.5 60.5t54 32t53.5 13.5t51.5 2q42 0 80.5 -6.5t55 -11.5t18.5 -7q1 -1 -1 -5l-49 -109q-1 -2 -4 -2h-4q-3 1 -9.5 2t-15 2 t-19.5 2l-22 2t-24 1.5t-25 0.5q-13 0 -21 -2t-18 -10t-17 -26.5t-11 -47.5l-17 -118q-8 -54 4 -69.5t42 -15.5l60 6l9 63h-49l-1 4l15 113q1 3 3 3h166l-41 -292q-108 -27 -171 -30h54q3 0 3 -4l-18 -132q-1 -4 -6 -7q-3 -1 -64 -39t-64 -40z" />
<glyph horiz-adv-x="403" d="M87 -226q-2 -1 -3.5 0t-0.5 4l30 214q0 4 3 4h25q-95 3 -156 33q-3 1 -1 5q54 108 54 114q0 3 4 3l7 -3q7 -2 19.5 -5t28 -6.5t37.5 -6t45 -2.5q46 0 49 25l3 21q5 30 -63 40q-81 11 -111.5 40t-20.5 103l9 65q17 128 194 128q104 0 160 -28q3 -2 3 -4t-24 -54.5 t-26 -57.5q-1 -2 -3 -2l-7 2q-8 2 -20.5 4.5t-27.5 4.5t-34.5 4t-36.5 2q-31 0 -34 -24l-3 -18q-2 -11 0 -16t15 -11t42 -10q83 -13 115.5 -45t22.5 -104l-9 -64q-18 -129 -201 -133h64q4 0 4 -4l-19 -132q0 -4 -5 -7q-3 -1 -64 -39t-64 -40z" />
<glyph horiz-adv-x="385" d="M83 0q-2 1 -2 3l58 411h-113q-2 1 -2 3l18 124l2 3h368q2 0 2 -3l-18 -124q0 -3 -2 -3h-112l-58 -411q0 -3 -3 -3h-138zM72 -226q-2 -1 -3.5 0t-0.5 4l30 214q0 4 3 4h119q4 0 4 -4l-19 -132q0 -4 -5 -7q-3 -1 -64 -39t-64 -40z" />
<glyph horiz-adv-x="403" d="M170 -134h-113q-1 1 0 3q18 35 72 128q-87 3 -144 32q-3 1 -1 5q54 108 54 114q0 3 4 3l7 -3q7 -2 19.5 -5t28 -6.5t37.5 -6t45 -2.5q46 0 49 25l3 21q5 30 -63 40q-81 11 -111.5 40t-20.5 103l9 65q17 128 194 128q104 0 160 -28q3 -2 3 -4t-24 -54.5t-26 -57.5 q-1 -2 -3 -2l-7 2q-8 2 -20.5 4.5t-27.5 4.5t-34.5 4t-36.5 2q-31 0 -34 -24l-3 -18q-2 -11 0 -16t15 -11t42 -10q83 -13 115.5 -45t22.5 -104l-9 -64q-15 -108 -140 -128l-59 -132q-1 -3 -3 -3z" />
<glyph horiz-adv-x="366" d="M47 136q-3 2 0 5l81 73q2 2 3 0q1 -1 66 -89.5t65 -89.5q1 -2 0 -4q-1 -1 -20.5 -19.5t-39.5 -36.5l-19 -18q0 -1 -2 -1t-3 1z" />
<glyph horiz-adv-x="318" d="M5 -37q-3 0 -2 3q46 93 48 95q0 3 4 3h78q3 0 2 -3l-48 -95q-2 -3 -5 -3h-77zM162 329q-4 0 -2 4l45 91q1 3 4 3h80l2 -3l-46 -91q-2 -4 -5 -4h-78z" />
<glyph horiz-adv-x="449" d="M264 454q-4 0 -2 3l72 118q2 3 6 3h111l-1 -3q-1 -2 -35 -59.5t-35 -58.5q-3 -3 -5 -3h-111zM-9 -32q-1 0 -1 3l68 114q4 3 7 3h109q3 0 0 -3q-1 -1 -34.5 -57t-34.5 -57q-3 -3 -4 -3h-110z" />
<glyph horiz-adv-x="418" d="M185 127q26 0 34.5 15.5t16.5 72.5l16 118q8 56 3.5 71t-29.5 15q-23 0 -31.5 -15t-16.5 -71l-16 -118q-9 -55 -6 -71.5t29 -16.5zM167 -4q-20 0 -35 1t-32.5 4t-29.5 9.5t-24 16.5t-19 26t-12 37t-4.5 50t5.5 65l20 142q9 67 29.5 110t52 62t59 25t68.5 6q17 0 30 -0.5 t29 -3t27.5 -6.5t23.5 -11.5t20 -18t15 -26t10 -35t2.5 -45.5t-4.5 -57l-20 -142q-8 -58 -24.5 -98.5t-35 -62t-47 -32.5t-50 -13.5t-54.5 -2.5z" />
<glyph horiz-adv-x="366" d="M249 0h-133q-1 1 -1 3l54 388q-87 -59 -89 -60q-1 0 -1 1q0 2 -7 60.5t-8 59.5l2 5q1 1 60.5 42.5t61.5 42.5q2 2 5 2h133q1 0 1 -3l-76 -539q0 -2 -2 -2z" />
<glyph horiz-adv-x="378" d="M303 0h-302q-2 0 -2 3l16 111q0 6 4 10q10 10 30.5 31.5t30.5 32t27.5 29t27 29.5t22.5 26.5t20.5 25.5t15 22t11.5 22t5 18l4 27q2 13 -5 21t-13.5 10t-10.5 2q-15 0 -32 -2t-31.5 -5t-27 -6.5t-19.5 -5.5l-8 -2q-4 0 -4 2t-4 55t-4 56q0 2 1 4q3 3 17.5 9.5t52 15 t80.5 8.5q29 0 54 -4.5t53.5 -17t42.5 -42t7 -73.5l-10 -66q-6 -43 -35.5 -88t-91.5 -120l-1 -9h97q2 0 2 -3l-17 -123q0 -3 -3 -3z" />
<glyph horiz-adv-x="380" d="M-4 21q-2 2 -2 3q0 2 18 56t19 56t4 2l8 -2q8 -1 20.5 -3.5t27 -4.5t32 -3.5t32.5 -1.5q14 0 26.5 8t13.5 23l2 19q5 44 -29 44h-65q-2 0 -2 4l16 115q0 3 4 3h66q11 0 19.5 9.5t10.5 24.5l3 18q2 12 -5.5 20t-14 10t-10.5 2q-24 0 -53 -4t-46 -8t-19 -5q-5 -2 -5 2 q0 3 -2 55t-2 56t1 4q5 2 20 7.5t51.5 12.5t72.5 7q38 0 64 -4.5t51 -17t35.5 -40t4.5 -69.5l-7 -50q-3 -20 -15.5 -40.5t-23.5 -30.5l-11 -11l-1 -9q5 -3 11.5 -8.5t16 -28t5.5 -51.5l-9 -61q-6 -41 -23 -68.5t-44 -41t-56 -18.5t-68 -5q-42 0 -77.5 6t-50.5 12z" />
<glyph horiz-adv-x="380" d="M289 0h-122q-3 0 -3 3l10 69h-179q-3 0 -3 3l17 118q0 4 4 12l156 336q1 3 3 3h139q3 0 1 -3l-148 -332l-1 -8h29l11 76q0 4 3 4h122q3 0 3 -4l-11 -76h30q1 0 2 -1t0 -2l-17 -123q0 -3 -3 -3h-30l-10 -69q0 -3 -3 -3z" />
<glyph horiz-adv-x="379" d="M138 -5q-92 0 -142 25q-1 0 -1 5q0 1 18 55t19 56q2 3 4 2t20 -4.5t47.5 -7.5t51.5 -4q13 0 26 8t15 24l3 25q3 23 -9 32t-23 9h-130q-3 0 -3 3l45 314q0 7 8 7h286q2 0 2 -3l-16 -114q0 -4 -4 -4h-168l-11 -84h12q26 0 45.5 -2t43.5 -9.5t38.5 -21t22.5 -38.5t3 -59 l-11 -81q-6 -45 -25.5 -73.5t-50.5 -40.5t-56 -15.5t-60 -3.5z" />
<glyph horiz-adv-x="388" d="M169 113q32 0 40 56l3 19q7 45 -9 45q-12 0 -22.5 -2.5t-15.5 -5.5l-5 -3l-11 -83q-4 -26 20 -26zM163 -4q-25 0 -46 2.5t-43.5 11.5t-37.5 24t-22 41.5t-2 62.5l36 258q6 41 25.5 72t41.5 46t50 24t43.5 10.5t29.5 1.5q16 0 30.5 -1t26 -3t22 -4.5t19 -5t15 -5 t11.5 -5.5t8.5 -4.5t5.5 -3.5l2 -1q1 -1 1 -5q-1 -4 -21 -54.5t-20 -52.5t-3 -2l-7 2q-8 2 -19.5 4.5t-25.5 5.5t-30.5 5t-31.5 2q-2 0 -9 -2t-16.5 -10t-11.5 -20l-7 -51q52 11 72 11q16 0 28 -1.5t26.5 -7t23 -15.5t17 -27t8 -42t-3.5 -60l-5 -35q-8 -55 -26 -90 t-45 -50.5t-51 -20.5t-58 -5z" />
<glyph horiz-adv-x="364" d="M158 1h-140q-4 0 -2 3l185 407l2 8h-152q-2 2 -2 3l17 119l2 3h301q4 0 4 -3l-16 -112q0 -3 -4 -11l-191 -414q-2 -3 -4 -3z" />
<glyph horiz-adv-x="381" d="M165 113q30 0 37 44l3 18q3 19 -7 28t-19 9t-20 -9.5t-14 -27.5l-3 -18q-7 -44 23 -44zM197 341q10 0 20.5 9t13.5 27l3 17q7 40 -24 40q-12 0 -20 -8t-12 -32l-3 -17q-3 -18 4.5 -27t17.5 -9zM148 -4q-33 0 -57.5 5t-49.5 20t-35 47.5t-3 80.5l5 34q3 17 10 33t15.5 27 t16.5 19t14 12l5 3l1 3q-3 3 -8 9.5t-12 29t-4 47.5l4 33q5 41 18 70.5t28.5 45t39.5 23.5t43 10t48 2q36 0 59 -4.5t45.5 -18.5t30.5 -46t0 -82l-5 -34q-4 -24 -16 -45.5t-23 -31.5l-10 -9v-2q5 -3 12 -10t17.5 -31.5t6.5 -52.5l-5 -34q-7 -48 -25.5 -80.5t-46.5 -47 t-55 -20t-64 -5.5z" />
<glyph horiz-adv-x="380" d="M215 433q-34 0 -40 -56l-3 -26q-6 -45 9 -45q12 0 22.5 2.5t14.5 5.5l5 2l13 91q4 26 -21 26zM222 550q33 0 58.5 -5t51.5 -19t37 -44t5 -75l-36 -257q-6 -41 -26 -72t-42 -46t-50.5 -24t-44 -10.5t-28.5 -1.5q-85 0 -143 29q-1 0 -1 2q0 5 19.5 54.5t22.5 54.5q1 3 3 3 l8 -1q7 -2 19 -4.5t26 -5t30.5 -4t30.5 -1.5q3 0 10.5 2.5t17 10.5t11.5 21l5 42q-52 -11 -73 -11q-19 0 -32.5 2.5t-30 11.5t-24 25.5t-13 44.5t2.5 69l6 43q7 55 25.5 90t46 50.5t51.5 20.5t57 5z" />
<glyph horiz-adv-x="820" d="M167 -4q-108 0 -174 33q-3 1 -1 5q54 108 54 114q0 3 4 3l7 -3q7 -2 19.5 -5t28 -6.5t37.5 -6t45 -2.5q46 0 49 25l3 21q5 30 -63 40q-81 11 -111.5 40t-20.5 103l9 65q17 128 194 128q104 0 160 -28q3 -2 3 -4t-24 -54.5t-26 -57.5q-1 -2 -3 -2l-7 2q-8 2 -20.5 4.5 t-27.5 4.5t-34.5 4t-36.5 2q-31 0 -34 -24l-3 -18q-2 -11 0 -16t15 -11t42 -10q83 -13 115.5 -45t22.5 -104l-9 -64q-6 -43 -27.5 -71t-55 -40.5t-63.5 -17t-67 -4.5zM556 -4q-108 0 -174 33q-3 1 -1 5q54 108 54 114q0 3 4 3l7 -3q7 -2 19.5 -5t28 -6.5t37.5 -6t45 -2.5 q46 0 49 25l3 21q5 30 -63 40q-81 11 -111.5 40t-20.5 103l9 65q17 128 194 128q104 0 160 -28q3 -2 3 -4t-24 -54.5t-26 -57.5q-1 -2 -3 -2l-8 2q-7 2 -19.5 4.5t-27.5 4.5t-34.5 4t-36.5 2q-31 0 -34 -24l-3 -18q-2 -11 0 -16t15 -11t42 -10q83 -13 115.5 -45t22.5 -104 l-9 -64q-6 -43 -27.5 -71t-55 -40.5t-63.5 -17t-67 -4.5z" />
<glyph horiz-adv-x="380" d="M104 50q-3 0 -3 3l15 109h-104q-2 0 -2 3l16 110q0 4 2 4h105l15 108q0 3 4 3h105q2 0 2 -3l-15 -108h105q2 0 2 -4l-16 -110q0 -3 -2 -3h-106l-15 -109q0 -3 -3 -3h-105z" />
<glyph horiz-adv-x="179" d="M-47 -94q-4 0 -2 4q1 1 42 109.5t42 109.5q1 3 3 3h113q3 0 1 -3l-105 -219q-2 -4 -4 -4h-90z" />
<glyph horiz-adv-x="269" d="M7 162q-2 0 -2 3l16 110q0 4 2 4h220q2 0 2 -4l-16 -110q0 -3 -2 -3h-220z" />
<glyph horiz-adv-x="184" d="M-8 0q-2 0 -2 3l19 130q0 4 2 4h120q2 0 2 -4l-19 -130q0 -3 -2 -3h-120z" />
<glyph horiz-adv-x="304" d="M-16 -4q-4 0 -2 3q1 2 104.5 274.5t103.5 273.5q0 3 4 3h128q2 0 1 -3q-1 -1 -104 -274t-103 -274q-2 -3 -4 -3h-128z" />
<glyph horiz-adv-x="380" d="M24 251q-1 0 -1 3l15 112q2 3 3 3h321q2 0 1 -3l-15 -112q0 -3 -3 -3h-321zM-1 74q-1 0 -1 3l16 112q0 3 2 3h321q2 0 2 -3l-16 -112q0 -3 -3 -3h-321z" />
<glyph horiz-adv-x="222" d="M131 0h-120q-3 0 -3 3l16 113q0 3 4 3h120q2 0 2 -3l-16 -113q0 -3 -3 -3zM151 171h-112q-2 0 -2 3l52 367q0 3 2 3h112q3 0 3 -3l-52 -367q0 -3 -3 -3z" />
<glyph horiz-adv-x="329" d="M177 0h-119q-4 0 -4 3l16 113q0 3 5 3h119q3 0 3 -3l-16 -113q0 -3 -4 -3zM205 169h-125q-2 1 -2 3l2 16q5 42 29.5 79.5t48 65t25.5 45.5l2 16q1 11 -2.5 19t-7.5 10.5t-6 2.5q-13 0 -27.5 -2t-26.5 -5t-22.5 -6t-16.5 -5l-6 -2q-4 0 -4 2q0 1 -4.5 53t-4.5 53q0 4 2 5 l4 2q4 2 10.5 4.5t15.5 5.5t20 6.5t23.5 6t27.5 4t30 1.5q29 0 51.5 -5t45.5 -18t32.5 -42t3.5 -72l-5 -34q-4 -30 -53.5 -94t-53.5 -96l-2 -16q0 -3 -4 -3z" />
<glyph horiz-adv-x="195" d="M-57 -94q-4 0 -2 4q1 1 42 109.5t42 109.5q1 3 3 3h112q2 0 1 -3l-104 -219q-2 -4 -4 -4h-90zM35 254q-3 0 -3 3l18 130q1 3 4 3h119q2 0 2 -3l-18 -130q0 -3 -3 -3h-119z" />
<glyph horiz-adv-x="289" d="M153 544q3 0 3 -5l-25 -177q0 -3 -2 -3h-96q-3 0 -3 3l25 176q0 6 4 6h94zM301 544q4 0 4 -5l-25 -177q0 -3 -2 -3h-95q-4 0 -4 3l25 176q0 6 5 6h92z" />
<glyph horiz-adv-x="415" d="M172 243h55l14 67h-54zM109 0h-100q-3 0 -3 2l34 142h-42q-2 1 -2 3l13 93l3 3h54l15 67h-46q-2 0 -2 3l13 93l2 3h57q32 129 32 132l2 3h102q3 0 2 -3l-31 -132h55q31 130 31 132q0 3 3 3h102q1 0 2 -1t0 -2l-32 -132h41q2 0 2 -3l-13 -93q0 -3 -3 -3h-53l-13 -67h43 q2 0 2 -3l-13 -93q0 -3 -3 -3h-55q-34 -139 -34 -141q0 -3 -3 -3h-102q-1 1 -1 2l34 142h-56q-33 -139 -33 -141q0 -3 -4 -3z" />
<glyph horiz-adv-x="416" d="M109 -69q-2 0 -2 3l9 61q-75 4 -130 32q-3 2 -2 5q56 112 56 115t3 1q4 -2 17.5 -6.5t48 -10t71.5 -5.5q46 0 49 25l3 22q2 13 -10.5 23t-53.5 17q-83 12 -112.5 39t-18.5 104l9 64q16 110 147 126l9 64q0 3 3 3h82q4 0 4 -3l-9 -64q77 -5 119 -26v-1q0 -3 -23 -57 t-25 -58t-5 -2q-3 1 -18 5t-46 8.5t-60 4.5q-12 0 -19.5 -1.5t-10.5 -6.5t-3.5 -7t-1.5 -10l-3 -18q-3 -16 6.5 -23t51.5 -14q36 -6 58.5 -13.5t45.5 -23t31.5 -43.5t2.5 -69l-9 -64q-17 -119 -168 -132l-9 -61q0 -3 -5 -3h-82z" />
<glyph horiz-adv-x="566" d="M171 -5h-111q-4 0 0 2q-7 -3 18 41q16 27 214 342q104 166 96 167l6 3h111v-2q0 -2 -82 -139t-165 -274l-83 -137q-2 -3 -4 -3zM402 83q23 0 26 28l4 33q4 27 -16 27q-22 0 -26 -27l-5 -33q-4 -28 17 -28zM390 -5q-101 0 -87 101l9 64q13 99 118 99q99 0 85 -99l-9 -64 q-14 -101 -116 -101zM148 374q22 0 25 28l4 33q4 27 -17 27q-23 0 -27 -27l-4 -33q-2 -17 3 -22.5t16 -5.5zM135 286q-100 0 -86 101l9 64q13 99 118 99q98 0 84 -99l-9 -64q-14 -101 -116 -101z" />
<glyph horiz-adv-x="420" d="M159 -5q-23 0 -41.5 2t-43 10.5t-39.5 23t-23.5 42.5t-3.5 67l5 37q4 32 20 66t29 52l14 18q-2 4 -3.5 10.5t-4 29.5t2.5 46l4 24q7 43 24 70.5t42.5 38.5t45.5 14.5t48 3.5q21 0 37 -3t35.5 -13.5t30.5 -36.5t11 -65q0 -37 -5 -37h-87v22q0 47 -32 47q-43 0 -51 -45 l-2 -12q-4 -21 3.5 -42.5t24.5 -51.5t23 -43q9 -21 18 -45t13 -37l5 -14q3 9 4 14l10 71q0 4 2 4h85q4 0 4 -4l-14 -95q-2 -16 -11.5 -36t-18.5 -32l-8 -13q45 -78 46 -80q2 -3 -2 -3h-115q-1 0 -4 3l-5 12q-31 -20 -73 -20zM172 91q5 0 8 1t4 2l1 1l-55 124q2 -18 -11 -62 l-2 -6q-2 -35 11.5 -47.5t43.5 -12.5z" />
<glyph horiz-adv-x="161" d="M163 544q4 0 4 -5l-25 -177q0 -3 -3 -3h-95q-2 0 -2 3l25 176q0 6 3 6h93z" />
<glyph horiz-adv-x="166" d="M-14 -70q-5 -2 -5 2l25 177l3 3h100q1 0 1 -3l-15 -107q0 -3 -3 -6q-1 -1 -52.5 -33t-53.5 -33z" />
<glyph horiz-adv-x="311" d="M-14 -70q-5 -2 -5 2l25 177l3 3h100q1 0 1 -3l-15 -107q0 -3 -3 -6q-1 -1 -52.5 -33t-53.5 -33zM131 -70q-4 -2 -4 2l25 177q0 3 3 3h98q2 0 2 -3l-15 -107q0 -3 -4 -6q-1 -1 -52 -33t-53 -33z" />
<glyph horiz-adv-x="409" d="M214 -5q-25 0 -47 3t-50 14.5t-46 30.5t-27.5 56t-2.5 86h-32q-2 1 -2 4l10 66q0 3 2 3h32l4 30h-32q-1 1 -1 3l9 67q0 3 3 3h32q26 188 229 188q42 0 73.5 -6t41 -10.5t12.5 -7.5q2 -1 0 -4l-52 -111q-1 -3 -3 -2t-13.5 3t-34 4t-43.5 2q-22 0 -36.5 -11t-27.5 -45h85 q3 0 3 -3l-9 -67q0 -3 -5 -3h-86l-4 -30h86q4 0 4 -3l-10 -66q0 -4 -4 -4h-85q1 -32 12 -42t36 -10q23 0 48 2.5t37.5 5t14.5 3.5t3 -2l22 -114q1 -2 -2 -4q-2 -2 -16 -8t-50.5 -13.5t-77.5 -7.5z" />
<glyph horiz-adv-x="362" d="M112 -77q-3 0 -3 3l10 71q-10 1 -14 1.5t-14.5 2.5t-16 4.5t-15 7t-14.5 10.5t-12 14.5t-10 20t-6 25.5t-2.5 32.5t3.5 39.5l11 83q6 47 23.5 79.5t42.5 47.5t42 20t38 8l10 71q0 3 3 3h73q2 0 2 -3l-10 -70q14 -1 27 -3.5t22 -5.5t15 -5.5t10 -5.5l4 -2q2 -1 1 -4 l-44 -94q-1 -2 -3 -2h-3q-4 1 -10 2t-14 2t-19.5 1.5t-23.5 0.5q-41 0 -48 -51l-9 -63q-5 -32 3.5 -42t29.5 -10q13 0 25 1t20.5 2t15 2t10.5 2l4 1q2 0 2 -3q0 -2 9 -49t10 -48t0 -3t-2 -2l-4 -2q-4 -2 -11.5 -4.5t-17 -5t-24.5 -4.5t-31 -3l-10 -70q0 -3 -2 -3h-73z" />
<glyph horiz-adv-x="635" d="M294 134q19 0 23.5 6t7.5 31l15 104q1 7 -5 9t-19 2q-21 0 -27 -47l-8 -59q-6 -46 13 -46zM260 -130q-37 0 -67.5 4.5t-66 21t-59.5 44t-40.5 77.5t-16.5 118q0 77 13 139.5t33 104.5t50 73.5t59.5 49t65 28t63.5 13.5t58 3q55 0 96 -9t80 -33.5t59.5 -76t20.5 -127.5 q0 -68 -12 -117.5t-29 -76t-42.5 -42.5t-45.5 -20t-45 -4q-39 0 -70 20q-32 -20 -84 -20q-62 0 -91.5 26.5t-17.5 107.5l10 71q10 73 45 103.5t79 30.5q17 0 29 -3t16 -6l3 -3l1 6q0 2 3 2h104q2 0 2 -2l-27 -190q-7 -46 19 -46q14 0 23.5 8t18.5 45.5t9 105.5 q0 88 -38.5 121.5t-127.5 33.5q-110 0 -166.5 -66t-56.5 -230q0 -104 43 -141.5t115 -37.5q25 0 63.5 5.5t63.5 10.5t27 6q3 2 3 -2l9 -88q0 -4 -1 -5q-5 -3 -25.5 -9.5t-66 -15t-88.5 -8.5z" />
<glyph horiz-adv-x="230" d="M45 -75q-1 0 -5 3l-1 3q-1 3 -3 8.5t-4.5 14t-5 22.5t-4.5 31t-3 42t-1 53q0 107 12 197t27.5 141.5t34 90t28.5 51.5t14 15q4 3 5 3h104q3 0 1 -3q-7 -11 -13 -20t-26 -56.5t-33 -99t-25 -142t-12 -191.5q0 -52 3.5 -91.5t6.5 -53.5t4 -15q3 -3 0 -3h-104z" />
<glyph horiz-adv-x="230" d="M85 -75h-104q-3 0 0 3t12.5 19.5t27 59.5t32.5 97.5t26 143.5t11 188q0 131 -15 161q-1 3 2 3h103q2 0 5 -3t7 -14.5t9.5 -53.5t5.5 -102q0 -109 -12 -200t-26.5 -141.5t-35 -91t-28 -50t-14.5 -16.5q-3 -3 -6 -3z" />
<glyph horiz-adv-x="279" d="M106 280q-1 0 -1 4l9 63q-47 -31 -49 -32t-3 1l-24 61q-2 1 1 4l47 32l-38 31q-1 1 -1 4l42 60q1 2 4 2l39 -33l9 64q0 3 2 3h64q4 0 4 -3l-9 -64q46 32 48 33q3 2 3 -2q0 -1 11.5 -29.5t12.5 -30.5q2 -2 -2 -4l-46 -31q36 -31 37 -32q2 -1 -1 -4l-40 -61q-1 -2 -3 -1 l-38 32l-9 -63q0 -4 -4 -4h-65z" />
<glyph horiz-adv-x="215" d="M-25 -75l95 675h173q2 0 2 -3l-14 -102q0 -3 -3 -3h-60l-65 -459h60q3 0 3 -4l-15 -101q0 -3 -3 -3h-173z" />
<glyph horiz-adv-x="215" d="M137 -75h-172q-3 0 -3 3l15 101q0 4 3 4h59l65 459h-59q-3 0 -3 3l14 102q0 3 4 3h172z" />
<glyph horiz-adv-x="300" d="M10 162q-2 0 -2 3l16 110q0 4 2 4h246q2 0 2 -4l-16 -110q0 -3 -2 -3h-246z" />
<glyph horiz-adv-x="344" d="M-1 162q-3 0 -3 3l16 110q0 4 3 4h312q2 0 2 -4l-16 -110q0 -3 -2 -3h-312z" />
<glyph horiz-adv-x="304" d="M-16 -4q-4 0 -2 3q1 2 104.5 274.5t103.5 273.5q0 3 4 3h128q2 0 1 -3q-1 -1 -104 -274t-103 -274q-2 -3 -4 -3h-128z" />
<glyph horiz-adv-x="269" d="M7 162q-2 0 -2 3l16 110q0 4 2 4h220q2 0 2 -4l-16 -110q0 -3 -2 -3h-220z" />
<glyph horiz-adv-x="380" d="M12 164q-1 0 -1.5 1t0.5 2l15 107q0 3 2 3h321q2 0 2 -3l-15 -107l-1 -1q-1 -2 -2 -2h-321zM92 -7q-2 0 -1 4l16 118q1 4 3 4h113q1 0 1 -4l-16 -118q-2 -4 -3 -4h-113zM138 323q-1 0 -1 3l17 119q0 3 2 3h113q2 0 2 -3l-17 -119q0 -3 -3 -3h-113z" />
<glyph horiz-adv-x="380" d="M5 0q-2 2 -2 3l28 200h-20q-1 0 -1 3l12 89l3 3h20l16 114q19 137 189 137q75 0 133 -29q2 -1 2 -4q0 -1 -21 -56l-21 -55q0 -2 -3 -2q-1 0 -7.5 2t-17 4.5t-23 4.5t-28.5 4t-30 2q-28 0 -32 -33l-13 -89h98q2 0 2 -3l-12 -89q0 -3 -4 -3h-97l-10 -74h155q2 0 2.5 -1 t-0.5 -2l-17 -123q0 -3 -3 -3h-298z" />
<glyph horiz-adv-x="354" d="M-16 21q-1 0 -1 2t21 48l21 46q0 3 6 3q2 -1 18 -4.5t44.5 -7.5t53.5 -4q26 0 26 11l2 10q2 10 -6 13.5t-38 7.5q-19 2 -36.5 7t-37.5 15.5t-30 30t-6 45.5l7 48q2 14 7 25.5t10.5 19t5.5 8.5q-11 32 -8 51l6 48q13 105 160 105q87 0 133 -23q3 -1 2 -4l-19 -44 q-19 -43 -19 -45q0 -3 -6 -3q-1 0 -6.5 1t-15 3t-21.5 3.5t-28 2.5t-32 1q-20 0 -22 -9l-2 -9q-1 -4 3 -7.5t13.5 -5.5t18.5 -3.5t24 -3.5q50 -6 76.5 -27.5t19.5 -70.5l-7 -51q-3 -24 -21 -46q12 -18 6 -55l-7 -50q-5 -35 -22.5 -58.5t-44.5 -33.5t-49.5 -13t-51.5 -3 q-39 0 -76.5 7t-51.5 11.5t-19 7.5zM143 270q0 -2 1 -4t3.5 -3.5t5.5 -3t8 -3t9 -2.5t9.5 -2t9 -2t9.5 -2t8 -1q0 -1 1 -1q0 13 1 20l2 10q1 3 -3 5.5t-12 5t-14.5 4.5t-15.5 4t-11 3q-9 -6 -10 -19z" />
<glyph horiz-adv-x="412" d="M97 0q-3 0 -3 3l13 90h-73q-3 0 -3 3l10 72q0 3 4 3h73l4 27h-73q-3 0 -3 3l10 72q0 3 3 3h40q-67 263 -68 265q-1 3 2 3h144q1 0 3 -3l36 -177h5l84 177l3 3h142q4 0 2 -3l-145 -265h38q2 0 2 -3l-10 -72q0 -3 -2 -3h-70l-4 -27h70q1 0 1 -3l-10 -72q0 -3 -2 -3h-71 l-13 -90q0 -3 -2 -3h-137z" />
<glyph horiz-adv-x="254" d="M131 -73q-56 0 -75.5 27t-11.5 85l14 98q5 39 -4 56t-38 17q-3 0 -3 3l14 101q0 3 4 3q31 0 44 18.5t18 54.5l14 98q9 58 36 85t83 27h56q2 0 2 -3l-14 -99q0 -3 -3 -3h-19q-17 0 -23.5 -8.5t-9.5 -25.5l-13 -91q-7 -49 -21.5 -70.5t-44.5 -34.5l-1 -3q27 -13 35 -34 t2 -70l-12 -92q-6 -34 24 -34h18q2 0 2 -3l-14 -99q0 -3 -3 -3h-56z" />
<glyph horiz-adv-x="243" d="M19 -75q-3 0 -3 3l94 669q0 3 4 3h104q2 0 2 -3l-94 -669q0 -3 -3 -3h-104z" />
<glyph horiz-adv-x="254" d="M25 -73h-58q-2 0 -2 3l14 99l2 3h20q13 0 20 5.5t9 11.5t3 17l13 92q7 48 22.5 69.5t45.5 34.5v3q-26 13 -35.5 34.5t-2.5 70.5l13 91q1 9 1 16.5t-5 12.5t-17 5h-21q-2 0 -2 3l14 99q0 3 2 3h58q56 0 75.5 -27t11.5 -85l-14 -98q-5 -36 3.5 -54.5t39.5 -18.5q2 0 2 -3 l-14 -101q0 -3 -4 -3q-30 0 -44 -17t-19 -56l-14 -98q-8 -58 -35 -85t-82 -27z" />
<glyph horiz-adv-x="243" d="M18 -75q-3 0 -3 3l40 286q0 4 4 4h104q2 0 2 -4l-40 -286q0 -3 -3 -3h-104zM72 311q-3 0 -3 3l40 283q0 3 4 3h104q2 0 2 -3l-39 -283q-2 -3 -4 -3h-104z" />
</font>
</defs>
</svg>
