<?xml version="1.0" standalone="no"?>
<!DOCTYPE svg PUBLIC "-//W3C//DTD SVG 1.1//EN" "http://www.w3.org/Graphics/SVG/1.1/DTD/svg11.dtd" >
<svg xmlns="http://www.w3.org/2000/svg" xmlns:xlink="http://www.w3.org/1999/xlink" version="1.1">
<metadata></metadata>
<defs>
<font id="sport1condensed_light" horiz-adv-x="356" >
<font-face units-per-em="1000" ascent="750" descent="-250" />
<missing-glyph horiz-adv-x="201" />
<glyph unicode=" "  horiz-adv-x="201" />
<glyph unicode="&#x09;" horiz-adv-x="201" />
<glyph unicode="&#xa0;" horiz-adv-x="201" />
<glyph unicode="!" horiz-adv-x="227" d="M143 0h-59q-3 0 -3 4v74q0 4 3 4h59q3 0 3 -4v-74q0 -4 -3 -4zM136 182h-47q-3 0 -3 4v490q0 4 3 4h47q4 0 4 -4v-490q0 -4 -4 -4z" />
<glyph unicode="&#x22;" horiz-adv-x="270" d="M102 680q5 0 5 -4v-149q0 -4 -3 -4h-49q-3 0 -3 4v148q0 5 2 5h48zM215 680q4 0 4 -4v-149q0 -4 -3 -4h-48q-3 0 -3 4v148q0 5 3 5h47z" />
<glyph unicode="#" horiz-adv-x="438" d="M152 263h121l17 168h-121zM122 0h-38q-3 0 -3 4l21 213h-72q-3 0 -3 4v38q0 4 3 4h77l17 168h-77q-4 0 -4 4v38q0 4 4 4h83q20 197 20 199q0 4 4 4h38q3 0 3 -4l-20 -199h121q20 196 20 199q0 4 4 4h38q3 0 3 -4l-20 -199h70q3 0 3 -4v-38q0 -4 -3 -4h-76l-16 -168h76 q3 0 3 -4v-38q0 -4 -3 -4h-81q-21 -210 -21 -213q0 -4 -4 -4h-39q-2 0 -2 4l20 213h-120q-22 -210 -22 -213q0 -4 -4 -4z" />
<glyph unicode="$" horiz-adv-x="479" d="M227 -71q-4 0 -4 4v62q-44 0 -84.5 9t-58 16t-20.5 10q-2 2 -1 5l14 41q1 2 5 2l4 -2q5 -1 13.5 -4t19.5 -6t25.5 -6t29.5 -6t33.5 -4.5t36.5 -1.5q67 0 103.5 21t36.5 84v64q0 45 -30.5 68.5t-102.5 29.5q-99 6 -143 39.5t-44 119.5v65q0 140 163 145v62q0 4 4 4h35 q3 0 3 -4v-62q36 -1 69 -8t47 -12.5t16 -7.5q4 -1 2 -5l-15 -39q-2 -3 -4 -2q-3 1 -20 5.5t-52 10t-68 5.5q-57 0 -90 -18.5t-33 -74.5v-64q0 -50 30 -71.5t100 -29.5q106 -12 148 -44t42 -112v-66q0 -41 -12.5 -71t-29 -45t-43 -24.5t-44 -12t-43.5 -3.5v-62q0 -4 -3 -4 h-35z" />
<glyph unicode="%" horiz-adv-x="628" d="M176 -5h-44q-4 0 -1 4q48 115 157.5 342.5t156.5 339.5q1 4 5 4h43q5 0 2 -4q-1 -2 -157 -341t-157 -341q-2 -4 -5 -4zM458 36q27 0 42 12.5t15 49.5v97q0 36 -14 48t-41 12t-42.5 -12.5t-15.5 -47.5v-97q0 -37 15 -49.5t41 -12.5zM458 -5q-20 0 -34.5 3t-30 12.5 t-23.5 31t-8 53.5v105q0 57 27 76.5t72 19.5q19 0 33 -3t29.5 -11.5t23.5 -29t8 -52.5v-105q0 -33 -8 -54t-23.5 -30.5t-30 -12.5t-35.5 -3zM170 425q27 0 42 12.5t15 49.5v97q0 35 -14 47.5t-41 12.5t-42.5 -12.5t-15.5 -47.5v-97q0 -38 14.5 -50t41.5 -12zM170 384 q-28 0 -46.5 5t-34.5 28.5t-16 65.5v105q0 57 27.5 77t71.5 20q20 0 34 -3t29.5 -11.5t24 -29.5t8.5 -53v-105q0 -61 -27 -80t-71 -19z" />
<glyph unicode="&#x26;" horiz-adv-x="479" d="M248 -5q-40 0 -67 5.5t-55.5 22t-43 55t-14.5 97.5v31q0 43 14 86t28 64l14 22q-35 56 -35 145v28q0 71 41 102.5t96 31.5q31 0 51.5 -4t42 -17.5t32 -43.5t10.5 -77q0 -4 -4 -4h-39q-4 0 -4 4q0 57 -23 76.5t-63 19.5q-35 0 -60 -20.5t-25 -73.5v-24q0 -42 14.5 -80 t54.5 -105l138 -235q15 27 15 37v138q0 4 4 4h42q4 0 4 -4v-142q0 -14 -8 -33.5t-16 -32.5l-9 -12q33 -49 35 -52q2 -4 -1 -4h-55q-3 0 -6 4l-12 19q-34 -28 -96 -28zM248 45q19 0 35.5 5.5t23.5 10.5l7 5l-158 264q-36 -46 -36 -125v-27q0 -81 31 -107t97 -26z" />
<glyph unicode="'" horiz-adv-x="166" d="M105 680q5 0 5 -4v-149q0 -4 -3 -4h-49q-3 0 -3 4v148q0 5 3 5h47z" />
<glyph unicode="(" horiz-adv-x="235" d="M139 -94q-2 0 -6 4q-3 3 -8.5 11.5t-16.5 39.5t-19.5 73.5t-15.5 120.5t-7 173q0 96 7 174t15.5 120.5t19.5 73t16 39t8 11.5q4 4 6 4h42q3 0 0 -4q-3 -5 -7.5 -14t-16 -42.5t-19.5 -76.5t-15 -119t-7 -166q0 -91 6.5 -167t15.5 -119.5t19.5 -76t16 -43t7.5 -12.5 q4 -4 0 -4h-41z" />
<glyph unicode=")" horiz-adv-x="235" d="M95 -94h-41q-2 0 0 4q66 132 66 418q0 90 -7 166t-15.5 118.5t-20 77t-16 43t-7.5 13.5q-3 4 0 4h42q3 0 7 -4q3 -3 8.5 -11.5t16.5 -39t19.5 -73t15.5 -120.5t7 -174q0 -95 -7 -173t-16 -120.5t-20 -73.5t-16.5 -39.5t-8.5 -11.5q-4 -4 -7 -4z" />
<glyph unicode="*" horiz-adv-x="295" d="M132 402q-3 0 -3 4v100q-69 -49 -71 -50q-3 -1 -4 2l-15 27q-2 5 0 6l71 50q-69 48 -71 50t-1 6l16 28q2 2 4 1l71 -50v100q0 4 3 4h31q4 0 4 -4v-100q69 49 70 50t2.5 0.5t2.5 -1.5l15 -28q2 -4 -1 -6l-71 -50q70 -49 71 -50q2 -2 1 -6l-15 -27q-2 -4 -4 -2l-71 50v-100 q0 -4 -4 -4h-31z" />
<glyph unicode="+" horiz-adv-x="446" d="M201 79q-4 0 -4 4v168h-140q-3 0 -3 4v42q0 4 3 4h140v172q0 4 4 4h42q4 0 4 -4v-172h141q3 0 3 -4v-42q0 -4 -3 -4h-141v-168q0 -4 -4 -4h-42z" />
<glyph unicode="," horiz-adv-x="182" d="M42 -95q-2 0 -2 4q0 2 20 86.5t21 87.5q1 4 4 4h54q3 0 2 -4l-3 -11q-4 -10 -9 -25t-11 -33.5t-12.5 -36.5t-11.5 -33t-8 -25l-3 -10q-1 -4 -4 -4h-37z" />
<glyph unicode="-" horiz-adv-x="314" d="M45 250q-4 0 -4 4v42q0 4 4 4h225q4 0 4 -4v-42q0 -4 -4 -4h-225z" />
<glyph unicode="." horiz-adv-x="187" d="M64 0q-4 0 -4 4v74q0 4 4 4h59q3 0 3 -4v-74q0 -4 -3 -4h-59z" />
<glyph unicode="/" horiz-adv-x="342" d="M67 -4q-2 0 -2 4q0 1 81 339.5t82 341.5q1 4 4 4h45q3 0 2 -4q-1 -1 -81.5 -340t-80.5 -341q-1 -4 -4 -4h-46z" />
<glyph unicode="0" horiz-adv-x="481" d="M240 44q32 0 52.5 6t39.5 24.5t27.5 57.5t8.5 102v217q0 60 -9 98.5t-27.5 56.5t-39 24t-52.5 6t-52 -6t-38.5 -24t-27.5 -56.5t-9 -98.5v-217q0 -63 9.5 -103.5t29 -58t38.5 -23t50 -5.5zM240 -10q-27 0 -44.5 2t-41.5 8.5t-39.5 22.5t-30.5 41t-22 67t-7 97v230 q0 63 11 107.5t27 68.5t43 37t49 16t55 3t53.5 -2.5t48.5 -15t44 -35.5t28 -68.5t12 -110.5v-230q0 -56 -7 -97.5t-22 -67t-30.5 -41t-40 -22t-41.5 -8.5t-45 -2z" />
<glyph unicode="1" horiz-adv-x="429" d="M264 0h-48q-3 0 -3 4v607q-107 -99 -108 -100q-3 -3 -3 1q0 2 -6.5 23.5t-6.5 22.5q0 3 3 6l118 114q2 2 6 2h48q3 0 3 -4v-672q0 -4 -3 -4z" />
<glyph unicode="2" horiz-adv-x="438" d="M369 0h-309q-2 0 -2 2v57q0 3 1 4q17 23 55 74.5t54 74t45 63.5t42 63t29 50t22 47t6 34v74q0 31 -9 51t-26.5 28.5t-33.5 11t-40 2.5q-25 0 -56.5 -5t-49 -9.5t-19.5 -5.5q-4 -2 -4 2q0 2 -4.5 20.5t-4.5 19.5q0 4 1 5q4 3 17.5 8t48 12t72.5 7q33 0 58 -5t51 -19.5 t40.5 -45t14.5 -76.5v-75q0 -30 -14 -68t-51 -96.5t-64 -97.5t-88 -124q-3 -4 -5 -7t-5 -7t-5 -7v-8h233q3 0 3 -4v-46q0 -4 -3 -4z" />
<glyph unicode="3" horiz-adv-x="445" d="M70 16q-2 2 -1 5q8 24 8 41q0 2 5 2q2 -1 21 -5.5t52 -9.5t60 -5q24 0 39 2t34.5 10.5t29.5 28.5t10 52v74q0 35 -10.5 59t-28 33.5t-30.5 13t-27 3.5h-58q-4 0 -4 4v44q0 4 4 4h58q33 0 58.5 24.5t25.5 72.5v74q0 32 -9.5 52t-27.5 28t-32.5 10.5t-37.5 2.5 q-27 0 -58.5 -5t-48 -9.5t-19.5 -5.5q-5 -2 -5 2q0 2 -4.5 21t-4.5 20q0 4 2 5q52 26 137 26q23 0 40 -1.5t42 -10t41.5 -23t28.5 -43t12 -68.5v-74q0 -36 -11 -65t-21 -40l-11 -11v-6q2 -1 6 -4t13.5 -14t16.5 -25.5t13 -39.5t6 -55v-74q0 -39 -12 -68t-28.5 -43.5 t-42 -22.5t-44 -10t-42.5 -2q-38 0 -74.5 6.5t-53.5 13.5z" />
<glyph unicode="4" horiz-adv-x="446" d="M330 0h-46q-4 0 -4 4v132h-229q-2 0 -2 3v55q0 1 2 5l171 477q2 4 4 4h52q4 0 2 -4l-169 -478v-8h169v147q0 4 3 4h47q4 0 4 -4v-147h63q4 0 4 -4v-46q0 -4 -4 -4h-63v-132q0 -4 -4 -4z" />
<glyph unicode="5" horiz-adv-x="446" d="M219 -10q-38 0 -75 7t-51.5 11.5t-19.5 7.5q-2 1 -1 5q1 7 4 20t4 20q1 2 5 2l9 -2q9 -2 23 -4.5t30.5 -5.5t36 -5t35.5 -2q23 0 38.5 2.5t34.5 10.5t29 27.5t10 50.5v75q0 120 -94 120h-149q-3 0 -3 4v338q0 8 8 8h268q3 0 3 -4v-44q0 -4 -3 -4h-224v-246h100 q21 0 37.5 -2t39.5 -12t37.5 -27.5t25.5 -51t11 -79.5v-75q0 -49 -17.5 -81t-48 -44.5t-52.5 -16t-51 -3.5z" />
<glyph unicode="6" horiz-adv-x="439" d="M221 42q49 0 77 26.5t28 109.5v39q0 76 -27 104.5t-78 28.5q-12 0 -39 -6t-48 -12l-21 -7v-187q0 -50 31 -73t77 -23zM223 -10q-27 0 -51.5 5t-52.5 19t-45 44.5t-17 75.5v406q0 45 16 77t43 46.5t52 20.5t53 6q87 0 139 -26q2 -1 2 -5q-10 -30 -10 -40q0 -2 -4 -2 q-1 0 -8.5 2t-20.5 4.5t-28 5.5t-34 5t-35 2q-50 0 -79.5 -20.5t-29.5 -77.5v-161q78 25 115 25q23 0 39.5 -2t40 -11.5t37.5 -27.5t25 -53t11 -84v-50q0 -50 -11.5 -86.5t-27 -54.5t-39.5 -28.5t-40.5 -12.5t-39.5 -2z" />
<glyph unicode="7" horiz-adv-x="437" d="M169 0h-53q-3 0 -2 4l200 613v8h-246q-3 0 -3 4v46q0 5 3 5h306q3 0 3 -3v-53q0 -1 -1 -3t-1 -3t-100 -306.5t-101 -307.5q0 -4 -5 -4z" />
<glyph unicode="8" horiz-adv-x="445" d="M224 41q53 0 79 24t26 96v49q0 72 -26.5 96.5t-76.5 24.5t-79.5 -25.5t-29.5 -95.5v-49q0 -71 26.5 -95.5t80.5 -24.5zM224 383q99 0 99 101v49q0 105 -97 105q-43 0 -73.5 -24t-30.5 -81v-49q0 -101 102 -101zM223 -11q-36 0 -62 6t-50 22.5t-36.5 51t-12.5 87.5v58 q0 30 6.5 56t16 41t18.5 26t15 15l7 4v3q-6 4 -15.5 11.5t-25.5 38.5t-16 70v57q0 47 15 79.5t41 47.5t50.5 21t53.5 6q150 0 150 -154v-57q0 -38 -14 -68t-28 -41l-13 -10v-3q2 -1 6.5 -4t15 -14.5t18.5 -26.5t14.5 -41t6.5 -57v-58q0 -54 -12.5 -89.5t-38 -51.5t-50 -21 t-60.5 -5z" />
<glyph unicode="9" horiz-adv-x="446" d="M221 638q-23 0 -39.5 -4t-33 -17t-25 -42t-8.5 -73v-54q0 -76 27 -104.5t79 -28.5q12 0 39 6.5t48 12.5l21 7v201q0 50 -31 73t-77 23zM218 690q21 0 40.5 -2.5t43.5 -11.5t41.5 -24t29.5 -42t12 -63v-406q0 -46 -16 -77.5t-43 -46.5t-52.5 -21t-53.5 -6q-38 0 -73.5 6 t-48.5 10.5t-18 6.5q-3 2 -2 6q1 1 5.5 20t4.5 20q0 2 4 2q2 -1 20.5 -5t50 -8t57.5 -4q109 0 109 98v146q-78 -25 -115 -25q-23 0 -39.5 2t-40 11.5t-38 27.5t-25.5 53t-11 84v65q0 51 11.5 87t27 54.5t39.5 28.5t40.5 12t39.5 2z" />
<glyph unicode=":" horiz-adv-x="195" d="M68 0q-4 0 -4 4v74q0 4 4 4h59q3 0 3 -4v-74q0 -4 -3 -4h-59zM68 395q-4 0 -4 4v74q0 4 4 4h59q3 0 3 -4v-74q0 -4 -3 -4h-59z" />
<glyph unicode=";" horiz-adv-x="194" d="M30 -95q-3 0 -3 4l42 174q1 4 4 4h53q3 0 2 -4q-57 -171 -57 -174q-1 -4 -4 -4h-37zM67 395q-3 0 -3 4v74q0 4 3 4h59q3 0 3 -4v-74q0 -4 -3 -4h-59z" />
<glyph unicode="&#x3c;" horiz-adv-x="445" d="M388 93l-331 159q-3 2 -3 4v39q0 3 3 4q8 4 169 81.5t162 77.5q2 1 2.5 0.5t0.5 -3.5v-45q0 -3 -3 -6l-257 -126v-6q254 -123 257 -125q3 -1 3 -6v-45q0 -4 -3 -3z" />
<glyph unicode="=" horiz-adv-x="446" d="M57 348q-3 0 -3 4v42q0 4 3 4h331q3 0 3 -4v-42q0 -4 -3 -4h-331zM57 155q-3 0 -3 4v42q0 4 3 4h331q3 0 3 -4v-42q0 -4 -3 -4h-331z" />
<glyph unicode="&#x3e;" horiz-adv-x="445" d="M57 93q-3 -1 -3 3v45q0 5 3 6l258 125v6q-256 124 -258 126q-3 3 -3 6v45q0 3 0.5 3h2.5q1 0 162 -77.5t169 -81.5q3 -1 3 -4v-39q0 -2 -3 -4q-7 -4 -167 -81t-164 -78z" />
<glyph unicode="?" horiz-adv-x="375" d="M211 172h-48q-4 0 -4 4v62q0 34 18.5 71.5t41.5 64t41.5 56.5t18.5 50v59q0 32 -7.5 52t-22.5 28t-28 10.5t-34 2.5q-25 0 -53.5 -5.5t-43 -10t-17.5 -6.5q-3 -1 -4 2l-12 40q0 4 2 5q56 28 129 28q29 0 50 -4t45.5 -17t38 -44.5t13.5 -79.5v-60q0 -35 -30 -80t-60 -88.5 t-30 -74.5v-61q0 -4 -4 -4zM216 0h-58q-4 0 -4 4v75q0 4 4 4h58q3 0 3 -4v-75q0 -4 -3 -4z" />
<glyph unicode="@" horiz-adv-x="716" d="M353 116q38 0 62 16.5t24 65.5v142q0 24 -10 40.5t-26.5 23.5t-29.5 10t-26 3q-43 0 -63.5 -27t-20.5 -97v-47q0 -78 25 -104t65 -26zM350 -126q-45 0 -84.5 9t-82 35t-73 67.5t-50 113.5t-19.5 167q0 394 321 394q52 0 94 -8.5t84.5 -33t71.5 -65t47 -109.5t18 -162 q0 -116 -31.5 -164t-93.5 -48t-91 44q-36 -45 -110 -45q-60 0 -98 37t-38 137v54q0 80 29.5 123.5t87.5 43.5q40 0 67 -9t33 -18l7 -9v28q0 3 3 3h41q3 0 3 -3v-264q0 -76 67 -76q18 0 29.5 5t23.5 21t18 51.5t6 90.5q0 101 -21.5 170t-62 103t-84.5 47t-102 13 q-57 0 -101.5 -15.5t-84.5 -52.5t-61.5 -108.5t-21.5 -174.5q0 -82 16.5 -145t42 -100t61 -60t69 -31t70.5 -8q53 0 100.5 6.5t65 11.5t21.5 7t5 -2l11 -37q2 -3 -2 -5q-5 -2 -25 -8t-70.5 -13.5t-105.5 -7.5z" />
<glyph unicode="A" horiz-adv-x="500" d="M139 208h222l-102 374h-16zM77 0h-53q-3 0 -2 4t97.5 337.5t96.5 335.5q0 3 5 3h61q4 0 5 -3q0 -2 95.5 -336.5t96.5 -336.5q2 -4 -2 -4h-53q-3 0 -4 4l-41 149h-257q-40 -146 -41 -149q-1 -4 -4 -4z" />
<glyph unicode="B" horiz-adv-x="502" d="M132 54h138q25 0 43.5 3t37 13t28 31t9.5 54v61q0 103 -120 103h-136v-265zM132 373h135q37 0 59 -5q36 74 36 126q0 46 -8 74.5t-26 40t-33.5 14.5t-44.5 3h-118v-253zM269 0h-194v680h179q28 0 46 -2t43 -11.5t39.5 -28t25.5 -54t11 -85.5q0 -56 -40 -148 q66 -35 66 -134v-61q0 -43 -10.5 -73.5t-25.5 -46.5t-41 -24.5t-46.5 -10t-52.5 -1.5z" />
<glyph unicode="C" horiz-adv-x="464" d="M255 -10q-35 0 -59 3.5t-53.5 17t-47.5 38t-30.5 70t-12.5 109.5v230q0 62 12.5 106.5t30.5 68.5t47.5 37t53.5 16.5t59 3.5q46 0 83.5 -8t50 -14t15.5 -9t2 -5q0 -1 -4.5 -10.5t-8.5 -18.5l-4 -9q-2 -4 -4 -2q-66 22 -130 22q-31 0 -51.5 -5t-44.5 -21.5t-36.5 -56.5 t-12.5 -102v-218q0 -60 11 -99t32.5 -58t45 -25.5t56.5 -6.5q12 0 25.5 1.5t25 3.5t23 4.5t20.5 5.5t17.5 6t13.5 5t9 4l4 1q2 2 4 -2q17 -34 17 -37q1 -2 -2 -5t-17.5 -11t-54 -19t-85.5 -11z" />
<glyph unicode="D" horiz-adv-x="516" d="M132 54h128q35 0 58 6t44.5 24t31.5 56.5t10 98.5v207q0 61 -11.5 99.5t-34.5 55t-44 21.5t-54 5h-128v-573zM260 0h-185v680h185q34 0 54.5 -2t52 -14t49.5 -34.5t32 -67.5t14 -109v-220q0 -65 -13 -110.5t-30.5 -69t-48 -36t-53 -15t-57.5 -2.5z" />
<glyph unicode="E" horiz-adv-x="463" d="M75 0v680h341q4 0 4 -4v-46q0 -4 -4 -4h-284v-253h245q3 0 3 -4v-46q0 -4 -3 -4h-245v-265h284q4 0 4 -4v-46q0 -4 -4 -4h-341z" />
<glyph unicode="F" horiz-adv-x="459" d="M78 0q-3 0 -3 4v676h341q4 0 4 -4v-46q0 -4 -4 -4h-284v-286h245q3 0 3 -4v-46q0 -4 -3 -4h-245v-282q0 -4 -3 -4h-51z" />
<glyph unicode="G" horiz-adv-x="509" d="M247 -10q-33 0 -56.5 3.5t-51.5 17.5t-45 38.5t-29 70t-12 108.5v230q0 63 13 108t31.5 68.5t48.5 36.5t53 16t56 3q44 0 86.5 -7.5t62 -14t23.5 -9.5q3 -1 1 -5l-14 -38q-1 -3 -4 -2q-4 1 -26 6t-60.5 10.5t-67.5 5.5q-20 0 -33 -1.5t-32 -6.5t-31.5 -17.5t-24.5 -32 t-18 -52t-6 -75.5v-217q0 -62 11 -102t32.5 -57.5t42.5 -23.5t51 -6l140 12v236h-99q-3 0 -3 4v44q0 4 3 4h155v-333q-145 -22 -197 -22z" />
<glyph unicode="H" horiz-adv-x="541" d="M78 0q-3 0 -3 4v672q0 4 3 4h51q3 0 3 -4v-307h277v307q0 4 3 4h51q3 0 3 -4v-672q0 -4 -3 -4h-51q-3 0 -3 4v315h-277v-315q0 -4 -3 -4h-51z" />
<glyph unicode="I" horiz-adv-x="208" d="M78 0q-3 0 -3 4v672q0 4 3 4h51q3 0 3 -4v-672q0 -4 -3 -4h-51z" />
<glyph unicode="J" horiz-adv-x="392" d="M167 -10q-24 0 -55.5 4.5t-51 8.5t-21.5 5q-3 2 -2 5l12 40q1 3 4 2q2 -1 21 -3.5t46 -5t44 -2.5q25 0 39 2.5t30 11.5t23.5 30.5t7.5 56.5v531q0 4 3 4h51q3 0 3 -4v-531q0 -43 -10 -73t-24 -45.5t-37 -24.5t-40 -10.5t-43 -1.5z" />
<glyph unicode="K" horiz-adv-x="480" d="M78 0q-3 0 -3 4v672q0 4 3 4h51q3 0 3 -4v-304h28q203 301 205 304q3 4 5 4h65q3 0 1 -4l-227 -329q241 -341 242 -343q3 -4 -1 -4h-65q-3 0 -6 4l-218 315h-29v-315q0 -4 -3 -4h-51z" />
<glyph unicode="L" horiz-adv-x="442" d="M75 0v676q0 4 3 4h51q3 0 3 -4v-622h284q4 0 4 -4v-45q0 -5 -4 -5h-341z" />
<glyph unicode="M" horiz-adv-x="633" d="M78 0q-3 0 -3 4v674q0 2 2 2h71q3 0 4 -2l163 -454h9q157 451 158 453q2 3 5 3h68q2 0 2 -3v-673q0 -4 -3 -4h-50q-3 0 -3 4v542h-13q-140 -399 -141 -401q-1 -4 -5 -4h-51q-4 0 -5 4l-141 400h-13v-541q0 -4 -3 -4h-51z" />
<glyph unicode="N" horiz-adv-x="544" d="M78 0q-3 0 -3 4v672q0 4 3 4h70q4 0 5 -4l248 -566h11v566q0 4 4 4h50q3 0 3 -4v-672q0 -4 -3 -4h-69q-3 0 -5 4l-248 572h-13v-572q0 -4 -3 -4h-50z" />
<glyph unicode="O" horiz-adv-x="509" d="M254 44q33 0 55.5 6t44.5 24t33 58t11 101v218q0 60 -11 98.5t-33.5 56.5t-44.5 24t-55 6q-32 0 -54.5 -6t-44.5 -24t-33.5 -57t-11.5 -98v-218q0 -63 12 -103.5t35 -57.5t44.5 -22.5t52.5 -5.5zM254 -10q-33 0 -55.5 2.5t-53 15.5t-48.5 37t-31.5 70.5t-13.5 111.5v231 q0 62 12.5 107t31 68.5t48 37t53 16.5t57.5 3q27 0 45 -2t44.5 -8t44 -21.5t34.5 -40t25.5 -65.5t8.5 -95v-231q0 -48 -7 -85.5t-17.5 -62t-28 -42t-33 -26.5t-38.5 -14t-39 -6t-39 -1z" />
<glyph unicode="P" horiz-adv-x="489" d="M132 341h137q25 0 42.5 3.5t37 14t30 35.5t10.5 63v55q0 39 -9.5 63.5t-28.5 34.5t-36 13t-44 3h-139v-285zM129 0h-51q-3 0 -3 4v676h194q31 0 50 -1.5t46 -10.5t42.5 -26t27 -50t11.5 -80v-56q0 -46 -12.5 -79t-29.5 -50t-44 -26.5t-46 -11.5t-45 -2h-137v-283 q0 -4 -3 -4z" />
<glyph unicode="Q" horiz-adv-x="502" d="M254 -10q-33 0 -55.5 2.5t-53 15.5t-48.5 37t-31.5 70.5t-13.5 111.5v231q0 62 12.5 107t31 68.5t48 37t53 16.5t57.5 3q27 0 45 -2t44.5 -8t44 -21.5t34.5 -40t25.5 -65.5t8.5 -95v-231q0 -114 -39 -173l46 -53q3 -3 0 -6l-34 -34q-2 -4 -5 0l-46 54q-41 -25 -124 -25z M283 126q-2 4 0 6l33 35q2 2 4 0l55 -64q23 46 23 130v218q0 60 -11 98.5t-33.5 56.5t-44.5 24t-55 6q-32 0 -54.5 -6t-44.5 -24t-33.5 -57t-11.5 -98v-218q0 -63 12 -103.5t35 -57.5t44.5 -22.5t52.5 -5.5q55 0 84 18z" />
<glyph unicode="R" horiz-adv-x="513" d="M132 340h137q25 0 42.5 3.5t37 14t30 36t10.5 63.5v55q0 39 -9.5 63.5t-28.5 34.5t-36 13t-44 3h-139v-286zM129 0h-51q-3 0 -3 4v676h194q31 0 50.5 -1.5t46.5 -11t42 -26t26.5 -50t11.5 -80.5v-55q0 -134 -97 -162l117 -290q2 -4 -2 -4h-57q-4 0 -5 4l-110 282h-160 v-282q0 -4 -3 -4z" />
<glyph unicode="S" horiz-adv-x="497" d="M246 -10q-109 0 -179 35q-3 1 -1 5l14 42q2 3 4 2q5 -2 24 -8.5t60.5 -14.5t80.5 -8q31 0 51.5 3t42 13t32.5 32t11 57v69q0 49 -32 70.5t-99 27.5q-110 10 -149 46t-39 113v70q0 146 181 146q46 0 85 -7t54 -13t18 -9q4 -2 2 -5l-16 -39q-2 -3 -4 -2q-3 2 -19.5 6 t-51.5 9.5t-68 5.5q-58 0 -90.5 -19t-32.5 -74v-69q0 -49 30 -71.5t99 -29.5q108 -10 149.5 -43.5t41.5 -112.5v-71q0 -41 -12.5 -71t-31 -46t-47 -25.5t-52.5 -11.5t-56 -2z" />
<glyph unicode="T" horiz-adv-x="442" d="M195 0q-3 0 -3 4v622h-170q-3 0 -3 4v46q0 4 3 4h397q4 0 4 -4v-46q0 -4 -4 -4h-170v-622q0 -4 -3 -4h-51z" />
<glyph unicode="U" horiz-adv-x="530" d="M246 -10q-101 0 -139 61.5t-38 215.5v409q0 4 3 4h51q3 0 3 -4v-403q0 -130 22.5 -179.5t97.5 -49.5h41q76 0 97 48.5t21 180.5v403q0 4 3 4h50q4 0 4 -4v-409q0 -152 -35 -214.5t-141 -62.5h-40z" />
<glyph unicode="V" horiz-adv-x="489" d="M213 0q-3 0 -4 4l-191 672q-1 4 2 4h53q3 0 4 -4l160 -578h15q160 575 162 578q1 4 4 4h52q4 0 2 -4l-193 -672q-1 -4 -5 -4h-61z" />
<glyph unicode="W" horiz-adv-x="672" d="M142 0q-1 0 -3 4q0 2 -29.5 169.5t-59 334.5t-29.5 168q-1 4 2 4h53q3 0 4 -4l96 -578h15q117 434 118 436q1 3 4 3h46q3 0 4 -3l117 -436h16q95 575 96 578q1 4 5 4h52q3 0 2 -4l-117 -672q-1 -4 -3 -4h-73q-2 0 -3 3l-114 421h-9q-114 -417 -114 -420q-2 -4 -4 -4h-72z " />
<glyph unicode="X" horiz-adv-x="460" d="M26 0q-3 0 -2 4l174 352q-157 317 -158 320q-2 4 3 4h56q2 0 5 -4l124 -259h5q123 257 124 259q3 4 5 4h57q3 0 2 -4l-158 -320q174 -349 175 -352q1 -4 -3 -4h-57q-4 0 -5 4l-140 292h-6q-138 -290 -139 -292q-2 -4 -4 -4h-58z" />
<glyph unicode="Y" horiz-adv-x="436" d="M193 0q-3 0 -3 4v272q-173 397 -174 400q-2 4 2 4h57q1 0 4 -4l137 -327h5q135 324 137 327q3 4 4 4h56q3 0 2 -4l-173 -400v-272q0 -4 -3 -4h-51z" />
<glyph unicode="Z" horiz-adv-x="452" d="M46 0q-2 0 -2 2v56q0 3 1 4l296 555v8h-284q-3 0 -3 4v46q0 5 3 5h346q4 0 4 -5v-51q0 -7 -2 -10l-295 -552v-8h293q4 0 4 -4v-46q0 -4 -3 -4h-358z" />
<glyph unicode="[" horiz-adv-x="240" d="M80 -93v843h119q3 0 3 -4v-39q0 -4 -3 -4h-69v-749h69q3 0 3 -4v-39q0 -4 -3 -4h-119z" />
<glyph unicode="\" horiz-adv-x="342" d="M278 -4h-46q-4 0 -4 4q0 2 -80.5 341t-81.5 340q-1 4 2 4h45q3 0 4 -4q1 -3 82 -341.5t81 -339.5q0 -4 -2 -4z" />
<glyph unicode="]" horiz-adv-x="239" d="M158 -93h-118q-4 0 -4 4v39q0 4 4 4h70v749h-70q-4 0 -4 4v39q0 4 4 4h118v-843z" />
<glyph unicode="^" horiz-adv-x="445" d="M52 284l147 392q2 4 4 4h39q2 0 4 -4q0 -1 37.5 -99t74 -195t36.5 -98q0 -4 -2 -4h-46q-2 0 -5 4l-116 317h-5q-114 -314 -115 -317q-1 -4 -5 -4h-46q-3 0 -2 4z" />
<glyph unicode="_" horiz-adv-x="390" d="M4 -123q-3 0 -3 4v40q0 4 3 4h382q3 0 3 -4v-40q0 -4 -3 -4h-382z" />
<glyph unicode="`" d="M191 562l-74 134q-1 4 1 4h54q4 0 5 -4l60 -134q2 -4 -2 -4h-40q-4 0 -4 4z" />
<glyph unicode="a" horiz-adv-x="429" d="M185 -7q-65 0 -99 37t-34 90v50q0 53 35 84t84 31q21 0 55 -3.5t58 -7.5l23 -3v61q0 66 -24 85.5t-77 19.5q-28 0 -55.5 -4t-40 -7.5t-15.5 -4.5t-4 3l-11 36q-2 3 2 5q44 22 128 22q26 0 43.5 -2t39.5 -10.5t35.5 -24t22.5 -45t9 -71.5v-330q0 -4 -4 -4h-47q-3 0 -3 4 v26q-22 -37 -121 -37zM198 43q18 0 29.5 0.5t28.5 5t26.5 12.5t17 24t7.5 38v102q-81 14 -129 14q-35 0 -54 -20.5t-19 -50.5v-43q0 -34 20.5 -58t72.5 -24z" />
<glyph unicode="b" horiz-adv-x="444" d="M240 44q24 0 38 3.5t30.5 17.5t24.5 47.5t8 87.5v77q0 52 -9 85.5t-26.5 47t-32 17t-36.5 3.5q-12 0 -39.5 -6.5t-48.5 -13.5l-21 -6v-271q0 -48 34 -68.5t78 -20.5zM125 0h-48q-3 0 -3 4v672q0 4 3 4h48q3 0 3 -4v-219q77 25 115 25q25 0 41.5 -2t40 -12.5t37 -30.5 t24 -59.5t10.5 -95.5v-86q0 -47 -5.5 -82.5t-17 -57t-23.5 -35.5t-30 -20t-31 -7.5t-33 -1.5q-98 0 -128 43v-32q0 -3 -3 -3z" />
<glyph unicode="c" horiz-adv-x="393" d="M212 -8q-27 0 -45 2.5t-42 13t-38.5 30.5t-25 57.5t-10.5 90.5v109q0 51 10.5 88t25.5 56.5t39 30t42.5 13t44.5 2.5q73 0 124 -17q3 -1 1 -5l-11 -36q-1 -3 -4 -3q-2 1 -15 3t-40 4t-54 2q-24 0 -40 -4.5t-33.5 -17.5t-26.5 -43.5t-9 -77.5v-100q0 -48 9.5 -79.5t27 -45 t33.5 -17.5t39 -4q76 0 115 13q3 1 4 -2l11 -37q2 -3 -3 -5q-42 -21 -129 -21z" />
<glyph unicode="d" horiz-adv-x="444" d="M367 0h-48q-3 0 -3 3v32q-29 -43 -127 -43q-20 0 -33 1.5t-31.5 7.5t-30.5 20t-23.5 35.5t-17 57t-5.5 82.5v86q0 56 10.5 95.5t24 59.5t37.5 30.5t40 12.5t42 2q16 0 44.5 -6t49.5 -12l20 -7v219q0 4 3 4h48q3 0 3 -4v-672q0 -4 -3 -4zM204 44q44 0 78 20.5t34 68.5v271 q-80 26 -108 26q-23 0 -37.5 -3.5t-32 -17t-26.5 -47t-9 -85.5v-77q0 -54 8 -87.5t24.5 -47.5t30.5 -17.5t38 -3.5z" />
<glyph unicode="e" horiz-adv-x="421" d="M98 262h217q0 99 -25 134.5t-80 35.5q-28 0 -46 -5t-34.5 -21.5t-24 -52t-7.5 -91.5zM219 -8q-36 0 -62 6t-54.5 25.5t-44 63.5t-15.5 112v83q0 65 15.5 108t43 62t52.5 25.5t56 6.5q26 0 44 -2.5t42 -14.5t38.5 -33t25 -62.5t10.5 -99.5v-56h-272q0 -57 9.5 -93.5 t28.5 -52.5t37 -21t46 -5q18 0 37.5 1.5t34.5 4t26.5 4.5t18.5 3.5t8 1.5q5 0 5 -3q0 -1 4.5 -18.5t4.5 -18.5q0 -4 -2 -5q-44 -22 -137 -22z" />
<glyph unicode="f" horiz-adv-x="260" d="M91 0q-3 0 -3 4v425h-47q-4 0 -4 4v40q0 4 4 4h47v82q0 42 8.5 69.5t24.5 38.5t29 14.5t32 3.5q38 0 50 -6q3 -1 3 -5q0 -1 -1.5 -9t-3.5 -17.5t-2 -11.5q-2 -3 -4 -3q-1 0 -8.5 0.5t-18 1t-18.5 0.5q-37 0 -37 -75v-83h77q4 0 4 -4v-40q0 -4 -4 -4h-77v-425q0 -4 -4 -4 h-47z" />
<glyph unicode="g" horiz-adv-x="437" d="M200 45q13 0 40 5.5t48 11.5l21 6v276q0 37 -26 61.5t-86 24.5q-24 0 -38.5 -4t-31 -18t-24 -47.5t-7.5 -86.5v-76q0 -95 26.5 -124t77.5 -29zM204 -185q-91 0 -137 23q-4 2 -2 5q0 1 3 9.5t7 17.5t4 10q1 3 3 2q51 -17 119 -17q55 0 81.5 19.5t26.5 85.5v45 q-75 -22 -115 -22q-27 0 -44.5 2.5t-40 13.5t-36 31t-23 59t-9.5 94v85q0 67 11 110.5t33 62.5t43 25t53 6q100 0 128 -40v31q0 4 3 4h48q3 0 3 -4v-503q0 -43 -10.5 -73.5t-24.5 -46t-38.5 -24t-41.5 -10t-44 -1.5z" />
<glyph unicode="h" horiz-adv-x="453" d="M77 0q-3 0 -3 4v672q0 4 3 4h48q3 0 3 -4v-228q79 34 120 34q30 0 49.5 -4t41.5 -17.5t33.5 -46.5t11.5 -85v-325q0 -4 -3 -4h-47q-4 0 -4 4v323q0 66 -21 85.5t-66 19.5q-16 0 -44.5 -9t-49.5 -17l-21 -9v-393q0 -4 -3 -4h-48z" />
<glyph unicode="i" horiz-adv-x="202" d="M77 0q-3 0 -3 4v469q0 4 3 4h48q3 0 3 -4v-469q0 -4 -3 -4h-48zM74 606q-3 0 -3 4v66q0 4 3 4h54q3 0 3 -4v-66q0 -4 -3 -4h-54z" />
<glyph unicode="j" horiz-adv-x="204" d="M36 -185q-9 0 -21 1.5l-20 2.5l-8 1q-3 2 -2 5q1 1 4.5 19.5t3.5 19.5q1 3 3 3l8 -1q7 0 17.5 -0.5t18.5 -0.5q36 0 36 75v533q0 4 3 4h48q3 0 3 -4v-533q0 -35 -7 -60t-15.5 -37.5t-23.5 -19t-24 -7.5t-24 -1zM76 606q-3 0 -3 4v66q0 4 3 4h54q3 0 3 -4v-66q0 -4 -3 -4 h-54z" />
<glyph unicode="k" horiz-adv-x="408" d="M77 0q-3 0 -3 4v672q0 4 3 4h48q3 0 3 -4v-396h34q123 191 124 193q3 4 5 4h61q4 0 1 -4l-145 -221q164 -245 166 -248q2 -4 -1 -4h-63q-2 0 -6 4l-144 221h-32v-221q0 -4 -3 -4h-48z" />
<glyph unicode="l" horiz-adv-x="229" d="M166 -5q-24 0 -37 2.5t-28 14t-21.5 38.5t-6.5 71v555q0 4 3 4h47q3 0 3 -4v-556q0 -32 6 -49.5t13 -21.5t18 -4q6 0 24 1t19 1q4 0 4 -3q0 -15 8 -39q1 -3 -3 -5q-10 -5 -49 -5z" />
<glyph unicode="m" horiz-adv-x="708" d="M77 0q-3 0 -3 4v469q0 4 3 4h48q3 0 3 -4v-25q78 34 120 34q46 0 69.5 -9t42.5 -38q94 47 141 47q24 0 40 -2t36.5 -10t32.5 -23.5t20.5 -45.5t8.5 -72v-325q0 -4 -3 -4h-48q-3 0 -3 4v323q0 66 -21.5 85.5t-66.5 19.5q-16 0 -45.5 -10t-51.5 -20l-22 -9q6 -35 6 -64 v-325q0 -4 -4 -4h-47q-3 0 -3 4v323q0 36 -6.5 58t-20 32t-26.5 12.5t-35 2.5q-16 0 -44.5 -9t-49.5 -17l-20 -9v-393q0 -4 -3 -4h-48z" />
<glyph unicode="n" horiz-adv-x="453" d="M77 0q-3 0 -3 4v469q0 4 3 4h48q3 0 3 -4v-25q78 34 120 34q23 0 38.5 -1.5t35.5 -10t32 -24t20.5 -45.5t8.5 -72v-325q0 -4 -3 -4h-46q-4 0 -4 4v323q0 66 -21 85.5t-66 19.5q-16 0 -44.5 -9t-49.5 -17l-21 -9v-393q0 -4 -3 -4h-48z" />
<glyph unicode="o" horiz-adv-x="427" d="M209 44q27 0 43 4t33.5 18.5t25.5 47.5t8 86v80q0 51 -7.5 83t-23 46.5t-32 19t-43.5 4.5t-44.5 -4.5t-35 -19.5t-25.5 -47t-8 -82v-80q0 -53 8 -86t25 -47.5t33 -18.5t43 -4zM209 -8q-38 0 -62 5.5t-50.5 24.5t-39 62.5t-12.5 111.5v89q0 65 13 107.5t39 61.5t51.5 25 t64.5 6q29 0 47.5 -2.5t42.5 -13.5t37.5 -31t23.5 -59t10 -94v-89q0 -69 -13 -113t-39.5 -62.5t-50 -23.5t-62.5 -5z" />
<glyph unicode="p" horiz-adv-x="444" d="M77 477h48q3 0 3 -4v-31q28 40 128 40q20 0 33 -1.5t31 -7.5t30 -20t23.5 -35.5t17 -57t5.5 -82.5v-83q0 -56 -10.5 -95.5t-24 -60t-37 -31.5t-40 -13t-41.5 -2q-17 0 -45.5 5.5t-49.5 11.5l-20 5v-214q0 -4 -3 -4h-48q-3 0 -3 4v672q0 4 3 4zM240 430q-44 0 -78 -19 t-34 -67v-276q81 -23 108 -23q22 0 37 4t32.5 18t26.5 47.5t9 85.5v74q0 43 -6 73.5t-14.5 46t-23.5 24t-26.5 10.5t-30.5 2z" />
<glyph unicode="q" horiz-adv-x="444" d="M204 429q-24 0 -38 -3.5t-30.5 -17.5t-24.5 -47.5t-8 -86.5v-77q0 -53 9 -86t27 -46.5t32 -17t37 -3.5q12 0 39 6t48 12l21 5v277q0 48 -33.5 66.5t-78.5 18.5zM319 477h48q3 0 3 -4v-672q0 -4 -3 -4h-48q-3 0 -3 4v214q-77 -23 -114 -23q-26 0 -42 2t-40 12.5 t-37.5 30.5t-24 59.5t-10.5 95.5v86q0 47 5.5 82.5t17 57t23.5 35.5t30.5 20t31.5 7.5t33 1.5q99 0 127 -40v31q0 4 3 4z" />
<glyph unicode="r" horiz-adv-x="334" d="M77 0q-3 0 -3 4v469q0 4 3 4h48q3 0 3 -4v-25q56 34 97 34q48 0 74 -13q4 -2 2 -5q-1 -2 -6 -18.5t-5 -17.5q-2 -4 -4 -3q-16 8 -65 8q-15 0 -38.5 -9.5t-38.5 -19.5l-16 -9v-391q0 -4 -3 -4h-48z" />
<glyph unicode="s" horiz-adv-x="403" d="M205 -7q-109 0 -147 19q-3 2 -2 5l11 39q1 3 5 3q2 -1 19 -4.5t50 -7.5t64 -4q26 0 40 1.5t29.5 8t22.5 21.5t7 40v32q0 26 -22 43.5t-84 27.5q-75 11 -106 37t-31 79v39q0 29 9 50.5t22.5 33t33.5 18t37 8.5t39 2t43.5 -2t36 -5t26 -6t17.5 -5l6 -2q1 0 1 -3 q0 -1 -5 -20t-5 -20l-1 -1h-1l-8 2q-7 1 -19.5 3.5t-27 5t-32 4t-32.5 1.5q-87 0 -87 -66v-35q0 -28 20.5 -42.5t73.5 -22.5q74 -10 111.5 -37t37.5 -80v-37q0 -42 -11 -68t-35 -37.5t-46.5 -14.5t-59.5 -3z" />
<glyph unicode="t" horiz-adv-x="264" d="M177 -5q-24 0 -37.5 3t-28 14.5t-20.5 38t-6 70.5v308h-46q-3 0 -3 4v40q0 4 3 4h46v159q0 4 3 4h46q4 0 4 -4v-159h79q4 0 4 -4v-40q0 -4 -4 -4h-79v-309q0 -75 37 -75q6 0 16 0.5t17.5 1t8.5 0.5q3 0 4 -3q0 -1 2 -11t4 -18.5t2 -9.5q1 -3 -3 -5q-15 -5 -49 -5z" />
<glyph unicode="u" horiz-adv-x="448" d="M373 477q3 0 3 -4v-469q0 -4 -3 -4h-47q-3 0 -3 4v20q-79 -31 -120 -31q-24 0 -39.5 1.5t-35.5 10t-32 24t-20.5 45.5t-8.5 72v327q0 4 3 4h48q3 0 3 -4v-325q0 -66 21 -85.5t65 -19.5q16 0 45 8t50 16l21 8v398q0 4 3 4h47z" />
<glyph unicode="v" horiz-adv-x="395" d="M175 0q-3 0 -4 4l-147 469q-1 4 1 4h53q4 0 5 -4l111 -378h11q108 376 109 378q1 4 5 4h51q3 0 2 -4l-146 -469q-1 -4 -4 -4h-47z" />
<glyph unicode="w" horiz-adv-x="599" d="M150 0q-3 0 -4 4l-108 469q-1 4 1 4h50q4 0 5 -4l82 -376h8q91 283 91 286q0 4 3 4h43q3 0 4 -4l92 -286h9q77 373 78 376q2 4 5 4h51q2 0 1 -4q0 -1 -27 -118.5t-54 -233.5t-27 -117q-1 -4 -4 -4h-49q-3 0 -4 4l-92 297h-9q-92 -295 -93 -297q-1 -4 -4 -4h-48z" />
<glyph unicode="x" horiz-adv-x="392" d="M28 0q-4 0 -2 4l138 246q-122 221 -124 224t1 3h56q3 0 5 -4l89 -172h9q91 170 91 172q3 4 5 4h55q3 0 1 -3l-126 -224q137 -243 138 -246q2 -4 -1 -4h-55q-4 0 -5 4l-103 194h-9q-102 -191 -104 -194q-2 -4 -4 -4h-55z" />
<glyph unicode="y" horiz-adv-x="395" d="M58 -180q-3 0 -3 4q0 2 3 22t3 21q0 4 4 4h20q22 0 36.5 16t33.5 74l14 49q-143 460 -144 463q-1 4 2 4h51q3 0 4 -4l113 -377h9q110 374 110 377q1 4 5 4h50q3 0 2 -4l-164 -519q-16 -49 -29 -77t-28.5 -40.5t-26.5 -14.5t-35 -2h-30z" />
<glyph unicode="z" horiz-adv-x="391" d="M51 0q-3 0 -3 4v44q0 2 3 8l225 362v7h-215q-3 0 -3 4v44q0 4 3 4h280q4 0 4 -4v-43q0 -4 -3 -7l-225 -364v-8h225q3 0 3 -4v-43q0 -4 -3 -4h-291z" />
<glyph unicode="{" horiz-adv-x="270" d="M190 -91q-37 0 -56.5 24.5t-19.5 85.5v196q0 41 -11 65t-42 24q-4 0 -4 4v43q0 4 4 4q30 0 41.5 22t11.5 67v196q0 61 19.5 85.5t56.5 24.5h39q4 0 4 -4v-39q0 -4 -4 -4h-28q-38 0 -38 -49v-209q0 -60 -10.5 -81.5t-33.5 -31.5v-5q15 -7 23 -15t14.5 -32t6.5 -66v-209 q0 -49 39 -49h27q4 0 4 -4v-39q0 -4 -4 -4h-39z" />
<glyph unicode="|" horiz-adv-x="214" d="M86 -94q-3 0 -3 4v836q0 4 3 4h42q3 0 3 -4v-836q0 -4 -3 -4h-42z" />
<glyph unicode="}" horiz-adv-x="270" d="M79 -91h-39q-4 0 -4 4v39q0 4 4 4h28q38 0 38 49v209q0 42 6.5 66.5t14 32t22.5 14.5v5q-22 10 -32.5 31.5t-10.5 81.5v209q0 49 -38 49h-28q-4 0 -4 4v39q0 4 4 4h39q36 0 56 -24.5t20 -85.5v-196q0 -45 12 -67t41 -22q4 0 4 -4v-43q0 -4 -4 -4q-31 0 -42 -24t-11 -65 v-196q0 -61 -20 -85.5t-56 -24.5z" />
<glyph unicode="~" horiz-adv-x="445" d="M59 274q0 6 3 10t14.5 13.5t33.5 20t40 10.5q27 0 73.5 -29t71.5 -29q18 0 37 11.5t31.5 23t14.5 11.5q3 0 3 -4v-32q0 -6 -3 -10q-4 -5 -13 -14t-31 -20t-44 -11q-27 0 -72.5 29t-70.5 29q-16 0 -35.5 -11.5t-33.5 -22.5t-16 -11q-3 0 -3 6v30z" />
<glyph unicode="&#xa1;" horiz-adv-x="225" d="M84 680h59q3 0 3 -4v-74q0 -4 -3 -4h-59q-3 0 -3 4v74q0 4 3 4zM89 498h47q4 0 4 -4v-490q0 -4 -4 -4h-47q-3 0 -3 4v490q0 4 3 4z" />
<glyph unicode="&#xa2;" horiz-adv-x="436" d="M216 -102q-3 0 -3 4v94q-27 1 -47 7t-43.5 24.5t-36.5 59.5t-13 103v102q0 61 13 101.5t37 58t43.5 23.5t46.5 7v92q0 4 3 4h34q4 0 4 -4v-92q84 -4 104 -17q4 -2 2 -5l-13 -37q-1 -2 -4 -2l-6 1q-6 1 -15.5 2.5t-22.5 2.5t-30 2t-34 1q-24 0 -39.5 -4t-33 -17t-26.5 -44 t-9 -78v-93q0 -90 28.5 -118.5t79.5 -28.5q27 0 55 3.5t42.5 7t15.5 4.5q3 0 4 -3l12 -36q1 -3 -2 -5q-40 -20 -108 -22v-94q0 -4 -4 -4h-34z" />
<glyph unicode="&#xa3;" horiz-adv-x="445" d="M104 0q-3 0 -3 3v289h-33q-3 0 -3 4v40q0 4 3 4h33v199q0 39 11.5 68t27 43.5t39 22.5t41 10t39.5 2q73 0 129 -28q4 -2 2 -5l-12 -41q-1 -2 -4 -2q-3 2 -17.5 6.5t-43.5 10t-54 5.5q-23 0 -37 -2.5t-31 -10.5t-25 -28t-8 -52v-198h143q3 0 3 -4v-40q0 -4 -3 -4h-143 v-238h228q3 0 3 -4v-46q0 -4 -3 -4h-282z" />
<glyph unicode="&#xa4;" horiz-adv-x="376" d="M188 217q36 0 55 17t19 65v48q0 47 -18.5 63t-54.5 16t-55.5 -17.5t-19.5 -61.5v-48q0 -50 18.5 -66t55.5 -16zM112 109h-40q-4 0 -4 4q6 59 34 80q-36 22 -36 102v56q0 69 37 98q-30 23 -35 81q0 4 4 4h40q3 0 3 -4q5 -31 22 -44.5t52 -13.5q34 0 50.5 12.5t21.5 45.5 q0 4 3 4h42q3 0 3 -4q-4 -58 -33 -79q34 -27 34 -100v-56q0 -75 -35 -102q30 -19 34 -80q0 -4 -3 -4h-42q-3 0 -3 4q-5 34 -23 46t-50 12q-31 0 -49.5 -11t-23.5 -47q0 -4 -3 -4z" />
<glyph unicode="&#xa5;" horiz-adv-x="449" d="M199 0q-3 0 -3 4v157h-117q-3 0 -3 4v40q0 4 3 4h117v66h-117q-3 0 -3 4v40q0 4 4 4h94q-151 351 -152 353q-2 4 2 4h57q2 0 4 -4l138 -329h2q137 327 138 329q2 4 5 4h57q4 0 2 -4l-152 -353h92q4 0 4 -4v-40q0 -4 -4 -4h-114v-66h114q4 0 4 -4v-40q0 -4 -4 -4h-114 v-157q0 -4 -3 -4h-51z" />
<glyph unicode="&#xa6;" horiz-adv-x="213" d="M85 -94q-3 0 -3 4v357q0 4 3 4h42q3 0 3 -4v-357q0 -4 -3 -4h-42zM85 389q-3 0 -3 4v353q0 4 3 4h42q3 0 3 -4v-353q0 -4 -3 -4h-42z" />
<glyph unicode="&#xa7;" horiz-adv-x="442" d="M283 255q35 13 35 64v30q0 27 -23 44t-85 27q-33 7 -41 9q-44 -13 -44 -61v-33q0 -26 20.5 -41.5t75.5 -23.5q38 -6 62 -15zM70 16q-2 1 -1 5q2 7 6.5 20t6.5 19q1 3 4 3q2 -1 18.5 -5t49.5 -8.5t64 -4.5q52 0 75 13t23 58v30q0 32 -25.5 47t-79.5 24q-36 7 -51.5 11 t-40.5 16t-35.5 34t-10.5 55v37q0 57 32 85q-32 25 -32 81v37q0 65 38 88.5t104 23.5q87 0 129 -21q1 -1 1 -3q-1 -1 -7 -19.5t-6 -19.5q0 -2 -3 -2l-7 2q-7 2 -19 4t-26 4.5t-31.5 4.5t-32.5 2q-87 0 -87 -66v-33q0 -31 23 -44t72 -21q67 -9 108 -34.5t41 -81.5v-36 q0 -68 -29 -95q29 -23 29 -71v-37q0 -41 -11 -67t-35 -37.5t-46.5 -15t-59.5 -3.5q-42 0 -79.5 5.5t-51 9.5t-17.5 6z" />
<glyph unicode="&#xa8;" d="M72 605q-4 0 -4 4v67q0 4 4 4h48q3 0 3 -4v-67q0 -4 -3 -4h-48zM237 605q-3 0 -3 4v67q0 4 3 4h48q3 0 3 -4v-67q0 -4 -3 -4h-48z" />
<glyph unicode="&#xa9;" horiz-adv-x="687" d="M344 685q118 0 202 -101t84 -244q0 -142 -84 -243.5t-202 -101.5q-119 0 -203 101t-84 244t84 244t203 101zM344 35q103 0 176 89.5t73 215.5q0 127 -73 216.5t-176 89.5q-104 0 -177.5 -89.5t-73.5 -216.5q0 -126 73.5 -215.5t177.5 -89.5zM348 146q-26 0 -45 4.5 t-40 19t-32 47.5t-11 84v82q0 49 11.5 81.5t32.5 46.5t40 19t44 5q70 0 98 -14q1 -1 1 -4q0 -11 -9 -29q-1 -2 -3 -2q-1 0 -5.5 1t-12.5 2t-18 2t-23.5 2t-27.5 1q-18 0 -31 -3.5t-26.5 -14t-20.5 -35t-7 -61.5v-76q0 -39 7 -64t21 -35.5t26.5 -13.5t30.5 -3q14 0 28.5 1 t25 3t18.5 3.5t13 2.5l5 1q4 0 4 -2t4 -15t5 -14q2 -4 -1 -4q-36 -18 -102 -18z" />
<glyph unicode="&#xaa;" horiz-adv-x="257" d="M118 420q65 0 65 47v56q-48 8 -76 8q-21 0 -32 -11.5t-11 -28.5v-24q0 -47 54 -47zM110 387q-39 0 -59.5 22t-20.5 54v29q0 32 21.5 51t51.5 19l80 -9v33q0 37 -14.5 48.5t-45.5 11.5q-44 0 -66 -11h-1l-1 2q-1 2 -4 11.5t-4 13.5q0 2 1 3t8.5 4.5t27 7t42.5 3.5 q20 0 33 -2.5t27.5 -11t22 -28.5t7.5 -51v-195q0 -2 -2 -2h-30q-2 0 -2 2v18q-13 -23 -72 -23z" />
<glyph unicode="&#xab;" horiz-adv-x="449" d="M383 453l28 -28q2 -2 0 -6l-128 -154q126 -152 128 -154q3 -3 0 -6l-28 -28q-2 -4 -4 0q-1 1 -79.5 92t-80.5 93q-3 3 0 6l160 185q2 2 4 0zM211 453l28 -28q2 -2 0 -6l-128 -154q127 -152 128 -154q3 -3 0 -6l-28 -28q-3 -3 -4 0q-1 1 -79 92t-80 93q-2 4 0 6l159 185 q2 2 4 0z" />
<glyph unicode="&#xac;" horiz-adv-x="446" d="M340 251h-283q-3 0 -3 4v42q0 4 3 4h331q3 0 3 -4v-176q0 -4 -3 -4h-44q-4 0 -4 4v130z" />
<glyph unicode="&#xad;" horiz-adv-x="314" d="M45 250q-4 0 -4 4v42q0 4 4 4h225q4 0 4 -4v-42q0 -4 -4 -4h-225z" />
<glyph unicode="&#xae;" horiz-adv-x="381" d="M191 685q66 0 113 -56.5t47 -135.5t-47 -135.5t-113 -56.5t-113 56.5t-47 135.5t47 135.5t113 56.5zM191 329q56 0 95.5 48t39.5 116t-39.5 116t-95.5 48t-95.5 -48t-39.5 -116t39.5 -116t95.5 -48zM159 387h-23q-1 0 -1 2v213h61q16 0 26.5 -2.5t20.5 -16t10 -38.5v-17 q0 -42 -28 -51l32 -88v-2h-25q-1 0 -1 2l-31 83h-39v-83q0 -2 -2 -2zM161 496h35q32 0 32 33v16q0 14 -5.5 21.5t-11.5 9t-15 1.5h-35v-81z" />
<glyph unicode="&#xaf;" d="M285 618h-215q-3 0 -3 4v42q0 4 3 4h215q3 0 3 -4v-42q0 -4 -3 -4z" />
<glyph unicode="&#xb0;" horiz-adv-x="371" d="M182 465q27 0 41.5 12t14.5 50v57q0 36 -13.5 48t-40.5 12q-28 0 -43 -12.5t-15 -47.5v-57q0 -38 14.5 -50t41.5 -12zM182 424q-21 0 -35.5 3t-30 12.5t-23.5 30.5t-8 53v65q0 57 27 77t72 20q20 0 34 -3t29.5 -11.5t24 -29.5t8.5 -53v-65q0 -61 -27 -80t-71 -19z" />
<glyph unicode="&#xb1;" horiz-adv-x="445" d="M202 110q-4 0 -4 4v171h-140q-3 0 -3 4v42q0 4 3 4h140v170q0 4 4 4h42q3 0 3 -4v-170h141q3 0 3 -4v-42q0 -4 -3 -4h-141v-171q0 -4 -3 -4h-42zM57 0q-3 0 -3 4v42q0 4 3 4h331q3 0 3 -4v-42q0 -4 -3 -4h-331z" />
<glyph unicode="&#xb2;" horiz-adv-x="263" d="M222 270h-186l-2 1v38q0 2 1 3q9 13 25.5 34.5t25.5 33.5t23 31t22 30.5t18 26.5t15.5 25.5t11 22t8 20t2.5 15.5v39q0 34 -17 44t-48 10q-15 0 -33.5 -3.5t-29 -6.5t-10.5 -4q-3 0 -3 2q0 1 -3 14l-4 14q0 2 1 3q36 18 82 18q101 0 101 -89v-42q0 -19 -8.5 -41.5 t-33.5 -60.5t-40 -59t-56 -77v-5h138q3 0 3 -2v-33q0 -2 -3 -2z" />
<glyph unicode="&#xb3;" horiz-adv-x="266" d="M41 284q-1 1 -1 3q7 14 7 29q0 1 3 1l5 -1q5 -2 13 -4t17.5 -3.5t21.5 -3t22 -1.5q19 0 30.5 2t23.5 14.5t12 36.5v40q0 26 -11.5 41.5t-22 18.5t-22.5 3h-35q-3 0 -3 2v31q0 2 3 2h35q19 0 34 14.5t15 41.5v40q0 24 -11 36.5t-22.5 14.5t-29.5 2q-16 0 -34.5 -3t-29 -6 t-11.5 -4q-2 -2 -2 1q0 1 -4 15l-4 14q0 2 1 3t10 5t30 8t43 4q100 0 100 -88v-41q0 -21 -6.5 -38t-13.5 -24l-6 -7v-4q4 -2 9.5 -7t14.5 -26t9 -49v-42q0 -24 -7 -41t-17 -26t-25.5 -14t-26.5 -6t-26 -1q-23 0 -45 4.5t-32 8.5z" />
<glyph unicode="&#xb4;" d="M166 562q-2 -4 -6 -4h-40q-3 0 -1 4l59 134q1 4 5 4h54q4 0 2 -4z" />
<glyph unicode="&#xb6;" horiz-adv-x="483" d="M236 -181q-4 0 -4 4v444q-183 0 -183 169v77q0 166 183 166h187q3 0 3 -4v-852q0 -4 -3 -4h-45q-3 0 -3 4v806h-87v-806q0 -4 -4 -4h-44z" />
<glyph unicode="&#xb7;" horiz-adv-x="187" d="M65 225q-4 0 -4 4v74q0 4 4 4h57q3 0 3 -4v-74q0 -4 -3 -4h-57z" />
<glyph unicode="&#xb8;" d="M181 -145h-53q-3 0 -2 4l56 147q1 4 6 4h40q3 0 2 -4l-44 -147q-1 -4 -5 -4z" />
<glyph unicode="&#xb9;" horiz-adv-x="256" d="M159 270h-30q-2 0 -2 2v359q-64 -58 -65 -59q-2 -2 -2 1q0 1 -4 17l-4 15q0 2 2 4l71 68q1 1 4 1h30q2 0 2 -2v-404q0 -2 -2 -2z" />
<glyph unicode="&#xba;" horiz-adv-x="256" d="M125 422q16 0 26 2.5t20 11t14.5 27.5t4.5 49v44q0 56 -15 72t-48 16q-32 0 -48.5 -16.5t-16.5 -71.5v-44q0 -57 16 -73.5t47 -16.5zM125 387q-23 0 -37.5 3.5t-30 14.5t-23.5 37.5t-8 67.5v49q0 74 26.5 97.5t74.5 23.5q22 0 36.5 -3t30.5 -14t24 -36.5t8 -66.5v-50 q0 -42 -8 -68.5t-24 -37.5t-30.5 -14t-38.5 -3z" />
<glyph unicode="&#xbb;" horiz-adv-x="448" d="M237 76l-28 28q-2 4 0 6l129 154q-127 152 -129 154q-2 4 0 6l28 28q3 3 4 0l160 -185q3 -3 0 -6l-160 -185q-2 -2 -4 0zM67 76l-28 28q-3 3 0 6l128 154q-127 152 -128 154q-3 3 0 6l28 28q3 3 4 0q1 -1 79 -92t80 -93q3 -3 0 -6q-2 -2 -80 -93t-79 -92q-2 -2 -4 0z" />
<glyph unicode="&#xbc;" horiz-adv-x="639" d="M162 -5q-2 0 -2 4q40 117 132.5 343.5t130.5 337.5q1 4 5 4h31q3 0 2 -4l-261 -681q-1 -4 -5 -4h-33zM519 0h-29q-3 0 -3 2v78h-133q-2 0 -2 1v37q0 3 1 4t51 142t50 142q2 2 3 2h34v-2l-100 -284v-5h96v86q0 2 2 2h30q3 0 3 -2v-86h40q3 0 3 -3v-32q0 -2 -3 -2h-40v-78 q0 -2 -3 -2zM182 272h-31q-2 0 -2 2v359q-63 -58 -64 -59q-2 -2 -2 1q0 1 -4 17l-4 15q0 2 2 4l71 68q0 1 3 1h31q2 0 2 -2v-404q0 -2 -2 -2z" />
<glyph unicode="&#xbd;" horiz-adv-x="671" d="M593 0h-186l-2 1v38q0 2 1 3q108 145 129 182t21 57v39q0 34 -16.5 44t-46.5 10q-16 0 -34.5 -3.5t-29 -6.5t-11.5 -4q-2 0 -2 2q0 1 -4 14l-3 14q0 2 1 3q36 18 83 18q100 0 100 -89v-42q0 -36 -51.5 -135t-67.5 -103l-19 -5h138q3 0 3 -2v-33q0 -2 -3 -2zM164 -5 q-3 0 -3 4q41 119 133 346t130 335q1 4 5 4h31q3 0 2 -4q-1 -2 -131 -341t-130 -340q-1 -4 -4 -4h-33zM182 272h-31q-2 0 -2 2v359q-63 -58 -64 -59q-2 -2 -2 1q0 1 -4 17l-4 15q0 2 2 4l71 68q0 1 3 1h31q2 0 2 -2v-404q0 -2 -2 -2z" />
<glyph unicode="&#xbe;" horiz-adv-x="702" d="M77 288q-1 1 -1 3q0 1 3 14.5t3 14.5t3 1l5 -1q5 -2 13 -4t17.5 -3.5t21.5 -3t23 -1.5q18 0 30 2t24 14.5t12 36.5v40q0 20 -6.5 34t-16.5 19.5t-18 7.5t-16 2h-35q-3 0 -3 2v31q0 2 3 2h35q19 0 34 14.5t15 41.5v40q0 24 -11 36.5t-22 14.5t-29 2q-17 0 -35.5 -3t-29 -6 t-11.5 -4q-2 -2 -2 1q0 1 -3 15l-4 14q0 2 1 3t10 5t29.5 8t43.5 4q99 0 99 -88v-41q0 -21 -6.5 -38t-12.5 -24l-7 -7v-4q4 -2 9.5 -7t14.5 -26t9 -49v-42q0 -88 -101 -88q-24 0 -46 4.5t-32 8.5zM223 -5q-2 0 -1 4q40 116 131.5 343t130.5 338q1 4 4 4h33q2 0 1 -4 q-1 -2 -131.5 -341t-130.5 -340q-1 -4 -5 -4h-32zM582 0h-29q-2 0 -2 2v78h-135q-2 0 -2 1v37q0 3 1 4t51.5 142t50.5 142q2 2 3 2h34q1 0 1 -2l-100 -284v-5h96v86q0 2 1 2h30q3 0 3 -2v-86h40q2 0 2 -3v-32q0 -2 -2 -2h-40v-78q0 -2 -3 -2z" />
<glyph unicode="&#xbf;" horiz-adv-x="373" d="M181 508h48q4 0 4 -4v-62q0 -34 -18.5 -71.5t-41.5 -64t-41.5 -56.5t-18.5 -50v-59q0 -32 7.5 -52t22.5 -28t28 -10.5t34 -2.5q25 0 53.5 5.5t43 10t17.5 6.5q3 1 4 -2l12 -40q0 -4 -2 -5q-56 -28 -129 -28q-29 0 -50 4t-45.5 17t-38 44.5t-13.5 79.5v60q0 35 30 80 t60 88.5t30 74.5v61q0 4 4 4zM176 680h58q4 0 4 -4v-75q0 -4 -4 -4h-58q-3 0 -3 4v75q0 4 3 4z" />
<glyph unicode="&#xc0;" horiz-adv-x="498" d="M77 0h-53q-3 0 -2 4t97.5 337.5t96.5 335.5q0 3 5 3h61q4 0 5 -3q0 -2 95.5 -336.5t96.5 -336.5q2 -4 -2 -4h-53q-3 0 -4 4l-41 149h-257q-40 -146 -41 -149q-1 -4 -4 -4zM139 208h222l-102 374h-16zM264 762l-74 134q-1 4 1 4h54q4 0 5 -4l60 -134q2 -4 -2 -4h-40 q-4 0 -4 4z" />
<glyph unicode="&#xc1;" horiz-adv-x="498" d="M77 0h-53q-3 0 -2 4t97.5 337.5t96.5 335.5q0 3 5 3h61q4 0 5 -3q0 -2 95.5 -336.5t96.5 -336.5q2 -4 -2 -4h-53q-3 0 -4 4l-41 149h-257q-40 -146 -41 -149q-1 -4 -4 -4zM139 208h222l-102 374h-16zM237 762q-2 -4 -6 -4h-40q-3 0 -1 4l59 134q1 4 5 4h54q4 0 2 -4z" />
<glyph unicode="&#xc2;" horiz-adv-x="498" d="M139 208h222l-102 374h-16zM77 0h-53q-3 0 -2 4t97.5 337.5t96.5 335.5q0 3 5 3h61q4 0 5 -3q0 -2 95.5 -336.5t96.5 -336.5q2 -4 -2 -4h-53q-3 0 -4 4l-41 149h-257q-40 -146 -41 -149q-1 -4 -4 -4zM190 758h-40q-3 0 -1 4q10 22 34 67t35 67q2 4 6 4h53q5 0 6 -4 q0 -1 17.5 -34t35.5 -66l17 -34q3 -4 -2 -4h-40q-3 0 -5 4l-53 90h-4q-52 -87 -54 -90q-2 -4 -5 -4z" />
<glyph unicode="&#xc3;" horiz-adv-x="498" d="M139 208h222l-102 374h-16zM77 0h-53q-3 0 -2 4t97.5 337.5t96.5 335.5q0 3 5 3h61q4 0 5 -3q0 -2 95.5 -336.5t96.5 -336.5q2 -4 -2 -4h-53q-3 0 -4 4l-41 149h-257q-40 -146 -41 -149q-1 -4 -4 -4zM148 800q-3 0 -3 5v30q0 7 3 10l4 5q4 5 8.5 9.5t11 9.5t15 8t17.5 3 q21 0 49.5 -19t45.5 -19q18 0 34.5 17.5t18.5 17.5q3 0 3 -4v-31q0 -6 -3 -11q-26 -35 -57 -35q-20 0 -48.5 19.5t-44.5 19.5q-18 0 -35.5 -17.5t-18.5 -17.5z" />
<glyph unicode="&#xc4;" horiz-adv-x="498" d="M77 0h-53q-3 0 -2 4t97.5 337.5t96.5 335.5q0 3 5 3h61q4 0 5 -3q0 -2 95.5 -336.5t96.5 -336.5q2 -4 -2 -4h-53q-3 0 -4 4l-41 149h-257q-40 -146 -41 -149q-1 -4 -4 -4zM139 208h222l-102 374h-16zM144 805q-4 0 -4 4v67q0 4 4 4h48q3 0 3 -4v-67q0 -4 -3 -4h-48z M309 805q-3 0 -3 4v67q0 4 3 4h48q3 0 3 -4v-67q0 -4 -3 -4h-48z" />
<glyph unicode="&#xc5;" horiz-adv-x="498" d="M139 208h222l-102 374h-16zM77 0h-53q-3 0 -2 4t97.5 337.5t96.5 335.5q0 3 5 3h61q4 0 5 -3q0 -2 95.5 -336.5t96.5 -336.5q2 -4 -2 -4h-53q-3 0 -4 4l-41 149h-257q-40 -146 -41 -149q-1 -4 -4 -4zM251 775q21 0 32.5 9.5t11.5 38.5v13q0 28 -11 37.5t-32 9.5 q-22 0 -34.5 -10t-12.5 -37v-13q0 -29 12 -38.5t34 -9.5zM251 743q-16 0 -28 2.5t-24 10t-18.5 23.5t-6.5 41v20q0 75 78 75q15 0 26 -2t23 -9t18.5 -23t6.5 -41v-20q0 -25 -6.5 -41.5t-18.5 -23.5t-23 -9.5t-27 -2.5z" />
<glyph unicode="&#xc6;" horiz-adv-x="780" d="M186 208h204v388h-16zM78 0h-55q-2 0 -1 4q1 3 169 336t170 335q3 5 5 5h362q3 0 3 -4v-46q0 -4 -3 -4h-281v-253h242q3 0 3 -4v-46q0 -4 -3 -4h-242v-265h281q3 0 3 -4v-46q0 -4 -3 -4h-338v153h-235q-71 -146 -73 -149q-3 -4 -4 -4z" />
<glyph unicode="&#xc7;" horiz-adv-x="462" d="M235 -145h-53q-3 0 -2 4l50 132q-38 2 -66 11t-55.5 32.5t-42 72t-14.5 121.5v230q0 62 12.5 106.5t30.5 68.5t47.5 37t53.5 16.5t59 3.5q46 0 83.5 -8t50 -14t15.5 -9t2 -5q0 -1 -4.5 -10.5t-8.5 -18.5l-4 -9q-2 -4 -4 -2q-66 22 -130 22q-31 0 -51.5 -5t-44.5 -21.5 t-36.5 -56.5t-12.5 -102v-218q0 -60 11 -99t32.5 -58t45 -25.5t56.5 -6.5q12 0 25.5 1.5t25 3.5t23 4.5t20.5 5.5t17.5 6t13.5 5t9 4l4 1q2 2 4 -2q17 -34 17 -37q1 -2 -2 -5t-15 -10t-45.5 -17.5t-72.5 -12.5l-39 -132q-1 -4 -5 -4z" />
<glyph unicode="&#xc8;" horiz-adv-x="462" d="M75 0v680h341q4 0 4 -4v-46q0 -4 -4 -4h-284v-253h245q3 0 3 -4v-46q0 -4 -3 -4h-245v-265h284q4 0 4 -4v-46q0 -4 -4 -4h-341zM245 762l-74 134q-1 4 1 4h54q4 0 5 -4l60 -134q2 -4 -2 -4h-40q-4 0 -4 4z" />
<glyph unicode="&#xc9;" horiz-adv-x="462" d="M75 0v680h341q4 0 4 -4v-46q0 -4 -4 -4h-284v-253h245q3 0 3 -4v-46q0 -4 -3 -4h-245v-265h284q4 0 4 -4v-46q0 -4 -4 -4h-341zM227 762q-2 -4 -6 -4h-40q-3 0 -1 4l59 134q1 4 5 4h54q4 0 2 -4z" />
<glyph unicode="&#xca;" horiz-adv-x="462" d="M75 0v680h341q4 0 4 -4v-46q0 -4 -4 -4h-284v-253h245q3 0 3 -4v-46q0 -4 -3 -4h-245v-265h284q4 0 4 -4v-46q0 -4 -4 -4h-341zM179 758h-40q-3 0 -1 4q11 22 35 67t34 67q2 4 6 4h53q5 0 6 -4q0 -1 17.5 -34t34.5 -66l18 -34q3 -4 -2 -4h-40q-3 0 -5 4l-53 90h-4 q-52 -87 -54 -90q-2 -4 -5 -4z" />
<glyph unicode="&#xcb;" horiz-adv-x="462" d="M75 0v680h341q4 0 4 -4v-46q0 -4 -4 -4h-284v-253h245q3 0 3 -4v-46q0 -4 -3 -4h-245v-265h284q4 0 4 -4v-46q0 -4 -4 -4h-341zM133 805q-4 0 -4 4v67q0 4 4 4h48q3 0 3 -4v-67q0 -4 -3 -4h-48zM298 805q-3 0 -3 4v67q0 4 3 4h48q3 0 3 -4v-67q0 -4 -3 -4h-48z" />
<glyph unicode="&#xcc;" horiz-adv-x="207" d="M78 0q-3 0 -3 4v672q0 4 3 4h51q3 0 3 -4v-672q0 -4 -3 -4h-51zM118 762l-74 134q-1 4 1 4h54q4 0 5 -4l60 -134q2 -4 -2 -4h-40q-4 0 -4 4z" />
<glyph unicode="&#xcd;" horiz-adv-x="207" d="M78 0q-3 0 -3 4v672q0 4 3 4h51q3 0 3 -4v-672q0 -4 -3 -4h-51zM92 762q-2 -4 -6 -4h-40q-3 0 -1 4l59 134q1 4 5 4h54q4 0 2 -4z" />
<glyph unicode="&#xce;" horiz-adv-x="207" d="M78 0q-3 0 -3 4v672q0 4 3 4h51q3 0 3 -4v-672q0 -4 -3 -4h-51zM44 758h-40q-3 0 -1 4q11 22 34.5 67t34.5 67q2 4 6 4h53q5 0 6 -4q0 -1 17.5 -34t35.5 -66l17 -34q3 -4 -2 -4h-40q-3 0 -5 4l-53 90h-4q-52 -87 -54 -90q-2 -4 -5 -4z" />
<glyph unicode="&#xcf;" horiz-adv-x="207" d="M78 0q-3 0 -3 4v672q0 4 3 4h51q3 0 3 -4v-672q0 -4 -3 -4h-51zM-2 805q-4 0 -4 4v67q0 4 4 4h48q3 0 3 -4v-67q0 -4 -3 -4h-48zM163 805q-3 0 -3 4v67q0 4 3 4h48q3 0 3 -4v-67q0 -4 -3 -4h-48z" />
<glyph unicode="&#xd0;" horiz-adv-x="517" d="M133 54h128q33 0 52 4t43.5 20t36.5 56t12 104v208q0 37 -5 65.5t-12 47t-19.5 32t-23.5 20t-28 10.5t-28 4.5t-28 0.5h-128v-257h112q4 0 4 -4v-42q0 -4 -4 -4h-112v-265zM252 0h-176v319h-42q-3 0 -3 4v42q0 4 3 4h42v311h176q35 0 60 -3t55.5 -16t49.5 -36t32.5 -67 t13.5 -105v-220q0 -38 -5 -69.5t-12 -54t-20 -40.5t-24 -29t-28.5 -19.5t-30 -12t-32.5 -5.5t-30 -2.5t-29 -0.5z" />
<glyph unicode="&#xd1;" horiz-adv-x="542" d="M78 0q-3 0 -3 4v672q0 4 3 4h70q4 0 5 -4l248 -566h11v566q0 4 4 4h50q3 0 3 -4v-672q0 -4 -3 -4h-69q-3 0 -5 4l-248 572h-13v-572q0 -4 -3 -4h-50zM170 800q-3 0 -3 5v30q0 7 3 10l4 5q4 5 8.5 9.5t11 9.5t15 8t17.5 3q21 0 49.5 -19t45.5 -19q18 0 34.5 17.5 t18.5 17.5q3 0 3 -4v-31q0 -6 -3 -11q-26 -35 -57 -35q-20 0 -48.5 19.5t-44.5 19.5q-18 0 -35.5 -17.5t-18.5 -17.5z" />
<glyph unicode="&#xd2;" horiz-adv-x="507" d="M254 -10q-33 0 -55.5 2.5t-53 15.5t-48.5 37t-31.5 70.5t-13.5 111.5v231q0 62 12.5 107t31 68.5t48 37t53 16.5t57.5 3q27 0 45 -2t44.5 -8t44 -21.5t34.5 -40t25.5 -65.5t8.5 -95v-231q0 -48 -7 -85.5t-17.5 -62t-28 -42t-33 -26.5t-38.5 -14t-39 -6t-39 -1zM254 44 q33 0 55.5 6t44.5 24t33 58t11 101v218q0 60 -11 98.5t-33.5 56.5t-44.5 24t-55 6q-32 0 -54.5 -6t-44.5 -24t-33.5 -57t-11.5 -98v-218q0 -63 12 -103.5t35 -57.5t44.5 -22.5t52.5 -5.5zM267 762l-74 134q-1 4 1 4h54q4 0 5 -4l60 -134q2 -4 -2 -4h-40q-4 0 -4 4z" />
<glyph unicode="&#xd3;" horiz-adv-x="507" d="M254 -10q-33 0 -55.5 2.5t-53 15.5t-48.5 37t-31.5 70.5t-13.5 111.5v231q0 62 12.5 107t31 68.5t48 37t53 16.5t57.5 3q27 0 45 -2t44.5 -8t44 -21.5t34.5 -40t25.5 -65.5t8.5 -95v-231q0 -48 -7 -85.5t-17.5 -62t-28 -42t-33 -26.5t-38.5 -14t-39 -6t-39 -1zM254 44 q33 0 55.5 6t44.5 24t33 58t11 101v218q0 60 -11 98.5t-33.5 56.5t-44.5 24t-55 6q-32 0 -54.5 -6t-44.5 -24t-33.5 -57t-11.5 -98v-218q0 -63 12 -103.5t35 -57.5t44.5 -22.5t52.5 -5.5zM240 762q-2 -4 -6 -4h-40q-3 0 -1 4l59 134q1 4 5 4h54q4 0 2 -4z" />
<glyph unicode="&#xd4;" horiz-adv-x="507" d="M254 44q33 0 55.5 6t44.5 24t33 58t11 101v218q0 60 -11 98.5t-33.5 56.5t-44.5 24t-55 6q-32 0 -54.5 -6t-44.5 -24t-33.5 -57t-11.5 -98v-218q0 -63 12 -103.5t35 -57.5t44.5 -22.5t52.5 -5.5zM254 -10q-33 0 -55.5 2.5t-53 15.5t-48.5 37t-31.5 70.5t-13.5 111.5v231 q0 62 12.5 107t31 68.5t48 37t53 16.5t57.5 3q27 0 45 -2t44.5 -8t44 -21.5t34.5 -40t25.5 -65.5t8.5 -95v-231q0 -48 -7 -85.5t-17.5 -62t-28 -42t-33 -26.5t-38.5 -14t-39 -6t-39 -1zM193 758h-40q-3 0 -1 4q10 22 34 67t35 67q2 4 6 4h53q5 0 6 -4q0 -1 17.5 -34 t34.5 -66l18 -34q3 -4 -2 -4h-40q-3 0 -5 4l-53 90h-4q-52 -87 -54 -90q-2 -4 -5 -4z" />
<glyph unicode="&#xd5;" horiz-adv-x="507" d="M254 44q33 0 55.5 6t44.5 24t33 58t11 101v218q0 60 -11 98.5t-33.5 56.5t-44.5 24t-55 6q-32 0 -54.5 -6t-44.5 -24t-33.5 -57t-11.5 -98v-218q0 -63 12 -103.5t35 -57.5t44.5 -22.5t52.5 -5.5zM254 -10q-33 0 -55.5 2.5t-53 15.5t-48.5 37t-31.5 70.5t-13.5 111.5v231 q0 62 12.5 107t31 68.5t48 37t53 16.5t57.5 3q27 0 45 -2t44.5 -8t44 -21.5t34.5 -40t25.5 -65.5t8.5 -95v-231q0 -48 -7 -85.5t-17.5 -62t-28 -42t-33 -26.5t-38.5 -14t-39 -6t-39 -1zM152 800q-3 0 -3 5v30q0 7 3 10l4 5q4 5 8.5 9.5t11 9.5t15 8t17.5 3q21 0 49.5 -19 t45.5 -19q18 0 34.5 17.5t18.5 17.5q3 0 3 -4v-31q0 -6 -3 -11q-26 -35 -57 -35q-20 0 -48.5 19.5t-44.5 19.5q-18 0 -35.5 -17.5t-18.5 -17.5z" />
<glyph unicode="&#xd6;" horiz-adv-x="507" d="M254 -10q-33 0 -55.5 2.5t-53 15.5t-48.5 37t-31.5 70.5t-13.5 111.5v231q0 62 12.5 107t31 68.5t48 37t53 16.5t57.5 3q27 0 45 -2t44.5 -8t44 -21.5t34.5 -40t25.5 -65.5t8.5 -95v-231q0 -48 -7 -85.5t-17.5 -62t-28 -42t-33 -26.5t-38.5 -14t-39 -6t-39 -1zM254 44 q33 0 55.5 6t44.5 24t33 58t11 101v218q0 60 -11 98.5t-33.5 56.5t-44.5 24t-55 6q-32 0 -54.5 -6t-44.5 -24t-33.5 -57t-11.5 -98v-218q0 -63 12 -103.5t35 -57.5t44.5 -22.5t52.5 -5.5zM147 805q-4 0 -4 4v67q0 4 4 4h48q3 0 3 -4v-67q0 -4 -3 -4h-48zM312 805q-3 0 -3 4 v67q0 4 3 4h48q3 0 3 -4v-67q0 -4 -3 -4h-48z" />
<glyph unicode="&#xd7;" horiz-adv-x="445" d="M107 106q-1 2 -29 30q-2 2 0 6l111 135q-111 134 -112 136q-2 3 1 6q28 28 28 29q2 2 5 0l113 -135q110 133 112 135t4 0l30 -29q3 -3 0 -6l-112 -136q111 -133 112 -135q3 -3 0 -6l-30 -30q-2 -2 -4 0l-112 136q-111 -134 -113 -136t-4 0z" />
<glyph unicode="&#xd8;" horiz-adv-x="507" d="M71 -40q-3 0 0 4l33 73q-52 57 -52 190v231q0 62 12.5 107t31 68.5t48 37t53 16.5t57.5 3q76 0 117 -22q10 24 22 48q3 4 5 4h43q5 0 2 -4l-36 -77q49 -57 49 -181v-231q0 -48 -7 -85.5t-17.5 -62t-28 -42t-33 -26.5t-38.5 -14t-39 -6t-39 -1q-73 0 -113 19 q-20 -42 -20 -45q-2 -4 -6 -4h-44zM254 44q33 0 55.5 6t44.5 24t33 58t11 101v218q0 60 -11 98.5t-33.5 56.5t-44.5 24t-55 6q-32 0 -54.5 -6t-44.5 -24t-33.5 -57t-11.5 -98v-218q0 -63 12 -103.5t35 -57.5t44.5 -22.5t52.5 -5.5z" />
<glyph unicode="&#xd9;" horiz-adv-x="529" d="M246 -10q-101 0 -139 61.5t-38 215.5v409q0 4 3 4h51q3 0 3 -4v-403q0 -130 22.5 -179.5t97.5 -49.5h41q76 0 97 48.5t21 180.5v403q0 4 3 4h50q4 0 4 -4v-409q0 -152 -35 -214.5t-141 -62.5h-40zM278 762l-74 134q-1 4 1 4h54q4 0 5 -4l60 -134q2 -4 -2 -4h-40 q-4 0 -4 4z" />
<glyph unicode="&#xda;" horiz-adv-x="529" d="M246 -10q-101 0 -139 61.5t-38 215.5v409q0 4 3 4h51q3 0 3 -4v-403q0 -130 22.5 -179.5t97.5 -49.5h41q76 0 97 48.5t21 180.5v403q0 4 3 4h50q4 0 4 -4v-409q0 -152 -35 -214.5t-141 -62.5h-40zM252 762q-2 -4 -6 -4h-40q-3 0 -1 4l59 134q1 4 5 4h54q4 0 2 -4z" />
<glyph unicode="&#xdb;" horiz-adv-x="529" d="M246 -10q-101 0 -139 61.5t-38 215.5v409q0 4 3 4h51q3 0 3 -4v-403q0 -130 22.5 -179.5t97.5 -49.5h41q76 0 97 48.5t21 180.5v403q0 4 3 4h50q4 0 4 -4v-409q0 -152 -35 -214.5t-141 -62.5h-40zM204 758h-40q-3 0 -1 4q11 22 34.5 67t34.5 67q2 4 6 4h53q5 0 6 -4 q0 -1 17.5 -34t35.5 -66l17 -34q3 -4 -2 -4h-40q-3 0 -5 4l-53 90h-4q-52 -87 -54 -90q-2 -4 -5 -4z" />
<glyph unicode="&#xdc;" horiz-adv-x="529" d="M246 -10q-101 0 -139 61.5t-38 215.5v409q0 4 3 4h51q3 0 3 -4v-403q0 -130 22.5 -179.5t97.5 -49.5h41q76 0 97 48.5t21 180.5v403q0 4 3 4h50q4 0 4 -4v-409q0 -152 -35 -214.5t-141 -62.5h-40zM160 805q-4 0 -4 4v67q0 4 4 4h48q3 0 3 -4v-67q0 -4 -3 -4h-48zM325 805 q-3 0 -3 4v67q0 4 3 4h48q3 0 3 -4v-67q0 -4 -3 -4h-48z" />
<glyph unicode="&#xdd;" horiz-adv-x="434" d="M193 0q-3 0 -3 4v272q-173 397 -174 400q-2 4 2 4h57q1 0 4 -4l137 -327h5q135 324 137 327q3 4 4 4h56q3 0 2 -4l-173 -400v-272q0 -4 -3 -4h-51zM204 762q-2 -4 -6 -4h-40q-3 0 -1 4l59 134q1 4 5 4h54q4 0 2 -4z" />
<glyph unicode="&#xde;" horiz-adv-x="489" d="M132 213h137q26 0 44 3.5t37 14.5t29 36t10 63v45q0 71 -31 92.5t-87 21.5h-139v-276zM129 0h-51q-3 0 -3 4v672q0 4 3 4h51q3 0 3 -4v-133h137q30 0 48.5 -1.5t46 -10.5t43 -25.5t27.5 -50t12 -81.5v-45q0 -46 -12.5 -79.5t-29.5 -50.5t-43.5 -26.5t-46 -11.5t-45.5 -2 h-137v-155q0 -4 -3 -4z" />
<glyph unicode="&#xdf;" horiz-adv-x="453" d="M125 0h-48q-3 0 -3 4v473q0 68 12.5 112t37 63.5t48 26t57.5 6.5q143 0 143 -154v-53q0 -37 -10 -66.5t-20 -39.5l-9 -11v-4q3 -1 7 -4t15 -14.5t19 -26.5t15 -41.5t7 -57.5v-53q0 -43 -10 -73.5t-24.5 -47t-38.5 -25.5t-45.5 -11.5t-52.5 -2.5q-3 0 -3 4v44q0 4 3 4 q26 0 43.5 3.5t35.5 14t27.5 34.5t9.5 61v44q0 39 -9.5 65t-28.5 37t-36 15t-42 4q-3 0 -3 4v44q0 4 3 4q45 0 69 22t24 79v44q0 106 -89 106q-25 0 -40.5 -4.5t-31 -19t-22.5 -47.5t-7 -85v-473q0 -4 -3 -4z" />
<glyph unicode="&#xe0;" horiz-adv-x="427" d="M185 -7q-65 0 -99 37t-34 90v50q0 53 35 84t84 31q21 0 55 -3.5t58 -7.5l23 -3v61q0 66 -24 85.5t-77 19.5q-28 0 -55.5 -4t-40 -7.5t-15.5 -4.5t-4 3l-11 36q-2 3 2 5q44 22 128 22q26 0 43.5 -2t39.5 -10.5t35.5 -24t22.5 -45t9 -71.5v-330q0 -4 -4 -4h-47q-3 0 -3 4 v26q-22 -37 -121 -37zM198 43q18 0 29.5 0.5t28.5 5t26.5 12.5t17 24t7.5 38v102q-81 14 -129 14q-35 0 -54 -20.5t-19 -50.5v-43q0 -34 20.5 -58t72.5 -24zM228 562l-74 134q-1 4 1 4h54q4 0 5 -4l60 -134q2 -4 -2 -4h-40q-4 0 -4 4z" />
<glyph unicode="&#xe1;" horiz-adv-x="427" d="M185 -7q-65 0 -99 37t-34 90v50q0 53 35 84t84 31q21 0 55 -3.5t58 -7.5l23 -3v61q0 66 -24 85.5t-77 19.5q-28 0 -55.5 -4t-40 -7.5t-15.5 -4.5t-4 3l-11 36q-2 3 2 5q44 22 128 22q26 0 43.5 -2t39.5 -10.5t35.5 -24t22.5 -45t9 -71.5v-330q0 -4 -4 -4h-47q-3 0 -3 4 v26q-22 -37 -121 -37zM198 43q18 0 29.5 0.5t28.5 5t26.5 12.5t17 24t7.5 38v102q-81 14 -129 14q-35 0 -54 -20.5t-19 -50.5v-43q0 -34 20.5 -58t72.5 -24zM201 562q-2 -4 -6 -4h-40q-3 0 -1 4l59 134q1 4 5 4h54q4 0 2 -4z" />
<glyph unicode="&#xe2;" horiz-adv-x="427" d="M185 -7q-65 0 -99 37t-34 90v50q0 53 35 84t84 31q21 0 55 -3.5t58 -7.5l23 -3v61q0 66 -24 85.5t-77 19.5q-28 0 -55.5 -4t-40 -7.5t-15.5 -4.5t-4 3l-11 36q-2 3 2 5q44 22 128 22q26 0 43.5 -2t39.5 -10.5t35.5 -24t22.5 -45t9 -71.5v-330q0 -4 -4 -4h-47q-3 0 -3 4 v26q-22 -37 -121 -37zM198 43q18 0 29.5 0.5t28.5 5t26.5 12.5t17 24t7.5 38v102q-81 14 -129 14q-35 0 -54 -20.5t-19 -50.5v-43q0 -34 20.5 -58t72.5 -24zM154 558h-40q-3 0 -1 4q10 23 34 67t35 67q2 4 6 4h53q5 0 6 -4q0 -1 17.5 -34t35.5 -66l17 -34q3 -4 -2 -4h-40 q-3 0 -5 4l-53 90h-4q-52 -87 -54 -90q-2 -4 -5 -4z" />
<glyph unicode="&#xe3;" horiz-adv-x="427" d="M185 -7q-65 0 -99 37t-34 90v50q0 53 35 84t84 31q21 0 55 -3.5t58 -7.5l23 -3v61q0 66 -24 85.5t-77 19.5q-28 0 -55.5 -4t-40 -7.5t-15.5 -4.5t-4 3l-11 36q-2 3 2 5q44 22 128 22q26 0 43.5 -2t39.5 -10.5t35.5 -24t22.5 -45t9 -71.5v-330q0 -4 -4 -4h-47q-3 0 -3 4 v26q-22 -37 -121 -37zM198 43q18 0 29.5 0.5t28.5 5t26.5 12.5t17 24t7.5 38v102q-81 14 -129 14q-35 0 -54 -20.5t-19 -50.5v-43q0 -34 20.5 -58t72.5 -24zM112 600q-3 0 -3 5v30q0 7 3 10l4 5q4 5 8.5 9.5t11 9.5t15 8t17.5 3q21 0 49.5 -19t45.5 -19q18 0 34.5 17.5 t18.5 17.5q3 0 3 -4v-31q0 -6 -3 -11q-26 -35 -57 -35q-20 0 -48.5 19.5t-44.5 19.5q-18 0 -35.5 -17.5t-18.5 -17.5z" />
<glyph unicode="&#xe4;" horiz-adv-x="427" d="M185 -7q-65 0 -99 37t-34 90v50q0 53 35 84t84 31q21 0 55 -3.5t58 -7.5l23 -3v61q0 66 -24 85.5t-77 19.5q-28 0 -55.5 -4t-40 -7.5t-15.5 -4.5t-4 3l-11 36q-2 3 2 5q44 22 128 22q26 0 43.5 -2t39.5 -10.5t35.5 -24t22.5 -45t9 -71.5v-330q0 -4 -4 -4h-47q-3 0 -3 4 v26q-22 -37 -121 -37zM198 43q18 0 29.5 0.5t28.5 5t26.5 12.5t17 24t7.5 38v102q-81 14 -129 14q-35 0 -54 -20.5t-19 -50.5v-43q0 -34 20.5 -58t72.5 -24zM108 605q-4 0 -4 4v67q0 4 4 4h48q3 0 3 -4v-67q0 -4 -3 -4h-48zM273 605q-3 0 -3 4v67q0 4 3 4h48q3 0 3 -4v-67 q0 -4 -3 -4h-48z" />
<glyph unicode="&#xe5;" horiz-adv-x="427" d="M185 -7q-65 0 -99 37t-34 90v50q0 53 35 84t84 31q21 0 55 -3.5t58 -7.5l23 -3v61q0 66 -24 85.5t-77 19.5q-28 0 -55.5 -4t-40 -7.5t-15.5 -4.5t-4 3l-11 36q-2 3 2 5q44 22 128 22q26 0 43.5 -2t39.5 -10.5t35.5 -24t22.5 -45t9 -71.5v-330q0 -4 -4 -4h-47q-3 0 -3 4 v26q-22 -37 -121 -37zM198 43q18 0 29.5 0.5t28.5 5t26.5 12.5t17 24t7.5 38v102q-81 14 -129 14q-35 0 -54 -20.5t-19 -50.5v-43q0 -34 20.5 -58t72.5 -24zM215 543q-16 0 -28 2.5t-24 10t-18.5 23.5t-6.5 41v20q0 75 78 75q15 0 26 -2t23 -9t18.5 -23t6.5 -41v-20 q0 -25 -6.5 -41.5t-18.5 -23.5t-23 -9.5t-27 -2.5zM215 575q21 0 32.5 9.5t11.5 38.5v13q0 28 -11 37.5t-32 9.5q-22 0 -34.5 -10t-12.5 -37v-13q0 -29 12 -38.5t34 -9.5z" />
<glyph unicode="&#xe6;" horiz-adv-x="677" d="M197 45q23 0 39.5 2.5t33.5 10.5t26.5 25.5t9.5 44.5v97q-76 14 -129 14q-31 0 -52 -18.5t-21 -52.5v-40q0 -46 28 -64.5t65 -18.5zM361 262h217q0 57 -8 92.5t-25 51t-32.5 20t-40.5 4.5q-23 0 -37.5 -2.5t-30 -12t-24 -27.5t-14 -49.5t-5.5 -76.5zM185 -5 q-21 0 -41.5 5.5t-42.5 18t-36 39.5t-14 65v48q0 44 23 71.5t47.5 35t48.5 7.5q22 0 56 -3.5t57 -7.5l23 -3v56q0 36 -7 58.5t-23 32t-31 12t-40 2.5q-18 0 -35.5 -2t-30 -4.5l-22.5 -4.5t-15 -4l-6 -2q-3 0 -4 2q-12 36 -12 37q-1 1 -0.5 2.5t1.5 2.5q69 23 128 23 q58 0 86.5 -14t44.5 -48q21 32 50.5 47t81.5 15q23 0 39.5 -2t41 -14t40.5 -32.5t27.5 -62t11.5 -99.5v-56h-271q1 -71 16.5 -109t39.5 -49t66 -11q18 0 37 1.5t33.5 4t26 5t18.5 4.5l7 1q3 0 4 -3l12 -37q2 -3 -2 -5t-17.5 -6.5t-48 -10.5t-71.5 -6q-60 0 -92 16t-54 54 q-23 -39 -54.5 -54.5t-96.5 -15.5z" />
<glyph unicode="&#xe7;" horiz-adv-x="392" d="M200 -145h-53q-3 0 -2 4l51 133q-30 1 -52.5 7.5t-45.5 25.5t-35 59.5t-12 101.5v109q0 51 10.5 88t25.5 56.5t39 30t42.5 13t44.5 2.5q73 0 124 -17q3 -1 1 -5l-11 -36q-1 -3 -4 -3q-2 1 -15 3t-40 4t-54 2q-24 0 -40 -4.5t-33.5 -17.5t-26.5 -43.5t-9 -77.5v-100 q0 -48 9.5 -79.5t27 -45t33.5 -17.5t39 -4q76 0 115 13q3 1 4 -2l11 -37q2 -3 -3 -5q-32 -16 -96 -20l-40 -134q-1 -4 -5 -4z" />
<glyph unicode="&#xe8;" horiz-adv-x="420" d="M219 -8q-36 0 -62 6t-54.5 25.5t-44 63.5t-15.5 112v83q0 65 15.5 108t43 62t52.5 25.5t56 6.5q26 0 44 -2.5t42 -14.5t38.5 -33t25 -62.5t10.5 -99.5v-56h-272q0 -57 9.5 -93.5t28.5 -52.5t37 -21t46 -5q18 0 37.5 1.5t34.5 4t26.5 4.5t18.5 3.5t8 1.5q5 0 5 -3 q0 -1 4.5 -18.5t4.5 -18.5q0 -4 -2 -5q-44 -22 -137 -22zM98 262h217q0 99 -25 134.5t-80 35.5q-28 0 -46 -5t-34.5 -21.5t-24 -52t-7.5 -91.5zM223 562l-74 134q-1 4 1 4h54q4 0 5 -4l60 -134q2 -4 -2 -4h-40q-4 0 -4 4z" />
<glyph unicode="&#xe9;" horiz-adv-x="420" d="M219 -8q-36 0 -62 6t-54.5 25.5t-44 63.5t-15.5 112v83q0 65 15.5 108t43 62t52.5 25.5t56 6.5q26 0 44 -2.5t42 -14.5t38.5 -33t25 -62.5t10.5 -99.5v-56h-272q0 -57 9.5 -93.5t28.5 -52.5t37 -21t46 -5q18 0 37.5 1.5t34.5 4t26.5 4.5t18.5 3.5t8 1.5q5 0 5 -3 q0 -1 4.5 -18.5t4.5 -18.5q0 -4 -2 -5q-44 -22 -137 -22zM98 262h217q0 99 -25 134.5t-80 35.5q-28 0 -46 -5t-34.5 -21.5t-24 -52t-7.5 -91.5zM197 562q-2 -4 -6 -4h-40q-3 0 -1 4l59 134q1 4 5 4h54q4 0 2 -4z" />
<glyph unicode="&#xea;" horiz-adv-x="420" d="M98 262h217q0 99 -25 134.5t-80 35.5q-28 0 -46 -5t-34.5 -21.5t-24 -52t-7.5 -91.5zM219 -8q-36 0 -62 6t-54.5 25.5t-44 63.5t-15.5 112v83q0 65 15.5 108t43 62t52.5 25.5t56 6.5q26 0 44 -2.5t42 -14.5t38.5 -33t25 -62.5t10.5 -99.5v-56h-272q0 -57 9.5 -93.5 t28.5 -52.5t37 -21t46 -5q18 0 37.5 1.5t34.5 4t26.5 4.5t18.5 3.5t8 1.5q5 0 5 -3q0 -1 4.5 -18.5t4.5 -18.5q0 -4 -2 -5q-44 -22 -137 -22zM149 558h-40q-3 0 -1 4q11 23 35 67t34 67q2 4 6 4h53q5 0 6 -4q0 -1 17.5 -34t34.5 -66l18 -34q3 -4 -2 -4h-40q-3 0 -5 4l-53 90 h-4q-52 -87 -54 -90q-2 -4 -5 -4z" />
<glyph unicode="&#xeb;" horiz-adv-x="420" d="M219 -8q-36 0 -62 6t-54.5 25.5t-44 63.5t-15.5 112v83q0 65 15.5 108t43 62t52.5 25.5t56 6.5q26 0 44 -2.5t42 -14.5t38.5 -33t25 -62.5t10.5 -99.5v-56h-272q0 -57 9.5 -93.5t28.5 -52.5t37 -21t46 -5q18 0 37.5 1.5t34.5 4t26.5 4.5t18.5 3.5t8 1.5q5 0 5 -3 q0 -1 4.5 -18.5t4.5 -18.5q0 -4 -2 -5q-44 -22 -137 -22zM98 262h217q0 99 -25 134.5t-80 35.5q-28 0 -46 -5t-34.5 -21.5t-24 -52t-7.5 -91.5zM103 605q-4 0 -4 4v67q0 4 4 4h48q3 0 3 -4v-67q0 -4 -3 -4h-48zM268 605q-3 0 -3 4v67q0 4 3 4h48q3 0 3 -4v-67q0 -4 -3 -4 h-48z" />
<glyph unicode="&#xec;" horiz-adv-x="201" d="M76 0q-3 0 -3 4v469q0 4 3 4h48q3 0 3 -4v-469q0 -4 -3 -4h-48zM114 562l-74 134q-1 4 1 4h54q4 0 5 -4l60 -134q2 -4 -2 -4h-40q-4 0 -4 4z" />
<glyph unicode="&#xed;" horiz-adv-x="201" d="M76 0q-3 0 -3 4v469q0 4 3 4h48q3 0 3 -4v-469q0 -4 -3 -4h-48zM88 562q-2 -4 -6 -4h-40q-3 0 -1 4l59 134q1 4 5 4h54q4 0 2 -4z" />
<glyph unicode="&#xee;" horiz-adv-x="201" d="M76 0q-3 0 -3 4v469q0 4 3 4h48q3 0 3 -4v-469q0 -4 -3 -4h-48zM40 558h-40q-3 0 -1 4q11 23 35 67t34 67q2 4 6 4h53q5 0 6 -4q0 -1 17.5 -34t35.5 -66l17 -34q3 -4 -2 -4h-40q-3 0 -5 4l-53 90h-4q-52 -87 -54 -90q-2 -4 -5 -4z" />
<glyph unicode="&#xef;" horiz-adv-x="201" d="M76 0q-3 0 -3 4v469q0 4 3 4h48q3 0 3 -4v-469q0 -4 -3 -4h-48zM-6 605q-4 0 -4 4v67q0 4 4 4h48q3 0 3 -4v-67q0 -4 -3 -4h-48zM159 605q-3 0 -3 4v67q0 4 3 4h48q3 0 3 -4v-67q0 -4 -3 -4h-48z" />
<glyph unicode="&#xf0;" horiz-adv-x="429" d="M204 47q48 0 80 20.5t32 65.5v271q-79 25 -109 25q-52 0 -78.5 -30t-26.5 -122v-74q0 -95 24.5 -125.5t77.5 -30.5zM189 -5q-26 0 -44 3t-38 14.5t-32 32.5t-20 60t-8 94v82q0 54 9.5 93t23 59.5t36 31.5t40.5 13.5t44 2.5q18 0 47 -6.5t49 -12.5l20 -6v106h-117 q-4 0 -4 4v40q0 4 4 4h117v65q0 4 3 4h47q3 0 3 -4v-65h36q3 0 3 -4v-40q0 -4 -3 -4h-36v-558q0 -4 -3 -4h-47q-3 0 -3 3v32q-29 -40 -127 -40z" />
<glyph unicode="&#xf1;" horiz-adv-x="452" d="M77 0q-3 0 -3 4v469q0 4 3 4h48q3 0 3 -4v-25q78 34 120 34q23 0 38.5 -1.5t35.5 -10t32 -24t20.5 -45.5t8.5 -72v-325q0 -4 -3 -4h-46q-4 0 -4 4v323q0 66 -21 85.5t-66 19.5q-16 0 -44.5 -9t-49.5 -17l-21 -9v-393q0 -4 -3 -4h-48zM124 600q-3 0 -3 5v30q0 7 3 10l4 5 q4 5 8.5 9.5t11 9.5t15 8t17.5 3q21 0 49.5 -19t45.5 -19q18 0 34.5 17.5t18.5 17.5q3 0 3 -4v-31q0 -6 -3 -11q-26 -35 -57 -35q-20 0 -48.5 19.5t-44.5 19.5q-18 0 -35.5 -17.5t-18.5 -17.5z" />
<glyph unicode="&#xf2;" horiz-adv-x="425" d="M209 -8q-38 0 -62 5.5t-50.5 24.5t-39 62.5t-12.5 111.5v89q0 65 13 107.5t39 61.5t51.5 25t64.5 6q29 0 47.5 -2.5t42.5 -13.5t37.5 -31t23.5 -59t10 -94v-89q0 -69 -13 -113t-39.5 -62.5t-50 -23.5t-62.5 -5zM209 44q27 0 43 4t33.5 18.5t25.5 47.5t8 86v80 q0 51 -7.5 83t-23 46.5t-32 19t-43.5 4.5t-44.5 -4.5t-35 -19.5t-25.5 -47t-8 -82v-80q0 -53 8 -86t25 -47.5t33 -18.5t43 -4zM226 562l-74 134q-1 4 1 4h54q4 0 5 -4l60 -134q2 -4 -2 -4h-40q-4 0 -4 4z" />
<glyph unicode="&#xf3;" horiz-adv-x="425" d="M209 -8q-38 0 -62 5.5t-50.5 24.5t-39 62.5t-12.5 111.5v89q0 65 13 107.5t39 61.5t51.5 25t64.5 6q29 0 47.5 -2.5t42.5 -13.5t37.5 -31t23.5 -59t10 -94v-89q0 -69 -13 -113t-39.5 -62.5t-50 -23.5t-62.5 -5zM209 44q27 0 43 4t33.5 18.5t25.5 47.5t8 86v80 q0 51 -7.5 83t-23 46.5t-32 19t-43.5 4.5t-44.5 -4.5t-35 -19.5t-25.5 -47t-8 -82v-80q0 -53 8 -86t25 -47.5t33 -18.5t43 -4zM200 562q-2 -4 -6 -4h-40q-3 0 -1 4l59 134q1 4 5 4h54q4 0 2 -4z" />
<glyph unicode="&#xf4;" horiz-adv-x="425" d="M209 44q27 0 43 4t33.5 18.5t25.5 47.5t8 86v80q0 51 -7.5 83t-23 46.5t-32 19t-43.5 4.5t-44.5 -4.5t-35 -19.5t-25.5 -47t-8 -82v-80q0 -53 8 -86t25 -47.5t33 -18.5t43 -4zM209 -8q-38 0 -62 5.5t-50.5 24.5t-39 62.5t-12.5 111.5v89q0 65 13 107.5t39 61.5t51.5 25 t64.5 6q29 0 47.5 -2.5t42.5 -13.5t37.5 -31t23.5 -59t10 -94v-89q0 -69 -13 -113t-39.5 -62.5t-50 -23.5t-62.5 -5zM152 558h-40q-3 0 -1 4q11 23 35 67t34 67q2 4 6 4h53q5 0 6 -4q0 -1 17.5 -34t35.5 -66l17 -34q3 -4 -2 -4h-40q-3 0 -5 4l-53 90h-4q-52 -87 -54 -90 q-2 -4 -5 -4z" />
<glyph unicode="&#xf5;" horiz-adv-x="425" d="M209 44q27 0 43 4t33.5 18.5t25.5 47.5t8 86v80q0 51 -7.5 83t-23 46.5t-32 19t-43.5 4.5t-44.5 -4.5t-35 -19.5t-25.5 -47t-8 -82v-80q0 -53 8 -86t25 -47.5t33 -18.5t43 -4zM209 -8q-38 0 -62 5.5t-50.5 24.5t-39 62.5t-12.5 111.5v89q0 65 13 107.5t39 61.5t51.5 25 t64.5 6q29 0 47.5 -2.5t42.5 -13.5t37.5 -31t23.5 -59t10 -94v-89q0 -69 -13 -113t-39.5 -62.5t-50 -23.5t-62.5 -5zM111 600q-3 0 -3 5v30q0 7 3 10l4 5q4 5 8.5 9.5t11 9.5t15 8t17.5 3q21 0 49.5 -19t45.5 -19q18 0 34.5 17.5t18.5 17.5q3 0 3 -4v-31q0 -6 -3 -11 q-26 -35 -57 -35q-20 0 -48.5 19.5t-44.5 19.5q-18 0 -35.5 -17.5t-18.5 -17.5z" />
<glyph unicode="&#xf6;" horiz-adv-x="425" d="M209 -8q-38 0 -62 5.5t-50.5 24.5t-39 62.5t-12.5 111.5v89q0 65 13 107.5t39 61.5t51.5 25t64.5 6q29 0 47.5 -2.5t42.5 -13.5t37.5 -31t23.5 -59t10 -94v-89q0 -69 -13 -113t-39.5 -62.5t-50 -23.5t-62.5 -5zM209 44q27 0 43 4t33.5 18.5t25.5 47.5t8 86v80 q0 51 -7.5 83t-23 46.5t-32 19t-43.5 4.5t-44.5 -4.5t-35 -19.5t-25.5 -47t-8 -82v-80q0 -53 8 -86t25 -47.5t33 -18.5t43 -4zM106 605q-4 0 -4 4v67q0 4 4 4h48q3 0 3 -4v-67q0 -4 -3 -4h-48zM271 605q-3 0 -3 4v67q0 4 3 4h48q3 0 3 -4v-67q0 -4 -3 -4h-48z" />
<glyph unicode="&#xf7;" horiz-adv-x="446" d="M57 250q-3 0 -3 4v42q0 4 3 4h331q3 0 3 -4v-42q0 -4 -3 -4h-331zM194 85q-4 0 -4 4v75q0 4 4 4h57q3 0 3 -4v-75q0 -4 -3 -4h-57zM194 383q-4 0 -4 4v74q0 4 4 4h57q3 0 3 -4v-74q0 -4 -3 -4h-57z" />
<glyph unicode="&#xf8;" horiz-adv-x="425" d="M89 -34q-2 0 -1 4q0 3 19 43q-62 42 -62 183v89q0 65 13 107.5t39 61.5t51.5 25t64.5 6q46 0 71 -8l14 31q2 4 5 4h37q3 0 2 -4l-22 -49q54 -44 54 -174v-89q0 -69 -13 -113t-39.5 -62.5t-50 -23.5t-62.5 -5q-41 0 -65 6q-13 -26 -13 -29q-2 -3 -5 -3h-37zM209 44 q27 0 43 4t33.5 18.5t25.5 47.5t8 86v80q0 51 -7.5 83t-23 46.5t-32 19t-43.5 4.5t-44.5 -4.5t-35 -19.5t-25.5 -47t-8 -82v-80q0 -53 8 -86t25 -47.5t33 -18.5t43 -4z" />
<glyph unicode="&#xf9;" horiz-adv-x="447" d="M373 477q3 0 3 -4v-469q0 -4 -3 -4h-47q-3 0 -3 4v20q-79 -31 -120 -31q-24 0 -39.5 1.5t-35.5 10t-32 24t-20.5 45.5t-8.5 72v327q0 4 3 4h48q3 0 3 -4v-325q0 -66 21 -85.5t65 -19.5q16 0 45 8t50 16l21 8v398q0 4 3 4h47zM238 562l-74 134q-1 4 1 4h54q4 0 5 -4 l60 -134q2 -4 -2 -4h-40q-4 0 -4 4z" />
<glyph unicode="&#xfa;" horiz-adv-x="447" d="M373 477q3 0 3 -4v-469q0 -4 -3 -4h-47q-3 0 -3 4v20q-79 -31 -120 -31q-24 0 -39.5 1.5t-35.5 10t-32 24t-20.5 45.5t-8.5 72v327q0 4 3 4h48q3 0 3 -4v-325q0 -66 21 -85.5t65 -19.5q16 0 45 8t50 16l21 8v398q0 4 3 4h47zM211 562q-2 -4 -6 -4h-40q-3 0 -1 4l59 134 q1 4 5 4h54q4 0 2 -4z" />
<glyph unicode="&#xfb;" horiz-adv-x="447" d="M373 477q3 0 3 -4v-469q0 -4 -3 -4h-47q-3 0 -3 4v20q-79 -31 -120 -31q-24 0 -39.5 1.5t-35.5 10t-32 24t-20.5 45.5t-8.5 72v327q0 4 3 4h48q3 0 3 -4v-325q0 -66 21 -85.5t65 -19.5q16 0 45 8t50 16l21 8v398q0 4 3 4h47zM163 558h-40q-3 0 -1 4q10 23 34 67t35 67 q2 4 6 4h53q5 0 6 -4q0 -1 17.5 -34t34.5 -66l18 -34q3 -4 -2 -4h-40q-3 0 -5 4l-53 90h-4q-52 -87 -54 -90q-2 -4 -5 -4z" />
<glyph unicode="&#xfc;" horiz-adv-x="447" d="M373 477q3 0 3 -4v-469q0 -4 -3 -4h-47q-3 0 -3 4v20q-79 -31 -120 -31q-24 0 -39.5 1.5t-35.5 10t-32 24t-20.5 45.5t-8.5 72v327q0 4 3 4h48q3 0 3 -4v-325q0 -66 21 -85.5t65 -19.5q16 0 45 8t50 16l21 8v398q0 4 3 4h47zM118 605q-4 0 -4 4v67q0 4 4 4h48q3 0 3 -4 v-67q0 -4 -3 -4h-48zM283 605q-3 0 -3 4v67q0 4 3 4h48q3 0 3 -4v-67q0 -4 -3 -4h-48z" />
<glyph unicode="&#xfd;" horiz-adv-x="393" d="M58 -180q-3 0 -3 4q0 2 3 22t3 21q0 4 4 4h20q22 0 36.5 16t33.5 74l14 49q-143 460 -144 463q-1 4 2 4h51q3 0 4 -4l113 -377h9q110 374 110 377q1 4 5 4h50q3 0 2 -4l-164 -519q-16 -49 -29 -77t-28.5 -40.5t-26.5 -14.5t-35 -2h-30zM188 562q-2 -4 -6 -4h-40 q-3 0 -1 4l59 134q1 4 5 4h54q4 0 2 -4z" />
<glyph unicode="&#xfe;" horiz-adv-x="444" d="M124 -180h-47q-3 0 -3 4v852q0 4 3 4h47q4 0 4 -4v-234q2 6 11 13.5t40 17t76 9.5q19 0 30.5 -1.5t30.5 -6.5t31 -18.5t24.5 -35t18.5 -58t6 -84.5v-83q0 -48 -6.5 -84t-20.5 -57t-27 -34t-34 -18t-33 -6t-32 -1q-7 0 -36 6.5t-54 12.5l-25 6v-196q0 -4 -4 -4zM128 73 q78 -26 108 -26q22 0 36.5 3.5t32.5 17t27 46.5t9 86v74q0 52 -7.5 84.5t-22.5 47.5t-31 19.5t-40 4.5q-52 0 -82 -22t-30 -64v-271z" />
<glyph unicode="&#xff;" horiz-adv-x="393" d="M58 -180q-3 0 -3 4q0 2 3 22t3 21q0 4 4 4h20q22 0 36.5 16t33.5 74l14 49q-143 460 -144 463q-1 4 2 4h51q3 0 4 -4l113 -377h9q110 374 110 377q1 4 5 4h50q3 0 2 -4l-164 -519q-16 -49 -29 -77t-28.5 -40.5t-26.5 -14.5t-35 -2h-30zM95 605q-4 0 -4 4v67q0 4 4 4h48 q3 0 3 -4v-67q0 -4 -3 -4h-48zM260 605q-3 0 -3 4v67q0 4 3 4h48q3 0 3 -4v-67q0 -4 -3 -4h-48z" />
<glyph unicode="&#x100;" horiz-adv-x="498" d="M139 208h222l-102 374h-16zM77 0h-53q-3 0 -2 4t97.5 337.5t96.5 335.5q0 3 5 3h61q4 0 5 -3q0 -2 95.5 -336.5t96.5 -336.5q2 -4 -2 -4h-53q-3 0 -4 4l-41 149h-257q-40 -146 -41 -149q-1 -4 -4 -4zM358 821h-215q-3 0 -3 4v42q0 4 3 4h215q3 0 3 -4v-42q0 -4 -3 -4z " />
<glyph unicode="&#x101;" horiz-adv-x="427" d="M185 -7q-65 0 -99 37t-34 90v50q0 53 35 84t84 31q21 0 55 -3.5t58 -7.5l23 -3v61q0 66 -24 85.5t-77 19.5q-28 0 -55.5 -4t-40 -7.5t-15.5 -4.5t-4 3l-11 36q-2 3 2 5q44 22 128 22q26 0 43.5 -2t39.5 -10.5t35.5 -24t22.5 -45t9 -71.5v-330q0 -4 -4 -4h-47q-3 0 -3 4 v26q-22 -37 -121 -37zM198 43q18 0 29.5 0.5t28.5 5t26.5 12.5t17 24t7.5 38v102q-81 14 -129 14q-35 0 -54 -20.5t-19 -50.5v-43q0 -34 20.5 -58t72.5 -24zM322 618h-215q-3 0 -3 4v42q0 4 3 4h215q3 0 3 -4v-42q0 -4 -3 -4z" />
<glyph unicode="&#x102;" horiz-adv-x="498" d="M139 208h222l-102 374h-16zM77 0h-53q-3 0 -2 4t97.5 337.5t96.5 335.5q0 3 5 3h61q4 0 5 -3q0 -2 95.5 -336.5t96.5 -336.5q2 -4 -2 -4h-53q-3 0 -4 4l-41 149h-257q-40 -146 -41 -149q-1 -4 -4 -4zM252 773q-106 0 -106 110q0 5 3 5h24q5 0 6 -5q10 -40 24.5 -53 t48.5 -13q31 0 45.5 13.5t24.5 52.5q1 5 4 5h28q3 0 3 -5q-8 -110 -105 -110z" />
<glyph unicode="&#x103;" horiz-adv-x="427" d="M185 -7q-65 0 -99 37t-34 90v50q0 53 35 84t84 31q21 0 55 -3.5t58 -7.5l23 -3v61q0 66 -24 85.5t-77 19.5q-28 0 -55.5 -4t-40 -7.5t-15.5 -4.5t-4 3l-11 36q-2 3 2 5q44 22 128 22q26 0 43.5 -2t39.5 -10.5t35.5 -24t22.5 -45t9 -71.5v-330q0 -4 -4 -4h-47q-3 0 -3 4 v26q-22 -37 -121 -37zM198 43q18 0 29.5 0.5t28.5 5t26.5 12.5t17 24t7.5 38v102q-81 14 -129 14q-35 0 -54 -20.5t-19 -50.5v-43q0 -34 20.5 -58t72.5 -24zM216 570q-106 0 -106 110q0 5 3 5h24q5 0 6 -5q10 -40 24.5 -53t48.5 -13q31 0 45.5 13.5t24.5 52.5q1 5 4 5h28 q3 0 3 -5q-8 -110 -105 -110z" />
<glyph unicode="&#x104;" horiz-adv-x="498" d="M422 -172q-30 0 -46.5 13.5t-16.5 51.5q0 55 61 110v1l-41 149h-257q-40 -146 -41 -149q-1 -4 -4 -4h-53q-3 0 -2 4t97.5 337.5t96.5 335.5q0 3 5 3h61q4 0 5 -3q0 -2 95.5 -336.5t96.5 -336.5q2 -4 -2 -4h-3q-69 -60 -69 -99q0 -16 6 -21t19 -5q10 0 25 10q4 2 5 -2 q2 -2 13 -24q2 -7 0 -9q-22 -22 -51 -22zM139 208h222l-102 374h-16z" />
<glyph unicode="&#x105;" horiz-adv-x="427" d="M304 -172q-30 0 -46.5 13.5t-16.5 51.5q0 35 17 60t48 53v24q-22 -37 -121 -37q-65 0 -99 37t-34 90v50q0 53 35 84t84 31q21 0 55 -3.5t58 -7.5l23 -3v61q0 66 -24 85.5t-77 19.5q-28 0 -55.5 -4t-40 -7.5t-15.5 -4.5t-4 3l-11 36q-2 3 2 5q44 22 128 22q26 0 43.5 -2 t39.5 -10.5t35.5 -24t22.5 -45t9 -71.5v-330q0 -4 -4 -4q-69 -60 -69 -99q0 -16 6 -21t19 -5q10 0 25 10q4 2 5 -2q2 -2 13 -24q2 -7 0 -9q-22 -22 -51 -22zM198 43q18 0 29.5 0.5t28.5 5t26.5 12.5t17 24t7.5 38v102q-81 14 -129 14q-35 0 -54 -20.5t-19 -50.5v-43 q0 -34 20.5 -58t72.5 -24z" />
<glyph unicode="&#x106;" horiz-adv-x="462" d="M255 -10q-35 0 -59 3.5t-53.5 17t-47.5 38t-30.5 70t-12.5 109.5v230q0 62 12.5 106.5t30.5 68.5t47.5 37t53.5 16.5t59 3.5q46 0 83.5 -8t50 -14t15.5 -9t2 -5q0 -1 -4.5 -10.5t-8.5 -18.5l-4 -9q-2 -4 -4 -2q-66 22 -130 22q-31 0 -51.5 -5t-44.5 -21.5t-36.5 -56.5 t-12.5 -102v-218q0 -60 11 -99t32.5 -58t45 -25.5t56.5 -6.5q12 0 25.5 1.5t25 3.5t23 4.5t20.5 5.5t17.5 6t13.5 5t9 4l4 1q2 2 4 -2q17 -34 17 -37q1 -2 -2 -5t-17.5 -11t-54 -19t-85.5 -11zM238 765q-2 -4 -6 -4h-40q-3 0 -1 4l59 134q1 4 5 4h54q4 0 2 -4z" />
<glyph unicode="&#x107;" horiz-adv-x="392" d="M212 -8q-27 0 -45 2.5t-42 13t-38.5 30.5t-25 57.5t-10.5 90.5v109q0 51 10.5 88t25.5 56.5t39 30t42.5 13t44.5 2.5q73 0 124 -17q3 -1 1 -5l-11 -36q-1 -3 -4 -3q-2 1 -15 3t-40 4t-54 2q-24 0 -40 -4.5t-33.5 -17.5t-26.5 -43.5t-9 -77.5v-100q0 -48 9.5 -79.5t27 -45 t33.5 -17.5t39 -4q76 0 115 13q3 1 4 -2l11 -37q2 -3 -3 -5q-42 -21 -129 -21zM201 562q-2 -4 -6 -4h-40q-3 0 -1 4l59 134q1 4 5 4h54q4 0 2 -4z" />
<glyph unicode="&#x108;" horiz-adv-x="462" d="M255 -10q-35 0 -59 3.5t-53.5 17t-47.5 38t-30.5 70t-12.5 109.5v230q0 62 12.5 106.5t30.5 68.5t47.5 37t53.5 16.5t59 3.5q46 0 83.5 -8t50 -14t15.5 -9t2 -5q0 -1 -4.5 -10.5t-8.5 -18.5l-4 -9q-2 -4 -4 -2q-66 22 -130 22q-31 0 -51.5 -5t-44.5 -21.5t-36.5 -56.5 t-12.5 -102v-218q0 -60 11 -99t32.5 -58t45 -25.5t56.5 -6.5q12 0 25.5 1.5t25 3.5t23 4.5t20.5 5.5t17.5 6t13.5 5t9 4l4 1q2 2 4 -2q17 -34 17 -37q1 -2 -2 -5t-17.5 -11t-54 -19t-85.5 -11zM190 761h-40q-3 0 -1 4q10 22 34 66.5t35 67.5q2 4 6 4h53q5 0 6 -4 q0 -1 17.5 -34t35.5 -67l17 -33q3 -4 -2 -4h-40q-3 0 -5 4l-53 90h-4q-52 -87 -54 -90q-2 -4 -5 -4z" />
<glyph unicode="&#x109;" horiz-adv-x="392" d="M212 -8q-27 0 -45 2.5t-42 13t-38.5 30.5t-25 57.5t-10.5 90.5v109q0 51 10.5 88t25.5 56.5t39 30t42.5 13t44.5 2.5q73 0 124 -17q3 -1 1 -5l-11 -36q-1 -3 -4 -3q-2 1 -15 3t-40 4t-54 2q-24 0 -40 -4.5t-33.5 -17.5t-26.5 -43.5t-9 -77.5v-100q0 -48 9.5 -79.5t27 -45 t33.5 -17.5t39 -4q76 0 115 13q3 1 4 -2l11 -37q2 -3 -3 -5q-42 -21 -129 -21zM153 558h-40q-3 0 -1 4q10 23 34 67t35 67q2 4 6 4h53q5 0 6 -4q0 -1 17.5 -34t34.5 -66l18 -34q3 -4 -2 -4h-40q-3 0 -5 4l-53 90h-4q-52 -87 -54 -90q-2 -4 -5 -4z" />
<glyph unicode="&#x10a;" horiz-adv-x="462" d="M255 -10q-35 0 -59 3.5t-53.5 17t-47.5 38t-30.5 70t-12.5 109.5v230q0 62 12.5 106.5t30.5 68.5t47.5 37t53.5 16.5t59 3.5q46 0 83.5 -8t50 -14t15.5 -9t2 -5q0 -1 -4.5 -10.5t-8.5 -18.5l-4 -9q-2 -4 -4 -2q-66 22 -130 22q-31 0 -51.5 -5t-44.5 -21.5t-36.5 -56.5 t-12.5 -102v-218q0 -60 11 -99t32.5 -58t45 -25.5t56.5 -6.5q12 0 25.5 1.5t25 3.5t23 4.5t20.5 5.5t17.5 6t13.5 5t9 4l4 1q2 2 4 -2q17 -34 17 -37q1 -2 -2 -5t-17.5 -11t-54 -19t-85.5 -11zM224 806q-4 0 -4 4v69q0 4 4 4h54q3 0 3 -4v-69q0 -4 -3 -4h-54z" />
<glyph unicode="&#x10b;" horiz-adv-x="392" d="M212 -8q-27 0 -45 2.5t-42 13t-38.5 30.5t-25 57.5t-10.5 90.5v109q0 51 10.5 88t25.5 56.5t39 30t42.5 13t44.5 2.5q73 0 124 -17q3 -1 1 -5l-11 -36q-1 -3 -4 -3q-2 1 -15 3t-40 4t-54 2q-24 0 -40 -4.5t-33.5 -17.5t-26.5 -43.5t-9 -77.5v-100q0 -48 9.5 -79.5t27 -45 t33.5 -17.5t39 -4q76 0 115 13q3 1 4 -2l11 -37q2 -3 -3 -5q-42 -21 -129 -21zM188 603q-4 0 -4 4v69q0 4 4 4h54q3 0 3 -4v-69q0 -4 -3 -4h-54z" />
<glyph unicode="&#x10c;" horiz-adv-x="462" d="M255 -10q-35 0 -59 3.5t-53.5 17t-47.5 38t-30.5 70t-12.5 109.5v230q0 62 12.5 106.5t30.5 68.5t47.5 37t53.5 16.5t59 3.5q46 0 83.5 -8t50 -14t15.5 -9t2 -5q0 -1 -4.5 -10.5t-8.5 -18.5l-4 -9q-2 -4 -4 -2q-66 22 -130 22q-31 0 -51.5 -5t-44.5 -21.5t-36.5 -56.5 t-12.5 -102v-218q0 -60 11 -99t32.5 -58t45 -25.5t56.5 -6.5q12 0 25.5 1.5t25 3.5t23 4.5t20.5 5.5t17.5 6t13.5 5t9 4l4 1q2 2 4 -2q17 -34 17 -37q1 -2 -2 -5t-17.5 -11t-54 -19t-85.5 -11zM311 903h42q3 0 2 -4l-79 -134q-4 -4 -5 -4h-39q-3 0 -7 4q-11 21 -39 66 t-40 69q-2 3 1 3h43q2 0 5 -4l54 -89h5q49 86 51 89q3 4 6 4z" />
<glyph unicode="&#x10d;" horiz-adv-x="392" d="M212 -8q-27 0 -45 2.5t-42 13t-38.5 30.5t-25 57.5t-10.5 90.5v109q0 51 10.5 88t25.5 56.5t39 30t42.5 13t44.5 2.5q73 0 124 -17q3 -1 1 -5l-11 -36q-1 -3 -4 -3q-2 1 -15 3t-40 4t-54 2q-24 0 -40 -4.5t-33.5 -17.5t-26.5 -43.5t-9 -77.5v-100q0 -48 9.5 -79.5t27 -45 t33.5 -17.5t39 -4q76 0 115 13q3 1 4 -2l11 -37q2 -3 -3 -5q-42 -21 -129 -21zM274 700h42q3 0 2 -4l-79 -134q-4 -4 -5 -4h-39q-3 0 -7 4q-11 21 -39 66t-40 69q-1 3 1 3h43q2 0 5 -4l54 -89h5q49 86 51 89q3 4 6 4z" />
<glyph unicode="&#x10e;" horiz-adv-x="515" d="M132 54h128q35 0 58 6t44.5 24t31.5 56.5t10 98.5v207q0 61 -11.5 99.5t-34.5 55t-44 21.5t-54 5h-128v-573zM260 0h-185v680h185q34 0 54.5 -2t52 -14t49.5 -34.5t32 -67.5t14 -109v-220q0 -65 -13 -110.5t-30.5 -69t-48 -36t-53 -15t-57.5 -2.5zM318 903h42q3 0 2 -4 l-79 -134q-4 -4 -5 -4h-39q-3 0 -7 4q-11 21 -39 66t-40 69q-1 3 1 3h43q2 0 5 -4l54 -89h5q49 86 51 89q3 4 6 4z" />
<glyph unicode="&#x10f;" horiz-adv-x="526" d="M367 0h-48q-3 0 -3 3v32q-29 -43 -127 -43q-20 0 -33 1.5t-31.5 7.5t-30.5 20t-23.5 35.5t-17 57t-5.5 82.5v86q0 56 10.5 95.5t24 59.5t37.5 30.5t40 12.5t42 2q16 0 44.5 -6t49.5 -12l20 -7v219q0 4 3 4h48q3 0 3 -4v-672q0 -4 -3 -4zM204 44q44 0 78 20.5t34 68.5v271 q-80 26 -108 26q-23 0 -37.5 -3.5t-32 -17t-26.5 -47t-9 -85.5v-77q0 -54 8 -87.5t24.5 -47.5t30.5 -17.5t38 -3.5zM430 527q-5 -5 -5 3v146q0 4 4 4h47q4 0 4 -4v-100q0 -2 -3 -5z" />
<glyph unicode="&#x110;" horiz-adv-x="517" d="M133 54h128q33 0 52 4t43.5 20t36.5 56t12 104v208q0 37 -5 65.5t-12 47t-19.5 32t-23.5 20t-28 10.5t-28 4.5t-28 0.5h-128v-257h112q4 0 4 -4v-42q0 -4 -4 -4h-112v-265zM252 0h-176v319h-42q-3 0 -3 4v42q0 4 3 4h42v311h176q35 0 60 -3t55.5 -16t49.5 -36t32.5 -67 t13.5 -105v-220q0 -38 -5 -69.5t-12 -54t-20 -40.5t-24 -29t-28.5 -19.5t-30 -12t-32.5 -5.5t-30 -2.5t-29 -0.5z" />
<glyph unicode="&#x111;" horiz-adv-x="429" d="M204 47q48 0 80 20.5t32 65.5v271q-79 25 -109 25q-52 0 -78.5 -30t-26.5 -122v-74q0 -95 24.5 -125.5t77.5 -30.5zM189 -5q-26 0 -44 3t-38 14.5t-32 32.5t-20 60t-8 94v82q0 54 9.5 93t23 59.5t36 31.5t40.5 13.5t44 2.5q18 0 47 -6.5t49 -12.5l20 -6v106h-117 q-4 0 -4 4v40q0 4 4 4h117v65q0 4 3 4h47q3 0 3 -4v-65h36q3 0 3 -4v-40q0 -4 -3 -4h-36v-558q0 -4 -3 -4h-47q-3 0 -3 3v32q-29 -40 -127 -40z" />
<glyph unicode="&#x112;" horiz-adv-x="462" d="M75 0v680h341q4 0 4 -4v-46q0 -4 -4 -4h-284v-253h245q3 0 3 -4v-46q0 -4 -3 -4h-245v-265h284q4 0 4 -4v-46q0 -4 -4 -4h-341zM354 821h-215q-3 0 -3 4v42q0 4 3 4h215q3 0 3 -4v-42q0 -4 -3 -4z" />
<glyph unicode="&#x113;" horiz-adv-x="420" d="M98 262h217q0 99 -25 134.5t-80 35.5q-28 0 -46 -5t-34.5 -21.5t-24 -52t-7.5 -91.5zM219 -8q-36 0 -62 6t-54.5 25.5t-44 63.5t-15.5 112v83q0 65 15.5 108t43 62t52.5 25.5t56 6.5q26 0 44 -2.5t42 -14.5t38.5 -33t25 -62.5t10.5 -99.5v-56h-272q0 -57 9.5 -93.5 t28.5 -52.5t37 -21t46 -5q18 0 37.5 1.5t34.5 4t26.5 4.5t18.5 3.5t8 1.5q5 0 5 -3q0 -1 4.5 -18.5t4.5 -18.5q0 -4 -2 -5q-44 -22 -137 -22zM317 618h-215q-3 0 -3 4v42q0 4 3 4h215q3 0 3 -4v-42q0 -4 -3 -4z" />
<glyph unicode="&#x114;" horiz-adv-x="462" d="M75 0v680h341q4 0 4 -4v-46q0 -4 -4 -4h-284v-253h245q3 0 3 -4v-46q0 -4 -3 -4h-245v-265h284q4 0 4 -4v-46q0 -4 -4 -4h-341zM250 773q-106 0 -106 110q0 5 3 5h24q5 0 6 -5q10 -40 24.5 -53t48.5 -13q31 0 45.5 13.5t24.5 52.5q1 5 4 5h28q3 0 3 -5q-8 -110 -105 -110 z" />
<glyph unicode="&#x115;" horiz-adv-x="420" d="M98 262h217q0 99 -25 134.5t-80 35.5q-28 0 -46 -5t-34.5 -21.5t-24 -52t-7.5 -91.5zM219 -8q-36 0 -62 6t-54.5 25.5t-44 63.5t-15.5 112v83q0 65 15.5 108t43 62t52.5 25.5t56 6.5q26 0 44 -2.5t42 -14.5t38.5 -33t25 -62.5t10.5 -99.5v-56h-272q0 -57 9.5 -93.5 t28.5 -52.5t37 -21t46 -5q18 0 37.5 1.5t34.5 4t26.5 4.5t18.5 3.5t8 1.5q5 0 5 -3q0 -1 4.5 -18.5t4.5 -18.5q0 -4 -2 -5q-44 -22 -137 -22zM216 570q-106 0 -106 110q0 5 3 5h24q5 0 6 -5q10 -40 24.5 -53t48.5 -13q31 0 45.5 13.5t24.5 52.5q1 5 4 5h28q3 0 3 -5 q-8 -110 -105 -110z" />
<glyph unicode="&#x116;" horiz-adv-x="462" d="M75 0v680h341q4 0 4 -4v-46q0 -4 -4 -4h-284v-253h245q3 0 3 -4v-46q0 -4 -3 -4h-245v-265h284q4 0 4 -4v-46q0 -4 -4 -4h-341zM229 806q-4 0 -4 4v69q0 4 4 4h54q3 0 3 -4v-69q0 -4 -3 -4h-54z" />
<glyph unicode="&#x117;" horiz-adv-x="420" d="M219 -8q-36 0 -62 6t-54.5 25.5t-44 63.5t-15.5 112v83q0 65 15.5 108t43 62t52.5 25.5t56 6.5q26 0 44 -2.5t42 -14.5t38.5 -33t25 -62.5t10.5 -99.5v-56h-272q0 -57 9.5 -93.5t28.5 -52.5t37 -21t46 -5q18 0 37.5 1.5t34.5 4t26.5 4.5t18.5 3.5t8 1.5q5 0 5 -3 q0 -1 4.5 -18.5t4.5 -18.5q0 -4 -2 -5q-44 -22 -137 -22zM98 262h217q0 99 -25 134.5t-80 35.5q-28 0 -46 -5t-34.5 -21.5t-24 -52t-7.5 -91.5zM188 603q-4 0 -4 4v69q0 4 4 4h54q3 0 3 -4v-69q0 -4 -3 -4h-54z" />
<glyph unicode="&#x118;" horiz-adv-x="462" d="M75 0v680h341q4 0 4 -4v-46q0 -4 -4 -4h-284v-253h245q3 0 3 -4v-46q0 -4 -3 -4h-245v-265h284q4 0 4 -4v-46q0 -4 -4 -4h-1q-69 -60 -69 -99q0 -16 6 -21t19 -5q10 0 25 10q4 2 5 -2q2 -2 13 -24q2 -7 0 -9q-22 -22 -51 -22q-30 0 -46.5 13.5t-16.5 51.5q0 55 58 107 h-283z" />
<glyph unicode="&#x119;" horiz-adv-x="420" d="M209 -178q-30 0 -46.5 13.5t-16.5 51.5q0 53 56 105q-33 1 -57.5 9t-49.5 28.5t-38.5 63.5t-13.5 106v83q0 65 15.5 108t43 62t52.5 25.5t56 6.5q26 0 44 -2.5t42 -14.5t38.5 -33t25 -62.5t10.5 -99.5v-56h-272q0 -57 9.5 -93.5t28.5 -52.5t37 -21t46 -5q18 0 37.5 1.5 t34.5 4t26.5 4.5t18.5 3.5t8 1.5q5 0 5 -3q0 -1 4.5 -18.5t4.5 -18.5q0 -4 -2 -5q-29 -14 -96 -20q-68 -59 -68 -99q0 -16 6 -21t19 -5q10 0 25 10q4 2 5 -2q2 -2 13 -24q2 -7 0 -9q-22 -22 -51 -22zM98 262h217q0 99 -25 134.5t-80 35.5q-28 0 -46 -5t-34.5 -21.5t-24 -52 t-7.5 -91.5z" />
<glyph unicode="&#x11a;" horiz-adv-x="462" d="M75 0v680h341q4 0 4 -4v-46q0 -4 -4 -4h-284v-253h245q3 0 3 -4v-46q0 -4 -3 -4h-245v-265h284q4 0 4 -4v-46q0 -4 -4 -4h-341zM309 903h42q3 0 2 -4l-79 -134q-4 -4 -5 -4h-39q-3 0 -7 4q-11 21 -39 66t-40 69q-2 3 1 3h43q2 0 5 -4l54 -89h5q49 86 51 89q3 4 6 4z" />
<glyph unicode="&#x11b;" horiz-adv-x="420" d="M98 262h217q0 99 -25 134.5t-80 35.5q-28 0 -46 -5t-34.5 -21.5t-24 -52t-7.5 -91.5zM219 -8q-36 0 -62 6t-54.5 25.5t-44 63.5t-15.5 112v83q0 65 15.5 108t43 62t52.5 25.5t56 6.5q26 0 44 -2.5t42 -14.5t38.5 -33t25 -62.5t10.5 -99.5v-56h-272q0 -57 9.5 -93.5 t28.5 -52.5t37 -21t46 -5q18 0 37.5 1.5t34.5 4t26.5 4.5t18.5 3.5t8 1.5q5 0 5 -3q0 -1 4.5 -18.5t4.5 -18.5q0 -4 -2 -5q-44 -22 -137 -22zM275 700h42q3 0 2 -4l-79 -134q-4 -4 -5 -4h-39q-3 0 -7 4q-11 21 -39 66t-40 69q-2 3 1 3h43q2 0 5 -4l54 -89h5q49 86 51 89 q3 4 6 4z" />
<glyph unicode="&#x11c;" horiz-adv-x="507" d="M247 -10q-33 0 -56.5 3.5t-51.5 17.5t-45 38.5t-29 70t-12 108.5v230q0 63 13 108t31.5 68.5t48.5 36.5t53 16t56 3q44 0 86.5 -7.5t62 -14t23.5 -9.5q3 -1 1 -5l-14 -38q-1 -3 -4 -2q-4 1 -26 6t-60.5 10.5t-67.5 5.5q-20 0 -33 -1.5t-32 -6.5t-31.5 -17.5t-24.5 -32 t-18 -52t-6 -75.5v-217q0 -62 11 -102t32.5 -57.5t42.5 -23.5t51 -6l140 12v236h-99q-3 0 -3 4v44q0 4 3 4h155v-333q-145 -22 -197 -22zM199 761h-40q-3 0 -1 4q10 22 34 66.5t35 67.5q2 4 6 4h53q5 0 6 -4q0 -1 17.5 -34t34.5 -67l18 -33q3 -4 -2 -4h-40q-3 0 -5 4l-53 90 h-4q-52 -87 -54 -90q-2 -4 -5 -4z" />
<glyph unicode="&#x11d;" horiz-adv-x="435" d="M200 45q13 0 40 5.5t48 11.5l21 6v276q0 37 -26 61.5t-86 24.5q-24 0 -38.5 -4t-31 -18t-24 -47.5t-7.5 -86.5v-76q0 -95 26.5 -124t77.5 -29zM204 -185q-91 0 -137 23q-4 2 -2 5q0 1 3 9.5t7 17.5t4 10q1 3 3 2q51 -17 119 -17q55 0 81.5 19.5t26.5 85.5v45 q-75 -22 -115 -22q-27 0 -44.5 2.5t-40 13.5t-36 31t-23 59t-9.5 94v85q0 67 11 110.5t33 62.5t43 25t53 6q100 0 128 -40v31q0 4 3 4h48q3 0 3 -4v-503q0 -43 -10.5 -73.5t-24.5 -46t-38.5 -24t-41.5 -10t-44 -1.5zM152 558h-40q-3 0 -1 4q11 23 35 67t34 67q2 4 6 4h53 q5 0 6 -4q0 -1 17.5 -34t35.5 -66l17 -34q3 -4 -2 -4h-40q-3 0 -5 4l-53 90h-4q-52 -87 -54 -90q-2 -4 -5 -4z" />
<glyph unicode="&#x11e;" horiz-adv-x="507" d="M247 -10q-33 0 -56.5 3.5t-51.5 17.5t-45 38.5t-29 70t-12 108.5v230q0 63 13 108t31.5 68.5t48.5 36.5t53 16t56 3q44 0 86.5 -7.5t62 -14t23.5 -9.5q3 -1 1 -5l-14 -38q-1 -3 -4 -2q-4 1 -26 6t-60.5 10.5t-67.5 5.5q-20 0 -33 -1.5t-32 -6.5t-31.5 -17.5t-24.5 -32 t-18 -52t-6 -75.5v-217q0 -62 11 -102t32.5 -57.5t42.5 -23.5t51 -6l140 12v236h-99q-3 0 -3 4v44q0 4 3 4h155v-333q-145 -22 -197 -22zM258 773q-106 0 -106 110q0 5 3 5h24q5 0 6 -5q10 -40 24.5 -53t48.5 -13q31 0 45.5 13.5t24.5 52.5q1 5 4 5h28q3 0 3 -5 q-8 -110 -105 -110z" />
<glyph unicode="&#x11f;" horiz-adv-x="435" d="M200 45q13 0 40 5.5t48 11.5l21 6v276q0 37 -26 61.5t-86 24.5q-24 0 -38.5 -4t-31 -18t-24 -47.5t-7.5 -86.5v-76q0 -95 26.5 -124t77.5 -29zM204 -185q-91 0 -137 23q-4 2 -2 5q0 1 3 9.5t7 17.5t4 10q1 3 3 2q51 -17 119 -17q55 0 81.5 19.5t26.5 85.5v45 q-75 -22 -115 -22q-27 0 -44.5 2.5t-40 13.5t-36 31t-23 59t-9.5 94v85q0 67 11 110.5t33 62.5t43 25t53 6q100 0 128 -40v31q0 4 3 4h48q3 0 3 -4v-503q0 -43 -10.5 -73.5t-24.5 -46t-38.5 -24t-41.5 -10t-44 -1.5zM216 570q-106 0 -106 110q0 5 3 5h24q5 0 6 -5 q10 -40 24.5 -53t48.5 -13q31 0 45.5 13.5t24.5 52.5q1 5 4 5h28q3 0 3 -5q-8 -110 -105 -110z" />
<glyph unicode="&#x120;" horiz-adv-x="507" d="M247 -10q-33 0 -56.5 3.5t-51.5 17.5t-45 38.5t-29 70t-12 108.5v230q0 63 13 108t31.5 68.5t48.5 36.5t53 16t56 3q44 0 86.5 -7.5t62 -14t23.5 -9.5q3 -1 1 -5l-14 -38q-1 -3 -4 -2q-4 1 -26 6t-60.5 10.5t-67.5 5.5q-20 0 -33 -1.5t-32 -6.5t-31.5 -17.5t-24.5 -32 t-18 -52t-6 -75.5v-217q0 -62 11 -102t32.5 -57.5t42.5 -23.5t51 -6l140 12v236h-99q-3 0 -3 4v44q0 4 3 4h155v-333q-145 -22 -197 -22zM227 806q-4 0 -4 4v69q0 4 4 4h54q3 0 3 -4v-69q0 -4 -3 -4h-54z" />
<glyph unicode="&#x121;" horiz-adv-x="435" d="M204 -185q-91 0 -137 23q-4 2 -2 5q0 1 3 9.5t7 17.5t4 10q1 3 3 2q51 -17 119 -17q55 0 81.5 19.5t26.5 85.5v45q-75 -22 -115 -22q-27 0 -44.5 2.5t-40 13.5t-36 31t-23 59t-9.5 94v85q0 67 11 110.5t33 62.5t43 25t53 6q100 0 128 -40v31q0 4 3 4h48q3 0 3 -4v-503 q0 -43 -10.5 -73.5t-24.5 -46t-38.5 -24t-41.5 -10t-44 -1.5zM200 45q13 0 40 5.5t48 11.5l21 6v276q0 37 -26 61.5t-86 24.5q-24 0 -38.5 -4t-31 -18t-24 -47.5t-7.5 -86.5v-76q0 -95 26.5 -124t77.5 -29zM189 603q-4 0 -4 4v69q0 4 4 4h54q3 0 3 -4v-69q0 -4 -3 -4h-54z " />
<glyph unicode="&#x122;" horiz-adv-x="507" d="M247 -10q-33 0 -56.5 3.5t-51.5 17.5t-45 38.5t-29 70t-12 108.5v230q0 63 13 108t31.5 68.5t48.5 36.5t53 16t56 3q44 0 86.5 -7.5t62 -14t23.5 -9.5q3 -1 1 -5l-14 -38q-1 -3 -4 -2q-4 1 -26 6t-60.5 10.5t-67.5 5.5q-20 0 -33 -1.5t-32 -6.5t-31.5 -17.5t-24.5 -32 t-18 -52t-6 -75.5v-217q0 -62 11 -102t32.5 -57.5t42.5 -23.5t51 -6l140 12v236h-99q-3 0 -3 4v44q0 4 3 4h155v-333q-145 -22 -197 -22zM239 -248q-5 -5 -5 3v146q0 4 4 4h47q4 0 4 -4v-100q0 -2 -3 -5z" />
<glyph unicode="&#x123;" horiz-adv-x="435" d="M204 -185q-91 0 -137 23q-4 2 -2 5q0 1 3 9.5t7 17.5t4 10q1 3 3 2q51 -17 119 -17q55 0 81.5 19.5t26.5 85.5v45q-75 -22 -115 -22q-27 0 -44.5 2.5t-40 13.5t-36 31t-23 59t-9.5 94v85q0 67 11 110.5t33 62.5t43 25t53 6q100 0 128 -40v31q0 4 3 4h48q3 0 3 -4v-503 q0 -43 -10.5 -73.5t-24.5 -46t-38.5 -24t-41.5 -10t-44 -1.5zM200 45q13 0 40 5.5t48 11.5l21 6v276q0 37 -26 61.5t-86 24.5q-24 0 -38.5 -4t-31 -18t-24 -47.5t-7.5 -86.5v-76q0 -95 26.5 -124t77.5 -29zM234 748q5 5 5 -3v-146q0 -4 -4 -4h-47q-4 0 -4 4v100q0 2 3 5 q9 6 47 44z" />
<glyph unicode="&#x124;" horiz-adv-x="540" d="M78 0q-3 0 -3 4v672q0 4 3 4h51q3 0 3 -4v-307h277v307q0 4 3 4h51q3 0 3 -4v-672q0 -4 -3 -4h-51q-3 0 -3 4v315h-277v-315q0 -4 -3 -4h-51zM210 761h-40q-3 0 -1 4q10 22 34.5 66.5t34.5 67.5q2 4 6 4h53q5 0 6 -4q0 -1 17.5 -34t35.5 -67l17 -33q3 -4 -2 -4h-40 q-3 0 -5 4l-53 90h-4q-52 -87 -54 -90q-2 -4 -5 -4z" />
<glyph unicode="&#x125;" horiz-adv-x="452" d="M77 0q-3 0 -3 4v672q0 4 3 4h48q3 0 3 -4v-228q79 34 120 34q30 0 49.5 -4t41.5 -17.5t33.5 -46.5t11.5 -85v-325q0 -4 -3 -4h-47q-4 0 -4 4v323q0 66 -21 85.5t-66 19.5q-16 0 -44.5 -9t-49.5 -17l-21 -9v-393q0 -4 -3 -4h-48zM165 750h-40q-3 0 -1 4q11 23 34.5 67.5 t34.5 66.5q2 4 6 4h53q5 0 6 -4q0 -1 17.5 -34t34.5 -66l18 -34q3 -4 -2 -4h-40q-3 0 -5 4l-53 90h-4q-52 -87 -54 -90q-2 -4 -5 -4z" />
<glyph unicode="&#x128;" horiz-adv-x="207" d="M78 0q-3 0 -3 4v672q0 4 3 4h51q3 0 3 -4v-672q0 -4 -3 -4h-51zM2 803q-3 0 -3 5v30q0 7 3 10l4 5q4 5 8.5 9.5t11 9.5t15 8t17.5 3q21 0 49.5 -19t45.5 -19q18 0 34.5 17.5t18.5 17.5q3 0 3 -4v-31q0 -6 -3 -11q-26 -35 -57 -35q-20 0 -48.5 19.5t-44.5 19.5 q-18 0 -35.5 -17.5t-18.5 -17.5z" />
<glyph unicode="&#x129;" horiz-adv-x="201" d="M76 0q-3 0 -3 4v469q0 4 3 4h48q3 0 3 -4v-469q0 -4 -3 -4h-48zM0 600q-3 0 -3 5v30q0 7 3 10l4 5q4 5 8.5 9.5t11 9.5t15 8t17.5 3q21 0 49.5 -19t45.5 -19q18 0 34.5 17.5t18.5 17.5q3 0 3 -4v-31q0 -6 -3 -11q-26 -35 -57 -35q-20 0 -48.5 19.5t-44.5 19.5 q-18 0 -35.5 -17.5t-18.5 -17.5z" />
<glyph unicode="&#x12a;" horiz-adv-x="207" d="M78 0q-3 0 -3 4v672q0 4 3 4h51q3 0 3 -4v-672q0 -4 -3 -4h-51zM212 821h-215q-3 0 -3 4v42q0 4 3 4h215q3 0 3 -4v-42q0 -4 -3 -4z" />
<glyph unicode="&#x12b;" horiz-adv-x="201" d="M76 0q-3 0 -3 4v469q0 4 3 4h48q3 0 3 -4v-469q0 -4 -3 -4h-48zM208 618h-215q-3 0 -3 4v42q0 4 3 4h215q3 0 3 -4v-42q0 -4 -3 -4z" />
<glyph unicode="&#x12e;" horiz-adv-x="207" d="M76 -172q-30 0 -46.5 13.5t-16.5 51.5q0 56 62 110v1v672q0 4 3 4h51q3 0 3 -4v-672q0 -4 -3 -4h-1q-69 -60 -69 -99q0 -16 6 -21t19 -5q10 0 25 10q4 2 5 -2q2 -2 13 -24q2 -7 0 -9q-22 -22 -51 -22z" />
<glyph unicode="&#x12f;" horiz-adv-x="201" d="M72 -172q-30 0 -46.5 13.5t-16.5 51.5q0 35 17 60t48 53v467q0 4 3 4h48q3 0 3 -4v-469q0 -4 -3 -4h-1q-69 -60 -69 -99q0 -16 6 -21t19 -5q10 0 25 10q4 2 5 -2q2 -2 13 -24q2 -7 0 -9q-22 -22 -51 -22zM74 606q-3 0 -3 4v66q0 4 3 4h54q3 0 3 -4v-66q0 -4 -3 -4h-54z " />
<glyph unicode="&#x130;" horiz-adv-x="207" d="M78 0q-3 0 -3 4v672q0 4 3 4h51q3 0 3 -4v-672q0 -4 -3 -4h-51zM78 806q-4 0 -4 4v69q0 4 4 4h54q3 0 3 -4v-69q0 -4 -3 -4h-54z" />
<glyph unicode="&#x131;" horiz-adv-x="201" d="M76 0q-3 0 -3 4v469q0 4 3 4h48q3 0 3 -4v-469q0 -4 -3 -4h-48z" />
<glyph unicode="&#x134;" horiz-adv-x="390" d="M167 -10q-24 0 -55.5 4.5t-51 8.5t-21.5 5q-3 2 -2 5l12 40q1 3 4 2q2 -1 21 -3.5t46 -5t44 -2.5q25 0 39 2.5t30 11.5t23.5 30.5t7.5 56.5v531q0 4 3 4h51q3 0 3 -4v-531q0 -43 -10 -73t-24 -45.5t-37 -24.5t-40 -10.5t-43 -1.5zM230 761h-40q-3 0 -1 4q11 22 35 66.5 t34 67.5q2 4 6 4h53q5 0 6 -4q0 -1 17.5 -34t35.5 -67l17 -33q3 -4 -2 -4h-40q-3 0 -5 4l-53 90h-4q-52 -87 -54 -90q-2 -4 -5 -4z" />
<glyph unicode="&#x136;" horiz-adv-x="478" d="M78 0q-3 0 -3 4v672q0 4 3 4h51q3 0 3 -4v-304h28q203 301 205 304q3 4 5 4h65q3 0 1 -4l-227 -329q241 -341 242 -343q3 -4 -1 -4h-65q-3 0 -6 4l-218 315h-29v-315q0 -4 -3 -4h-51zM219 -248q-5 -5 -5 3v146q0 4 4 4h47q4 0 4 -4v-100q0 -2 -3 -5z" />
<glyph unicode="&#x137;" horiz-adv-x="406" d="M77 0q-3 0 -3 4v672q0 4 3 4h48q3 0 3 -4v-396h34q123 191 124 193q3 4 5 4h61q4 0 1 -4l-145 -221q164 -245 166 -248q2 -4 -1 -4h-63q-2 0 -6 4l-144 221h-32v-221q0 -4 -3 -4h-48zM180 -248q-5 -5 -5 3v146q0 4 4 4h47q4 0 4 -4v-100q0 -2 -3 -5z" />
<glyph unicode="&#x139;" horiz-adv-x="441" d="M75 0v676q0 4 3 4h51q3 0 3 -4v-622h284q4 0 4 -4v-45q0 -5 -4 -5h-341zM208 765q-2 -4 -6 -4h-40q-3 0 -1 4l59 134q1 4 5 4h54q4 0 2 -4z" />
<glyph unicode="&#x13a;" horiz-adv-x="227" d="M166 -5q-24 0 -37 2.5t-28 14t-21.5 38.5t-6.5 71v555q0 4 3 4h47q3 0 3 -4v-556q0 -32 6 -49.5t13 -21.5t18 -4q6 0 24 1t19 1q4 0 4 -3q0 -15 8 -39q1 -3 -3 -5q-10 -5 -49 -5zM124 754q-2 -4 -6 -4h-40q-3 0 -1 4l59 134q1 4 5 4h54q4 0 2 -4z" />
<glyph unicode="&#x13b;" horiz-adv-x="441" d="M75 0v676q0 4 3 4h51q3 0 3 -4v-622h284q4 0 4 -4v-45q0 -5 -4 -5h-341zM218 -248q-5 -5 -5 3v146q0 4 4 4h47q4 0 4 -4v-100q0 -2 -3 -5z" />
<glyph unicode="&#x13c;" horiz-adv-x="227" d="M166 -5q-24 0 -37 2.5t-28 14t-21.5 38.5t-6.5 71v555q0 4 3 4h47q3 0 3 -4v-556q0 -32 6 -49.5t13 -21.5t18 -4q6 0 24 1t19 1q4 0 4 -3q0 -15 8 -39q1 -3 -3 -5q-10 -5 -49 -5zM112 -248q-5 -5 -5 3v146q0 4 4 4h47q4 0 4 -4v-100q0 -2 -3 -5z" />
<glyph unicode="&#x13d;" horiz-adv-x="441" d="M75 0v676q0 4 3 4h51q3 0 3 -4v-622h284q4 0 4 -4v-45q0 -5 -4 -5h-341zM206 597q-5 -5 -5 3v146q0 4 4 4h47q4 0 4 -4v-100q0 -2 -3 -5z" />
<glyph unicode="&#x13e;" horiz-adv-x="321" d="M166 -5q-24 0 -37 2.5t-28 14t-21.5 38.5t-6.5 71v555q0 4 3 4h47q3 0 3 -4v-556q0 -32 6 -49.5t13 -21.5t18 -4q6 0 24 1t19 1q4 0 4 -3q0 -15 8 -39q1 -3 -3 -5q-10 -5 -49 -5zM212 527q-5 -5 -5 3v146q0 4 4 4h47q4 0 4 -4v-100q0 -2 -3 -5z" />
<glyph unicode="&#x141;" horiz-adv-x="442" d="M75 0v292q-48 -35 -50 -36q-3 -2 -3 3v48q0 5 3 7l50 35v327q0 4 3 4h51q3 0 3 -4v-294q133 94 134 94q1 1 2 0.5t1 -2.5v-49q0 -3 -3 -6l-134 -95v-270h285q3 0 3 -4v-46q0 -4 -3 -4h-342z" />
<glyph unicode="&#x142;" horiz-adv-x="226" d="M164 -5q-25 0 -39 3t-28 15t-20.5 38.5t-6.5 69.5v202q-37 -27 -39 -27t-2 3v45q0 4 2 6l39 27v299q0 4 3 4h48q3 0 3 -4v-268q58 42 60 42h1.5t0.5 -3v-44q0 -5 -2 -7l-60 -42v-234q0 -45 10 -60t27 -15q7 0 17 0.5t18 0.5l7 1q3 0 4 -3q1 -1 4.5 -19.5t3.5 -19.5 q2 -5 -3 -5h-4q-3 -1 -8 -1.5t-11 -1.5t-12.5 -1.5t-12.5 -0.5z" />
<glyph unicode="&#x143;" horiz-adv-x="542" d="M78 0q-3 0 -3 4v672q0 4 3 4h70q4 0 5 -4l248 -566h11v566q0 4 4 4h50q3 0 3 -4v-672q0 -4 -3 -4h-69q-3 0 -5 4l-248 572h-13v-572q0 -4 -3 -4h-50zM259 765q-2 -4 -6 -4h-40q-3 0 -1 4l59 134q1 4 5 4h54q4 0 2 -4z" />
<glyph unicode="&#x144;" horiz-adv-x="452" d="M77 0q-3 0 -3 4v469q0 4 3 4h48q3 0 3 -4v-25q78 34 120 34q23 0 38.5 -1.5t35.5 -10t32 -24t20.5 -45.5t8.5 -72v-325q0 -4 -3 -4h-46q-4 0 -4 4v323q0 66 -21 85.5t-66 19.5q-16 0 -44.5 -9t-49.5 -17l-21 -9v-393q0 -4 -3 -4h-48zM214 562q-2 -4 -6 -4h-40q-3 0 -1 4 l59 134q1 4 5 4h54q4 0 2 -4z" />
<glyph unicode="&#x145;" horiz-adv-x="542" d="M78 0q-3 0 -3 4v672q0 4 3 4h70q4 0 5 -4l248 -566h11v566q0 4 4 4h50q3 0 3 -4v-672q0 -4 -3 -4h-69q-3 0 -5 4l-248 572h-13v-572q0 -4 -3 -4h-50zM257 -248q-5 -5 -5 3v146q0 4 4 4h47q4 0 4 -4v-100q0 -2 -3 -5z" />
<glyph unicode="&#x146;" horiz-adv-x="452" d="M77 0q-3 0 -3 4v469q0 4 3 4h48q3 0 3 -4v-25q78 34 120 34q23 0 38.5 -1.5t35.5 -10t32 -24t20.5 -45.5t8.5 -72v-325q0 -4 -3 -4h-46q-4 0 -4 4v323q0 66 -21 85.5t-66 19.5q-16 0 -44.5 -9t-49.5 -17l-21 -9v-393q0 -4 -3 -4h-48zM209 -248q-5 -5 -5 3v146q0 4 4 4h47 q4 0 4 -4v-100q0 -2 -3 -5z" />
<glyph unicode="&#x147;" horiz-adv-x="542" d="M78 0q-3 0 -3 4v672q0 4 3 4h70q4 0 5 -4l248 -566h11v566q0 4 4 4h50q3 0 3 -4v-672q0 -4 -3 -4h-69q-3 0 -5 4l-248 572h-13v-572q0 -4 -3 -4h-50zM333 903h42q3 0 2 -4l-79 -134q-4 -4 -5 -4h-39q-3 0 -7 4q-11 21 -39 66t-40 69q-2 3 1 3h43q2 0 5 -4l54 -89h5 q49 86 51 89q3 4 6 4z" />
<glyph unicode="&#x148;" horiz-adv-x="452" d="M77 0q-3 0 -3 4v469q0 4 3 4h48q3 0 3 -4v-25q78 34 120 34q23 0 38.5 -1.5t35.5 -10t32 -24t20.5 -45.5t8.5 -72v-325q0 -4 -3 -4h-46q-4 0 -4 4v323q0 66 -21 85.5t-66 19.5q-16 0 -44.5 -9t-49.5 -17l-21 -9v-393q0 -4 -3 -4h-48zM287 700h42q3 0 2 -4l-79 -134 q-4 -4 -5 -4h-39q-3 0 -7 4q-11 21 -39 66t-40 69q-2 3 1 3h43q2 0 5 -4l54 -89h5q49 86 51 89q3 4 6 4z" />
<glyph unicode="&#x14c;" horiz-adv-x="507" d="M254 44q33 0 55.5 6t44.5 24t33 58t11 101v218q0 60 -11 98.5t-33.5 56.5t-44.5 24t-55 6q-32 0 -54.5 -6t-44.5 -24t-33.5 -57t-11.5 -98v-218q0 -63 12 -103.5t35 -57.5t44.5 -22.5t52.5 -5.5zM254 -10q-33 0 -55.5 2.5t-53 15.5t-48.5 37t-31.5 70.5t-13.5 111.5v231 q0 62 12.5 107t31 68.5t48 37t53 16.5t57.5 3q27 0 45 -2t44.5 -8t44 -21.5t34.5 -40t25.5 -65.5t8.5 -95v-231q0 -48 -7 -85.5t-17.5 -62t-28 -42t-33 -26.5t-38.5 -14t-39 -6t-39 -1zM361 821h-215q-3 0 -3 4v42q0 4 3 4h215q3 0 3 -4v-42q0 -4 -3 -4z" />
<glyph unicode="&#x14d;" horiz-adv-x="425" d="M209 44q27 0 43 4t33.5 18.5t25.5 47.5t8 86v80q0 51 -7.5 83t-23 46.5t-32 19t-43.5 4.5t-44.5 -4.5t-35 -19.5t-25.5 -47t-8 -82v-80q0 -53 8 -86t25 -47.5t33 -18.5t43 -4zM209 -8q-38 0 -62 5.5t-50.5 24.5t-39 62.5t-12.5 111.5v89q0 65 13 107.5t39 61.5t51.5 25 t64.5 6q29 0 47.5 -2.5t42.5 -13.5t37.5 -31t23.5 -59t10 -94v-89q0 -69 -13 -113t-39.5 -62.5t-50 -23.5t-62.5 -5zM320 618h-215q-3 0 -3 4v42q0 4 3 4h215q3 0 3 -4v-42q0 -4 -3 -4z" />
<glyph unicode="&#x14e;" horiz-adv-x="507" d="M254 44q33 0 55.5 6t44.5 24t33 58t11 101v218q0 60 -11 98.5t-33.5 56.5t-44.5 24t-55 6q-32 0 -54.5 -6t-44.5 -24t-33.5 -57t-11.5 -98v-218q0 -63 12 -103.5t35 -57.5t44.5 -22.5t52.5 -5.5zM254 -10q-33 0 -55.5 2.5t-53 15.5t-48.5 37t-31.5 70.5t-13.5 111.5v231 q0 62 12.5 107t31 68.5t48 37t53 16.5t57.5 3q27 0 45 -2t44.5 -8t44 -21.5t34.5 -40t25.5 -65.5t8.5 -95v-231q0 -48 -7 -85.5t-17.5 -62t-28 -42t-33 -26.5t-38.5 -14t-39 -6t-39 -1zM255 773q-106 0 -106 110q0 5 3 5h24q5 0 6 -5q10 -40 24.5 -53t48.5 -13 q31 0 45.5 13.5t24.5 52.5q1 5 4 5h28q3 0 3 -5q-8 -110 -105 -110z" />
<glyph unicode="&#x14f;" horiz-adv-x="425" d="M209 44q27 0 43 4t33.5 18.5t25.5 47.5t8 86v80q0 51 -7.5 83t-23 46.5t-32 19t-43.5 4.5t-44.5 -4.5t-35 -19.5t-25.5 -47t-8 -82v-80q0 -53 8 -86t25 -47.5t33 -18.5t43 -4zM209 -8q-38 0 -62 5.5t-50.5 24.5t-39 62.5t-12.5 111.5v89q0 65 13 107.5t39 61.5t51.5 25 t64.5 6q29 0 47.5 -2.5t42.5 -13.5t37.5 -31t23.5 -59t10 -94v-89q0 -69 -13 -113t-39.5 -62.5t-50 -23.5t-62.5 -5zM214 570q-106 0 -106 110q0 5 3 5h24q5 0 6 -5q10 -40 24.5 -53t48.5 -13q31 0 45.5 13.5t24.5 52.5q1 5 4 5h28q3 0 3 -5q-8 -110 -105 -110z" />
<glyph unicode="&#x150;" horiz-adv-x="507" d="M254 44q33 0 55.5 6t44.5 24t33 58t11 101v218q0 60 -11 98.5t-33.5 56.5t-44.5 24t-55 6q-32 0 -54.5 -6t-44.5 -24t-33.5 -57t-11.5 -98v-218q0 -63 12 -103.5t35 -57.5t44.5 -22.5t52.5 -5.5zM254 -10q-33 0 -55.5 2.5t-53 15.5t-48.5 37t-31.5 70.5t-13.5 111.5v231 q0 62 12.5 107t31 68.5t48 37t53 16.5t57.5 3q27 0 45 -2t44.5 -8t44 -21.5t34.5 -40t25.5 -65.5t8.5 -95v-231q0 -48 -7 -85.5t-17.5 -62t-28 -42t-33 -26.5t-38.5 -14t-39 -6t-39 -1zM197 766q-3 -4 -6 -4h-40q-2 0 -1 4q2 4 30.5 67.5t28.5 65.5q1 4 5 4h54q3 0 2 -4 q0 -1 -18.5 -33.5t-36.5 -65.5t-18 -34zM305 766q-1 -4 -5 -4h-40q-2 0 -1 4q0 1 14.5 33.5t29.5 65.5t15 34q1 4 5 4h53q5 0 2 -4q-1 -1 -36.5 -66.5t-36.5 -66.5z" />
<glyph unicode="&#x151;" horiz-adv-x="425" d="M209 44q27 0 43 4t33.5 18.5t25.5 47.5t8 86v80q0 51 -7.5 83t-23 46.5t-32 19t-43.5 4.5t-44.5 -4.5t-35 -19.5t-25.5 -47t-8 -82v-80q0 -53 8 -86t25 -47.5t33 -18.5t43 -4zM209 -8q-38 0 -62 5.5t-50.5 24.5t-39 62.5t-12.5 111.5v89q0 65 13 107.5t39 61.5t51.5 25 t64.5 6q29 0 47.5 -2.5t42.5 -13.5t37.5 -31t23.5 -59t10 -94v-89q0 -69 -13 -113t-39.5 -62.5t-50 -23.5t-62.5 -5zM164 563q-3 -4 -6 -4h-40q-2 0 -1 4q2 5 30.5 68t28.5 65q1 4 5 4h54q3 0 2 -4q0 -1 -18.5 -33.5t-36.5 -65.5t-18 -34zM272 563q-1 -4 -5 -4h-40 q-2 0 -1 4q0 1 14.5 33.5t29.5 65.5t15 34q1 4 5 4h53q5 0 2 -4q-1 -1 -36.5 -66.5t-36.5 -66.5z" />
<glyph unicode="&#x152;" horiz-adv-x="787" d="M256 49q30 0 52.5 7t45 26t34.5 61t12 105v188q0 64 -13 106t-37 60t-45 23.5t-49 5.5q-31 0 -52 -5.5t-44.5 -22.5t-35.5 -56.5t-12 -100.5v-208q0 -63 12 -103.5t35.5 -58t44.5 -22.5t52 -5zM256 -5q-34 0 -57 3t-53 16.5t-48 37.5t-31 70.5t-13 110.5v218q0 47 7 83.5 t17.5 61t27.5 41.5t33 26.5t38.5 14.5t39 6t39.5 1q93 0 144 -64v59h340q4 0 4 -4v-46q0 -4 -4 -4h-283v-253h244q4 0 4 -4v-46q0 -4 -4 -4h-244v-265h283q4 0 4 -3v-47q0 -4 -4 -4h-340v59q-15 -18 -26.5 -28.5t-43.5 -23t-74 -12.5z" />
<glyph unicode="&#x153;" horiz-adv-x="696" d="M212 47q24 0 40.5 4.5t34 19t26.5 48t9 85.5v78q0 49 -8.5 80.5t-26 45t-33 18t-38.5 4.5q-26 0 -42.5 -4t-34.5 -18.5t-27 -47t-9 -83.5v-73q0 -95 26.5 -126t82.5 -31zM377 262h218q0 102 -26 135t-79 33q-29 0 -47 -5.5t-34.5 -22t-24 -51t-7.5 -89.5zM212 -5 q-39 0 -64.5 6t-50.5 25.5t-37 63t-12 110.5v82q0 53 10 91t24.5 59t38.5 32.5t44.5 14.5t50.5 3q94 0 133 -75q21 36 51 55.5t90 19.5q35 0 59 -6t49.5 -25.5t38.5 -64t13 -114.5v-56h-273q3 -100 29 -134.5t94 -34.5q27 0 57 4t46.5 7.5t18.5 4.5q3 1 4 -3l12 -37 q0 -3 -3 -5q-46 -23 -136 -23q-59 0 -94 17t-56 60q-39 -77 -137 -77z" />
<glyph unicode="&#x154;" horiz-adv-x="511" d="M129 0h-51q-3 0 -3 4v676h194q31 0 50.5 -1.5t46.5 -11t42 -26t26.5 -50t11.5 -80.5v-55q0 -134 -97 -162l117 -290q2 -4 -2 -4h-57q-4 0 -5 4l-110 282h-160v-282q0 -4 -3 -4zM132 340h137q25 0 42.5 3.5t37 14t30 36t10.5 63.5v55q0 39 -9.5 63.5t-28.5 34.5t-36 13 t-44 3h-139v-286zM243 765q-2 -4 -6 -4h-40q-3 0 -1 4l59 134q1 4 5 4h54q4 0 2 -4z" />
<glyph unicode="&#x155;" horiz-adv-x="332" d="M77 0q-3 0 -3 4v469q0 4 3 4h48q3 0 3 -4v-25q56 34 97 34q48 0 74 -13q4 -2 2 -5q-1 -2 -6 -18.5t-5 -17.5q-2 -4 -4 -3q-16 8 -65 8q-15 0 -38.5 -9.5t-38.5 -19.5l-16 -9v-391q0 -4 -3 -4h-48zM158 562q-2 -4 -6 -4h-40q-3 0 -1 4l59 134q1 4 5 4h54q4 0 2 -4z" />
<glyph unicode="&#x156;" horiz-adv-x="511" d="M129 0h-51q-3 0 -3 4v676h194q31 0 50.5 -1.5t46.5 -11t42 -26t26.5 -50t11.5 -80.5v-55q0 -134 -97 -162l117 -290q2 -4 -2 -4h-57q-4 0 -5 4l-110 282h-160v-282q0 -4 -3 -4zM132 340h137q25 0 42.5 3.5t37 14t30 36t10.5 63.5v55q0 39 -9.5 63.5t-28.5 34.5t-36 13 t-44 3h-139v-286zM239 -248q-5 -5 -5 3v146q0 4 4 4h47q4 0 4 -4v-100q0 -2 -3 -5z" />
<glyph unicode="&#x157;" horiz-adv-x="332" d="M77 0q-3 0 -3 4v469q0 4 3 4h48q3 0 3 -4v-25q56 34 97 34q48 0 74 -13q4 -2 2 -5q-1 -2 -6 -18.5t-5 -17.5q-2 -4 -4 -3q-16 8 -65 8q-15 0 -38.5 -9.5t-38.5 -19.5l-16 -9v-391q0 -4 -3 -4h-48zM156 -248q-5 -5 -5 3v146q0 4 4 4h47q4 0 4 -4v-100q0 -2 -3 -5z" />
<glyph unicode="&#x158;" horiz-adv-x="511" d="M132 340h137q25 0 42.5 3.5t37 14t30 36t10.5 63.5v55q0 39 -9.5 63.5t-28.5 34.5t-36 13t-44 3h-139v-286zM129 0h-51q-3 0 -3 4v676h194q31 0 50.5 -1.5t46.5 -11t42 -26t26.5 -50t11.5 -80.5v-55q0 -134 -97 -162l117 -290q2 -4 -2 -4h-57q-4 0 -5 4l-110 282h-160 v-282q0 -4 -3 -4zM301 903h42q3 0 2 -4l-79 -134q-4 -4 -5 -4h-39q-3 0 -7 4q-11 21 -39 66t-40 69q-2 3 1 3h43q2 0 5 -4l54 -89h5q49 86 51 89q3 4 6 4z" />
<glyph unicode="&#x159;" horiz-adv-x="332" d="M77 0q-3 0 -3 4v469q0 4 3 4h48q3 0 3 -4v-25q56 34 97 34q48 0 74 -13q4 -2 2 -5q-1 -2 -6 -18.5t-5 -17.5q-2 -4 -4 -3q-16 8 -65 8q-15 0 -38.5 -9.5t-38.5 -19.5l-16 -9v-391q0 -4 -3 -4h-48zM228 700h42q3 0 2 -4l-79 -134q-4 -4 -5 -4h-39q-3 0 -7 4q-11 21 -39 66 t-40 69q-1 3 1 3h43q2 0 5 -4l54 -89h5q49 86 51 89q3 4 6 4z" />
<glyph unicode="&#x15a;" horiz-adv-x="496" d="M246 -10q-109 0 -179 35q-3 1 -1 5l14 42q2 3 4 2q5 -2 24 -8.5t60.5 -14.5t80.5 -8q31 0 51.5 3t42 13t32.5 32t11 57v69q0 49 -32 70.5t-99 27.5q-110 10 -149 46t-39 113v70q0 146 181 146q46 0 85 -7t54 -13t18 -9q4 -2 2 -5l-16 -39q-2 -3 -4 -2q-3 2 -19.5 6 t-51.5 9.5t-68 5.5q-58 0 -90.5 -19t-32.5 -74v-69q0 -49 30 -71.5t99 -29.5q108 -10 149.5 -43.5t41.5 -112.5v-71q0 -41 -12.5 -71t-31 -46t-47 -25.5t-52.5 -11.5t-56 -2zM244 765q-2 -4 -6 -4h-40q-3 0 -1 4l59 134q1 4 5 4h54q4 0 2 -4z" />
<glyph unicode="&#x15b;" horiz-adv-x="401" d="M205 -7q-109 0 -147 19q-3 2 -2 5l11 39q1 3 5 3q2 -1 19 -4.5t50 -7.5t64 -4q26 0 40 1.5t29.5 8t22.5 21.5t7 40v32q0 26 -22 43.5t-84 27.5q-75 11 -106 37t-31 79v39q0 29 9 50.5t22.5 33t33.5 18t37 8.5t39 2t43.5 -2t36 -5t26 -6t17.5 -5l6 -2q1 0 1 -3 q0 -1 -5 -20t-5 -20l-1 -1h-1l-8 2q-7 1 -19.5 3.5t-27 5t-32 4t-32.5 1.5q-87 0 -87 -66v-35q0 -28 20.5 -42.5t73.5 -22.5q74 -10 111.5 -37t37.5 -80v-37q0 -42 -11 -68t-35 -37.5t-46.5 -14.5t-59.5 -3zM196 562q-2 -4 -6 -4h-40q-3 0 -1 4l59 134q1 4 5 4h54q4 0 2 -4z " />
<glyph unicode="&#x15c;" horiz-adv-x="496" d="M246 -10q-109 0 -179 35q-3 1 -1 5l14 42q2 3 4 2q5 -2 24 -8.5t60.5 -14.5t80.5 -8q31 0 51.5 3t42 13t32.5 32t11 57v69q0 49 -32 70.5t-99 27.5q-110 10 -149 46t-39 113v70q0 146 181 146q46 0 85 -7t54 -13t18 -9q4 -2 2 -5l-16 -39q-2 -3 -4 -2q-3 2 -19.5 6 t-51.5 9.5t-68 5.5q-58 0 -90.5 -19t-32.5 -74v-69q0 -49 30 -71.5t99 -29.5q108 -10 149.5 -43.5t41.5 -112.5v-71q0 -41 -12.5 -71t-31 -46t-47 -25.5t-52.5 -11.5t-56 -2zM188 761h-40q-3 0 -1 4q11 22 35 66.5t34 67.5q2 4 6 4h53q5 0 6 -4q0 -1 17.5 -34t35.5 -67 l17 -33q3 -4 -2 -4h-40q-3 0 -5 4l-53 90h-4q-52 -87 -54 -90q-2 -4 -5 -4z" />
<glyph unicode="&#x15d;" horiz-adv-x="401" d="M205 -7q-109 0 -147 19q-3 2 -2 5l11 39q1 3 5 3q2 -1 19 -4.5t50 -7.5t64 -4q26 0 40 1.5t29.5 8t22.5 21.5t7 40v32q0 26 -22 43.5t-84 27.5q-75 11 -106 37t-31 79v39q0 29 9 50.5t22.5 33t33.5 18t37 8.5t39 2t43.5 -2t36 -5t26 -6t17.5 -5l6 -2q1 0 1 -3 q0 -1 -5 -20t-5 -20l-1 -1h-1l-8 2q-7 1 -19.5 3.5t-27 5t-32 4t-32.5 1.5q-87 0 -87 -66v-35q0 -28 20.5 -42.5t73.5 -22.5q74 -10 111.5 -37t37.5 -80v-37q0 -42 -11 -68t-35 -37.5t-46.5 -14.5t-59.5 -3zM142 558h-40q-3 0 -1 4q11 23 35 67t34 67q2 4 6 4h53q5 0 6 -4 q0 -1 17.5 -34t35.5 -66l17 -34q3 -4 -2 -4h-40q-3 0 -5 4l-53 90h-4q-52 -87 -54 -90q-2 -4 -5 -4z" />
<glyph unicode="&#x15e;" horiz-adv-x="496" d="M251 -145h-53q-3 0 -2 4l50 131q-109 0 -179 35q-3 1 -1 5l14 42q2 3 4 2q5 -2 24 -8.5t60.5 -14.5t80.5 -8q31 0 51.5 3t42 13t32.5 32t11 57v69q0 49 -32 70.5t-99 27.5q-110 10 -149 46t-39 113v70q0 146 181 146q46 0 85 -7t54 -13t18 -9q4 -2 2 -5l-16 -39 q-2 -3 -4 -2q-3 2 -19.5 6t-51.5 9.5t-68 5.5q-58 0 -90.5 -19t-32.5 -74v-69q0 -49 30 -71.5t99 -29.5q108 -10 149.5 -43.5t41.5 -112.5v-71q0 -81 -41 -115t-109 -39l-39 -133q-1 -4 -5 -4z" />
<glyph unicode="&#x15f;" horiz-adv-x="401" d="M202 -145h-53q-3 0 -2 4l51 134q-104 1 -140 19q-3 2 -2 5l11 39q1 3 5 3q2 -1 19 -4.5t50 -7.5t64 -4q26 0 40 1.5t29.5 8t22.5 21.5t7 40v32q0 26 -22 43.5t-84 27.5q-75 11 -106 37t-31 79v39q0 29 9 50.5t22.5 33t33.5 18t37 8.5t39 2t43.5 -2t36 -5t26 -6t17.5 -5 l6 -2q1 0 1 -3q0 -1 -5 -20t-5 -20l-1 -1h-1l-8 2q-7 1 -19.5 3.5t-27 5t-32 4t-32.5 1.5q-87 0 -87 -66v-35q0 -28 20.5 -42.5t73.5 -22.5q74 -10 111.5 -37t37.5 -80v-37q0 -67 -28 -92.5t-82 -29.5l-40 -135q-1 -4 -5 -4z" />
<glyph unicode="&#x160;" horiz-adv-x="496" d="M246 -10q-109 0 -179 35q-3 1 -1 5l14 42q2 3 4 2q5 -2 24 -8.5t60.5 -14.5t80.5 -8q31 0 51.5 3t42 13t32.5 32t11 57v69q0 49 -32 70.5t-99 27.5q-110 10 -149 46t-39 113v70q0 146 181 146q46 0 85 -7t54 -13t18 -9q4 -2 2 -5l-16 -39q-2 -3 -4 -2q-3 2 -19.5 6 t-51.5 9.5t-68 5.5q-58 0 -90.5 -19t-32.5 -74v-69q0 -49 30 -71.5t99 -29.5q108 -10 149.5 -43.5t41.5 -112.5v-71q0 -41 -12.5 -71t-31 -46t-47 -25.5t-52.5 -11.5t-56 -2zM308 903h42q3 0 2 -4l-79 -134q-4 -4 -5 -4h-39q-3 0 -7 4q-11 21 -39 66t-40 69q-1 3 1 3h43 q2 0 5 -4l54 -89h5q49 86 51 89q3 4 6 4z" />
<glyph unicode="&#x161;" horiz-adv-x="401" d="M205 -7q-109 0 -147 19q-3 2 -2 5l11 39q1 3 5 3q2 -1 19 -4.5t50 -7.5t64 -4q26 0 40 1.5t29.5 8t22.5 21.5t7 40v32q0 26 -22 43.5t-84 27.5q-75 11 -106 37t-31 79v39q0 29 9 50.5t22.5 33t33.5 18t37 8.5t39 2t43.5 -2t36 -5t26 -6t17.5 -5l6 -2q1 0 1 -3 q0 -1 -5 -20t-5 -20l-1 -1h-1l-8 2q-7 1 -19.5 3.5t-27 5t-32 4t-32.5 1.5q-87 0 -87 -66v-35q0 -28 20.5 -42.5t73.5 -22.5q74 -10 111.5 -37t37.5 -80v-37q0 -42 -11 -68t-35 -37.5t-46.5 -14.5t-59.5 -3zM262 700h42q3 0 2 -4l-79 -134q-4 -4 -5 -4h-39q-3 0 -7 4 q-11 21 -39 66t-40 69q-1 3 1 3h43q2 0 5 -4l54 -89h5q49 86 51 89q3 4 6 4z" />
<glyph unicode="&#x164;" horiz-adv-x="440" d="M195 0q-3 0 -3 4v622h-170q-3 0 -3 4v46q0 4 3 4h397q4 0 4 -4v-46q0 -4 -4 -4h-170v-622q0 -4 -3 -4h-51zM281 903h42q3 0 2 -4l-79 -134q-4 -4 -5 -4h-39q-3 0 -7 4q-11 21 -39 66t-40 69q-2 3 1 3h43q2 0 5 -4l54 -89h5q49 86 51 89q3 4 6 4z" />
<glyph unicode="&#x165;" horiz-adv-x="333" d="M177 -5q-24 0 -37.5 3t-28 14.5t-20.5 38t-6 70.5v308h-46q-3 0 -3 4v40q0 4 3 4h46v159q0 4 3 4h46q4 0 4 -4v-159h79q4 0 4 -4v-40q0 -4 -4 -4h-79v-309q0 -75 37 -75q6 0 16 0.5t17.5 1t8.5 0.5q3 0 4 -3q0 -1 2 -11t4 -18.5t2 -9.5q1 -3 -3 -5q-15 -5 -49 -5z M248 527q-5 -5 -5 3v146q0 4 4 4h47q4 0 4 -4v-100q0 -2 -3 -5z" />
<glyph unicode="&#x168;" horiz-adv-x="529" d="M246 -10q-101 0 -139 61.5t-38 215.5v409q0 4 3 4h51q3 0 3 -4v-403q0 -130 22.5 -179.5t97.5 -49.5h41q76 0 97 48.5t21 180.5v403q0 4 3 4h50q4 0 4 -4v-409q0 -152 -35 -214.5t-141 -62.5h-40zM163 803q-3 0 -3 5v30q0 7 3 10l4 5q4 5 8.5 9.5t11 9.5t15 8t17.5 3 q21 0 49.5 -19t45.5 -19q18 0 34.5 17.5t18.5 17.5q3 0 3 -4v-31q0 -6 -3 -11q-26 -35 -57 -35q-20 0 -48.5 19.5t-44.5 19.5q-18 0 -35.5 -17.5t-18.5 -17.5z" />
<glyph unicode="&#x169;" horiz-adv-x="447" d="M373 477q3 0 3 -4v-469q0 -4 -3 -4h-47q-3 0 -3 4v20q-79 -31 -120 -31q-24 0 -39.5 1.5t-35.5 10t-32 24t-20.5 45.5t-8.5 72v327q0 4 3 4h48q3 0 3 -4v-325q0 -66 21 -85.5t65 -19.5q16 0 45 8t50 16l21 8v398q0 4 3 4h47zM122 600q-3 0 -3 5v30q0 7 3 10l4 5 q4 5 8.5 9.5t11 9.5t15 8t17.5 3q21 0 49.5 -19t45.5 -19q18 0 34.5 17.5t18.5 17.5q3 0 3 -4v-31q0 -6 -3 -11q-26 -35 -57 -35q-20 0 -48.5 19.5t-44.5 19.5q-18 0 -35.5 -17.5t-18.5 -17.5z" />
<glyph unicode="&#x16a;" horiz-adv-x="529" d="M246 -10q-101 0 -139 61.5t-38 215.5v409q0 4 3 4h51q3 0 3 -4v-403q0 -130 22.5 -179.5t97.5 -49.5h41q76 0 97 48.5t21 180.5v403q0 4 3 4h50q4 0 4 -4v-409q0 -152 -35 -214.5t-141 -62.5h-40zM372 821h-215q-3 0 -3 4v42q0 4 3 4h215q3 0 3 -4v-42q0 -4 -3 -4z" />
<glyph unicode="&#x16b;" horiz-adv-x="447" d="M373 477q3 0 3 -4v-469q0 -4 -3 -4h-47q-3 0 -3 4v20q-79 -31 -120 -31q-24 0 -39.5 1.5t-35.5 10t-32 24t-20.5 45.5t-8.5 72v327q0 4 3 4h48q3 0 3 -4v-325q0 -66 21 -85.5t65 -19.5q16 0 45 8t50 16l21 8v398q0 4 3 4h47zM331 618h-215q-3 0 -3 4v42q0 4 3 4h215 q3 0 3 -4v-42q0 -4 -3 -4z" />
<glyph unicode="&#x16c;" horiz-adv-x="529" d="M246 -10q-101 0 -139 61.5t-38 215.5v409q0 4 3 4h51q3 0 3 -4v-403q0 -130 22.5 -179.5t97.5 -49.5h41q76 0 97 48.5t21 180.5v403q0 4 3 4h50q4 0 4 -4v-409q0 -152 -35 -214.5t-141 -62.5h-40zM266 773q-106 0 -106 110q0 5 3 5h24q5 0 6 -5q10 -40 24.5 -53t48.5 -13 q31 0 45.5 13.5t24.5 52.5q1 5 4 5h28q3 0 3 -5q-8 -110 -105 -110z" />
<glyph unicode="&#x16d;" horiz-adv-x="447" d="M373 477q3 0 3 -4v-469q0 -4 -3 -4h-47q-3 0 -3 4v20q-79 -31 -120 -31q-24 0 -39.5 1.5t-35.5 10t-32 24t-20.5 45.5t-8.5 72v327q0 4 3 4h48q3 0 3 -4v-325q0 -66 21 -85.5t65 -19.5q16 0 45 8t50 16l21 8v398q0 4 3 4h47zM226 570q-106 0 -106 110q0 5 3 5h24 q5 0 6 -5q10 -40 24.5 -53t48.5 -13q31 0 45.5 13.5t24.5 52.5q1 5 4 5h28q3 0 3 -5q-8 -110 -105 -110z" />
<glyph unicode="&#x16e;" horiz-adv-x="529" d="M246 -10q-101 0 -139 61.5t-38 215.5v409q0 4 3 4h51q3 0 3 -4v-403q0 -130 22.5 -179.5t97.5 -49.5h41q76 0 97 48.5t21 180.5v403q0 4 3 4h50q4 0 4 -4v-409q0 -152 -35 -214.5t-141 -62.5h-40zM266 746q-16 0 -28 2.5t-24 10t-18.5 23.5t-6.5 41v20q0 75 78 75 q15 0 26 -2t23 -9t18.5 -23t6.5 -41v-20q0 -25 -6.5 -41.5t-18.5 -23.5t-23 -9.5t-27 -2.5zM266 778q21 0 32.5 9.5t11.5 38.5v13q0 28 -11 37.5t-32 9.5q-22 0 -34.5 -10t-12.5 -37v-13q0 -29 12 -38.5t34 -9.5z" />
<glyph unicode="&#x16f;" horiz-adv-x="447" d="M373 477q3 0 3 -4v-469q0 -4 -3 -4h-47q-3 0 -3 4v20q-79 -31 -120 -31q-24 0 -39.5 1.5t-35.5 10t-32 24t-20.5 45.5t-8.5 72v327q0 4 3 4h48q3 0 3 -4v-325q0 -66 21 -85.5t65 -19.5q16 0 45 8t50 16l21 8v398q0 4 3 4h47zM225 543q-16 0 -28 2.5t-24 10t-18.5 23.5 t-6.5 41v20q0 75 78 75q15 0 26 -2t23 -9t18.5 -23t6.5 -41v-20q0 -25 -6.5 -41.5t-18.5 -23.5t-23 -9.5t-27 -2.5zM225 575q21 0 32.5 9.5t11.5 38.5v13q0 28 -11 37.5t-32 9.5q-22 0 -34.5 -10t-12.5 -37v-13q0 -29 12 -38.5t34 -9.5z" />
<glyph unicode="&#x170;" horiz-adv-x="529" d="M246 -10q-101 0 -139 61.5t-38 215.5v409q0 4 3 4h51q3 0 3 -4v-403q0 -130 22.5 -179.5t97.5 -49.5h41q76 0 97 48.5t21 180.5v403q0 4 3 4h50q4 0 4 -4v-409q0 -152 -35 -214.5t-141 -62.5h-40zM223 766q-3 -4 -6 -4h-40q-2 0 -1 4q2 4 30.5 67.5t28.5 65.5q1 4 5 4h54 q3 0 2 -4q0 -1 -18.5 -33.5t-36.5 -65.5t-18 -34zM331 766q-1 -4 -5 -4h-40q-2 0 -1 4q0 1 14.5 33.5t29.5 65.5t15 34q1 4 5 4h53q5 0 2 -4q-1 -1 -36.5 -66.5t-36.5 -66.5z" />
<glyph unicode="&#x171;" horiz-adv-x="447" d="M373 477q3 0 3 -4v-469q0 -4 -3 -4h-47q-3 0 -3 4v20q-79 -31 -120 -31q-24 0 -39.5 1.5t-35.5 10t-32 24t-20.5 45.5t-8.5 72v327q0 4 3 4h48q3 0 3 -4v-325q0 -66 21 -85.5t65 -19.5q16 0 45 8t50 16l21 8v398q0 4 3 4h47zM183 563q-3 -4 -6 -4h-40q-2 0 -1 4 q2 5 30.5 68t28.5 65q1 4 5 4h54q3 0 2 -4q0 -1 -18.5 -33.5t-36.5 -65.5t-18 -34zM291 563q-1 -4 -5 -4h-40q-2 0 -1 4q0 1 14.5 33.5t29.5 65.5t15 34q1 4 5 4h53q5 0 2 -4q-1 -1 -36.5 -66.5t-36.5 -66.5z" />
<glyph unicode="&#x172;" horiz-adv-x="529" d="M249 -178q-30 0 -46.5 13.5t-16.5 51.5q0 54 54 103q-97 1 -134 63t-37 214v409q0 4 3 4h51q3 0 3 -4v-403q0 -130 22.5 -179.5t97.5 -49.5h41q76 0 97 48.5t21 180.5v403q0 4 3 4h50q4 0 4 -4v-409q0 -149 -33.5 -211.5t-132.5 -65.5q-64 -57 -64 -95q0 -16 6 -21t19 -5 q10 0 25 10q4 2 5 -2q2 -2 13 -24q2 -7 0 -9q-22 -22 -51 -22z" />
<glyph unicode="&#x173;" horiz-adv-x="447" d="M320 -172q-30 0 -46.5 13.5t-16.5 51.5q0 35 17 60t48 53l1 1v17q-79 -31 -120 -31q-24 0 -39.5 1.5t-35.5 10t-32 24t-20.5 45.5t-8.5 72v327q0 4 3 4h48q3 0 3 -4v-325q0 -66 21 -85.5t65 -19.5q16 0 45 8t50 16l21 8v398q0 4 3 4h47q3 0 3 -4v-469q0 -4 -3 -4h-1 q-69 -60 -69 -99q0 -16 6 -21t19 -5q10 0 25 10q4 2 5 -2q2 -2 13 -24q2 -7 0 -9q-22 -22 -51 -22z" />
<glyph unicode="&#x174;" horiz-adv-x="686" d="M150 0q-1 0 -3 4q0 2 -29.5 169.5t-59 334.5t-29.5 168q-1 4 2 4h53q3 0 4 -4l96 -578h15q117 434 118 436q1 3 4 3h46q3 0 4 -3l117 -436h16q95 575 96 578q1 4 5 4h52q3 0 2 -4l-117 -672q-1 -4 -3 -4h-73q-2 0 -3 3l-114 421h-9q-114 -417 -114 -420q-2 -4 -4 -4h-72z M283 761h-40q-3 0 -1 4q10 22 34.5 66.5t34.5 67.5q2 4 6 4h53q5 0 6 -4q0 -1 17.5 -34t34.5 -67l18 -33q3 -4 -2 -4h-40q-3 0 -5 4l-53 90h-4q-52 -87 -54 -90q-2 -4 -5 -4z" />
<glyph unicode="&#x175;" horiz-adv-x="614" d="M158 0q-3 0 -4 4l-108 469q-1 4 1 4h50q4 0 5 -4l82 -376h8q91 283 91 286q0 4 3 4h43q3 0 4 -4l92 -286h9q77 373 78 376q2 4 5 4h51q2 0 1 -4q0 -1 -27 -118.5t-54 -233.5t-27 -117q-1 -4 -4 -4h-49q-3 0 -4 4l-92 297h-9q-92 -295 -93 -297q-1 -4 -4 -4h-48zM247 558 h-40q-3 0 -1 4q10 23 34 67t35 67q2 4 6 4h53q5 0 6 -4q0 -1 17.5 -34t34.5 -66l18 -34q3 -4 -2 -4h-40q-3 0 -5 4l-53 90h-4q-52 -87 -54 -90q-2 -4 -5 -4z" />
<glyph unicode="&#x176;" horiz-adv-x="434" d="M193 0q-3 0 -3 4v272q-173 397 -174 400q-2 4 2 4h57q1 0 4 -4l137 -327h5q135 324 137 327q3 4 4 4h56q3 0 2 -4l-173 -400v-272q0 -4 -3 -4h-51zM157 761h-40q-3 0 -1 4q10 22 34 66.5t35 67.5q2 4 6 4h53q5 0 6 -4q0 -1 17.5 -34t34.5 -67l18 -33q3 -4 -2 -4h-40 q-3 0 -5 4l-53 90h-4q-52 -87 -54 -90q-2 -4 -5 -4z" />
<glyph unicode="&#x177;" horiz-adv-x="393" d="M58 -180q-3 0 -3 4q0 2 3 22t3 21q0 4 4 4h20q22 0 36.5 16t33.5 74l14 49q-143 460 -144 463q-1 4 2 4h51q3 0 4 -4l113 -377h9q110 374 110 377q1 4 5 4h50q3 0 2 -4l-164 -519q-16 -49 -29 -77t-28.5 -40.5t-26.5 -14.5t-35 -2h-30zM139 558h-40q-3 0 -1 4 q11 23 34.5 67t34.5 67q2 4 6 4h53q5 0 6 -4q0 -1 17.5 -34t34.5 -66l18 -34q3 -4 -2 -4h-40q-3 0 -5 4l-53 90h-4q-52 -87 -54 -90q-2 -4 -5 -4z" />
<glyph unicode="&#x178;" horiz-adv-x="434" d="M193 0q-3 0 -3 4v272q-173 397 -174 400q-2 4 2 4h57q1 0 4 -4l137 -327h5q135 324 137 327q3 4 4 4h56q3 0 2 -4l-173 -400v-272q0 -4 -3 -4h-51zM113 805q-4 0 -4 4v67q0 4 4 4h48q3 0 3 -4v-67q0 -4 -3 -4h-48zM278 805q-3 0 -3 4v67q0 4 3 4h48q3 0 3 -4v-67 q0 -4 -3 -4h-48z" />
<glyph unicode="&#x179;" horiz-adv-x="450" d="M46 0q-2 0 -2 2v56q0 3 1 4l296 555v8h-284q-3 0 -3 4v46q0 5 3 5h346q4 0 4 -5v-51q0 -7 -2 -10l-295 -552v-8h293q4 0 4 -4v-46q0 -4 -3 -4h-358zM230 765q-2 -4 -6 -4h-40q-3 0 -1 4l59 134q1 4 5 4h54q4 0 2 -4z" />
<glyph unicode="&#x17a;" horiz-adv-x="390" d="M51 0q-3 0 -3 4v44q0 2 3 8l225 362v7h-215q-3 0 -3 4v44q0 4 3 4h280q4 0 4 -4v-43q0 -4 -3 -7l-225 -364v-8h225q3 0 3 -4v-43q0 -4 -3 -4h-291zM199 562q-2 -4 -6 -4h-40q-3 0 -1 4l59 134q1 4 5 4h54q4 0 2 -4z" />
<glyph unicode="&#x17b;" horiz-adv-x="450" d="M46 0q-2 0 -2 2v56q0 3 1 4l296 555v8h-284q-3 0 -3 4v46q0 5 3 5h346q4 0 4 -5v-51q0 -7 -2 -10l-295 -552v-8h293q4 0 4 -4v-46q0 -4 -3 -4h-358zM207 806q-4 0 -4 4v69q0 4 4 4h54q3 0 3 -4v-69q0 -4 -3 -4h-54z" />
<glyph unicode="&#x17c;" horiz-adv-x="390" d="M51 0q-3 0 -3 4v44q0 2 3 8l225 362v7h-215q-3 0 -3 4v44q0 4 3 4h280q4 0 4 -4v-43q0 -4 -3 -7l-225 -364v-8h225q3 0 3 -4v-43q0 -4 -3 -4h-291zM173 603q-4 0 -4 4v69q0 4 4 4h54q3 0 3 -4v-69q0 -4 -3 -4h-54z" />
<glyph unicode="&#x17d;" horiz-adv-x="450" d="M46 0q-2 0 -2 2v56q0 3 1 4l296 555v8h-284q-3 0 -3 4v46q0 5 3 5h346q4 0 4 -5v-51q0 -7 -2 -10l-295 -552v-8h293q4 0 4 -4v-46q0 -4 -3 -4h-358zM286 903h42q3 0 2 -4l-79 -134q-4 -4 -5 -4h-39q-3 0 -7 4q-11 21 -39 66t-40 69q-1 3 1 3h43q2 0 5 -4l54 -89h5 q49 86 51 89q3 4 6 4z" />
<glyph unicode="&#x17e;" horiz-adv-x="390" d="M51 0q-3 0 -3 4v44q0 2 3 8l225 362v7h-215q-3 0 -3 4v44q0 4 3 4h280q4 0 4 -4v-43q0 -4 -3 -7l-225 -364v-8h225q3 0 3 -4v-43q0 -4 -3 -4h-291zM256 700h42q3 0 2 -4l-79 -134q-4 -4 -5 -4h-39q-3 0 -7 4q-11 21 -39 66t-40 69q-1 3 1 3h43q2 0 5 -4l54 -89h5 q49 86 51 89q3 4 6 4z" />
<glyph unicode="&#x192;" horiz-adv-x="387" d="M126 -185q-8 0 -20 1.5t-21 3t-10 1.5q-2 0 -2 5q0 1 3.5 19t3.5 19q0 3 4 3q1 0 9 -0.5t19 -1t18 -0.5q36 0 36 75v418h-61q-4 0 -4 4v40q0 4 4 4h61v153q0 76 25.5 101t69.5 25q5 0 17.5 -1.5t22.5 -3t11 -1.5q2 -1 2 -5q0 -2 -4 -20l-3 -18q0 -3 -4 -3l-17 1 q-18 1 -29 1q-36 0 -36 -75v-154h63q4 0 4 -4v-40q0 -4 -4 -4h-63v-417q0 -74 -25 -100t-70 -26z" />
<glyph unicode="&#x218;" horiz-adv-x="496" d="M246 -10q-109 0 -179 35q-3 1 -1 5l14 42q2 3 4 2q5 -2 24 -8.5t60.5 -14.5t80.5 -8q31 0 51.5 3t42 13t32.5 32t11 57v69q0 49 -32 70.5t-99 27.5q-110 10 -149 46t-39 113v70q0 146 181 146q46 0 85 -7t54 -13t18 -9q4 -2 2 -5l-16 -39q-2 -3 -4 -2q-3 2 -19.5 6 t-51.5 9.5t-68 5.5q-58 0 -90.5 -19t-32.5 -74v-69q0 -49 30 -71.5t99 -29.5q108 -10 149.5 -43.5t41.5 -112.5v-71q0 -41 -12.5 -71t-31 -46t-47 -25.5t-52.5 -11.5t-56 -2zM233 -248q-5 -5 -5 3v146q0 4 4 4h47q4 0 4 -4v-100q0 -2 -3 -5z" />
<glyph unicode="&#x219;" horiz-adv-x="401" d="M205 -7q-109 0 -147 19q-3 2 -2 5l11 39q1 3 5 3q2 -1 19 -4.5t50 -7.5t64 -4q26 0 40 1.5t29.5 8t22.5 21.5t7 40v32q0 26 -22 43.5t-84 27.5q-75 11 -106 37t-31 79v39q0 29 9 50.5t22.5 33t33.5 18t37 8.5t39 2t43.5 -2t36 -5t26 -6t17.5 -5l6 -2q1 0 1 -3 q0 -1 -5 -20t-5 -20l-1 -1h-1l-8 2q-7 1 -19.5 3.5t-27 5t-32 4t-32.5 1.5q-87 0 -87 -66v-35q0 -28 20.5 -42.5t73.5 -22.5q74 -10 111.5 -37t37.5 -80v-37q0 -42 -11 -68t-35 -37.5t-46.5 -14.5t-59.5 -3zM191 -248q-5 -5 -5 3v146q0 4 4 4h47q4 0 4 -4v-100q0 -2 -3 -5z " />
<glyph unicode="&#x21a;" horiz-adv-x="440" d="M195 0q-3 0 -3 4v622h-170q-3 0 -3 4v46q0 4 3 4h397q4 0 4 -4v-46q0 -4 -4 -4h-170v-622q0 -4 -3 -4h-51zM197 -248q-5 -5 -5 3v146q0 4 4 4h47q4 0 4 -4v-100q0 -2 -3 -5z" />
<glyph unicode="&#x21b;" horiz-adv-x="263" d="M177 -5q-24 0 -37.5 3t-28 14.5t-20.5 38t-6 70.5v308h-46q-3 0 -3 4v40q0 4 3 4h46v159q0 4 3 4h46q4 0 4 -4v-159h79q4 0 4 -4v-40q0 -4 -4 -4h-79v-309q0 -75 37 -75q6 0 16 0.5t17.5 1t8.5 0.5q3 0 4 -3q0 -1 2 -11t4 -18.5t2 -9.5q1 -3 -3 -5q-15 -5 -49 -5z M122 -248q-5 -5 -5 3v146q0 4 4 4h47q4 0 4 -4v-100q0 -2 -3 -5z" />
<glyph unicode="&#x2c6;" d="M117 558h-40q-3 0 -1 4q11 23 35 67t34 67q2 4 6 4h53q5 0 6 -4q0 -1 17.5 -34t34.5 -66l18 -34q3 -4 -2 -4h-40q-3 0 -5 4l-53 90h-4q-52 -87 -54 -90q-2 -4 -5 -4z" />
<glyph unicode="&#x2c7;" horiz-adv-x="357" d="M239 700h42q3 0 2 -4l-79 -134q-4 -4 -5 -4h-39q-3 0 -7 4q-11 21 -39 66t-40 69q-2 3 1 3h43q2 0 5 -4l54 -89h5q49 86 51 89q3 4 6 4z" />
<glyph unicode="&#x2d8;" d="M179 570q-106 0 -106 110q0 5 3 5h24q5 0 6 -5q10 -40 24.5 -53t48.5 -13q31 0 45.5 13.5t24.5 52.5q1 5 4 5h28q3 0 3 -5q-8 -110 -105 -110z" />
<glyph unicode="&#x2d9;" d="M151 603q-4 0 -4 4v69q0 4 4 4h54q3 0 3 -4v-69q0 -4 -3 -4h-54z" />
<glyph unicode="&#x2da;" d="M177 575q21 0 32.5 9.5t11.5 38.5v13q0 28 -11 37.5t-32 9.5q-22 0 -34.5 -10t-12.5 -37v-13q0 -29 12 -38.5t34 -9.5zM177 543q-16 0 -28 2.5t-24 10t-18.5 23.5t-6.5 41v20q0 75 78 75q15 0 26 -2t23 -9t18.5 -23t6.5 -41v-20q0 -25 -6.5 -41.5t-18.5 -23.5t-23 -9.5 t-27 -2.5z" />
<glyph unicode="&#x2db;" d="M180 -172q-30 0 -46.5 13.5t-16.5 51.5q0 35 17 60t48 53q4 4 12 4h37q3 0 4 -3t-2 -6q-70 -61 -70 -100q0 -16 6 -21t19 -5q10 0 25 10q4 2 5 -2q2 -2 13 -24q2 -7 0 -9q-22 -22 -51 -22z" />
<glyph unicode="&#x2dc;" d="M75 600q-3 0 -3 5v30q0 7 3 10l4 5q4 5 8.5 9.5t11 9.5t15 8t17.5 3q21 0 49.5 -19t45.5 -19q18 0 34.5 17.5t18.5 17.5q3 0 3 -4v-31q0 -6 -3 -11q-26 -35 -57 -35q-20 0 -48.5 19.5t-44.5 19.5q-18 0 -35.5 -17.5t-18.5 -17.5z" />
<glyph unicode="&#x2dd;" horiz-adv-x="357" d="M114 563q-3 -4 -6 -4h-40q-2 0 -1 4q2 5 30.5 68t28.5 65q1 4 5 4h54q3 0 2 -4q0 -1 -18.5 -33.5t-36.5 -65.5t-18 -34zM222 563q-1 -4 -5 -4h-40q-2 0 -1 4q0 1 14.5 33.5t29.5 65.5t15 34q1 4 5 4h53q5 0 2 -4q-1 -1 -36.5 -66.5t-36.5 -66.5z" />
<glyph unicode="&#x1e80;" horiz-adv-x="686" d="M150 0q-1 0 -3 4q0 2 -29.5 169.5t-59 334.5t-29.5 168q-1 4 2 4h53q3 0 4 -4l96 -578h15q117 434 118 436q1 3 4 3h46q3 0 4 -3l117 -436h16q95 575 96 578q1 4 5 4h52q3 0 2 -4l-117 -672q-1 -4 -3 -4h-73q-2 0 -3 3l-114 421h-9q-114 -417 -114 -420q-2 -4 -4 -4h-72z M348 765l-74 134q-1 4 1 4h54q4 0 5 -4l60 -134q2 -4 -2 -4h-40q-4 0 -4 4z" />
<glyph unicode="&#x1e81;" horiz-adv-x="614" d="M158 0q-3 0 -4 4l-108 469q-1 4 1 4h50q4 0 5 -4l82 -376h8q91 283 91 286q0 4 3 4h43q3 0 4 -4l92 -286h9q77 373 78 376q2 4 5 4h51q2 0 1 -4q0 -1 -27 -118.5t-54 -233.5t-27 -117q-1 -4 -4 -4h-49q-3 0 -4 4l-92 297h-9q-92 -295 -93 -297q-1 -4 -4 -4h-48zM312 562 l-74 134q-1 4 1 4h54q4 0 5 -4l60 -134q2 -4 -2 -4h-40q-4 0 -4 4z" />
<glyph unicode="&#x1e82;" horiz-adv-x="686" d="M150 0q-1 0 -3 4q0 2 -29.5 169.5t-59 334.5t-29.5 168q-1 4 2 4h53q3 0 4 -4l96 -578h15q117 434 118 436q1 3 4 3h46q3 0 4 -3l117 -436h16q95 575 96 578q1 4 5 4h52q3 0 2 -4l-117 -672q-1 -4 -3 -4h-73q-2 0 -3 3l-114 421h-9q-114 -417 -114 -420q-2 -4 -4 -4h-72z M339 765q-2 -4 -6 -4h-40q-3 0 -1 4l59 134q1 4 5 4h54q4 0 2 -4z" />
<glyph unicode="&#x1e83;" horiz-adv-x="614" d="M158 0q-3 0 -4 4l-108 469q-1 4 1 4h50q4 0 5 -4l82 -376h8q91 283 91 286q0 4 3 4h43q3 0 4 -4l92 -286h9q77 373 78 376q2 4 5 4h51q2 0 1 -4q0 -1 -27 -118.5t-54 -233.5t-27 -117q-1 -4 -4 -4h-49q-3 0 -4 4l-92 297h-9q-92 -295 -93 -297q-1 -4 -4 -4h-48zM311 562 q-2 -4 -6 -4h-40q-3 0 -1 4l59 134q1 4 5 4h54q4 0 2 -4z" />
<glyph unicode="&#x1e84;" horiz-adv-x="686" d="M150 0q-1 0 -3 4q0 2 -29.5 169.5t-59 334.5t-29.5 168q-1 4 2 4h53q3 0 4 -4l96 -578h15q117 434 118 436q1 3 4 3h46q3 0 4 -3l117 -436h16q95 575 96 578q1 4 5 4h52q3 0 2 -4l-117 -672q-1 -4 -3 -4h-73q-2 0 -3 3l-114 421h-9q-114 -417 -114 -420q-2 -4 -4 -4h-72z M237 808q-4 0 -4 4v67q0 4 4 4h48q3 0 3 -4v-67q0 -4 -3 -4h-48zM402 808q-3 0 -3 4v67q0 4 3 4h48q3 0 3 -4v-67q0 -4 -3 -4h-48z" />
<glyph unicode="&#x1e85;" horiz-adv-x="614" d="M158 0q-3 0 -4 4l-108 469q-1 4 1 4h50q4 0 5 -4l82 -376h8q91 283 91 286q0 4 3 4h43q3 0 4 -4l92 -286h9q77 373 78 376q2 4 5 4h51q2 0 1 -4q0 -1 -27 -118.5t-54 -233.5t-27 -117q-1 -4 -4 -4h-49q-3 0 -4 4l-92 297h-9q-92 -295 -93 -297q-1 -4 -4 -4h-48zM201 605 q-4 0 -4 4v67q0 4 4 4h48q3 0 3 -4v-67q0 -4 -3 -4h-48zM366 605q-3 0 -3 4v67q0 4 3 4h48q3 0 3 -4v-67q0 -4 -3 -4h-48z" />
<glyph unicode="&#x1e9e;" horiz-adv-x="501" d="M72 0q-3 0 -3 4v473q0 62 14.5 104t42 62.5t56.5 28.5t68 8h168q4 0 4 -4v-50q0 -2 -2 -6l-105 -222q121 -21 121 -165v-68q0 -45 -12 -77t-28.5 -49t-46 -26t-53.5 -11t-61 -2q-4 0 -4 4v44q0 4 4 4q35 0 55.5 3t44.5 13.5t35 36t11 65.5v59q0 121 -123 121q-3 0 -3 4 v44l109 230h-114q-60 0 -92.5 -32t-32.5 -119v-473q0 -4 -3 -4h-50z" />
<glyph unicode="&#x2000;" horiz-adv-x="459" />
<glyph unicode="&#x2001;" horiz-adv-x="918" />
<glyph unicode="&#x2002;" horiz-adv-x="459" />
<glyph unicode="&#x2003;" horiz-adv-x="918" />
<glyph unicode="&#x2004;" horiz-adv-x="306" />
<glyph unicode="&#x2005;" horiz-adv-x="229" />
<glyph unicode="&#x2006;" horiz-adv-x="153" />
<glyph unicode="&#x2007;" horiz-adv-x="153" />
<glyph unicode="&#x2008;" horiz-adv-x="114" />
<glyph unicode="&#x2009;" horiz-adv-x="183" />
<glyph unicode="&#x200a;" horiz-adv-x="51" />
<glyph unicode="&#x2010;" horiz-adv-x="314" d="M45 250q-4 0 -4 4v42q0 4 4 4h225q4 0 4 -4v-42q0 -4 -4 -4h-225z" />
<glyph unicode="&#x2011;" horiz-adv-x="314" d="M45 250q-4 0 -4 4v42q0 4 4 4h225q4 0 4 -4v-42q0 -4 -4 -4h-225z" />
<glyph unicode="&#x2012;" horiz-adv-x="314" d="M45 250q-4 0 -4 4v42q0 4 4 4h225q4 0 4 -4v-42q0 -4 -4 -4h-225z" />
<glyph unicode="&#x2013;" horiz-adv-x="374" d="M32 250q-3 0 -3 4v42q0 4 3 4h309q4 0 4 -4v-42q0 -4 -4 -4h-309z" />
<glyph unicode="&#x2014;" horiz-adv-x="475" d="M16 250q-3 0 -3 4v42q0 4 3 4h442q4 0 4 -4v-42q0 -4 -4 -4h-442z" />
<glyph unicode="&#x2018;" horiz-adv-x="176" d="M110 684q5 5 5 -3v-146q0 -4 -4 -4h-47q-4 0 -4 4v100q0 2 3 5q9 6 47 44z" />
<glyph unicode="&#x2019;" horiz-adv-x="176" d="M65 527q-5 -5 -5 3v146q0 4 4 4h47q4 0 4 -4v-100q0 -2 -3 -5z" />
<glyph unicode="&#x201a;" horiz-adv-x="176" d="M66 -49q-5 -5 -5 3v146q0 4 4 4h47q4 0 4 -4v-100q0 -2 -3 -5z" />
<glyph unicode="&#x201c;" horiz-adv-x="296" d="M110 684q5 5 5 -3v-146q0 -4 -4 -4h-47q-4 0 -4 4v100q0 2 3 5q9 6 47 44zM230 684q4 4 4 -3v-146q0 -4 -3 -4h-47q-3 0 -3 4v100q0 3 2 5z" />
<glyph unicode="&#x201d;" horiz-adv-x="296" d="M65 527q-5 -5 -5 3v146q0 4 4 4h47q4 0 4 -4v-100q0 -2 -3 -5zM185 527q-4 -4 -4 3v146q0 4 3 4h47q3 0 3 -4v-100q0 -3 -2 -5z" />
<glyph unicode="&#x201e;" horiz-adv-x="296" d="M66 -49q-5 -5 -5 3v146q0 4 4 4h47q4 0 4 -4v-100q0 -2 -3 -5zM186 -49q-5 -5 -5 3v146q0 4 3 4h48q3 0 3 -4v-100q0 -2 -3 -5q0 -1 -7.5 -8t-15.5 -14.5t-15 -14.5z" />
<glyph unicode="&#x2020;" horiz-adv-x="382" d="M169 -180q-3 0 -3 4v558h-126q-3 0 -3 4v42q0 4 3 4h126v244q0 4 3 4h45q3 0 3 -4v-244h124q3 0 3 -4v-42q0 -4 -3 -4h-124v-558q0 -4 -3 -4h-45z" />
<glyph unicode="&#x2021;" horiz-adv-x="382" d="M169 -180q-3 0 -3 4v219h-126q-3 0 -3 4v42q0 4 3 4h126v314h-126q-3 0 -3 4v42q0 4 3 4h126v219q0 4 3 4h45q3 0 3 -4v-219h124q3 0 3 -4v-42q0 -4 -3 -4h-124v-314h124q3 0 3 -4v-42q0 -4 -3 -4h-124v-219q0 -4 -3 -4h-45z" />
<glyph unicode="&#x2022;" horiz-adv-x="318" d="M159 221q-15 0 -26.5 2.5t-23.5 10t-18.5 23.5t-6.5 41v20q0 44 21 59.5t56 15.5q15 0 26 -2t22.5 -9t18 -23t6.5 -41v-20q0 -47 -20.5 -62t-54.5 -15z" />
<glyph unicode="&#x2026;" horiz-adv-x="556" d="M78 0q-4 0 -4 4v74q0 4 4 4h59q3 0 3 -4v-74q0 -4 -3 -4h-59zM419 0q-4 0 -4 4v74q0 4 4 4h59q3 0 3 -4v-74q0 -4 -3 -4h-59zM249 0q-4 0 -4 4v74q0 4 4 4h58q4 0 4 -4v-74q0 -4 -4 -4h-58z" />
<glyph unicode="&#x202f;" horiz-adv-x="183" />
<glyph unicode="&#x2030;" horiz-adv-x="872" d="M176 -5h-44q-4 0 -1 4q48 115 157.5 342.5t156.5 339.5q1 4 5 4h43q5 0 2 -4q-1 -2 -157 -341t-157 -341q-2 -4 -5 -4zM458 36q27 0 42 12.5t15 49.5v97q0 36 -14 48t-41 12t-42.5 -12.5t-15.5 -47.5v-97q0 -37 15 -49.5t41 -12.5zM458 -5q-20 0 -34.5 3t-30 12.5 t-23.5 31t-8 53.5v105q0 57 27 76.5t72 19.5q19 0 33 -3t29.5 -11.5t23.5 -29t8 -52.5v-105q0 -33 -8 -54t-23.5 -30.5t-30 -12.5t-35.5 -3zM170 425q27 0 42 12.5t15 49.5v97q0 35 -14 47.5t-41 12.5t-42.5 -12.5t-15.5 -47.5v-97q0 -38 14.5 -50t41.5 -12zM170 384 q-28 0 -46.5 5t-34.5 28.5t-16 65.5v105q0 57 27.5 77t71.5 20q20 0 34 -3t29.5 -11.5t24 -29.5t8.5 -53v-105q0 -61 -27 -80t-71 -19zM702 36q28 0 42.5 12t14.5 50v97q0 36 -14 48t-41 12q-28 0 -43 -12.5t-15 -47.5v-97q0 -38 14.5 -50t41.5 -12zM702 -5q-20 0 -34.5 3 t-30 12.5t-24 31t-8.5 53.5v105q0 57 27.5 76.5t72.5 19.5q20 0 33.5 -3t29 -11.5t23.5 -29t8 -52.5v-105q0 -62 -26 -81t-71 -19z" />
<glyph unicode="&#x2039;" horiz-adv-x="256" d="M189 453l28 -28q2 -2 0 -6l-129 -154q128 -152 129 -154q3 -3 0 -6l-28 -28q-3 -3 -4 0q-1 1 -79.5 92.5t-79.5 92.5q-2 4 0 6l159 185q2 2 4 0z" />
<glyph unicode="&#x203a;" horiz-adv-x="256" d="M68 76l-28 28q-3 3 0 6l128 154q-127 152 -128 154q-3 3 0 6l28 28q3 3 4 0q1 -1 78.5 -92t79.5 -93q3 -3 0 -6q-2 -2 -79.5 -93t-78.5 -92q-2 -2 -4 0z" />
<glyph unicode="&#x2044;" horiz-adv-x="342" d="M67 -4q-2 0 -2 4q0 1 81 339.5t82 341.5q1 4 4 4h45q3 0 2 -4q-1 -1 -81.5 -340t-80.5 -341q-1 -4 -4 -4h-46z" />
<glyph unicode="&#x205f;" horiz-adv-x="229" />
<glyph unicode="&#x2070;" horiz-adv-x="288" d="M144 304q39 0 57 21t18 90v121q0 67 -18 87.5t-57 20.5q-38 0 -56 -20.5t-18 -87.5v-121q0 -70 18 -90.5t56 -20.5zM144 267q-25 0 -40.5 3.5t-34.5 16.5t-28 44t-9 80v130q0 47 9 77t27 42.5t34.5 16.5t41.5 4q20 0 32 -1.5t29 -9t27 -21.5t17 -41.5t7 -66.5v-130 q0 -40 -7 -68.5t-16.5 -43t-26.5 -22t-29.5 -9t-32.5 -1.5z" />
<glyph unicode="&#x2074;" horiz-adv-x="267" d="M197 270h-30q-3 0 -3 2v78h-134q-2 0 -2 1v37q0 3 1 4t51.5 142t50.5 142l2 2h35v-2l-100 -284v-5h96v86q0 2 2 2h31q2 0 2 -2v-86h39q3 0 3 -3v-32q0 -2 -3 -2h-39v-78q0 -2 -2 -2z" />
<glyph unicode="&#x2075;" horiz-adv-x="267" d="M132 267q-24 0 -45.5 4t-31.5 8t-11 5q-2 2 -1 3q5 17 5 28q0 2 4 2l5 -1q5 -2 13.5 -4t18 -3.5t21.5 -3t22 -1.5q65 0 65 52v41q0 69 -56 69h-89q-2 0 -2 2v205q0 5 5 5h162q2 0 2 -2v-31q0 -3 -2 -3h-133v-141h58q17 0 29.5 -3t28 -12t24.5 -31.5t9 -56.5v-43 q0 -88 -101 -88z" />
<glyph unicode="&#x2076;" horiz-adv-x="262" d="M133 302q28 0 44.5 15.5t16.5 63.5v20q0 43 -15.5 59.5t-45.5 16.5q-7 0 -23 -3.5t-28 -7.5l-12 -3v-106q0 -28 18 -41.5t45 -13.5zM134 267q-101 0 -101 88v234q0 52 30.5 72t69.5 20q15 0 28.5 -2t23 -4.5t16.5 -4.5t11 -4l4 -2q1 0 1 -3q0 -1 -3 -15l-4 -13 q0 -2 -2 -2l-5 1q-5 2 -12 4t-16 3.5t-20 3t-21 1.5q-64 0 -64 -56v-90q46 15 67 15q18 0 30.5 -2.5t28.5 -12t24.5 -33t8.5 -60.5v-27q0 -37 -9 -61.5t-26 -34t-29.5 -12.5t-30.5 -3z" />
<glyph unicode="&#x2077;" horiz-adv-x="261" d="M102 270h-34q-2 0 -1 2l119 364v5h-147q-2 0 -2 2v32q0 3 2 3h186q1 -1 1 -2v-35v-3l-1 -1l-60 -182q-60 -182 -60 -183q0 -2 -3 -2z" />
<glyph unicode="&#x2078;" horiz-adv-x="267" d="M134 302q31 0 46.5 13.5t15.5 55.5v25q0 41 -16 55.5t-44 14.5q-30 0 -47 -14.5t-17 -55.5v-25q0 -41 15 -55t47 -14zM134 502q59 0 59 58v25q0 61 -57 61q-61 0 -61 -61v-25q0 -58 59 -58zM134 266q-46 0 -72 20.5t-26 81.5v31q0 28 10 49t20 28l9 7v2q-4 2 -9.5 6.5 t-15 23t-9.5 41.5v31q0 94 96 94q90 0 90 -94v-31q0 -22 -8 -39.5t-16 -24.5l-8 -6v-2q4 -2 10 -7t16.5 -27t10.5 -51v-31q0 -62 -26 -82t-72 -20z" />
<glyph unicode="&#x2079;" horiz-adv-x="266" d="M133 646q-30 0 -46.5 -15t-16.5 -64v-29q0 -44 15.5 -60t46.5 -16q7 0 23 4t28 8l12 3v114q0 55 -62 55zM131 681q100 0 100 -87v-235q0 -52 -30 -72t-69 -20q-23 0 -44 3.5t-30.5 7t-10.5 4.5q-2 2 -1 4q1 1 4 14t3 14t3 1l4 -1q5 -1 13 -2.5t17 -3.5t20.5 -3t21.5 -1 q63 0 63 56v81q-45 -14 -67 -14q-18 0 -30.5 2.5t-29 12t-25 33t-8.5 59.5v36q0 38 9 62t26 34t30 12.5t31 2.5z" />
<glyph unicode="&#x2080;" horiz-adv-x="288" d="M144 34q39 0 57 21t18 90v121q0 67 -18 87.5t-57 20.5q-38 0 -56 -20.5t-18 -87.5v-121q0 -70 18 -90.5t56 -20.5zM144 -3q-25 0 -40.5 3.5t-34.5 16.5t-28 44t-9 80v130q0 47 9 77t27 42.5t34.5 16.5t41.5 4q20 0 32 -1.5t29 -9t27 -21.5t17 -41.5t7 -66.5v-130 q0 -40 -7 -68.5t-16.5 -43t-26.5 -22t-29.5 -9t-32.5 -1.5z" />
<glyph unicode="&#x2081;" horiz-adv-x="256" d="M159 0h-30q-2 0 -2 2v359q-64 -58 -65 -59q-2 -2 -2 1q0 1 -4 17l-4 15q0 2 2 4l71 68q1 1 4 1h30q2 0 2 -2v-404q0 -2 -2 -2z" />
<glyph unicode="&#x2082;" horiz-adv-x="263" d="M222 0h-186l-2 1v38q0 2 1 3q9 13 25.5 34.5t25.5 33.5t23 31t22 30.5t18 26.5t15.5 25.5t11 22t8 20t2.5 15.5v39q0 34 -17 44t-48 10q-15 0 -33.5 -3.5t-29 -6.5t-10.5 -4q-3 0 -3 2q0 1 -3 14l-4 14q0 2 1 3q36 18 82 18q101 0 101 -89v-42q0 -19 -8.5 -41.5 t-33.5 -60.5t-40 -59t-56 -77v-5h138q3 0 3 -2v-33q0 -2 -3 -2z" />
<glyph unicode="&#x2083;" horiz-adv-x="266" d="M41 14q-1 1 -1 3q7 14 7 29q0 1 3 1l5 -1q5 -2 13 -4t17.5 -3.5t21.5 -3t22 -1.5q19 0 30.5 2t23.5 14.5t12 36.5v40q0 26 -11.5 41.5t-22 18.5t-22.5 3h-35q-3 0 -3 2v31q0 2 3 2h35q19 0 34 14.5t15 41.5v40q0 24 -11 36.5t-22.5 14.5t-29.5 2q-16 0 -34.5 -3t-29 -6 t-11.5 -4q-2 -2 -2 1q0 1 -4 15l-4 14q0 2 1 3t10 5t30 8t43 4q100 0 100 -88v-41q0 -21 -6.5 -38t-13.5 -24l-6 -7v-4q4 -2 9.5 -7t14.5 -26t9 -49v-42q0 -24 -7 -41t-17 -26t-25.5 -14t-26.5 -6t-26 -1q-23 0 -45 4t-32 9z" />
<glyph unicode="&#x2084;" horiz-adv-x="267" d="M197 0h-30q-3 0 -3 2v78h-134q-2 0 -2 1v37q0 3 1 4t51.5 142t50.5 142l2 2h35v-2l-100 -284v-5h96v86q0 2 2 2h31q2 0 2 -2v-86h39q3 0 3 -3v-32q0 -2 -3 -2h-39v-78q0 -2 -2 -2z" />
<glyph unicode="&#x2085;" horiz-adv-x="267" d="M132 -3q-24 0 -45.5 4t-31.5 8t-11 5q-2 2 -1 3q5 17 5 28q0 2 4 2l5 -1q5 -2 13.5 -4t18 -3.5t21.5 -3t22 -1.5q65 0 65 52v41q0 69 -56 69h-89q-2 0 -2 2v205q0 5 5 5h162q2 0 2 -2v-31q0 -3 -2 -3h-133v-141h58q17 0 29.5 -3t28 -12t24.5 -31.5t9 -56.5v-43 q0 -88 -101 -88z" />
<glyph unicode="&#x2086;" horiz-adv-x="262" d="M133 32q28 0 44.5 15.5t16.5 63.5v20q0 43 -15.5 59.5t-45.5 16.5q-7 0 -23 -3.5t-28 -7.5l-12 -3v-106q0 -28 18 -41.5t45 -13.5zM134 -3q-101 0 -101 88v234q0 52 30.5 72t69.5 20q15 0 28.5 -2t23 -4.5t16.5 -4.5t11 -4l4 -2q1 0 1 -3q0 -1 -3 -15l-4 -13q0 -2 -2 -2 l-5 1q-5 2 -12 4t-16 3.5t-20 3t-21 1.5q-64 0 -64 -56v-90q46 15 67 15q18 0 30.5 -2.5t28.5 -12t24.5 -33t8.5 -60.5v-27q0 -37 -9 -61.5t-26 -34t-29.5 -12.5t-30.5 -3z" />
<glyph unicode="&#x2087;" horiz-adv-x="261" d="M102 0h-34q-2 0 -1 2l119 364v5h-147q-2 0 -2 2v32q0 3 2 3h186q1 -1 1 -2v-35v-3l-1 -1l-60 -182q-60 -182 -60 -183q0 -2 -3 -2z" />
<glyph unicode="&#x2088;" horiz-adv-x="267" d="M134 32q31 0 46.5 13.5t15.5 55.5v25q0 41 -16 55.5t-44 14.5q-30 0 -47 -14.5t-17 -55.5v-25q0 -41 15 -55t47 -14zM134 232q59 0 59 58v25q0 61 -57 61q-61 0 -61 -61v-25q0 -58 59 -58zM134 -4q-46 0 -72 20.5t-26 81.5v31q0 28 10 49t20 28l9 7v2q-4 2 -9.5 6.5 t-15 23t-9.5 41.5v31q0 94 96 94q90 0 90 -94v-31q0 -22 -8 -39.5t-16 -24.5l-8 -6v-2q4 -2 10 -7t16.5 -27t10.5 -51v-31q0 -62 -26 -82t-72 -20z" />
<glyph unicode="&#x2089;" horiz-adv-x="266" d="M133 376q-30 0 -46.5 -15t-16.5 -64v-29q0 -44 15.5 -60t46.5 -16q7 0 23 4t28 8l12 3v114q0 55 -62 55zM131 411q100 0 100 -87v-235q0 -52 -30 -72t-69 -20q-23 0 -44 3.5t-30.5 7t-10.5 4.5q-2 2 -1 4q1 1 4 14t3 14t3 1l4 -1q5 -1 13 -2.5t17 -3.5t20.5 -3t21.5 -1 q63 0 63 56v81q-45 -14 -67 -14q-18 0 -30.5 2.5t-29 12t-25 33t-8.5 59.5v36q0 38 9 62t26 34t30 12.5t31 2.5z" />
<glyph unicode="&#x20ac;" horiz-adv-x="471" d="M289 -7q-38 0 -65 4.5t-54.5 20.5t-44.5 44t-27.5 77.5t-10.5 118.5h-46q-3 0 -3 4v39q0 4 3 4h46v76h-46q-3 0 -3 4v39q0 4 3 4h46q0 77 13 128.5t40 79.5t62.5 39.5t87.5 11.5q19 0 37.5 -1.5t33 -4.5t27 -6t22 -6.5t16 -6t10.5 -4.5l4 -2q2 -4 1 -6l-15 -38 q-2 -3 -4 -2q-3 2 -20 6.5t-50 10.5t-62 6q-78 0 -111 -43t-34 -162h159q4 0 4 -4v-39q0 -4 -4 -4h-159v-76h159q4 0 4 -4v-39q0 -4 -4 -4h-159q0 -66 9.5 -108.5t29.5 -64.5t44 -30t61 -8q78 0 140 31q4 2 5 -2l15 -37q2 -3 -1 -6l-4 -3l-11 -5.5t-16.5 -7.5t-23 -8.5 t-28.5 -8t-35 -5.5t-41 -2z" />
<glyph unicode="&#x2122;" horiz-adv-x="682" d="M343 291v387q0 2 2 2h53q3 0 3 -1l82 -239h5q78 237 79 238q1 2 3 2h53q1 0 1 -2v-387q0 -2 -2 -2h-41q-1 0 -1 2v285h-7q-68 -202 -68 -203q0 -3 -3 -3h-35q-4 0 -4 3l-68 203h-7v-285q0 -2 -2 -2h-41q-2 1 -2 2zM138 291v344h-89q-2 0 -2 2v41q0 2 2 2h225q2 0 2 -2 v-41q0 -2 -2 -2h-91v-344q0 -2 -1 -2h-42q-2 0 -2 2z" />
<glyph unicode="&#x2190;" horiz-adv-x="691" d="M145 315h482q4 0 4 -4v-42q0 -4 -4 -4h-482l207 -207q3 -3 0 -6l-30 -29q-2 -3 -5 0l-265 264q-3 3 0 6l265 265q3 2 5 0l30 -30q2 -2 0 -5z" />
<glyph unicode="&#x2191;" horiz-adv-x="659" d="M354 486v-482q0 -4 -4 -4h-42q-4 0 -4 4v482l-207 -207q-3 -3 -6 0l-29 30q-2 3 0 5l264 265q3 3 6 0l265 -265q3 -2 0 -5l-30 -30q-3 -3 -5 0z" />
<glyph unicode="&#x2192;" horiz-adv-x="691" d="M546 266h-482q-4 0 -4 4v42q0 4 4 4h482l-207 207q-3 3 0 6l30 29q3 2 5 0l265 -264q3 -3 0 -6l-265 -265q-2 -3 -5 0l-30 30q-3 3 0 5z" />
<glyph unicode="&#x2193;" horiz-adv-x="659" d="M305 94v482q0 4 4 4h42q4 0 4 -4v-482l207 207q3 3 6 0l29 -30q3 -3 0 -5l-264 -265q-3 -3 -6 0l-265 265q-2 2 0 5l30 30q2 3 5 0z" />
<glyph unicode="&#x2194;" horiz-adv-x="878" d="M317 22l-265 265q-3 3 0 6l265 265q3 3 6 0l29 -30q3 -3 0 -6l-207 -207h588l-207 207q-3 3 0 6l30 30q3 3 6 0q0 -1 132 -132.5t132 -132.5q3 -3 0 -6l-264 -265q-3 -3 -6 0l-30 30q-3 3 0 6l207 207h-588l207 -207q3 -3 0 -6l-29 -30q-3 -3 -6 0z" />
<glyph unicode="&#x2195;" horiz-adv-x="659" d="M62 462q1 2 264 265q3 3 6 0l265 -265q3 -2 0 -5l-30 -30q-3 -3 -5 0l-208 207v-588q206 205 208 207q2 3 5 0l30 -30q3 -3 0 -5l-265 -265q-3 -3 -6 0l-264 265q-2 2 0 5l29 30q3 3 6 0l207 -207v588l-207 -207q-3 -3 -6 0l-29 30q-2 3 0 5z" />
<glyph unicode="&#x2196;" horiz-adv-x="539" d="M487 121q3 -3 0 -6l-30 -29q-3 -3 -6 0l-341 341v-293q0 -4 -4 -4h-42q-4 0 -4 4v374q0 4 4 4h375q4 0 4 -4v-42q0 -4 -4 -4h-294z" />
<glyph unicode="&#x2197;" horiz-adv-x="538" d="M87 85q-3 -3 -6 0l-29 30q-3 3 0 6l341 341h-293q-4 0 -4 4v42q0 4 4 4h374q4 0 4 -4v-375q0 -4 -4 -4h-42q-4 0 -4 4v294z" />
<glyph unicode="&#x2198;" horiz-adv-x="539" d="M52 475q-3 3 0 6l30 29q3 3 6 0l341 -341v293q0 4 4 4h42q4 0 4 -4v-374q0 -4 -4 -4h-375q-4 0 -4 4v42q0 4 4 4h294z" />
<glyph unicode="&#x2199;" horiz-adv-x="538" d="M451 511q3 3 6 0l29 -30q3 -3 0 -6l-341 -341h293q4 0 4 -4v-42q0 -4 -4 -4h-374q-4 0 -4 4v375q0 4 4 4h42q4 0 4 -4v-294z" />
<glyph unicode="&#x2212;" horiz-adv-x="314" d="M45 250q-4 0 -4 4v42q0 4 4 4h225q4 0 4 -4v-42q0 -4 -4 -4h-225z" />
<glyph unicode="&#x221a;" horiz-adv-x="877" d="M62 274l30 30q2 2 5 0l214 -214l468 468q2 2 6 0l30 -30q3 -3 0 -6l-501 -500q-2 -2 -6 0l-246 246q-3 3 0 6z" />
<glyph unicode="&#x2248;" horiz-adv-x="445" d="M58 181q0 6 4 10q3 4 14.5 13.5t33 20.5t39.5 11q27 0 73.5 -29t71.5 -29q18 0 37 11t31.5 22.5t14.5 11.5q3 0 3 -4v-31q0 -6 -3 -10q-4 -6 -13 -14.5t-31 -20t-44 -11.5q-27 0 -72.5 29.5t-70.5 29.5q-16 0 -35.5 -11t-33.5 -22.5t-16 -11.5q-3 0 -3 5v30zM58 371 q0 6 4 10q2 3 14 13t33.5 20.5t39.5 10.5q27 0 73.5 -29t71.5 -29q18 0 37 11.5t31.5 23t14.5 11.5q3 0 3 -4v-32q0 -6 -3 -10q-4 -5 -13 -14t-31 -20t-44 -11q-27 0 -72.5 29.5t-70.5 29.5q-16 0 -35.5 -11.5t-33.5 -23t-16 -11.5q-3 0 -3 6v30z" />
<glyph unicode="&#x2260;" horiz-adv-x="446" d="M93 42q-3 0 -2 4l49 109h-83q-3 0 -3 3v43q0 4 3 4h110l64 143h-174q-3 0 -3 4v42q0 4 3 4h200q47 105 49 108q3 4 5 4h40q3 0 2 -4l-49 -108h84q3 0 3 -4v-42q0 -4 -3 -4h-112l-63 -143h175q3 0 3 -4v-42q0 -4 -3 -4h-201q-48 -106 -49 -109q-2 -4 -5 -4h-40z" />
<glyph unicode="&#x2264;" horiz-adv-x="446" d="M388 127l-331 159q-3 2 -3 4v39q0 3 3 4l332 159q1 1 2 0.5t1 -3.5v-46q0 -2 -3 -5l-258 -126v-6q255 -123 258 -125q3 -1 3 -6v-45q0 -5 -4 -3zM57 0q-3 0 -3 4v42q0 4 3 4h332q3 0 3 -4v-42q0 -4 -3 -4h-332z" />
<glyph unicode="&#x2265;" horiz-adv-x="446" d="M57 127q-3 -1 -3 3v45q0 5 3 6l258 125v6q-256 124 -258 126q-3 3 -3 5v46q2 3 3 3l331 -159q4 -2 4 -4v-39q0 -2 -4 -4q-7 -4 -167 -81t-164 -78zM389 0h-332q-3 0 -3 4v42q0 4 3 4h332q3 0 3 -4v-42q0 -4 -3 -4z" />
<glyph unicode="&#x25b2;" horiz-adv-x="720" d="M700 248v-58q0 -4 -1 -4t-2 1l-332 239h-9q-331 -238 -333 -240q-1 -1 -2 1q-1 1 -1 2v59q0 2 4 5t165 119t163 118q8 5 16 0l329 -237q3 -1 3 -5z" />
<glyph unicode="&#x25ba;" horiz-adv-x="488" d="M143 0h-58q-5 0 -3 3l239 332v9q-238 331 -240 333q-3 3 3 3h59q2 0 5 -4t119 -165t118 -163q5 -8 0 -16l-237 -329q-2 -3 -5 -3z" />
<glyph unicode="&#x25bc;" horiz-adv-x="720" d="M20 431v58q0 4 1 4t2 -1l332 -239h9q331 238 333 240q1 1 2 -1l1 -2v-59q0 -2 -4 -5t-165 -119t-163 -118q-8 -5 -16 0l-329 237q-3 2 -3 5z" />
<glyph unicode="&#x25c4;" horiz-adv-x="488" d="M345 680h58q5 0 3 -3l-239 -332v-9q238 -331 240 -333q3 -3 -3 -3h-59q-2 0 -5 4t-119 165t-118 163q-5 8 0 16l237 329q2 3 5 3z" />
<glyph unicode="&#x25fc;" horiz-adv-x="475" d="M0 475h475v-475h-475v475z" />
<glyph horiz-adv-x="450" />
<glyph horiz-adv-x="450" d="M225 44q32 0 52.5 6t39.5 24.5t27.5 57.5t8.5 102v217q0 60 -9 98.5t-27.5 56.5t-39 24t-52.5 6t-52 -6t-38.5 -24t-27.5 -56.5t-9 -98.5v-217q0 -63 9.5 -103.5t29 -58t38.5 -23t50 -5.5zM225 -10q-27 0 -44.5 2t-41.5 8.5t-39.5 22.5t-30.5 41t-22 67t-7 97v230 q0 63 11 107.5t27 68.5t43 37t49 16t55 3t53.5 -2.5t48.5 -15t44 -35.5t28 -68.5t12 -110.5v-230q0 -56 -7 -97.5t-22 -67t-30.5 -41t-40 -22t-41.5 -8.5t-45 -2z" />
<glyph horiz-adv-x="450" d="M274 0h-48q-3 0 -3 4v607q-107 -99 -108 -100q-3 -3 -3 1q0 2 -6.5 23.5t-6.5 22.5q0 3 3 6l118 114q2 2 6 2h48q3 0 3 -4v-672q0 -4 -3 -4z" />
<glyph horiz-adv-x="450" d="M375 0h-309q-2 0 -2 2v57q0 3 1 4q17 23 55 74.5t54 74t45 63.5t42 63t29 50t22 47t6 34v74q0 31 -9 51t-26.5 28.5t-33.5 11t-40 2.5q-25 0 -56.5 -5t-49 -9.5t-19.5 -5.5q-4 -2 -4 2q0 2 -4.5 20.5t-4.5 19.5q0 4 1 5q4 3 17.5 8t48 12t72.5 7q33 0 58 -5t51 -19.5 t40.5 -45t14.5 -76.5v-75q0 -30 -14 -68t-51 -96.5t-64 -97.5t-88 -124q-3 -4 -5 -7t-5 -7t-5 -7v-8h233q3 0 3 -4v-46q0 -4 -3 -4z" />
<glyph horiz-adv-x="450" d="M72 16q-2 2 -1 5q8 24 8 41q0 2 5 2q2 -1 21 -5.5t52 -9.5t60 -5q24 0 39 2t34.5 10.5t29.5 28.5t10 52v74q0 35 -10.5 59t-28 33.5t-30.5 13t-27 3.5h-58q-4 0 -4 4v44q0 4 4 4h58q33 0 58.5 24.5t25.5 72.5v74q0 32 -9.5 52t-27.5 28t-32.5 10.5t-37.5 2.5 q-27 0 -58.5 -5t-48 -9.5t-19.5 -5.5q-5 -2 -5 2q0 2 -4.5 21t-4.5 20q0 4 2 5q52 26 137 26q23 0 40 -1.5t42 -10t41.5 -23t28.5 -43t12 -68.5v-74q0 -36 -11 -65t-21 -40l-11 -11v-6q2 -1 6 -4t13.5 -14t16.5 -25.5t13 -39.5t6 -55v-74q0 -39 -12 -68t-28.5 -43.5 t-42 -22.5t-44 -10t-42.5 -2q-38 0 -74.5 6.5t-53.5 13.5z" />
<glyph horiz-adv-x="450" d="M330 0h-46q-4 0 -4 4v132h-229q-2 0 -2 3v55q0 1 2 5l171 477q2 4 4 4h52q4 0 2 -4l-169 -478v-8h169v147q0 4 3 4h47q4 0 4 -4v-147h63q4 0 4 -4v-46q0 -4 -4 -4h-63v-132q0 -4 -4 -4z" />
<glyph horiz-adv-x="450" d="M219 -10q-38 0 -75 7t-51.5 11.5t-19.5 7.5q-2 1 -1 5q1 7 4 20t4 20q1 2 5 2l9 -2q9 -2 23 -4.5t30.5 -5.5t36 -5t35.5 -2q23 0 38.5 2.5t34.5 10.5t29 27.5t10 50.5v75q0 120 -94 120h-149q-3 0 -3 4v338q0 8 8 8h268q3 0 3 -4v-44q0 -4 -3 -4h-224v-246h100 q21 0 37.5 -2t39.5 -12t37.5 -27.5t25.5 -51t11 -79.5v-75q0 -49 -17.5 -81t-48 -44.5t-52.5 -16t-51 -3.5z" />
<glyph horiz-adv-x="450" d="M226 42q49 0 77 26.5t28 109.5v39q0 76 -27 104.5t-78 28.5q-12 0 -39 -6t-48 -12l-21 -7v-187q0 -50 31 -73t77 -23zM228 -10q-27 0 -51.5 5t-52.5 19t-45 44.5t-17 75.5v406q0 45 16 77t43 46.5t52 20.5t53 6q87 0 139 -26q2 -1 2 -5q-10 -30 -10 -40q0 -2 -4 -2 q-1 0 -8.5 2t-20.5 4.5t-28 5.5t-34 5t-35 2q-50 0 -79.5 -20.5t-29.5 -77.5v-161q78 25 115 25q23 0 39.5 -2t40 -11.5t37.5 -27.5t25 -53t11 -84v-50q0 -50 -11.5 -86.5t-27 -54.5t-39.5 -28.5t-40.5 -12.5t-39.5 -2z" />
<glyph horiz-adv-x="450" d="M175 0h-53q-3 0 -2 4l200 613v8h-246q-3 0 -3 4v46q0 5 3 5h306q3 0 3 -3v-53q0 -1 -1 -3t-1 -3t-100 -306.5t-101 -307.5q0 -4 -5 -4z" />
<glyph horiz-adv-x="450" d="M224 41q53 0 79 24t26 96v49q0 72 -26.5 96.5t-76.5 24.5t-79.5 -25.5t-29.5 -95.5v-49q0 -71 26.5 -95.5t80.5 -24.5zM224 383q99 0 99 101v49q0 105 -97 105q-43 0 -73.5 -24t-30.5 -81v-49q0 -101 102 -101zM223 -11q-36 0 -62 6t-50 22.5t-36.5 51t-12.5 87.5v58 q0 30 6.5 56t16 41t18.5 26t15 15l7 4v3q-6 4 -15.5 11.5t-25.5 38.5t-16 70v57q0 47 15 79.5t41 47.5t50.5 21t53.5 6q150 0 150 -154v-57q0 -38 -14 -68t-28 -41l-13 -10v-3q2 -1 6.5 -4t15 -14.5t18.5 -26.5t14.5 -41t6.5 -57v-58q0 -54 -12.5 -89.5t-38 -51.5t-50 -21 t-60.5 -5z" />
<glyph horiz-adv-x="450" d="M221 638q-23 0 -39.5 -4t-33 -17t-25 -42t-8.5 -73v-54q0 -76 27 -104.5t79 -28.5q12 0 39 6.5t48 12.5l21 7v201q0 50 -31 73t-77 23zM218 690q21 0 40.5 -2.5t43.5 -11.5t41.5 -24t29.5 -42t12 -63v-406q0 -46 -16 -77.5t-43 -46.5t-52.5 -21t-53.5 -6q-38 0 -73.5 6 t-48.5 10.5t-18 6.5q-3 2 -2 6q1 1 5.5 20t4.5 20q0 2 4 2q2 -1 20.5 -5t50 -8t57.5 -4q109 0 109 98v146q-78 -25 -115 -25q-23 0 -39.5 2t-40 11.5t-38 27.5t-25.5 53t-11 84v65q0 51 11.5 87t27 54.5t39.5 28.5t40.5 12t39.5 2z" />
<glyph horiz-adv-x="450" d="M196 100q-4 0 -4 4v74q0 4 4 4h59q3 0 3 -4v-74q0 -4 -3 -4h-59zM196 495q-4 0 -4 4v74q0 4 4 4h59q3 0 3 -4v-74q0 -4 -3 -4h-59z" />
<glyph horiz-adv-x="350" d="M85 126q-2 4 0 6l33 35q2 2 4 0l143 -166q3 -3 0 -6l-34 -34q-2 -4 -5 0z" />
<glyph horiz-adv-x="339" d="M224 437q-4 0 -2 4l30 67q2 4 5 4h37q3 0 2 -4q-1 -3 -15 -34t-15 -33q-3 -4 -4 -4h-38zM43 -34q-2 0 -1 4q0 1 6.5 15.5t13 29.5t7.5 16q2 4 6 4h36q3 0 2 -4l-28 -62q-2 -3 -5 -3h-37z" />
<glyph horiz-adv-x="468" d="M321 613q-2 0 -1 4l12 25q11 24 22 48.5t12 25.5q3 4 5 4h43q5 0 2 -4q-1 -1 -23 -49t-23 -50q-3 -4 -5 -4h-44zM44 -40q-3 0 0 4q1 2 21 46t21 47q1 4 5 4h44q5 0 2 -4q-1 -2 -21.5 -46.5t-21.5 -46.5q-2 -4 -6 -4h-44z" />
<glyph horiz-adv-x="980" d="M246 -10q-109 0 -179 35q-3 1 -1 5l14 42q2 3 4 2q5 -2 24 -8.5t60.5 -14.5t80.5 -8q31 0 51.5 3t42 13t32.5 32t11 57v69q0 49 -32 70.5t-99 27.5q-110 10 -149 46t-39 113v70q0 146 181 146q46 0 85 -7t54 -13t18 -9q4 -2 2 -5l-16 -39q-2 -3 -4 -2q-3 2 -19.5 6 t-51.5 9.5t-68 5.5q-58 0 -90.5 -19t-32.5 -74v-69q0 -49 30 -71.5t99 -29.5q108 -10 149.5 -43.5t41.5 -112.5v-71q0 -41 -12.5 -71t-31 -46t-47 -25.5t-52.5 -11.5t-56 -2zM715 -10q-109 0 -179 35q-3 1 -1 5l14 42q2 3 4 2q5 -2 24 -8.5t60.5 -14.5t80.5 -8q31 0 51.5 3 t42 13t32.5 32t11 57v69q0 49 -32 70.5t-99 27.5q-110 10 -149 46t-39 113v70q0 146 181 146q46 0 85 -7t54 -13t18 -9q4 -2 2 -5l-16 -39q-2 -3 -4 -2q-3 2 -19.5 6t-51.5 9.5t-68 5.5q-58 0 -90.5 -19t-32.5 -74v-69q0 -49 30 -71.5t99 -29.5q108 -10 149.5 -43.5 t41.5 -112.5v-71q0 -41 -12.5 -71t-31 -46t-47 -25.5t-52.5 -11.5t-56 -2z" />
<glyph horiz-adv-x="403" d="M67 0h-51q-2 0 -1 3q1 2 78 269.5t77 268.5q0 3 3 3h58q3 0 3 -2l154 -539q2 -3 -2 -3h-50q-2 0 -3 3l-33 116h-198q-31 -114 -32 -116q-2 -3 -3 -3zM117 169h169l-78 288h-12z" />
<glyph horiz-adv-x="400" d="M111 49h105q41 0 65 15t24 62v48q0 79 -91 79h-103v-204zM111 301h101q31 0 46 -4q27 60 27 97q0 66 -21 83.5t-65 17.5h-88v-194zM216 0h-158v544h147q28 0 46 -3.5t41 -16t35 -44t12 -80.5q0 -41 -33 -118q52 -28 52 -107v-49q0 -35 -8.5 -59.5t-20.5 -37.5t-33 -19.5 t-37.5 -8t-42.5 -1.5z" />
<glyph horiz-adv-x="371" d="M205 -4q-28 0 -48 2.5t-44 14t-38.5 31t-24.5 56.5t-10 88v173q0 50 10 85.5t25 55t38.5 30.5t43.5 13.5t48 2.5q68 0 120 -26q3 -2 2 -4q-16 -32 -16 -38q0 -4 -4 -2q-1 1 -15 5.5t-39.5 9t-47.5 4.5q-19 0 -31.5 -2t-29 -10t-26.5 -22t-17 -41.5t-7 -66.5v-162 q0 -88 28.5 -116.5t82.5 -28.5q59 0 109 25q1 1 3 -2q17 -34 17 -37q1 -2 -2 -4l-2 -2q-2 -1 -5 -3t-8 -4.5t-11 -5t-14 -5.5t-17.5 -5.5t-20 -4.5t-23.5 -3t-26 -1z" />
<glyph horiz-adv-x="414" d="M111 51h96q57 0 84 27.5t27 115.5v160q0 47 -8.5 76.5t-26.5 42.5t-34 16.5t-42 3.5h-96v-442zM207 0h-149v544h149q28 0 44.5 -1.5t42.5 -11.5t40.5 -28t26 -54.5t11.5 -88.5v-171q0 -53 -10.5 -90t-25 -56t-39.5 -29t-43 -12t-47 -2z" />
<glyph horiz-adv-x="370" d="M58 0v544h276q3 0 3 -3v-45q0 -3 -3 -3h-223v-191h192q2 0 2 -3v-45q0 -3 -2 -3h-192v-200h223q3 0 3 -3v-45q0 -3 -3 -3h-276z" />
<glyph horiz-adv-x="366" d="M60 0q-2 1 -2 3v541h276q3 0 3 -3v-45q0 -3 -3 -3h-223v-217h192q2 0 2 -3v-45q0 -3 -2 -3h-192v-222q0 -3 -2 -3h-49z" />
<glyph horiz-adv-x="407" d="M199 -4q-27 0 -46.5 3t-42 14t-37 31t-24 56.5t-9.5 87.5v173q0 51 11 87.5t26 55.5t39.5 29.5t42.5 12.5t45 2q36 0 70.5 -6.5t49.5 -12t19 -7.5q3 -2 2 -4l-16 -38q-1 -2 -3 -1l-8 2q-8 2 -20.5 4.5t-27.5 5t-32.5 4.5t-32.5 2q-23 0 -38.5 -3.5t-34.5 -16t-28.5 -43 t-9.5 -79.5v-162q0 -47 8.5 -78t25 -44.5t32.5 -18t40 -4.5q12 0 39 4.5t48 9.5l21 4v165h-77q-3 0 -3 3v43q0 3 3 3h127v-254q-116 -30 -159 -30z" />
<glyph horiz-adv-x="433" d="M60 0q-2 0 -2 3v538q0 3 2 3h49q2 0 2 -3v-242h211v242q0 3 4 3h47q3 0 3 -3v-538q0 -3 -3 -3h-47q-4 0 -4 3v248h-211v-248q0 -3 -2 -3h-49z" />
<glyph horiz-adv-x="168" d="M60 0q-2 0 -2 3v538q0 3 2 3h49q2 0 2 -3v-538q0 -3 -2 -3h-49z" />
<glyph horiz-adv-x="316" d="M133 -4q-21 0 -46.5 4t-40.5 7.5t-17 4.5t-1 4l12 40q1 2 4 1l6 -1q6 -1 16 -2.5t20.5 -3t22.5 -2.5t21 -1q19 0 30.5 2t24 9t18.5 24t6 44v415q0 3 3 3h48q2 0 2 -3v-416q0 -44 -11 -72t-32.5 -39t-39.5 -14.5t-46 -3.5z" />
<glyph horiz-adv-x="389" d="M60 0q-2 1 -2 3v538l2 3h49q2 0 2 -3v-240h23q155 237 157 240q3 3 5 3h59q1 0 0 -3l-176 -264q188 -272 189 -274q2 -3 -1 -3h-60q-3 0 -5 3l-167 248h-24v-248q0 -3 -2 -3h-49z" />
<glyph horiz-adv-x="354" d="M58 0v541q0 3 2 3h49q2 0 2 -3v-490h223q3 0 3 -3v-44q0 -4 -3 -4h-276z" />
<glyph horiz-adv-x="510" d="M60 0q-2 1 -2 3v539q0 2 2 2h63q3 0 4 -2l126 -351h8q121 348 122 350q1 3 4 3h64q2 0 2 -2v-539q0 -3 -2 -3h-48q-3 0 -3 3v419h-11q-106 -304 -107 -306q-2 -3 -4 -3h-45q-4 0 -5 3l-108 305h-9v-418q0 -3 -3 -3h-48z" />
<glyph horiz-adv-x="435" d="M59 0q-2 0 -2 3v538l2 3h63q4 0 5 -3l191 -438h8v438q0 3 3 3h49q2 0 2 -3v-538q0 -3 -2 -3h-64q-1 0 -4 3l-192 442h-8v-442q0 -3 -3 -3h-48z" />
<glyph horiz-adv-x="407" d="M203 47q54 0 82 28t28 118v162q0 46 -8.5 76t-25 43.5t-33.5 18t-43 4.5q-52 0 -80.5 -28t-28.5 -114v-162q0 -49 9 -80t26.5 -44.5t33.5 -17.5t40 -4zM203 -4q-27 0 -45 2t-42.5 12.5t-39.5 30t-25.5 56.5t-10.5 90v174q0 62 14 102.5t40.5 57.5t50 22t58.5 5 q22 0 37 -1.5t36.5 -6.5t35.5 -17.5t28 -32.5t21 -52.5t7 -76.5v-174q0 -53 -11 -90.5t-26 -56.5t-40 -29.5t-43 -12.5t-45 -2z" />
<glyph horiz-adv-x="392" d="M111 275h105q19 0 32 2.5t28 10.5t23 27t8 48v43q0 29 -7.5 48t-22 26.5t-27.5 10t-33 2.5h-106v-218zM109 0h-49q-2 1 -2 3v541h158q31 0 50.5 -3t44 -15t37 -42t12.5 -77v-46q0 -37 -10 -64t-24 -40.5t-36 -21.5t-37.5 -9.5t-36.5 -1.5h-105v-221q0 -3 -2 -3z" />
<glyph horiz-adv-x="403" d="M203 -4q-27 0 -45 2t-42.5 12.5t-39.5 30t-25.5 56.5t-10.5 90v174q0 62 14 102.5t40.5 57.5t50 22t58.5 5q22 0 37 -1.5t36.5 -6.5t35.5 -17.5t28 -32.5t21 -52.5t7 -76.5v-174q0 -95 -33 -141l37 -42q3 -1 -1 -5l-29 -31q-2 -2 -4 0l-40 45q-32 -17 -95 -17zM221 104 q-3 2 0 5l30 32q2 2 4 0q0 -1 41 -49q17 34 17 101v162q0 46 -8.5 76t-25 43.5t-33.5 18t-43 4.5q-52 0 -80.5 -28t-28.5 -114v-162q0 -49 9 -80t26.5 -44.5t33.5 -17.5t40 -4q39 0 58 10z" />
<glyph horiz-adv-x="411" d="M111 274h105q18 0 31.5 2.5t28.5 11t23 27.5t8 48v43q0 29 -7.5 48t-22 26.5t-27.5 10t-33 2.5h-106v-219zM109 0h-49q-2 1 -2 3v541h158q24 0 40 -1.5t38 -9t34.5 -21.5t22 -41t9.5 -65v-44q0 -107 -76 -130l92 -229q2 -3 -2 -3h-54q-4 0 -5 3l-83 220h-121v-220 q0 -3 -2 -3z" />
<glyph horiz-adv-x="397" d="M196 -4q-86 0 -146 30q-2 1 -1 4l7 20q8 20 9 21q1 2 3 1q5 -2 19 -7t47 -12t64 -7q50 0 77.5 15t27.5 64v49q0 37 -25 53t-77 21q-88 8 -119.5 37t-31.5 92v53q0 118 147 118q38 0 70.5 -6.5t44.5 -11.5t14 -7q3 -3 2 -4l-15 -38q-1 -3 -3 -2q-3 1 -16 5t-41 8.5 t-55 4.5q-43 0 -68 -14t-25 -56v-48q0 -37 23 -54.5t77 -22.5q86 -8 119.5 -35.5t33.5 -91.5v-53q0 -41 -14 -68t-40.5 -39t-50.5 -15.5t-57 -3.5z" />
<glyph horiz-adv-x="355" d="M154 0q-4 0 -4 3v490h-134q-2 0 -2 3v45q0 3 2 3h322q4 0 4 -3v-45q0 -3 -4 -3h-135v-490q0 -3 -2 -3h-47z" />
<glyph horiz-adv-x="422" d="M196 -4q-82 0 -113.5 49.5t-31.5 170.5v325q0 3 3 3h49q2 0 2 -3v-319q0 -100 17 -137.5t74 -37.5h32q58 0 73.5 37t15.5 138v319q0 3 4 3h47q3 0 3 -3v-325q0 -119 -28.5 -169.5t-114.5 -50.5h-32z" />
<glyph horiz-adv-x="397" d="M168 0q-2 0 -4 3q0 2 -74.5 268t-75.5 270q-2 3 1 3h51q2 0 3 -3l123 -451h12q123 448 124 451q2 3 4 3h50q4 0 2 -3l-154 -538q-2 -3 -4 -3h-58z" />
<glyph horiz-adv-x="556" d="M135 0q-3 0 -3 3q0 2 -56.5 269.5t-57.5 268.5q-2 3 1 3h51q2 0 3 -3l89 -449h13q78 342 79 344t3 2h43q3 0 4 -2l77 -344h13q89 447 90 449q1 3 4 3h49q5 0 3 -3q-1 -2 -58 -269t-57 -269q0 -3 -4 -3h-61q-3 0 -3 3l-75 332h-8q-73 -329 -73 -332q-3 -3 -4 -3h-62z" />
<glyph horiz-adv-x="371" d="M18 0q-2 0 -1 3l139 281q-127 255 -128 257q-2 3 3 3h54l3 -3l96 -200h3q95 198 96 200q3 3 5 3h53q3 0 2 -3l-128 -257q140 -279 141 -281q2 -3 -3 -3h-54q-3 0 -4 3l-108 225h-4q-106 -223 -107 -225l-1 -1q-1 -2 -2 -2h-55z" />
<glyph horiz-adv-x="354" d="M154 0q-3 0 -3 3v216q-138 320 -139 322q-2 3 1 3h54l3 -3l106 -254h4q103 252 105 254q3 3 4 3h52q3 0 2 -3l-139 -322v-216q0 -3 -2 -3h-48z" />
<glyph horiz-adv-x="363" d="M35 0q-2 0 -2 2v51q0 3 1 4l231 429v6h-221q-2 0 -2 4v44q0 4 2 4h280q4 0 4 -4v-48q0 -6 -2 -8l-230 -426v-7h228q4 0 4 -3v-45q0 -3 -3 -3h-290z" />
<glyph horiz-adv-x="288" d="M56 480q-2 0 -2 3v58l2 3h44q3 0 3 -3v-58q0 -3 -3 -3h-44zM190 480q-3 0 -3 3v58q0 3 3 3h42q2 0 2 -3v-58q0 -3 -2 -3h-42z" />
<glyph horiz-adv-x="289" d="M152 448l-59 109q-1 3 1 3h48q2 0 4 -3l48 -108q2 -4 -1 -4h-37q-1 0 -4 3z" />
<glyph horiz-adv-x="288" d="M97 445h-37q-4 0 -2 4q8 16 29.5 54t28.5 54q2 3 4 3h47q4 0 5 -3l58 -109q2 -3 -1 -3h-37q-3 0 -5 4l-41 69h-4q-40 -67 -41 -69q-2 -4 -4 -4z" />
<glyph horiz-adv-x="289" d="M59 476q-2 0 -2 4v29q0 5 3 8l2 3l5.5 5.5t7 6.5t9 6.5t10.5 4.5t12 2q16 0 40 -15t38 -15q15 0 28.5 14t14.5 14q2 0 2 -3v-29q0 -7 -2 -10q-21 -28 -47 -28q-17 0 -40.5 15.5t-36.5 15.5q-14 0 -28.5 -14t-15.5 -14z" />
<glyph horiz-adv-x="288" d="M232 490h-176q-2 0 -2 3v39q0 3 2 3h176q2 0 2 -3v-39q0 -3 -2 -3z" />
<glyph horiz-adv-x="289" d="M136 449q0 -4 -3 -4h-38q-3 0 -1 4l48 108q2 3 4 3h49q3 0 1 -3z" />
<glyph horiz-adv-x="288" d="M149 -118h-48l-1 4l12 30q11 29 22.5 58.5t11.5 30.5q2 3 4 3h37q3 0 2 -3l-35 -119q-1 -4 -5 -4z" />
<glyph horiz-adv-x="289" d="M145 454q-88 0 -88 90q0 4 3 4h22q5 0 6 -4q8 -31 19.5 -41t37.5 -10q24 0 35.5 10.5t18.5 40.5q1 4 5 4h24q3 0 3 -4q-6 -90 -86 -90z" />
<glyph horiz-adv-x="288" d="M118 478q-2 0 -2 3v60q0 3 2 3h51q2 0 2 -3v-60q0 -3 -3 -3h-50z" />
<glyph horiz-adv-x="288" d="M142 461q17 0 26 7.5t9 30.5v10q0 22 -8 29.5t-25 7.5q-18 0 -27.5 -7.5t-9.5 -29.5v-10q0 -23 9 -30.5t26 -7.5zM142 433q-13 0 -22.5 2t-19 8t-15 19.5t-5.5 33.5v17q0 61 64 61q17 0 28.5 -3t22 -17.5t10.5 -40.5v-17q0 -39 -17 -51t-46 -12z" />
<glyph horiz-adv-x="287" d="M92 449q-2 -3 -4 -3h-38q-2 0 -1 3l48 108q1 3 4 3h49q2 0 1 -3q0 -1 -15 -27.5t-29.5 -53t-14.5 -27.5zM182 449q-2 -3 -4 -3h-37q-1 0 -1 3q0 1 12 27t24 53t12 28q2 3 5 3h47q4 0 2 -3q0 -1 -15 -27.5l-30 -53t-15 -27.5z" />
<glyph horiz-adv-x="289" d="M145 -139q-26 0 -39.5 11t-13.5 43q0 45 52 90q3 3 9 3h36q2 0 2.5 -2.5t-1.5 -4.5q-56 -47 -56 -78q0 -12 4.5 -16t14.5 -4q4 0 8 1.5t7.5 4t4.5 2.5q3 1 4 -1q3 -3 13 -23q2 -5 -1 -8q-18 -18 -44 -18z" />
<glyph horiz-adv-x="288" d="M191 560h39q4 0 1 -4l-65 -108q-3 -3 -4 -3h-35q-5 0 -6 3q-8 15 -32.5 53.5t-32.5 55.5q-2 3 1 3h40q1 0 4 -3l42 -70h3q39 68 41 70q3 3 4 3z" />
<glyph horiz-adv-x="403" d="M67 0h-51q-2 0 -1 3q1 2 78 269.5t77 268.5q0 3 3 3h58q3 0 3 -2l154 -539q2 -3 -2 -3h-50q-2 0 -3 3l-33 116h-198q-31 -114 -32 -116q-2 -3 -3 -3zM117 169h169l-78 288h-12zM209 608l-59 109q-2 3 1 3h48q3 0 4 -3l48 -108q2 -4 -1 -4h-37q-1 0 -4 3z" />
<glyph horiz-adv-x="403" d="M67 0h-51q-2 0 -1 3q1 2 78 269.5t77 268.5q0 3 3 3h58q3 0 3 -2l154 -539q2 -3 -2 -3h-50q-2 0 -3 3l-33 116h-198q-31 -114 -32 -116q-2 -3 -3 -3zM117 169h169l-78 288h-12zM191 609q0 -4 -3 -4h-38q-3 0 -1 4l48 108q1 3 4 3h49q2 0 1 -3z" />
<glyph horiz-adv-x="403" d="M67 0h-51q-2 0 -1 3q1 2 78 269.5t77 268.5q0 3 3 3h58q3 0 3 -2l154 -539q2 -3 -2 -3h-50q-2 0 -3 3l-33 116h-198q-31 -114 -32 -116q-2 -3 -3 -3zM117 169h169l-78 288h-12zM154 605h-37q-4 0 -2 4q8 16 29.5 54t28.5 54q1 3 4 3h47q4 0 5 -3l58 -109q1 -3 -1 -3h-37 q-3 0 -5 4l-41 69h-4q-40 -67 -41 -69q-2 -4 -4 -4z" />
<glyph horiz-adv-x="403" d="M67 0h-51q-2 0 -1 3q1 2 78 269.5t77 268.5q0 3 3 3h58q3 0 3 -2l154 -539q2 -3 -2 -3h-50q-2 0 -3 3l-33 116h-198q-31 -114 -32 -116q-2 -3 -3 -3zM117 169h169l-78 288h-12zM116 636q-2 0 -2 4v29q0 5 3 8l3 3q2 3 4.5 5.5t7 6.5t9 6.5t10.5 4.5t12 2q16 0 40 -15 t38 -15q15 0 28.5 14t14.5 14q2 0 2 -3v-29q0 -7 -2 -10q-21 -28 -47 -28q-17 0 -40.5 15.5t-36.5 15.5q-14 0 -28.5 -14t-15.5 -14z" />
<glyph horiz-adv-x="403" d="M67 0h-51q-2 0 -1 3q1 2 78 269.5t77 268.5q0 3 3 3h58q3 0 3 -2l154 -539q2 -3 -2 -3h-50q-2 0 -3 3l-33 116h-198q-31 -114 -32 -116q-2 -3 -3 -3zM117 169h169l-78 288h-12zM112 640q-2 0 -2 3v58l2 3h44q3 0 3 -3v-58q0 -3 -3 -3h-44zM246 640q-3 0 -3 3v58q0 3 3 3 h42q2 0 2 -3v-58q0 -3 -2 -3h-42z" />
<glyph horiz-adv-x="403" d="M67 0h-51q-2 0 -1 3q1 2 78 269.5t77 268.5q0 3 3 3h58q3 0 3 -2l154 -539q2 -3 -2 -3h-50q-2 0 -3 3l-33 116h-198q-31 -114 -32 -116q-2 -3 -3 -3zM117 169h169l-78 288h-12zM201 593q-13 0 -22.5 2t-19 8t-15 19.5t-5.5 33.5v17q0 61 64 61q17 0 28.5 -3t22 -17.5 t10.5 -40.5v-17q0 -39 -17 -51t-46 -12zM201 621q17 0 26 7.5t9 30.5v10q0 22 -8 29.5t-25 7.5q-18 0 -27.5 -7.5t-9.5 -29.5v-10q0 -23 9 -30.5t26 -7.5z" />
<glyph horiz-adv-x="371" d="M190 -118h-48l-1 4l9 22q8 22 18.5 50.5t14.5 38.5q-31 1 -53.5 8.5t-44.5 26.5t-33.5 58.5t-11.5 97.5v173q0 50 10 85.5t25 55t38.5 30.5t43.5 13.5t48 2.5q68 0 120 -26q3 -2 2 -4q-16 -32 -16 -38q0 -4 -4 -2q-1 1 -15 5.5t-39.5 9t-47.5 4.5q-19 0 -31.5 -2t-29 -10 t-26.5 -22t-17 -41.5t-7 -66.5v-162q0 -88 28.5 -116.5t82.5 -28.5q59 0 109 25q1 1 3 -2q17 -34 17 -37q1 -2 -2 -4l-2 -1q-1 -1 -4 -3t-7 -4l-9 -4.5t-11.5 -5t-14 -5t-16.5 -4.5t-19.5 -3.5t-21.5 -2.5l-32 -111q-1 -4 -5 -4z" />
<glyph horiz-adv-x="370" d="M58 0v544h276q3 0 3 -3v-45q0 -3 -3 -3h-223v-191h192q2 0 2 -3v-45q0 -3 -2 -3h-192v-200h223q3 0 3 -3v-45q0 -3 -3 -3h-276zM193 608l-59 109q-2 3 1 3h48q3 0 4 -3l48 -108q2 -4 -1 -4h-37q-1 0 -4 3z" />
<glyph horiz-adv-x="370" d="M58 0v544h276q3 0 3 -3v-45q0 -3 -3 -3h-223v-191h192q2 0 2 -3v-45q0 -3 -2 -3h-192v-200h223q3 0 3 -3v-45q0 -3 -3 -3h-276zM182 609q0 -4 -3 -4h-38q-3 0 -1 4l48 108q2 3 4 3h49q3 0 1 -3z" />
<glyph horiz-adv-x="370" d="M58 0v544h276q3 0 3 -3v-45q0 -3 -3 -3h-223v-191h192q2 0 2 -3v-45q0 -3 -2 -3h-192v-200h223q3 0 3 -3v-45q0 -3 -3 -3h-276zM144 605h-37q-4 0 -2 4q7 16 29 54t29 54q1 3 4 3h47q4 0 5 -3l58 -109q1 -3 -1 -3h-37q-3 0 -5 4l-41 69h-4q-40 -67 -41 -69q-2 -4 -4 -4z " />
<glyph horiz-adv-x="370" d="M58 0v544h276q3 0 3 -3v-45q0 -3 -3 -3h-223v-191h192q2 0 2 -3v-45q0 -3 -2 -3h-192v-200h223q3 0 3 -3v-45q0 -3 -3 -3h-276zM101 640q-2 0 -2 3v58l2 3h44q3 0 3 -3v-58q0 -3 -3 -3h-44zM235 640q-3 0 -3 3v58q0 3 3 3h42q2 0 2 -3v-58q0 -3 -2 -3h-42z" />
<glyph horiz-adv-x="168" d="M60 0q-2 0 -2 3v538q0 3 2 3h49q2 0 2 -3v-538q0 -3 -2 -3h-49zM93 608l-59 109q-2 3 1 3h48q3 0 4 -3l48 -108q2 -4 -1 -4h-37q-1 0 -4 3z" />
<glyph horiz-adv-x="168" d="M60 0q-2 0 -2 3v538q0 3 2 3h49q2 0 2 -3v-538q0 -3 -2 -3h-49zM75 609q0 -4 -3 -4h-38q-3 0 -1 4l48 108q1 3 4 3h49q2 0 1 -3z" />
<glyph horiz-adv-x="168" d="M60 0q-2 0 -2 3v538q0 3 2 3h49q2 0 2 -3v-538q0 -3 -2 -3h-49zM37 605h-37q-4 0 -2 4q8 16 29.5 54t28.5 54q2 3 4 3h47q4 0 5 -3l58 -109q2 -3 -1 -3h-37q-3 0 -5 4l-41 69h-4q-40 -67 -41 -69q-2 -4 -4 -4z" />
<glyph horiz-adv-x="168" d="M60 0q-2 0 -2 3v538q0 3 2 3h49q2 0 2 -3v-538q0 -3 -2 -3h-49zM-4 640q-2 0 -2 3v58l2 3h44q3 0 3 -3v-58q0 -3 -3 -3h-44zM130 640q-3 0 -3 3v58q0 3 3 3h42q2 0 2 -3v-58q0 -3 -2 -3h-42z" />
<glyph horiz-adv-x="435" d="M59 0q-2 0 -2 3v538l2 3h63q4 0 5 -3l191 -438h8v438q0 3 3 3h49q2 0 2 -3v-538q0 -3 -2 -3h-64q-1 0 -4 3l-192 442h-8v-442q0 -3 -3 -3h-48zM134 636q-2 0 -2 4v29q0 5 3 8l3 3q2 3 4.5 5.5t7 6.5t9 6.5t10.5 4.5t12 2q16 0 40 -15t38 -15q15 0 28.5 14t14.5 14 q2 0 2 -3v-29q0 -7 -2 -10q-21 -28 -47 -28q-17 0 -40.5 15.5t-36.5 15.5q-14 0 -28.5 -14t-15.5 -14z" />
<glyph horiz-adv-x="407" d="M203 -4q-27 0 -45 2t-42.5 12.5t-39.5 30t-25.5 56.5t-10.5 90v174q0 62 14 102.5t40.5 57.5t50 22t58.5 5q22 0 37 -1.5t36.5 -6.5t35.5 -17.5t28 -32.5t21 -52.5t7 -76.5v-174q0 -53 -11 -90.5t-26 -56.5t-40 -29.5t-43 -12.5t-45 -2zM203 47q54 0 82 28t28 118v162 q0 46 -8.5 76t-25 43.5t-33.5 18t-43 4.5q-52 0 -80.5 -28t-28.5 -114v-162q0 -49 9 -80t26.5 -44.5t33.5 -17.5t40 -4zM211 608l-59 109q-2 3 1 3h48q3 0 4 -3l48 -108q2 -4 -1 -4h-37q-1 0 -4 3z" />
<glyph horiz-adv-x="407" d="M203 -4q-27 0 -45 2t-42.5 12.5t-39.5 30t-25.5 56.5t-10.5 90v174q0 62 14 102.5t40.5 57.5t50 22t58.5 5q22 0 37 -1.5t36.5 -6.5t35.5 -17.5t28 -32.5t21 -52.5t7 -76.5v-174q0 -53 -11 -90.5t-26 -56.5t-40 -29.5t-43 -12.5t-45 -2zM203 47q54 0 82 28t28 118v162 q0 46 -8.5 76t-25 43.5t-33.5 18t-43 4.5q-52 0 -80.5 -28t-28.5 -114v-162q0 -49 9 -80t26.5 -44.5t33.5 -17.5t40 -4zM194 609q0 -4 -3 -4h-38q-3 0 -1 4l48 108q2 3 4 3h49q3 0 1 -3z" />
<glyph horiz-adv-x="407" d="M203 -4q-27 0 -45 2t-42.5 12.5t-39.5 30t-25.5 56.5t-10.5 90v174q0 62 14 102.5t40.5 57.5t50 22t58.5 5q22 0 37 -1.5t36.5 -6.5t35.5 -17.5t28 -32.5t21 -52.5t7 -76.5v-174q0 -53 -11 -90.5t-26 -56.5t-40 -29.5t-43 -12.5t-45 -2zM203 47q54 0 82 28t28 118v162 q0 46 -8.5 76t-25 43.5t-33.5 18t-43 4.5q-52 0 -80.5 -28t-28.5 -114v-162q0 -49 9 -80t26.5 -44.5t33.5 -17.5t40 -4zM156 605h-37q-4 0 -2 4q8 16 29.5 54t28.5 54q1 3 4 3h47q4 0 5 -3l58 -109q1 -3 -1 -3h-37q-3 0 -5 4l-41 69h-4q-40 -67 -41 -69q-2 -4 -4 -4z" />
<glyph horiz-adv-x="407" d="M203 47q54 0 82 28t28 118v162q0 46 -8.5 76t-25 43.5t-33.5 18t-43 4.5q-52 0 -80.5 -28t-28.5 -114v-162q0 -49 9 -80t26.5 -44.5t33.5 -17.5t40 -4zM203 -4q-27 0 -45 2t-42.5 12.5t-39.5 30t-25.5 56.5t-10.5 90v174q0 62 14 102.5t40.5 57.5t50 22t58.5 5 q22 0 37 -1.5t36.5 -6.5t35.5 -17.5t28 -32.5t21 -52.5t7 -76.5v-174q0 -53 -11 -90.5t-26 -56.5t-40 -29.5t-43 -12.5t-45 -2zM119 636q-2 0 -2 4v29q0 5 3 8l2 3l5.5 5.5t7 6.5t9 6.5t10.5 4.5t12 2q16 0 40 -15t38 -15q15 0 28.5 14t14.5 14q2 0 2 -3v-29q0 -7 -2 -10 q-21 -28 -47 -28q-17 0 -40.5 15.5t-36.5 15.5q-14 0 -28.5 -14t-15.5 -14z" />
<glyph horiz-adv-x="407" d="M203 -4q-27 0 -45 2t-42.5 12.5t-39.5 30t-25.5 56.5t-10.5 90v174q0 62 14 102.5t40.5 57.5t50 22t58.5 5q22 0 37 -1.5t36.5 -6.5t35.5 -17.5t28 -32.5t21 -52.5t7 -76.5v-174q0 -53 -11 -90.5t-26 -56.5t-40 -29.5t-43 -12.5t-45 -2zM203 47q54 0 82 28t28 118v162 q0 46 -8.5 76t-25 43.5t-33.5 18t-43 4.5q-52 0 -80.5 -28t-28.5 -114v-162q0 -49 9 -80t26.5 -44.5t33.5 -17.5t40 -4zM115 640q-2 0 -2 3v58l2 3h44q3 0 3 -3v-58q0 -3 -3 -3h-44zM249 640q-3 0 -3 3v58q0 3 3 3h42q2 0 2 -3v-58q0 -3 -2 -3h-42z" />
<glyph horiz-adv-x="422" d="M196 -4q-82 0 -113.5 49.5t-31.5 170.5v325q0 3 3 3h49q2 0 2 -3v-319q0 -100 17 -137.5t74 -37.5h32q58 0 73.5 37t15.5 138v319q0 3 4 3h47q3 0 3 -3v-325q0 -119 -28.5 -169.5t-114.5 -50.5h-32zM220 608l-59 109q-1 3 1 3h48q2 0 4 -3l48 -108q2 -4 -1 -4h-37 q-1 0 -4 3z" />
<glyph horiz-adv-x="422" d="M196 -4q-82 0 -113.5 49.5t-31.5 170.5v325q0 3 3 3h49q2 0 2 -3v-319q0 -100 17 -137.5t74 -37.5h32q58 0 73.5 37t15.5 138v319q0 3 4 3h47q3 0 3 -3v-325q0 -119 -28.5 -169.5t-114.5 -50.5h-32zM202 609q0 -4 -3 -4h-38q-3 0 -1 4l48 108q2 3 4 3h49q3 0 1 -3z" />
<glyph horiz-adv-x="422" d="M196 -4q-82 0 -113.5 49.5t-31.5 170.5v325q0 3 3 3h49q2 0 2 -3v-319q0 -100 17 -137.5t74 -37.5h32q58 0 73.5 37t15.5 138v319q0 3 4 3h47q3 0 3 -3v-325q0 -119 -28.5 -169.5t-114.5 -50.5h-32zM164 605h-37q-4 0 -2 4q8 16 29 54t29 54q1 3 4 3h47q4 0 5 -3l58 -109 q1 -3 -1 -3h-37q-3 0 -5 4l-41 69h-4q-40 -67 -41 -69q-2 -4 -4 -4z" />
<glyph horiz-adv-x="422" d="M196 -4q-82 0 -113.5 49.5t-31.5 170.5v325q0 3 3 3h49q2 0 2 -3v-319q0 -100 17 -137.5t74 -37.5h32q58 0 73.5 37t15.5 138v319q0 3 4 3h47q3 0 3 -3v-325q0 -119 -28.5 -169.5t-114.5 -50.5h-32zM124 640q-2 0 -2 3v58l2 3h44q3 0 3 -3v-58q0 -3 -3 -3h-44zM258 640 q-3 0 -3 3v58q0 3 3 3h42q2 0 2 -3v-58q0 -3 -2 -3h-42z" />
<glyph horiz-adv-x="354" d="M154 0q-3 0 -3 3v216q-138 320 -139 322q-2 3 1 3h54l3 -3l106 -254h4q103 252 105 254q3 3 4 3h52q3 0 2 -3l-139 -322v-216q0 -3 -2 -3h-48zM167 609q0 -4 -3 -4h-38q-3 0 -1 4l48 108q1 3 4 3h49q2 0 1 -3z" />
<glyph horiz-adv-x="354" d="M154 0q-3 0 -3 3v216q-138 320 -139 322q-2 3 1 3h54l3 -3l106 -254h4q103 252 105 254q3 3 4 3h52q3 0 2 -3l-139 -322v-216q0 -3 -2 -3h-48zM90 640q-2 0 -2 3v58l2 3h44q3 0 3 -3v-58q0 -3 -3 -3h-44zM224 640q-3 0 -3 3v58q0 3 3 3h42q2 0 2 -3v-58q0 -3 -2 -3h-42z " />
<glyph horiz-adv-x="407" d="M54 -32q-3 0 0 3l28 63q-42 45 -42 153v174q0 62 14 102.5t40.5 57.5t50 22t58.5 5q58 0 89 -14l19 39q3 3 5 3h40q4 0 1 -3l-30 -65q41 -46 41 -147v-174q0 -53 -11 -90.5t-26 -56.5t-40 -29.5t-43 -12.5t-45 -2q-54 0 -86 13q-17 -34 -17 -38q-2 -3 -5 -3h-41zM203 47 q54 0 82 28t28 118v162q0 46 -8.5 76t-25 43.5t-33.5 18t-43 4.5q-52 0 -80.5 -28t-28.5 -114v-162q0 -49 9 -80t26.5 -44.5t33.5 -17.5t40 -4z" />
<glyph horiz-adv-x="397" d="M196 -4q-86 0 -146 30q-2 1 -1 4l7 20q8 20 9 21q1 2 3 1q5 -2 19 -7t47 -12t64 -7q50 0 77.5 15t27.5 64v49q0 37 -25 53t-77 21q-88 8 -119.5 37t-31.5 92v53q0 118 147 118q38 0 70.5 -6.5t44.5 -11.5t14 -7q3 -3 2 -4l-15 -38q-1 -3 -3 -2q-3 1 -16 5t-41 8.5 t-55 4.5q-43 0 -68 -14t-25 -56v-48q0 -37 23 -54.5t77 -22.5q86 -8 119.5 -35.5t33.5 -91.5v-53q0 -41 -14 -68t-40.5 -39t-50.5 -15.5t-57 -3.5zM245 721h39q4 0 1 -4l-65 -108q-3 -3 -4 -3h-35q-5 0 -6 3q-8 15 -32.5 53.5t-32.5 55.5q-2 3 1 3h40q1 0 4 -3l42 -70h3 q39 68 41 70q3 3 4 3z" />
<glyph horiz-adv-x="363" d="M35 0q-2 0 -2 2v51q0 3 1 4l231 429v6h-221q-2 0 -2 4v44q0 4 2 4h280q4 0 4 -4v-48q0 -6 -2 -8l-230 -426v-7h228q4 0 4 -3v-45q0 -3 -3 -3h-290zM228 721h39q4 0 1 -4l-65 -108q-3 -3 -4 -3h-35q-4 0 -6 3q-8 15 -32.5 53.5t-32.5 55.5q-1 3 1 3h40q1 0 4 -3l42 -70h3 q39 68 41 70q3 3 4 3z" />
<glyph horiz-adv-x="623" d="M153 169h156v299h-14zM68 0h-51q-2 0 -1 3l15 30q15 30 38 77t51.5 104t56.5 114t51.5 104l38.5 77t16 31q3 4 4 4h295q3 0 3 -3v-45q0 -3 -3 -3h-220v-191h189q2 0 2 -3v-45q0 -3 -2 -3h-189v-200h220q3 0 3 -3v-45q0 -3 -3 -3h-273v119h-181q-54 -114 -56 -116 q-3 -3 -4 -3z" />
<glyph horiz-adv-x="625" d="M204 47q51 0 80.5 30.5t29.5 123.5v146q0 49 -10 81.5t-28 46t-34 18t-38 4.5q-23 0 -39 -4t-34 -17.5t-27 -44t-9 -77.5v-161q0 -49 9 -80.5t27 -44.5t33.5 -17t39.5 -4zM204 -4q-27 0 -45.5 2.5t-42.5 13.5t-39 30.5t-25.5 57t-10.5 89.5v170q0 52 10.5 88.5t25.5 56 t39 30t42.5 12.5t45.5 2q72 0 110 -48v44h276q3 0 3 -3v-45q0 -3 -3 -3h-222v-191h191q3 0 3 -3v-45q0 -3 -3 -3h-191v-200h222q3 0 3 -3v-45q0 -3 -3 -3h-276v44q-40 -48 -110 -48z" />
<glyph horiz-adv-x="414" d="M110 51h97q26 0 41 3t33.5 15.5t27.5 43.5t9 80v161q0 48 -9.5 78.5t-28.5 42.5t-33.5 15t-39.5 3h-97v-195h87q2 0 2 -3v-40q0 -3 -2 -3h-87v-201zM201 0h-144v252h-33q-2 0 -2 3v40q0 3 2 3h33v246h144q36 0 60.5 -5t53 -22t43 -56.5t14.5 -100.5v-171 q0 -39 -6.5 -69.5t-15.5 -50t-24.5 -33.5t-28.5 -21t-33.5 -10.5t-31.5 -4t-31 -0.5z" />
<glyph horiz-adv-x="392" d="M111 175h105q41 0 66 17.5t25 71.5v35q0 54 -24 70.5t-66 16.5h-106v-211zM109 0h-49q-2 2 -2 3v538l2 3h49q2 0 2 -3v-104h105q31 0 49.5 -3t44 -15t38 -42t12.5 -77v-38q0 -37 -10 -64t-24 -41t-36 -21.5t-37.5 -9t-36.5 -1.5h-105v-122q0 -3 -2 -3z" />
<glyph horiz-adv-x="354" d="M58 0v229q-38 -27 -40 -28t-2 2v46q0 4 2 5l40 27v260q0 3 3 3h47q3 0 3 -3v-228q103 74 104 74q1 1 1.5 0.5t0.5 -2.5v-46q0 -3 -2 -5l-104 -74v-209h223q2 0 2 -3v-45q0 -3 -2 -3h-276z" />
<glyph horiz-adv-x="403" d="M67 0h-51q-2 0 -1 3q1 2 78 269.5t77 268.5q0 3 3 3h58q3 0 3 -2l154 -539q2 -3 -2 -3h-50q-2 0 -3 3l-33 116h-198q-31 -114 -32 -116q-2 -3 -3 -3zM117 169h169l-78 288h-12zM289 652h-176q-2 0 -2 3v39q0 3 2 3h176q2 0 2 -3v-39q0 -3 -2 -3z" />
<glyph horiz-adv-x="403" d="M67 0h-51q-2 0 -1 3q1 2 78 269.5t77 268.5q0 3 3 3h58q3 0 3 -2l154 -539q2 -3 -2 -3h-50q-2 0 -3 3l-33 116h-198q-31 -114 -32 -116q-2 -3 -3 -3zM117 169h169l-78 288h-12zM202 615q-88 0 -88 90q0 4 3 4h22q5 0 6 -4q8 -31 19.5 -41t37.5 -10q24 0 35.5 10.5 t18.5 40.5q1 4 5 4h24q3 0 3 -4q-6 -90 -86 -90z" />
<glyph horiz-adv-x="403" d="M339 -139q-26 0 -39.5 11t-13.5 43q0 45 48 86q0 1 -0.5 1t-0.5 1l-33 116h-198q-31 -114 -32 -116q-2 -3 -3 -3h-51q-2 0 -1 3q1 2 78 269.5t77 268.5q0 3 3 3h58q3 0 3 -2l154 -539q2 -3 -2 -3h-3q-55 -46 -55 -77q0 -12 4.5 -16t14.5 -4q4 0 8 1.5t7.5 4t4.5 2.5 q3 1 4 -1q3 -3 13 -23q2 -5 -1 -8q-18 -18 -44 -18zM117 169h169l-78 288h-12z" />
<glyph horiz-adv-x="371" d="M205 -4q-28 0 -48 2.5t-44 14t-38.5 31t-24.5 56.5t-10 88v173q0 50 10 85.5t25 55t38.5 30.5t43.5 13.5t48 2.5q68 0 120 -26q3 -2 2 -4q-16 -32 -16 -38q0 -4 -4 -2q-1 1 -15 5.5t-39.5 9t-47.5 4.5q-19 0 -31.5 -2t-29 -10t-26.5 -22t-17 -41.5t-7 -66.5v-162 q0 -88 28.5 -116.5t82.5 -28.5q59 0 109 25q1 1 3 -2q17 -34 17 -37q1 -2 -2 -4l-2 -2q-2 -1 -5 -3t-8 -4.5t-11 -5t-14 -5.5t-17.5 -5.5t-20 -4.5t-23.5 -3t-26 -1zM192 611q0 -4 -3 -4h-38q-3 0 -1 4l48 108q2 3 4 3h49q3 0 1 -3z" />
<glyph horiz-adv-x="371" d="M205 -4q-28 0 -48 2.5t-44 14t-38.5 31t-24.5 56.5t-10 88v173q0 50 10 85.5t25 55t38.5 30.5t43.5 13.5t48 2.5q68 0 120 -26q3 -2 2 -4q-16 -32 -16 -38q0 -4 -4 -2q-1 1 -15 5.5t-39.5 9t-47.5 4.5q-19 0 -31.5 -2t-29 -10t-26.5 -22t-17 -41.5t-7 -66.5v-162 q0 -88 28.5 -116.5t82.5 -28.5q59 0 109 25q1 1 3 -2q17 -34 17 -37q1 -2 -2 -4l-2 -2q-2 -1 -5 -3t-8 -4.5t-11 -5t-14 -5.5t-17.5 -5.5t-20 -4.5t-23.5 -3t-26 -1zM155 607h-37q-4 0 -2 4q8 16 29.5 54t28.5 54q2 3 4 3h47q4 0 5 -3l58 -109q2 -3 -1 -3h-37q-3 0 -5 4 l-41 69h-4q-40 -67 -41 -69q-2 -4 -4 -4z" />
<glyph horiz-adv-x="371" d="M205 -4q-28 0 -48 2.5t-44 14t-38.5 31t-24.5 56.5t-10 88v173q0 50 10 85.5t25 55t38.5 30.5t43.5 13.5t48 2.5q68 0 120 -26q3 -2 2 -4q-16 -32 -16 -38q0 -4 -4 -2q-1 1 -15 5.5t-39.5 9t-47.5 4.5q-19 0 -31.5 -2t-29 -10t-26.5 -22t-17 -41.5t-7 -66.5v-162 q0 -88 28.5 -116.5t82.5 -28.5q59 0 109 25q1 1 3 -2q17 -34 17 -37q1 -2 -2 -4l-2 -2q-2 -1 -5 -3t-8 -4.5t-11 -5t-14 -5.5t-17.5 -5.5t-20 -4.5t-23.5 -3t-26 -1zM175 639q-2 0 -2 3v60q0 3 2 3h51q2 0 2 -3v-60q0 -3 -3 -3h-50z" />
<glyph horiz-adv-x="371" d="M205 -4q-28 0 -48 2.5t-44 14t-38.5 31t-24.5 56.5t-10 88v173q0 50 10 85.5t25 55t38.5 30.5t43.5 13.5t48 2.5q68 0 120 -26q3 -2 2 -4q-16 -32 -16 -38q0 -4 -4 -2q-1 1 -15 5.5t-39.5 9t-47.5 4.5q-19 0 -31.5 -2t-29 -10t-26.5 -22t-17 -41.5t-7 -66.5v-162 q0 -88 28.5 -116.5t82.5 -28.5q59 0 109 25q1 1 3 -2q17 -34 17 -37q1 -2 -2 -4l-2 -2q-2 -1 -5 -3t-8 -4.5t-11 -5t-14 -5.5t-17.5 -5.5t-20 -4.5t-23.5 -3t-26 -1zM248 721h39q4 0 1 -4l-65 -108q-3 -3 -4 -3h-35q-4 0 -6 3q-8 15 -32.5 53.5t-32.5 55.5q-1 3 1 3h40 q1 0 4 -3l42 -70h3q39 68 41 70q3 3 4 3z" />
<glyph horiz-adv-x="414" d="M111 51h96q57 0 84 27.5t27 115.5v160q0 47 -8.5 76.5t-26.5 42.5t-34 16.5t-42 3.5h-96v-442zM207 0h-149v544h149q28 0 44.5 -1.5t42.5 -11.5t40.5 -28t26 -54.5t11.5 -88.5v-171q0 -53 -10.5 -90t-25 -56t-39.5 -29t-43 -12t-47 -2zM252 721h39q4 0 1 -4l-65 -108 q-3 -3 -4 -3h-35q-4 0 -6 3q-8 15 -32.5 53.5t-32.5 55.5q-1 3 1 3h40q1 0 4 -3l42 -70h3q39 68 41 70q3 3 4 3z" />
<glyph horiz-adv-x="414" d="M110 51h97q26 0 41 3t33.5 15.5t27.5 43.5t9 80v161q0 48 -9.5 78.5t-28.5 42.5t-33.5 15t-39.5 3h-97v-195h87q2 0 2 -3v-40q0 -3 -2 -3h-87v-201zM201 0h-144v252h-33q-2 0 -2 3v40q0 3 2 3h33v246h144q36 0 60.5 -5t53 -22t43 -56.5t14.5 -100.5v-171 q0 -39 -6.5 -69.5t-15.5 -50t-24.5 -33.5t-28.5 -21t-33.5 -10.5t-31.5 -4t-31 -0.5z" />
<glyph horiz-adv-x="370" d="M58 0v544h276q3 0 3 -3v-45q0 -3 -3 -3h-223v-191h192q2 0 2 -3v-45q0 -3 -2 -3h-192v-200h223q3 0 3 -3v-45q0 -3 -3 -3h-276zM285 652h-176q-2 0 -2 3v39q0 3 2 3h176q2 0 2 -3v-39q0 -3 -2 -3z" />
<glyph horiz-adv-x="370" d="M58 0v544h276q3 0 3 -3v-45q0 -3 -3 -3h-223v-191h192q2 0 2 -3v-45q0 -3 -2 -3h-192v-200h223q3 0 3 -3v-45q0 -3 -3 -3h-276zM199 615q-88 0 -88 90q0 4 3 4h22q5 0 6 -4q8 -31 19.5 -41t37.5 -10q24 0 35.5 10.5t18.5 40.5q1 4 5 4h24q3 0 3 -4q-6 -90 -86 -90z" />
<glyph horiz-adv-x="370" d="M58 0v544h276q3 0 3 -3v-45q0 -3 -3 -3h-223v-191h192q2 0 2 -3v-45q0 -3 -2 -3h-192v-200h223q3 0 3 -3v-45q0 -3 -3 -3h-276zM179 639q-2 0 -2 3v60q0 3 2 3h51q2 0 2 -3v-60q0 -3 -3 -3h-50z" />
<glyph horiz-adv-x="370" d="M58 0v544h276q3 0 3 -3v-45q0 -3 -3 -3h-223v-191h192q2 0 2 -3v-45q0 -3 -2 -3h-192v-200h223q3 0 3 -3v-45q0 -3 -3 -3h-1q-55 -46 -55 -77q0 -12 4.5 -16t14.5 -4q4 0 8 1.5t7.5 4t4.5 2.5q3 1 4 -1q3 -3 13 -23q2 -5 -1 -8q-18 -18 -44 -18t-39.5 11t-13.5 43 q0 46 46 85h-224z" />
<glyph horiz-adv-x="370" d="M58 0v544h276q3 0 3 -3v-45q0 -3 -3 -3h-223v-191h192q2 0 2 -3v-45q0 -3 -2 -3h-192v-200h223q3 0 3 -3v-45q0 -3 -3 -3h-276zM246 721h39q4 0 1 -4l-65 -108q-3 -3 -4 -3h-35q-4 0 -6 3q-8 15 -32.5 53.5t-32.5 55.5q-1 3 1 3h40q1 0 4 -3l42 -70h3q39 68 41 70 q3 3 4 3z" />
<glyph horiz-adv-x="407" d="M199 -4q-27 0 -46.5 3t-42 14t-37 31t-24 56.5t-9.5 87.5v173q0 51 11 87.5t26 55.5t39.5 29.5t42.5 12.5t45 2q36 0 70.5 -6.5t49.5 -12t19 -7.5q3 -2 2 -4l-16 -38q-1 -2 -3 -1l-8 2q-8 2 -20.5 4.5t-27.5 5t-32.5 4.5t-32.5 2q-23 0 -38.5 -3.5t-34.5 -16t-28.5 -43 t-9.5 -79.5v-162q0 -47 8.5 -78t25 -44.5t32.5 -18t40 -4.5q12 0 39 4.5t48 9.5l21 4v165h-77q-3 0 -3 3v43q0 3 3 3h127v-254q-116 -30 -159 -30zM161 607h-37q-4 0 -2 4q7 16 28.5 54t29.5 54q2 3 4 3h47q4 0 5 -3l58 -109q2 -3 -1 -3h-37q-3 0 -5 4l-41 69h-4 q-40 -67 -41 -69q-2 -4 -4 -4z" />
<glyph horiz-adv-x="407" d="M199 -4q-27 0 -46.5 3t-42 14t-37 31t-24 56.5t-9.5 87.5v173q0 51 11 87.5t26 55.5t39.5 29.5t42.5 12.5t45 2q36 0 70.5 -6.5t49.5 -12t19 -7.5q3 -2 2 -4l-16 -38q-1 -2 -3 -1l-8 2q-8 2 -20.5 4.5t-27.5 5t-32.5 4.5t-32.5 2q-23 0 -38.5 -3.5t-34.5 -16t-28.5 -43 t-9.5 -79.5v-162q0 -47 8.5 -78t25 -44.5t32.5 -18t40 -4.5q12 0 39 4.5t48 9.5l21 4v165h-77q-3 0 -3 3v43q0 3 3 3h127v-254q-116 -30 -159 -30zM207 615q-88 0 -88 90q0 4 3 4h22q5 0 6 -4q8 -31 19.5 -41t37.5 -10q24 0 35.5 10.5t18.5 40.5q1 4 5 4h24q3 0 3 -4 q-6 -90 -86 -90z" />
<glyph horiz-adv-x="407" d="M199 -4q-27 0 -46.5 3t-42 14t-37 31t-24 56.5t-9.5 87.5v173q0 51 11 87.5t26 55.5t39.5 29.5t42.5 12.5t45 2q36 0 70.5 -6.5t49.5 -12t19 -7.5q3 -2 2 -4l-16 -38q-1 -2 -3 -1l-8 2q-8 2 -20.5 4.5t-27.5 5t-32.5 4.5t-32.5 2q-23 0 -38.5 -3.5t-34.5 -16t-28.5 -43 t-9.5 -79.5v-162q0 -47 8.5 -78t25 -44.5t32.5 -18t40 -4.5q12 0 39 4.5t48 9.5l21 4v165h-77q-3 0 -3 3v43q0 3 3 3h127v-254q-116 -30 -159 -30zM178 639q-2 0 -2 3v60q0 3 2 3h51q2 0 2 -3v-60q0 -3 -3 -3h-50z" />
<glyph horiz-adv-x="433" d="M60 0q-2 0 -2 3v538q0 3 2 3h49q2 0 2 -3v-242h211v242q0 3 4 3h47q3 0 3 -3v-538q0 -3 -3 -3h-47q-4 0 -4 3v248h-211v-248q0 -3 -2 -3h-49zM170 607h-37q-4 0 -2 4q7 16 29 54t29 54q1 3 4 3h47q4 0 5 -3l58 -109q1 -3 -1 -3h-37q-3 0 -5 4l-41 69h-4q-40 -67 -41 -69 q-2 -4 -4 -4z" />
<glyph horiz-adv-x="168" d="M60 0q-2 0 -2 3v538q0 3 2 3h49q2 0 2 -3v-538q0 -3 -2 -3h-49zM0 638q-2 0 -2 4v29q0 5 3 8l3 3q2 3 4.5 5.5t7 6.5t9 6.5t10.5 4.5t12 2q16 0 40 -15t38 -15q15 0 28.5 14t14.5 14q2 0 2 -3v-29q0 -7 -2 -10q-21 -28 -47 -28q-17 0 -40.5 15.5t-36.5 15.5 q-14 0 -28.5 -14t-15.5 -14z" />
<glyph horiz-adv-x="168" d="M60 0q-2 0 -2 3v538q0 3 2 3h49q2 0 2 -3v-538q0 -3 -2 -3h-49zM172 652h-176q-2 0 -2 3v39q0 3 2 3h176q2 0 2 -3v-39q0 -3 -2 -3z" />
<glyph horiz-adv-x="168" d="M63 -139q-26 0 -39.5 11t-13.5 43q0 45 48 86v2v538q0 3 2 3h49q2 0 2 -3v-538q0 -3 -2 -3h-2q-55 -46 -55 -77q0 -12 4.5 -16t14.5 -4q4 0 8 1.5t7.5 4t4.5 2.5q3 1 4 -1q3 -3 13 -23q2 -5 -1 -8q-18 -18 -44 -18z" />
<glyph horiz-adv-x="168" d="M60 0q-2 0 -2 3v538q0 3 2 3h49q2 0 2 -3v-538q0 -3 -2 -3h-49zM59 639q-2 0 -2 3v60q0 3 2 3h51q2 0 2 -3v-60q0 -3 -3 -3h-50z" />
<glyph horiz-adv-x="316" d="M133 -4q-21 0 -46.5 4t-40.5 7.5t-17 4.5t-1 4l12 40q1 2 4 1l6 -1q6 -1 16 -2.5t20.5 -3t22.5 -2.5t21 -1q19 0 30.5 2t24 9t18.5 24t6 44v415q0 3 3 3h48q2 0 2 -3v-416q0 -44 -11 -72t-32.5 -39t-39.5 -14.5t-46 -3.5zM187 607h-37q-4 0 -2 4q8 16 29.5 54t28.5 54 q2 3 4 3h47q4 0 5 -3l58 -109q2 -3 -1 -3h-37q-3 0 -5 4l-41 69h-4q-40 -67 -41 -69q-2 -4 -4 -4z" />
<glyph horiz-adv-x="354" d="M58 0v541q0 3 2 3h49q2 0 2 -3v-490h223q3 0 3 -3v-44q0 -4 -3 -4h-276zM167 611q0 -4 -3 -4h-38q-3 0 -1 4l48 108q1 3 4 3h49q2 0 1 -3z" />
<glyph horiz-adv-x="435" d="M59 0q-2 0 -2 3v538l2 3h63q4 0 5 -3l191 -438h8v438q0 3 3 3h49q2 0 2 -3v-538q0 -3 -2 -3h-64q-1 0 -4 3l-192 442h-8v-442q0 -3 -3 -3h-48zM208 611q0 -4 -3 -4h-38q-3 0 -1 4l48 108q2 3 4 3h49q3 0 1 -3z" />
<glyph horiz-adv-x="435" d="M59 0q-2 0 -2 3v538l2 3h63q4 0 5 -3l191 -438h8v438q0 3 3 3h49q2 0 2 -3v-538q0 -3 -2 -3h-64q-1 0 -4 3l-192 442h-8v-442q0 -3 -3 -3h-48zM265 721h39q4 0 1 -4l-65 -108q-3 -3 -4 -3h-35q-5 0 -6 3q-8 15 -32.5 53.5t-32.5 55.5q-2 3 1 3h40q1 0 4 -3l42 -70h3 q39 68 41 70q3 3 4 3z" />
<glyph horiz-adv-x="407" d="M203 47q54 0 82 28t28 118v162q0 46 -8.5 76t-25 43.5t-33.5 18t-43 4.5q-52 0 -80.5 -28t-28.5 -114v-162q0 -49 9 -80t26.5 -44.5t33.5 -17.5t40 -4zM203 -4q-27 0 -45 2t-42.5 12.5t-39.5 30t-25.5 56.5t-10.5 90v174q0 62 14 102.5t40.5 57.5t50 22t58.5 5 q22 0 37 -1.5t36.5 -6.5t35.5 -17.5t28 -32.5t21 -52.5t7 -76.5v-174q0 -53 -11 -90.5t-26 -56.5t-40 -29.5t-43 -12.5t-45 -2zM292 652h-176q-2 0 -2 3v39q0 3 2 3h176q2 0 2 -3v-39q0 -3 -2 -3z" />
<glyph horiz-adv-x="407" d="M203 47q54 0 82 28t28 118v162q0 46 -8.5 76t-25 43.5t-33.5 18t-43 4.5q-52 0 -80.5 -28t-28.5 -114v-162q0 -49 9 -80t26.5 -44.5t33.5 -17.5t40 -4zM203 -4q-27 0 -45 2t-42.5 12.5t-39.5 30t-25.5 56.5t-10.5 90v174q0 62 14 102.5t40.5 57.5t50 22t58.5 5 q22 0 37 -1.5t36.5 -6.5t35.5 -17.5t28 -32.5t21 -52.5t7 -76.5v-174q0 -53 -11 -90.5t-26 -56.5t-40 -29.5t-43 -12.5t-45 -2zM204 615q-88 0 -88 90q0 4 3 4h22q5 0 6 -4q8 -31 19.5 -41t37.5 -10q24 0 35.5 10.5t18.5 40.5q1 4 5 4h24q3 0 3 -4q-6 -90 -86 -90z" />
<glyph horiz-adv-x="407" d="M203 -4q-27 0 -45 2t-42.5 12.5t-39.5 30t-25.5 56.5t-10.5 90v174q0 62 14 102.5t40.5 57.5t50 22t58.5 5q22 0 37 -1.5t36.5 -6.5t35.5 -17.5t28 -32.5t21 -52.5t7 -76.5v-174q0 -53 -11 -90.5t-26 -56.5t-40 -29.5t-43 -12.5t-45 -2zM203 47q54 0 82 28t28 118v162 q0 46 -8.5 76t-25 43.5t-33.5 18t-43 4.5q-52 0 -80.5 -28t-28.5 -114v-162q0 -49 9 -80t26.5 -44.5t33.5 -17.5t40 -4zM159 611q-1 -3 -4 -3h-38q-3 0 -1 3l48 108q2 3 4 3h49q3 0 1 -3q0 -1 -15 -27.5t-29.5 -53t-14.5 -27.5zM249 611q-1 -3 -4 -3h-37q-1 0 -1 3 q0 1 12 27t24 53t12 28q1 3 5 3h47q3 0 2 -3q0 -1 -15 -27.5l-30 -53t-15 -27.5z" />
<glyph horiz-adv-x="411" d="M109 0h-49q-2 1 -2 3v541h158q24 0 40 -1.5t38 -9t34.5 -21.5t22 -41t9.5 -65v-44q0 -107 -76 -130l92 -229q2 -3 -2 -3h-54q-4 0 -5 3l-83 220h-121v-220q0 -3 -2 -3zM111 274h105q18 0 31.5 2.5t28.5 11t23 27.5t8 48v43q0 29 -7.5 48t-22 26.5t-27.5 10t-33 2.5h-106 v-219zM196 611q0 -4 -3 -4h-38q-3 0 -1 4l48 108q2 3 4 3h49q3 0 1 -3z" />
<glyph horiz-adv-x="411" d="M111 274h105q18 0 31.5 2.5t28.5 11t23 27.5t8 48v43q0 29 -7.5 48t-22 26.5t-27.5 10t-33 2.5h-106v-219zM109 0h-49q-2 1 -2 3v541h158q24 0 40 -1.5t38 -9t34.5 -21.5t22 -41t9.5 -65v-44q0 -107 -76 -130l92 -229q2 -3 -2 -3h-54q-4 0 -5 3l-83 220h-121v-220 q0 -3 -2 -3zM239 721h39q4 0 1 -4l-65 -108q-3 -3 -4 -3h-35q-5 0 -6 3q-8 15 -32.5 53.5t-32.5 55.5q-2 3 1 3h40q1 0 4 -3l42 -70h3q39 68 41 70q3 3 4 3z" />
<glyph horiz-adv-x="397" d="M196 -4q-86 0 -146 30q-2 1 -1 4l7 20q8 20 9 21q1 2 3 1q5 -2 19 -7t47 -12t64 -7q50 0 77.5 15t27.5 64v49q0 37 -25 53t-77 21q-88 8 -119.5 37t-31.5 92v53q0 118 147 118q38 0 70.5 -6.5t44.5 -11.5t14 -7q3 -3 2 -4l-15 -38q-1 -3 -3 -2q-3 1 -16 5t-41 8.5 t-55 4.5q-43 0 -68 -14t-25 -56v-48q0 -37 23 -54.5t77 -22.5q86 -8 119.5 -35.5t33.5 -91.5v-53q0 -41 -14 -68t-40.5 -39t-50.5 -15.5t-57 -3.5zM198 611q0 -4 -3 -4h-38q-3 0 -1 4l48 108q2 3 4 3h49q3 0 1 -3z" />
<glyph horiz-adv-x="397" d="M196 -4q-86 0 -146 30q-2 1 -1 4l7 20q8 20 9 21q1 2 3 1q5 -2 19 -7t47 -12t64 -7q50 0 77.5 15t27.5 64v49q0 37 -25 53t-77 21q-88 8 -119.5 37t-31.5 92v53q0 118 147 118q38 0 70.5 -6.5t44.5 -11.5t14 -7q3 -3 2 -4l-15 -38q-1 -3 -3 -2q-3 1 -16 5t-41 8.5 t-55 4.5q-43 0 -68 -14t-25 -56v-48q0 -37 23 -54.5t77 -22.5q86 -8 119.5 -35.5t33.5 -91.5v-53q0 -41 -14 -68t-40.5 -39t-50.5 -15.5t-57 -3.5zM151 607h-37q-4 0 -2 4q8 16 29.5 54t28.5 54q2 3 4 3h47q4 0 5 -3l58 -109q2 -3 -1 -3h-37q-3 0 -5 4l-41 69h-4 q-40 -67 -41 -69q-2 -4 -4 -4z" />
<glyph horiz-adv-x="355" d="M154 0q-4 0 -4 3v490h-134q-2 0 -2 3v45q0 3 2 3h322q4 0 4 -3v-45q0 -3 -4 -3h-135v-490q0 -3 -2 -3h-47zM224 721h39q4 0 1 -4l-65 -108q-3 -3 -4 -3h-35q-4 0 -6 3q-8 15 -32.5 53.5t-32.5 55.5q-1 3 1 3h40q1 0 4 -3l42 -70h3q39 68 41 70q3 3 4 3z" />
<glyph horiz-adv-x="422" d="M196 -4q-82 0 -113.5 49.5t-31.5 170.5v325q0 3 3 3h49q2 0 2 -3v-319q0 -100 17 -137.5t74 -37.5h32q58 0 73.5 37t15.5 138v319q0 3 4 3h47q3 0 3 -3v-325q0 -119 -28.5 -169.5t-114.5 -50.5h-32zM127 638q-2 0 -2 4v29q0 5 3 8l2 3l5.5 5.5t7 6.5t9 6.5t10.5 4.5t12 2 q16 0 40 -15t38 -15q15 0 28.5 14t14.5 14q2 0 2 -3v-29q0 -7 -2 -10q-21 -28 -47 -28q-17 0 -40.5 15.5t-36.5 15.5q-14 0 -28.5 -14t-15.5 -14z" />
<glyph horiz-adv-x="422" d="M196 -4q-82 0 -113.5 49.5t-31.5 170.5v325q0 3 3 3h49q2 0 2 -3v-319q0 -100 17 -137.5t74 -37.5h32q58 0 73.5 37t15.5 138v319q0 3 4 3h47q3 0 3 -3v-325q0 -119 -28.5 -169.5t-114.5 -50.5h-32zM299 652h-176q-2 0 -2 3v39q0 3 2 3h176q2 0 2 -3v-39q0 -3 -2 -3z" />
<glyph horiz-adv-x="422" d="M196 -4q-82 0 -113.5 49.5t-31.5 170.5v325q0 3 3 3h49q2 0 2 -3v-319q0 -100 17 -137.5t74 -37.5h32q58 0 73.5 37t15.5 138v319q0 3 4 3h47q3 0 3 -3v-325q0 -119 -28.5 -169.5t-114.5 -50.5h-32zM212 615q-88 0 -88 90q0 4 3 4h22q5 0 6 -4q8 -31 19.5 -41t37.5 -10 q24 0 35.5 10.5t18.5 40.5q1 4 5 4h24q3 0 3 -4q-6 -90 -86 -90z" />
<glyph horiz-adv-x="422" d="M196 -4q-82 0 -113.5 49.5t-31.5 170.5v325q0 3 3 3h49q2 0 2 -3v-319q0 -100 17 -137.5t74 -37.5h32q58 0 73.5 37t15.5 138v319q0 3 4 3h47q3 0 3 -3v-325q0 -119 -28.5 -169.5t-114.5 -50.5h-32zM211 594q-13 0 -22.5 2t-19 8t-15 19.5t-5.5 33.5v17q0 61 64 61 q17 0 28.5 -3t22 -17.5t10.5 -40.5v-17q0 -39 -17 -51t-46 -12zM211 622q17 0 26 7.5t9 30.5v10q0 22 -8 29.5t-25 7.5q-18 0 -27.5 -7.5t-9.5 -29.5v-10q0 -23 9 -30.5t26 -7.5z" />
<glyph horiz-adv-x="422" d="M196 -4q-82 0 -113.5 49.5t-31.5 170.5v325q0 3 3 3h49q2 0 2 -3v-319q0 -100 17 -137.5t74 -37.5h32q58 0 73.5 37t15.5 138v319q0 3 4 3h47q3 0 3 -3v-325q0 -119 -28.5 -169.5t-114.5 -50.5h-32zM179 611q-1 -3 -4 -3h-38q-3 0 -1 3l48 108q2 3 4 3h49q3 0 1 -3 q0 -1 -15 -27.5t-29.5 -53t-14.5 -27.5zM269 611q-1 -3 -4 -3h-37q-1 0 -1 3q0 1 12 27t24 53t12 28q1 3 5 3h47q3 0 2 -3q0 -1 -15 -27.5l-30 -53t-15 -27.5z" />
<glyph horiz-adv-x="422" d="M198 -144q-26 0 -39.5 11t-13.5 43q0 44 47 86q-80 1 -110.5 50.5t-30.5 169.5v325q0 3 3 3h49q2 0 2 -3v-319q0 -100 17 -137.5t74 -37.5h32q58 0 73.5 37t15.5 138v319q0 3 4 3h47q3 0 3 -3v-325q0 -115 -26 -165t-102 -54v-1q-56 -47 -56 -78q0 -12 4.5 -16t14.5 -4 q4 0 8 1.5t7.5 4t4.5 2.5q3 1 4 -1q3 -3 13 -23q2 -5 -1 -8q-18 -18 -44 -18z" />
<glyph horiz-adv-x="556" d="M135 0q-3 0 -3 3q0 2 -56.5 269.5t-57.5 268.5q-2 3 1 3h51q2 0 3 -3l89 -449h13q78 342 79 344t3 2h43q3 0 4 -2l77 -344h13q89 447 90 449q1 3 4 3h49q5 0 3 -3q-1 -2 -58 -269t-57 -269q0 -3 -4 -3h-61q-3 0 -3 3l-75 332h-8q-73 -329 -73 -332q-3 -3 -4 -3h-62z M231 607h-37q-4 0 -2 4q8 16 29.5 54t28.5 54q2 3 4 3h47q4 0 5 -3l58 -109q2 -3 -1 -3h-37q-3 0 -5 4l-41 69h-4q-40 -67 -41 -69q-2 -4 -4 -4z" />
<glyph horiz-adv-x="354" d="M154 0q-3 0 -3 3v216q-138 320 -139 322q-2 3 1 3h54l3 -3l106 -254h4q103 252 105 254q3 3 4 3h52q3 0 2 -3l-139 -322v-216q0 -3 -2 -3h-48zM129 607h-37q-4 0 -2 4q7 16 29 54t29 54q2 3 4 3h47q4 0 5 -3l58 -109q2 -3 -1 -3h-37q-3 0 -5 4l-41 69h-4q-40 -67 -41 -69 q-2 -4 -4 -4z" />
<glyph horiz-adv-x="363" d="M35 0q-2 0 -2 2v51q0 3 1 4l231 429v6h-221q-2 0 -2 4v44q0 4 2 4h280q4 0 4 -4v-48q0 -6 -2 -8l-230 -426v-7h228q4 0 4 -3v-45q0 -3 -3 -3h-290zM186 611q0 -4 -3 -4h-38q-3 0 -1 4l48 108q2 3 4 3h49q3 0 1 -3z" />
<glyph horiz-adv-x="363" d="M35 0q-2 0 -2 2v51q0 3 1 4l231 429v6h-221q-2 0 -2 4v44q0 4 2 4h280q4 0 4 -4v-48q0 -6 -2 -8l-230 -426v-7h228q4 0 4 -3v-45q0 -3 -3 -3h-290zM161 639q-2 0 -2 3v60q0 3 2 3h51q2 0 2 -3v-60q0 -3 -3 -3h-50z" />
<glyph horiz-adv-x="556" d="M135 0q-3 0 -3 3q0 2 -56.5 269.5t-57.5 268.5q-2 3 1 3h51q2 0 3 -3l89 -449h13q78 342 79 344t3 2h43q3 0 4 -2l77 -344h13q89 447 90 449q1 3 4 3h49q5 0 3 -3q-1 -2 -58 -269t-57 -269q0 -3 -4 -3h-61q-3 0 -3 3l-75 332h-8q-73 -329 -73 -332q-3 -3 -4 -3h-62z M279 610l-59 109q-2 3 1 3h48q3 0 4 -3l48 -108q2 -4 -1 -4h-37q-1 0 -4 3z" />
<glyph horiz-adv-x="556" d="M135 0q-3 0 -3 3q0 2 -56.5 269.5t-57.5 268.5q-2 3 1 3h51q2 0 3 -3l89 -449h13q78 342 79 344t3 2h43q3 0 4 -2l77 -344h13q89 447 90 449q1 3 4 3h49q5 0 3 -3q-1 -2 -58 -269t-57 -269q0 -3 -4 -3h-61q-3 0 -3 3l-75 332h-8q-73 -329 -73 -332q-3 -3 -4 -3h-62z M276 611q0 -4 -3 -4h-38q-3 0 -1 4l48 108q2 3 4 3h49q3 0 1 -3z" />
<glyph horiz-adv-x="556" d="M135 0q-3 0 -3 3q0 2 -56.5 269.5t-57.5 268.5q-2 3 1 3h51q2 0 3 -3l89 -449h13q78 342 79 344t3 2h43q3 0 4 -2l77 -344h13q89 447 90 449q1 3 4 3h49q5 0 3 -3q-1 -2 -58 -269t-57 -269q0 -3 -4 -3h-61q-3 0 -3 3l-75 332h-8q-73 -329 -73 -332q-3 -3 -4 -3h-62z M189 641q-2 0 -2 3v58l2 3h44q3 0 3 -3v-58q0 -3 -3 -3h-44zM323 641q-3 0 -3 3v58q0 3 3 3h42q2 0 2 -3v-58q0 -3 -2 -3h-42z" />
<glyph horiz-adv-x="354" d="M58 0v541q0 3 2 3h49q2 0 2 -3v-490h223q3 0 3 -3v-44q0 -4 -3 -4h-276zM167 466q-5 -5 -5 3v146q0 4 4 4h47q4 0 4 -4v-100q0 -2 -3 -5z" />
<glyph horiz-adv-x="389" d="M60 0q-2 1 -2 3v538l2 3h49q2 0 2 -3v-240h23q155 237 157 240q3 3 5 3h59q1 0 0 -3l-176 -264q188 -272 189 -274q2 -3 -1 -3h-60q-3 0 -5 3l-167 248h-24v-248q0 -3 -2 -3h-49zM174 -206q-5 -5 -5 3v146q0 4 4 4h47q4 0 4 -4v-100q0 -2 -3 -5z" />
<glyph horiz-adv-x="354" d="M58 0v541q0 3 2 3h49q2 0 2 -3v-490h223q3 0 3 -3v-44q0 -4 -3 -4h-276zM169 -206q-5 -5 -5 3v146q0 4 4 4h47q4 0 4 -4v-100q0 -2 -3 -5z" />
<glyph horiz-adv-x="435" d="M59 0q-2 0 -2 3v538l2 3h63q4 0 5 -3l191 -438h8v438q0 3 3 3h49q2 0 2 -3v-538q0 -3 -2 -3h-64q-1 0 -4 3l-192 442h-8v-442q0 -3 -3 -3h-48zM202 -206q-5 -5 -5 3v146q0 4 4 4h47q4 0 4 -4v-100q0 -2 -3 -5z" />
<glyph horiz-adv-x="411" d="M109 0h-49q-2 1 -2 3v541h158q24 0 40 -1.5t38 -9t34.5 -21.5t22 -41t9.5 -65v-44q0 -107 -76 -130l92 -229q2 -3 -2 -3h-54q-4 0 -5 3l-83 220h-121v-220q0 -3 -2 -3zM111 274h105q18 0 31.5 2.5t28.5 11t23 27.5t8 48v43q0 29 -7.5 48t-22 26.5t-27.5 10t-33 2.5h-106 v-219zM187 -206q-5 -5 -5 3v146q0 4 4 4h47q4 0 4 -4v-100q0 -2 -3 -5z" />
<glyph horiz-adv-x="407" d="M199 -4q-27 0 -46.5 3t-42 14t-37 31t-24 56.5t-9.5 87.5v173q0 51 11 87.5t26 55.5t39.5 29.5t42.5 12.5t45 2q36 0 70.5 -6.5t49.5 -12t19 -7.5q3 -2 2 -4l-16 -38q-1 -2 -3 -1l-8 2q-8 2 -20.5 4.5t-27.5 5t-32.5 4.5t-32.5 2q-23 0 -38.5 -3.5t-34.5 -16t-28.5 -43 t-9.5 -79.5v-162q0 -47 8.5 -78t25 -44.5t32.5 -18t40 -4.5q12 0 39 4.5t48 9.5l21 4v165h-77q-3 0 -3 3v43q0 3 3 3h127v-254q-116 -30 -159 -30zM188 -206q-5 -5 -5 3v146q0 4 4 4h47q4 0 4 -4v-100q0 -2 -3 -5z" />
<glyph horiz-adv-x="397" d="M196 -4q-86 0 -146 30q-2 1 -1 4l7 20q8 20 9 21q1 2 3 1q5 -2 19 -7t47 -12t64 -7q50 0 77.5 15t27.5 64v49q0 37 -25 53t-77 21q-88 8 -119.5 37t-31.5 92v53q0 118 147 118q38 0 70.5 -6.5t44.5 -11.5t14 -7q3 -3 2 -4l-15 -38q-1 -3 -3 -2q-3 1 -16 5t-41 8.5 t-55 4.5q-43 0 -68 -14t-25 -56v-48q0 -37 23 -54.5t77 -22.5q86 -8 119.5 -35.5t33.5 -91.5v-53q0 -41 -14 -68t-40.5 -39t-50.5 -15.5t-57 -3.5zM182 -206q-5 -5 -5 3v146q0 4 4 4h47q4 0 4 -4v-100q0 -2 -3 -5z" />
<glyph horiz-adv-x="355" d="M154 0q-4 0 -4 3v490h-134q-2 0 -2 3v45q0 3 2 3h322q4 0 4 -3v-45q0 -3 -4 -3h-135v-490q0 -3 -2 -3h-47zM154 -206q-5 -5 -5 3v146q0 4 4 4h47q4 0 4 -4v-100q0 -2 -3 -5z" />
<glyph horiz-adv-x="397" d="M202 -118h-48l-1 4l9 22q8 21 18.5 50t14.5 38q-85 0 -145 30q-2 1 -1 4l7 20q8 20 9 21q1 2 3 1q5 -2 19 -7t47 -12t64 -7q50 0 77.5 15t27.5 64v49q0 37 -25 53t-77 21q-88 8 -119.5 37t-31.5 92v53q0 118 147 118q38 0 70.5 -6.5t44.5 -11.5t14 -7q3 -3 2 -4l-15 -38 q-1 -3 -3 -2q-3 1 -16 5t-41 8.5t-55 4.5q-43 0 -68 -14t-25 -56v-48q0 -37 23 -54.5t77 -22.5q86 -8 119.5 -35.5t33.5 -91.5v-53q0 -64 -32.5 -91.5t-85.5 -32.5l-33 -112q-1 -4 -5 -4z" />
<glyph horiz-adv-x="285" d="M67 104q-3 2 0 5l30 32q2 2 4 0l29 -35l58 -68t30 -34q3 -1 -1 -5l-29 -31q-2 -2 -4 0z" />
<glyph horiz-adv-x="274" d="M177 348q-3 0 -1 3l24 57q1 3 4 3h33q3 0 2 -3l-6 -14q-6 -15 -12 -28.5t-7 -14.5l-3 -3h-34zM36 -28q-2 0 -1 3q0 1 5.5 14t10.5 25.5t6 13.5q1 3 5 3h33q3 0 1 -3l-24 -54q-1 -2 -3 -2h-33z" />
<glyph horiz-adv-x="379" d="M255 487q-3 0 -2 3l9 21q10 21 19.5 41t10.5 21q3 3 5 3h40q4 0 1 -3q-1 -1 -19 -41.5t-19 -41.5q-3 -3 -4 -3h-41zM35 -32q-3 0 0 3q1 1 9 20t16 39l9 19q1 3 4 3h42q5 0 2 -3q-1 -1 -9.5 -20t-17.5 -39l-9 -19q-1 -3 -5 -3h-41z" />
<glyph horiz-adv-x="386" d="M192 47q25 0 40.5 4.5t30 19t21 44.5t6.5 78v162q0 88 -24 115t-74 27q-49 0 -72.5 -27t-23.5 -115v-162q0 -48 7 -79t21.5 -44.5t29 -18t38.5 -4.5zM192 -4q-27 0 -44 2t-39.5 12.5t-35 30t-22 57t-9.5 90.5v173q0 63 12 103t36 57t46 22t56 5q27 0 43.5 -2t40 -12 t36.5 -29t23 -55.5t10 -88.5v-173q0 -54 -9.5 -91.5t-23 -56.5t-36.5 -29.5t-40 -12.5t-44 -2z" />
<glyph horiz-adv-x="343" d="M216 0h-46q-2 0 -2 3v477q-83 -77 -85 -78q-3 -2 -3 1q0 1 -6 22t-6 22q0 3 2 5l96 90q2 2 4 2h46q3 0 3 -3v-538q0 -3 -3 -3z" />
<glyph horiz-adv-x="351" d="M298 0h-251q-2 0 -2 2v51q0 3 1 4q133 179 161 225q38 62 38 92v53q0 44 -22.5 57t-60.5 13q-21 0 -46 -4.5t-38 -8.5t-16 -5q-4 0 -4 2q0 1 -5 19.5t-5 19.5q0 4 1 4q48 24 113 24q136 0 136 -119v-56q0 -31 -25.5 -82t-50 -87t-86.5 -122q-11 -16 -17 -24v-7h179 q3 0 3 -3v-45q0 -3 -3 -3z" />
<glyph horiz-adv-x="357" d="M53 19q-3 0 -1 4q1 1 5 19t4 20t5 2q1 -1 16.5 -5t41.5 -8t48 -4q17 0 29 1.5t26.5 8t22 21.5t7.5 39v52q0 27 -8 45.5t-21 26t-23 10t-21 2.5h-49q-2 0 -2 3v42q0 3 2 3h49q26 0 45.5 19t19.5 55v52q0 24 -7.5 39t-21.5 21.5t-25.5 8t-28.5 1.5q-21 0 -46 -4t-38.5 -8 t-15.5 -5q-4 -2 -4 2q0 1 -5 19.5t-5 19.5q0 3 1 4q46 23 113 23q19 0 33.5 -1.5t35 -8t33.5 -18.5t23 -35t10 -55v-55q0 -28 -8.5 -50.5t-17.5 -31.5l-9 -9v-6q5 -3 12 -9.5t19 -34t12 -64.5v-56q0 -39 -13 -64.5t-36.5 -36t-43 -14t-44.5 -3.5q-32 0 -61.5 6t-43.5 12z " />
<glyph d="M265 0h-44q-4 0 -4 3v102h-178q-2 0 -2 3v51l2 4l134 378q1 3 3 3h49q3 0 2 -3l-132 -378v-7h122v114q0 4 4 4h44q4 0 4 -4v-114h51q3 0 3 -3v-44q0 -4 -3 -4h-51v-102q0 -3 -4 -3z" />
<glyph horiz-adv-x="357" d="M174 -4q-73 0 -119 23q-1 1 -1 4q7 22 10 39q0 1 4 1l7 -1q7 -2 18 -4.5t24 -5t28.5 -4t28.5 -1.5q24 0 39.5 3t30.5 19t15 47v53q0 91 -72 91h-119q-3 0 -3 3v275q0 6 6 6h221q2 0 2 -3v-43q0 -3 -2 -3h-179v-186h75q17 0 31 -2t32.5 -10t31 -21.5t21.5 -40t9 -63.5v-59 q0 -117 -139 -117z" />
<glyph horiz-adv-x="353" d="M178 44q37 0 58.5 20t21.5 84v27q0 58 -20 79.5t-58 21.5q-10 0 -30.5 -5t-36.5 -9l-16 -5v-140q0 -38 23 -55.5t58 -17.5zM181 -4q-22 0 -42.5 4t-43.5 15.5t-36.5 36.5t-13.5 62v311q0 38 13.5 64t36 38t42.5 16.5t42 4.5q68 0 114 -23q1 -1 1 -4q-11 -33 -11 -39 q0 -2 -3 -2l-6 2q-7 2 -17 4.5t-22 4.5t-27 4t-28 2q-83 0 -83 -74v-118q61 19 91 19q24 0 40 -3.5t37.5 -16t32.5 -43.5t11 -80v-36q0 -50 -12.5 -82.5t-34.5 -45.5t-39.5 -17t-41.5 -4z" />
<glyph horiz-adv-x="349" d="M140 0h-51q-3 0 -1 3l158 483v7h-195q-2 0 -2 3v44q0 4 2 4h250q2 0 2 -2v-49q0 -4 -1 -6q0 -1 -79 -242t-79 -242q-2 -3 -4 -3z" />
<glyph horiz-adv-x="357" d="M179 44q41 0 61 18t20 73v34q0 54 -20.5 72.5t-58.5 18.5q-83 0 -83 -91v-34q0 -54 20.5 -72.5t60.5 -18.5zM179 310q76 0 76 76v34q0 80 -74 80q-32 0 -55 -18.5t-23 -61.5v-34q0 -76 76 -76zM179 -5q-62 0 -97 27.5t-35 108.5v41q0 37 12.5 65t25.5 37l13 10v3 q-5 3 -12.5 9t-20.5 30.5t-13 55.5v41q0 125 130 125q123 0 123 -125v-41q0 -30 -10.5 -54t-20.5 -32l-11 -9v-2q5 -3 13 -10t21.5 -36t13.5 -67v-41q0 -83 -35 -109.5t-97 -26.5z" />
<glyph d="M174 548q23 0 43 -4t43 -15.5t36.5 -36.5t13.5 -61v-311q0 -38 -13.5 -64t-36 -38.5t-42.5 -17t-42 -4.5q-72 0 -114 21q-4 2 -2 5l11 38q0 2 3 2l6 -2q7 -1 17 -3.5t22.5 -4.5t28 -3.5t28.5 -1.5q83 0 83 74v107q-61 -20 -91 -20q-24 0 -40.5 3.5t-37.5 16t-32.5 44 t-11.5 80.5v47q0 41 9 70.5t21.5 44t32 23t33 10t32.5 1.5zM178 500q-18 0 -30 -3t-25 -13t-19.5 -32t-6.5 -56v-38q0 -58 20 -79.5t58 -21.5q10 0 31 5t37 10l16 5v151q0 37 -23.5 54.5t-57.5 17.5z" />
<glyph horiz-adv-x="784" d="M196 -4q-86 0 -146 30q-2 1 -1 4l7 20q8 20 9 21q1 2 3 1q5 -2 19 -7t47 -12t64 -7q50 0 77.5 15t27.5 64v49q0 37 -25 53t-77 21q-88 8 -119.5 37t-31.5 92v53q0 118 147 118q38 0 70.5 -6.5t44.5 -11.5t14 -7q3 -3 2 -4l-15 -38q-1 -3 -3 -2q-3 1 -16 5t-41 8.5 t-55 4.5q-43 0 -68 -14t-25 -56v-48q0 -37 23 -54.5t77 -22.5q86 -8 119.5 -35.5t33.5 -91.5v-53q0 -41 -14 -68t-40.5 -39t-50.5 -15.5t-57 -3.5zM572 -4q-86 0 -146 30q-2 1 -1 4l7 20q8 20 9 21q1 2 3 1q5 -2 19 -7t47 -12t64 -7q50 0 77.5 15t27.5 64v49q0 37 -25 53 t-77 21q-88 8 -119.5 37t-31.5 92v53q0 118 147 118q38 0 70.5 -6.5t44.5 -11.5t14 -7q3 -3 2 -4l-15 -38q-1 -3 -3 -2q-3 1 -16 5t-41 8.5t-55 4.5q-43 0 -68 -14t-25 -56v-48q0 -37 23 -54.5t77 -22.5q86 -8 119.5 -35.5t33.5 -91.5v-53q0 -41 -14 -68t-40.5 -39 t-50.5 -15.5t-57 -3.5z" />
<glyph horiz-adv-x="357" d="M158 62q-3 0 -3 3v132h-112q-2 1 -2 4v40q0 3 2 3h112v135q0 3 3 3h39q2 0 2 -3v-135h113q3 0 3 -3v-40q0 -4 -3 -4h-113v-132q0 -3 -2 -3h-39z" />
<glyph horiz-adv-x="147" d="M31 -78q-2 0 -2 4q0 2 17 73.5t18 72.5q2 3 4 3h47q3 0 2 -3q-1 -2 -24.5 -73.5t-23.5 -72.5q0 -4 -3 -4h-35z" />
<glyph horiz-adv-x="252" d="M33 197q-2 0 -2 3v40q0 3 2 3h184q3 0 3 -3v-40q0 -3 -3 -3h-184z" />
<glyph horiz-adv-x="151" d="M48 0q-2 1 -2 3v66l2 3h55q2 -1 2 -3v-66l-2 -3h-55z" />
<glyph horiz-adv-x="275" d="M51 -3q-2 0 -2 3q0 2 65 273t66 272q2 3 3 3h43q4 0 2 -3q-1 -1 -65.5 -272t-64.5 -273q0 -3 -3 -3h-44z" />
<glyph horiz-adv-x="357" d="M43 119q-2 2 -2 4v40l2 4h269q3 0 3 -4v-40q0 -4 -3 -4h-269zM43 276q-2 2 -2 3v41l2 3h269q3 0 3 -3v-41q0 -3 -3 -3h-269z" />
<glyph horiz-adv-x="183" d="M117 0h-52q-2 0 -2 3v64q0 3 2 3h52q2 0 2 -3v-64q0 -3 -2 -3zM113 148h-44q-2 0 -2 3v390q0 3 2 3h44q2 0 2 -3v-390q0 -3 -2 -3z" />
<glyph horiz-adv-x="301" d="M176 0h-52q-3 0 -3 3v65q0 3 3 3h52q3 0 3 -3v-65q0 -3 -3 -3zM173 140h-46q-2 0 -2 4v46q0 36 23.5 73.5t47 69t23.5 50.5v45q0 24 -6 39t-17.5 21.5t-21.5 8t-25 1.5q-20 0 -42.5 -4t-34.5 -8l-15 -5t-3 1q-1 5 -5 20t-5 19q-1 3 1 4q46 23 104 23q24 0 41.5 -3.5 t38 -14t31.5 -36t11 -64.5v-47q0 -34 -47.5 -99t-47.5 -95v-45q0 -4 -3 -4z" />
<glyph horiz-adv-x="157" d="M21 -78q-2 0 -2 4q0 2 17 73.5t18 72.5q2 3 3 3h48q3 0 2 -3q-1 -2 -24.5 -73.5t-23.5 -72.5q-2 -4 -4 -4h-34zM52 310q-3 0 -3 4v65q0 3 3 3h53q3 0 3 -3v-65q0 -4 -3 -4h-53z" />
<glyph horiz-adv-x="221" d="M83 544q5 0 5 -3v-125q0 -3 -4 -3h-43q-2 0 -2 3v124q0 4 2 4h42zM178 544q4 0 4 -3v-125q0 -3 -3 -3h-43q-2 0 -2 3v124q0 4 1 4h43z" />
<glyph horiz-adv-x="355" d="M126 213h94l12 129h-93zM102 0h-36q-3 0 -3 3l17 168h-57q-2 1 -2 3v36q0 3 2 3h62l13 129h-62q-2 0 -2 3v36q0 3 2 3h66q15 155 15 157q0 3 4 3h37q2 0 2 -3l-16 -157h93q16 155 16 157q0 3 3 3h36q3 0 3 -3l-15 -157h54q3 0 3 -3v-36q0 -3 -3 -3h-60l-13 -129h59 q3 0 3 -3v-36q0 -3 -3 -3h-63q-17 -166 -17 -168q0 -3 -3 -3h-37q-2 1 -2 3l17 168h-94q-16 -166 -16 -168q0 -3 -3 -3z" />
<glyph horiz-adv-x="385" d="M180 -58q-3 0 -3 3v51q-73 1 -131 30q-2 1 -1 4l14 40q1 2 4 2l7 -2q7 -3 19.5 -7t27.5 -8t35.5 -6.5t40.5 -2.5q51 0 78.5 15.5t27.5 63.5v49q0 34 -23.5 52t-80.5 22q-79 6 -114 33t-35 96v53q0 112 131 117v51q0 3 3 3h32q3 0 3 -3v-51q65 -3 107 -24q3 -1 2 -4 l-16 -39q-1 -2 -4 -1t-16 5t-40.5 8.5t-53.5 4.5q-44 0 -69 -14t-25 -56v-48q0 -38 23 -54.5t77 -22.5q85 -9 119 -35t34 -92v-54q0 -40 -13.5 -67t-37.5 -38t-43 -15t-44 -5v-51q0 -3 -3 -3h-32z" />
<glyph horiz-adv-x="507" d="M146 -4h-41q-1 0 0 3q33 82 125 273t126 273q0 3 3 3h41q5 0 2 -3q-1 -1 -63.5 -137t-125.5 -272l-63 -137q-2 -3 -4 -3zM372 34q21 0 32 9t11 38v74q0 28 -10.5 37t-31.5 9t-33 -9.5t-12 -36.5v-74q0 -29 11.5 -38t32.5 -9zM372 -4q-36 0 -58 16.5t-22 65.5v82 q0 79 81 79q16 0 27.5 -2.5t24 -9.5t19.5 -24t7 -43v-82q0 -35 -13 -54.5t-28 -23.5t-38 -4zM136 343q21 0 32 9.5t11 38.5v73q0 27 -10.5 36.5t-30.5 9.5q-22 0 -33.5 -9.5t-11.5 -36.5v-73q0 -29 11 -38.5t32 -9.5zM136 305q-16 0 -28.5 2.5t-25 10.5t-19.5 25t-7 43v83 q0 79 82 79q16 0 27.5 -2.5t24 -9.5t19.5 -24t7 -43v-83q0 -50 -22 -65.5t-58 -15.5z" />
<glyph horiz-adv-x="385" d="M198 -4q-32 0 -53.5 4t-45 17.5t-35.5 44.5t-12 78v26q0 34 11 68t23 52l11 17q-26 44 -26 114v22q0 60 33 84.5t78 24.5q25 0 41.5 -3.5t34 -14.5t26.5 -35.5t9 -63.5q0 -3 -3 -3h-37q-2 0 -2 3q0 45 -18 60.5t-49 15.5q-26 0 -45.5 -16t-19.5 -57v-18q0 -33 12 -62.5 t44 -84.5l105 -180q12 21 12 28v107q0 3 3 3h37q3 0 3 -3v-112q0 -11 -6.5 -27t-12.5 -27l-7 -10q29 -43 30 -45q1 -3 0 -3h-51q-2 0 -4 3l-8 15q-28 -22 -78 -22zM198 41q15 0 27.5 4t17.5 8l5 4l-122 203q-26 -35 -26 -97v-20q0 -62 23.5 -82t74.5 -20z" />
<glyph horiz-adv-x="133" d="M86 544q5 0 5 -3v-125q0 -3 -3 -3h-44q-2 0 -2 3v124q0 4 2 4h42z" />
<glyph horiz-adv-x="142" d="M50 -42q-3 -3 -3 2v123q0 3 2 3h44q2 0 2 -3v-83q0 -2 -1 -4z" />
<glyph horiz-adv-x="242" d="M151 -42q-4 -4 -4 2v123q0 3 2 3h43q3 0 3 -3v-83q0 -1 -3 -4q0 -1 -10 -10l-20 -18zM50 -42q-3 -3 -3 2v123q0 3 2 3h44q2 0 2 -3v-83q0 -2 -1 -4z" />
<glyph horiz-adv-x="379" d="M233 -4q-39 0 -64.5 6.5t-50.5 26.5t-37.5 64t-12.5 112h-37q-2 0 -2 3v34q0 3 2 3h37v58h-37q-2 0 -2 3v35q0 3 2 3h37q0 118 40.5 161t124.5 43q69 0 121 -26q2 -2 1 -5l-15 -37q-1 -3 -3 -2q-3 1 -16 5t-39 9t-49 5q-58 0 -84 -32t-27 -121h124q2 0 2 -3v-35 q0 -3 -2 -3h-124v-58h124q2 0 2 -3v-34q0 -3 -2 -3h-124q1 -95 27 -126t83 -31q60 0 110 25q2 1 4 -2l15 -37q1 -3 -1 -5q-3 -3 -14.5 -9.5t-43.5 -15t-69 -8.5z" />
<glyph horiz-adv-x="349" d="M171 -81q-3 0 -3 3v75q-21 1 -37 6t-35.5 19.5t-30 47.5t-10.5 82v82q0 49 10.5 81.5t30 46.5t35 18.5t37.5 5.5v74q0 3 3 3h31q3 0 3 -3v-74q59 -2 83 -14q3 -2 2 -4l-13 -35q-1 -2 -3 -2l-4 1q-5 0 -13 1t-18 2.5t-23.5 2t-27.5 0.5q-18 0 -30 -3t-25 -13t-19.5 -33.5 t-6.5 -59.5v-73q0 -69 21.5 -90.5t59.5 -21.5q22 0 44 3t33.5 5.5t12.5 3.5q3 0 4 -2l11 -35q2 -3 -2 -5q-32 -16 -86 -17v-75q0 -3 -3 -3h-31z" />
<glyph horiz-adv-x="577" d="M285 97q30 0 48 12.5t18 50.5v112q0 23 -14.5 37t-28.5 17t-29 3q-31 0 -46.5 -20.5t-15.5 -73.5v-40q0 -59 19 -78.5t49 -19.5zM282 -103q-36 0 -68 7t-66.5 28t-59 54.5t-40.5 91.5t-16 135q0 317 259 317q42 0 76 -6.5t69 -26.5t58.5 -52.5t38 -88t14.5 -130.5 q0 -94 -26.5 -132.5t-76.5 -38.5t-73 33q-32 -34 -88 -34q-50 0 -80 29.5t-30 109.5v45q0 65 24.5 99.5t70.5 34.5q31 0 51.5 -7t26.5 -13l5 -7v21q0 2 1 2h39q2 0 2 -2v-210q0 -59 51 -59q29 0 44 24.5t15 106.5q0 80 -16.5 134t-48 80.5t-66.5 37t-82 10.5 q-46 0 -81.5 -12.5t-66.5 -42t-47.5 -85.5t-16.5 -137q0 -65 13 -115t33 -79t48 -47.5t54 -24.5t56 -6q41 0 79 5t53.5 9t18.5 6q2 1 3 -1l10 -36q0 -2 -2 -3q-4 -2 -20 -7t-57 -11t-85 -6z" />
<glyph horiz-adv-x="190" d="M110 -75q-2 0 -5 3q-2 2 -6.5 9t-13.5 31.5t-16 58.5t-12.5 96.5t-5.5 138.5q0 77 5.5 139.5t12.5 96.5t15.5 58.5t13 31.5t6.5 9q3 3 5 3h39q2 0 0 -3q-51 -102 -51 -335q0 -115 13.5 -199t23 -107t14.5 -28q3 -3 0 -3h-38z" />
<glyph horiz-adv-x="189" d="M80 -75h-38q-3 0 0 3q52 104 52 334q0 114 -14 199t-22.5 105.5t-15.5 30.5q-3 3 0 3h39q2 0 5 -3t7 -9.5t13 -31t15.5 -58.5t12 -96.5t5.5 -139.5q0 -76 -5.5 -138.5t-12.5 -96.5t-16 -58.5t-13.5 -31.5t-6.5 -9q-3 -3 -5 -3z" />
<glyph horiz-adv-x="239" d="M106 318q-2 0 -2 3v79q-55 -39 -57 -40t-3 2l-13 25q-3 3 0 5l55 39q-53 38 -55 39q-3 1 -1 5l14 26q2 2 3 1l57 -40v79q0 3 2 3h27q3 0 3 -3v-79q54 39 55 40q2 2 4 -1q4 -4 15 -26q2 -4 -1 -5l-56 -39q54 -38 56 -39q3 -1 1 -5l-14 -25q-2 -5 -5 -2l-55 40v-79 q0 -3 -3 -3h-27z" />
<glyph horiz-adv-x="191" d="M60 -74v674h100q3 0 3 -3v-38q0 -3 -3 -3h-56v-587h56q3 0 3 -3v-37q0 -3 -3 -3h-100z" />
<glyph horiz-adv-x="191" d="M132 -74h-103q-2 0 -2 3v37l2 3h57v587h-57q-2 0 -2 3v38l2 3h103v-674z" />
<glyph horiz-adv-x="266" d="M27 197q-2 0 -2 3v40q0 3 2 3h211q2 0 2 -3v-40q0 -3 -2 -3h-211z" />
<glyph horiz-adv-x="305" d="M13 197q-2 0 -2 3v40q0 3 2 3h278q2 0 2 -3v-40q0 -3 -2 -3h-278z" />
<glyph horiz-adv-x="275" d="M51 -3q-2 0 -2 3q0 2 65 273t66 272q2 3 3 3h43q4 0 2 -3q-1 -1 -65.5 -272t-64.5 -273q0 -3 -3 -3h-44z" />
<glyph horiz-adv-x="252" d="M33 197q-2 0 -2 3v40q0 3 2 3h184q3 0 3 -3v-40q0 -3 -3 -3h-184z" />
<glyph horiz-adv-x="357" d="M43 197q-2 0 -2 3v40q0 3 2 3h269q3 0 3 -3v-40q0 -3 -3 -3h-269zM152 61q-3 0 -3 3v66q0 3 3 3h52q2 0 2 -3v-66q0 -3 -2 -3h-52zM152 308q-3 0 -3 3v65q0 3 3 3h52q2 0 2 -3v-65q0 -3 -2 -3h-52z" />
<glyph horiz-adv-x="357" d="M79 0q-3 0 -3 2v229h-26q-2 1 -2 3v37q0 3 2 3h26v155q0 32 9.5 55.5t22.5 35.5t32.5 18.5t33.5 8t32 1.5q61 0 107 -23q2 -1 1 -4l-11 -40q-1 -1 -3 -1l-6 2q-5 2 -14.5 4.5t-20.5 4.5t-25.5 4t-27.5 2q-23 0 -37 -3t-26 -19.5t-12 -47.5v-153h112q2 0 2 -3v-37 q0 -3 -2 -3h-112v-180h180q3 0 3 -3v-45q0 -3 -3 -3h-232z" />
<glyph horiz-adv-x="353" d="M53 14q-2 1 -1 4l12 36q0 3 4 3q1 -1 15 -4.5t40 -7t50 -3.5q40 0 58 10t18 43v23q0 24 -19.5 34.5t-62.5 18.5q-27 5 -40 8.5t-33 13t-29 27t-9 44.5v32q0 45 25 66q-25 20 -25 64v31q0 52 31 71.5t85 19.5q29 0 55 -4t37.5 -8t12.5 -5t1 -3l-6 -18l-5 -18q0 -2 -3 -2 l-6 2q-5 1 -14.5 2.5t-21 3.5t-25.5 3.5t-26 1.5q-65 0 -65 -48v-25q0 -23 17.5 -33t56.5 -16q118 -17 118 -94v-30q0 -53 -23 -74q23 -19 23 -56v-32q0 -33 -9.5 -54.5t-29 -30.5t-37.5 -11.5t-48 -2.5q-85 0 -121 18zM225 208q26 10 26 48v23q0 40 -85 54l-30 6 q-32 -8 -32 -46v-25q0 -20 16.5 -31t59.5 -18q25 -4 45 -11z" />
<glyph horiz-adv-x="361" d="M157 0q-3 0 -3 3v123h-92q-3 0 -3 3v35q0 4 3 4h92v50h-92q-3 0 -3 3v36q0 3 3 3h73q-119 279 -120 281q-1 3 1 3h54q2 -1 3 -3l107 -256h2q105 254 106 256l1 1q1 2 2 2h53q4 0 2 -3l-120 -281h71q3 0 3 -3v-36q0 -3 -3 -3h-90v-50h90q3 0 3 -4v-35q0 -3 -3 -3h-90v-123 q0 -3 -2 -3h-48z" />
<glyph horiz-adv-x="218" d="M154 -73q-31 0 -47.5 20t-16.5 70v152q0 34 -9 52.5t-35 18.5q-2 1 -2 3v41q0 3 2 3q44 0 44 71v152q0 50 16.5 70t47.5 20h34q2 0 2 -3v-37q0 -4 -2 -4h-22q-31 0 -31 -38v-161q0 -48 -8.5 -65.5t-27.5 -25.5v-4q13 -7 19.5 -13t11.5 -25.5t5 -53.5v-160q0 -39 31 -39 h22q2 0 2 -3v-38q0 -3 -2 -3h-34z" />
<glyph horiz-adv-x="175" d="M68 -75q-3 0 -3 3v669q0 3 3 3h40q2 0 2 -3v-669q0 -3 -2 -3h-40z" />
<glyph horiz-adv-x="218" d="M64 -73h-34q-2 2 -2 3v38l2 3h23q30 0 30 39v160q0 33 5.5 53t11.5 26t19 13v4q-18 8 -27 25.5t-9 65.5v161q0 38 -30 38h-23q-2 0 -2 4v37q0 3 2 3h34q32 0 48.5 -20t16.5 -70v-152q0 -36 9.5 -53.5t33.5 -17.5q2 0 2 -3v-41q0 -3 -2 -3q-43 0 -43 -71v-152 q0 -50 -16.5 -70t-48.5 -20z" />
<glyph horiz-adv-x="174" d="M67 -75q-3 0 -3 3v286q0 3 3 3h40q2 0 2 -3v-286q0 -3 -2 -3h-40zM67 311q-3 0 -3 3v283q0 3 3 3h40q2 0 2 -3v-283q0 -3 -2 -3h-40z" />
<glyph horiz-adv-x="357" d="M87 81q-27 27 -27 28q-2 2 0 5l88 107q-87 107 -88 108q-1 3 0 5q0 1 13 14t13 14q1 3 4 0l88 -107q88 105 90 107t3 0l28 -28q2 -2 0 -4l-89 -109q88 -106 89 -107q3 -2 0 -5l-28 -28q-1 -1 -3 0l-90 108q-86 -107 -88 -108t-3 0z" />
<glyph d="M313 70l-270 128q-2 1 -2 4v37q0 2 2 3q7 4 138 66.5t132 62.5q2 0 2 -3v-43q0 -3 -2 -5l-202 -98v-4q199 -96 202 -97q2 -1 2 -5v-43q-1 -3 -2 -3z" />
<glyph d="M43 70q-1 -1 -1.5 -0.5t-0.5 3.5v43q0 4 2 5l201 97v4q-199 96 -201 98t-2 5v43q0 3 2 3q1 0 132 -62.5t138 -66.5q2 -1 2 -3v-37q0 -3 -2 -4z" />
<glyph horiz-adv-x="274" d="M227 -3h-44q-3 0 -3 3q0 2 -64.5 273t-65.5 272q-2 3 1 3h44q3 0 4 -3q1 -1 65 -272t64 -273q0 -3 -1 -3z" />
<glyph horiz-adv-x="357" d="M40 224l117 317q0 3 3 3h37q1 0 3 -3q1 -2 59.5 -159t58.5 -158q0 -3 -1 -3h-45q-1 0 -4 3l-88 246h-3q-88 -244 -89 -246q-2 -3 -4 -3h-43q-3 0 -1 3z" />
<glyph horiz-adv-x="316" d="M2 -102q-2 0 -2 3v38q0 3 2 3h312q2 0 2 -3v-38q0 -3 -2 -3h-312z" />
<glyph horiz-adv-x="357" d="M47 221q0 5 3 9q2 3 11 10.5t26.5 16t32.5 8.5q23 0 60.5 -23.5t56.5 -23.5q15 0 30 9t24.5 18.5t11.5 9.5q4 0 4 -3v-30q0 -4 -3 -8q-3 -5 -10.5 -12t-25.5 -16t-35 -9q-22 0 -59 23.5t-57 23.5q-13 0 -28.5 -9t-26.5 -18t-13 -9t-2 5v28z" />
<glyph horiz-adv-x="258" d="M128 175q-28 0 -45 12.5t-17 50.5v17q0 62 63 62q18 0 29.5 -3t22 -17.5t10.5 -41.5v-17q0 -38 -17.5 -50.5t-45.5 -12.5z" />
<glyph horiz-adv-x="302" d="M151 548q53 0 90.5 -45t37.5 -109t-37.5 -109t-90.5 -45t-90.5 45t-37.5 109t37.5 109t90.5 45zM151 264q44 0 75.5 38t31.5 92t-31.5 92t-75.5 38q-45 0 -76 -38t-31 -92t31 -92t76 -38zM126 309h-20v172h49q9 0 15.5 -1t14.5 -5t12 -14t4 -26v-13q0 -33 -22 -42l25 -69 v-2h-22q-1 1 -1 2l-23 65h-31v-65q0 -2 -1 -2zM127 397h28q24 0 24 25v13q0 25 -24 25h-28v-63z" />
<glyph horiz-adv-x="547" d="M273 548q95 0 162 -80.5t67 -195.5q0 -114 -67 -195t-162 -81t-162 81t-67 195q0 115 67 195.5t162 80.5zM273 31q82 0 140 70.5t58 170.5t-58 171t-140 71t-140.5 -71t-58.5 -171t58.5 -170.5t140.5 -70.5zM277 117q-21 0 -37 4t-32.5 15.5t-25.5 38t-9 66.5v65 q0 39 9.5 64.5t26.5 37t32.5 15.5t35.5 4q56 0 78 -11q3 -1 2 -3q0 -10 -9 -28q0 -2 -2 -2l-4 1q-4 0 -10 1t-13.5 2.5t-18.5 2t-22 0.5q-14 0 -24 -2.5t-20.5 -11t-16 -27t-5.5 -46.5v-59q0 -30 5.5 -48.5t16.5 -26.5t20.5 -10.5t23.5 -2.5q11 0 22.5 1t19.5 2t14.5 2 t10.5 2l4 1q2 0 2 -1q0 -2 4 -14.5t5 -13.5t0 -2t-2 -1l-4 -2q-3 -1 -9.5 -3.5t-15.5 -4.5t-23 -3.5t-29 -1.5z" />
<glyph horiz-adv-x="545" d="M273 233v309q0 2 2 2h46q1 0 1 -1l65 -186h4q60 184 61 185l2 2h46q1 0 1 -2v-309q0 -2 -1 -2h-36q-1 0 -1 2v221h-6q-52 -155 -52 -156l-2 -2h-30q-1 0 -3 3l-52 155h-6v-221q0 -2 -1 -2h-36q-2 0 -2 2zM108 233v272h-71q-2 0 -2 1v36q0 2 2 2h182q1 0 1 -2v-36 q0 -1 -1 -1h-72v-272q0 -2 -1 -2h-37q-1 0 -1 2z" />
<glyph horiz-adv-x="357" d="M72 30q-3 0 -1 4l37 85h-65q-2 1 -2 3v41l2 3h90l48 110h-138q-2 0 -2 3v41q0 3 2 3h162q36 83 38 85l4 4h36q3 0 1 -4l-38 -85h66q3 0 3 -3v-41q0 -3 -3 -3h-90l-48 -110h138q3 0 3 -3v-40q0 -4 -3 -4h-162q-37 -84 -38 -86q-2 -3 -5 -3h-35z" />
<glyph d="M158 96q-3 0 -3 3v134h-111q-2 0 -2 3v41q0 3 2 3h111v134q0 3 3 3h39q3 0 3 -3v-134h112q3 0 3 -3v-41q0 -3 -3 -3h-112v-134q0 -3 -3 -3h-39zM43 0q-2 0 -2 3v40l2 4h270q2 0 2 -4v-40q0 -3 -2 -3h-270z" />
<glyph horiz-adv-x="357" d="M313 105l-269 128q-3 1 -3 3v38q0 2 3 3l269 128q3 1 3 -2v-44q0 -2 -3 -5l-202 -97v-5q200 -95 202 -96q3 -2 3 -5v-44q0 -3 -3 -2zM43 0q-2 0 -2 3v41l2 3h270q3 0 3 -3v-41q0 -3 -3 -3h-270z" />
<glyph horiz-adv-x="357" d="M43 105q-2 -1 -2 2v44q0 4 2 5l201 96v5q-199 95 -201 97t-2 5v44l2 2l270 -128q2 -1 2 -3v-38q0 -2 -2 -3zM313 0h-270q-2 0 -2 3v41q0 3 2 3h270q3 0 3 -3v-41q0 -3 -3 -3z" />
<glyph horiz-adv-x="357" d="M46 145q0 6 3 9q36 36 70 36q23 0 60.5 -23.5t56.5 -23.5q14 0 29.5 9t25 18t11.5 9q4 0 4 -3v-29q0 -4 -3 -8q-4 -5 -11 -12t-25 -16.5t-35 -9.5q-22 0 -59 24t-57 24q-13 0 -28.5 -9t-26.5 -18t-13 -9t-2 4v28zM46 299q0 6 3 9q2 3 11.5 11t26.5 16.5t32 8.5 q23 0 60.5 -23.5t56.5 -23.5q14 0 29.5 9.5t25 18.5t11.5 9q4 0 4 -3v-30q0 -5 -3 -9t-11 -11t-25.5 -16t-34.5 -9q-22 0 -59 23.5t-57 23.5q-13 0 -28.5 -9t-26.5 -18t-13 -9t-2 4v28z" />
<glyph horiz-adv-x="152" d="M50 177q-2 0 -2 4v64l2 3h52q3 0 3 -3v-64q0 -4 -3 -4h-52z" />
<glyph horiz-adv-x="242" d="M191 547q4 2 4 -2v-122q0 -3 -3 -3h-42q-3 0 -3 3v82q0 2 2 4q34 34 42 38zM92 547q3 3 3 -2v-122q0 -3 -2 -3h-44q-2 0 -2 3v82q0 2 2 4z" />
<glyph horiz-adv-x="241" d="M50 416q-3 -2 -3 3v122q0 3 2 3h44q2 0 2 -3v-83q0 -3 -1 -4q-2 -2 -22.5 -19.5t-21.5 -18.5zM151 416q-4 -4 -4 3v122q0 3 3 3h42q3 0 3 -3v-83q0 -3 -2 -4z" />
<glyph horiz-adv-x="142" d="M92 547q3 3 3 -2v-122q0 -3 -2 -3h-44q-2 0 -2 3v82q0 2 2 4z" />
<glyph horiz-adv-x="142" d="M50 416q-2 1 -3 3v122q0 3 2 3h44q2 0 2 -3v-83q0 -3 -1 -4z" />
<glyph horiz-adv-x="706" d="M146 -4h-41q-1 0 0 3q33 82 125 273t126 273q0 3 3 3h41q5 0 2 -3q-1 -1 -63.5 -137t-125.5 -272l-63 -137q-2 -3 -4 -3zM372 34q21 0 32 9t11 38v74q0 28 -10.5 37t-31.5 9t-33 -9.5t-12 -36.5v-74q0 -29 11.5 -38t32.5 -9zM372 -4q-36 0 -58 16.5t-22 65.5v82 q0 79 81 79q16 0 27.5 -2.5t24 -9.5t19.5 -24t7 -43v-82q0 -35 -13 -54.5t-28 -23.5t-38 -4zM136 343q21 0 32 9.5t11 38.5v73q0 27 -10.5 36.5t-30.5 9.5q-22 0 -33.5 -9.5t-11.5 -36.5v-73q0 -29 11 -38.5t32 -9.5zM136 305q-16 0 -28.5 2.5t-25 10.5t-19.5 25t-7 43v83 q0 79 82 79q16 0 27.5 -2.5t24 -9.5t19.5 -24t7 -43v-83q0 -50 -22 -65.5t-58 -15.5zM570 34q21 0 32 9t11 38v74q0 28 -10.5 37t-31.5 9t-33 -9.5t-12 -36.5v-74q0 -29 11.5 -38t32.5 -9zM570 -4q-35 0 -57.5 16.5t-22.5 65.5v82q0 79 82 79q16 0 27 -2.5t23.5 -9.5 t19.5 -24t7 -43v-82q0 -35 -13 -54.5t-28 -23.5t-38 -4z" />
<glyph horiz-adv-x="293" d="M143 374q21 0 32 9.5t11 38.5v43q0 27 -10 36.5t-30 9.5q-22 0 -33.5 -9.5t-11.5 -36.5v-43q0 -29 10.5 -38.5t31.5 -9.5zM143 336q-16 0 -28 2.5t-25 10.5t-19.5 25t-6.5 43v52q0 47 22.5 63.5t59.5 16.5q16 0 27.5 -2.5t24 -10t19.5 -24.5t7 -43v-52q0 -50 -22 -65.5 t-59 -15.5z" />
<glyph horiz-adv-x="367" d="M313 368l26 -27q2 -4 0 -5l-104 -124q103 -123 104 -124q2 -3 0 -5l-26 -27q-1 -2 -3 0q-1 1 -66.5 77t-66.5 77q-1 2 0 4q1 1 66.5 77t66.5 77q2 2 3 0zM171 368l26 -27q2 -3 0 -5l-104 -124q103 -123 104 -124q1 -2 0 -5q-1 -2 -26 -27q-1 -2 -3 0q-1 1 -66 77t-66 77 q-1 2 0 4q1 1 65.5 76.5t66.5 77.5t3 0z" />
<glyph horiz-adv-x="366" d="M196 55l-13.5 13.5l-13.5 13.5v5l103 124q-101 123 -103 124v5l26 27q2 2 4 0l132 -153q3 -2 0 -5l-132 -154q-1 -1 -3 0zM55 55q-26 26 -26 27q-3 2 0 5l104 124q-104 123 -104 124q-3 3 0 5l26 27q2 2 4 0q0 -1 65 -76.5t66 -76.5q2 -2 0 -5l-131 -154q-2 -2 -4 0z" />
<glyph horiz-adv-x="212" d="M155 368l26 -27q2 -3 0 -5l-104 -124q103 -123 104 -124q1 -2 0 -5q-1 -2 -26 -27q-1 -2 -3 0q-1 1 -66 77t-66 77q-1 2 0 4q1 1 65.5 76.5t66.5 77.5t3 0z" />
<glyph horiz-adv-x="212" d="M58 55q-26 26 -26 27q-2 2 0 5l104 124q-104 123 -104 124q-2 3 0 5l26 27q2 1 3 0l132 -153q3 -2 0 -5l-132 -154q-1 -1 -3 0z" />
<glyph horiz-adv-x="195" d="M68 100q-4 0 -4 4v74q0 4 4 4h59q3 0 3 -4v-74q0 -4 -3 -4h-59zM68 495q-4 0 -4 4v74q0 4 4 4h59q3 0 3 -4v-74q0 -4 -3 -4h-59z" />
</font>
</defs>
</svg>
