<?xml version="1.0" standalone="no"?>
<!DOCTYPE svg PUBLIC "-//W3C//DTD SVG 1.1//EN" "http://www.w3.org/Graphics/SVG/1.1/DTD/svg11.dtd" >
<svg xmlns="http://www.w3.org/2000/svg" xmlns:xlink="http://www.w3.org/1999/xlink" version="1.1">
<metadata></metadata>
<defs>
<font id="sport1condensed_regular" horiz-adv-x="455" >
<font-face units-per-em="1000" ascent="750" descent="-250" />
<missing-glyph horiz-adv-x="205" />
<glyph unicode=" "  horiz-adv-x="205" />
<glyph unicode="&#x09;" horiz-adv-x="205" />
<glyph unicode="&#xa0;" horiz-adv-x="205" />
<glyph unicode="!" horiz-adv-x="244" d="M162 0h-80q-3 0 -3 4v89q0 4 3 4h80q3 0 3 -4v-89q0 -4 -3 -4zM156 189h-69q-3 0 -3 4v483q0 4 3 4h69q3 0 3 -4v-483q0 -4 -3 -4z" />
<glyph unicode="&#x22;" horiz-adv-x="296" d="M114 680q5 0 5 -5v-165q0 -4 -3 -4h-65q-3 0 -3 4v164q0 6 3 6h63zM244 680q4 0 4 -5v-165q0 -4 -3 -4h-64q-3 0 -3 4v164q0 6 3 6h63z" />
<glyph unicode="#" horiz-adv-x="462" d="M171 272h109l14 149h-108zM140 0h-58q-4 0 -4 4l20 204h-67q-3 0 -3 4v56q0 4 3 4h75l14 149h-72q-4 0 -4 4v56q0 4 4 4h80q19 189 19 191q0 4 4 4h58q3 0 3 -4l-19 -191h110q18 188 18 191q0 4 4 4h59q3 0 3 -4l-19 -191h65q4 0 4 -4v-56q0 -4 -4 -4h-73l-14 -149h71 q3 0 3 -4v-56q0 -4 -3 -4h-78q-21 -201 -21 -204q0 -4 -4 -4h-59q-2 0 -2 4l20 204h-109q-20 -201 -20 -204q0 -4 -4 -4z" />
<glyph unicode="$" horiz-adv-x="493" d="M223 -75q-3 0 -3 5v65q-99 2 -165 35q-3 3 -2 6l22 64q0 2 4 2l9 -3q9 -3 25 -7t35.5 -8.5t46 -7.5t51.5 -3q58 0 89.5 17.5t31.5 70.5v56q0 38 -27.5 59t-95.5 28q-100 8 -144 41.5t-44 121.5v69q0 140 164 148v66q0 4 3 4h51q3 0 3 -4v-66q38 -2 72 -9t48.5 -12.5 t16.5 -7.5q4 -1 2 -5q0 -1 -9.5 -30.5t-10.5 -31.5q-2 -4 -5 -2q-3 1 -21 5.5t-54 10t-69 5.5q-50 0 -77 -16t-27 -63v-55q0 -43 26 -61.5t92 -26.5q104 -13 148 -46.5t44 -116.5v-69q0 -41 -13 -71t-30 -45.5t-44 -25.5t-45.5 -12.5t-43.5 -3.5v-65q0 -5 -3 -5h-51z" />
<glyph unicode="%" horiz-adv-x="652" d="M199 -5h-66q-2 0 -1 4q33 85 157.5 340.5t156.5 341.5q1 4 5 4h66q4 0 1 -4q-1 -2 -157 -341t-157 -341q-2 -4 -5 -4zM479 51q24 0 37 11t13 45v84q0 33 -12 43.5t-36 10.5t-37.5 -11t-13.5 -43v-84q0 -33 13 -44.5t36 -11.5zM479 -5q-46 0 -74.5 21.5t-28.5 84.5v99 q0 102 106 102q21 0 36 -3t31.5 -12.5t25 -31.5t8.5 -55v-99q0 -34 -8.5 -56.5t-25 -32.5t-32.5 -13.5t-38 -3.5zM172 435q24 0 37 11t13 44v85q0 32 -12 43t-36 11t-37.5 -11t-13.5 -43v-85q0 -33 13 -44t36 -11zM172 378q-46 0 -74.5 21t-28.5 84v99q0 103 106 103 q21 0 36 -3t31.5 -13t25.5 -32t9 -55v-99q0 -64 -29 -84.5t-76 -20.5z" />
<glyph unicode="&#x26;" horiz-adv-x="495" d="M251 -5q-31 0 -53 2.5t-49.5 13t-44.5 29t-29 53t-12 82.5v34q0 42 14 85t28 65l14 22q-32 53 -32 136v29q0 77 43 108t103 31q25 0 42 -2t37.5 -10.5t33.5 -24.5t21.5 -45t8.5 -70q0 -4 -3 -4h-56q-3 0 -3 4q0 55 -21.5 73.5t-56.5 18.5q-77 0 -77 -85v-22 q0 -40 15.5 -75.5t57.5 -106.5l120 -209q12 24 12 33v127q0 4 3 4h58q3 0 3 -4v-137q0 -15 -8 -36t-16 -34l-8 -13l42 -63q2 -4 -1 -4h-75q-3 0 -6 4l-10 18q-35 -27 -95 -27zM251 61q16 0 29.5 4.5t19.5 8.5l5 4l-142 239q-29 -39 -29 -114v-23q0 -72 28.5 -95.5 t88.5 -23.5z" />
<glyph unicode="'" horiz-adv-x="179" d="M119 680q6 0 6 -5v-165q0 -4 -4 -4h-64q-3 0 -3 4v164q0 6 3 6h62z" />
<glyph unicode="(" horiz-adv-x="252" d="M137 -94q-2 0 -6 4q-3 3 -8.5 11.5t-16.5 39t-19.5 73t-15.5 120.5t-7 174t7 174t15.5 120.5t19.5 73t16 39t8 11.5q4 4 6 4h63q3 0 0 -4t-7.5 -13.5t-15 -43t-19 -76.5t-15 -119t-6.5 -166q0 -91 6.5 -167t15 -119.5t18.5 -76t15.5 -43t7.5 -12.5q4 -4 0 -4h-62z" />
<glyph unicode=")" horiz-adv-x="253" d="M115 -94h-62q-2 0 0 4q2 2 7.5 12.5t16 43t19 76t15 119.5t6.5 167q0 90 -6.5 166t-15 119t-19.5 76.5t-15.5 42.5t-7.5 14q-3 4 1 4h62q2 0 7 -4q3 -3 8 -11.5t16 -39t19.5 -73t15.5 -120.5t7 -174t-7 -174t-15.5 -120.5t-19.5 -73t-16.5 -39t-8.5 -11.5q-4 -4 -7 -4z " />
<glyph unicode="*" horiz-adv-x="313" d="M135 390q-3 0 -3 4v95q-65 -46 -67 -47q-3 -1 -4 2l-21 38q-2 4 0 5l67 48q-65 46 -67 48t-1 5q1 2 11 20l11 19q2 2 4 1l67 -47v95q0 4 3 4h42q4 0 4 -4v-95q65 46 66 47q4 2 5 -1l21 -39q2 -4 -1 -5l-66 -48q65 -46 66 -48q3 -1 1 -5q0 -1 -5 -10t-10.5 -18t-5.5 -10 q-2 -4 -4 -2l-67 47v-95q0 -4 -4 -4h-42z" />
<glyph unicode="+" horiz-adv-x="458" d="M197 75q-4 0 -4 4v161h-138q-3 0 -3 4v64q0 4 3 4h138v163q0 4 4 4h62q4 0 4 -4v-163h139q3 0 3 -4v-64q0 -4 -3 -4h-139v-161q0 -4 -4 -4h-62z" />
<glyph unicode="," horiz-adv-x="196" d="M37 -100q-3 0 -3 4l47 197q1 4 4 4h74q4 0 2 -4l-7 -21l-16.5 -49.5t-19.5 -57t-16.5 -48.5t-6.5 -21q-1 -4 -4 -4h-54z" />
<glyph unicode="-" horiz-adv-x="325" d="M44 239q-3 0 -3 4v64q0 4 3 4h237q3 0 3 -4v-64q0 -4 -3 -4h-237z" />
<glyph unicode="." horiz-adv-x="202" d="M61 0q-3 0 -3 4v94q0 4 3 4h80q3 0 3 -4v-94q0 -4 -3 -4h-80z" />
<glyph unicode="/" horiz-adv-x="357" d="M61 -4q-2 0 -2 4q0 1 81 339.5t82 341.5q0 4 4 4h71q3 0 2 -4q-1 -1 -81 -340.5t-81 -340.5q-1 -4 -4 -4h-72z" />
<glyph unicode="0" horiz-adv-x="496" d="M247 69q29 0 46.5 5.5t33 22.5t22.5 52.5t7 91.5v203q0 72 -14 109.5t-35 47.5t-60 10q-28 0 -45.5 -5.5t-33 -21.5t-22.5 -50.5t-7 -89.5v-203q0 -57 7.5 -93t23.5 -52.5t33 -21.5t44 -5zM247 -10q-35 0 -57 3t-51 16t-45.5 38t-28.5 72t-12 114v220q0 64 11.5 109.5 t28 70t45 38t51.5 16.5t58 3t56.5 -2.5t51 -15.5t46.5 -36.5t29.5 -70t12.5 -112.5v-220q0 -49 -6.5 -87.5t-15.5 -63.5t-25.5 -43t-31.5 -27.5t-37.5 -14.5t-38.5 -6t-41 -1z" />
<glyph unicode="1" horiz-adv-x="440" d="M289 0h-75q-3 0 -3 4v579q-105 -93 -107 -94q-3 -3 -3 1q0 2 -9.5 35t-9.5 34q0 4 3 7q2 1 61.5 55.5t61.5 56.5t6 2h75q3 0 3 -4v-672q0 -4 -3 -4z" />
<glyph unicode="2" horiz-adv-x="451" d="M385 0h-325q-2 0 -2 2v76q0 2 2 6q16 22 51.5 69t51.5 68.5t43 59t39.5 58.5t27.5 47.5t21 45t6 33.5v66q0 27 -8 44t-23.5 24.5t-29.5 10t-33 2.5q-26 0 -58.5 -5t-51 -10t-20.5 -6q-4 -2 -4 2q0 2 -7 31.5t-7 30.5q0 4 2 5q3 3 17.5 9t51.5 13.5t79 7.5q177 0 177 -152 v-77q0 -41 -32 -105t-65.5 -113.5t-109.5 -155.5v-9h207q3 0 3 -4v-70q0 -4 -3 -4z" />
<glyph unicode="3" horiz-adv-x="457" d="M66 17q-3 1 -1 5q0 2 6 32t6 31q0 2 5 2q2 -1 22 -5.5t54.5 -9t61.5 -4.5q19 0 33 2t30 9.5t24.5 24.5t8.5 44v64q0 41 -17 64.5t-33 28t-33 4.5h-64q-4 0 -4 4v67q0 4 4 4h64q29 0 50.5 21.5t21.5 62.5v64q0 27 -8.5 44.5t-24 25t-28.5 9.5t-31 2q-27 0 -59.5 -5 t-51 -9.5t-20.5 -5.5t-3.5 0t-1.5 2q0 2 -6.5 32t-6.5 31q0 4 2 5q54 27 146 27q26 0 45.5 -2t46 -10.5t43.5 -23.5t29 -44.5t12 -69.5v-72q0 -33 -11 -61.5t-22 -40.5l-11 -11v-7q2 -1 6 -4t13.5 -13.5t16.5 -24t13 -38t6 -52.5v-76q0 -40 -12 -69t-28.5 -44t-43 -24 t-47 -11t-48.5 -2q-42 0 -80.5 7t-55.5 13z" />
<glyph unicode="4" horiz-adv-x="458" d="M354 0h-71q-4 0 -4 4v121h-230q-2 0 -2 4v76q0 1 2 7l163 464q2 4 4 4h80q4 0 2 -4l-159 -464v-8h140v135q0 4 3 4h72q4 0 4 -4v-135h55q4 0 4 -4v-71q0 -4 -4 -4h-55v-121q0 -4 -4 -4z" />
<glyph unicode="5" horiz-adv-x="458" d="M222 -10q-76 0 -154 26q-3 1 -1 6l12 62q1 2 5 2l9 -2q9 -2 24 -5t32 -5.5t37 -4.5t36 -2q19 0 33 2.5t30 9.5t25 24.5t9 43.5v66q0 104 -84 104h-151q-3 0 -3 4v351q0 8 7 8h289q3 0 3 -4v-67q0 -4 -3 -4h-221v-214h81q24 0 42.5 -2t43 -12t41 -27t28 -50t11.5 -78v-83 q0 -41 -13.5 -70.5t-31 -44.5t-45.5 -23t-46.5 -9.5t-44.5 -1.5z" />
<glyph unicode="6" d="M229 63q19 0 32.5 4t28 15t22 37t7.5 65v37q0 66 -22 90.5t-64 24.5q-12 0 -36 -5.5t-41 -10.5l-18 -6v-169q0 -42 26 -62t65 -20zM233 -10q-30 0 -56.5 5.5t-56 20t-47 47t-17.5 79.5v389q0 40 13 70t32 46.5t44.5 26.5t45.5 13t40 3q19 0 37.5 -1.5t32.5 -4t26.5 -5.5 t21.5 -6t15.5 -5.5t10.5 -4.5l4 -2q2 -1 2 -5q-15 -60 -15 -61q0 -2 -4 -2q-1 0 -9 2t-21 4.5t-29 5.5t-35 5t-36 2q-94 0 -94 -85v-139q75 22 109 22q24 0 40.5 -2t39.5 -12t37.5 -28t25 -53.5t10.5 -85.5v-50q0 -51 -11.5 -88t-27.5 -56t-41 -30t-43.5 -13t-43.5 -2z" />
<glyph unicode="7" horiz-adv-x="446" d="M190 0h-81q-4 0 -3 4l192 589v9h-234q-3 0 -3 4v69q0 5 3 5h322q3 0 3 -3v-73q0 -2 -2 -8q0 -1 -95.5 -295.5t-96.5 -296.5q-1 -4 -5 -4z" />
<glyph unicode="8" horiz-adv-x="457" d="M229 63q45 0 67.5 21t22.5 84v44q0 61 -23.5 82.5t-64.5 21.5q-92 0 -92 -104v-44q0 -62 22.5 -83.5t67.5 -21.5zM229 393q85 0 85 88v44q0 92 -83 92q-37 0 -62.5 -20.5t-25.5 -71.5v-44q0 -88 86 -88zM228 -11q-30 0 -52 3.5t-46 14t-39 29t-25 50.5t-10 76v55 q0 28 6.5 52.5t16 39.5t18.5 25.5t15 15.5l7 4v3q-6 4 -15 11.5t-24 38t-15 67.5v55q0 161 167 161q31 0 55.5 -5.5t50.5 -21t40.5 -49.5t14.5 -85v-55q0 -36 -13 -65.5t-26 -40.5l-13 -11v-3q2 -1 6.5 -4t14.5 -14.5t18 -25.5t14.5 -39t6.5 -54v-55q0 -45 -10 -77.5 t-25 -51t-39.5 -28.5t-46.5 -13t-52 -3z" />
<glyph unicode="9" horiz-adv-x="458" d="M229 616q-20 0 -34 -4t-28 -15t-21.5 -37t-7.5 -65v-49q0 -66 22 -91t64 -25q12 0 35.5 6t40.5 12l18 5v181q0 42 -25.5 62t-63.5 20zM224 689q30 0 56.5 -5.5t56 -20t47 -46.5t17.5 -79v-386q0 -40 -13 -71t-32 -47.5t-44.5 -26.5t-45.5 -13t-40 -3q-98 0 -150 26 q-3 2 -2 6q1 3 8 31t7 30q0 3 4 3q2 -1 21 -5t51.5 -8.5t59.5 -4.5q93 0 93 85v125q-74 -22 -108 -22q-24 0 -40.5 2t-39.5 12t-37.5 28t-25 53.5t-10.5 85.5v62q0 52 11.5 89t27.5 55.5t41 29.5t43.5 13t43.5 2z" />
<glyph unicode=":" horiz-adv-x="211" d="M66 0q-4 0 -4 4v89q0 4 4 4h80q3 0 3 -4v-89q0 -4 -3 -4h-80zM66 382q-4 0 -4 4v89q0 4 4 4h80q3 0 3 -4v-89q0 -4 -3 -4h-80z" />
<glyph unicode=";" horiz-adv-x="211" d="M24 -100q-2 0 -2 4q0 2 23 98t24 99q1 4 4 4h73q4 0 2 -4q-65 -195 -65 -197q-1 -4 -4 -4h-55zM65 377q-3 0 -3 4v94q0 4 3 4h80q4 0 4 -4v-94q0 -4 -4 -4h-80z" />
<glyph unicode="&#x3c;" horiz-adv-x="457" d="M402 80q-3 1 -172.5 80.5t-174.5 81.5q-3 3 -3 4v58q0 1 3 4l347 163q3 1 3 -3v-69q0 -3 -3 -6l-241 -116v-5q239 -113 241 -115q3 -1 3 -6v-68q0 -5 -3 -3z" />
<glyph unicode="=" horiz-adv-x="458" d="M55 340q-3 0 -3 4v64q0 4 3 4h347q3 0 3 -4v-64q0 -4 -3 -4h-347zM55 141q-3 0 -3 4v64q0 4 3 4h347q3 0 3 -4v-64q0 -4 -3 -4h-347z" />
<glyph unicode="&#x3e;" horiz-adv-x="457" d="M55 80q-3 -2 -3 3v68q0 5 3 6l242 115v5q-240 114 -242 116q-3 3 -3 6v69q0 3 3 3l347 -163q3 -2 3 -4v-58q0 -2 -3 -4q-7 -3 -175.5 -82t-171.5 -80z" />
<glyph unicode="?" horiz-adv-x="388" d="M231 0h-79q-4 0 -4 4v90q0 4 4 4h79q3 0 3 -4v-90q0 -4 -3 -4zM229 181h-74q-3 0 -3 4v52q0 36 18 73.5t39 64t39 55t18 48.5v50q0 27 -6.5 44.5t-19.5 25t-24 9.5t-27 2q-15 0 -32.5 -2.5t-31.5 -5.5t-25.5 -6t-18.5 -5l-7 -3q-4 -1 -5 2q-1 4 -7.5 29.5t-7.5 31.5 q-2 4 1 5q60 30 136 30q31 0 53.5 -4.5t49 -18t41 -46t14.5 -82.5v-56q0 -34 -29 -78.5t-58.5 -88t-29.5 -75.5v-51q0 -4 -3 -4z" />
<glyph unicode="@" horiz-adv-x="739" d="M365 128q35 0 54.5 14.5t19.5 58.5v140q0 36 -25.5 49t-53.5 13q-35 0 -52.5 -24t-17.5 -85v-53q0 -68 21 -90.5t54 -22.5zM363 -134q-46 0 -86.5 8.5t-85.5 34.5t-76.5 68t-52 116t-20.5 172q0 400 330 400q54 0 97.5 -8t88 -33t74 -65.5t48.5 -111t19 -164.5 q0 -121 -36.5 -169.5t-100.5 -48.5q-59 0 -91 40q-34 -40 -108 -40q-64 0 -102.5 36t-38.5 136v62q0 82 31.5 124.5t88.5 42.5q36 0 60.5 -8t30.5 -16l6 -7v23q0 3 3 3h61q3 0 3 -3v-258q0 -72 59 -72q21 0 34 8.5t23.5 45t10.5 103.5q0 78 -13.5 136t-36 92.5t-57 55.5 t-71 28.5t-84.5 7.5q-59 0 -103.5 -15.5t-81 -52.5t-56 -105t-19.5 -166q0 -99 22.5 -168.5t62 -103.5t79.5 -47.5t88 -13.5q49 0 95.5 6.5t68.5 12t24 7.5q3 0 4 -3l15 -53q1 -3 -2 -6q-5 -3 -26 -9t-72.5 -14t-106.5 -8z" />
<glyph unicode="A" horiz-adv-x="516" d="M162 217h193l-88 338h-16zM100 0h-82q-3 0 -2 4t97 337.5t96 335.5q0 3 4 3h93q4 0 5 -3q0 -2 94.5 -336.5t95.5 -336.5q2 -4 -3 -4h-82q-3 0 -4 4l-36 138h-235q-36 -135 -37 -138q-1 -4 -4 -4z" />
<glyph unicode="B" horiz-adv-x="509" d="M153 74h117q29 0 49 4.5t37 25t17 57.5v59q0 90 -104 90h-116v-236zM153 381h113q36 0 51 -4q31 64 31 114q0 40 -7 64.5t-22.5 34.5t-29.5 13t-37 3h-99v-225zM276 0h-208v680h195q26 0 45 -2t44.5 -12t41.5 -28.5t27.5 -53.5t11.5 -84q0 -57 -40 -146q31 -19 48 -48 t17 -85v-61q0 -55 -14.5 -89t-44 -48.5t-55.5 -18.5t-68 -4z" />
<glyph unicode="C" horiz-adv-x="473" d="M262 -10q-36 0 -62 3.5t-56.5 18t-49.5 39.5t-32 71.5t-13 110.5v220q0 63 13 108t32 69.5t49.5 38.5t57 17.5t62.5 3.5q48 0 86.5 -8t50.5 -13.5t15 -8.5t2 -5q0 -1 -6 -16l-12 -30l-6 -15q-1 -4 -4 -3q-60 20 -126 20q-27 0 -45.5 -4.5t-39.5 -19.5t-32 -51t-11 -92 v-204q0 -54 9.5 -89.5t28.5 -52t39 -22t50 -5.5q54 0 135 27q3 2 5 -2q0 -1 6 -16l12 -30l6 -15q0 -1 -2 -6l-1 -1q-61 -38 -161 -38z" />
<glyph unicode="D" horiz-adv-x="524" d="M154 80h109q31 0 50.5 5.5t38 21.5t27 51t8.5 90v188q0 56 -9.5 91t-29.5 50t-38 19.5t-47 4.5h-109v-521zM263 0h-195v680h195q24 0 39.5 -1t39.5 -5.5t40 -13.5t35 -26t30 -41.5t18.5 -62t7.5 -85.5v-205q0 -48 -7 -86t-17.5 -63t-28.5 -42.5t-34 -27t-40 -14.5t-41 -6 t-42 -1z" />
<glyph unicode="E" horiz-adv-x="468" d="M68 0v680h354q4 0 4 -4v-70q0 -4 -4 -4h-268v-218h229q3 0 3 -4v-70q0 -4 -3 -4h-229v-228h268q4 0 4 -4v-70q0 -4 -4 -4h-354z" />
<glyph unicode="F" horiz-adv-x="464" d="M72 0q-4 0 -4 4v676h354q4 0 4 -4v-70q0 -4 -4 -4h-268v-250h229q3 0 3 -4v-70q0 -4 -3 -4h-229v-270q0 -4 -4 -4h-78z" />
<glyph unicode="G" horiz-adv-x="518" d="M257 -10q-34 0 -59 3.5t-55 18t-48.5 39.5t-31.5 71.5t-13 110.5v220q0 65 14.5 111t34 70t51.5 37t56 16t58 3q46 0 90.5 -7.5t63 -13.5t24.5 -9q2 -2 1 -5l-20 -61q-1 -3 -5 -2q-2 1 -25 5.5t-61 9t-68 4.5q-21 0 -35 -1.5t-33.5 -11t-31 -26t-20 -49.5t-8.5 -79v-204 q0 -56 9.5 -91.5t28.5 -52t37.5 -21.5t46.5 -5l125 11v202h-90q-4 0 -4 4v66q0 4 4 4h166v-345q-145 -22 -202 -22z" />
<glyph unicode="H" horiz-adv-x="548" d="M72 0q-4 0 -4 4v672q0 4 4 4h78q4 0 4 -4v-296h240v296q0 4 4 4h78q4 0 4 -4v-672q0 -4 -4 -4h-78q-4 0 -4 4v302h-240v-302q0 -4 -4 -4h-78z" />
<glyph unicode="I" horiz-adv-x="222" d="M72 0q-4 0 -4 4v672q0 4 4 4h78q4 0 4 -4v-672q0 -4 -4 -4h-78z" />
<glyph unicode="J" horiz-adv-x="411" d="M171 -10q-30 0 -63.5 5t-51 9.5t-20.5 5.5q-2 1 -1 6l18 62q1 4 4 3q2 -1 19 -3.5t44.5 -5t47.5 -2.5q22 0 35.5 2.5t28.5 11t22 28.5t7 52v512q0 4 3 4h79q3 0 3 -4v-516q0 -47 -11.5 -80t-27 -50t-41.5 -26.5t-46 -11.5t-49 -2z" />
<glyph unicode="K" horiz-adv-x="505" d="M72 0q-4 0 -4 4v672q0 4 4 4h78q4 0 4 -4v-294h30q179 291 181 294q3 4 5 4h93q3 0 1 -4l-210 -330q223 -340 224 -342q3 -4 -1 -4h-93q-3 0 -6 4l-191 301h-33v-301q0 -4 -4 -4h-78z" />
<glyph unicode="L" horiz-adv-x="450" d="M68 0v676q0 4 4 4h78q4 0 4 -4v-598h268q4 0 4 -4v-69q0 -5 -4 -5h-354z" />
<glyph unicode="M" horiz-adv-x="652" d="M72 0q-4 0 -4 4v673q0 3 3 3h100q4 0 5 -2l148 -416h10q143 412 144 414q1 4 6 4h98q2 0 2 -3v-673q0 -4 -3 -4h-77q-3 0 -3 4v495h-14q-121 -351 -122 -354q-1 -4 -5 -4h-66q-5 0 -6 5l-123 353h-12v-495q0 -4 -3 -4h-78z" />
<glyph unicode="N" horiz-adv-x="556" d="M71 0q-4 0 -4 4v672q0 4 4 4h96q4 0 5 -4l223 -519h11v519q0 4 4 4h77q3 0 3 -4v-672q0 -4 -3 -4h-97q-3 0 -5 4l-223 523h-12v-523q0 -4 -3 -4h-76z" />
<glyph unicode="O" horiz-adv-x="518" d="M258 69q30 0 49 5t38 21.5t28 52.5t9 92v204q0 103 -31.5 135t-92.5 32q-28 0 -47.5 -5.5t-38 -21.5t-28 -51t-9.5 -89v-204q0 -57 9.5 -93.5t29 -52t38 -20.5t46.5 -5zM258 -10q-29 0 -49 2t-47 9t-45 23.5t-35 42t-25.5 67.5t-8.5 98v221q0 64 13 109.5t32 69.5 t49.5 38t55.5 17t60 3t58 -2.5t54.5 -15.5t50.5 -37t33 -70.5t14 -111.5v-221q0 -68 -14 -115.5t-32.5 -71.5t-50.5 -37t-54.5 -15.5t-58.5 -2.5z" />
<glyph unicode="P" horiz-adv-x="500" d="M154 347h118q20 0 35.5 3t33 12.5t27 31.5t9.5 55v52q0 34 -8.5 55.5t-25.5 31t-32 12t-38 2.5h-119v-255zM150 0h-78q-4 0 -4 4v676h207q30 0 50 -2t48.5 -11.5t46 -27t30 -52t12.5 -82.5v-61q0 -47 -13.5 -81.5t-32.5 -52t-47.5 -27.5t-48 -12t-45.5 -2h-121v-265 q0 -4 -4 -4z" />
<glyph unicode="Q" horiz-adv-x="513" d="M258 -10q-29 0 -49 2t-47 9t-45 23.5t-35 42t-25.5 67.5t-8.5 98v221q0 64 13 109.5t32 69.5t49.5 38t55.5 17t60 3t58 -2.5t54.5 -15.5t50.5 -37t33 -70.5t14 -111.5v-221q0 -110 -35 -170q41 -48 42 -48q3 -3 0 -6l-45 -47q-4 -4 -5 0l-45 51q-41 -22 -122 -22z M270 139q-2 5 0 6q1 0 8 7.5t15.5 16.5t15.5 17l7 7q2 3 5 0q0 -1 48 -56q13 39 13 103v204q0 103 -31.5 135t-92.5 32q-28 0 -47.5 -5.5t-38 -21.5t-28 -51t-9.5 -89v-204q0 -57 9.5 -93.5t29 -52t38 -20.5t46.5 -5q43 0 64 10z" />
<glyph unicode="R" horiz-adv-x="521" d="M153 346h119q20 0 35.5 3t33 13t27 32t9.5 56v50q0 34 -9 56t-26 31.5t-32 12t-37 2.5h-120v-256zM150 0h-78q-4 0 -4 4v676h207q30 0 50.5 -2t48.5 -12t45.5 -28t30 -53t12.5 -84v-54q0 -131 -91 -164l109 -279q2 -4 -2 -4h-87q-4 0 -5 4l-99 265h-134v-265q0 -4 -3 -4z " />
<glyph unicode="S" horiz-adv-x="504" d="M249 -10q-119 0 -189 35q-3 1 -1 5l20 66q2 3 4 2q5 -2 24 -8.5t61.5 -14t83.5 -7.5q37 0 59.5 4.5t41 25t18.5 59.5v60q0 43 -29.5 62t-91.5 25q-109 11 -149 47t-40 117v73q0 149 190 149q111 0 169 -29q2 -1 2 -6l-21 -61q-1 -3 -4 -3q-3 1 -21 5.5t-54 10t-70 5.5 q-48 0 -76 -16t-28 -63v-59q0 -42 26 -62t92 -27q107 -11 149.5 -46t42.5 -117v-74q0 -42 -13.5 -72t-33 -46.5t-49.5 -25.5t-55 -11.5t-58 -2.5z" />
<glyph unicode="T" horiz-adv-x="456" d="M189 0q-3 0 -3 4v597h-164q-3 0 -3 4v71q0 4 3 4h412q3 0 3 -4v-71q0 -4 -3 -4h-163v-597q0 -4 -4 -4h-78z" />
<glyph unicode="U" horiz-adv-x="538" d="M250 -10q-106 0 -146.5 61.5t-40.5 211.5v413q0 4 3 4h79q3 0 3 -4v-406q0 -113 19 -156.5t83 -43.5h39q65 0 83 42.5t18 157.5v406q0 4 3 4h79q3 0 3 -4v-413q0 -147 -37.5 -210t-149.5 -63h-38z" />
<glyph unicode="V" horiz-adv-x="511" d="M207 0q-3 0 -4 4l-187 672q0 4 3 4h82q3 0 4 -4l143 -542h15q143 539 144 542q0 4 4 4h82q4 0 2 -4l-189 -672q-1 -4 -5 -4h-94z" />
<glyph unicode="W" horiz-adv-x="701" d="M136 0q-3 0 -4 4l-113 672q-1 4 3 4h82q3 0 4 -4l84 -535h15q104 393 105 395q1 3 4 3h68q4 0 5 -3l104 -395h16q83 532 84 535q1 4 5 4h82q3 0 2 -4l-113 -672q-1 -4 -4 -4h-105q-2 0 -3 3l-101 383h-10q-100 -378 -101 -382q-2 -4 -5 -4h-104z" />
<glyph unicode="X" horiz-adv-x="481" d="M22 0q-3 0 -2 4l174 351q-158 318 -160 321q-2 4 3 4h87q3 0 4 -4l111 -235h4q109 233 110 235q3 4 5 4h87q3 0 2 -4l-159 -321q173 -348 174 -351q1 -4 -2 -4h-87q-4 0 -5 4l-125 265h-5q-122 -263 -124 -265q-2 -4 -4 -4h-88z" />
<glyph unicode="Y" horiz-adv-x="461" d="M192 0q-3 0 -3 4v268q-174 401 -175 404q-2 4 2 4h86q1 0 4 -4l123 -303h5q121 300 123 303q1 4 4 4h84q3 0 2 -4l-173 -404v-268q0 -4 -4 -4h-78z" />
<glyph unicode="Z" horiz-adv-x="462" d="M44 0q-2 0 -2 2v77q0 5 2 6l275 507v9h-264q-3 0 -3 4v70q0 5 3 5h360q4 0 4 -5v-73q0 -5 -3 -11l-275 -504v-9h274q4 0 4 -4v-70q0 -4 -4 -4h-371z" />
<glyph unicode="[" horiz-adv-x="251" d="M72 -93v843h141q3 0 3 -4v-59q0 -4 -3 -4h-71v-709h71q3 0 3 -4v-59q0 -4 -3 -4h-141z" />
<glyph unicode="\" horiz-adv-x="357" d="M298 -4h-72q-4 0 -4 4q0 1 -80.5 340.5t-81.5 340.5q-1 4 2 4h71q4 0 4 -4q1 -3 82 -341.5t81 -339.5q0 -4 -2 -4z" />
<glyph unicode="]" horiz-adv-x="250" d="M179 -93h-141q-4 0 -4 4v59q0 4 4 4h71v709h-71q-4 0 -4 4v59q0 4 4 4h141v-843z" />
<glyph unicode="^" horiz-adv-x="457" d="M49 274l146 402q2 4 4 4h60q1 0 3 -4q0 -1 37 -101.5t73 -200t36 -100.5q0 -4 -2 -4h-70q-3 0 -4 4l-102 294h-3q-100 -291 -101 -294q-2 -4 -6 -4h-69q-4 0 -2 4z" />
<glyph unicode="_" horiz-adv-x="416" d="M6 -135q-3 0 -3 4v58q0 4 3 4h404q3 0 3 -4v-58q0 -4 -3 -4h-404z" />
<glyph unicode="`" horiz-adv-x="377" d="M194 559l-77 137q-3 4 1 4h73q4 0 5 -4q1 -1 31 -67.5t31 -69.5q2 -4 -2 -4h-57q-5 0 -5 4z" />
<glyph unicode="a" horiz-adv-x="438" d="M202 59q21 0 34 1.5t29 7.5t23.5 20t7.5 37v89q-67 14 -110 14q-29 0 -47 -17.5t-18 -43.5v-37q0 -29 19.5 -50t61.5 -21zM179 -8q-63 0 -98 36t-35 90v51q0 55 37 87t88 32q21 0 52 -3.5t52 -6.5l21 -4v56q0 55 -22 72t-72 17q-66 0 -111 -15q-3 0 -4 3q-6 30 -14 54 q-2 3 2 5q48 24 136 24q35 0 58.5 -4t50.5 -18.5t41 -49t14 -87.5v-327q0 -4 -4 -4h-72q-3 0 -3 4v21q-21 -33 -117 -33z" />
<glyph unicode="b" d="M245 66q19 0 31 3t26 15.5t21 42t7 76.5v74q0 46 -7 75t-21.5 40.5t-26 15t-30.5 3.5q-13 0 -37 -6t-42 -11l-17 -6v-249q0 -73 96 -73zM145 0h-75q-3 0 -3 4v672q0 4 3 4h75q4 0 4 -4v-214q74 23 109 23q25 0 42 -2t40 -13.5t37 -31.5t24.5 -59.5t10.5 -95.5v-85 q0 -70 -12.5 -114.5t-37 -63t-45 -23.5t-52.5 -5q-43 0 -74 11t-42 27v-27q0 -3 -4 -3z" />
<glyph unicode="c" horiz-adv-x="404" d="M222 -8q-30 0 -51 2.5t-46 13.5t-40.5 31t-26 57.5t-10.5 90.5v110q0 51 11.5 88t27.5 56.5t41.5 30.5t46 13.5t48.5 2.5q69 0 126 -19q4 -2 2 -5l-16 -55q-1 -3 -4 -3q-24 8 -106 8q-19 0 -33.5 -4t-30 -15.5t-24 -38t-8.5 -66.5v-97q0 -42 8 -69.5t23.5 -39.5 t29.5 -15.5t35 -3.5q27 0 54 3t40 5.5t15 3.5q3 1 5 -2q0 -2 8 -28t9 -28q2 -3 -2 -5q-44 -22 -132 -22z" />
<glyph unicode="d" d="M385 0h-75q-3 0 -3 3v27q-11 -16 -42.5 -27t-74.5 -11q-25 0 -41.5 2t-38.5 13.5t-34.5 32t-22 60.5t-9.5 97v86q0 56 10 95.5t24 60t37.5 31.5t40 13t42.5 2q16 0 43 -6t47 -11l19 -6v214q0 4 3 4h75q3 0 3 -4v-672q0 -4 -3 -4zM210 65q41 0 69 17.5t28 56.5v249 q-67 23 -96 23q-19 0 -31 -3.5t-26 -15.5t-21 -40.5t-7 -74.5v-75q0 -47 6.5 -76.5t20.5 -42t26 -15.5t31 -3z" />
<glyph unicode="e" horiz-adv-x="433" d="M123 269h181q0 84 -22.5 114.5t-65.5 30.5q-46 0 -69.5 -28t-23.5 -117zM226 -9q-28 0 -50 3t-49 15.5t-44.5 34t-30 61.5t-12.5 95v83q0 53 12 92t29.5 60t43 33.5t46 15.5t45.5 3q26 0 45 -2.5t44 -14.5t41 -33.5t27.5 -62.5t11.5 -98v-66h-262q0 -48 8 -78.5t24 -44.5 t32 -18.5t40 -4.5q84 0 129 15q4 0 4 -3l4 -14q4 -15 7 -27.5t3 -13.5q0 -5 -2 -6q-5 -2 -18.5 -6.5t-50.5 -11t-77 -6.5z" />
<glyph unicode="f" horiz-adv-x="281" d="M85 0q-3 0 -3 4v409h-43q-3 0 -3 4v58q0 4 3 4h43v63q0 48 10.5 79t30.5 44t36.5 16.5t39.5 3.5q10 0 24.5 -1.5t25 -3t11.5 -2.5q3 -1 3 -5q0 -3 -4 -28.5t-5 -30.5q0 -3 -4 -3q-1 0 -9 0.5t-19 1.5t-19 1q-39 0 -39 -72v-63h79q4 0 4 -4v-58q0 -4 -4 -4h-79v-409 q0 -4 -4 -4h-75z" />
<glyph unicode="g" horiz-adv-x="449" d="M204 66q13 0 37 5t42 11l18 5v253q0 71 -97 71q-19 0 -31.5 -3.5t-26 -16t-20 -42t-6.5 -75.5v-73q0 -44 6 -72.5t19 -41.5t26 -17t33 -4zM207 -194q-99 0 -145 23q-4 1 -2 5q0 1 9 28t10 29q0 5 3 3q48 -16 121 -16q49 0 73.5 17.5t24.5 77.5v42q-72 -20 -109 -20 q-35 0 -57 5t-47 23t-37.5 61t-12.5 110v85q0 68 11.5 111.5t34.5 63t45 25.5t55 6q91 0 117 -36v26q0 4 3 4h75q3 0 3 -4v-502q0 -46 -11 -79t-26.5 -49.5t-42 -26t-46 -11t-49.5 -1.5z" />
<glyph unicode="h" horiz-adv-x="465" d="M70 0q-3 0 -3 4v672q0 4 3 4h75q4 0 4 -4v-222q74 31 112 31q30 0 50.5 -4.5t44 -19.5t35.5 -50.5t12 -91.5v-315q0 -4 -3 -4h-75q-3 0 -3 4v310q0 62 -17.5 80t-54.5 18q-15 0 -40.5 -7.5t-43.5 -14.5l-17 -8v-378q0 -4 -4 -4h-75z" />
<glyph unicode="i" horiz-adv-x="216" d="M70 0q-3 0 -3 4v471q0 4 3 4h75q3 0 3 -4v-471q0 -4 -3 -4h-75zM68 592q-3 0 -3 4v80q0 4 3 4h79q3 0 3 -4v-80q0 -4 -3 -4h-79z" />
<glyph unicode="j" horiz-adv-x="222" d="M38 -185q-12 0 -26 1.5t-24 3.5l-10 1q-3 2 -2 5q0 2 4.5 30.5t5.5 29.5q1 3 3 3l8 -1q8 0 19 -0.5t19 -0.5q39 0 39 72v516q0 4 3 4h74q4 0 4 -4v-516q0 -40 -8 -68.5t-19 -43t-29 -22t-30.5 -9t-30.5 -1.5zM75 592q-4 0 -4 4v80q0 4 4 4h79q3 0 3 -4v-80q0 -4 -3 -4 h-79z" />
<glyph unicode="k" horiz-adv-x="434" d="M70 0q-3 0 -3 4v672q0 4 3 4h75q4 0 4 -4v-387h33q109 184 111 186q3 4 5 4h88q4 0 1 -4l-138 -223q157 -245 159 -248q2 -4 -1 -4h-91q-3 0 -5 4l-131 211h-31v-211q0 -4 -4 -4h-75z" />
<glyph unicode="l" horiz-adv-x="248" d="M181 -5q-31 0 -48 3.5t-34.5 16.5t-25 44t-7.5 81v536q0 4 3 4h74q3 0 3 -4v-537q0 -45 10.5 -58.5t29.5 -13.5q7 0 24 1l18 1q4 0 5 -3q0 -1 4.5 -29.5t4.5 -30.5q1 -4 -3 -5q-12 -6 -58 -6z" />
<glyph unicode="m" horiz-adv-x="716" d="M70 0q-3 0 -3 4v471q0 4 3 4h75q4 0 4 -4v-21q73 31 111 31q46 0 70.5 -9.5t42.5 -36.5l11 6q11 6 25 12t31 12.5t36.5 11t35.5 4.5q31 0 52 -4.5t44 -20t34.5 -51t11.5 -90.5v-315q0 -4 -3 -4h-75q-3 0 -3 4v310q0 62 -18 80t-55 18q-15 0 -40.5 -8.5t-43.5 -17.5 l-19 -8q4 -23 4 -59v-315q0 -4 -3 -4h-75q-3 0 -3 4v310q0 63 -17.5 80.5t-54.5 17.5q-15 0 -39.5 -7.5t-42.5 -14.5l-17 -8v-378q0 -4 -4 -4h-75z" />
<glyph unicode="n" horiz-adv-x="465" d="M70 0q-3 0 -3 4v471q0 4 3 4h75q4 0 4 -4v-21q74 31 112 31q24 0 40 -2t37 -11t34 -26t22 -49.5t9 -77.5v-315q0 -4 -4 -4h-74q-3 0 -3 4v310q0 62 -17.5 80t-54.5 18q-15 0 -40.5 -7.5t-43.5 -14.5l-17 -8v-378q0 -4 -4 -4h-75z" />
<glyph unicode="o" horiz-adv-x="438" d="M216 65q23 0 37 3.5t28 16.5t21 42t7 75v78q0 45 -6 73t-20 40.5t-27.5 16.5t-36.5 4q-47 0 -71 -25.5t-24 -108.5v-78q0 -46 7 -75t21 -41.5t28 -16.5t36 -4zM216 -8q-40 0 -66 6t-53.5 25t-41 62.5t-13.5 111.5v89q0 66 14 108.5t41.5 62t54.5 25.5t67 6q30 0 50 -2.5 t45.5 -13.5t40.5 -31.5t25.5 -59.5t10.5 -94v-90q0 -56 -10.5 -95.5t-25 -60.5t-40 -32.5t-46.5 -14t-53 -2.5z" />
<glyph unicode="p" d="M70 479h75q4 0 4 -4v-26q24 36 116 36q32 0 52.5 -5t45 -23.5t37 -63t12.5 -114.5v-84q0 -56 -10.5 -95.5t-24.5 -59.5t-37.5 -31.5t-40.5 -13.5t-42 -2q-15 0 -42 4.5t-47 9.5l-19 5v-209q0 -4 -4 -4h-75q-3 0 -3 4v672q0 4 3 4zM245 411q-96 0 -96 -71v-253 q67 -21 95 -21q19 0 31 3.5t26.5 16t21.5 41.5t7 75v72q0 47 -7 76.5t-21 41.5t-26 15.5t-31 3.5z" />
<glyph unicode="q" d="M210 410q-19 0 -30.5 -3t-25.5 -15t-21 -41.5t-7 -76.5v-74q0 -46 7 -75t21 -41t26 -15.5t31 -3.5q13 0 37 5.5t42 10.5l17 5v254q0 70 -97 70zM310 479h75q3 0 3 -4v-672q0 -4 -3 -4h-75q-3 0 -3 4v209q-74 -20 -109 -20q-21 0 -35 1.5t-34 7t-33.5 19t-26 35t-19 56.5 t-6.5 82v86q0 70 12.5 114.5t36.5 63t44.5 23.5t52.5 5q93 0 117 -36v26q0 4 3 4z" />
<glyph unicode="r" horiz-adv-x="348" d="M70 0q-3 0 -3 4v471q0 4 3 4h75q4 0 4 -4v-22q54 32 91 32q50 0 80 -15q4 -1 2 -5q0 -1 -8.5 -28.5t-8.5 -28.5q-1 -3 -4 -3q-16 8 -68 8q-15 0 -36 -8.5t-35 -16.5l-13 -9v-375q0 -4 -4 -4h-75z" />
<glyph unicode="s" horiz-adv-x="415" d="M210 -7q-97 0 -157 20q-2 1 -1 5l16 58q1 2 4 2l8 -2q8 -1 21.5 -3.5t30 -5t37.5 -4t41 -1.5q28 0 43.5 2.5t27.5 16t12 39.5v28q0 23 -20 38t-75 23q-72 11 -106.5 37.5t-34.5 80.5v44q0 37 13.5 62t38.5 36t47.5 14.5t51.5 3.5q24 0 46.5 -2t38.5 -5.5t28 -6.5t19 -5 l6 -2q2 0 2 -3q-1 -1 -8 -28.5t-7 -28.5q-2 -2 -3 -2q-2 1 -19 4.5t-47.5 7.5t-56.5 4q-72 0 -72 -54v-30q0 -24 20 -36t70 -20q72 -10 109 -37.5t37 -81.5v-43q0 -42 -12.5 -68.5t-38 -38t-49 -15t-61.5 -3.5z" />
<glyph unicode="t" horiz-adv-x="280" d="M193 -5q-31 0 -47.5 3.5t-34.5 16.5t-25.5 44t-7.5 81v273h-44q-3 0 -3 4v59q0 4 3 4h44v156q0 4 3 4h74q4 0 4 -4v-156h78q4 0 4 -4v-59q0 -4 -4 -4h-78v-274q0 -31 6.5 -48t14 -20.5t18.5 -3.5q7 0 17 0.5t17 0.5l8 1q3 0 4 -3q0 -2 4.5 -30.5t5.5 -29.5q1 -3 -3 -5 q-18 -6 -58 -6z" />
<glyph unicode="u" horiz-adv-x="462" d="M393 479q4 0 4 -4v-471q0 -4 -4 -4h-74q-3 0 -3 4v17q-75 -28 -112 -28q-31 0 -51 4t-44 19t-36 50.5t-12 92.5v316q0 4 3 4h75q4 0 4 -4v-312q0 -62 17 -80t54 -18q15 0 40.5 7t43.5 14l18 7v382q0 4 3 4h74z" />
<glyph unicode="v" horiz-adv-x="415" d="M171 0q-2 0 -3 4l-147 471q-1 4 1 4h81q4 0 5 -4l96 -347h11q93 345 94 347q0 4 5 4h78q3 0 2 -4l-145 -471q-1 -4 -4 -4h-74z" />
<glyph unicode="w" horiz-adv-x="612" d="M142 0q-3 0 -4 4l-105 471q0 4 2 4h77q4 0 5 -4l69 -345h8q80 251 81 254q0 4 3 4h58q3 0 4 -4l81 -254h8q65 342 66 345q2 4 5 4h78q2 0 1 -4q0 -1 -51.5 -235.5t-52.5 -235.5q-1 -4 -4 -4h-72q-3 0 -4 4l-84 271h-8q-85 -269 -86 -271q-1 -4 -3 -4h-72z" />
<glyph unicode="x" horiz-adv-x="414" d="M25 0q-4 0 -2 4l138 246q-124 223 -126 226q-1 3 2 3h84q3 0 5 -4l76 -153h10q77 151 77 153q3 4 5 4h83q3 0 1 -3l-126 -226q137 -243 138 -246q2 -4 -1 -4h-84q-2 0 -5 4l-89 174h-9q-88 -171 -90 -174q-2 -4 -4 -4h-83z" />
<glyph unicode="y" horiz-adv-x="414" d="M60 -180q-3 0 -3 4q0 2 3.5 32.5t3.5 31.5q0 4 5 4h21q13 0 22 4t21 22t22 53l12 44q-144 457 -145 460q-1 4 2 4h78q4 0 5 -4l99 -342h8q95 339 95 342q1 4 5 4h77q3 0 2 -4l-25 -78q-25 -78 -54.5 -171.5t-56.5 -177.5t-31 -96q-15 -48 -29 -75.5t-31.5 -39.5 t-30 -14.5t-39.5 -2.5h-36z" />
<glyph unicode="z" horiz-adv-x="402" d="M50 0q-3 0 -3 4v63q0 2 3 8l207 325v7h-198q-4 0 -4 4v64q0 4 4 4h295q3 0 3 -4v-63q0 -4 -2 -7l-207 -326v-8h208q3 0 3 -4v-63q0 -4 -3 -4h-306z" />
<glyph unicode="{" horiz-adv-x="286" d="M201 -91q-44 0 -66 26.5t-22 90.5v179q0 43 -11.5 66t-44.5 23q-4 0 -4 4v62q0 4 4 4q32 0 44 22.5t12 67.5v179q0 64 22 90.5t66 26.5h46q4 0 4 -4v-58q0 -4 -4 -4h-27q-37 0 -37 -48v-187q0 -60 -11.5 -83t-37.5 -34v-5q26 -12 37.5 -34.5t11.5 -82.5v-187 q0 -48 38 -48h26q4 0 4 -4v-58q0 -4 -4 -4h-46z" />
<glyph unicode="|" horiz-adv-x="240" d="M89 -94q-4 0 -4 4v836q0 4 4 4h62q3 0 3 -4v-836q0 -4 -3 -4h-62z" />
<glyph unicode="}" horiz-adv-x="286" d="M84 -91h-46q-3 0 -3 4v58q0 4 3 4h27q38 0 38 48v187q0 60 11 82.5t37 34.5v5q-25 11 -36.5 33.5t-11.5 83.5v187q0 48 -38 48h-27q-3 0 -3 4v58q0 4 3 4h46q45 0 67 -26.5t22 -90.5v-179q0 -45 12 -67.5t44 -22.5q4 0 4 -4v-62q0 -4 -4 -4q-33 0 -44.5 -23t-11.5 -66 v-179q0 -64 -22 -90.5t-67 -26.5z" />
<glyph unicode="~" horiz-adv-x="457" d="M61 279q0 6 5 12q4 5 15 14t32.5 20t40.5 11q30 0 77.5 -29t73.5 -29q18 0 37 11t31.5 22.5t15.5 11.5t3 -4v-44q0 -8 -4 -13q-5 -6 -14 -14.5t-31 -20t-44 -11.5q-29 0 -76 29.5t-72 29.5q-18 0 -37.5 -11.5t-33 -22.5t-15.5 -11q-4 0 -4 6v43z" />
<glyph unicode="&#xa1;" horiz-adv-x="237" d="M82 680h80q3 0 3 -4v-89q0 -4 -3 -4h-80q-3 0 -3 4v89q0 4 3 4zM87 491h69q3 0 3 -4v-483q0 -4 -3 -4h-69q-3 0 -3 4v483q0 4 3 4z" />
<glyph unicode="&#xa2;" horiz-adv-x="445" d="M216 -101q-4 0 -4 4v93q-21 1 -37 4t-37 15t-35 31.5t-24 56.5t-10 88v102q0 41 6.5 73t19 52t25.5 33.5t31.5 20t31 9t29.5 3.5v91q0 4 4 4h47q4 0 4 -4v-91q80 -4 103 -19q4 -2 2 -5l-19 -56q-1 -2 -4 -2l-5 1q-6 1 -15 2t-21 2.5t-29 2.5t-34 1q-44 0 -69.5 -24 t-25.5 -101v-90q0 -78 25 -103t70 -25q27 0 54 3.5t40 6.5t15 4q3 0 4 -3l18 -56q1 -3 -1 -5q-40 -20 -108 -22v-93q0 -4 -4 -4h-47z" />
<glyph unicode="&#xa3;" horiz-adv-x="457" d="M96 0q-3 0 -3 3v280h-31q-4 0 -4 4v56q0 4 4 4h31v186q0 51 17 84t47 46.5t53 17.5t53 4q79 0 139 -30q4 -2 2 -5q-1 -3 -8.5 -32t-7.5 -31q-1 -2 -5 -2q-3 2 -18.5 6.5t-45 10t-55.5 5.5q-41 0 -63.5 -15t-22.5 -66v-179h138q3 0 3 -4v-56q0 -4 -3 -4h-138v-205h221 q3 0 3 -4v-70q0 -4 -3 -4h-303z" />
<glyph unicode="&#xa4;" horiz-adv-x="393" d="M196 216q33 0 50.5 15.5t17.5 60.5v42q0 44 -17 59t-49 15q-33 0 -51.5 -16t-18.5 -58v-42q0 -46 17.5 -61t50.5 -15zM126 94h-55q-4 0 -4 4q5 59 33 85q-34 28 -34 101v59q0 67 35 97q-30 27 -34 85q0 4 4 4h55q3 0 3 -4q5 -29 21 -41.5t48 -12.5q31 0 46 11.5t19 42.5 q0 4 4 4h55q4 0 4 -4q-4 -59 -32 -83q32 -28 32 -99v-59q0 -73 -33 -101q29 -26 33 -85q0 -4 -4 -4h-55q-3 0 -3 4q-5 32 -21.5 43.5t-46.5 11.5q-29 0 -45.5 -10.5t-20.5 -44.5q0 -4 -4 -4z" />
<glyph unicode="&#xa5;" horiz-adv-x="469" d="M195 0q-3 0 -3 4v147h-111q-3 0 -3 4v51q0 4 3 4h111v59h-111q-3 0 -3 4v51q0 4 3 4h85q-147 346 -148 348q-2 4 2 4h86q2 0 4 -4l124 -305h3q122 303 123 305q2 4 4 4h85q4 0 2 -4l-148 -348h82q4 0 4 -4v-51q0 -4 -4 -4h-108v-59h108q4 0 4 -4v-51q0 -4 -4 -4h-108 v-147q0 -4 -3 -4h-79z" />
<glyph unicode="&#xa6;" horiz-adv-x="239" d="M88 -94q-3 0 -3 4v357q0 4 3 4h62q4 0 4 -4v-357q0 -4 -4 -4h-62zM88 389q-3 0 -3 4v353q0 4 3 4h62q4 0 4 -4v-353q0 -4 -4 -4h-62z" />
<glyph unicode="&#xa7;" horiz-adv-x="446" d="M282 267q26 13 26 55v26q0 21 -22 34t-78 28q-22 4 -31 7q-36 -13 -36 -53v-29q0 -42 93 -56q14 -2 48 -12zM63 18q-3 2 -2 5q1 4 9.5 27.5t9.5 29.5q2 3 4 3q2 -1 20 -5.5t51.5 -9t64.5 -4.5q44 0 63.5 11t19.5 47v26q0 28 -22 40.5t-73 20.5q-26 5 -39.5 7.5 t-36.5 11.5t-34.5 20t-21 31t-9.5 47v43q0 53 29 80q-29 25 -29 78v42q0 66 40.5 91t110.5 25q69 0 138 -23q1 -1 1 -3q0 -1 -8.5 -28t-8.5 -28q0 -2 -3 -2l-7 1q-8 2 -20 4.5t-26.5 5t-32.5 4t-34 1.5q-73 0 -73 -53v-28q0 -26 22 -37.5t69 -18.5q30 -4 53 -11t46 -19.5 t35 -35t12 -52.5v-42q0 -58 -26 -86q26 -26 26 -71v-43q0 -42 -12.5 -68.5t-38.5 -38t-49.5 -15t-60.5 -3.5q-44 0 -83.5 6t-54.5 10.5t-19 6.5z" />
<glyph unicode="&#xa8;" horiz-adv-x="377" d="M73 591q-3 0 -3 4v81q0 4 3 4h65q3 0 3 -4v-81q0 -4 -3 -4h-65zM240 591q-3 0 -3 4v81q0 4 3 4h64q3 0 3 -4v-81q0 -4 -3 -4h-64z" />
<glyph unicode="&#xa9;" horiz-adv-x="684" d="M342 685q119 0 202.5 -101t83.5 -244t-84 -244.5t-202 -101.5q-119 0 -203 101.5t-84 244.5t84 244t203 101zM342 45q100 0 170 86.5t70 208.5t-70 209t-170 87t-171 -87t-71 -209t71 -208.5t171 -86.5zM348 147q-29 0 -49.5 5t-42 20t-32.5 48t-11 82v80q0 48 12 80 t34 46.5t42.5 19.5t46.5 5q29 0 53.5 -3.5t34 -7t10.5 -4.5q2 -2 2 -4l-13 -43q-1 -2 -4 -2l-5 1q-4 0 -11.5 1t-16.5 2.5t-22 2t-26 0.5q-15 0 -26 -3t-23.5 -12t-19 -30t-6.5 -53v-72q0 -34 6.5 -55.5t18.5 -31t23 -12t27 -2.5q13 0 26.5 1t23.5 2.5t18 3t12 2.5l5 1 q3 0 3 -2q0 -1 6.5 -21.5t7.5 -21.5q0 -4 -2 -4q-38 -19 -102 -19z" />
<glyph unicode="&#xaa;" horiz-adv-x="259" d="M119 425q60 0 60 42v52q-44 8 -70 8q-19 0 -29.5 -10.5t-10.5 -25.5v-22q0 -44 50 -44zM107 386q-38 0 -58.5 21.5t-20.5 54.5v30q0 32 21.5 51.5t52.5 19.5l76 -9v31q0 34 -13.5 44.5t-43.5 10.5q-44 0 -66 -11q-1 0 -2 2t-3 9t-4 13t-2 9q0 2 1 3t9 4.5t28 7.5t43 4 q21 0 34.5 -2.5t29.5 -11t24 -29t8 -52.5v-194q0 -2 -2 -2h-39q-2 0 -2 2v16q-15 -22 -71 -22z" />
<glyph unicode="&#xab;" horiz-adv-x="479" d="M217 470q41 -41 42 -43q3 -2 0 -5l-131 -157q130 -155 131 -157q3 -3 0 -6l-42 -43q-3 -3 -4 0q-2 2 -88 102t-87 101q-2 4 0 6l175 202q2 2 4 0zM406 470q0 -1 20 -21.5t21 -21.5q3 -2 0 -5l-131 -157q130 -155 131 -157q3 -3 0 -6q-39 -39 -41 -43q-2 -3 -5 0 q-1 1 -87.5 101.5t-87.5 101.5q-3 3 0 6q2 2 88 101.5t87 100.5q2 2 5 0z" />
<glyph unicode="&#xac;" horiz-adv-x="458" d="M333 240h-278q-3 0 -3 4v64q0 4 3 4h347q3 0 3 -4v-196q0 -4 -3 -4h-65q-4 0 -4 4v128z" />
<glyph unicode="&#xad;" horiz-adv-x="325" d="M44 239q-3 0 -3 4v64q0 4 3 4h237q3 0 3 -4v-64q0 -4 -3 -4h-237z" />
<glyph unicode="&#xae;" horiz-adv-x="380" d="M190 685q67 0 114 -56.5t47 -136.5t-47 -136.5t-114 -56.5q-66 0 -113 56.5t-47 136.5t47 136.5t113 56.5zM190 332q55 0 93.5 46.5t38.5 113.5t-38.5 113.5t-93.5 46.5q-54 0 -92.5 -46.5t-38.5 -113.5t38.5 -113.5t92.5 -46.5zM161 386h-29q-1 0 -1 2v213h64 q11 0 19.5 -1.5t18.5 -7t15.5 -18.5t5.5 -32v-17q0 -42 -27 -52l32 -85q0 -2 -1 -2h-32q-1 0 -1 2l-28 79h-34v-79q0 -2 -2 -2zM163 497h32q28 0 28 30v14q0 30 -29 30h-31v-74z" />
<glyph unicode="&#xaf;" horiz-adv-x="377" d="M303 604h-229q-3 0 -3 4v59q0 4 3 4h229q3 0 3 -4v-59q0 -4 -3 -4z" />
<glyph unicode="&#xb0;" horiz-adv-x="366" d="M179 471q24 0 37 11t13 45v49q0 32 -12 43t-36 11t-37.5 -11t-13.5 -43v-49q0 -33 13 -44.5t36 -11.5zM179 415q-46 0 -74.5 21t-28.5 84v64q0 103 106 103q21 0 36 -3t31.5 -13t25.5 -32t9 -55v-64q0 -64 -29 -84.5t-76 -20.5z" />
<glyph unicode="&#xb1;" horiz-adv-x="457" d="M197 134q-3 0 -3 4v163h-138q-3 0 -3 4v64q0 4 3 4h138v162q0 4 3 4h63q3 0 3 -4v-162h139q3 0 3 -4v-64q0 -4 -3 -4h-139v-163q0 -4 -3 -4h-63zM55 0q-3 0 -3 4v63q0 4 3 4h347q3 0 3 -4v-63q0 -4 -3 -4h-347z" />
<glyph unicode="&#xb2;" horiz-adv-x="266" d="M227 270h-191l-2 1v44q0 3 1 4q9 11 25 32.5t24.5 32.5t22 29.5t21 29.5t17.5 26t15.5 24.5t10.5 20.5t7.5 19.5t2.5 15.5v37q0 31 -16 40.5t-43 9.5q-10 0 -21 -1.5t-20.5 -3.5t-17.5 -4t-13 -3l-4 -2q-1 -1 -2 -0.5t-1 1.5t-4 19l-4 17q0 3 1 3q38 19 86 19 q105 0 105 -91v-43q0 -24 -20 -63t-41.5 -69.5t-68.5 -94.5v-5h130q2 0 2 -2v-41q0 -2 -2 -2z" />
<glyph unicode="&#xb3;" horiz-adv-x="269" d="M39 284q-1 1 -1 3q0 1 4 18.5t4 18.5t3 1l5 -1q5 -2 13.5 -4t18.5 -3.5t22 -3t22 -1.5q61 0 61 49v36q0 25 -11 39t-21 17t-21 3h-37q-3 0 -3 2v39q0 2 3 2h37q18 0 32 13.5t14 38.5v36q0 22 -10.5 33.5t-21 13.5t-26.5 2q-17 0 -36 -3t-29.5 -6t-11.5 -4q-3 -1 -3 1 q0 1 -4 18.5t-4 18.5q0 2 1 3t10.5 5t31 8t44.5 4q103 0 103 -89v-41q0 -20 -6.5 -37t-13.5 -24l-6 -7v-4q4 -2 9.5 -7t14.5 -25.5t9 -47.5v-42q0 -24 -7 -41.5t-17 -26.5t-25.5 -14.5t-27.5 -6.5t-28 -1q-24 0 -47 4.5t-33 8.5z" />
<glyph unicode="&#xb4;" horiz-adv-x="377" d="M184 559q-4 -4 -6 -4h-58q-3 0 -1 4l61 137q3 4 6 4h73q3 0 2 -4z" />
<glyph unicode="&#xb6;" horiz-adv-x="514" d="M233 -181q-3 0 -3 4v432q-25 0 -47.5 3.5t-48.5 15t-44.5 29.5t-31 51t-12.5 76v77q0 43 12.5 75t31.5 50t45.5 29t49 14.5t46.5 3.5h221q4 0 4 -4v-852q0 -4 -4 -4h-68q-4 0 -4 4v784h-75v-784q0 -4 -3 -4h-69z" />
<glyph unicode="&#xb7;" horiz-adv-x="202" d="M63 216q-3 0 -3 4v91q0 4 3 4h77q3 0 3 -4v-91q0 -4 -3 -4h-77z" />
<glyph unicode="&#xb8;" horiz-adv-x="377" d="M200 -150h-73q-3 0 -2 4l60 152q3 4 6 4h57q3 0 2 -4l-45 -152q-1 -4 -5 -4z" />
<glyph unicode="&#xb9;" horiz-adv-x="259" d="M167 270h-40q-2 0 -2 2v349q-62 -56 -63 -57q-3 -2 -3 1q0 1 -5 21l-5 19q0 3 2 4l72 68q1 1 4 1h40q2 0 2 -2v-404q0 -2 -2 -2z" />
<glyph unicode="&#xba;" horiz-adv-x="258" d="M127 429q14 0 23 2.5t18 10t13.5 25.5t4.5 46v43q0 51 -14 66.5t-43 15.5q-30 0 -45 -15.5t-15 -66.5v-43q0 -53 14.5 -68.5t43.5 -15.5zM127 387q-24 0 -39 3.5t-31.5 15t-24.5 37.5t-8 67v49q0 75 27.5 98.5t77.5 23.5q23 0 37.5 -3t31 -14t24.5 -37t8 -67v-50 q0 -42 -8 -68.5t-24.5 -37.5t-31.5 -14t-39 -3z" />
<glyph unicode="&#xbb;" horiz-adv-x="476" d="M74 58q-41 41 -42 43q-3 3 0 6l132 157q-131 155 -132 157q-3 3 0 6l42 42q3 3 4 0l176 -202q3 -3 0 -6l-176 -203q-2 -2 -4 0zM259 58l-42 43q-2 4 0 6l132 157q-130 155 -132 157q-2 4 0 6l42 42q2 4 4 0l176 -202q3 -3 0 -6l-176 -203q-2 -2 -4 0z" />
<glyph unicode="&#xbc;" horiz-adv-x="661" d="M168 -5q-3 0 -2 4q27 86 131.5 341t131.5 341q1 3 5 3h44q3 0 2 -4l-262 -681q-1 -4 -5 -4h-45zM543 0h-37q-3 0 -3 2v74h-134q-2 0 -2 2v44q0 3 1 4t50 140t49 140q2 2 3 2h43v-2l-96 -279v-5h86v82q0 2 2 2h38q3 0 3 -2v-82h37q3 0 3 -3v-41q0 -2 -3 -2h-37v-74 q0 -2 -3 -2zM192 272h-39q-2 0 -2 2v349q-63 -56 -64 -57q-2 -2 -2 1q0 1 -5 21l-5 19q0 3 2 4l73 68q0 1 3 1h39q3 0 3 -2v-404q0 -2 -3 -2z" />
<glyph unicode="&#xbd;" horiz-adv-x="691" d="M614 0h-191l-2 1v44q0 3 1 4q9 11 25 32.5t24.5 32.5t22 29.5t21 29.5t17.5 26t15.5 24.5t10.5 20.5t7.5 19.5t2.5 15.5v37q0 31 -16 40.5t-43 9.5q-10 0 -21 -1.5t-20.5 -3.5t-17.5 -4l-12 -3l-5 -2q-2 -2 -2 1q0 1 -5 19l-4 17q0 3 1 3q38 19 87 19q104 0 104 -91v-43 q0 -36 -47.5 -129t-63.5 -98l-18 -5h129q3 0 3 -2v-41q0 -2 -3 -2zM170 -5q-3 0 -3 4q27 87 131.5 342t131.5 340q2 3 5 3h44q3 0 2 -4q-1 -2 -131.5 -341t-130.5 -340q-1 -4 -4 -4h-45zM192 272h-39q-2 0 -2 2v349q-63 -56 -64 -57q-2 -2 -2 1q0 1 -5 21l-5 19q0 3 2 4 l73 68q0 1 3 1h39q3 0 3 -2v-404q0 -2 -3 -2z" />
<glyph unicode="&#xbe;" horiz-adv-x="721" d="M227 -5q-3 0 -2 4q27 83 131 338.5t132 343.5q2 3 4 3h45q2 0 1 -4l-262 -681q-1 -4 -5 -4h-44zM77 288q-1 1 -1 3q0 1 3.5 18.5t3.5 18.5t3 1l5 -1q5 -2 13.5 -4t18.5 -3.5t22 -3t22 -1.5q61 0 61 49v36q0 59 -53 59h-36q-3 0 -3 2v39q0 2 3 2h37q18 0 31.5 13.5 t13.5 38.5v36q0 22 -10.5 33.5t-21 13.5t-26.5 2t-35 -3t-30 -6t-12 -4q-2 -2 -2 1q0 1 -4 18.5t-4 18.5q0 2 1 3t10 5t30.5 8t44.5 4q104 0 104 -89v-41q0 -20 -6.5 -37t-13.5 -24l-6 -7v-4q4 -2 9.5 -7t14.5 -25.5t9 -47.5v-42q0 -39 -19 -60.5t-39 -25.5t-48 -4 q-24 0 -46.5 4.5t-32.5 8.5zM603 0h-37q-2 0 -2 2v74h-135q-2 0 -2 2v44q0 3 1 4t50 140t49 140q2 2 3 2h43q1 0 1 -2l-97 -279v-5h87v82q0 2 1 2h38q3 0 3 -2v-82h38q2 0 2 -3v-41q0 -2 -2 -2h-38v-74q0 -2 -3 -2z" />
<glyph unicode="&#xbf;" horiz-adv-x="382" d="M165 680h79q4 0 4 -4v-90q0 -4 -4 -4h-79q-3 0 -3 4v90q0 4 3 4zM167 499h74q3 0 3 -4v-52q0 -36 -18 -73.5t-39 -64t-39 -55t-18 -48.5v-50q0 -27 6.5 -44.5t19.5 -25t24 -9.5t27 -2q15 0 32.5 2.5t31.5 5.5t25.5 6t18.5 5l7 3q4 1 5 -2q1 -4 7.5 -29.5t7.5 -31.5 q2 -4 -1 -5q-60 -30 -136 -30q-31 0 -53.5 4.5t-49 18t-41 46t-14.5 82.5v56q0 34 29 78.5t58.5 88t29.5 75.5v51q0 4 3 4z" />
<glyph unicode="&#xc0;" horiz-adv-x="510" d="M162 217h193l-88 338h-16zM100 0h-82q-3 0 -2 4t97 337.5t96 335.5q0 3 4 3h93q4 0 5 -3q0 -2 94.5 -336.5t95.5 -336.5q2 -4 -3 -4h-82q-3 0 -4 4l-36 138h-235q-36 -135 -37 -138q-1 -4 -4 -4zM265 759l-77 137q-3 4 1 4h73q4 0 5 -4q1 -1 31 -67.5t31 -69.5 q2 -4 -2 -4h-57q-5 0 -5 4z" />
<glyph unicode="&#xc1;" horiz-adv-x="510" d="M100 0h-82q-3 0 -2 4t97 337.5t96 335.5q0 3 4 3h93q4 0 5 -3q0 -2 94.5 -336.5t95.5 -336.5q2 -4 -3 -4h-82q-3 0 -4 4l-36 138h-235q-36 -135 -37 -138q-1 -4 -4 -4zM162 217h193l-88 338h-16zM252 759q-4 -4 -6 -4h-58q-3 0 -1 4l61 137q3 4 6 4h73q3 0 2 -4z" />
<glyph unicode="&#xc2;" horiz-adv-x="510" d="M162 217h193l-88 338h-16zM100 0h-82q-3 0 -2 4t97 337.5t96 335.5q0 3 4 3h93q4 0 5 -3q0 -2 94.5 -336.5t95.5 -336.5q2 -4 -3 -4h-82q-3 0 -4 4l-36 138h-235q-36 -135 -37 -138q-1 -4 -4 -4zM202 755h-58q-3 0 -1 4q7 17 37 68.5t37 68.5q2 4 6 4h70q4 0 7 -4 q1 -2 37.5 -69t37.5 -68q1 -4 -2 -4h-58q-4 0 -5 4l-50 83h-4q-47 -80 -49 -83q-1 -4 -5 -4z" />
<glyph unicode="&#xc3;" horiz-adv-x="510" d="M162 217h193l-88 338h-16zM100 0h-82q-3 0 -2 4t97 337.5t96 335.5q0 3 4 3h93q4 0 5 -3q0 -2 94.5 -336.5t95.5 -336.5q2 -4 -3 -4h-82q-3 0 -4 4l-36 138h-235q-36 -135 -37 -138q-1 -4 -4 -4zM147 789q-3 0 -3 5v43q0 8 4 12q28 35 60 35q23 0 54 -19t49 -19 q19 0 37 17.5t20 17.5q3 0 3 -4v-44q0 -7 -4 -13q-29 -36 -61 -36q-22 0 -53 19.5t-48 19.5q-19 0 -38 -17t-20 -17z" />
<glyph unicode="&#xc4;" horiz-adv-x="510" d="M100 0h-82q-3 0 -2 4t97 337.5t96 335.5q0 3 4 3h93q4 0 5 -3q0 -2 94.5 -336.5t95.5 -336.5q2 -4 -3 -4h-82q-3 0 -4 4l-36 138h-235q-36 -135 -37 -138q-1 -4 -4 -4zM162 217h193l-88 338h-16zM142 791q-3 0 -3 4v81q0 4 3 4h65q3 0 3 -4v-81q0 -4 -3 -4h-65zM309 791 q-3 0 -3 4v81q0 4 3 4h64q3 0 3 -4v-81q0 -4 -3 -4h-64z" />
<glyph unicode="&#xc5;" horiz-adv-x="510" d="M162 217h193l-88 338h-16zM100 0h-82q-3 0 -2 4t97 337.5t96 335.5q0 3 4 3h93q4 0 5 -3q0 -2 94.5 -336.5t95.5 -336.5q2 -4 -3 -4h-82q-3 0 -4 4l-36 138h-235q-36 -135 -37 -138q-1 -4 -4 -4zM259 778q20 0 31 9t11 37v13q0 26 -10.5 35.5t-30.5 9.5q-45 0 -45 -45 v-13q0 -27 11.5 -36.5t32.5 -9.5zM259 738q-37 0 -59.5 16t-22.5 66v22q0 47 23 63.5t60 16.5q16 0 28 -2.5t25 -9.5t20 -24.5t7 -43.5v-22q0 -27 -7 -44.5t-20 -25t-25 -10t-29 -2.5z" />
<glyph unicode="&#xc6;" horiz-adv-x="781" d="M208 217h175v351h-17zM104 0h-84q-2 0 -1 4q1 3 161 336t162 335q1 5 5 5h383q3 0 3 -4v-70q0 -4 -3 -4h-262v-218h222q3 0 3 -4v-70q0 -4 -3 -4h-222v-228h262q3 0 3 -4v-70q0 -4 -3 -4h-347v142h-212q-61 -135 -63 -138q-3 -4 -4 -4z" />
<glyph unicode="&#xc7;" horiz-adv-x="466" d="M249 -150h-73q-3 0 -2 4l54 137q-39 3 -67.5 13t-55.5 35t-41.5 74t-14.5 120v220q0 63 13 108t32 69.5t49.5 38.5t57 17.5t62.5 3.5q48 0 86.5 -8t50.5 -13.5t15 -8.5t2 -5q0 -1 -6 -16l-12 -30l-6 -15q-1 -4 -4 -3q-60 20 -126 20q-27 0 -45.5 -4.5t-39.5 -19.5 t-32 -51t-11 -92v-204q0 -54 9.5 -89.5t28.5 -52t39 -22t50 -5.5q54 0 135 27q3 2 5 -2q0 -1 6 -16l12 -30l6 -15q0 -1 -2 -6l-2 -1q-2 -2 -5.5 -3.5t-8 -4t-11 -5.5t-14.5 -6t-17.5 -5.5t-20.5 -5t-24 -4.5t-27 -3l-40 -137q-1 -4 -5 -4z" />
<glyph unicode="&#xc8;" horiz-adv-x="462" d="M68 0v680h354q4 0 4 -4v-70q0 -4 -4 -4h-268v-218h229q3 0 3 -4v-70q0 -4 -3 -4h-229v-228h268q4 0 4 -4v-70q0 -4 -4 -4h-354zM241 759l-77 137q-3 4 1 4h73q4 0 5 -4q1 -1 31 -67.5t31 -69.5q2 -4 -2 -4h-57q-5 0 -5 4z" />
<glyph unicode="&#xc9;" horiz-adv-x="462" d="M68 0v680h354q4 0 4 -4v-70q0 -4 -4 -4h-268v-218h229q3 0 3 -4v-70q0 -4 -3 -4h-229v-228h268q4 0 4 -4v-70q0 -4 -4 -4h-354zM236 759q-4 -4 -6 -4h-58q-3 0 -1 4l61 137q3 4 6 4h73q3 0 2 -4z" />
<glyph unicode="&#xca;" horiz-adv-x="462" d="M68 0v680h354q4 0 4 -4v-70q0 -4 -4 -4h-268v-218h229q3 0 3 -4v-70q0 -4 -3 -4h-229v-228h268q4 0 4 -4v-70q0 -4 -4 -4h-354zM186 755h-58q-3 0 -1 4q8 17 37 68.5t37 68.5q2 4 6 4h70q4 0 7 -4q1 -2 37.5 -69t37.5 -68q1 -4 -2 -4h-58q-4 0 -5 4l-50 83h-4 q-47 -80 -49 -83q-1 -4 -5 -4z" />
<glyph unicode="&#xcb;" horiz-adv-x="462" d="M68 0v680h354q4 0 4 -4v-70q0 -4 -4 -4h-268v-218h229q3 0 3 -4v-70q0 -4 -3 -4h-229v-228h268q4 0 4 -4v-70q0 -4 -4 -4h-354zM124 791q-3 0 -3 4v81q0 4 3 4h65q3 0 3 -4v-81q0 -4 -3 -4h-65zM291 791q-3 0 -3 4v81q0 4 3 4h64q3 0 3 -4v-81q0 -4 -3 -4h-64z" />
<glyph unicode="&#xcc;" horiz-adv-x="216" d="M72 0q-4 0 -4 4v672q0 4 4 4h78q4 0 4 -4v-672q0 -4 -4 -4h-78zM118 759l-77 137q-3 4 1 4h73q4 0 5 -4q1 -1 31 -67.5t31 -69.5q2 -4 -2 -4h-57q-5 0 -5 4z" />
<glyph unicode="&#xcd;" horiz-adv-x="216" d="M72 0q-4 0 -4 4v672q0 4 4 4h78q4 0 4 -4v-672q0 -4 -4 -4h-78zM106 759q-4 -4 -6 -4h-58q-3 0 -1 4l61 137q3 4 6 4h73q3 0 2 -4z" />
<glyph unicode="&#xce;" horiz-adv-x="216" d="M72 0q-4 0 -4 4v672q0 4 4 4h78q4 0 4 -4v-672q0 -4 -4 -4h-78zM55 755h-58q-3 0 -1 4q7 17 36.5 68.5t37.5 68.5q2 4 6 4h70q4 0 7 -4q1 -2 37.5 -69t37.5 -68q1 -4 -2 -4h-58q-4 0 -5 4l-50 83h-4q-47 -80 -49 -83q-1 -4 -5 -4z" />
<glyph unicode="&#xcf;" horiz-adv-x="216" d="M72 0q-4 0 -4 4v672q0 4 4 4h78q4 0 4 -4v-672q0 -4 -4 -4h-78zM-4 791q-3 0 -3 4v81q0 4 3 4h65q3 0 3 -4v-81q0 -4 -3 -4h-65zM163 791q-3 0 -3 4v81q0 4 3 4h64q3 0 3 -4v-81q0 -4 -3 -4h-64z" />
<glyph unicode="&#xd0;" horiz-adv-x="524" d="M154 80h110q19 0 30.5 1t28 6t26.5 16t20 28.5t14.5 47t4.5 68.5v189q0 57 -10.5 92.5t-31.5 50t-37.5 18t-44.5 3.5h-110v-221h98q4 0 4 -4v-63q0 -4 -4 -4h-98v-228zM257 0h-188v308h-38q-3 0 -3 4v63q0 4 3 4h38v301h188q35 0 60.5 -3t57.5 -16.5t51.5 -37t33.5 -69 t14 -109.5v-205q0 -49 -8 -88t-19 -64t-31 -42.5t-36 -26t-42 -13.5t-41 -5.5t-40 -0.5z" />
<glyph unicode="&#xd1;" horiz-adv-x="549" d="M71 0q-4 0 -4 4v672q0 4 4 4h96q4 0 5 -4l223 -519h11v519q0 4 4 4h77q3 0 3 -4v-672q0 -4 -3 -4h-97q-3 0 -5 4l-223 523h-12v-523q0 -4 -3 -4h-76zM167 789q-3 0 -3 5v43q0 8 4 12q28 35 60 35q23 0 54 -19t49 -19q19 0 37 17.5t20 17.5q3 0 3 -4v-44q0 -7 -4 -13 q-29 -36 -61 -36q-22 0 -53 19.5t-48 19.5q-19 0 -38 -17t-20 -17z" />
<glyph unicode="&#xd2;" horiz-adv-x="511" d="M258 69q30 0 49 5t38 21.5t28 52.5t9 92v204q0 103 -31.5 135t-92.5 32q-28 0 -47.5 -5.5t-38 -21.5t-28 -51t-9.5 -89v-204q0 -57 9.5 -93.5t29 -52t38 -20.5t46.5 -5zM258 -10q-29 0 -49 2t-47 9t-45 23.5t-35 42t-25.5 67.5t-8.5 98v221q0 64 13 109.5t32 69.5 t49.5 38t55.5 17t60 3t58 -2.5t54.5 -15.5t50.5 -37t33 -70.5t14 -111.5v-221q0 -68 -14 -115.5t-32.5 -71.5t-50.5 -37t-54.5 -15.5t-58.5 -2.5zM265 759l-77 137q-3 4 1 4h73q4 0 5 -4q1 -1 31 -67.5t31 -69.5q2 -4 -2 -4h-57q-5 0 -5 4z" />
<glyph unicode="&#xd3;" horiz-adv-x="511" d="M258 -10q-29 0 -49 2t-47 9t-45 23.5t-35 42t-25.5 67.5t-8.5 98v221q0 64 13 109.5t32 69.5t49.5 38t55.5 17t60 3t58 -2.5t54.5 -15.5t50.5 -37t33 -70.5t14 -111.5v-221q0 -68 -14 -115.5t-32.5 -71.5t-50.5 -37t-54.5 -15.5t-58.5 -2.5zM258 69q30 0 49 5t38 21.5 t28 52.5t9 92v204q0 103 -31.5 135t-92.5 32q-28 0 -47.5 -5.5t-38 -21.5t-28 -51t-9.5 -89v-204q0 -57 9.5 -93.5t29 -52t38 -20.5t46.5 -5zM252 759q-4 -4 -6 -4h-58q-3 0 -1 4l61 137q3 4 6 4h73q3 0 2 -4z" />
<glyph unicode="&#xd4;" horiz-adv-x="511" d="M258 69q30 0 49 5t38 21.5t28 52.5t9 92v204q0 103 -31.5 135t-92.5 32q-28 0 -47.5 -5.5t-38 -21.5t-28 -51t-9.5 -89v-204q0 -57 9.5 -93.5t29 -52t38 -20.5t46.5 -5zM258 -10q-29 0 -49 2t-47 9t-45 23.5t-35 42t-25.5 67.5t-8.5 98v221q0 64 13 109.5t32 69.5 t49.5 38t55.5 17t60 3t58 -2.5t54.5 -15.5t50.5 -37t33 -70.5t14 -111.5v-221q0 -68 -14 -115.5t-32.5 -71.5t-50.5 -37t-54.5 -15.5t-58.5 -2.5zM202 755h-58q-3 0 -1 4q7 17 37 68.5t37 68.5q2 4 6 4h70q4 0 7 -4q1 -2 37.5 -69t37.5 -68q1 -4 -2 -4h-58q-4 0 -5 4l-50 83 h-4q-47 -80 -49 -83q-1 -4 -5 -4z" />
<glyph unicode="&#xd5;" horiz-adv-x="511" d="M258 69q30 0 49 5t38 21.5t28 52.5t9 92v204q0 103 -31.5 135t-92.5 32q-28 0 -47.5 -5.5t-38 -21.5t-28 -51t-9.5 -89v-204q0 -57 9.5 -93.5t29 -52t38 -20.5t46.5 -5zM258 -10q-29 0 -49 2t-47 9t-45 23.5t-35 42t-25.5 67.5t-8.5 98v221q0 64 13 109.5t32 69.5 t49.5 38t55.5 17t60 3t58 -2.5t54.5 -15.5t50.5 -37t33 -70.5t14 -111.5v-221q0 -68 -14 -115.5t-32.5 -71.5t-50.5 -37t-54.5 -15.5t-58.5 -2.5zM148 789q-3 0 -3 5v43q0 8 4 12q28 35 60 35q23 0 54 -19t49 -19q14 0 26.5 8.5t20 17.5t10.5 9t3 -4v-44q0 -7 -4 -13 q-29 -36 -61 -36q-23 0 -53.5 19.5t-47.5 19.5q-19 0 -38 -17t-20 -17z" />
<glyph unicode="&#xd6;" horiz-adv-x="511" d="M258 -10q-29 0 -49 2t-47 9t-45 23.5t-35 42t-25.5 67.5t-8.5 98v221q0 64 13 109.5t32 69.5t49.5 38t55.5 17t60 3t58 -2.5t54.5 -15.5t50.5 -37t33 -70.5t14 -111.5v-221q0 -68 -14 -115.5t-32.5 -71.5t-50.5 -37t-54.5 -15.5t-58.5 -2.5zM258 69q30 0 49 5t38 21.5 t28 52.5t9 92v204q0 103 -31.5 135t-92.5 32q-28 0 -47.5 -5.5t-38 -21.5t-28 -51t-9.5 -89v-204q0 -57 9.5 -93.5t29 -52t38 -20.5t46.5 -5zM143 791q-3 0 -3 4v81q0 4 3 4h65q3 0 3 -4v-81q0 -4 -3 -4h-65zM310 791q-3 0 -3 4v81q0 4 3 4h64q3 0 3 -4v-81q0 -4 -3 -4h-64z " />
<glyph unicode="&#xd7;" horiz-adv-x="457" d="M115 93q-2 4 -43 45q-2 2 0 6l109 132q-108 132 -110 134q-2 3 1 6q42 42 42 44q3 3 5 0l110 -133q108 131 110 133t4 0l44 -44q3 -3 0 -6l-110 -134q109 -130 110 -132q2 -4 0 -6q-41 -41 -43 -45q-2 -3 -5 0l-110 134q-108 -132 -110 -134t-4 0z" />
<glyph unicode="&#xd8;" horiz-adv-x="511" d="M64 -40q-2 0 -1 4l36 78q-51 58 -51 190v221q0 64 13 109.5t32 69.5t49.5 38t55.5 17t60 3q68 0 108 -16l20 42q1 4 5 4h65q3 0 2 -4l-38 -81q48 -56 48 -182v-221q0 -68 -14 -115.5t-32.5 -71.5t-50.5 -37t-54.5 -15.5t-58.5 -2.5q-66 0 -105 14q-18 -36 -18 -40 q-4 -4 -5 -4h-66zM258 69q30 0 49 5t38 21.5t28 52.5t9 92v204q0 103 -31.5 135t-92.5 32q-28 0 -47.5 -5.5t-38 -21.5t-28 -51t-9.5 -89v-204q0 -57 9.5 -93.5t29 -52t38 -20.5t46.5 -5z" />
<glyph unicode="&#xd9;" horiz-adv-x="532" d="M250 -10q-106 0 -146.5 61.5t-40.5 211.5v413q0 4 3 4h79q3 0 3 -4v-406q0 -113 19 -156.5t83 -43.5h39q65 0 83 42.5t18 157.5v406q0 4 3 4h79q3 0 3 -4v-413q0 -147 -37.5 -210t-149.5 -63h-38zM274 759l-77 137q-3 4 1 4h73q4 0 5 -4q1 -1 31 -67.5t31 -69.5 q2 -4 -2 -4h-57q-5 0 -5 4z" />
<glyph unicode="&#xda;" horiz-adv-x="532" d="M250 -10q-106 0 -146.5 61.5t-40.5 211.5v413q0 4 3 4h79q3 0 3 -4v-406q0 -113 19 -156.5t83 -43.5h39q65 0 83 42.5t18 157.5v406q0 4 3 4h79q3 0 3 -4v-413q0 -147 -37.5 -210t-149.5 -63h-38zM262 759q-4 -4 -6 -4h-58q-3 0 -1 4l61 137q3 4 6 4h73q3 0 2 -4z" />
<glyph unicode="&#xdb;" horiz-adv-x="532" d="M250 -10q-106 0 -146.5 61.5t-40.5 211.5v413q0 4 3 4h79q3 0 3 -4v-406q0 -113 19 -156.5t83 -43.5h39q65 0 83 42.5t18 157.5v406q0 4 3 4h79q3 0 3 -4v-413q0 -147 -37.5 -210t-149.5 -63h-38zM212 755h-58q-3 0 -1 4q8 17 37 68.5t37 68.5q2 4 6 4h70q4 0 7 -4 q1 -2 37.5 -69t37.5 -68q1 -4 -2 -4h-58q-4 0 -5 4l-50 83h-4q-47 -80 -49 -83q-1 -4 -5 -4z" />
<glyph unicode="&#xdc;" horiz-adv-x="532" d="M250 -10q-106 0 -146.5 61.5t-40.5 211.5v413q0 4 3 4h79q3 0 3 -4v-406q0 -113 19 -156.5t83 -43.5h39q65 0 83 42.5t18 157.5v406q0 4 3 4h79q3 0 3 -4v-413q0 -147 -37.5 -210t-149.5 -63h-38zM154 791q-3 0 -3 4v81q0 4 3 4h65q3 0 3 -4v-81q0 -4 -3 -4h-65zM321 791 q-3 0 -3 4v81q0 4 3 4h64q3 0 3 -4v-81q0 -4 -3 -4h-64z" />
<glyph unicode="&#xdd;" d="M192 0q-3 0 -3 4v268q-174 401 -175 404q-2 4 2 4h86q1 0 4 -4l123 -303h5q121 300 123 303q1 4 4 4h84q3 0 2 -4l-173 -404v-268q0 -4 -4 -4h-78zM224 759q-4 -4 -6 -4h-58q-3 0 -1 4l61 137q3 4 6 4h73q3 0 2 -4z" />
<glyph unicode="&#xde;" horiz-adv-x="500" d="M154 228h118q20 0 36 3.5t33 13t26.5 31.5t9.5 55v42q0 33 -8.5 54.5t-25.5 31t-32 12.5t-38 3h-119v-246zM150 0h-78q-4 0 -4 4v672q0 4 4 4h78q3 0 3 -4v-124h122q29 0 48.5 -2t48.5 -11.5t46.5 -27t30.5 -52t13 -83.5v-50q0 -48 -13.5 -82.5t-32.5 -52t-47.5 -27.5 t-48 -12t-45.5 -2h-122v-146q0 -4 -3 -4z" />
<glyph unicode="&#xdf;" horiz-adv-x="467" d="M144 0h-74q-3 0 -3 4v475q0 66 13.5 109.5t39.5 63.5t52 26.5t63 6.5q29 0 51.5 -5t48.5 -20t41 -49.5t15 -86.5v-51q0 -36 -9 -64.5t-18 -38.5l-9 -10v-5q2 -1 6.5 -4t14.5 -14.5t18 -26t14.5 -39.5t6.5 -54v-52q0 -44 -10.5 -75.5t-26 -49t-40.5 -27.5t-48.5 -12.5 t-55.5 -2.5q-3 0 -3 4v66q0 4 3 4q46 0 72.5 20t26.5 80v40q0 62 -28 83.5t-71 21.5q-3 0 -3 4v66q0 4 3 4q38 0 58 19.5t20 68.5v41q0 92 -78 92q-43 0 -64.5 -25t-21.5 -108v-475q0 -4 -4 -4z" />
<glyph unicode="&#xe0;" horiz-adv-x="432" d="M202 59q21 0 34 1.5t29 7.5t23.5 20t7.5 37v89q-67 14 -110 14q-29 0 -47 -17.5t-18 -43.5v-37q0 -29 19.5 -50t61.5 -21zM179 -8q-63 0 -98 36t-35 90v51q0 55 37 87t88 32q21 0 52 -3.5t52 -6.5l21 -4v56q0 55 -22 72t-72 17q-66 0 -111 -15q-3 0 -4 3q-6 30 -14 54 q-2 3 2 5q48 24 136 24q35 0 58.5 -4t50.5 -18.5t41 -49t14 -87.5v-327q0 -4 -4 -4h-72q-3 0 -3 4v21q-21 -33 -117 -33zM225 559l-77 137q-3 4 1 4h73q4 0 5 -4q1 -1 31 -67.5t31 -69.5q2 -4 -2 -4h-57q-5 0 -5 4z" />
<glyph unicode="&#xe1;" horiz-adv-x="432" d="M179 -8q-63 0 -98 36t-35 90v51q0 55 37 87t88 32q21 0 52 -3.5t52 -6.5l21 -4v56q0 55 -22 72t-72 17q-66 0 -111 -15q-3 0 -4 3q-6 30 -14 54q-2 3 2 5q48 24 136 24q35 0 58.5 -4t50.5 -18.5t41 -49t14 -87.5v-327q0 -4 -4 -4h-72q-3 0 -3 4v21q-21 -33 -117 -33z M202 59q21 0 34 1.5t29 7.5t23.5 20t7.5 37v89q-67 14 -110 14q-29 0 -47 -17.5t-18 -43.5v-37q0 -29 19.5 -50t61.5 -21zM212 559q-4 -4 -6 -4h-58q-3 0 -1 4l61 137q3 4 6 4h73q3 0 2 -4z" />
<glyph unicode="&#xe2;" horiz-adv-x="432" d="M202 59q21 0 34 1.5t29 7.5t23.5 20t7.5 37v89q-67 14 -110 14q-29 0 -47 -17.5t-18 -43.5v-37q0 -29 19.5 -50t61.5 -21zM179 -8q-63 0 -98 36t-35 90v51q0 55 37 87t88 32q21 0 52 -3.5t52 -6.5l21 -4v56q0 55 -22 72t-72 17q-66 0 -111 -15q-3 0 -4 3q-6 30 -14 54 q-2 3 2 5q48 24 136 24q35 0 58.5 -4t50.5 -18.5t41 -49t14 -87.5v-327q0 -4 -4 -4h-72q-3 0 -3 4v21q-21 -33 -117 -33zM163 555h-58q-3 0 -1 4q8 17 37 68.5t37 68.5q2 4 6 4h70q4 0 7 -4q1 -2 37.5 -69t37.5 -68q1 -4 -2 -4h-58q-4 0 -5 4l-50 83h-4q-47 -80 -49 -83 q-1 -4 -5 -4z" />
<glyph unicode="&#xe3;" horiz-adv-x="432" d="M202 59q21 0 34 1.5t29 7.5t23.5 20t7.5 37v89q-67 14 -110 14q-29 0 -47 -17.5t-18 -43.5v-37q0 -29 19.5 -50t61.5 -21zM179 -8q-63 0 -98 36t-35 90v51q0 55 37 87t88 32q21 0 52 -3.5t52 -6.5l21 -4v56q0 55 -22 72t-72 17q-66 0 -111 -15q-3 0 -4 3q-6 30 -14 54 q-2 3 2 5q48 24 136 24q35 0 58.5 -4t50.5 -18.5t41 -49t14 -87.5v-327q0 -4 -4 -4h-72q-3 0 -3 4v21q-21 -33 -117 -33zM108 589q-3 0 -3 5v43q0 8 4 12q28 35 60 35q23 0 54 -19t49 -19q14 0 26.5 8.5t20 17.5t10.5 9t3 -4v-44q0 -7 -4 -13q-29 -36 -61 -36 q-22 0 -53 19.5t-48 19.5q-19 0 -38 -17t-20 -17z" />
<glyph unicode="&#xe4;" horiz-adv-x="432" d="M179 -8q-63 0 -98 36t-35 90v51q0 55 37 87t88 32q21 0 52 -3.5t52 -6.5l21 -4v56q0 55 -22 72t-72 17q-66 0 -111 -15q-3 0 -4 3q-6 30 -14 54q-2 3 2 5q48 24 136 24q35 0 58.5 -4t50.5 -18.5t41 -49t14 -87.5v-327q0 -4 -4 -4h-72q-3 0 -3 4v21q-21 -33 -117 -33z M202 59q21 0 34 1.5t29 7.5t23.5 20t7.5 37v89q-67 14 -110 14q-29 0 -47 -17.5t-18 -43.5v-37q0 -29 19.5 -50t61.5 -21zM103 591q-3 0 -3 4v81q0 4 3 4h65q3 0 3 -4v-81q0 -4 -3 -4h-65zM270 591q-3 0 -3 4v81q0 4 3 4h64q3 0 3 -4v-81q0 -4 -3 -4h-64z" />
<glyph unicode="&#xe5;" horiz-adv-x="432" d="M202 59q21 0 34 1.5t29 7.5t23.5 20t7.5 37v89q-67 14 -110 14q-29 0 -47 -17.5t-18 -43.5v-37q0 -29 19.5 -50t61.5 -21zM179 -8q-63 0 -98 36t-35 90v51q0 55 37 87t88 32q21 0 52 -3.5t52 -6.5l21 -4v56q0 55 -22 72t-72 17q-66 0 -111 -15q-3 0 -4 3q-6 30 -14 54 q-2 3 2 5q48 24 136 24q35 0 58.5 -4t50.5 -18.5t41 -49t14 -87.5v-327q0 -4 -4 -4h-72q-3 0 -3 4v21q-21 -33 -117 -33zM219 578q20 0 31 9t11 37v13q0 26 -10.5 35.5t-30.5 9.5q-45 0 -45 -45v-13q0 -27 11.5 -36.5t32.5 -9.5zM219 538q-37 0 -59.5 16t-22.5 66v22 q0 47 23 63.5t60 16.5q16 0 28 -2.5t25 -9.5t20 -24.5t7 -43.5v-22q0 -27 -7 -44.5t-20 -25t-25 -10t-29 -2.5z" />
<glyph unicode="&#xe6;" horiz-adv-x="683" d="M203 61q43 0 68.5 13.5t25.5 55.5v84q-63 14 -110 14q-27 0 -46 -16t-19 -44v-35q0 -40 24.5 -56t56.5 -16zM379 270h182q0 46 -7 76t-20.5 43.5t-27 17.5t-34.5 4q-48 0 -70.5 -26.5t-22.5 -114.5zM183 -7q-21 0 -41.5 5t-43.5 17.5t-37 40t-14 65.5v49q0 62 38.5 90 t86.5 28q21 0 52.5 -3.5t51.5 -6.5l21 -4v52q0 57 -22 73t-71 16q-27 0 -54.5 -4.5t-40 -8t-15.5 -4.5q-3 0 -4 3q0 2 -7.5 27.5t-7.5 26.5q-1 1 -0.5 2.5t1.5 2.5q75 25 137 25q58 0 86.5 -13t44.5 -41q40 54 128 54q24 0 41.5 -2t43.5 -14t42.5 -32.5t29 -62t12.5 -98.5 v-66h-262q1 -88 26 -115.5t79 -27.5q19 0 39 1.5t35 4t27 5t19 4.5l7 1q3 0 4 -3l16 -55q2 -3 -2 -5q-5 -2 -19 -7t-51.5 -11.5t-76.5 -6.5q-58 0 -89 14t-53 47q-25 -35 -59.5 -49t-97.5 -14z" />
<glyph unicode="&#xe7;" horiz-adv-x="397" d="M214 -150h-73q-3 0 -2 4l55 139q-32 2 -55 9.5t-45.5 27t-34 59t-11.5 98.5v110q0 51 11.5 88t27.5 56.5t41.5 30.5t46 13.5t48.5 2.5q69 0 126 -19q4 -2 2 -5l-16 -55q-1 -3 -4 -3q-24 8 -106 8q-19 0 -33.5 -4t-30 -15.5t-24 -38t-8.5 -66.5v-97q0 -42 8 -69.5 t23.5 -39.5t29.5 -15.5t35 -3.5q27 0 54 3t40 5.5t15 3.5q3 1 5 -2q0 -2 8 -28t9 -28q2 -3 -2 -5q-29 -15 -94 -20l-41 -140q-1 -4 -5 -4z" />
<glyph unicode="&#xe8;" horiz-adv-x="427" d="M123 269h181q0 84 -22.5 114.5t-65.5 30.5q-46 0 -69.5 -28t-23.5 -117zM226 -9q-28 0 -50 3t-49 15.5t-44.5 34t-30 61.5t-12.5 95v83q0 53 12 92t29.5 60t43 33.5t46 15.5t45.5 3q26 0 45 -2.5t44 -14.5t41 -33.5t27.5 -62.5t11.5 -98v-66h-262q0 -48 8 -78.5t24 -44.5 t32 -18.5t40 -4.5q84 0 129 15q4 0 4 -3l4 -14q4 -15 7 -27.5t3 -13.5q0 -5 -2 -6q-5 -2 -18.5 -6.5t-50.5 -11t-77 -6.5zM222 559l-77 137q-3 4 1 4h73q4 0 5 -4q1 -1 31 -67.5t31 -69.5q2 -4 -2 -4h-57q-5 0 -5 4z" />
<glyph unicode="&#xe9;" horiz-adv-x="427" d="M226 -9q-28 0 -50 3t-49 15.5t-44.5 34t-30 61.5t-12.5 95v83q0 53 12 92t29.5 60t43 33.5t46 15.5t45.5 3q26 0 45 -2.5t44 -14.5t41 -33.5t27.5 -62.5t11.5 -98v-66h-262q0 -48 8 -78.5t24 -44.5t32 -18.5t40 -4.5q84 0 129 15q4 0 4 -3l4 -14q4 -15 7 -27.5t3 -13.5 q0 -5 -2 -6q-5 -2 -18.5 -6.5t-50.5 -11t-77 -6.5zM123 269h181q0 84 -22.5 114.5t-65.5 30.5q-46 0 -69.5 -28t-23.5 -117zM210 559q-4 -4 -6 -4h-58q-3 0 -1 4l61 137q3 4 6 4h73q3 0 2 -4z" />
<glyph unicode="&#xea;" horiz-adv-x="427" d="M123 269h181q0 84 -22.5 114.5t-65.5 30.5q-46 0 -69.5 -28t-23.5 -117zM226 -9q-28 0 -50 3t-49 15.5t-44.5 34t-30 61.5t-12.5 95v83q0 53 12 92t29.5 60t43 33.5t46 15.5t45.5 3q26 0 45 -2.5t44 -14.5t41 -33.5t27.5 -62.5t11.5 -98v-66h-262q0 -48 8 -78.5t24 -44.5 t32 -18.5t40 -4.5q84 0 129 15q4 0 4 -3l4 -14q4 -15 7 -27.5t3 -13.5q0 -5 -2 -6q-5 -2 -18.5 -6.5t-50.5 -11t-77 -6.5zM160 555h-58q-3 0 -1 4q8 17 37 68.5t37 68.5q2 4 6 4h70q4 0 7 -4q1 -2 37.5 -69t37.5 -68q1 -4 -2 -4h-58q-4 0 -5 4l-50 83h-4q-47 -80 -49 -83 q-1 -4 -5 -4z" />
<glyph unicode="&#xeb;" horiz-adv-x="427" d="M226 -9q-28 0 -50 3t-49 15.5t-44.5 34t-30 61.5t-12.5 95v83q0 53 12 92t29.5 60t43 33.5t46 15.5t45.5 3q26 0 45 -2.5t44 -14.5t41 -33.5t27.5 -62.5t11.5 -98v-66h-262q0 -48 8 -78.5t24 -44.5t32 -18.5t40 -4.5q84 0 129 15q4 0 4 -3l4 -14q4 -15 7 -27.5t3 -13.5 q0 -5 -2 -6q-5 -2 -18.5 -6.5t-50.5 -11t-77 -6.5zM123 269h181q0 84 -22.5 114.5t-65.5 30.5q-46 0 -69.5 -28t-23.5 -117zM100 591q-3 0 -3 4v81q0 4 3 4h65q3 0 3 -4v-81q0 -4 -3 -4h-65zM267 591q-3 0 -3 4v81q0 4 3 4h64q3 0 3 -4v-81q0 -4 -3 -4h-64z" />
<glyph unicode="&#xec;" horiz-adv-x="209" d="M67 0q-3 0 -3 4v471q0 4 3 4h75q3 0 3 -4v-471q0 -4 -3 -4h-75zM114 559l-77 137q-3 4 1 4h73q4 0 5 -4q1 -1 31 -67.5t31 -69.5q2 -4 -2 -4h-57q-5 0 -5 4z" />
<glyph unicode="&#xed;" horiz-adv-x="209" d="M67 0q-3 0 -3 4v471q0 4 3 4h75q3 0 3 -4v-471q0 -4 -3 -4h-75zM101 559q-4 -4 -6 -4h-58q-3 0 -1 4l61 137q3 4 6 4h73q3 0 2 -4z" />
<glyph unicode="&#xee;" horiz-adv-x="209" d="M67 0q-3 0 -3 4v471q0 4 3 4h75q3 0 3 -4v-471q0 -4 -3 -4h-75zM51 555h-58q-3 0 -1 4q8 17 37.5 68.5t36.5 68.5q2 4 6 4h70q4 0 7 -4q1 -2 37.5 -69t37.5 -68q1 -4 -2 -4h-58q-4 0 -5 4l-50 83h-4q-47 -80 -49 -83q-1 -4 -5 -4z" />
<glyph unicode="&#xef;" horiz-adv-x="209" d="M67 0q-3 0 -3 4v471q0 4 3 4h75q3 0 3 -4v-471q0 -4 -3 -4h-75zM-8 591q-3 0 -3 4v81q0 4 3 4h65q3 0 3 -4v-81q0 -4 -3 -4h-65zM159 591q-3 0 -3 4v81q0 4 3 4h64q3 0 3 -4v-81q0 -4 -3 -4h-64z" />
<glyph unicode="&#xf0;" horiz-adv-x="451" d="M211 68q96 0 96 71v249q-66 22 -97 22q-42 0 -63.5 -26t-21.5 -107v-72q0 -84 21 -110.5t65 -26.5zM190 -5q-27 0 -45.5 3t-39.5 14.5t-33 33t-20.5 60.5t-8.5 94v83q0 45 6 80t18 56t25.5 35t32.5 20t34.5 8t37.5 2q18 0 45.5 -5.5t45.5 -10.5l19 -6v93h-108q-3 0 -3 4 v56q0 4 4 4h107v56q0 4 3 4h74q3 0 3 -4v-56h38q4 0 4 -4v-56q0 -4 -4 -4h-38v-551q0 -4 -3 -4h-74q-3 0 -3 3v27q-27 -35 -117 -35z" />
<glyph unicode="&#xf1;" horiz-adv-x="459" d="M70 0q-3 0 -3 4v471q0 4 3 4h75q4 0 4 -4v-21q74 31 112 31q24 0 40 -2t37 -11t34 -26t22 -49.5t9 -77.5v-315q0 -4 -4 -4h-74q-3 0 -3 4v310q0 62 -17.5 80t-54.5 18q-15 0 -40.5 -7.5t-43.5 -14.5l-17 -8v-378q0 -4 -4 -4h-75zM121 589q-3 0 -3 5v43q0 8 4 12 q28 35 60 35q23 0 54 -19t49 -19q19 0 37 17.5t20 17.5q3 0 3 -4v-44q0 -7 -4 -13q-29 -36 -61 -36q-22 0 -53 19.5t-48 19.5q-19 0 -38 -17t-20 -17z" />
<glyph unicode="&#xf2;" horiz-adv-x="432" d="M216 65q23 0 37 3.5t28 16.5t21 42t7 75v78q0 45 -6 73t-20 40.5t-27.5 16.5t-36.5 4q-47 0 -71 -25.5t-24 -108.5v-78q0 -46 7 -75t21 -41.5t28 -16.5t36 -4zM216 -8q-40 0 -66 6t-53.5 25t-41 62.5t-13.5 111.5v89q0 66 14 108.5t41.5 62t54.5 25.5t67 6q30 0 50 -2.5 t45.5 -13.5t40.5 -31.5t25.5 -59.5t10.5 -94v-90q0 -56 -10.5 -95.5t-25 -60.5t-40 -32.5t-46.5 -14t-53 -2.5zM225 559l-77 137q-3 4 1 4h73q4 0 5 -4q1 -1 31 -67.5t31 -69.5q2 -4 -2 -4h-57q-5 0 -5 4z" />
<glyph unicode="&#xf3;" horiz-adv-x="432" d="M216 -8q-40 0 -66 6t-53.5 25t-41 62.5t-13.5 111.5v89q0 66 14 108.5t41.5 62t54.5 25.5t67 6q30 0 50 -2.5t45.5 -13.5t40.5 -31.5t25.5 -59.5t10.5 -94v-90q0 -56 -10.5 -95.5t-25 -60.5t-40 -32.5t-46.5 -14t-53 -2.5zM216 65q23 0 37 3.5t28 16.5t21 42t7 75v78 q0 45 -6 73t-20 40.5t-27.5 16.5t-36.5 4q-47 0 -71 -25.5t-24 -108.5v-78q0 -46 7 -75t21 -41.5t28 -16.5t36 -4zM212 559q-4 -4 -6 -4h-58q-3 0 -1 4l61 137q3 4 6 4h73q3 0 2 -4z" />
<glyph unicode="&#xf4;" horiz-adv-x="432" d="M216 65q23 0 37 3.5t28 16.5t21 42t7 75v78q0 45 -6 73t-20 40.5t-27.5 16.5t-36.5 4q-47 0 -71 -25.5t-24 -108.5v-78q0 -46 7 -75t21 -41.5t28 -16.5t36 -4zM216 -8q-40 0 -66 6t-53.5 25t-41 62.5t-13.5 111.5v89q0 66 14 108.5t41.5 62t54.5 25.5t67 6q30 0 50 -2.5 t45.5 -13.5t40.5 -31.5t25.5 -59.5t10.5 -94v-90q0 -56 -10.5 -95.5t-25 -60.5t-40 -32.5t-46.5 -14t-53 -2.5zM162 555h-58q-3 0 -1 4q8 17 37.5 68.5t36.5 68.5q2 4 6 4h70q4 0 7 -4q1 -2 37.5 -69t37.5 -68q1 -4 -2 -4h-58q-4 0 -5 4l-50 83h-4q-47 -80 -49 -83 q-1 -4 -5 -4z" />
<glyph unicode="&#xf5;" horiz-adv-x="432" d="M216 65q23 0 37 3.5t28 16.5t21 42t7 75v78q0 45 -6 73t-20 40.5t-27.5 16.5t-36.5 4q-47 0 -71 -25.5t-24 -108.5v-78q0 -46 7 -75t21 -41.5t28 -16.5t36 -4zM216 -8q-40 0 -66 6t-53.5 25t-41 62.5t-13.5 111.5v89q0 66 14 108.5t41.5 62t54.5 25.5t67 6q30 0 50 -2.5 t45.5 -13.5t40.5 -31.5t25.5 -59.5t10.5 -94v-90q0 -56 -10.5 -95.5t-25 -60.5t-40 -32.5t-46.5 -14t-53 -2.5zM108 589q-3 0 -3 5v43q0 8 4 12q28 35 60 35q23 0 54 -19t49 -19q14 0 26.5 8.5t20 17.5t10.5 9t3 -4v-44q0 -7 -4 -13q-29 -36 -61 -36q-22 0 -53 19.5 t-48 19.5q-19 0 -38 -17t-20 -17z" />
<glyph unicode="&#xf6;" horiz-adv-x="432" d="M216 -8q-40 0 -66 6t-53.5 25t-41 62.5t-13.5 111.5v89q0 66 14 108.5t41.5 62t54.5 25.5t67 6q30 0 50 -2.5t45.5 -13.5t40.5 -31.5t25.5 -59.5t10.5 -94v-90q0 -56 -10.5 -95.5t-25 -60.5t-40 -32.5t-46.5 -14t-53 -2.5zM216 65q23 0 37 3.5t28 16.5t21 42t7 75v78 q0 45 -6 73t-20 40.5t-27.5 16.5t-36.5 4q-47 0 -71 -25.5t-24 -108.5v-78q0 -46 7 -75t21 -41.5t28 -16.5t36 -4zM103 591q-3 0 -3 4v81q0 4 3 4h65q3 0 3 -4v-81q0 -4 -3 -4h-65zM270 591q-3 0 -3 4v81q0 4 3 4h64q3 0 3 -4v-81q0 -4 -3 -4h-64z" />
<glyph unicode="&#xf7;" horiz-adv-x="458" d="M55 240q-3 0 -3 4v62q0 4 3 4h347q3 0 3 -4v-62q0 -4 -3 -4h-347zM190 388q-3 0 -3 4v91q0 4 3 4h77q3 0 3 -4v-91q0 -4 -3 -4h-77zM190 64q-3 0 -3 4v91q0 4 3 4h77q3 0 3 -4v-91q0 -4 -3 -4h-77z" />
<glyph unicode="&#xf8;" horiz-adv-x="432" d="M93 -37q-3 0 -2 4q0 4 19 46q-68 40 -68 184v89q0 66 14 108.5t41.5 62t54.5 25.5t67 6q37 0 62 -5q2 4 3.5 8.5t3 8t2.5 6.5t2 5l1 2q2 4 5 4h51q3 0 2 -4l-21 -50q61 -42 61 -176v-90q0 -56 -10.5 -95.5t-25 -60.5t-40 -32.5t-46.5 -14t-53 -2.5t-56 4 q-2 -6 -5.5 -13.5t-5 -11.5t-1.5 -5q-1 -3 -4 -3h-51zM216 65q23 0 37 3.5t28 16.5t21 42t7 75v78q0 45 -6 73t-20 40.5t-27.5 16.5t-36.5 4q-47 0 -71 -25.5t-24 -108.5v-78q0 -46 7 -75t21 -41.5t28 -16.5t36 -4z" />
<glyph unicode="&#xf9;" d="M393 479q4 0 4 -4v-471q0 -4 -4 -4h-74q-3 0 -3 4v17q-75 -28 -112 -28q-31 0 -51 4t-44 19t-36 50.5t-12 92.5v316q0 4 3 4h75q4 0 4 -4v-312q0 -62 17 -80t54 -18q15 0 40.5 7t43.5 14l18 7v382q0 4 3 4h74zM238 559l-77 137q-3 4 1 4h73q4 0 5 -4q1 -1 31 -67.5 t31 -69.5q2 -4 -2 -4h-57q-5 0 -5 4z" />
<glyph unicode="&#xfa;" d="M393 479q4 0 4 -4v-471q0 -4 -4 -4h-74q-3 0 -3 4v17q-75 -28 -112 -28q-31 0 -51 4t-44 19t-36 50.5t-12 92.5v316q0 4 3 4h75q4 0 4 -4v-312q0 -62 17 -80t54 -18q15 0 40.5 7t43.5 14l18 7v382q0 4 3 4h74zM225 559q-4 -4 -6 -4h-58q-3 0 -1 4l61 137q3 4 6 4h73 q3 0 2 -4z" />
<glyph unicode="&#xfb;" d="M393 479q4 0 4 -4v-471q0 -4 -4 -4h-74q-3 0 -3 4v17q-75 -28 -112 -28q-31 0 -51 4t-44 19t-36 50.5t-12 92.5v316q0 4 3 4h75q4 0 4 -4v-312q0 -62 17 -80t54 -18q15 0 40.5 7t43.5 14l18 7v382q0 4 3 4h74zM174 555h-58q-3 0 -1 4q8 17 37 68.5t37 68.5q2 4 6 4h70 q4 0 7 -4q1 -2 37.5 -69t37.5 -68q1 -4 -2 -4h-58q-4 0 -5 4l-50 83h-4q-47 -80 -49 -83q-1 -4 -5 -4z" />
<glyph unicode="&#xfc;" d="M393 479q4 0 4 -4v-471q0 -4 -4 -4h-74q-3 0 -3 4v17q-75 -28 -112 -28q-31 0 -51 4t-44 19t-36 50.5t-12 92.5v316q0 4 3 4h75q4 0 4 -4v-312q0 -62 17 -80t54 -18q15 0 40.5 7t43.5 14l18 7v382q0 4 3 4h74zM115 591q-3 0 -3 4v81q0 4 3 4h65q3 0 3 -4v-81q0 -4 -3 -4 h-65zM282 591q-3 0 -3 4v81q0 4 3 4h64q3 0 3 -4v-81q0 -4 -3 -4h-64z" />
<glyph unicode="&#xfd;" horiz-adv-x="408" d="M60 -180q-3 0 -3 4q0 2 3.5 32.5t3.5 31.5q0 4 5 4h21q13 0 22 4t21 22t22 53l12 44q-144 457 -145 460q-1 4 2 4h78q4 0 5 -4l99 -342h8q95 339 95 342q1 4 5 4h77q3 0 2 -4l-25 -78q-25 -78 -54.5 -171.5t-56.5 -177.5t-31 -96q-15 -48 -29 -75.5t-31.5 -39.5 t-30 -14.5t-39.5 -2.5h-36zM205 559q-4 -4 -6 -4h-58q-3 0 -1 4l61 137q3 4 6 4h73q3 0 2 -4z" />
<glyph unicode="&#xfe;" d="M145 -180h-75q-3 0 -3 4v852q0 4 3 4h75q3 0 3 -4v-227q2 5 10.5 12t37 15.5t69.5 8.5q17 0 27 -0.5t27.5 -5t28.5 -12t24.5 -22.5t21 -36.5t13 -54.5t5.5 -75v-83q0 -57 -11.5 -97.5t-25.5 -60t-39 -30t-39.5 -12t-38.5 -1.5q-9 0 -36.5 5.5t-50.5 11.5l-23 5v-193 q0 -4 -3 -4zM148 91q66 -23 97 -23q18 0 30 3t26 15t21.5 41t7.5 75v72q0 45 -6.5 74t-19.5 42t-26 17t-33 4q-46 0 -71.5 -18t-25.5 -53v-249z" />
<glyph unicode="&#xff;" horiz-adv-x="408" d="M60 -180q-3 0 -3 4q0 2 3.5 32.5t3.5 31.5q0 4 5 4h21q13 0 22 4t21 22t22 53l12 44q-144 457 -145 460q-1 4 2 4h78q4 0 5 -4l99 -342h8q95 339 95 342q1 4 5 4h77q3 0 2 -4l-25 -78q-25 -78 -54.5 -171.5t-56.5 -177.5t-31 -96q-15 -48 -29 -75.5t-31.5 -39.5 t-30 -14.5t-39.5 -2.5h-36zM95 591q-3 0 -3 4v81q0 4 3 4h65q3 0 3 -4v-81q0 -4 -3 -4h-65zM262 591q-3 0 -3 4v81q0 4 3 4h64q3 0 3 -4v-81q0 -4 -3 -4h-64z" />
<glyph unicode="&#x100;" horiz-adv-x="510" d="M162 217h193l-88 338h-16zM100 0h-82q-3 0 -2 4t97 337.5t96 335.5q0 3 4 3h93q4 0 5 -3q0 -2 94.5 -336.5t95.5 -336.5q2 -4 -3 -4h-82q-3 0 -4 4l-36 138h-235q-36 -135 -37 -138q-1 -4 -4 -4zM373 804h-229q-3 0 -3 4v59q0 4 3 4h229q3 0 3 -4v-59q0 -4 -3 -4z" />
<glyph unicode="&#x101;" horiz-adv-x="432" d="M202 59q21 0 34 1.5t29 7.5t23.5 20t7.5 37v89q-67 14 -110 14q-29 0 -47 -17.5t-18 -43.5v-37q0 -29 19.5 -50t61.5 -21zM179 -8q-63 0 -98 36t-35 90v51q0 55 37 87t88 32q21 0 52 -3.5t52 -6.5l21 -4v56q0 55 -22 72t-72 17q-66 0 -111 -15q-3 0 -4 3q-6 30 -14 54 q-2 3 2 5q48 24 136 24q35 0 58.5 -4t50.5 -18.5t41 -49t14 -87.5v-327q0 -4 -4 -4h-72q-3 0 -3 4v21q-21 -33 -117 -33zM334 604h-229q-3 0 -3 4v59q0 4 3 4h229q3 0 3 -4v-59q0 -4 -3 -4z" />
<glyph unicode="&#x102;" horiz-adv-x="510" d="M162 217h193l-88 338h-16zM100 0h-82q-3 0 -2 4t97 337.5t96 335.5q0 3 4 3h93q4 0 5 -3q0 -2 94.5 -336.5t95.5 -336.5q2 -4 -3 -4h-82q-3 0 -4 4l-36 138h-235q-36 -135 -37 -138q-1 -4 -4 -4zM259 763q-114 0 -114 118q0 5 4 5h35q5 0 6 -5q10 -37 24 -48.5t45 -11.5 q29 0 43 12.5t23 47.5q1 5 6 5h37q5 0 5 -5q-8 -118 -114 -118z" />
<glyph unicode="&#x103;" horiz-adv-x="432" d="M202 59q21 0 34 1.5t29 7.5t23.5 20t7.5 37v89q-67 14 -110 14q-29 0 -47 -17.5t-18 -43.5v-37q0 -29 19.5 -50t61.5 -21zM179 -8q-63 0 -98 36t-35 90v51q0 55 37 87t88 32q21 0 52 -3.5t52 -6.5l21 -4v56q0 55 -22 72t-72 17q-66 0 -111 -15q-3 0 -4 3q-6 30 -14 54 q-2 3 2 5q48 24 136 24q35 0 58.5 -4t50.5 -18.5t41 -49t14 -87.5v-327q0 -4 -4 -4h-72q-3 0 -3 4v21q-21 -33 -117 -33zM220 563q-114 0 -114 118q0 5 4 5h35q5 0 6 -5q10 -37 24 -48.5t45 -11.5q29 0 43 12.5t23 47.5q1 5 6 5h37q5 0 5 -5q-8 -118 -114 -118z" />
<glyph unicode="&#x104;" horiz-adv-x="510" d="M434 -178q-34 0 -52.5 15t-18.5 58q0 57 55 105h-2q-3 0 -4 4l-36 138h-235q-36 -135 -37 -138q-1 -4 -4 -4h-82q-3 0 -2 4t97 337.5t96 335.5q0 3 4 3h93q4 0 5 -3q0 -2 94.5 -336.5t95.5 -336.5q2 -4 -3 -4h-2q-37 -31 -53.5 -51.5t-16.5 -40.5q0 -14 5 -18.5t16 -4.5 q4 0 9 2t9.5 4.5t5.5 2.5q5 3 6 -1l20 -37q2 -6 -1 -9q-25 -25 -62 -25zM162 217h193l-88 338h-16z" />
<glyph unicode="&#x105;" horiz-adv-x="432" d="M309 -178q-34 0 -52.5 15t-18.5 58q0 59 58 107v2v21q-21 -33 -117 -33q-63 0 -98 36t-35 90v51q0 55 37 87t88 32q21 0 52 -3.5t52 -6.5l21 -4v56q0 55 -22 72t-72 17q-66 0 -111 -15q-3 0 -4 3q-6 30 -14 54q-2 3 2 5q48 24 136 24q35 0 58.5 -4t50.5 -18.5t41 -49 t14 -87.5v-327q0 -4 -4 -4q-37 -31 -53.5 -51.5t-16.5 -40.5q0 -14 5 -18.5t16 -4.5q4 0 9 2t9.5 4.5t5.5 2.5q5 3 6 -1l20 -37q2 -6 -1 -9q-25 -25 -62 -25zM202 59q21 0 34 1.5t29 7.5t23.5 20t7.5 37v89q-67 14 -110 14q-29 0 -47 -17.5t-18 -43.5v-37q0 -29 19.5 -50 t61.5 -21z" />
<glyph unicode="&#x106;" horiz-adv-x="466" d="M262 -10q-36 0 -62 3.5t-56.5 18t-49.5 39.5t-32 71.5t-13 110.5v220q0 63 13 108t32 69.5t49.5 38.5t57 17.5t62.5 3.5q48 0 86.5 -8t50.5 -13.5t15 -8.5t2 -5q0 -1 -6 -16l-12 -30l-6 -15q-1 -4 -4 -3q-60 20 -126 20q-27 0 -45.5 -4.5t-39.5 -19.5t-32 -51t-11 -92 v-204q0 -54 9.5 -89.5t28.5 -52t39 -22t50 -5.5q54 0 135 27q3 2 5 -2q0 -1 6 -16l12 -30l6 -15q0 -1 -2 -6l-1 -1q-61 -38 -161 -38zM254 759q-4 -4 -6 -4h-58q-3 0 -1 4l61 137q3 4 6 4h73q3 0 2 -4z" />
<glyph unicode="&#x107;" horiz-adv-x="397" d="M222 -8q-30 0 -51 2.5t-46 13.5t-40.5 31t-26 57.5t-10.5 90.5v110q0 51 11.5 88t27.5 56.5t41.5 30.5t46 13.5t48.5 2.5q69 0 126 -19q4 -2 2 -5l-16 -55q-1 -3 -4 -3q-24 8 -106 8q-19 0 -33.5 -4t-30 -15.5t-24 -38t-8.5 -66.5v-97q0 -42 8 -69.5t23.5 -39.5 t29.5 -15.5t35 -3.5q27 0 54 3t40 5.5t15 3.5q3 1 5 -2q0 -2 8 -28t9 -28q2 -3 -2 -5q-44 -22 -132 -22zM218 559q-4 -4 -6 -4h-58q-3 0 -1 4l61 137q3 4 6 4h73q3 0 2 -4z" />
<glyph unicode="&#x108;" horiz-adv-x="466" d="M262 -10q-36 0 -62 3.5t-56.5 18t-49.5 39.5t-32 71.5t-13 110.5v220q0 63 13 108t32 69.5t49.5 38.5t57 17.5t62.5 3.5q48 0 86.5 -8t50.5 -13.5t15 -8.5t2 -5q0 -1 -6 -16l-12 -30l-6 -15q-1 -4 -4 -3q-60 20 -126 20q-27 0 -45.5 -4.5t-39.5 -19.5t-32 -51t-11 -92 v-204q0 -54 9.5 -89.5t28.5 -52t39 -22t50 -5.5q54 0 135 27q3 2 5 -2q0 -1 6 -16l12 -30l6 -15q0 -1 -2 -6l-1 -1q-61 -38 -161 -38zM203 755h-58q-3 0 -1 4q8 17 37.5 68.5t36.5 68.5q2 4 6 4h70q4 0 7 -4q1 -2 37.5 -69t37.5 -68q1 -4 -2 -4h-58q-4 0 -5 4l-50 83h-4 q-47 -80 -49 -83q-1 -4 -5 -4z" />
<glyph unicode="&#x109;" horiz-adv-x="397" d="M222 -8q-30 0 -51 2.5t-46 13.5t-40.5 31t-26 57.5t-10.5 90.5v110q0 51 11.5 88t27.5 56.5t41.5 30.5t46 13.5t48.5 2.5q69 0 126 -19q4 -2 2 -5l-16 -55q-1 -3 -4 -3q-24 8 -106 8q-19 0 -33.5 -4t-30 -15.5t-24 -38t-8.5 -66.5v-97q0 -42 8 -69.5t23.5 -39.5 t29.5 -15.5t35 -3.5q27 0 54 3t40 5.5t15 3.5q3 1 5 -2q0 -2 8 -28t9 -28q2 -3 -2 -5q-44 -22 -132 -22zM165 555h-58q-3 0 -1 4q8 17 37.5 68.5t36.5 68.5q2 4 6 4h70q4 0 7 -4q1 -2 37.5 -69t37.5 -68q1 -4 -2 -4h-58q-4 0 -5 4l-50 83h-4q-47 -80 -49 -83q-1 -4 -5 -4z " />
<glyph unicode="&#x10a;" horiz-adv-x="466" d="M262 -10q-36 0 -62 3.5t-56.5 18t-49.5 39.5t-32 71.5t-13 110.5v220q0 63 13 108t32 69.5t49.5 38.5t57 17.5t62.5 3.5q48 0 86.5 -8t50.5 -13.5t15 -8.5t2 -5q0 -1 -6 -16l-12 -30l-6 -15q-1 -4 -4 -3q-60 20 -126 20q-27 0 -45.5 -4.5t-39.5 -19.5t-32 -51t-11 -92 v-204q0 -54 9.5 -89.5t28.5 -52t39 -22t50 -5.5q54 0 135 27q3 2 5 -2q0 -1 6 -16l12 -30l6 -15q0 -1 -2 -6l-1 -1q-61 -38 -161 -38zM221 788q-4 0 -4 4v84q0 4 4 4h76q3 0 3 -4v-84q0 -4 -3 -4h-76z" />
<glyph unicode="&#x10b;" horiz-adv-x="397" d="M222 -8q-30 0 -51 2.5t-46 13.5t-40.5 31t-26 57.5t-10.5 90.5v110q0 51 11.5 88t27.5 56.5t41.5 30.5t46 13.5t48.5 2.5q69 0 126 -19q4 -2 2 -5l-16 -55q-1 -3 -4 -3q-24 8 -106 8q-19 0 -33.5 -4t-30 -15.5t-24 -38t-8.5 -66.5v-97q0 -42 8 -69.5t23.5 -39.5 t29.5 -15.5t35 -3.5q27 0 54 3t40 5.5t15 3.5q3 1 5 -2q0 -2 8 -28t9 -28q2 -3 -2 -5q-44 -22 -132 -22zM187 588q-4 0 -4 4v84q0 4 4 4h76q3 0 3 -4v-84q0 -4 -3 -4h-76z" />
<glyph unicode="&#x10c;" horiz-adv-x="466" d="M262 -10q-36 0 -62 3.5t-56.5 18t-49.5 39.5t-32 71.5t-13 110.5v220q0 63 13 108t32 69.5t49.5 38.5t57 17.5t62.5 3.5q48 0 86.5 -8t50.5 -13.5t15 -8.5t2 -5q0 -1 -6 -16l-12 -30l-6 -15q-1 -4 -4 -3q-60 20 -126 20q-27 0 -45.5 -4.5t-39.5 -19.5t-32 -51t-11 -92 v-204q0 -54 9.5 -89.5t28.5 -52t39 -22t50 -5.5q54 0 135 27q3 2 5 -2q0 -1 6 -16l12 -30l6 -15q0 -1 -2 -6l-1 -1q-61 -38 -161 -38zM316 899h61q4 0 1 -4l-85 -137q-2 -4 -5 -4h-56q-4 0 -6 4q-8 15 -42 67.5t-43 70.5q-1 3 1 3h61q2 0 5 -4l50 -82h4q46 79 48 82q3 4 6 4 z" />
<glyph unicode="&#x10d;" horiz-adv-x="397" d="M222 -8q-30 0 -51 2.5t-46 13.5t-40.5 31t-26 57.5t-10.5 90.5v110q0 51 11.5 88t27.5 56.5t41.5 30.5t46 13.5t48.5 2.5q69 0 126 -19q4 -2 2 -5l-16 -55q-1 -3 -4 -3q-24 8 -106 8q-19 0 -33.5 -4t-30 -15.5t-24 -38t-8.5 -66.5v-97q0 -42 8 -69.5t23.5 -39.5 t29.5 -15.5t35 -3.5q27 0 54 3t40 5.5t15 3.5q3 1 5 -2q0 -2 8 -28t9 -28q2 -3 -2 -5q-44 -22 -132 -22zM278 699h61q4 0 1 -4l-85 -137q-2 -4 -5 -4h-56q-4 0 -6 4q-8 15 -42 67.5t-43 70.5q-1 3 1 3h61q2 0 5 -4l50 -82h4q46 79 48 82q3 4 6 4z" />
<glyph unicode="&#x10e;" horiz-adv-x="517" d="M154 80h109q31 0 50.5 5.5t38 21.5t27 51t8.5 90v188q0 56 -9.5 91t-29.5 50t-38 19.5t-47 4.5h-109v-521zM263 0h-195v680h195q24 0 39.5 -1t39.5 -5.5t40 -13.5t35 -26t30 -41.5t18.5 -62t7.5 -85.5v-205q0 -48 -7 -86t-17.5 -63t-28.5 -42.5t-34 -27t-40 -14.5t-41 -6 t-42 -1zM315 899h61q4 0 1 -4l-85 -137q-2 -4 -5 -4h-56q-4 0 -6 4q-8 15 -42 67.5t-43 70.5q-2 3 1 3h61q2 0 5 -4l50 -82h4q46 79 48 82q3 4 6 4z" />
<glyph unicode="&#x10f;" horiz-adv-x="553" d="M385 0h-75q-3 0 -3 3v27q-11 -16 -42.5 -27t-74.5 -11q-25 0 -41.5 2t-38.5 13.5t-34.5 32t-22 60.5t-9.5 97v86q0 56 10 95.5t24 60t37.5 31.5t40 13t42.5 2q16 0 43 -6t47 -11l19 -6v214q0 4 3 4h75q3 0 3 -4v-672q0 -4 -3 -4zM210 65q41 0 69 17.5t28 56.5v249 q-67 23 -96 23q-19 0 -31 -3.5t-26 -15.5t-21 -40.5t-7 -74.5v-75q0 -47 6.5 -76.5t20.5 -42t26 -15.5t31 -3zM447 510q-4 -4 -4 3v163q0 4 3 4h65q4 0 4 -4v-108q0 -3 -3 -6z" />
<glyph unicode="&#x110;" horiz-adv-x="524" d="M154 80h110q19 0 30.5 1t28 6t26.5 16t20 28.5t14.5 47t4.5 68.5v189q0 57 -10.5 92.5t-31.5 50t-37.5 18t-44.5 3.5h-110v-221h98q4 0 4 -4v-63q0 -4 -4 -4h-98v-228zM257 0h-188v308h-38q-3 0 -3 4v63q0 4 3 4h38v301h188q35 0 60.5 -3t57.5 -16.5t51.5 -37t33.5 -69 t14 -109.5v-205q0 -49 -8 -88t-19 -64t-31 -42.5t-36 -26t-42 -13.5t-41 -5.5t-40 -0.5z" />
<glyph unicode="&#x111;" horiz-adv-x="451" d="M211 68q96 0 96 71v249q-66 22 -97 22q-42 0 -63.5 -26t-21.5 -107v-72q0 -84 21 -110.5t65 -26.5zM190 -5q-27 0 -45.5 3t-39.5 14.5t-33 33t-20.5 60.5t-8.5 94v83q0 45 6 80t18 56t25.5 35t32.5 20t34.5 8t37.5 2q18 0 45.5 -5.5t45.5 -10.5l19 -6v93h-108q-3 0 -3 4 v56q0 4 4 4h107v56q0 4 3 4h74q3 0 3 -4v-56h38q4 0 4 -4v-56q0 -4 -4 -4h-38v-551q0 -4 -3 -4h-74q-3 0 -3 3v27q-27 -35 -117 -35z" />
<glyph unicode="&#x112;" horiz-adv-x="462" d="M68 0v680h354q4 0 4 -4v-70q0 -4 -4 -4h-268v-218h229q3 0 3 -4v-70q0 -4 -3 -4h-229v-228h268q4 0 4 -4v-70q0 -4 -4 -4h-354zM362 804h-229q-3 0 -3 4v59q0 4 3 4h229q3 0 3 -4v-59q0 -4 -3 -4z" />
<glyph unicode="&#x113;" horiz-adv-x="427" d="M123 269h181q0 84 -22.5 114.5t-65.5 30.5q-46 0 -69.5 -28t-23.5 -117zM226 -9q-28 0 -50 3t-49 15.5t-44.5 34t-30 61.5t-12.5 95v83q0 53 12 92t29.5 60t43 33.5t46 15.5t45.5 3q26 0 45 -2.5t44 -14.5t41 -33.5t27.5 -62.5t11.5 -98v-66h-262q0 -48 8 -78.5t24 -44.5 t32 -18.5t40 -4.5q84 0 129 15q4 0 4 -3l4 -14q4 -15 7 -27.5t3 -13.5q0 -5 -2 -6q-5 -2 -18.5 -6.5t-50.5 -11t-77 -6.5zM331 604h-229q-3 0 -3 4v59q0 4 3 4h229q3 0 3 -4v-59q0 -4 -3 -4z" />
<glyph unicode="&#x114;" horiz-adv-x="462" d="M68 0v680h354q4 0 4 -4v-70q0 -4 -4 -4h-268v-218h229q3 0 3 -4v-70q0 -4 -3 -4h-229v-228h268q4 0 4 -4v-70q0 -4 -4 -4h-354zM252 763q-114 0 -114 118q0 5 4 5h35q5 0 6 -5q10 -37 24 -48.5t45 -11.5q29 0 43 12.5t23 47.5q1 5 6 5h37q5 0 5 -5q-8 -118 -114 -118z " />
<glyph unicode="&#x115;" horiz-adv-x="427" d="M123 269h181q0 84 -22.5 114.5t-65.5 30.5q-46 0 -69.5 -28t-23.5 -117zM226 -9q-28 0 -50 3t-49 15.5t-44.5 34t-30 61.5t-12.5 95v83q0 53 12 92t29.5 60t43 33.5t46 15.5t45.5 3q26 0 45 -2.5t44 -14.5t41 -33.5t27.5 -62.5t11.5 -98v-66h-262q0 -48 8 -78.5t24 -44.5 t32 -18.5t40 -4.5q84 0 129 15q4 0 4 -3l4 -14q4 -15 7 -27.5t3 -13.5q0 -5 -2 -6q-5 -2 -18.5 -6.5t-50.5 -11t-77 -6.5zM220 563q-114 0 -114 118q0 5 4 5h35q5 0 6 -5q10 -37 24 -48.5t45 -11.5q29 0 43 12.5t23 47.5q1 5 6 5h37q5 0 5 -5q-8 -118 -114 -118z" />
<glyph unicode="&#x116;" horiz-adv-x="462" d="M68 0v680h354q4 0 4 -4v-70q0 -4 -4 -4h-268v-218h229q3 0 3 -4v-70q0 -4 -3 -4h-229v-228h268q4 0 4 -4v-70q0 -4 -4 -4h-354zM221 788q-4 0 -4 4v84q0 4 4 4h76q3 0 3 -4v-84q0 -4 -3 -4h-76z" />
<glyph unicode="&#x117;" horiz-adv-x="427" d="M226 -9q-28 0 -50 3t-49 15.5t-44.5 34t-30 61.5t-12.5 95v83q0 53 12 92t29.5 60t43 33.5t46 15.5t45.5 3q26 0 45 -2.5t44 -14.5t41 -33.5t27.5 -62.5t11.5 -98v-66h-262q0 -48 8 -78.5t24 -44.5t32 -18.5t40 -4.5q84 0 129 15q4 0 4 -3l4 -14q4 -15 7 -27.5t3 -13.5 q0 -5 -2 -6q-5 -2 -18.5 -6.5t-50.5 -11t-77 -6.5zM123 269h181q0 84 -22.5 114.5t-65.5 30.5q-46 0 -69.5 -28t-23.5 -117zM183 588q-4 0 -4 4v84q0 4 4 4h76q3 0 3 -4v-84q0 -4 -3 -4h-76z" />
<glyph unicode="&#x118;" horiz-adv-x="462" d="M68 0v680h354q4 0 4 -4v-70q0 -4 -4 -4h-268v-218h229q3 0 3 -4v-70q0 -4 -3 -4h-229v-228h268q4 0 4 -4v-70q0 -4 -4 -4q-37 -31 -53.5 -51.5t-16.5 -40.5q0 -14 5 -18.5t16 -4.5q4 0 9 2t9.5 4.5t5.5 2.5q5 3 6 -1l20 -37q2 -6 -1 -9q-25 -25 -62 -25q-34 0 -52.5 15 t-18.5 58q0 57 55 105h-276z" />
<glyph unicode="&#x119;" horiz-adv-x="427" d="M212 -183q-34 0 -52.5 15t-18.5 58q0 55 52 102q-31 3 -55.5 13t-48 31.5t-36.5 63t-13 100.5v83q0 53 12 92t29.5 60t43 33.5t46 15.5t45.5 3q26 0 45 -2.5t44 -14.5t41 -33.5t27.5 -62.5t11.5 -98v-66h-262q0 -48 8 -78.5t24 -44.5t32 -18.5t40 -4.5q84 0 129 15 q4 0 4 -3l4 -14q4 -15 7 -27.5t3 -13.5q0 -5 -2 -6q-30 -15 -100 -22q-36 -30 -52 -50t-16 -40q0 -14 5 -18.5t16 -4.5q4 0 9 2t9.5 4.5t5.5 2.5q5 3 6 -1l20 -37q2 -6 -1 -9q-25 -25 -62 -25zM123 269h181q0 84 -22.5 114.5t-65.5 30.5q-46 0 -69.5 -28t-23.5 -117z" />
<glyph unicode="&#x11a;" horiz-adv-x="462" d="M68 0v680h354q4 0 4 -4v-70q0 -4 -4 -4h-268v-218h229q3 0 3 -4v-70q0 -4 -3 -4h-229v-228h268q4 0 4 -4v-70q0 -4 -4 -4h-354zM310 899h61q4 0 1 -4l-85 -137q-2 -4 -5 -4h-56q-4 0 -6 4q-8 15 -42 67.5t-43 70.5q-1 3 1 3h61q2 0 5 -4l50 -82h4q46 79 48 82q3 4 6 4z " />
<glyph unicode="&#x11b;" horiz-adv-x="427" d="M123 269h181q0 84 -22.5 114.5t-65.5 30.5q-46 0 -69.5 -28t-23.5 -117zM226 -9q-28 0 -50 3t-49 15.5t-44.5 34t-30 61.5t-12.5 95v83q0 53 12 92t29.5 60t43 33.5t46 15.5t45.5 3q26 0 45 -2.5t44 -14.5t41 -33.5t27.5 -62.5t11.5 -98v-66h-262q0 -48 8 -78.5t24 -44.5 t32 -18.5t40 -4.5q84 0 129 15q4 0 4 -3l4 -14q4 -15 7 -27.5t3 -13.5q0 -5 -2 -6q-5 -2 -18.5 -6.5t-50.5 -11t-77 -6.5zM276 699h61q4 0 1 -4l-85 -137q-2 -4 -5 -4h-56q-4 0 -6 4q-8 15 -42 67.5t-43 70.5q-1 3 1 3h61q2 0 5 -4l50 -82h4q46 79 48 82q3 4 6 4z" />
<glyph unicode="&#x11c;" horiz-adv-x="512" d="M257 -10q-34 0 -59 3.5t-55 18t-48.5 39.5t-31.5 71.5t-13 110.5v220q0 65 14.5 111t34 70t51.5 37t56 16t58 3q46 0 90.5 -7.5t63 -13.5t24.5 -9q2 -2 1 -5l-20 -61q-1 -3 -5 -2q-2 1 -25 5.5t-61 9t-68 4.5q-21 0 -35 -1.5t-33.5 -11t-31 -26t-20 -49.5t-8.5 -79v-204 q0 -56 9.5 -91.5t28.5 -52t37.5 -21.5t46.5 -5l125 11v202h-90q-4 0 -4 4v66q0 4 4 4h166v-345q-145 -22 -202 -22zM211 755h-58q-3 0 -1 4q7 17 37 68.5t37 68.5q2 4 6 4h70q4 0 7 -4q1 -2 37.5 -69t37.5 -68q1 -4 -2 -4h-58q-4 0 -5 4l-50 83h-4q-47 -80 -49 -83 q-1 -4 -5 -4z" />
<glyph unicode="&#x11d;" horiz-adv-x="442" d="M204 66q13 0 37 5t42 11l18 5v253q0 71 -97 71q-19 0 -31.5 -3.5t-26 -16t-20 -42t-6.5 -75.5v-73q0 -44 6 -72.5t19 -41.5t26 -17t33 -4zM207 -194q-99 0 -145 23q-4 1 -2 5q0 1 9 28t10 29q0 5 3 3q48 -16 121 -16q49 0 73.5 17.5t24.5 77.5v42q-72 -20 -109 -20 q-35 0 -57 5t-47 23t-37.5 61t-12.5 110v85q0 68 11.5 111.5t34.5 63t45 25.5t55 6q91 0 117 -36v26q0 4 3 4h75q3 0 3 -4v-502q0 -46 -11 -79t-26.5 -49.5t-42 -26t-46 -11t-49.5 -1.5zM165 555h-58q-3 0 -1 4q8 17 37.5 68.5t36.5 68.5q2 4 6 4h70q4 0 7 -4q1 -2 37.5 -69 t37.5 -68q1 -4 -2 -4h-58q-4 0 -5 4l-50 83h-4q-47 -80 -49 -83q-1 -4 -5 -4z" />
<glyph unicode="&#x11e;" horiz-adv-x="512" d="M257 -10q-34 0 -59 3.5t-55 18t-48.5 39.5t-31.5 71.5t-13 110.5v220q0 65 14.5 111t34 70t51.5 37t56 16t58 3q46 0 90.5 -7.5t63 -13.5t24.5 -9q2 -2 1 -5l-20 -61q-1 -3 -5 -2q-2 1 -25 5.5t-61 9t-68 4.5q-21 0 -35 -1.5t-33.5 -11t-31 -26t-20 -49.5t-8.5 -79v-204 q0 -56 9.5 -91.5t28.5 -52t37.5 -21.5t46.5 -5l125 11v202h-90q-4 0 -4 4v66q0 4 4 4h166v-345q-145 -22 -202 -22zM264 763q-114 0 -114 118q0 5 4 5h35q5 0 6 -5q10 -37 24 -48.5t45 -11.5q29 0 43 12.5t23 47.5q1 5 6 5h37q5 0 5 -5q-8 -118 -114 -118z" />
<glyph unicode="&#x11f;" horiz-adv-x="442" d="M204 66q13 0 37 5t42 11l18 5v253q0 71 -97 71q-19 0 -31.5 -3.5t-26 -16t-20 -42t-6.5 -75.5v-73q0 -44 6 -72.5t19 -41.5t26 -17t33 -4zM207 -194q-99 0 -145 23q-4 1 -2 5q0 1 9 28t10 29q0 5 3 3q48 -16 121 -16q49 0 73.5 17.5t24.5 77.5v42q-72 -20 -109 -20 q-35 0 -57 5t-47 23t-37.5 61t-12.5 110v85q0 68 11.5 111.5t34.5 63t45 25.5t55 6q91 0 117 -36v26q0 4 3 4h75q3 0 3 -4v-502q0 -46 -11 -79t-26.5 -49.5t-42 -26t-46 -11t-49.5 -1.5zM221 563q-114 0 -114 118q0 5 4 5h35q5 0 6 -5q10 -37 24 -48.5t45 -11.5 q29 0 43 12.5t23 47.5q1 5 6 5h37q5 0 5 -5q-8 -118 -114 -118z" />
<glyph unicode="&#x120;" horiz-adv-x="512" d="M257 -10q-34 0 -59 3.5t-55 18t-48.5 39.5t-31.5 71.5t-13 110.5v220q0 65 14.5 111t34 70t51.5 37t56 16t58 3q46 0 90.5 -7.5t63 -13.5t24.5 -9q2 -2 1 -5l-20 -61q-1 -3 -5 -2q-2 1 -25 5.5t-61 9t-68 4.5q-21 0 -35 -1.5t-33.5 -11t-31 -26t-20 -49.5t-8.5 -79v-204 q0 -56 9.5 -91.5t28.5 -52t37.5 -21.5t46.5 -5l125 11v202h-90q-4 0 -4 4v66q0 4 4 4h166v-345q-145 -22 -202 -22zM221 788q-4 0 -4 4v84q0 4 4 4h76q3 0 3 -4v-84q0 -4 -3 -4h-76z" />
<glyph unicode="&#x121;" horiz-adv-x="442" d="M207 -194q-99 0 -145 23q-4 1 -2 5q0 1 9 28t10 29q0 5 3 3q48 -16 121 -16q49 0 73.5 17.5t24.5 77.5v42q-72 -20 -109 -20q-35 0 -57 5t-47 23t-37.5 61t-12.5 110v85q0 68 11.5 111.5t34.5 63t45 25.5t55 6q91 0 117 -36v26q0 4 3 4h75q3 0 3 -4v-502q0 -46 -11 -79 t-26.5 -49.5t-42 -26t-46 -11t-49.5 -1.5zM204 66q13 0 37 5t42 11l18 5v253q0 71 -97 71q-19 0 -31.5 -3.5t-26 -16t-20 -42t-6.5 -75.5v-73q0 -44 6 -72.5t19 -41.5t26 -17t33 -4zM183 588q-4 0 -4 4v84q0 4 4 4h76q3 0 3 -4v-84q0 -4 -3 -4h-76z" />
<glyph unicode="&#x122;" horiz-adv-x="512" d="M257 -10q-34 0 -59 3.5t-55 18t-48.5 39.5t-31.5 71.5t-13 110.5v220q0 65 14.5 111t34 70t51.5 37t56 16t58 3q46 0 90.5 -7.5t63 -13.5t24.5 -9q2 -2 1 -5l-20 -61q-1 -3 -5 -2q-2 1 -25 5.5t-61 9t-68 4.5q-21 0 -35 -1.5t-33.5 -11t-31 -26t-20 -49.5t-8.5 -79v-204 q0 -56 9.5 -91.5t28.5 -52t37.5 -21.5t46.5 -5l125 11v202h-90q-4 0 -4 4v66q0 4 4 4h166v-345q-145 -22 -202 -22zM235 -253q-4 -4 -4 3v163q0 4 3 4h65q4 0 4 -4v-108q0 -3 -3 -6z" />
<glyph unicode="&#x123;" horiz-adv-x="442" d="M207 -194q-99 0 -145 23q-4 1 -2 5q0 1 9 28t10 29q0 5 3 3q48 -16 121 -16q49 0 73.5 17.5t24.5 77.5v42q-72 -20 -109 -20q-35 0 -57 5t-47 23t-37.5 61t-12.5 110v85q0 68 11.5 111.5t34.5 63t45 25.5t55 6q91 0 117 -36v26q0 4 3 4h75q3 0 3 -4v-502q0 -46 -11 -79 t-26.5 -49.5t-42 -26t-46 -11t-49.5 -1.5zM204 66q13 0 37 5t42 11l18 5v253q0 71 -97 71q-19 0 -31.5 -3.5t-26 -16t-20 -42t-6.5 -75.5v-73q0 -44 6 -72.5t19 -41.5t26 -17t33 -4zM246 753q5 5 5 -3v-163q0 -4 -4 -4h-65q-3 0 -3 4v108q0 3 3 6z" />
<glyph unicode="&#x124;" horiz-adv-x="542" d="M72 0q-4 0 -4 4v672q0 4 4 4h78q4 0 4 -4v-296h240v296q0 4 4 4h78q4 0 4 -4v-672q0 -4 -4 -4h-78q-4 0 -4 4v302h-240v-302q0 -4 -4 -4h-78zM218 755h-58q-3 0 -1 4q7 17 37 68.5t37 68.5q2 4 6 4h70q4 0 7 -4q1 -2 37.5 -69t37.5 -68q1 -4 -2 -4h-58q-4 0 -5 4l-50 83 h-4q-47 -80 -49 -83q-1 -4 -5 -4z" />
<glyph unicode="&#x125;" horiz-adv-x="459" d="M70 0q-3 0 -3 4v672q0 4 3 4h75q4 0 4 -4v-222q74 31 112 31q30 0 50.5 -4.5t44 -19.5t35.5 -50.5t12 -91.5v-315q0 -4 -3 -4h-75q-3 0 -3 4v310q0 62 -17.5 80t-54.5 18q-15 0 -40.5 -7.5t-43.5 -14.5l-17 -8v-378q0 -4 -4 -4h-75zM175 750h-58q-3 0 -1 4 q7 17 36.5 68.5t37.5 68.5q2 4 6 4h70q4 0 7 -4q1 -2 37.5 -69t37.5 -68q1 -4 -2 -4h-58q-4 0 -5 4l-50 83h-4q-47 -80 -49 -83q-1 -4 -5 -4z" />
<glyph unicode="&#x128;" horiz-adv-x="216" d="M72 0q-4 0 -4 4v672q0 4 4 4h78q4 0 4 -4v-672q0 -4 -4 -4h-78zM0 789q-3 0 -3 5v43q0 8 4 12q28 35 60 35q23 0 54 -19t49 -19q14 0 26.5 8.5t20 17.5t10.5 9t3 -4v-44q0 -7 -4 -13q-29 -36 -61 -36q-23 0 -54 19.5t-47 19.5q-19 0 -38 -17t-20 -17z" />
<glyph unicode="&#x129;" horiz-adv-x="209" d="M67 0q-3 0 -3 4v471q0 4 3 4h75q3 0 3 -4v-471q0 -4 -3 -4h-75zM-3 589q-3 0 -3 5v43q0 8 4 12q28 35 60 35q23 0 54 -19t49 -19q19 0 37 17.5t20 17.5q3 0 3 -4v-44q0 -7 -4 -13q-29 -36 -61 -36q-22 0 -53.5 19.5t-47.5 19.5q-19 0 -38 -17t-20 -17z" />
<glyph unicode="&#x12a;" horiz-adv-x="216" d="M72 0q-4 0 -4 4v672q0 4 4 4h78q4 0 4 -4v-672q0 -4 -4 -4h-78zM226 804h-229q-3 0 -3 4v59q0 4 3 4h229q3 0 3 -4v-59q0 -4 -3 -4z" />
<glyph unicode="&#x12b;" horiz-adv-x="209" d="M67 0q-3 0 -3 4v471q0 4 3 4h75q3 0 3 -4v-471q0 -4 -3 -4h-75zM222 604h-229q-3 0 -3 4v59q0 4 3 4h229q3 0 3 -4v-59q0 -4 -3 -4z" />
<glyph unicode="&#x12e;" horiz-adv-x="216" d="M88 -177q-34 0 -52.5 15t-18.5 58q0 58 54 104q-3 0 -3 4v672q0 4 4 4h78q4 0 4 -4v-672q0 -4 -4 -4h-1q-69 -57 -69 -91q0 -14 5 -18.5t16 -4.5q4 0 9 2t9.5 4.5t5.5 2.5q5 3 6 -1l20 -37q2 -6 -1 -9q-25 -25 -62 -25z" />
<glyph unicode="&#x12f;" horiz-adv-x="209" d="M82 -178q-34 0 -52.5 15t-18.5 58q0 59 56 106v3v471q0 4 3 4h75q3 0 3 -4v-471q0 -4 -3 -4h-1q-37 -31 -53.5 -51.5t-16.5 -40.5q0 -14 5 -18.5t16 -4.5q4 0 9 2t9.5 4.5t5.5 2.5q5 3 6 -1l20 -37q2 -6 -1 -9q-25 -25 -62 -25zM68 592q-3 0 -3 4v80q0 4 3 4h79q3 0 3 -4 v-80q0 -4 -3 -4h-79z" />
<glyph unicode="&#x130;" horiz-adv-x="216" d="M72 0q-4 0 -4 4v672q0 4 4 4h78q4 0 4 -4v-672q0 -4 -4 -4h-78zM74 788q-4 0 -4 4v84q0 4 4 4h76q3 0 3 -4v-84q0 -4 -3 -4h-76z" />
<glyph unicode="&#x131;" horiz-adv-x="209" d="M67 0q-3 0 -3 4v471q0 4 3 4h75q3 0 3 -4v-471q0 -4 -3 -4h-75z" />
<glyph unicode="&#x134;" horiz-adv-x="405" d="M171 -10q-30 0 -63.5 5t-51 9.5t-20.5 5.5q-2 1 -1 6l18 62q1 4 4 3q2 -1 19 -3.5t44.5 -5t47.5 -2.5q22 0 35.5 2.5t28.5 11t22 28.5t7 52v512q0 4 3 4h79q3 0 3 -4v-516q0 -47 -11.5 -80t-27 -50t-41.5 -26.5t-46 -11.5t-49 -2zM246 755h-58q-3 0 -1 4q8 17 37.5 68.5 t36.5 68.5q2 4 6 4h70q4 0 7 -4q1 -2 37.5 -69t37.5 -68q1 -4 -2 -4h-58q-4 0 -5 4l-50 83h-4q-47 -80 -49 -83q-1 -4 -5 -4z" />
<glyph unicode="&#x136;" horiz-adv-x="499" d="M72 0q-4 0 -4 4v672q0 4 4 4h78q4 0 4 -4v-294h30q179 291 181 294q3 4 5 4h93q3 0 1 -4l-210 -330q223 -340 224 -342q3 -4 -1 -4h-93q-3 0 -6 4l-191 301h-33v-301q0 -4 -4 -4h-78zM221 -253q-4 -4 -4 3v163q0 4 3 4h65q4 0 4 -4v-108q0 -3 -3 -6z" />
<glyph unicode="&#x137;" horiz-adv-x="427" d="M70 0q-3 0 -3 4v672q0 4 3 4h75q4 0 4 -4v-387h33q109 184 111 186q3 4 5 4h88q4 0 1 -4l-138 -223q157 -245 159 -248q2 -4 -1 -4h-91q-3 0 -5 4l-131 211h-31v-211q0 -4 -4 -4h-75zM184 -253q-4 -4 -4 3v163q0 4 3 4h65q4 0 4 -4v-108q0 -3 -3 -6z" />
<glyph unicode="&#x139;" horiz-adv-x="443" d="M68 0v676q0 4 4 4h78q4 0 4 -4v-598h268q4 0 4 -4v-69q0 -5 -4 -5h-354zM219 759q-4 -4 -6 -4h-58q-3 0 -1 4l61 137q3 4 6 4h73q3 0 2 -4z" />
<glyph unicode="&#x13a;" horiz-adv-x="242" d="M181 -5q-31 0 -48 3.5t-34.5 16.5t-25 44t-7.5 81v536q0 4 3 4h74q3 0 3 -4v-537q0 -45 10.5 -58.5t29.5 -13.5q7 0 24 1l18 1q4 0 5 -3q0 -1 4.5 -29.5t4.5 -30.5q1 -4 -3 -5q-12 -6 -58 -6zM134 754q-4 -4 -6 -4h-58q-3 0 -1 4l61 137q3 4 6 4h73q3 0 2 -4z" />
<glyph unicode="&#x13b;" horiz-adv-x="443" d="M68 0v676q0 4 4 4h78q4 0 4 -4v-598h268q4 0 4 -4v-69q0 -5 -4 -5h-354zM211 -253q-4 -4 -4 3v163q0 4 3 4h65q4 0 4 -4v-108q0 -3 -3 -6z" />
<glyph unicode="&#x13c;" horiz-adv-x="242" d="M181 -5q-31 0 -48 3.5t-34.5 16.5t-25 44t-7.5 81v536q0 4 3 4h74q3 0 3 -4v-537q0 -45 10.5 -58.5t29.5 -13.5q7 0 24 1l18 1q4 0 5 -3q0 -1 4.5 -29.5t4.5 -30.5q1 -4 -3 -5q-12 -6 -58 -6zM113 -253q-4 -4 -4 3v163q0 4 3 4h65q4 0 4 -4v-108q0 -3 -3 -6z" />
<glyph unicode="&#x13d;" horiz-adv-x="443" d="M68 0v676q0 4 4 4h78q4 0 4 -4v-598h268q4 0 4 -4v-69q0 -5 -4 -5h-354zM221 580q-4 -4 -4 3v163q0 4 3 4h65q4 0 4 -4v-108q0 -3 -3 -6z" />
<glyph unicode="&#x13e;" horiz-adv-x="348" d="M181 -5q-31 0 -48 3.5t-34.5 16.5t-25 44t-7.5 81v536q0 4 3 4h74q3 0 3 -4v-537q0 -45 10.5 -58.5t29.5 -13.5q7 0 24 1l18 1q4 0 5 -3q0 -1 4.5 -29.5t4.5 -30.5q1 -4 -3 -5q-12 -6 -58 -6zM230 510q-4 -4 -4 3v163q0 4 3 4h65q4 0 4 -4v-108q0 -3 -3 -6z" />
<glyph unicode="&#x141;" horiz-adv-x="451" d="M68 0v276q-44 -32 -46 -33q-3 -1 -3 3v70q0 4 3 7l46 33v320q0 4 4 4h78q4 0 4 -4v-270q124 89 125 89q1 1 2 0.5t1 -2.5v-71q0 -4 -3 -6l-125 -90v-248h269q3 0 3 -4v-70q0 -4 -3 -4h-355z" />
<glyph unicode="&#x142;" horiz-adv-x="252" d="M179 -5q-31 0 -48.5 3.5t-34.5 17t-24.5 44t-7.5 80.5v164q-35 -26 -36 -26q-3 0 -3 3v66q0 5 3 6l36 26v297q0 4 3 4h75q3 0 3 -4v-250q58 42 60 42h1.5t0.5 -3v-65q0 -5 -2 -7l-60 -42v-212q0 -44 10.5 -58t29.5 -14q7 0 16.5 0.5t16.5 0.5l8 1q3 0 4 -3 q1 -1 5.5 -29.5t4.5 -30.5q2 -5 -3 -5l-3 -1q-4 0 -10 -1t-13.5 -2t-16 -1.5t-15.5 -0.5z" />
<glyph unicode="&#x143;" horiz-adv-x="549" d="M71 0q-4 0 -4 4v672q0 4 4 4h96q4 0 5 -4l223 -519h11v519q0 4 4 4h77q3 0 3 -4v-672q0 -4 -3 -4h-97q-3 0 -5 4l-223 523h-12v-523q0 -4 -3 -4h-76zM271 759q-4 -4 -6 -4h-58q-3 0 -1 4l61 137q3 4 6 4h73q3 0 2 -4z" />
<glyph unicode="&#x144;" horiz-adv-x="459" d="M70 0q-3 0 -3 4v471q0 4 3 4h75q4 0 4 -4v-21q74 31 112 31q24 0 40 -2t37 -11t34 -26t22 -49.5t9 -77.5v-315q0 -4 -4 -4h-74q-3 0 -3 4v310q0 62 -17.5 80t-54.5 18q-15 0 -40.5 -7.5t-43.5 -14.5l-17 -8v-378q0 -4 -4 -4h-75zM229 559q-4 -4 -6 -4h-58q-3 0 -1 4 l61 137q3 4 6 4h73q3 0 2 -4z" />
<glyph unicode="&#x145;" horiz-adv-x="549" d="M71 0q-4 0 -4 4v672q0 4 4 4h96q4 0 5 -4l223 -519h11v519q0 4 4 4h77q3 0 3 -4v-672q0 -4 -3 -4h-97q-3 0 -5 4l-223 523h-12v-523q0 -4 -3 -4h-76zM253 -253q-4 -4 -4 3v163q0 4 3 4h65q4 0 4 -4v-108q0 -3 -3 -6z" />
<glyph unicode="&#x146;" horiz-adv-x="459" d="M70 0q-3 0 -3 4v471q0 4 3 4h75q4 0 4 -4v-21q74 31 112 31q24 0 40 -2t37 -11t34 -26t22 -49.5t9 -77.5v-315q0 -4 -4 -4h-74q-3 0 -3 4v310q0 62 -17.5 80t-54.5 18q-15 0 -40.5 -7.5t-43.5 -14.5l-17 -8v-378q0 -4 -4 -4h-75zM206 -253q-4 -4 -4 3v163q0 4 3 4h65 q4 0 4 -4v-108q0 -3 -3 -6z" />
<glyph unicode="&#x147;" horiz-adv-x="549" d="M71 0q-4 0 -4 4v672q0 4 4 4h96q4 0 5 -4l223 -519h11v519q0 4 4 4h77q3 0 3 -4v-672q0 -4 -3 -4h-97q-3 0 -5 4l-223 523h-12v-523q0 -4 -3 -4h-76zM334 899h61q4 0 1 -4l-85 -137q-2 -4 -5 -4h-56q-4 0 -6 4q-8 15 -42 67.5t-43 70.5q-1 3 1 3h61q2 0 5 -4l50 -82h4 q46 79 48 82q3 4 6 4z" />
<glyph unicode="&#x148;" horiz-adv-x="459" d="M70 0q-3 0 -3 4v471q0 4 3 4h75q4 0 4 -4v-21q74 31 112 31q24 0 40 -2t37 -11t34 -26t22 -49.5t9 -77.5v-315q0 -4 -4 -4h-74q-3 0 -3 4v310q0 62 -17.5 80t-54.5 18q-15 0 -40.5 -7.5t-43.5 -14.5l-17 -8v-378q0 -4 -4 -4h-75zM289 699h61q4 0 1 -4l-85 -137 q-2 -4 -5 -4h-56q-4 0 -6 4q-8 15 -42 67.5t-43 70.5q-2 3 1 3h61q2 0 5 -4l50 -82h4q46 79 48 82q3 4 6 4z" />
<glyph unicode="&#x14c;" horiz-adv-x="511" d="M258 69q30 0 49 5t38 21.5t28 52.5t9 92v204q0 103 -31.5 135t-92.5 32q-28 0 -47.5 -5.5t-38 -21.5t-28 -51t-9.5 -89v-204q0 -57 9.5 -93.5t29 -52t38 -20.5t46.5 -5zM258 -10q-29 0 -49 2t-47 9t-45 23.5t-35 42t-25.5 67.5t-8.5 98v221q0 64 13 109.5t32 69.5 t49.5 38t55.5 17t60 3t58 -2.5t54.5 -15.5t50.5 -37t33 -70.5t14 -111.5v-221q0 -68 -14 -115.5t-32.5 -71.5t-50.5 -37t-54.5 -15.5t-58.5 -2.5zM373 804h-229q-3 0 -3 4v59q0 4 3 4h229q3 0 3 -4v-59q0 -4 -3 -4z" />
<glyph unicode="&#x14d;" horiz-adv-x="432" d="M216 65q23 0 37 3.5t28 16.5t21 42t7 75v78q0 45 -6 73t-20 40.5t-27.5 16.5t-36.5 4q-47 0 -71 -25.5t-24 -108.5v-78q0 -46 7 -75t21 -41.5t28 -16.5t36 -4zM216 -8q-40 0 -66 6t-53.5 25t-41 62.5t-13.5 111.5v89q0 66 14 108.5t41.5 62t54.5 25.5t67 6q30 0 50 -2.5 t45.5 -13.5t40.5 -31.5t25.5 -59.5t10.5 -94v-90q0 -56 -10.5 -95.5t-25 -60.5t-40 -32.5t-46.5 -14t-53 -2.5zM334 604h-229q-3 0 -3 4v59q0 4 3 4h229q3 0 3 -4v-59q0 -4 -3 -4z" />
<glyph unicode="&#x14e;" horiz-adv-x="511" d="M258 69q30 0 49 5t38 21.5t28 52.5t9 92v204q0 103 -31.5 135t-92.5 32q-28 0 -47.5 -5.5t-38 -21.5t-28 -51t-9.5 -89v-204q0 -57 9.5 -93.5t29 -52t38 -20.5t46.5 -5zM258 -10q-29 0 -49 2t-47 9t-45 23.5t-35 42t-25.5 67.5t-8.5 98v221q0 64 13 109.5t32 69.5 t49.5 38t55.5 17t60 3t58 -2.5t54.5 -15.5t50.5 -37t33 -70.5t14 -111.5v-221q0 -68 -14 -115.5t-32.5 -71.5t-50.5 -37t-54.5 -15.5t-58.5 -2.5zM259 763q-114 0 -114 118q0 5 4 5h35q5 0 6 -5q10 -37 24 -48.5t45 -11.5q29 0 43 12.5t23 47.5q1 5 6 5h37q5 0 5 -5 q-8 -118 -114 -118z" />
<glyph unicode="&#x14f;" horiz-adv-x="432" d="M216 65q23 0 37 3.5t28 16.5t21 42t7 75v78q0 45 -6 73t-20 40.5t-27.5 16.5t-36.5 4q-47 0 -71 -25.5t-24 -108.5v-78q0 -46 7 -75t21 -41.5t28 -16.5t36 -4zM216 -8q-40 0 -66 6t-53.5 25t-41 62.5t-13.5 111.5v89q0 66 14 108.5t41.5 62t54.5 25.5t67 6q30 0 50 -2.5 t45.5 -13.5t40.5 -31.5t25.5 -59.5t10.5 -94v-90q0 -56 -10.5 -95.5t-25 -60.5t-40 -32.5t-46.5 -14t-53 -2.5zM220 563q-114 0 -114 118q0 5 4 5h35q5 0 6 -5q10 -37 24 -48.5t45 -11.5q29 0 43 12.5t23 47.5q1 5 6 5h37q5 0 5 -5q-8 -118 -114 -118z" />
<glyph unicode="&#x150;" horiz-adv-x="511" d="M258 -10q-29 0 -49 2t-47 9t-45 23.5t-35 42t-25.5 67.5t-8.5 98v221q0 64 13 109.5t32 69.5t49.5 38t55.5 17t60 3t58 -2.5t54.5 -15.5t50.5 -37t33 -70.5t14 -111.5v-221q0 -68 -14 -115.5t-32.5 -71.5t-50.5 -37t-54.5 -15.5t-58.5 -2.5zM258 69q30 0 49 5t38 21.5 t28 52.5t9 92v204q0 103 -31.5 135t-92.5 32q-28 0 -47.5 -5.5t-38 -21.5t-28 -51t-9.5 -89v-204q0 -57 9.5 -93.5t29 -52t38 -20.5t46.5 -5zM328 759q-1 -4 -5 -4h-58q-2 0 -1 4q0 1 15.5 34.5t30.5 67.5t16 35q1 4 5 4h73q4 0 1 -4zM206 759q-1 -4 -6 -4h-58q-2 0 -1 4 q1 1 31 67.5t31 69.5q1 4 5 4h73q3 0 2 -4q0 -1 -19.5 -34.5t-38.5 -67.5t-19 -35z" />
<glyph unicode="&#x151;" horiz-adv-x="432" d="M216 -8q-40 0 -66 6t-53.5 25t-41 62.5t-13.5 111.5v89q0 66 14 108.5t41.5 62t54.5 25.5t67 6q30 0 50 -2.5t45.5 -13.5t40.5 -31.5t25.5 -59.5t10.5 -94v-90q0 -56 -10.5 -95.5t-25 -60.5t-40 -32.5t-46.5 -14t-53 -2.5zM216 65q23 0 37 3.5t28 16.5t21 42t7 75v78 q0 45 -6 73t-20 40.5t-27.5 16.5t-36.5 4q-47 0 -71 -25.5t-24 -108.5v-78q0 -46 7 -75t21 -41.5t28 -16.5t36 -4zM295 559q-1 -4 -5 -4h-58q-2 0 -1 4q0 1 15.5 34.5t30.5 67.5t16 35q1 4 5 4h73q4 0 1 -4zM173 559q-1 -4 -6 -4h-58q-2 0 -1 4q1 1 31 67.5t31 69.5q1 4 5 4 h73q3 0 2 -4q0 -1 -19.5 -34.5t-38.5 -67.5t-19 -35z" />
<glyph unicode="&#x152;" horiz-adv-x="783" d="M260 74q27 0 46 6t38.5 23t29.5 55.5t10 96.5v174q0 59 -11 97t-31.5 54t-38.5 21t-43 5q-21 0 -36 -2.5t-33 -12t-29 -27t-18.5 -50t-7.5 -78.5v-189q0 -58 10 -95t30.5 -53t38 -20.5t45.5 -4.5zM260 -4q-34 0 -58.5 3t-55.5 17t-50 38.5t-32.5 72t-13.5 113.5v204 q0 65 13.5 111.5t32.5 71t50 38t55 16.5t59 3q75 0 124 -52v48h353q4 0 4 -4v-70q0 -4 -4 -4h-268v-218h229q4 0 4 -4v-70q0 -4 -4 -4h-229v-228h268q4 0 4 -4v-70q0 -4 -4 -4h-353v48q-15 -15 -24.5 -23t-37.5 -18.5t-62 -10.5z" />
<glyph unicode="&#x153;" horiz-adv-x="700" d="M219 68q21 0 34.5 4t28.5 16.5t22.5 42t7.5 75.5v75q0 43 -7.5 70.5t-21.5 39.5t-27.5 16t-33.5 4q-22 0 -36 -3.5t-29 -16t-22.5 -41t-7.5 -73.5v-71q0 -84 22.5 -111t69.5 -27zM395 269h181q0 85 -22.5 113.5t-65.5 28.5q-47 0 -70 -27.5t-23 -114.5zM219 -5 q-41 0 -68 6.5t-53.5 26.5t-39.5 63t-13 110v82q0 66 14.5 109t42.5 62t54.5 25t65.5 6q85 0 130 -65q23 32 52.5 48.5t83.5 16.5q28 0 48 -3t44.5 -15t40 -33.5t26 -61.5t10.5 -96v-66h-262q2 -84 24 -113.5t80 -29.5q29 0 60.5 4t48.5 7.5t18 4.5q4 0 5 -3l16 -55 q0 -3 -3 -5q-5 -2 -19 -7t-51 -11.5t-76 -6.5q-55 0 -89.5 15t-56.5 51q-14 -18 -24.5 -29t-40.5 -24t-68 -13z" />
<glyph unicode="&#x154;" horiz-adv-x="515" d="M150 0h-78q-4 0 -4 4v676h207q30 0 50.5 -2t48.5 -12t45.5 -28t30 -53t12.5 -84v-54q0 -131 -91 -164l109 -279q2 -4 -2 -4h-87q-4 0 -5 4l-99 265h-134v-265q0 -4 -3 -4zM153 346h119q20 0 35.5 3t33 13t27 32t9.5 56v50q0 34 -9 56t-26 31.5t-32 12t-37 2.5h-120v-256z M254 759q-4 -4 -6 -4h-58q-3 0 -1 4l61 137q3 4 6 4h73q3 0 2 -4z" />
<glyph unicode="&#x155;" horiz-adv-x="341" d="M70 0q-3 0 -3 4v471q0 4 3 4h75q4 0 4 -4v-22q54 32 91 32q50 0 80 -15q4 -1 2 -5q0 -1 -8.5 -28.5t-8.5 -28.5q-1 -3 -4 -3q-16 8 -68 8q-15 0 -36 -8.5t-35 -16.5l-13 -9v-375q0 -4 -4 -4h-75zM173 559q-4 -4 -6 -4h-58q-3 0 -1 4l61 137q3 4 6 4h73q3 0 2 -4z" />
<glyph unicode="&#x156;" horiz-adv-x="515" d="M150 0h-78q-4 0 -4 4v676h207q30 0 50.5 -2t48.5 -12t45.5 -28t30 -53t12.5 -84v-54q0 -131 -91 -164l109 -279q2 -4 -2 -4h-87q-4 0 -5 4l-99 265h-134v-265q0 -4 -3 -4zM153 346h119q20 0 35.5 3t33 13t27 32t9.5 56v50q0 34 -9 56t-26 31.5t-32 12t-37 2.5h-120v-256z M233 -253q-4 -4 -4 3v163q0 4 3 4h65q4 0 4 -4v-108q0 -3 -3 -6z" />
<glyph unicode="&#x157;" horiz-adv-x="341" d="M70 0q-3 0 -3 4v471q0 4 3 4h75q4 0 4 -4v-22q54 32 91 32q50 0 80 -15q4 -1 2 -5q0 -1 -8.5 -28.5t-8.5 -28.5q-1 -3 -4 -3q-16 8 -68 8q-15 0 -36 -8.5t-35 -16.5l-13 -9v-375q0 -4 -4 -4h-75zM156 -248q-4 -4 -4 3v163q0 4 3 4h65q4 0 4 -4v-108q0 -3 -3 -6z" />
<glyph unicode="&#x158;" horiz-adv-x="515" d="M153 346h119q20 0 35.5 3t33 13t27 32t9.5 56v50q0 34 -9 56t-26 31.5t-32 12t-37 2.5h-120v-256zM150 0h-78q-4 0 -4 4v676h207q30 0 50.5 -2t48.5 -12t45.5 -28t30 -53t12.5 -84v-54q0 -131 -91 -164l109 -279q2 -4 -2 -4h-87q-4 0 -5 4l-99 265h-134v-265q0 -4 -3 -4z M300 899h61q4 0 1 -4l-85 -137q-2 -4 -5 -4h-56q-4 0 -6 4q-8 15 -42 67.5t-43 70.5q-1 3 1 3h61q2 0 5 -4l50 -82h4q46 79 48 82q3 4 6 4z" />
<glyph unicode="&#x159;" horiz-adv-x="341" d="M70 0q-3 0 -3 4v471q0 4 3 4h75q4 0 4 -4v-22q54 32 91 32q50 0 80 -15q4 -1 2 -5q0 -1 -8.5 -28.5t-8.5 -28.5q-1 -3 -4 -3q-16 8 -68 8q-15 0 -36 -8.5t-35 -16.5l-13 -9v-375q0 -4 -4 -4h-75zM231 699h61q4 0 1 -4l-85 -137q-2 -4 -5 -4h-56q-4 0 -6 4q-8 15 -42 67.5 t-43 70.5q-2 3 1 3h61q2 0 5 -4l50 -82h4q46 79 48 82q3 4 6 4z" />
<glyph unicode="&#x15a;" horiz-adv-x="498" d="M249 -10q-119 0 -189 35q-3 1 -1 5l20 66q2 3 4 2q5 -2 24 -8.5t61.5 -14t83.5 -7.5q37 0 59.5 4.5t41 25t18.5 59.5v60q0 43 -29.5 62t-91.5 25q-109 11 -149 47t-40 117v73q0 149 190 149q111 0 169 -29q2 -1 2 -6l-21 -61q-1 -3 -4 -3q-3 1 -21 5.5t-54 10t-70 5.5 q-48 0 -76 -16t-28 -63v-59q0 -42 26 -62t92 -27q107 -11 149.5 -46t42.5 -117v-74q0 -42 -13.5 -72t-33 -46.5t-49.5 -25.5t-55 -11.5t-58 -2.5zM257 759q-4 -4 -6 -4h-58q-3 0 -1 4l61 137q3 4 6 4h73q3 0 2 -4z" />
<glyph unicode="&#x15b;" horiz-adv-x="408" d="M210 -7q-97 0 -157 20q-2 1 -1 5l16 58q1 2 4 2l8 -2q8 -1 21.5 -3.5t30 -5t37.5 -4t41 -1.5q28 0 43.5 2.5t27.5 16t12 39.5v28q0 23 -20 38t-75 23q-72 11 -106.5 37.5t-34.5 80.5v44q0 37 13.5 62t38.5 36t47.5 14.5t51.5 3.5q24 0 46.5 -2t38.5 -5.5t28 -6.5t19 -5 l6 -2q2 0 2 -3q-1 -1 -8 -28.5t-7 -28.5q-2 -2 -3 -2q-2 1 -19 4.5t-47.5 7.5t-56.5 4q-72 0 -72 -54v-30q0 -24 20 -36t70 -20q72 -10 109 -37.5t37 -81.5v-43q0 -42 -12.5 -68.5t-38 -38t-49 -15t-61.5 -3.5zM211 559q-4 -4 -6 -4h-58q-3 0 -1 4l61 137q3 4 6 4h73 q3 0 2 -4z" />
<glyph unicode="&#x15c;" horiz-adv-x="498" d="M249 -10q-119 0 -189 35q-3 1 -1 5l20 66q2 3 4 2q5 -2 24 -8.5t61.5 -14t83.5 -7.5q37 0 59.5 4.5t41 25t18.5 59.5v60q0 43 -29.5 62t-91.5 25q-109 11 -149 47t-40 117v73q0 149 190 149q111 0 169 -29q2 -1 2 -6l-21 -61q-1 -3 -4 -3q-3 1 -21 5.5t-54 10t-70 5.5 q-48 0 -76 -16t-28 -63v-59q0 -42 26 -62t92 -27q107 -11 149.5 -46t42.5 -117v-74q0 -42 -13.5 -72t-33 -46.5t-49.5 -25.5t-55 -11.5t-58 -2.5zM195 755h-58q-3 0 -1 4q7 17 36.5 68.5t37.5 68.5q2 4 6 4h70q4 0 7 -4q1 -2 37.5 -69t37.5 -68q1 -4 -2 -4h-58q-4 0 -5 4 l-50 83h-4q-47 -80 -49 -83q-1 -4 -5 -4z" />
<glyph unicode="&#x15d;" horiz-adv-x="408" d="M210 -7q-97 0 -157 20q-2 1 -1 5l16 58q1 2 4 2l8 -2q8 -1 21.5 -3.5t30 -5t37.5 -4t41 -1.5q28 0 43.5 2.5t27.5 16t12 39.5v28q0 23 -20 38t-75 23q-72 11 -106.5 37.5t-34.5 80.5v44q0 37 13.5 62t38.5 36t47.5 14.5t51.5 3.5q24 0 46.5 -2t38.5 -5.5t28 -6.5t19 -5 l6 -2q2 0 2 -3q-1 -1 -8 -28.5t-7 -28.5q-2 -2 -3 -2q-2 1 -19 4.5t-47.5 7.5t-56.5 4q-72 0 -72 -54v-30q0 -24 20 -36t70 -20q72 -10 109 -37.5t37 -81.5v-43q0 -42 -12.5 -68.5t-38 -38t-49 -15t-61.5 -3.5zM153 555h-58q-3 0 -1 4q8 17 37.5 68.5t36.5 68.5q2 4 6 4h70 q4 0 7 -4q1 -2 37.5 -69t37.5 -68q1 -4 -2 -4h-58q-4 0 -5 4l-50 83h-4q-47 -80 -49 -83q-1 -4 -5 -4z" />
<glyph unicode="&#x15e;" horiz-adv-x="498" d="M262 -150h-73q-3 0 -2 4l54 136q-115 2 -181 35q-3 1 -1 5l20 66q2 3 4 2q5 -2 24 -8.5t61.5 -14t83.5 -7.5q37 0 59.5 4.5t41 25t18.5 59.5v60q0 43 -29.5 62t-91.5 25q-109 11 -149 47t-40 117v73q0 149 190 149q111 0 169 -29q2 -1 2 -6l-21 -61q-1 -3 -4 -3 q-3 1 -21 5.5t-54 10t-70 5.5q-48 0 -76 -16t-28 -63v-59q0 -42 26 -62t92 -27q107 -11 149.5 -46t42.5 -117v-74q0 -141 -150 -155l-41 -139q-1 -4 -5 -4z" />
<glyph unicode="&#x15f;" horiz-adv-x="408" d="M215 -150h-73q-3 0 -2 4l55 139q-88 2 -142 20q-2 1 -1 5l16 58q1 2 4 2l8 -2q8 -1 21.5 -3.5t30 -5t37.5 -4t41 -1.5q28 0 43.5 2.5t27.5 16t12 39.5v28q0 23 -20 38t-75 23q-72 11 -106.5 37.5t-34.5 80.5v44q0 37 13.5 62t38.5 36t47.5 14.5t51.5 3.5q24 0 46.5 -2 t38.5 -5.5t28 -6.5t19 -5l6 -2q2 0 2 -3q-1 -1 -8 -28.5t-7 -28.5q-2 -2 -3 -2q-2 1 -19 4.5t-47.5 7.5t-56.5 4q-72 0 -72 -54v-30q0 -24 20 -36t70 -20q72 -10 109 -37.5t37 -81.5v-43q0 -64 -28.5 -91t-80.5 -32l-42 -141q-1 -4 -5 -4z" />
<glyph unicode="&#x160;" horiz-adv-x="498" d="M249 -10q-119 0 -189 35q-3 1 -1 5l20 66q2 3 4 2q5 -2 24 -8.5t61.5 -14t83.5 -7.5q37 0 59.5 4.5t41 25t18.5 59.5v60q0 43 -29.5 62t-91.5 25q-109 11 -149 47t-40 117v73q0 149 190 149q111 0 169 -29q2 -1 2 -6l-21 -61q-1 -3 -4 -3q-3 1 -21 5.5t-54 10t-70 5.5 q-48 0 -76 -16t-28 -63v-59q0 -42 26 -62t92 -27q107 -11 149.5 -46t42.5 -117v-74q0 -42 -13.5 -72t-33 -46.5t-49.5 -25.5t-55 -11.5t-58 -2.5zM308 899h61q4 0 1 -4l-85 -137q-2 -4 -5 -4h-56q-4 0 -6 4q-8 15 -42 67.5t-43 70.5q-1 3 1 3h61q2 0 5 -4l50 -82h4 q46 79 48 82q3 4 6 4z" />
<glyph unicode="&#x161;" horiz-adv-x="408" d="M210 -7q-97 0 -157 20q-2 1 -1 5l16 58q1 2 4 2l8 -2q8 -1 21.5 -3.5t30 -5t37.5 -4t41 -1.5q28 0 43.5 2.5t27.5 16t12 39.5v28q0 23 -20 38t-75 23q-72 11 -106.5 37.5t-34.5 80.5v44q0 37 13.5 62t38.5 36t47.5 14.5t51.5 3.5q24 0 46.5 -2t38.5 -5.5t28 -6.5t19 -5 l6 -2q2 0 2 -3q-1 -1 -8 -28.5t-7 -28.5q-2 -2 -3 -2q-2 1 -19 4.5t-47.5 7.5t-56.5 4q-72 0 -72 -54v-30q0 -24 20 -36t70 -20q72 -10 109 -37.5t37 -81.5v-43q0 -42 -12.5 -68.5t-38 -38t-49 -15t-61.5 -3.5zM264 699h61q4 0 1 -4l-85 -137q-2 -4 -5 -4h-56q-4 0 -6 4 q-8 15 -42 67.5t-43 70.5q-1 3 1 3h61q2 0 5 -4l50 -82h4q46 79 48 82q3 4 6 4z" />
<glyph unicode="&#x164;" horiz-adv-x="450" d="M189 0q-3 0 -3 4v597h-164q-3 0 -3 4v71q0 4 3 4h412q3 0 3 -4v-71q0 -4 -3 -4h-163v-597q0 -4 -4 -4h-78zM284 899h61q4 0 1 -4l-85 -137q-2 -4 -5 -4h-56q-4 0 -6 4q-8 15 -42 67.5t-43 70.5q-1 3 1 3h61q2 0 5 -4l50 -82h4q46 79 48 82q3 4 6 4z" />
<glyph unicode="&#x165;" horiz-adv-x="362" d="M193 -5q-31 0 -47.5 3.5t-34.5 16.5t-25.5 44t-7.5 81v273h-44q-3 0 -3 4v59q0 4 3 4h44v156q0 4 3 4h74q4 0 4 -4v-156h78q4 0 4 -4v-59q0 -4 -4 -4h-78v-274q0 -31 6.5 -48t14 -20.5t18.5 -3.5q7 0 17 0.5t17 0.5l8 1q3 0 4 -3q0 -2 4.5 -30.5t5.5 -29.5q1 -3 -3 -5 q-18 -6 -58 -6zM268 510q-4 -4 -4 3v163q0 4 3 4h65q4 0 4 -4v-108q0 -3 -3 -6z" />
<glyph unicode="&#x168;" horiz-adv-x="532" d="M250 -10q-106 0 -146.5 61.5t-40.5 211.5v413q0 4 3 4h79q3 0 3 -4v-406q0 -113 19 -156.5t83 -43.5h39q65 0 83 42.5t18 157.5v406q0 4 3 4h79q3 0 3 -4v-413q0 -147 -37.5 -210t-149.5 -63h-38zM158 789q-3 0 -3 5v43q0 8 4 12q28 35 60 35q23 0 54 -19t49 -19 q14 0 26.5 8.5t20 17.5t10.5 9t3 -4v-44q0 -7 -4 -13q-29 -36 -61 -36q-23 0 -54 19.5t-47 19.5q-19 0 -38 -17t-20 -17z" />
<glyph unicode="&#x169;" d="M393 479q4 0 4 -4v-471q0 -4 -4 -4h-74q-3 0 -3 4v17q-75 -28 -112 -28q-31 0 -51 4t-44 19t-36 50.5t-12 92.5v316q0 4 3 4h75q4 0 4 -4v-312q0 -62 17 -80t54 -18q15 0 40.5 7t43.5 14l18 7v382q0 4 3 4h74zM120 589q-3 0 -3 5v43q0 8 4 12q28 35 60 35q23 0 54 -19 t49 -19q14 0 26.5 8.5t20 17.5t10.5 9t3 -4v-44q0 -7 -4 -13q-29 -36 -61 -36q-23 0 -54 19.5t-47 19.5q-19 0 -38 -17t-20 -17z" />
<glyph unicode="&#x16a;" horiz-adv-x="532" d="M250 -10q-106 0 -146.5 61.5t-40.5 211.5v413q0 4 3 4h79q3 0 3 -4v-406q0 -113 19 -156.5t83 -43.5h39q65 0 83 42.5t18 157.5v406q0 4 3 4h79q3 0 3 -4v-413q0 -147 -37.5 -210t-149.5 -63h-38zM383 804h-229q-3 0 -3 4v59q0 4 3 4h229q3 0 3 -4v-59q0 -4 -3 -4z" />
<glyph unicode="&#x16b;" d="M393 479q4 0 4 -4v-471q0 -4 -4 -4h-74q-3 0 -3 4v17q-75 -28 -112 -28q-31 0 -51 4t-44 19t-36 50.5t-12 92.5v316q0 4 3 4h75q4 0 4 -4v-312q0 -62 17 -80t54 -18q15 0 40.5 7t43.5 14l18 7v382q0 4 3 4h74zM345 604h-229q-3 0 -3 4v59q0 4 3 4h229q3 0 3 -4v-59 q0 -4 -3 -4z" />
<glyph unicode="&#x16c;" horiz-adv-x="532" d="M250 -10q-106 0 -146.5 61.5t-40.5 211.5v413q0 4 3 4h79q3 0 3 -4v-406q0 -113 19 -156.5t83 -43.5h39q65 0 83 42.5t18 157.5v406q0 4 3 4h79q3 0 3 -4v-413q0 -147 -37.5 -210t-149.5 -63h-38zM269 763q-114 0 -114 118q0 5 4 5h35q5 0 6 -5q10 -37 24 -48.5t45 -11.5 q29 0 43 12.5t23 47.5q1 5 6 5h37q5 0 5 -5q-8 -118 -114 -118z" />
<glyph unicode="&#x16d;" d="M393 479q4 0 4 -4v-471q0 -4 -4 -4h-74q-3 0 -3 4v17q-75 -28 -112 -28q-31 0 -51 4t-44 19t-36 50.5t-12 92.5v316q0 4 3 4h75q4 0 4 -4v-312q0 -62 17 -80t54 -18q15 0 40.5 7t43.5 14l18 7v382q0 4 3 4h74zM232 563q-114 0 -114 118q0 5 4 5h35q5 0 6 -5 q10 -37 24 -48.5t45 -11.5q29 0 43 12.5t23 47.5q1 5 6 5h37q5 0 5 -5q-8 -118 -114 -118z" />
<glyph unicode="&#x16e;" horiz-adv-x="532" d="M250 -10q-106 0 -146.5 61.5t-40.5 211.5v413q0 4 3 4h79q3 0 3 -4v-406q0 -113 19 -156.5t83 -43.5h39q65 0 83 42.5t18 157.5v406q0 4 3 4h79q3 0 3 -4v-413q0 -147 -37.5 -210t-149.5 -63h-38zM269 738q-37 0 -59.5 16t-22.5 66v22q0 47 23 63.5t60 16.5q16 0 28 -2.5 t25 -9.5t20 -24.5t7 -43.5v-22q0 -27 -7 -44.5t-20 -25t-25 -10t-29 -2.5zM269 778q20 0 31 9t11 37v13q0 26 -10.5 35.5t-30.5 9.5q-45 0 -45 -45v-13q0 -27 11.5 -36.5t32.5 -9.5z" />
<glyph unicode="&#x16f;" d="M393 479q4 0 4 -4v-471q0 -4 -4 -4h-74q-3 0 -3 4v17q-75 -28 -112 -28q-31 0 -51 4t-44 19t-36 50.5t-12 92.5v316q0 4 3 4h75q4 0 4 -4v-312q0 -62 17 -80t54 -18q15 0 40.5 7t43.5 14l18 7v382q0 4 3 4h74zM232 538q-37 0 -59.5 16t-22.5 66v22q0 47 23 63.5t60 16.5 q16 0 28 -2.5t25 -9.5t20 -24.5t7 -43.5v-22q0 -27 -7 -44.5t-20 -25t-25 -10t-29 -2.5zM232 578q20 0 31 9t11 37v13q0 26 -10.5 35.5t-30.5 9.5q-45 0 -45 -45v-13q0 -27 11.5 -36.5t32.5 -9.5z" />
<glyph unicode="&#x170;" horiz-adv-x="532" d="M250 -10q-106 0 -146.5 61.5t-40.5 211.5v413q0 4 3 4h79q3 0 3 -4v-406q0 -113 19 -156.5t83 -43.5h39q65 0 83 42.5t18 157.5v406q0 4 3 4h79q3 0 3 -4v-413q0 -147 -37.5 -210t-149.5 -63h-38zM351 759q-1 -4 -5 -4h-58q-2 0 -1 4q0 1 15.5 34.5t30.5 67.5t16 35 q1 4 5 4h73q4 0 1 -4zM229 759q-1 -4 -6 -4h-58q-2 0 -1 4q1 1 31 67.5t31 69.5q1 4 5 4h73q3 0 2 -4q0 -1 -19.5 -34.5t-38.5 -67.5t-19 -35z" />
<glyph unicode="&#x171;" d="M393 479q4 0 4 -4v-471q0 -4 -4 -4h-74q-3 0 -3 4v17q-75 -28 -112 -28q-31 0 -51 4t-44 19t-36 50.5t-12 92.5v316q0 4 3 4h75q4 0 4 -4v-312q0 -62 17 -80t54 -18q15 0 40.5 7t43.5 14l18 7v382q0 4 3 4h74zM313 559q-1 -4 -5 -4h-58q-2 0 -1 4q0 1 15.5 34.5 t30.5 67.5t16 35q1 4 5 4h73q4 0 1 -4zM191 559q-1 -4 -6 -4h-58q-2 0 -1 4q1 1 31 67.5t31 69.5q1 4 5 4h73q3 0 2 -4q0 -1 -19.5 -34.5t-38.5 -67.5t-19 -35z" />
<glyph unicode="&#x172;" horiz-adv-x="532" d="M252 -183q-34 0 -52.5 15t-18.5 58q0 54 50 101q-95 4 -131.5 66.5t-36.5 205.5v413q0 4 3 4h79q3 0 3 -4v-406q0 -113 19 -156.5t83 -43.5h39q65 0 83 42.5t18 157.5v406q0 4 3 4h79q3 0 3 -4v-413q0 -140 -33.5 -203t-133.5 -69q-64 -56 -64 -88q0 -14 5 -18.5t16 -4.5 q4 0 9 2t9.5 4.5t5.5 2.5q5 3 6 -1l20 -37q2 -6 -1 -9q-25 -25 -62 -25z" />
<glyph unicode="&#x173;" d="M330 -178q-34 0 -52.5 15t-18.5 58q0 59 57 107v2v17q-75 -28 -112 -28q-31 0 -51 4t-44 19t-36 50.5t-12 92.5v316q0 4 3 4h75q4 0 4 -4v-312q0 -62 17 -80t54 -18q15 0 40.5 7t43.5 14l18 7v382q0 4 3 4h74q4 0 4 -4v-471q0 -4 -4 -4h-1q-37 -31 -53.5 -51.5 t-16.5 -40.5q0 -14 5 -18.5t16 -4.5q4 0 9 2t9.5 4.5t5.5 2.5q5 3 6 -1l20 -37q2 -6 -1 -9q-25 -25 -62 -25z" />
<glyph unicode="&#x174;" horiz-adv-x="710" d="M144 0q-3 0 -4 4l-113 672q-1 4 3 4h82q3 0 4 -4l84 -535h15q104 393 105 395q1 3 4 3h68q4 0 5 -3l104 -395h16q83 532 84 535q1 4 5 4h82q3 0 2 -4l-113 -672q-1 -4 -4 -4h-105q-2 0 -3 3l-101 383h-10q-100 -378 -101 -382q-2 -4 -5 -4h-104zM301 755h-58q-3 0 -1 4 q8 17 37.5 68.5t36.5 68.5q2 4 6 4h70q4 0 7 -4q1 -2 37.5 -69t37.5 -68q1 -4 -2 -4h-58q-4 0 -5 4l-50 83h-4q-47 -80 -49 -83q-1 -4 -5 -4z" />
<glyph unicode="&#x175;" horiz-adv-x="622" d="M150 0q-3 0 -4 4l-105 471q0 4 2 4h77q4 0 5 -4l69 -345h8q80 251 81 254q0 4 3 4h58q3 0 4 -4l81 -254h8q65 342 66 345q2 4 5 4h78q2 0 1 -4q0 -1 -51.5 -235.5t-52.5 -235.5q-1 -4 -4 -4h-72q-3 0 -4 4l-84 271h-8q-85 -269 -86 -271q-1 -4 -3 -4h-72zM258 555h-58 q-3 0 -1 4q7 17 36.5 68.5t37.5 68.5q2 4 6 4h70q4 0 7 -4q1 -2 37.5 -69t37.5 -68q1 -4 -2 -4h-58q-4 0 -5 4l-50 83h-4q-47 -80 -49 -83q-1 -4 -5 -4z" />
<glyph unicode="&#x176;" d="M192 0q-3 0 -3 4v268q-174 401 -175 404q-2 4 2 4h86q1 0 4 -4l123 -303h5q121 300 123 303q1 4 4 4h84q3 0 2 -4l-173 -404v-268q0 -4 -4 -4h-78zM174 755h-58q-3 0 -1 4q8 17 37 68.5t37 68.5q2 4 6 4h70q4 0 7 -4q1 -2 37.5 -69t37.5 -68q1 -4 -2 -4h-58q-4 0 -5 4 l-50 83h-4q-47 -80 -49 -83q-1 -4 -5 -4z" />
<glyph unicode="&#x177;" horiz-adv-x="408" d="M60 -180q-3 0 -3 4q0 2 3.5 32.5t3.5 31.5q0 4 5 4h21q13 0 22 4t21 22t22 53l12 44q-144 457 -145 460q-1 4 2 4h78q4 0 5 -4l99 -342h8q95 339 95 342q1 4 5 4h77q3 0 2 -4l-25 -78q-25 -78 -54.5 -171.5t-56.5 -177.5t-31 -96q-15 -48 -29 -75.5t-31.5 -39.5 t-30 -14.5t-39.5 -2.5h-36zM153 555h-58q-3 0 -1 4q8 17 37.5 68.5t36.5 68.5q2 4 6 4h70q4 0 7 -4q1 -2 37.5 -69t37.5 -68q1 -4 -2 -4h-58q-4 0 -5 4l-50 83h-4q-47 -80 -49 -83q-1 -4 -5 -4z" />
<glyph unicode="&#x178;" d="M192 0q-3 0 -3 4v268q-174 401 -175 404q-2 4 2 4h86q1 0 4 -4l123 -303h5q121 300 123 303q1 4 4 4h84q3 0 2 -4l-173 -404v-268q0 -4 -4 -4h-78zM117 791q-3 0 -3 4v81q0 4 3 4h65q3 0 3 -4v-81q0 -4 -3 -4h-65zM284 791q-3 0 -3 4v81q0 4 3 4h64q3 0 3 -4v-81 q0 -4 -3 -4h-64z" />
<glyph unicode="&#x179;" d="M44 0q-2 0 -2 2v77q0 5 2 6l275 507v9h-264q-3 0 -3 4v70q0 5 3 5h360q4 0 4 -5v-73q0 -5 -3 -11l-275 -504v-9h274q4 0 4 -4v-70q0 -4 -4 -4h-371zM244 759q-4 -4 -6 -4h-58q-3 0 -1 4l61 137q3 4 6 4h73q3 0 2 -4z" />
<glyph unicode="&#x17a;" horiz-adv-x="397" d="M50 0q-3 0 -3 4v63q0 2 3 8l207 325v7h-198q-4 0 -4 4v64q0 4 4 4h295q3 0 3 -4v-63q0 -4 -2 -7l-207 -326v-8h208q3 0 3 -4v-63q0 -4 -3 -4h-306zM215 559q-4 -4 -6 -4h-58q-3 0 -1 4l61 137q3 4 6 4h73q3 0 2 -4z" />
<glyph unicode="&#x17b;" d="M44 0q-2 0 -2 2v77q0 5 2 6l275 507v9h-264q-3 0 -3 4v70q0 5 3 5h360q4 0 4 -5v-73q0 -5 -3 -11l-275 -504v-9h274q4 0 4 -4v-70q0 -4 -4 -4h-371zM201 788q-4 0 -4 4v84q0 4 4 4h76q3 0 3 -4v-84q0 -4 -3 -4h-76z" />
<glyph unicode="&#x17c;" horiz-adv-x="397" d="M50 0q-3 0 -3 4v63q0 2 3 8l207 325v7h-198q-4 0 -4 4v64q0 4 4 4h295q3 0 3 -4v-63q0 -4 -2 -7l-207 -326v-8h208q3 0 3 -4v-63q0 -4 -3 -4h-306zM169 588q-4 0 -4 4v84q0 4 4 4h76q3 0 3 -4v-84q0 -4 -3 -4h-76z" />
<glyph unicode="&#x17d;" d="M44 0q-2 0 -2 2v77q0 5 2 6l275 507v9h-264q-3 0 -3 4v70q0 5 3 5h360q4 0 4 -5v-73q0 -5 -3 -11l-275 -504v-9h274q4 0 4 -4v-70q0 -4 -4 -4h-371zM287 899h61q4 0 1 -4l-85 -137q-2 -4 -5 -4h-56q-4 0 -6 4q-8 15 -42 67.5t-43 70.5q-2 3 1 3h61q2 0 5 -4l50 -82h4 q46 79 48 82q3 4 6 4z" />
<glyph unicode="&#x17e;" horiz-adv-x="397" d="M50 0q-3 0 -3 4v63q0 2 3 8l207 325v7h-198q-4 0 -4 4v64q0 4 4 4h295q3 0 3 -4v-63q0 -4 -2 -7l-207 -326v-8h208q3 0 3 -4v-63q0 -4 -3 -4h-306zM258 699h61q4 0 1 -4l-85 -137q-2 -4 -5 -4h-56q-4 0 -6 4q-8 15 -42 67.5t-43 70.5q-1 3 1 3h61q2 0 5 -4l50 -82h4 q46 79 48 82q3 4 6 4z" />
<glyph unicode="&#x192;" horiz-adv-x="417" d="M132 -185q-11 0 -25.5 1.5t-25 3.5t-11.5 2q-2 0 -2 5q0 1 4.5 29t4.5 29q0 3 5 3h8q9 -1 20.5 -1.5t18.5 -0.5q38 0 38 71v387h-59q-3 0 -3 4v58q0 4 3 4h59v131q0 87 32.5 115.5t85.5 28.5q7 0 22 -1.5t27 -3.5l12 -2q2 -1 2 -5q0 -2 -4 -31l-4 -28q0 -3 -5 -3 q-1 0 -9 0.5t-19 1.5t-19 1q-39 0 -39 -72v-132h66q4 0 4 -4v-58q0 -4 -4 -4h-66v-386q0 -85 -31.5 -114t-85.5 -29z" />
<glyph unicode="&#x218;" horiz-adv-x="498" d="M249 -10q-119 0 -189 35q-3 1 -1 5l20 66q2 3 4 2q5 -2 24 -8.5t61.5 -14t83.5 -7.5q37 0 59.5 4.5t41 25t18.5 59.5v60q0 43 -29.5 62t-91.5 25q-109 11 -149 47t-40 117v73q0 149 190 149q111 0 169 -29q2 -1 2 -6l-21 -61q-1 -3 -4 -3q-3 1 -21 5.5t-54 10t-70 5.5 q-48 0 -76 -16t-28 -63v-59q0 -42 26 -62t92 -27q107 -11 149.5 -46t42.5 -117v-74q0 -42 -13.5 -72t-33 -46.5t-49.5 -25.5t-55 -11.5t-58 -2.5zM227 -253q-4 -4 -4 3v163q0 4 3 4h65q4 0 4 -4v-108q0 -3 -3 -6z" />
<glyph unicode="&#x219;" horiz-adv-x="408" d="M210 -7q-97 0 -157 20q-2 1 -1 5l16 58q1 2 4 2l8 -2q8 -1 21.5 -3.5t30 -5t37.5 -4t41 -1.5q28 0 43.5 2.5t27.5 16t12 39.5v28q0 23 -20 38t-75 23q-72 11 -106.5 37.5t-34.5 80.5v44q0 37 13.5 62t38.5 36t47.5 14.5t51.5 3.5q24 0 46.5 -2t38.5 -5.5t28 -6.5t19 -5 l6 -2q2 0 2 -3q-1 -1 -8 -28.5t-7 -28.5q-2 -2 -3 -2q-2 1 -19 4.5t-47.5 7.5t-56.5 4q-72 0 -72 -54v-30q0 -24 20 -36t70 -20q72 -10 109 -37.5t37 -81.5v-43q0 -42 -12.5 -68.5t-38 -38t-49 -15t-61.5 -3.5zM185 -253q-4 -4 -4 3v163q0 4 3 4h65q4 0 4 -4v-108 q0 -3 -3 -6z" />
<glyph unicode="&#x21a;" horiz-adv-x="450" d="M189 0q-3 0 -3 4v597h-164q-3 0 -3 4v71q0 4 3 4h412q3 0 3 -4v-71q0 -4 -3 -4h-163v-597q0 -4 -4 -4h-78zM195 -253q-4 -4 -4 3v163q0 4 3 4h65q4 0 4 -4v-108q0 -3 -3 -6z" />
<glyph unicode="&#x21b;" horiz-adv-x="274" d="M193 -5q-31 0 -47.5 3.5t-34.5 16.5t-25.5 44t-7.5 81v273h-44q-3 0 -3 4v59q0 4 3 4h44v156q0 4 3 4h74q4 0 4 -4v-156h78q4 0 4 -4v-59q0 -4 -4 -4h-78v-274q0 -31 6.5 -48t14 -20.5t18.5 -3.5q7 0 17 0.5t17 0.5l8 1q3 0 4 -3q0 -2 4.5 -30.5t5.5 -29.5q1 -3 -3 -5 q-18 -6 -58 -6zM123 -253q-4 -4 -4 3v163q0 4 3 4h65q4 0 4 -4v-108q0 -3 -3 -6z" />
<glyph unicode="&#x2c6;" horiz-adv-x="377" d="M132 555h-58q-3 0 -1 4q8 17 37.5 68.5t36.5 68.5q2 4 6 4h70q4 0 7 -4q1 -2 37.5 -69t37.5 -68q1 -4 -2 -4h-58q-4 0 -5 4l-50 83h-4q-47 -80 -49 -83q-1 -4 -5 -4z" />
<glyph unicode="&#x2c7;" horiz-adv-x="378" d="M245 699h61q4 0 1 -4l-85 -137q-2 -4 -5 -4h-56q-4 0 -6 4q-8 15 -42 67.5t-43 70.5q-2 3 1 3h61q2 0 5 -4l50 -82h4q46 79 48 82q3 4 6 4z" />
<glyph unicode="&#x2d8;" horiz-adv-x="377" d="M189 563q-114 0 -114 118q0 5 4 5h35q5 0 6 -5q10 -37 24 -48.5t45 -11.5q29 0 43 12.5t23 47.5q1 5 6 5h37q5 0 5 -5q-8 -118 -114 -118z" />
<glyph unicode="&#x2d9;" horiz-adv-x="377" d="M150 588q-4 0 -4 4v84q0 4 4 4h76q3 0 3 -4v-84q0 -4 -3 -4h-76z" />
<glyph unicode="&#x2da;" horiz-adv-x="377" d="M187 578q20 0 31 9t11 37v13q0 26 -10.5 35.5t-30.5 9.5q-45 0 -45 -45v-13q0 -27 11.5 -36.5t32.5 -9.5zM187 538q-37 0 -59.5 16t-22.5 66v22q0 47 23 63.5t60 16.5q16 0 28 -2.5t25 -9.5t20 -24.5t7 -43.5v-22q0 -27 -7 -44.5t-20 -25t-25 -10t-29 -2.5z" />
<glyph unicode="&#x2db;" horiz-adv-x="377" d="M188 -177q-34 0 -52.5 15t-18.5 58q0 59 61 110q4 4 12 4h58q4 0 5 -3t-3 -6q-37 -31 -53.5 -51.5t-16.5 -40.5q0 -14 5 -18.5t16 -4.5q4 0 9 2t9.5 4.5t5.5 2.5q5 3 6 -1l20 -37q2 -6 -1 -9q-25 -25 -62 -25z" />
<glyph unicode="&#x2dc;" horiz-adv-x="377" d="M77 589q-3 0 -3 5v43q0 8 4 12q28 35 60 35q23 0 54 -19t49 -19q19 0 37 17.5t20 17.5q3 0 3 -4v-44q0 -7 -4 -13q-29 -36 -61 -36q-22 0 -53 19.5t-48 19.5q-19 0 -38 -17t-20 -17z" />
<glyph unicode="&#x2dd;" horiz-adv-x="378" d="M246 559q-1 -4 -5 -4h-58q-2 0 -1 4q0 1 15.5 34.5t30.5 67.5t16 35q1 4 5 4h73q4 0 1 -4zM124 559q-1 -4 -6 -4h-58q-2 0 -1 4q1 1 31 67.5t31 69.5q1 4 5 4h73q3 0 2 -4q0 -1 -19.5 -34.5t-38.5 -67.5t-19 -35z" />
<glyph unicode="&#x1e80;" horiz-adv-x="710" d="M144 0q-3 0 -4 4l-113 672q-1 4 3 4h82q3 0 4 -4l84 -535h15q104 393 105 395q1 3 4 3h68q4 0 5 -3l104 -395h16q83 532 84 535q1 4 5 4h82q3 0 2 -4l-113 -672q-1 -4 -4 -4h-105q-2 0 -3 3l-101 383h-10q-100 -378 -101 -382q-2 -4 -5 -4h-104zM356 759l-77 137 q-3 4 1 4h73q4 0 5 -4q1 -1 31 -67.5t31 -69.5q2 -4 -2 -4h-57q-5 0 -5 4z" />
<glyph unicode="&#x1e81;" horiz-adv-x="622" d="M150 0q-3 0 -4 4l-105 471q0 4 2 4h77q4 0 5 -4l69 -345h8q80 251 81 254q0 4 3 4h58q3 0 4 -4l81 -254h8q65 342 66 345q2 4 5 4h78q2 0 1 -4q0 -1 -51.5 -235.5t-52.5 -235.5q-1 -4 -4 -4h-72q-3 0 -4 4l-84 271h-8q-85 -269 -86 -271q-1 -4 -3 -4h-72zM309 559 l-77 137q-3 4 1 4h73q4 0 5 -4q1 -1 31 -67.5t31 -69.5q2 -4 -2 -4h-57q-5 0 -5 4z" />
<glyph unicode="&#x1e82;" horiz-adv-x="710" d="M144 0q-3 0 -4 4l-113 672q-1 4 3 4h82q3 0 4 -4l84 -535h15q104 393 105 395q1 3 4 3h68q4 0 5 -3l104 -395h16q83 532 84 535q1 4 5 4h82q3 0 2 -4l-113 -672q-1 -4 -4 -4h-105q-2 0 -3 3l-101 383h-10q-100 -378 -101 -382q-2 -4 -5 -4h-104zM363 759q-4 -4 -6 -4h-58 q-3 0 -1 4l61 137q3 4 6 4h73q3 0 2 -4z" />
<glyph unicode="&#x1e83;" horiz-adv-x="622" d="M150 0q-3 0 -4 4l-105 471q0 4 2 4h77q4 0 5 -4l69 -345h8q80 251 81 254q0 4 3 4h58q3 0 4 -4l81 -254h8q65 342 66 345q2 4 5 4h78q2 0 1 -4q0 -1 -51.5 -235.5t-52.5 -235.5q-1 -4 -4 -4h-72q-3 0 -4 4l-84 271h-8q-85 -269 -86 -271q-1 -4 -3 -4h-72zM324 559 q-4 -4 -6 -4h-58q-3 0 -1 4l61 137q3 4 6 4h73q3 0 2 -4z" />
<glyph unicode="&#x1e84;" horiz-adv-x="710" d="M144 0q-3 0 -4 4l-113 672q-1 4 3 4h82q3 0 4 -4l84 -535h15q104 393 105 395q1 3 4 3h68q4 0 5 -3l104 -395h16q83 532 84 535q1 4 5 4h82q3 0 2 -4l-113 -672q-1 -4 -4 -4h-105q-2 0 -3 3l-101 383h-10q-100 -378 -101 -382q-2 -4 -5 -4h-104zM242 791q-3 0 -3 4v81 q0 4 3 4h65q3 0 3 -4v-81q0 -4 -3 -4h-65zM409 791q-3 0 -3 4v81q0 4 3 4h64q3 0 3 -4v-81q0 -4 -3 -4h-64z" />
<glyph unicode="&#x1e85;" horiz-adv-x="622" d="M150 0q-3 0 -4 4l-105 471q0 4 2 4h77q4 0 5 -4l69 -345h8q80 251 81 254q0 4 3 4h58q3 0 4 -4l81 -254h8q65 342 66 345q2 4 5 4h78q2 0 1 -4q0 -1 -51.5 -235.5t-52.5 -235.5q-1 -4 -4 -4h-72q-3 0 -4 4l-84 271h-8q-85 -269 -86 -271q-1 -4 -3 -4h-72zM198 591 q-3 0 -3 4v81q0 4 3 4h65q3 0 3 -4v-81q0 -4 -3 -4h-65zM365 591q-3 0 -3 4v81q0 4 3 4h64q3 0 3 -4v-81q0 -4 -3 -4h-64z" />
<glyph unicode="&#x1e9e;" horiz-adv-x="514" d="M66 0q-3 0 -3 4v474q0 63 15 104.5t43.5 62t59.5 28t73 7.5h179q4 0 4 -4v-76q0 -4 -2 -8l-93 -194q112 -28 112 -163v-64q0 -46 -12.5 -79t-30 -50.5t-48 -27t-55.5 -12t-62 -2.5q-3 0 -3 4v67q0 4 3 4q29 0 47 2.5t38.5 12t30.5 31t10 56.5v54q0 104 -108 104 q-3 0 -3 4v68l95 200h-102q-49 0 -78 -27.5t-29 -101.5v-474q0 -4 -3 -4h-78z" />
<glyph unicode="&#x2000;" horiz-adv-x="461" />
<glyph unicode="&#x2001;" horiz-adv-x="922" />
<glyph unicode="&#x2002;" horiz-adv-x="461" />
<glyph unicode="&#x2003;" horiz-adv-x="922" />
<glyph unicode="&#x2004;" horiz-adv-x="307" />
<glyph unicode="&#x2005;" horiz-adv-x="230" />
<glyph unicode="&#x2006;" horiz-adv-x="153" />
<glyph unicode="&#x2007;" horiz-adv-x="153" />
<glyph unicode="&#x2008;" horiz-adv-x="115" />
<glyph unicode="&#x2009;" horiz-adv-x="184" />
<glyph unicode="&#x200a;" horiz-adv-x="51" />
<glyph unicode="&#x2010;" horiz-adv-x="325" d="M44 239q-3 0 -3 4v64q0 4 3 4h237q3 0 3 -4v-64q0 -4 -3 -4h-237z" />
<glyph unicode="&#x2011;" horiz-adv-x="325" d="M44 239q-3 0 -3 4v64q0 4 3 4h237q3 0 3 -4v-64q0 -4 -3 -4h-237z" />
<glyph unicode="&#x2012;" horiz-adv-x="325" d="M44 239q-3 0 -3 4v64q0 4 3 4h237q3 0 3 -4v-64q0 -4 -3 -4h-237z" />
<glyph unicode="&#x2013;" horiz-adv-x="387" d="M33 239q-3 0 -3 4v64q0 4 3 4h320q4 0 4 -4v-64q0 -4 -4 -4h-320z" />
<glyph unicode="&#x2014;" horiz-adv-x="490" d="M19 239q-3 0 -3 4v64q0 4 3 4h452q4 0 4 -4v-64q0 -4 -4 -4h-452z" />
<glyph unicode="&#x2018;" horiz-adv-x="189" d="M125 684q5 5 5 -3v-163q0 -4 -4 -4h-65q-3 0 -3 4v108q0 3 3 6z" />
<glyph unicode="&#x2019;" horiz-adv-x="189" d="M62 510q-4 -4 -4 3v163q0 4 3 4h65q4 0 4 -4v-108q0 -3 -3 -6z" />
<glyph unicode="&#x201a;" horiz-adv-x="189" d="M63 -58q-4 -4 -4 3v163q0 4 3 4h65q4 0 4 -4v-108q0 -2 -3 -5z" />
<glyph unicode="&#x201c;" horiz-adv-x="322" d="M259 684q5 5 5 -3v-163q0 -4 -3 -4h-66q-3 0 -3 4v108q0 4 3 6zM125 684q5 5 5 -3v-163q0 -4 -4 -4h-65q-3 0 -3 4v108q0 3 3 6z" />
<glyph unicode="&#x201d;" horiz-adv-x="322" d="M196 510q-4 -4 -4 3v163q0 4 3 4h66q3 0 3 -4v-108q0 -3 -3 -6zM62 510q-4 -4 -4 3v163q0 4 3 4h65q4 0 4 -4v-108q0 -3 -3 -6z" />
<glyph unicode="&#x201e;" horiz-adv-x="322" d="M197 -58q-5 -5 -5 3v163q0 4 4 4h65q3 0 3 -4v-108q0 -2 -3 -5q-1 -1 -31.5 -26.5t-32.5 -26.5zM63 -58q-4 -4 -4 3v163q0 4 3 4h65q4 0 4 -4v-108q0 -2 -3 -5z" />
<glyph unicode="&#x2020;" horiz-adv-x="414" d="M173 -180q-3 0 -3 4v546h-128q-3 0 -3 4v63q0 4 3 4h128v235q0 4 3 4h69q3 0 3 -4v-235h127q3 0 3 -4v-63q0 -4 -3 -4h-127v-546q0 -4 -3 -4h-69z" />
<glyph unicode="&#x2021;" horiz-adv-x="415" d="M173 -180q-3 0 -3 4v208h-129q-3 0 -3 4v64q0 4 3 4h129v292h-129q-3 0 -3 4v64q0 4 3 4h129v208q0 4 3 4h69q3 0 3 -4v-208h127q3 0 3 -4v-64q0 -4 -3 -4h-127v-292h127q3 0 3 -4v-64q0 -4 -3 -4h-127v-208q0 -4 -3 -4h-69z" />
<glyph unicode="&#x2022;" horiz-adv-x="335" d="M167 215q-36 0 -58.5 16.5t-22.5 66.5v21q0 81 84 81q16 0 27.5 -2.5t24.5 -10t20 -25t7 -43.5v-21q0 -50 -22.5 -66.5t-59.5 -16.5z" />
<glyph unicode="&#x2026;" horiz-adv-x="587" d="M254 0q-4 0 -4 4v94q0 4 4 4h80q3 0 3 -4v-94q0 -4 -3 -4h-80zM439 0q-3 0 -3 4v94q0 4 3 4h80q4 0 4 -4v-94q0 -4 -4 -4h-80zM68 0q-3 0 -3 4v94q0 4 3 4h80q3 0 3 -4v-94q0 -4 -3 -4h-80z" />
<glyph unicode="&#x202f;" horiz-adv-x="184" />
<glyph unicode="&#x2030;" horiz-adv-x="905" d="M199 -5h-66q-2 0 -1 4q33 85 157.5 340.5t156.5 341.5q1 4 5 4h66q4 0 1 -4q-1 -2 -157 -341t-157 -341q-2 -4 -5 -4zM479 51q24 0 37 11t13 45v84q0 33 -12 43.5t-36 10.5t-37.5 -11t-13.5 -43v-84q0 -33 13 -44.5t36 -11.5zM479 -5q-46 0 -74.5 21.5t-28.5 84.5v99 q0 102 106 102q21 0 36 -3t31.5 -12.5t25 -31.5t8.5 -55v-99q0 -34 -8.5 -56.5t-25 -32.5t-32.5 -13.5t-38 -3.5zM172 435q24 0 37 11t13 44v85q0 32 -12 43t-36 11t-37.5 -11t-13.5 -43v-85q0 -33 13 -44t36 -11zM172 378q-46 0 -74.5 21t-28.5 84v99q0 103 106 103 q21 0 36 -3t31.5 -13t25.5 -32t9 -55v-99q0 -64 -29 -84.5t-76 -20.5zM733 51q24 0 37 11t13 45v84q0 32 -12 43t-36 11q-25 0 -38.5 -11t-13.5 -43v-84q0 -34 13 -45t37 -11zM733 -5q-46 0 -75 21.5t-29 84.5v99q0 60 29.5 81t77.5 21q20 0 35 -3t31.5 -12.5t25.5 -31.5 t9 -55v-99q0 -64 -28.5 -85t-75.5 -21z" />
<glyph unicode="&#x2039;" horiz-adv-x="280" d="M202 470l42 -43q3 -2 0 -5l-132 -157q130 -155 132 -157q3 -3 0 -6l-42 -43q-3 -3 -4 0q-3 3 -89 102.5t-86 100.5q-2 4 0 6l175 202q2 2 4 0z" />
<glyph unicode="&#x203a;" horiz-adv-x="280" d="M79 58q-41 41 -42 43q-3 3 0 6l131 157q-130 155 -131 157q-3 3 0 6l42 42q1 3 4 0q1 -1 87 -100.5t88 -101.5q3 -3 0 -6q-2 -2 -88 -102t-87 -101q-2 -2 -4 0z" />
<glyph unicode="&#x2044;" horiz-adv-x="357" d="M61 -4q-2 0 -2 4q0 1 81 339.5t82 341.5q0 4 4 4h71q3 0 2 -4q-1 -1 -81 -340.5t-81 -340.5q-1 -4 -4 -4h-72z" />
<glyph unicode="&#x205f;" horiz-adv-x="230" />
<glyph unicode="&#x2070;" horiz-adv-x="292" d="M146 312q36 0 52 20t16 85v117q0 63 -16 82.5t-52 19.5t-52 -19.5t-16 -82.5v-117q0 -65 16.5 -85t51.5 -20zM146 267q-26 0 -42 3.5t-35 16.5t-28.5 44.5t-9.5 81.5v126q0 48 9 78t27.5 43t35.5 17t43 4t42 -3.5t35 -16t28.5 -43t9.5 -79.5v-126q0 -41 -7.5 -69.5 t-17 -43.5t-27 -22.5t-30 -9t-33.5 -1.5z" />
<glyph unicode="&#x2074;" horiz-adv-x="270" d="M203 270h-37q-3 0 -3 2v74h-134q-2 0 -2 2v44q0 3 1 4t50 140t49 140l2 2h44v-2l-96 -279v-5h86v82q0 2 2 2h38q3 0 3 -2v-82h37q3 0 3 -3v-41q0 -2 -3 -2h-37v-74q0 -2 -3 -2z" />
<glyph unicode="&#x2075;" horiz-adv-x="270" d="M132 267q-57 0 -91 17q-2 2 -1 3l4 16q3 16 3 20q0 2 3 2l6 -1q5 -2 13.5 -4t18.5 -3.5t22 -3t22 -1.5q60 0 60 48v38q0 64 -52 64h-90q-3 0 -3 2v209q0 5 6 5h169q2 0 2 -2v-39q0 -3 -2 -3h-133v-130h52q18 0 31.5 -3t30 -12t25.5 -31t9 -56v-46q0 -89 -105 -89z" />
<glyph unicode="&#x2076;" horiz-adv-x="266" d="M134 309q17 0 28 4t20 21.5t9 48.5v19q0 40 -14 55t-41 15q-7 0 -22 -3t-26 -7l-11 -3v-100q0 -26 16.5 -38t40.5 -12zM136 267q-104 0 -104 90v229q0 29 10.5 49.5t28 29.5t33 12.5t31.5 3.5q15 0 29.5 -2t24.5 -4.5t17.5 -5t11.5 -4.5l4 -2q1 0 1 -3q0 -2 -4 -18 l-4 -17q0 -2 -3 -2l-5 1q-5 2 -12.5 4t-16.5 3.5t-20.5 3t-21.5 1.5q-59 0 -59 -52v-82q45 14 66 14q18 0 30.5 -3t28 -12.5t24 -33t8.5 -60.5v-27q0 -31 -7 -53t-16.5 -33.5t-24 -18t-25 -7.5t-25.5 -1z" />
<glyph unicode="&#x2077;" horiz-adv-x="263" d="M109 270h-44q-2 0 -1 2l116 356v5h-142q-2 0 -2 2v40q0 3 2 3h190q2 0 2 -2v-42q0 -1 -1 -2.5t-1 -2.5l-58 -178q-58 -178 -58 -179q-2 -2 -3 -2z" />
<glyph unicode="&#x2078;" horiz-adv-x="270" d="M135 309q29 0 43 13t14 51v24q0 64 -55 64q-59 0 -59 -64v-24q0 -37 14.5 -50.5t42.5 -13.5zM135 505q54 0 54 54v23q0 57 -52 57q-56 0 -56 -57v-23q0 -54 54 -54zM135 266q-48 0 -74.5 21t-26.5 83v30q0 28 9.5 48.5t18.5 27.5l10 6v2q-4 2 -9.5 7t-15 23t-9.5 40v30 q0 97 99 97q41 0 67.5 -19.5t26.5 -77.5v-30q0 -22 -7.5 -39t-15.5 -23l-8 -7v-2q4 -2 10 -7t16.5 -26.5t10.5 -49.5v-30q0 -64 -27 -84t-75 -20z" />
<glyph unicode="&#x2079;" horiz-adv-x="269" d="M134 639q-17 0 -28 -4t-20 -21.5t-9 -48.5v-28q0 -40 14 -55t41 -15q8 0 22.5 3.5t25.5 7.5l11 3v108q0 26 -16.5 38t-40.5 12zM132 681q104 0 104 -90v-229q0 -29 -10.5 -49.5t-28 -29.5t-33 -12.5t-31.5 -3.5q-25 0 -46.5 4t-31 7.5t-10.5 4.5q-2 2 -1 4q1 1 4.5 17 t3.5 18q0 1 3 1l5 -1q5 -1 13 -2.5t17.5 -3.5t20.5 -3t21 -1q59 0 59 52v74q-45 -13 -66 -13q-18 0 -30.5 3t-28.5 12t-24.5 33t-8.5 60v35q0 38 9.5 63t26.5 34.5t30.5 12.5t32.5 3z" />
<glyph unicode="&#x2080;" horiz-adv-x="292" d="M146 42q36 0 52 20t16 85v117q0 63 -16 82.5t-52 19.5t-52 -19.5t-16 -82.5v-117q0 -65 16.5 -85t51.5 -20zM146 -3q-26 0 -42 3.5t-35 16.5t-28.5 44.5t-9.5 81.5v126q0 48 9 78t27.5 43t35.5 17t43 4t42 -3.5t35 -16t28.5 -43t9.5 -79.5v-126q0 -41 -7.5 -69.5 t-17 -43.5t-27 -22.5t-30 -9t-33.5 -1.5z" />
<glyph unicode="&#x2081;" horiz-adv-x="259" d="M167 0h-40q-2 0 -2 2v349q-62 -56 -63 -57q-3 -2 -3 1q0 1 -5 21l-5 19q0 3 2 4l72 68q1 1 4 1h40q2 0 2 -2v-404q0 -2 -2 -2z" />
<glyph unicode="&#x2082;" horiz-adv-x="266" d="M227 0h-191l-2 1v44q0 3 1 4q9 11 25 32.5t24.5 32.5t22 29.5t21 29.5t17.5 26t15.5 24.5t10.5 20.5t7.5 19.5t2.5 15.5v37q0 31 -16 40.5t-43 9.5q-10 0 -21 -1.5t-20.5 -3.5t-17.5 -4t-13 -3l-4 -2q-1 -1 -2 -0.5t-1 1.5t-4 19l-4 17q0 3 1 3q38 19 86 19 q105 0 105 -91v-43q0 -24 -20 -63t-41.5 -69.5t-68.5 -94.5v-5h130q2 0 2 -2v-41q0 -2 -2 -2z" />
<glyph unicode="&#x2083;" horiz-adv-x="269" d="M39 14q-1 1 -1 3q0 1 4 18.5t4 18.5t3 1l5 -1q5 -2 13.5 -4t18.5 -3.5t22 -3t22 -1.5q61 0 61 49v36q0 25 -11 39t-21 17t-21 3h-37q-3 0 -3 2v39q0 2 3 2h37q18 0 32 13.5t14 38.5v36q0 22 -10.5 33.5t-21 13.5t-26.5 2q-17 0 -36 -3t-29.5 -6t-11.5 -4q-3 -1 -3 1 q0 1 -4 18.5t-4 18.5q0 2 1 3t10.5 5t31 8t44.5 4q103 0 103 -89v-41q0 -20 -6.5 -37t-13.5 -24l-6 -7v-4q4 -2 9.5 -7t14.5 -25.5t9 -47.5v-42q0 -24 -7 -41.5t-17 -26.5t-25.5 -14.5t-27.5 -6.5t-28 -1q-24 0 -47 4t-33 9z" />
<glyph unicode="&#x2084;" horiz-adv-x="270" d="M203 0h-37q-3 0 -3 2v74h-134q-2 0 -2 2v44q0 3 1 4t50 140t49 140l2 2h44v-2l-96 -279v-5h86v82q0 2 2 2h38q3 0 3 -2v-82h37q3 0 3 -3v-41q0 -2 -3 -2h-37v-74q0 -2 -3 -2z" />
<glyph unicode="&#x2085;" horiz-adv-x="270" d="M132 -3q-57 0 -91 17q-2 2 -1 3l4 16q3 16 3 20q0 2 3 2l6 -1q5 -2 13.5 -4t18.5 -3.5t22 -3t22 -1.5q60 0 60 48v38q0 64 -52 64h-90q-3 0 -3 2v209q0 5 6 5h169q2 0 2 -2v-39q0 -3 -2 -3h-133v-130h52q18 0 31.5 -3t30 -12t25.5 -31t9 -56v-46q0 -89 -105 -89z" />
<glyph unicode="&#x2086;" horiz-adv-x="266" d="M134 39q17 0 28 4t20 21.5t9 48.5v19q0 40 -14 55t-41 15q-7 0 -22 -3t-26 -7l-11 -3v-100q0 -26 16.5 -38t40.5 -12zM136 -3q-104 0 -104 90v229q0 29 10.5 49.5t28 29.5t33 12.5t31.5 3.5q15 0 29.5 -2t24.5 -4.5t17.5 -5t11.5 -4.5l4 -2q1 0 1 -3q0 -2 -4 -18l-4 -17 q0 -2 -3 -2l-5 1q-5 2 -12.5 4t-16.5 3.5t-20.5 3t-21.5 1.5q-59 0 -59 -52v-82q45 14 66 14q18 0 30.5 -3t28 -12.5t24 -33t8.5 -60.5v-27q0 -31 -7 -53t-16.5 -33.5t-24 -18t-25 -7.5t-25.5 -1z" />
<glyph unicode="&#x2087;" horiz-adv-x="263" d="M109 0h-44q-2 0 -1 2l116 356v5h-142q-2 0 -2 2v40q0 3 2 3h190q2 0 2 -2v-42q0 -1 -1 -2.5t-1 -2.5l-58 -178q-58 -178 -58 -179q-2 -2 -3 -2z" />
<glyph unicode="&#x2088;" horiz-adv-x="270" d="M135 39q29 0 43 13t14 51v24q0 64 -55 64q-59 0 -59 -64v-24q0 -37 14.5 -50.5t42.5 -13.5zM135 235q54 0 54 54v23q0 57 -52 57q-56 0 -56 -57v-23q0 -54 54 -54zM135 -4q-48 0 -74.5 21t-26.5 83v30q0 28 9.5 48.5t18.5 27.5l10 6v2q-4 2 -9.5 7t-15 23t-9.5 40v30 q0 97 99 97q41 0 67.5 -19.5t26.5 -77.5v-30q0 -22 -7.5 -39t-15.5 -23l-8 -7v-2q4 -2 10 -7t16.5 -26.5t10.5 -49.5v-30q0 -64 -27 -84t-75 -20z" />
<glyph unicode="&#x2089;" horiz-adv-x="269" d="M134 369q-17 0 -28 -4t-20 -21.5t-9 -48.5v-28q0 -40 14 -55t41 -15q8 0 22.5 3.5t25.5 7.5l11 3v108q0 26 -16.5 38t-40.5 12zM132 411q104 0 104 -90v-229q0 -29 -10.5 -49.5t-28 -29.5t-33 -12.5t-31.5 -3.5q-25 0 -46.5 4t-31 7.5t-10.5 4.5q-2 2 -1 4q1 1 4.5 17 t3.5 18q0 1 3 1l5 -1q5 -1 13 -2.5t17.5 -3.5t20.5 -3t21 -1q59 0 59 52v74q-45 -13 -66 -13q-18 0 -30.5 3t-28.5 12t-24.5 33t-8.5 60v35q0 38 9.5 63t26.5 34.5t30.5 12.5t32.5 3z" />
<glyph unicode="&#x20ac;" horiz-adv-x="485" d="M298 -7q-36 0 -63 4.5t-57 20t-49 42.5t-31.5 76t-12.5 116h-44q-3 0 -3 4v49q0 4 3 4h44v67h-44q-3 0 -3 4v49q0 4 3 4h44q0 145 55 199.5t160 54.5q20 0 39.5 -1.5t34 -4t27.5 -6t22 -6.5t15.5 -5.5t10.5 -4.5l4 -2q2 -4 1 -6l-22 -61q-2 -3 -4 -2q-3 1 -19.5 5.5 t-48 9.5t-60.5 5q-66 0 -95 -36.5t-33 -138.5h147q4 0 4 -4v-49q0 -4 -4 -4h-147v-67h147q4 0 4 -4v-49q0 -4 -4 -4h-147q3 -107 32.5 -142.5t93.5 -35.5q33 0 67.5 6.5t50 12t19.5 7.5q4 1 5 -2l22 -61q2 -3 -1 -6q-37 -19 -60 -25q-47 -13 -103 -13z" />
<glyph unicode="&#x2122;" horiz-adv-x="692" d="M342 291v387q0 2 2 2h66q3 0 3 -1l76 -223h5q72 220 73 222q2 2 3 2h66q1 0 1 -2v-387l-1 -2h-54q-1 0 -1 2v265h-7q-60 -182 -60 -183q-2 -3 -3 -3h-42q-3 0 -3 3l-60 183h-7v-265q0 -2 -2 -2h-53q-2 0 -2 2zM133 291v333h-87q-1 0 -1 2v52l1 2h231q2 0 2 -2v-52 q0 -2 -2 -2h-87v-333q0 -2 -2 -2h-53q-2 0 -2 2z" />
<glyph unicode="&#x2190;" horiz-adv-x="701" d="M184 326h456q4 0 4 -4v-64q0 -4 -4 -4h-456l188 -188q3 -3 0 -6l-45 -44q-3 -2 -5 0q-1 1 -136.5 135.5t-136.5 135.5q-3 3 0 6l273 273q2 2 5 0q2 -3 45 -46q2 -2 0 -5z" />
<glyph unicode="&#x2191;" horiz-adv-x="669" d="M370 460v-456q0 -4 -4 -4h-64q-4 0 -4 4v456q-186 -187 -188 -189q-3 -3 -6 0l-45 46q-3 3 0 5l272 272q3 3 6 0l272 -272q3 -2 0 -5q-2 -3 -45 -46q-2 -3 -5 0z" />
<glyph unicode="&#x2192;" horiz-adv-x="701" d="M517 255h-456q-4 0 -4 4v64q0 4 4 4h456l-188 188q-3 3 0 6l45 45q2 2 5 0q271 -271 273 -272q3 -3 0 -6l-273 -272q-3 -2 -5 0l-45 45q-3 3 0 5z" />
<glyph unicode="&#x2193;" horiz-adv-x="669" d="M299 135v456q0 4 4 4h64q4 0 4 -4v-456q186 187 188 189q3 3 6 0q42 -42 44 -46q3 -2 0 -5l-271 -272q-3 -3 -6 0l-273 272q-3 3 0 5l46 46q3 2 5 0z" />
<glyph unicode="&#x2194;" horiz-adv-x="903" d="M322 15l-273 272q-2 4 0 6l273 273q3 3 6 0l44 -45q3 -3 0 -6l-188 -189h535l-189 189q-3 3 0 6l46 45q2 2 5 0q271 -271 272 -273q3 -3 0 -6l-272 -272q-2 -3 -5 0l-46 45q-2 4 0 6l189 189h-535q187 -188 188 -189q3 -3 0 -6l-44 -45q-3 -3 -6 0z" />
<glyph unicode="&#x2195;" horiz-adv-x="669" d="M59 469q1 2 272 273q3 3 6 0l272 -273q3 -2 0 -5l-45 -45q-2 -3 -5 0l-189 188v-534q187 186 189 188q3 3 5 0l45 -45q3 -3 0 -6l-272 -272q-3 -3 -6 0l-9 10q-10 9 -25.5 25t-36 36.5t-43 42.5t-45 44.5t-42.5 43t-36 36t-26 24.5l-9 10q-2 4 0 6l45 45q3 3 6 0 l188 -188v534l-188 -188q-3 -3 -6 0l-45 45q-3 2 0 5z" />
<glyph unicode="&#x2196;" horiz-adv-x="557" d="M505 131q3 -3 0 -6l-45 -44q-3 -3 -6 0l-322 322v-266q0 -4 -4 -4h-64q-4 0 -4 4v384q0 4 4 4h385q4 0 4 -4v-63q0 -4 -4 -4h-267z" />
<glyph unicode="&#x2197;" horiz-adv-x="556" d="M102 80q-3 -3 -6 0l-44 45q-3 3 0 6l322 323h-266q-4 0 -4 4v63q0 4 4 4h384q4 0 4 -4v-385q0 -4 -4 -4h-63q-4 0 -4 4v267z" />
<glyph unicode="&#x2198;" horiz-adv-x="557" d="M52 473q-3 3 0 6l45 44q3 3 6 0l323 -322v267q0 4 4 4h63q4 0 4 -4v-385q0 -4 -4 -4h-385q-4 0 -4 4v64q0 4 4 4h267z" />
<glyph unicode="&#x2199;" horiz-adv-x="556" d="M454 524q3 3 6 0l44 -45q3 -3 0 -6l-322 -322h267q4 0 4 -4v-64q0 -4 -4 -4h-385q-4 0 -4 4v385q0 4 4 4h64q4 0 4 -4v-267z" />
<glyph unicode="&#x2212;" horiz-adv-x="325" d="M44 239q-3 0 -3 4v64q0 4 3 4h237q3 0 3 -4v-64q0 -4 -3 -4h-237z" />
<glyph unicode="&#x221a;" horiz-adv-x="877" d="M54 279l49 50q3 3 6 0l205 -205q452 452 453 454q2 2 6 0l49 -50q3 -3 0 -6l-505 -507q-2 -2 -6 0l-15 15l-36.5 36.5t-50 50.5t-54.5 55l-49.5 49.5t-37.5 36.5l-14 15q-2 4 0 6z" />
<glyph unicode="&#x2248;" horiz-adv-x="457" d="M60 182q0 7 5 12q2 4 13.5 14t33 20.5t40.5 10.5q30 0 78 -29t73 -29q18 0 37.5 11t32 22.5t14.5 11.5q3 0 3 -4v-44q0 -7 -4 -12q-4 -6 -14 -15.5t-31.5 -20.5t-43.5 -11q-29 0 -76 29.5t-72 29.5q-24 0 -55 -22l-31 -22q-3 0 -3 5v43zM60 379q0 8 5 13q2 4 13.5 13.5 t33 20t40.5 10.5q30 0 78 -29t73 -29q18 0 37.5 11.5t32 23t14.5 11.5q3 0 3 -4v-44q0 -8 -4 -13q-5 -6 -14 -14.5t-31 -20t-44 -11.5q-29 0 -76 29.5t-72 29.5q-18 0 -37.5 -11t-33 -22.5t-15.5 -11.5q-3 0 -3 6v42z" />
<glyph unicode="&#x2260;" horiz-adv-x="458" d="M92 31q-4 0 -2 4l45 105h-80q-3 0 -3 4v65q0 4 3 4h116l54 127h-170q-3 0 -3 4v64q0 4 3 4h206q44 102 46 105q3 4 6 4h53q3 0 2 -4l-46 -105h80q3 0 3 -4v-64q0 -4 -3 -4h-117l-53 -127h170q3 0 3 -4v-65q0 -4 -3 -4h-206q-45 -102 -46 -105q-3 -4 -5 -4h-53z" />
<glyph unicode="&#x2264;" horiz-adv-x="458" d="M402 137l-347 162q-3 1 -3 5v58q0 2 3 4l348 162q1 1 2 0.5t1 -3.5v-69q0 -4 -3 -5l-241 -116v-5q238 -114 241 -115t3 -6v-69q0 -5 -4 -3zM55 0q-3 0 -3 4v64q0 4 3 4h348q3 0 3 -4v-64q0 -4 -3 -4h-348z" />
<glyph unicode="&#x2265;" horiz-adv-x="458" d="M55 137q-3 -1 -3 3v69q0 5 3 6l241 115v5q-239 114 -241 116q-3 1 -3 5v69q2 3 3 3l347 -162q3 -2 3 -4v-58q0 -4 -3 -5zM403 0h-348q-3 0 -3 4v64q0 4 3 4h348q3 0 3 -4v-64q0 -4 -3 -4z" />
<glyph unicode="&#x25b2;" horiz-adv-x="717" d="M699 267v-96l-3 -3l-332 239h-9q-331 -238 -333 -240q-1 -1 -2 1q-1 1 -1 2v97q0 2 4 5t165 119t163 118q8 6 16 0q249 -180 329 -237q3 -2 3 -5z" />
<glyph unicode="&#x25ba;" horiz-adv-x="520" d="M178 0h-96q-5 0 -3 3l239 332v9q-238 331 -240 333q-3 3 3 3h97q2 0 5 -4t119 -165t118 -163q5 -8 0 -16q-148 -204 -237 -329q-1 -3 -5 -3z" />
<glyph unicode="&#x25bc;" horiz-adv-x="717" d="M19 412v95q0 4 1 4t2 -1l332 -238h9q331 238 332 239q4 4 4 -3v-96q0 -2 -4 -5t-165 -119t-163 -118q-8 -5 -16 0l-329 237q-3 1 -3 5z" />
<glyph unicode="&#x25c4;" horiz-adv-x="520" d="M342 680h96q5 0 3 -3l-239 -332v-9q238 -331 240 -333q3 -3 -3 -3h-97q-2 0 -5 4t-119 165t-118 163q-5 8 0 16q148 204 237 329q1 3 5 3z" />
<glyph unicode="&#x25fc;" horiz-adv-x="480" d="M0 480h480v-480h-480v480z" />
<glyph horiz-adv-x="460" />
<glyph horiz-adv-x="460" d="M228 69q29 0 46.5 5.5t33 22.5t22.5 52.5t7 91.5v203q0 72 -14 109.5t-35 47.5t-60 10q-28 0 -45.5 -5.5t-33 -21.5t-22.5 -50.5t-7 -89.5v-203q0 -57 7.5 -93t23.5 -52.5t33 -21.5t44 -5zM228 -10q-35 0 -57 3t-51 16t-45.5 38t-28.5 72t-12 114v220q0 64 11.5 109.5 t28 70t45 38t51.5 16.5t58 3t56.5 -2.5t51 -15.5t46.5 -36.5t29.5 -70t12.5 -112.5v-220q0 -49 -6.5 -87.5t-15.5 -63.5t-25.5 -43t-31.5 -27.5t-37.5 -14.5t-38.5 -6t-41 -1z" />
<glyph horiz-adv-x="460" d="M299 0h-75q-3 0 -3 4v579q-105 -93 -107 -94q-3 -3 -3 1q0 2 -9.5 35t-9.5 34q0 4 3 7q2 1 61.5 55.5t61.5 56.5t6 2h75q3 0 3 -4v-672q0 -4 -3 -4z" />
<glyph horiz-adv-x="460" d="M390 0h-325q-2 0 -2 2v76q0 2 2 6q16 22 51.5 69t51.5 68.5t43 59t39.5 58.5t27.5 47.5t21 45t6 33.5v66q0 27 -8 44t-23.5 24.5t-29.5 10t-33 2.5q-26 0 -58.5 -5t-51 -10t-20.5 -6q-4 -2 -4 2q0 2 -7 31.5t-7 30.5q0 4 2 5q3 3 17.5 9t51.5 13.5t79 7.5q177 0 177 -152 v-77q0 -41 -32 -105t-65.5 -113.5t-109.5 -155.5v-9h207q3 0 3 -4v-70q0 -4 -3 -4z" />
<glyph horiz-adv-x="460" d="M66 17q-3 1 -1 5q0 2 6 32t6 31q0 2 5 2q2 -1 22 -5.5t54.5 -9t61.5 -4.5q19 0 33 2t30 9.5t24.5 24.5t8.5 44v64q0 41 -17 64.5t-33 28t-33 4.5h-64q-4 0 -4 4v67q0 4 4 4h64q29 0 50.5 21.5t21.5 62.5v64q0 27 -8.5 44.5t-24 25t-28.5 9.5t-31 2q-27 0 -59.5 -5 t-51 -9.5t-20.5 -5.5t-3.5 0t-1.5 2q0 2 -6.5 32t-6.5 31q0 4 2 5q54 27 146 27q26 0 45.5 -2t46 -10.5t43.5 -23.5t29 -44.5t12 -69.5v-72q0 -33 -11 -61.5t-22 -40.5l-11 -11v-7q2 -1 6 -4t13.5 -13.5t16.5 -24t13 -38t6 -52.5v-76q0 -40 -12 -69t-28.5 -44t-43 -24 t-47 -11t-48.5 -2q-42 0 -80.5 7t-55.5 13z" />
<glyph horiz-adv-x="460" d="M354 0h-71q-4 0 -4 4v121h-230q-2 0 -2 4v76q0 1 2 7l163 464q2 4 4 4h80q4 0 2 -4l-159 -464v-8h140v135q0 4 3 4h72q4 0 4 -4v-135h55q4 0 4 -4v-71q0 -4 -4 -4h-55v-121q0 -4 -4 -4z" />
<glyph horiz-adv-x="460" d="M222 -10q-76 0 -154 26q-3 1 -1 6l12 62q1 2 5 2l9 -2q9 -2 24 -5t32 -5.5t37 -4.5t36 -2q19 0 33 2.5t30 9.5t25 24.5t9 43.5v66q0 104 -84 104h-151q-3 0 -3 4v351q0 8 7 8h289q3 0 3 -4v-67q0 -4 -3 -4h-221v-214h81q24 0 42.5 -2t43 -12t41 -27t28 -50t11.5 -78v-83 q0 -41 -13.5 -70.5t-31 -44.5t-45.5 -23t-46.5 -9.5t-44.5 -1.5z" />
<glyph horiz-adv-x="460" d="M229 63q19 0 32.5 4t28 15t22 37t7.5 65v37q0 66 -22 90.5t-64 24.5q-12 0 -36 -5.5t-41 -10.5l-18 -6v-169q0 -42 26 -62t65 -20zM233 -10q-30 0 -56.5 5.5t-56 20t-47 47t-17.5 79.5v389q0 40 13 70t32 46.5t44.5 26.5t45.5 13t40 3q19 0 37.5 -1.5t32.5 -4t26.5 -5.5 t21.5 -6t15.5 -5.5t10.5 -4.5l4 -2q2 -1 2 -5q-15 -60 -15 -61q0 -2 -4 -2q-1 0 -9 2t-21 4.5t-29 5.5t-35 5t-36 2q-94 0 -94 -85v-139q75 22 109 22q24 0 40.5 -2t39.5 -12t37.5 -28t25 -53.5t10.5 -85.5v-50q0 -51 -11.5 -88t-27.5 -56t-41 -30t-43.5 -13t-43.5 -2z" />
<glyph horiz-adv-x="460" d="M197 0h-81q-4 0 -3 4l192 589v9h-234q-3 0 -3 4v69q0 5 3 5h322q3 0 3 -3v-73q0 -2 -2 -8q0 -1 -95.5 -295.5t-96.5 -296.5q-1 -4 -5 -4z" />
<glyph horiz-adv-x="460" d="M229 63q45 0 67.5 21t22.5 84v44q0 61 -23.5 82.5t-64.5 21.5q-92 0 -92 -104v-44q0 -62 22.5 -83.5t67.5 -21.5zM229 393q85 0 85 88v44q0 92 -83 92q-37 0 -62.5 -20.5t-25.5 -71.5v-44q0 -88 86 -88zM228 -11q-30 0 -52 3.5t-46 14t-39 29t-25 50.5t-10 76v55 q0 28 6.5 52.5t16 39.5t18.5 25.5t15 15.5l7 4v3q-6 4 -15 11.5t-24 38t-15 67.5v55q0 161 167 161q31 0 55.5 -5.5t50.5 -21t40.5 -49.5t14.5 -85v-55q0 -36 -13 -65.5t-26 -40.5l-13 -11v-3q2 -1 6.5 -4t14.5 -14.5t18 -25.5t14.5 -39t6.5 -54v-55q0 -45 -10 -77.5 t-25 -51t-39.5 -28.5t-46.5 -13t-52 -3z" />
<glyph horiz-adv-x="460" d="M229 616q-20 0 -34 -4t-28 -15t-21.5 -37t-7.5 -65v-49q0 -66 22 -91t64 -25q12 0 35.5 6t40.5 12l18 5v181q0 42 -25.5 62t-63.5 20zM224 689q30 0 56.5 -5.5t56 -20t47 -46.5t17.5 -79v-386q0 -40 -13 -71t-32 -47.5t-44.5 -26.5t-45.5 -13t-40 -3q-98 0 -150 26 q-3 2 -2 6q1 3 8 31t7 30q0 3 4 3q2 -1 21 -5t51.5 -8.5t59.5 -4.5q93 0 93 85v125q-74 -22 -108 -22q-24 0 -40.5 2t-39.5 12t-37.5 28t-25 53.5t-10.5 85.5v62q0 52 11.5 89t27.5 55.5t41 29.5t43.5 13t43.5 2z" />
<glyph horiz-adv-x="460" d="M190 99q-4 0 -4 4v89q0 4 4 4h80q3 0 3 -4v-89q0 -4 -3 -4h-80zM190 481q-4 0 -4 4v89q0 4 4 4h80q3 0 3 -4v-89q0 -4 -3 -4h-80z" />
<glyph horiz-adv-x="380" d="M87 136q-1 4 0 6q1 0 8 7.5t15.5 16.5t15.5 16l7 8q3 2 5 0l154 -179q3 -3 0 -6l-45 -47q-4 -4 -5 0z" />
<glyph horiz-adv-x="357" d="M220 431q-4 0 -2 4l32 78q2 4 5 4h51q3 0 2 -4l-32 -78q-3 -4 -5 -4h-51zM50 -37q-3 0 -2 4q1 3 15.5 37.5t15.5 36.5q1 4 6 4h50q3 0 3 -4l-33 -75q-1 -3 -4 -3h-51z" />
<glyph horiz-adv-x="495" d="M319 602q-3 0 -2 4q1 2 26 55t26 55q1 4 5 4h65q3 0 2 -4q-1 -1 -26 -54.5t-26 -55.5q-3 -4 -5 -4h-65zM47 -40q-2 0 -1 4q1 2 23.5 51.5t23.5 52.5q3 4 6 4h65q5 0 2 -4q-1 -2 -24 -52t-24 -52q-4 -4 -5 -4h-66z" />
<glyph horiz-adv-x="1002" d="M251 -10q-119 0 -189 35q-3 1 -1 5l20 66q2 3 4 2q5 -2 24 -8.5t61.5 -14t83.5 -7.5q37 0 59.5 4.5t41 25t18.5 59.5v60q0 43 -29.5 62t-91.5 25q-109 11 -149 47t-40 117v73q0 149 190 149q111 0 169 -29q2 -1 2 -6l-21 -61q-1 -3 -4 -3q-3 1 -21 5.5t-54 10t-70 5.5 q-48 0 -76 -16t-28 -63v-59q0 -42 26 -62t92 -27q107 -11 149.5 -46t42.5 -117v-74q0 -42 -13.5 -72t-33 -46.5t-49.5 -25.5t-55 -11.5t-58 -2.5zM728 -10q-119 0 -189 35q-3 1 -1 5l20 66q2 3 4 2q5 -2 24 -8.5t61.5 -14t83.5 -7.5q37 0 59.5 4.5t41 25t18.5 59.5v60 q0 43 -29.5 62t-91.5 25q-109 11 -149 47t-40 117v73q0 149 190 149q111 0 169 -29q2 -1 2 -6l-21 -61q-1 -3 -4 -3q-3 1 -21 5.5t-54 10t-70 5.5q-48 0 -76 -16t-28 -63v-59q0 -42 26 -62t92 -27q107 -11 149.5 -46t42.5 -117v-74q0 -42 -13.5 -72t-33 -46.5t-49.5 -25.5 t-55 -11.5t-58 -2.5z" />
<glyph horiz-adv-x="412" d="M84 0h-75q-3 0 -1 3q1 2 77.5 269.5t76.5 268.5q0 3 3 3h83q3 0 3 -2l153 -539q2 -3 -3 -3h-73q-2 0 -3 3l-29 108h-182q-26 -106 -27 -108q-1 -3 -3 -3zM133 176h145l-65 259h-13z" />
<glyph horiz-adv-x="403" d="M126 65h88q16 0 27.5 2t24 8.5t19 20.5t6.5 35v46q0 69 -78 69h-87v-181zM126 308h84q26 0 39 -3q23 48 23 87q0 29 -5.5 48t-17 26.5t-22.5 10t-28 2.5h-73v-171zM220 0h-170v544h160q27 0 46 -4t42.5 -16.5t36.5 -43.5t13 -79q0 -44 -32 -117q51 -30 51 -106v-49 q0 -44 -11.5 -71.5t-35.5 -39.5t-45 -15t-55 -3z" />
<glyph horiz-adv-x="374" d="M209 -4q-38 0 -64 6t-53.5 24t-42 60t-14.5 106v165q0 51 10.5 87t26 56t40 31t46 14t51.5 3q39 0 70 -6.5t41 -11.5t12 -7q3 -2 2 -4t-11.5 -29t-10.5 -28q0 -4 -4 -2l-15 5t-37 8t-47 4q-21 0 -34.5 -3.5t-29.5 -15t-24.5 -39t-8.5 -70.5v-150q0 -79 24.5 -104.5 t72.5 -25.5q62 0 106 22q1 1 3 -2q1 -2 11.5 -28.5t10.5 -27.5q1 -3 -1 -4l-2 -1q-2 -2 -5 -3.5t-8 -4.5t-11.5 -5.5t-14 -5t-17.5 -5t-20.5 -4.5t-24 -3t-27.5 -1z" />
<glyph horiz-adv-x="416" d="M126 72h82q48 0 71 24.5t23 104.5v145q0 43 -7 69.5t-22 38t-28.5 15t-36.5 3.5h-82v-400zM208 0h-158v544h158q28 0 45.5 -1.5t44 -12t42 -29t27.5 -56.5t12 -91v-159q0 -39 -6 -70t-14.5 -51.5t-23 -34.5t-27.5 -21.5t-32.5 -11.5t-33 -5t-34.5 -1z" />
<glyph horiz-adv-x="370" d="M50 0v544h287q3 0 3 -3v-64q0 -3 -3 -3h-211v-163h179q3 0 3 -3v-64q0 -3 -3 -3h-179v-171h211q3 0 3 -3v-64q0 -3 -3 -3h-287z" />
<glyph horiz-adv-x="366" d="M52 0q-2 1 -2 3v541h287q3 0 3 -3v-64q0 -3 -3 -3h-211v-189h179q3 0 3 -3v-63q0 -3 -3 -3h-179v-213q0 -3 -2 -3h-72z" />
<glyph horiz-adv-x="411" d="M205 -4q-36 0 -61 6t-52.5 24t-42 60t-14.5 106v165q0 52 11.5 89.5t27.5 56.5t42 30t45.5 13t46.5 2q38 0 73.5 -6.5t51 -12t19.5 -7.5q2 -2 1 -4l-21 -56q-1 -2 -3 -1l-7 1q-8 2 -20.5 4.5t-27.5 5t-32.5 4t-32.5 1.5q-21 0 -34 -3t-29.5 -14.5t-25 -39t-8.5 -71.5 v-151q0 -80 24.5 -105t69.5 -25q11 0 35 4t42 8l18 3v140h-69q-3 0 -3 3v60q0 3 3 3h136v-263q-115 -30 -163 -30z" />
<glyph horiz-adv-x="435" d="M52 0q-2 0 -2 3v538q0 3 2 3h72q2 0 2 -3v-233h182v233q0 3 4 3h70q3 0 3 -3v-538q0 -3 -3 -3h-70q-4 0 -4 3v237h-182v-237q0 -3 -2 -3h-72z" />
<glyph horiz-adv-x="176" d="M52 0q-2 0 -2 3v538q0 3 2 3h72q2 0 2 -3v-538q0 -3 -2 -3h-72z" />
<glyph horiz-adv-x="328" d="M135 -5q-26 0 -53.5 4.5t-40.5 8.5t-16 5q-2 1 -1 4l18 58q1 3 4 2l6 -1q5 -1 14 -2.5t19.5 -3t23 -2.5t23.5 -1q23 0 36.5 3.5t25 20.5t11.5 49v401q0 3 3 3h70q3 0 3 -3v-405q0 -39 -9.5 -66t-22.5 -41.5t-34.5 -22.5t-38.5 -9.5t-41 -1.5z" />
<glyph horiz-adv-x="405" d="M52 0q-2 1 -2 3v538l2 3h72q2 0 2 -3v-232h24q138 229 140 232t4 3h81q3 0 1 -3l-163 -265q173 -271 174 -273q1 -3 -1 -3h-82q-2 0 -4 3l-146 237h-28v-237q0 -3 -2 -3h-72z" />
<glyph horiz-adv-x="355" d="M50 0v541q0 3 2 3h72q2 0 2 -3v-471h211q3 0 3 -3v-63q0 -4 -3 -4h-287z" />
<glyph horiz-adv-x="522" d="M52 0q-2 1 -2 3v539q0 2 2 2h88q4 0 5 -2l114 -321h8q110 318 111 320q2 3 5 3h87q3 0 3 -2v-539q0 -3 -3 -3h-70q-2 0 -2 3v382h-11q-92 -267 -93 -269q-2 -3 -4 -3h-56q-5 0 -6 4l-93 267h-10v-381q0 -3 -3 -3h-70z" />
<glyph horiz-adv-x="441" d="M51 0q-2 0 -2 3v538l2 3h85q2 0 4 -3l172 -400h8v400q0 3 3 3h69q3 0 3 -3v-538q0 -3 -3 -3h-85q-1 0 -4 3l-172 403h-8v-403q0 -3 -3 -3h-69z" />
<glyph horiz-adv-x="410" d="M205 67q47 0 70.5 25t23.5 106v151q0 79 -23.5 103.5t-70.5 24.5q-46 0 -69.5 -24.5t-23.5 -103.5v-151q0 -83 23.5 -107t69.5 -24zM205 -4q-29 0 -48.5 2t-44.5 13t-40 31t-26 57.5t-11 91.5v166q0 51 10.5 88t25.5 56.5t40 30.5t45 13.5t49 2.5q28 0 47 -2t44.5 -12.5 t41 -30t26.5 -56.5t11 -90v-166q0 -54 -11 -92.5t-26 -58t-41 -30t-44.5 -12.5t-47.5 -2z" />
<glyph horiz-adv-x="397" d="M126 280h90q79 0 79 77v40q0 34 -13 52t-27.5 21.5t-37.5 3.5h-91v-194zM124 0h-72q-2 1 -2 3v541h169q23 0 40 -1.5t40 -9.5t37 -22.5t24.5 -42t10.5 -66.5v-50q0 -38 -11 -66t-26.5 -42.5t-38.5 -22.5t-39 -9.5t-37 -1.5h-93v-207q0 -3 -2 -3z" />
<glyph horiz-adv-x="408" d="M205 -4q-29 0 -48.5 2t-44.5 13t-40 31t-26 57.5t-11 91.5v166q0 51 10.5 88t25.5 56.5t40 30.5t45 13.5t49 2.5q28 0 47 -2t44.5 -12.5t41 -30t26.5 -56.5t11 -90v-166q0 -91 -29 -138q33 -38 34 -38q2 -1 0 -5l-40 -42q0 -4 -4 0l-37 43q-32 -15 -94 -15zM210 115 q-2 3 0 5l39 42q2 2 4 0l5 -6q4 -5 13.5 -16.5t17.5 -20.5q10 32 10 79v151q0 79 -23.5 103.5t-70.5 24.5q-46 0 -69.5 -24.5t-23.5 -103.5v-151q0 -83 23.5 -107t69.5 -24q26 0 41 5z" />
<glyph horiz-adv-x="413" d="M126 279h90q79 0 79 78v40q0 26 -6.5 42.5t-19.5 23.5t-24.5 9t-27.5 2h-91v-195zM124 0h-72q-2 1 -2 3v541h169q29 0 50.5 -4t47.5 -17t40 -44.5t14 -80.5v-43q0 -104 -72 -132l87 -220q2 -3 -3 -3h-78q-3 0 -4 3l-76 206h-99v-206q0 -3 -2 -3z" />
<glyph horiz-adv-x="399" d="M197 -4q-92 0 -154 31q-2 1 -1 4l10 29q10 29 11 30q1 2 3 2q5 -2 19 -7t47.5 -12t66.5 -7q43 0 66.5 12.5t23.5 53.5v42q0 32 -22.5 46t-71.5 19q-86 9 -118.5 38.5t-32.5 94.5v56q0 120 154 120q41 0 75.5 -6.5t47.5 -11.5t15 -7q4 -2 2 -5q0 -1 -9.5 -27.5 t-10.5 -28.5q-1 -3 -3 -2q-3 1 -16.5 5t-42.5 8.5t-56 4.5q-36 0 -57 -12t-21 -47v-40q0 -32 19.5 -47t70.5 -20q86 -9 120.5 -37.5t34.5 -95.5v-55q0 -42 -15 -69t-43 -39t-53 -16t-59 -4z" />
<glyph horiz-adv-x="363" d="M146 0q-3 0 -3 3v470h-129q-2 0 -2 3v65q0 3 2 3h333q4 0 4 -3v-65q0 -3 -4 -3h-129v-470q0 -3 -2 -3h-70z" />
<glyph horiz-adv-x="424" d="M198 -4q-87 0 -120 49t-33 168v328q0 3 2 3h72q2 0 2 -3v-321q0 -85 14 -118.5t63 -33.5h30q49 0 62.5 32.5t13.5 119.5v321q0 3 3 3h70q3 0 3 -3v-328q0 -116 -30.5 -166.5t-121.5 -50.5h-30z" />
<glyph horiz-adv-x="410" d="M161 0q-1 0 -3 3q0 2 -73.5 268t-74.5 270q0 3 2 3h74q2 0 3 -3l110 -422h11q110 419 111 422q0 3 3 3h73q3 0 2 -3l-150 -538q-1 -3 -4 -3h-84z" />
<glyph horiz-adv-x="574" d="M128 0q-3 0 -3 3q0 2 -55 269t-56 269q-2 3 1 3h74q1 0 3 -3l79 -415h13q70 310 71 312t3 2h60q3 0 4 -3l70 -311h13q77 413 78 415q1 3 4 3h73q4 0 3 -3q-1 -2 -56 -269t-55 -269q-2 -3 -5 -3h-87q-4 0 -4 3l-64 302h-8q-63 -298 -63 -302q-1 0 -2.5 -1.5t-2.5 -1.5h-88 z" />
<glyph horiz-adv-x="384" d="M13 0q-3 0 -1 3l138 280q-126 256 -128 258q-2 3 3 3h77q2 0 3 -3l85 -181h4q83 179 84 181q3 3 4 3h78q4 0 2 -3l-128 -258q138 -278 139 -280q1 -3 -2 -3h-78q-3 0 -4 3l-95 204h-4q-94 -202 -95 -204l-1 -1q-1 -2 -2 -2h-79z" />
<glyph horiz-adv-x="370" d="M150 0q-3 0 -3 3v213q-138 323 -139 325q-2 3 1 3h77q2 0 3 -3l95 -235h4q92 233 94 235l3 3h75q4 0 2 -3l-139 -325v-213q0 -3 -2 -3h-71z" />
<glyph horiz-adv-x="367" d="M32 0q-2 0 -2 2v68q0 4 1 6l215 390v7h-206q-2 0 -2 3v64q0 4 2 4h292q3 0 3 -4v-65q0 -7 -2 -9l-214 -388v-8h213q3 0 3 -3v-64q0 -3 -2 -3h-301z" />
<glyph horiz-adv-x="301" d="M55 469q-2 0 -2 3v69l2 3h57q3 0 3 -3v-69q0 -3 -3 -3h-57zM190 469q-3 0 -3 3v69q0 3 3 3h55q3 0 3 -3v-69q0 -3 -3 -3h-55z" />
<glyph horiz-adv-x="301" d="M153 446l-63 111q-2 3 1 3h65q2 0 3 -3l50 -111q1 -3 -1 -3h-51q-3 0 -4 3z" />
<glyph horiz-adv-x="301" d="M106 442h-51q-3 0 -1 4q5 12 30.5 55.5t30.5 55.5q1 3 5 3h60q5 0 6 -3q0 -1 15.5 -28.5t30.5 -55t15 -28.5q0 -2 -1 -3h-51q-3 0 -5 4l-38 64h-3q-37 -62 -38 -64q-2 -4 -5 -4z" />
<glyph horiz-adv-x="301" d="M59 467q-2 0 -2 4v39q0 6 3 10l3 3q3 3 5.5 6t7 6.5t9 6t11 4.5t13.5 2q19 0 45 -15t40 -15q15 0 30 14t17 14t2 -3v-39q0 -8 -3 -12q-23 -29 -51 -29q-18 0 -43.5 16t-38.5 16q-16 0 -32 -14z" />
<glyph horiz-adv-x="301" d="M245 479h-188q-2 0 -2 3v52q0 3 2 3h188q2 0 2 -3v-52q0 -3 -2 -3z" />
<glyph horiz-adv-x="302" d="M148 446q0 -3 -3 -3h-52q-3 0 -1 3q0 1 12.5 28.5t25.5 55.5l12 27q2 3 4 3h64q4 0 1 -3z" />
<glyph horiz-adv-x="302" d="M163 -122h-65l-1 4l12 30q12 31 24.5 61.5t12.5 31.5q3 3 5 3h51q2 0 1 -3l-36 -123q-1 -4 -4 -4z" />
<glyph horiz-adv-x="301" d="M151 448q-94 0 -94 97q0 4 4 4h30q6 0 7 -4q7 -28 18 -37t35 -9q22 0 32.5 9.5t18.5 36.5q1 4 6 4h32q4 0 4 -4q-5 -97 -93 -97z" />
<glyph horiz-adv-x="301" d="M116 466q-2 0 -2 3v72q0 3 2 3h68q2 0 2 -3v-72q0 -3 -3 -3h-67z" />
<glyph horiz-adv-x="301" d="M148 464q11 0 17.5 2t11.5 10t5 24v10q0 21 -8 28t-24 7q-17 0 -26 -7t-9 -28v-10q0 -22 8.5 -29t24.5 -7zM148 429q-19 0 -32 3.5t-24 19.5t-11 44v18q0 66 69 66q13 0 22.5 -2t20.5 -8t16.5 -20t5.5 -36v-18q0 -42 -18 -54.5t-49 -12.5z" />
<glyph horiz-adv-x="301" d="M200 446q-2 -3 -4 -3h-51q-2 0 -2 3l13 28q12 27 24.5 54.5t13.5 28.5q0 3 4 3h64q4 0 1 -3q0 -1 -16 -28t-31.5 -54.5t-15.5 -28.5zM98 446q-2 -3 -4 -3h-51q-3 0 -1 3l49 111q1 3 4 3h65q2 0 1 -3q0 -1 -16 -28t-31.5 -54.5t-15.5 -28.5z" />
<glyph horiz-adv-x="302" d="M150 -143q-28 0 -44 12t-16 48q0 49 48 88q4 3 10 3h53q2 0 3 -2.5t-2 -4.5q-57 -46 -57 -71q0 -18 16 -18q4 0 8.5 2t7.5 4l3 1q4 3 5 0l18 -34q2 -4 -1 -7q-16 -21 -52 -21z" />
<glyph horiz-adv-x="301" d="M194 559h53q3 0 2 -3l-70 -111q-2 -4 -5 -4h-48q-4 0 -5 3q-6 12 -35 56t-35 56q-1 3 1 3h54q1 0 4 -3l39 -64h3q36 62 38 64q3 3 4 3z" />
<glyph horiz-adv-x="412" d="M84 0h-75q-3 0 -1 3q1 2 77.5 269.5t76.5 268.5q0 3 3 3h83q3 0 3 -2l153 -539q2 -3 -3 -3h-73q-2 0 -3 3l-29 108h-182q-26 -106 -27 -108q-1 -3 -3 -3zM133 176h145l-65 259h-13zM209 606l-63 111q-2 3 1 3h65q2 0 3 -3l50 -111q1 -3 -1 -3h-51q-3 0 -4 3z" />
<glyph horiz-adv-x="412" d="M84 0h-75q-3 0 -1 3q1 2 77.5 269.5t76.5 268.5q0 3 3 3h83q3 0 3 -2l153 -539q2 -3 -3 -3h-73q-2 0 -3 3l-29 108h-182q-26 -106 -27 -108q-1 -3 -3 -3zM133 176h145l-65 259h-13zM201 606q0 -3 -3 -3h-52q-2 0 -1 3q0 1 12.5 28.5t24.5 55.5l13 27q1 3 4 3h64q4 0 1 -3 z" />
<glyph horiz-adv-x="412" d="M84 0h-75q-3 0 -1 3q1 2 77.5 269.5t76.5 268.5q0 3 3 3h83q3 0 3 -2l153 -539q2 -3 -3 -3h-73q-2 0 -3 3l-29 108h-182q-26 -106 -27 -108q-1 -3 -3 -3zM133 176h145l-65 259h-13zM161 602h-51q-3 0 -1 4q5 12 30.5 55.5t30.5 55.5q2 3 5 3h60q5 0 6 -3q0 -1 15.5 -28.5 t30.5 -55t15 -28.5q0 -2 -1 -3h-51q-3 0 -5 4l-38 64h-3q-37 -62 -38 -64q-2 -4 -5 -4z" />
<glyph horiz-adv-x="412" d="M84 0h-75q-3 0 -1 3q1 2 77.5 269.5t76.5 268.5q0 3 3 3h83q3 0 3 -2l153 -539q2 -3 -3 -3h-73q-2 0 -3 3l-29 108h-182q-26 -106 -27 -108q-1 -3 -3 -3zM133 176h145l-65 259h-13zM114 627q-2 0 -2 4v39q0 6 3 10l3 3q3 3 5.5 6t7 6.5t9 6t11 4.5t13.5 2q19 0 45 -15 t40 -15q15 0 30 14t17 14t2 -3v-39q0 -8 -3 -12q-23 -29 -51 -29q-18 0 -43.5 16t-38.5 16q-16 0 -32 -14z" />
<glyph horiz-adv-x="412" d="M84 0h-75q-3 0 -1 3q1 2 77.5 269.5t76.5 268.5q0 3 3 3h83q3 0 3 -2l153 -539q2 -3 -3 -3h-73q-2 0 -3 3l-29 108h-182q-26 -106 -27 -108q-1 -3 -3 -3zM133 176h145l-65 259h-13zM110 629q-2 0 -2 3v69l2 3h57q3 0 3 -3v-69q0 -3 -3 -3h-57zM245 629q-3 0 -3 3v69 q0 3 3 3h55q3 0 3 -3v-69q0 -3 -3 -3h-55z" />
<glyph horiz-adv-x="412" d="M84 0h-75q-3 0 -1 3q1 2 77.5 269.5t76.5 268.5q0 3 3 3h83q3 0 3 -2l153 -539q2 -3 -3 -3h-73q-2 0 -3 3l-29 108h-182q-26 -106 -27 -108q-1 -3 -3 -3zM133 176h145l-65 259h-13zM205 589q-19 0 -32 3.5t-24 19.5t-11 44v18q0 66 69 66q13 0 22.5 -2t20.5 -8t16.5 -20 t5.5 -36v-18q0 -42 -18 -54.5t-49 -12.5zM205 624q11 0 17.5 2t11.5 10t5 24v10q0 21 -8 28t-24 7q-17 0 -26 -7t-9 -28v-10q0 -22 8.5 -29t24.5 -7z" />
<glyph horiz-adv-x="374" d="M200 -122h-65l-1 4q4 4 45 115q-66 4 -105 45t-39 150v165q0 51 10.5 87t26 56t40 31t46 14t51.5 3q39 0 70 -6.5t41 -11.5t12 -7q3 -2 2 -4t-11.5 -29t-10.5 -28q0 -4 -4 -2l-15 5t-37 8t-47 4q-21 0 -34.5 -3.5t-29.5 -15t-24.5 -39t-8.5 -70.5v-150q0 -79 24.5 -104.5 t72.5 -25.5q62 0 106 22q1 1 3 -2q1 -2 11.5 -28.5t10.5 -27.5q1 -3 -1 -4l-1 -1l-5 -2.5t-6.5 -3.5t-8.5 -4.5t-11 -5t-14 -4.5l-16 -4t-18 -3.5t-21 -2.5l-34 -116q-1 -4 -4 -4z" />
<glyph horiz-adv-x="370" d="M50 0v544h287q3 0 3 -3v-64q0 -3 -3 -3h-211v-163h179q3 0 3 -3v-64q0 -3 -3 -3h-179v-171h211q3 0 3 -3v-64q0 -3 -3 -3h-287zM188 606l-63 111q-1 3 1 3h65q1 0 3 -3l50 -111q2 -3 -1 -3h-51q-2 0 -4 3z" />
<glyph horiz-adv-x="370" d="M50 0v544h287q3 0 3 -3v-64q0 -3 -3 -3h-211v-163h179q3 0 3 -3v-64q0 -3 -3 -3h-179v-171h211q3 0 3 -3v-64q0 -3 -3 -3h-287zM187 606q0 -3 -3 -3h-52q-2 0 -1 3q0 1 12.5 28.5t24.5 55.5l13 27q1 3 4 3h64q4 0 1 -3z" />
<glyph horiz-adv-x="370" d="M50 0v544h287q3 0 3 -3v-64q0 -3 -3 -3h-211v-163h179q3 0 3 -3v-64q0 -3 -3 -3h-179v-171h211q3 0 3 -3v-64q0 -3 -3 -3h-287zM147 602h-51q-3 0 -1 4q5 12 30.5 55.5t30.5 55.5q2 3 5 3h60q5 0 6 -3q0 -1 15.5 -28.5t30.5 -55t15 -28.5q0 -2 -1 -3h-51q-3 0 -5 4 l-38 64h-3q-37 -62 -38 -64q-2 -4 -5 -4z" />
<glyph horiz-adv-x="370" d="M50 0v544h287q3 0 3 -3v-64q0 -3 -3 -3h-211v-163h179q3 0 3 -3v-64q0 -3 -3 -3h-179v-171h211q3 0 3 -3v-64q0 -3 -3 -3h-287zM92 629q-2 0 -2 3v69l2 3h57q3 0 3 -3v-69q0 -3 -3 -3h-57zM227 629q-3 0 -3 3v69q0 3 3 3h55q3 0 3 -3v-69q0 -3 -3 -3h-55z" />
<glyph horiz-adv-x="176" d="M52 0q-2 0 -2 3v538q0 3 2 3h72q2 0 2 -3v-538q0 -3 -2 -3h-72zM92 606l-63 111q-1 3 1 3h65q1 0 3 -3l50 -111q2 -3 -1 -3h-51q-2 0 -4 3z" />
<glyph horiz-adv-x="176" d="M52 0q-2 0 -2 3v538q0 3 2 3h72q2 0 2 -3v-538q0 -3 -2 -3h-72zM84 606q0 -3 -3 -3h-52q-3 0 -1 3q0 1 12.5 28.5t25.5 55.5l12 27q2 3 4 3h64q4 0 1 -3z" />
<glyph horiz-adv-x="176" d="M52 0q-2 0 -2 3v538q0 3 2 3h72q2 0 2 -3v-538q0 -3 -2 -3h-72zM43 602h-51q-3 0 -1 4q5 12 30.5 55.5t30.5 55.5q2 3 5 3h60q5 0 6 -3q0 -1 15.5 -28.5t30.5 -55t15 -28.5q0 -2 -1 -3h-51q-3 0 -5 4l-38 64h-3q-37 -62 -38 -64q-2 -4 -5 -4z" />
<glyph horiz-adv-x="176" d="M52 0q-2 0 -2 3v538q0 3 2 3h72q2 0 2 -3v-538q0 -3 -2 -3h-72zM-7 629q-2 0 -2 3v69l2 3h57q3 0 3 -3v-69q0 -3 -3 -3h-57zM128 629q-3 0 -3 3v69q0 3 3 3h55q3 0 3 -3v-69q0 -3 -3 -3h-55z" />
<glyph horiz-adv-x="441" d="M51 0q-2 0 -2 3v538l2 3h85q2 0 4 -3l172 -400h8v400q0 3 3 3h69q3 0 3 -3v-538q0 -3 -3 -3h-85q-1 0 -4 3l-172 403h-8v-403q0 -3 -3 -3h-69zM130 627q-2 0 -2 4v39q0 6 3 10l3 3q3 3 5.5 6t7 6.5t9 6t11 4.5t13.5 2q19 0 45 -15t40 -15q15 0 30 14t17 14t2 -3v-39 q0 -8 -3 -12q-23 -29 -51 -29q-18 0 -43.5 16t-38.5 16q-16 0 -32 -14z" />
<glyph horiz-adv-x="410" d="M205 -4q-29 0 -48.5 2t-44.5 13t-40 31t-26 57.5t-11 91.5v166q0 51 10.5 88t25.5 56.5t40 30.5t45 13.5t49 2.5q28 0 47 -2t44.5 -12.5t41 -30t26.5 -56.5t11 -90v-166q0 -54 -11 -92.5t-26 -58t-41 -30t-44.5 -12.5t-47.5 -2zM205 67q47 0 70.5 25t23.5 106v151 q0 79 -23.5 103.5t-70.5 24.5q-46 0 -69.5 -24.5t-23.5 -103.5v-151q0 -83 23.5 -107t69.5 -24zM208 606l-63 111q-1 3 1 3h65q1 0 3 -3l50 -111q2 -3 -1 -3h-51q-2 0 -4 3z" />
<glyph horiz-adv-x="410" d="M205 67q47 0 70.5 25t23.5 106v151q0 79 -23.5 103.5t-70.5 24.5q-46 0 -69.5 -24.5t-23.5 -103.5v-151q0 -83 23.5 -107t69.5 -24zM205 -4q-29 0 -48.5 2t-44.5 13t-40 31t-26 57.5t-11 91.5v166q0 51 10.5 88t25.5 56.5t40 30.5t45 13.5t49 2.5q28 0 47 -2t44.5 -12.5 t41 -30t26.5 -56.5t11 -90v-166q0 -54 -11 -92.5t-26 -58t-41 -30t-44.5 -12.5t-47.5 -2zM201 606q0 -3 -3 -3h-52q-2 0 -1 3q0 1 12.5 28.5t24.5 55.5l13 27q1 3 4 3h64q4 0 1 -3z" />
<glyph horiz-adv-x="410" d="M205 67q47 0 70.5 25t23.5 106v151q0 79 -23.5 103.5t-70.5 24.5q-46 0 -69.5 -24.5t-23.5 -103.5v-151q0 -83 23.5 -107t69.5 -24zM205 -4q-29 0 -48.5 2t-44.5 13t-40 31t-26 57.5t-11 91.5v166q0 51 10.5 88t25.5 56.5t40 30.5t45 13.5t49 2.5q28 0 47 -2t44.5 -12.5 t41 -30t26.5 -56.5t11 -90v-166q0 -54 -11 -92.5t-26 -58t-41 -30t-44.5 -12.5t-47.5 -2zM161 602h-51q-3 0 -1 4q5 12 30.5 55.5t30.5 55.5q2 3 5 3h60q5 0 6 -3q0 -1 15.5 -28.5t30.5 -55t15 -28.5q0 -2 -1 -3h-51q-3 0 -5 4l-38 64h-3q-37 -62 -38 -64q-2 -4 -5 -4z" />
<glyph horiz-adv-x="410" d="M205 67q47 0 70.5 25t23.5 106v151q0 79 -23.5 103.5t-70.5 24.5q-46 0 -69.5 -24.5t-23.5 -103.5v-151q0 -83 23.5 -107t69.5 -24zM205 -4q-29 0 -48.5 2t-44.5 13t-40 31t-26 57.5t-11 91.5v166q0 51 10.5 88t25.5 56.5t40 30.5t45 13.5t49 2.5q28 0 47 -2t44.5 -12.5 t41 -30t26.5 -56.5t11 -90v-166q0 -54 -11 -92.5t-26 -58t-41 -30t-44.5 -12.5t-47.5 -2zM114 627q-2 0 -2 4v39q0 6 3 10l3 3q3 3 5.5 6t7 6.5t9 6t11 4.5t13.5 2q19 0 45 -15t40 -15q15 0 30 14t17 14t2 -3v-39q0 -8 -3 -12q-23 -29 -51 -29q-18 0 -43.5 16t-38.5 16 q-16 0 -32 -14z" />
<glyph horiz-adv-x="410" d="M205 -4q-29 0 -48.5 2t-44.5 13t-40 31t-26 57.5t-11 91.5v166q0 51 10.5 88t25.5 56.5t40 30.5t45 13.5t49 2.5q28 0 47 -2t44.5 -12.5t41 -30t26.5 -56.5t11 -90v-166q0 -54 -11 -92.5t-26 -58t-41 -30t-44.5 -12.5t-47.5 -2zM205 67q47 0 70.5 25t23.5 106v151 q0 79 -23.5 103.5t-70.5 24.5q-46 0 -69.5 -24.5t-23.5 -103.5v-151q0 -83 23.5 -107t69.5 -24zM109 629q-2 0 -2 3v69l2 3h57q3 0 3 -3v-69q0 -3 -3 -3h-57zM244 629q-3 0 -3 3v69q0 3 3 3h55q3 0 3 -3v-69q0 -3 -3 -3h-55z" />
<glyph horiz-adv-x="424" d="M198 -4q-87 0 -120 49t-33 168v328q0 3 2 3h72q2 0 2 -3v-321q0 -85 14 -118.5t63 -33.5h30q49 0 62.5 32.5t13.5 119.5v321q0 3 3 3h70q3 0 3 -3v-328q0 -116 -30.5 -166.5t-121.5 -50.5h-30zM216 606l-63 111q-1 3 1 3h65q1 0 3 -3l50 -111q2 -3 -1 -3h-51q-2 0 -4 3z " />
<glyph horiz-adv-x="424" d="M198 -4q-87 0 -120 49t-33 168v328q0 3 2 3h72q2 0 2 -3v-321q0 -85 14 -118.5t63 -33.5h30q49 0 62.5 32.5t13.5 119.5v321q0 3 3 3h70q3 0 3 -3v-328q0 -116 -30.5 -166.5t-121.5 -50.5h-30zM208 606q0 -3 -3 -3h-52q-3 0 -1 3q0 1 12.5 28.5t25.5 55.5l12 27q2 3 4 3 h64q4 0 1 -3z" />
<glyph horiz-adv-x="424" d="M198 -4q-87 0 -120 49t-33 168v328q0 3 2 3h72q2 0 2 -3v-321q0 -85 14 -118.5t63 -33.5h30q49 0 62.5 32.5t13.5 119.5v321q0 3 3 3h70q3 0 3 -3v-328q0 -116 -30.5 -166.5t-121.5 -50.5h-30zM168 602h-51q-3 0 -1 4q5 12 30.5 55.5t30.5 55.5q1 3 5 3h60q5 0 6 -3 q0 -1 15.5 -28.5t30.5 -55t15 -28.5q0 -2 -1 -3h-51q-3 0 -5 4l-38 64h-3q-37 -62 -38 -64q-2 -4 -5 -4z" />
<glyph horiz-adv-x="424" d="M198 -4q-87 0 -120 49t-33 168v328q0 3 2 3h72q2 0 2 -3v-321q0 -85 14 -118.5t63 -33.5h30q49 0 62.5 32.5t13.5 119.5v321q0 3 3 3h70q3 0 3 -3v-328q0 -116 -30.5 -166.5t-121.5 -50.5h-30zM117 629q-2 0 -2 3v69l2 3h57q3 0 3 -3v-69q0 -3 -3 -3h-57zM252 629 q-3 0 -3 3v69q0 3 3 3h55q3 0 3 -3v-69q0 -3 -3 -3h-55z" />
<glyph horiz-adv-x="370" d="M150 0q-3 0 -3 3v213q-138 323 -139 325q-2 3 1 3h77q2 0 3 -3l95 -235h4q92 233 94 235l3 3h75q4 0 2 -3l-139 -325v-213q0 -3 -2 -3h-71zM181 606q0 -3 -3 -3h-52q-2 0 -1 3q0 1 12.5 28.5t24.5 55.5l13 27q1 3 4 3h64q4 0 1 -3z" />
<glyph horiz-adv-x="370" d="M150 0q-3 0 -3 3v213q-138 323 -139 325q-2 3 1 3h77q2 0 3 -3l95 -235h4q92 233 94 235l3 3h75q4 0 2 -3l-139 -325v-213q0 -3 -2 -3h-71zM91 629q-2 0 -2 3v69l2 3h57q3 0 3 -3v-69q0 -3 -3 -3h-57zM226 629q-3 0 -3 3v69q0 3 3 3h55q3 0 3 -3v-69q0 -3 -3 -3h-55z" />
<glyph horiz-adv-x="410" d="M46 -32q-3 0 0 3l30 66q-41 46 -41 154v166q0 51 10.5 88t25.5 56.5t40 30.5t45 13.5t49 2.5q52 0 81 -10l18 35q2 3 4 3h58q2 0 1 -3q-1 -1 -31 -69q39 -47 39 -147v-166q0 -54 -11 -92.5t-26 -58t-41 -30t-44.5 -12.5t-47.5 -2q-52 0 -81 10q-15 -34 -15 -35 q-1 -3 -4 -3h-59zM205 67q47 0 70.5 25t23.5 106v151q0 79 -23.5 103.5t-70.5 24.5q-46 0 -69.5 -24.5t-23.5 -103.5v-151q0 -83 23.5 -107t69.5 -24z" />
<glyph horiz-adv-x="399" d="M197 -4q-92 0 -154 31q-2 1 -1 4l10 29q10 29 11 30q1 2 3 2q5 -2 19 -7t47.5 -12t66.5 -7q43 0 66.5 12.5t23.5 53.5v42q0 32 -22.5 46t-71.5 19q-86 9 -118.5 38.5t-32.5 94.5v56q0 120 154 120q41 0 75.5 -6.5t47.5 -11.5t15 -7q4 -2 2 -5q0 -1 -9.5 -27.5 t-10.5 -28.5q-1 -3 -3 -2q-3 1 -16.5 5t-42.5 8.5t-56 4.5q-36 0 -57 -12t-21 -47v-40q0 -32 19.5 -47t70.5 -20q86 -9 120.5 -37.5t34.5 -95.5v-55q0 -42 -15 -69t-43 -39t-53 -16t-59 -4zM243 718h53q4 0 2 -3l-70 -111q-2 -4 -5 -4h-48q-3 0 -5 3q-6 12 -35 56t-35 56 q-2 3 1 3h54q1 0 4 -3l39 -64h3q36 62 38 64q3 3 4 3z" />
<glyph horiz-adv-x="367" d="M32 0q-2 0 -2 2v68q0 4 1 6l215 390v7h-206q-2 0 -2 3v64q0 4 2 4h292q3 0 3 -4v-65q0 -7 -2 -9l-214 -388v-8h213q3 0 3 -3v-64q0 -3 -2 -3h-301zM226 718h53q3 0 2 -3l-70 -111q-2 -4 -5 -4h-48q-4 0 -5 3q-6 12 -35 56t-35 56q-1 3 1 3h54q1 0 4 -3l39 -64h3 q36 62 38 64q3 3 4 3z" />
<glyph horiz-adv-x="619" d="M169 176h132v270h-14zM87 0h-75q-2 0 -1 3l63 134q64 134 127 268t64 135q3 4 5 4h311q4 0 4 -3v-64q0 -3 -4 -3h-204v-163h173q2 0 2 -3v-64q0 -3 -2 -3h-173v-171h204q4 0 4 -3v-64q0 -3 -4 -3h-280v111h-163q-46 -106 -47 -108q-3 -3 -4 -3z" />
<glyph horiz-adv-x="618" d="M206 67q44 0 69 27t25 112v135q0 45 -8 74.5t-23.5 41.5t-29.5 16t-33 4q-20 0 -34 -3.5t-29 -15.5t-22.5 -40t-7.5 -72v-146q0 -45 7.5 -73.5t22.5 -40.5t28.5 -15.5t34.5 -3.5zM205 -3q-27 0 -46.5 2.5t-44.5 14t-40.5 31.5t-26.5 58.5t-11 91.5v158q0 53 11 90.5 t26 57t40 30.5t44.5 13.5t47.5 2.5q57 0 95 -38v35h286q3 0 3 -3v-64q0 -3 -3 -3h-211v-163h180q2 0 2 -3v-64q0 -3 -2 -3h-180v-171h211q3 0 3 -3v-64q0 -3 -3 -3h-286v35q-12 -11 -19 -17t-28.5 -13.5t-47.5 -7.5z" />
<glyph horiz-adv-x="416" d="M125 72h83q22 0 35 3t28.5 14t23 39t7.5 72v146q0 35 -6 60t-14 37.5t-22.5 19.5t-24.5 8t-27 1h-83v-166h76q2 0 2 -3v-56l-2 -4h-76v-171zM204 0h-154v243h-30q-2 0 -2 4v56q0 3 2 3h30v238h154q28 0 48 -2.5t46 -13t42 -30t27.5 -56.5t11.5 -88v-159q0 -55 -12 -94 t-28 -58t-43.5 -29.5t-45 -12t-46.5 -1.5z" />
<glyph horiz-adv-x="397" d="M126 187h90q79 0 79 78v32q0 25 -6.5 41.5t-19 23.5t-24 9.5t-28.5 2.5h-91v-187zM124 0h-72q-2 2 -2 3v538l2 3h72q2 0 2 -3v-97h93q23 0 39 -1.5t39.5 -9.5t38 -22t25 -42t10.5 -67v-42q0 -39 -11.5 -67t-26.5 -42t-38.5 -22t-39 -9.5t-36.5 -1.5h-93v-115q0 -3 -2 -3z " />
<glyph horiz-adv-x="356" d="M50 0v216q-34 -25 -36 -26t-2 2v64q0 4 2 5l36 26v254q0 3 3 3h70q3 0 3 -3v-209q97 70 98 70q1 1 1.5 0.5t0.5 -2.5v-64q0 -3 -2 -5l-98 -70v-191h211q2 0 2 -3v-64q0 -3 -2 -3h-287z" />
<glyph horiz-adv-x="412" d="M84 0h-75q-3 0 -1 3q1 2 77.5 269.5t76.5 268.5q0 3 3 3h83q3 0 3 -2l153 -539q2 -3 -3 -3h-73q-2 0 -3 3l-29 108h-182q-26 -106 -27 -108q-1 -3 -3 -3zM133 176h145l-65 259h-13zM300 639h-188q-2 0 -2 3v52q0 3 2 3h188q2 0 2 -3v-52q0 -3 -2 -3z" />
<glyph horiz-adv-x="412" d="M84 0h-75q-3 0 -1 3q1 2 77.5 269.5t76.5 268.5q0 3 3 3h83q3 0 3 -2l153 -539q2 -3 -3 -3h-73q-2 0 -3 3l-29 108h-182q-26 -106 -27 -108q-1 -3 -3 -3zM133 176h145l-65 259h-13zM206 607q-94 0 -94 97q0 4 4 4h30q6 0 7 -4q7 -28 18 -37t35 -9q22 0 32.5 9.5 t18.5 36.5q1 4 6 4h32q4 0 4 -4q-5 -97 -93 -97z" />
<glyph horiz-adv-x="412" d="M348 -144q-28 0 -44 12t-16 48q0 48 43 84h-3q-2 0 -3 3l-29 108h-182q-26 -106 -27 -108q-1 -3 -3 -3h-75q-3 0 -1 3q1 2 77.5 269.5t76.5 268.5q0 3 3 3h83q3 0 3 -2l153 -539q2 -3 -3 -3h-1q-57 -46 -57 -71q0 -18 16 -18q4 0 8.5 1.5t7.5 3.5l3 2q4 2 5 0l18 -34 q2 -4 -1 -7q-16 -21 -52 -21zM133 176h145l-65 259h-13z" />
<glyph horiz-adv-x="374" d="M209 -4q-38 0 -64 6t-53.5 24t-42 60t-14.5 106v165q0 51 10.5 87t26 56t40 31t46 14t51.5 3q39 0 70 -6.5t41 -11.5t12 -7q3 -2 2 -4t-11.5 -29t-10.5 -28q0 -4 -4 -2l-15 5t-37 8t-47 4q-21 0 -34.5 -3.5t-29.5 -15t-24.5 -39t-8.5 -70.5v-150q0 -79 24.5 -104.5 t72.5 -25.5q62 0 106 22q1 1 3 -2q1 -2 11.5 -28.5t10.5 -27.5q1 -3 -1 -4l-2 -1q-2 -2 -5 -3.5t-8 -4.5t-11.5 -5.5t-14 -5t-17.5 -5t-20.5 -4.5t-24 -3t-27.5 -1zM202 606q0 -3 -3 -3h-52q-3 0 -1 3q0 1 12.5 28.5t25.5 55.5l12 27q2 3 4 3h64q4 0 1 -3z" />
<glyph horiz-adv-x="374" d="M209 -4q-38 0 -64 6t-53.5 24t-42 60t-14.5 106v165q0 51 10.5 87t26 56t40 31t46 14t51.5 3q39 0 70 -6.5t41 -11.5t12 -7q3 -2 2 -4t-11.5 -29t-10.5 -28q0 -4 -4 -2l-15 5t-37 8t-47 4q-21 0 -34.5 -3.5t-29.5 -15t-24.5 -39t-8.5 -70.5v-150q0 -79 24.5 -104.5 t72.5 -25.5q62 0 106 22q1 1 3 -2q1 -2 11.5 -28.5t10.5 -27.5q1 -3 -1 -4l-2 -1q-2 -2 -5 -3.5t-8 -4.5t-11.5 -5.5t-14 -5t-17.5 -5t-20.5 -4.5t-24 -3t-27.5 -1zM163 602h-51q-3 0 -1 4q5 12 30.5 55.5t30.5 55.5q2 3 5 3h60q5 0 6 -3q0 -1 15.5 -28.5t30.5 -55t15 -28.5 q0 -2 -1 -3h-51q-3 0 -5 4l-38 64h-3q-37 -62 -38 -64q-2 -4 -5 -4z" />
<glyph horiz-adv-x="374" d="M209 -4q-38 0 -64 6t-53.5 24t-42 60t-14.5 106v165q0 51 10.5 87t26 56t40 31t46 14t51.5 3q39 0 70 -6.5t41 -11.5t12 -7q3 -2 2 -4t-11.5 -29t-10.5 -28q0 -4 -4 -2l-15 5t-37 8t-47 4q-21 0 -34.5 -3.5t-29.5 -15t-24.5 -39t-8.5 -70.5v-150q0 -79 24.5 -104.5 t72.5 -25.5q62 0 106 22q1 1 3 -2q1 -2 11.5 -28.5t10.5 -27.5q1 -3 -1 -4l-2 -1q-2 -2 -5 -3.5t-8 -4.5t-11.5 -5.5t-14 -5t-17.5 -5t-20.5 -4.5t-24 -3t-27.5 -1zM172 625q-2 0 -2 3v72q0 3 2 3h68q2 0 2 -3v-72q0 -3 -3 -3h-67z" />
<glyph horiz-adv-x="374" d="M209 -4q-38 0 -64 6t-53.5 24t-42 60t-14.5 106v165q0 51 10.5 87t26 56t40 31t46 14t51.5 3q39 0 70 -6.5t41 -11.5t12 -7q3 -2 2 -4t-11.5 -29t-10.5 -28q0 -4 -4 -2l-15 5t-37 8t-47 4q-21 0 -34.5 -3.5t-29.5 -15t-24.5 -39t-8.5 -70.5v-150q0 -79 24.5 -104.5 t72.5 -25.5q62 0 106 22q1 1 3 -2q1 -2 11.5 -28.5t10.5 -27.5q1 -3 -1 -4l-2 -1q-2 -2 -5 -3.5t-8 -4.5t-11.5 -5.5t-14 -5t-17.5 -5t-20.5 -4.5t-24 -3t-27.5 -1zM250 718h53q3 0 2 -3l-70 -111q-2 -4 -5 -4h-48q-4 0 -5 3q-6 12 -35 56t-35 56q-1 3 1 3h54q1 0 4 -3 l39 -64h3q36 62 38 64q3 3 4 3z" />
<glyph horiz-adv-x="416" d="M126 72h82q48 0 71 24.5t23 104.5v145q0 43 -7 69.5t-22 38t-28.5 15t-36.5 3.5h-82v-400zM208 0h-158v544h158q28 0 45.5 -1.5t44 -12t42 -29t27.5 -56.5t12 -91v-159q0 -39 -6 -70t-14.5 -51.5t-23 -34.5t-27.5 -21.5t-32.5 -11.5t-33 -5t-34.5 -1zM248 718h53 q3 0 2 -3l-70 -111q-2 -4 -5 -4h-48q-4 0 -5 3q-6 12 -35 56t-35 56q-1 3 1 3h54q1 0 4 -3l39 -64h3q36 62 38 64q3 3 4 3z" />
<glyph horiz-adv-x="416" d="M125 72h83q22 0 35 3t28.5 14t23 39t7.5 72v146q0 35 -6 60t-14 37.5t-22.5 19.5t-24.5 8t-27 1h-83v-166h76q2 0 2 -3v-56l-2 -4h-76v-171zM204 0h-154v243h-30q-2 0 -2 4v56q0 3 2 3h30v238h154q28 0 48 -2.5t46 -13t42 -30t27.5 -56.5t11.5 -88v-159q0 -55 -12 -94 t-28 -58t-43.5 -29.5t-45 -12t-46.5 -1.5z" />
<glyph horiz-adv-x="370" d="M50 0v544h287q3 0 3 -3v-64q0 -3 -3 -3h-211v-163h179q3 0 3 -3v-64q0 -3 -3 -3h-179v-171h211q3 0 3 -3v-64q0 -3 -3 -3h-287zM289 639h-188q-2 0 -2 3v52q0 3 2 3h188q2 0 2 -3v-52q0 -3 -2 -3z" />
<glyph horiz-adv-x="370" d="M50 0v544h287q3 0 3 -3v-64q0 -3 -3 -3h-211v-163h179q3 0 3 -3v-64q0 -3 -3 -3h-179v-171h211q3 0 3 -3v-64q0 -3 -3 -3h-287zM199 607q-94 0 -94 97q0 4 4 4h30q6 0 7 -4q7 -28 18 -37t35 -9q22 0 32.5 9.5t18.5 36.5q1 4 6 4h32q4 0 4 -4q-5 -97 -93 -97z" />
<glyph horiz-adv-x="370" d="M50 0v544h287q3 0 3 -3v-64q0 -3 -3 -3h-211v-163h179q3 0 3 -3v-64q0 -3 -3 -3h-179v-171h211q3 0 3 -3v-64q0 -3 -3 -3h-287zM171 625q-2 0 -2 3v72q0 3 2 3h68q2 0 2 -3v-72q0 -3 -3 -3h-67z" />
<glyph horiz-adv-x="370" d="M50 0v544h287q3 0 3 -3v-64q0 -3 -3 -3h-211v-163h179q3 0 3 -3v-64q0 -3 -3 -3h-179v-171h211q3 0 3 -3v-64q0 -3 -3 -3h-2q-55 -44 -55 -70q0 -18 16 -18q4 0 8.5 2t7.5 4l3 1q4 3 5 0l18 -34q2 -4 -1 -7q-16 -21 -52 -21q-28 0 -44 12t-16 48q0 46 42 83h-217z" />
<glyph horiz-adv-x="370" d="M50 0v544h287q3 0 3 -3v-64q0 -3 -3 -3h-211v-163h179q3 0 3 -3v-64q0 -3 -3 -3h-179v-171h211q3 0 3 -3v-64q0 -3 -3 -3h-287zM245 718h53q4 0 2 -3l-70 -111q-2 -4 -5 -4h-48q-3 0 -5 3q-6 12 -35 56t-35 56q-2 3 1 3h54q1 0 4 -3l39 -64h3q36 62 38 64q3 3 4 3z" />
<glyph horiz-adv-x="411" d="M205 -4q-36 0 -61 6t-52.5 24t-42 60t-14.5 106v165q0 52 11.5 89.5t27.5 56.5t42 30t45.5 13t46.5 2q38 0 73.5 -6.5t51 -12t19.5 -7.5q2 -2 1 -4l-21 -56q-1 -2 -3 -1l-7 1q-8 2 -20.5 4.5t-27.5 5t-32.5 4t-32.5 1.5q-21 0 -34 -3t-29.5 -14.5t-25 -39t-8.5 -71.5 v-151q0 -80 24.5 -105t69.5 -25q11 0 35 4t42 8l18 3v140h-69q-3 0 -3 3v60q0 3 3 3h136v-263q-115 -30 -163 -30zM169 602h-51q-3 0 -1 4q5 12 30.5 55.5t30.5 55.5q2 3 5 3h60q5 0 6 -3q0 -1 15.5 -28.5t30.5 -55t15 -28.5q0 -2 -1 -3h-51q-3 0 -5 4l-38 64h-3 q-37 -62 -38 -64q-2 -4 -5 -4z" />
<glyph horiz-adv-x="411" d="M205 -4q-36 0 -61 6t-52.5 24t-42 60t-14.5 106v165q0 52 11.5 89.5t27.5 56.5t42 30t45.5 13t46.5 2q38 0 73.5 -6.5t51 -12t19.5 -7.5q2 -2 1 -4l-21 -56q-1 -2 -3 -1l-7 1q-8 2 -20.5 4.5t-27.5 5t-32.5 4t-32.5 1.5q-21 0 -34 -3t-29.5 -14.5t-25 -39t-8.5 -71.5 v-151q0 -80 24.5 -105t69.5 -25q11 0 35 4t42 8l18 3v140h-69q-3 0 -3 3v60q0 3 3 3h136v-263q-115 -30 -163 -30zM210 607q-94 0 -94 97q0 4 4 4h30q6 0 7 -4q7 -28 18 -37t35 -9q22 0 32.5 9.5t18.5 36.5q1 4 6 4h32q4 0 4 -4q-5 -97 -93 -97z" />
<glyph horiz-adv-x="411" d="M205 -4q-36 0 -61 6t-52.5 24t-42 60t-14.5 106v165q0 52 11.5 89.5t27.5 56.5t42 30t45.5 13t46.5 2q38 0 73.5 -6.5t51 -12t19.5 -7.5q2 -2 1 -4l-21 -56q-1 -2 -3 -1l-7 1q-8 2 -20.5 4.5t-27.5 5t-32.5 4t-32.5 1.5q-21 0 -34 -3t-29.5 -14.5t-25 -39t-8.5 -71.5 v-151q0 -80 24.5 -105t69.5 -25q11 0 35 4t42 8l18 3v140h-69q-3 0 -3 3v60q0 3 3 3h136v-263q-115 -30 -163 -30zM172 625q-2 0 -2 3v72q0 3 2 3h68q2 0 2 -3v-72q0 -3 -3 -3h-67z" />
<glyph horiz-adv-x="435" d="M52 0q-2 0 -2 3v538q0 3 2 3h72q2 0 2 -3v-233h182v233q0 3 4 3h70q3 0 3 -3v-538q0 -3 -3 -3h-70q-4 0 -4 3v237h-182v-237q0 -3 -2 -3h-72zM173 602h-51q-3 0 -1 4q5 12 30.5 55.5t30.5 55.5q2 3 5 3h60q5 0 6 -3q0 -1 15.5 -28.5t30.5 -55t15 -28.5q0 -2 -1 -3h-51 q-3 0 -5 4l-38 64h-3q-37 -62 -38 -64q-2 -4 -5 -4z" />
<glyph horiz-adv-x="176" d="M52 0q-2 0 -2 3v538q0 3 2 3h72q2 0 2 -3v-538q0 -3 -2 -3h-72zM-3 627q-2 0 -2 4v39q0 6 3 10l3 3q3 3 5.5 6t7 6.5t9 6t11 4.5t13.5 2q19 0 45 -15t40 -15q15 0 30 14t17 14t2 -3v-39q0 -8 -3 -12q-23 -29 -51 -29q-18 0 -43.5 16t-38.5 16q-16 0 -32 -14z" />
<glyph horiz-adv-x="176" d="M52 0q-2 0 -2 3v538q0 3 2 3h72q2 0 2 -3v-538q0 -3 -2 -3h-72zM182 639h-188q-2 0 -2 3v52q0 3 2 3h188q2 0 2 -3v-52q0 -3 -2 -3z" />
<glyph horiz-adv-x="176" d="M52 0q-2 0 -2 3v538q0 3 2 3h72q2 0 2 -3v-538q0 -3 -2 -3h-3q-55 -44 -55 -70q0 -18 16 -18q4 0 8.5 2t7.5 4l3 1q4 3 5 0l18 -34q2 -4 -1 -7q-16 -21 -52 -21q-28 0 -44 12t-16 48q0 46 42 83h-1z" />
<glyph horiz-adv-x="176" d="M52 0q-2 0 -2 3v538q0 3 2 3h72q2 0 2 -3v-538q0 -3 -2 -3h-72zM55 625q-2 0 -2 3v72q0 3 2 3h68q2 0 2 -3v-72q0 -3 -3 -3h-67z" />
<glyph horiz-adv-x="328" d="M135 -5q-26 0 -53.5 4.5t-40.5 8.5t-16 5q-2 1 -1 4l18 58q1 3 4 2l6 -1q5 -1 14 -2.5t19.5 -3t23 -2.5t23.5 -1q23 0 36.5 3.5t25 20.5t11.5 49v401q0 3 3 3h70q3 0 3 -3v-405q0 -39 -9.5 -66t-22.5 -41.5t-34.5 -22.5t-38.5 -9.5t-41 -1.5zM197 602h-51q-3 0 -1 4 q5 12 30.5 55.5t30.5 55.5q2 3 5 3h60q5 0 6 -3q0 -1 15.5 -28.5t30.5 -55t15 -28.5q0 -2 -1 -3h-51q-3 0 -5 4l-38 64h-3q-37 -62 -38 -64q-2 -4 -5 -4z" />
<glyph horiz-adv-x="355" d="M50 0v541q0 3 2 3h72q2 0 2 -3v-471h211q3 0 3 -3v-63q0 -4 -3 -4h-287zM173 606q0 -3 -3 -3h-52q-2 0 -1 3q0 1 12.5 28.5t24.5 55.5l13 27q1 3 4 3h64q4 0 1 -3z" />
<glyph horiz-adv-x="441" d="M51 0q-2 0 -2 3v538l2 3h85q2 0 4 -3l172 -400h8v400q0 3 3 3h69q3 0 3 -3v-538q0 -3 -3 -3h-85q-1 0 -4 3l-172 403h-8v-403q0 -3 -3 -3h-69zM216 606q0 -3 -3 -3h-52q-3 0 -1 3q0 1 12.5 28.5t25.5 55.5l12 27q2 3 4 3h64q4 0 1 -3z" />
<glyph horiz-adv-x="441" d="M51 0q-2 0 -2 3v538l2 3h85q2 0 4 -3l172 -400h8v400q0 3 3 3h69q3 0 3 -3v-538q0 -3 -3 -3h-85q-1 0 -4 3l-172 403h-8v-403q0 -3 -3 -3h-69zM265 718h53q4 0 2 -3l-70 -111q-2 -4 -5 -4h-48q-3 0 -5 3q-6 12 -35 56t-35 56q-2 3 1 3h54q1 0 4 -3l39 -64h3q36 62 38 64 q3 3 4 3z" />
<glyph horiz-adv-x="410" d="M205 67q47 0 70.5 25t23.5 106v151q0 79 -23.5 103.5t-70.5 24.5q-46 0 -69.5 -24.5t-23.5 -103.5v-151q0 -83 23.5 -107t69.5 -24zM205 -4q-29 0 -48.5 2t-44.5 13t-40 31t-26 57.5t-11 91.5v166q0 51 10.5 88t25.5 56.5t40 30.5t45 13.5t49 2.5q28 0 47 -2t44.5 -12.5 t41 -30t26.5 -56.5t11 -90v-166q0 -54 -11 -92.5t-26 -58t-41 -30t-44.5 -12.5t-47.5 -2zM300 639h-188q-2 0 -2 3v52q0 3 2 3h188q2 0 2 -3v-52q0 -3 -2 -3z" />
<glyph horiz-adv-x="410" d="M205 67q47 0 70.5 25t23.5 106v151q0 79 -23.5 103.5t-70.5 24.5q-46 0 -69.5 -24.5t-23.5 -103.5v-151q0 -83 23.5 -107t69.5 -24zM205 -4q-29 0 -48.5 2t-44.5 13t-40 31t-26 57.5t-11 91.5v166q0 51 10.5 88t25.5 56.5t40 30.5t45 13.5t49 2.5q28 0 47 -2t44.5 -12.5 t41 -30t26.5 -56.5t11 -90v-166q0 -54 -11 -92.5t-26 -58t-41 -30t-44.5 -12.5t-47.5 -2zM206 607q-94 0 -94 97q0 4 4 4h30q6 0 7 -4q7 -28 18 -37t35 -9q22 0 32.5 9.5t18.5 36.5q1 4 6 4h32q4 0 4 -4q-5 -97 -93 -97z" />
<glyph horiz-adv-x="410" d="M205 -4q-29 0 -48.5 2t-44.5 13t-40 31t-26 57.5t-11 91.5v166q0 51 10.5 88t25.5 56.5t40 30.5t45 13.5t49 2.5q28 0 47 -2t44.5 -12.5t41 -30t26.5 -56.5t11 -90v-166q0 -54 -11 -92.5t-26 -58t-41 -30t-44.5 -12.5t-47.5 -2zM205 67q47 0 70.5 25t23.5 106v151 q0 79 -23.5 103.5t-70.5 24.5q-46 0 -69.5 -24.5t-23.5 -103.5v-151q0 -83 23.5 -107t69.5 -24zM266 606q-2 -3 -4 -3h-51q-2 0 -2 3l13 28q12 27 24.5 54.5t13.5 28.5q0 3 4 3h64q4 0 1 -3l-31 -55q-31 -54 -32 -56zM164 606q-2 -3 -4 -3h-51q-3 0 -1 3l49 111q1 3 4 3h65 q2 0 1 -3l-31 -55q-31 -54 -32 -56z" />
<glyph horiz-adv-x="413" d="M126 279h90q79 0 79 78v40q0 26 -6.5 42.5t-19.5 23.5t-24.5 9t-27.5 2h-91v-195zM124 0h-72q-2 1 -2 3v541h169q29 0 50.5 -4t47.5 -17t40 -44.5t14 -80.5v-43q0 -104 -72 -132l87 -220q2 -3 -3 -3h-78q-3 0 -4 3l-76 206h-99v-206q0 -3 -2 -3zM202 606q0 -3 -3 -3h-52 q-3 0 -1 3q0 1 12.5 28.5t25.5 55.5l12 27q2 3 4 3h64q4 0 1 -3z" />
<glyph horiz-adv-x="413" d="M126 279h90q79 0 79 78v40q0 26 -6.5 42.5t-19.5 23.5t-24.5 9t-27.5 2h-91v-195zM124 0h-72q-2 1 -2 3v541h169q29 0 50.5 -4t47.5 -17t40 -44.5t14 -80.5v-43q0 -104 -72 -132l87 -220q2 -3 -3 -3h-78q-3 0 -4 3l-76 206h-99v-206q0 -3 -2 -3zM237 718h53q4 0 2 -3 l-70 -111q-2 -4 -5 -4h-48q-3 0 -5 3q-6 12 -35 56t-35 56q-2 3 1 3h54q1 0 4 -3l39 -64h3q36 62 38 64q3 3 4 3z" />
<glyph horiz-adv-x="399" d="M197 -4q-92 0 -154 31q-2 1 -1 4l10 29q10 29 11 30q1 2 3 2q5 -2 19 -7t47.5 -12t66.5 -7q43 0 66.5 12.5t23.5 53.5v42q0 32 -22.5 46t-71.5 19q-86 9 -118.5 38.5t-32.5 94.5v56q0 120 154 120q41 0 75.5 -6.5t47.5 -11.5t15 -7q4 -2 2 -5q0 -1 -9.5 -27.5 t-10.5 -28.5q-1 -3 -3 -2q-3 1 -16.5 5t-42.5 8.5t-56 4.5q-36 0 -57 -12t-21 -47v-40q0 -32 19.5 -47t70.5 -20q86 -9 120.5 -37.5t34.5 -95.5v-55q0 -42 -15 -69t-43 -39t-53 -16t-59 -4zM205 606q0 -3 -3 -3h-52q-2 0 -1 3q0 1 12.5 28.5t24.5 55.5l13 27q1 3 4 3h64 q4 0 1 -3z" />
<glyph horiz-adv-x="399" d="M197 -4q-92 0 -154 31q-2 1 -1 4l10 29q10 29 11 30q1 2 3 2q5 -2 19 -7t47.5 -12t66.5 -7q43 0 66.5 12.5t23.5 53.5v42q0 32 -22.5 46t-71.5 19q-86 9 -118.5 38.5t-32.5 94.5v56q0 120 154 120q41 0 75.5 -6.5t47.5 -11.5t15 -7q4 -2 2 -5q0 -1 -9.5 -27.5 t-10.5 -28.5q-1 -3 -3 -2q-3 1 -16.5 5t-42.5 8.5t-56 4.5q-36 0 -57 -12t-21 -47v-40q0 -32 19.5 -47t70.5 -20q86 -9 120.5 -37.5t34.5 -95.5v-55q0 -42 -15 -69t-43 -39t-53 -16t-59 -4zM155 602h-51q-3 0 -1 4q5 12 30.5 55.5t30.5 55.5q2 3 5 3h60q5 0 6 -3 q0 -1 15.5 -28.5t30.5 -55t15 -28.5q0 -2 -1 -3h-51q-3 0 -5 4l-38 64h-3q-37 -62 -38 -64q-2 -4 -5 -4z" />
<glyph horiz-adv-x="363" d="M146 0q-3 0 -3 3v470h-129q-2 0 -2 3v65q0 3 2 3h333q4 0 4 -3v-65q0 -3 -4 -3h-129v-470q0 -3 -2 -3h-70zM225 718h53q4 0 2 -3l-70 -111q-2 -4 -5 -4h-48q-3 0 -5 3q-6 12 -35 56t-35 56q-2 3 1 3h54q1 0 4 -3l39 -64h3q36 62 38 64q3 3 4 3z" />
<glyph horiz-adv-x="424" d="M198 -4q-87 0 -120 49t-33 168v328q0 3 2 3h72q2 0 2 -3v-321q0 -85 14 -118.5t63 -33.5h30q49 0 62.5 32.5t13.5 119.5v321q0 3 3 3h70q3 0 3 -3v-328q0 -116 -30.5 -166.5t-121.5 -50.5h-30zM122 627q-2 0 -2 4v39q0 6 3 10l3 3q3 3 5.5 6t7 6.5t9 6t11 4.5t13.5 2 q19 0 45 -15t40 -15q15 0 30 14t17 14t2 -3v-39q0 -8 -3 -12q-23 -29 -51 -29q-18 0 -43.5 16t-38.5 16q-16 0 -32 -14z" />
<glyph horiz-adv-x="424" d="M198 -4q-87 0 -120 49t-33 168v328q0 3 2 3h72q2 0 2 -3v-321q0 -85 14 -118.5t63 -33.5h30q49 0 62.5 32.5t13.5 119.5v321q0 3 3 3h70q3 0 3 -3v-328q0 -116 -30.5 -166.5t-121.5 -50.5h-30zM307 639h-188q-2 0 -2 3v52q0 3 2 3h188q2 0 2 -3v-52q0 -3 -2 -3z" />
<glyph horiz-adv-x="424" d="M198 -4q-87 0 -120 49t-33 168v328q0 3 2 3h72q2 0 2 -3v-321q0 -85 14 -118.5t63 -33.5h30q49 0 62.5 32.5t13.5 119.5v321q0 3 3 3h70q3 0 3 -3v-328q0 -116 -30.5 -166.5t-121.5 -50.5h-30zM213 607q-94 0 -94 97q0 4 4 4h30q6 0 7 -4q7 -28 18 -37t35 -9 q22 0 32.5 9.5t18.5 36.5q1 4 6 4h32q4 0 4 -4q-5 -97 -93 -97z" />
<glyph horiz-adv-x="424" d="M198 -4q-87 0 -120 49t-33 168v328q0 3 2 3h72q2 0 2 -3v-321q0 -85 14 -118.5t63 -33.5h30q49 0 62.5 32.5t13.5 119.5v321q0 3 3 3h70q3 0 3 -3v-328q0 -116 -30.5 -166.5t-121.5 -50.5h-30zM212 588q-19 0 -32 3.5t-24 19.5t-11 44v18q0 66 69 66q13 0 22.5 -2 t20.5 -8t16.5 -20t5.5 -36v-18q0 -42 -18 -54.5t-49 -12.5zM212 623q11 0 17.5 2t11.5 10t5 24v10q0 21 -8 28t-24 7q-17 0 -26 -7t-9 -28v-10q0 -22 8.5 -29t24.5 -7z" />
<glyph horiz-adv-x="424" d="M198 -4q-87 0 -120 49t-33 168v328q0 3 2 3h72q2 0 2 -3v-321q0 -85 14 -118.5t63 -33.5h30q49 0 62.5 32.5t13.5 119.5v321q0 3 3 3h70q3 0 3 -3v-328q0 -116 -30.5 -166.5t-121.5 -50.5h-30zM283 606q-1 -3 -4 -3h-51q-2 0 -2 3l12 28q13 27 25.5 54.5t13.5 28.5 q0 3 4 3h64q4 0 1 -3l-31 -55q-31 -54 -32 -56zM181 606q-1 -3 -4 -3h-51q-2 0 -1 3l49 111q2 3 4 3h65q3 0 1 -3l-31 -55q-31 -54 -32 -56z" />
<glyph horiz-adv-x="424" d="M200 -148q-28 0 -44 12t-16 48q0 47 43 85q-78 3 -108 52.5t-30 163.5v328q0 3 2 3h72q2 0 2 -3v-321q0 -85 14 -118.5t63 -33.5h30q49 0 62.5 32.5t13.5 119.5v321q0 3 3 3h70q3 0 3 -3v-328q0 -108 -26 -159t-101 -57q-1 0 -1 -1q-57 -46 -57 -71q0 -18 16 -18 q4 0 8.5 1.5t7.5 3.5l3 2q4 2 5 0l18 -34q2 -4 -1 -7q-16 -21 -52 -21z" />
<glyph horiz-adv-x="574" d="M128 0q-3 0 -3 3q0 2 -55 269t-56 269q-2 3 1 3h74q1 0 3 -3l79 -415h13q70 310 71 312t3 2h60q3 0 4 -3l70 -311h13q77 413 78 415q1 3 4 3h73q4 0 3 -3q-1 -2 -56 -269t-55 -269q-2 -3 -5 -3h-87q-4 0 -4 3l-64 302h-8q-63 -298 -63 -302q-1 0 -2.5 -1.5t-2.5 -1.5h-88 zM242 602h-51q-3 0 -1 4q5 12 30.5 55.5t30.5 55.5q1 3 5 3h60q5 0 6 -3q0 -1 15.5 -28.5t30.5 -55t15 -28.5q0 -2 -1 -3h-51q-3 0 -5 4l-38 64h-3q-37 -62 -38 -64q-2 -4 -5 -4z" />
<glyph horiz-adv-x="370" d="M150 0q-3 0 -3 3v213q-138 323 -139 325q-2 3 1 3h77q2 0 3 -3l95 -235h4q92 233 94 235l3 3h75q4 0 2 -3l-139 -325v-213q0 -3 -2 -3h-71zM140 602h-51q-3 0 -1 4q5 12 30.5 55.5t30.5 55.5q1 3 5 3h60q5 0 6 -3q0 -1 15.5 -28.5t30.5 -55t15 -28.5q0 -2 -1 -3h-51 q-3 0 -5 4l-38 64h-3q-37 -62 -38 -64q-2 -4 -5 -4z" />
<glyph horiz-adv-x="367" d="M32 0q-2 0 -2 2v68q0 4 1 6l215 390v7h-206q-2 0 -2 3v64q0 4 2 4h292q3 0 3 -4v-65q0 -7 -2 -9l-214 -388v-8h213q3 0 3 -3v-64q0 -3 -2 -3h-301zM195 606q0 -3 -3 -3h-52q-2 0 -1 3q0 1 12.5 28.5t24.5 55.5l13 27q1 3 4 3h64q4 0 1 -3z" />
<glyph horiz-adv-x="367" d="M32 0q-2 0 -2 2v68q0 4 1 6l215 390v7h-206q-2 0 -2 3v64q0 4 2 4h292q3 0 3 -4v-65q0 -7 -2 -9l-214 -388v-8h213q3 0 3 -3v-64q0 -3 -2 -3h-301zM155 625q-2 0 -2 3v72q0 3 2 3h68q2 0 2 -3v-72q0 -3 -3 -3h-67z" />
<glyph horiz-adv-x="574" d="M128 0q-3 0 -3 3q0 2 -55 269t-56 269q-2 3 1 3h74q1 0 3 -3l79 -415h13q70 310 71 312t3 2h60q3 0 4 -3l70 -311h13q77 413 78 415q1 3 4 3h73q4 0 3 -3q-1 -2 -56 -269t-55 -269q-2 -3 -5 -3h-87q-4 0 -4 3l-64 302h-8q-63 -298 -63 -302q-1 0 -2.5 -1.5t-2.5 -1.5h-88 zM284 606l-63 111q-1 3 1 3h65q1 0 3 -3l50 -111q2 -3 -1 -3h-51q-2 0 -4 3z" />
<glyph horiz-adv-x="574" d="M128 0q-3 0 -3 3q0 2 -55 269t-56 269q-2 3 1 3h74q1 0 3 -3l79 -415h13q70 310 71 312t3 2h60q3 0 4 -3l70 -311h13q77 413 78 415q1 3 4 3h73q4 0 3 -3q-1 -2 -56 -269t-55 -269q-2 -3 -5 -3h-87q-4 0 -4 3l-64 302h-8q-63 -298 -63 -302q-1 0 -2.5 -1.5t-2.5 -1.5h-88 zM292 606q0 -3 -3 -3h-52q-3 0 -1 3q0 1 12.5 28.5t25.5 55.5l12 27q2 3 4 3h64q4 0 1 -3z" />
<glyph horiz-adv-x="574" d="M128 0q-3 0 -3 3q0 2 -55 269t-56 269q-2 3 1 3h74q1 0 3 -3l79 -415h13q70 310 71 312t3 2h60q3 0 4 -3l70 -311h13q77 413 78 415q1 3 4 3h73q4 0 3 -3q-1 -2 -56 -269t-55 -269q-2 -3 -5 -3h-87q-4 0 -4 3l-64 302h-8q-63 -298 -63 -302q-1 0 -2.5 -1.5t-2.5 -1.5h-88 zM191 628q-2 0 -2 3v69l2 3h57q3 0 3 -3v-69q0 -3 -3 -3h-57zM326 628q-3 0 -3 3v69q0 3 3 3h55q3 0 3 -3v-69q0 -3 -3 -3h-55z" />
<glyph horiz-adv-x="355" d="M50 0v541q0 3 2 3h72q2 0 2 -3v-471h211q3 0 3 -3v-63q0 -4 -3 -4h-287zM177 452q-4 -4 -4 3v163q0 4 3 4h65q4 0 4 -4v-108q0 -3 -3 -6z" />
<glyph horiz-adv-x="405" d="M52 0q-2 1 -2 3v538l2 3h72q2 0 2 -3v-232h24q138 229 140 232t4 3h81q3 0 1 -3l-163 -265q173 -271 174 -273q1 -3 -1 -3h-82q-2 0 -4 3l-146 237h-28v-237q0 -3 -2 -3h-72zM173 -211q-4 -4 -4 3v163q0 4 3 4h65q4 0 4 -4v-108q0 -3 -3 -6z" />
<glyph horiz-adv-x="355" d="M50 0v541q0 3 2 3h72q2 0 2 -3v-471h211q3 0 3 -3v-63q0 -4 -3 -4h-287zM163 -211q-4 -4 -4 3v163q0 4 3 4h65q4 0 4 -4v-108q0 -3 -3 -6z" />
<glyph horiz-adv-x="441" d="M51 0q-2 0 -2 3v538l2 3h85q2 0 4 -3l172 -400h8v400q0 3 3 3h69q3 0 3 -3v-538q0 -3 -3 -3h-85q-1 0 -4 3l-172 403h-8v-403q0 -3 -3 -3h-69zM198 -211q-4 -4 -4 3v163q0 4 3 4h65q4 0 4 -4v-108q0 -3 -3 -6z" />
<glyph horiz-adv-x="413" d="M124 0h-72q-2 1 -2 3v541h169q29 0 50.5 -4t47.5 -17t40 -44.5t14 -80.5v-43q0 -104 -72 -132l87 -220q2 -3 -3 -3h-78q-3 0 -4 3l-76 206h-99v-206q0 -3 -2 -3zM126 279h90q79 0 79 78v40q0 26 -6.5 42.5t-19.5 23.5t-24.5 9t-27.5 2h-91v-195zM180 -211q-4 -4 -4 3v163 q0 4 3 4h65q4 0 4 -4v-108q0 -3 -3 -6z" />
<glyph horiz-adv-x="411" d="M205 -4q-36 0 -61 6t-52.5 24t-42 60t-14.5 106v165q0 52 11.5 89.5t27.5 56.5t42 30t45.5 13t46.5 2q38 0 73.5 -6.5t51 -12t19.5 -7.5q2 -2 1 -4l-21 -56q-1 -2 -3 -1l-7 1q-8 2 -20.5 4.5t-27.5 5t-32.5 4t-32.5 1.5q-21 0 -34 -3t-29.5 -14.5t-25 -39t-8.5 -71.5 v-151q0 -80 24.5 -105t69.5 -25q11 0 35 4t42 8l18 3v140h-69q-3 0 -3 3v60q0 3 3 3h136v-263q-115 -30 -163 -30zM183 -211q-4 -4 -4 3v163q0 4 3 4h65q4 0 4 -4v-108q0 -3 -3 -6z" />
<glyph horiz-adv-x="399" d="M197 -4q-92 0 -154 31q-2 1 -1 4l10 29q10 29 11 30q1 2 3 2q5 -2 19 -7t47.5 -12t66.5 -7q43 0 66.5 12.5t23.5 53.5v42q0 32 -22.5 46t-71.5 19q-86 9 -118.5 38.5t-32.5 94.5v56q0 120 154 120q41 0 75.5 -6.5t47.5 -11.5t15 -7q4 -2 2 -5q0 -1 -9.5 -27.5 t-10.5 -28.5q-1 -3 -3 -2q-3 1 -16.5 5t-42.5 8.5t-56 4.5q-36 0 -57 -12t-21 -47v-40q0 -32 19.5 -47t70.5 -20q86 -9 120.5 -37.5t34.5 -95.5v-55q0 -42 -15 -69t-43 -39t-53 -16t-59 -4zM176 -211q-4 -4 -4 3v163q0 4 3 4h65q4 0 4 -4v-108q0 -3 -3 -6z" />
<glyph horiz-adv-x="363" d="M146 0q-3 0 -3 3v470h-129q-2 0 -2 3v65q0 3 2 3h333q4 0 4 -3v-65q0 -3 -4 -3h-129v-470q0 -3 -2 -3h-70zM151 -211q-4 -4 -4 3v163q0 4 3 4h65q4 0 4 -4v-108q0 -3 -3 -6z" />
<glyph horiz-adv-x="399" d="M210 -122h-65l-1 4l45 114q-88 2 -146 31q-2 1 -1 4l10 29q10 29 11 30q1 2 3 2q5 -2 19 -7t47.5 -12t66.5 -7q43 0 66.5 12.5t23.5 53.5v42q0 32 -22.5 46t-71.5 19q-86 9 -118.5 38.5t-32.5 94.5v56q0 120 154 120q41 0 75.5 -6.5t47.5 -11.5t15 -7q4 -2 2 -5 q0 -1 -9.5 -27.5t-10.5 -28.5q-1 -3 -3 -2q-3 1 -16.5 5t-42.5 8.5t-56 4.5q-36 0 -57 -12t-21 -47v-40q0 -32 19.5 -47t70.5 -20q86 -9 120.5 -37.5t34.5 -95.5v-55q0 -111 -119 -125l-34 -117q-1 -4 -4 -4z" />
<glyph horiz-adv-x="305" d="M68 112q-2 2 0 5l39 42q2 2 4 0l31 -37q32 -37 63.5 -73.5t32.5 -36.5q2 -1 0 -5l-40 -42q0 -4 -4 0z" />
<glyph horiz-adv-x="285" d="M172 343q-4 0 -2 3l27 66q1 3 4 3h44q3 0 2 -3q0 -1 -6.5 -17l-13 -32t-7.5 -17q-2 -3 -3 -3h-45zM39 -30q-3 0 -1 3q0 1 6.5 16.5t12.5 30.5t7 16q0 3 4 3h44q4 0 2 -3l-27 -64q-1 -2 -3 -2h-45z" />
<glyph horiz-adv-x="397" d="M252 479q-4 0 -2 3l10 23q11 23 21.5 45t11.5 23q1 3 4 3h58q3 0 1 -3q-1 -1 -21 -45.5t-21 -45.5q-3 -3 -4 -3h-58zM35 -32q-3 0 0 3q1 1 10.5 22t18.5 43l10 22q1 3 4 3h58q5 0 2 -3q-1 -1 -10.5 -22t-19.5 -43l-10 -22q-2 -3 -4 -3h-59z" />
<glyph horiz-adv-x="394" d="M196 67q45 0 64 24.5t19 106.5v151q0 79 -19.5 103.5t-63.5 24.5q-43 0 -62 -24t-19 -104v-151q0 -82 19.5 -106.5t61.5 -24.5zM196 -4q-23 0 -38.5 1.5t-36 7.5t-33.5 19t-25.5 34t-18.5 55t-6 79v165q0 52 9.5 88.5t23 56t36.5 30.5t42 13.5t47 2.5t46 -2t42 -12.5 t38 -29.5t24 -56.5t10 -90.5v-165q0 -55 -10 -93.5t-23.5 -58t-37.5 -30t-42 -12.5t-47 -2z" />
<glyph horiz-adv-x="349" d="M235 0h-68q-2 0 -2 3v455q-82 -73 -84 -74q-3 -2 -3 1q0 1 -8.5 31.5t-8.5 31.5q0 3 2 5l100 89q2 2 4 2h68q2 0 2 -3v-538q0 -3 -2 -3z" />
<glyph horiz-adv-x="358" d="M309 0h-264q-2 0 -2 2v66q0 4 2 6q128 168 156 215q32 54 32 81v47q0 61 -70 61q-21 0 -47 -4.5t-40 -9t-17 -5.5q-4 0 -4 2q0 1 -6.5 28.5t-6.5 28.5q0 4 1 4q52 26 120 26q147 0 147 -123v-59q0 -32 -25.5 -82.5t-50 -86.5t-83.5 -119v-8h158q3 0 3 -3v-64q0 -3 -3 -3z " />
<glyph horiz-adv-x="362" d="M48 19q-2 2 -1 5q1 1 6.5 27.5t5.5 28.5t4 2l7 -2q7 -1 18.5 -3.5t25 -5t30 -4t30.5 -1.5q72 0 72 60v44q0 74 -64 74h-52q-3 0 -3 3v60q0 3 3 3h52q22 0 39 16.5t17 47.5v44q0 60 -71 60q-22 0 -48 -4t-40 -8t-16 -5q-4 -2 -4 2q0 1 -6 28.5t-6 28.5q0 4 1 4 q48 24 119 24q28 0 48.5 -3.5t45 -14.5t38 -37t13.5 -66v-54q0 -25 -9 -47t-18 -32l-9 -9v-7q2 -1 5 -3t10.5 -10.5t13 -19.5t10.5 -29.5t5 -40.5v-57q0 -32 -9.5 -55t-23.5 -36t-35 -20t-38.5 -9t-39.5 -2q-34 0 -65.5 6t-46.5 12z" />
<glyph horiz-adv-x="362" d="M281 0h-63q-4 0 -4 3v94h-179q-2 0 -2 3v67q0 2 2 6l128 368q1 3 3 3h72q2 0 1 -3l-124 -367v-7h99v105q0 4 4 4h63q3 0 3 -4v-105h47q3 0 3 -3v-64q0 -3 -3 -3h-47v-94q0 -3 -3 -3z" />
<glyph horiz-adv-x="362" d="M176 -4q-80 0 -126 23q-1 1 -1 4q2 18 12 57q0 2 4 2q2 -1 18.5 -4.5t43.5 -7.5t48 -4q73 0 73 59v46q0 79 -64 79h-122q-3 0 -3 3v285q0 6 7 6h237q2 0 2 -3v-61q0 -3 -2 -3h-176v-161h59q25 0 44.5 -4t42.5 -16t36 -41t13 -74v-64q0 -33 -10.5 -57t-25 -36t-37 -19 t-37.5 -8t-36 -1z" />
<glyph horiz-adv-x="362" d="M182 61q31 0 49.5 17.5t18.5 74.5v25q0 50 -16 68.5t-47 18.5q-10 0 -28 -4.5t-31 -8.5l-13 -4v-126q0 -32 19.5 -46.5t47.5 -14.5zM187 -4q-145 0 -145 124v298q0 41 15.5 69t40.5 40t45.5 16.5t41.5 4.5q71 0 121 -25q1 -1 1 -4q0 -2 -3.5 -16t-7.5 -27l-3 -13 q0 -2 -3 -2l-6 2q-7 2 -18 4.5t-23.5 4.5t-28 4t-28.5 2q-71 0 -71 -63v-102q59 17 86 17q24 0 41 -3.5t37.5 -16.5t31.5 -44.5t11 -80.5v-36q0 -51 -12.5 -84.5t-35.5 -47t-41.5 -17.5t-45.5 -4z" />
<glyph horiz-adv-x="353" d="M154 0h-73q-3 0 -1 3l151 464v7h-185q-2 2 -2 3v63l2 4h263q3 0 3 -2v-65q0 -3 -2 -7q0 -1 -75.5 -233t-76.5 -234q-2 -3 -4 -3z" />
<glyph horiz-adv-x="363" d="M182 61q34 0 51 16t17 63v30q0 78 -67 78q-69 0 -69 -78v-30q0 -45 17.5 -62t50.5 -17zM182 318q64 0 64 66v29q0 70 -63 70q-66 0 -66 -70v-29q0 -66 65 -66zM181 -5q-64 0 -102 28.5t-38 111.5v40q0 35 12.5 61.5t24.5 35.5l13 10v3q-5 3 -12 9t-19 30t-12 54v39 q0 42 12 69.5t34 40t42.5 17t47.5 4.5q26 0 46 -4.5t41 -17t32.5 -40t11.5 -69.5v-39q0 -29 -10.5 -52t-20.5 -32l-10 -9v-2q5 -3 13.5 -10t22 -34.5t13.5 -63.5v-40q0 -45 -11.5 -74.5t-33.5 -43t-44 -18t-53 -4.5z" />
<glyph horiz-adv-x="362" d="M177 548q145 0 145 -123v-298q0 -41 -15.5 -69.5t-40.5 -40.5t-45.5 -16.5t-41.5 -4.5q-77 0 -123 23q-2 1 -2 5l15 55q0 2 3 2l7 -1q7 -2 18 -4t24 -4.5t28.5 -4t28.5 -1.5q71 0 71 64v91q-59 -18 -86 -18q-24 0 -41 4t-38 17t-32 44.5t-11 80.5v46q0 52 12.5 85 t36 46.5t42 17.5t45.5 4zM182 483q-15 0 -25 -3t-21.5 -11.5t-17 -28t-5.5 -49.5v-35q0 -50 16 -68.5t47 -18.5q11 0 29 4.5t31 8.5l13 5v136q0 31 -19.5 45.5t-47.5 14.5z" />
<glyph horiz-adv-x="793" d="M199 -4q-92 0 -154 31q-2 1 -1 4l10 29q10 29 11 30q1 2 3 2q5 -2 19 -7t47.5 -12t66.5 -7q43 0 66.5 12.5t23.5 53.5v42q0 32 -22.5 46t-71.5 19q-86 9 -118.5 38.5t-32.5 94.5v56q0 120 154 120q41 0 75.5 -6.5t47.5 -11.5t15 -7q4 -2 2 -5q0 -1 -9.5 -27.5 t-10.5 -28.5q-1 -3 -3 -2q-3 1 -16.5 5t-42.5 8.5t-56 4.5q-36 0 -57 -12t-21 -47v-40q0 -32 19.5 -47t70.5 -20q86 -9 120.5 -37.5t34.5 -95.5v-55q0 -42 -15 -69t-43 -39t-53 -16t-59 -4zM578 -4q-92 0 -154 31q-2 1 -1 4l10 29q10 29 11 30q1 2 3 2q5 -2 19 -7t47.5 -12 t66.5 -7q43 0 66.5 12.5t23.5 53.5v42q0 32 -22.5 46t-71.5 19q-86 9 -118.5 38.5t-32.5 94.5v56q0 120 154 120q41 0 75.5 -6.5t47.5 -11.5t15 -7q4 -2 2 -5q0 -1 -9.5 -27.5t-10.5 -28.5q-1 -3 -3 -2q-3 1 -16.5 5t-42.5 8.5t-56 4.5q-36 0 -57 -12t-21 -47v-40 q0 -32 19.5 -47t70.5 -20q86 -9 120.5 -37.5t34.5 -95.5v-55q0 -42 -15 -69t-43 -39t-53 -16t-59 -4z" />
<glyph horiz-adv-x="362" d="M153 59q-3 0 -3 3v126h-111q-2 1 -2 4v57q0 4 2 4h111v128q0 3 3 3h55q3 0 3 -3v-128h110q3 0 3 -4v-57q0 -4 -3 -4h-110v-126q0 -3 -3 -3h-55z" />
<glyph horiz-adv-x="155" d="M25 -82q-2 0 -2 4q0 2 19.5 82.5t20.5 81.5q1 3 3 3h64q2 0 1 -3q-1 -2 -27.5 -82.5t-26.5 -81.5q-2 -4 -4 -4h-48z" />
<glyph horiz-adv-x="256" d="M31 188q-2 0 -2 3v58q0 3 2 3h193q3 0 3 -3v-58q0 -3 -3 -3h-193z" />
<glyph horiz-adv-x="159" d="M44 0q-2 1 -2 3v82l2 3h71q2 0 2 -3v-82l-2 -3h-71z" />
<glyph horiz-adv-x="282" d="M44 -3q-2 0 -2 3q0 1 65 272.5t66 272.5q1 3 3 3h64q4 0 3 -3q-1 -1 -65.5 -272t-64.5 -273q-1 -3 -3 -3h-66z" />
<glyph horiz-adv-x="362" d="M39 108q-2 2 -2 3v58l2 4h282q3 0 3 -4v-58q0 -3 -3 -3h-282zM39 270q-2 2 -2 3v58l2 3h282q3 0 3 -3v-58q0 -3 -3 -3h-282z" />
<glyph horiz-adv-x="193" d="M131 0h-70q-2 0 -2 3v76q0 3 2 3h70q2 0 2 -3v-76q0 -3 -2 -3zM127 154h-62q-2 0 -2 3v384q0 3 2 3h62q2 0 2 -3v-384q0 -3 -2 -3z" />
<glyph horiz-adv-x="308" d="M185 147h-66q-2 0 -2 4v38q0 37 22.5 75t45 68.5t22.5 49.5v37q0 38 -16 49.5t-42 11.5q-20 0 -43.5 -4.5t-35 -8.5t-14.5 -5q-3 -2 -3 1l-14 56q0 3 1 4q50 25 110 25q25 0 44 -3.5t40.5 -15t33.5 -38t12 -66.5v-43q0 -33 -46 -98t-46 -95v-38q0 -4 -3 -4zM186 0h-69 q-3 0 -3 3v77q0 3 3 3h69q3 0 3 -3v-77q0 -3 -3 -3z" />
<glyph horiz-adv-x="167" d="M15 -82q-2 0 -2 4q0 2 19 82.5t20 81.5q2 3 3 3h64q3 0 2 -3l-55 -164q0 -4 -3 -4h-48zM49 296q-3 0 -3 4v81q0 3 3 3h69q3 0 3 -3v-81q0 -4 -3 -4h-69z" />
<glyph horiz-adv-x="238" d="M91 544q5 0 5 -4v-138q0 -3 -3 -3h-57q-2 0 -2 3v137q0 5 2 5h55zM199 544q5 0 5 -4v-138q0 -3 -3 -3h-56q-2 0 -2 3v137q0 5 2 5h54z" />
<glyph horiz-adv-x="370" d="M139 220h84l11 114h-84zM114 0h-52q-3 0 -3 3l16 161h-53q-3 0 -3 3v50q0 3 3 3h60l11 114h-58q-2 0 -2 3v50q0 3 2 3h63q15 149 15 151q0 3 3 3h54q2 0 2 -3l-15 -151h84q14 149 14 151q0 3 3 3h53q3 0 3 -3l-15 -151h50q3 0 3 -3v-50q0 -3 -3 -3h-58l-10 -114h55 q3 0 3 -3v-50q0 -3 -3 -3h-61q-16 -159 -16 -161q0 -3 -3 -3h-54q-2 1 -2 3l17 161h-84q-16 -159 -16 -161q0 -3 -3 -3z" />
<glyph horiz-adv-x="393" d="M174 -61q-3 0 -3 3v54q-75 2 -131 30q-2 1 -1 4l20 59q1 2 4 2l7 -3q7 -2 19.5 -6t28 -7.5t36.5 -6t41 -2.5q43 0 67 13t24 52v43q0 29 -21 44.5t-74 20.5q-81 8 -115.5 35t-34.5 98v55q0 112 130 120v54q0 3 3 3h45q4 0 4 -3v-54q68 -4 110 -25q3 -1 2 -4l-20 -57 q-1 -2 -4 -1t-16.5 5t-42 8.5t-55.5 4.5q-39 0 -59 -12t-20 -47v-41q0 -32 20 -46t71 -21q83 -10 118.5 -36.5t35.5 -95.5v-57q0 -120 -140 -126v-54q0 -3 -4 -3h-45z" />
<glyph horiz-adv-x="522" d="M387 -4q-39 0 -62.5 17.5t-23.5 68.5v78q0 84 87 84q17 0 29.5 -2.5t26 -10.5t20.5 -26t7 -45v-78q0 -28 -7 -46t-20.5 -26.5t-26 -11t-30.5 -2.5zM136 300q-38 0 -61.5 17.5t-23.5 68.5v78q0 84 87 84q17 0 29 -2.5t25.5 -10.5t21 -26t7.5 -45v-78q0 -52 -23.5 -69 t-61.5 -17zM162 -4h-58q-2 0 -1 3q22 60 126 273.5t126 272.5q0 3 3 3h59q4 0 1 -3l-252 -546q-2 -3 -4 -3zM136 351q18 0 27.5 8t9.5 35v63q0 24 -9 32.5t-27 8.5q-19 0 -29 -8.5t-10 -32.5v-63q0 -27 9.5 -35t28.5 -8zM387 46q18 0 27.5 8.5t9.5 33.5v64q0 25 -9 33t-27 8 t-28.5 -8.5t-10.5 -32.5v-64q0 -25 10 -33.5t28 -8.5z" />
<glyph horiz-adv-x="394" d="M198 -4q-25 0 -42.5 2t-40 10.5t-36.5 23t-23.5 42t-9.5 66.5v29q0 33 11 67t23 52l11 17q-24 42 -24 107v23q0 113 119 113q25 0 41.5 -3.5t35.5 -15t29 -38t10 -68.5q0 -3 -3 -3h-49q-2 0 -2 3q0 43 -16.5 58t-43.5 15q-23 0 -41.5 -14.5t-18.5 -51.5v-16 q0 -22 8.5 -46t18 -41.5t33.5 -57.5l91 -159q9 18 9 25v98q0 3 3 3h49q3 0 3 -3v-108q0 -12 -6.5 -29t-12.5 -28l-7 -11q35 -52 37 -54q2 -3 -1 -3h-66q-2 0 -5 3l-8 14q-28 -21 -76 -21zM198 53q12 0 22 3.5t14 6.5l5 3l-109 184q-21 -30 -21 -89v-16q0 -55 22 -73.5 t67 -18.5z" />
<glyph horiz-adv-x="140" d="M96 544q5 0 5 -4v-138q0 -3 -3 -3h-57q-2 0 -2 3v137q0 5 2 5h55z" />
<glyph horiz-adv-x="148" d="M47 -49q-4 -3 -4 2v136q0 3 2 3h58q2 0 2 -3v-89q0 -2 -2 -4z" />
<glyph horiz-adv-x="260" d="M158 -49q-4 -4 -4 2v136q0 3 2 3h58q3 0 3 -3v-89q0 -1 -3 -4zM47 -49q-4 -3 -4 2v136q0 3 2 3h58q2 0 2 -3v-89q0 -2 -2 -4z" />
<glyph horiz-adv-x="387" d="M238 -4q-37 0 -63 6.5t-54 25.5t-42.5 62.5t-14.5 109.5h-35q-2 0 -2 3v42q0 3 2 3h35v51h-35q-2 0 -2 3v43q0 3 2 3h35q0 115 45.5 157.5t129.5 42.5q74 0 124 -25q2 -2 1 -5l-21 -56q-1 -3 -3 -2q-3 1 -15.5 5t-37.5 8t-48 4q-49 0 -71.5 -27t-25.5 -102h114q3 0 3 -3 v-43q0 -3 -3 -3h-115v-51h115q3 0 3 -3v-42q0 -3 -3 -3h-114q2 -80 24.5 -105.5t71.5 -25.5q63 0 107 22q2 1 4 -2l21 -57q1 -3 -1 -4q-3 -3 -15 -9t-45 -14.5t-71 -8.5z" />
<glyph horiz-adv-x="353" d="M169 -80q-3 0 -3 3v74q-22 1 -37.5 6t-36 19.5t-31 47.5t-10.5 83v82q0 48 11 80.5t31 47t36 19.5t37 6v73q0 3 3 3h41q3 0 3 -3v-73q39 -1 83 -16q2 -1 1 -4l-17 -50q-1 -2 -3 -2h-4q-4 1 -11.5 2.5t-17 2.5t-23 1.5t-26.5 0.5q-33 0 -52 -18.5t-19 -76.5v-70 q0 -60 18.5 -78.5t52.5 -18.5q64 0 86 11q3 0 4 -2q0 -1 7.5 -25t8.5 -26q2 -3 -2 -5q-32 -16 -86 -17v-74q0 -3 -3 -3h-41z" />
<glyph horiz-adv-x="591" d="M292 106q27 0 41.5 11.5t14.5 45.5v110q0 45 -60 45q-26 0 -38.5 -18t-12.5 -64v-45q0 -36 9.5 -56t20 -24.5t25.5 -4.5zM291 -110q-260 0 -260 322t266 322q44 0 79 -6.5t71 -26.5t60.5 -52.5t39.5 -89t15 -132.5q0 -99 -30 -137.5t-82 -38.5q-47 0 -73 30 q-31 -31 -87 -31q-52 0 -83 29t-31 109v52q0 66 26 100t72 34q28 0 46.5 -6t23.5 -12l4 -6v18q0 2 2 2h55q2 0 2 -2v-205q0 -56 45 -56q25 0 38.5 23t13.5 99t-15 127t-44.5 77.5t-64.5 36.5t-84 10q-98 0 -151.5 -59.5t-53.5 -207.5q0 -263 200 -263q37 0 75 5t55.5 9.5 t20.5 5.5q2 1 3 -1l13 -49q0 -3 -2 -4q-5 -2 -21.5 -7.5t-58 -12t-85.5 -6.5z" />
<glyph horiz-adv-x="200" d="M106 -75l-5 3q-2 2 -6.5 9t-13 31.5t-15.5 58.5t-12.5 96t-5.5 139t5.5 139.5t12.5 97t15.5 58.5t13 31.5t6.5 8.5q3 3 5 3h55q2 0 0 -3q-49 -98 -49 -335q0 -115 13 -199t22 -107t14 -28q3 -3 0 -3h-55z" />
<glyph horiz-adv-x="199" d="M94 -75h-55q-3 0 0 3q2 2 6 10.5t12 34t15 60.5t12 96t5 133q0 114 -13.5 199t-22 106t-14.5 30q-1 3 1 3h55q2 0 5 -3t7 -9.5t13 -31t15.5 -58.5t12 -96.5t5.5 -139.5t-5.5 -139t-12.5 -96t-16 -59t-13.5 -31.5t-6.5 -8.5q-3 -3 -5 -3z" />
<glyph horiz-adv-x="249" d="M106 308q-2 0 -2 4v75q-51 -37 -53 -38t-3 1l-18 34q-3 3 0 5l52 37q-50 36 -52 37q-3 1 -1 5l19 35q2 2 3 1l53 -38v75q0 3 2 3h37q3 0 3 -3v-75q51 37 52 38q2 2 4 -1l19 -35q2 -4 -1 -5l-52 -37q50 -36 52 -37q2 -2 0 -5l-18 -34q-2 -3 -4 -1l-52 38v-75q0 -4 -3 -4 h-37z" />
<glyph horiz-adv-x="197" d="M51 -74v674h119q3 0 3 -3v-54q0 -3 -3 -3h-57v-555h57q3 0 3 -3v-53q0 -3 -3 -3h-119z" />
<glyph horiz-adv-x="197" d="M146 -74h-120q-2 0 -2 3v53q0 3 2 3h58v555h-58q-2 0 -2 3v54q0 3 2 3h120v-674z" />
<glyph horiz-adv-x="275" d="M27 188q-2 0 -2 3v58q0 3 2 3h220q2 0 2 -3v-58q0 -3 -2 -3h-220z" />
<glyph horiz-adv-x="315" d="M14 188q-2 0 -2 3v58q0 3 2 3h286q2 0 2 -3v-58q0 -3 -2 -3h-286z" />
<glyph horiz-adv-x="282" d="M44 -3q-2 0 -2 3q0 1 65 272.5t66 272.5q1 3 3 3h64q4 0 3 -3q-1 -1 -65.5 -272t-64.5 -273q-1 -3 -3 -3h-66z" />
<glyph horiz-adv-x="256" d="M31 188q-2 0 -2 3v58q0 3 2 3h193q3 0 3 -3v-58q0 -3 -3 -3h-193z" />
<glyph horiz-adv-x="362" d="M39 189q-2 0 -2 3v56q0 3 2 3h282q3 0 3 -3v-56q0 -3 -3 -3h-282zM147 44q-3 0 -3 3v79q0 3 3 3h67q2 0 2 -3v-79q0 -3 -2 -3h-67zM147 312q-3 0 -3 3v78q0 3 3 3h67q2 0 2 -3v-78q0 -3 -2 -3h-67z" />
<glyph horiz-adv-x="363" d="M71 0q-3 0 -3 2v222h-24q-3 0 -3 3v50q0 3 3 3h24v145q0 123 140 123q66 0 114 -24q3 -1 1 -5q0 -2 -6.5 -29t-7.5 -28t-3 -1l-6 2q-6 2 -15.5 4.5t-21.5 4.5t-26.5 4t-27.5 2q-30 0 -47 -12t-17 -49v-137h109q2 0 2 -3v-50q0 -3 -2 -3h-109v-154h174q3 0 3 -3v-64 q0 -3 -3 -3h-248z" />
<glyph horiz-adv-x="353" d="M222 217q19 9 19 41v20q0 33 -79 47q-3 0 -21 4q-27 -8 -27 -40v-21q0 -30 74 -42q21 -4 34 -9zM45 16q-1 0 -1 4q1 4 8 25t8 25q0 3 4 3q1 -1 16 -4.5t42 -7.5t51 -4q34 0 48.5 8.5t14.5 34.5v20q0 20 -16.5 29.5t-56.5 15.5q-20 3 -31.5 5.5t-29.5 9.5t-28 16t-18 25 t-8 38v36q0 40 23 63q-23 19 -23 60v36q0 94 124 94q30 0 58.5 -4.5t41 -8.5t13.5 -5q2 -1 2 -4q-1 -1 -8 -24t-7 -25t-4 -2l-6 1q-5 1 -14.5 3t-21.5 4t-26.5 3t-27.5 1q-54 0 -54 -38v-21q0 -19 17 -27.5t54 -14.5q116 -14 116 -95v-35q0 -46 -21 -67q21 -19 21 -56v-36 q0 -34 -10.5 -55.5t-32 -31t-40.5 -12t-48 -2.5q-89 0 -129 20z" />
<glyph horiz-adv-x="374" d="M152 0q-3 0 -3 3v115h-87q-3 0 -3 3v44q0 4 3 4h87v44h-87q-3 0 -3 3v45q0 3 3 3h64q-115 275 -116 277q-2 3 1 3h77q2 -1 3 -3l95 -236h3q93 234 94 236l1 1q1 2 2 2h76q4 0 2 -3l-117 -277h63q2 0 2 -3v-45q0 -3 -2 -3h-85v-44h85q2 0 2 -4v-44q0 -3 -2 -3h-86v-115 q0 -3 -2 -3h-70z" />
<glyph horiz-adv-x="227" d="M161 -73q-37 0 -55.5 21.5t-18.5 73.5v139q0 35 -9.5 53t-36.5 18q-2 1 -2 3v56q0 3 2 3q26 0 36 18t10 54v138q0 52 18.5 74t55.5 22h39q3 0 3 -3v-53q0 -3 -3 -3h-21q-30 0 -30 -37v-144q0 -48 -9.5 -66.5t-30.5 -27.5v-4q22 -10 31 -28.5t9 -66.5v-143q0 -38 30 -38 h21q3 0 3 -3v-53q0 -3 -3 -3h-39z" />
<glyph horiz-adv-x="192" d="M68 -75q-2 0 -2 3v669q0 3 2 3h56q2 0 2 -3v-669q0 -3 -2 -3h-56z" />
<glyph horiz-adv-x="227" d="M67 -73h-40q-2 2 -2 3v53l2 3h22q30 0 30 38v143q0 48 9 66.5t31 28.5v4q-21 9 -30.5 27.5t-9.5 66.5v144q0 37 -30 37h-22q-2 0 -2 3v53q0 3 2 3h40q38 0 56 -22t18 -74v-138q0 -36 10 -54t35 -18q3 0 3 -3v-56q0 -3 -3 -3q-45 0 -45 -71v-139q0 -52 -18.5 -73.5 t-55.5 -21.5z" />
<glyph horiz-adv-x="191" d="M67 -75q-2 0 -2 3v286q0 3 2 3h56q2 0 2 -3v-286q0 -3 -2 -3h-56zM67 311q-2 0 -2 3v283q0 3 2 3h56q2 0 2 -3v-283q0 -3 -2 -3h-56z" />
<glyph horiz-adv-x="363" d="M91 71q-38 38 -38 39q-2 2 0 5l86 106q-85 105 -86 106q-1 3 0 5q37 37 37 40q2 2 4 -1l87 -105q85 104 87 105q2 3 4 1q1 -2 39 -40q2 -2 0 -4l-88 -107q87 -104 88 -106q3 -3 0 -5l-39 -39q-2 -2 -4 0l-87 106q-85 -105 -87 -106t-3 0z" />
<glyph horiz-adv-x="362" d="M322 59q-1 1 -71 33.5t-141 65.5l-70 32q-2 1 -2 4v52q0 3 2 4q5 2 143 66.5t139 64.5q2 0 2 -3v-62q0 -3 -2 -5l-188 -90v-3q186 -88 188 -89t2 -5v-62q0 -4 -2 -3z" />
<glyph horiz-adv-x="362" d="M40 59q-2 -1 -2 3v62q0 4 2 5l188 89v3q-187 88 -188 90q-2 2 -2 5v62q0 3 2 3q1 0 139 -64.5t143 -66.5q2 -1 2 -4v-52q0 -3 -2 -4l-70 -32q-71 -33 -141 -65.5t-71 -33.5z" />
<glyph horiz-adv-x="282" d="M241 -3h-65q-3 0 -3 3q0 2 -64.5 273t-65.5 272q-1 3 1 3h66q2 0 3 -3q1 -1 65 -272.5t65 -272.5q0 -3 -2 -3z" />
<glyph horiz-adv-x="363" d="M36 216l116 325q0 3 3 3h53q2 0 3 -3q1 -2 58.5 -163t57.5 -162q0 -3 -1 -3h-63q-1 0 -4 3l-76 227h-3q-76 -225 -77 -227q-1 -3 -4 -3h-62q-3 0 -1 3z" />
<glyph horiz-adv-x="333" d="M2 -111q-2 0 -2 3v52q0 3 2 3h329q2 0 2 -3v-52q0 -3 -2 -3h-329z" />
<glyph horiz-adv-x="363" d="M47 225q0 6 4 11q3 4 11.5 11t26 15.5t33.5 8.5q25 0 63 -23.5t58 -23.5q15 0 30.5 9t25 18.5t11.5 9.5q4 0 4 -4v-39q0 -6 -4 -10q-30 -38 -72 -38q-24 0 -62 23.5t-58 23.5q-14 0 -30 -8.5t-26.5 -17.5t-12.5 -9t-2 4v39z" />
<glyph horiz-adv-x="267" d="M133 170q-30 0 -48.5 14t-18.5 54v18q0 66 69 66q18 0 30.5 -3t24 -19t11.5 -44v-18q0 -41 -18.5 -54.5t-49.5 -13.5z" />
<glyph horiz-adv-x="298" d="M148 548q53 0 91.5 -45.5t38.5 -109.5t-38.5 -109t-91.5 -45t-90 45t-37 109t37.5 109.5t89.5 45.5zM148 266q43 0 74 37t31 90t-30.5 90t-74.5 37q-43 0 -73.5 -37t-30.5 -90q0 -52 30.5 -89.5t73.5 -37.5zM127 309h-25q-1 0 -1 1v170h52q13 0 21.5 -2t17.5 -13.5 t9 -32.5v-12q0 -32 -21 -43l24 -67v-1h-29q-1 0 -1 1l-21 62h-26v-63zM127 398h25q21 0 21 22v12q0 23 -21 23h-25v-57z" />
<glyph horiz-adv-x="540" d="M270 548q95 0 162 -80.5t67 -195.5t-67 -195.5t-162 -80.5q-96 0 -163 80.5t-67 195.5t67 195.5t163 80.5zM270 39q79 0 134.5 68t55.5 165q0 96 -55.5 165t-134.5 69t-135.5 -69t-56.5 -165q0 -97 56 -165t136 -68zM276 118q-51 0 -81 25t-30 99v63q0 38 10 63.5t28 37 t35 15.5t38 4q23 0 42 -3t26.5 -5.5t8.5 -3.5q3 -1 2 -3q0 -1 -5.5 -19.5t-6.5 -19.5q0 -2 -2 -2l-3 1q-4 0 -10 1t-13.5 2.5t-17.5 2t-20 0.5q-57 0 -57 -75v-56q0 -26 4.5 -42t14 -23t17.5 -9t21 -2q11 0 21.5 1t18 2t13.5 2t10 2l4 1q2 0 2 -1t5.5 -19.5t6.5 -20.5 q1 -1 -2 -3l-4 -1q-3 -2 -9.5 -4t-15.5 -4.5t-22.5 -4t-28.5 -1.5z" />
<glyph horiz-adv-x="550" d="M270 233v309q0 2 3 2h56q1 0 1 -1l59 -173h5q56 170 57 172l2 2h56q1 0 1 -2v-309q0 -2 -1 -2h-46q-1 0 -1 2v205h-5q-46 -139 -46 -140q-2 -2 -3 -2h-34q-2 0 -4 3l-46 139h-5v-205q0 -2 -2 -2h-44q-3 0 -3 2zM102 233v263h-68q-2 0 -2 1v45q0 2 2 2h186q1 0 1 -2v-45 q0 -1 -1 -1h-69v-263q0 -2 -2 -2h-45q-2 0 -2 2z" />
<glyph horiz-adv-x="362" d="M69 22q-3 0 -1 3l35 82h-63q-2 0 -2 3v59l2 3h95l40 97h-135q-2 0 -2 4v58q0 3 2 3h167q34 81 35 83q4 4 5 4h46q3 0 1 -4l-35 -83h62q3 0 3 -3v-58q0 -4 -3 -4h-94l-40 -97h134q3 0 3 -3v-58q0 -4 -3 -4h-166q-35 -80 -36 -82q-1 -3 -4 -3h-46z" />
<glyph horiz-adv-x="362" d="M153 115q-3 0 -3 3v128h-110q-2 0 -2 3v58q0 3 2 3h110v128q0 3 3 3h56q3 0 3 -3v-128h109q3 0 3 -3v-58q0 -3 -3 -3h-109v-128q0 -3 -3 -3h-56zM40 0q-2 0 -2 3v57q0 3 2 3h282q2 0 2 -3v-57q0 -3 -2 -3h-282z" />
<glyph horiz-adv-x="362" d="M322 113q-1 1 -71 33.5t-141 65.5l-70 32q-2 1 -2 3v53q0 1 2 3l282 131q3 2 3 -2v-63q0 -2 -3 -5l-188 -89v-4q186 -87 188 -88q3 -1 3 -5v-63q0 -3 -3 -2zM39 0q-2 0 -2 3v59l2 3h283q3 0 3 -3v-59q0 -3 -3 -3h-283z" />
<glyph horiz-adv-x="362" d="M39 113q-2 -1 -2 2v63q0 4 2 5l188 88v4q-186 87 -188 89t-2 5v63l2 2l283 -131q2 -2 2 -3v-53q0 -2 -2 -3zM322 0h-283q-2 0 -2 3v59q0 3 2 3h283q3 0 3 -3v-59q0 -3 -3 -3z" />
<glyph horiz-adv-x="363" d="M45 306q0 7 4 11q3 4 11.5 11.5t26 16t33.5 8.5q25 0 63 -23.5t58 -23.5t44 18l24 19q3 0 3 -4v-39q0 -7 -3 -11q-37 -37 -72 -37q-24 0 -62 23.5t-58 23.5q-19 0 -45 -17l-25 -18q-2 0 -2 4v38zM45 145q0 7 4 11q3 4 11.5 11.5t26 16t33.5 8.5q25 0 63 -23t58 -23t44 18 l24 18q3 0 3 -4v-39q0 -6 -3 -10q-38 -38 -72 -38q-24 0 -62 24t-58 24q-19 0 -45 -18l-25 -18q-2 0 -2 4v38z" />
<glyph horiz-adv-x="160" d="M47 170q-3 0 -3 4v78q0 3 3 3h67q3 0 3 -3v-78q0 -4 -3 -4h-67z" />
<glyph horiz-adv-x="260" d="M213 547q4 2 4 -2v-136q0 -3 -3 -3h-57q-3 0 -3 3v89q0 2 2 4t28.5 23t28.5 22zM101 547q4 4 4 -2v-136q0 -3 -2 -3h-58q-2 0 -2 3v89q0 2 2 4z" />
<glyph horiz-adv-x="259" d="M158 402q-4 -4 -4 3v136q0 3 3 3h57q3 0 3 -3v-89q0 -3 -3 -5zM46 402q-3 -2 -3 3v136q0 3 2 3h58q2 0 2 -3v-89q0 -4 -2 -5q-2 -2 -28.5 -23t-28.5 -22z" />
<glyph horiz-adv-x="148" d="M101 547q4 4 4 -2v-136q0 -3 -2 -3h-58q-2 0 -2 3v89q0 2 2 4z" />
<glyph horiz-adv-x="148" d="M46 402q-2 1 -3 3v136q0 3 2 3h58q2 0 2 -3v-89q0 -4 -2 -5z" />
<glyph horiz-adv-x="728" d="M387 -4q-39 0 -62.5 17.5t-23.5 68.5v78q0 84 87 84q17 0 29.5 -2.5t26 -10.5t20.5 -26t7 -45v-78q0 -28 -7 -46t-20.5 -26.5t-26 -11t-30.5 -2.5zM136 300q-38 0 -61.5 17.5t-23.5 68.5v78q0 84 87 84q17 0 29 -2.5t25.5 -10.5t21 -26t7.5 -45v-78q0 -52 -23.5 -69 t-61.5 -17zM592 -4q-38 0 -61.5 17.5t-23.5 68.5v78q0 84 87 84q17 0 29 -2.5t25.5 -10.5t21 -26t7.5 -45v-78q0 -28 -7 -46t-21 -26.5t-26.5 -11t-30.5 -2.5zM162 -4h-58q-2 0 -1 3q22 60 126 273.5t126 272.5q0 3 3 3h59q4 0 1 -3l-252 -546q-2 -3 -4 -3zM592 46 q18 0 28 8.5t10 33.5v64q0 25 -9.5 33t-27.5 8t-28.5 -8.5t-10.5 -32.5v-64q0 -25 10 -33.5t28 -8.5zM136 351q18 0 27.5 8t9.5 35v63q0 24 -9 32.5t-27 8.5q-19 0 -29 -8.5t-10 -32.5v-63q0 -27 9.5 -35t28.5 -8zM387 46q18 0 27.5 8.5t9.5 33.5v64q0 25 -9 33t-27 8 t-28.5 -8.5t-10.5 -32.5v-64q0 -25 10 -33.5t28 -8.5z" />
<glyph horiz-adv-x="285" d="M140 379q18 0 27.5 8.5t9.5 34.5v37q0 24 -9 32.5t-27 8.5q-19 0 -29 -8.5t-10 -32.5v-37q0 -26 9.5 -34.5t28.5 -8.5zM140 329q-38 0 -61.5 17t-23.5 69v51q0 85 87 85q36 0 59.5 -17t23.5 -68v-51q0 -28 -7.5 -46t-21 -26.5t-26.5 -11t-30 -2.5z" />
<glyph horiz-adv-x="391" d="M176 382q2 -4 37 -39q2 -3 0 -5l-106 -126q105 -126 106 -127q2 -2 0 -5q-36 -36 -37 -38q-2 -2 -4 0q-1 1 -72.5 84t-72.5 84v4l145 168q1 1 4 0zM331 382q2 -4 37 -39q2 -4 0 -5l-106 -126q105 -126 106 -127q2 -3 0 -5l-37 -38q-2 -2 -3 0q-1 1 -73 83.5t-73 84.5t0 4 q0 1 73 84t73 84q2 2 3 0z" />
<glyph horiz-adv-x="388" d="M213 41q-1 2 -19 20l-19 19v4l106 127q-104 125 -106 126v5l37 39q2 2 4 0l145 -167q3 -2 0 -5l-145 -168q-2 -1 -3 0zM61 41q-37 37 -37 39q-3 1 0 4l106 127q-106 125 -106 126q-2 3 0 5q35 35 37 39q3 3 3 0q1 -1 73 -83.5t72 -83.5q3 -2 0 -5l-145 -168q-1 -1 -3 0z " />
<glyph horiz-adv-x="231" d="M165 382q2 -4 37 -39q2 -3 0 -5l-105 -126q104 -126 105 -127q3 -2 0 -5q-1 -2 -37 -38q-2 -2 -3 0q-1 1 -72.5 84t-72.5 84q-1 2 0 4q1 1 72 83.5t73 84.5t3 0z" />
<glyph horiz-adv-x="231" d="M67 41q-37 37 -37 39q-3 1 0 4l105 127q-105 125 -105 126q-2 3 0 5l37 39q1 2 3 0l145 -167q3 -2 0 -5l-145 -168q-2 -1 -3 0z" />
<glyph horiz-adv-x="211" d="M66 99q-4 0 -4 4v89q0 4 4 4h80q3 0 3 -4v-89q0 -4 -3 -4h-80zM66 481q-4 0 -4 4v89q0 4 4 4h80q3 0 3 -4v-89q0 -4 -3 -4h-80z" />
</font>
</defs>
</svg>
