<?xml version="1.0" standalone="no"?>
<!DOCTYPE svg PUBLIC "-//W3C//DTD SVG 1.1//EN" "http://www.w3.org/Graphics/SVG/1.1/DTD/svg11.dtd" >
<svg xmlns="http://www.w3.org/2000/svg" xmlns:xlink="http://www.w3.org/1999/xlink" version="1.1">
<metadata></metadata>
<defs>
<font id="sport1condensed_light_italic" horiz-adv-x="356" >
<font-face units-per-em="1000" ascent="750" descent="-250" />
<missing-glyph horiz-adv-x="201" />
<glyph unicode=" "  horiz-adv-x="201" />
<glyph unicode="&#x09;" horiz-adv-x="201" />
<glyph unicode="&#xa0;" horiz-adv-x="201" />
<glyph unicode="!" horiz-adv-x="227" d="M103 0h-59q-3 0 -3 4l11 74q0 4 3 4h59q3 0 3 -4l-11 -74q0 -4 -3 -4zM121 182h-47q-2 0 -2 4l69 490q0 4 3 4h47q4 0 4 -4l-69 -490q0 -4 -5 -4z" />
<glyph unicode="&#x22;" horiz-adv-x="270" d="M158 680q5 0 4 -4l-21 -149q0 -4 -3 -4h-49q-3 0 -3 4l21 148q0 5 3 5h48zM271 680q4 0 3 -4l-21 -149q0 -4 -3 -4h-48q-3 0 -3 4l21 148q0 5 4 5h47z" />
<glyph unicode="#" horiz-adv-x="438" d="M149 263h121l41 168h-121zM82 0h-38q-2 0 -2 3l51 214h-72q-3 0 -3 4l6 38q0 4 3 4h77l41 168h-77q-4 0 -3 4l5 38q1 4 4 4h83q48 197 48 199q0 4 5 4h38q2 0 2 -3l-48 -200h121q48 196 48 199q0 4 5 4h38q3 0 2 -4l-48 -199h70q3 0 3 -4l-6 -38q0 -4 -3 -4h-76l-40 -168 h76q3 0 3 -4l-6 -38q0 -4 -3 -4h-81q-51 -210 -51 -213q0 -4 -5 -4h-39q-1 1 -1 3l50 214h-120q-52 -210 -52 -213q0 -4 -5 -4z" />
<glyph unicode="$" horiz-adv-x="479" d="M177 -71q-3 0 -3 4l9 62q-44 0 -83 9t-55.5 16t-19.5 10q-2 2 -1 5l20 41q1 2 5 2l5 -2q4 -1 12 -4t18.5 -6t24.5 -6t29 -6t33 -4.5t36 -1.5q67 0 106.5 21t48.5 84l9 64q6 45 -21 68.5t-98 29.5q-98 6 -137.5 39.5t-27.5 119.5l9 65q19 140 183 145l9 62q0 4 5 4h35 q2 0 2 -4l-9 -62q36 -1 68 -8t45.5 -12.5t15.5 -7.5q3 -1 1 -5l-21 -39q-2 -3 -4 -2q-3 2 -19 6t-50.5 9.5t-67.5 5.5q-57 0 -92.5 -18.5t-43.5 -74.5l-9 -64q-7 -50 20 -71.5t96 -29.5q104 -12 141.5 -44t26.5 -112l-9 -66q-6 -41 -22.5 -71t-35 -45t-46.5 -24.5t-46 -12 t-44 -3.5l-9 -62q0 -4 -4 -4h-35z" />
<glyph unicode="%" horiz-adv-x="628" d="M135 -5h-44q-4 0 -1 4q63 114 205 341.5t205 340.5q3 4 6 4h43q4 0 1 -4q-1 -1 -204.5 -340.5t-204.5 -341.5q-2 -4 -6 -4zM423 36q27 0 44 12.5t22 49.5l13 97q5 36 -7 48t-39 12q-59 0 -67 -60l-13 -97q-5 -37 8 -49.5t39 -12.5zM417 -5q-20 0 -34 3t-28 12.5t-19.5 31 t-0.5 53.5l15 105q8 57 38 76.5t74 19.5q19 0 32.5 -3t28 -11.5t20 -29t0.5 -52.5l-15 -105q-9 -62 -38 -81t-73 -19zM189 425q27 0 44 12.5t22 49.5l14 97q5 35 -7.5 47.5t-39.5 12.5q-58 0 -66 -60l-14 -97q-5 -38 7.5 -50t39.5 -12zM184 384q-20 0 -34 3t-28.5 12.5 t-19.5 30.5t-1 53l14 105q14 97 113 97q20 0 33.5 -3t27.5 -11.5t19.5 -29.5t1.5 -53l-14 -105q-8 -61 -38 -80t-74 -19z" />
<glyph unicode="&#x26;" horiz-adv-x="479" d="M207 -5q-19 0 -33.5 1t-32 4t-29.5 8.5t-25.5 14.5t-20 22t-13.5 31.5t-5.5 43t4.5 55.5l5 31q7 43 27 86t36 64l17 22q-3 6 -6.5 17.5t-10 50t1.5 77.5l4 28q10 71 55.5 102.5t100.5 31.5q57 0 88 -20.5t31 -87.5q0 -38 -8 -38h-39q-1 0 -1 26q0 43 -20 58.5t-54 15.5 q-35 0 -63.5 -21t-35.5 -73l-3 -24q-5 -43 4 -81t39 -104l105 -235q19 27 20 37l20 138q0 4 4 4h42q4 0 4 -4l-20 -142q-2 -14 -13 -33.5t-21 -32.5l-10 -12q26 -49 27 -52q2 -4 -1 -4h-55q-3 0 -6 4l-9 19q-38 -28 -100 -28zM214 45q19 0 36 5.5t25 10.5l8 5l-121 264 q-41 -46 -53 -125l-4 -27q-12 -81 15 -107t94 -26z" />
<glyph unicode="'" horiz-adv-x="166" d="M161 680q5 0 4 -4l-21 -149q0 -4 -3 -4h-49q-3 0 -3 4l21 148q0 5 4 5h47z" />
<glyph unicode="(" horiz-adv-x="235" d="M85 -94q-1 0 -5 4q-3 3 -8.5 18t-12.5 69.5t-7 130.5q0 133 15 245.5t34.5 176.5t43 112.5t35.5 64t17 19.5q4 4 6 4h42q3 0 0 -4q-10 -13 -17 -23t-33.5 -66.5t-44 -118.5t-33 -172t-15.5 -234q0 -73 6.5 -128.5t11.5 -73.5t7 -20q4 -4 -1 -4h-41z" />
<glyph unicode=")" horiz-adv-x="235" d="M42 -94h-41q-1 0 1 4l1 1q62 79 102 241t40 368q0 74 -7 131t-11.5 73t-7.5 22q-3 4 1 4h42q2 0 6 -4q3 -3 8.5 -18t12.5 -69t7 -130q0 -133 -15 -246t-34.5 -177t-43.5 -112.5t-35.5 -64t-17.5 -19.5q-4 -4 -8 -4z" />
<glyph unicode="*" horiz-adv-x="295" d="M149 402q-4 0 -3 4l14 100q-76 -49 -78 -50t-3 2l-12 27q-2 4 1 6l78 50q-62 48 -64 50t0 6l20 28q2 2 4 1l64 -50l14 100q0 4 4 4h31q4 0 3 -4l-14 -100q76 49 77 50t2.5 0.5t2.5 -1.5l11 -28q2 -3 -2 -6l-78 -50q63 -49 64 -50q2 -2 1 -6l-19 -27q-3 -4 -5 -2l-64 50 l-14 -100q0 -4 -4 -4h-31z" />
<glyph unicode="+" horiz-adv-x="446" d="M172 79q-4 0 -4 4l24 168h-140q-3 0 -3 4l6 42q0 4 4 4h140l24 172q0 4 5 4h42q3 0 3 -4l-24 -172h141q3 0 2 -4l-6 -42q0 -4 -3 -4h-141l-24 -168q0 -4 -4 -4h-42z" />
<glyph unicode="," horiz-adv-x="182" d="M-11 -95q-2 0 -2 3q0 1 16 44t33 86.5t17 44.5q1 4 4 4h54q3 0 2 -4q-1 -2 -41 -86t-42 -88q-1 -4 -4 -4h-37z" />
<glyph unicode="-" horiz-adv-x="314" d="M40 250q-3 0 -3 4l6 42q0 4 4 4h225q4 0 4 -4l-6 -42q0 -4 -5 -4h-225z" />
<glyph unicode="." horiz-adv-x="187" d="M24 0q-4 0 -4 4l11 74q0 4 4 4h59q3 0 3 -4l-11 -74q0 -4 -3 -4h-59z" />
<glyph unicode="/" horiz-adv-x="342" d="M27 -4q-2 0 -2 2q0 1 64.5 171t129.5 340.5t65 171.5q1 4 5 4h45q4 0 1 -4q0 -1 -128.5 -340.5t-129.5 -340.5q-1 -4 -4 -4h-46z" />
<glyph unicode="0" horiz-adv-x="481" d="M206 44q33 0 54 6t42.5 24.5t35.5 58t23 101.5l31 217q6 41 6 71.5t-5.5 50.5t-14 33t-23.5 19t-29.5 8.5t-35.5 2.5q-31 0 -52 -6t-42.5 -24t-35.5 -56.5t-23 -98.5l-31 -217q-4 -44 -6 -75t5.5 -52.5t15 -33.5t23.5 -18.5t29 -8.5t33 -2zM199 -10q-20 0 -33 1t-31.5 4 t-30.5 10t-25.5 18t-21 29t-12.5 42t-4.5 58t6.5 76l33 230q9 63 26.5 107.5t36.5 68.5t47.5 37t51 16t55.5 3q20 0 33 -1t31.5 -3.5t30.5 -9.5t26 -17.5t21.5 -28t13 -41t5 -57t-6.5 -74.5l-33 -230q-8 -56 -21 -97.5t-31.5 -67t-36 -41t-42.5 -22t-42.5 -8.5t-45.5 -2z " />
<glyph unicode="1" horiz-adv-x="429" d="M224 0h-48q-4 0 -3 4l85 607q-121 -99 -122 -100q-2 -2 -2 1t-3.5 24t-3.5 22q0 3 3 6l135 114q2 2 6 2h48q3 0 3 -4l-95 -672q0 -4 -3 -4z" />
<glyph unicode="2" horiz-adv-x="438" d="M329 0h-309q-2 0 -2 2l8 57q0 2 2 4q18 21 51.5 59t51 58t45.5 52.5t43.5 51.5t36.5 45.5t33 43.5t24 36t17.5 33.5t7.5 26.5l10 74q4 31 -2 51t-22.5 28.5t-32 11t-39.5 2.5q-25 0 -57 -5t-50 -9.5t-20 -5.5q-4 -2 -4 3q0 2 -2 19.5t-2 19.5q0 4 2 5q4 3 18.5 8.5t50 12 t73.5 6.5q33 0 57.5 -5t49 -19.5t34.5 -45t3 -76.5l-11 -75q-5 -31 -25 -70t-70.5 -103.5t-81.5 -101.5t-112 -132l-1 -8h233q2 0 2 -4l-6 -46q-1 -4 -4 -4z" />
<glyph unicode="3" horiz-adv-x="445" d="M32 16q-2 2 0 5q2 2 8 20.5t6 20.5t5 2q2 -1 20.5 -5.5t50.5 -9.5t59 -5q24 0 39.5 2t36 10.5t33 28.5t17.5 52l11 74q5 35 -2 59t-23.5 33.5t-29 13t-26.5 3.5h-58q-4 0 -3 4l6 44q0 4 4 4h58q33 0 62.5 24.5t35.5 72.5l10 74q4 32 -2.5 52t-23.5 28t-31 10.5t-37 2.5 q-27 0 -58.5 -5t-49.5 -9.5t-20 -5.5q-5 -2 -5 3q0 3 -1.5 20.5t-1.5 19.5q0 4 2 5q52 26 141 26q23 0 40 -1.5t40.5 -10t37.5 -23t22 -43t3 -68.5l-10 -74q-5 -36 -19.5 -65t-26.5 -40l-13 -11l-1 -6q6 -4 13.5 -12t18 -43.5t3.5 -82.5l-10 -74q-7 -49 -27.5 -80.5 t-51.5 -44.5t-55 -17t-55 -4q-38 0 -73.5 6.5t-52.5 13.5z" />
<glyph unicode="4" horiz-adv-x="446" d="M290 0h-46q-4 0 -4 4l19 132h-229q-2 0 -2 3l8 55q0 1 1.5 2.5t1.5 2.5l238 477q2 4 4 4h52q4 0 2 -4l-236 -478l-2 -8h169l21 147q0 4 4 4h47q3 0 3 -4l-21 -147h63q4 0 4 -4l-7 -46q0 -4 -4 -4h-63l-19 -132q0 -4 -4 -4z" />
<glyph unicode="5" horiz-adv-x="446" d="M177 -10q-90 0 -142 26q-2 1 -1 5q2 7 7 20.5t7 19.5q1 2 5 2l9 -2q8 -2 22 -4.5t30.5 -5.5t35.5 -5t35 -2q23 0 38.5 2.5t36 10.5t33.5 27.5t17 50.5l10 75q16 120 -77 120h-149q-3 0 -3 4l48 338q0 8 9 8h268q3 0 3 -4l-7 -44q0 -4 -3 -4h-224l-35 -246h100q15 0 26 -1 t27.5 -4.5t27 -11t23.5 -20t17.5 -30.5t8.5 -44t-3 -61l-10 -75q-20 -145 -190 -145z" />
<glyph unicode="6" horiz-adv-x="439" d="M187 42q48 0 79.5 26.5t44.5 109.5l6 39q11 76 -12 104.5t-75 28.5q-12 0 -39.5 -6t-49.5 -12l-22 -7l-27 -187q-7 -50 21 -73t74 -23zM182 -10q-27 0 -50.5 5t-50 19t-39 44.5t-6.5 75.5l57 406q5 37 20.5 65t34.5 43.5t43.5 25.5t45 13t41.5 3q83 0 135 -26q3 -1 1 -5 q0 -1 -4 -11l-8 -20l-3 -9q0 -2 -4 -2q-1 0 -8.5 2t-20 4.5l-27.5 5.5t-33.5 5t-34.5 2q-50 0 -82 -20.5t-40 -77.5l-23 -161q82 25 119 25q12 0 21 -0.5t22 -2.5t22 -5t20 -9.5t18.5 -15.5t14.5 -22.5t10 -30.5t3 -40.5t-4 -51.5l-7 -50q-7 -50 -23.5 -86.5t-34.5 -54.5 t-43.5 -28.5t-42 -12.5t-39.5 -2z" />
<glyph unicode="7" horiz-adv-x="437" d="M129 0h-53q-4 0 -1 4l286 613l1 8h-246q-3 0 -3 4l7 46q0 5 4 5h306q2 0 2 -3l-7 -53q0 -1 -1.5 -3t-1.5 -3t-142.5 -305t-144.5 -309q-1 -4 -6 -4z" />
<glyph unicode="8" horiz-adv-x="445" d="M189 41q53 0 82.5 24t39.5 96l7 49q10 72 -13 96.5t-73 24.5t-83 -25.5t-43 -95.5l-7 -49q-10 -71 12.5 -95.5t77.5 -24.5zM237 383q100 0 114 101l7 49q15 105 -83 105q-43 0 -77.5 -24t-41.5 -81l-6 -49q-13 -101 87 -101zM181 -11q-36 0 -61 6t-46.5 22.5t-29 51 t-0.5 87.5l8 58q4 30 14 56t21.5 41t22.5 26t18 15l7 4v3q-2 1 -5.5 4t-12.5 13t-13.5 22.5t-9 34t0.5 46.5l8 57q22 154 182 154q150 0 128 -154l-8 -57q-3 -24 -12 -45t-19 -34t-19 -22.5t-15 -13.5l-7 -4v-3q6 -4 15 -12.5t21 -45t5 -85.5l-8 -58q-8 -54 -25.5 -89.5 t-45 -51.5t-53 -21t-61.5 -5z" />
<glyph unicode="9" horiz-adv-x="446" d="M270 638q-50 0 -82 -26t-43 -110l-7 -54q-10 -76 12.5 -104.5t74.5 -28.5q12 0 40 6.5t50 12.5l22 7l28 201q7 50 -21 73t-74 23zM275 690q21 0 40 -2.5t42 -11.5t38.5 -24t23.5 -42t3 -63l-57 -406q-6 -46 -27 -77.5t-50 -46.5t-55.5 -21t-54.5 -6q-90 0 -136 23 q-4 2 -2 6q16 32 16 40q0 2 4 2q2 -1 20 -5t49 -8t57 -4q110 0 123 98l20 146q-81 -25 -118 -25q-14 0 -24 0.5t-25 3t-24.5 7.5t-22.5 13.5t-18.5 21.5t-13 31.5t-5.5 43.5t4 57l9 65q9 62 30 102.5t51 56.5t52 20.5t51 4.5z" />
<glyph unicode=":" horiz-adv-x="195" d="M28 0q-4 0 -4 4l11 74q0 4 4 4h59q3 0 3 -4l-11 -74q0 -4 -3 -4h-59zM83 395q-3 0 -3 4l10 74q1 4 5 4h59q3 0 2 -4l-10 -74q-1 -4 -4 -4h-59z" />
<glyph unicode=";" horiz-adv-x="194" d="M-23 -95q-3 0 -3 4l67 174q1 4 4 4h53q3 0 2 -4q-1 -2 -40.5 -86.5t-41.5 -87.5q-1 -4 -4 -4h-37zM83 395q-3 0 -3 4l11 74q0 4 3 4h59q3 0 3 -4l-11 -74q0 -4 -3 -4h-59z" />
<glyph unicode="&#x3c;" horiz-adv-x="445" d="M361 93l-308 159q-3 2 -3 4l6 39q0 3 3 4q4 2 178.5 80.5t175.5 78.5q2 1 2.5 0.5t-0.5 -3.5l-6 -45q-1 -3 -4 -6l-275 -126v-6q236 -123 239 -125q2 -1 2 -6l-6 -45q-1 -4 -4 -3z" />
<glyph unicode="=" horiz-adv-x="446" d="M66 348q-3 0 -3 4l6 42q0 4 4 4h331q3 0 2 -4l-6 -42q0 -4 -3 -4h-331zM39 155q-3 0 -3 4l6 42q0 4 4 4h331q2 0 2 -4l-6 -42q0 -4 -3 -4h-331z" />
<glyph unicode="&#x3e;" horiz-adv-x="445" d="M30 93q-2 -1 -2.5 0t0.5 3l6 45q2 5 4 6l275 125l1 6q-238 124 -240 126q-3 3 -2 6l6 45q1 3 1.5 3h1.5t32.5 -16.5t77 -39.5t90.5 -46.5t77 -39.5l32 -17q2 -1 2 -4l-5 -39q0 -2 -4 -4q-3 -2 -176 -80t-177 -79z" />
<glyph unicode="?" horiz-adv-x="375" d="M196 172h-48q-4 0 -4 4l9 62q6 43 43 90.5t72 87t39 64.5l8 59q4 32 -0.5 52t-18.5 28t-26.5 10.5t-33.5 2.5q-25 0 -54 -5.5t-44.5 -10t-18.5 -6.5q-3 -1 -4 2l-6 40q0 4 3 5q56 28 133 28q29 0 49 -4t42.5 -17t31.5 -44.5t3 -79.5l-8 -60q-4 -28 -27.5 -62.5t-49.5 -62 t-49.5 -60.5t-27.5 -58l-9 -61q0 -4 -4 -4zM176 0h-58q-3 0 -3 4l10 75q0 4 5 4h58q3 0 3 -4l-11 -75q0 -4 -4 -4z" />
<glyph unicode="@" horiz-adv-x="716" d="M329 116q86 0 97 82l20 142q4 24 -4 40.5t-23.5 23.5t-28 10t-25.5 3q-42 0 -66.5 -27t-34.5 -97l-7 -47q-11 -78 10.5 -104t61.5 -26zM292 -126q-39 0 -73 7t-70 27.5t-61.5 53.5t-41.5 89t-16 129q0 115 23.5 202.5t60 139t89 84t103 43.5t108.5 11q45 0 81.5 -6.5 t73 -26t61 -51t39.5 -84t15 -122.5q0 -159 -41 -229.5t-122 -70.5q-61 0 -84 44q-43 -45 -117 -45q-60 0 -92 37t-19 137l7 54q11 79 47 123t94 44q40 0 65.5 -9t31.5 -18l5 -9l4 28q0 3 3 3h41q3 0 3 -3l-37 -264q-11 -76 56 -76q25 0 42.5 8.5t33.5 33t24 76.5t8 131 q0 76 -18 127.5t-52.5 77.5t-72.5 36.5t-88 10.5q-67 0 -121 -19.5t-102 -65t-75 -133t-27 -210.5q0 -78 19.5 -133.5t53 -83t69 -39t76.5 -11.5q53 0 101 6.5t66.5 11.5t22.5 7q1 1 3 0.5t2 -2.5l6 -37q0 -4 -3 -5q-5 -2 -26 -8t-72.5 -13.5t-106.5 -7.5z" />
<glyph unicode="A" horiz-adv-x="500" d="M128 208h222l-49 374h-16zM37 0h-53q-3 0 -2 4q0 1 72.5 169t144.5 335.5t72 168.5q0 3 5 3h61q3 0 5 -3q0 -2 48 -337t49 -336q2 -4 -2 -4h-53q-3 0 -4 4l-20 149h-257q-61 -146 -62 -149q-1 -4 -4 -4z" />
<glyph unicode="B" horiz-adv-x="502" d="M100 54h138q20 0 35 1.5t32.5 8t29.5 17t22 29.5t13 45l8 61q4 27 -2 47.5t-17 30.5t-28 16t-29.5 7.5t-28.5 1.5h-136zM144 373h135q37 0 59 -5q57 90 57 165q0 32 -7 52t-22.5 28.5t-29 10.5t-38.5 2h-118zM229 0h-194l96 680h179q31 0 51 -3.5t44 -15.5t36 -41.5 t12 -76.5q0 -50 -14.5 -90.5t-50.5 -101.5q62 -35 48 -134l-9 -61q-6 -43 -21 -73.5t-32 -46.5t-44.5 -24.5t-48 -10t-52.5 -1.5z" />
<glyph unicode="C" horiz-adv-x="464" d="M214 -10q-18 0 -32.5 1t-31.5 4t-30 8t-27 13.5t-23 21t-17 30.5t-11.5 40.5t-3 53t5.5 66.5l32 230q9 62 27.5 106.5t40 68.5t53 37t56 16.5t59.5 3.5q46 0 82.5 -8t48 -14t14.5 -9q2 -2 1 -5q-22 -33 -22 -38q-4 -4 -5 -2q-66 22 -127 22q-24 0 -41 -2.5t-40 -13 t-39 -29t-30 -54.5t-21 -86l-30 -218q-9 -49 -4 -83t13 -55t27 -32.5t37.5 -15t44.5 -3.5q12 0 25.5 1.5t25.5 3.5t23.5 4.5t21 5.5t18.5 6t14.5 5t9.5 4l4 1q2 2 4 -2q1 -1 6.5 -18.5t5.5 -18.5q1 -1 -3 -5q-3 -3 -18.5 -11.5t-56.5 -19t-87 -10.5z" />
<glyph unicode="D" horiz-adv-x="516" d="M100 54h128q35 0 59 6t48 24t39.5 56.5t23.5 98.5l29 207q4 31 4.5 56.5t-3 43.5t-9.5 32t-16 22.5t-19.5 14t-23.5 8t-25 3.5t-27 1h-128zM220 0h-185l96 680h185q18 0 29.5 -0.5t29.5 -2.5t29.5 -6t27 -12t24.5 -19.5t18 -28.5t13 -39t4 -52.5t-5 -66.5l-31 -220 q-9 -65 -28.5 -110.5t-40.5 -69t-53 -36t-55 -15t-58 -2.5z" />
<glyph unicode="E" horiz-adv-x="463" d="M35 0l96 680h341q3 0 3 -4l-6 -46q0 -4 -5 -4h-284l-36 -253h245q3 0 3 -4l-7 -46q0 -4 -3 -4h-245l-37 -265h284q3 0 3 -4l-6 -46q-1 -4 -5 -4h-341z" />
<glyph unicode="F" horiz-adv-x="459" d="M38 0q-3 0 -3 4l95 676h341q4 0 4 -4l-7 -46q0 -4 -4 -4h-284l-40 -286h245q2 0 2 -4l-6 -46q-1 -4 -4 -4h-245l-40 -282q0 -4 -3 -4h-51z" />
<glyph unicode="G" horiz-adv-x="509" d="M205 -10q-23 0 -40 1.5t-37.5 7.5t-33.5 16t-27.5 27.5t-19 43t-8 61t5.5 81.5l32 230q9 63 28.5 108t41.5 68.5t53.5 36.5t55 16t56.5 3q44 0 85.5 -7.5t59.5 -14t22 -9.5q2 -1 0 -5l-19 -38q-2 -3 -4 -2q-5 2 -25.5 6.5t-58.5 10t-67 5.5q-24 0 -40 -2t-39.5 -12 t-39 -28.5t-30.5 -55t-22 -87.5l-31 -217q-4 -43 -5 -73.5t8 -51.5t17.5 -34t25.5 -19.5t31 -8.5t34 -2l142 12l33 236h-99q-3 0 -3 4l7 44q0 4 3 4h155l-47 -333q-148 -22 -200 -22z" />
<glyph unicode="H" horiz-adv-x="541" d="M38 0q-3 0 -3 4l95 672q0 4 3 4h51q3 0 3 -4l-43 -307h277l43 307q0 4 3 4h51q3 0 3 -4l-95 -672q0 -4 -3 -4h-51q-3 0 -3 4l44 315h-277l-44 -315q-1 -4 -3 -4h-51z" />
<glyph unicode="I" horiz-adv-x="208" d="M38 0q-3 0 -3 4l95 672q0 4 3 4h51q3 0 3 -4l-95 -672q0 -4 -3 -4h-51z" />
<glyph unicode="J" horiz-adv-x="392" d="M125 -10q-24 0 -55 4.5t-49.5 8.5t-20.5 5q-3 2 -2 5l18 40q1 3 4 2q2 -1 20.5 -3.5t45.5 -5t44 -2.5q25 0 39.5 2.5t31.5 11.5t27.5 30.5t15.5 56.5l75 531q0 4 3 4h51q3 0 3 -4l-75 -531q-6 -43 -20.5 -73t-30.5 -45.5t-40 -24.5t-41.5 -10.5t-43.5 -1.5z" />
<glyph unicode="K" horiz-adv-x="480" d="M38 0q-3 0 -3 4l95 672q0 4 3 4h51q3 0 3 -4l-43 -304h28q246 301 248 304q3 4 5 4h65q3 0 1 -4l-273 -329q192 -341 193 -343q1 -4 -1 -4h-65q-3 0 -6 4l-173 315h-30l-44 -315q-1 -4 -3 -4h-51z" />
<glyph unicode="L" horiz-adv-x="442" d="M35 0l95 676q0 4 4 4h51q3 0 2 -4l-87 -622h284q3 0 3 -4l-6 -45q-2 -5 -5 -5h-341z" />
<glyph unicode="M" horiz-adv-x="633" d="M38 0q-3 0 -3 4l95 674q0 2 2 2h71q3 0 4 -2l99 -454h9q221 451 222 453q1 3 5 3h68q2 0 2 -3l-95 -673q0 -4 -3 -4h-50q-3 0 -3 4l76 542h-12q-197 -399 -198 -401q-3 -4 -5 -4h-51q-4 0 -5 4l-85 400h-13l-76 -541q0 -4 -3 -4h-51z" />
<glyph unicode="N" horiz-adv-x="544" d="M38 0q-3 0 -3 4l95 672q0 4 3 4h70q4 0 5 -4l168 -566h11l80 566q0 4 4 4h50q3 0 3 -4l-95 -672q0 -4 -3 -4h-69q-3 0 -5 4l-167 572h-14l-80 -572q0 -4 -3 -4h-50z" />
<glyph unicode="O" horiz-adv-x="509" d="M220 44q33 0 56 6t48 24t41.5 58t25.5 101l31 218q3 42 4 71.5t-8 50t-18.5 33t-26.5 19.5t-32.5 9t-36.5 2q-32 0 -55.5 -6t-48.5 -24t-42 -57t-25 -98l-30 -218q-7 -37 -4.5 -65.5t5 -49t13.5 -34t20.5 -21.5t25 -12.5t28 -5.5t29.5 -1zM213 -10q-18 0 -30.5 0.5t-30 3 t-30 7t-26.5 13t-23.5 20.5t-18 30t-12 41t-3.5 54t5 68l33 231q9 63 28 107.5t40.5 68t52.5 37t55 16.5t58 3q17 0 29.5 -0.5t30 -3t29.5 -6.5t27 -12.5t24.5 -20t18.5 -29.5t12.5 -40t3.5 -52.5t-5 -67.5l-33 -231q-9 -66 -29.5 -112.5t-41.5 -70.5t-54 -36.5t-54.5 -15 t-55.5 -2.5z" />
<glyph unicode="P" horiz-adv-x="489" d="M140 341h137q25 0 43 3.5t39 14t35 35.5t19 63l8 55q6 23 2.5 40.5t-5.5 29.5t-12 20t-17.5 13t-21 7.5t-23.5 3t-25 0.5h-139zM89 0h-51q-3 0 -3 4l95 676h194q15 0 24.5 -0.5t24 -1.5t24.5 -3.5t22.5 -6.5t20.5 -10.5t16.5 -15.5t13.5 -21.5t8.5 -28t3 -36t-3.5 -44.5 l-8 -56q-7 -46 -24 -79t-36.5 -50t-47.5 -26.5t-47.5 -11.5t-45.5 -2h-137l-40 -283q0 -4 -3 -4z" />
<glyph unicode="Q" horiz-adv-x="502" d="M213 -10q-18 0 -30.5 0.5t-30 3t-30 7t-26.5 13t-23.5 20.5t-18 30t-12 41t-3.5 54t5 68l33 231q9 63 28 107.5t40.5 68t52.5 37t55 16.5t58 3q17 0 29.5 -0.5t30 -3t29.5 -6.5t27 -12.5t24.5 -20t18.5 -29.5t12.5 -40t3.5 -52.5t-5 -67.5l-33 -231q-16 -115 -63 -173 q8 -12 18 -26t15 -20l5 -7q3 -3 -1 -6l-38 -34q-3 -3 -5 0l-38 54q-46 -25 -128 -25zM261 126q-2 3 1 6l38 35q2 2 4 0l46 -64q28 44 41 130l31 218q3 42 4 71.5t-8 50t-18.5 33t-26.5 19.5t-32.5 9t-36.5 2q-32 0 -55.5 -6t-48.5 -24t-42 -57t-25 -98l-30 -218 q-7 -37 -4.5 -65.5t5 -49t13.5 -34t20.5 -21.5t25 -12.5t28 -5.5t29.5 -1q56 0 87 18z" />
<glyph unicode="R" horiz-adv-x="513" d="M140 340h137q25 0 42.5 3.5t38.5 14t35 36t20 63.5l8 55q6 39 0 63.5t-23.5 34.5t-34.5 13t-44 3h-139zM89 0h-51q-3 0 -3 4l95 676h194q15 0 25 -0.5t24.5 -1.5t24.5 -3.5t22.5 -6.5t20.5 -11t16.5 -16t13.5 -21.5t8 -28t3 -36t-4 -44.5l-8 -55q-19 -134 -120 -162 l76 -290q2 -4 -2 -4h-57q-4 0 -5 4l-70 282h-160l-40 -282q0 -4 -3 -4z" />
<glyph unicode="S" horiz-adv-x="497" d="M205 -10q-104 0 -174 35q-2 1 0 5l20 42q2 3 4 2q5 -3 22.5 -9t58 -14t79.5 -8q31 0 52 3t44 13t37 32t19 57l10 69q7 49 -22 70.5t-95 27.5q-109 10 -143 46t-23 113l10 70q21 146 201 146q46 0 84 -7t52 -13t17 -9q4 -2 2 -5l-22 -39q-2 -3 -4 -2q-3 2 -18.5 6t-50 9.5 t-67.5 5.5q-57 0 -92.5 -19t-43.5 -74l-10 -69q-7 -49 20 -71.5t95 -29.5q106 -10 143 -43.5t26 -112.5l-10 -71q-7 -51 -29 -84.5t-56.5 -48t-64.5 -19t-71 -4.5z" />
<glyph unicode="T" horiz-adv-x="442" d="M155 0q-4 0 -3 4l87 622h-169q-3 0 -3 4l7 46q0 4 3 4h397q4 0 4 -4l-7 -46q0 -4 -4 -4h-171l-87 -622q-1 -4 -3 -4h-51z" />
<glyph unicode="U" horiz-adv-x="530" d="M204 -10q-101 0 -130 61.5t-8 215.5l58 409q0 4 3 4h51q3 0 3 -4l-57 -403q-21 -121 -4 -175t92 -54h41q76 0 103.5 48t46.5 181l57 403q0 4 3 4h50q4 0 4 -4l-58 -409q-11 -76 -24.5 -124t-37.5 -85t-61 -52.5t-92 -15.5h-40z" />
<glyph unicode="V" horiz-adv-x="489" d="M173 0q-3 0 -4 4l-96 672q-1 4 2 4h53q3 0 4 -4l78 -578h15q241 575 243 578q3 4 5 4h52q4 0 2 -4l-288 -672q-1 -4 -5 -4h-61z" />
<glyph unicode="W" horiz-adv-x="672" d="M102 0q-3 0 -3 4q0 2 -11 336.5t-12 335.5q-1 4 2 4h53q3 0 4 -4l14 -578h15q179 434 180 436q2 3 4 3h46q3 0 4 -3l55 -436h16q177 575 178 578q2 4 5 4h52q3 0 2 -4l-212 -672q-1 -4 -3 -4h-73q-2 0 -3 3l-55 421h-9q-172 -417 -173 -420q-2 -4 -4 -4h-72z" />
<glyph unicode="X" horiz-adv-x="460" d="M-14 0q-3 0 -2 4l224 352q-112 317 -113 320q-2 4 3 4h56q2 0 5 -4l87 -259h5q160 257 161 259q3 4 5 4h57q3 0 2 -4l-203 -320q124 -349 125 -352q1 -4 -3 -4h-57q-4 0 -5 4l-99 292h-6q-179 -290 -180 -292q-2 -4 -4 -4h-58z" />
<glyph unicode="Y" horiz-adv-x="436" d="M153 0q-3 0 -3 4l39 272q-117 397 -118 400q-2 4 2 4h57q1 0 4 -4l91 -327h5q181 324 183 327q3 4 4 4h56q5 0 2 -4l-229 -400l-39 -272q0 -4 -3 -4h-51z" />
<glyph unicode="Z" horiz-adv-x="452" d="M6 0q-2 0 -2 2l8 56q0 2 2 4l374 555l1 8h-284q-3 0 -3 4l7 46q0 5 4 5h346q4 0 3 -5l-7 -51q-2 -6 -4 -10l-372 -552l-1 -8h293q3 0 3 -4l-6 -46q-1 -4 -4 -4h-358z" />
<glyph unicode="[" horiz-adv-x="240" d="M27 -93l118 843h119q3 0 3 -4l-6 -39q0 -4 -3 -4h-69l-105 -749h69q2 0 2 -4l-5 -39q-1 -4 -4 -4h-119z" />
<glyph unicode="\" horiz-adv-x="342" d="M237 -4h-46q-3 0 -3 4t-32.5 342t-33.5 339q-1 4 2 4h45q3 0 4 -4q1 -2 34 -340t33 -341q0 -4 -3 -4z" />
<glyph unicode="]" horiz-adv-x="239" d="M105 -93h-118q-4 0 -4 4l6 39q0 4 4 4h70l106 749h-70q-4 0 -4 4l6 39q0 4 4 4h118z" />
<glyph unicode="^" horiz-adv-x="445" d="M51 284l202 392q2 4 5 4h39q1 0 3 -4q1 -3 47 -196.5t46 -195.5q0 -4 -2 -4h-46q-2 0 -5 4l-71 317h-5q-159 -314 -160 -317q-1 -4 -5 -4h-46q-5 0 -2 4z" />
<glyph unicode="_" horiz-adv-x="390" d="M-53 -123q-3 0 -3 4l6 40q0 4 4 4h382q2 0 2 -4l-5 -40q0 -4 -4 -4h-382z" />
<glyph unicode="`" d="M230 562l-55 134q-1 4 1 4h54q3 0 4 -4l42 -134q0 -4 -3 -4h-40q-5 0 -3 4z" />
<glyph unicode="a" horiz-adv-x="429" d="M144 -7q-65 0 -93.5 37t-21.5 90l7 50q7 53 46.5 84t88.5 31q21 0 54.5 -3.5t56.5 -7.5l23 -3l9 61q10 66 -11.5 85.5t-74.5 19.5q-28 0 -56 -4t-42 -7.5t-16 -4.5q-3 -1 -3 3l-6 36q0 4 2 5q44 22 132 22q18 0 30.5 -1t29.5 -4t26.5 -9.5t22 -17.5t15.5 -27.5t7 -39.5 t-3 -54l-46 -330q-1 -4 -5 -4h-47q-2 0 -2 4l4 26q-28 -37 -127 -37zM164 43q23 0 38 2t34.5 8.5t31.5 24t16 45.5l15 102q-79 14 -127 14q-35 0 -57 -20.5t-26 -50.5l-6 -43q-11 -82 81 -82z" />
<glyph unicode="b" horiz-adv-x="444" d="M206 44q24 0 38.5 3.5t33 17.5t31 47.5t20.5 87.5l11 77q4 31 4 55t-3 40t-10.5 27t-15 17t-18.5 9.5t-19.5 4t-20.5 0.5t-40 -6.5t-50 -13.5l-22 -6l-38 -271q-7 -48 24.5 -68.5t74.5 -20.5zM85 0h-48q-3 0 -3 4l95 672q0 4 3 4h48q3 0 3 -4l-31 -219q81 25 119 25 q15 0 25 -0.5t25 -3t25 -8.5t21.5 -15t17.5 -24t11 -35.5t4.5 -49t-5.5 -64.5l-12 -86q-8 -56 -22.5 -96t-29.5 -60.5t-37.5 -31.5t-38.5 -13.5t-40 -2.5q-48 0 -80 12t-42 31l-5 -32q0 -3 -3 -3z" />
<glyph unicode="c" horiz-adv-x="393" d="M171 -8q-14 0 -24.5 0.5t-24 3t-23.5 6t-21.5 10.5t-19 17t-14 25t-9 33.5t-2.5 43.5t4 55l15 109q7 51 23 88t33.5 56.5t43 30t44.5 13t45 2.5q70 0 121 -17q3 -1 1 -5l-16 -36q-1 -3 -5 -3q-2 1 -14.5 3t-39 4t-53.5 2q-24 0 -40.5 -4.5t-36 -17.5t-32.5 -43.5 t-20 -77.5l-15 -100q-3 -34 -4 -58t7 -40.5t15 -25.5t21 -14t24.5 -6.5t25.5 -1.5q78 0 117 13q3 1 3 -2l6 -37q0 -4 -3 -5q-42 -21 -132 -21z" />
<glyph unicode="d" horiz-adv-x="444" d="M327 0h-48q-3 0 -3 3l4 32q-34 -43 -132 -43q-14 0 -24.5 1t-24 3.5t-22.5 8.5t-19.5 15.5t-16 25t-9 36t-3 49.5t5.5 65l12 86q8 56 24 95.5t32.5 59.5t42 30.5t42 12.5t42.5 2q16 0 43.5 -6t46.5 -12l20 -7l31 219q0 4 3 4h48q3 0 3 -4l-95 -672q0 -4 -3 -4zM170 44 q44 0 81 20.5t44 68.5l38 271q-77 26 -105 26q-23 0 -37.5 -3.5t-34 -17t-33.5 -47t-21 -85.5l-11 -77q-4 -31 -4.5 -55.5t2 -41t9 -28t13 -17.5t18 -9.5t20 -4t21.5 -0.5z" />
<glyph unicode="e" horiz-adv-x="421" d="M95 262h217q14 99 -6.5 134.5t-75.5 35.5q-58 0 -89.5 -32t-45.5 -138zM178 -8q-36 0 -61 6t-50.5 25.5t-35 63.5t-0.5 112l11 83q9 65 30.5 108t52 62t56 25.5t57.5 6.5q16 0 27 -1t26.5 -4t26 -9t22.5 -16t18.5 -26t11 -37.5t4 -51.5t-5.5 -67l-8 -56h-272 q-3 -40 -5 -68t6 -47t15.5 -30.5t22.5 -17.5t27.5 -7.5t30.5 -1.5t38 1.5t35 4l27 4.5t19 3.5t8 1.5q5 0 5 -3q0 -2 1.5 -19t1.5 -18q0 -4 -2 -5q-4 -2 -18 -6.5t-49 -10t-73 -5.5z" />
<glyph unicode="f" horiz-adv-x="260" d="M51 0q-3 0 -3 4l60 425h-47q-3 0 -3 4l5 40q1 4 5 4h46l12 82q6 42 18.5 69.5t30 38.5t31 14.5t32.5 3.5q37 0 49 -6q3 -1 3 -4l-13 -39q-1 -3 -4 -3q-1 0 -8.5 0.5t-18 1t-18.5 0.5q-36 0 -47 -75l-12 -83h77q3 0 3 -4l-5 -40q-1 -4 -5 -4h-77l-60 -425q0 -4 -4 -4h-47z " />
<glyph unicode="g" horiz-adv-x="437" d="M166 45q13 0 41 5.5t49 11.5l22 6l39 276q5 37 -17 61.5t-83 24.5q-24 0 -39 -4t-33.5 -18t-31 -47.5t-19.5 -86.5l-10 -76q-13 -95 9 -124t73 -29zM138 -185q-88 0 -134 23q-4 2 -1 5q0 1 8.5 17.5t10.5 19.5q1 3 3 2q51 -17 117 -17q55 0 84.5 19.5t38.5 85.5l6 45 q-78 -22 -118 -22q-16 0 -27.5 1t-26 3.5t-24.5 8.5t-21 15.5t-17.5 24.5t-10.5 35t-3.5 48.5t5.5 63.5l12 85q10 67 27 110.5t41.5 62.5t46 25t53.5 6q100 0 123 -40l4 31q1 4 4 4h48q2 0 2 -4l-70 -503q-6 -43 -21 -73.5t-31 -46t-41.5 -24t-43 -10t-44.5 -1.5z" />
<glyph unicode="h" horiz-adv-x="453" d="M37 0q-3 0 -3 4l95 672q0 4 3 4h48q3 0 3 -4l-32 -228q84 34 125 34q14 0 24 -0.5t23.5 -3t22 -7t19.5 -12t15 -18.5t10 -27t4 -37t-4 -48l-46 -325q0 -4 -3 -4h-47q-4 0 -4 4l46 323q9 66 -9 85.5t-63 19.5q-16 0 -46 -9t-52 -17l-22 -9l-56 -393q0 -4 -3 -4h-48z" />
<glyph unicode="i" horiz-adv-x="202" d="M37 0q-3 0 -3 4l66 469q0 4 4 4h48q3 0 3 -4l-66 -469q0 -4 -4 -4h-48zM119 606q-3 0 -2 4l9 66q1 4 4 4h54q2 0 2 -4l-9 -66q-1 -4 -4 -4h-54z" />
<glyph unicode="j" horiz-adv-x="204" d="M-30 -185q-9 0 -20.5 1.5t-19.5 2.5l-8 1q-4 2 -2 5q0 1 7 19.5t7 19.5q2 3 3 3l7 -1q8 0 18.5 -0.5t18.5 -0.5q36 0 47 75l74 533q1 4 4 4h48q3 0 3 -4l-75 -533q-5 -35 -15 -60t-21 -37.5t-26.5 -19t-25 -7.5t-24.5 -1zM121 606q-3 0 -2 4l9 66q1 4 4 4h54q2 0 2 -4 l-9 -66q-1 -4 -4 -4h-54z" />
<glyph unicode="k" horiz-adv-x="408" d="M37 0q-3 0 -3 4l95 672q0 4 3 4h48q3 0 3 -4l-56 -396h34q150 191 151 193q3 4 6 4h61q3 0 0 -4l-176 -221q130 -245 131 -248q2 -4 -1 -4h-63q-4 0 -6 4l-113 221h-32l-31 -221q0 -4 -3 -4h-48z" />
<glyph unicode="l" horiz-adv-x="229" d="M126 -5q-14 0 -22 0.5t-18.5 3t-16.5 7.5t-12.5 14t-8.5 22t-2 33t4 46l78 555q0 4 4 4h47q3 0 2 -4l-78 -556q-7 -33 -1.5 -50t11.5 -21t17 -4q6 0 24 1t19 1q3 0 3 -4q0 -29 3 -38q1 -3 -4 -5q-10 -5 -49 -5z" />
<glyph unicode="m" horiz-adv-x="708" d="M37 0q-3 0 -3 4l66 469q0 4 4 4h48q3 0 2 -4l-3 -25q83 34 125 34q46 0 68.5 -9t36.5 -38q94 47 148 47q17 0 28.5 -1t27 -4t24.5 -9.5t20 -17t13.5 -27t6 -40t-3.5 -54.5l-46 -325q0 -4 -3 -4h-48q-3 0 -3 4l46 323q9 66 -10 85.5t-63 19.5q-16 0 -47 -10t-55 -20 l-23 -9q1 -31 -3 -64l-46 -325q0 -4 -4 -4h-47q-3 0 -3 4l46 323q7 29 2.5 49t-8 31t-16.5 16.5t-23.5 7t-27.5 1.5q-16 0 -45.5 -9t-51.5 -17l-22 -9l-56 -393q0 -4 -3 -4h-48z" />
<glyph unicode="n" horiz-adv-x="453" d="M37 0q-3 0 -3 4l66 469q0 4 4 4h48q3 0 2 -4l-3 -25q83 34 125 34q14 0 24 -0.5t23.5 -3t21.5 -6.5t19 -11.5t15 -19t10 -27t4 -37t-4 -48.5l-46 -325q0 -4 -3 -4h-46q-4 0 -4 4l46 323q9 66 -9 85.5t-63 19.5q-16 0 -46 -9t-52 -17l-22 -9l-56 -393q0 -4 -3 -4h-48z" />
<glyph unicode="o" horiz-adv-x="427" d="M175 44q27 0 43.5 4t36 18.5t32 47.5t20.5 86l12 80q9 42 5.5 70t-8.5 44.5t-19.5 25t-28 11t-34.5 2.5q-56 0 -88 -29t-46 -124l-12 -80q-5 -36 -5.5 -62.5t5 -43t13 -27t20.5 -15.5t25 -6.5t29 -1.5zM168 -8q-18 0 -31 1t-29 4t-26.5 9.5t-22 16t-17.5 25t-10.5 36 t-4 49t5.5 63.5l12 89q9 65 28 107.5t47.5 61.5t55 25t65.5 6q18 0 30 -1t27.5 -3.5t26 -8.5t22 -15.5t18 -24.5t11 -35t4 -48.5t-5.5 -63.5l-12 -89q-8 -56 -23 -95.5t-32 -60.5t-43 -32t-45.5 -13.5t-50.5 -2.5z" />
<glyph unicode="p" horiz-adv-x="444" d="M104 477h48q4 0 3 -4l-4 -31q33 40 133 40q17 0 28.5 -1t26.5 -5.5t25 -12.5t19.5 -23t14 -36t4.5 -53t-6 -73l-12 -83q-8 -56 -24 -95.5t-33 -60t-41.5 -31.5t-41.5 -13t-42 -2q-17 0 -45 5.5t-47 11.5l-20 5l-30 -214q0 -4 -3 -4h-48q-3 0 -3 4l95 672q0 4 3 4z M261 430q-44 0 -80.5 -19t-43.5 -67l-39 -276q78 -23 105 -23q22 0 37 4t34.5 18t33 47.5t21.5 85.5l11 74q5 31 5.5 55.5t-2 40.5t-9.5 27.5t-13.5 18t-18 9.5t-20 4t-21.5 1z" />
<glyph unicode="q" horiz-adv-x="444" d="M225 429q-24 0 -38.5 -3.5t-33 -17.5t-31 -47.5t-20.5 -86.5l-11 -77q-4 -31 -4 -55t3 -40t10.5 -27.5t15 -17t19 -9t20 -4t20.5 -0.5t40 6t49 12l22 5l39 277q5 33 -11.5 53t-38.5 26t-50 6zM346 477h48q3 0 3 -4l-95 -672q0 -4 -3 -4h-48q-3 0 -3 4l31 214 q-81 -23 -118 -23q-16 0 -26 0.5t-25 3t-25 8.5t-21.5 15t-18 24t-11.5 35.5t-4.5 49t5.5 64.5l12 86q10 69 28 113.5t44.5 62.5t46.5 23t51 5q99 0 122 -40l4 31q1 4 3 4z" />
<glyph unicode="r" horiz-adv-x="334" d="M37 0q-3 0 -3 4l66 469q0 4 4 4h48q3 0 2 -4l-3 -25q61 34 102 34q46 0 72 -13q3 -1 1 -5q-1 -1 -8.5 -18t-7.5 -18q-2 -4 -4 -3q-16 8 -64 8q-15 0 -40 -9.5t-42 -19.5l-17 -9l-55 -391q0 -4 -3 -4h-48z" />
<glyph unicode="s" horiz-adv-x="403" d="M164 -7q-106 0 -144 19q-3 2 -2 5l17 39q1 3 5 3q2 -1 18.5 -4.5t49 -7.5t63.5 -4q35 0 52.5 3t34.5 19t22 49l5 32q4 26 -15.5 43.5t-80.5 27.5q-73 11 -100.5 37t-20.5 79l5 39q14 112 157 112q22 0 43 -2t35.5 -5t25 -6t16.5 -5l6 -2q1 0 1 -2q0 -1 -8 -21l-8 -20 q-1 0 -1 -0.5t-1 -0.5l-7 2q-8 1 -20 3.5t-26 5t-31.5 4t-32.5 1.5q-87 0 -96 -66l-5 -35q-4 -28 14.5 -42.5t70.5 -22.5q73 -10 107.5 -37t25.5 -80l-6 -37q-5 -34 -17 -57.5t-26 -36t-36.5 -19.5t-41 -8.5t-48.5 -1.5z" />
<glyph unicode="t" horiz-adv-x="264" d="M136 -5q-14 0 -22 0.5t-18.5 3t-16.5 7.5t-11.5 14.5t-7.5 22.5t-2 33t4 45l43 308h-46q-2 0 -2 4l5 40q0 4 4 4h46l22 159q0 4 4 4h46q3 0 3 -4l-22 -159h79q3 0 3 -4l-5 -40q-1 -4 -5 -4h-79l-43 -309q-11 -75 26 -75q6 0 16.5 0.5t18.5 0.5l8 1q3 0 3 -3q0 -2 1 -20 t2 -19q1 -3 -4 -5q-15 -5 -50 -5z" />
<glyph unicode="u" horiz-adv-x="448" d="M400 477q3 0 3 -4l-66 -469q0 -4 -4 -4h-47q-3 0 -2 4l2 20q-83 -31 -124 -31q-30 0 -48.5 4t-39 17.5t-27 46.5t0.5 85l45 327q1 4 4 4h48q3 0 3 -4l-46 -325q-10 -66 8.5 -85.5t62.5 -19.5q16 0 46.5 8t52.5 16l22 8l55 398q1 4 4 4h47z" />
<glyph unicode="v" horiz-adv-x="395" d="M135 0q-3 0 -3 4l-81 469q-1 4 1 4h53q4 0 5 -4l57 -378h11q162 376 163 378q3 4 5 4h51q3 0 2 -4l-212 -469q-1 -4 -5 -4h-47z" />
<glyph unicode="w" horiz-adv-x="599" d="M110 0q-3 0 -3 4l-43 469q0 4 2 4h50q4 0 5 -4l29 -376h8q131 283 131 286q0 4 3 4h43q4 0 4 -4l52 -286h9q129 373 131 376q2 4 5 4h51q2 0 1 -4q-1 -2 -87.5 -235t-86.5 -234q-3 -4 -5 -4h-49q-2 0 -3 4l-51 297h-9q-133 -295 -134 -297q-3 -4 -5 -4h-48z" />
<glyph unicode="x" horiz-adv-x="392" d="M-12 0q-4 0 -2 4l173 246q-92 221 -93 224q-2 3 2 3h56q2 0 4 -4l65 -172h9q115 170 115 172q4 4 6 4h55q2 0 0 -3l-157 -224q102 -243 103 -246q2 -4 -1 -4h-55q-4 0 -5 4l-75 194h-9q-130 -191 -132 -194q-2 -4 -4 -4h-55z" />
<glyph unicode="y" horiz-adv-x="395" d="M-7 -180q-3 0 -3 3q0 2 6 22.5t6 21.5q0 4 5 4h20q22 0 39 16t43 74l21 49q-78 460 -79 463q-1 4 3 4h51q2 0 3 -4l60 -377h9q163 374 164 377q1 4 5 4h50q2 0 1 -4l-237 -519q-23 -49 -39.5 -77t-34 -40.5t-28.5 -14.5t-35 -2h-30z" />
<glyph unicode="z" horiz-adv-x="391" d="M11 0q-3 0 -3 4l7 44q0 3 4 8l276 362l1 7h-215q-3 0 -3 4l6 44q0 4 4 4h280q3 0 3 -4l-6 -43q0 -3 -4 -7l-276 -364l-1 -8h225q3 0 2 -4l-6 -43q0 -4 -3 -4h-291z" />
<glyph unicode="{" horiz-adv-x="270" d="M137 -91q-37 0 -52.5 24.5t-7.5 85.5l27 196q14 89 -40 89q-4 0 -4 4l6 43q0 4 5 4q30 0 45 22t21 67l27 196q8 61 31.5 85.5t60.5 24.5h39q3 0 3 -4l-6 -39q0 -4 -4 -4h-28q-38 0 -45 -49l-29 -209q-8 -60 -22 -81.5t-38 -31.5l-1 -5q14 -7 20 -14.5t11 -32t-3 -66.5 l-29 -209q-8 -49 32 -49h27q4 0 3 -4l-5 -39q0 -4 -5 -4h-39z" />
<glyph unicode="|" horiz-adv-x="214" d="M33 -94q-3 0 -3 4l118 836q0 4 3 4h42q3 0 3 -4l-118 -836q0 -4 -3 -4h-42z" />
<glyph unicode="}" horiz-adv-x="270" d="M26 -91h-39q-4 0 -4 4l6 39q0 4 4 4h28q18 0 30 13t15 36l30 209q6 42 16 66.5t18 32t24 14.5l1 5q-20 10 -27.5 31.5t0.5 81.5l29 209q7 49 -31 49h-28q-3 0 -3 4l5 39q0 4 5 4h39q36 0 52.5 -24.5t8.5 -85.5l-28 -196q-6 -45 2.5 -67t37.5 -22q4 0 4 -4l-6 -43 q0 -4 -5 -4q-31 0 -45.5 -24t-19.5 -65l-28 -196q-8 -61 -31.5 -85.5t-59.5 -24.5z" />
<glyph unicode="~" horiz-adv-x="445" d="M57 274q3 8 5 10q4 4 16.5 13t36 20t41.5 11q27 0 69.5 -29t67.5 -29q18 0 38.5 11.5t34.5 23t16 11.5q3 0 3 -4l-5 -32q0 -6 -4 -10q-45 -45 -94 -45q-27 0 -68.5 29t-66.5 29q-16 0 -37.5 -11.5t-37 -22.5t-17.5 -11q-3 0 -2 6z" />
<glyph unicode="&#xa1;" horiz-adv-x="225" d="M139 680h59q3 0 3 -4l-11 -74q0 -4 -3 -4h-59q-3 0 -3 4l11 74q0 4 3 4zM119 498h47q3 0 3 -4l-69 -490q0 -4 -4 -4h-47q-3 0 -3 4l69 490q0 4 4 4z" />
<glyph unicode="&#xa2;" horiz-adv-x="436" d="M162 -102q-3 0 -3 4l13 94q-14 1 -25 2.5t-26 6.5t-24.5 13.5t-20.5 22.5t-14.5 34.5t-6 49t4.5 65.5l14 102q7 50 21.5 86t30.5 55t38.5 30.5t38.5 14.5t38 4l13 92q0 4 3 4h34q4 0 4 -4l-13 -92q81 -4 101 -17q3 -1 1 -5l-18 -37q-1 -2 -4 -2l-6 1q-5 1 -15 2.5 t-22.5 2.5t-29.5 2t-34 1q-24 0 -40 -4t-35.5 -17t-32.5 -44t-20 -78l-13 -93q-8 -40 -3.5 -67t10.5 -43t21 -24t27.5 -10.5t31.5 -2.5q27 0 55.5 3.5t43.5 7t17 4.5q2 0 3 -3l7 -36q1 -3 -3 -5q-40 -20 -111 -22l-13 -94q0 -4 -4 -4h-34z" />
<glyph unicode="&#xa3;" horiz-adv-x="445" d="M64 0q-3 0 -3 3l41 289h-33q-3 0 -3 4l6 40q0 4 4 4h33l28 199q7 49 26.5 80.5t48.5 44.5t51.5 17t51.5 4q69 0 125 -28q4 -2 2 -5l-18 -41q-1 -2 -5 -2q-4 2 -17 6.5t-41 10t-53 5.5q-23 0 -37.5 -2.5t-32.5 -10.5t-29 -28t-16 -52l-28 -198h144q2 0 2 -4l-6 -40 q0 -4 -3 -4h-143l-34 -238h228q3 0 3 -4l-7 -46q0 -4 -3 -4h-282z" />
<glyph unicode="&#xa4;" horiz-adv-x="376" d="M178 217q36 0 57 17t28 65l7 48q7 47 -9.5 63t-52.5 16q-76 0 -86 -79l-6 -48q-6 -50 10 -66t52 -16zM87 109h-40q-4 0 -3 4q14 60 45 80q-33 22 -22 102l8 56q10 70 51 98q-24 20 -24 71q0 14 5 14h40q2 0 2 -4q1 -31 16 -44.5t50 -13.5q34 0 52.5 12.5t27.5 45.5 q1 4 4 4h42q3 0 2 -4q-12 -59 -44 -79q30 -28 20 -100l-8 -56q-10 -74 -49 -102q23 -17 23 -69q0 -15 -4 -15h-42q-3 0 -3 4q0 34 -16 46t-48 12q-31 0 -51 -11t-30 -47q-1 -4 -4 -4z" />
<glyph unicode="&#xa5;" horiz-adv-x="449" d="M159 0q-2 0 -2 4l22 157h-117q-3 0 -3 4l6 40q0 4 4 4h117l9 66h-117q-2 0 -2 4l5 40q1 4 5 4h94q-102 351 -103 353q-2 4 3 4h57q1 0 3 -4l92 -329h2q183 327 184 329q2 4 6 4h57q3 0 1 -4l-201 -353h92q3 0 3 -4l-6 -40q0 -4 -4 -4h-114l-9 -66h114q3 0 3 -4l-6 -40 q0 -4 -4 -4h-114l-22 -157q0 -4 -4 -4h-51z" />
<glyph unicode="&#xa6;" horiz-adv-x="213" d="M32 -94q-3 0 -3 4l51 357q0 4 3 4h42q3 0 3 -4l-51 -357q0 -4 -3 -4h-42zM100 389q-3 0 -3 4l50 353q0 4 3 4h42q3 0 3 -4l-50 -353q0 -4 -3 -4h-42z" />
<glyph unicode="&#xa7;" horiz-adv-x="442" d="M279 255q37 13 44 64l4 30q3 27 -17.5 44t-80.5 27q-30 6 -40 9q-45 -13 -52 -61l-5 -33q-4 -26 14.5 -41.5t72.5 -23.5q35 -6 60 -15zM32 16q-1 1 0 5q3 7 9.5 20l9.5 19q1 3 4 3q3 -1 18 -5t47.5 -8.5t63.5 -4.5q52 0 76.5 13t31.5 58l5 30q5 32 -18.5 47t-76.5 24 q-72 13 -94 30q-36 27 -28 86l5 37q8 57 44 85q-29 26 -21 81l6 37q10 65 51 88.5t106 23.5q84 0 126 -21q1 -1 1 -3q-1 -1 -10 -19.5t-9 -19.5q0 -2 -3 -2l-6 2q-7 2 -18.5 4t-25.5 4.5t-31 4.5t-32 2q-88 0 -97 -66l-4 -33q-4 -31 17.5 -44.5t68.5 -20.5q66 -10 103 -35 t29 -81l-5 -36q-10 -67 -42 -95q26 -24 19 -71l-5 -37q-6 -41 -20.5 -67t-40 -37.5t-49 -15t-60.5 -3.5q-103 0 -145 21z" />
<glyph unicode="&#xa8;" d="M117 605q-4 0 -3 4l9 67q1 4 5 4h48q2 0 2 -4l-9 -67q-1 -4 -4 -4h-48zM282 605q-3 0 -2 4l9 67q1 4 4 4h48q2 0 2 -4l-9 -67q-1 -4 -4 -4h-48z" />
<glyph unicode="&#xa9;" horiz-adv-x="687" d="M401 685q104 0 172.5 -86t68.5 -212q0 -157 -103.5 -274.5t-234.5 -117.5q-106 0 -174.5 86t-68.5 212q0 157 103.5 274.5t236.5 117.5zM309 35q116 0 206 104t90 244q0 111 -59.5 187t-150.5 76q-117 0 -207.5 -104t-90.5 -244q0 -111 60 -187t152 -76zM329 146 q-26 0 -44.5 4.5t-37 19t-25 47.5t0.5 84l11 82q7 49 23 81.5t39 46.5t43 19t45 5q68 0 96 -14q1 0 1 -2q0 -3 -14 -31q-1 -2 -3 -2q-1 0 -5.5 1t-12 2t-17.5 2t-23.5 2t-27.5 1q-18 0 -31.5 -3.5t-28.5 -14t-25.5 -35t-15.5 -61.5l-11 -76q-7 -32 -2.5 -54t9 -34t17 -18.5 t22 -8t23.5 -1.5t28.5 1t25 3t19 3.5t13.5 2.5l5 1q4 0 4 -2q0 -3 2 -15.5t3 -13.5q2 -4 -2 -4q-36 -18 -104 -18z" />
<glyph unicode="&#xaa;" horiz-adv-x="257" d="M137 420q65 0 71 47l8 56q-47 8 -75 8q-21 0 -34 -11.5t-15 -28.5l-3 -24q-3 -19 7.5 -33t40.5 -14zM124 387q-39 0 -56.5 22t-12.5 54l4 29q4 32 28.5 51t54.5 19l78 -9l5 33q6 37 -7.5 48.5t-44.5 11.5q-45 0 -67 -11q-2 -1 -2 2q0 1 -2 11t-2 14q0 2 1 3t9 4.5t28 7 t43 3.5q20 0 32.5 -2.5t26 -11t18 -28.5t0.5 -51l-27 -195q0 -2 -3 -2h-30q-1 0 -1 2l2 18q-16 -23 -75 -23z" />
<glyph unicode="&#xab;" horiz-adv-x="449" d="M406 453q4 -8 24 -28q2 -2 0 -6l-150 -154q104 -152 106 -154q2 -3 -1 -6q-1 -1 -9 -7.5t-15.5 -13t-7.5 -7.5q-2 -4 -4 0q-1 2 -67 93t-67 92q-3 2 1 6l186 185q2 2 4 0zM234 453q20 -20 24 -28q2 -3 0 -6l-150 -154q105 -152 106 -154q2 -4 -1 -6l-32 -28q-3 -3 -4 0 q-1 1 -66 92.5t-66 92.5q-2 4 0 6l185 185q2 2 4 0z" />
<glyph unicode="&#xac;" horiz-adv-x="446" d="M335 251h-283q-3 0 -3 4l6 42q0 4 4 4h331q3 0 2 -4l-24 -176q-2 -4 -4 -4h-44q-3 0 -3 4z" />
<glyph unicode="&#xad;" horiz-adv-x="314" d="M40 250q-3 0 -3 4l6 42q0 4 4 4h225q4 0 4 -4l-6 -42q0 -4 -5 -4h-225z" />
<glyph unicode="&#xae;" horiz-adv-x="381" d="M247 685q59 0 97.5 -48t38.5 -118q0 -87 -58 -152.5t-132 -65.5q-59 0 -97 48t-38 118q0 87 57.5 152.5t131.5 65.5zM197 329q63 0 111.5 55.5t48.5 131.5q0 60 -32 100.5t-82 40.5q-62 0 -111 -56t-49 -131q0 -60 32.5 -100.5t81.5 -40.5zM173 387h-23v2l30 213h61 q12 0 19.5 -1.5t17 -6.5t12.5 -17.5t0 -31.5l-3 -17q-7 -42 -35 -51l20 -88l-1 -2h-25v2l-20 83h-39l-11 -83q0 -2 -3 -2zM191 496h35q30 0 36 33l3 16q2 11 0 17.5t-7 9.5t-9.5 4t-11.5 1h-35z" />
<glyph unicode="&#xaf;" d="M332 618h-215q-3 0 -3 4l6 42q0 4 4 4h215q3 0 2 -4l-6 -42q0 -4 -3 -4z" />
<glyph unicode="&#xb0;" horiz-adv-x="371" d="M207 465q27 0 43.5 12t21.5 50l8 57q5 36 -6.5 48t-38.5 12q-59 0 -67 -60l-8 -57q-5 -38 7.5 -50t39.5 -12zM202 424q-21 0 -35 3t-28 12.5t-19.5 30.5t-0.5 53l9 65q8 57 37.5 77t74.5 20q20 0 33.5 -3t28 -11.5t20 -29.5t1.5 -53l-9 -65q-9 -61 -38.5 -80t-73.5 -19z " />
<glyph unicode="&#xb1;" horiz-adv-x="445" d="M177 110q-3 0 -3 4l24 171h-140q-3 0 -3 4l6 42q0 4 4 4h140l24 170q0 4 4 4h42q3 0 3 -4l-24 -170h141q2 0 2 -4l-6 -42q-1 -4 -3 -4h-141l-24 -171q0 -4 -4 -4h-42zM17 0q-3 0 -3 4l6 42q0 4 4 4h331q2 0 2 -4l-6 -42q0 -4 -3 -4h-331z" />
<glyph unicode="&#xb2;" horiz-adv-x="263" d="M220 270h-186l-2 1l5 38q0 1 2 3q10 11 30.5 34t30 34t27 31t26.5 30.5t21.5 26.5t19.5 26t14 21.5t10.5 20t4.5 15.5l6 39q5 34 -11 44t-46 10q-15 0 -34 -3.5t-30 -6.5t-11 -4q-3 0 -3 2t-1.5 14.5t-1.5 13.5q0 2 1 3q36 18 85 18q44 0 69.5 -18.5t18.5 -70.5l-6 -42 q-3 -24 -30.5 -65t-53.5 -72t-87 -101l-1 -5h138q3 0 3 -2l-5 -33q0 -2 -3 -2z" />
<glyph unicode="&#xb3;" horiz-adv-x="266" d="M41 284q-1 1 -1 3q11 22 11 29q0 1 4 1l5 -1q4 -2 12 -4t17 -3.5t21 -3t22 -1.5q19 0 30.5 2t25 14.5t17.5 36.5l6 40q3 20 -1 34t-13.5 19.5t-17 7.5t-15.5 2h-35q-3 0 -3 2l4 31q0 2 4 2h35q19 0 36.5 14.5t20.5 41.5l5 40q3 24 -6 36.5t-20 14.5t-29 2q-16 0 -35 -3 t-30 -6t-12 -4q-2 -2 -2 1q0 2 -2 15t-2 14q0 2 1 3t11 5t31.5 8t43.5 4q18 0 31 -2.5t29 -10t23.5 -27t3.5 -48.5l-5 -41q-3 -21 -12 -38t-16 -24l-8 -7l-1 -4q3 -2 8 -7t11.5 -26t2.5 -49l-6 -42q-4 -29 -16.5 -48.5t-31 -27t-33 -10t-33.5 -2.5q-23 0 -44.5 4.5 t-31.5 8.5z" />
<glyph unicode="&#xb4;" d="M205 562q-2 -4 -7 -4h-40q-2 0 0 4l78 134q3 4 5 4h54q4 0 2 -4z" />
<glyph unicode="&#xb6;" horiz-adv-x="483" d="M171 -181q-4 0 -3 4l62 444q-27 0 -49.5 3.5t-46.5 14t-39 28.5t-22 49.5t-2 73.5l10 77q22 166 207 166h187q3 0 2 -4l-119 -852q-2 -4 -4 -4h-45q-3 0 -2 4l113 806h-87l-113 -806q0 -4 -5 -4h-44z" />
<glyph unicode="&#xb7;" horiz-adv-x="187" d="M57 225q-5 0 -4 4l11 74q0 4 4 4h57q3 0 3 -4l-11 -74q0 -4 -3 -4h-57z" />
<glyph unicode="&#xb8;" d="M121 -145h-53q-3 0 -2 4l77 147q1 4 7 4h40q2 0 1 -4l-65 -147q-2 -4 -5 -4z" />
<glyph unicode="&#xb9;" horiz-adv-x="256" d="M157 270h-30q-2 0 -2 2l51 359q-73 -58 -74 -59t-1 1t-2 16.5t-2 15.5q0 2 3 4l80 68q1 1 4 1h30q2 0 2 -2l-57 -404q0 -2 -2 -2z" />
<glyph unicode="&#xba;" horiz-adv-x="256" d="M145 422q16 0 26 2.5t21 11t18 27.5t12 49l7 44q8 55 -5 71.5t-46 16.5q-32 0 -50.5 -16.5t-26.5 -71.5l-7 -44q-9 -57 5 -73.5t46 -16.5zM140 387q-15 0 -24.5 1t-22.5 5t-19 12t-13 22t-6 34t3 49l7 49q11 75 40.5 98t77.5 23q14 0 23.5 -1t22.5 -5t19 -11.5t13.5 -21 t6.5 -33.5t-3 -48l-7 -50q-6 -42 -17.5 -68.5t-29.5 -37.5t-32.5 -14t-38.5 -3z" />
<glyph unicode="&#xbb;" horiz-adv-x="448" d="M208 76q-1 1 -12.5 14t-11.5 14q-2 3 1 6l150 154q-106 152 -107 154q-2 4 1 6l32 28q3 3 4 0l134 -185q3 -3 -1 -6l-186 -185q-2 -2 -4 0zM38 76q-20 20 -24 28q-2 3 1 6l149 154q-105 152 -106 154q-2 4 1 6l32 28q3 3 4 0q1 -2 66.5 -93t66.5 -92q2 -3 -1 -6 l-185 -185q-2 -2 -4 0z" />
<glyph unicode="&#xbc;" horiz-adv-x="639" d="M121 -5q-2 0 -1 4q56 117 180 344t178 337q1 4 6 4h31q4 0 1 -4l-356 -681q-3 -4 -6 -4h-33zM479 0h-29q-3 0 -3 2l11 78h-133q-2 0 -2 1l5 37q0 2 2 4l14 29q15 29 36 71t41 83t35 71l15 30q2 2 3 2h34v-2l-140 -284l-1 -5h96l12 86q0 2 3 2h30q2 0 2 -2l-12 -86h40 q3 0 3 -3l-5 -32q0 -2 -3 -2h-40l-11 -78q0 -2 -3 -2zM180 272h-31q-2 0 -2 2l51 359q-72 -58 -73 -59t-1 1t-2 16.5t-2 15.5t3 4l80 68q0 1 3 1h31q2 0 2 -2l-57 -404q0 -2 -2 -2z" />
<glyph unicode="&#xbd;" horiz-adv-x="671" d="M553 0h-186l-2 1l5 38q0 1 2 3q129 146 157 186q23 34 26 53l6 39q5 34 -10.5 44t-45.5 10q-10 0 -21.5 -1.5t-21 -3.5t-17 -4t-12.5 -3l-5 -2q-1 0 -1 2t-1.5 14.5t-1.5 13.5q0 2 1 3q36 18 85 18q101 0 88 -89l-6 -42q-5 -36 -70 -135t-82 -103l-20 -5h138q3 0 3 -2 l-5 -33q0 -2 -3 -2zM123 -5q-3 0 -2 4q57 119 181 346.5t177 334.5q1 4 6 4h31q4 0 1 -4q-1 -1 -178.5 -340.5t-178.5 -340.5q-1 -4 -4 -4h-33zM180 272h-31q-2 0 -2 2l51 359q-72 -58 -73 -59t-1 1t-2 16.5t-2 15.5t3 4l80 68q0 1 3 1h31q2 0 2 -2l-57 -404q0 -2 -2 -2z " />
<glyph unicode="&#xbe;" horiz-adv-x="702" d="M77 288v2q0 1 5 15t5 15t3 1l4 -1q5 -2 13 -4t17.5 -3.5t21 -3t22.5 -1.5q67 0 74 53l5 40q3 20 -1.5 34t-14 19.5t-17 7.5t-15.5 2h-35q-3 0 -3 2l5 31q0 2 3 2h35q19 0 36 14.5t21 41.5l6 40q3 24 -6 36.5t-20 14.5t-29 2q-17 0 -36 -3t-30 -6t-12 -4q-2 -2 -2 1 q0 2 -1.5 15t-1.5 14t2 3q1 1 10.5 5t30.5 8t44 4q18 0 31 -2.5t29.5 -10t23.5 -27t3 -48.5l-6 -41q-3 -21 -12 -38t-17 -24l-7 -7v-4q3 -2 8 -7t11 -26t2 -49l-6 -42q-13 -88 -113 -88q-24 0 -45.5 4.5t-31.5 8.5zM182 -5q-1 0 0 4q56 116 180 343t178 338q1 4 4 4h33 q4 0 1 -4q-1 -1 -179.5 -340.5t-178.5 -340.5q-1 -4 -6 -4h-32zM542 0h-29q-2 0 -2 2l11 78h-135q-2 0 -2 1l6 37q0 3 1 4l142 284q2 2 3 2h34q1 0 1 -2l-140 -284l-1 -5h96l13 86q0 2 1 2h30q3 0 3 -2l-13 -86h40q2 0 2 -3l-4 -32q0 -2 -3 -2h-40l-11 -78q0 -2 -3 -2z" />
<glyph unicode="&#xbf;" horiz-adv-x="373" d="M213 508h48q4 0 3 -4l-8 -62q-4 -34 -28 -71.5t-51 -64t-50 -56.5t-26 -50l-8 -59q-4 -32 0.5 -52t18.5 -28t26.5 -10.5t33.5 -2.5q25 0 54 5.5t44.5 10t18.5 6.5q3 1 4 -2l6 -40q0 -4 -2 -5q-56 -28 -133 -28q-29 0 -49.5 4t-43.5 17t-32 44.5t-2 79.5l9 60 q5 35 41.5 80t72.5 88.5t40 74.5l8 61q1 4 5 4zM232 680h58q4 0 4 -4l-11 -75q0 -4 -5 -4h-58q-2 0 -2 4l10 75q0 4 4 4z" />
<glyph unicode="&#xc0;" horiz-adv-x="498" d="M37 0h-53q-3 0 -2 4q0 1 72.5 169t144.5 335.5t72 168.5q0 3 5 3h61q3 0 5 -3q0 -2 48 -337t49 -336q2 -4 -2 -4h-53q-3 0 -4 4l-20 149h-257q-61 -146 -62 -149q-1 -4 -4 -4zM128 208h222l-49 374h-16zM331 762l-55 134q-1 4 1 4h54q4 0 5 -4l41 -134q2 -4 -3 -4h-40 q-3 0 -3 4z" />
<glyph unicode="&#xc1;" horiz-adv-x="498" d="M37 0h-53q-3 0 -2 4q0 1 72.5 169t144.5 335.5t72 168.5q0 3 5 3h61q3 0 5 -3q0 -2 48 -337t49 -336q2 -4 -2 -4h-53q-3 0 -4 4l-20 149h-257q-61 -146 -62 -149q-1 -4 -4 -4zM128 208h222l-49 374h-16zM304 762q-2 -4 -7 -4h-40q-2 0 0 4l78 134q3 4 5 4h54q4 0 2 -4z " />
<glyph unicode="&#xc2;" horiz-adv-x="498" d="M128 208h222l-49 374h-16zM37 0h-53q-3 0 -2 4q0 1 72.5 169t144.5 335.5t72 168.5q0 3 5 3h61q3 0 5 -3q0 -2 48 -337t49 -336q2 -4 -2 -4h-53q-3 0 -4 4l-20 149h-257q-61 -146 -62 -149q-1 -4 -4 -4zM256 758h-40q-2 0 0 4q13 23 43.5 67.5t44.5 66.5q2 4 6 4h53 q5 0 6 -4q1 -3 25.5 -68t25.5 -66q1 -4 -3 -4h-40q-2 0 -4 4l-40 90h-4q-65 -87 -67 -90q-2 -4 -6 -4z" />
<glyph unicode="&#xc3;" horiz-adv-x="498" d="M128 208h222l-49 374h-16zM37 0h-53q-3 0 -2 4q0 1 72.5 169t144.5 335.5t72 168.5q0 3 5 3h61q3 0 5 -3q0 -2 48 -337t49 -336q2 -4 -2 -4h-53q-3 0 -4 4l-20 149h-257q-61 -146 -62 -149q-1 -4 -4 -4zM220 800q-3 0 -2 5l4 30q0 5 5 10l7 7q7 7 13.5 12.5t18 10.5 t22.5 5q21 0 46.5 -19t42.5 -19q18 0 37 17.5t21 17.5q3 0 3 -4l-5 -31q0 -6 -4 -11q-26 -35 -62 -35q-20 0 -46 19.5t-42 19.5q-18 0 -38 -17.5t-21 -17.5z" />
<glyph unicode="&#xc4;" horiz-adv-x="498" d="M37 0h-53q-3 0 -2 4q0 1 72.5 169t144.5 335.5t72 168.5q0 3 5 3h61q3 0 5 -3q0 -2 48 -337t49 -336q2 -4 -2 -4h-53q-3 0 -4 4l-20 149h-257q-61 -146 -62 -149q-1 -4 -4 -4zM128 208h222l-49 374h-16zM217 805q-4 0 -3 4l9 67q1 4 5 4h48q2 0 2 -4l-9 -67q-1 -4 -4 -4 h-48zM382 805q-3 0 -2 4l9 67q1 4 4 4h48q2 0 2 -4l-9 -67q-1 -4 -4 -4h-48z" />
<glyph unicode="&#xc5;" horiz-adv-x="498" d="M128 208h222l-49 374h-16zM37 0h-53q-3 0 -2 4q0 1 72.5 169t144.5 335.5t72 168.5q0 3 5 3h61q3 0 5 -3q0 -2 48 -337t49 -336q2 -4 -2 -4h-53q-3 0 -4 4l-20 149h-257q-61 -146 -62 -149q-1 -4 -4 -4zM320 775q21 0 33.5 9.5t16.5 38.5l2 13q4 28 -5.5 37.5t-30.5 9.5 q-49 0 -54 -47l-1 -13q-3 -29 7 -38.5t32 -9.5zM315 743q-16 0 -27.5 2.5t-22.5 10t-15.5 23.5t-0.5 41l3 20q7 44 30 59.5t58 15.5q15 0 26 -2t22 -9t15.5 -23t0.5 -41l-3 -20q-5 -33 -20 -51t-29.5 -22t-36.5 -4z" />
<glyph unicode="&#xc6;" horiz-adv-x="780" d="M175 208h204l55 388h-16zM38 0h-55q-2 0 -1 4q1 3 216 336t218 335q2 5 5 5h362q3 0 3 -4l-7 -46q0 -4 -3 -4h-281l-36 -253h242q3 0 3 -4l-7 -46q0 -4 -3 -4h-242l-38 -265h281q3 0 3 -4l-7 -46q0 -4 -3 -4h-338l21 153h-235q-92 -146 -94 -149q-3 -4 -4 -4z" />
<glyph unicode="&#xc7;" horiz-adv-x="462" d="M175 -145h-53q-4 0 -1 4l68 132q-25 1 -43.5 5t-39.5 13.5t-32.5 25.5t-23 42t-10.5 63t5 88l32 230q9 62 27.5 106.5t39.5 68.5t52.5 37t56 16.5t59.5 3.5q46 0 82.5 -8t48 -14t14.5 -9q2 -2 1 -5q-22 -33 -22 -38q-2 -5 -4 -2q-66 22 -127 22q-24 0 -41 -2.5t-40 -13 t-38.5 -29t-30 -54.5t-21.5 -86l-31 -218q-9 -49 -4 -83t13 -55t27.5 -32.5t38 -15t44.5 -3.5q12 0 25.5 1.5t25.5 3.5t23.5 4.5t21 5.5t18.5 6t14.5 5t9.5 4l4 1q2 2 4 -2q1 -1 6.5 -18.5t5.5 -18.5q0 -2 -3 -5t-16.5 -10t-48.5 -17.5t-74 -12.5l-57 -132q-2 -4 -6 -4z" />
<glyph unicode="&#xc8;" horiz-adv-x="462" d="M35 0l96 680h341q3 0 3 -4l-6 -46q0 -4 -5 -4h-284l-36 -253h245q3 0 3 -4l-7 -46q0 -4 -3 -4h-245l-37 -265h284q3 0 3 -4l-6 -46q-1 -4 -5 -4h-341zM312 762l-55 134q-1 4 1 4h54q4 0 5 -4l41 -134q2 -4 -2 -4h-40q-4 0 -4 4z" />
<glyph unicode="&#xc9;" horiz-adv-x="462" d="M35 0l96 680h341q3 0 3 -4l-6 -46q0 -4 -5 -4h-284l-36 -253h245q3 0 3 -4l-7 -46q0 -4 -3 -4h-245l-37 -265h284q3 0 3 -4l-6 -46q-1 -4 -5 -4h-341zM294 762q-2 -4 -6 -4h-40q-3 0 -1 4l78 134q3 4 5 4h54q4 0 2 -4z" />
<glyph unicode="&#xca;" horiz-adv-x="462" d="M35 0l96 680h341q3 0 3 -4l-6 -46q0 -4 -5 -4h-284l-36 -253h245q3 0 3 -4l-7 -46q0 -4 -3 -4h-245l-37 -265h284q3 0 3 -4l-6 -46q-1 -4 -5 -4h-341zM246 758h-40q-3 0 -1 4q13 23 44 67.5t44 66.5q2 4 6 4h53q5 0 6 -4q1 -3 25.5 -68t25.5 -66q1 -4 -2 -4h-40 q-3 0 -5 4l-40 90h-4q-65 -87 -67 -90q-2 -4 -5 -4z" />
<glyph unicode="&#xcb;" horiz-adv-x="462" d="M35 0l96 680h341q3 0 3 -4l-6 -46q0 -4 -5 -4h-284l-36 -253h245q3 0 3 -4l-7 -46q0 -4 -3 -4h-245l-37 -265h284q3 0 3 -4l-6 -46q-1 -4 -5 -4h-341zM206 805q-4 0 -3 4l9 67q1 4 5 4h48q2 0 2 -4l-9 -67q-1 -4 -4 -4h-48zM371 805q-3 0 -2 4l9 67q1 4 4 4h48q2 0 2 -4 l-9 -67q-1 -4 -4 -4h-48z" />
<glyph unicode="&#xcc;" horiz-adv-x="207" d="M38 0q-3 0 -3 4l95 672q0 4 3 4h51q3 0 3 -4l-95 -672q0 -4 -3 -4h-51zM185 762l-55 134q-1 4 1 4h54q4 0 5 -4l41 -134q2 -4 -3 -4h-40q-3 0 -3 4z" />
<glyph unicode="&#xcd;" horiz-adv-x="207" d="M38 0q-3 0 -3 4l95 672q0 4 3 4h51q3 0 3 -4l-95 -672q0 -4 -3 -4h-51zM159 762q-2 -4 -7 -4h-40q-2 0 0 4l78 134q3 4 5 4h54q4 0 2 -4z" />
<glyph unicode="&#xce;" horiz-adv-x="207" d="M38 0q-3 0 -3 4l95 672q0 4 3 4h51q3 0 3 -4l-95 -672q0 -4 -3 -4h-51zM110 758h-40q-2 0 0 4q13 23 44 67.5t44 66.5q2 4 6 4h53q5 0 6 -4q1 -3 25.5 -68t25.5 -66q1 -4 -3 -4h-40q-2 0 -4 4l-41 90h-4q-64 -87 -66 -90q-2 -4 -6 -4z" />
<glyph unicode="&#xcf;" horiz-adv-x="207" d="M38 0q-3 0 -3 4l95 672q0 4 4 4h51q2 0 2 -4l-94 -672q0 -4 -4 -4h-51zM71 805q-4 0 -3 4l9 67q1 4 5 4h48q2 0 2 -4l-9 -67q-1 -4 -4 -4h-48zM236 805q-3 0 -2 4l9 67q1 4 4 4h48q2 0 2 -4l-9 -67q-1 -4 -4 -4h-48z" />
<glyph unicode="&#xd0;" horiz-adv-x="517" d="M101 54h128q26 0 42 2t39 11.5t38 28t29.5 54.5t21.5 88l29 208q5 32 5 58t-4.5 44.5t-10 32t-16.5 21.5t-20.5 13.5t-24 7.5t-24 2.5t-24.5 0.5h-128l-36 -257h112q4 0 3 -4l-6 -42q0 -4 -4 -4h-112zM212 0h-176l45 319h-42q-3 0 -3 4l6 42q0 4 4 4h42l44 311h176 q18 0 32.5 -1t32.5 -3.5t31.5 -7t28 -13t24.5 -20.5t18.5 -29t12.5 -38.5t4 -50.5t-5 -64l-31 -220q-9 -67 -31 -113.5t-44.5 -69.5t-58 -35t-55.5 -13.5t-55 -1.5z" />
<glyph unicode="&#xd1;" horiz-adv-x="542" d="M38 0q-3 0 -3 4l95 672q0 4 3 4h70q4 0 5 -4l168 -566h11l80 566q0 4 4 4h50q3 0 3 -4l-95 -672q0 -4 -3 -4h-69q-3 0 -5 4l-167 572h-14l-80 -572q0 -4 -3 -4h-50zM242 800q-3 0 -2 5l4 30q0 5 5 10l7 7q7 7 13.5 12.5t18 10.5t22.5 5q21 0 46.5 -19t42.5 -19 q18 0 37 17.5t21 17.5q3 0 3 -4l-5 -31q0 -6 -4 -11q-26 -35 -62 -35q-20 0 -46 19.5t-42 19.5q-18 0 -38 -17.5t-21 -17.5z" />
<glyph unicode="&#xd2;" horiz-adv-x="507" d="M213 -10q-18 0 -30.5 0.5t-30 3t-30 7t-26.5 13t-23.5 20.5t-18 30t-12 41t-3.5 54t5 68l33 231q9 63 28 107.5t40.5 68t52.5 37t55 16.5t58 3q17 0 29.5 -0.5t30 -3t29.5 -6.5t27 -12.5t24.5 -20t18.5 -29.5t12.5 -40t3.5 -52.5t-5 -67.5l-33 -231q-9 -66 -29.5 -112.5 t-41.5 -70.5t-54 -36.5t-54.5 -15t-55.5 -2.5zM220 44q33 0 56 6t48 24t41.5 58t25.5 101l31 218q3 42 4 71.5t-8 50t-18.5 33t-26.5 19.5t-32.5 9t-36.5 2q-32 0 -55.5 -6t-48.5 -24t-42 -57t-25 -98l-30 -218q-7 -37 -4.5 -65.5t5 -49t13.5 -34t20.5 -21.5t25 -12.5 t28 -5.5t29.5 -1zM334 762l-55 134q-1 4 2 4h54q3 0 4 -4l41 -134q2 -4 -2 -4h-40q-4 0 -4 4z" />
<glyph unicode="&#xd3;" horiz-adv-x="507" d="M213 -10q-18 0 -30.5 0.5t-30 3t-30 7t-26.5 13t-23.5 20.5t-18 30t-12 41t-3.5 54t5 68l33 231q9 63 28 107.5t40.5 68t52.5 37t55 16.5t58 3q17 0 29.5 -0.5t30 -3t29.5 -6.5t27 -12.5t24.5 -20t18.5 -29.5t12.5 -40t3.5 -52.5t-5 -67.5l-33 -231q-9 -66 -29.5 -112.5 t-41.5 -70.5t-54 -36.5t-54.5 -15t-55.5 -2.5zM220 44q33 0 56 6t48 24t41.5 58t25.5 101l31 218q3 42 4 71.5t-8 50t-18.5 33t-26.5 19.5t-32.5 9t-36.5 2q-32 0 -55.5 -6t-48.5 -24t-42 -57t-25 -98l-30 -218q-7 -37 -4.5 -65.5t5 -49t13.5 -34t20.5 -21.5t25 -12.5 t28 -5.5t29.5 -1zM307 762q-2 -4 -6 -4h-40q-3 0 -1 4l78 134q3 4 6 4h54q3 0 1 -4z" />
<glyph unicode="&#xd4;" horiz-adv-x="507" d="M220 44q33 0 56 6t48 24t41.5 58t25.5 101l31 218q3 42 4 71.5t-8 50t-18.5 33t-26.5 19.5t-32.5 9t-36.5 2q-32 0 -55.5 -6t-48.5 -24t-42 -57t-25 -98l-30 -218q-7 -37 -4.5 -65.5t5 -49t13.5 -34t20.5 -21.5t25 -12.5t28 -5.5t29.5 -1zM213 -10q-18 0 -30.5 0.5t-30 3 t-30 7t-26.5 13t-23.5 20.5t-18 30t-12 41t-3.5 54t5 68l33 231q9 63 28 107.5t40.5 68t52.5 37t55 16.5t58 3q17 0 29.5 -0.5t30 -3t29.5 -6.5t27 -12.5t24.5 -20t18.5 -29.5t12.5 -40t3.5 -52.5t-5 -67.5l-33 -231q-9 -66 -29.5 -112.5t-41.5 -70.5t-54 -36.5t-54.5 -15 t-55.5 -2.5zM260 758h-40q-3 0 -1 4q13 23 44 67.5t44 66.5q2 4 7 4h53q4 0 5 -4q1 -3 25.5 -68t25.5 -66q1 -4 -2 -4h-40q-3 0 -5 4l-40 90h-4q-65 -87 -67 -90q-2 -4 -5 -4z" />
<glyph unicode="&#xd5;" horiz-adv-x="507" d="M220 44q33 0 56 6t48 24t41.5 58t25.5 101l31 218q3 42 4 71.5t-8 50t-18.5 33t-26.5 19.5t-32.5 9t-36.5 2q-32 0 -55.5 -6t-48.5 -24t-42 -57t-25 -98l-30 -218q-7 -37 -4.5 -65.5t5 -49t13.5 -34t20.5 -21.5t25 -12.5t28 -5.5t29.5 -1zM213 -10q-18 0 -30.5 0.5t-30 3 t-30 7t-26.5 13t-23.5 20.5t-18 30t-12 41t-3.5 54t5 68l33 231q9 63 28 107.5t40.5 68t52.5 37t55 16.5t58 3q17 0 29.5 -0.5t30 -3t29.5 -6.5t27 -12.5t24.5 -20t18.5 -29.5t12.5 -40t3.5 -52.5t-5 -67.5l-33 -231q-9 -66 -29.5 -112.5t-41.5 -70.5t-54 -36.5t-54.5 -15 t-55.5 -2.5zM225 800q-3 0 -3 5l4 30q0 5 5 10l7 7q7 7 13.5 12.5t18 10.5t22.5 5q21 0 46.5 -19t42.5 -19q18 0 37 17.5t21 17.5q3 0 3 -4l-5 -31q0 -6 -4 -11q-26 -35 -62 -35q-20 0 -46 19.5t-42 19.5q-18 0 -37.5 -17.5t-20.5 -17.5z" />
<glyph unicode="&#xd6;" horiz-adv-x="507" d="M213 -10q-18 0 -30.5 0.5t-30 3t-30 7t-26.5 13t-23.5 20.5t-18 30t-12 41t-3.5 54t5 68l33 231q9 63 28 107.5t40.5 68t52.5 37t55 16.5t58 3q17 0 29.5 -0.5t30 -3t29.5 -6.5t27 -12.5t24.5 -20t18.5 -29.5t12.5 -40t3.5 -52.5t-5 -67.5l-33 -231q-9 -66 -29.5 -112.5 t-41.5 -70.5t-54 -36.5t-54.5 -15t-55.5 -2.5zM220 44q33 0 56 6t48 24t41.5 58t25.5 101l31 218q3 42 4 71.5t-8 50t-18.5 33t-26.5 19.5t-32.5 9t-36.5 2q-32 0 -55.5 -6t-48.5 -24t-42 -57t-25 -98l-30 -218q-7 -37 -4.5 -65.5t5 -49t13.5 -34t20.5 -21.5t25 -12.5 t28 -5.5t29.5 -1zM220 805q-4 0 -3 4l9 67q1 4 5 4h48q3 0 2 -4l-9 -67q-1 -4 -4 -4h-48zM385 805q-3 0 -2 4l9 67q1 4 4 4h48q3 0 2 -4l-9 -67q-1 -4 -4 -4h-48z" />
<glyph unicode="&#xd7;" horiz-adv-x="445" d="M82 106q-5 10 -25 30q-1 1 1 6l130 135q-92 134 -93 136q-1 3 2 6q1 1 9 8l16 14l7 7q3 2 5 0l94 -135q129 133 131 135t3 0l27 -29q3 -3 -1 -6l-131 -136q92 -133 93 -135q2 -2 -1 -6q-1 -1 -9.5 -8t-16.5 -14t-8 -8q-2 -2 -4 0l-93 136q-130 -134 -132 -136t-4 0z" />
<glyph unicode="&#xd8;" horiz-adv-x="507" d="M26 -40q-3 0 0 4l44 73q-45 57 -26 190l33 231q9 63 28 107.5t40.5 68t52.5 37t55 16.5t58 3q77 0 114 -22q6 10 13 22t11.5 18.5t4.5 7.5q3 4 6 4h43q5 0 1 -4q-1 -1 -47 -77q42 -57 24 -181l-33 -231q-9 -66 -29.5 -112.5t-41.5 -70.5t-54 -36.5t-54.5 -15t-55.5 -2.5 q-73 0 -110 19q-23 -38 -27 -45q-2 -4 -6 -4h-44zM221 44q33 0 56 6t47.5 24t41 58t25.5 101l31 218q3 42 4 71.5t-8 50t-18.5 33t-26.5 19.5t-32.5 9t-36.5 2q-32 0 -55.5 -6t-48 -24t-41.5 -57t-25 -98l-31 -218q-8 -37 -5 -65.5t5.5 -49t13.5 -34t20.5 -21.5t25.5 -12.5 t28.5 -5.5t29.5 -1z" />
<glyph unicode="&#xd9;" horiz-adv-x="529" d="M204 -10q-101 0 -130 61.5t-8 215.5l58 409q0 4 3 4h51q3 0 3 -4l-57 -403q-21 -121 -4 -175t92 -54h41q76 0 103.5 48t46.5 181l57 403q0 4 3 4h50q4 0 4 -4l-58 -409q-11 -76 -24.5 -124t-37.5 -85t-61 -52.5t-92 -15.5h-40zM345 762l-55 134q-1 4 1 4h54q4 0 5 -4 l41 -134q2 -4 -3 -4h-40q-3 0 -3 4z" />
<glyph unicode="&#xda;" horiz-adv-x="529" d="M204 -10q-101 0 -130 61.5t-8 215.5l58 409q0 4 3 4h51q3 0 3 -4l-57 -403q-21 -121 -4 -175t92 -54h41q76 0 103.5 48t46.5 181l57 403q0 4 3 4h50q4 0 4 -4l-58 -409q-11 -76 -24.5 -124t-37.5 -85t-61 -52.5t-92 -15.5h-40zM319 762q-2 -4 -7 -4h-40q-2 0 0 4l78 134 q3 4 5 4h54q4 0 2 -4z" />
<glyph unicode="&#xdb;" horiz-adv-x="529" d="M204 -10q-101 0 -130 61.5t-8 215.5l58 409q0 4 3 4h51q3 0 3 -4l-57 -403q-21 -121 -4 -175t92 -54h41q76 0 103.5 48t46.5 181l57 403q0 4 3 4h50q4 0 4 -4l-58 -409q-11 -76 -24.5 -124t-37.5 -85t-61 -52.5t-92 -15.5h-40zM270 758h-40q-2 0 0 4q13 23 43.5 67.5 t44.5 66.5q2 4 6 4h53q5 0 6 -4q1 -3 25.5 -68t25.5 -66q1 -4 -3 -4h-40q-2 0 -4 4l-40 90h-4q-65 -87 -67 -90q-2 -4 -6 -4z" />
<glyph unicode="&#xdc;" horiz-adv-x="529" d="M204 -10q-101 0 -130 61.5t-8 215.5l58 409q0 4 3 4h51q3 0 3 -4l-57 -403q-21 -121 -4 -175t92 -54h41q76 0 103.5 48t46.5 181l57 403q0 4 3 4h50q4 0 4 -4l-58 -409q-11 -76 -24.5 -124t-37.5 -85t-61 -52.5t-92 -15.5h-40zM233 805q-4 0 -3 4l9 67q1 4 5 4h48 q2 0 2 -4l-9 -67q-1 -4 -4 -4h-48zM398 805q-3 0 -2 4l9 67q1 4 4 4h48q2 0 2 -4l-9 -67q-1 -4 -4 -4h-48z" />
<glyph unicode="&#xdd;" horiz-adv-x="434" d="M153 0q-3 0 -3 4l39 272q-117 397 -118 400q-2 4 2 4h57q1 0 4 -4l91 -327h5q181 324 183 327q3 4 4 4h56q5 0 2 -4l-229 -400l-39 -272q0 -4 -3 -4h-51zM271 762q-2 -4 -7 -4h-40q-2 0 0 4l78 134q3 4 5 4h54q4 0 2 -4z" />
<glyph unicode="&#xde;" horiz-adv-x="489" d="M122 213h137q26 0 44.5 3.5t39 14.5t34 36t18.5 63l6 45q9 71 -18.5 92.5t-83.5 21.5h-139zM89 0h-51q-3 0 -3 4l95 672q0 4 3 4h51q3 0 3 -4l-19 -133h137q30 0 48 -1.5t44 -10.5t39.5 -25.5t20.5 -50t1 -81.5l-6 -45q-6 -46 -23 -79.5t-36.5 -50.5t-48 -26.5t-48 -11.5 t-45.5 -2h-137l-22 -155q0 -4 -3 -4z" />
<glyph unicode="&#xdf;" horiz-adv-x="453" d="M85 0h-48q-3 0 -3 4l67 473q10 68 28.5 112t46 63.5t51.5 26t58 6.5q142 0 121 -154l-7 -53q-5 -37 -18.5 -66.5t-24.5 -39.5l-12 -11l-1 -4q2 -1 6 -4t14 -14.5t15 -26.5t10 -41t-2 -58l-8 -53q-8 -53 -26 -87t-46.5 -49t-54.5 -19.5t-66 -4.5q-3 0 -3 4l7 44q0 4 3 4 q26 0 44 3.5t38 14t32.5 34.5t17.5 61l6 44q5 39 -1 65t-23 37t-34 15t-41 4q-2 0 -2 4l6 44q0 4 4 4q45 0 72 22t35 79l6 44q15 106 -74 106q-25 0 -41.5 -4.5t-34 -19t-29 -47.5t-18.5 -85l-67 -473q0 -4 -3 -4z" />
<glyph unicode="&#xe0;" horiz-adv-x="427" d="M144 -7q-65 0 -93.5 37t-21.5 90l7 50q7 53 46.5 84t88.5 31q21 0 54.5 -3.5t56.5 -7.5l23 -3l9 61q10 66 -11.5 85.5t-74.5 19.5q-28 0 -56 -4t-42 -7.5t-16 -4.5q-3 -1 -3 3l-6 36q0 4 2 5q44 22 132 22q18 0 30.5 -1t29.5 -4t26.5 -9.5t22 -17.5t15.5 -27.5t7 -39.5 t-3 -54l-46 -330q-1 -4 -5 -4h-47q-2 0 -2 4l4 26q-28 -37 -127 -37zM164 43q23 0 38 2t34.5 8.5t31.5 24t16 45.5l15 102q-79 14 -127 14q-35 0 -57 -20.5t-26 -50.5l-6 -43q-11 -82 81 -82zM267 562l-55 134q-1 4 2 4h54q3 0 4 -4l41 -134q2 -4 -2 -4h-40q-4 0 -4 4z" />
<glyph unicode="&#xe1;" horiz-adv-x="427" d="M144 -7q-65 0 -93.5 37t-21.5 90l7 50q7 53 46.5 84t88.5 31q21 0 54.5 -3.5t56.5 -7.5l23 -3l9 61q10 66 -11.5 85.5t-74.5 19.5q-28 0 -56 -4t-42 -7.5t-16 -4.5q-3 -1 -3 3l-6 36q0 4 2 5q44 22 132 22q18 0 30.5 -1t29.5 -4t26.5 -9.5t22 -17.5t15.5 -27.5t7 -39.5 t-3 -54l-46 -330q-1 -4 -5 -4h-47q-2 0 -2 4l4 26q-28 -37 -127 -37zM164 43q23 0 38 2t34.5 8.5t31.5 24t16 45.5l15 102q-79 14 -127 14q-35 0 -57 -20.5t-26 -50.5l-6 -43q-11 -82 81 -82zM240 562q-2 -4 -6 -4h-40q-3 0 -1 4l78 134q3 4 6 4h54q3 0 1 -4z" />
<glyph unicode="&#xe2;" horiz-adv-x="427" d="M144 -7q-65 0 -93.5 37t-21.5 90l7 50q7 53 46.5 84t88.5 31q21 0 54.5 -3.5t56.5 -7.5l23 -3l9 61q10 66 -11.5 85.5t-74.5 19.5q-28 0 -56 -4t-42 -7.5t-16 -4.5q-3 -1 -3 3l-6 36q0 4 2 5q44 22 132 22q18 0 30.5 -1t29.5 -4t26.5 -9.5t22 -17.5t15.5 -27.5t7 -39.5 t-3 -54l-46 -330q-1 -4 -5 -4h-47q-2 0 -2 4l4 26q-28 -37 -127 -37zM164 43q23 0 38 2t34.5 8.5t31.5 24t16 45.5l15 102q-79 14 -127 14q-35 0 -57 -20.5t-26 -50.5l-6 -43q-11 -82 81 -82zM193 558h-40q-3 0 -1 4q14 22 44.5 67t43.5 67q2 4 7 4h53q4 0 5 -4 q1 -3 25.5 -68t25.5 -66q1 -4 -2 -4h-40q-3 0 -5 4l-40 90h-4q-65 -87 -67 -90q-2 -4 -5 -4z" />
<glyph unicode="&#xe3;" horiz-adv-x="427" d="M144 -7q-65 0 -93.5 37t-21.5 90l7 50q7 53 46.5 84t88.5 31q21 0 54.5 -3.5t56.5 -7.5l23 -3l9 61q10 66 -11.5 85.5t-74.5 19.5q-28 0 -56 -4t-42 -7.5t-16 -4.5q-3 -1 -3 3l-6 36q0 4 2 5q44 22 132 22q18 0 30.5 -1t29.5 -4t26.5 -9.5t22 -17.5t15.5 -27.5t7 -39.5 t-3 -54l-46 -330q-1 -4 -5 -4h-47q-2 0 -2 4l4 26q-28 -37 -127 -37zM164 43q23 0 38 2t34.5 8.5t31.5 24t16 45.5l15 102q-79 14 -127 14q-35 0 -57 -20.5t-26 -50.5l-6 -43q-11 -82 81 -82zM156 600q-2 0 -2 5l4 30q0 5 5 10l7 7q7 7 13.5 12.5t18 10.5t22.5 5 q21 0 46.5 -19t42.5 -19q18 0 37 17.5t21 17.5q3 0 3 -4l-5 -31q0 -6 -4 -11q-26 -35 -62 -35q-20 0 -46 19.5t-42 19.5q-18 0 -38 -17.5t-21 -17.5z" />
<glyph unicode="&#xe4;" horiz-adv-x="427" d="M144 -7q-65 0 -93.5 37t-21.5 90l7 50q7 53 46.5 84t88.5 31q21 0 54.5 -3.5t56.5 -7.5l23 -3l9 61q10 66 -11.5 85.5t-74.5 19.5q-28 0 -56 -4t-42 -7.5t-16 -4.5q-3 -1 -3 3l-6 36q0 4 2 5q44 22 132 22q18 0 30.5 -1t29.5 -4t26.5 -9.5t22 -17.5t15.5 -27.5t7 -39.5 t-3 -54l-46 -330q-1 -4 -5 -4h-47q-2 0 -2 4l4 26q-28 -37 -127 -37zM164 43q23 0 38 2t34.5 8.5t31.5 24t16 45.5l15 102q-79 14 -127 14q-35 0 -57 -20.5t-26 -50.5l-6 -43q-11 -82 81 -82zM153 605q-4 0 -3 4l9 67q1 4 5 4h48q2 0 2 -4l-9 -67q-1 -4 -4 -4h-48zM318 605 q-3 0 -2 4l9 67q1 4 4 4h48q2 0 2 -4l-9 -67q-1 -4 -4 -4h-48z" />
<glyph unicode="&#xe5;" horiz-adv-x="427" d="M144 -7q-65 0 -93.5 37t-21.5 90l7 50q7 53 46.5 84t88.5 31q21 0 54.5 -3.5t56.5 -7.5l23 -3l9 61q10 66 -11.5 85.5t-74.5 19.5q-28 0 -56 -4t-42 -7.5t-16 -4.5q-3 -1 -3 3l-6 36q0 4 2 5q44 22 132 22q18 0 30.5 -1t29.5 -4t26.5 -9.5t22 -17.5t15.5 -27.5t7 -39.5 t-3 -54l-46 -330q-1 -4 -5 -4h-47q-2 0 -2 4l4 26q-28 -37 -127 -37zM164 43q23 0 38 2t34.5 8.5t31.5 24t16 45.5l15 102q-79 14 -127 14q-35 0 -57 -20.5t-26 -50.5l-6 -43q-11 -82 81 -82zM251 543q-16 0 -27.5 2.5t-22.5 10t-15.5 23.5t-0.5 41l3 20q12 75 89 75 q15 0 26 -2t22 -9t15 -23t0 -41l-3 -20q-5 -33 -20 -51t-29.5 -22t-36.5 -4zM256 575q21 0 33.5 9.5t17.5 38.5l2 13q4 28 -6 37.5t-31 9.5q-46 0 -53 -47l-2 -13q-4 -29 6.5 -38.5t32.5 -9.5z" />
<glyph unicode="&#xe6;" horiz-adv-x="677" d="M163 45q31 0 53 4.5t42.5 24t25.5 54.5l13 97q-74 14 -127 14q-31 0 -55 -18.5t-28 -52.5l-5 -40q-6 -46 19 -64.5t62 -18.5zM358 262h217q9 47 5 78t-9 49t-20 27t-27.5 11.5t-31.5 2.5q-23 0 -37.5 -2.5t-31.5 -12t-28 -27.5t-21 -49.5t-16 -76.5zM144 -5 q-21 0 -41 5.5t-40.5 18t-30.5 39.5t-4 65l7 48q6 44 33 71.5t52.5 35t49.5 7.5q22 0 55.5 -3.5t56.5 -7.5l22 -3l8 56q5 21 2.5 37t-4 27.5t-9.5 19t-14 11.5t-18 6.5t-21 3t-23 0.5q-18 0 -35.5 -2t-30.5 -4.5t-23 -4.5t-16 -4l-6 -2q-3 0 -4 2q0 1 -3.5 18.5t-2.5 18.5 q-1 1 -0.5 2.5t1.5 2.5q69 23 131 23q59 0 85 -14t38 -48q25 32 56.5 47t83.5 15q12 0 21 -0.5t22 -3t23 -6t22 -11.5t20 -18.5t15 -26.5t10 -36t3 -47.5t-5 -60.5l-8 -56h-271q-9 -71 1 -109t32.5 -49t64.5 -11q18 0 37 1.5t34 4t27 5t19 4.5l8 1h2l1 -3l7 -37q0 -3 -3 -5 q-4 -2 -18.5 -6.5t-49.5 -10.5t-72 -6q-60 0 -89.5 16t-46.5 54q-28 -39 -62 -54.5t-99 -15.5z" />
<glyph unicode="&#xe7;" horiz-adv-x="392" d="M140 -145h-53q-3 0 -2 4l70 133q-24 1 -41 4.5t-37 15t-28.5 32.5t-15 56t3.5 86l15 109q7 51 23 88t33.5 56.5t43 30t44.5 13t45 2.5q71 0 122 -17q2 -1 0 -5l-16 -36q-1 -3 -5 -3q-2 1 -14.5 3t-39 4t-53.5 2q-24 0 -41 -4.5t-36 -17.5t-32.5 -43.5t-19.5 -77.5 l-14 -100q-3 -34 -4 -58t7 -40.5t15 -25.5t20.5 -14t24 -6.5t25.5 -1.5q78 0 117 13q3 1 4 -2l6 -37q0 -4 -4 -5q-31 -16 -99 -20l-59 -134q-2 -4 -5 -4z" />
<glyph unicode="&#xe8;" horiz-adv-x="420" d="M178 -8q-36 0 -61 6t-50.5 25.5t-35 63.5t-0.5 112l11 83q9 65 30.5 108t52 62t56 25.5t57.5 6.5q16 0 27 -1t26.5 -4t26 -9t22.5 -16t18.5 -26t11 -37.5t4 -51.5t-5.5 -67l-8 -56h-272q-3 -40 -5 -68t6 -47t15.5 -30.5t22.5 -17.5t27.5 -7.5t30.5 -1.5t38 1.5t35 4 l27 4.5t19 3.5t8 1.5q5 0 5 -3q0 -2 1.5 -19t1.5 -18q0 -4 -2 -5q-4 -2 -18 -6.5t-49 -10t-73 -5.5zM95 262h217q14 99 -6.5 134.5t-75.5 35.5q-58 0 -89.5 -32t-45.5 -138zM262 562l-55 134q-1 4 1 4h54q3 0 4 -4l42 -134q0 -4 -3 -4h-40q-5 0 -3 4z" />
<glyph unicode="&#xe9;" horiz-adv-x="420" d="M178 -8q-36 0 -61 6t-50.5 25.5t-35 63.5t-0.5 112l11 83q9 65 30.5 108t52 62t56 25.5t57.5 6.5q16 0 27 -1t26.5 -4t26 -9t22.5 -16t18.5 -26t11 -37.5t4 -51.5t-5.5 -67l-8 -56h-272q-3 -40 -5 -68t6 -47t15.5 -30.5t22.5 -17.5t27.5 -7.5t30.5 -1.5t38 1.5t35 4 l27 4.5t19 3.5t8 1.5q5 0 5 -3q0 -2 1.5 -19t1.5 -18q0 -4 -2 -5q-4 -2 -18 -6.5t-49 -10t-73 -5.5zM95 262h217q14 99 -6.5 134.5t-75.5 35.5q-58 0 -89.5 -32t-45.5 -138zM235 562q-2 -4 -6 -4h-40q-3 0 -1 4l78 134q3 4 6 4h54q4 0 2 -4z" />
<glyph unicode="&#xea;" horiz-adv-x="420" d="M95 262h217q14 99 -6.5 134.5t-75.5 35.5q-58 0 -89.5 -32t-45.5 -138zM178 -8q-36 0 -61 6t-50.5 25.5t-35 63.5t-0.5 112l11 83q9 65 30.5 108t52 62t56 25.5t57.5 6.5q16 0 27 -1t26.5 -4t26 -9t22.5 -16t18.5 -26t11 -37.5t4 -51.5t-5.5 -67l-8 -56h-272 q-3 -40 -5 -68t6 -47t15.5 -30.5t22.5 -17.5t27.5 -7.5t30.5 -1.5t38 1.5t35 4l27 4.5t19 3.5t8 1.5q5 0 5 -3q0 -2 1.5 -19t1.5 -18q0 -4 -2 -5q-4 -2 -18 -6.5t-49 -10t-73 -5.5zM187 558h-40q-2 0 0 4q13 22 44 67t44 67q2 4 6 4h53q5 0 6 -4q1 -3 25.5 -68t25.5 -66 q1 -4 -3 -4h-40q-2 0 -4 4l-41 90h-4q-64 -87 -66 -90q-2 -4 -6 -4z" />
<glyph unicode="&#xeb;" horiz-adv-x="420" d="M178 -8q-36 0 -61 6t-50.5 25.5t-35 63.5t-0.5 112l11 83q9 65 30.5 108t52 62t56 25.5t57.5 6.5q16 0 27 -1t26.5 -4t26 -9t22.5 -16t18.5 -26t11 -37.5t4 -51.5t-5.5 -67l-8 -56h-272q-3 -40 -5 -68t6 -47t15.5 -30.5t22.5 -17.5t27.5 -7.5t30.5 -1.5t38 1.5t35 4 l27 4.5t19 3.5t8 1.5q5 0 5 -3q0 -2 1.5 -19t1.5 -18q0 -4 -2 -5q-4 -2 -18 -6.5t-49 -10t-73 -5.5zM95 262h217q14 99 -6.5 134.5t-75.5 35.5q-58 0 -89.5 -32t-45.5 -138zM148 605q-4 0 -4 4l10 67q0 4 4 4h48q3 0 3 -4l-10 -67q0 -4 -3 -4h-48zM313 605q-3 0 -3 4l10 67 q0 4 3 4h48q3 0 3 -4l-10 -67q0 -4 -3 -4h-48z" />
<glyph unicode="&#xec;" horiz-adv-x="201" d="M36 0q-3 0 -3 4l66 469q0 4 4 4h48q2 0 2 -4l-66 -469q0 -4 -3 -4h-48zM153 562l-55 134q-1 4 1 4h54q4 0 5 -4l41 -134q2 -4 -3 -4h-40q-3 0 -3 4z" />
<glyph unicode="&#xed;" horiz-adv-x="201" d="M36 0q-3 0 -3 4l66 469q0 4 4 4h48q2 0 2 -4l-66 -469q0 -4 -3 -4h-48zM127 562q-2 -4 -7 -4h-40q-2 0 0 4l78 134q3 4 5 4h54q4 0 2 -4z" />
<glyph unicode="&#xee;" horiz-adv-x="201" d="M36 0q-3 0 -3 4l66 469q0 4 4 4h48q2 0 2 -4l-66 -469q0 -4 -3 -4h-48zM78 558h-40q-2 0 0 4q13 22 43.5 67t44.5 67q2 4 6 4h53q5 0 6 -4q1 -3 25.5 -68t25.5 -66q1 -4 -3 -4h-40q-2 0 -4 4l-41 90h-4q-64 -87 -66 -90q-2 -4 -6 -4z" />
<glyph unicode="&#xef;" horiz-adv-x="201" d="M36 0q-3 0 -3 4l66 469q0 4 4 4h48q3 0 3 -4l-66 -469q0 -4 -4 -4h-48zM39 605q-4 0 -3 4l9 67q1 4 5 4h48q2 0 2 -4l-9 -67q-1 -4 -4 -4h-48zM204 605q-3 0 -2 4l9 67q1 4 4 4h48q2 0 2 -4l-9 -67q-1 -4 -4 -4h-48z" />
<glyph unicode="&#xf0;" horiz-adv-x="429" d="M170 47q48 0 83 20.5t41 65.5l39 271q-76 25 -106 25q-51 0 -81.5 -30t-44.5 -122l-11 -74q-14 -95 6.5 -125.5t73.5 -30.5zM148 -5q-18 0 -31 1.5t-28.5 6t-25 13t-18.5 23.5t-12.5 36.5t-3 52.5t5.5 71l11 82q7 54 22 93t31.5 59.5t40.5 31.5t42.5 13.5t44.5 2.5 q18 0 46.5 -6.5t47.5 -12.5l19 -6l15 106h-117q-4 0 -4 4l6 40q0 4 4 4h118l9 65q0 4 3 4h47q3 0 3 -4l-9 -65h35q3 0 3 -4l-6 -40q0 -4 -3 -4h-37l-78 -558q-1 -4 -3 -4h-47q-3 0 -3 3l4 32q-33 -40 -132 -40z" />
<glyph unicode="&#xf1;" horiz-adv-x="452" d="M37 0q-3 0 -3 4l66 469q0 4 4 4h48q3 0 2 -4l-3 -25q83 34 125 34q14 0 24 -0.5t23.5 -3t21.5 -6.5t19 -11.5t15 -19t10 -27t4 -37t-4 -48.5l-46 -325q0 -4 -3 -4h-46q-4 0 -4 4l46 323q9 66 -9 85.5t-63 19.5q-16 0 -46 -9t-52 -17l-22 -9l-56 -393q0 -4 -3 -4h-48z M168 600q-3 0 -2 5l4 30q0 5 5 10l7 7q7 7 13 12.5t17.5 10.5t22.5 5q21 0 47 -19t43 -19q18 0 37 17.5t21 17.5q3 0 2 -4l-4 -31q-2 -7 -5 -11q-26 -35 -61 -35q-20 0 -46 19.5t-42 19.5q-18 0 -38 -17.5t-21 -17.5z" />
<glyph unicode="&#xf2;" horiz-adv-x="425" d="M168 -8q-18 0 -31 1t-29 4t-26.5 9.5t-22 16t-17.5 25t-10.5 36t-4 49t5.5 63.5l12 89q9 65 28 107.5t47.5 61.5t55 25t65.5 6q18 0 30 -1t27.5 -3.5t26 -8.5t22 -15.5t18 -24.5t11 -35t4 -48.5t-5.5 -63.5l-12 -89q-8 -56 -23 -95.5t-32 -60.5t-43 -32t-45.5 -13.5 t-50.5 -2.5zM175 44q27 0 43.5 4t36 18.5t32 47.5t20.5 86l12 80q9 42 5.5 70t-8.5 44.5t-19.5 25t-28 11t-34.5 2.5q-56 0 -88 -29t-46 -124l-12 -80q-5 -36 -5.5 -62.5t5 -43t13 -27t20.5 -15.5t25 -6.5t29 -1.5zM265 562l-55 134q-1 4 2 4h54q3 0 4 -4l41 -134 q2 -4 -2 -4h-40q-4 0 -4 4z" />
<glyph unicode="&#xf3;" horiz-adv-x="425" d="M168 -8q-18 0 -31 1t-29 4t-26.5 9.5t-22 16t-17.5 25t-10.5 36t-4 49t5.5 63.5l12 89q9 65 28 107.5t47.5 61.5t55 25t65.5 6q18 0 30 -1t27.5 -3.5t26 -8.5t22 -15.5t18 -24.5t11 -35t4 -48.5t-5.5 -63.5l-12 -89q-8 -56 -23 -95.5t-32 -60.5t-43 -32t-45.5 -13.5 t-50.5 -2.5zM175 44q27 0 43.5 4t36 18.5t32 47.5t20.5 86l12 80q9 42 5.5 70t-8.5 44.5t-19.5 25t-28 11t-34.5 2.5q-56 0 -88 -29t-46 -124l-12 -80q-5 -36 -5.5 -62.5t5 -43t13 -27t20.5 -15.5t25 -6.5t29 -1.5zM240 562q-4 -4 -7 -4h-40q-4 0 0 4l77 134q3 4 6 4h54 q5 0 1 -4z" />
<glyph unicode="&#xf4;" horiz-adv-x="425" d="M175 44q27 0 43.5 4t36 18.5t32 47.5t20.5 86l12 80q9 42 5.5 70t-8.5 44.5t-19.5 25t-28 11t-34.5 2.5q-56 0 -88 -29t-46 -124l-12 -80q-5 -36 -5.5 -62.5t5 -43t13 -27t20.5 -15.5t25 -6.5t29 -1.5zM168 -8q-18 0 -31 1t-29 4t-26.5 9.5t-22 16t-17.5 25t-10.5 36 t-4 49t5.5 63.5l12 89q9 65 28 107.5t47.5 61.5t55 25t65.5 6q18 0 30 -1t27.5 -3.5t26 -8.5t22 -15.5t18 -24.5t11 -35t4 -48.5t-5.5 -63.5l-12 -89q-8 -56 -23 -95.5t-32 -60.5t-43 -32t-45.5 -13.5t-50.5 -2.5zM191 558h-40q-3 0 -1 4q14 22 44.5 67t43.5 67q2 4 7 4h53 q4 0 5 -4q1 -3 25.5 -68t25.5 -66q1 -4 -2 -4h-40q-3 0 -5 4l-40 90h-4q-65 -87 -67 -90q-2 -4 -5 -4z" />
<glyph unicode="&#xf5;" horiz-adv-x="425" d="M175 44q27 0 43.5 4t36 18.5t32 47.5t20.5 86l12 80q9 42 5.5 70t-8.5 44.5t-19.5 25t-28 11t-34.5 2.5q-56 0 -88 -29t-46 -124l-12 -80q-5 -36 -5.5 -62.5t5 -43t13 -27t20.5 -15.5t25 -6.5t29 -1.5zM168 -8q-18 0 -31 1t-29 4t-26.5 9.5t-22 16t-17.5 25t-10.5 36 t-4 49t5.5 63.5l12 89q9 65 28 107.5t47.5 61.5t55 25t65.5 6q18 0 30 -1t27.5 -3.5t26 -8.5t22 -15.5t18 -24.5t11 -35t4 -48.5t-5.5 -63.5l-12 -89q-8 -56 -23 -95.5t-32 -60.5t-43 -32t-45.5 -13.5t-50.5 -2.5zM156 600q-4 0 -3 5l5 30q0 6 4 10l7 7q7 7 13.5 12.5 t18 10.5t22.5 5q21 0 47 -19t43 -19q18 0 36.5 17.5t20.5 17.5q3 0 3 -4l-4 -31q-2 -7 -5 -11q-26 -35 -62 -35q-20 0 -45.5 19.5t-41.5 19.5q-18 0 -38 -17.5t-21 -17.5z" />
<glyph unicode="&#xf6;" horiz-adv-x="425" d="M168 -8q-18 0 -31 1t-29 4t-26.5 9.5t-22 16t-17.5 25t-10.5 36t-4 49t5.5 63.5l12 89q9 65 28 107.5t47.5 61.5t55 25t65.5 6q18 0 30 -1t27.5 -3.5t26 -8.5t22 -15.5t18 -24.5t11 -35t4 -48.5t-5.5 -63.5l-12 -89q-8 -56 -23 -95.5t-32 -60.5t-43 -32t-45.5 -13.5 t-50.5 -2.5zM175 44q27 0 43.5 4t36 18.5t32 47.5t20.5 86l12 80q9 42 5.5 70t-8.5 44.5t-19.5 25t-28 11t-34.5 2.5q-56 0 -88 -29t-46 -124l-12 -80q-5 -36 -5.5 -62.5t5 -43t13 -27t20.5 -15.5t25 -6.5t29 -1.5zM151 605q-4 0 -3 4l9 67q1 4 5 4h48q3 0 2 -4l-9 -67 q-1 -4 -4 -4h-48zM316 605q-3 0 -2 4l9 67q1 4 4 4h48q3 0 2 -4l-9 -67q-1 -4 -4 -4h-48z" />
<glyph unicode="&#xf7;" horiz-adv-x="446" d="M52 250q-2 0 -2 4l6 42q0 4 3 4h331q3 0 3 -4l-6 -42q0 -4 -4 -4h-331zM166 85q-4 0 -4 4l11 75q0 4 5 4h57q2 0 2 -4l-10 -75q0 -4 -4 -4h-57zM208 383q-4 0 -4 4l11 74q0 4 4 4h57q3 0 3 -4l-11 -74q0 -4 -3 -4h-57z" />
<glyph unicode="&#xf8;" horiz-adv-x="425" d="M45 -34q-2 0 -2 2q0 1 26 45q-57 43 -36 183l13 89q8 53 22.5 90.5t32 58.5t42.5 33t47 15t52 3q46 0 69 -8l19 31q2 4 5 4h37q5 0 2 -4l-29 -49q46 -43 29 -174l-12 -89q-8 -56 -23 -95.5t-32 -60.5t-43 -32t-45.5 -13.5t-50.5 -2.5q-40 0 -64 6q-17 -26 -17 -29 q-2 -3 -5 -3h-37zM176 44q27 0 44 4t36.5 18.5t32 47.5t19.5 86l11 80q4 52 3.5 82.5t-16 46.5t-30.5 20t-42 4t-45.5 -4.5t-37.5 -19.5t-31.5 -47t-19.5 -82l-11 -80q-3 -37 -5 -62.5t5 -43t13.5 -27.5t20 -15t25 -6.5t28.5 -1.5z" />
<glyph unicode="&#xf9;" horiz-adv-x="447" d="M400 477q3 0 3 -4l-66 -469q0 -4 -4 -4h-47q-3 0 -2 4l2 20q-83 -31 -124 -31q-30 0 -48.5 4t-39 17.5t-27 46.5t0.5 85l45 327q1 4 4 4h48q3 0 3 -4l-46 -325q-10 -66 8.5 -85.5t62.5 -19.5q16 0 46.5 8t52.5 16l22 8l55 398q1 4 4 4h47zM277 562l-55 134q-1 4 1 4h54 q4 0 5 -4l41 -134q2 -4 -3 -4h-40q-3 0 -3 4z" />
<glyph unicode="&#xfa;" horiz-adv-x="447" d="M400 477q3 0 3 -4l-66 -469q0 -4 -4 -4h-47q-3 0 -2 4l2 20q-83 -31 -124 -31q-30 0 -48.5 4t-39 17.5t-27 46.5t0.5 85l45 327q1 4 4 4h48q3 0 3 -4l-46 -325q-10 -66 8.5 -85.5t62.5 -19.5q16 0 46.5 8t52.5 16l22 8l55 398q1 4 4 4h47zM250 562q-2 -4 -7 -4h-40 q-2 0 0 4l78 134q3 4 5 4h54q4 0 2 -4z" />
<glyph unicode="&#xfb;" horiz-adv-x="447" d="M400 477q3 0 3 -4l-66 -469q0 -4 -4 -4h-47q-3 0 -2 4l2 20q-83 -31 -124 -31q-30 0 -48.5 4t-39 17.5t-27 46.5t0.5 85l45 327q1 4 4 4h48q3 0 3 -4l-46 -325q-10 -66 8.5 -85.5t62.5 -19.5q16 0 46.5 8t52.5 16l22 8l55 398q1 4 4 4h47zM201 558h-40q-2 0 0 4 q14 22 44 67t44 67q2 4 6 4h53q5 0 6 -4q1 -3 25.5 -68t25.5 -66q1 -4 -3 -4h-40q-2 0 -4 4l-40 90h-4q-65 -87 -67 -90q-2 -4 -6 -4z" />
<glyph unicode="&#xfc;" horiz-adv-x="447" d="M400 477q3 0 3 -4l-66 -469q0 -4 -4 -4h-47q-3 0 -2 4l2 20q-83 -31 -124 -31q-30 0 -48.5 4t-39 17.5t-27 46.5t0.5 85l45 327q1 4 4 4h48q3 0 3 -4l-46 -325q-10 -66 8.5 -85.5t62.5 -19.5q16 0 46.5 8t52.5 16l22 8l55 398q1 4 4 4h47zM163 605q-4 0 -3 4l9 67 q1 4 5 4h48q2 0 2 -4l-9 -67q-1 -4 -4 -4h-48zM328 605q-3 0 -2 4l9 67q1 4 4 4h48q2 0 2 -4l-9 -67q-1 -4 -4 -4h-48z" />
<glyph unicode="&#xfd;" horiz-adv-x="393" d="M-7 -180q-3 0 -3 3q0 2 6 22.5t6 21.5q0 4 5 4h20q22 0 39 16t43 74l21 49q-78 460 -79 463q-1 4 3 4h51q2 0 3 -4l60 -377h9q163 374 164 377q1 4 5 4h50q2 0 1 -4l-237 -519q-23 -49 -39.5 -77t-34 -40.5t-28.5 -14.5t-35 -2h-30zM227 562q-2 -4 -7 -4h-40q-2 0 0 4 l78 134q3 4 5 4h54q4 0 2 -4z" />
<glyph unicode="&#xfe;" horiz-adv-x="444" d="M59 -180h-47q-3 0 -3 4l120 852q0 4 4 4h47q3 0 3 -4l-33 -234q3 6 13 13.5t42.5 17t77.5 9.5q14 0 22.5 -0.5t22.5 -3t23 -8t19.5 -15t16 -25t10 -36t4 -50t-5.5 -66.5l-11 -83q-6 -41 -16 -74t-21 -53.5t-28 -35t-29.5 -21.5t-31.5 -11t-29 -4.5t-27 -0.5q-7 0 -35 6.5 t-52 12.5l-24 6l-28 -196q0 -4 -4 -4zM98 73q75 -26 105 -26q22 0 36.5 3.5t34.5 17t33.5 46.5t21.5 86l11 74q5 35 5.5 61t-4.5 43t-11.5 27.5t-18.5 16t-23 7t-27 1.5q-52 0 -85 -22t-39 -64z" />
<glyph unicode="&#xff;" horiz-adv-x="393" d="M-7 -180q-3 0 -3 3q0 2 6 22.5t6 21.5q0 4 5 4h20q22 0 39 16t43 74l21 49q-78 460 -79 463q-1 4 3 4h51q2 0 3 -4l60 -377h9q163 374 164 377q1 4 5 4h50q2 0 1 -4l-237 -519q-23 -49 -39.5 -77t-34 -40.5t-28.5 -14.5t-35 -2h-30zM140 605q-4 0 -3 4l9 67q1 4 4 4h48 q3 0 3 -4l-10 -67q0 -4 -3 -4h-48zM305 605q-3 0 -2 4l9 67q1 4 3 4h48q3 0 3 -4l-10 -67q0 -4 -3 -4h-48z" />
<glyph unicode="&#x100;" horiz-adv-x="498" d="M128 208h222l-49 374h-16zM37 0h-53q-3 0 -2 4q0 1 72.5 169t144.5 335.5t72 168.5q0 3 5 3h61q3 0 5 -3q0 -2 48 -337t49 -336q2 -4 -2 -4h-53q-3 0 -4 4l-20 149h-257q-61 -146 -62 -149q-1 -4 -4 -4zM433 821h-215q-3 0 -2 4l6 42q0 4 3 4h215q3 0 3 -4l-6 -42 q0 -4 -4 -4z" />
<glyph unicode="&#x101;" horiz-adv-x="427" d="M144 -7q-65 0 -93.5 37t-21.5 90l7 50q7 53 46.5 84t88.5 31q21 0 54.5 -3.5t56.5 -7.5l23 -3l9 61q10 66 -11.5 85.5t-74.5 19.5q-28 0 -56 -4t-42 -7.5t-16 -4.5q-3 -1 -3 3l-6 36q0 4 2 5q44 22 132 22q18 0 30.5 -1t29.5 -4t26.5 -9.5t22 -17.5t15.5 -27.5t7 -39.5 t-3 -54l-46 -330q-1 -4 -5 -4h-47q-2 0 -2 4l4 26q-28 -37 -127 -37zM164 43q23 0 38 2t34.5 8.5t31.5 24t16 45.5l15 102q-79 14 -127 14q-35 0 -57 -20.5t-26 -50.5l-6 -43q-11 -82 81 -82zM369 618h-215q-3 0 -2 4l5 42q1 4 4 4h215q3 0 3 -4l-6 -42q0 -4 -4 -4z" />
<glyph unicode="&#x102;" horiz-adv-x="498" d="M128 208h222l-49 374h-16zM37 0h-53q-3 0 -2 4q0 1 72.5 169t144.5 335.5t72 168.5q0 3 5 3h61q3 0 5 -3q0 -2 48 -337t49 -336q2 -4 -2 -4h-53q-3 0 -4 4l-20 149h-257q-61 -146 -62 -149q-1 -4 -4 -4zM320 773q-92 0 -92 89q0 26 6 26h24q5 0 5 -5q4 -40 17 -53t47 -13 q31 0 47 13.5t32 52.5q2 5 5 5h28q3 0 2 -5q-23 -110 -121 -110z" />
<glyph unicode="&#x103;" horiz-adv-x="427" d="M144 -7q-65 0 -93.5 37t-21.5 90l7 50q7 53 46.5 84t88.5 31q21 0 54.5 -3.5t56.5 -7.5l23 -3l9 61q10 66 -11.5 85.5t-74.5 19.5q-28 0 -56 -4t-42 -7.5t-16 -4.5q-3 -1 -3 3l-6 36q0 4 2 5q44 22 132 22q18 0 30.5 -1t29.5 -4t26.5 -9.5t22 -17.5t15.5 -27.5t7 -39.5 t-3 -54l-46 -330q-1 -4 -5 -4h-47q-2 0 -2 4l4 26q-28 -37 -127 -37zM164 43q23 0 38 2t34.5 8.5t31.5 24t16 45.5l15 102q-79 14 -127 14q-35 0 -57 -20.5t-26 -50.5l-6 -43q-11 -82 81 -82zM256 570q-92 0 -92 89q0 26 5 26h24q6 0 6 -5q4 -40 16.5 -53t46.5 -13 q31 0 47.5 13.5t32.5 52.5q2 5 4 5h28q4 0 3 -5q-23 -110 -121 -110z" />
<glyph unicode="&#x104;" horiz-adv-x="498" d="M358 -172q-56 0 -56 51q0 27 12.5 51.5t26 38t39.5 34.5v1l-20 149h-257q-61 -146 -62 -149q-1 -4 -4 -4h-53q-3 0 -2 4q0 1 72.5 169t144.5 335.5t72 168.5q0 3 5 3h61q3 0 5 -3q0 -2 48 -337t49 -336q2 -4 -2 -4h-3q-46 -36 -65 -59.5t-19 -46.5q0 -19 22 -19 q12 0 27 10q4 2 4 -2q1 -1 3 -6.5t4.5 -11t2.5 -6.5q2 -6 -1 -9q-28 -22 -54 -22zM128 208h222l-49 374h-16z" />
<glyph unicode="&#x105;" horiz-adv-x="427" d="M240 -172q-55 0 -55 51q0 40 20.5 67.5t61.5 59.5l3 24q-27 -37 -126 -37q-65 0 -93.5 37t-21.5 90l7 50q7 53 46.5 84t88.5 31q21 0 54.5 -3.5t56.5 -7.5l23 -3l9 61q10 66 -11.5 85.5t-74.5 19.5q-28 0 -56 -4t-42 -7.5t-16 -4.5q-3 -1 -3 3l-6 36q0 4 2 5 q44 22 132 22q18 0 30.5 -1t29.5 -4t26.5 -9.5t22 -17.5t15.5 -27.5t7 -39.5t-3 -54l-46 -330q-1 -4 -5 -4q-45 -35 -64 -59t-19 -47q0 -12 5 -15.5t17 -3.5q11 0 26 10q4 2 5 -2q0 -1 4 -12t5 -12q2 -6 -1 -9q-27 -22 -54 -22zM164 43q23 0 38 2t34.5 8.5t31.5 24t16 45.5 l15 102q-79 14 -127 14q-35 0 -57 -20.5t-26 -50.5l-6 -43q-11 -82 81 -82z" />
<glyph unicode="&#x106;" horiz-adv-x="462" d="M214 -10q-18 0 -32.5 1t-31.5 4t-30 8t-27 13.5t-23 21t-17 30.5t-11.5 40.5t-3 53t5.5 66.5l32 230q9 62 27.5 106.5t40 68.5t53 37t56 16.5t59.5 3.5q46 0 82.5 -8t48 -14t14.5 -9q2 -2 1 -5q-22 -33 -22 -38q-4 -4 -5 -2q-66 22 -127 22q-24 0 -41 -2.5t-40 -13 t-39 -29t-30 -54.5t-21 -86l-30 -218q-9 -49 -4 -83t13 -55t27 -32.5t37.5 -15t44.5 -3.5q12 0 25.5 1.5t25.5 3.5t23.5 4.5t21 5.5t18.5 6t14.5 5t9.5 4l4 1q2 2 4 -2q1 -1 6.5 -18.5t5.5 -18.5q1 -1 -3 -5q-3 -3 -18.5 -11.5t-56.5 -19t-87 -10.5zM306 765q-4 -4 -7 -4 h-40q-3 0 -1 4l78 134q3 4 6 4h54q5 0 1 -4z" />
<glyph unicode="&#x107;" horiz-adv-x="392" d="M171 -8q-14 0 -24.5 0.5t-24 3t-23.5 6t-21.5 10.5t-19 17t-14 25t-9 33.5t-2.5 43.5t4 55l15 109q7 51 23 88t33.5 56.5t43 30t44.5 13t45 2.5q70 0 121 -17q3 -1 1 -5l-16 -36q-1 -3 -5 -3q-2 1 -14.5 3t-39 4t-53.5 2q-24 0 -40.5 -4.5t-36 -17.5t-32.5 -43.5 t-20 -77.5l-15 -100q-3 -34 -4 -58t7 -40.5t15 -25.5t21 -14t24.5 -6.5t25.5 -1.5q78 0 117 13q3 1 3 -2l6 -37q0 -4 -3 -5q-42 -21 -132 -21zM239 562q-2 -4 -6 -4h-40q-3 0 -1 4l78 134q3 4 6 4h54q4 0 2 -4z" />
<glyph unicode="&#x108;" horiz-adv-x="462" d="M214 -10q-18 0 -32.5 1t-31.5 4t-30 8t-27 13.5t-23 21t-17 30.5t-11.5 40.5t-3 53t5.5 66.5l32 230q9 62 27.5 106.5t40 68.5t53 37t56 16.5t59.5 3.5q46 0 82.5 -8t48 -14t14.5 -9q2 -2 1 -5q-22 -33 -22 -38q-4 -4 -5 -2q-66 22 -127 22q-24 0 -41 -2.5t-40 -13 t-39 -29t-30 -54.5t-21 -86l-30 -218q-9 -49 -4 -83t13 -55t27 -32.5t37.5 -15t44.5 -3.5q12 0 25.5 1.5t25.5 3.5t23.5 4.5t21 5.5t18.5 6t14.5 5t9.5 4l4 1q2 2 4 -2q1 -1 6.5 -18.5t5.5 -18.5q1 -1 -3 -5q-3 -3 -18.5 -11.5t-56.5 -19t-87 -10.5zM257 761h-40q-2 0 0 4 q13 22 43 66.5t44 67.5q2 4 7 4h53q4 0 5 -4q1 -2 26 -67.5t26 -66.5q1 -4 -3 -4h-40q-3 0 -5 4l-40 90h-4q-64 -87 -66 -90q-2 -4 -6 -4z" />
<glyph unicode="&#x109;" horiz-adv-x="392" d="M171 -8q-14 0 -24.5 0.5t-24 3t-23.5 6t-21.5 10.5t-19 17t-14 25t-9 33.5t-2.5 43.5t4 55l15 109q7 51 23 88t33.5 56.5t43 30t44.5 13t45 2.5q70 0 121 -17q3 -1 1 -5l-16 -36q-1 -3 -5 -3q-2 1 -14.5 3t-39 4t-53.5 2q-24 0 -40.5 -4.5t-36 -17.5t-32.5 -43.5 t-20 -77.5l-15 -100q-3 -34 -4 -58t7 -40.5t15 -25.5t21 -14t24.5 -6.5t25.5 -1.5q78 0 117 13q3 1 3 -2l6 -37q0 -4 -3 -5q-42 -21 -132 -21zM191 558h-40q-2 0 0 4q13 22 44 67t44 67q2 4 6 4h53q5 0 6 -4q1 -3 25.5 -68t25.5 -66q1 -4 -3 -4h-40q-2 0 -4 4l-41 90h-4 q-64 -87 -66 -90q-2 -4 -6 -4z" />
<glyph unicode="&#x10a;" horiz-adv-x="462" d="M214 -10q-18 0 -32.5 1t-31.5 4t-30 8t-27 13.5t-23 21t-17 30.5t-11.5 40.5t-3 53t5.5 66.5l32 230q9 62 27.5 106.5t40 68.5t53 37t56 16.5t59.5 3.5q46 0 82.5 -8t48 -14t14.5 -9q2 -2 1 -5q-22 -33 -22 -38q-4 -4 -5 -2q-66 22 -127 22q-24 0 -41 -2.5t-40 -13 t-39 -29t-30 -54.5t-21 -86l-30 -218q-9 -49 -4 -83t13 -55t27 -32.5t37.5 -15t44.5 -3.5q12 0 25.5 1.5t25.5 3.5t23.5 4.5t21 5.5t18.5 6t14.5 5t9.5 4l4 1q2 2 4 -2q1 -1 6.5 -18.5t5.5 -18.5q1 -1 -3 -5q-3 -3 -18.5 -11.5t-56.5 -19t-87 -10.5zM297 806q-3 0 -3 4 l10 69q0 4 4 4h54q3 0 3 -4l-10 -69q0 -4 -4 -4h-54z" />
<glyph unicode="&#x10b;" horiz-adv-x="392" d="M171 -8q-14 0 -24.5 0.5t-24 3t-23.5 6t-21.5 10.5t-19 17t-14 25t-9 33.5t-2.5 43.5t4 55l15 109q7 51 23 88t33.5 56.5t43 30t44.5 13t45 2.5q70 0 121 -17q3 -1 1 -5l-16 -36q-1 -3 -5 -3q-2 1 -14.5 3t-39 4t-53.5 2q-24 0 -40.5 -4.5t-36 -17.5t-32.5 -43.5 t-20 -77.5l-15 -100q-3 -34 -4 -58t7 -40.5t15 -25.5t21 -14t24.5 -6.5t25.5 -1.5q78 0 117 13q3 1 3 -2l6 -37q0 -4 -3 -5q-42 -21 -132 -21zM232 603q-3 0 -3 4l10 69q0 4 4 4h54q3 0 3 -4l-10 -69q0 -4 -4 -4h-54z" />
<glyph unicode="&#x10c;" horiz-adv-x="462" d="M214 -10q-18 0 -32.5 1t-31.5 4t-30 8t-27 13.5t-23 21t-17 30.5t-11.5 40.5t-3 53t5.5 66.5l32 230q9 62 27.5 106.5t40 68.5t53 37t56 16.5t59.5 3.5q46 0 82.5 -8t48 -14t14.5 -9q2 -2 1 -5q-22 -33 -22 -38q-4 -4 -5 -2q-66 22 -127 22q-24 0 -41 -2.5t-40 -13 t-39 -29t-30 -54.5t-21 -86l-30 -218q-9 -49 -4 -83t13 -55t27 -32.5t37.5 -15t44.5 -3.5q12 0 25.5 1.5t25.5 3.5t23.5 4.5t21 5.5t18.5 6t14.5 5t9.5 4l4 1q2 2 4 -2q1 -1 6.5 -18.5t5.5 -18.5q1 -1 -3 -5q-3 -3 -18.5 -11.5t-56.5 -19t-87 -10.5zM398 903h42q3 0 2 -4 l-99 -134q-4 -4 -5 -4h-39q-4 0 -6 4q-8 21 -29.5 66t-30.5 69q-1 3 1 3h43q1 0 4 -4l42 -89h5q61 86 63 89q3 4 7 4z" />
<glyph unicode="&#x10d;" horiz-adv-x="392" d="M171 -8q-14 0 -24.5 0.5t-24 3t-23.5 6t-21.5 10.5t-19 17t-14 25t-9 33.5t-2.5 43.5t4 55l15 109q7 51 23 88t33.5 56.5t43 30t44.5 13t45 2.5q70 0 121 -17q3 -1 1 -5l-16 -36q-1 -3 -5 -3q-2 1 -14.5 3t-39 4t-53.5 2q-24 0 -40.5 -4.5t-36 -17.5t-32.5 -43.5 t-20 -77.5l-15 -100q-3 -34 -4 -58t7 -40.5t15 -25.5t21 -14t24.5 -6.5t25.5 -1.5q78 0 117 13q3 1 3 -2l6 -37q0 -4 -3 -5q-42 -21 -132 -21zM332 700h42q4 0 1 -4l-97 -134q-4 -4 -6 -4h-39q-4 0 -6 4q-8 21 -29.5 66t-30.5 69q-1 3 1 3h43q2 0 5 -4l41 -89h5q62 86 64 89 q3 4 6 4z" />
<glyph unicode="&#x10e;" horiz-adv-x="515" d="M100 54h128q35 0 59 6t48 24t39.5 56.5t23.5 98.5l29 207q4 31 4.5 56.5t-3 43.5t-9.5 32t-16 22.5t-19.5 14t-23.5 8t-25 3.5t-27 1h-128zM220 0h-185l96 680h185q18 0 29.5 -0.5t29.5 -2.5t29.5 -6t27 -12t24.5 -19.5t18 -28.5t13 -39t4 -52.5t-5 -66.5l-31 -220 q-9 -65 -28.5 -110.5t-40.5 -69t-53 -36t-55 -15t-58 -2.5zM405 903h42q3 0 2 -4l-99 -134q-4 -4 -5 -4h-39q-4 0 -6 4q-8 21 -30 66t-31 69q0 3 2 3h43q1 0 4 -4l42 -89h5q61 86 63 89q3 4 7 4z" />
<glyph unicode="&#x10f;" horiz-adv-x="526" d="M327 0h-48q-3 0 -3 3l4 32q-34 -43 -132 -43q-14 0 -24.5 1t-24 3.5t-22.5 8.5t-19.5 15.5t-16 25t-9 36t-3 49.5t5.5 65l12 86q8 56 24 95.5t32.5 59.5t42 30.5t42 12.5t42.5 2q16 0 43.5 -6t46.5 -12l20 -7l31 219q0 4 3 4h48q3 0 3 -4l-95 -672q0 -4 -3 -4zM170 44 q44 0 81 20.5t44 68.5l38 271q-77 26 -105 26q-23 0 -37.5 -3.5t-34 -17t-33.5 -47t-21 -85.5l-11 -77q-4 -31 -4.5 -55.5t2 -41t9 -28t13 -17.5t18 -9.5t20 -4t21.5 -0.5zM464 527q-5 -5 -5 3l21 146q0 4 4 4h47q4 0 4 -4l-14 -100q0 -1 -4 -5z" />
<glyph unicode="&#x110;" horiz-adv-x="517" d="M101 54h128q26 0 42 2t39 11.5t38 28t29.5 54.5t21.5 88l29 208q5 32 5 58t-4.5 44.5t-10 32t-16.5 21.5t-20.5 13.5t-24 7.5t-24 2.5t-24.5 0.5h-128l-36 -257h112q4 0 3 -4l-6 -42q0 -4 -4 -4h-112zM212 0h-176l45 319h-42q-3 0 -3 4l6 42q0 4 4 4h42l44 311h176 q18 0 32.5 -1t32.5 -3.5t31.5 -7t28 -13t24.5 -20.5t18.5 -29t12.5 -38.5t4 -50.5t-5 -64l-31 -220q-9 -67 -31 -113.5t-44.5 -69.5t-58 -35t-55.5 -13.5t-55 -1.5z" />
<glyph unicode="&#x111;" horiz-adv-x="429" d="M170 47q48 0 83 20.5t41 65.5l39 271q-76 25 -106 25q-51 0 -81.5 -30t-44.5 -122l-11 -74q-14 -95 6.5 -125.5t73.5 -30.5zM148 -5q-18 0 -31 1.5t-28.5 6t-25 13t-18.5 23.5t-12.5 36.5t-3 52.5t5.5 71l11 82q7 54 22 93t31.5 59.5t40.5 31.5t42.5 13.5t44.5 2.5 q18 0 46.5 -6.5t47.5 -12.5l19 -6l15 106h-117q-4 0 -4 4l6 40q0 4 4 4h118l9 65q0 4 3 4h47q3 0 3 -4l-9 -65h35q3 0 3 -4l-6 -40q0 -4 -3 -4h-37l-78 -558q-1 -4 -3 -4h-47q-3 0 -3 3l4 32q-33 -40 -132 -40z" />
<glyph unicode="&#x112;" horiz-adv-x="462" d="M35 0l96 680h341q3 0 3 -4l-6 -46q0 -4 -5 -4h-284l-36 -253h245q3 0 3 -4l-7 -46q0 -4 -3 -4h-245l-37 -265h284q3 0 3 -4l-6 -46q-1 -4 -5 -4h-341zM429 821h-215q-2 0 -2 4l6 42q0 4 3 4h215q3 0 3 -4l-6 -42q0 -4 -4 -4z" />
<glyph unicode="&#x113;" horiz-adv-x="420" d="M95 262h217q14 99 -6.5 134.5t-75.5 35.5q-58 0 -89.5 -32t-45.5 -138zM178 -8q-36 0 -61 6t-50.5 25.5t-35 63.5t-0.5 112l11 83q9 65 30.5 108t52 62t56 25.5t57.5 6.5q16 0 27 -1t26.5 -4t26 -9t22.5 -16t18.5 -26t11 -37.5t4 -51.5t-5.5 -67l-8 -56h-272 q-3 -40 -5 -68t6 -47t15.5 -30.5t22.5 -17.5t27.5 -7.5t30.5 -1.5t38 1.5t35 4l27 4.5t19 3.5t8 1.5q5 0 5 -3q0 -2 1.5 -19t1.5 -18q0 -4 -2 -5q-4 -2 -18 -6.5t-49 -10t-73 -5.5zM364 618h-215q-3 0 -3 4l6 42q0 4 4 4h215q2 0 2 -4l-6 -42q0 -4 -3 -4z" />
<glyph unicode="&#x114;" horiz-adv-x="462" d="M35 0l96 680h341q3 0 3 -4l-6 -46q0 -4 -5 -4h-284l-36 -253h245q3 0 3 -4l-7 -46q0 -4 -3 -4h-245l-37 -265h284q3 0 3 -4l-6 -46q-1 -4 -5 -4h-341zM319 773q-93 0 -93 89q0 26 6 26h24q5 0 5 -5q4 -40 17 -53t47 -13q31 0 47 13.5t32 52.5q2 5 5 5h28q3 0 2 -5 q-23 -110 -120 -110z" />
<glyph unicode="&#x115;" horiz-adv-x="420" d="M95 262h217q14 99 -6.5 134.5t-75.5 35.5q-58 0 -89.5 -32t-45.5 -138zM178 -8q-36 0 -61 6t-50.5 25.5t-35 63.5t-0.5 112l11 83q9 65 30.5 108t52 62t56 25.5t57.5 6.5q16 0 27 -1t26.5 -4t26 -9t22.5 -16t18.5 -26t11 -37.5t4 -51.5t-5.5 -67l-8 -56h-272 q-3 -40 -5 -68t6 -47t15.5 -30.5t22.5 -17.5t27.5 -7.5t30.5 -1.5t38 1.5t35 4l27 4.5t19 3.5t8 1.5q5 0 5 -3q0 -2 1.5 -19t1.5 -18q0 -4 -2 -5q-4 -2 -18 -6.5t-49 -10t-73 -5.5zM256 570q-93 0 -93 89q0 26 6 26h24q5 0 5 -5q4 -40 17 -53t47 -13q31 0 47 13.5t32 52.5 q2 5 5 5h28q3 0 2 -5q-23 -110 -120 -110z" />
<glyph unicode="&#x116;" horiz-adv-x="462" d="M35 0l96 680h341q3 0 3 -4l-6 -46q0 -4 -5 -4h-284l-36 -253h245q3 0 3 -4l-7 -46q0 -4 -3 -4h-245l-37 -265h284q3 0 3 -4l-6 -46q-1 -4 -5 -4h-341zM302 806q-3 0 -3 4l10 69q0 4 4 4h54q3 0 3 -4l-10 -69q0 -4 -4 -4h-54z" />
<glyph unicode="&#x117;" horiz-adv-x="420" d="M178 -8q-36 0 -61 6t-50.5 25.5t-35 63.5t-0.5 112l11 83q9 65 30.5 108t52 62t56 25.5t57.5 6.5q16 0 27 -1t26.5 -4t26 -9t22.5 -16t18.5 -26t11 -37.5t4 -51.5t-5.5 -67l-8 -56h-272q-3 -40 -5 -68t6 -47t15.5 -30.5t22.5 -17.5t27.5 -7.5t30.5 -1.5t38 1.5t35 4 l27 4.5t19 3.5t8 1.5q5 0 5 -3q0 -2 1.5 -19t1.5 -18q0 -4 -2 -5q-4 -2 -18 -6.5t-49 -10t-73 -5.5zM95 262h217q14 99 -6.5 134.5t-75.5 35.5q-58 0 -89.5 -32t-45.5 -138zM232 603q-3 0 -3 4l10 69q0 4 4 4h54q3 0 3 -4l-10 -69q0 -4 -4 -4h-54z" />
<glyph unicode="&#x118;" horiz-adv-x="462" d="M35 0l96 680h341q3 0 3 -4l-6 -46q0 -4 -5 -4h-284l-36 -253h245q3 0 3 -4l-7 -46q0 -4 -3 -4h-245l-37 -265h284q3 0 3 -4l-6 -46q-1 -4 -5 -4h-1q-46 -36 -65 -59.5t-19 -46.5q0 -19 22 -19q12 0 27 10q4 2 5 -2q1 -1 5 -12t4 -12q2 -6 -1 -9q-27 -22 -54 -22 q-55 0 -55 51q0 38 19 64.5t55 56.5h-283z" />
<glyph unicode="&#x119;" horiz-adv-x="420" d="M144 -178q-55 0 -55 51q0 37 18 63.5t54 55.5q-26 1 -45 5.5t-40.5 17.5t-31.5 35.5t-16.5 59.5t3.5 89l12 83q9 65 30.5 108t52 62t56 25.5t56.5 6.5q16 0 27 -1t26.5 -4t26 -9t22.5 -16t18.5 -26t11 -37.5t4 -51.5t-5.5 -67l-8 -56h-272q-3 -40 -5 -68t6 -47 t15.5 -30.5t22.5 -17.5t27.5 -7.5t30.5 -1.5t38 1.5t35 4l27 4.5t19 3.5t8 1.5q5 0 5 -3q0 -2 2 -18.5t2 -18.5q0 -3 -3 -5q-28 -14 -99 -20q-46 -35 -64.5 -58.5t-18.5 -47.5q0 -19 22 -19q12 0 27 10q4 2 5 -2q0 -1 4 -12t5 -12q2 -6 -1 -9q-28 -22 -54 -22zM95 262h217 q14 99 -6 134.5t-75 35.5q-28 0 -46.5 -5t-37.5 -21.5t-31.5 -52t-20.5 -91.5z" />
<glyph unicode="&#x11a;" horiz-adv-x="462" d="M35 0l96 680h341q3 0 3 -4l-6 -46q0 -4 -5 -4h-284l-36 -253h245q3 0 3 -4l-7 -46q0 -4 -3 -4h-245l-37 -265h284q3 0 3 -4l-6 -46q-1 -4 -5 -4h-341zM396 903h42q3 0 2 -4l-99 -134q-4 -4 -5 -4h-39q-4 0 -6 4q-8 21 -30 66t-31 69q-2 3 2 3h43q1 0 4 -4l42 -89h5 q61 86 63 89q3 4 7 4z" />
<glyph unicode="&#x11b;" horiz-adv-x="420" d="M95 262h217q14 99 -6.5 134.5t-75.5 35.5q-58 0 -89.5 -32t-45.5 -138zM178 -8q-36 0 -61 6t-50.5 25.5t-35 63.5t-0.5 112l11 83q9 65 30.5 108t52 62t56 25.5t57.5 6.5q16 0 27 -1t26.5 -4t26 -9t22.5 -16t18.5 -26t11 -37.5t4 -51.5t-5.5 -67l-8 -56h-272 q-3 -40 -5 -68t6 -47t15.5 -30.5t22.5 -17.5t27.5 -7.5t30.5 -1.5t38 1.5t35 4l27 4.5t19 3.5t8 1.5q5 0 5 -3q0 -2 1.5 -19t1.5 -18q0 -4 -2 -5q-4 -2 -18 -6.5t-49 -10t-73 -5.5zM333 700h42q4 0 1 -4l-97 -134q-4 -4 -6 -4h-39q-4 0 -6 4q-8 19 -29.5 64.5t-30.5 70.5 q-2 3 1 3h43q2 0 5 -4l41 -89h5q62 86 64 89q3 4 6 4z" />
<glyph unicode="&#x11c;" horiz-adv-x="507" d="M205 -10q-23 0 -40 1.5t-37.5 7.5t-33.5 16t-27.5 27.5t-19 43t-8 61t5.5 81.5l32 230q9 63 28.5 108t41.5 68.5t53.5 36.5t55 16t56.5 3q44 0 85.5 -7.5t59.5 -14t22 -9.5q2 -1 0 -5l-19 -38q-2 -3 -4 -2q-5 2 -25.5 6.5t-58.5 10t-67 5.5q-24 0 -40 -2t-39.5 -12 t-39 -28.5t-30.5 -55t-22 -87.5l-31 -217q-4 -43 -5 -73.5t8 -51.5t17.5 -34t25.5 -19.5t31 -8.5t34 -2l142 12l33 236h-99q-3 0 -3 4l7 44q0 4 3 4h155l-47 -333q-148 -22 -200 -22zM266 761h-40q-3 0 -1 4q13 22 44 66.5t44 67.5q2 4 7 4h53q4 0 5 -4q1 -3 25.5 -68 t25.5 -66q1 -4 -2 -4h-40q-3 0 -5 4l-40 90h-4q-65 -87 -67 -90q-2 -4 -5 -4z" />
<glyph unicode="&#x11d;" horiz-adv-x="435" d="M166 45q13 0 41 5.5t49 11.5l22 6l39 276q5 37 -17 61.5t-83 24.5q-24 0 -39 -4t-33.5 -18t-31 -47.5t-19.5 -86.5l-10 -76q-13 -95 9 -124t73 -29zM138 -185q-88 0 -134 23q-4 2 -1 5q0 1 8.5 17.5t10.5 19.5q1 3 3 2q51 -17 117 -17q55 0 84.5 19.5t38.5 85.5l6 45 q-78 -22 -118 -22q-16 0 -27.5 1t-26 3.5t-24.5 8.5t-21 15.5t-17.5 24.5t-10.5 35t-3.5 48.5t5.5 63.5l12 85q10 67 27 110.5t41.5 62.5t46 25t53.5 6q100 0 123 -40l4 31q1 4 4 4h48q2 0 2 -4l-70 -503q-6 -43 -21 -73.5t-31 -46t-41.5 -24t-43 -10t-44.5 -1.5zM190 558 h-40q-2 0 0 4q14 22 44.5 67t43.5 67q2 4 6 4h53q5 0 6 -4q1 -3 25.5 -68t25.5 -66q1 -4 -3 -4h-40q-2 0 -4 4l-41 90h-4q-64 -87 -66 -90q-2 -4 -6 -4z" />
<glyph unicode="&#x11e;" horiz-adv-x="507" d="M205 -10q-23 0 -40 1.5t-37.5 7.5t-33.5 16t-27.5 27.5t-19 43t-8 61t5.5 81.5l32 230q9 63 28.5 108t41.5 68.5t53.5 36.5t55 16t56.5 3q44 0 85.5 -7.5t59.5 -14t22 -9.5q2 -1 0 -5l-19 -38q-2 -3 -4 -2q-5 2 -25.5 6.5t-58.5 10t-67 5.5q-24 0 -40 -2t-39.5 -12 t-39 -28.5t-30.5 -55t-22 -87.5l-31 -217q-4 -43 -5 -73.5t8 -51.5t17.5 -34t25.5 -19.5t31 -8.5t34 -2l142 12l33 236h-99q-3 0 -3 4l7 44q0 4 3 4h155l-47 -333q-148 -22 -200 -22zM326 773q-92 0 -92 89q0 26 5 26h24q6 0 6 -5q4 -40 16.5 -53t46.5 -13q31 0 47.5 13.5 t32.5 52.5q2 5 4 5h28q4 0 3 -5q-23 -110 -121 -110z" />
<glyph unicode="&#x11f;" horiz-adv-x="435" d="M166 45q13 0 41 5.5t49 11.5l22 6l39 276q5 37 -17 61.5t-83 24.5q-24 0 -39 -4t-33.5 -18t-31 -47.5t-19.5 -86.5l-10 -76q-13 -95 9 -124t73 -29zM138 -185q-88 0 -134 23q-4 2 -1 5q0 1 8.5 17.5t10.5 19.5q1 3 3 2q51 -17 117 -17q55 0 84.5 19.5t38.5 85.5l6 45 q-78 -22 -118 -22q-16 0 -27.5 1t-26 3.5t-24.5 8.5t-21 15.5t-17.5 24.5t-10.5 35t-3.5 48.5t5.5 63.5l12 85q10 67 27 110.5t41.5 62.5t46 25t53.5 6q100 0 123 -40l4 31q1 4 4 4h48q2 0 2 -4l-70 -503q-6 -43 -21 -73.5t-31 -46t-41.5 -24t-43 -10t-44.5 -1.5zM256 570 q-93 0 -93 89q0 26 6 26h24q5 0 5 -5q4 -40 17 -53t47 -13q31 0 47 13.5t32 52.5q2 5 5 5h28q3 0 2 -5q-23 -110 -120 -110z" />
<glyph unicode="&#x120;" horiz-adv-x="507" d="M205 -10q-23 0 -40 1.5t-37.5 7.5t-33.5 16t-27.5 27.5t-19 43t-8 61t5.5 81.5l32 230q9 63 28.5 108t41.5 68.5t53.5 36.5t55 16t56.5 3q44 0 85.5 -7.5t59.5 -14t22 -9.5q2 -1 0 -5l-19 -38q-2 -3 -4 -2q-5 2 -25.5 6.5t-58.5 10t-67 5.5q-24 0 -40 -2t-39.5 -12 t-39 -28.5t-30.5 -55t-22 -87.5l-31 -217q-4 -43 -5 -73.5t8 -51.5t17.5 -34t25.5 -19.5t31 -8.5t34 -2l142 12l33 236h-99q-3 0 -3 4l7 44q0 4 3 4h155l-47 -333q-148 -22 -200 -22zM300 806q-4 0 -4 4l10 69q0 4 5 4h54q2 0 2 -4l-10 -69q0 -4 -3 -4h-54z" />
<glyph unicode="&#x121;" horiz-adv-x="435" d="M138 -185q-88 0 -134 23q-2 2 -2 3q0 9 20 39q1 3 3 2q51 -17 117 -17q55 0 84.5 19.5t38.5 85.5l6 45q-78 -22 -118 -22q-16 0 -27.5 1t-26 3.5t-24.5 8.5t-21 15.5t-17.5 24.5t-10.5 35t-3.5 48.5t5.5 63.5l12 85q10 67 27 110.5t41.5 62.5t46 25t53.5 6q100 0 123 -40 l4 31q1 4 4 4h48q2 0 2 -4l-70 -503q-6 -43 -21 -73.5t-31 -46t-41.5 -24t-43 -10t-44.5 -1.5zM166 45q13 0 41 5.5t49 11.5l22 6l39 276q5 37 -17 61.5t-83 24.5q-24 0 -39 -4t-33.5 -18t-31 -47.5t-19.5 -86.5l-10 -76q-13 -95 9 -124t73 -29zM233 603q-3 0 -3 4l10 69 q0 4 4 4h54q3 0 3 -4l-10 -69q0 -4 -4 -4h-54z" />
<glyph unicode="&#x122;" horiz-adv-x="507" d="M205 -10q-23 0 -40 1.5t-37.5 7.5t-33.5 16t-27.5 27.5t-19 43t-8 61t5.5 81.5l32 230q9 63 28.5 108t41.5 68.5t53.5 36.5t55 16t56.5 3q44 0 85.5 -7.5t59.5 -14t22 -9.5q2 -1 0 -5l-19 -38q-2 -3 -4 -2q-5 2 -25.5 6.5t-58.5 10t-67 5.5q-24 0 -40 -2t-39.5 -12 t-39 -28.5t-30.5 -55t-22 -87.5l-31 -217q-4 -43 -5 -73.5t8 -51.5t17.5 -34t25.5 -19.5t31 -8.5t34 -2l142 12l33 236h-99q-3 0 -3 4l7 44q0 4 3 4h155l-47 -333q-148 -22 -200 -22zM163 -248q-4 -4 -4 3l21 146q0 4 4 4h47q4 0 4 -4l-14 -100l-1 -1q-1 -2 -3 -4z" />
<glyph unicode="&#x123;" horiz-adv-x="435" d="M138 -185q-88 0 -134 23q-2 2 -2 3q0 9 20 39q1 3 3 2q51 -17 117 -17q55 0 84.5 19.5t38.5 85.5l6 45q-78 -22 -118 -22q-16 0 -27.5 1t-26 3.5t-24.5 8.5t-21 15.5t-17.5 24.5t-10.5 35t-3.5 48.5t5.5 63.5l12 85q10 67 27 110.5t41.5 62.5t46 25t53.5 6q100 0 123 -40 l4 31q1 4 4 4h48q2 0 2 -4l-70 -503q-6 -43 -21 -73.5t-31 -46t-41.5 -24t-43 -10t-44.5 -1.5zM166 45q13 0 41 5.5t49 11.5l22 6l39 276q5 37 -17 61.5t-83 24.5q-24 0 -39 -4t-33.5 -18t-31 -47.5t-19.5 -86.5l-10 -76q-13 -95 9 -124t73 -29zM299 748q2 2 3.5 0.5 t0.5 -3.5l-20 -146q-1 -4 -5 -4h-47q-3 0 -3 4l14 100q0 2 4 5q2 1 27 22t26 22z" />
<glyph unicode="&#x124;" horiz-adv-x="540" d="M38 0q-3 0 -3 4l95 672q0 4 3 4h51q3 0 3 -4l-43 -307h277l43 307q0 4 3 4h51q3 0 3 -4l-95 -672q0 -4 -3 -4h-51q-3 0 -3 4l44 315h-277l-44 -315q-1 -4 -3 -4h-51zM277 761h-40q-3 0 -1 4q14 22 44 66.5t44 67.5q2 4 7 4h53q4 0 5 -4q1 -3 25.5 -68t25.5 -66 q1 -4 -2 -4h-40q-3 0 -5 4l-40 90h-4q-65 -87 -67 -90q-2 -4 -5 -4z" />
<glyph unicode="&#x125;" horiz-adv-x="452" d="M37 0q-3 0 -3 4l95 672q0 4 3 4h48q3 0 3 -4l-32 -228q84 34 125 34q14 0 24 -0.5t23.5 -3t22 -7t19.5 -12t15 -18.5t10 -27t4 -37t-4 -48l-46 -325q0 -4 -3 -4h-47q-4 0 -4 4l46 323q9 66 -9 85.5t-63 19.5q-16 0 -46 -9t-52 -17l-22 -9l-56 -393q0 -4 -3 -4h-48z M230 750h-40q-2 0 0 4q13 23 43.5 67.5t44.5 66.5q2 4 6 4h53q5 0 6 -4q1 -3 25.5 -68t25.5 -66q1 -4 -3 -4h-40q-2 0 -4 4l-41 90h-4q-64 -87 -66 -90q-2 -4 -6 -4z" />
<glyph unicode="&#x128;" horiz-adv-x="207" d="M38 0q-3 0 -3 4l95 672q0 4 4 4h51q2 0 2 -4l-94 -672q0 -4 -4 -4h-51zM75 803q-3 0 -2 5l4 30q0 6 4 10l7 7q7 7 13.5 12.5t18 10.5t22.5 5q21 0 47 -19t43 -19q18 0 37 17.5t21 17.5t2 -4l-4 -31q-2 -7 -5 -11q-26 -35 -62 -35q-20 0 -45.5 19.5t-41.5 19.5 q-18 0 -38 -17.5t-21 -17.5z" />
<glyph unicode="&#x129;" horiz-adv-x="201" d="M36 0q-3 0 -3 4l66 469q0 4 4 4h48q3 0 3 -4l-66 -469q0 -4 -4 -4h-48zM44 600q-3 0 -2 5l4 30q0 5 5 10l7 7q7 7 13.5 12.5t18 10.5t22.5 5q21 0 46.5 -19t42.5 -19q18 0 37 17.5t21 17.5q3 0 3 -4l-5 -31q0 -6 -4 -11q-26 -35 -62 -35q-20 0 -46 19.5t-42 19.5 q-18 0 -38 -17.5t-21 -17.5z" />
<glyph unicode="&#x12a;" horiz-adv-x="207" d="M38 0q-3 0 -3 4l95 672q0 4 3 4h51q3 0 3 -4l-95 -672q0 -4 -3 -4h-51zM287 821h-215q-3 0 -2 4l6 42q0 4 3 4h215q3 0 3 -4l-6 -42q0 -4 -4 -4z" />
<glyph unicode="&#x12b;" horiz-adv-x="201" d="M36 0q-3 0 -3 4l66 469q0 4 4 4h48q2 0 2 -4l-66 -469q0 -4 -3 -4h-48zM255 618h-215q-3 0 -3 4l6 42q0 4 4 4h215q2 0 2 -4l-6 -42q0 -4 -3 -4z" />
<glyph unicode="&#x12e;" horiz-adv-x="207" d="M12 -172q-55 0 -55 51q0 39 20 66t59 58v1l94 672q1 4 4 4h51q3 0 2 -4l-94 -672q0 -4 -4 -4h-1q-45 -35 -64 -59t-19 -47q0 -12 5 -15.5t17 -3.5q11 0 26 10q4 2 5 -2q1 -1 5 -13l4 -11q2 -6 -1 -9q-27 -22 -54 -22z" />
<glyph unicode="&#x12f;" horiz-adv-x="201" d="M8 -172q-55 0 -55 51q0 40 20.5 67.5t61.5 59.5l66 467q0 4 3 4h48q3 0 3 -4l-66 -469q0 -4 -4 -4h-1q-45 -35 -64 -59t-19 -47q0 -12 5 -15.5t17 -3.5q11 0 26 10q4 2 5 -2q1 -1 5 -13l4 -11q2 -6 -1 -9q-28 -22 -54 -22zM120 606q-3 0 -3 4l9 66q1 4 4 4h54q2 0 2 -4 l-9 -66q-1 -4 -3 -4h-54z" />
<glyph unicode="&#x130;" horiz-adv-x="207" d="M38 0q-3 0 -3 4l95 672q0 4 3 4h51q3 0 3 -4l-95 -672q0 -4 -3 -4h-51zM151 806q-4 0 -4 4l10 69q0 4 5 4h54q3 0 2 -4l-9 -69q-1 -4 -4 -4h-54z" />
<glyph unicode="&#x131;" horiz-adv-x="201" d="M36 0q-3 0 -3 4l66 469q0 4 4 4h48q2 0 2 -4l-66 -469q0 -4 -3 -4h-48z" />
<glyph unicode="&#x134;" horiz-adv-x="390" d="M125 -10q-24 0 -55 4.5t-49.5 8.5t-20.5 5q-3 2 -2 5l18 40q1 3 4 2q2 -1 20.5 -3.5t45.5 -5t44 -2.5q25 0 39.5 2.5t31.5 11.5t27.5 30.5t15.5 56.5l75 531q0 4 3 4h51q3 0 3 -4l-75 -531q-6 -43 -20.5 -73t-30.5 -45.5t-40 -24.5t-41.5 -10.5t-43.5 -1.5zM297 761h-40 q-3 0 -1 4q14 22 44.5 66.5t43.5 67.5q2 4 7 4h53q4 0 5 -4q1 -3 25.5 -68t25.5 -66q1 -4 -2 -4h-40q-3 0 -5 4l-40 90h-4q-65 -87 -67 -90q-2 -4 -5 -4z" />
<glyph unicode="&#x136;" horiz-adv-x="478" d="M38 0q-3 0 -3 4l95 672q0 4 3 4h51q3 0 3 -4l-43 -304h28q246 301 248 304q3 4 5 4h65q3 0 1 -4l-273 -329q192 -341 193 -343q1 -4 -1 -4h-65q-3 0 -6 4l-173 315h-30l-44 -315q-1 -4 -3 -4h-51zM144 -248q-5 -5 -5 3l21 146q0 4 5 4h47q3 0 3 -4l-14 -100q0 -1 -4 -5z " />
<glyph unicode="&#x137;" horiz-adv-x="406" d="M37 0q-3 0 -3 4l95 672q0 4 3 4h48q3 0 3 -4l-56 -396h34q150 191 151 193q3 4 6 4h61q3 0 0 -4l-176 -221q130 -245 131 -248q2 -4 -1 -4h-63q-4 0 -6 4l-113 221h-32l-31 -221q0 -4 -3 -4h-48zM105 -248q-5 -5 -5 3l21 146q0 4 4 4h47q4 0 4 -4l-14 -100q0 -1 -4 -5z " />
<glyph unicode="&#x139;" horiz-adv-x="441" d="M35 0l95 676q0 4 4 4h51q3 0 2 -4l-87 -622h284q3 0 3 -4l-6 -45q-2 -5 -5 -5h-341zM276 765q-4 -4 -7 -4h-40q-3 0 -1 4l78 134q3 4 6 4h54q5 0 1 -4z" />
<glyph unicode="&#x13a;" horiz-adv-x="227" d="M126 -5q-14 0 -22 0.5t-18.5 3t-16.5 7.5t-12.5 14t-8.5 22t-2 33t4 46l78 555q0 4 4 4h47q3 0 2 -4l-78 -556q-7 -33 -1.5 -50t11.5 -21t17 -4q6 0 24 1t19 1q3 0 3 -4q0 -29 3 -38q1 -3 -4 -5q-10 -5 -49 -5zM190 754q-2 -4 -6 -4h-40q-4 0 0 4l77 134q3 4 6 4h54 q3 0 1 -4z" />
<glyph unicode="&#x13b;" horiz-adv-x="441" d="M35 0l95 676q0 4 4 4h51q3 0 2 -4l-87 -622h284q3 0 3 -4l-6 -45q-2 -5 -5 -5h-341zM144 -248q-4 -1 -5 3l20 146q1 4 5 4h47q3 0 3 -4l-14 -100q0 -2 -4 -5z" />
<glyph unicode="&#x13c;" horiz-adv-x="227" d="M125 -5q-14 0 -22 0.5t-18.5 3t-16.5 7.5t-12 14t-8 22t-2 33t4 46l78 555q0 4 3 4h47q3 0 3 -4l-78 -556q-7 -33 -1.5 -50t11 -21t16.5 -4q6 0 24 1t19 1q4 0 4 -4q0 -29 3 -38q1 -3 -4 -5q-10 -5 -50 -5zM37 -248q-5 -5 -5 3l21 146q0 4 5 4h47q3 0 3 -4l-14 -100 q0 -1 -4 -5z" />
<glyph unicode="&#x13d;" horiz-adv-x="441" d="M35 0l95 676q0 4 4 4h51q3 0 2 -4l-87 -622h284q3 0 3 -4l-6 -45q-2 -5 -5 -5h-341zM250 597q-5 -5 -5 3l21 146q0 4 4 4h47q4 0 4 -4l-14 -100q0 -1 -4 -5z" />
<glyph unicode="&#x13e;" horiz-adv-x="321" d="M126 -5q-14 0 -22 0.5t-18.5 3t-16.5 7.5t-12.5 14t-8.5 22t-2 33t4 46l78 555q0 4 4 4h47q3 0 2 -4l-78 -556q-7 -33 -1.5 -50t11.5 -21t17 -4q6 0 24 1t19 1q3 0 3 -4q0 -29 3 -38q1 -3 -4 -5q-10 -5 -49 -5zM247 527q-4 -1 -5 3l20 146q1 4 5 4h47q3 0 3 -4l-14 -100 q0 -2 -4 -5z" />
<glyph unicode="&#x141;" horiz-adv-x="442" d="M35 0l41 292q-53 -35 -55 -36q-3 -2 -3 3l7 48q0 4 4 7l55 35l46 327q0 4 4 4h51q3 0 2 -4l-41 -294q146 94 147 94q1 1 2 0.5t1 -2.5l-7 -49q0 -2 -4 -6l-147 -95l-38 -270h285q2 0 2 -4l-6 -46q0 -4 -4 -4h-342z" />
<glyph unicode="&#x142;" horiz-adv-x="226" d="M123 -5q-16 0 -26 1t-22 5t-17 12t-11 22t-4 35t4 51l28 202q-41 -27 -43 -27t-1 3l6 45q0 3 3 6l43 27l42 299q0 4 3 4h48q3 0 3 -4l-38 -268q64 42 66 42h1v-3l-6 -44q-1 -5 -3 -7l-66 -42l-32 -234q-6 -45 1.5 -60t24.5 -15q7 0 17 0.5t18 0.5l7 1q3 0 4 -3 q1 -1 1.5 -19.5t0.5 -19.5q2 -5 -3 -5h-4q-3 -1 -8 -1.5t-11 -1.5t-13 -1.5t-13 -0.5z" />
<glyph unicode="&#x143;" horiz-adv-x="542" d="M38 0q-3 0 -3 4l95 672q0 4 3 4h70q4 0 5 -4l168 -566h11l80 566q0 4 4 4h50q3 0 3 -4l-95 -672q0 -4 -3 -4h-69q-3 0 -5 4l-167 572h-14l-80 -572q0 -4 -3 -4h-50zM327 765q-4 -4 -7 -4h-40q-4 0 0 4l77 134q3 4 6 4h54q5 0 1 -4z" />
<glyph unicode="&#x144;" horiz-adv-x="452" d="M37 0q-3 0 -3 4l66 469q0 4 4 4h48q3 0 2 -4l-3 -25q83 34 125 34q14 0 24 -0.5t23.5 -3t21.5 -6.5t19 -11.5t15 -19t10 -27t4 -37t-4 -48.5l-46 -325q0 -4 -3 -4h-46q-4 0 -4 4l46 323q9 66 -9 85.5t-63 19.5q-16 0 -46 -9t-52 -17l-22 -9l-56 -393q0 -4 -3 -4h-48z M253 562q-2 -4 -7 -4h-40q-2 0 0 4l78 134q3 4 5 4h54q4 0 2 -4z" />
<glyph unicode="&#x145;" horiz-adv-x="542" d="M38 0q-3 0 -3 4l95 672q0 4 3 4h70q4 0 5 -4l168 -566h11l80 566q0 4 4 4h50q3 0 3 -4l-95 -672q0 -4 -3 -4h-69q-3 0 -5 4l-167 572h-14l-80 -572q0 -4 -3 -4h-50zM182 -248q-5 -5 -5 3l21 146q0 4 5 4h47q3 0 3 -4l-14 -100q0 -1 -4 -5z" />
<glyph unicode="&#x146;" horiz-adv-x="452" d="M37 0q-3 0 -3 4l66 469q0 4 4 4h48q3 0 2 -4l-3 -25q83 34 125 34q14 0 24 -0.5t23.5 -3t21.5 -6.5t19 -11.5t15 -19t10 -27t4 -37t-4 -48.5l-46 -325q0 -4 -3 -4h-46q-4 0 -4 4l46 323q9 66 -9 85.5t-63 19.5q-16 0 -46 -9t-52 -17l-22 -9l-56 -393q0 -4 -3 -4h-48z M134 -248q-5 -5 -5 3l21 146q0 4 5 4h47q3 0 3 -4l-14 -100q0 -1 -4 -5z" />
<glyph unicode="&#x147;" horiz-adv-x="542" d="M38 0q-3 0 -3 4l95 672q0 4 3 4h70q4 0 5 -4l168 -566h11l80 566q0 4 4 4h50q3 0 3 -4l-95 -672q0 -4 -3 -4h-69q-3 0 -5 4l-167 572h-14l-80 -572q0 -4 -3 -4h-50zM420 903h42q4 0 1 -4l-98 -134q-4 -4 -5 -4h-39q-3 0 -7 4q-9 22 -30 67t-30 68q-2 3 2 3h43q1 0 4 -4 l42 -89h5q61 86 63 89q3 4 7 4z" />
<glyph unicode="&#x148;" horiz-adv-x="452" d="M37 0q-3 0 -3 4l66 469q0 4 4 4h48q3 0 2 -4l-3 -25q83 34 125 34q14 0 24 -0.5t23.5 -3t21.5 -6.5t19 -11.5t15 -19t10 -27t4 -37t-4 -48.5l-46 -325q0 -4 -3 -4h-46q-4 0 -4 4l46 323q9 66 -9 85.5t-63 19.5q-16 0 -46 -9t-52 -17l-22 -9l-56 -393q0 -4 -3 -4h-48z M345 700h42q4 0 1 -4l-97 -134q-4 -4 -6 -4h-39q-2 0 -6 4q-8 21 -29.5 66t-30.5 69q-2 3 1 3h43q2 0 5 -4l41 -89h5q62 86 64 89q3 4 6 4z" />
<glyph unicode="&#x14c;" horiz-adv-x="507" d="M220 44q33 0 56 6t48 24t41.5 58t25.5 101l31 218q3 42 4 71.5t-8 50t-18.5 33t-26.5 19.5t-32.5 9t-36.5 2q-32 0 -55.5 -6t-48.5 -24t-42 -57t-25 -98l-30 -218q-7 -37 -4.5 -65.5t5 -49t13.5 -34t20.5 -21.5t25 -12.5t28 -5.5t29.5 -1zM213 -10q-18 0 -30.5 0.5t-30 3 t-30 7t-26.5 13t-23.5 20.5t-18 30t-12 41t-3.5 54t5 68l33 231q9 63 28 107.5t40.5 68t52.5 37t55 16.5t58 3q17 0 29.5 -0.5t30 -3t29.5 -6.5t27 -12.5t24.5 -20t18.5 -29.5t12.5 -40t3.5 -52.5t-5 -67.5l-33 -231q-9 -66 -29.5 -112.5t-41.5 -70.5t-54 -36.5t-54.5 -15 t-55.5 -2.5zM437 821h-215q-3 0 -3 4l6 42q0 4 4 4h215q2 0 2 -4l-6 -42q0 -4 -3 -4z" />
<glyph unicode="&#x14d;" horiz-adv-x="425" d="M175 44q27 0 43.5 4t36 18.5t32 47.5t20.5 86l12 80q9 42 5.5 70t-8.5 44.5t-19.5 25t-28 11t-34.5 2.5q-56 0 -88 -29t-46 -124l-12 -80q-5 -36 -5.5 -62.5t5 -43t13 -27t20.5 -15.5t25 -6.5t29 -1.5zM168 -8q-18 0 -31 1t-29 4t-26.5 9.5t-22 16t-17.5 25t-10.5 36 t-4 49t5.5 63.5l12 89q9 65 28 107.5t47.5 61.5t55 25t65.5 6q18 0 30 -1t27.5 -3.5t26 -8.5t22 -15.5t18 -24.5t11 -35t4 -48.5t-5.5 -63.5l-12 -89q-8 -56 -23 -95.5t-32 -60.5t-43 -32t-45.5 -13.5t-50.5 -2.5zM367 618h-215q-3 0 -2 4l6 42q0 4 3 4h215q3 0 3 -4l-6 -42 q0 -4 -4 -4z" />
<glyph unicode="&#x14e;" horiz-adv-x="507" d="M220 44q33 0 56 6t48 24t41.5 58t25.5 101l31 218q3 42 4 71.5t-8 50t-18.5 33t-26.5 19.5t-32.5 9t-36.5 2q-32 0 -55.5 -6t-48.5 -24t-42 -57t-25 -98l-30 -218q-7 -37 -4.5 -65.5t5 -49t13.5 -34t20.5 -21.5t25 -12.5t28 -5.5t29.5 -1zM213 -10q-18 0 -30.5 0.5t-30 3 t-30 7t-26.5 13t-23.5 20.5t-18 30t-12 41t-3.5 54t5 68l33 231q9 63 28 107.5t40.5 68t52.5 37t55 16.5t58 3q17 0 29.5 -0.5t30 -3t29.5 -6.5t27 -12.5t24.5 -20t18.5 -29.5t12.5 -40t3.5 -52.5t-5 -67.5l-33 -231q-9 -66 -29.5 -112.5t-41.5 -70.5t-54 -36.5t-54.5 -15 t-55.5 -2.5zM324 773q-93 0 -93 89q0 26 6 26h24q5 0 5 -5q4 -40 17 -53t47 -13q31 0 47 13.5t32 52.5q2 5 5 5h28q3 0 2 -5q-23 -110 -120 -110z" />
<glyph unicode="&#x14f;" horiz-adv-x="425" d="M175 44q27 0 43.5 4t36 18.5t32 47.5t20.5 86l12 80q9 42 5.5 70t-8.5 44.5t-19.5 25t-28 11t-34.5 2.5q-56 0 -88 -29t-46 -124l-12 -80q-5 -36 -5.5 -62.5t5 -43t13 -27t20.5 -15.5t25 -6.5t29 -1.5zM168 -8q-18 0 -31 1t-29 4t-26.5 9.5t-22 16t-17.5 25t-10.5 36 t-4 49t5.5 63.5l12 89q9 65 28 107.5t47.5 61.5t55 25t65.5 6q18 0 30 -1t27.5 -3.5t26 -8.5t22 -15.5t18 -24.5t11 -35t4 -48.5t-5.5 -63.5l-12 -89q-8 -56 -23 -95.5t-32 -60.5t-43 -32t-45.5 -13.5t-50.5 -2.5zM254 570q-92 0 -92 89q0 26 6 26h24q5 0 5 -5q4 -40 17 -53 t47 -13q31 0 47 13.5t32 52.5q2 5 5 5h28q3 0 2 -5q-23 -110 -121 -110z" />
<glyph unicode="&#x150;" horiz-adv-x="507" d="M220 44q33 0 56 6t48 24t41.5 58t25.5 101l31 218q3 42 4 71.5t-8 50t-18.5 33t-26.5 19.5t-32.5 9t-36.5 2q-32 0 -55.5 -6t-48.5 -24t-42 -57t-25 -98l-30 -218q-7 -37 -4.5 -65.5t5 -49t13.5 -34t20.5 -21.5t25 -12.5t28 -5.5t29.5 -1zM213 -10q-18 0 -30.5 0.5t-30 3 t-30 7t-26.5 13t-23.5 20.5t-18 30t-12 41t-3.5 54t5 68l33 231q9 63 28 107.5t40.5 68t52.5 37t55 16.5t58 3q17 0 29.5 -0.5t30 -3t29.5 -6.5t27 -12.5t24.5 -20t18.5 -29.5t12.5 -40t3.5 -52.5t-5 -67.5l-33 -231q-9 -66 -29.5 -112.5t-41.5 -70.5t-54 -36.5t-54.5 -15 t-55.5 -2.5zM265 766q-4 -4 -7 -4h-40q-3 0 0 4l20 33l38 66t19 34q3 4 6 4h54q4 0 1 -4q0 -1 -45 -66t-46 -67zM373 766q-3 -4 -6 -4h-40q-3 0 0 4q0 1 38.5 66.5t38.5 66.5q3 4 6 4h53q5 0 1 -4q-7 -7 -91 -133z" />
<glyph unicode="&#x151;" horiz-adv-x="425" d="M175 44q27 0 43.5 4t36 18.5t32 47.5t20.5 86l12 80q9 42 5.5 70t-8.5 44.5t-19.5 25t-28 11t-34.5 2.5q-56 0 -88 -29t-46 -124l-12 -80q-5 -36 -5.5 -62.5t5 -43t13 -27t20.5 -15.5t25 -6.5t29 -1.5zM168 -8q-18 0 -31 1t-29 4t-26.5 9.5t-22 16t-17.5 25t-10.5 36 t-4 49t5.5 63.5l12 89q9 65 28 107.5t47.5 61.5t55 25t65.5 6q18 0 30 -1t27.5 -3.5t26 -8.5t22 -15.5t18 -24.5t11 -35t4 -48.5t-5.5 -63.5l-12 -89q-8 -56 -23 -95.5t-32 -60.5t-43 -32t-45.5 -13.5t-50.5 -2.5zM203 563q-3 -4 -6 -4h-40q-2 0 -1 4q2 2 40 66.5t38 66.5 q3 4 6 4h54q4 0 1 -4q0 -1 -22.5 -33.5t-45.5 -65.5t-24 -34zM311 563q-1 -4 -5 -4h-40q-2 0 -1 4l39 65q38 66 39 68q3 4 6 4h53q5 0 1 -4q-1 -1 -45.5 -66t-46.5 -67z" />
<glyph unicode="&#x152;" horiz-adv-x="787" d="M223 49q30 0 53.5 7t48.5 26t43 61t27 105l26 188q7 39 4.5 68t-6 50t-15 35t-21 22.5t-25 12.5t-27.5 5.5t-27 1.5q-31 0 -53 -5.5t-47.5 -22.5t-43 -56.5t-26.5 -100.5l-29 -208q-8 -38 -5 -66.5t5.5 -48.5t14 -33.5t20.5 -21.5t25.5 -12.5t28.5 -5.5t29 -1zM215 -5 q-18 0 -31.5 0.5t-30.5 3.5t-30 8t-27 13.5t-23.5 21t-17.5 30.5t-11.5 40.5t-3 53t5.5 67.5l31 218q9 64 29 110t41.5 69.5t53.5 36.5t55 15.5t56 2.5q95 0 135 -64l8 59h340q4 0 4 -4l-7 -46q0 -4 -4 -4h-283l-36 -253h244q4 0 4 -4l-7 -46q0 -4 -4 -4h-244l-38 -265h283 q4 0 4 -3l-7 -47q0 -4 -4 -4h-340l8 59q-17 -18 -30.5 -28.5t-47 -23t-75.5 -12.5z" />
<glyph unicode="&#x153;" horiz-adv-x="696" d="M179 47q24 0 41 4.5t37 19t33.5 48t20.5 85.5l11 78q8 41 3.5 68t-10.5 43t-21 24.5t-27 10.5t-30 2q-26 0 -43 -4t-37.5 -18.5t-34 -47t-20.5 -83.5l-10 -73q-5 -51 -4 -82t15.5 -47.5t31 -22t44.5 -5.5zM374 262h218q15 102 -6.5 135t-74.5 33q-59 0 -90.5 -32 t-46.5 -136zM171 -5q-25 0 -43 2t-38 9.5t-30.5 21t-20.5 36.5t-8.5 56t5.5 80l12 82q8 53 23 91t32.5 59t43 32.5t46.5 14.5t51 3q94 0 122 -75q26 36 59 55.5t93 19.5q19 0 33 -1.5t31.5 -6t28 -13.5t22.5 -24.5t15 -37.5t5.5 -53.5t-5.5 -73.5l-8 -56h-272 q-11 -100 10 -134.5t89 -34.5q27 0 57.5 4t47.5 7.5t19 4.5q3 1 4 -3l6 -37q0 -3 -3 -5q-4 -2 -18 -6.5t-49.5 -10.5t-72.5 -6q-59 0 -91.5 17t-47.5 60q-48 -77 -148 -77z" />
<glyph unicode="&#x154;" horiz-adv-x="511" d="M89 0h-51q-3 0 -3 4l95 676h194q15 0 25 -0.5t24.5 -1.5t24.5 -3.5t22.5 -6.5t20.5 -11t16.5 -16t13.5 -21.5t8 -28t3 -36t-4 -44.5l-8 -55q-19 -134 -120 -162l76 -290q2 -4 -2 -4h-57q-4 0 -5 4l-70 282h-160l-40 -282q0 -4 -3 -4zM140 340h137q25 0 42.5 3.5t38.5 14 t35 36t20 63.5l8 55q6 39 0 63.5t-23.5 34.5t-34.5 13t-44 3h-139zM311 765q-4 -4 -7 -4h-40q-4 0 0 4l77 134q3 4 6 4h54q5 0 1 -4z" />
<glyph unicode="&#x155;" horiz-adv-x="332" d="M37 0q-3 0 -3 4l66 469q0 4 4 4h48q3 0 2 -4l-3 -25q61 34 102 34q46 0 72 -13q3 -1 1 -5q-1 -1 -8.5 -18t-7.5 -18q-2 -4 -4 -3q-16 8 -64 8q-15 0 -40 -9.5t-42 -19.5l-17 -9l-55 -391q0 -4 -3 -4h-48zM197 562q-2 -4 -7 -4h-40q-2 0 0 4l78 134q3 4 5 4h54q4 0 2 -4z " />
<glyph unicode="&#x156;" horiz-adv-x="511" d="M89 0h-51q-3 0 -3 4l95 676h194q15 0 25 -0.5t24.5 -1.5t24.5 -3.5t22.5 -6.5t20.5 -11t16.5 -16t13.5 -21.5t8 -28t3 -36t-4 -44.5l-8 -55q-19 -134 -120 -162l76 -290q2 -4 -2 -4h-57q-4 0 -5 4l-70 282h-160l-40 -282q0 -4 -3 -4zM140 340h137q25 0 42.5 3.5t38.5 14 t35 36t20 63.5l8 55q6 39 0 63.5t-23.5 34.5t-34.5 13t-44 3h-139zM164 -248q-5 -5 -5 3l21 146q0 4 5 4h47q3 0 3 -4l-14 -100q0 -1 -4 -5z" />
<glyph unicode="&#x157;" horiz-adv-x="332" d="M37 0q-3 0 -3 4l66 469q0 4 4 4h48q3 0 2 -4l-3 -25q61 34 102 34q46 0 72 -13q3 -1 1 -5q-1 -1 -8.5 -18t-7.5 -18q-2 -4 -4 -3q-16 8 -64 8q-15 0 -40 -9.5t-42 -19.5l-17 -9l-55 -391q0 -4 -3 -4h-48zM81 -248q-5 -5 -5 3l21 146q0 4 5 4h47q3 0 3 -4l-14 -100 q0 -1 -4 -5z" />
<glyph unicode="&#x158;" horiz-adv-x="511" d="M140 340h137q25 0 42.5 3.5t38.5 14t35 36t20 63.5l8 55q6 39 0 63.5t-23.5 34.5t-34.5 13t-44 3h-139zM89 0h-51q-3 0 -3 4l95 676h194q15 0 25 -0.5t24.5 -1.5t24.5 -3.5t22.5 -6.5t20.5 -11t16.5 -16t13.5 -21.5t8 -28t3 -36t-4 -44.5l-8 -55q-19 -134 -120 -162 l76 -290q2 -4 -2 -4h-57q-4 0 -5 4l-70 282h-160l-40 -282q0 -4 -3 -4zM388 903h42q4 0 1 -4l-98 -134q-4 -4 -5 -4h-39q-4 0 -6 4q-8 21 -30 66t-31 69q0 3 2 3h43q1 0 4 -4l42 -89h5q61 86 63 89q3 4 7 4z" />
<glyph unicode="&#x159;" horiz-adv-x="332" d="M37 0q-3 0 -3 4l66 469q0 4 4 4h48q3 0 2 -4l-3 -25q61 34 102 34q46 0 72 -13q3 -1 1 -5q-1 -1 -8.5 -18t-7.5 -18q-2 -4 -4 -3q-16 8 -64 8q-15 0 -40 -9.5t-42 -19.5l-17 -9l-55 -391q0 -4 -3 -4h-48zM286 700h42q4 0 1 -4l-97 -134q-4 -4 -6 -4h-39q-2 0 -6 4 q-8 21 -29.5 66t-30.5 69q-1 3 1 3h43q2 0 5 -4l41 -89h5q62 86 64 89q3 4 6 4z" />
<glyph unicode="&#x15a;" horiz-adv-x="496" d="M205 -10q-104 0 -174 35q-2 1 0 5l20 42q2 3 4 2q5 -3 22.5 -9t58 -14t79.5 -8q31 0 52 3t44 13t37 32t19 57l10 69q7 49 -22 70.5t-95 27.5q-109 10 -143 46t-23 113l10 70q21 146 201 146q46 0 84 -7t52 -13t17 -9q4 -2 2 -5l-22 -39q-2 -3 -4 -2q-3 2 -18.5 6t-50 9.5 t-67.5 5.5q-57 0 -92.5 -19t-43.5 -74l-10 -69q-7 -49 20 -71.5t95 -29.5q106 -10 143 -43.5t26 -112.5l-10 -71q-7 -51 -29 -84.5t-56.5 -48t-64.5 -19t-71 -4.5zM312 765q-2 -4 -7 -4h-40q-2 0 0 4l78 134q3 4 5 4h54q4 0 2 -4z" />
<glyph unicode="&#x15b;" horiz-adv-x="401" d="M164 -7q-106 0 -144 19q-3 2 -2 5l17 39q1 3 5 3q2 -1 18.5 -4.5t49 -7.5t63.5 -4q35 0 52.5 3t34.5 19t22 49l5 32q4 26 -15.5 43.5t-80.5 27.5q-73 11 -100.5 37t-20.5 79l5 39q14 112 157 112q22 0 43 -2t35.5 -5t25 -6t16.5 -5l6 -2q1 0 1 -2q0 -1 -8 -21l-8 -20 q-1 0 -1 -0.5t-1 -0.5l-7 2q-8 1 -20 3.5t-26 5t-31.5 4t-32.5 1.5q-87 0 -96 -66l-5 -35q-4 -28 14.5 -42.5t70.5 -22.5q73 -10 107.5 -37t25.5 -80l-6 -37q-5 -34 -17 -57.5t-26 -36t-36.5 -19.5t-41 -8.5t-48.5 -1.5zM235 562q-2 -4 -7 -4h-40q-2 0 0 4l78 134q3 4 5 4 h54q4 0 2 -4z" />
<glyph unicode="&#x15c;" horiz-adv-x="496" d="M205 -10q-104 0 -174 35q-2 1 0 5l20 42q2 3 4 2q5 -3 22.5 -9t58 -14t79.5 -8q31 0 52 3t44 13t37 32t19 57l10 69q7 49 -22 70.5t-95 27.5q-109 10 -143 46t-23 113l10 70q21 146 201 146q46 0 84 -7t52 -13t17 -9q4 -2 2 -5l-22 -39q-2 -3 -4 -2q-3 2 -18.5 6t-50 9.5 t-67.5 5.5q-57 0 -92.5 -19t-43.5 -74l-10 -69q-7 -49 20 -71.5t95 -29.5q106 -10 143 -43.5t26 -112.5l-10 -71q-7 -51 -29 -84.5t-56.5 -48t-64.5 -19t-71 -4.5zM255 761h-40q-2 0 0 4q14 22 44.5 66.5t43.5 67.5q2 4 6 4h53q5 0 6 -4q1 -3 25.5 -68t25.5 -66q1 -4 -3 -4 h-40q-2 0 -4 4l-40 90h-4q-65 -87 -67 -90q-2 -4 -6 -4z" />
<glyph unicode="&#x15d;" horiz-adv-x="401" d="M164 -7q-106 0 -144 19q-3 2 -2 5l17 39q1 3 5 3q2 -1 18.5 -4.5t49 -7.5t63.5 -4q35 0 52.5 3t34.5 19t22 49l5 32q4 26 -15.5 43.5t-80.5 27.5q-73 11 -100.5 37t-20.5 79l5 39q14 112 157 112q22 0 43 -2t35.5 -5t25 -6t16.5 -5l6 -2q1 0 1 -2q0 -1 -8 -21l-8 -20 q-1 0 -1 -0.5t-1 -0.5l-7 2q-8 1 -20 3.5t-26 5t-31.5 4t-32.5 1.5q-87 0 -96 -66l-5 -35q-4 -28 14.5 -42.5t70.5 -22.5q73 -10 107.5 -37t25.5 -80l-6 -37q-5 -34 -17 -57.5t-26 -36t-36.5 -19.5t-41 -8.5t-48.5 -1.5zM180 558h-40q-2 0 0 4q14 22 44 67t44 67q2 4 6 4h53 q5 0 6 -4q1 -3 25.5 -68t25.5 -66q1 -4 -3 -4h-40q-2 0 -4 4l-40 90h-4q-65 -87 -67 -90q-2 -4 -6 -4z" />
<glyph unicode="&#x15e;" horiz-adv-x="496" d="M191 -145h-53q-4 0 -1 4l68 131q-104 0 -174 35q-2 1 0 5l20 42q2 3 4 2q5 -3 22.5 -9t58 -14t79.5 -8q31 0 52 3t44 13t37 32t19 57l10 69q7 49 -22 70.5t-95 27.5q-109 10 -143 46t-23 113l10 70q21 146 201 146q46 0 84 -7t52 -13t17 -9q4 -2 2 -5l-22 -39 q-2 -3 -4 -2q-3 2 -18.5 6t-50 9.5t-67.5 5.5q-57 0 -92.5 -19t-43.5 -74l-10 -69q-7 -49 20 -71.5t95 -29.5q106 -10 143 -43.5t26 -112.5l-10 -71q-20 -142 -171 -154l-58 -133q-2 -4 -6 -4z" />
<glyph unicode="&#x15f;" horiz-adv-x="401" d="M142 -145h-53q-3 0 -2 4l70 134q-101 1 -137 19q-3 2 -2 5l17 39q1 3 5 3q2 -1 18.5 -4.5t49 -7.5t63.5 -4q35 0 52.5 3t34.5 19t22 49l5 32q4 26 -15.5 43.5t-80.5 27.5q-73 11 -100.5 37t-20.5 79l5 39q14 112 157 112q22 0 43 -2t35.5 -5t25 -6t16.5 -5l6 -2q1 0 1 -2 q0 -1 -8 -21l-8 -20q-1 0 -1 -0.5t-1 -0.5l-7 2q-8 1 -20 3.5t-26 5t-31.5 4t-32.5 1.5q-87 0 -96 -66l-5 -35q-4 -28 14.5 -42.5t70.5 -22.5q72 -10 105.5 -37t26.5 -80l-5 -37q-9 -67 -40.5 -92.5t-86.5 -29.5l-59 -135q-2 -4 -5 -4z" />
<glyph unicode="&#x160;" horiz-adv-x="496" d="M205 -10q-104 0 -174 35q-2 1 0 5l20 42q2 3 4 2q5 -3 22.5 -9t58 -14t79.5 -8q31 0 52 3t44 13t37 32t19 57l10 69q7 49 -22 70.5t-95 27.5q-109 10 -143 46t-23 113l10 70q21 146 201 146q46 0 84 -7t52 -13t17 -9q4 -2 2 -5l-22 -39q-2 -3 -4 -2q-3 2 -18.5 6t-50 9.5 t-67.5 5.5q-57 0 -92.5 -19t-43.5 -74l-10 -69q-7 -49 20 -71.5t95 -29.5q106 -10 143 -43.5t26 -112.5l-10 -71q-7 -51 -29 -84.5t-56.5 -48t-64.5 -19t-71 -4.5zM395 903h42q4 0 1 -4l-97 -134q-4 -4 -6 -4h-39q-2 0 -6 4q-8 21 -29.5 66t-30.5 69q-2 3 1 3h43q2 0 5 -4 l41 -89h5q62 86 64 89q3 4 6 4z" />
<glyph unicode="&#x161;" horiz-adv-x="401" d="M164 -7q-106 0 -144 19q-3 2 -2 5l17 39q1 3 5 3q2 -1 18.5 -4.5t49 -7.5t63.5 -4q35 0 52.5 3t34.5 19t22 49l5 32q4 26 -15.5 43.5t-80.5 27.5q-73 11 -100.5 37t-20.5 79l5 39q14 112 157 112q22 0 43 -2t35.5 -5t25 -6t16.5 -5l6 -2q1 0 1 -2q0 -1 -8 -21l-8 -20 q-1 0 -1 -0.5t-1 -0.5l-7 2q-8 1 -20 3.5t-26 5t-31.5 4t-32.5 1.5q-87 0 -96 -66l-5 -35q-4 -28 14.5 -42.5t70.5 -22.5q73 -10 107.5 -37t25.5 -80l-6 -37q-5 -34 -17 -57.5t-26 -36t-36.5 -19.5t-41 -8.5t-48.5 -1.5zM320 700h42q5 0 2 -4l-98 -134q-4 -4 -6 -4h-39 q-2 0 -6 4q-8 21 -29.5 66t-30.5 69q-1 3 1 3h43q2 0 5 -4l41 -89h5q62 86 64 89q3 4 6 4z" />
<glyph unicode="&#x164;" horiz-adv-x="440" d="M155 0q-4 0 -3 4l87 622h-169q-3 0 -3 4l7 46q0 4 3 4h397q4 0 4 -4l-7 -46q0 -4 -4 -4h-171l-87 -622q-1 -4 -3 -4h-51zM368 903h42q4 0 1 -4l-98 -134q-4 -4 -5 -4h-39q-3 0 -7 4q-8 22 -29.5 67t-30.5 68q-2 3 2 3h43q1 0 4 -4l42 -89h5q61 86 63 89q3 4 7 4z" />
<glyph unicode="&#x165;" horiz-adv-x="333" d="M136 -5q-14 0 -22 0.5t-18.5 3t-16.5 7.5t-11.5 14.5t-7.5 22.5t-2 33t4 45l43 308h-46q-2 0 -2 4l5 40q0 4 4 4h46l22 159q0 4 4 4h46q3 0 3 -4l-22 -159h79q3 0 3 -4l-5 -40q-1 -4 -5 -4h-79l-43 -309q-11 -75 26 -75q6 0 16.5 0.5t18.5 0.5l8 1q3 0 3 -3q0 -2 1 -20 t2 -19q1 -3 -4 -5q-15 -5 -50 -5zM282 527q-5 -5 -5 3l21 146q0 4 5 4h47q3 0 3 -4l-14 -100q0 -1 -4 -5z" />
<glyph unicode="&#x168;" horiz-adv-x="529" d="M204 -10q-101 0 -130 61.5t-8 215.5l58 409q0 4 3 4h51q3 0 3 -4l-57 -403q-21 -121 -4 -175t92 -54h41q76 0 103.5 48t46.5 181l57 403q0 4 3 4h50q4 0 4 -4l-58 -409q-11 -76 -24.5 -124t-37.5 -85t-61 -52.5t-92 -15.5h-40zM236 803q-3 0 -3 5l5 30q0 6 4 10l7 7 q7 7 13.5 12.5t18 10.5t22.5 5q21 0 47 -19t43 -19q18 0 37 17.5t21 17.5t2 -4l-4 -31q-2 -7 -5 -11q-26 -35 -62 -35q-20 0 -45.5 19.5t-41.5 19.5q-18 0 -38 -17.5t-21 -17.5z" />
<glyph unicode="&#x169;" horiz-adv-x="447" d="M400 477q3 0 3 -4l-66 -469q0 -4 -4 -4h-47q-3 0 -2 4l2 20q-83 -31 -124 -31q-30 0 -48.5 4t-39 17.5t-27 46.5t0.5 85l45 327q1 4 4 4h48q3 0 3 -4l-46 -325q-10 -66 8.5 -85.5t62.5 -19.5q16 0 46.5 8t52.5 16l22 8l55 398q1 4 4 4h47zM166 600q-3 0 -2 5l4 30 q0 5 5 10l7 7q7 7 13.5 12.5t18 10.5t22.5 5q21 0 46.5 -19t42.5 -19q18 0 37 17.5t21 17.5q3 0 3 -4l-5 -31q0 -6 -4 -11q-26 -35 -62 -35q-20 0 -46 19.5t-42 19.5q-18 0 -38 -17.5t-21 -17.5z" />
<glyph unicode="&#x16a;" horiz-adv-x="529" d="M204 -10q-101 0 -130 61.5t-8 215.5l58 409q0 4 3 4h51q3 0 3 -4l-57 -403q-21 -121 -4 -175t92 -54h41q76 0 103.5 48t46.5 181l57 403q0 4 3 4h50q4 0 4 -4l-58 -409q-11 -76 -24.5 -124t-37.5 -85t-61 -52.5t-92 -15.5h-40zM447 821h-215q-2 0 -2 4l6 42q0 4 3 4h215 q3 0 3 -4l-6 -42q0 -4 -4 -4z" />
<glyph unicode="&#x16b;" horiz-adv-x="447" d="M400 477q3 0 3 -4l-66 -469q0 -4 -4 -4h-47q-3 0 -2 4l2 20q-83 -31 -124 -31q-30 0 -48.5 4t-39 17.5t-27 46.5t0.5 85l45 327q1 4 4 4h48q3 0 3 -4l-46 -325q-10 -66 8.5 -85.5t62.5 -19.5q16 0 46.5 8t52.5 16l22 8l55 398q1 4 4 4h47zM378 618h-215q-3 0 -3 4l6 42 q0 4 4 4h215q3 0 2 -4l-6 -42q0 -4 -3 -4z" />
<glyph unicode="&#x16c;" horiz-adv-x="529" d="M204 -10q-101 0 -130 61.5t-8 215.5l58 409q0 4 3 4h51q3 0 3 -4l-57 -403q-21 -121 -4 -175t92 -54h41q76 0 103.5 48t46.5 181l57 403q0 4 3 4h50q4 0 4 -4l-58 -409q-11 -76 -24.5 -124t-37.5 -85t-61 -52.5t-92 -15.5h-40zM335 773q-93 0 -93 89q0 26 6 26h24 q5 0 5 -5q4 -40 17 -53t47 -13q31 0 47 13.5t32 52.5q2 5 5 5h28q3 0 2 -5q-23 -110 -120 -110z" />
<glyph unicode="&#x16d;" horiz-adv-x="447" d="M400 477q3 0 3 -4l-66 -469q0 -4 -4 -4h-47q-3 0 -2 4l2 20q-83 -31 -124 -31q-30 0 -48.5 4t-39 17.5t-27 46.5t0.5 85l45 327q1 4 4 4h48q3 0 3 -4l-46 -325q-10 -66 8.5 -85.5t62.5 -19.5q16 0 46.5 8t52.5 16l22 8l55 398q1 4 4 4h47zM266 570q-92 0 -92 89 q0 26 5 26h24q6 0 6 -5q4 -40 16.5 -53t46.5 -13q31 0 47 13.5t32 52.5q2 5 5 5h28q3 0 2 -5q-23 -110 -120 -110z" />
<glyph unicode="&#x16e;" horiz-adv-x="529" d="M204 -10q-101 0 -130 61.5t-8 215.5l58 409q0 4 3 4h51q3 0 3 -4l-57 -403q-21 -121 -4 -175t92 -54h41q76 0 103.5 48t46.5 181l57 403q0 4 3 4h50q4 0 4 -4l-58 -409q-11 -76 -24.5 -124t-37.5 -85t-61 -52.5t-92 -15.5h-40zM331 746q-35 0 -53 15t-13 62l2 20 q8 75 89 75q15 0 25.5 -2t21.5 -9t15 -23t1 -41l-2 -20q-3 -25 -11.5 -41.5t-22 -23.5t-25 -9.5t-27.5 -2.5zM335 778q21 0 33.5 9.5t17.5 38.5l2 13q4 28 -6 37.5t-31 9.5q-46 0 -53 -47l-2 -13q-4 -29 6.5 -38.5t32.5 -9.5z" />
<glyph unicode="&#x16f;" horiz-adv-x="447" d="M400 477q3 0 3 -4l-66 -469q0 -4 -4 -4h-47q-3 0 -2 4l2 20q-83 -31 -124 -31q-30 0 -48.5 4t-39 17.5t-27 46.5t0.5 85l45 327q1 4 4 4h48q3 0 3 -4l-46 -325q-10 -66 8.5 -85.5t62.5 -19.5q16 0 46.5 8t52.5 16l22 8l55 398q1 4 4 4h47zM261 543q-16 0 -27.5 2.5 t-22.5 10t-15.5 23.5t-0.5 41l3 20q7 44 30 59.5t58 15.5q15 0 26 -2t22 -9t15.5 -23t0.5 -41l-3 -20q-5 -33 -20 -51t-29.5 -22t-36.5 -4zM266 575q21 0 33.5 9.5t16.5 38.5l2 13q4 28 -5.5 37.5t-30.5 9.5q-49 0 -54 -47l-1 -13q-3 -29 7 -38.5t32 -9.5z" />
<glyph unicode="&#x170;" horiz-adv-x="529" d="M204 -10q-101 0 -130 61.5t-8 215.5l58 409q0 4 3 4h51q3 0 3 -4l-57 -403q-21 -121 -4 -175t92 -54h41q76 0 103.5 48t46.5 181l57 403q0 4 3 4h50q4 0 4 -4l-58 -409q-11 -76 -24.5 -124t-37.5 -85t-61 -52.5t-92 -15.5h-40zM290 766q-3 -4 -6 -4h-40q-3 0 0 4l38 66 q38 65 39 67q1 4 6 4h54q4 0 1 -4q0 -1 -22.5 -33.5t-45.5 -65.5t-24 -34zM399 766q-3 -4 -6 -4h-40q-2 0 -2 2t39.5 68t39.5 67q1 4 6 4h53q5 0 1 -4q-7 -7 -91 -133z" />
<glyph unicode="&#x171;" horiz-adv-x="447" d="M400 477q3 0 3 -4l-66 -469q0 -4 -4 -4h-47q-3 0 -2 4l2 20q-83 -31 -124 -31q-30 0 -48.5 4t-39 17.5t-27 46.5t0.5 85l45 327q1 4 4 4h48q3 0 3 -4l-46 -325q-10 -66 8.5 -85.5t62.5 -19.5q16 0 46.5 8t52.5 16l22 8l55 398q1 4 4 4h47zM222 563q-3 -4 -6 -4h-40 q-4 0 -1 4l39 65q38 66 39 68q1 4 5 4h54q5 0 2 -4q0 -1 -22.5 -33.5t-45.5 -65.5t-24 -34zM330 563q-3 -4 -5 -4h-40q-2 0 -2 2t39.5 68t39.5 67q1 4 5 4h53q6 0 2 -4q-10 -10 -92 -133z" />
<glyph unicode="&#x172;" horiz-adv-x="529" d="M184 -178q-55 0 -55 51q0 37 18 63.5t52 53.5q-97 1 -125 63t-7 214l58 409q0 4 3 4h51q3 0 3 -4l-57 -403q-21 -121 -4 -175t92 -54h41q76 0 103.5 48t46.5 181l56 403q1 4 4 4h50q4 0 3 -4l-57 -409q-21 -149 -63 -211.5t-142 -65.5q-43 -34 -60.5 -56.5t-17.5 -45.5 q0 -12 5 -15.5t17 -3.5q11 0 26 10q1 1 3 0.5t2 -2.5q1 -1 3 -6.5t4.5 -11t2.5 -6.5q2 -6 -1 -9q-27 -22 -55 -22z" />
<glyph unicode="&#x173;" horiz-adv-x="447" d="M256 -172q-55 0 -55 51q0 12 2 23t8 22t9.5 17.5t14 18t14 15t17.5 16.5t17 15l1 1l2 17q-83 -31 -124 -31q-30 0 -48.5 4t-39 17.5t-27 46.5t0.5 85l45 327q1 4 4 4h48q3 0 3 -4l-46 -325q-10 -66 8.5 -85.5t62.5 -19.5q16 0 46.5 8t52.5 16l22 8l55 398q1 4 4 4h47 q3 0 3 -4l-66 -469q0 -4 -4 -4h-1q-46 -36 -65 -59.5t-19 -46.5q0 -19 22 -19q12 0 27 10q4 2 5 -2q0 -1 4 -12t5 -12q2 -6 -1 -9q-28 -22 -54 -22z" />
<glyph unicode="&#x174;" horiz-adv-x="686" d="M110 0q-3 0 -3 4q0 2 -11 336.5t-12 335.5q-1 4 2 4h53q3 0 4 -4l14 -578h15q179 434 180 436q2 3 4 3h46q3 0 4 -3l55 -436h16q177 575 178 578q2 4 5 4h52q3 0 2 -4l-212 -672q-1 -4 -3 -4h-73q-2 0 -3 3l-55 421h-9q-172 -417 -173 -420q-2 -4 -4 -4h-72zM350 761h-40 q-3 0 -1 4q13 22 44 66.5t44 67.5q2 4 6 4h53q5 0 6 -4q1 -3 25.5 -68t25.5 -66q1 -4 -2 -4h-40q-3 0 -5 4l-40 90h-4q-65 -87 -67 -90q-2 -4 -5 -4z" />
<glyph unicode="&#x175;" horiz-adv-x="614" d="M118 0q-3 0 -3 4l-43 469q0 4 2 4h50q4 0 5 -4l29 -376h8q131 283 131 286q0 4 3 4h43q4 0 4 -4l52 -286h9q129 373 131 376q2 4 5 4h51q2 0 1 -4q-1 -2 -87.5 -235t-86.5 -234q-3 -4 -5 -4h-49q-2 0 -3 4l-51 297h-9q-133 -295 -134 -297q-3 -4 -5 -4h-48zM286 558h-40 q-3 0 -1 4q13 22 43.5 67t44.5 67q2 4 6 4h53q5 0 6 -4q1 -3 25.5 -68t25.5 -66q1 -4 -2 -4h-40q-3 0 -5 4l-40 90h-4q-65 -87 -67 -90q-2 -4 -5 -4z" />
<glyph unicode="&#x176;" horiz-adv-x="434" d="M153 0q-3 0 -3 4l39 272q-117 397 -118 400q-2 4 2 4h57q1 0 4 -4l91 -327h5q181 324 183 327q3 4 4 4h56q5 0 2 -4l-229 -400l-39 -272q0 -4 -3 -4h-51zM224 761h-40q-3 0 -1 4q13 22 44 66.5t44 67.5q2 4 7 4h53q4 0 5 -4q1 -3 25.5 -68t25.5 -66q1 -4 -2 -4h-40 q-3 0 -5 4l-40 90h-4q-65 -87 -67 -90q-2 -4 -5 -4z" />
<glyph unicode="&#x177;" horiz-adv-x="393" d="M-7 -180q-3 0 -3 3q0 2 6 22.5t6 21.5q0 4 5 4h20q22 0 39 16t43 74l21 49q-78 460 -79 463q-1 4 3 4h51q2 0 3 -4l60 -377h9q163 374 164 377q1 4 5 4h50q2 0 1 -4l-237 -519q-23 -49 -39.5 -77t-34 -40.5t-28.5 -14.5t-35 -2h-30zM177 558h-40q-2 0 0 4q14 22 44.5 67 t43.5 67q2 4 6 4h53q5 0 6 -4q1 -3 25.5 -68t25.5 -66q1 -4 -3 -4h-40q-2 0 -4 4l-40 90h-4q-65 -87 -67 -90q-2 -4 -6 -4z" />
<glyph unicode="&#x178;" horiz-adv-x="434" d="M153 0q-3 0 -3 4l39 272q-117 397 -118 400q-2 4 2 4h57q1 0 4 -4l91 -327h5q181 324 183 327q3 4 4 4h56q5 0 2 -4l-229 -400l-39 -272q0 -4 -3 -4h-51zM186 805q-4 0 -4 4l10 67q0 4 4 4h48q3 0 3 -4l-10 -67q0 -4 -3 -4h-48zM351 805q-3 0 -3 4l10 67q0 4 3 4h48 q3 0 3 -4l-10 -67q0 -4 -3 -4h-48z" />
<glyph unicode="&#x179;" horiz-adv-x="450" d="M6 0q-2 0 -2 2l8 56q0 2 2 4l374 555l1 8h-284q-3 0 -3 4l7 46q0 5 4 5h346q4 0 3 -5l-7 -51q-2 -6 -4 -10l-372 -552l-1 -8h293q3 0 3 -4l-6 -46q-1 -4 -4 -4h-358zM298 765q-4 -4 -7 -4h-40q-3 0 -1 4l78 134q3 4 6 4h54q5 0 1 -4z" />
<glyph unicode="&#x17a;" horiz-adv-x="390" d="M11 0q-3 0 -3 4l7 44q0 3 4 8l276 362l1 7h-215q-3 0 -3 4l6 44q0 4 4 4h280q3 0 3 -4l-6 -43q0 -3 -4 -7l-276 -364l-1 -8h225q3 0 2 -4l-6 -43q0 -4 -3 -4h-291zM238 562q-2 -4 -7 -4h-40q-2 0 0 4l78 134q3 4 5 4h54q4 0 2 -4z" />
<glyph unicode="&#x17b;" horiz-adv-x="450" d="M6 0q-2 0 -2 2l8 56q0 2 2 4l374 555l1 8h-284q-3 0 -3 4l7 46q0 5 4 5h346q4 0 3 -5l-7 -51q-2 -6 -4 -10l-372 -552l-1 -8h293q3 0 3 -4l-6 -46q-1 -4 -4 -4h-358zM280 806q-3 0 -3 4l10 69q0 4 4 4h54q3 0 3 -4l-10 -69q0 -4 -4 -4h-54z" />
<glyph unicode="&#x17c;" horiz-adv-x="390" d="M11 0q-3 0 -3 4l7 44q0 3 4 8l276 362l1 7h-215q-3 0 -3 4l6 44q0 4 4 4h280q3 0 3 -4l-6 -43q0 -3 -4 -7l-276 -364l-1 -8h225q3 0 2 -4l-6 -43q0 -4 -3 -4h-291zM218 603q-4 0 -4 4l10 69q0 4 4 4h54q3 0 3 -4l-10 -69q0 -4 -3 -4h-54z" />
<glyph unicode="&#x17d;" horiz-adv-x="450" d="M6 0q-2 0 -2 2l8 56q0 2 2 4l374 555l1 8h-284q-3 0 -3 4l7 46q0 5 4 5h346q4 0 3 -5l-7 -51q-2 -6 -4 -10l-372 -552l-1 -8h293q3 0 3 -4l-6 -46q-1 -4 -4 -4h-358zM373 903h42q3 0 2 -4l-99 -134q-4 -4 -5 -4h-39q-4 0 -6 4q-8 21 -30 66t-31 69q-1 3 2 3h43q1 0 4 -4 l42 -89h5q61 86 63 89q3 4 7 4z" />
<glyph unicode="&#x17e;" horiz-adv-x="390" d="M11 0q-3 0 -3 4l7 44q0 3 4 8l276 362l1 7h-215q-3 0 -3 4l6 44q0 4 4 4h280q3 0 3 -4l-6 -43q0 -3 -4 -7l-276 -364l-1 -8h225q3 0 2 -4l-6 -43q0 -4 -3 -4h-291zM314 700h42q4 0 1 -4l-97 -134q-4 -4 -6 -4h-39q-2 0 -6 4q-8 21 -29.5 66t-30.5 69q-1 3 1 3h43 q2 0 5 -4l41 -89h5q62 86 64 89q3 4 6 4z" />
<glyph unicode="&#x192;" horiz-adv-x="387" d="M60 -185q-8 0 -20 1.5t-20.5 3t-9.5 1.5q-2 0 -2 3q0 2 6.5 20.5t6.5 19.5q0 3 4 3q1 0 9 -0.5t19 -1t18 -0.5q35 0 46 75l59 418h-61q-3 0 -3 4l5 40q0 4 5 4h60l22 153q11 76 40 101t73 25q5 0 17 -1.5t22 -3t11 -1.5q2 0 2 -3q0 -2 -7 -21l-6 -19q0 -3 -4 -3l-18 1 q-17 1 -28 1q-36 0 -47 -75l-22 -154h64q3 0 3 -4l-5 -40q0 -4 -5 -4h-63l-59 -417q-10 -74 -38.5 -100t-73.5 -26z" />
<glyph unicode="&#x218;" horiz-adv-x="496" d="M205 -10q-104 0 -174 35q-2 1 0 5l20 42q2 3 4 2q5 -3 22.5 -9t58 -14t79.5 -8q31 0 52 3t44 13t37 32t19 57l10 69q7 49 -22 70.5t-95 27.5q-109 10 -143 46t-23 113l10 70q21 146 201 146q46 0 84 -7t52 -13t17 -9q4 -2 2 -5l-22 -39q-2 -3 -4 -2q-3 2 -18.5 6t-50 9.5 t-67.5 5.5q-57 0 -92.5 -19t-43.5 -74l-10 -69q-7 -49 20 -71.5t95 -29.5q106 -10 143 -43.5t26 -112.5l-10 -71q-7 -51 -29 -84.5t-56.5 -48t-64.5 -19t-71 -4.5zM158 -248q-4 -4 -4 3l20 146q1 4 5 4h47q3 0 3 -4l-14 -100q0 -2 -3 -5z" />
<glyph unicode="&#x219;" horiz-adv-x="401" d="M164 -7q-106 0 -144 19q-3 2 -2 5l17 39q1 3 5 3q2 -1 18.5 -4.5t49 -7.5t63.5 -4q35 0 52.5 3t34.5 19t22 49l5 32q4 26 -15.5 43.5t-80.5 27.5q-73 11 -100.5 37t-20.5 79l5 39q14 112 157 112q22 0 43 -2t35.5 -5t25 -6t16.5 -5l6 -2q1 0 1 -2q0 -1 -8 -21l-8 -20 q-1 0 -1 -0.5t-1 -0.5l-7 2q-8 1 -20 3.5t-26 5t-31.5 4t-32.5 1.5q-87 0 -96 -66l-5 -35q-4 -28 14.5 -42.5t70.5 -22.5q73 -10 107.5 -37t25.5 -80l-6 -37q-5 -34 -17 -57.5t-26 -36t-36.5 -19.5t-41 -8.5t-48.5 -1.5zM117 -248q-4 -1 -5 3l20 146q1 4 5 4h47q3 0 3 -4 l-14 -100q0 -2 -4 -5z" />
<glyph unicode="&#x21a;" horiz-adv-x="440" d="M155 0q-4 0 -3 4l87 622h-169q-3 0 -3 4l7 46q0 4 3 4h397q4 0 4 -4l-7 -46q0 -4 -4 -4h-171l-87 -622q-1 -4 -3 -4h-51zM122 -248q-2 -2 -3.5 -0.5t-0.5 3.5l20 146q1 4 5 4h47q3 0 3 -4l-14 -100q0 -1 -4 -5z" />
<glyph unicode="&#x21b;" horiz-adv-x="263" d="M136 -5q-14 0 -22 0.5t-18.5 3t-16.5 7.5t-11.5 14.5t-7.5 22.5t-2 33t4 45l43 308h-46q-3 0 -2 4l5 40q0 4 4 4h46l22 159q0 4 4 4h46q3 0 3 -4l-22 -159h79q3 0 3 -4l-5 -40q-1 -4 -5 -4h-79l-43 -309q-11 -75 26 -75q6 0 16 0.5t17.5 1t8.5 0.5q4 0 4 -3q0 -2 0.5 -20 t1.5 -19q1 -3 -3 -5q-15 -5 -50 -5zM47 -248q-5 -5 -5 3l21 146q0 4 5 4h47q3 0 3 -4l-14 -100q0 -1 -4 -5z" />
<glyph unicode="&#x2c6;" d="M155 558h-40q-2 0 0 4q13 23 43 67.5t44 66.5q2 4 7 4h53q4 0 5 -4q1 -2 26 -67.5t26 -66.5q1 -4 -3 -4h-40q-3 0 -5 4l-40 90h-4q-64 -87 -66 -90q-2 -4 -6 -4z" />
<glyph unicode="&#x2c7;" horiz-adv-x="357" d="M297 700h42q4 0 1 -4l-97 -134q-4 -4 -6 -4h-39q-4 0 -6 4q-8 19 -29.5 64.5t-30.5 70.5q-2 3 1 3h43q2 0 5 -4l41 -89h5q62 86 64 89q3 4 6 4z" />
<glyph unicode="&#x2d8;" d="M219 570q-92 0 -92 89q0 26 6 26h24q5 0 5 -5q4 -40 17 -53t47 -13q31 0 47 13.5t32 52.5q2 5 5 5h28q3 0 2 -5q-23 -110 -121 -110z" />
<glyph unicode="&#x2d9;" d="M196 603q-4 0 -4 4l10 69q0 4 5 4h54q2 0 2 -4l-10 -69q0 -4 -3 -4h-54z" />
<glyph unicode="&#x2da;" d="M218 575q21 0 33.5 9.5t16.5 38.5l2 13q4 28 -5.5 37.5t-30.5 9.5q-49 0 -54 -47l-1 -13q-3 -29 7 -38.5t32 -9.5zM213 543q-16 0 -27.5 2.5t-22.5 10t-15.5 23.5t-0.5 41l3 20q7 44 30 59.5t58 15.5q15 0 26 -2t22 -9t15.5 -23t0.5 -41l-3 -20q-5 -33 -20 -51t-29.5 -22 t-36.5 -4z" />
<glyph unicode="&#x2db;" d="M116 -172q-55 0 -55 51q0 40 20.5 67.5t61.5 59.5q5 4 13 4h37q2 0 3 -1.5t0 -3.5t-3 -4q-47 -37 -65.5 -60.5t-18.5 -46.5q0 -12 5 -15.5t17 -3.5q11 0 26 10q4 2 5 -2q1 -1 5 -13l4 -11q2 -6 -1 -9q-28 -22 -54 -22z" />
<glyph unicode="&#x2dc;" d="M119 600q-3 0 -2 5l4 30q0 5 5 10l7 7q7 7 13.5 12.5t18 10.5t22.5 5q21 0 46.5 -19t42.5 -19q18 0 37 17.5t21 17.5q3 0 3 -4l-5 -31q0 -6 -4 -11q-26 -35 -62 -35q-20 0 -46 19.5t-42 19.5q-18 0 -38 -17.5t-21 -17.5z" />
<glyph unicode="&#x2dd;" horiz-adv-x="357" d="M153 563q-3 -4 -6 -4h-40q-2 0 -1 4l38 65q39 66 40 68q1 4 5 4h54q5 0 2 -4q0 -1 -22.5 -33.5t-45.5 -65.5t-24 -34zM261 563q-1 -4 -5 -4h-40q-2 0 -1 4q0 1 37.5 65t40.5 68q1 4 5 4h53q6 0 2 -4q-1 -1 -45.5 -66t-46.5 -67z" />
<glyph unicode="&#x1e80;" horiz-adv-x="686" d="M110 0q-3 0 -3 4q0 2 -11 336.5t-12 335.5q-1 4 2 4h53q3 0 4 -4l14 -578h15q179 434 180 436q2 3 4 3h46q3 0 4 -3l55 -436h16q177 575 178 578q2 4 5 4h52q3 0 2 -4l-212 -672q-1 -4 -3 -4h-73q-2 0 -3 3l-55 421h-9q-172 -417 -173 -420q-2 -4 -4 -4h-72zM415 765 l-55 134q-1 4 1 4h54q4 0 5 -4l41 -134q2 -4 -2 -4h-40q-4 0 -4 4z" />
<glyph unicode="&#x1e81;" horiz-adv-x="614" d="M118 0q-3 0 -3 4l-43 469q0 4 2 4h50q4 0 5 -4l29 -376h8q131 283 131 286q0 4 3 4h43q4 0 4 -4l52 -286h9q129 373 131 376q2 4 5 4h51q2 0 1 -4q-1 -2 -87.5 -235t-86.5 -234q-3 -4 -5 -4h-49q-2 0 -3 4l-51 297h-9q-133 -295 -134 -297q-3 -4 -5 -4h-48zM351 562 l-55 134q-1 4 1 4h54q4 0 5 -4l41 -134q2 -4 -2 -4h-40q-4 0 -4 4z" />
<glyph unicode="&#x1e82;" horiz-adv-x="686" d="M110 0q-3 0 -3 4q0 2 -11 336.5t-12 335.5q-1 4 2 4h53q3 0 4 -4l14 -578h15q179 434 180 436q2 3 4 3h46q3 0 4 -3l55 -436h16q177 575 178 578q2 4 5 4h52q3 0 2 -4l-212 -672q-1 -4 -3 -4h-73q-2 0 -3 3l-55 421h-9q-172 -417 -173 -420q-2 -4 -4 -4h-72zM406 765 q-2 -4 -6 -4h-40q-3 0 -1 4l78 134q3 4 5 4h54q4 0 2 -4z" />
<glyph unicode="&#x1e83;" horiz-adv-x="614" d="M118 0q-3 0 -3 4l-43 469q0 4 2 4h50q4 0 5 -4l29 -376h8q131 283 131 286q0 4 3 4h43q4 0 4 -4l52 -286h9q129 373 131 376q2 4 5 4h51q2 0 1 -4q-1 -2 -87.5 -235t-86.5 -234q-3 -4 -5 -4h-49q-2 0 -3 4l-51 297h-9q-133 -295 -134 -297q-3 -4 -5 -4h-48zM350 562 q-2 -4 -6 -4h-40q-3 0 -1 4l78 134q3 4 5 4h54q4 0 2 -4z" />
<glyph unicode="&#x1e84;" horiz-adv-x="686" d="M110 0q-3 0 -3 4q0 2 -11 336.5t-12 335.5q-1 4 2 4h53q3 0 4 -4l14 -578h15q179 434 180 436q2 3 4 3h46q3 0 4 -3l55 -436h16q177 575 178 578q2 4 5 4h52q3 0 2 -4l-212 -672q-1 -4 -3 -4h-73q-2 0 -3 3l-55 421h-9q-172 -417 -173 -420q-2 -4 -4 -4h-72zM310 808 q-4 0 -3 4l9 67q1 4 5 4h48q2 0 2 -4l-9 -67q-1 -4 -4 -4h-48zM475 808q-3 0 -2 4l9 67q1 4 4 4h48q2 0 2 -4l-9 -67q-1 -4 -4 -4h-48z" />
<glyph unicode="&#x1e85;" horiz-adv-x="614" d="M118 0q-3 0 -3 4l-43 469q0 4 2 4h50q4 0 5 -4l29 -376h8q131 283 131 286q0 4 3 4h43q4 0 4 -4l52 -286h9q129 373 131 376q2 4 5 4h51q2 0 1 -4q-1 -2 -87.5 -235t-86.5 -234q-3 -4 -5 -4h-49q-2 0 -3 4l-51 297h-9q-133 -295 -134 -297q-3 -4 -5 -4h-48zM246 605 q-4 0 -3 4l9 67q1 4 5 4h48q2 0 2 -4l-9 -67q-1 -4 -4 -4h-48zM411 605q-3 0 -2 4l9 67q1 4 4 4h48q2 0 2 -4l-9 -67q-1 -4 -4 -4h-48z" />
<glyph unicode="&#x1e9e;" horiz-adv-x="501" d="M32 0q-3 0 -3 4l67 473q9 62 29 104t50 62.5t60.5 28.5t69.5 8h168q4 0 4 -4l-7 -50l-3 -6l-136 -222q19 -3 35 -11t35 -24.5t27 -50t1 -79.5l-10 -68q-6 -38 -17 -66.5t-29 -46t-36 -28.5t-44.5 -16t-46.5 -6.5t-51 -1.5q-4 0 -4 4l7 44q0 4 4 4q35 0 56 3t46.5 13.5 t40.5 36t20 65.5l8 59q9 71 -22 96t-84 25q-2 0 -2 4l6 44l141 230h-114q-60 0 -96.5 -31.5t-49.5 -119.5l-67 -473q0 -4 -3 -4h-50z" />
<glyph unicode="&#x2000;" horiz-adv-x="459" />
<glyph unicode="&#x2001;" horiz-adv-x="918" />
<glyph unicode="&#x2002;" horiz-adv-x="459" />
<glyph unicode="&#x2003;" horiz-adv-x="918" />
<glyph unicode="&#x2004;" horiz-adv-x="306" />
<glyph unicode="&#x2005;" horiz-adv-x="229" />
<glyph unicode="&#x2006;" horiz-adv-x="153" />
<glyph unicode="&#x2007;" horiz-adv-x="153" />
<glyph unicode="&#x2008;" horiz-adv-x="114" />
<glyph unicode="&#x2009;" horiz-adv-x="183" />
<glyph unicode="&#x200a;" horiz-adv-x="51" />
<glyph unicode="&#x2010;" horiz-adv-x="314" d="M40 250q-3 0 -3 4l6 42q0 4 4 4h225q4 0 4 -4l-6 -42q0 -4 -5 -4h-225z" />
<glyph unicode="&#x2011;" horiz-adv-x="314" d="M40 250q-3 0 -3 4l6 42q0 4 4 4h225q4 0 4 -4l-6 -42q0 -4 -5 -4h-225z" />
<glyph unicode="&#x2012;" horiz-adv-x="314" d="M40 250q-3 0 -3 4l6 42q0 4 4 4h225q4 0 4 -4l-6 -42q0 -4 -5 -4h-225z" />
<glyph unicode="&#x2013;" horiz-adv-x="374" d="M27 250q-2 0 -2 4l6 42q0 4 3 4h309q4 0 4 -4l-6 -42q0 -4 -5 -4h-309z" />
<glyph unicode="&#x2014;" horiz-adv-x="475" d="M11 250q-2 0 -2 4l6 42q0 4 3 4h442q4 0 4 -4l-6 -42q0 -4 -5 -4h-442z" />
<glyph unicode="&#x2018;" horiz-adv-x="176" d="M166 684q5 5 5 -3l-21 -146q0 -4 -4 -4h-47q-4 0 -4 4l14 100q0 2 4 5q2 1 27 22t26 22z" />
<glyph unicode="&#x2019;" horiz-adv-x="176" d="M99 527q-5 -5 -5 3l21 146q0 4 5 4h47q3 0 3 -4l-14 -100q0 -1 -4 -5z" />
<glyph unicode="&#x201a;" horiz-adv-x="176" d="M19 -49q-5 -5 -5 3l21 146q0 4 5 4h47q3 0 3 -4l-14 -100q0 -1 -4 -5z" />
<glyph unicode="&#x201c;" horiz-adv-x="296" d="M166 684q5 5 5 -3l-21 -146q0 -4 -4 -4h-47q-4 0 -4 4l14 100q0 2 4 5q2 1 27 22t26 22zM286 684q4 4 4 -3l-21 -146q0 -4 -3 -4h-47q-3 0 -3 4l14 100q0 2 3 5z" />
<glyph unicode="&#x201d;" horiz-adv-x="296" d="M99 527q-5 -5 -5 3l21 146q0 4 5 4h47q3 0 3 -4l-14 -100q0 -1 -4 -5zM219 527q-4 -4 -4 3l21 146q0 4 4 4h47q2 0 2 -4l-14 -100q0 -2 -3 -5z" />
<glyph unicode="&#x201e;" horiz-adv-x="296" d="M19 -49q-5 -5 -5 3l21 146q0 4 5 4h47q3 0 3 -4l-14 -100q0 -1 -4 -5zM139 -49q-5 -5 -5 3l21 146q0 4 4 4h48q2 0 2 -4l-14 -100q0 -1 -4 -5q-1 -1 -27 -23z" />
<glyph unicode="&#x2020;" horiz-adv-x="382" d="M104 -180q-3 0 -2 4l78 558h-126q-3 0 -2 4l6 42q0 4 3 4h126l34 244q0 4 4 4h45q2 0 2 -4l-34 -244h124q3 0 3 -4l-6 -42q0 -4 -4 -4h-124l-78 -558q-1 -4 -4 -4h-45z" />
<glyph unicode="&#x2021;" horiz-adv-x="382" d="M103 -180q-2 0 -2 4l31 219h-126q-3 0 -3 4l6 42q0 4 4 4h126l44 314h-126q-3 0 -3 4l6 42q0 4 4 4h126l31 219q0 4 3 4h45q3 0 3 -4l-31 -219h124q3 0 2 -4l-6 -42q0 -4 -3 -4h-124l-44 -314h124q2 0 2 -4l-6 -42q0 -4 -3 -4h-124l-31 -219q0 -4 -4 -4h-45z" />
<glyph unicode="&#x2022;" horiz-adv-x="318" d="M150 221q-15 0 -26.5 2.5t-22 10t-15 23.5t-0.5 41l3 20q7 44 29.5 59.5t57.5 15.5q15 0 25 -2t21 -9t15 -23t1 -41l-2 -20q-5 -47 -28 -62t-58 -15z" />
<glyph unicode="&#x2026;" horiz-adv-x="556" d="M38 0q-4 0 -4 4l11 74q0 4 4 4h59q3 0 3 -4l-11 -74q0 -4 -3 -4h-59zM379 0q-4 0 -4 4l11 74q0 4 4 4h59q3 0 3 -4l-11 -74q0 -4 -3 -4h-59zM209 0q-4 0 -4 4l11 74q0 4 4 4h58q4 0 4 -4l-11 -74q0 -4 -4 -4h-58z" />
<glyph unicode="&#x202f;" horiz-adv-x="183" />
<glyph unicode="&#x2030;" horiz-adv-x="872" d="M135 -5h-44q-4 0 -1 4q63 114 205 341.5t205 340.5q3 4 6 4h43q4 0 1 -4q-1 -1 -204.5 -340.5t-204.5 -341.5q-2 -4 -6 -4zM423 36q27 0 44 12.5t22 49.5l13 97q5 36 -7 48t-39 12q-59 0 -67 -60l-13 -97q-5 -37 8 -49.5t39 -12.5zM417 -5q-20 0 -34 3t-28 12.5t-19.5 31 t-0.5 53.5l15 105q8 57 38 76.5t74 19.5q19 0 32.5 -3t28 -11.5t20 -29t0.5 -52.5l-15 -105q-9 -62 -38 -81t-73 -19zM189 425q27 0 44 12.5t22 49.5l14 97q5 35 -7.5 47.5t-39.5 12.5q-58 0 -66 -60l-14 -97q-5 -38 7.5 -50t39.5 -12zM184 384q-20 0 -34 3t-28.5 12.5 t-19.5 30.5t-1 53l14 105q14 97 113 97q20 0 33.5 -3t27.5 -11.5t19.5 -29.5t1.5 -53l-14 -105q-8 -61 -38 -80t-74 -19zM667 36q28 0 44.5 12t21.5 50l13 97q5 36 -7 48t-39 12q-59 0 -67 -60l-13 -97q-5 -38 7.5 -50t39.5 -12zM661 -5q-20 0 -34.5 3t-28.5 12.5t-19.5 31 t-0.5 53.5l15 105q8 57 38 76.5t75 19.5q20 0 33.5 -3t27.5 -11.5t19.5 -29t0.5 -52.5l-15 -105q-9 -62 -37.5 -81t-73.5 -19z" />
<glyph unicode="&#x2039;" horiz-adv-x="256" d="M212 453q20 -20 24 -28q2 -3 0 -6l-151 -154q106 -152 107 -154q2 -4 -1 -6l-32 -28q-3 -3 -4 0q-1 1 -67 92.5t-66 92.5q-2 3 1 6l185 185q2 2 4 0z" />
<glyph unicode="&#x203a;" horiz-adv-x="256" d="M39 76q-20 20 -24 28q-2 3 1 6l149 154q-105 152 -106 154q-2 4 1 6l32 28q3 3 4 0q1 -2 66 -93t66 -92q2 -3 -1 -6q-183 -183 -184 -185q-2 -2 -4 0z" />
<glyph unicode="&#x2044;" horiz-adv-x="342" d="M27 -4q-2 0 -2 2q0 1 64.5 171t129.5 340.5t65 171.5q1 4 5 4h45q4 0 1 -4q0 -1 -128.5 -340.5t-129.5 -340.5q-1 -4 -4 -4h-46z" />
<glyph unicode="&#x205f;" horiz-adv-x="229" />
<glyph unicode="&#x2070;" horiz-adv-x="288" d="M146 304q39 0 60 21t31 90l17 121q10 67 -5.5 87.5t-54.5 20.5q-38 0 -58.5 -20.5t-30.5 -87.5l-17 -121q-10 -70 5.5 -90.5t52.5 -20.5zM141 267q-14 0 -23 0.5t-22 3.5t-20 9t-16 16.5t-10.5 26t-4.5 37.5t4 51l19 130q7 47 20 77t32.5 42.5t36.5 16.5t42 4 q12 0 20 -0.5t19 -2t18.5 -6t16 -10.5t13 -17t7.5 -25t3 -34t-4 -45l-19 -130q-7 -50 -20.5 -81t-34 -44t-36 -16t-41.5 -3z" />
<glyph unicode="&#x2074;" horiz-adv-x="267" d="M195 270h-30q-3 0 -3 2l11 78h-134q-2 0 -2 1l5 37q0 2 2 4l142 284l2 2h36l-1 -2l-140 -284l-1 -5h96l12 86q0 2 3 2h31q1 0 1 -2l-12 -86h39q3 0 3 -3l-5 -32q0 -2 -3 -2h-39l-11 -78q0 -2 -2 -2z" />
<glyph unicode="&#x2075;" horiz-adv-x="267" d="M129 267q-24 0 -45 4t-30 8t-10 5q-2 2 -1 3q8 17 9 28q0 2 4 2l5 -1q5 -2 13 -4t17.5 -3.5t21.5 -3t22 -1.5q65 0 72 52l6 41q11 69 -47 69h-89q-1 0 -1 2l29 205q0 5 5 5h162q2 0 2 -2l-4 -31q0 -3 -3 -3h-133l-20 -141h58q17 0 29 -3t27 -12t20.5 -31.5t0.5 -56.5 l-6 -43q-12 -88 -114 -88z" />
<glyph unicode="&#x2076;" horiz-adv-x="262" d="M136 302q29 0 48 15.5t24 63.5l2 20q5 44 -8 60t-42 16q-7 0 -23.5 -3.5t-28.5 -7.5l-13 -3l-15 -106q-4 -28 12.5 -41.5t43.5 -13.5zM132 267q-17 0 -31.5 3t-30.5 11.5t-23.5 27.5t-3.5 46l33 234q7 52 40.5 72t72.5 20q15 0 28 -2t22 -4.5t15.5 -4.5t10.5 -4l4 -2 q1 0 1 -2q0 -1 -6 -15l-5 -14q0 -2 -2 -2l-5 1q-4 2 -11 4t-16 3.5t-19.5 3t-20.5 1.5q-64 0 -72 -56l-13 -90q48 15 69 15q18 0 30.5 -2.5t27 -12t19.5 -33t0 -60.5l-4 -27q-6 -37 -18.5 -61.5t-30 -34t-31 -12.5t-30.5 -3z" />
<glyph unicode="&#x2077;" horiz-adv-x="261" d="M100 270h-34q-2 0 -1 2l170 364l1 5h-147q-2 0 -2 2l5 32q0 3 2 3h186q1 -1 1 -2l-5 -35v-3l-1 -1q0 -1 -85 -181.5t-87 -183.5q0 -2 -3 -2z" />
<glyph unicode="&#x2078;" horiz-adv-x="267" d="M136 302q32 0 49.5 14t22.5 55l3 25q5 41 -8.5 55.5t-41.5 14.5q-30 0 -48.5 -14.5t-24.5 -55.5l-4 -25q-6 -41 7 -55t45 -14zM164 502q61 0 68 58l3 25q7 61 -48 61q-60 0 -70 -61l-4 -25q-9 -58 51 -58zM131 266q-46 0 -68.5 20.5t-14.5 81.5l4 31q4 28 16.5 49 t23.5 28l11 7v2q-3 2 -8 6.5t-12 23t-4 41.5l4 31q13 94 109 94q90 0 77 -94l-4 -31q-3 -22 -13.5 -39.5t-19.5 -24.5l-9 -6v-2q4 -2 9 -7t12.5 -27t3.5 -51l-4 -31q-8 -62 -37 -82t-76 -20z" />
<glyph unicode="&#x2079;" horiz-adv-x="266" d="M184 646q-30 0 -48.5 -15t-25.5 -64l-4 -29q-6 -44 7 -60t44 -16q7 0 23.5 4t29.5 8l12 3l16 114q4 29 -11.5 42t-42.5 13zM187 681q100 0 88 -87l-33 -235q-13 -92 -112 -92q-23 0 -43.5 3.5t-29.5 7t-10 4.5q-2 2 -1 4q1 1 6 14t5 14t3 1l4 -1l12.5 -2.5t16.5 -3.5 t20.5 -3t21.5 -1q63 0 71 56l11 81q-47 -14 -69 -14q-18 0 -30.5 2.5t-27 12t-20 33t-0.5 59.5l5 36q5 38 18 62t31 34t31.5 12.5t31.5 2.5z" />
<glyph unicode="&#x2080;" horiz-adv-x="288" d="M108 34q39 0 60 21t31 90l17 121q10 67 -5.5 87.5t-54.5 20.5q-38 0 -58.5 -20.5t-30.5 -87.5l-17 -121q-10 -70 5.5 -90.5t52.5 -20.5zM103 -3q-14 0 -23 0.5t-22 3.5t-20 9t-16 16.5t-10.5 26t-4.5 37.5t4 51l19 130q7 47 20 77t32.5 42.5t36.5 16.5t42 4q12 0 20 -0.5 t19 -2t18.5 -6t16 -10.5t13 -17t7.5 -25t3 -34t-4 -45l-19 -130q-7 -50 -20.5 -81t-34 -44t-36 -16t-41.5 -3z" />
<glyph unicode="&#x2081;" horiz-adv-x="256" d="M119 0h-30q-2 0 -2 2l51 359q-73 -58 -74 -59t-1 1t-2 16.5t-2 15.5q0 2 3 4l80 68q1 1 4 1h30q2 0 2 -2l-57 -404q0 -2 -2 -2z" />
<glyph unicode="&#x2082;" horiz-adv-x="263" d="M182 0h-186l-2 1l5 38q0 1 2 3q10 11 30.5 34t30 34t27 31t26.5 30.5t21.5 26.5t19.5 26t14 21.5t10.5 20t4.5 15.5l6 39q5 34 -11 44t-46 10q-15 0 -34 -3.5t-30 -6.5t-11 -4q-3 0 -3 2t-1.5 14.5t-1.5 13.5q0 2 1 3q36 18 85 18q44 0 69.5 -18.5t18.5 -70.5l-6 -42 q-3 -24 -30.5 -65t-53.5 -72t-87 -101l-1 -5h138q3 0 3 -2l-5 -33q0 -2 -3 -2z" />
<glyph unicode="&#x2083;" horiz-adv-x="266" d="M3 14q-1 1 -1 3q11 22 11 29q0 1 4 1l5 -1q4 -2 12 -4t17 -3.5t21 -3t22 -1.5q19 0 30.5 2t25 14.5t17.5 36.5l6 40q3 20 -1 34t-13.5 19.5t-17 7.5t-15.5 2h-35q-3 0 -3 2l4 31q0 2 4 2h35q19 0 36.5 14.5t20.5 41.5l5 40q3 24 -6 36.5t-20 14.5t-29 2q-16 0 -35 -3 t-30 -6t-12 -4q-2 -2 -2 1q0 2 -2 15t-2 14q0 2 1 3t11 5t31.5 8t43.5 4q18 0 31 -2.5t29 -10t23.5 -27t3.5 -48.5l-5 -41q-3 -21 -12 -38t-16 -24l-8 -7l-1 -4q3 -2 8 -7t11.5 -26t2.5 -49l-6 -42q-4 -29 -16.5 -48.5t-31 -27t-33 -10t-33.5 -2.5q-23 0 -44.5 4t-31.5 9z " />
<glyph unicode="&#x2084;" horiz-adv-x="267" d="M157 0h-30q-3 0 -3 2l11 78h-134q-2 0 -2 1l5 37q0 2 2 4l142 284l2 2h36l-1 -2l-140 -284l-1 -5h96l12 86q0 2 3 2h31q1 0 1 -2l-12 -86h39q3 0 3 -3l-5 -32q0 -2 -3 -2h-39l-11 -78q0 -2 -2 -2z" />
<glyph unicode="&#x2085;" horiz-adv-x="267" d="M91 -3q-24 0 -45 4t-30 8t-10 5q-2 2 -1 3q7 18 9 28q0 2 4 2l5 -1q5 -2 13 -4t17.5 -3.5t21.5 -3t22 -1.5q65 0 72 52l6 41q11 69 -47 69h-89q-1 0 -1 2l29 205q0 5 5 5h162q2 0 2 -2l-4 -31q0 -3 -3 -3h-133l-20 -141h58q17 0 29 -3t27 -12t20.5 -31.5t0.5 -56.5 l-6 -43q-12 -88 -114 -88z" />
<glyph unicode="&#x2086;" horiz-adv-x="262" d="M98 32q29 0 48 15.5t24 63.5l2 20q5 44 -8 60t-42 16q-7 0 -23.5 -3.5t-28.5 -7.5l-13 -3l-15 -106q-4 -28 12.5 -41.5t43.5 -13.5zM94 -3q-17 0 -31.5 3t-30.5 11.5t-23.5 27.5t-3.5 46l33 234q7 52 40.5 72t72.5 20q15 0 28 -2t22 -4.5t15.5 -4.5t10.5 -4l4 -2 q1 0 1 -2q0 -1 -6 -15l-5 -14q0 -2 -2 -2l-5 1q-4 2 -11 4t-16 3.5t-19.5 3t-20.5 1.5q-64 0 -72 -56l-13 -90q48 15 69 15q18 0 30.5 -2.5t27 -12t19.5 -33t0 -60.5l-4 -27q-6 -37 -18.5 -61.5t-30 -34t-31 -12.5t-30.5 -3z" />
<glyph unicode="&#x2087;" horiz-adv-x="261" d="M62 0h-34q-2 0 -1 2l170 364l1 5h-147q-2 0 -2 2l5 32q0 3 2 3h186q1 -1 1 -2l-5 -35v-3l-1 -1q0 -1 -85 -181.5t-87 -183.5q0 -2 -3 -2z" />
<glyph unicode="&#x2088;" horiz-adv-x="267" d="M98 32q32 0 49.5 14t22.5 55l3 25q5 41 -8.5 55.5t-41.5 14.5q-66 0 -74 -70l-3 -25q-5 -41 8 -55t44 -14zM126 232q61 0 68 58l3 25q7 61 -48 61q-60 0 -70 -61l-4 -25q-9 -58 51 -58zM93 -4q-47 0 -70.5 20.5t-13.5 81.5l5 31q4 28 17 49t23 28l11 7v2q-3 2 -8 6.5 t-12 23t-4 41.5l4 31q13 94 109 94q90 0 77 -94l-4 -31q-3 -22 -13.5 -39.5t-19.5 -24.5l-9 -6v-2q4 -2 9 -7t12.5 -27t3.5 -51l-4 -31q-8 -62 -37 -82t-76 -20z" />
<glyph unicode="&#x2089;" horiz-adv-x="266" d="M146 376q-30 0 -48.5 -15t-25.5 -64l-4 -29q-6 -44 7 -60t44 -16q7 0 23.5 4t29.5 8l12 3l16 114q4 29 -11.5 42t-42.5 13zM149 411q100 0 88 -87l-33 -235q-13 -92 -112 -92q-23 0 -43.5 3.5t-29.5 7t-10 4.5q-2 2 -1 4q1 1 6 14t5 14t3 1l4 -1l12.5 -2.5t16.5 -3.5 t20.5 -3t21.5 -1q63 0 71 56l11 81q-47 -14 -69 -14q-18 0 -30.5 2.5t-27 12t-20 33t-0.5 59.5l5 36q5 38 18 62t31 34t31.5 12.5t31.5 2.5z" />
<glyph unicode="&#x20ac;" horiz-adv-x="471" d="M248 -7q-27 0 -47 2t-41 9t-35.5 18.5t-26.5 31.5t-17 47.5t-5 67t7 89.5h-46q-3 0 -3 4l6 39q0 4 3 4h46l11 76h-46q-2 0 -2 4l5 39q1 4 4 4h46q21 149 77.5 204t161.5 55q19 0 37.5 -1.5t32.5 -4.5t26 -6t21 -6.5t15 -6t10 -4.5l4 -2q1 -2 0 -6l-20 -38q-2 -4 -5 -2 t-19 6.5t-48 10.5t-61 6q-78 0 -117.5 -43t-56.5 -162h159q3 0 3 -4l-5 -39q0 -4 -5 -4h-159l-11 -76h159q4 0 4 -4l-6 -39q0 -4 -4 -4h-159q-6 -67 -5 -108.5t19 -64t40.5 -30.5t59.5 -8q33 0 70 8t53 14t22 9q3 1 4 -2l10 -37q2 -3 -2 -6l-4 -3q-5 -2 -12 -5.5t-17 -7.5 t-24 -8.5t-30 -8t-36 -5.5t-41 -2z" />
<glyph unicode="&#x2122;" horiz-adv-x="682" d="M344 291l54 387q0 2 2 2h53q3 0 3 -1l49 -239h5q111 237 112 238q1 2 3 2h53q1 0 1 -2l-54 -387q0 -2 -3 -2h-41v2l40 285h-7q-97 -202 -97 -203q0 -3 -3 -3h-35q-4 0 -4 3l-39 203h-7l-40 -285q0 -2 -3 -2h-41q-1 1 -1 2zM139 291l48 344h-89q-2 0 -2 2l6 41q0 2 2 2 h225q2 0 2 -2l-6 -41q0 -2 -2 -2h-91l-48 -344q0 -2 -2 -2h-42q-1 0 -1 2z" />
<glyph unicode="&#x2190;" horiz-adv-x="691" d="M150 315h482q3 0 3 -4l-6 -42q0 -4 -4 -4h-482l178 -207q3 -3 -2 -6l-33 -29q-3 -3 -6 0l-227 264q-3 3 1 6l302 265q3 3 4 0l27 -30q1 -3 -1 -5z" />
<glyph unicode="&#x2191;" horiz-adv-x="659" d="M383 486l-68 -482q0 -4 -5 -4h-42q-3 0 -3 4l68 482l-236 -207q-4 -4 -6 0l-25 30q-3 3 1 5l301 265q3 3 6 0l227 -265q3 -2 0 -5l-34 -30q-3 -3 -6 0z" />
<glyph unicode="&#x2192;" horiz-adv-x="691" d="M544 266h-482q-4 0 -4 4l6 42q0 4 5 4h482l-178 207q-3 3 0 6l35 29q3 3 4 0l229 -264q2 -3 -1 -6l-302 -265q-3 -3 -6 0l-25 30q-3 3 0 5z" />
<glyph unicode="&#x2193;" horiz-adv-x="659" d="M278 94l68 482q0 4 5 4h42q3 0 3 -4l-68 -482l236 207q4 4 6 0l25 -30q3 -3 -1 -5l-301 -265q-3 -3 -6 0l-227 265q-3 3 1 5l33 30q3 3 6 0z" />
<glyph unicode="&#x2194;" horiz-adv-x="878" d="M280 22l-227 265q-3 3 1 6l302 265q3 3 6 0l25 -30q3 -2 -1 -6l-236 -207h588l-178 207q-3 3 1 6l34 30q4 4 6 0q1 -1 114 -132.5t113 -132.5q2 -3 -2 -6l-301 -265q-3 -3 -6 0l-25 30q-2 2 1 6l236 207h-588l178 -207q3 -3 -2 -6l-33 -30q-3 -3 -6 0z" />
<glyph unicode="&#x2195;" horiz-adv-x="659" d="M87 462q1 1 151 133l150 132q3 3 6 0l228 -265q2 -2 -1 -5l-34 -30q-3 -3 -5 0l-179 207l-83 -588q236 205 238 207q2 3 5 0l25 -30q3 -3 -1 -5l-302 -265q-3 -3 -5 0l-227 265q-3 3 1 5l33 30q3 3 6 0l178 -207l82 588l-236 -207q-3 -3 -6 0l-25 30q-2 2 1 5z" />
<glyph unicode="&#x2196;" horiz-adv-x="539" d="M464 121q2 -3 -1 -6l-34 -29q-4 -4 -6 0l-293 341l-41 -293q0 -4 -5 -4h-42q-4 0 -4 4l53 374q0 4 5 4h375q3 0 3 -4l-6 -42q0 -4 -4 -4h-294z" />
<glyph unicode="&#x2197;" horiz-adv-x="538" d="M59 85q-5 -3 -6 0l-25 30q-2 3 1 6l388 341h-293q-3 0 -3 4l6 42q0 4 5 4h374q3 0 3 -4l-53 -375q0 -4 -4 -4h-42q-5 0 -4 4l41 294z" />
<glyph unicode="&#x2198;" horiz-adv-x="539" d="M79 475q-3 3 0 6l35 29q4 4 6 0l293 -341l41 293q0 4 4 4h42q5 0 4 -4l-53 -374q0 -4 -4 -4h-375q-4 0 -4 4l6 42q0 4 5 4h294z" />
<glyph unicode="&#x2199;" horiz-adv-x="538" d="M483 511q3 3 6 0l25 -30q2 -3 -1 -6l-389 -341h293q4 0 3 -4l-6 -42q0 -4 -4 -4h-374q-4 0 -4 4l53 375q0 4 5 4h42q4 0 3 -4l-41 -294z" />
<glyph unicode="&#x2212;" horiz-adv-x="314" d="M40 250q-3 0 -3 4l6 42q0 4 4 4h225q4 0 4 -4l-6 -42q0 -4 -5 -4h-225z" />
<glyph unicode="&#x221a;" horiz-adv-x="877" d="M61 274l34 30q3 2 5 0l183 -214l534 468q3 3 6 0l26 -30q3 -3 0 -6l-572 -500q-3 -3 -6 0q-1 1 -53.5 62.5t-104.5 122.5t-53 61q-2 2 1 6z" />
<glyph unicode="&#x2248;" horiz-adv-x="445" d="M43 181q2 6 6 10q5 5 17 14t35 20t41 11q27 0 69.5 -29t67.5 -29q18 0 38.5 11t34.5 22.5t16 11.5q3 0 3 -4l-5 -31q0 -6 -4 -10q-46 -46 -94 -46q-27 0 -68.5 29.5t-66.5 29.5q-16 0 -37 -11t-36.5 -22.5t-17.5 -11.5q-4 0 -3 5zM70 371q2 7 6 10q2 3 15.5 13t36.5 20.5 t41 10.5q27 0 69.5 -29t67.5 -29q18 0 38.5 11.5t34.5 23t16 11.5q3 0 3 -4l-5 -32q0 -6 -4 -10q-45 -45 -95 -45q-27 0 -68 29.5t-66 29.5q-16 0 -37.5 -11.5t-37 -23t-17.5 -11.5q-4 0 -2 6z" />
<glyph unicode="&#x2260;" horiz-adv-x="446" d="M59 42q-4 0 -1 4l64 109h-83q-3 0 -3 3l6 43q0 4 4 4h110l84 143h-174q-3 0 -3 4l6 42q0 4 4 4h200q62 105 64 108q3 4 6 4h40q4 0 1 -4l-64 -108h84q3 0 2 -4l-5 -42q-1 -4 -4 -4h-112l-83 -143h175q2 0 2 -4l-6 -42q0 -4 -3 -4h-201q-63 -106 -65 -109q-2 -4 -5 -4h-40 z" />
<glyph unicode="&#x2264;" horiz-adv-x="446" d="M365 127l-308 159q-3 2 -3 4l6 39q0 3 3 4l355 159q2 1 2.5 0.5t-0.5 -3.5l-6 -46q0 -1 -4 -5l-276 -126v-6q237 -123 240 -125q2 -1 2 -6l-6 -45q-2 -5 -5 -3zM17 0q-3 0 -3 4l6 42q0 4 4 4h332q2 0 2 -4l-6 -42q0 -4 -3 -4h-332z" />
<glyph unicode="&#x2265;" horiz-adv-x="446" d="M35 127q-3 -1 -3 3l6 45q2 5 4 6l276 125l1 6q-239 124 -241 126t-2 5l6 46q2 3 3 3l310 -159q3 -1 3 -4l-6 -39q0 -2 -4 -4q-3 -2 -176 -80t-177 -79zM349 0h-332q-3 0 -3 4l6 42q0 4 4 4h332q2 0 2 -4l-6 -42q0 -4 -3 -4z" />
<glyph unicode="&#x25b2;" horiz-adv-x="720" d="M695 248l-8 -58q-2 -5 -4 -3l-298 239h-9q-365 -238 -367 -240q-1 -1 -2 1q-1 1 -1 2l9 59q0 2 4 5l91 59q90 59 179.5 118t91.5 60q9 5 15 0l297 -237q2 -1 2 -5z" />
<glyph unicode="&#x25ba;" horiz-adv-x="488" d="M103 0h-58q-5 0 -2 3l285 332l1 9q-191 331 -193 333q1 2 4 3h59q1 0 4 -4q1 -2 95.5 -164t95.5 -164q4 -7 -3 -16l-282 -329q-3 -3 -6 -3z" />
<glyph unicode="&#x25bc;" horiz-adv-x="720" d="M40 431l9 58q0 2 0.5 3t2.5 0l298 -239h9q365 238 367 240q1 1 2 -1l1 -2l-9 -59q0 -2 -4 -5l-90 -59q-91 -59 -180.5 -118t-91.5 -60q-9 -5 -15 0l-296 237q-3 2 -3 5z" />
<glyph unicode="&#x25c4;" horiz-adv-x="488" d="M401 680h58q5 0 2 -3l-286 -332l-1 -9q191 -331 193 -333q3 -3 -3 -3h-59q-2 0 -5 4q-1 2 -95 164t-95 164q-5 8 2 16l283 329q1 3 6 3z" />
<glyph unicode="&#x25fc;" horiz-adv-x="475" d="M0 475h475v-475h-475v475z" />
<glyph horiz-adv-x="450" />
<glyph horiz-adv-x="450" d="M191 44q33 0 54 6t42.5 24.5t35.5 58t23 101.5l31 217q6 41 6 71.5t-5.5 50.5t-14 33t-23.5 19t-29.5 8.5t-35.5 2.5q-31 0 -52 -6t-42.5 -24t-35.5 -56.5t-23 -98.5l-31 -217q-4 -44 -6 -75t5.5 -52.5t15 -33.5t23.5 -18.5t29 -8.5t33 -2zM184 -10q-20 0 -33 1t-31.5 4 t-30.5 10t-25.5 18t-21 29t-12.5 42t-4.5 58t6.5 76l33 230q9 63 26.5 107.5t36.5 68.5t47.5 37t51 16t55.5 3q20 0 33 -1t31.5 -3.5t30.5 -9.5t26 -17.5t21.5 -28t13 -41t5 -57t-6.5 -74.5l-33 -230q-8 -56 -21 -97.5t-31.5 -67t-36 -41t-42.5 -22t-42.5 -8.5t-45.5 -2z " />
<glyph horiz-adv-x="450" d="M234 0h-48q-4 0 -3 4l85 607q-121 -99 -122 -100q-2 -2 -2 1t-3.5 24t-3.5 22q0 3 3 6l135 114q2 2 6 2h48q3 0 3 -4l-95 -672q0 -4 -3 -4z" />
<glyph horiz-adv-x="450" d="M335 0h-309q-2 0 -2 2l8 57q0 2 2 4q18 21 51.5 59t51 58t45.5 52.5t43.5 51.5t36.5 45.5t33 43.5t24 36t17.5 33.5t7.5 26.5l10 74q4 31 -2 51t-22.5 28.5t-32 11t-39.5 2.5q-25 0 -57 -5t-50 -9.5t-20 -5.5q-4 -2 -4 3q0 2 -2 19.5t-2 19.5q0 4 2 5q4 3 18.5 8.5t50 12 t73.5 6.5q33 0 57.5 -5t49 -19.5t34.5 -45t3 -76.5l-11 -75q-5 -31 -25 -70t-70.5 -103.5t-81.5 -101.5t-112 -132l-1 -8h233q2 0 2 -4l-6 -46q-1 -4 -4 -4z" />
<glyph horiz-adv-x="450" d="M34 16q-2 2 0 5q2 2 8 20.5t6 20.5t5 2q2 -1 20.5 -5.5t50.5 -9.5t59 -5q24 0 39.5 2t36 10.5t33 28.5t17.5 52l11 74q5 35 -2 59t-23.5 33.5t-29 13t-26.5 3.5h-58q-4 0 -3 4l6 44q0 4 4 4h58q33 0 62.5 24.5t35.5 72.5l10 74q4 32 -2.5 52t-23.5 28t-31 10.5t-37 2.5 q-27 0 -58.5 -5t-49.5 -9.5t-20 -5.5q-5 -2 -5 3q0 3 -1.5 20.5t-1.5 19.5q0 4 2 5q52 26 141 26q23 0 40 -1.5t40.5 -10t37.5 -23t22 -43t3 -68.5l-10 -74q-5 -36 -19.5 -65t-26.5 -40l-13 -11l-1 -6q6 -4 13.5 -12t18 -43.5t3.5 -82.5l-10 -74q-7 -49 -27.5 -80.5 t-51.5 -44.5t-55 -17t-55 -4q-38 0 -73.5 6.5t-52.5 13.5z" />
<glyph horiz-adv-x="450" d="M292 0h-46q-4 0 -4 4l19 132h-229q-2 0 -2 3l8 55q0 1 1.5 2.5t1.5 2.5l238 477q2 4 4 4h52q4 0 2 -4l-236 -478l-2 -8h169l21 147q0 4 4 4h47q3 0 3 -4l-21 -147h63q4 0 4 -4l-7 -46q0 -4 -4 -4h-63l-19 -132q0 -4 -4 -4z" />
<glyph horiz-adv-x="450" d="M179 -10q-90 0 -142 26q-2 1 -1 5q2 7 7 20.5t7 19.5q1 2 5 2l9 -2q8 -2 22 -4.5t30.5 -5.5t35.5 -5t35 -2q23 0 38.5 2.5t36 10.5t33.5 27.5t17 50.5l10 75q16 120 -77 120h-149q-3 0 -3 4l48 338q0 8 9 8h268q3 0 3 -4l-7 -44q0 -4 -3 -4h-224l-35 -246h100q15 0 26 -1 t27.5 -4.5t27 -11t23.5 -20t17.5 -30.5t8.5 -44t-3 -61l-10 -75q-20 -145 -190 -145z" />
<glyph horiz-adv-x="450" d="M197 42q48 0 79.5 26.5t44.5 109.5l6 39q11 76 -12 104.5t-75 28.5q-12 0 -39.5 -6t-49.5 -12l-22 -7l-27 -187q-7 -50 21 -73t74 -23zM192 -10q-27 0 -50.5 5t-50 19t-39 44.5t-6.5 75.5l57 406q5 37 20.5 65t34.5 43.5t43.5 25.5t45 13t41.5 3q83 0 135 -26q3 -1 1 -5 q0 -1 -4 -11l-8 -20l-3 -9q0 -2 -4 -2q-1 0 -8.5 2t-20 4.5l-27.5 5.5t-33.5 5t-34.5 2q-50 0 -82 -20.5t-40 -77.5l-23 -161q82 25 119 25q12 0 21 -0.5t22 -2.5t22 -5t20 -9.5t18.5 -15.5t14.5 -22.5t10 -30.5t3 -40.5t-4 -51.5l-7 -50q-7 -50 -23.5 -86.5t-34.5 -54.5 t-43.5 -28.5t-42 -12.5t-39.5 -2z" />
<glyph horiz-adv-x="450" d="M136 0h-53q-4 0 -1 4l286 613l1 8h-246q-3 0 -3 4l7 46q0 5 4 5h306q2 0 2 -3l-7 -53q0 -1 -1.5 -3t-1.5 -3t-142.5 -305t-144.5 -309q-1 -4 -6 -4z" />
<glyph horiz-adv-x="450" d="M191 41q53 0 82.5 24t39.5 96l7 49q10 72 -13 96.5t-73 24.5t-83 -25.5t-43 -95.5l-7 -49q-10 -71 12.5 -95.5t77.5 -24.5zM239 383q100 0 114 101l7 49q15 105 -83 105q-43 0 -77.5 -24t-41.5 -81l-6 -49q-13 -101 87 -101zM183 -11q-36 0 -61 6t-46.5 22.5t-29 51 t-0.5 87.5l8 58q4 30 14 56t21.5 41t22.5 26t18 15l7 4v3q-2 1 -5.5 4t-12.5 13t-13.5 22.5t-9 34t0.5 46.5l8 57q22 154 182 154q150 0 128 -154l-8 -57q-3 -24 -12 -45t-19 -34t-19 -22.5t-15 -13.5l-7 -4v-3q6 -4 15 -12.5t21 -45t5 -85.5l-8 -58q-8 -54 -25.5 -89.5 t-45 -51.5t-53 -21t-61.5 -5z" />
<glyph horiz-adv-x="450" d="M270 638q-50 0 -82 -26t-43 -110l-7 -54q-10 -76 12.5 -104.5t74.5 -28.5q12 0 40 6.5t50 12.5l22 7l28 201q7 50 -21 73t-74 23zM275 690q21 0 40 -2.5t42 -11.5t38.5 -24t23.5 -42t3 -63l-57 -406q-6 -46 -27 -77.5t-50 -46.5t-55.5 -21t-54.5 -6q-90 0 -136 23 q-4 2 -2 6q16 32 16 40q0 2 4 2q2 -1 20 -5t49 -8t57 -4q110 0 123 98l20 146q-81 -25 -118 -25q-14 0 -24 0.5t-25 3t-24.5 7.5t-22.5 13.5t-18.5 21.5t-13 31.5t-5.5 43.5t4 57l9 65q9 62 30 102.5t51 56.5t52 20.5t51 4.5z" />
<glyph horiz-adv-x="450" d="M173 100q-4 0 -3 4l10 74q1 4 5 4h59q2 0 2 -4l-10 -74q-1 -4 -4 -4h-59zM229 495q-4 0 -4 4l11 74q0 4 4 4h59q3 0 2 -4l-10 -74q-1 -4 -3 -4h-59z" />
<glyph horiz-adv-x="350" d="M63 126q-2 4 0 6l38 35q3 3 4 0l120 -166q3 -3 -1 -6l-38 -34q-4 -4 -5 0z" />
<glyph horiz-adv-x="339" d="M245 437q-4 0 -2 4l40 67q2 4 6 4h37q2 0 1 -4q-1 -2 -19 -33t-20 -34q-3 -4 -5 -4h-38zM-2 -34q-3 0 0 4q17 34 35 61q3 4 7 4h36q4 0 1 -4l-37 -62q-2 -3 -5 -3h-37z" />
<glyph horiz-adv-x="468" d="M368 613q-4 0 -1 4q1 1 29.5 49t30.5 50q3 4 6 4h43q4 0 1 -4q-1 -2 -30 -50t-30 -49q-3 -4 -5 -4h-44zM-1 -40q-3 0 0 4q2 3 28 47t27 46q1 4 6 4h44q4 0 1 -4q-1 -1 -28 -46.5t-28 -46.5q-2 -4 -6 -4h-44z" />
<glyph horiz-adv-x="980" d="M205 -10q-104 0 -174 35q-2 1 0 5l20 42q2 3 4 2q5 -3 22.5 -9t58 -14t79.5 -8q31 0 52 3t44 13t37 32t19 57l10 69q7 49 -22 70.5t-95 27.5q-109 10 -143 46t-23 113l10 70q21 146 201 146q46 0 84 -7t52 -13t17 -9q4 -2 2 -5l-22 -39q-2 -3 -4 -2q-3 2 -18.5 6t-50 9.5 t-67.5 5.5q-57 0 -92.5 -19t-43.5 -74l-10 -69q-7 -49 20 -71.5t95 -29.5q106 -10 143 -43.5t26 -112.5l-10 -71q-7 -51 -29 -84.5t-56.5 -48t-64.5 -19t-71 -4.5zM674 -10q-104 0 -174 35q-2 1 0 5l20 42q2 3 4 2q5 -3 22.5 -9t58 -14t79.5 -8q31 0 52 3t44 13t37 32t19 57 l10 69q7 49 -22 70.5t-95 27.5q-109 10 -143 46t-23 113l10 70q21 146 201 146q46 0 84 -7t52 -13t17 -9q4 -2 2 -5l-22 -39q-2 -3 -4 -2q-3 2 -18.5 6t-50 9.5t-67.5 5.5q-57 0 -92.5 -19t-43.5 -74l-10 -69q-7 -49 20 -71.5t95 -29.5q106 -10 143 -43.5t26 -112.5l-10 -71 q-7 -51 -29 -84.5t-56.5 -48t-64.5 -19t-71 -4.5z" />
<glyph horiz-adv-x="403" d="M27 0h-51q-2 0 -1 3t116 270t115 268q0 3 3 3h58q3 0 3 -2l78 -539q2 -3 -2 -3h-50q-2 0 -3 3l-16 116h-198q-48 -114 -49 -116q-2 -3 -3 -3zM101 169h169l-38 288h-12z" />
<glyph horiz-adv-x="400" d="M78 49h105q26 0 44 4.5t35 22.5t21 50l6 48q10 79 -79 79h-103zM113 301h101q31 0 46 -4q43 72 43 126q0 47 -18.5 59.5t-55.5 12.5h-88zM176 0h-158l76 544h147q19 0 32 -1t30.5 -7.5t28.5 -17.5t18.5 -33t7.5 -52q0 -39 -12 -70t-40 -81q48 -28 37 -107l-7 -49 q-5 -35 -17 -59.5t-25.5 -37.5t-36 -19.5t-39 -8t-42.5 -1.5z" />
<glyph horiz-adv-x="371" d="M164 -4q-17 0 -29.5 1t-28.5 4t-27 9t-23 15.5t-18 23.5t-12 34t-4.5 46t4.5 59l24 173q7 50 22 85.5t32.5 55t43 30.5t46 13.5t48.5 2.5q13 0 25.5 -1t22.5 -2.5t19 -3t15.5 -4t12 -4.5t9.5 -4t6.5 -3.5t3.5 -2.5l2 -1q2 -1 1 -4q0 -1 -5.5 -10.5t-10.5 -18.5l-5 -9 q0 -4 -4 -2q-1 1 -14.5 5.5t-38.5 9t-47 4.5q-24 0 -40.5 -4t-36.5 -16.5t-34 -43t-20 -78.5l-22 -162q-12 -88 12 -116.5t78 -28.5q63 0 113 25q1 1 3 -2q1 -2 6.5 -19t4.5 -18q1 -2 -2 -4l-1 -1q-54 -33 -131 -33z" />
<glyph horiz-adv-x="414" d="M78 51h96q57 0 88 27.5t43 115.5l23 160q2 33 3.5 56t-6.5 38.5t-14.5 24.5t-21 13.5t-25.5 5.5t-28 1h-96zM167 0h-149l76 544h149q13 0 21.5 -0.5t22 -1.5t22 -3.5t20.5 -7t19.5 -11.5t16 -17t12.5 -23.5t7.5 -30.5t3 -39.5t-4.5 -49.5l-24 -171q-7 -53 -23 -90 t-33 -56t-43.5 -29t-45 -12t-47.5 -2z" />
<glyph horiz-adv-x="370" d="M18 0l76 544h276q3 0 3 -3l-6 -45q0 -3 -4 -3h-223l-27 -191h192q2 0 2 -3l-6 -45q0 -3 -3 -3h-192l-28 -200h223q3 0 3 -3l-7 -45q0 -3 -3 -3h-276z" />
<glyph horiz-adv-x="366" d="M20 0q-2 1 -2 3l76 541h276q3 0 3 -3l-6 -45q0 -3 -4 -3h-223l-30 -217h192q1 0 1 -3l-6 -45q0 -3 -3 -3h-192l-31 -222q0 -3 -2 -3h-49z" />
<glyph horiz-adv-x="407" d="M159 -4q-16 0 -28.5 1t-27.5 4t-26 9.5t-22 15.5t-17.5 24t-11 34t-4.5 45.5t5 58.5l24 173q7 51 23 87.5t33.5 55.5t43.5 29.5t44.5 12.5t45.5 2q36 0 69.5 -6.5t48 -12t18.5 -7.5q2 -1 1 -4l-21 -38q-1 -1 -3 -1l-8 2q-8 2 -20 4.5t-27 5t-32 4.5t-32 2q-23 0 -39 -3.5 t-36.5 -16t-34.5 -43t-21 -79.5l-23 -162q-8 -39 -3.5 -65.5t10 -42.5t20.5 -24t27.5 -10.5t31.5 -2.5q12 0 39.5 4.5t49.5 9.5l22 4l23 165h-77q-3 0 -3 3l6 43q0 3 4 3h127l-36 -254q-120 -30 -163 -30z" />
<glyph horiz-adv-x="433" d="M20 0q-2 0 -2 3l76 538q0 3 2 3h49q2 0 2 -3l-34 -242h211l34 242q0 3 4 3h47q3 0 3 -3l-76 -538q0 -3 -3 -3h-47q-4 0 -4 3l35 248h-211l-35 -248q0 -3 -2 -3h-49z" />
<glyph horiz-adv-x="168" d="M20 0q-2 0 -2 3l76 538q0 3 2 3h49q2 0 2 -3l-76 -538q0 -3 -2 -3h-49z" />
<glyph horiz-adv-x="316" d="M93 -4q-21 0 -46 4t-39.5 7.5t-16.5 4.5t-1 4l18 40q0 1 4 1l6 -1q6 -1 15.5 -2.5t20.5 -3t22.5 -2.5t20.5 -1q25 0 40 3.5t30 22t20 53.5l58 415q0 3 4 3h48q2 0 1 -3l-58 -416q-6 -44 -21 -72t-38 -39t-41.5 -14.5t-46.5 -3.5z" />
<glyph horiz-adv-x="389" d="M20 0q-2 1 -2 3l76 538l2 3h49q2 0 2 -3l-34 -240h23q188 237 191 240t5 3h59q1 0 0 -3l-213 -264q149 -272 150 -274q2 -3 -1 -3h-60q-4 0 -5 3l-132 248h-24l-35 -248q0 -3 -2 -3h-49z" />
<glyph horiz-adv-x="354" d="M18 0l76 541q0 3 2 3h49q2 0 2 -3l-69 -490h223q3 0 3 -3l-6 -44q0 -4 -4 -4h-276z" />
<glyph horiz-adv-x="510" d="M20 0q-2 1 -2 3l76 539q0 2 2 2h63q3 0 4 -2l77 -351h8q170 348 171 350q1 3 4 3h64q2 0 2 -2l-76 -539q0 -3 -2 -3h-48q-3 0 -3 3l59 419h-11q-149 -304 -150 -306q-2 -3 -4 -3h-45q-4 0 -5 3l-65 305h-9l-59 -418q0 -3 -3 -3h-48z" />
<glyph horiz-adv-x="435" d="M19 0q-2 0 -2 3l76 538l2 3h63q4 0 5 -3l129 -438h8l62 438q0 3 3 3h49q2 0 2 -3l-76 -538q0 -3 -2 -3h-64q-1 0 -4 3l-130 442h-8l-62 -442q0 -3 -3 -3h-48z" />
<glyph horiz-adv-x="407" d="M170 47q54 0 86.5 28t44.5 118l22 162q8 38 3.5 64t-10.5 41.5t-21 23.5t-28.5 10.5t-33.5 2.5q-52 0 -84.5 -28t-44.5 -114l-22 -162q-2 -34 -3.5 -58t6 -40.5t14.5 -25.5t20.5 -14t24 -6.5t26.5 -1.5zM163 -4q-14 0 -24.5 0.5t-24.5 2.5t-24 6t-21.5 10.5t-19 16.5 t-14 24.5t-9.5 32.5t-3 43t4 55l24 174q7 50 22 86.5t32.5 55.5t43 29.5t45 13t46.5 2.5q14 0 24 -0.5t24.5 -2.5t24.5 -5.5t22 -10t19.5 -16t15 -23.5t10.5 -32t3 -43t-4 -54l-24 -174q-7 -53 -23.5 -90.5t-34 -56.5t-44.5 -29.5t-45 -12.5t-45 -2z" />
<glyph horiz-adv-x="392" d="M110 275h105q19 0 32.5 2.5t29.5 10.5t26.5 27t14.5 48l6 43q4 29 -0.5 48t-18 26.5t-26.5 10t-33 2.5h-106zM69 0h-49q-2 1 -2 3l76 541h158q13 0 21.5 -0.5t22 -1.5t21.5 -4t19.5 -7.5t17 -11.5t13.5 -17.5t9 -24t3.5 -31t-2.5 -39.5l-6 -46q-5 -37 -19 -64t-30 -40.5 t-39 -21.5t-39 -9.5t-37 -1.5h-105l-31 -221q0 -3 -2 -3z" />
<glyph horiz-adv-x="403" d="M163 -4q-14 0 -24.5 0.5t-24.5 2.5t-24 6t-21.5 10.5t-19 16.5t-14 24.5t-9.5 32.5t-3 43t4 55l24 174q7 50 22 86.5t32.5 55.5t43 29.5t45 13t46.5 2.5q14 0 24 -0.5t24.5 -2.5t24.5 -5.5t22 -10t19.5 -16t15 -23.5t10.5 -32t3 -43t-4 -54l-24 -174q-14 -95 -53 -141 q6 -9 14.5 -20.5t12.5 -16.5l4 -5q3 -1 -1 -5l-34 -31q-2 -2 -4 0l-34 45q-34 -17 -97 -17zM196 104q-2 2 0 5l35 32q4 4 4 0l4 -7q4 -6 13.5 -19t16.5 -23q22 35 32 101l22 162q8 38 3.5 64t-10.5 41.5t-21 23.5t-28.5 10.5t-33.5 2.5q-52 0 -84.5 -28t-44.5 -114l-22 -162 q-2 -34 -3.5 -58t6 -40.5t14.5 -25.5t20.5 -14t24 -6.5t26.5 -1.5q39 0 59 10z" />
<glyph horiz-adv-x="411" d="M109 274h105q18 0 32 2.5t30.5 11t27 27.5t14.5 48l6 43q4 29 -0.5 48t-18 26.5t-26.5 10t-33 2.5h-106zM69 0h-49q-2 1 -2 3l76 541h158q15 0 24.5 -0.5t24.5 -2.5t23.5 -5.5t20.5 -10.5t17 -17t12 -24.5t5.5 -33.5t-2.5 -44l-6 -44q-15 -107 -95 -130l60 -229 q2 -3 -2 -3h-54q-4 0 -5 3l-52 220h-121l-31 -220q0 -3 -2 -3z" />
<glyph horiz-adv-x="397" d="M156 -4q-82 0 -142 30q-2 1 -1 4q19 38 22 41q2 2 3 1q52 -26 127 -26q50 0 79.5 15t36.5 64l7 49q5 37 -17.5 53t-74.5 21q-86 8 -114 37.5t-19 91.5l8 53q17 118 163 118q38 0 70 -6.5t43 -11.5t13 -7t1 -4l-20 -38q-1 -3 -3 -2q-3 2 -15.5 5.5t-40 8t-54.5 4.5 q-43 0 -70 -14t-33 -56l-7 -48q-5 -37 15.5 -54.5t74.5 -22.5q85 -8 115 -35.5t20 -91.5l-8 -53q-6 -41 -24 -68t-45.5 -39t-52 -15.5t-57.5 -3.5z" />
<glyph horiz-adv-x="355" d="M114 0q-4 0 -4 3l69 490h-134q-2 0 -2 3l7 45q0 3 2 3h322q4 0 4 -3l-7 -45q0 -3 -4 -3h-135l-69 -490q0 -3 -2 -3h-47z" />
<glyph horiz-adv-x="422" d="M155 -4q-82 0 -106.5 49.5t-7.5 170.5l46 325q0 3 3 3h49q2 0 2 -3l-45 -319q-16 -92 -3 -133.5t70 -41.5h32q58 0 78.5 37t34.5 138l45 319q0 3 4 3h47q3 0 3 -3l-46 -325q-17 -119 -52.5 -169.5t-121.5 -50.5h-32z" />
<glyph horiz-adv-x="397" d="M128 0q-2 0 -4 3q1 2 -36 268.5t-38 269.5q-2 3 1 3h51q2 0 3 -3l59 -451h12q186 448 188 451t4 3h50q4 0 2 -3l-230 -538q-2 -3 -4 -3h-58z" />
<glyph horiz-adv-x="556" d="M95 0q-3 0 -3 3q0 5 -18.5 271t-19.5 267q-2 3 1 3h51q2 0 3 -3l26 -449h13q126 342 127 344t3 2h43q3 0 4 -2l29 -344h13q152 447 153 449q2 3 4 3h49q5 0 3 -3q-1 -2 -96 -269t-95 -269q0 -3 -4 -3h-61q-3 0 -3 3l-28 332h-8q-119 -329 -120 -332q-3 -3 -4 -3h-62z" />
<glyph horiz-adv-x="371" d="M-22 0q-2 0 -1 3l179 281q-91 255 -92 257q-2 3 3 3h54l3 -3l68 -200h3q122 198 124 200q3 3 5 3h53q3 0 2 -3l-164 -257q100 -279 101 -281q2 -3 -3 -3h-54q-3 0 -4 3l-76 225h-4q-138 -223 -139 -225l-1 -1q-1 -2 -2 -2h-55z" />
<glyph horiz-adv-x="354" d="M114 0q-3 0 -3 3l30 216q-92 320 -93 322q-2 3 1 3h54l3 -3l70 -254h4q139 252 141 254q3 3 4 3h52q3 0 2 -3l-185 -322l-30 -216q0 -3 -2 -3h-48z" />
<glyph horiz-adv-x="363" d="M-5 0q-2 0 -2 2l7 51q0 1 1 2t1 2l291 429l1 6h-221q-2 0 -1 4l6 44q0 4 2 4h280q4 0 4 -4l-7 -48q0 -5 -3 -8l-290 -426l-1 -7h228q4 0 4 -3l-7 -45q0 -3 -3 -3h-290z" />
<glyph horiz-adv-x="288" d="M83 480q-1 0 -1 3l8 58l2 3h44q3 0 3 -3l-8 -58q0 -3 -4 -3h-44zM217 480q-2 0 -2 3l8 58q0 3 3 3h42q2 0 2 -3l-8 -58q0 -3 -3 -3h-42z" />
<glyph horiz-adv-x="289" d="M176 448l-44 109q-2 3 1 3h48q3 0 4 -3l33 -108q2 -4 -2 -4h-37z" />
<glyph horiz-adv-x="288" d="M120 445h-37q-4 0 -2 4q10 16 36.5 54t36.5 54q2 3 5 3h47q4 0 5 -3l42 -109q1 -3 -1 -3h-37q-3 0 -5 4l-31 69h-4q-50 -67 -51 -69q-2 -4 -4 -4z" />
<glyph horiz-adv-x="289" d="M86 476q-2 0 -1 4l4 29q0 4 4 8q28 28 50 28q16 0 37.5 -15t35.5 -15q15 0 30.5 14t16.5 14q2 0 2 -3l-4 -29q-2 -8 -4 -10q-28 -28 -51 -28q-17 0 -38 15.5t-34 15.5q-14 0 -30.5 -14t-17.5 -14z" />
<glyph horiz-adv-x="288" d="M261 490h-176q-2 0 -2 3l6 39q0 3 2 3h176q2 0 2 -3l-6 -39q0 -3 -2 -3z" />
<glyph horiz-adv-x="289" d="M159 449q0 -4 -3 -4h-38q-3 0 -1 4l63 108q2 3 5 3h49q2 0 0 -3z" />
<glyph horiz-adv-x="288" d="M93 -118h-48l-1 4q5 2 63 119q1 3 5 3h37q3 0 1 -3l-52 -119q-1 -4 -5 -4z" />
<glyph horiz-adv-x="289" d="M169 454q-77 0 -77 73q0 21 5 21h22q6 0 6 -4q4 -31 13.5 -41t35.5 -10q24 0 37 10.5t25 40.5q2 4 5 4h24q3 0 2 -4q-19 -90 -98 -90z" />
<glyph horiz-adv-x="288" d="M145 478q-2 0 -1 3l8 60q0 3 2 3h51q2 0 2 -3l-8 -60q-1 -3 -4 -3h-50z" />
<glyph horiz-adv-x="288" d="M167 461q17 0 26.5 7.5t13.5 30.5l2 10q4 22 -3.5 29.5t-24.5 7.5q-18 0 -28 -7.5t-14 -29.5l-2 -10q-7 -38 30 -38zM163 433q-13 0 -22 2t-18 8t-12 19.5t-1 33.5l2 17q7 61 73 61q17 0 28 -3t19 -17.5t5 -40.5l-2 -17q-5 -39 -24 -51t-48 -12z" />
<glyph horiz-adv-x="287" d="M115 449q-1 -3 -4 -3h-38q-3 0 -1 3l63 108q1 3 5 3h49q1 0 0 -3q0 -1 -18 -27t-36.5 -53t-19.5 -28zM205 449q-1 -3 -4 -3h-37l-1 1q0 3 29.5 54t33.5 56q2 3 6 3h47q3 0 1 -3q0 -1 -18.5 -27t-37 -53t-19.5 -28z" />
<glyph horiz-adv-x="289" d="M86 -139q-23 0 -35 8.5t-12 33.5q0 32 17 54.5t49 47.5q3 3 9 3h36q4 0 2 -4l-2 -3q-67 -50 -67 -83q0 -15 16 -15q4 0 8.5 1.5t8.5 4t5 2.5q3 1 4 -1q1 -1 5 -11.5t4 -11.5q2 -4 -2 -8q-18 -18 -46 -18z" />
<glyph horiz-adv-x="288" d="M230 560h39q4 0 1 -4l-81 -108q-3 -3 -4 -3h-35q-4 0 -6 3q-6 15 -24.5 53.5t-24.5 55.5q-1 3 1 3h40q1 0 4 -3l32 -70h3q49 68 51 70q3 3 4 3z" />
<glyph horiz-adv-x="403" d="M27 0h-51q-2 0 -1 3t116 270t115 268q0 3 3 3h58q3 0 3 -2l78 -539q2 -3 -2 -3h-50q-2 0 -3 3l-16 116h-198q-48 -114 -49 -116q-2 -3 -3 -3zM101 169h169l-38 288h-12zM254 608l-43 109q-1 3 1 3h48q3 0 3 -3l33 -108q2 -4 -1 -4h-37q-1 0 -4 3z" />
<glyph horiz-adv-x="403" d="M27 0h-51q-2 0 -1 3t116 270t115 268q0 3 3 3h58q3 0 3 -2l78 -539q2 -3 -2 -3h-50q-2 0 -3 3l-16 116h-198q-48 -114 -49 -116q-2 -3 -3 -3zM101 169h169l-38 288h-12zM236 609q0 -4 -3 -4h-38q-4 0 0 4l63 108q2 3 4 3h49q3 0 1 -3z" />
<glyph horiz-adv-x="403" d="M27 0h-51q-2 0 -1 3t116 270t115 268q0 3 3 3h58q3 0 3 -2l78 -539q2 -3 -2 -3h-50q-2 0 -3 3l-16 116h-198q-48 -114 -49 -116q-2 -3 -3 -3zM101 169h169l-38 288h-12zM199 605h-37q-4 0 -2 4q10 16 37 54t37 54q2 3 4 3h47q4 0 5 -3l42 -109q2 -3 -1 -3h-37q-3 0 -5 4 l-31 69h-4q-50 -67 -51 -69q-2 -4 -4 -4z" />
<glyph horiz-adv-x="403" d="M27 0h-51q-2 0 -1 3t116 270t115 268q0 3 3 3h58q3 0 3 -2l78 -539q2 -3 -2 -3h-50q-2 0 -3 3l-16 116h-198q-48 -114 -49 -116q-2 -3 -3 -3zM101 169h169l-38 288h-12zM165 636q-1 0 -1 4l4 29q0 4 4 8q28 28 50 28q16 0 38 -15t36 -15q15 0 30.5 14t16.5 14t1 -3 l-4 -29q-2 -9 -3 -10q-28 -28 -51 -28q-17 0 -38.5 15.5t-34.5 15.5q-14 0 -30.5 -14t-17.5 -14z" />
<glyph horiz-adv-x="403" d="M27 0h-51q-2 0 -1 3t116 270t115 268q0 3 3 3h58q3 0 3 -2l78 -539q2 -3 -2 -3h-50q-2 0 -3 3l-16 116h-198q-48 -114 -49 -116q-2 -3 -3 -3zM101 169h169l-38 288h-12zM162 640q-2 0 -2 3l8 58l3 3h44q2 0 2 -3l-8 -58q0 -3 -3 -3h-44zM296 640q-3 0 -3 3l8 58q0 3 4 3 h42q1 0 1 -3l-8 -58q0 -3 -2 -3h-42z" />
<glyph horiz-adv-x="403" d="M27 0h-51q-2 0 -1 3t116 270t115 268q0 3 3 3h58q3 0 3 -2l78 -539q2 -3 -2 -3h-50q-2 0 -3 3l-16 116h-198q-48 -114 -49 -116q-2 -3 -3 -3zM101 169h169l-38 288h-12zM244 593q-13 0 -22 2t-18 8t-12 19.5t-1 33.5l2 17q7 61 73 61q12 0 21 -2t18.5 -7.5t13 -18.5 t0.5 -33l-3 -17q-7 -39 -25 -51t-47 -12zM248 621q17 0 26.5 7.5t13.5 30.5l2 10q4 22 -3.5 29.5t-24.5 7.5q-18 0 -28 -7.5t-14 -29.5l-2 -10q-7 -38 30 -38z" />
<glyph horiz-adv-x="371" d="M134 -118h-48l-1 4l11 22q12 22 26.5 50t20.5 39q-24 1 -42 5.5t-36.5 16.5t-27 32.5t-14 54.5t3.5 82l24 173q7 50 22 85.5t32.5 55t42.5 30.5t45.5 13.5t48.5 2.5q13 0 26 -1t22.5 -2.5t18.5 -3t16 -4t12 -4.5t9.5 -4t7 -3.5t4.5 -2.5l1 -1q2 -1 1 -4q0 -1 -5.5 -10.5 t-10.5 -18.5l-5 -9q0 -4 -4 -2q-1 1 -14.5 5.5t-38.5 9t-47 4.5q-24 0 -40.5 -4t-36.5 -16.5t-33.5 -43t-20.5 -78.5l-23 -162q-12 -88 12.5 -116.5t78.5 -28.5q63 0 113 25q1 1 2 -2q1 -1 6.5 -18.5t5.5 -18.5q1 -2 -2 -4l-2 -1q-2 -1 -5 -3t-7 -4t-9.5 -4.5t-12.5 -5 t-15 -5t-17 -4.5t-20 -3.5t-22 -2.5l-48 -111q-1 -4 -5 -4z" />
<glyph horiz-adv-x="370" d="M18 0l76 544h276q3 0 3 -3l-6 -45q0 -3 -4 -3h-223l-27 -191h192q2 0 2 -3l-6 -45q0 -3 -3 -3h-192l-28 -200h223q3 0 3 -3l-7 -45q0 -3 -3 -3h-276zM239 608l-44 109q-1 3 1 3h48q2 0 4 -3l33 -108q2 -4 -2 -4h-37z" />
<glyph horiz-adv-x="370" d="M18 0l76 544h276q3 0 3 -3l-6 -45q0 -3 -4 -3h-223l-27 -191h192q2 0 2 -3l-6 -45q0 -3 -3 -3h-192l-28 -200h223q3 0 3 -3l-7 -45q0 -3 -3 -3h-276zM228 609q-2 -4 -4 -4h-38q-2 0 0 4l63 108q1 3 4 3h49q2 0 1 -3z" />
<glyph horiz-adv-x="370" d="M18 0l76 544h276q3 0 3 -3l-6 -45q0 -3 -4 -3h-223l-27 -191h192q2 0 2 -3l-6 -45q0 -3 -3 -3h-192l-28 -200h223q3 0 3 -3l-7 -45q0 -3 -3 -3h-276zM189 605h-37q-3 0 -1 4q10 16 36.5 54t36.5 54q2 3 4 3h47q4 0 5 -3l42 -109q2 -3 -1 -3h-37q-3 0 -5 4l-31 69h-4 q-49 -67 -50 -69q-2 -4 -5 -4z" />
<glyph horiz-adv-x="370" d="M18 0l76 544h276q3 0 3 -3l-6 -45q0 -3 -4 -3h-223l-27 -191h192q2 0 2 -3l-6 -45q0 -3 -3 -3h-192l-28 -200h223q3 0 3 -3l-7 -45q0 -3 -3 -3h-276zM151 640q-2 0 -2 3l9 58l2 3h44q2 0 2 -3l-8 -58q0 -3 -3 -3h-44zM285 640q-3 0 -3 3l9 58q0 3 3 3h42q1 0 1 -3l-8 -58 q0 -3 -2 -3h-42z" />
<glyph horiz-adv-x="168" d="M20 0q-2 0 -2 3l76 538q0 3 2 3h49q2 0 2 -3l-76 -538q0 -3 -2 -3h-49zM138 608l-43 109q-1 3 1 3h48q3 0 3 -3l33 -108q2 -4 -1 -4h-37q-1 0 -4 3z" />
<glyph horiz-adv-x="168" d="M20 0q-2 0 -2 3l76 538q0 3 2 3h49q2 0 2 -3l-76 -538q0 -3 -2 -3h-49zM120 609q0 -4 -3 -4h-38q-4 0 0 4l63 108q2 3 4 3h49q1 0 0 -3z" />
<glyph horiz-adv-x="168" d="M20 0q-2 0 -2 3l76 538q0 3 2 3h49q2 0 2 -3l-76 -538q0 -3 -2 -3h-49zM82 605h-37q-4 0 -2 4q10 16 37 54t37 54q1 3 4 3h47q4 0 5 -3l42 -109q1 -3 -1 -3h-37q-3 0 -5 4l-31 69h-4q-50 -67 -51 -69q-2 -4 -4 -4z" />
<glyph horiz-adv-x="168" d="M20 0q-2 0 -2 3l76 538q0 3 2 3h49q2 0 2 -3l-76 -538q0 -3 -2 -3h-49zM46 640q-2 0 -2 3l9 58l2 3h44q2 0 2 -3l-8 -58q0 -3 -3 -3h-44zM180 640q-3 0 -3 3l9 58q0 3 3 3h42q1 0 1 -3l-8 -58q0 -3 -2 -3h-42z" />
<glyph horiz-adv-x="435" d="M19 0q-2 0 -2 3l76 538l2 3h63q4 0 5 -3l129 -438h8l62 438q0 3 3 3h49q2 0 2 -3l-76 -538q0 -3 -2 -3h-64q-1 0 -4 3l-130 442h-8l-62 -442q0 -3 -3 -3h-48zM183 636q-1 0 -1 4l4 29q0 4 4 8q28 28 50 28q16 0 38 -15t36 -15q15 0 30.5 14t16.5 14t1 -3l-4 -29 q-2 -9 -3 -10q-28 -28 -51 -28q-17 0 -38.5 15.5t-34.5 15.5q-14 0 -30.5 -14t-17.5 -14z" />
<glyph horiz-adv-x="407" d="M163 -4q-14 0 -24.5 0.5t-24.5 2.5t-24 6t-21.5 10.5t-19 16.5t-14 24.5t-9.5 32.5t-3 43t4 55l24 174q7 50 22 86.5t32.5 55.5t43 29.5t45 13t46.5 2.5q14 0 24 -0.5t24.5 -2.5t24.5 -5.5t22 -10t19.5 -16t15 -23.5t10.5 -32t3 -43t-4 -54l-24 -174q-7 -53 -23.5 -90.5 t-34 -56.5t-44.5 -29.5t-45 -12.5t-45 -2zM170 47q54 0 86.5 28t44.5 118l22 162q8 38 3.5 64t-10.5 41.5t-21 23.5t-28.5 10.5t-33.5 2.5q-52 0 -84.5 -28t-44.5 -114l-22 -162q-2 -34 -3.5 -58t6 -40.5t14.5 -25.5t20.5 -14t24 -6.5t26.5 -1.5zM257 608l-44 109q-1 3 2 3 h48q1 0 3 -3l33 -108q2 -4 -2 -4h-37z" />
<glyph horiz-adv-x="407" d="M163 -4q-14 0 -24.5 0.5t-24.5 2.5t-24 6t-21.5 10.5t-19 16.5t-14 24.5t-9.5 32.5t-3 43t4 55l24 174q7 50 22 86.5t32.5 55.5t43 29.5t45 13t46.5 2.5q14 0 24 -0.5t24.5 -2.5t24.5 -5.5t22 -10t19.5 -16t15 -23.5t10.5 -32t3 -43t-4 -54l-24 -174q-7 -53 -23.5 -90.5 t-34 -56.5t-44.5 -29.5t-45 -12.5t-45 -2zM170 47q54 0 86.5 28t44.5 118l22 162q8 38 3.5 64t-10.5 41.5t-21 23.5t-28.5 10.5t-33.5 2.5q-52 0 -84.5 -28t-44.5 -114l-22 -162q-2 -34 -3.5 -58t6 -40.5t14.5 -25.5t20.5 -14t24 -6.5t26.5 -1.5zM240 609q0 -4 -4 -4h-38 q-2 0 0 4l63 108q1 3 5 3h49q1 0 0 -3z" />
<glyph horiz-adv-x="407" d="M163 -4q-14 0 -24.5 0.5t-24.5 2.5t-24 6t-21.5 10.5t-19 16.5t-14 24.5t-9.5 32.5t-3 43t4 55l24 174q7 50 22 86.5t32.5 55.5t43 29.5t45 13t46.5 2.5q14 0 24 -0.5t24.5 -2.5t24.5 -5.5t22 -10t19.5 -16t15 -23.5t10.5 -32t3 -43t-4 -54l-24 -174q-7 -53 -23.5 -90.5 t-34 -56.5t-44.5 -29.5t-45 -12.5t-45 -2zM170 47q54 0 86.5 28t44.5 118l22 162q8 38 3.5 64t-10.5 41.5t-21 23.5t-28.5 10.5t-33.5 2.5q-52 0 -84.5 -28t-44.5 -114l-22 -162q-2 -34 -3.5 -58t6 -40.5t14.5 -25.5t20.5 -14t24 -6.5t26.5 -1.5zM201 605h-37q-3 0 -1 4 q10 16 36.5 54t36.5 54q2 3 5 3h47q3 0 4 -3l43 -109q1 -3 -2 -3h-37q-2 0 -4 4l-31 69h-4q-50 -67 -51 -69q-2 -4 -5 -4z" />
<glyph horiz-adv-x="407" d="M170 47q54 0 86.5 28t44.5 118l22 162q8 38 3.5 64t-10.5 41.5t-21 23.5t-28.5 10.5t-33.5 2.5q-52 0 -84.5 -28t-44.5 -114l-22 -162q-2 -34 -3.5 -58t6 -40.5t14.5 -25.5t20.5 -14t24 -6.5t26.5 -1.5zM163 -4q-14 0 -24.5 0.5t-24.5 2.5t-24 6t-21.5 10.5t-19 16.5 t-14 24.5t-9.5 32.5t-3 43t4 55l24 174q7 50 22 86.5t32.5 55.5t43 29.5t45 13t46.5 2.5q14 0 24 -0.5t24.5 -2.5t24.5 -5.5t22 -10t19.5 -16t15 -23.5t10.5 -32t3 -43t-4 -54l-24 -174q-7 -53 -23.5 -90.5t-34 -56.5t-44.5 -29.5t-45 -12.5t-45 -2zM169 636q-2 0 -2 4l4 29 q0 3 5 8q28 28 50 28q16 0 37.5 -15t35.5 -15q15 0 30.5 14t16.5 14q2 0 2 -3l-4 -29q-2 -8 -4 -10q-28 -28 -51 -28q-17 0 -38 15.5t-34 15.5q-14 0 -30.5 -14t-17.5 -14z" />
<glyph horiz-adv-x="407" d="M163 -4q-14 0 -24.5 0.5t-24.5 2.5t-24 6t-21.5 10.5t-19 16.5t-14 24.5t-9.5 32.5t-3 43t4 55l24 174q7 50 22 86.5t32.5 55.5t43 29.5t45 13t46.5 2.5q14 0 24 -0.5t24.5 -2.5t24.5 -5.5t22 -10t19.5 -16t15 -23.5t10.5 -32t3 -43t-4 -54l-24 -174q-7 -53 -23.5 -90.5 t-34 -56.5t-44.5 -29.5t-45 -12.5t-45 -2zM170 47q54 0 86.5 28t44.5 118l22 162q8 38 3.5 64t-10.5 41.5t-21 23.5t-28.5 10.5t-33.5 2.5q-52 0 -84.5 -28t-44.5 -114l-22 -162q-2 -34 -3.5 -58t6 -40.5t14.5 -25.5t20.5 -14t24 -6.5t26.5 -1.5zM165 640q-1 0 -1 3l8 58 l2 3h44q3 0 3 -3l-8 -58q0 -3 -4 -3h-44zM299 640q-2 0 -2 3l8 58q0 3 3 3h42q2 0 2 -3l-8 -58q0 -3 -3 -3h-42z" />
<glyph horiz-adv-x="422" d="M155 -4q-82 0 -106.5 49.5t-7.5 170.5l46 325q0 3 3 3h49q2 0 2 -3l-45 -319q-16 -92 -3 -133.5t70 -41.5h32q58 0 78.5 37t34.5 138l45 319q0 3 4 3h47q3 0 3 -3l-46 -325q-17 -119 -52.5 -169.5t-121.5 -50.5h-32zM266 608l-44 109q-2 3 1 3h48q3 0 4 -3l33 -108 q2 -4 -2 -4h-37z" />
<glyph horiz-adv-x="422" d="M155 -4q-82 0 -106.5 49.5t-7.5 170.5l46 325q0 3 3 3h49q2 0 2 -3l-45 -319q-16 -92 -3 -133.5t70 -41.5h32q58 0 78.5 37t34.5 138l45 319q0 3 4 3h47q3 0 3 -3l-46 -325q-17 -119 -52.5 -169.5t-121.5 -50.5h-32zM248 609q-2 -4 -4 -4h-38q-2 0 0 4l63 108q1 3 4 3h49 q2 0 1 -3z" />
<glyph horiz-adv-x="422" d="M155 -4q-82 0 -106.5 49.5t-7.5 170.5l46 325q0 3 3 3h49q2 0 2 -3l-45 -319q-16 -92 -3 -133.5t70 -41.5h32q58 0 78.5 37t34.5 138l45 319q0 3 4 3h47q3 0 3 -3l-46 -325q-17 -119 -52.5 -169.5t-121.5 -50.5h-32zM209 605h-37q-3 0 -1 4q10 16 36.5 54t36.5 54 q2 3 4 3h47q4 0 5 -3l42 -109q2 -3 -1 -3h-37q-3 0 -5 4l-31 69h-4q-49 -67 -50 -69q-2 -4 -5 -4z" />
<glyph horiz-adv-x="422" d="M155 -4q-82 0 -106.5 49.5t-7.5 170.5l46 325q0 3 3 3h49q2 0 2 -3l-45 -319q-16 -92 -3 -133.5t70 -41.5h32q58 0 78.5 37t34.5 138l45 319q0 3 4 3h47q3 0 3 -3l-46 -325q-17 -119 -52.5 -169.5t-121.5 -50.5h-32zM174 640q-2 0 -2 3l9 58l2 3h44q2 0 2 -3l-8 -58 q0 -3 -3 -3h-44zM308 640q-3 0 -3 3l9 58q0 3 3 3h42q1 0 1 -3l-8 -58q0 -3 -2 -3h-42z" />
<glyph horiz-adv-x="354" d="M114 0q-3 0 -3 3l30 216q-92 320 -93 322q-2 3 1 3h54l3 -3l70 -254h4q139 252 141 254q3 3 4 3h52q3 0 2 -3l-185 -322l-30 -216q0 -3 -2 -3h-48zM212 609q0 -4 -3 -4h-38q-3 0 -1 4l63 108q1 3 5 3h49q1 0 0 -3z" />
<glyph horiz-adv-x="354" d="M114 0q-3 0 -3 3l30 216q-92 320 -93 322q-2 3 1 3h54l3 -3l70 -254h4q139 252 141 254q3 3 4 3h52q3 0 2 -3l-185 -322l-30 -216q0 -3 -2 -3h-48zM140 640q-2 0 -2 3l8 58l3 3h44q2 0 2 -3l-8 -58q0 -3 -3 -3h-44zM274 640q-3 0 -3 3l8 58q0 3 4 3h42q1 0 1 -3l-8 -58 q0 -3 -2 -3h-42z" />
<glyph horiz-adv-x="407" d="M10 -32q-3 0 0 3l37 63q-35 45 -20 153l24 174q7 50 22 86.5t32.5 55.5t43 29.5t45 13t46.5 2.5q58 0 87 -14l25 39q3 3 5 3h40q4 0 1 -3t-39 -65q34 -45 20 -147l-24 -174q-7 -53 -23.5 -90.5t-34 -56.5t-44.5 -29.5t-45 -12.5t-45 -2q-54 0 -84 13q-23 -35 -23 -38 q-2 -3 -5 -3h-41zM170 47q54 0 86.5 28t44.5 118l22 162q8 38 3.5 64t-10.5 41.5t-21 23.5t-28.5 10.5t-33.5 2.5q-52 0 -84.5 -28t-44.5 -114l-23 -162q-8 -40 -3 -67t11 -43t21.5 -24t28 -10t31.5 -2z" />
<glyph horiz-adv-x="397" d="M156 -4q-82 0 -142 30q-2 1 -1 4q19 38 22 41q2 2 3 1q52 -26 127 -26q50 0 79.5 15t36.5 64l7 49q5 37 -17.5 53t-74.5 21q-86 8 -114 37.5t-19 91.5l8 53q17 118 163 118q38 0 70 -6.5t43 -11.5t13 -7t1 -4l-20 -38q-1 -3 -3 -2q-3 2 -15.5 5.5t-40 8t-54.5 4.5 q-43 0 -70 -14t-33 -56l-7 -48q-5 -37 15.5 -54.5t74.5 -22.5q85 -8 115 -35.5t20 -91.5l-8 -53q-6 -41 -24 -68t-45.5 -39t-52 -15.5t-57.5 -3.5zM307 721h39q3 0 0 -4l-80 -108q-3 -3 -5 -3h-35q-4 0 -5 3q-6 16 -25 54.5t-25 54.5q-1 3 2 3h40l3 -3l32 -70h3q49 68 51 70 q3 3 5 3z" />
<glyph horiz-adv-x="363" d="M-5 0q-2 0 -2 2l7 51q0 1 1 2t1 2l291 429l1 6h-221q-2 0 -1 4l6 44q0 4 2 4h280q4 0 4 -4l-7 -48q0 -5 -3 -8l-290 -426l-1 -7h228q4 0 4 -3l-7 -45q0 -3 -3 -3h-290zM289 721h39q4 0 0 -4l-80 -108q-3 -3 -4 -3h-35q-3 0 -5 3q-6 16 -25 54.5t-25 54.5q-2 3 1 3h40 q1 0 4 -3l32 -70h3q49 68 51 70q3 3 4 3z" />
<glyph horiz-adv-x="623" d="M137 169h156l42 299h-14zM28 0h-51q-3 0 -1 3q1 3 170.5 268.5t172.5 268.5q3 4 4 4h295q3 0 3 -3l-6 -45q0 -3 -4 -3h-220l-27 -191h189q2 0 2 -3l-6 -45q0 -3 -3 -3h-189l-28 -200h220q3 0 3 -3l-7 -45q0 -3 -3 -3h-273l17 119h-181q-71 -114 -73 -116q-3 -3 -4 -3z " />
<glyph horiz-adv-x="625" d="M170 47q51 0 84.5 30.5t47.5 123.5l21 146q3 35 3.5 59.5t-7.5 41t-15.5 26.5t-21 15t-24 6.5t-24.5 1.5q-23 0 -39.5 -4t-36 -17.5t-33 -44t-20.5 -77.5l-23 -161q-2 -34 -3.5 -58.5t6.5 -40.5t15 -25.5t20.5 -14t24 -6t25.5 -1.5zM163 -4q-18 0 -31.5 1t-31.5 5.5 t-28.5 12.5t-23.5 22t-17 34.5t-7.5 49.5t4.5 68l23 170q7 52 23 88.5t33.5 56t43.5 30t44.5 12.5t45.5 2q72 0 103 -48l6 44h276q3 0 3 -3l-6 -45q0 -3 -4 -3h-222l-27 -191h191q3 0 3 -3l-6 -45q0 -3 -4 -3h-191l-28 -200h222q3 0 3 -3l-7 -45q0 -3 -3 -3h-276l6 44 q-45 -48 -117 -48z" />
<glyph horiz-adv-x="414" d="M77 51h97q26 0 41.5 3t35.5 15.5t33.5 43.5t20.5 80l23 161q3 25 3.5 45t-3 34t-8 24.5t-13 17t-15.5 10.5t-18 5.5t-18.5 2t-19.5 0.5h-97l-27 -195h87q2 0 2 -3l-6 -40q0 -3 -3 -3h-87zM161 0h-144l35 252h-33q-1 0 -1 3l5 40q1 3 3 3h33l34 246h144q36 0 60 -5t50 -22 t35.5 -56.5t0.5 -100.5l-24 -171q-7 -54 -25 -91.5t-36 -56t-47 -28.5t-45.5 -11.5t-44.5 -1.5z" />
<glyph horiz-adv-x="392" d="M95 175h105q19 0 33 3t30 11.5t26.5 27.5t14.5 47l5 35q7 54 -14.5 70.5t-63.5 16.5h-106zM69 0h-49q-2 2 -2 3l76 538l2 3h49q2 0 2 -3l-15 -104h105q31 0 49 -3t41.5 -15t32 -42t2.5 -77l-5 -38q-6 -46 -24 -76t-45 -42t-47.5 -15.5t-47.5 -3.5h-105l-17 -122 q0 -3 -2 -3z" />
<glyph horiz-adv-x="354" d="M18 0l32 229q-42 -27 -44 -28t-2 2l7 46q0 3 3 5l43 27l37 260q0 3 3 3h47q3 0 3 -3l-32 -228q113 74 114 74q1 1 1.5 0.5t0.5 -2.5l-6 -46q0 -2 -3 -5l-115 -74l-29 -209h223q2 0 2 -3l-7 -45q0 -3 -2 -3h-276z" />
<glyph horiz-adv-x="403" d="M27 0h-51q-2 0 -1 3t116 270t115 268q0 3 3 3h58q3 0 3 -2l78 -539q2 -3 -2 -3h-50q-2 0 -3 3l-16 116h-198q-48 -114 -49 -116q-2 -3 -3 -3zM101 169h169l-38 288h-12zM340 652h-176q-1 0 -1 3l5 39q0 3 3 3h176q1 0 1 -3l-5 -39q0 -3 -3 -3z" />
<glyph horiz-adv-x="403" d="M27 0h-51q-2 0 -1 3t116 270t115 268q0 3 3 3h58q3 0 3 -2l78 -539q2 -3 -2 -3h-50q-2 0 -3 3l-16 116h-198q-48 -114 -49 -116q-2 -3 -3 -3zM101 169h169l-38 288h-12zM248 615q-77 0 -77 73q0 21 6 21h22q5 0 5 -4q4 -31 14 -41t36 -10q24 0 36.5 10.5t24.5 40.5 q2 4 6 4h24q3 0 2 -4q-19 -90 -99 -90z" />
<glyph horiz-adv-x="403" d="M279 -139q-46 0 -46 42q0 52 61 98q0 1 -0.5 1t-0.5 1l-16 116h-198q-48 -114 -49 -116q-2 -3 -3 -3h-51q-2 0 -1 3t116 270t115 268q0 3 3 3h58q3 0 3 -2l78 -539q2 -3 -2 -3h-3q-66 -49 -66 -82q0 -15 16 -15q4 0 8 1.5t8 4t5 2.5q3 1 4 -1q1 -1 5.5 -11.5t4.5 -11.5 q2 -4 -2 -8q-18 -18 -47 -18zM101 169h169l-38 288h-12z" />
<glyph horiz-adv-x="371" d="M164 -4q-17 0 -29.5 1t-28.5 4t-27 9t-23 15.5t-18 23.5t-12 34t-4.5 46t4.5 59l24 173q7 50 22 85.5t32.5 55t43 30.5t46 13.5t48.5 2.5q13 0 25.5 -1t22.5 -2.5t19 -3t15.5 -4t12 -4.5t9.5 -4t6.5 -3.5t3.5 -2.5l2 -1q2 -1 1 -4q0 -1 -5.5 -10.5t-10.5 -18.5l-5 -9 q0 -4 -4 -2q-1 1 -14.5 5.5t-38.5 9t-47 4.5q-24 0 -40.5 -4t-36.5 -16.5t-34 -43t-20 -78.5l-22 -162q-12 -88 12 -116.5t78 -28.5q63 0 113 25q1 1 3 -2q1 -2 6.5 -19t4.5 -18q1 -2 -2 -4l-1 -1q-54 -33 -131 -33zM237 611q0 -4 -3 -4h-38q-4 0 0 4l63 108q1 3 4 3h49 q2 0 1 -3z" />
<glyph horiz-adv-x="371" d="M164 -4q-17 0 -29.5 1t-28.5 4t-27 9t-23 15.5t-18 23.5t-12 34t-4.5 46t4.5 59l24 173q7 50 22 85.5t32.5 55t43 30.5t46 13.5t48.5 2.5q13 0 25.5 -1t22.5 -2.5t19 -3t15.5 -4t12 -4.5t9.5 -4t6.5 -3.5t3.5 -2.5l2 -1q2 -1 1 -4q0 -1 -5.5 -10.5t-10.5 -18.5l-5 -9 q0 -4 -4 -2q-1 1 -14.5 5.5t-38.5 9t-47 4.5q-24 0 -40.5 -4t-36.5 -16.5t-34 -43t-20 -78.5l-22 -162q-12 -88 12 -116.5t78 -28.5q63 0 113 25q1 1 3 -2q1 -2 6.5 -19t4.5 -18q1 -2 -2 -4l-1 -1q-54 -33 -131 -33zM200 607h-37q-4 0 -2 4q10 16 37 54t37 54q1 3 4 3h47 q4 0 5 -3l42 -109q1 -3 -1 -3h-37q-3 0 -5 4l-31 69h-4q-50 -67 -51 -69q-2 -4 -4 -4z" />
<glyph horiz-adv-x="371" d="M164 -4q-17 0 -29.5 1t-28.5 4t-27 9t-23 15.5t-18 23.5t-12 34t-4.5 46t4.5 59l24 173q7 50 22 85.5t32.5 55t43 30.5t46 13.5t48.5 2.5q13 0 25.5 -1t22.5 -2.5t19 -3t15.5 -4t12 -4.5t9.5 -4t6.5 -3.5t3.5 -2.5l2 -1q2 -1 1 -4q0 -1 -5.5 -10.5t-10.5 -18.5l-5 -9 q0 -4 -4 -2q-1 1 -14.5 5.5t-38.5 9t-47 4.5q-24 0 -40.5 -4t-36.5 -16.5t-34 -43t-20 -78.5l-22 -162q-12 -88 12 -116.5t78 -28.5q63 0 113 25q1 1 3 -2q1 -2 6.5 -19t4.5 -18q1 -2 -2 -4l-1 -1q-54 -33 -131 -33zM224 639q-1 0 -1 3l8 60q0 3 3 3h51q1 0 1 -3l-8 -60 q-1 -3 -4 -3h-50z" />
<glyph horiz-adv-x="371" d="M164 -4q-17 0 -29.5 1t-28.5 4t-27 9t-23 15.5t-18 23.5t-12 34t-4.5 46t4.5 59l24 173q7 50 22 85.5t32.5 55t43 30.5t46 13.5t48.5 2.5q13 0 25.5 -1t22.5 -2.5t19 -3t15.5 -4t12 -4.5t9.5 -4t6.5 -3.5t3.5 -2.5l2 -1q2 -1 1 -4q0 -1 -5.5 -10.5t-10.5 -18.5l-5 -9 q0 -4 -4 -2q-1 1 -14.5 5.5t-38.5 9t-47 4.5q-24 0 -40.5 -4t-36.5 -16.5t-34 -43t-20 -78.5l-22 -162q-12 -88 12 -116.5t78 -28.5q63 0 113 25q1 1 3 -2q1 -2 6.5 -19t4.5 -18q1 -2 -2 -4l-1 -1q-54 -33 -131 -33zM309 721h39q4 0 1 -4l-81 -108q-3 -3 -4 -3h-35 q-5 0 -6 3q-6 16 -24.5 54.5t-24.5 54.5q-2 3 1 3h40q1 0 4 -3l32 -70h3q49 68 51 70q3 3 4 3z" />
<glyph horiz-adv-x="414" d="M78 51h96q57 0 88 27.5t43 115.5l23 160q2 33 3.5 56t-6.5 38.5t-14.5 24.5t-21 13.5t-25.5 5.5t-28 1h-96zM167 0h-149l76 544h149q13 0 21.5 -0.5t22 -1.5t22 -3.5t20.5 -7t19.5 -11.5t16 -17t12.5 -23.5t7.5 -30.5t3 -39.5t-4.5 -49.5l-24 -171q-7 -53 -23 -90 t-33 -56t-43.5 -29t-45 -12t-47.5 -2zM313 721h39q4 0 0 -4l-80 -108q-3 -3 -4 -3h-35q-3 0 -5 3q-6 15 -25 53.5t-25 55.5q-2 3 1 3h40q1 0 4 -3l32 -70h3q49 68 51 70q3 3 4 3z" />
<glyph horiz-adv-x="414" d="M77 51h97q26 0 41.5 3t35.5 15.5t33.5 43.5t20.5 80l23 161q3 25 3.5 45t-3 34t-8 24.5t-13 17t-15.5 10.5t-18 5.5t-18.5 2t-19.5 0.5h-97l-27 -195h87q2 0 2 -3l-6 -40q0 -3 -3 -3h-87zM161 0h-144l35 252h-33q-1 0 -1 3l5 40q1 3 3 3h33l34 246h144q36 0 60 -5t50 -22 t35.5 -56.5t0.5 -100.5l-24 -171q-7 -54 -25 -91.5t-36 -56t-47 -28.5t-45.5 -11.5t-44.5 -1.5z" />
<glyph horiz-adv-x="370" d="M18 0l76 544h276q3 0 3 -3l-6 -45q0 -3 -4 -3h-223l-27 -191h192q2 0 2 -3l-6 -45q0 -3 -3 -3h-192l-28 -200h223q3 0 3 -3l-7 -45q0 -3 -3 -3h-276zM337 652h-176q-2 0 -2 3l6 39q0 3 2 3h176q1 0 1 -3l-5 -39q0 -3 -2 -3z" />
<glyph horiz-adv-x="370" d="M18 0l76 544h276q3 0 3 -3l-6 -45q0 -3 -4 -3h-223l-27 -191h192q2 0 2 -3l-6 -45q0 -3 -3 -3h-192l-28 -200h223q3 0 3 -3l-7 -45q0 -3 -3 -3h-276zM245 615q-76 0 -76 73q0 21 5 21h22q5 0 5 -4q4 -31 13.5 -41t36.5 -10q24 0 36.5 10.5t24.5 40.5q2 4 6 4h24q3 0 2 -4 q-19 -90 -99 -90z" />
<glyph horiz-adv-x="370" d="M18 0l76 544h276q3 0 3 -3l-6 -45q0 -3 -4 -3h-223l-27 -191h192q2 0 2 -3l-6 -45q0 -3 -3 -3h-192l-28 -200h223q3 0 3 -3l-7 -45q0 -3 -3 -3h-276zM229 639q-2 0 -2 3l9 60q0 3 2 3h51q2 0 2 -3l-9 -60q0 -3 -3 -3h-50z" />
<glyph horiz-adv-x="370" d="M18 0l76 544h276q3 0 3 -3l-6 -45q0 -3 -4 -3h-223l-27 -191h192q2 0 2 -3l-6 -45q0 -3 -3 -3h-192l-28 -200h223q3 0 3 -3l-7 -45q0 -3 -3 -3h-1q-66 -49 -66 -82q0 -15 16 -15q4 0 8 1.5t8 4t5 2.5q3 1 4 -1q0 -1 4.5 -11.5t5.5 -11.5q2 -4 -2 -8q-18 -18 -47 -18 q-46 0 -46 42q0 52 59 97h-224z" />
<glyph horiz-adv-x="370" d="M18 0l76 544h276q3 0 3 -3l-6 -45q0 -3 -4 -3h-223l-27 -191h192q2 0 2 -3l-6 -45q0 -3 -3 -3h-192l-28 -200h223q3 0 3 -3l-7 -45q0 -3 -3 -3h-276zM307 721h39q4 0 0 -4l-80 -108q-3 -3 -4 -3h-35q-3 0 -5 3q-6 16 -25 54.5t-25 54.5q-2 3 1 3h40q1 0 4 -3l32 -70h3 q49 68 51 70q3 3 4 3z" />
<glyph horiz-adv-x="407" d="M159 -4q-16 0 -28.5 1t-27.5 4t-26 9.5t-22 15.5t-17.5 24t-11 34t-4.5 45.5t5 58.5l24 173q7 51 23 87.5t33.5 55.5t43.5 29.5t44.5 12.5t45.5 2q36 0 69.5 -6.5t48 -12t18.5 -7.5q2 -1 1 -4l-21 -38q-1 -1 -3 -1l-8 2q-8 2 -20 4.5t-27 5t-32 4.5t-32 2q-23 0 -39 -3.5 t-36.5 -16t-34.5 -43t-21 -79.5l-23 -162q-8 -39 -3.5 -65.5t10 -42.5t20.5 -24t27.5 -10.5t31.5 -2.5q12 0 39.5 4.5t49.5 9.5l22 4l23 165h-77q-3 0 -3 3l6 43q0 3 4 3h127l-36 -254q-120 -30 -163 -30zM207 607h-37q-4 0 -2 4q10 16 36.5 54t36.5 54q1 3 5 3h47q3 0 4 -3 l43 -109q2 -3 -1 -3h-37q-3 0 -5 4l-31 69h-4q-50 -67 -51 -69q-2 -4 -4 -4z" />
<glyph horiz-adv-x="407" d="M159 -4q-16 0 -28.5 1t-27.5 4t-26 9.5t-22 15.5t-17.5 24t-11 34t-4.5 45.5t5 58.5l24 173q7 51 23 87.5t33.5 55.5t43.5 29.5t44.5 12.5t45.5 2q36 0 69.5 -6.5t48 -12t18.5 -7.5q2 -1 1 -4l-21 -38q-1 -1 -3 -1l-8 2q-8 2 -20 4.5t-27 5t-32 4.5t-32 2q-23 0 -39 -3.5 t-36.5 -16t-34.5 -43t-21 -79.5l-23 -162q-8 -39 -3.5 -65.5t10 -42.5t20.5 -24t27.5 -10.5t31.5 -2.5q12 0 39.5 4.5t49.5 9.5l22 4l23 165h-77q-3 0 -3 3l6 43q0 3 4 3h127l-36 -254q-120 -30 -163 -30zM254 615q-77 0 -77 73q0 21 5 21h22q5 0 5 -4q4 -31 13.5 -41 t36.5 -10q24 0 36.5 10.5t24.5 40.5q2 4 6 4h24q3 0 2 -4q-19 -90 -98 -90z" />
<glyph horiz-adv-x="407" d="M159 -4q-16 0 -28.5 1t-27.5 4t-26 9.5t-22 15.5t-17.5 24t-11 34t-4.5 45.5t5 58.5l24 173q7 51 23 87.5t33.5 55.5t43.5 29.5t44.5 12.5t45.5 2q36 0 69.5 -6.5t48 -12t18.5 -7.5q2 -1 1 -4l-21 -38q-1 -1 -3 -1l-8 2q-8 2 -20 4.5t-27 5t-32 4.5t-32 2q-23 0 -39 -3.5 t-36.5 -16t-34.5 -43t-21 -79.5l-23 -162q-8 -39 -3.5 -65.5t10 -42.5t20.5 -24t27.5 -10.5t31.5 -2.5q12 0 39.5 4.5t49.5 9.5l22 4l23 165h-77q-3 0 -3 3l6 43q0 3 4 3h127l-36 -254q-120 -30 -163 -30zM228 639q-2 0 -1 3l8 60q0 3 2 3h51q2 0 2 -3l-8 -60q-1 -3 -4 -3 h-50z" />
<glyph horiz-adv-x="433" d="M20 0q-2 0 -2 3l76 538q0 3 2 3h49q2 0 2 -3l-34 -242h211l34 242q0 3 4 3h47q3 0 3 -3l-76 -538q0 -3 -3 -3h-47q-4 0 -4 3l35 248h-211l-35 -248q0 -3 -2 -3h-49zM215 607h-37q-3 0 -1 4q10 16 36.5 54t36.5 54q2 3 4 3h47q4 0 5 -3l42 -109q2 -3 -1 -3h-37q-3 0 -5 4 l-31 69h-4q-49 -67 -50 -69q-2 -4 -5 -4z" />
<glyph horiz-adv-x="168" d="M20 0q-2 0 -2 3l76 538q0 3 2 3h49q2 0 2 -3l-76 -538q0 -3 -2 -3h-49zM50 638q-2 0 -2 4l4 29q0 4 4 8q28 28 50 28q16 0 38 -15t36 -15q15 0 30.5 14t16.5 14q2 0 2 -3l-4 -29q-2 -8 -4 -10q-28 -28 -51 -28q-17 0 -38 15.5t-34 15.5q-14 0 -30.5 -14t-17.5 -14z" />
<glyph horiz-adv-x="168" d="M20 0q-2 0 -2 3l76 538q0 3 2 3h49q2 0 2 -3l-76 -538q0 -3 -2 -3h-49zM223 652h-176q-1 0 -1 3l5 39q0 3 3 3h176q1 0 1 -3l-5 -39q0 -3 -3 -3z" />
<glyph horiz-adv-x="168" d="M4 -139q-23 0 -35 8.5t-12 33.5q0 52 61 98v2l76 538q0 3 3 3h49q1 0 1 -3l-76 -538q0 -3 -2 -3h-2q-66 -49 -66 -82q0 -15 16 -15q4 0 8.5 1.5t8.5 4t5 2.5q3 1 4 -1q1 -1 5 -11.5t4 -11.5q2 -4 -2 -8q-18 -18 -46 -18z" />
<glyph horiz-adv-x="168" d="M20 0q-2 0 -2 3l76 538q0 3 2 3h49q2 0 2 -3l-76 -538q0 -3 -2 -3h-49zM109 639q-2 0 -2 3l8 60q0 3 3 3h51q1 0 1 -3l-8 -60q-1 -3 -3 -3h-50z" />
<glyph horiz-adv-x="316" d="M93 -4q-21 0 -46 4t-39.5 7.5t-16.5 4.5t-1 4l18 40q0 1 4 1l6 -1q6 -1 15.5 -2.5t20.5 -3t22.5 -2.5t20.5 -1q25 0 40 3.5t30 22t20 53.5l58 415q0 3 4 3h48q2 0 1 -3l-58 -416q-6 -44 -21 -72t-38 -39t-41.5 -14.5t-46.5 -3.5zM232 607h-37q-3 0 -1 4q10 16 36.5 54 t36.5 54q1 3 5 3h47q3 0 4 -3l43 -109q2 -3 -2 -3h-37q-2 0 -4 4l-31 69h-4q-50 -67 -51 -69q-2 -4 -5 -4z" />
<glyph horiz-adv-x="354" d="M18 0l76 541q0 3 2 3h49q2 0 2 -3l-69 -490h223q3 0 3 -3l-6 -44q0 -4 -4 -4h-276zM213 611q0 -4 -4 -4h-38q-2 0 0 4l63 108q2 3 4 3h49q3 0 1 -3z" />
<glyph horiz-adv-x="435" d="M19 0q-2 0 -2 3l76 538l2 3h63q4 0 5 -3l129 -438h8l62 438q0 3 3 3h49q2 0 2 -3l-76 -538q0 -3 -2 -3h-64q-1 0 -4 3l-130 442h-8l-62 -442q0 -3 -3 -3h-48zM254 611q-2 -4 -4 -4h-38q-2 0 0 4l63 108q1 3 4 3h49q2 0 1 -3z" />
<glyph horiz-adv-x="435" d="M19 0q-2 0 -2 3l76 538l2 3h63q4 0 5 -3l129 -438h8l62 438q0 3 3 3h49q2 0 2 -3l-76 -538q0 -3 -2 -3h-64q-1 0 -4 3l-130 442h-8l-62 -442q0 -3 -3 -3h-48zM326 721h39q4 0 0 -4l-80 -108q-3 -3 -4 -3h-35q-4 0 -6 3q-6 16 -24.5 54.5t-24.5 54.5q-1 3 1 3h40q1 0 4 -3 l32 -70h3q49 68 51 70q3 3 4 3z" />
<glyph horiz-adv-x="407" d="M170 47q54 0 86.5 28t44.5 118l22 162q8 38 3.5 64t-10.5 41.5t-21 23.5t-28.5 10.5t-33.5 2.5q-52 0 -84.5 -28t-44.5 -114l-22 -162q-2 -34 -3.5 -58t6 -40.5t14.5 -25.5t20.5 -14t24 -6.5t26.5 -1.5zM163 -4q-14 0 -24.5 0.5t-24.5 2.5t-24 6t-21.5 10.5t-19 16.5 t-14 24.5t-9.5 32.5t-3 43t4 55l24 174q7 50 22 86.5t32.5 55.5t43 29.5t45 13t46.5 2.5q14 0 24 -0.5t24.5 -2.5t24.5 -5.5t22 -10t19.5 -16t15 -23.5t10.5 -32t3 -43t-4 -54l-24 -174q-7 -53 -23.5 -90.5t-34 -56.5t-44.5 -29.5t-45 -12.5t-45 -2zM344 652h-176q-1 0 -1 3 l5 39q0 3 2 3h176q2 0 2 -3l-6 -39q0 -3 -2 -3z" />
<glyph horiz-adv-x="407" d="M170 47q54 0 86.5 28t44.5 118l22 162q8 38 3.5 64t-10.5 41.5t-21 23.5t-28.5 10.5t-33.5 2.5q-52 0 -84.5 -28t-44.5 -114l-22 -162q-2 -34 -3.5 -58t6 -40.5t14.5 -25.5t20.5 -14t24 -6.5t26.5 -1.5zM163 -4q-14 0 -24.5 0.5t-24.5 2.5t-24 6t-21.5 10.5t-19 16.5 t-14 24.5t-9.5 32.5t-3 43t4 55l24 174q7 50 22 86.5t32.5 55.5t43 29.5t45 13t46.5 2.5q14 0 24 -0.5t24.5 -2.5t24.5 -5.5t22 -10t19.5 -16t15 -23.5t10.5 -32t3 -43t-4 -54l-24 -174q-7 -53 -23.5 -90.5t-34 -56.5t-44.5 -29.5t-45 -12.5t-45 -2zM251 615q-77 0 -77 73 q0 21 5 21h22q6 0 6 -4q4 -31 13.5 -41t35.5 -10q24 0 37 10.5t25 40.5q2 4 5 4h24q3 0 2 -4q-19 -90 -98 -90z" />
<glyph horiz-adv-x="407" d="M163 -4q-14 0 -24.5 0.5t-24.5 2.5t-24 6t-21.5 10.5t-19 16.5t-14 24.5t-9.5 32.5t-3 43t4 55l24 174q7 50 22 86.5t32.5 55.5t43 29.5t45 13t46.5 2.5q14 0 24 -0.5t24.5 -2.5t24.5 -5.5t22 -10t19.5 -16t15 -23.5t10.5 -32t3 -43t-4 -54l-24 -174q-7 -53 -23.5 -90.5 t-34 -56.5t-44.5 -29.5t-45 -12.5t-45 -2zM170 47q54 0 86.5 28t44.5 118l22 162q8 38 3.5 64t-10.5 41.5t-21 23.5t-28.5 10.5t-33.5 2.5q-52 0 -84.5 -28t-44.5 -114l-22 -162q-2 -34 -3.5 -58t6 -40.5t14.5 -25.5t20.5 -14t24 -6.5t26.5 -1.5zM205 611q-1 -3 -4 -3h-38 q-3 0 0 3l63 108q2 3 4 3h49q1 0 0 -3q0 -1 -18 -27t-36.5 -53t-19.5 -28zM295 611q-1 -3 -4 -3h-37l-1 1q0 3 30 53.5t34 56.5q1 3 5 3h47q3 0 1 -3q0 -1 -18.5 -27t-37 -53t-19.5 -28z" />
<glyph horiz-adv-x="411" d="M69 0h-49q-2 1 -2 3l76 541h158q15 0 24.5 -0.5t24.5 -2.5t23.5 -5.5t20.5 -10.5t17 -17t12 -24.5t5.5 -33.5t-2.5 -44l-6 -44q-15 -107 -95 -130l60 -229q2 -3 -2 -3h-54q-4 0 -5 3l-52 220h-121l-31 -220q0 -3 -2 -3zM109 274h105q18 0 32 2.5t30.5 11t27 27.5t14.5 48 l6 43q4 29 -0.5 48t-18 26.5t-26.5 10t-33 2.5h-106zM242 611q-2 -4 -4 -4h-38q-2 0 0 4l63 108q1 3 4 3h49q2 0 1 -3z" />
<glyph horiz-adv-x="411" d="M109 274h105q18 0 32 2.5t30.5 11t27 27.5t14.5 48l6 43q4 29 -0.5 48t-18 26.5t-26.5 10t-33 2.5h-106zM69 0h-49q-2 1 -2 3l76 541h158q15 0 24.5 -0.5t24.5 -2.5t23.5 -5.5t20.5 -10.5t17 -17t12 -24.5t5.5 -33.5t-2.5 -44l-6 -44q-15 -107 -95 -130l60 -229 q2 -3 -2 -3h-54q-4 0 -5 3l-52 220h-121l-31 -220q0 -3 -2 -3zM300 721h39q4 0 0 -4l-80 -108q-3 -3 -4 -3h-35q-4 0 -6 3q-6 15 -24.5 53.5t-24.5 55.5q-1 3 1 3h40q1 0 4 -3l32 -70h3q49 68 51 70q3 3 4 3z" />
<glyph horiz-adv-x="397" d="M156 -4q-82 0 -142 30q-2 1 -1 4q19 38 22 41q2 2 3 1q52 -26 127 -26q50 0 79.5 15t36.5 64l7 49q5 37 -17.5 53t-74.5 21q-86 8 -114 37.5t-19 91.5l8 53q17 118 163 118q38 0 70 -6.5t43 -11.5t13 -7t1 -4l-20 -38q-1 -3 -3 -2q-3 2 -15.5 5.5t-40 8t-54.5 4.5 q-43 0 -70 -14t-33 -56l-7 -48q-5 -37 15.5 -54.5t74.5 -22.5q85 -8 115 -35.5t20 -91.5l-8 -53q-6 -41 -24 -68t-45.5 -39t-52 -15.5t-57.5 -3.5zM244 611q0 -4 -3 -4h-38q-3 0 -1 4l63 108q1 3 5 3h49q1 0 0 -3z" />
<glyph horiz-adv-x="397" d="M156 -4q-82 0 -142 30q-2 1 -1 4q19 38 22 41q2 2 3 1q52 -26 127 -26q50 0 79.5 15t36.5 64l7 49q5 37 -17.5 53t-74.5 21q-86 8 -114 37.5t-19 91.5l8 53q17 118 163 118q38 0 70 -6.5t43 -11.5t13 -7t1 -4l-20 -38q-1 -3 -3 -2q-3 2 -15.5 5.5t-40 8t-54.5 4.5 q-43 0 -70 -14t-33 -56l-7 -48q-5 -37 15.5 -54.5t74.5 -22.5q85 -8 115 -35.5t20 -91.5l-8 -53q-6 -41 -24 -68t-45.5 -39t-52 -15.5t-57.5 -3.5zM197 607h-37q-4 0 -2 4q10 16 36.5 54t36.5 54q1 3 5 3h47q3 0 4 -3l43 -109q2 -3 -1 -3h-37q-3 0 -5 4l-31 69h-4 q-50 -67 -51 -69q-2 -4 -4 -4z" />
<glyph horiz-adv-x="355" d="M114 0q-4 0 -4 3l69 490h-134q-2 0 -2 3l7 45q0 3 2 3h322q4 0 4 -3l-7 -45q0 -3 -4 -3h-135l-69 -490q0 -3 -2 -3h-47zM285 721h39q4 0 1 -4l-81 -108q-3 -3 -4 -3h-35q-5 0 -6 3q-6 16 -25 54.5t-25 54.5q-1 3 2 3h40l3 -3l33 -70h3q48 68 50 70q3 3 5 3z" />
<glyph horiz-adv-x="422" d="M155 -4q-82 0 -106.5 49.5t-7.5 170.5l46 325q0 3 3 3h49q2 0 2 -3l-45 -319q-16 -92 -3 -133.5t70 -41.5h32q58 0 78.5 37t34.5 138l45 319q0 3 4 3h47q3 0 3 -3l-46 -325q-17 -119 -52.5 -169.5t-121.5 -50.5h-32zM177 638q-2 0 -2 4l4 29q0 4 4 8q28 28 50 28 q16 0 38 -15t36 -15q15 0 30.5 14t16.5 14q2 0 2 -3l-4 -29q-2 -8 -4 -10q-28 -28 -51 -28q-17 0 -38 15.5t-34 15.5q-14 0 -30.5 -14t-17.5 -14z" />
<glyph horiz-adv-x="422" d="M155 -4q-82 0 -106.5 49.5t-7.5 170.5l46 325q0 3 3 3h49q2 0 2 -3l-45 -319q-16 -92 -3 -133.5t70 -41.5h32q58 0 78.5 37t34.5 138l45 319q0 3 4 3h47q3 0 3 -3l-46 -325q-17 -119 -52.5 -169.5t-121.5 -50.5h-32zM351 652h-176q-2 0 -2 3l6 39q0 3 2 3h176q1 0 1 -3 l-5 -39q0 -3 -2 -3z" />
<glyph horiz-adv-x="422" d="M155 -4q-82 0 -106.5 49.5t-7.5 170.5l46 325q0 3 3 3h49q2 0 2 -3l-45 -319q-16 -92 -3 -133.5t70 -41.5h32q58 0 78.5 37t34.5 138l45 319q0 3 4 3h47q3 0 3 -3l-46 -325q-17 -119 -52.5 -169.5t-121.5 -50.5h-32zM258 615q-76 0 -76 73q0 21 5 21h22q5 0 5 -4 q4 -31 14 -41t36 -10q24 0 36.5 10.5t24.5 40.5q2 4 6 4h24q3 0 2 -4q-19 -90 -99 -90z" />
<glyph horiz-adv-x="422" d="M155 -4q-82 0 -106.5 49.5t-7.5 170.5l46 325q0 3 3 3h49q2 0 2 -3l-45 -319q-16 -92 -3 -133.5t70 -41.5h32q58 0 78.5 37t34.5 138l45 319q0 3 4 3h47q3 0 3 -3l-46 -325q-17 -119 -52.5 -169.5t-121.5 -50.5h-32zM254 594q-18 0 -29.5 3.5t-20 18t-3.5 41.5l3 17 q10 61 72 61q12 0 21 -2t18.5 -7.5t13 -18.5t0.5 -33l-3 -17q-7 -39 -25 -51t-47 -12zM258 622q37 0 41 38l1 10q2 22 -4.5 29.5t-23.5 7.5q-39 0 -42 -37l-1 -10q-3 -23 5 -30.5t24 -7.5z" />
<glyph horiz-adv-x="422" d="M155 -4q-82 0 -106.5 49.5t-7.5 170.5l46 325q0 3 3 3h49q2 0 2 -3l-45 -319q-16 -92 -3 -133.5t70 -41.5h32q58 0 78.5 37t34.5 138l45 319q0 3 4 3h47q3 0 3 -3l-46 -325q-17 -119 -52.5 -169.5t-121.5 -50.5h-32zM225 611q-1 -3 -5 -3h-38q-2 0 0 3l63 108q1 3 4 3h49 q2 0 1 -3q0 -1 -18 -27t-36.5 -53t-19.5 -28zM315 611q-1 -3 -5 -3h-37v1q0 3 29.5 54t33.5 56q2 3 5 3h47q4 0 2 -3q0 -1 -18.5 -27t-37 -53t-19.5 -28z" />
<glyph horiz-adv-x="422" d="M138 -144q-23 0 -35 8.5t-12 33.5q0 51 60 98q-79 1 -103 50.5t-7 169.5l46 325q0 3 3 3h49q2 0 2 -3l-45 -319q-16 -92 -3.5 -133.5t69.5 -41.5h32q58 0 79 37t35 138l45 319q0 3 4 3h47q3 0 3 -3l-46 -325q-16 -115 -49 -165t-110 -54v-1q-67 -50 -67 -83q0 -15 17 -15 q4 0 8 1.5t8 4t5 2.5q3 1 4 -1q1 -1 5 -11.5t4 -11.5q2 -4 -2 -8q-18 -18 -46 -18z" />
<glyph horiz-adv-x="556" d="M95 0q-3 0 -3 3q0 5 -18.5 271t-19.5 267q-2 3 1 3h51q2 0 3 -3l26 -449h13q126 342 127 344t3 2h43q3 0 4 -2l29 -344h13q152 447 153 449q2 3 4 3h49q5 0 3 -3q-1 -2 -96 -269t-95 -269q0 -3 -4 -3h-61q-3 0 -3 3l-28 332h-8q-119 -329 -120 -332q-3 -3 -4 -3h-62z M276 607h-37q-3 0 -1 4q10 16 36.5 54t36.5 54q1 3 4 3h47q4 0 5 -3l42 -109q1 -3 -1 -3h-37q-3 0 -5 4l-31 69h-4q-49 -67 -50 -69q-2 -4 -5 -4z" />
<glyph horiz-adv-x="354" d="M114 0q-3 0 -3 3l30 216q-92 320 -93 322q-2 3 1 3h54l3 -3l70 -254h4q139 252 141 254q3 3 4 3h52q3 0 2 -3l-185 -322l-30 -216q0 -3 -2 -3h-48zM174 607h-37q-3 0 -1 4q10 16 36.5 54t36.5 54q1 3 4 3h47q4 0 5 -3l42 -109q1 -3 -1 -3h-37q-3 0 -5 4l-31 69h-4 q-49 -67 -50 -69q-2 -4 -5 -4z" />
<glyph horiz-adv-x="363" d="M-5 0q-2 0 -2 2l7 51q0 1 1 2t1 2l291 429l1 6h-221q-2 0 -1 4l6 44q0 4 2 4h280q4 0 4 -4l-7 -48q0 -5 -3 -8l-290 -426l-1 -7h228q4 0 4 -3l-7 -45q0 -3 -3 -3h-290zM232 611q0 -4 -4 -4h-38q-2 0 0 4l63 108q1 3 4 3h49q2 0 1 -3z" />
<glyph horiz-adv-x="363" d="M-5 0q-2 0 -2 2l7 51q0 1 1 2t1 2l291 429l1 6h-221q-2 0 -1 4l6 44q0 4 2 4h280q4 0 4 -4l-7 -48q0 -5 -3 -8l-290 -426l-1 -7h228q4 0 4 -3l-7 -45q0 -3 -3 -3h-290zM211 639q-2 0 -2 3l9 60q0 3 2 3h51q2 0 2 -3l-9 -60q0 -3 -3 -3h-50z" />
<glyph horiz-adv-x="556" d="M95 0q-3 0 -3 3q0 5 -18.5 271t-19.5 267q-2 3 1 3h51q2 0 3 -3l26 -449h13q126 342 127 344t3 2h43q3 0 4 -2l29 -344h13q152 447 153 449q2 3 4 3h49q5 0 3 -3q-1 -2 -96 -269t-95 -269q0 -3 -4 -3h-61q-3 0 -3 3l-28 332h-8q-119 -329 -120 -332q-3 -3 -4 -3h-62z M325 610l-44 109q-1 3 1 3h48q2 0 4 -3l33 -108q2 -4 -2 -4h-37z" />
<glyph horiz-adv-x="556" d="M95 0q-3 0 -3 3q0 5 -18.5 271t-19.5 267q-2 3 1 3h51q2 0 3 -3l26 -449h13q126 342 127 344t3 2h43q3 0 4 -2l29 -344h13q152 447 153 449q2 3 4 3h49q5 0 3 -3q-1 -2 -96 -269t-95 -269q0 -3 -4 -3h-61q-3 0 -3 3l-28 332h-8q-119 -329 -120 -332q-3 -3 -4 -3h-62z M321 611q0 -4 -3 -4h-38q-2 0 0 4l63 108q1 3 4 3h49q2 0 1 -3z" />
<glyph horiz-adv-x="556" d="M95 0q-3 0 -3 3q0 5 -18.5 271t-19.5 267q-2 3 1 3h51q2 0 3 -3l26 -449h13q126 342 127 344t3 2h43q3 0 4 -2l29 -344h13q152 447 153 449q2 3 4 3h49q5 0 3 -3q-1 -2 -96 -269t-95 -269q0 -3 -4 -3h-61q-3 0 -3 3l-28 332h-8q-119 -329 -120 -332q-3 -3 -4 -3h-62z M239 641q-2 0 -2 3l8 58l3 3h44q2 0 2 -3l-8 -58q0 -3 -3 -3h-44zM373 641q-3 0 -3 3l8 58q0 3 4 3h42q1 0 1 -3l-8 -58q0 -3 -2 -3h-42z" />
<glyph horiz-adv-x="354" d="M18 0l76 541q0 3 2 3h49q2 0 2 -3l-69 -490h223q3 0 3 -3l-6 -44q0 -4 -4 -4h-276zM192 466q-4 -4 -4 3l20 146q1 4 5 4h47q3 0 3 -4l-14 -100q0 -2 -3 -5z" />
<glyph horiz-adv-x="389" d="M20 0q-2 1 -2 3l76 538l2 3h49q2 0 2 -3l-34 -240h23q188 237 191 240t5 3h59q1 0 0 -3l-213 -264q149 -272 150 -274q2 -3 -1 -3h-60q-4 0 -5 3l-132 248h-24l-35 -248q0 -3 -2 -3h-49zM105 -206q-5 -5 -5 3l21 146q0 4 4 4h47q4 0 4 -4l-14 -100q0 -1 -4 -5z" />
<glyph horiz-adv-x="354" d="M18 0l76 541q0 3 2 3h49q2 0 2 -3l-69 -490h223q3 0 3 -3l-6 -44q0 -4 -4 -4h-276zM100 -206q-2 -2 -3.5 -0.5t-0.5 3.5l20 146q1 4 5 4h47q3 0 3 -4l-14 -100q0 -1 -4 -5z" />
<glyph horiz-adv-x="435" d="M19 0q-2 0 -2 3l76 538l2 3h63q4 0 5 -3l129 -438h8l62 438q0 3 3 3h49q2 0 2 -3l-76 -538q0 -3 -2 -3h-64q-1 0 -4 3l-130 442h-8l-62 -442q0 -3 -3 -3h-48zM133 -206q-5 -5 -5 3l21 146q0 4 4 4h47q4 0 4 -4l-14 -100q0 -1 -4 -5z" />
<glyph horiz-adv-x="411" d="M69 0h-49q-2 1 -2 3l76 541h158q15 0 24.5 -0.5t24.5 -2.5t23.5 -5.5t20.5 -10.5t17 -17t12 -24.5t5.5 -33.5t-2.5 -44l-6 -44q-15 -107 -95 -130l60 -229q2 -3 -2 -3h-54q-4 0 -5 3l-52 220h-121l-31 -220q0 -3 -2 -3zM109 274h105q18 0 32 2.5t30.5 11t27 27.5t14.5 48 l6 43q4 29 -0.5 48t-18 26.5t-26.5 10t-33 2.5h-106zM118 -206q-5 -5 -5 3l21 146q0 4 4 4h47q4 0 4 -4l-14 -100q0 -1 -4 -5z" />
<glyph horiz-adv-x="407" d="M159 -4q-16 0 -28.5 1t-27.5 4t-26 9.5t-22 15.5t-17.5 24t-11 34t-4.5 45.5t5 58.5l24 173q7 51 23 87.5t33.5 55.5t43.5 29.5t44.5 12.5t45.5 2q36 0 69.5 -6.5t48 -12t18.5 -7.5q2 -1 1 -4l-21 -38q-1 -1 -3 -1l-8 2q-8 2 -20 4.5t-27 5t-32 4.5t-32 2q-23 0 -39 -3.5 t-36.5 -16t-34.5 -43t-21 -79.5l-23 -162q-8 -39 -3.5 -65.5t10 -42.5t20.5 -24t27.5 -10.5t31.5 -2.5q12 0 39.5 4.5t49.5 9.5l22 4l23 165h-77q-3 0 -3 3l6 43q0 3 4 3h127l-36 -254q-120 -30 -163 -30zM119 -206q-2 -2 -3.5 -0.5t-0.5 3.5l20 146q1 4 5 4h47q3 0 3 -4 l-14 -100q0 -2 -3 -5z" />
<glyph horiz-adv-x="397" d="M156 -4q-82 0 -142 30q-2 1 -1 4q19 38 22 41q2 2 3 1q52 -26 127 -26q50 0 79.5 15t36.5 64l7 49q5 37 -17.5 53t-74.5 21q-86 8 -114 37.5t-19 91.5l8 53q17 118 163 118q38 0 70 -6.5t43 -11.5t13 -7t1 -4l-20 -38q-1 -3 -3 -2q-3 2 -15.5 5.5t-40 8t-54.5 4.5 q-43 0 -70 -14t-33 -56l-7 -48q-5 -37 15.5 -54.5t74.5 -22.5q85 -8 115 -35.5t20 -91.5l-8 -53q-6 -41 -24 -68t-45.5 -39t-52 -15.5t-57.5 -3.5zM114 -206q-4 -1 -5 3l20 146q1 4 5 4h47q3 0 3 -4l-14 -100q0 -2 -4 -5z" />
<glyph horiz-adv-x="355" d="M114 0q-4 0 -4 3l69 490h-134q-2 0 -2 3l7 45q0 3 2 3h322q4 0 4 -3l-7 -45q0 -3 -4 -3h-135l-69 -490q0 -3 -2 -3h-47zM84 -206q-4 -4 -4 3l21 146q0 4 4 4h47q4 0 4 -4l-14 -100l-1 -1q-1 -2 -3 -4z" />
<glyph horiz-adv-x="397" d="M146 -118h-48l-1 4l11 22q12 21 26.5 49t20.5 39q-81 0 -141 30q-2 1 -1 4q19 38 22 41q2 2 3 1q52 -26 127 -26q50 0 79.5 15t36.5 64l7 49q5 37 -17.5 53t-74.5 21q-86 8 -114 37.5t-19 91.5l8 53q17 118 163 118q38 0 70 -6.5t43 -11.5t13 -7t1 -4l-20 -38 q-1 -3 -3 -2q-3 2 -15.5 5.5t-40 8t-54.5 4.5q-43 0 -70 -14t-33 -56l-7 -48q-5 -37 15.5 -54.5t74.5 -22.5q85 -8 115 -35.5t20 -91.5l-8 -53q-10 -64 -45.5 -91.5t-89.5 -32.5l-49 -112q-1 -4 -5 -4z" />
<glyph horiz-adv-x="285" d="M42 104q-3 3 1 5l34 32q2 2 4 0l49 -68q48 -68 49 -69t0.5 -2t-3.5 -3l-33 -31q-1 -2 -3 0z" />
<glyph horiz-adv-x="274" d="M186 348q-2 0 -1 3l32 57q2 3 5 3h33q3 0 1 -3q-24 -48 -33 -57l-3 -3h-34zM-8 -28q-2 0 -1 3q23 46 30 53q1 3 5 3h33q3 0 1 -3l-32 -54q-1 -2 -3 -2h-33z" />
<glyph horiz-adv-x="379" d="M284 487q-4 0 -2 3q1 2 25.5 42t25.5 41q3 3 5 3h40q4 0 1 -3q-1 -1 -25 -41.5t-25 -41.5q-3 -3 -4 -3h-41zM-9 -32q-3 0 0 3q1 1 22.5 38t22.5 40q2 3 5 3h42q4 0 1 -3q-1 -1 -23.5 -38.5t-23.5 -39.5q-1 -3 -5 -3h-41z" />
<glyph horiz-adv-x="386" d="M159 47q51 0 79 27.5t40 118.5l22 162q4 48 3.5 76t-14 42.5t-28 19t-39.5 4.5q-49 0 -76.5 -27t-39.5 -115l-22 -162q-4 -50 -4 -79t14 -44t27.5 -19t37.5 -4zM152 -4q-16 0 -27 1t-26 3.5t-24.5 8t-20.5 14.5t-17 23.5t-10 34t-3.5 46.5t5.5 61l24 173q9 63 26.5 103 t44 57t49 22t56.5 5q16 0 26.5 -0.5t26 -3t25.5 -8t21 -14t17.5 -23t11 -33t4.5 -45.5t-5 -60l-24 -173q-7 -54 -22 -91.5t-31 -56.5t-40.5 -29.5t-42 -12.5t-44.5 -2z" />
<glyph horiz-adv-x="343" d="M176 0h-46q-1 0 -1 3l67 477q-94 -77 -96 -78q-3 -2 -3 1q0 1 -3 22t-3 22q0 3 3 5l108 90q2 2 5 2h46q2 0 2 -3l-75 -538q-2 -3 -4 -3z" />
<glyph horiz-adv-x="351" d="M258 0h-251q-2 0 -2 2l7 51q0 2 2 4q159 179 194 227q46 61 50 90l7 53q6 44 -14.5 57t-58.5 13q-21 0 -46.5 -4.5t-40 -8.5t-16.5 -5q-3 0 -3 2q0 1 -2.5 19.5t-2.5 20.5t2 3q48 24 116 24q27 0 47 -4t40 -15.5t28.5 -37t3.5 -62.5l-8 -56q-4 -25 -19.5 -55.5t-54 -80 t-63 -78.5t-86.5 -101l-1 -7h179q3 0 3 -3l-7 -45q0 -3 -3 -3z" />
<glyph horiz-adv-x="357" d="M16 19q-3 0 -1 4q15 30 15 39q0 2 5 2q1 -1 16 -5t40.5 -8t47.5 -4q17 0 29 1.5t27 8t24.5 21.5t13.5 39l8 52q4 27 -1 45.5t-17.5 26t-22 10t-20.5 2.5h-49q-2 0 -2 3l6 42q0 3 2 3h49q26 0 48.5 19t27.5 55l7 52q3 24 -2 39t-18.5 21.5t-24.5 8t-28 1.5q-21 0 -47 -4 t-40 -8t-16 -5q-3 -2 -3 2q0 1 -2.5 19.5t-2.5 20.5t2 3q46 23 116 23q24 0 42 -3t40 -13.5t31.5 -36.5t4.5 -65l-7 -55q-4 -28 -16 -50.5t-22 -31.5l-10 -9l-1 -6q4 -3 10.5 -9.5t14.5 -34t3 -64.5l-8 -56q-17 -118 -154 -118q-32 0 -60.5 6t-41.5 12z" />
<glyph d="M225 0h-44q-3 0 -3 3l14 102h-178q-2 0 -2 3l7 51q2 2 3 4l187 378q1 3 4 3h49q2 0 1 -3l-185 -378l-1 -7h122l16 114q0 4 5 4h44q3 0 3 -4l-16 -114h51q3 0 3 -3l-7 -44q0 -4 -3 -4h-51l-14 -102q0 -3 -5 -3z" />
<glyph horiz-adv-x="357" d="M134 -4q-70 0 -116 23q-2 1 0 4q13 33 15 39q1 1 4 1l7 -1q7 -2 17.5 -4.5t23.5 -5t28 -4t28 -1.5q24 0 39.5 3t32.5 19t22 47l8 53q13 91 -59 91h-119q-3 0 -3 3l39 275q0 6 7 6h221q1 0 1 -3l-6 -43q0 -3 -2 -3h-179l-26 -186h75q22 0 39 -4t36.5 -16t27.5 -42t2 -75 l-8 -59q-16 -117 -155 -117z" />
<glyph horiz-adv-x="353" d="M144 44q37 0 61 20t33 84l4 27q8 57 -9 79t-55 22q-10 0 -31 -5t-37 -9l-17 -5l-20 -140q-6 -38 15 -55.5t56 -17.5zM140 -4q-22 0 -42 4t-41 15.5t-31 36.5t-5 62l43 311q5 38 22.5 64t41.5 38t45 16.5t43 4.5q64 0 110 -23q2 -1 1 -4q0 -1 -4.5 -10.5t-8.5 -18.5 l-4 -10q0 -2 -3 -2l-6 2q-6 2 -16 4.5t-21.5 4.5t-26.5 4t-28 2q-82 0 -93 -74l-17 -118q64 19 94 19q24 0 39.5 -3.5t35 -16t26.5 -43.5t0 -80l-5 -36q-7 -50 -24 -82.5t-41 -45.5t-42 -17t-42 -4z" />
<glyph horiz-adv-x="349" d="M100 0h-51q-3 0 -1 3l226 483l1 7h-195q-1 0 -1 3l6 44q0 4 2 4h250q2 0 2 -2l-7 -49q0 -2 -2 -6q-1 -1 -113.5 -242t-112.5 -242q-2 -3 -4 -3z" />
<glyph horiz-adv-x="357" d="M145 44q41 0 63.5 18t30.5 73l5 34q8 54 -10 72.5t-56 18.5q-83 0 -96 -91l-5 -34q-8 -54 10 -72.5t58 -18.5zM183 310q75 0 86 76l5 34q12 80 -62 80q-32 0 -58.5 -18.5t-31.5 -61.5l-4 -34q-9 -76 65 -76zM139 -5q-62 0 -92.5 27.5t-20.5 108.5l5 41q5 37 21.5 65 t31.5 37l14 10l1 3q-5 3 -12 9t-16 30.5t-5 55.5l6 41q19 125 147 125q124 0 106 -125l-6 -41q-4 -30 -18 -54t-25 -32l-12 -9l-1 -2q5 -3 11.5 -10t16 -36t4.5 -67l-5 -41q-11 -83 -50 -109.5t-101 -26.5z" />
<glyph d="M211 548q23 0 42.5 -4t41 -15.5t31.5 -36.5t5 -61l-44 -311q-5 -38 -22 -64t-41 -38.5t-45 -17t-43 -4.5q-69 0 -111 21q-4 2 -2 5l17 38q0 2 3 2l6 -2q6 -1 16 -3.5t22.5 -4.5t27.5 -3.5t28 -1.5q82 0 93 74l15 107q-64 -20 -94 -20q-13 0 -22 0.5t-22.5 3.5t-21 9 t-18 16.5t-13.5 26t-6.5 37.5t2.5 51l6 47q5 41 18.5 70.5t28 44t35.5 23t34.5 10t32.5 1.5zM208 500q-18 0 -30.5 -3t-26.5 -13t-23.5 -32t-14.5 -56l-5 -38q-8 -58 8.5 -79.5t54.5 -21.5q10 0 32 5t39 10l16 5l21 151q5 37 -16 54.5t-55 17.5z" />
<glyph horiz-adv-x="784" d="M156 -4q-82 0 -142 30q-2 1 -1 4q19 38 22 41q2 2 3 1q52 -26 127 -26q50 0 79.5 15t36.5 64l7 49q5 37 -17.5 53t-74.5 21q-86 8 -114 37.5t-19 91.5l8 53q17 118 163 118q38 0 70 -6.5t43 -11.5t13 -7t1 -4l-20 -38q-1 -3 -3 -2q-3 2 -15.5 5.5t-40 8t-54.5 4.5 q-43 0 -70 -14t-33 -56l-7 -48q-5 -37 15.5 -54.5t74.5 -22.5q85 -8 115 -35.5t20 -91.5l-8 -53q-6 -41 -24 -68t-45.5 -39t-52 -15.5t-57.5 -3.5zM532 -4q-82 0 -142 30q-2 1 -1 4q19 38 22 41q2 2 3 1q52 -26 127 -26q50 0 79.5 15t36.5 64l7 49q5 37 -17.5 53t-74.5 21 q-86 8 -114 37.5t-19 91.5l8 53q17 118 163 118q38 0 70 -6.5t43 -11.5t13 -7t1 -4l-20 -38q-1 -3 -3 -2q-3 2 -15.5 5.5t-40 8t-54.5 4.5q-43 0 -70 -14t-33 -56l-7 -48q-5 -37 15.5 -54.5t74.5 -22.5q85 -8 115 -35.5t20 -91.5l-8 -53q-6 -41 -24 -68t-45.5 -39t-52 -15.5 t-57.5 -3.5z" />
<glyph horiz-adv-x="357" d="M127 62q-3 0 -3 3l19 132h-112q-2 1 -2 4l6 40q0 3 2 3h112l19 135q0 3 4 3h39q1 0 1 -3l-19 -135h113q3 0 3 -3l-6 -40q0 -4 -3 -4h-113l-19 -132q0 -3 -2 -3h-39z" />
<glyph horiz-adv-x="147" d="M-20 -78q-1 2 -1 3t27.5 73t28.5 74q1 3 4 3h47q4 0 2 -3q-69 -138 -69 -146q0 -4 -4 -4h-35z" />
<glyph horiz-adv-x="252" d="M21 197q-2 0 -2 3l6 40q0 3 2 3h184q3 0 3 -3l-6 -40q0 -3 -3 -3h-184z" />
<glyph horiz-adv-x="151" d="M8 0q-2 1 -2 3l10 66l2 3h55q1 -1 1 -3l-9 -66l-2 -3h-55z" />
<glyph horiz-adv-x="275" d="M11 -3q-2 0 -2 2q0 1 103.5 272.5t104.5 273.5q1 3 3 3h43q3 0 2 -3q-1 -2 -104 -273t-103 -272q0 -3 -3 -3h-44z" />
<glyph horiz-adv-x="357" d="M20 119q-2 2 -2 4l6 40l2 4h269q3 0 3 -4l-6 -40q0 -4 -3 -4h-269zM42 276q-2 2 -2 3l6 41l2 3h269q3 0 3 -3l-6 -41q0 -3 -3 -3h-269z" />
<glyph horiz-adv-x="183" d="M77 0h-52q-2 0 -2 3l9 64q0 3 3 3h52q2 0 1 -3l-9 -64q0 -3 -2 -3zM94 148h-44q-2 0 -2 3l55 390q0 3 2 3h44q2 0 2 -3l-55 -390q0 -3 -2 -3z" />
<glyph horiz-adv-x="301" d="M136 0h-52q-2 0 -2 3l9 65q0 3 3 3h52q3 0 3 -3l-9 -65q0 -3 -4 -3zM153 140h-46q-2 0 -1 4l6 46q4 28 22.5 58t39.5 51t39 44.5t20 39.5l7 45q4 24 0 39t-15 21.5t-21 8t-25 1.5q-20 0 -43 -4t-36 -8t-15 -5q-3 -1 -3 1q0 3 -4 39q0 3 1 4q46 23 108 23q24 0 41 -3.5 t36 -14t26.5 -36t1.5 -64.5l-7 -47q-5 -33 -61.5 -98.5t-60.5 -95.5l-6 -45q-1 -4 -4 -4z" />
<glyph horiz-adv-x="157" d="M-30 -78q-1 2 -1 3t27.5 73t28.5 74q1 3 3 3h48q4 0 2 -3q0 -1 -34 -73t-35 -73q-2 -4 -5 -4h-34zM56 310q-3 0 -2 4l9 65q0 3 3 3h53q3 0 3 -3l-9 -65q0 -4 -4 -4h-53z" />
<glyph horiz-adv-x="221" d="M119 544q5 0 5 -3l-18 -125q0 -3 -4 -3h-43q-2 0 -2 3l18 124q0 4 2 4h42zM214 544q4 0 4 -3l-18 -125q0 -3 -3 -3h-43q-2 0 -2 3l18 124q0 4 1 4h43z" />
<glyph horiz-adv-x="355" d="M116 213h94l30 129h-93zM62 0h-36q-3 0 -3 3l41 168h-57q-2 1 -2 3l5 36q0 3 3 3h62l31 129h-62q-2 0 -2 3l5 36q0 3 3 3h66q37 155 37 157q0 3 4 3h37q2 0 2 -2l-38 -158h93q38 155 38 157q0 3 3 3h36q3 0 3 -3l-37 -157h54q2 0 2 -3l-5 -36q0 -3 -3 -3h-60l-31 -129h59 q2 0 2 -3l-5 -36q0 -3 -3 -3h-63q-41 -166 -41 -168q0 -3 -3 -3h-37q-2 1 -2 3l41 168h-94q-40 -166 -40 -168q0 -3 -3 -3z" />
<glyph horiz-adv-x="385" d="M132 -58q-3 0 -3 3l7 51q-68 1 -126 30q-2 1 -1 4l20 40q1 2 4 2l7 -2q7 -3 18.5 -7t26.5 -8t35 -6.5t40 -2.5q50 0 80 15.5t37 63.5l7 49q5 34 -16.5 52t-77.5 22q-78 7 -110 33.5t-21 95.5l8 53q16 112 147 117l7 51q0 3 4 3h32q2 0 2 -3l-7 -51q62 -3 104 -24 q3 -1 1 -4l-21 -39q-1 -2 -4 -1q-3 2 -15.5 5.5t-39.5 8t-53 4.5q-44 0 -71 -14t-33 -56l-7 -48q-5 -38 16 -54.5t74 -22.5q83 -9 113.5 -35t21.5 -92l-8 -54q-5 -33 -18.5 -56.5t-28.5 -36t-37 -20t-37 -9.5t-35 -3l-7 -51q0 -3 -3 -3h-32z" />
<glyph horiz-adv-x="507" d="M105 -4h-41l1 3q45 82 164 273t164 273q0 3 3 3h41q5 0 2 -3q-1 -1 -164.5 -272.5t-164.5 -273.5q-2 -3 -5 -3zM337 34q21 0 33 9t16 38l11 74q4 28 -5.5 37t-30.5 9q-44 0 -51 -46l-11 -74q-4 -29 6.5 -38t31.5 -9zM331 -4q-36 0 -55.5 16.5t-12.5 65.5l11 82 q10 79 93 79q16 0 27 -2.5t22.5 -9.5t16 -24t0.5 -43l-11 -82q-4 -27 -13 -44.5t-23 -25t-26 -10t-29 -2.5zM144 343q21 0 33.5 9.5t16.5 38.5l10 73q3 27 -5.5 36.5t-28.5 9.5q-46 0 -52 -46l-10 -73q-4 -29 5.5 -38.5t30.5 -9.5zM139 305q-16 0 -28 2.5t-24 10.5t-16.5 25 t-0.5 43l12 83q12 79 93 79q16 0 27 -2.5t23 -9.5t16.5 -24t0.5 -43l-12 -83q-5 -35 -21 -54t-31.5 -23t-38.5 -4z" />
<glyph horiz-adv-x="385" d="M157 -4q-31 0 -52 4t-42 17.5t-29 44t-2 78.5l3 26q4 34 20.5 68t30.5 52l14 17q-2 5 -4.5 14t-7 39.5t1.5 60.5l3 22q8 60 44.5 84.5t81.5 24.5q22 0 36.5 -3t30 -11.5t23 -27.5t7.5 -48q0 -30 -6 -30h-37v21q0 34 -15.5 46t-42.5 12q-63 0 -75 -73l-3 -18 q-5 -33 3 -62.5t33 -84.5l80 -180q14 21 15 28l15 107q0 3 4 3h37q3 0 3 -3l-16 -112q-1 -11 -10 -27t-17 -27l-8 -10q22 -43 23 -45q1 -3 0 -3h-51q-2 0 -4 3l-5 15q-32 -22 -82 -22zM164 41q15 0 28 4t18 8l6 4l-93 203q-31 -35 -40 -97l-3 -20q-9 -62 12 -82t72 -20z" />
<glyph horiz-adv-x="133" d="M122 544q5 0 5 -3l-18 -125q0 -3 -3 -3h-44q-2 0 -2 3l18 124q0 4 2 4h42z" />
<glyph horiz-adv-x="142" d="M4 -42q-3 -3 -3 2l18 123q0 3 2 3h44q2 0 2 -3l-12 -83q0 -2 -2 -4z" />
<glyph horiz-adv-x="242" d="M105 -42q-4 -4 -4 2l18 123q0 3 2 3h43q3 0 3 -3l-12 -83l-4 -4q-1 -1 -23 -20zM4 -42q-3 -3 -3 2l18 123q0 3 2 3h44q2 0 2 -3l-12 -83q0 -2 -2 -4z" />
<glyph horiz-adv-x="379" d="M193 -4q-21 0 -37 1.5t-34 6.5t-28.5 14.5t-22 25t-14.5 37.5t-5.5 53t5.5 71h-37q-2 0 -2 3l5 34q0 3 3 3h37l8 58h-37q-2 0 -2 3l5 35q0 3 3 3h37q16 118 62.5 161t130.5 43q65 0 117 -26q2 -2 1 -5l-20 -37q-2 -3 -4 -2q-3 2 -15 5.5t-37.5 8.5t-48.5 5q-58 0 -88 -32 t-44 -121h124q1 0 1 -3l-5 -35q0 -3 -2 -3h-124l-8 -58h124q1 0 1 -3l-5 -34q0 -3 -2 -3h-124q-12 -95 9.5 -126t78.5 -31q63 0 113 25q2 1 4 -2l10 -37q1 -2 -2 -5t-15.5 -9.5t-45.5 -15t-70 -8.5z" />
<glyph horiz-adv-x="349" d="M120 -81q-3 0 -3 3l11 75q-17 1 -29 3.5t-28 11.5t-23 25.5t-13 45t2 69.5l11 82q7 49 22 81.5t36.5 46.5t38 18.5t38.5 5.5l10 74q0 3 3 3h31q3 0 3 -3l-10 -74q57 -2 81 -14q2 -1 1 -4l-18 -35q-1 -2 -3 -2l-5 1q-4 0 -11.5 1t-17.5 2.5t-23.5 2t-27.5 0.5 q-18 0 -30 -3t-26.5 -13t-24.5 -33.5t-15 -59.5l-11 -73q-10 -69 8.5 -90.5t56.5 -21.5q22 0 44.5 3t34.5 5.5t13 3.5q3 0 4 -2l6 -35q1 -3 -3 -5q-32 -16 -88 -17l-11 -75q0 -3 -3 -3h-31z" />
<glyph horiz-adv-x="577" d="M258 97q66 0 75 63l16 112q3 23 -9.5 37t-26 17t-28.5 3q-31 0 -49 -20.5t-26 -73.5l-6 -40q-9 -59 7.5 -78.5t46.5 -19.5zM227 -103q-40 0 -74 10t-67 35.5t-52 76.5t-19 124q0 93 19 164t49 112.5t72 67t82.5 34.5t87.5 9q46 0 82 -9.5t69 -33.5t51 -72.5t18 -118.5 q0 -130 -34.5 -185.5t-99.5 -55.5q-49 0 -68 33q-36 -34 -93 -34q-49 0 -75 29t-15 110l6 45q9 65 38.5 99.5t75.5 34.5q31 0 50.5 -7t23.5 -13l5 -7l3 21q0 2 1 2h39q2 0 2 -2l-30 -210q-8 -59 43 -59q29 0 45.5 12.5t27.5 56.5t11 126q0 60 -14 100.5t-41 61t-57 28.5 t-71 8q-256 0 -256 -339q0 -117 49.5 -163.5t121.5 -46.5q41 0 80 5t55 9t19 6q3 1 3 -1l5 -36q0 -2 -3 -3q-4 -2 -21 -7t-58.5 -11t-85.5 -6z" />
<glyph horiz-adv-x="190" d="M59 -75q-1 0 -4 3q-2 2 -6.5 14t-10.5 56t-6 106q0 106 12.5 196t27 140.5t34.5 90.5t28 50t14 16q3 3 5 3h39q2 0 0 -3q-114 -171 -114 -494q0 -58 5 -101.5t9 -57.5t6 -16q3 -3 -1 -3h-38z" />
<glyph horiz-adv-x="189" d="M29 -75h-38q-3 0 0 3q25 38 36 61q78 163 78 429q0 139 -20 179q-1 3 1 3h39q1 0 4 -3t7.5 -15t10 -54.5t5.5 -102.5q0 -107 -12.5 -198t-27.5 -141.5t-35.5 -91t-28.5 -50.5t-14 -16q-3 -3 -5 -3z" />
</font>
</defs>
</svg>
