<?xml version="1.0" standalone="no"?>
<!DOCTYPE svg PUBLIC "-//W3C//DTD SVG 1.1//EN" "http://www.w3.org/Graphics/SVG/1.1/DTD/svg11.dtd" >
<svg xmlns="http://www.w3.org/2000/svg" xmlns:xlink="http://www.w3.org/1999/xlink" version="1.1">
<metadata></metadata>
<defs>
<font id="sport1CnRgIt" horiz-adv-x="455" >
<font-face units-per-em="1000" ascent="750" descent="-250" />
<missing-glyph horiz-adv-x="205" />
<glyph unicode=" "  horiz-adv-x="205" />
<glyph unicode="&#x09;" horiz-adv-x="205" />
<glyph unicode="&#xa0;" horiz-adv-x="205" />
<glyph unicode="!" horiz-adv-x="244" d="M122 0h-80q-3 0 -3 4l13 89q0 4 3 4h80q3 0 3 -4l-13 -89q0 -4 -3 -4zM142 189h-69q-2 0 -2 4l68 483q0 4 3 4h69q3 0 3 -4l-68 -483q0 -4 -4 -4z" />
<glyph unicode="&#x22;" horiz-adv-x="296" d="M170 680q5 0 4 -5l-23 -165q0 -4 -4 -4h-65q-3 0 -2 4l23 164q0 6 4 6h63zM300 680q4 0 3 -5l-23 -165q0 -4 -4 -4h-64q-3 0 -2 4l23 164q0 6 4 6h63z" />
<glyph unicode="#" horiz-adv-x="462" d="M169 272h109l35 149h-108zM100 0h-58q-5 0 -4 4l49 204h-67q-3 0 -3 4l8 56q0 4 4 4h75l35 149h-72q-4 0 -4 4l8 56q0 4 5 4h80q46 189 46 191q0 4 4 4h58q3 0 3 -3l-46 -192h110q45 188 45 191q0 4 4 4h59q3 0 3 -4l-46 -191h65q4 0 3 -4l-8 -56q0 -4 -4 -4h-73 l-35 -149h71q3 0 2 -4l-8 -56q0 -4 -3 -4h-78q-50 -201 -50 -204q0 -4 -4 -4h-59q-2 0 -2 3l49 205h-109q-49 -201 -49 -204q0 -4 -4 -4z" />
<glyph unicode="$" horiz-adv-x="493" d="M173 -75q-3 0 -2 5l9 65q-94 2 -160 35q-3 3 -2 6l31 64q1 2 5 2l8 -3q9 -3 24.5 -7t34.5 -8.5t45 -7.5t51 -3q37 0 61.5 5t45.5 25.5t26 57.5l8 56q5 38 -19.5 59t-91.5 28q-99 8 -138.5 41.5t-26.5 121.5l10 69q21 140 185 148l9 66q1 4 3 4h51q3 0 3 -4l-9 -66 q38 -2 70.5 -9t46.5 -12.5t15 -7.5q3 -1 3 -3q0 -4 -30 -64q-2 -4 -5 -2q-3 1 -20 5.5t-52.5 10t-68.5 5.5q-50 0 -79 -16t-36 -63l-8 -55q-6 -43 17 -61.5t88 -26.5q102 -13 141 -46.5t28 -116.5l-9 -69q-5 -41 -22 -71t-36.5 -45.5t-48 -25.5t-47.5 -12.5t-44 -3.5l-9 -65 q-1 -5 -4 -5h-51z" />
<glyph unicode="%" horiz-adv-x="652" d="M159 -5h-66q-4 0 -1 4q44 85 205 340.5t205 341.5q1 4 6 4h66q3 0 0 -4q-1 -1 -205 -340.5t-205 -341.5q-2 -4 -5 -4zM446 51q24 0 38.5 11t19.5 45l12 84q5 33 -5.5 43.5t-34.5 10.5q-51 0 -59 -54l-12 -84q-5 -33 6.5 -44.5t34.5 -11.5zM439 -5q-46 0 -71.5 21.5 t-16.5 84.5l13 99q14 102 121 102q21 0 35 -3t29 -12.5t20.5 -31.5t1.5 -55l-13 -99q-6 -45 -26.5 -70t-41.5 -30.5t-51 -5.5zM193 435q24 0 38.5 11t19.5 44l12 85q4 32 -6 43t-34 11q-51 0 -59 -54l-12 -85q-5 -33 6.5 -44t34.5 -11zM185 378q-46 0 -71.5 21t-16.5 84 l14 99q14 103 121 103q21 0 35.5 -3t29.5 -13t21 -32t1 -55l-14 -99q-9 -64 -41 -84.5t-79 -20.5z" />
<glyph unicode="&#x26;" horiz-adv-x="495" d="M210 -5q-31 0 -52.5 2.5t-47 13t-40 29t-21.5 53t-1 82.5l4 34q5 42 25 85t37 65l18 22q-3 6 -6 17t-8.5 47t2.5 72l4 29q11 77 58 108t107 31q28 0 46 -3.5t38.5 -14t30.5 -35t10 -63.5q0 -40 -7 -40h-56v26q0 41 -18.5 55.5t-48.5 14.5q-77 0 -89 -85l-3 -22 q-6 -40 4.5 -76.5t42.5 -105.5l91 -209q15 24 16 33l18 127q0 4 4 4h58q3 0 2 -4l-19 -137q-2 -15 -13 -36t-21 -34l-10 -13l33 -63q2 -4 -1 -4h-75q-3 0 -6 4l-7 18q-39 -27 -99 -27zM219 61q16 0 30 4.5t21 8.5l6 4l-109 239q-35 -39 -45 -114l-3 -23q-10 -72 15 -95.5 t85 -23.5z" />
<glyph unicode="'" horiz-adv-x="179" d="M175 680q6 0 5 -5l-23 -165q0 -4 -5 -4h-64q-3 0 -2 4l23 164q0 6 4 6h62z" />
<glyph unicode="(" horiz-adv-x="252" d="M84 -94q-2 0 -6 4q-3 3 -8.5 18t-12.5 69t-7 130q0 133 15 245.5t34.5 177t43 113t35.5 64t17 19.5q4 4 6 4h63q3 0 0 -4q-9 -12 -17 -23.5t-33.5 -67.5t-43 -119t-33 -173.5t-15.5 -234.5q0 -72 6 -126.5t11 -72t7 -19.5q4 -4 0 -4h-62z" />
<glyph unicode=")" horiz-adv-x="253" d="M62 -94h-62q-3 0 1 4q5 5 16.5 22t34.5 68t42 116t33.5 174.5t14.5 233.5q0 72 -6.5 128t-10.5 72.5t-7 21.5q-3 4 2 4h62q2 0 6 -4q3 -3 8 -18t12 -68.5t7 -129.5q0 -134 -15 -247t-34.5 -177.5t-43 -113t-35 -63.5t-17.5 -19q-4 -4 -8 -4z" />
<glyph unicode="*" horiz-adv-x="313" d="M150 390q-4 0 -3 4l13 95q-71 -46 -73 -47q-3 -1 -4 2l-16 38q-2 4 1 5l74 48q-58 46 -60 48t-1 5q1 1 14 19.5t14 19.5q3 3 4 1l60 -47l14 95q0 4 3 4h42q4 0 4 -4l-14 -95q72 46 73 47q4 2 5 -1l15 -39q2 -4 -1 -5l-73 -48q58 -46 59 -48q2 -1 0 -5q-1 -1 -7.5 -10.5 t-12.5 -18t-6 -9.5q-2 -4 -4 -2l-61 47l-13 -95q-1 -4 -4 -4h-42z" />
<glyph unicode="+" horiz-adv-x="458" d="M168 75q-4 0 -4 4l23 161h-138q-3 0 -3 4l9 64q0 4 4 4h138l23 163q0 4 4 4h62q4 0 4 -4l-23 -163h139q3 0 2 -4l-9 -64q0 -4 -3 -4h-139l-23 -161q0 -4 -4 -4h-62z" />
<glyph unicode="," horiz-adv-x="196" d="M-17 -100q-3 0 -3 4l75 197q1 4 5 4h74q3 0 1 -4q-1 -1 -24 -50t-47 -98l-23 -49q-1 -4 -4 -4h-54z" />
<glyph unicode="-" horiz-adv-x="325" d="M38 239q-3 0 -3 4l9 64q0 4 4 4h237q2 0 2 -4l-9 -64q0 -4 -3 -4h-237z" />
<glyph unicode="." horiz-adv-x="202" d="M21 0q-3 0 -3 4l14 94q0 4 3 4h80q3 0 3 -4l-14 -94q0 -4 -3 -4h-80z" />
<glyph unicode="/" horiz-adv-x="357" d="M21 -4q-2 0 -2 2q0 1 64.5 171t129.5 340.5t65 171.5q1 4 5 4h71q4 0 1 -4q-1 -1 -129.5 -340.5t-128.5 -340.5q-3 -4 -4 -4h-72z" />
<glyph unicode="0" horiz-adv-x="496" d="M217 69q29 0 47.5 5.5t36.5 22.5t29.5 52.5t19.5 91.5l28 203q9 45 6 75t-7.5 48.5t-18.5 28t-28 12.5t-37 3q-57 0 -87 -31.5t-45 -135.5l-28 -203q-5 -38 -6 -67t4 -47.5t12 -30.5t19.5 -17.5t24.5 -7.5t30 -2zM205 -10q-21 0 -35.5 1t-33.5 4.5t-31.5 10.5t-26.5 18.5 t-21.5 30t-12.5 43t-4.5 59t6.5 76.5l31 220q9 64 27 109.5t38 70t50 38t53.5 16.5t58.5 3q21 0 35 -1t33.5 -4t32 -10t27 -18t22 -28.5t13.5 -41.5t5.5 -58t-6.5 -76l-30 -220q-8 -57 -21 -99.5t-32.5 -68t-38 -42t-45.5 -23t-46 -8.5t-48 -2z" />
<glyph unicode="1" horiz-adv-x="440" d="M249 0h-75q-3 0 -2 4l81 579q-118 -93 -120 -94q-3 -1 -3 1q0 3 -4.5 35.5t-4.5 33.5q0 4 4 7q2 1 70 56t69 56q2 2 6 2h75q2 0 2 -4l-94 -672q-1 -4 -4 -4z" />
<glyph unicode="2" horiz-adv-x="451" d="M345 0h-325q-2 0 -2 2l11 76q0 3 3 6q20 22 61 68.5t60.5 69t51.5 59.5t48 58.5t34.5 47.5t27 44.5t10.5 33.5l9 66q4 27 -2 44t-20 24.5t-27.5 10t-32.5 2.5q-26 0 -59.5 -5t-52.5 -10t-21 -6q-4 -2 -4 2q0 3 -2.5 31.5t-2.5 30.5q0 4 2 5l3 1q3 1 7 3t10 4.5t14 4.5 t17 4.5t20.5 5t24 4t27.5 2.5t30 1q26 0 47 -2.5t44.5 -12t38.5 -25.5t22.5 -44.5t2.5 -67.5l-10 -77q-4 -31 -23 -68.5t-62 -93.5t-74 -93.5t-101 -118.5l-1 -9h207q3 0 2 -4l-10 -70q0 -4 -3 -4z" />
<glyph unicode="3" horiz-adv-x="457" d="M28 17q-1 1 -1 3t11 33t11 32q0 2 5 2q2 -1 21.5 -5.5t53.5 -9t61 -4.5t45 3.5t37.5 22.5t24.5 54l9 64q5 31 -1.5 52.5t-20 30t-25 11.5t-23.5 3h-64q-3 0 -3 4l9 67q0 4 5 4h64q29 0 53.5 21.5t30.5 62.5l9 64q4 27 -2 44.5t-21 25t-27.5 9.5t-30.5 2q-27 0 -60.5 -5 t-52.5 -9.5t-21 -5.5q-4 -2 -4 3q0 3 -2.5 31.5t-2.5 30.5q0 3 3 5q5 3 20 8t53 12t77 7q26 0 45.5 -2t44.5 -10.5t40 -23.5t23 -44.5t2 -69.5l-10 -72q-4 -33 -19 -61.5t-28 -40.5l-13 -11l-1 -7q2 -1 5 -4t11.5 -13.5t12.5 -24.5t8.5 -37.5t-1.5 -52.5l-10 -76 q-7 -49 -27.5 -81.5t-52.5 -46t-58.5 -18t-61.5 -4.5q-42 0 -79.5 7t-54.5 13z" />
<glyph unicode="4" horiz-adv-x="458" d="M314 0h-71q-3 0 -3 4l17 121h-230q-2 0 -2 4l11 76q0 1 1.5 3.5t1.5 3.5l228 464q2 4 5 4h80q3 0 1 -4l-224 -464l-1 -8h140l19 135q0 4 3 4h72q4 0 4 -4l-19 -135h55q4 0 3 -4l-10 -71q0 -4 -4 -4h-55l-17 -121q0 -4 -5 -4z" />
<glyph unicode="5" horiz-adv-x="458" d="M180 -10q-72 0 -150 26q-2 1 0 6l21 62q1 2 5 2l9 -2q9 -2 23 -5t30.5 -5.5t36.5 -4.5t36 -2q96 0 108 80l10 66q16 104 -70 104h-151q-3 0 -2 4l49 351q2 8 8 8h289q3 0 3 -4l-10 -67q0 -4 -3 -4h-221l-30 -214h81q16 0 29 -1t31 -4.5t30 -11t26 -19.5t19 -30t9.5 -43.5 t-2.5 -59.5l-12 -83q-6 -41 -23.5 -70.5t-37.5 -44.5t-49 -23t-47.5 -9.5t-44.5 -1.5z" />
<glyph unicode="6" d="M198 63q19 0 33 4t30 15t27.5 37t16.5 65l5 37q9 66 -9.5 90.5t-60.5 24.5q-12 0 -36.5 -5.5t-43.5 -10.5l-18 -6l-24 -169q-6 -42 17.5 -62t62.5 -20zM191 -10q-30 0 -55.5 5.5t-53 20t-40.5 47t-6 79.5l55 389q6 40 23 70t38 46.5t48 26.5t47.5 13t40.5 3q19 0 37 -1.5 t32 -4t26 -5.5t21 -6t14.5 -5.5t9.5 -4.5l4 -2q3 -1 1 -5q0 -2 -12 -31t-12 -30q0 -2 -4 -2q-1 0 -8.5 2t-20.5 4.5t-28 5.5t-34 5t-36 2q-94 0 -106 -85l-20 -139q78 22 112 22q30 0 50.5 -4.5t44.5 -20.5t32.5 -55.5t0.5 -100.5l-7 -50q-7 -51 -24 -88t-35.5 -56 t-45.5 -30t-45.5 -13t-43.5 -2z" />
<glyph unicode="7" horiz-adv-x="446" d="M150 0h-81q-6 0 -3 4l275 589l1 9h-234q-2 0 -2 4l10 69q0 5 3 5h322q3 0 3 -3l-10 -73q0 -1 -1.5 -4t-1.5 -4l-69 -148q-69 -148 -137.5 -295.5t-69.5 -148.5q-1 -4 -5 -4z" />
<glyph unicode="8" horiz-adv-x="457" d="M197 63q45 0 71 21.5t34 83.5l6 44q8 61 -12 82.5t-61 21.5q-93 0 -107 -104l-6 -44q-8 -62 11 -83.5t64 -21.5zM244 393q85 0 97 88l6 44q13 92 -70 92q-89 0 -101 -92l-6 -44q-12 -88 74 -88zM186 -11q-38 0 -64 6t-50.5 23t-33 53t-0.5 91l8 55q7 45 27.5 79t37.5 46 l17 12l1 3q-2 1 -5 4t-11.5 13t-13 22.5t-9 33t0.5 44.5l8 55q24 161 190 161q31 0 55 -5.5t48 -21t33 -49.5t2 -85l-8 -55q-5 -36 -22 -65.5t-31 -40.5l-15 -11l-1 -3q6 -4 15 -12.5t21 -43.5t5 -81l-8 -55q-8 -56 -27 -92.5t-48 -53t-56.5 -22t-65.5 -5.5z" />
<glyph unicode="9" horiz-adv-x="458" d="M276 616q-20 0 -34 -4t-30 -15t-27 -37t-17 -65l-7 -49q-10 -66 9 -91t61 -25q12 0 36.5 6t42.5 12l18 5l25 181q6 42 -16.5 62t-60.5 20zM281 689q30 0 55.5 -5.5t53.5 -20t41 -46.5t6 -79l-54 -386q-7 -50 -30.5 -84.5t-55.5 -50t-58.5 -21t-53.5 -5.5q-94 0 -146 26 q-3 2 -2 6q0 1 6.5 16t12 29.5t5.5 15.5q0 3 4 3q2 -1 20.5 -5t50.5 -8.5t59 -4.5q93 0 105 85l17 125q-77 -22 -111 -22q-12 0 -21.5 0.5t-22 2.5t-22 5.5t-20.5 10t-18 15.5t-14 23t-9.5 31.5t-3 41t3.5 51.5l8 62q7 52 23.5 89t35 55.5t45.5 29.5t46 13t44 2z" />
<glyph unicode=":" horiz-adv-x="211" d="M26 0q-4 0 -4 4l13 89q0 4 4 4h80q3 0 3 -4l-13 -89q0 -4 -3 -4h-80zM80 382q-4 0 -4 4l13 89q0 4 4 4h80q3 0 3 -4l-13 -89q0 -4 -3 -4h-80z" />
<glyph unicode=";" horiz-adv-x="211" d="M-30 -100q-2 0 -2 3q0 1 18.5 50t37.5 98t19 50q1 4 4 4h73q4 0 2 -4q-1 -1 -24 -50l-46 -98l-23 -49q-1 -4 -4 -4h-55zM78 377q-3 0 -3 4l13 94q0 4 4 4h80q4 0 3 -4l-13 -94q0 -4 -4 -4h-80z" />
<glyph unicode="&#x3c;" horiz-adv-x="457" d="M373 80l-324 162q-3 3 -3 4l8 58l4 4l370 163q2 1 2.5 0t-0.5 -3l-9 -69q-1 -3 -4 -6l-257 -116l-1 -5q223 -113 225 -115q2 -1 2 -6l-10 -68q0 -5 -3 -3z" />
<glyph unicode="=" horiz-adv-x="458" d="M63 340q-3 0 -3 4l9 64q0 4 4 4h347q3 0 2 -4l-9 -64q0 -4 -3 -4h-347zM35 141q-3 0 -3 4l9 64q0 4 4 4h347q2 0 2 -4l-9 -64q0 -4 -3 -4h-347z" />
<glyph unicode="&#x3e;" horiz-adv-x="457" d="M26 80q-2 -1 -2.5 0t0.5 3l9 68q2 5 4 6l258 115l1 5q-224 114 -226 116t-2 6l10 69q0 3 3 3l324 -163q3 -2 3 -4l-8 -58q0 -2 -4 -4t-185.5 -81.5t-184.5 -80.5z" />
<glyph unicode="?" horiz-adv-x="388" d="M191 0h-79q-3 0 -3 4l13 90q0 4 4 4h79q3 0 3 -4l-13 -90q0 -4 -4 -4zM215 181h-74q-3 0 -3 4l8 52q5 36 28.5 73.5t48.5 64t46.5 55t24.5 48.5l7 50q4 27 0 44.5t-16 25t-23 9.5t-27 2q-15 0 -33 -2.5t-32 -5.5t-26 -6l-20 -5l-7 -3q-5 -2 -5 2q-5 50 -6 61q0 4 1 5 q60 30 141 30q24 0 41.5 -2t39.5 -11t34.5 -24.5t19 -44.5t1.5 -69l-7 -56q-4 -27 -27 -61.5t-49 -61.5t-49 -60t-27 -59l-7 -51q0 -4 -3 -4z" />
<glyph unicode="@" horiz-adv-x="739" d="M343 128q35 0 56.5 14.5t27.5 58.5l20 140q5 36 -18.5 49t-52.5 13q-35 0 -55.5 -24t-29.5 -85l-7 -53q-9 -68 8.5 -90.5t50.5 -22.5zM304 -134q-273 0 -273 311q0 119 25 209t63.5 142t93 84t105 42.5t107.5 10.5q47 0 85 -6.5t76 -26t63.5 -51t41.5 -85t16 -125.5 q0 -306 -176 -306q-60 0 -85 40q-40 -40 -114 -40q-64 0 -97.5 36t-19.5 136l9 62q12 82 49 124.5t94 42.5q36 0 59.5 -8t28.5 -16l5 -7l3 23q0 3 4 3h61q3 0 2 -3l-36 -258q-10 -72 49 -72q23 0 38.5 8t30 31.5t21.5 72.5t7 125q0 72 -16.5 120.5t-48.5 74t-69.5 35.5 t-89.5 10q-56 0 -101.5 -12t-86 -41.5t-68 -76.5t-43.5 -119t-16 -166q0 -76 18.5 -129t51 -79.5t67 -37.5t75.5 -11q31 0 61.5 2.5t53 6.5t40 7.5t27.5 6.5l10 2q3 0 4 -2l7 -53q1 -2 -3 -6q-5 -2 -27 -8.5t-74.5 -14.5t-107.5 -8z" />
<glyph unicode="A" horiz-adv-x="516" d="M152 217h193l-40 338h-16zM60 0h-82q-3 0 -2 4q0 1 72.5 169t144 335.5t71.5 168.5q0 3 4 3h93q3 0 5 -3q0 -3 47 -337.5t48 -335.5q2 -4 -3 -4h-82q-3 0 -4 4l-16 138h-235q-56 -135 -57 -138q-1 -4 -4 -4z" />
<glyph unicode="B" horiz-adv-x="509" d="M123 74h117q30 0 50 4.5t40.5 25t25.5 57.5l8 59q4 30 -3.5 49.5t-24.5 27.5t-31 10.5t-32 2.5h-116zM167 381h113q35 0 50 -4q50 80 50 147q0 28 -6 45.5t-19.5 25t-25.5 9.5t-32 2h-99zM236 0h-208l96 680h195q30 0 50.5 -4t45.5 -16.5t38.5 -42.5t13.5 -77t-15 -87 t-49 -99q60 -39 46 -133l-9 -61q-8 -55 -27 -89t-50.5 -48.5t-58 -18.5t-68.5 -4z" />
<glyph unicode="C" horiz-adv-x="473" d="M220 -10q-19 0 -34.5 1t-33.5 4t-31.5 8.5t-27.5 14.5t-24 21.5t-18 31t-12 41.5t-3.5 54t5.5 67l31 220q11 78 36 128t62 72.5t70.5 29.5t79.5 7q48 0 85 -8t48 -13.5t14 -8.5t2 -5q-2 -2 -17.5 -31t-15.5 -30q-1 -4 -4 -3q-60 20 -124 20q-27 0 -46 -4.5t-42 -19.5 t-39 -51t-24 -92l-29 -204q-9 -45 -4 -75.5t11.5 -49t23.5 -28.5t33 -13t40 -3q57 0 138 27q3 2 5 -2q1 -1 8 -30.5t7 -30.5t-2 -6q-78 -39 -168 -39z" />
<glyph unicode="D" horiz-adv-x="524" d="M125 80h109q31 0 51.5 5.5t41 21.5t34 51t21.5 90l26 188q5 32 4.5 57.5t-3.5 43t-11.5 29.5t-17 19t-22 10.5t-24.5 4.5t-27 1h-109zM223 0h-195l96 680h195q18 0 30 -0.5t30.5 -3t31 -6.5t28 -12.5t25 -20t19 -29.5t13.5 -40.5t4 -54t-5 -68.5l-28 -205 q-9 -67 -29.5 -114t-42 -71t-55.5 -37t-57.5 -15.5t-59.5 -2.5z" />
<glyph unicode="E" horiz-adv-x="468" d="M28 0l96 680h354q3 0 3 -4l-10 -70q0 -4 -4 -4h-268l-31 -218h229q3 0 2 -4l-9 -70q-1 -4 -4 -4h-229l-32 -228h268q4 0 3 -4l-9 -70q-1 -4 -5 -4h-354z" />
<glyph unicode="F" horiz-adv-x="464" d="M32 0q-4 0 -4 4l95 676h354q4 0 4 -4l-10 -70q0 -4 -5 -4h-268l-35 -250h229q3 0 3 -4l-10 -70q0 -4 -4 -4h-229l-38 -270q0 -4 -4 -4h-78z" />
<glyph unicode="G" horiz-adv-x="518" d="M215 -10q-21 0 -37 1.5t-35.5 5.5t-33 11.5t-29 19.5t-23 30t-15 43t-5.5 57.5t5 74.5l31 220q9 65 30 111t44 70t57 37t58.5 16t58.5 3q46 0 89.5 -7.5t60 -13.5t23.5 -9q2 -2 0 -5l-28 -61q-2 -3 -5 -2q-2 1 -24.5 5.5t-60 9t-67.5 4.5q-21 0 -35.5 -1.5t-35 -11 t-34 -26t-26.5 -49.5t-20 -79l-29 -204q-3 -39 -4.5 -66.5t6 -46.5t15.5 -30t23 -17t27.5 -8t30.5 -2l127 11l28 202h-90q-3 0 -3 4l9 66q1 4 5 4h166l-49 -345q-148 -22 -205 -22z" />
<glyph unicode="H" horiz-adv-x="548" d="M32 0q-4 0 -4 4l95 672q0 4 4 4h78q4 0 4 -4l-42 -296h240l42 296q0 4 4 4h78q4 0 4 -4l-95 -672q0 -4 -4 -4h-78q-4 0 -4 4l42 302h-240l-42 -302q-1 -4 -4 -4h-78z" />
<glyph unicode="I" horiz-adv-x="222" d="M32 0q-4 0 -4 4l95 672q0 4 4 4h78q4 0 4 -4l-95 -672q0 -4 -4 -4h-78z" />
<glyph unicode="J" horiz-adv-x="411" d="M130 -10q-30 0 -63 5t-49.5 9.5t-19.5 5.5q-2 1 0 6l26 62q3 4 5 3t18.5 -3.5t43.5 -5t47 -2.5q22 0 36 2.5t30 11t26 28.5t14 52l72 512q0 4 4 4h79q3 0 3 -4l-73 -516q-7 -47 -23 -80t-34 -50t-45 -26.5t-47.5 -11.5t-49.5 -2z" />
<glyph unicode="K" horiz-adv-x="505" d="M32 0q-4 0 -4 4l95 672q0 4 4 4h78q5 0 4 -4l-41 -294h30q220 291 222 294q3 4 5 4h93q3 0 1 -4l-257 -330q175 -340 176 -342q1 -4 -1 -4h-93q-3 0 -6 4l-148 301h-34l-42 -301q-1 -4 -4 -4h-78z" />
<glyph unicode="L" horiz-adv-x="450" d="M28 0l95 676q0 4 5 4h78q4 0 3 -4l-84 -598h268q4 0 3 -4l-9 -69q-2 -5 -5 -5h-354z" />
<glyph unicode="M" horiz-adv-x="652" d="M32 0q-4 0 -4 4l95 673q0 3 3 3h100q4 0 5 -2l90 -416h10q201 412 202 414q3 4 6 4h98q2 0 2 -3l-95 -673q0 -4 -3 -4h-77q-3 0 -3 4l70 495h-14q-171 -351 -172 -354q-1 -4 -5 -4h-66q-5 0 -6 5l-73 353h-12l-70 -495q0 -4 -3 -4h-78z" />
<glyph unicode="N" horiz-adv-x="556" d="M31 0q-4 0 -4 4l95 672q0 4 4 4h96q4 0 5 -4l150 -519h11l73 519q0 4 4 4h77q3 0 3 -4l-95 -672q0 -4 -3 -4h-97q-3 0 -5 4l-149 523h-12l-74 -523q0 -4 -3 -4h-76z" />
<glyph unicode="O" horiz-adv-x="518" d="M228 69q30 0 50 5t41 21.5t35 52.5t22 92l28 204q3 38 4.5 65t-6 45.5t-15.5 29.5t-23 17t-28 8t-32 2q-29 0 -49 -5.5t-41 -21.5t-35 -51t-22 -89l-28 -204q-3 -40 -4.5 -68t6.5 -47t15.5 -30t23 -17t28 -7.5t30.5 -1.5zM216 -10q-19 0 -32.5 0.5t-31.5 3.5t-31 7.5 t-27.5 13.5t-24 21t-18.5 30.5t-12.5 41.5t-3 54.5t5.5 69.5l31 221q11 79 36 129.5t62 72.5t68.5 28.5t76.5 6.5q18 0 31 -0.5t31.5 -3t31.5 -7t28 -13t25 -20.5t19 -30t12.5 -41t3.5 -54t-5 -68l-32 -221q-10 -68 -30.5 -115.5t-42.5 -71.5t-55.5 -37t-56.5 -15.5 t-59 -2.5z" />
<glyph unicode="P" horiz-adv-x="500" d="M163 347h118q105 0 119 102l7 52q5 34 -1 55.5t-21.5 31t-30 12t-37.5 2.5h-119zM110 0h-78q-4 0 -4 4l95 676h207q38 0 63 -4.5t55.5 -19.5t42 -53.5t2.5 -97.5l-9 -61q-7 -47 -25.5 -81.5t-39.5 -52t-50.5 -27.5t-49.5 -12t-46 -2h-122l-37 -265q-1 -4 -4 -4z" />
<glyph unicode="Q" horiz-adv-x="513" d="M216 -10q-19 0 -32.5 0.5t-31.5 3.5t-31 7.5t-27.5 13.5t-24 21t-18.5 30.5t-12.5 41.5t-3 54.5t5.5 69.5l31 221q11 79 36 129.5t62 72.5t68.5 28.5t76.5 6.5q18 0 31 -0.5t31.5 -3t31.5 -7t28 -13t25 -20.5t19 -30t12.5 -41t3.5 -54t-5 -68l-32 -221q-15 -111 -58 -170 q34 -48 35 -48q3 -2 -1 -6l-52 -47q-4 -4 -5 0l-37 51q-44 -22 -126 -22zM249 139q0 5 1 6t26 23.5t27 24.5q1 1 3 1t2 -1t40 -56q20 44 28 103l28 204q3 38 4.5 65t-6 45.5t-15.5 29.5t-23 17t-28 8t-32 2q-29 0 -49 -5.5t-41 -21.5t-35 -51t-22 -89l-28 -204 q-3 -40 -4.5 -68t6.5 -47t15.5 -30t23 -17t28 -7.5t30.5 -1.5q43 0 65 10z" />
<glyph unicode="R" horiz-adv-x="521" d="M161 346h119q106 0 120 104l7 50q5 34 -1 56t-22 31.5t-30.5 12t-36.5 2.5h-120zM110 0h-78q-4 0 -4 4l95 676h207q30 0 50 -2t46.5 -12t41.5 -28t23 -53t1 -84l-7 -54q-17 -130 -114 -164l70 -279q2 -4 -3 -4h-87q-4 0 -5 4l-61 265h-135l-37 -265q-1 -4 -3 -4z" />
<glyph unicode="S" horiz-adv-x="504" d="M208 -10q-114 0 -184 35q-3 1 -1 5l30 66q2 3 4 2q5 -3 23 -8.5t59.5 -13.5t82.5 -8q37 0 60 4.5t44 25t27 59.5l9 60q6 42 -20.5 61.5t-88.5 25.5q-107 11 -142 47t-24 117l10 73q20 149 211 149q107 0 165 -29q3 -2 1 -6l-29 -61q-2 -3 -5 -3q-3 1 -20 5.5t-52.5 10 t-69.5 5.5q-48 0 -78.5 -16t-36.5 -63l-8 -59q-6 -42 17.5 -62t87.5 -27q106 -11 143 -46t26 -117l-10 -74q-6 -42 -23.5 -72t-39 -46.5t-53 -25.5t-57 -11.5t-58.5 -2.5z" />
<glyph unicode="T" horiz-adv-x="456" d="M149 0q-2 0 -2 4l84 597h-164q-3 0 -3 4l10 71q0 4 4 4h412q3 0 2 -4l-10 -71q0 -4 -3 -4h-163l-84 -597q0 -4 -5 -4h-78z" />
<glyph unicode="U" horiz-adv-x="538" d="M208 -10q-106 0 -137.5 61.5t-10.5 211.5l58 413q0 4 3 4h79q3 0 3 -4l-57 -406q-18 -104 -4.5 -152t77.5 -48h39q65 0 89 42.5t40 157.5l58 406q0 4 3 4h79q3 0 3 -4l-58 -413q-21 -147 -67.5 -210t-158.5 -63h-38z" />
<glyph unicode="V" horiz-adv-x="511" d="M167 0q-3 0 -3 4l-93 672q0 4 4 4h82q2 0 3 -4l67 -542h15q219 539 220 542q1 4 5 4h82q3 0 1 -4l-283 -672q-1 -4 -6 -4h-94z" />
<glyph unicode="W" horiz-adv-x="701" d="M96 0q-4 0 -4 4l-19 672q0 4 4 4h82q3 0 4 -4l8 -535h15q160 393 161 395q2 3 4 3h68q4 0 5 -3l48 -395h16q159 532 160 535q2 4 5 4h82q3 0 2 -4l-208 -672q-1 -4 -4 -4h-105q-2 0 -3 3l-47 383h-10q-153 -378 -155 -382t-5 -4h-104z" />
<glyph unicode="X" horiz-adv-x="481" d="M-18 0q-3 0 -2 4l224 351q-114 318 -115 321q-2 4 3 4h87q3 0 4 -4l78 -235h4q142 233 143 235q3 4 5 4h87q3 0 2 -4l-204 -321q123 -348 124 -351q1 -4 -2 -4h-87q-4 0 -5 4l-87 265h-5q-159 -263 -161 -265q-4 -4 -5 -4h-88z" />
<glyph unicode="Y" horiz-adv-x="461" d="M152 0q-3 0 -3 4l38 268q-117 401 -118 404q-2 4 2 4h86q1 0 4 -4l80 -303h5q164 300 166 303q3 4 4 4h84q5 0 2 -4l-230 -404l-38 -268q0 -4 -4 -4h-78z" />
<glyph unicode="Z" horiz-adv-x="462" d="M4 0q-2 0 -2 2l11 77q0 5 3 6l346 507l1 9h-264q-2 0 -2 4l10 70q0 5 4 5h360q4 0 3 -5l-10 -73q-1 -6 -5 -11l-346 -504l-1 -9h274q4 0 3 -4l-9 -70q-1 -4 -5 -4h-371z" />
<glyph unicode="[" horiz-adv-x="251" d="M19 -93l118 843h141q3 0 3 -4l-8 -59q0 -4 -4 -4h-71l-100 -709h71q3 0 3 -4l-8 -59q-1 -4 -4 -4h-141z" />
<glyph unicode="\" horiz-adv-x="357" d="M257 -4h-72q-4 0 -3 4q0 1 -32.5 340.5t-33.5 340.5q-1 4 2 4h71q4 0 4 -4q0 -1 33.5 -340t33.5 -341q0 -4 -3 -4z" />
<glyph unicode="]" horiz-adv-x="250" d="M126 -93h-141q-4 0 -4 4l9 59q0 4 4 4h71l100 709h-71q-4 0 -4 4l9 59q0 4 4 4h141z" />
<glyph unicode="^" horiz-adv-x="457" d="M47 274l203 402q2 4 4 4h60q1 0 3 -4q1 -3 45 -201.5t44 -200.5q0 -4 -2 -4h-70q-3 0 -4 4l-60 294h-3q-141 -291 -143 -294q-2 -4 -6 -4h-69q-4 0 -2 4z" />
<glyph unicode="_" horiz-adv-x="416" d="M-53 -135q-2 0 -2.5 1.5t0.5 2.5l8 58q0 4 3 4h404q3 0 3 -4l-8 -58l-4 -4h-404z" />
<glyph unicode="`" horiz-adv-x="377" d="M232 559l-58 137q-1 4 2 4h73q4 0 5 -4q0 -1 10.5 -34.5t21 -67.5t10.5 -35q2 -4 -2 -4h-57q-5 0 -5 4z" />
<glyph unicode="a" horiz-adv-x="438" d="M170 59q29 0 46 2.5t35.5 18t22.5 45.5l12 89q-65 14 -108 14q-29 0 -49 -17.5t-24 -43.5l-6 -37q-4 -29 12.5 -50t58.5 -21zM138 -8q-63 0 -93 36t-22 90l7 51q8 55 49.5 87t92.5 32q21 0 51.5 -3.5t50.5 -6.5l21 -4l7 56q7 55 -12 72t-69 17q-16 0 -33.5 -1.5t-31 -3.5 t-24 -4.5t-17 -4t-7.5 -1.5q-4 0 -4 3q-5 49 -6 54q-1 3 3 5q48 24 139 24q35 0 58 -4t48 -18.5t34 -49t2 -87.5l-46 -327q0 -4 -5 -4h-72q-2 0 -2 4l3 21q-26 -33 -122 -33z" />
<glyph unicode="b" d="M214 66q19 0 31.5 3t28 15.5t26.5 42t18 76.5l11 74q8 38 4 63t-8 39.5t-16.5 21.5t-21.5 8.5t-24 1.5q-13 0 -38 -6t-43 -11l-19 -6l-35 -249q-6 -39 19.5 -56t66.5 -17zM105 0h-75q-3 0 -3 4l95 672q0 4 3 4h75q4 0 4 -4l-30 -214q77 23 112 23q15 0 25.5 -1t25.5 -3.5 t25 -8.5t21.5 -15.5t18 -24.5t11.5 -35.5t4.5 -49.5t-5.5 -64l-12 -85q-8 -57 -23 -97t-31 -61t-39.5 -32t-40.5 -13.5t-42 -2.5q-43 0 -72.5 11t-38.5 27l-4 -27q0 -3 -4 -3z" />
<glyph unicode="c" horiz-adv-x="404" d="M181 -8q-18 0 -31.5 1t-30.5 4t-27.5 8.5t-24 15.5t-19.5 24t-12.5 34t-4.5 47t4 61l15 110q7 51 23.5 88t35.5 56.5t46.5 30.5t48 13.5t48.5 2.5q66 0 123 -19q4 -2 2 -5l-24 -55q-1 -3 -5 -3q-16 8 -104 8q-19 0 -34 -4t-32.5 -15.5t-30 -38t-17.5 -66.5l-13 -97 q-7 -35 -2.5 -59t10 -37.5t19 -20.5t24.5 -9t27 -2q27 0 54 3t40.5 5.5t15.5 3.5q3 1 5 -2q0 -2 4 -28.5t5 -27.5q1 -3 -3 -5q-44 -22 -135 -22z" />
<glyph unicode="d" d="M345 0h-75q-3 0 -3 3l4 27q-31 -38 -122 -38q-18 0 -29.5 1t-27.5 5.5t-26 12.5t-20.5 23t-14.5 36t-4.5 53.5t5.5 73.5l12 86q8 56 23.5 95.5t32 60t41.5 31.5t42 13t43 2q16 0 42.5 -6t45.5 -11l18 -6l30 214q0 4 4 4h75q2 0 2 -4l-94 -672q-1 -4 -4 -4zM179 65 q41 0 71.5 17.5t36.5 56.5l35 249q-64 23 -93 23q-19 0 -31 -3.5t-28 -15.5t-27 -40.5t-18 -74.5l-11 -75q-5 -32 -5 -56t4.5 -38.5t10 -23.5t16 -13t18.5 -5t21 -1z" />
<glyph unicode="e" horiz-adv-x="433" d="M121 269h181q11 84 -7 114.5t-61 30.5q-46 0 -73.5 -28t-39.5 -117zM184 -9q-19 0 -34.5 1.5t-35.5 6.5t-33 14t-28 24.5t-20 37.5t-9 53t4 72l12 83q10 65 32.5 109t54.5 63t58.5 25.5t58.5 6.5q33 0 56 -5.5t49 -24.5t35.5 -65t-0.5 -116l-9 -66h-263q-8 -39 -3.5 -66 t9.5 -43t19.5 -24t27 -10.5t31.5 -2.5t39 1.5t35.5 4t28 4.5t20 3.5t8.5 1.5q4 0 4 -3q0 -2 3 -27t3 -28q0 -5 -3 -6q-4 -2 -19.5 -7t-53 -11t-77.5 -6z" />
<glyph unicode="f" horiz-adv-x="281" d="M45 0q-4 0 -3 4l57 409h-42q-3 0 -3 4l9 58q0 4 3 4h43l9 63q7 48 22 79t36.5 44t38.5 16.5t40 3.5q46 0 60 -7q3 -2 3 -4t-8 -28.5t-10 -31.5q-2 -3 -4 -3q-1 0 -9 0.5t-19 1.5t-19 1q-38 0 -49 -72l-9 -63h79q4 0 4 -4l-9 -58q0 -4 -4 -4h-80l-57 -409q-1 -4 -4 -4h-75 z" />
<glyph unicode="g" horiz-adv-x="449" d="M173 66q13 0 38 5t43 11l19 5l36 253q4 31 -15 51t-72 20q-19 0 -32 -3.5t-28.5 -16t-26.5 -42t-17 -75.5l-10 -73q-4 -46 -3.5 -72.5t12.5 -40.5t24 -18t32 -4zM140 -194q-96 0 -142 23q-4 1 -1 5q0 5 26 57q1 4 4 3q48 -16 119 -16q48 0 75 17.5t36 77.5l6 42 q-75 -20 -112 -20q-17 0 -28.5 1t-26.5 3.5t-25 8.5t-21 15.5t-17 24.5t-10 35t-3.5 48t5.5 63l12 85q10 68 27.5 111.5t43 63t48.5 25.5t56 6q91 0 112 -36l4 26q0 4 3 4h75q3 0 3 -4l-71 -502q-7 -46 -22.5 -79t-33.5 -49.5t-45.5 -26t-47 -11t-49.5 -1.5z" />
<glyph unicode="h" horiz-adv-x="465" d="M30 0q-3 0 -3 4l95 672q0 4 3 4h75q4 0 4 -4l-31 -222q78 31 116 31q30 0 50 -4.5t41.5 -19.5t28.5 -50.5t-1 -91.5l-45 -315q0 -4 -3 -4h-75q-3 0 -3 4l44 310q9 62 -6 80t-52 18q-15 0 -41.5 -7.5t-44.5 -14.5l-19 -8l-54 -378q0 -4 -4 -4h-75z" />
<glyph unicode="i" horiz-adv-x="216" d="M30 0q-3 0 -3 4l67 471q0 4 3 4h75q3 0 3 -4l-67 -471q0 -4 -3 -4h-75zM111 592q-3 0 -2 4l11 80q1 4 3 4h79q3 0 3 -4l-11 -80q-1 -4 -4 -4h-79z" />
<glyph unicode="j" horiz-adv-x="222" d="M-28 -185q-12 0 -26 1.5t-24 3.5l-9 1q-2 0 -2 3q0 2 9 31t10 31q2 3 4 3l8 -1q8 0 18.5 -0.5t18.5 -0.5q39 0 49 72l73 516q0 4 3 4h74q4 0 4 -4l-73 -516q-6 -40 -18 -68.5t-25 -43t-32 -22t-31.5 -9t-30.5 -1.5zM118 592q-3 0 -3 4l11 80q1 4 5 4h79q2 0 2 -4l-11 -80 q-1 -4 -4 -4h-79z" />
<glyph unicode="k" horiz-adv-x="434" d="M30 0q-3 0 -3 4l95 672q0 4 3 4h75q5 0 4 -4l-54 -387h32q135 184 137 186q4 4 6 4h88q4 0 0 -4l-169 -223q123 -245 124 -248q2 -4 -1 -4h-91q-3 0 -5 4l-101 211h-31l-30 -211q0 -4 -4 -4h-75z" />
<glyph unicode="l" horiz-adv-x="248" d="M140 -5q-17 0 -28 0.5t-24 3.5t-20.5 9t-14.5 16.5t-9.5 26t-2.5 38t4 51.5l76 536q0 4 3 4h74q3 0 3 -4l-76 -537q-6 -45 2.5 -58.5t27.5 -13.5q7 0 25 1l18 1q4 0 4 -5t0.5 -31t0.5 -27q0 -4 -4 -5q-12 -6 -59 -6z" />
<glyph unicode="m" horiz-adv-x="716" d="M30 0q-3 0 -3 4l67 471q0 4 3 4h75q4 0 4 -4l-3 -21q77 31 115 31q46 0 69 -9.5t38 -36.5l9 5q9 4 19 8.5t25.5 10.5t30 10.5t31.5 8t30 3.5q17 0 29.5 -1t28 -4.5t25 -11t20.5 -19.5t14 -29.5t6 -42.5t-4 -58l-45 -315q0 -4 -3 -4h-75q-3 0 -3 4l44 310q9 62 -6.5 80 t-52.5 18q-15 0 -42 -8.5t-46 -17.5l-20 -8q1 -18 -4 -59l-45 -315q0 -4 -3 -4h-75q-3 0 -3 4l44 310q9 63 -6 80.5t-52 17.5q-15 0 -40.5 -7.5t-43.5 -14.5l-19 -8l-54 -378q0 -4 -4 -4h-75z" />
<glyph unicode="n" horiz-adv-x="465" d="M30 0q-3 0 -3 4l67 471q0 4 3 4h75q4 0 4 -4l-3 -21q78 31 116 31q16 0 27.5 -1t28 -4.5t25.5 -10t20.5 -18.5t14.5 -30t6.5 -43t-3.5 -59l-45 -315q0 -4 -4 -4h-74q-3 0 -3 4l44 310q9 62 -6 80t-52 18q-15 0 -41.5 -7.5t-44.5 -14.5l-19 -8l-54 -378q0 -4 -4 -4h-75z " />
<glyph unicode="o" horiz-adv-x="438" d="M185 65q23 0 37.5 3.5t30.5 16.5t27 42t17 75l11 78q7 36 4 61t-6.5 39.5t-16 22t-23.5 9.5t-29 2q-47 0 -74.5 -25.5t-39.5 -108.5l-11 -78q-8 -38 -4.5 -63t8 -40t17 -22.5t24 -9.5t28.5 -2zM175 -8q-19 0 -33 1t-30.5 4t-28.5 9.5t-23.5 16.5t-18.5 25.5t-11.5 36 t-4.5 49t5 63.5l12 89q9 66 29 108.5t50.5 62t58.5 25.5t68 6q16 0 27.5 -0.5t26.5 -3t25.5 -6.5t22.5 -11t19.5 -17.5t14 -25.5t9.5 -34.5t2.5 -45.5t-4.5 -57l-12 -90q-8 -56 -23.5 -95.5t-33.5 -60.5t-45 -32.5t-48.5 -14t-53.5 -2.5z" />
<glyph unicode="p" d="M97 479h75q4 0 4 -4l-4 -26q29 36 121 36q15 0 25.5 -1t25 -3.5t24 -8.5t20 -16t16.5 -25.5t10 -36t3 -50t-6 -65.5l-12 -84q-8 -56 -24 -95.5t-32.5 -59.5t-41.5 -31.5t-42.5 -13.5t-42.5 -2q-15 0 -41.5 4.5t-44.5 9.5l-19 5l-30 -209q0 -4 -4 -4h-75q-3 0 -3 4l95 672 q0 4 3 4zM263 411q-96 0 -106 -71l-36 -253q64 -21 92 -21q25 0 42 6t36 38t27 92l10 72q2 33 4 56t-4 38t-10.5 23.5t-15.5 13t-19 5.5t-20 1z" />
<glyph unicode="q" d="M228 410q-19 0 -31 -3t-27.5 -15t-26.5 -41.5t-18 -76.5l-11 -74q-3 -32 -4.5 -54.5t4.5 -37.5t11 -23.5t16 -13t19 -5.5t20 -1q13 0 37.5 5.5t42.5 10.5l19 5l36 254q5 39 -20 54.5t-67 15.5zM337 479h75q3 0 3 -4l-95 -672q0 -4 -3 -4h-75q-3 0 -3 4l30 209 q-77 -20 -112 -20q-15 0 -26 0.5t-26 3.5t-25 8.5t-21 15t-17.5 24.5t-11.5 35.5t-4.5 49.5t5.5 64l12 86q10 70 28.5 114.5t45.5 63t48 23.5t53 5q93 0 112 -36l4 26q0 4 3 4z" />
<glyph unicode="r" horiz-adv-x="348" d="M30 0q-3 0 -3 4l67 471q0 4 3 4h75q4 0 4 -4l-3 -22q58 32 95 32q48 0 78 -15q2 -1 2 -3q0 -7 -26 -59q-2 -3 -4 -3q-16 8 -67 8q-15 0 -37 -8.5t-37 -16.5l-15 -9l-53 -375q0 -4 -4 -4h-75z" />
<glyph unicode="s" horiz-adv-x="415" d="M169 -7q-94 0 -154 20q-2 1 -1 5l25 58q1 2 4 2l8 -2q8 -1 21 -3.5t29 -5t37 -4t41 -1.5q28 0 43.5 2.5t29.5 16t18 39.5l4 28q3 23 -15 38t-72 23q-70 11 -100.5 37.5t-23.5 80.5l6 44q15 116 167 116q24 0 46.5 -2t38 -5.5t27 -6.5t18.5 -5l6 -2q1 0 1 -3 q-1 -2 -12 -29t-11 -28q-2 -2 -3 -2q-2 1 -18.5 4.5t-46.5 7.5t-56 4q-73 0 -80 -54l-4 -30q-3 -24 15 -36.5t67 -19.5q71 -10 104 -37.5t26 -81.5l-6 -43q-6 -42 -22 -68.5t-43 -38t-51.5 -15t-62.5 -3.5z" />
<glyph unicode="t" horiz-adv-x="280" d="M152 -5q-17 0 -27.5 0.5t-24 3.5t-20.5 9t-14 16.5t-9.5 26t-2.5 38t4 51.5l38 273h-44q-3 0 -3 4l9 59q0 4 3 4h44l22 156q0 4 4 4h74q3 0 3 -4l-22 -156h78q4 0 4 -4l-9 -59q0 -4 -4 -4h-78l-39 -274q-6 -32 -0.5 -48t12 -20t17.5 -4q7 0 17.5 0.5t17.5 0.5l8 1 q3 0 3 -3q0 -2 0.5 -30.5t1.5 -29.5q1 -3 -4 -5q-18 -6 -59 -6z" />
<glyph unicode="u" horiz-adv-x="462" d="M420 479q4 0 4 -4l-66 -471q0 -4 -5 -4h-74q-3 0 -2 4l2 17q-79 -28 -116 -28q-13 0 -22 0.5t-21.5 2t-21.5 5t-19 9.5t-16.5 14.5t-12.5 21t-8.5 28.5t-2.5 37.5t4 47.5l45 316q0 4 3 4h75q4 0 4 -4l-44 -312q-9 -62 5.5 -80t51.5 -18q15 0 41.5 7t45.5 14l19 7l54 382 q0 4 3 4h74z" />
<glyph unicode="v" horiz-adv-x="415" d="M131 0q-2 0 -3 4l-80 471q-1 4 1 4h81q5 0 5 -4l47 -347h11q141 345 143 347q0 4 5 4h78q3 0 2 -4l-212 -471q-1 -4 -4 -4h-74z" />
<glyph unicode="w" horiz-adv-x="612" d="M102 0q-3 0 -3 4l-39 471q0 4 3 4h77q4 0 4 -4l21 -345h8q115 251 116 254q2 4 4 4h58q3 0 3 -4l46 -254h8q112 342 114 345q2 4 6 4h78q1 0 0 -4q-1 -3 -85 -236.5t-85 -234.5q-3 -4 -5 -4h-72q-2 0 -3 4l-46 271h-8q-123 -269 -124 -271q-3 -4 -4 -4h-72z" />
<glyph unicode="x" horiz-adv-x="414" d="M-15 0q-4 0 -2 4l173 246q-93 223 -94 226q-2 3 2 3h84q3 0 5 -4l54 -153h10q98 151 98 153q4 4 6 4h83q2 0 1 -3l-158 -226q102 -243 103 -246q2 -4 -1 -4h-84q-4 0 -5 4l-64 174h-9q-113 -171 -115 -174q-2 -4 -4 -4h-83z" />
<glyph unicode="y" horiz-adv-x="414" d="M-5 -180q-3 0 -3 3q0 2 8 33t8 32q0 4 6 4h21q13 0 22 4t24 22t30 53l18 44q-79 457 -80 460q-1 4 2 4h78q5 0 5 -4l51 -342h8q142 339 143 342q1 4 5 4h77q3 0 2 -4q0 -1 -56.5 -123.5t-117.5 -254.5t-67 -145q-22 -48 -39.5 -75.5t-36.5 -39.5t-32.5 -14.5t-39.5 -2.5 h-36z" />
<glyph unicode="z" horiz-adv-x="402" d="M10 0q-3 0 -3 4l9 63l4 8l253 325l1 7h-198q-4 0 -3 4l9 64q0 4 4 4h295q3 0 3 -4l-9 -63q0 -2 -3 -7l-253 -326l-1 -8h208q3 0 2 -4l-9 -63q0 -4 -3 -4h-306z" />
<glyph unicode="{" horiz-adv-x="286" d="M148 -91q-44 0 -62.5 26.5t-9.5 90.5l25 179q6 43 -2.5 66t-40.5 23q-4 0 -4 4l9 62q0 4 5 4q32 0 46.5 22t21.5 68l26 179q9 64 34.5 90.5t69.5 26.5h46q3 0 3 -4l-8 -58q0 -4 -4 -4h-27q-37 0 -44 -48l-26 -187q-8 -60 -23 -82.5t-43 -34.5l-1 -5q16 -8 23.5 -17 t12.5 -34t-3 -66l-26 -187q-6 -48 31 -48h26q4 0 3 -4l-8 -58q0 -4 -4 -4h-46z" />
<glyph unicode="|" horiz-adv-x="240" d="M36 -94q-4 0 -4 4l118 836q0 4 4 4h62q3 0 3 -4l-118 -836q0 -4 -3 -4h-62z" />
<glyph unicode="}" horiz-adv-x="286" d="M31 -91h-46q-3 0 -3 4l8 58q0 4 4 4h27q39 0 45 48l26 187q8 60 22.5 82.5t41.5 34.5l1 5q-23 11 -31 33.5t0 83.5l26 187q7 48 -31 48h-27q-3 0 -3 4l8 58q0 4 4 4h46q45 0 63 -26.5t9 -90.5l-25 -179q-6 -45 3 -67.5t41 -22.5q3 0 3 -4l-9 -62q0 -4 -4 -4 q-57 0 -69 -89l-25 -179q-9 -64 -34.5 -90.5t-70.5 -26.5z" />
<glyph unicode="~" horiz-adv-x="457" d="M60 279q2 7 7 12t17 14t35 20t42 11q30 0 73.5 -29t69.5 -29q25 0 58 22l32 23q3 0 3 -4l-6 -44q-2 -9 -6 -13q-46 -46 -96 -46q-29 0 -71.5 29.5t-67.5 29.5q-18 0 -39.5 -11.5t-36.5 -22.5t-17 -11q-5 0 -3 6z" />
<glyph unicode="&#xa1;" horiz-adv-x="237" d="M137 680h80q3 0 3 -4l-13 -89q0 -4 -3 -4h-80q-3 0 -3 4l13 89q0 4 3 4zM116 491h69q2 0 2 -4l-68 -483q0 -4 -3 -4h-69q-3 0 -3 4l68 483q0 4 4 4z" />
<glyph unicode="&#xa2;" horiz-adv-x="445" d="M162 -101q-4 0 -4 4l13 93q-17 1 -29.5 3t-30.5 9.5t-27.5 20t-20.5 34t-10.5 53t3.5 75.5l14 102q6 41 17 73t26 52t30 33.5t34 20t32.5 9t30.5 3.5l13 91q0 4 4 4h47q4 0 4 -4l-13 -91q77 -4 100 -19q4 -2 2 -5l-27 -56q-1 -2 -4 -2l-6 1q-5 1 -14 2t-21 2.5t-28.5 2.5 t-33.5 1q-44 0 -73.5 -24t-39.5 -101l-12 -90q-11 -78 10.5 -103t66.5 -25q17 0 34.5 1.5t30.5 3.5t23.5 4t16.5 3l6 2q3 0 3 -3l10 -56q1 -3 -1 -5q-40 -20 -112 -22l-13 -93q0 -4 -4 -4h-47z" />
<glyph unicode="&#xa3;" horiz-adv-x="457" d="M56 0q-3 0 -3 3l39 280h-30q-4 0 -4 4l8 56q0 4 5 4h31l26 186q21 152 191 152q75 0 135 -30q3 -1 1 -5q-8 -12 -25 -63q-1 -2 -5 -2q-3 2 -17.5 6.5t-43.5 10t-55 5.5q-27 0 -43.5 -4t-32.5 -23t-21 -54l-25 -179h138q2 0 2 -4l-8 -56q0 -4 -3 -4h-138l-29 -205h221 q3 0 2 -4l-10 -70q0 -4 -3 -4h-303z" />
<glyph unicode="&#xa4;" horiz-adv-x="393" d="M186 216q33 0 52.5 15.5t25.5 60.5l6 42q6 44 -8.5 59t-46.5 15q-71 0 -81 -74l-5 -42q-6 -46 9 -61t48 -15zM99 94h-55q-4 0 -4 4q13 59 45 85q-30 30 -20 101l9 59q10 67 48 97q-22 24 -22 72q0 17 5 17h55q2 0 2 -4q1 -29 15.5 -41.5t46.5 -12.5q31 0 47 11.5t25 42.5 q1 4 5 4h55q4 0 3 -4q-11 -58 -43 -83q29 -29 18 -99l-9 -59q-11 -74 -47 -101q22 -22 22 -71q0 -18 -5 -18h-55q-3 0 -3 4q0 32 -15 43.5t-45 11.5q-29 0 -47 -10.5t-27 -44.5q0 -4 -4 -4z" />
<glyph unicode="&#xa5;" horiz-adv-x="469" d="M155 0q-3 0 -3 4l21 147h-111q-3 0 -3 4l8 51q0 4 3 4h111l8 59h-111q-2 0 -2 4l7 51q0 4 4 4h85q-98 346 -99 348q-2 4 2 4h86q2 0 4 -4l81 -305h3q165 303 166 305q2 4 4 4h85q4 0 2 -4l-197 -348h82q3 0 3 -4l-7 -51q0 -4 -5 -4h-108l-8 -59h108q4 0 4 -4l-8 -51 q0 -4 -4 -4h-108l-21 -147q0 -4 -3 -4h-79z" />
<glyph unicode="&#xa6;" horiz-adv-x="239" d="M35 -94q-3 0 -3 4l51 357q0 4 3 4h62q4 0 4 -4l-51 -357q0 -4 -4 -4h-62zM103 389q-3 0 -3 4l50 353q0 4 3 4h62q4 0 4 -4l-50 -353q0 -4 -4 -4h-62z" />
<glyph unicode="&#xa7;" horiz-adv-x="446" d="M280 267q27 13 33 55l4 26q3 22 -17 35t-74 27q-4 1 -15 3t-15 4q-39 -13 -44 -53l-4 -29q-3 -22 17 -35.5t68 -20.5q13 -2 47 -12zM26 18q-3 2 -2 5t13.5 27t14.5 30q2 3 4 3q3 -1 19.5 -5.5t49.5 -9t64 -4.5q44 0 64.5 11t26.5 47l4 26q4 28 -16 40.5t-70 20.5 q-26 5 -38.5 7.5t-34.5 11.5t-32 20t-17 31t-3 47l6 43q8 54 40 80q-26 26 -18 78l6 42q10 66 53.5 91t113.5 25q66 0 135 -23q1 0 1 -2t-12.5 -29t-12.5 -28q0 -2 -3 -2l-7 1q-7 2 -19 4.5t-26 5t-32 4t-34 1.5q-72 0 -80 -53l-4 -28q-3 -26 17 -37.5t66 -18.5 q30 -4 52 -11t42.5 -19.5t29.5 -35t5 -52.5l-6 -42q-8 -58 -38 -86q22 -27 16 -71l-6 -43q-5 -34 -17.5 -58t-28 -37t-40 -20t-44.5 -8.5t-49 -1.5q-44 0 -82.5 6t-52 10.5t-18.5 6.5z" />
<glyph unicode="&#xa8;" horiz-adv-x="377" d="M116 591q-3 0 -2 4l11 81q1 4 4 4h65q2 0 2 -4l-11 -81q-1 -4 -4 -4h-65zM283 591q-3 0 -2 4l11 81q1 4 4 4h64q2 0 2 -4l-11 -81q-1 -4 -4 -4h-64z" />
<glyph unicode="&#xa9;" horiz-adv-x="684" d="M399 685q105 0 173 -85.5t68 -211.5q0 -158 -103 -276t-235 -118q-105 0 -174 86t-69 212q0 158 103.5 275.5t236.5 117.5zM309 45q112 0 198.5 100.5t86.5 236.5q0 107 -57 180.5t-145 73.5q-112 0 -199.5 -101t-87.5 -236q0 -108 57.5 -181t146.5 -73zM329 147 q-29 0 -49 5t-39 20t-25.5 48t0.5 82l11 80q7 48 23.5 80t40.5 46.5t45 19.5t47 5q29 0 53 -3.5t33 -7t10 -4.5q2 -2 2 -4l-20 -43q-1 -2 -4 -2l-5 1q-4 0 -11 1t-16.5 2.5t-22 2t-25.5 0.5q-15 0 -26.5 -3t-25 -12t-23 -30t-14.5 -53l-10 -72q-2 -36 -1 -56t13.5 -30 t22.5 -12.5t26 -2.5q13 0 27 1t24 2.5t18 3t13 2.5l5 1q2 0 2 -2t3.5 -22t4.5 -21q0 -4 -2 -4q-38 -19 -105 -19z" />
<glyph unicode="&#xaa;" horiz-adv-x="259" d="M139 425q59 0 65 42l8 52q-43 8 -69 8q-39 0 -45 -36l-3 -22q-6 -44 44 -44zM121 386q-38 0 -55.5 21.5t-12.5 54.5l4 30q4 32 28.5 51.5t55.5 19.5l75 -9l4 31q4 34 -7.5 44.5t-41.5 10.5q-10 0 -20.5 -1t-18.5 -3t-14.5 -3.5t-10.5 -2.5l-4 -1q-1 0 -1 2q0 1 -2.5 14 t-2.5 17q0 2 1 3t9.5 4.5t29.5 7.5t44 4q21 0 34.5 -2.5t28 -11t19.5 -29t0 -52.5l-27 -194q0 -2 -2 -2h-39q-2 0 -2 2l2 16q-18 -22 -74 -22z" />
<glyph unicode="&#xab;" horiz-adv-x="479" d="M243 470q2 -2 18.5 -22t17.5 -21q2 -2 -1 -5l-153 -157q108 -155 109 -157q2 -3 -1 -6l-48 -43q-3 -3 -4 0q-1 1 -73.5 101.5t-73.5 101.5q-2 4 2 6l203 202q2 2 4 0zM432 470q0 -1 17.5 -21.5t17.5 -21.5q2 -2 -1 -5l-153 -157q108 -155 109 -157q2 -3 -1 -6 q-1 -1 -12.5 -11.5t-23 -20.5t-11.5 -11q-1 -1 -2.5 -1t-2.5 1t-73.5 101.5t-73.5 101.5q-2 3 1 6l21 21q22 21 51.5 50.5t59.5 59t51 50t21 21.5q2 2 5 0z" />
<glyph unicode="&#xac;" horiz-adv-x="458" d="M327 240h-278q-3 0 -3 4l9 64q0 4 4 4h347q3 0 2 -4l-27 -196q0 -4 -4 -4h-65q-3 0 -3 4z" />
<glyph unicode="&#xad;" horiz-adv-x="325" d="M38 239q-3 0 -3 4l9 64q0 4 4 4h237q2 0 2 -4l-9 -64q0 -4 -3 -4h-237z" />
<glyph unicode="&#xae;" horiz-adv-x="380" d="M246 685q59 0 98 -48t39 -119q0 -88 -58.5 -153.5t-132.5 -65.5q-59 0 -97 48t-38 119q0 88 57.5 153.5t131.5 65.5zM197 332q61 0 108.5 54.5t47.5 127.5q0 59 -31.5 98.5t-79.5 39.5q-61 0 -108.5 -54.5t-47.5 -127.5q0 -59 31.5 -98.5t79.5 -39.5zM175 386h-29v2 l30 213h64q11 0 19 -1.5t17 -7t12.5 -18.5t1.5 -32l-2 -17q-5 -41 -34 -52l20 -85q0 -2 -2 -2h-32v2l-17 79h-34l-11 -79q0 -2 -3 -2zM193 497h32q28 0 32 30l2 14q4 30 -25 30h-31z" />
<glyph unicode="&#xaf;" horiz-adv-x="377" d="M348 604h-229q-3 0 -3 4l9 59q0 4 3 4h229q3 0 3 -4l-9 -59q0 -4 -3 -4z" />
<glyph unicode="&#xb0;" horiz-adv-x="366" d="M205 471q24 0 38.5 11t19.5 45l7 49q5 32 -5.5 43t-34.5 11q-51 0 -59 -54l-7 -49q-5 -33 6.5 -44.5t34.5 -11.5zM197 415q-46 0 -71.5 21t-16.5 84l9 64q14 103 121 103q21 0 35.5 -3t29.5 -13t21 -32t1 -55l-9 -64q-9 -64 -41 -84.5t-79 -20.5z" />
<glyph unicode="&#xb1;" horiz-adv-x="457" d="M175 134q-2 0 -2 4l23 163h-138q-3 0 -3 4l9 64q0 4 4 4h138l23 162q0 4 3 4h63q3 0 3 -4l-23 -162h139q3 0 2 -4l-9 -64q0 -4 -3 -4h-139l-23 -163q0 -4 -4 -4h-63zM15 0q-3 0 -3 4l9 63q0 4 4 4h347q2 0 2 -4l-9 -63q0 -4 -3 -4h-347z" />
<glyph unicode="&#xb2;" horiz-adv-x="266" d="M225 270h-191l-2 1l6 44q0 2 2 4q10 11 29 32.5t29 32.5t26.5 29.5t25 29.5t21 26t19 24.5t13.5 20.5t10.5 19.5t4.5 15.5l5 37q4 31 -11 40.5t-41 9.5q-10 0 -21.5 -1.5t-21 -3.5t-17.5 -4t-13 -3l-5 -2q-2 -2 -2 1q0 2 -1.5 18.5t-1.5 17.5q0 3 1 3q38 19 89 19 q45 0 72 -18.5t20 -72.5l-6 -43q-3 -24 -28.5 -63t-51 -69.5t-82.5 -94.5l-1 -5h130q2 0 2 -2l-6 -41q0 -2 -2 -2z" />
<glyph unicode="&#xb3;" horiz-adv-x="269" d="M39 284q-1 1 -1 2t7 19t7 19t3 1l5 -1q5 -2 13 -4t17.5 -3.5t21.5 -3t22 -1.5q62 0 68 49l5 36q4 25 -5 39t-19 17t-21 3h-37q-3 0 -3 2l6 39q0 2 3 2h37q19 0 35 13.5t19 38.5l4 36q3 22 -6 33.5t-19 13.5t-26 2q-17 0 -36 -3t-30 -6t-12 -4q-3 -1 -3 1t-1.5 18.5 t-1.5 18.5t1 3t11.5 5t32.5 8t45 4q19 0 33 -2.5t30.5 -10.5t23.5 -27.5t3 -48.5l-6 -41q-3 -20 -11.5 -37t-15.5 -24l-8 -7l-1 -4q3 -2 8 -7t11.5 -25.5t2.5 -47.5l-6 -42q-4 -30 -16.5 -49.5t-31 -27.5t-34 -10.5t-35.5 -2.5q-24 0 -46.5 4.5t-32.5 8.5z" />
<glyph unicode="&#xb4;" horiz-adv-x="377" d="M223 559q-6 -4 -7 -4h-58q-3 0 -1 4l81 137q3 4 6 4h73q5 0 2 -4z" />
<glyph unicode="&#xb6;" horiz-adv-x="514" d="M167 -181q-2 0 -2 4l61 432q-25 0 -47.5 3.5t-46.5 15t-40 29.5t-24 51t-2 76l11 77q7 53 30.5 89.5t56 53t61.5 23t61 6.5h221q4 0 4 -4l-120 -852q0 -4 -5 -4h-68q-3 0 -3 4l110 784h-75l-110 -784q0 -4 -4 -4h-69z" />
<glyph unicode="&#xb7;" horiz-adv-x="202" d="M53 216q-3 0 -2 4l13 91q0 4 3 4h77q3 0 3 -4l-13 -91q0 -4 -4 -4h-77z" />
<glyph unicode="&#xb8;" horiz-adv-x="377" d="M139 -150h-73q-5 0 -2 4l81 152q4 4 7 4h57q3 0 2 -4l-67 -152q-1 -4 -5 -4z" />
<glyph unicode="&#xb9;" horiz-adv-x="259" d="M165 270h-40q-2 0 -2 2l49 349q-70 -56 -71 -57q-3 -2 -3 1q0 2 -2 20.5t-2 19.5q0 2 2 4l82 68q1 1 4 1h40q2 0 2 -2l-57 -404q0 -2 -2 -2z" />
<glyph unicode="&#xba;" horiz-adv-x="258" d="M148 429q19 0 31 4t23.5 23.5t16.5 56.5l5 43q6 52 -5 67t-40 15t-46 -15.5t-25 -66.5l-7 -43q-8 -53 4.5 -68.5t42.5 -15.5zM142 387q-15 0 -25.5 1t-23.5 5.5t-19.5 12.5t-14 21.5t-6.5 34t3 48.5l7 49q11 75 41.5 98.5t80.5 23.5q12 0 20.5 -0.5t20 -3t18 -7.5 t14.5 -14t10 -22t4 -31.5t-3 -42.5l-7 -50q-6 -42 -17.5 -68.5t-30 -37.5t-33.5 -14t-39 -3z" />
<glyph unicode="&#xbb;" horiz-adv-x="476" d="M42 58q-2 2 -18.5 22t-17.5 21q-2 3 1 6l154 157q-109 155 -110 157q-2 4 0 6l48 42q3 3 5 0l147 -202q3 -3 0 -6l-205 -203q-2 -2 -4 0zM227 58l-36 43q-2 3 1 6l154 157q-109 155 -110 157q-2 4 1 6l47 42q3 3 5 0l147 -202q3 -3 0 -6l-205 -203q-2 -2 -4 0z" />
<glyph unicode="&#xbc;" horiz-adv-x="661" d="M127 -5q-2 0 -1 4q39 86 179.5 341t179.5 341q1 3 5 3h44q4 0 1 -4l-357 -681q-3 -4 -6 -4h-45zM503 0h-37q-3 0 -3 2l10 74h-134q-1 0 -1 2l6 44q0 3 1 4l15 29q14 29 34.5 70t40.5 81.5t35 69.5l14 30q2 2 3 2h43v-2l-135 -279l-1 -5h86l11 82q2 2 3 2h38q4 0 2 -2 l-11 -82h37q2 0 2 -3l-5 -41q-1 -2 -4 -2h-37l-10 -74q0 -2 -3 -2zM190 272h-39q-2 0 -2 2l49 349q-71 -56 -72 -57q-2 -2 -2 1q0 2 -2 20.5t-2 19.5q0 3 2 4l83 68q0 1 3 1h39q3 0 3 -2l-57 -404q0 -2 -3 -2z" />
<glyph unicode="&#xbd;" horiz-adv-x="691" d="M574 0h-191l-2 1l6 44q0 2 2 4q10 11 29 32.5t29 32.5t26.5 29.5t25 29.5t21 26t19 24.5t13.5 20.5t10.5 19.5t4.5 15.5l5 37q4 31 -10.5 40.5t-41.5 9.5q-10 0 -21.5 -1.5t-21 -3.5t-17.5 -4t-13 -3l-5 -2q-2 -2 -2 1q0 2 -2 18.5t-2 17.5q0 2 2 3q38 19 89 19 q20 0 35.5 -3t31 -12t22.5 -28.5t3 -47.5l-6 -43q-5 -36 -66 -129.5t-77 -97.5l-19 -5h129q3 0 3 -2l-6 -41q0 -2 -3 -2zM129 -5q-3 0 -2 4q40 87 180 342t179 340q2 3 5 3h44q4 0 1 -4q-1 -1 -179.5 -340.5t-178.5 -340.5q-1 -4 -4 -4h-45zM190 272h-39q-2 0 -2 2l49 349 q-71 -56 -72 -57q-2 -2 -2 1q0 2 -2 20.5t-2 19.5q0 3 2 4l83 68q0 1 3 1h39q3 0 3 -2l-57 -404q0 -2 -3 -2z" />
<glyph unicode="&#xbe;" horiz-adv-x="721" d="M186 -5q-2 0 -1 4q38 83 178.5 338.5t180.5 343.5q2 3 4 3h45q2 0 1 -4l-358 -681q-1 -4 -6 -4h-44zM77 288v2q0 1 6 19t6 19t3 1l5 -1q5 -2 13 -4t17.5 -3.5t21.5 -3t22 -1.5q62 0 68 49l5 36q9 59 -44 59h-36q-3 0 -3 2l5 39q2 2 4 2h37q18 0 33.5 13.5t18.5 38.5l5 36 q2 17 -1.5 27.5t-13 15t-17 5.5t-19.5 1q-16 0 -35.5 -3t-31 -6t-12.5 -4q-2 -2 -2 1q0 2 -1.5 18.5t-1.5 18.5q0 1 2 3q1 1 10.5 5t31.5 8t45 4q19 0 33.5 -2.5t31.5 -10.5t24 -27.5t3 -48.5l-6 -41q-3 -20 -12 -37t-16 -24l-8 -7v-4q3 -2 8 -7t11.5 -25.5t2.5 -47.5 l-6 -42q-3 -24 -13 -41.5t-21.5 -26.5t-28 -14.5t-28.5 -6.5t-28 -1q-24 0 -46 4.5t-32 8.5zM563 0h-37q-2 0 -2 2l11 74h-135q-2 0 -2 2l6 44q0 2 2 4l14 29q15 29 35 70t40 81.5t35 69.5l14 30q2 2 3 2h43q1 0 1 -2l-136 -279l-1 -5h87l12 82q0 2 1 2h38q3 0 3 -2l-12 -82 h38q2 0 2 -3l-6 -41q0 -2 -2 -2h-38l-11 -74q0 -2 -3 -2z" />
<glyph unicode="&#xbf;" horiz-adv-x="382" d="M221 680h79q3 0 3 -4l-12 -90q-2 -4 -5 -4h-79q-3 0 -3 4l13 90q0 4 4 4zM197 499h74q3 0 3 -4l-8 -52q-5 -36 -28.5 -73.5t-48 -64t-46 -55t-24.5 -48.5l-7 -50q-4 -27 0 -44.5t15.5 -25t22.5 -9.5t27 -2q15 0 33 2.5t32 5.5t26 6l20 5l7 3q5 2 5 -2t3 -29.5t4 -31.5 q0 -4 -2 -5q-60 -30 -141 -30q-24 0 -42 2t-39.5 11t-34.5 24.5t-19.5 44.5t-0.5 69l8 56q6 42 76 123t75 119l7 51q0 4 3 4z" />
<glyph unicode="&#xc0;" horiz-adv-x="510" d="M152 217h193l-40 338h-16zM60 0h-82q-3 0 -2 4q0 1 72.5 169t144 335.5t71.5 168.5q0 3 4 3h93q3 0 5 -3q0 -3 47 -337.5t48 -335.5q2 -4 -3 -4h-82q-3 0 -4 4l-16 138h-235q-56 -135 -57 -138q-1 -4 -4 -4zM332 759l-58 137q-1 4 1 4h73q4 0 5 -4q0 -1 10.5 -34.5 t21.5 -67.5t11 -35q2 -4 -3 -4h-57q-6 0 -4 4z" />
<glyph unicode="&#xc1;" horiz-adv-x="510" d="M60 0h-82q-3 0 -2 4q0 1 72.5 169t144 335.5t71.5 168.5q0 3 4 3h93q3 0 5 -3q0 -3 47 -337.5t48 -335.5q2 -4 -3 -4h-82q-3 0 -4 4l-16 138h-235q-56 -135 -57 -138q-1 -4 -4 -4zM152 217h193l-40 338h-16zM319 759q-6 -4 -7 -4h-58q-3 0 -1 4l81 137q3 4 6 4h73 q5 0 2 -4z" />
<glyph unicode="&#xc2;" horiz-adv-x="510" d="M152 217h193l-40 338h-16zM60 0h-82q-3 0 -2 4q0 1 72.5 169t144 335.5t71.5 168.5q0 3 4 3h93q3 0 5 -3q0 -3 47 -337.5t48 -335.5q2 -4 -3 -4h-82q-3 0 -4 4l-16 138h-235q-56 -135 -57 -138q-1 -4 -4 -4zM268 755h-58q-3 0 -1 4q10 17 47 68.5t47 68.5q2 4 6 4h70 q6 0 7 -4q1 -2 27.5 -68.5t27.5 -68.5q1 -4 -2 -4h-58q-4 0 -5 4l-38 83h-4q-58 -80 -60 -83q-3 -4 -6 -4z" />
<glyph unicode="&#xc3;" horiz-adv-x="510" d="M152 217h193l-40 338h-16zM60 0h-82q-3 0 -2 4q0 1 72.5 169t144 335.5t71.5 168.5q0 3 4 3h93q3 0 5 -3q0 -3 47 -337.5t48 -335.5q2 -4 -3 -4h-82q-3 0 -4 4l-16 138h-235q-56 -135 -57 -138q-1 -4 -4 -4zM218 789q-3 0 -3 5l6 43q2 8 6 12q35 35 65 35q23 0 51.5 -19 t46.5 -19q20 0 40 17.5t22 17.5t2 -4l-6 -44q-2 -8 -6 -13q-29 -36 -66 -36q-22 0 -50 19.5t-45 19.5q-19 0 -40.5 -17t-22.5 -17z" />
<glyph unicode="&#xc4;" horiz-adv-x="510" d="M60 0h-82q-3 0 -2 4q0 1 72.5 169t144 335.5t71.5 168.5q0 3 4 3h93q3 0 5 -3q0 -3 47 -337.5t48 -335.5q2 -4 -3 -4h-82q-3 0 -4 4l-16 138h-235q-56 -135 -57 -138q-1 -4 -4 -4zM152 217h193l-40 338h-16zM213 791q-3 0 -2 4l11 81q1 4 4 4h65q2 0 2 -4l-11 -81 q-1 -4 -4 -4h-65zM380 791q-3 0 -2 4l11 81q1 4 4 4h64q2 0 2 -4l-11 -81q-1 -4 -4 -4h-64z" />
<glyph unicode="&#xc5;" horiz-adv-x="510" d="M152 217h193l-40 338h-16zM60 0h-82q-3 0 -2 4q0 1 72.5 169t144 335.5t71.5 168.5q0 3 4 3h93q3 0 5 -3q0 -3 47 -337.5t48 -335.5q2 -4 -3 -4h-82q-3 0 -4 4l-16 138h-235q-56 -135 -57 -138q-1 -4 -4 -4zM328 778q45 0 49 46l1 13q3 27 -5.5 36t-28.5 9q-44 0 -51 -45 l-2 -13q-4 -27 6 -36.5t31 -9.5zM323 738q-37 0 -57.5 16t-13.5 66l3 22q11 80 94 80q16 0 27.5 -2.5t23.5 -9.5t17 -24.5t1 -43.5l-3 -22q-4 -27 -13 -44.5t-23 -25t-26.5 -10t-29.5 -2.5z" />
<glyph unicode="&#xc6;" horiz-adv-x="781" d="M198 217h175l50 351h-17zM64 0h-84q-2 0 -1 4q1 3 208 336t210 335q1 5 5 5h383q3 0 3 -4l-10 -70q0 -4 -4 -4h-262l-30 -218h222q3 0 2 -4l-10 -70q0 -4 -3 -4h-222l-32 -228h262q3 0 2 -4l-10 -70q0 -4 -3 -4h-347l20 142h-212q-81 -135 -83 -138q-3 -4 -4 -4z" />
<glyph unicode="&#xc7;" horiz-adv-x="466" d="M188 -150h-73q-4 0 -1 4l73 137q-25 2 -44.5 6.5t-40 15t-32.5 27.5t-23 43.5t-10.5 63t5.5 86.5l31 220q9 63 28 108t41.5 69.5t55 38.5t59.5 17.5t63 3.5q48 0 85.5 -8t48.5 -13.5t14 -8.5q2 -2 1 -5q-2 -2 -17 -31t-15 -30q-3 -4 -5 -3q-60 20 -123 20q-27 0 -46 -4.5 t-42 -19.5t-39 -51t-24 -92l-29 -204q-3 -38 -4.5 -65t6 -45.5t15.5 -30t23.5 -18t29.5 -8.5t33 -2q58 0 139 27q3 2 5 -2q1 -1 8 -30.5t7 -30.5q1 -2 -3 -6q-65 -32 -135 -38l-59 -137q-2 -4 -6 -4z" />
<glyph unicode="&#xc8;" horiz-adv-x="462" d="M28 0l96 680h354q3 0 3 -4l-10 -70q0 -4 -4 -4h-268l-31 -218h229q3 0 2 -4l-9 -70q-1 -4 -4 -4h-229l-32 -228h268q4 0 3 -4l-9 -70q-1 -4 -5 -4h-354zM308 759l-58 137q-1 4 1 4h73q4 0 5 -4q1 -1 7.5 -22t14 -46t14.5 -46.5t7 -22.5q2 -4 -3 -4h-57q-6 0 -4 4z" />
<glyph unicode="&#xc9;" horiz-adv-x="462" d="M28 0l96 680h354q3 0 3 -4l-10 -70q0 -4 -4 -4h-268l-31 -218h229q3 0 2 -4l-9 -70q-1 -4 -4 -4h-229l-32 -228h268q4 0 3 -4l-9 -70q-1 -4 -5 -4h-354zM303 759q-6 -4 -7 -4h-58q-3 0 -1 4l81 137q3 4 6 4h73q5 0 2 -4z" />
<glyph unicode="&#xca;" horiz-adv-x="462" d="M28 0l96 680h354q3 0 3 -4l-10 -70q0 -4 -4 -4h-268l-31 -218h229q3 0 2 -4l-9 -70q-1 -4 -4 -4h-229l-32 -228h268q4 0 3 -4l-9 -70q-1 -4 -5 -4h-354zM252 755h-58q-2 0 0 4q10 17 46.5 68.5t46.5 68.5q2 4 6 4h70q6 0 7 -4t28 -70t28 -67q0 -4 -3 -4h-58q-4 0 -4 4 l-39 83h-4q-58 -80 -60 -83q-3 -4 -6 -4z" />
<glyph unicode="&#xcb;" horiz-adv-x="462" d="M28 0l96 680h354q3 0 3 -4l-10 -70q0 -4 -4 -4h-268l-31 -218h229q3 0 2 -4l-9 -70q-1 -4 -4 -4h-229l-32 -228h268q4 0 3 -4l-9 -70q-1 -4 -5 -4h-354zM195 791q-3 0 -2 4l11 81q1 4 4 4h65q2 0 2 -4l-11 -81q-1 -4 -4 -4h-65zM362 791q-3 0 -2 4l11 81q1 4 4 4h64 q2 0 2 -4l-11 -81q-1 -4 -4 -4h-64z" />
<glyph unicode="&#xcc;" horiz-adv-x="216" d="M32 0q-4 0 -4 4l95 672q0 4 4 4h78q4 0 4 -4l-95 -672q0 -4 -4 -4h-78zM184 759l-57 137q-3 4 1 4h73q4 0 5 -4q0 -1 10.5 -34.5t21 -67.5t10.5 -35q2 -4 -2 -4h-57q-5 0 -5 4z" />
<glyph unicode="&#xcd;" horiz-adv-x="216" d="M32 0q-4 0 -4 4l95 672q0 4 4 4h78q4 0 4 -4l-95 -672q0 -4 -4 -4h-78zM172 759q-4 -4 -6 -4h-58q-3 0 -1 4l81 137q3 4 6 4h73q4 0 1 -4z" />
<glyph unicode="&#xce;" horiz-adv-x="216" d="M32 0q-4 0 -4 4l95 672q0 4 4 4h78q4 0 4 -4l-95 -672q0 -4 -4 -4h-78zM121 755h-58q-3 0 -1 4q10 17 47 68.5t47 68.5q2 4 6 4h70q5 0 6 -4q1 -2 28 -68.5t28 -68.5q1 -4 -2 -4h-58q-4 0 -5 4l-38 83h-4q-58 -80 -60 -83q-3 -4 -6 -4z" />
<glyph unicode="&#xcf;" horiz-adv-x="216" d="M32 0q-4 0 -4 4l95 672q0 4 5 4h78q3 0 3 -4l-94 -672q0 -4 -5 -4h-78zM67 791q-3 0 -2 4l11 81q1 4 4 4h65q2 0 2 -4l-11 -81q-1 -4 -4 -4h-65zM234 791q-3 0 -2 4l11 81q1 4 4 4h64q2 0 2 -4l-11 -81q-1 -4 -4 -4h-64z" />
<glyph unicode="&#xd0;" horiz-adv-x="524" d="M125 80h110q23 0 37 1.5t34 10.5t33 26t25.5 49.5t18.5 79.5l26 189q4 29 4.5 53t-3 40.5t-8.5 29t-14 20t-17 12t-20.5 6.5t-21 2.5t-21.5 0.5h-110l-31 -221h98q4 0 4 -4l-9 -63q0 -4 -5 -4h-98zM217 0h-188l43 308h-38q-2 0 -2 4l9 63q0 4 3 4h38l43 301h188 q17 0 30 -0.5t29.5 -2.5t29 -6t27 -10t24.5 -15.5t20 -22t16 -30t10 -39t3.5 -49.5t-5.5 -60l-29 -205q-7 -49 -20.5 -88t-28.5 -64t-37 -42.5t-39.5 -26t-44 -13.5t-41.5 -5.5t-40 -0.5z" />
<glyph unicode="&#xd1;" horiz-adv-x="549" d="M31 0q-4 0 -4 4l95 672q0 4 4 4h96q4 0 5 -4l150 -519h11l73 519q0 4 4 4h77q3 0 3 -4l-95 -672q0 -4 -3 -4h-97q-3 0 -5 4l-149 523h-12l-74 -523q0 -4 -3 -4h-76zM238 789q-3 0 -3 5l6 43q2 8 6 12q35 35 65 35q23 0 51.5 -19t46.5 -19q20 0 40 17.5t22 17.5t2 -4 l-6 -44q-2 -8 -6 -13q-29 -36 -66 -36q-22 0 -50 19.5t-45 19.5q-19 0 -40.5 -17t-22.5 -17z" />
<glyph unicode="&#xd2;" horiz-adv-x="511" d="M228 69q30 0 50 5t41 21.5t35 52.5t22 92l28 204q3 38 4.5 65t-6 45.5t-15.5 29.5t-23 17t-28 8t-32 2q-29 0 -49 -5.5t-41 -21.5t-35 -51t-22 -89l-28 -204q-3 -40 -4.5 -68t6.5 -47t15.5 -30t23 -17t28 -7.5t30.5 -1.5zM216 -10q-19 0 -32.5 0.5t-31.5 3.5t-31 7.5 t-27.5 13.5t-24 21t-18.5 30.5t-12.5 41.5t-3 54.5t5.5 69.5l31 221q11 79 36 129.5t62 72.5t68.5 28.5t76.5 6.5q18 0 31 -0.5t31.5 -3t31.5 -7t28 -13t25 -20.5t19 -30t12.5 -41t3.5 -54t-5 -68l-32 -221q-10 -68 -30.5 -115.5t-42.5 -71.5t-55.5 -37t-56.5 -15.5 t-59 -2.5zM332 759l-58 137q-1 4 1 4h73q4 0 5 -4q0 -1 10.5 -34.5t21.5 -67.5t11 -35q2 -4 -3 -4h-57q-6 0 -4 4z" />
<glyph unicode="&#xd3;" horiz-adv-x="511" d="M216 -10q-19 0 -32.5 0.5t-31.5 3.5t-31 7.5t-27.5 13.5t-24 21t-18.5 30.5t-12.5 41.5t-3 54.5t5.5 69.5l31 221q11 79 36 129.5t62 72.5t68.5 28.5t76.5 6.5q18 0 31 -0.5t31.5 -3t31.5 -7t28 -13t25 -20.5t19 -30t12.5 -41t3.5 -54t-5 -68l-32 -221 q-10 -68 -30.5 -115.5t-42.5 -71.5t-55.5 -37t-56.5 -15.5t-59 -2.5zM228 69q30 0 50 5t41 21.5t35 52.5t22 92l28 204q3 38 4.5 65t-6 45.5t-15.5 29.5t-23 17t-28 8t-32 2q-29 0 -49 -5.5t-41 -21.5t-35 -51t-22 -89l-28 -204q-3 -40 -4.5 -68t6.5 -47t15.5 -30t23 -17 t28 -7.5t30.5 -1.5zM319 759q-6 -4 -7 -4h-58q-3 0 -1 4l81 137q3 4 6 4h73q5 0 2 -4z" />
<glyph unicode="&#xd4;" horiz-adv-x="511" d="M228 69q30 0 50 5t41 21.5t35 52.5t22 92l28 204q3 38 4.5 65t-6 45.5t-15.5 29.5t-23 17t-28 8t-32 2q-29 0 -49 -5.5t-41 -21.5t-35 -51t-22 -89l-28 -204q-3 -40 -4.5 -68t6.5 -47t15.5 -30t23 -17t28 -7.5t30.5 -1.5zM216 -10q-19 0 -32.5 0.5t-31.5 3.5t-31 7.5 t-27.5 13.5t-24 21t-18.5 30.5t-12.5 41.5t-3 54.5t5.5 69.5l31 221q11 79 36 129.5t62 72.5t68.5 28.5t76.5 6.5q18 0 31 -0.5t31.5 -3t31.5 -7t28 -13t25 -20.5t19 -30t12.5 -41t3.5 -54t-5 -68l-32 -221q-10 -68 -30.5 -115.5t-42.5 -71.5t-55.5 -37t-56.5 -15.5 t-59 -2.5zM268 755h-58q-3 0 -1 4q10 17 47 68.5t47 68.5q2 4 6 4h70q6 0 7 -4q1 -2 27.5 -68.5t27.5 -68.5q1 -4 -2 -4h-58q-4 0 -5 4l-38 83h-4q-58 -80 -60 -83q-3 -4 -6 -4z" />
<glyph unicode="&#xd5;" horiz-adv-x="511" d="M228 69q30 0 50 5t41 21.5t35 52.5t22 92l28 204q3 38 4.5 65t-6 45.5t-15.5 29.5t-23 17t-28 8t-32 2q-29 0 -49 -5.5t-41 -21.5t-35 -51t-22 -89l-28 -204q-3 -40 -4.5 -68t6.5 -47t15.5 -30t23 -17t28 -7.5t30.5 -1.5zM216 -10q-19 0 -32.5 0.5t-31.5 3.5t-31 7.5 t-27.5 13.5t-24 21t-18.5 30.5t-12.5 41.5t-3 54.5t5.5 69.5l31 221q11 79 36 129.5t62 72.5t68.5 28.5t76.5 6.5q18 0 31 -0.5t31.5 -3t31.5 -7t28 -13t25 -20.5t19 -30t12.5 -41t3.5 -54t-5 -68l-32 -221q-10 -68 -30.5 -115.5t-42.5 -71.5t-55.5 -37t-56.5 -15.5 t-59 -2.5zM219 789q-3 0 -3 5l6 43q2 8 6 12q35 35 65 35q23 0 51.5 -19t46.5 -19q19 0 40 17.5t22 17.5q2 0 2 -4l-6 -44q-2 -8 -6 -13q-29 -36 -66 -36q-23 0 -51 19.5t-44 19.5q-19 0 -40.5 -17t-22.5 -17z" />
<glyph unicode="&#xd6;" horiz-adv-x="511" d="M216 -10q-19 0 -32.5 0.5t-31.5 3.5t-31 7.5t-27.5 13.5t-24 21t-18.5 30.5t-12.5 41.5t-3 54.5t5.5 69.5l31 221q11 79 36 129.5t62 72.5t68.5 28.5t76.5 6.5q18 0 31 -0.5t31.5 -3t31.5 -7t28 -13t25 -20.5t19 -30t12.5 -41t3.5 -54t-5 -68l-32 -221 q-10 -68 -30.5 -115.5t-42.5 -71.5t-55.5 -37t-56.5 -15.5t-59 -2.5zM228 69q30 0 50 5t41 21.5t35 52.5t22 92l28 204q3 38 4.5 65t-6 45.5t-15.5 29.5t-23 17t-28 8t-32 2q-29 0 -49 -5.5t-41 -21.5t-35 -51t-22 -89l-28 -204q-3 -40 -4.5 -68t6.5 -47t15.5 -30t23 -17 t28 -7.5t30.5 -1.5zM214 791q-3 0 -2 4l11 81q1 4 4 4h65q2 0 2 -4l-11 -81q-1 -4 -4 -4h-65zM381 791q-3 0 -2 4l11 81q1 4 4 4h64q2 0 2 -4l-11 -81q-1 -4 -4 -4h-64z" />
<glyph unicode="&#xd7;" horiz-adv-x="457" d="M89 93q-1 1 -18.5 22.5t-18.5 22.5t1 6l127 132q-90 132 -91 134q-1 3 2 6q1 1 13 12l24 22l11 10q3 3 5 0l91 -133q127 131 129 133t4 0q1 0 10 -10.5t18 -21.5t10 -12q2 -2 -1 -6l-129 -134q91 -130 92 -132q2 -3 -1 -6q-1 -1 -13.5 -12t-24.5 -21.5t-12 -11.5 q-2 -2 -4 0l-92 134q-126 -132 -128 -134t-4 0z" />
<glyph unicode="&#xd8;" horiz-adv-x="511" d="M19 -40q-3 0 0 4l46 78q-43 58 -24 190l31 221q11 79 36 129.5t62 72.5t68.5 28.5t76.5 6.5q68 0 106 -16l26 42q3 4 6 4h65q4 0 1 -4q-2 -2 -49 -81q40 -57 22 -182l-31 -221q-9 -68 -30 -115.5t-42.5 -71.5t-55.5 -37t-57 -15.5t-59 -2.5q-67 0 -103 14 q-17 -27 -24 -40q-4 -4 -5 -4h-66zM228 69q30 0 50 5t41 21.5t35 52.5t22 92l29 204q9 45 4 75.5t-11.5 48.5t-23 27.5t-32 12.5t-38.5 3q-28 0 -48 -5.5t-41 -21.5t-35 -51t-22 -89l-29 -204q-3 -40 -4.5 -68t6.5 -47t15.5 -30t23 -17t28 -7.5t30.5 -1.5z" />
<glyph unicode="&#xd9;" horiz-adv-x="532" d="M208 -10q-106 0 -137.5 61.5t-10.5 211.5l58 413q0 4 3 4h79q3 0 3 -4l-57 -406q-18 -104 -4.5 -152t77.5 -48h39q65 0 89 42.5t40 157.5l58 406q0 4 3 4h79q3 0 3 -4l-58 -413q-21 -147 -67.5 -210t-158.5 -63h-38zM340 759l-58 137q-1 4 2 4h73q4 0 5 -4 q0 -1 10.5 -34.5t21 -67.5t10.5 -35q2 -4 -2 -4h-57q-5 0 -5 4z" />
<glyph unicode="&#xda;" horiz-adv-x="532" d="M208 -10q-106 0 -137.5 61.5t-10.5 211.5l58 413q0 4 3 4h79q3 0 3 -4l-57 -406q-18 -104 -4.5 -152t77.5 -48h39q65 0 89 42.5t40 157.5l58 406q0 4 3 4h79q3 0 3 -4l-58 -413q-21 -147 -67.5 -210t-158.5 -63h-38zM329 759q-6 -4 -7 -4h-58q-3 0 -1 4l81 137q3 4 6 4 h73q4 0 1 -4z" />
<glyph unicode="&#xdb;" horiz-adv-x="532" d="M208 -10q-106 0 -137.5 61.5t-10.5 211.5l58 413q0 4 3 4h79q3 0 3 -4l-57 -406q-18 -104 -4.5 -152t77.5 -48h39q65 0 89 42.5t40 157.5l58 406q0 4 3 4h79q3 0 3 -4l-58 -413q-21 -147 -67.5 -210t-158.5 -63h-38zM278 755h-58q-3 0 -1 4q10 17 47 68.5t47 68.5 q2 4 6 4h70q5 0 6 -4q1 -2 28 -68.5t28 -68.5q1 -4 -2 -4h-58q-4 0 -5 4l-38 83h-4q-59 -80 -61 -83q-3 -4 -5 -4z" />
<glyph unicode="&#xdc;" horiz-adv-x="532" d="M208 -10q-106 0 -137.5 61.5t-10.5 211.5l58 413q0 4 3 4h79q3 0 3 -4l-57 -406q-18 -104 -4.5 -152t77.5 -48h39q65 0 89 42.5t40 157.5l58 406q0 4 3 4h79q3 0 3 -4l-58 -413q-21 -147 -67.5 -210t-158.5 -63h-38zM225 791q-3 0 -3 4l12 81q0 4 3 4h65q3 0 3 -4 l-12 -81q0 -4 -3 -4h-65zM392 791q-3 0 -3 4l12 81q0 4 3 4h64q3 0 3 -4l-12 -81q0 -4 -3 -4h-64z" />
<glyph unicode="&#xdd;" d="M152 0q-3 0 -3 4l38 268q-117 401 -118 404q-2 4 2 4h86q1 0 4 -4l80 -303h5q164 300 166 303q3 4 4 4h84q5 0 2 -4l-230 -404l-38 -268q0 -4 -4 -4h-78zM290 759q-4 -4 -6 -4h-58q-3 0 -1 4l81 137q3 4 6 4h73q4 0 1 -4z" />
<glyph unicode="&#xde;" horiz-adv-x="500" d="M146 228h118q105 0 119 103l6 42q5 33 -1 54.5t-21 31t-30 12.5t-38 3h-119zM110 0h-78q-4 0 -4 4l95 672q0 4 4 4h78q4 0 3 -4l-17 -124h121q29 0 48.5 -2t47 -11.5t42.5 -27t23.5 -52t1.5 -83.5l-7 -50q-7 -48 -25.5 -82.5t-39.5 -52t-51 -27.5t-50 -12t-46 -2h-122 l-21 -146q0 -4 -3 -4z" />
<glyph unicode="&#xdf;" horiz-adv-x="467" d="M104 0h-74q-3 0 -3 4l67 475q9 66 28.5 109.5t48.5 63.5t56 26.5t64 6.5q29 0 51 -5t45.5 -20t33.5 -49.5t3 -86.5l-7 -51q-5 -36 -18 -64.5t-23 -38.5l-11 -10v-5q2 -1 5.5 -4t12.5 -14.5t14 -26t9.5 -39t-1.5 -54.5l-7 -52q-7 -54 -26 -89.5t-49.5 -51t-59 -21 t-69.5 -5.5q-3 0 -3 4l9 66q0 4 4 4q46 0 75 20t38 80l6 40q9 62 -16 83.5t-69 21.5q-2 0 -2 4l9 66q1 4 4 4q37 0 60 19.5t30 68.5l6 41q14 92 -65 92q-43 0 -68 -25t-37 -108l-67 -475q0 -4 -4 -4z" />
<glyph unicode="&#xe0;" horiz-adv-x="432" d="M170 59q29 0 46 2.5t35.5 18t22.5 45.5l12 89q-65 14 -108 14q-29 0 -49 -17.5t-24 -43.5l-6 -37q-4 -29 12.5 -50t58.5 -21zM138 -8q-63 0 -93 36t-22 90l7 51q8 55 49.5 87t92.5 32q21 0 51.5 -3.5t50.5 -6.5l21 -4l7 56q7 55 -12 72t-69 17q-16 0 -33.5 -1.5t-31 -3.5 t-24 -4.5t-17 -4t-7.5 -1.5q-4 0 -4 3q-5 49 -6 54q-1 3 3 5q48 24 139 24q35 0 58 -4t48 -18.5t34 -49t2 -87.5l-46 -327q0 -4 -5 -4h-72q-2 0 -2 4l3 21q-26 -33 -122 -33zM264 559l-58 137q-1 4 1 4h73q4 0 5 -4q0 -1 10.5 -34.5t21.5 -67.5t11 -35q2 -4 -3 -4h-57 q-6 0 -4 4z" />
<glyph unicode="&#xe1;" horiz-adv-x="432" d="M138 -8q-63 0 -93 36t-22 90l7 51q8 55 49.5 87t92.5 32q21 0 51.5 -3.5t50.5 -6.5l21 -4l7 56q7 55 -12 72t-69 17q-16 0 -33.5 -1.5t-31 -3.5t-24 -4.5t-17 -4t-7.5 -1.5q-4 0 -4 3q-5 49 -6 54q0 3 3 5q48 24 139 24q35 0 58 -4t48 -18.5t34 -49t2 -87.5l-46 -327 q0 -4 -5 -4h-72q-2 0 -2 4l3 21q-26 -33 -122 -33zM170 59q29 0 46 2.5t35.5 18t22.5 45.5l12 89q-65 14 -108 14q-29 0 -49 -17.5t-24 -43.5l-6 -37q-4 -29 12.5 -50t58.5 -21zM251 559q-6 -4 -7 -4h-58q-3 0 -1 4l81 137q3 4 6 4h73q5 0 2 -4z" />
<glyph unicode="&#xe2;" horiz-adv-x="432" d="M170 59q29 0 46 2.5t35.5 18t22.5 45.5l12 89q-65 14 -108 14q-29 0 -49 -17.5t-24 -43.5l-6 -37q-4 -29 12.5 -50t58.5 -21zM138 -8q-63 0 -93 36t-22 90l7 51q8 55 49.5 87t92.5 32q21 0 51.5 -3.5t50.5 -6.5l21 -4l7 56q7 55 -12 72t-69 17q-16 0 -33.5 -1.5t-31 -3.5 t-24 -4.5t-17 -4t-7.5 -1.5q-4 0 -4 3q-5 49 -6 54q-1 3 3 5q48 24 139 24q35 0 58 -4t48 -18.5t34 -49t2 -87.5l-46 -327q0 -4 -5 -4h-72q-2 0 -2 4l3 21q-26 -33 -122 -33zM201 555h-58q-2 0 0 4q10 17 46.5 68.5t46.5 68.5q2 4 6 4h70q6 0 7 -4q1 -2 27.5 -68.5 t27.5 -68.5q1 -4 -2 -4h-58q-4 0 -5 4l-38 83h-4q-58 -80 -60 -83q-3 -4 -6 -4z" />
<glyph unicode="&#xe3;" horiz-adv-x="432" d="M170 59q29 0 46 2.5t35.5 18t22.5 45.5l12 89q-65 14 -108 14q-29 0 -49 -17.5t-24 -43.5l-6 -37q-4 -29 12.5 -50t58.5 -21zM138 -8q-63 0 -93 36t-22 90l7 51q8 55 49.5 87t92.5 32q21 0 51.5 -3.5t50.5 -6.5l21 -4l7 56q7 55 -12 72t-69 17q-16 0 -33.5 -1.5t-31 -3.5 t-24 -4.5t-17 -4t-7.5 -1.5q-4 0 -4 3q-5 49 -6 54q-1 3 3 5q48 24 139 24q35 0 58 -4t48 -18.5t34 -49t2 -87.5l-46 -327q0 -4 -5 -4h-72q-2 0 -2 4l3 21q-26 -33 -122 -33zM151 589q-3 0 -2 5l6 43q2 9 5 12q35 35 65 35q23 0 51.5 -19t46.5 -19q19 0 40 17.5t22 17.5 q3 0 2 -4l-6 -44q-2 -8 -6 -13q-29 -36 -66 -36q-23 0 -51 19.5t-44 19.5q-19 0 -40.5 -17t-22.5 -17z" />
<glyph unicode="&#xe4;" horiz-adv-x="432" d="M138 -8q-63 0 -93 36t-22 90l7 51q8 55 49.5 87t92.5 32q21 0 51.5 -3.5t50.5 -6.5l21 -4l7 56q7 55 -12 72t-69 17q-16 0 -33.5 -1.5t-31 -3.5t-24 -4.5t-17 -4t-7.5 -1.5q-4 0 -4 3q-5 49 -6 54q0 3 3 5q48 24 139 24q35 0 58 -4t48 -18.5t34 -49t2 -87.5l-46 -327 q0 -4 -5 -4h-72q-2 0 -2 4l3 21q-26 -33 -122 -33zM170 59q29 0 46 2.5t35.5 18t22.5 45.5l12 89q-65 14 -108 14q-29 0 -49 -17.5t-24 -43.5l-6 -37q-4 -29 12.5 -50t58.5 -21zM146 591q-3 0 -2 4l11 81q1 4 4 4h65q2 0 2 -4l-11 -81q-1 -4 -4 -4h-65zM313 591q-3 0 -2 4 l11 81q1 4 4 4h64q2 0 2 -4l-11 -81q-1 -4 -4 -4h-64z" />
<glyph unicode="&#xe5;" horiz-adv-x="432" d="M170 59q29 0 46 2.5t35.5 18t22.5 45.5l12 89q-65 14 -108 14q-29 0 -49 -17.5t-24 -43.5l-6 -37q-4 -29 12.5 -50t58.5 -21zM138 -8q-63 0 -93 36t-22 90l7 51q8 55 49.5 87t92.5 32q21 0 51.5 -3.5t50.5 -6.5l21 -4l7 56q7 55 -12 72t-69 17q-16 0 -33.5 -1.5t-31 -3.5 t-24 -4.5t-17 -4t-7.5 -1.5q-4 0 -4 3q-5 49 -6 54q-1 3 3 5q48 24 139 24q35 0 58 -4t48 -18.5t34 -49t2 -87.5l-46 -327q0 -4 -5 -4h-72q-2 0 -2 4l3 21q-26 -33 -122 -33zM260 578q20 0 32.5 9t16.5 37l2 13q4 26 -5.5 35.5t-29.5 9.5q-44 0 -51 -45l-2 -13 q-4 -27 6 -36.5t31 -9.5zM255 538q-37 0 -57.5 16t-13.5 66l3 22q11 80 95 80q16 0 27.5 -2.5t23.5 -9.5t16.5 -24.5t0.5 -43.5l-3 -22q-4 -27 -13 -44.5t-23 -25t-26.5 -10t-29.5 -2.5z" />
<glyph unicode="&#xe6;" horiz-adv-x="683" d="M172 61q27 0 46 4t36.5 20t21.5 45l11 84q-61 14 -108 14q-27 0 -48 -16t-25 -44l-5 -35q-6 -40 16.5 -56t54.5 -16zM377 270h182q4 48 3.5 76.5t-13.5 42.5t-25.5 18t-33.5 4q-48 0 -74.5 -26.5t-38.5 -114.5zM142 -7q-21 0 -41 5t-41 17.5t-31 40t-5 65.5l7 49 q9 62 51.5 90t90.5 28q21 0 52 -3.5t51 -6.5l20 -4l7 52q8 57 -12 73t-68 16q-27 0 -55 -4t-41.5 -8t-16.5 -5q-3 0 -3 3q0 2 -4 27.5t-4 26.5q-1 1 0 2.5t2 2.5q75 25 140 25q58 0 85 -13t39 -41q48 54 135 54q12 0 21.5 -0.5t23.5 -3t24.5 -6t22.5 -11.5t21 -18.5 t16.5 -26.5t11 -35.5t4 -47t-4.5 -60.5l-9 -66h-262q-11 -88 10 -115.5t75 -27.5q19 0 39 1.5t35.5 4t27.5 5t20 4.5l7 1q3 0 3 -3l9 -55q0 -3 -3 -5q-4 -2 -19.5 -7t-53.5 -11.5t-77 -6.5q-58 0 -87.5 14t-46.5 47q-30 -34 -66.5 -48.5t-99.5 -14.5z" />
<glyph unicode="&#xe7;" horiz-adv-x="397" d="M153 -150h-73q-5 0 -2 4l74 139q-25 1 -43 6t-37 17t-27.5 33.5t-14 55.5t3.5 82l15 110q7 51 23.5 88t35.5 56.5t46.5 30.5t48 13.5t48.5 2.5q67 0 124 -19q3 -1 1 -5l-24 -55q-2 -3 -4 -3q-24 8 -105 8q-19 0 -34 -4t-32.5 -15.5t-30 -38t-17.5 -66.5l-13 -97 q-7 -35 -2.5 -59t10 -37.5t19 -20.5t24.5 -9t27 -2q27 0 54 3t40.5 5.5t15.5 3.5q3 1 5 -2q0 -2 4 -28.5t5 -27.5q2 -3 -2 -5q-29 -14 -98 -20l-60 -140q-2 -4 -5 -4z" />
<glyph unicode="&#xe8;" horiz-adv-x="427" d="M121 269h181q11 84 -7 114.5t-61 30.5q-46 0 -73.5 -28t-39.5 -117zM184 -9q-19 0 -34.5 1.5t-35.5 6.5t-33 14t-28 24.5t-20 37.5t-9 53t4 72l12 83q10 65 32.5 109t54.5 63t58.5 25.5t58.5 6.5q33 0 56 -5.5t49 -24.5t35.5 -65t-0.5 -116l-9 -66h-263q-8 -39 -3.5 -66 t9.5 -43t19.5 -24t27 -10.5t31.5 -2.5t39 1.5t35.5 4t28 4.5t20 3.5t8.5 1.5q4 0 4 -3q0 -2 3 -27t3 -28q0 -5 -3 -6q-4 -2 -19.5 -7t-53 -11t-77.5 -6zM260 559l-58 137q-1 4 2 4h73q4 0 5 -4q0 -1 10.5 -34.5t21 -67.5t10.5 -35q2 -4 -2 -4h-57q-5 0 -5 4z" />
<glyph unicode="&#xe9;" horiz-adv-x="427" d="M184 -9q-19 0 -34.5 1.5t-35.5 6.5t-33 14t-28 24.5t-20 37.5t-9 53t4 72l12 83q10 65 32.5 109t54.5 63t58.5 25.5t58.5 6.5q33 0 56 -5.5t49 -24.5t35.5 -65t-0.5 -116l-9 -66h-263q-8 -39 -3.5 -66t9.5 -43t19.5 -24t27 -10.5t31.5 -2.5t39 1.5t35.5 4t28 4.5t20 3.5 t8.5 1.5q4 0 4 -3q0 -2 3 -27t3 -28q0 -5 -3 -6q-4 -2 -19.5 -7t-53 -11t-77.5 -6zM121 269h181q11 84 -7 114.5t-61 30.5q-46 0 -73.5 -28t-39.5 -117zM249 559q-6 -4 -7 -4h-58q-3 0 -1 4l81 137q3 4 6 4h73q4 0 1 -4z" />
<glyph unicode="&#xea;" horiz-adv-x="427" d="M121 269h181q11 84 -7 114.5t-61 30.5q-46 0 -73.5 -28t-39.5 -117zM184 -9q-19 0 -34.5 1.5t-35.5 6.5t-33 14t-28 24.5t-20 37.5t-9 53t4 72l12 83q10 65 32.5 109t54.5 63t58.5 25.5t58.5 6.5q33 0 56 -5.5t49 -24.5t35.5 -65t-0.5 -116l-9 -66h-263q-8 -39 -3.5 -66 t9.5 -43t19.5 -24t27 -10.5t31.5 -2.5t39 1.5t35.5 4t28 4.5t20 3.5t8.5 1.5q4 0 4 -3q0 -2 3 -27t3 -28q0 -5 -3 -6q-4 -2 -19.5 -7t-53 -11t-77.5 -6zM198 555h-58q-3 0 -1 4q10 17 47 68.5t47 68.5q2 4 6 4h70q5 0 6 -4q1 -2 28 -68.5t28 -68.5q1 -4 -2 -4h-58q-4 0 -5 4 l-38 83h-4q-59 -80 -61 -83q-3 -4 -5 -4z" />
<glyph unicode="&#xeb;" horiz-adv-x="427" d="M184 -9q-19 0 -34.5 1.5t-35.5 6.5t-33 14t-28 24.5t-20 37.5t-9 53t4 72l12 83q10 65 32.5 109t54.5 63t58.5 25.5t58.5 6.5q33 0 56 -5.5t49 -24.5t35.5 -65t-0.5 -116l-9 -66h-263q-8 -39 -3.5 -66t9.5 -43t19.5 -24t27 -10.5t31.5 -2.5t39 1.5t35.5 4t28 4.5t20 3.5 t8.5 1.5q4 0 4 -3q0 -2 3 -27t3 -28q0 -5 -3 -6q-4 -2 -19.5 -7t-53 -11t-77.5 -6zM121 269h181q11 84 -7 114.5t-61 30.5q-46 0 -73.5 -28t-39.5 -117zM143 591q-3 0 -3 4l12 81q0 4 3 4h65q3 0 3 -4l-12 -81q0 -4 -3 -4h-65zM310 591q-3 0 -3 4l12 81q0 4 3 4h64q3 0 3 -4 l-12 -81q0 -4 -3 -4h-64z" />
<glyph unicode="&#xec;" horiz-adv-x="209" d="M27 0q-3 0 -3 4l67 471q0 4 3 4h75q3 0 3 -4l-67 -471q0 -4 -3 -4h-75zM152 559l-57 137q-3 4 1 4h73q4 0 5 -4q0 -1 10.5 -34.5t21 -67.5t10.5 -35q2 -4 -2 -4h-57q-5 0 -5 4z" />
<glyph unicode="&#xed;" horiz-adv-x="209" d="M27 0q-3 0 -3 4l67 471q0 4 3 4h75q3 0 3 -4l-67 -471q0 -4 -3 -4h-75zM139 559q-4 -4 -6 -4h-58q-3 0 -1 4l81 137q3 4 6 4h73q4 0 1 -4z" />
<glyph unicode="&#xee;" horiz-adv-x="209" d="M27 0q-3 0 -3 4l67 471q0 4 3 4h75q3 0 3 -4l-67 -471q0 -4 -3 -4h-75zM89 555h-58q-3 0 -1 4q10 17 47 68.5t47 68.5q2 4 6 4h70q5 0 6 -4q1 -2 28 -68.5t28 -68.5q1 -4 -2 -4h-58q-4 0 -5 4l-38 83h-4q-58 -80 -60 -83q-3 -4 -6 -4z" />
<glyph unicode="&#xef;" horiz-adv-x="209" d="M27 0q-3 0 -2 4l66 471q0 4 3 4h75q3 0 3 -4l-66 -471q0 -4 -4 -4h-75zM35 591q-3 0 -2 4l11 81q1 4 4 4h65q2 0 2 -4l-11 -81q-1 -4 -4 -4h-65zM202 591q-3 0 -2 4l11 81q1 4 4 4h64q2 0 2 -4l-11 -81q-1 -4 -4 -4h-64z" />
<glyph unicode="&#xf0;" horiz-adv-x="451" d="M180 68q97 0 106 71l35 249q-63 22 -94 22q-42 0 -67 -26t-37 -107l-10 -72q-12 -84 5.5 -110.5t61.5 -26.5zM149 -5q-19 0 -32.5 1.5t-29 6t-25.5 13t-19.5 24t-13 37t-3.5 52.5t5 71l11 83q9 67 28 110t47 61.5t51 24t57 5.5q18 0 45 -5.5t44 -10.5l18 -6l13 93h-108 q-3 0 -3 4l8 56q0 4 5 4h106l8 56q0 4 4 4h74q2 0 2 -4l-8 -56h39q3 0 3 -4l-8 -56q0 -4 -4 -4h-39l-77 -551q-1 -4 -3 -4h-74q-3 0 -3 3l4 27q-32 -35 -122 -35z" />
<glyph unicode="&#xf1;" horiz-adv-x="459" d="M30 0q-3 0 -3 4l67 471q0 4 3 4h75q4 0 4 -4l-3 -21q78 31 116 31q16 0 27.5 -1t28 -4.5t25.5 -10t20.5 -18.5t14.5 -30t6.5 -43t-3.5 -59l-45 -315q0 -4 -4 -4h-74q-3 0 -3 4l44 310q9 62 -6 80t-52 18q-15 0 -41.5 -7.5t-44.5 -14.5l-19 -8l-54 -378q0 -4 -4 -4h-75z M164 589q-3 0 -3 5l6 43q2 8 6 12q35 35 65 35q23 0 51.5 -19t46.5 -19q19 0 39.5 17.5t22.5 17.5t2 -4l-6 -44q-2 -8 -6 -13q-29 -36 -66 -36q-22 0 -51 19.5t-45 19.5q-19 0 -40 -17t-22 -17z" />
<glyph unicode="&#xf2;" horiz-adv-x="432" d="M185 65q23 0 37.5 3.5t30.5 16.5t27 42t17 75l11 78q7 36 4 61t-6.5 39.5t-16 22t-23.5 9.5t-29 2q-47 0 -74.5 -25.5t-39.5 -108.5l-11 -78q-8 -38 -4.5 -63t8 -40t17 -22.5t24 -9.5t28.5 -2zM175 -8q-19 0 -33 1t-30.5 4t-28.5 9.5t-23.5 16.5t-18.5 25.5t-11.5 36 t-4.5 49t5 63.5l12 89q9 66 29 108.5t50.5 62t58.5 25.5t68 6q16 0 27.5 -0.5t26.5 -3t25.5 -6.5t22.5 -11t19.5 -17.5t14 -25.5t9.5 -34.5t2.5 -45.5t-4.5 -57l-12 -90q-8 -56 -23.5 -95.5t-33.5 -60.5t-45 -32.5t-48.5 -14t-53.5 -2.5zM264 559l-58 137q-1 4 1 4h73 q4 0 5 -4q0 -1 10.5 -34.5t21.5 -67.5t11 -35q2 -4 -3 -4h-57q-6 0 -4 4z" />
<glyph unicode="&#xf3;" horiz-adv-x="432" d="M175 -8q-19 0 -33 1t-30.5 4t-28.5 9.5t-23.5 16.5t-18.5 25.5t-11.5 36t-4.5 49t5 63.5l12 89q9 66 29 108.5t50.5 62t58.5 25.5t68 6q16 0 27.5 -0.5t26.5 -3t25.5 -6.5t22.5 -11t19.5 -17.5t14 -25.5t9.5 -34.5t2.5 -45.5t-4.5 -57l-12 -90q-8 -56 -23.5 -95.5 t-33.5 -60.5t-45 -32.5t-48.5 -14t-53.5 -2.5zM185 65q23 0 37.5 3.5t30.5 16.5t27 42t17 75l11 78q7 36 4 61t-6.5 39.5t-16 22t-23.5 9.5t-29 2q-47 0 -74.5 -25.5t-39.5 -108.5l-11 -78q-8 -38 -4.5 -63t8 -40t17 -22.5t24 -9.5t28.5 -2zM251 559q-6 -4 -7 -4h-58 q-3 0 -1 4l81 137q3 4 6 4h73q5 0 2 -4z" />
<glyph unicode="&#xf4;" horiz-adv-x="432" d="M185 65q23 0 37.5 3.5t30.5 16.5t27 42t17 75l11 78q7 36 4 61t-6.5 39.5t-16 22t-23.5 9.5t-29 2q-47 0 -74.5 -25.5t-39.5 -108.5l-11 -78q-8 -38 -4.5 -63t8 -40t17 -22.5t24 -9.5t28.5 -2zM175 -8q-19 0 -33 1t-30.5 4t-28.5 9.5t-23.5 16.5t-18.5 25.5t-11.5 36 t-4.5 49t5 63.5l12 89q9 66 29 108.5t50.5 62t58.5 25.5t68 6q16 0 27.5 -0.5t26.5 -3t25.5 -6.5t22.5 -11t19.5 -17.5t14 -25.5t9.5 -34.5t2.5 -45.5t-4.5 -57l-12 -90q-8 -56 -23.5 -95.5t-33.5 -60.5t-45 -32.5t-48.5 -14t-53.5 -2.5zM200 555h-58q-2 0 0 4 q10 17 46.5 68.5t46.5 68.5q2 4 6 4h70q6 0 7 -4q1 -2 27.5 -68.5t27.5 -68.5q1 -4 -2 -4h-58q-4 0 -5 4l-38 83h-4q-58 -80 -60 -83q-3 -4 -6 -4z" />
<glyph unicode="&#xf5;" horiz-adv-x="432" d="M185 65q23 0 37.5 3.5t30.5 16.5t27 42t17 75l11 78q7 36 4 61t-6.5 39.5t-16 22t-23.5 9.5t-29 2q-47 0 -74.5 -25.5t-39.5 -108.5l-11 -78q-8 -38 -4.5 -63t8 -40t17 -22.5t24 -9.5t28.5 -2zM175 -8q-19 0 -33 1t-30.5 4t-28.5 9.5t-23.5 16.5t-18.5 25.5t-11.5 36 t-4.5 49t5 63.5l12 89q9 66 29 108.5t50.5 62t58.5 25.5t68 6q16 0 27.5 -0.5t26.5 -3t25.5 -6.5t22.5 -11t19.5 -17.5t14 -25.5t9.5 -34.5t2.5 -45.5t-4.5 -57l-12 -90q-8 -56 -23.5 -95.5t-33.5 -60.5t-45 -32.5t-48.5 -14t-53.5 -2.5zM151 589q-3 0 -2 5l6 43q2 9 5 12 q35 35 65 35q23 0 51.5 -19t46.5 -19q19 0 40 17.5t22 17.5q2 0 2 -4l-6 -44q-2 -8 -6 -13q-29 -36 -66 -36q-23 0 -51 19.5t-44 19.5q-19 0 -40.5 -17t-22.5 -17z" />
<glyph unicode="&#xf6;" horiz-adv-x="432" d="M175 -8q-19 0 -33 1t-30.5 4t-28.5 9.5t-23.5 16.5t-18.5 25.5t-11.5 36t-4.5 49t5 63.5l12 89q9 66 29 108.5t50.5 62t58.5 25.5t68 6q16 0 27.5 -0.5t26.5 -3t25.5 -6.5t22.5 -11t19.5 -17.5t14 -25.5t9.5 -34.5t2.5 -45.5t-4.5 -57l-12 -90q-8 -56 -23.5 -95.5 t-33.5 -60.5t-45 -32.5t-48.5 -14t-53.5 -2.5zM185 65q23 0 37.5 3.5t30.5 16.5t27 42t17 75l11 78q7 36 4 61t-6.5 39.5t-16 22t-23.5 9.5t-29 2q-47 0 -74.5 -25.5t-39.5 -108.5l-11 -78q-8 -38 -4.5 -63t8 -40t17 -22.5t24 -9.5t28.5 -2zM146 591q-3 0 -2 4l11 81 q1 4 4 4h65q2 0 2 -4l-11 -81q-1 -4 -4 -4h-65zM313 591q-3 0 -2 4l11 81q1 4 4 4h64q2 0 2 -4l-11 -81q-1 -4 -4 -4h-64z" />
<glyph unicode="&#xf7;" horiz-adv-x="458" d="M49 240q-3 0 -3 4l9 62q0 4 4 4h347q2 0 2 -4l-9 -62q0 -4 -3 -4h-347zM205 388q-4 0 -3 4l13 91q0 4 3 4h77q3 0 3 -4l-13 -91q0 -4 -3 -4h-77zM159 64q-3 0 -3 4l13 91q0 4 4 4h77q3 0 2 -4l-12 -91q-2 -4 -4 -4h-77z" />
<glyph unicode="&#xf8;" horiz-adv-x="432" d="M47 -37q-2 0 -2 2q0 1 26 48q-63 41 -42 184l13 89q10 66 30 108.5t50 62t57.5 25.5t67.5 6q37 0 62 -5l16 30q3 4 5 4h51q5 0 2 -4l-28 -50q56 -43 36 -176l-13 -90q-8 -56 -24 -95.5t-33.5 -60.5t-44.5 -32.5t-48 -14t-53 -2.5t-56 4q-3 -6 -7 -13.5t-6.5 -11.5 t-2.5 -5q-1 -3 -5 -3h-51zM185 65q23 0 37.5 3.5t30.5 16.5t27 42t17 75l11 78q7 36 4 61t-6.5 39.5t-16 22t-23.5 9.5t-29 2q-47 0 -74.5 -25.5t-39.5 -108.5l-11 -78q-8 -38 -4.5 -63t8 -40t17 -22.5t24 -9.5t28.5 -2z" />
<glyph unicode="&#xf9;" d="M420 479q4 0 4 -4l-66 -471q0 -4 -5 -4h-74q-3 0 -2 4l2 17q-79 -28 -116 -28q-13 0 -22 0.5t-21.5 2t-21.5 5t-19 9.5t-16.5 14.5t-12.5 21t-8.5 28.5t-2.5 37.5t4 47.5l45 316q0 4 3 4h75q4 0 4 -4l-44 -312q-9 -62 5.5 -80t51.5 -18q15 0 41.5 7t45.5 14l19 7l54 382 q0 4 3 4h74zM277 559l-58 137q-1 4 1 4h73q4 0 5 -4q1 -1 7.5 -22t14 -46t14.5 -46.5t7 -22.5q2 -4 -3 -4h-57q-6 0 -4 4z" />
<glyph unicode="&#xfa;" d="M420 479q4 0 4 -4l-66 -471q0 -4 -5 -4h-74q-3 0 -2 4l2 17q-79 -28 -116 -28q-13 0 -22 0.5t-21.5 2t-21.5 5t-19 9.5t-16.5 14.5t-12.5 21t-8.5 28.5t-2.5 37.5t4 47.5l45 316q0 4 3 4h75q4 0 4 -4l-44 -312q-9 -62 5.5 -80t51.5 -18q15 0 41.5 7t45.5 14l19 7l54 382 q0 4 3 4h74zM264 559q-6 -4 -7 -4h-58q-3 0 -1 4l81 137q3 4 6 4h73q5 0 2 -4z" />
<glyph unicode="&#xfb;" d="M420 479q4 0 4 -4l-66 -471q0 -4 -5 -4h-74q-3 0 -2 4l2 17q-79 -28 -116 -28q-13 0 -22 0.5t-21.5 2t-21.5 5t-19 9.5t-16.5 14.5t-12.5 21t-8.5 28.5t-2.5 37.5t4 47.5l45 316q0 4 3 4h75q4 0 4 -4l-44 -312q-9 -62 5.5 -80t51.5 -18q15 0 41.5 7t45.5 14l19 7l54 382 q0 4 3 4h74zM212 555h-58q-2 0 0 4q10 17 46.5 68.5t46.5 68.5q2 4 6 4h70q6 0 7 -4t28 -70t28 -67q0 -4 -3 -4h-58q-4 0 -4 4l-39 83h-4q-58 -80 -60 -83q-3 -4 -6 -4z" />
<glyph unicode="&#xfc;" d="M420 479q4 0 4 -4l-66 -471q0 -4 -5 -4h-74q-3 0 -2 4l2 17q-79 -28 -116 -28q-13 0 -22 0.5t-21.5 2t-21.5 5t-19 9.5t-16.5 14.5t-12.5 21t-8.5 28.5t-2.5 37.5t4 47.5l45 316q0 4 3 4h75q4 0 4 -4l-44 -312q-9 -62 5.5 -80t51.5 -18q15 0 41.5 7t45.5 14l19 7l54 382 q0 4 3 4h74zM158 591q-3 0 -2 4l11 81q1 4 4 4h65q2 0 2 -4l-11 -81q-1 -4 -4 -4h-65zM325 591q-3 0 -2 4l11 81q1 4 4 4h64q2 0 2 -4l-11 -81q-1 -4 -4 -4h-64z" />
<glyph unicode="&#xfd;" horiz-adv-x="408" d="M-5 -180q-3 0 -3 3q0 2 8 33t8 32q0 4 6 4h21q13 0 22 4t24 22t30 53l18 44q-79 457 -80 460q-1 4 2 4h78q5 0 5 -4l51 -342h8q142 339 143 342q1 4 5 4h77q3 0 2 -4q0 -1 -56.5 -123.5t-117.5 -254.5t-67 -145q-22 -48 -39.5 -75.5t-36.5 -39.5t-32.5 -14.5t-39.5 -2.5 h-36zM244 559q-6 -4 -7 -4h-58q-3 0 -1 4l81 137q3 4 6 4h73q5 0 2 -4z" />
<glyph unicode="&#xfe;" d="M80 -180h-75q-3 0 -3 4l120 852q0 4 4 4h75q2 0 2 -4l-32 -227q3 5 12 12t39 15.5t71 8.5q14 0 23 -0.5t23.5 -3t24 -8.5t20.5 -15t17 -24.5t11 -36.5t4.5 -51t-5.5 -67l-11 -83q-8 -57 -25 -97.5t-34 -60t-43.5 -30t-41.5 -12t-39 -1.5q-9 0 -35.5 5.5t-48.5 11.5l-22 5 l-28 -193q0 -4 -3 -4zM121 91q63 -23 94 -23q18 0 30 3t28 15t27 41t18 75l11 72q4 47 4 74.5t-13 41.5t-25 17.5t-32 3.5q-96 0 -107 -71z" />
<glyph unicode="&#xff;" horiz-adv-x="408" d="M-5 -180q-3 0 -3 3q0 2 8 33t8 32q0 4 6 4h21q13 0 22 4t24 22t30 53l18 44q-79 457 -80 460q-1 4 2 4h78q5 0 5 -4l51 -342h8q142 339 143 342q1 4 5 4h77q3 0 2 -4q0 -1 -56.5 -123.5t-117.5 -254.5t-67 -145q-22 -48 -39.5 -75.5t-36.5 -39.5t-32.5 -14.5t-39.5 -2.5 h-36zM138 591q-3 0 -2 4l11 81q1 4 3 4h65q3 0 3 -4l-11 -81q-1 -4 -4 -4h-65zM305 591q-3 0 -2 4l11 81q1 4 3 4h64q3 0 3 -4l-11 -81q-1 -4 -4 -4h-64z" />
<glyph unicode="&#x100;" horiz-adv-x="510" d="M152 217h193l-40 338h-16zM60 0h-82q-3 0 -2 4q0 1 72.5 169t144 335.5t71.5 168.5q0 3 4 3h93q3 0 5 -3q0 -3 47 -337.5t48 -335.5q2 -4 -3 -4h-82q-3 0 -4 4l-16 138h-235q-56 -135 -57 -138q-1 -4 -4 -4zM446 804h-229q-3 0 -3 4l9 59q0 4 3 4h229q3 0 3 -4l-9 -59 q0 -4 -3 -4z" />
<glyph unicode="&#x101;" horiz-adv-x="432" d="M170 59q29 0 46 2.5t35.5 18t22.5 45.5l12 89q-65 14 -108 14q-29 0 -49 -17.5t-24 -43.5l-6 -37q-4 -29 12.5 -50t58.5 -21zM138 -8q-63 0 -93 36t-22 90l7 51q8 55 49.5 87t92.5 32q21 0 51.5 -3.5t50.5 -6.5l21 -4l7 56q7 55 -12 72t-69 17q-16 0 -33.5 -1.5t-31 -3.5 t-24 -4.5t-17 -4t-7.5 -1.5q-4 0 -4 3q-5 49 -6 54q-1 3 3 5q48 24 139 24q35 0 58 -4t48 -18.5t34 -49t2 -87.5l-46 -327q0 -4 -5 -4h-72q-2 0 -2 4l3 21q-26 -33 -122 -33zM379 604h-229q-3 0 -2 4l8 59q1 4 3 4h229q3 0 3 -4l-8 -59q-1 -4 -4 -4z" />
<glyph unicode="&#x102;" horiz-adv-x="510" d="M152 217h193l-40 338h-16zM60 0h-82q-3 0 -2 4q0 1 72.5 169t144 335.5t71.5 168.5q0 3 4 3h93q3 0 5 -3q0 -3 47 -337.5t48 -335.5q2 -4 -3 -4h-82q-3 0 -4 4l-16 138h-235q-56 -135 -57 -138q-1 -4 -4 -4zM326 763q-99 0 -99 96q0 27 6 27h35q5 0 6 -5q5 -37 17 -48.5 t43 -11.5q30 0 46 12.5t29 47.5q2 5 6 5h37q6 0 5 -5q-24 -118 -131 -118z" />
<glyph unicode="&#x103;" horiz-adv-x="432" d="M170 59q29 0 46 2.5t35.5 18t22.5 45.5l12 89q-65 14 -108 14q-29 0 -49 -17.5t-24 -43.5l-6 -37q-4 -29 12.5 -50t58.5 -21zM138 -8q-63 0 -93 36t-22 90l7 51q8 55 49.5 87t92.5 32q21 0 51.5 -3.5t50.5 -6.5l21 -4l7 56q7 55 -12 72t-69 17q-16 0 -33.5 -1.5t-31 -3.5 t-24 -4.5t-17 -4t-7.5 -1.5q-4 0 -4 3q-5 49 -6 54q-1 3 3 5q48 24 139 24q35 0 58 -4t48 -18.5t34 -49t2 -87.5l-46 -327q0 -4 -5 -4h-72q-2 0 -2 4l3 21q-26 -33 -122 -33zM259 563q-99 0 -99 96q0 27 7 27h35q4 0 5 -5q5 -37 17 -48.5t43 -11.5q30 0 46 12.5t29 47.5 q2 5 7 5h37q5 0 4 -5q-24 -118 -131 -118z" />
<glyph unicode="&#x104;" horiz-adv-x="510" d="M369 -178q-30 0 -46 11.5t-16 45.5q0 66 71 121h-2q-3 0 -4 4l-16 138h-235q-56 -135 -57 -138q-1 -4 -4 -4h-82q-3 0 -2 4q0 1 72.5 169t144 335.5t71.5 168.5q0 3 4 3h93q3 0 5 -3q0 -3 47 -337.5t48 -335.5q2 -4 -3 -4h-2q-46 -35 -65 -55.5t-19 -42.5q0 -17 19 -17 q4 0 9.5 2t10 4.5t5.5 2.5q5 3 6 -1l14 -37q2 -5 -2 -9q-31 -25 -65 -25zM152 217h193l-40 338h-16z" />
<glyph unicode="&#x105;" horiz-adv-x="432" d="M244 -178q-30 0 -46 11.5t-16 45.5q0 68 74 123l1 2l3 21q-26 -33 -122 -33q-63 0 -93 36t-22 90l7 51q8 55 49.5 87t92.5 32q21 0 51.5 -3.5t50.5 -6.5l21 -4l7 56q7 55 -12 72t-69 17q-16 0 -33.5 -1.5t-31 -3.5t-24 -4.5t-17 -4t-7.5 -1.5q-4 0 -4 3q-5 49 -6 54 q0 3 3 5q48 24 139 24q35 0 58 -4t48 -18.5t34 -49t2 -87.5l-46 -327q0 -4 -5 -4q-45 -34 -64 -55t-19 -43q0 -17 18 -17q4 0 9.5 2t10 4.5t5.5 2.5q5 3 6 -1l15 -37q2 -5 -2 -9q-31 -25 -66 -25zM170 59q29 0 46 2.5t35.5 18t22.5 45.5l12 89q-65 14 -108 14 q-29 0 -49 -17.5t-24 -43.5l-6 -37q-4 -29 12.5 -50t58.5 -21z" />
<glyph unicode="&#x106;" horiz-adv-x="466" d="M220 -10q-19 0 -34.5 1t-33.5 4t-31.5 8.5t-27.5 14.5t-24 21.5t-18 31t-12 41.5t-3.5 54t5.5 67l31 220q11 78 36 128t62 72.5t70.5 29.5t79.5 7q48 0 85 -8t48 -13.5t14 -8.5t2 -5q-2 -2 -17.5 -31t-15.5 -30q-1 -4 -4 -3q-60 20 -124 20q-27 0 -46 -4.5t-42 -19.5 t-39 -51t-24 -92l-29 -204q-9 -45 -4 -75.5t11.5 -49t23.5 -28.5t33 -13t40 -3q57 0 138 27q3 2 5 -2q1 -1 8 -30.5t7 -30.5t-2 -6q-78 -39 -168 -39zM321 759q-6 -4 -7 -4h-58q-3 0 -1 4l81 137q3 4 6 4h73q4 0 1 -4z" />
<glyph unicode="&#x107;" horiz-adv-x="397" d="M181 -8q-18 0 -31.5 1t-30.5 4t-27.5 8.5t-24 15.5t-19.5 24t-12.5 34t-4.5 47t4 61l15 110q7 51 23.5 88t35.5 56.5t46.5 30.5t48 13.5t48.5 2.5q66 0 123 -19q4 -2 2 -5l-24 -55q-1 -3 -5 -3q-16 8 -104 8q-19 0 -34 -4t-32.5 -15.5t-30 -38t-17.5 -66.5l-13 -97 q-7 -35 -2.5 -59t10 -37.5t19 -20.5t24.5 -9t27 -2q27 0 54 3t40.5 5.5t15.5 3.5q3 1 5 -2q0 -2 4 -28.5t5 -27.5q1 -3 -3 -5q-44 -22 -135 -22zM257 559q-4 -4 -7 -4h-58q-2 0 0 4l80 137q3 4 7 4h73q4 0 1 -4z" />
<glyph unicode="&#x108;" horiz-adv-x="466" d="M220 -10q-19 0 -34.5 1t-33.5 4t-31.5 8.5t-27.5 14.5t-24 21.5t-18 31t-12 41.5t-3.5 54t5.5 67l31 220q11 78 36 128t62 72.5t70.5 29.5t79.5 7q48 0 85 -8t48 -13.5t14 -8.5t2 -5q-2 -2 -17.5 -31t-15.5 -30q-1 -4 -4 -3q-60 20 -124 20q-27 0 -46 -4.5t-42 -19.5 t-39 -51t-24 -92l-29 -204q-9 -45 -4 -75.5t11.5 -49t23.5 -28.5t33 -13t40 -3q57 0 138 27q3 2 5 -2q1 -1 8 -30.5t7 -30.5t-2 -6q-78 -39 -168 -39zM269 755h-58q-3 0 -1 4q10 17 47 68.5t47 68.5q2 4 6 4h70q5 0 6 -4q1 -2 28 -68.5t28 -68.5q1 -4 -2 -4h-58q-4 0 -5 4 l-38 83h-4q-59 -80 -61 -83q-3 -4 -5 -4z" />
<glyph unicode="&#x109;" horiz-adv-x="397" d="M181 -8q-18 0 -31.5 1t-30.5 4t-27.5 8.5t-24 15.5t-19.5 24t-12.5 34t-4.5 47t4 61l15 110q7 51 23.5 88t35.5 56.5t46.5 30.5t48 13.5t48.5 2.5q66 0 123 -19q4 -2 2 -5l-24 -55q-1 -3 -5 -3q-16 8 -104 8q-19 0 -34 -4t-32.5 -15.5t-30 -38t-17.5 -66.5l-13 -97 q-7 -35 -2.5 -59t10 -37.5t19 -20.5t24.5 -9t27 -2q27 0 54 3t40.5 5.5t15.5 3.5q3 1 5 -2q0 -2 4 -28.5t5 -27.5q1 -3 -3 -5q-44 -22 -135 -22zM203 555h-58q-2 0 0 4q10 17 46.5 68.5t46.5 68.5q2 4 7 4h70q5 0 6 -4t28 -70t28 -67q1 -4 -3 -4h-58q-3 0 -4 4l-38 83h-4 q-59 -80 -61 -83q-3 -4 -6 -4z" />
<glyph unicode="&#x10a;" horiz-adv-x="466" d="M220 -10q-19 0 -34.5 1t-33.5 4t-31.5 8.5t-27.5 14.5t-24 21.5t-18 31t-12 41.5t-3.5 54t5.5 67l31 220q11 78 36 128t62 72.5t70.5 29.5t79.5 7q48 0 85 -8t48 -13.5t14 -8.5t2 -5q-2 -2 -17.5 -31t-15.5 -30q-1 -4 -4 -3q-60 20 -124 20q-27 0 -46 -4.5t-42 -19.5 t-39 -51t-24 -92l-29 -204q-9 -45 -4 -75.5t11.5 -49t23.5 -28.5t33 -13t40 -3q57 0 138 27q3 2 5 -2q1 -1 8 -30.5t7 -30.5t-2 -6q-78 -39 -168 -39zM291 788q-3 0 -3 4l12 84q0 4 4 4h76q3 0 3 -4l-12 -84q0 -4 -4 -4h-76z" />
<glyph unicode="&#x10b;" horiz-adv-x="397" d="M181 -8q-18 0 -31.5 1t-30.5 4t-27.5 8.5t-24 15.5t-19.5 24t-12.5 34t-4.5 47t4 61l15 110q7 51 23.5 88t35.5 56.5t46.5 30.5t48 13.5t48.5 2.5q66 0 123 -19q4 -2 2 -5l-24 -55q-1 -3 -5 -3q-16 8 -104 8q-19 0 -34 -4t-32.5 -15.5t-30 -38t-17.5 -66.5l-13 -97 q-7 -35 -2.5 -59t10 -37.5t19 -20.5t24.5 -9t27 -2q27 0 54 3t40.5 5.5t15.5 3.5q3 1 5 -2q0 -2 4 -28.5t5 -27.5q1 -3 -3 -5q-44 -22 -135 -22zM230 588q-4 0 -3 4l11 84q1 4 5 4h76q3 0 3 -4l-12 -84q0 -4 -4 -4h-76z" />
<glyph unicode="&#x10c;" horiz-adv-x="466" d="M220 -10q-19 0 -34.5 1t-33.5 4t-31.5 8.5t-27.5 14.5t-24 21.5t-18 31t-12 41.5t-3.5 54t5.5 67l31 220q11 78 36 128t62 72.5t70.5 29.5t79.5 7q48 0 85 -8t48 -13.5t14 -8.5t2 -5q-2 -2 -17.5 -31t-15.5 -30q-1 -4 -4 -3q-60 20 -124 20q-27 0 -46 -4.5t-42 -19.5 t-39 -51t-24 -92l-29 -204q-9 -45 -4 -75.5t11.5 -49t23.5 -28.5t33 -13t40 -3q57 0 138 27q3 2 5 -2q1 -1 8 -30.5t7 -30.5t-2 -6q-78 -39 -168 -39zM402 899h61q4 0 0 -4l-104 -137q-2 -4 -5 -4h-56q-4 0 -6 4q-6 15 -33 67.5t-33 70.5q-2 3 2 3h61q1 0 4 -4l39 -82h4 q57 79 59 82q3 4 7 4z" />
<glyph unicode="&#x10d;" horiz-adv-x="397" d="M181 -8q-18 0 -31.5 1t-30.5 4t-27.5 8.5t-24 15.5t-19.5 24t-12.5 34t-4.5 47t4 61l15 110q7 51 23.5 88t35.5 56.5t46.5 30.5t48 13.5t48.5 2.5q66 0 123 -19q4 -2 2 -5l-24 -55q-1 -3 -5 -3q-16 8 -104 8q-19 0 -34 -4t-32.5 -15.5t-30 -38t-17.5 -66.5l-13 -97 q-7 -35 -2.5 -59t10 -37.5t19 -20.5t24.5 -9t27 -2q27 0 54 3t40.5 5.5t15.5 3.5q3 1 5 -2q0 -2 4 -28.5t5 -27.5q1 -3 -3 -5q-44 -22 -135 -22zM337 699h61q3 0 0 -4l-104 -137q-2 -4 -6 -4h-56q-3 0 -5 4q-6 15 -33 67.5t-33 70.5q-1 3 2 3h61q1 0 4 -4l39 -82h4 q57 79 59 82q3 4 7 4z" />
<glyph unicode="&#x10e;" horiz-adv-x="517" d="M125 80h109q31 0 51.5 5.5t41 21.5t34 51t21.5 90l26 188q5 32 4.5 57.5t-3.5 43t-11.5 29.5t-17 19t-22 10.5t-24.5 4.5t-27 1h-109zM223 0h-195l96 680h195q18 0 30 -0.5t30.5 -3t31 -6.5t28 -12.5t25 -20t19 -29.5t13.5 -40.5t4 -54t-5 -68.5l-28 -205 q-9 -67 -29.5 -114t-42 -71t-55.5 -37t-57.5 -15.5t-59.5 -2.5zM401 899h61q4 0 1 -4l-104 -137q-2 -4 -6 -4h-56q-3 0 -5 4q-6 15 -33 67.5t-33 70.5q-2 3 1 3h61q2 0 5 -4l38 -82h4q58 79 60 82q3 4 6 4z" />
<glyph unicode="&#x10f;" horiz-adv-x="553" d="M345 0h-75q-3 0 -3 3l4 27q-31 -38 -122 -38q-18 0 -29.5 1t-27.5 5.5t-26 12.5t-20.5 23t-14.5 36t-4.5 53.5t5.5 73.5l12 86q8 56 23.5 95.5t32 60t41.5 31.5t42 13t43 2q16 0 42.5 -6t45.5 -11l18 -6l30 214q0 4 4 4h75q2 0 2 -4l-94 -672q-1 -4 -4 -4zM179 65 q41 0 71.5 17.5t36.5 56.5l35 249q-64 23 -93 23q-19 0 -31 -3.5t-28 -15.5t-27 -40.5t-18 -74.5l-11 -75q-5 -32 -5 -56t4.5 -38.5t10 -23.5t16 -13t18.5 -5t21 -1zM478 510q-2 1 -3 3l23 163q0 4 4 4h65q3 0 3 -4l-15 -108q0 -2 -4 -6z" />
<glyph unicode="&#x110;" horiz-adv-x="524" d="M125 80h110q23 0 37 1.5t34 10.5t33 26t25.5 49.5t18.5 79.5l26 189q4 29 4.5 53t-3 40.5t-8.5 29t-14 20t-17 12t-20.5 6.5t-21 2.5t-21.5 0.5h-110l-31 -221h98q4 0 4 -4l-9 -63q0 -4 -5 -4h-98zM217 0h-188l43 308h-38q-2 0 -2 4l9 63q0 4 3 4h38l43 301h188 q17 0 30 -0.5t29.5 -2.5t29 -6t27 -10t24.5 -15.5t20 -22t16 -30t10 -39t3.5 -49.5t-5.5 -60l-29 -205q-7 -49 -20.5 -88t-28.5 -64t-37 -42.5t-39.5 -26t-44 -13.5t-41.5 -5.5t-40 -0.5z" />
<glyph unicode="&#x111;" horiz-adv-x="451" d="M180 68q97 0 106 71l35 249q-63 22 -94 22q-42 0 -67 -26t-37 -107l-10 -72q-12 -84 5.5 -110.5t61.5 -26.5zM149 -5q-19 0 -32.5 1.5t-29 6t-25.5 13t-19.5 24t-13 37t-3.5 52.5t5 71l11 83q9 67 28 110t47 61.5t51 24t57 5.5q18 0 45 -5.5t44 -10.5l18 -6l13 93h-108 q-3 0 -3 4l8 56q0 4 5 4h106l8 56q0 4 4 4h74q2 0 2 -4l-8 -56h39q3 0 3 -4l-8 -56q0 -4 -4 -4h-39l-77 -551q-1 -4 -3 -4h-74q-3 0 -3 3l4 27q-32 -35 -122 -35z" />
<glyph unicode="&#x112;" horiz-adv-x="462" d="M28 0l96 680h354q3 0 3 -4l-10 -70q0 -4 -4 -4h-268l-31 -218h229q3 0 2 -4l-9 -70q-1 -4 -4 -4h-229l-32 -228h268q4 0 3 -4l-9 -70q-1 -4 -5 -4h-354zM435 804h-229q-3 0 -2 4l8 59q1 4 3 4h229q3 0 3 -4l-8 -59q-1 -4 -4 -4z" />
<glyph unicode="&#x113;" horiz-adv-x="427" d="M121 269h181q11 84 -7 114.5t-61 30.5q-46 0 -73.5 -28t-39.5 -117zM184 -9q-19 0 -34.5 1.5t-35.5 6.5t-33 14t-28 24.5t-20 37.5t-9 53t4 72l12 83q10 65 32.5 109t54.5 63t58.5 25.5t58.5 6.5q33 0 56 -5.5t49 -24.5t35.5 -65t-0.5 -116l-9 -66h-263q-8 -39 -3.5 -66 t9.5 -43t19.5 -24t27 -10.5t31.5 -2.5t39 1.5t35.5 4t28 4.5t20 3.5t8.5 1.5q4 0 4 -3q0 -2 3 -27t3 -28q0 -5 -3 -6q-4 -2 -19.5 -7t-53 -11t-77.5 -6zM376 604h-229q-3 0 -3 4l8 59q1 4 4 4h229q3 0 2 -4l-8 -59q-1 -4 -3 -4z" />
<glyph unicode="&#x114;" horiz-adv-x="462" d="M28 0l96 680h354q3 0 3 -4l-10 -70q0 -4 -4 -4h-268l-31 -218h229q3 0 2 -4l-9 -70q-1 -4 -4 -4h-229l-32 -228h268q4 0 3 -4l-9 -70q-1 -4 -5 -4h-354zM319 763q-99 0 -99 96q0 27 7 27h35q4 0 5 -5q5 -37 17 -48.5t43 -11.5q30 0 46 12.5t29 47.5q2 5 7 5h37q5 0 4 -5 q-24 -118 -131 -118z" />
<glyph unicode="&#x115;" horiz-adv-x="427" d="M121 269h181q11 84 -7 114.5t-61 30.5q-46 0 -73.5 -28t-39.5 -117zM184 -9q-19 0 -34.5 1.5t-35.5 6.5t-33 14t-28 24.5t-20 37.5t-9 53t4 72l12 83q10 65 32.5 109t54.5 63t58.5 25.5t58.5 6.5q33 0 56 -5.5t49 -24.5t35.5 -65t-0.5 -116l-9 -66h-263q-8 -39 -3.5 -66 t9.5 -43t19.5 -24t27 -10.5t31.5 -2.5t39 1.5t35.5 4t28 4.5t20 3.5t8.5 1.5q4 0 4 -3q0 -2 3 -27t3 -28q0 -5 -3 -6q-4 -2 -19.5 -7t-53 -11t-77.5 -6zM259 563q-100 0 -100 96q0 27 7 27h35q5 0 6 -5q5 -37 17 -48.5t43 -11.5q29 0 45 12.5t29 47.5q2 5 7 5h37q5 0 4 -5 q-24 -118 -130 -118z" />
<glyph unicode="&#x116;" horiz-adv-x="462" d="M28 0l96 680h354q3 0 3 -4l-10 -70q0 -4 -4 -4h-268l-31 -218h229q3 0 2 -4l-9 -70q-1 -4 -4 -4h-229l-32 -228h268q4 0 3 -4l-9 -70q-1 -4 -5 -4h-354zM292 788q-4 0 -4 4l12 84q0 4 5 4h76q2 0 2 -4l-12 -84q0 -4 -3 -4h-76z" />
<glyph unicode="&#x117;" horiz-adv-x="427" d="M184 -9q-19 0 -34.5 1.5t-35.5 6.5t-33 14t-28 24.5t-20 37.5t-9 53t4 72l12 83q10 65 32.5 109t54.5 63t58.5 25.5t58.5 6.5q33 0 56 -5.5t49 -24.5t35.5 -65t-0.5 -116l-9 -66h-263q-8 -39 -3.5 -66t9.5 -43t19.5 -24t27 -10.5t31.5 -2.5t39 1.5t35.5 4t28 4.5t20 3.5 t8.5 1.5q4 0 4 -3q0 -2 3 -27t3 -28q0 -5 -3 -6q-4 -2 -19.5 -7t-53 -11t-77.5 -6zM121 269h181q11 84 -7 114.5t-61 30.5q-46 0 -73.5 -28t-39.5 -117zM225 588q-3 0 -3 4l12 84q0 4 4 4h76q3 0 3 -4l-12 -84q0 -4 -4 -4h-76z" />
<glyph unicode="&#x118;" horiz-adv-x="462" d="M28 0l96 680h354q3 0 3 -4l-10 -70q0 -4 -4 -4h-268l-31 -218h229q3 0 2 -4l-9 -70q-1 -4 -4 -4h-229l-32 -228h268q4 0 3 -4l-9 -70q-1 -4 -5 -4q-46 -35 -65 -55.5t-19 -42.5q0 -17 19 -17q4 0 9.5 2t10 4.5t5.5 2.5q5 3 6 -1l15 -37q1 -4 -3 -9q-31 -25 -65 -25 q-30 0 -46 11.5t-16 45.5q0 66 71 121h-276z" />
<glyph unicode="&#x119;" horiz-adv-x="427" d="M146 -183q-30 0 -46 11.5t-16 45.5q0 64 68 118q-24 2 -43 8.5t-39 20.5t-29.5 36.5t-15.5 58t3 84.5l12 83q30 204 205 204q15 0 27 -1t28 -4t27 -9t24 -16.5t19 -26t13.5 -37.5t5.5 -51t-5 -66l-9 -66h-262q-8 -39 -4 -66t9 -43t19.5 -24t27 -10.5t31.5 -2.5t39 1.5 t35.5 4t28 4.5t20 3.5t8.5 1.5q4 0 4 -3q0 -2 3 -27t3 -28q0 -5 -3 -6q-30 -15 -103 -22q-44 -33 -62.5 -53.5t-18.5 -42.5q0 -17 18 -17q4 0 9.5 2t10 4.5t5.5 2.5q5 3 6 -1l15 -37q2 -5 -2 -9q-31 -25 -66 -25zM121 269h181q12 84 -6 114.5t-62 30.5q-46 0 -73.5 -28 t-39.5 -117z" />
<glyph unicode="&#x11a;" horiz-adv-x="462" d="M28 0l96 680h354q3 0 3 -4l-10 -70q0 -4 -4 -4h-268l-31 -218h229q3 0 2 -4l-9 -70q-1 -4 -4 -4h-229l-32 -228h268q4 0 3 -4l-9 -70q-1 -4 -5 -4h-354zM396 899h61q4 0 1 -4l-104 -137q-2 -4 -6 -4h-56q-3 0 -5 4q-6 15 -33 67.5t-33 70.5q-1 3 1 3h61q2 0 5 -4l38 -82 h4q58 79 60 82q3 4 6 4z" />
<glyph unicode="&#x11b;" horiz-adv-x="427" d="M121 269h181q11 84 -7 114.5t-61 30.5q-46 0 -73.5 -28t-39.5 -117zM184 -9q-19 0 -34.5 1.5t-35.5 6.5t-33 14t-28 24.5t-20 37.5t-9 53t4 72l12 83q10 65 32.5 109t54.5 63t58.5 25.5t58.5 6.5q33 0 56 -5.5t49 -24.5t35.5 -65t-0.5 -116l-9 -66h-263q-8 -39 -3.5 -66 t9.5 -43t19.5 -24t27 -10.5t31.5 -2.5t39 1.5t35.5 4t28 4.5t20 3.5t8.5 1.5q4 0 4 -3q0 -2 3 -27t3 -28q0 -5 -3 -6q-4 -2 -19.5 -7t-53 -11t-77.5 -6zM334 699h61q4 0 0 -4l-104 -137q-2 -4 -5 -4h-56q-4 0 -6 4q-6 15 -32.5 67.5t-32.5 70.5q-1 3 1 3h61q1 0 4 -4l39 -82 h4q57 79 59 82q3 4 7 4z" />
<glyph unicode="&#x11c;" horiz-adv-x="512" d="M215 -10q-21 0 -37 1.5t-35.5 5.5t-33 11.5t-29 19.5t-23 30t-15 43t-5.5 57.5t5 74.5l31 220q9 65 30 111t44 70t57 37t58.5 16t58.5 3q46 0 89.5 -7.5t60 -13.5t23.5 -9q2 -2 0 -5l-28 -61q-2 -3 -5 -2q-2 1 -24.5 5.5t-60 9t-67.5 4.5q-21 0 -35.5 -1.5t-35 -11 t-34 -26t-26.5 -49.5t-20 -79l-29 -204q-3 -39 -4.5 -66.5t6 -46.5t15.5 -30t23 -17t27.5 -8t30.5 -2l127 11l28 202h-90q-3 0 -3 4l9 66q1 4 5 4h166l-49 -345q-148 -22 -205 -22zM277 755h-58q-3 0 -1 4q10 17 47 68.5t47 68.5q2 4 6 4h70q5 0 6 -4q1 -2 28 -68.5 t28 -68.5q1 -4 -2 -4h-58q-4 0 -5 4l-38 83h-4q-59 -80 -61 -83q-3 -4 -5 -4z" />
<glyph unicode="&#x11d;" horiz-adv-x="442" d="M173 66q13 0 38 5t43 11l19 5l36 253q4 31 -15 51t-72 20q-19 0 -32 -3.5t-28.5 -16t-26.5 -42t-17 -75.5l-10 -73q-4 -46 -3.5 -72.5t12.5 -40.5t24 -18t32 -4zM140 -194q-96 0 -142 23q-4 1 -1 5q0 5 26 57q1 4 4 3q48 -16 119 -16q48 0 75 17.5t36 77.5l6 42 q-75 -20 -112 -20q-17 0 -28.5 1t-26.5 3.5t-25 8.5t-21 15.5t-17 24.5t-10 35t-3.5 48t5.5 63l12 85q10 68 27.5 111.5t43 63t48.5 25.5t56 6q91 0 112 -36l4 26q0 4 3 4h75q3 0 3 -4l-71 -502q-7 -46 -22.5 -79t-33.5 -49.5t-45.5 -26t-47 -11t-49.5 -1.5zM203 555h-58 q-3 0 -1 4q10 17 47 68.5t47 68.5q2 4 6 4h70q6 0 7 -4q1 -2 27.5 -68.5t27.5 -68.5q1 -4 -2 -4h-58q-4 0 -5 4l-38 83h-4q-58 -80 -60 -83q-3 -4 -6 -4z" />
<glyph unicode="&#x11e;" horiz-adv-x="512" d="M215 -10q-21 0 -37 1.5t-35.5 5.5t-33 11.5t-29 19.5t-23 30t-15 43t-5.5 57.5t5 74.5l31 220q9 65 30 111t44 70t57 37t58.5 16t58.5 3q46 0 89.5 -7.5t60 -13.5t23.5 -9q2 -2 0 -5l-28 -61q-2 -3 -5 -2q-2 1 -24.5 5.5t-60 9t-67.5 4.5q-21 0 -35.5 -1.5t-35 -11 t-34 -26t-26.5 -49.5t-20 -79l-29 -204q-3 -39 -4.5 -66.5t6 -46.5t15.5 -30t23 -17t27.5 -8t30.5 -2l127 11l28 202h-90q-3 0 -3 4l9 66q1 4 5 4h166l-49 -345q-148 -22 -205 -22zM331 763q-100 0 -100 96q0 27 7 27h35q5 0 6 -5q5 -37 17 -48.5t43 -11.5q29 0 45 12.5 t29 47.5q2 5 7 5h37q5 0 4 -5q-24 -118 -130 -118z" />
<glyph unicode="&#x11f;" horiz-adv-x="442" d="M173 66q13 0 38 5t43 11l19 5l36 253q4 31 -15 51t-72 20q-19 0 -32 -3.5t-28.5 -16t-26.5 -42t-17 -75.5l-10 -73q-4 -46 -3.5 -72.5t12.5 -40.5t24 -18t32 -4zM140 -194q-96 0 -142 23q-4 1 -1 5q0 5 26 57q1 4 4 3q48 -16 119 -16q48 0 75 17.5t36 77.5l6 42 q-75 -20 -112 -20q-17 0 -28.5 1t-26.5 3.5t-25 8.5t-21 15.5t-17 24.5t-10 35t-3.5 48t5.5 63l12 85q10 68 27.5 111.5t43 63t48.5 25.5t56 6q91 0 112 -36l4 26q0 4 3 4h75q3 0 3 -4l-71 -502q-7 -46 -22.5 -79t-33.5 -49.5t-45.5 -26t-47 -11t-49.5 -1.5zM260 563 q-99 0 -99 96q0 27 6 27h35q5 0 6 -5q5 -37 17 -48.5t43 -11.5q30 0 46 12.5t29 47.5q2 5 6 5h37q6 0 5 -5q-24 -118 -131 -118z" />
<glyph unicode="&#x120;" horiz-adv-x="512" d="M215 -10q-21 0 -37 1.5t-35.5 5.5t-33 11.5t-29 19.5t-23 30t-15 43t-5.5 57.5t5 74.5l31 220q9 65 30 111t44 70t57 37t58.5 16t58.5 3q46 0 89.5 -7.5t60 -13.5t23.5 -9q2 -2 0 -5l-28 -61q-2 -3 -5 -2q-2 1 -24.5 5.5t-60 9t-67.5 4.5q-21 0 -35.5 -1.5t-35 -11 t-34 -26t-26.5 -49.5t-20 -79l-29 -204q-3 -39 -4.5 -66.5t6 -46.5t15.5 -30t23 -17t27.5 -8t30.5 -2l127 11l28 202h-90q-3 0 -3 4l9 66q1 4 5 4h166l-49 -345q-148 -22 -205 -22zM291 788q-3 0 -3 4l12 84q0 4 4 4h76q3 0 3 -4l-12 -84q0 -4 -4 -4h-76z" />
<glyph unicode="&#x121;" horiz-adv-x="442" d="M140 -194q-96 0 -142 23q-2 1 -2 3q0 3 28 59q0 5 3 3q48 -16 119 -16q48 0 75 17.5t36 77.5l6 42q-74 -20 -111 -20q-17 0 -28.5 1t-26.5 3.5t-25.5 8.5t-21.5 15.5t-17 24.5t-10 35t-3.5 48t5.5 63l12 85q10 68 27.5 111.5t43 63t48.5 25.5t56 6q91 0 112 -36l4 26 q0 4 4 4h75q2 0 2 -4l-71 -502q-7 -46 -22.5 -79t-33.5 -49.5t-45.5 -26t-47 -11t-49.5 -1.5zM174 66q13 0 37.5 5t42.5 11l19 5l36 253q4 31 -15 51t-72 20q-19 0 -31.5 -3.5t-28 -16t-26.5 -42t-17 -75.5l-10 -73q-4 -46 -3.5 -72.5t12.5 -40.5t24 -18t32 -4zM226 588 q-4 0 -4 4l12 84q0 4 5 4h76q3 0 2 -4l-12 -84q0 -4 -3 -4h-76z" />
<glyph unicode="&#x122;" horiz-adv-x="512" d="M215 -10q-21 0 -37 1.5t-35.5 5.5t-33 11.5t-29 19.5t-23 30t-15 43t-5.5 57.5t5 74.5l31 220q9 65 30 111t44 70t57 37t58.5 16t58.5 3q46 0 89.5 -7.5t60 -13.5t23.5 -9q2 -2 0 -5l-28 -61q-2 -3 -5 -2q-2 1 -24.5 5.5t-60 9t-67.5 4.5q-21 0 -35.5 -1.5t-35 -11 t-34 -26t-26.5 -49.5t-20 -79l-29 -204q-3 -39 -4.5 -66.5t6 -46.5t15.5 -30t23 -17t27.5 -8t30.5 -2l127 11l28 202h-90q-3 0 -3 4l9 66q1 4 5 4h166l-49 -345q-148 -22 -205 -22zM159 -253q-4 -4 -4 3l23 163q0 4 4 4h65q4 0 3 -4l-15 -108q0 -3 -4 -6z" />
<glyph unicode="&#x123;" horiz-adv-x="442" d="M140 -194q-96 0 -142 23q-2 1 -2 3q0 3 28 59q0 5 3 3q48 -16 119 -16q48 0 75 17.5t36 77.5l6 42q-74 -20 -111 -20q-17 0 -28.5 1t-26.5 3.5t-25.5 8.5t-21.5 15.5t-17 24.5t-10 35t-3.5 48t5.5 63l12 85q10 68 27.5 111.5t43 63t48.5 25.5t56 6q91 0 112 -36l4 26 q0 4 4 4h75q2 0 2 -4l-71 -502q-7 -46 -22.5 -79t-33.5 -49.5t-45.5 -26t-47 -11t-49.5 -1.5zM174 66q13 0 37.5 5t42.5 11l19 5l36 253q4 31 -15 51t-72 20q-19 0 -31.5 -3.5t-28 -16t-26.5 -42t-17 -75.5l-10 -73q-4 -46 -3.5 -72.5t12.5 -40.5t24 -18t32 -4zM312 753 q5 5 5 -3l-23 -163q0 -4 -5 -4h-65q-3 0 -2 4l15 108q0 3 4 6z" />
<glyph unicode="&#x124;" horiz-adv-x="542" d="M32 0q-4 0 -4 4l95 672q0 4 4 4h78q4 0 4 -4l-42 -296h240l42 296q0 4 4 4h78q4 0 4 -4l-95 -672q0 -4 -4 -4h-78q-4 0 -4 4l42 302h-240l-42 -302q-1 -4 -4 -4h-78zM284 755h-58q-3 0 -1 4q10 17 47 68.5t47 68.5q2 4 6 4h70q5 0 6 -4q1 -2 28 -68.5t28 -68.5 q1 -4 -2 -4h-58q-4 0 -5 4l-38 83h-4q-58 -80 -60 -83q-3 -4 -6 -4z" />
<glyph unicode="&#x125;" horiz-adv-x="459" d="M30 0q-3 0 -3 4l95 672q0 4 3 4h75q4 0 4 -4l-31 -222q78 31 116 31q30 0 50 -4.5t41.5 -19.5t28.5 -50.5t-1 -91.5l-45 -315q0 -4 -3 -4h-75q-3 0 -3 4l44 310q9 62 -6 80t-52 18q-15 0 -41.5 -7.5t-44.5 -14.5l-19 -8l-54 -378q0 -4 -4 -4h-75zM240 750h-58q-2 0 0 4 q10 17 46.5 68.5t46.5 68.5q2 4 7 4h70q5 0 6 -4t28 -70t28 -67q0 -4 -3 -4h-58q-4 0 -4 4l-39 83h-4q-58 -80 -60 -83q-3 -4 -6 -4z" />
<glyph unicode="&#x128;" horiz-adv-x="216" d="M32 0q-4 0 -4 4l95 672q0 4 5 4h78q3 0 3 -4l-94 -672q0 -4 -5 -4h-78zM71 789q-3 0 -2 5l6 43q2 9 5 12q35 35 65 35q23 0 51.5 -19t46.5 -19q19 0 40 17.5t22 17.5q3 0 2 -4l-6 -44q-2 -8 -6 -13q-29 -36 -66 -36q-23 0 -51 19.5t-44 19.5q-19 0 -40.5 -17t-22.5 -17z " />
<glyph unicode="&#x129;" horiz-adv-x="209" d="M27 0q-3 0 -2 4l66 471q0 4 3 4h75q3 0 3 -4l-66 -471q0 -4 -4 -4h-75zM40 589q-3 0 -2 5l6 43q2 9 5 12q35 35 65 35q23 0 51.5 -19t46.5 -19q20 0 40 17.5t22 17.5t2 -4l-6 -44q-2 -8 -6 -13q-29 -36 -66 -36q-22 0 -50 19.5t-45 19.5q-19 0 -40.5 -17t-22.5 -17z" />
<glyph unicode="&#x12a;" horiz-adv-x="216" d="M32 0q-4 0 -4 4l95 672q0 4 4 4h78q4 0 4 -4l-95 -672q0 -4 -4 -4h-78zM299 804h-229q-3 0 -3 4l9 59q0 4 3 4h229q3 0 3 -4l-9 -59q0 -4 -3 -4z" />
<glyph unicode="&#x12b;" horiz-adv-x="209" d="M27 0q-3 0 -3 4l67 471q0 4 3 4h75q3 0 3 -4l-67 -471q0 -4 -3 -4h-75zM267 604h-229q-3 0 -3 4l9 59q0 4 3 4h229q3 0 3 -4l-9 -59q0 -4 -3 -4z" />
<glyph unicode="&#x12e;" horiz-adv-x="216" d="M23 -177q-30 0 -46 11.5t-16 45.5q0 67 70 120q-2 0 -2 4l94 672q1 4 5 4h78q3 0 3 -4l-94 -672q0 -4 -5 -4h-1q-44 -33 -63 -54t-19 -43q0 -17 18 -17q4 0 9.5 2t10 4.5t5.5 2.5q5 3 6 -1l15 -37q2 -5 -2 -9q-31 -25 -66 -25z" />
<glyph unicode="&#x12f;" horiz-adv-x="209" d="M17 -178q-29 0 -45.5 11.5t-16.5 45.5q0 66 72 122l1 3l66 471q0 4 4 4h75q2 0 2 -4l-66 -471q0 -4 -4 -4h-1q-45 -34 -64 -55t-19 -43q0 -17 18 -17q4 0 9.5 2t10 4.5t5.5 2.5q5 3 6 -1l15 -37q2 -5 -2 -9q-31 -25 -66 -25zM111 592q-2 0 -2 4l11 80q1 4 4 4h79 q2 0 2 -4l-11 -80q-1 -4 -4 -4h-79z" />
<glyph unicode="&#x130;" horiz-adv-x="216" d="M32 0q-4 0 -4 4l95 672q0 4 4 4h78q4 0 4 -4l-95 -672q0 -4 -4 -4h-78zM144 788q-3 0 -3 4l12 84q0 4 4 4h76q3 0 3 -4l-12 -84q0 -4 -4 -4h-76z" />
<glyph unicode="&#x131;" horiz-adv-x="209" d="M27 0q-3 0 -3 4l67 471q0 4 3 4h75q3 0 3 -4l-67 -471q0 -4 -3 -4h-75z" />
<glyph unicode="&#x134;" horiz-adv-x="405" d="M130 -10q-30 0 -63 5t-49.5 9.5t-19.5 5.5q-2 1 0 6l26 62q3 4 5 3t18.5 -3.5t43.5 -5t47 -2.5q22 0 36 2.5t30 11t26 28.5t14 52l72 512q0 4 4 4h79q3 0 3 -4l-73 -516q-7 -47 -23 -80t-34 -50t-45 -26.5t-47.5 -11.5t-49.5 -2zM313 755h-58q-3 0 -1 4q10 17 46.5 68.5 t46.5 68.5q2 4 7 4h70q5 0 6 -4t28 -70t28 -67q1 -4 -2 -4h-58q-4 0 -5 4l-38 83h-4q-59 -80 -61 -83q-3 -4 -5 -4z" />
<glyph unicode="&#x136;" horiz-adv-x="499" d="M32 0q-4 0 -4 4l95 672q0 4 4 4h78q5 0 4 -4l-41 -294h30q220 291 222 294q3 4 5 4h93q3 0 1 -4l-257 -330q175 -340 176 -342q1 -4 -1 -4h-93q-3 0 -6 4l-148 301h-34l-42 -301q-1 -4 -4 -4h-78zM145 -253q-2 -2 -3 0v3l23 163q0 4 3 4h65q4 0 4 -4l-16 -108q0 -3 -3 -6 z" />
<glyph unicode="&#x137;" horiz-adv-x="427" d="M30 0q-3 0 -3 4l95 672q0 4 3 4h75q5 0 4 -4l-54 -387h32q135 184 137 186q4 4 6 4h88q4 0 0 -4l-169 -223q123 -245 124 -248q2 -4 -1 -4h-91q-3 0 -5 4l-101 211h-31l-30 -211q0 -4 -4 -4h-75zM108 -253q-2 -2 -3 0v3l22 163q1 4 4 4h65q4 0 3 -4l-15 -108q0 -3 -4 -6z " />
<glyph unicode="&#x139;" horiz-adv-x="443" d="M28 0l95 676q0 4 5 4h78q4 0 3 -4l-84 -598h268q4 0 3 -4l-9 -69q-2 -5 -5 -5h-354zM286 759q-6 -4 -7 -4h-58q-3 0 -1 4l81 137q3 4 6 4h73q5 0 2 -4z" />
<glyph unicode="&#x13a;" horiz-adv-x="242" d="M140 -5q-17 0 -28 0.5t-24 3.5t-20.5 9t-14.5 16.5t-9.5 26t-2.5 38t4 51.5l76 536q0 4 3 4h74q3 0 3 -4l-76 -537q-6 -45 2.5 -58.5t27.5 -13.5q7 0 25 1l18 1q4 0 4 -5t0.5 -31t0.5 -27q0 -4 -4 -5q-12 -6 -59 -6zM200 754q-4 -4 -7 -4h-58q-2 0 0 4l80 137q3 4 7 4h73 q4 0 1 -4z" />
<glyph unicode="&#x13b;" horiz-adv-x="443" d="M28 0l95 676q0 4 5 4h78q4 0 3 -4l-84 -598h268q4 0 3 -4l-9 -69q-2 -5 -5 -5h-354zM135 -253q-2 1 -3 3l23 163q0 4 3 4h65q4 0 4 -4l-15 -108q0 -2 -4 -6z" />
<glyph unicode="&#x13c;" horiz-adv-x="242" d="M140 -5q-17 0 -28 0.5t-24 3.5t-20.5 9t-14.5 16.5t-9.5 26t-2.5 38t4 51.5l76 536q0 4 3 4h74q3 0 3 -4l-76 -537q-6 -45 2.5 -58.5t27.5 -13.5q7 0 25 1l18 1q4 0 4 -5t0.5 -31t0.5 -27q0 -4 -4 -5q-12 -6 -59 -6zM37 -253q-2 -2 -3 0v3l23 163q0 4 3 4h65q4 0 4 -4 l-16 -108q0 -3 -3 -6z" />
<glyph unicode="&#x13d;" horiz-adv-x="443" d="M28 0l95 676q0 4 5 4h78q4 0 3 -4l-84 -598h268q4 0 3 -4l-9 -69q-2 -5 -5 -5h-354zM262 580q-2 1 -3 3l23 163q0 4 3 4h65q4 0 4 -4l-15 -108q0 -2 -4 -6z" />
<glyph unicode="&#x13e;" horiz-adv-x="348" d="M140 -5q-17 0 -28 0.5t-24 3.5t-20.5 9t-14.5 16.5t-9.5 26t-2.5 38t4 51.5l76 536q0 4 3 4h74q3 0 3 -4l-76 -537q-6 -45 2.5 -58.5t27.5 -13.5q7 0 25 1l18 1q4 0 4 -5t0.5 -31t0.5 -27q0 -4 -4 -5q-12 -6 -59 -6zM261 510q-2 1 -3 3l23 163q0 4 3 4h65q4 0 4 -4 l-15 -108q0 -2 -4 -6z" />
<glyph unicode="&#x141;" horiz-adv-x="451" d="M28 0l39 276q-49 -32 -51 -33q-3 -1 -3 3l10 70q0 3 4 7l51 33l45 320q0 4 4 4h78q5 0 4 -4l-38 -270q136 89 137 89q3 1 3 -2l-10 -71q0 -4 -4 -6l-137 -90l-35 -248h269q3 0 2 -4l-10 -70q0 -4 -3 -4h-355z" />
<glyph unicode="&#x142;" horiz-adv-x="252" d="M138 -5q-20 0 -32.5 1t-27.5 6t-20.5 14t-13 25.5t-5 40.5t4.5 58l23 164q-39 -26 -40 -26q-3 0 -3 3l10 66q0 5 3 6l40 26l42 297q0 4 3 4h75q3 0 3 -4l-35 -250q64 42 66 42h1v-3l-9 -65q-1 -5 -3 -7l-66 -42l-30 -212q-6 -44 2.5 -58t27.5 -14q7 0 17 0.5t17 0.5l8 1 q2 0 3 -3q2 -4 2 -60q0 -5 -4 -5l-4 -1q-4 0 -10 -1t-13 -2t-16 -1.5t-16 -0.5z" />
<glyph unicode="&#x143;" horiz-adv-x="549" d="M31 0q-4 0 -4 4l95 672q0 4 4 4h96q4 0 5 -4l150 -519h11l73 519q0 4 4 4h77q3 0 3 -4l-95 -672q0 -4 -3 -4h-97q-3 0 -5 4l-149 523h-12l-74 -523q0 -4 -3 -4h-76zM338 759q-6 -4 -7 -4h-58q-3 0 -1 4l81 137q3 4 6 4h73q5 0 2 -4z" />
<glyph unicode="&#x144;" horiz-adv-x="459" d="M30 0q-3 0 -3 4l67 471q0 4 3 4h75q4 0 4 -4l-3 -21q78 31 116 31q16 0 27.5 -1t28 -4.5t25.5 -10t20.5 -18.5t14.5 -30t6.5 -43t-3.5 -59l-45 -315q0 -4 -4 -4h-74q-3 0 -3 4l44 310q9 62 -6 80t-52 18q-15 0 -41.5 -7.5t-44.5 -14.5l-19 -8l-54 -378q0 -4 -4 -4h-75z M267 559q-4 -4 -6 -4h-58q-3 0 -1 4l81 137q3 4 6 4h73q4 0 1 -4z" />
<glyph unicode="&#x145;" horiz-adv-x="549" d="M31 0q-4 0 -4 4l95 672q0 4 4 4h96q4 0 5 -4l150 -519h11l73 519q0 4 4 4h77q3 0 3 -4l-95 -672q0 -4 -3 -4h-97q-3 0 -5 4l-149 523h-12l-74 -523q0 -4 -3 -4h-76zM177 -253q-2 -2 -3 0v3l23 163q0 4 3 4h65q4 0 4 -4l-16 -108q0 -3 -3 -6z" />
<glyph unicode="&#x146;" horiz-adv-x="459" d="M30 0q-3 0 -3 4l67 471q0 4 3 4h75q4 0 4 -4l-3 -21q78 31 116 31q16 0 27.5 -1t28 -4.5t25.5 -10t20.5 -18.5t14.5 -30t6.5 -43t-3.5 -59l-45 -315q0 -4 -4 -4h-74q-3 0 -3 4l44 310q9 62 -6 80t-52 18q-15 0 -41.5 -7.5t-44.5 -14.5l-19 -8l-54 -378q0 -4 -4 -4h-75z M130 -253q-2 -2 -3 0v3l23 163q0 4 3 4h65q4 0 4 -4l-16 -108q0 -3 -3 -6z" />
<glyph unicode="&#x147;" horiz-adv-x="549" d="M31 0q-4 0 -4 4l95 672q0 4 4 4h96q4 0 5 -4l150 -519h11l73 519q0 4 4 4h77q3 0 3 -4l-95 -672q0 -4 -3 -4h-97q-3 0 -5 4l-149 523h-12l-74 -523q0 -4 -3 -4h-76zM420 899h61q4 0 0 -4l-104 -137q-2 -4 -5 -4h-56q-4 0 -6 4q-6 15 -32.5 67.5t-32.5 70.5q-1 3 1 3h61 q2 0 5 -4l38 -82h4q58 79 60 82q3 4 6 4z" />
<glyph unicode="&#x148;" horiz-adv-x="459" d="M30 0q-3 0 -3 4l67 471q0 4 3 4h75q4 0 4 -4l-3 -21q78 31 116 31q16 0 27.5 -1t28 -4.5t25.5 -10t20.5 -18.5t14.5 -30t6.5 -43t-3.5 -59l-45 -315q0 -4 -4 -4h-74q-3 0 -3 4l44 310q9 62 -6 80t-52 18q-15 0 -41.5 -7.5t-44.5 -14.5l-19 -8l-54 -378q0 -4 -4 -4h-75z M347 699h61q4 0 0 -4l-104 -137q-2 -4 -5 -4h-56q-4 0 -6 4q-6 15 -32.5 67.5t-32.5 70.5q-2 3 1 3h61q2 0 5 -4l38 -82h4q58 79 60 82q3 4 6 4z" />
<glyph unicode="&#x14c;" horiz-adv-x="511" d="M228 69q30 0 50 5t41 21.5t35 52.5t22 92l28 204q3 38 4.5 65t-6 45.5t-15.5 29.5t-23 17t-28 8t-32 2q-29 0 -49 -5.5t-41 -21.5t-35 -51t-22 -89l-28 -204q-3 -40 -4.5 -68t6.5 -47t15.5 -30t23 -17t28 -7.5t30.5 -1.5zM216 -10q-19 0 -32.5 0.5t-31.5 3.5t-31 7.5 t-27.5 13.5t-24 21t-18.5 30.5t-12.5 41.5t-3 54.5t5.5 69.5l31 221q11 79 36 129.5t62 72.5t68.5 28.5t76.5 6.5q18 0 31 -0.5t31.5 -3t31.5 -7t28 -13t25 -20.5t19 -30t12.5 -41t3.5 -54t-5 -68l-32 -221q-10 -68 -30.5 -115.5t-42.5 -71.5t-55.5 -37t-56.5 -15.5 t-59 -2.5zM446 804h-229q-3 0 -3 4l9 59q0 4 3 4h229q3 0 3 -4l-9 -59q0 -4 -3 -4z" />
<glyph unicode="&#x14d;" horiz-adv-x="432" d="M185 65q23 0 37.5 3.5t30.5 16.5t27 42t17 75l11 78q7 36 4 61t-6.5 39.5t-16 22t-23.5 9.5t-29 2q-47 0 -74.5 -25.5t-39.5 -108.5l-11 -78q-8 -38 -4.5 -63t8 -40t17 -22.5t24 -9.5t28.5 -2zM175 -8q-19 0 -33 1t-30.5 4t-28.5 9.5t-23.5 16.5t-18.5 25.5t-11.5 36 t-4.5 49t5 63.5l12 89q9 66 29 108.5t50.5 62t58.5 25.5t68 6q16 0 27.5 -0.5t26.5 -3t25.5 -6.5t22.5 -11t19.5 -17.5t14 -25.5t9.5 -34.5t2.5 -45.5t-4.5 -57l-12 -90q-8 -56 -23.5 -95.5t-33.5 -60.5t-45 -32.5t-48.5 -14t-53.5 -2.5zM379 604h-229q-3 0 -2 4l8 59 q1 4 3 4h229q3 0 3 -4l-9 -59q0 -4 -3 -4z" />
<glyph unicode="&#x14e;" horiz-adv-x="511" d="M228 69q30 0 50 5t41 21.5t35 52.5t22 92l28 204q3 38 4.5 65t-6 45.5t-15.5 29.5t-23 17t-28 8t-32 2q-29 0 -49 -5.5t-41 -21.5t-35 -51t-22 -89l-28 -204q-3 -40 -4.5 -68t6.5 -47t15.5 -30t23 -17t28 -7.5t30.5 -1.5zM216 -10q-19 0 -32.5 0.5t-31.5 3.5t-31 7.5 t-27.5 13.5t-24 21t-18.5 30.5t-12.5 41.5t-3 54.5t5.5 69.5l31 221q11 79 36 129.5t62 72.5t68.5 28.5t76.5 6.5q18 0 31 -0.5t31.5 -3t31.5 -7t28 -13t25 -20.5t19 -30t12.5 -41t3.5 -54t-5 -68l-32 -221q-10 -68 -30.5 -115.5t-42.5 -71.5t-55.5 -37t-56.5 -15.5 t-59 -2.5zM326 763q-99 0 -99 96q0 27 6 27h35q5 0 6 -5q5 -37 17 -48.5t43 -11.5q30 0 46 12.5t29 47.5q2 5 6 5h37q6 0 5 -5q-24 -118 -131 -118z" />
<glyph unicode="&#x14f;" horiz-adv-x="432" d="M185 65q23 0 37.5 3.5t30.5 16.5t27 42t17 75l11 78q7 36 4 61t-6.5 39.5t-16 22t-23.5 9.5t-29 2q-47 0 -74.5 -25.5t-39.5 -108.5l-11 -78q-8 -38 -4.5 -63t8 -40t17 -22.5t24 -9.5t28.5 -2zM175 -8q-19 0 -33 1t-30.5 4t-28.5 9.5t-23.5 16.5t-18.5 25.5t-11.5 36 t-4.5 49t5 63.5l12 89q9 66 29 108.5t50.5 62t58.5 25.5t68 6q16 0 27.5 -0.5t26.5 -3t25.5 -6.5t22.5 -11t19.5 -17.5t14 -25.5t9.5 -34.5t2.5 -45.5t-4.5 -57l-12 -90q-8 -56 -23.5 -95.5t-33.5 -60.5t-45 -32.5t-48.5 -14t-53.5 -2.5zM259 563q-99 0 -99 96q0 27 6 27h35 q5 0 6 -5q5 -37 17 -48.5t43 -11.5q30 0 46 12.5t29 47.5q2 5 6 5h37q6 0 5 -5q-24 -118 -131 -118z" />
<glyph unicode="&#x150;" horiz-adv-x="511" d="M216 -10q-19 0 -32.5 0.5t-31.5 3.5t-31 7.5t-27.5 13.5t-24 21t-18.5 30.5t-12.5 41.5t-3 54.5t5.5 69.5l31 221q11 79 36 129.5t62 72.5t68.5 28.5t76.5 6.5q18 0 31 -0.5t31.5 -3t31.5 -7t28 -13t25 -20.5t19 -30t12.5 -41t3.5 -54t-5 -68l-32 -221 q-10 -68 -30.5 -115.5t-42.5 -71.5t-55.5 -37t-56.5 -15.5t-59 -2.5zM228 69q30 0 50 5t41 21.5t35 52.5t22 92l28 204q3 38 4.5 65t-6 45.5t-15.5 29.5t-23 17t-28 8t-32 2q-29 0 -49 -5.5t-41 -21.5t-35 -51t-22 -89l-28 -204q-3 -40 -4.5 -68t6.5 -47t15.5 -30t23 -17 t28 -7.5t30.5 -1.5zM395 759q-3 -4 -6 -4h-58q-3 0 0 4q1 2 40.5 68.5t40.5 68.5q3 4 5 4h73q4 0 1 -4zM273 759q-1 -4 -7 -4h-58q-3 0 0 4q1 1 40.5 68t40.5 69q1 4 5 4h73q5 0 2 -4q0 -1 -47.5 -68t-48.5 -69z" />
<glyph unicode="&#x151;" horiz-adv-x="432" d="M175 -8q-19 0 -33 1t-30.5 4t-28.5 9.5t-23.5 16.5t-18.5 25.5t-11.5 36t-4.5 49t5 63.5l12 89q9 66 29 108.5t50.5 62t58.5 25.5t68 6q16 0 27.5 -0.5t26.5 -3t25.5 -6.5t22.5 -11t19.5 -17.5t14 -25.5t9.5 -34.5t2.5 -45.5t-4.5 -57l-12 -90q-8 -56 -23.5 -95.5 t-33.5 -60.5t-45 -32.5t-48.5 -14t-53.5 -2.5zM185 65q23 0 37.5 3.5t30.5 16.5t27 42t17 75l11 78q7 36 4 61t-6.5 39.5t-16 22t-23.5 9.5t-29 2q-47 0 -74.5 -25.5t-39.5 -108.5l-11 -78q-8 -38 -4.5 -63t8 -40t17 -22.5t24 -9.5t28.5 -2zM334 559q-3 -4 -6 -4h-58 q-3 0 0 4q1 2 40.5 68.5t40.5 68.5q3 4 5 4h73q4 0 1 -4zM212 559q-1 -4 -7 -4h-58q-3 0 0 4q1 1 40.5 68t40.5 69q1 4 5 4h73q5 0 2 -4q0 -1 -47.5 -68t-48.5 -69z" />
<glyph unicode="&#x152;" horiz-adv-x="783" d="M230 74q27 0 46.5 6t41.5 23t37.5 55.5t23.5 96.5l25 174q7 35 4.5 61.5t-5 45.5t-12 32t-17.5 20.5t-21.5 11.5t-23.5 5t-24 1q-27 0 -46 -5t-41 -20.5t-37.5 -52t-23.5 -92.5l-27 -189q-5 -34 -5 -61t4 -45t12 -30.5t17 -19.5t22 -11t24 -5t26 -1zM219 -4 q-18 0 -32 0.5t-32 3.5t-31 8t-27.5 14t-24.5 21.5t-18.5 31t-12.5 42t-3.5 55t5.5 68.5l29 204q9 65 29 111.5t42.5 71t55.5 38t57.5 16.5t59.5 3q78 0 116 -52l7 48h353q4 0 4 -4l-10 -70q0 -4 -5 -4h-268l-30 -218h229q3 0 3 -4l-10 -70q0 -4 -4 -4h-229l-32 -228h268 q3 0 3 -4l-10 -70q0 -4 -4 -4h-353l6 48q-57 -52 -131 -52z" />
<glyph unicode="&#x153;" horiz-adv-x="700" d="M188 68q21 0 35.5 4t31.5 16.5t28.5 42t17.5 75.5l10 75q7 36 3 60t-8.5 38t-17 21t-23 9t-25.5 2q-22 0 -36.5 -3.5t-31 -16t-28.5 -41t-18 -73.5l-10 -71q-12 -84 6.5 -111t65.5 -27zM393 269h181q12 86 -6.5 114t-61.5 28q-47 0 -74 -27.5t-39 -114.5zM178 -5 q-23 0 -39.5 1.5t-35.5 6.5t-30.5 14.5t-23.5 24.5t-15.5 37t-6 52t5.5 70l12 82q10 67 30 109.5t51 61.5t58 25t66 6q85 0 121 -65q27 32 59 48.5t86 16.5q17 0 29.5 -1t28.5 -4.5t27 -9.5t24 -16.5t19 -26t12.5 -37t4.5 -50t-5 -64.5l-9 -66h-263q-10 -84 8 -113.5 t76 -29.5q13 0 27 1t26.5 2.5t24 3t21 3t16.5 3t11 2.5l4 1q3 0 4 -3l8 -55q0 -3 -3 -5q-4 -2 -19.5 -7t-53.5 -11.5t-77 -6.5q-55 0 -87 15t-50 51q-16 -18 -28 -29t-43.5 -24t-70.5 -13z" />
<glyph unicode="&#x154;" horiz-adv-x="515" d="M110 0h-78q-4 0 -4 4l95 676h207q30 0 50 -2t46.5 -12t41.5 -28t23 -53t1 -84l-7 -54q-17 -130 -114 -164l70 -279q2 -4 -3 -4h-87q-4 0 -5 4l-61 265h-135l-37 -265q-1 -4 -3 -4zM161 346h119q106 0 120 104l7 50q5 34 -1 56t-22 31.5t-30.5 12t-36.5 2.5h-120zM321 759 q-6 -4 -7 -4h-58q-3 0 -1 4l81 137q3 4 6 4h73q5 0 2 -4z" />
<glyph unicode="&#x155;" horiz-adv-x="341" d="M30 0q-3 0 -3 4l67 471q0 4 3 4h75q4 0 4 -4l-3 -22q58 32 95 32q48 0 78 -15q2 -1 2 -3q0 -7 -26 -59q-2 -3 -4 -3q-16 8 -67 8q-15 0 -37 -8.5t-37 -16.5l-15 -9l-53 -375q0 -4 -4 -4h-75zM211 559q-4 -4 -6 -4h-58q-3 0 -1 4l81 137q3 4 6 4h73q4 0 1 -4z" />
<glyph unicode="&#x156;" horiz-adv-x="515" d="M110 0h-78q-4 0 -4 4l95 676h207q30 0 50 -2t46.5 -12t41.5 -28t23 -53t1 -84l-7 -54q-17 -130 -114 -164l70 -279q2 -4 -3 -4h-87q-4 0 -5 4l-61 265h-135l-37 -265q-1 -4 -3 -4zM161 346h119q106 0 120 104l7 50q5 34 -1 56t-22 31.5t-30.5 12t-36.5 2.5h-120z M157 -253q-2 -2 -3 0v3l23 163q0 4 3 4h65q4 0 4 -4l-16 -108q0 -3 -3 -6z" />
<glyph unicode="&#x157;" horiz-adv-x="341" d="M30 0q-3 0 -3 4l67 471q0 4 3 4h75q4 0 4 -4l-3 -22q58 32 95 32q48 0 78 -15q2 -1 2 -3q0 -7 -26 -59q-2 -3 -4 -3q-16 8 -67 8q-15 0 -37 -8.5t-37 -16.5l-15 -9l-53 -375q0 -4 -4 -4h-75zM81 -248q-4 -4 -4 3l23 163q0 4 4 4h65q4 0 3 -4l-15 -108q0 -3 -4 -6z" />
<glyph unicode="&#x158;" horiz-adv-x="515" d="M161 346h119q106 0 120 104l7 50q5 34 -1 56t-22 31.5t-30.5 12t-36.5 2.5h-120zM110 0h-78q-4 0 -4 4l95 676h207q30 0 50 -2t46.5 -12t41.5 -28t23 -53t1 -84l-7 -54q-17 -130 -114 -164l70 -279q2 -4 -3 -4h-87q-4 0 -5 4l-61 265h-135l-37 -265q-1 -4 -3 -4zM386 899 h61q4 0 0 -4l-104 -137q-2 -4 -5 -4h-56q-4 0 -6 4q-6 15 -32.5 67.5t-32.5 70.5q-1 3 1 3h61q2 0 5 -4l38 -82h4q58 79 60 82q3 4 6 4z" />
<glyph unicode="&#x159;" horiz-adv-x="341" d="M30 0q-3 0 -3 4l67 471q0 4 3 4h75q4 0 4 -4l-3 -22q58 32 95 32q48 0 78 -15q2 -1 2 -3q0 -7 -26 -59q-2 -3 -4 -3q-16 8 -67 8q-15 0 -37 -8.5t-37 -16.5l-15 -9l-53 -375q0 -4 -4 -4h-75zM289 699h61q4 0 0 -4l-104 -137q-2 -4 -5 -4h-56q-4 0 -6 4q-6 15 -32.5 67.5 t-32.5 70.5q-2 3 1 3h61q2 0 5 -4l38 -82h4q58 79 60 82q3 4 6 4z" />
<glyph unicode="&#x15a;" horiz-adv-x="498" d="M208 -10q-114 0 -184 35q-3 1 -1 5l30 66q2 3 4 2q5 -3 23 -8.5t59.5 -13.5t82.5 -8q37 0 60 4.5t44 25t27 59.5l9 60q6 42 -20.5 61.5t-88.5 25.5q-107 11 -142 47t-24 117l10 73q20 149 211 149q107 0 165 -29q3 -2 1 -6l-29 -61q-2 -3 -5 -3q-3 1 -20 5.5t-52.5 10 t-69.5 5.5q-48 0 -78.5 -16t-36.5 -63l-8 -59q-6 -42 17.5 -62t87.5 -27q106 -11 143 -46t26 -117l-10 -74q-6 -42 -23.5 -72t-39 -46.5t-53 -25.5t-57 -11.5t-58.5 -2.5zM324 759q-4 -4 -7 -4h-58q-2 0 0 4l80 137q3 4 7 4h73q4 0 1 -4z" />
<glyph unicode="&#x15b;" horiz-adv-x="408" d="M169 -7q-94 0 -154 20q-2 1 -1 5l25 58q1 2 4 2l8 -2q8 -1 21 -3.5t29 -5t37 -4t41 -1.5q28 0 43.5 2.5t29.5 16t18 39.5l4 28q3 23 -15 38t-72 23q-70 11 -100.5 37.5t-23.5 80.5l6 44q15 116 167 116q24 0 46.5 -2t38 -5.5t27 -6.5t18.5 -5l6 -2q1 0 1 -3 q-1 -2 -12 -29t-11 -28q-2 -2 -3 -2q-2 1 -18.5 4.5t-46.5 7.5t-56 4q-73 0 -80 -54l-4 -30q-3 -24 15 -36.5t67 -19.5q71 -10 104 -37.5t26 -81.5l-6 -43q-6 -42 -22 -68.5t-43 -38t-51.5 -15t-62.5 -3.5zM250 559q-6 -4 -7 -4h-58q-3 0 -1 4l81 137q3 4 6 4h73q5 0 2 -4z " />
<glyph unicode="&#x15c;" horiz-adv-x="498" d="M208 -10q-114 0 -184 35q-3 1 -1 5l30 66q2 3 4 2q5 -3 23 -8.5t59.5 -13.5t82.5 -8q37 0 60 4.5t44 25t27 59.5l9 60q6 42 -20.5 61.5t-88.5 25.5q-107 11 -142 47t-24 117l10 73q20 149 211 149q107 0 165 -29q3 -2 1 -6l-29 -61q-2 -3 -5 -3q-3 1 -20 5.5t-52.5 10 t-69.5 5.5q-48 0 -78.5 -16t-36.5 -63l-8 -59q-6 -42 17.5 -62t87.5 -27q106 -11 143 -46t26 -117l-10 -74q-6 -42 -23.5 -72t-39 -46.5t-53 -25.5t-57 -11.5t-58.5 -2.5zM261 755h-58q-2 0 0 4q10 17 46.5 68.5t46.5 68.5q2 4 7 4h70q5 0 6 -4t28 -70t28 -67q1 -4 -3 -4 h-58q-3 0 -4 4l-38 83h-4q-59 -80 -61 -83q-3 -4 -6 -4z" />
<glyph unicode="&#x15d;" horiz-adv-x="408" d="M169 -7q-94 0 -154 20q-2 1 -1 5l25 58q1 2 4 2l8 -2q8 -1 21 -3.5t29 -5t37 -4t41 -1.5q28 0 43.5 2.5t29.5 16t18 39.5l4 28q3 23 -15 38t-72 23q-70 11 -100.5 37.5t-23.5 80.5l6 44q15 116 167 116q24 0 46.5 -2t38 -5.5t27 -6.5t18.5 -5l6 -2q1 0 1 -3 q-1 -2 -12 -29t-11 -28q-2 -2 -3 -2q-2 1 -18.5 4.5t-46.5 7.5t-56 4q-73 0 -80 -54l-4 -30q-3 -24 15 -36.5t67 -19.5q71 -10 104 -37.5t26 -81.5l-6 -43q-6 -42 -22 -68.5t-43 -38t-51.5 -15t-62.5 -3.5zM191 555h-58q-2 0 0 4q10 17 46.5 68.5t46.5 68.5q2 4 6 4h70 q6 0 7 -4t28 -70t28 -67q0 -4 -3 -4h-58q-4 0 -4 4l-39 83h-4q-58 -80 -60 -83q-3 -4 -6 -4z" />
<glyph unicode="&#x15e;" horiz-adv-x="498" d="M201 -150h-73q-4 0 -1 4l73 136q-110 2 -176 35q-3 1 -1 5l30 66q2 3 4 2q5 -3 23 -8.5t59.5 -13.5t82.5 -8q37 0 60 4.5t44 25t27 59.5l9 60q6 42 -20.5 61.5t-88.5 25.5q-107 11 -142 47t-24 117l10 73q20 149 211 149q107 0 165 -29q3 -2 1 -6l-29 -61q-2 -3 -5 -3 q-3 1 -20 5.5t-52.5 10t-69.5 5.5q-48 0 -78.5 -16t-36.5 -63l-8 -59q-6 -42 17.5 -62t87.5 -27q106 -11 143 -46t26 -117l-10 -74q-19 -141 -172 -155l-60 -139q-2 -4 -6 -4z" />
<glyph unicode="&#x15f;" horiz-adv-x="408" d="M154 -150h-73q-4 0 -1 4l74 139q-85 2 -139 20q-2 1 -1 5l25 58q1 2 4 2l8 -2q8 -1 21 -3.5t29 -5t37 -4t41 -1.5q28 0 43.5 2.5t29.5 16t18 39.5l4 28q3 23 -15 38t-72 23q-70 11 -100.5 37.5t-23.5 80.5l6 44q15 116 167 116q24 0 46.5 -2t38 -5.5t27 -6.5t18.5 -5 l6 -2q1 0 1 -3q-1 -2 -12 -29t-11 -28q-2 -2 -3 -2q-2 1 -18.5 4.5t-46.5 7.5t-56 4q-73 0 -80 -54l-4 -30q-3 -24 15 -36.5t67 -19.5q71 -10 104 -37.5t26 -81.5l-6 -43q-9 -64 -41.5 -91t-84.5 -32l-62 -141q-2 -4 -6 -4z" />
<glyph unicode="&#x160;" horiz-adv-x="498" d="M208 -10q-114 0 -184 35q-3 1 -1 5l30 66q2 3 4 2q5 -3 23 -8.5t59.5 -13.5t82.5 -8q37 0 60 4.5t44 25t27 59.5l9 60q6 42 -20.5 61.5t-88.5 25.5q-107 11 -142 47t-24 117l10 73q20 149 211 149q107 0 165 -29q3 -2 1 -6l-29 -61q-2 -3 -5 -3q-3 1 -20 5.5t-52.5 10 t-69.5 5.5q-48 0 -78.5 -16t-36.5 -63l-8 -59q-6 -42 17.5 -62t87.5 -27q106 -11 143 -46t26 -117l-10 -74q-6 -42 -23.5 -72t-39 -46.5t-53 -25.5t-57 -11.5t-58.5 -2.5zM395 899h61q3 0 0 -4l-104 -137q-2 -4 -6 -4h-56q-3 0 -5 4q-6 15 -33 67.5t-33 70.5q-1 3 2 3h61 q1 0 4 -4l39 -82h4q57 79 59 82q3 4 7 4z" />
<glyph unicode="&#x161;" horiz-adv-x="408" d="M169 -7q-94 0 -154 20q-2 1 -1 5l25 58q1 2 4 2l8 -2q8 -1 21 -3.5t29 -5t37 -4t41 -1.5q28 0 43.5 2.5t29.5 16t18 39.5l4 28q3 23 -15 38t-72 23q-70 11 -100.5 37.5t-23.5 80.5l6 44q15 116 167 116q24 0 46.5 -2t38 -5.5t27 -6.5t18.5 -5l6 -2q1 0 1 -3 q-1 -2 -12 -29t-11 -28q-2 -2 -3 -2q-2 1 -18.5 4.5t-46.5 7.5t-56 4q-73 0 -80 -54l-4 -30q-3 -24 15 -36.5t67 -19.5q71 -10 104 -37.5t26 -81.5l-6 -43q-6 -42 -22 -68.5t-43 -38t-51.5 -15t-62.5 -3.5zM322 699h61q4 0 1 -4l-104 -137q-2 -4 -6 -4h-56q-4 0 -6 4 q-6 15 -32.5 67.5t-32.5 70.5q-1 3 1 3h61q2 0 5 -4l38 -82h4q58 79 60 82q3 4 6 4z" />
<glyph unicode="&#x164;" horiz-adv-x="450" d="M149 0q-2 0 -2 4l84 597h-164q-3 0 -3 4l10 71q0 4 4 4h412q3 0 2 -4l-10 -71q0 -4 -3 -4h-163l-84 -597q0 -4 -5 -4h-78zM371 899h61q3 0 0 -4l-104 -137q-2 -4 -6 -4h-56q-3 0 -5 4q-6 15 -33 67.5t-33 70.5q-1 3 2 3h61q1 0 4 -4l39 -82h4q57 79 59 82q3 4 7 4z" />
<glyph unicode="&#x165;" horiz-adv-x="362" d="M152 -5q-17 0 -27.5 0.5t-24 3.5t-20.5 9t-14 16.5t-9.5 26t-2.5 38t4 51.5l38 273h-44q-3 0 -3 4l9 59q0 4 3 4h44l22 156q0 4 4 4h74q3 0 3 -4l-22 -156h78q4 0 4 -4l-9 -59q0 -4 -4 -4h-78l-39 -274q-6 -32 -0.5 -48t12 -20t17.5 -4q7 0 17.5 0.5t17.5 0.5l8 1 q3 0 3 -3q0 -2 0.5 -30.5t1.5 -29.5q1 -3 -4 -5q-18 -6 -59 -6zM299 510q-2 1 -3 3l23 163q0 4 3 4h65q4 0 4 -4l-15 -108q0 -2 -4 -6z" />
<glyph unicode="&#x168;" horiz-adv-x="532" d="M208 -10q-106 0 -137.5 61.5t-10.5 211.5l58 413q0 4 3 4h79q3 0 3 -4l-57 -406q-18 -104 -4.5 -152t77.5 -48h39q65 0 89 42.5t40 157.5l58 406q0 4 3 4h79q3 0 3 -4l-58 -413q-21 -147 -67.5 -210t-158.5 -63h-38zM228 789q-2 0 -2 5l6 43q2 8 6 12q35 35 65 35 q23 0 51 -19t46 -19q20 0 40 17.5t22 17.5q3 0 3 -4l-6 -44q-2 -8 -6 -13q-29 -36 -66 -36q-23 0 -51 19.5t-45 19.5q-19 0 -40.5 -17t-22.5 -17z" />
<glyph unicode="&#x169;" d="M420 479q4 0 4 -4l-66 -471q0 -4 -5 -4h-74q-3 0 -2 4l2 17q-79 -28 -116 -28q-13 0 -22 0.5t-21.5 2t-21.5 5t-19 9.5t-16.5 14.5t-12.5 21t-8.5 28.5t-2.5 37.5t4 47.5l45 316q0 4 3 4h75q4 0 4 -4l-44 -312q-9 -62 5.5 -80t51.5 -18q15 0 41.5 7t45.5 14l19 7l54 382 q0 4 3 4h74zM163 589q-3 0 -2 5l6 43q2 9 5 12q35 35 65 35q23 0 51.5 -19t46.5 -19q19 0 40 17.5t22 17.5q2 0 2 -4l-6 -44q-2 -8 -6 -13q-29 -36 -66 -36q-23 0 -51 19.5t-44 19.5q-19 0 -40.5 -17t-22.5 -17z" />
<glyph unicode="&#x16a;" horiz-adv-x="532" d="M208 -10q-106 0 -137.5 61.5t-10.5 211.5l58 413q0 4 3 4h79q3 0 3 -4l-57 -406q-18 -104 -4.5 -152t77.5 -48h39q65 0 89 42.5t40 157.5l58 406q0 4 3 4h79q3 0 3 -4l-58 -413q-21 -147 -67.5 -210t-158.5 -63h-38zM456 804h-229q-3 0 -3 4l8 59q1 4 4 4h229q3 0 2 -4 l-8 -59q-1 -4 -3 -4z" />
<glyph unicode="&#x16b;" d="M420 479q4 0 4 -4l-66 -471q0 -4 -5 -4h-74q-3 0 -2 4l2 17q-79 -28 -116 -28q-13 0 -22 0.5t-21.5 2t-21.5 5t-19 9.5t-16.5 14.5t-12.5 21t-8.5 28.5t-2.5 37.5t4 47.5l45 316q0 4 3 4h75q4 0 4 -4l-44 -312q-9 -62 5.5 -80t51.5 -18q15 0 41.5 7t45.5 14l19 7l54 382 q0 4 3 4h74zM390 604h-229q-3 0 -2 4l8 59q1 4 3 4h229q3 0 3 -4l-9 -59q0 -4 -3 -4z" />
<glyph unicode="&#x16c;" horiz-adv-x="532" d="M208 -10q-106 0 -137.5 61.5t-10.5 211.5l58 413q0 4 3 4h79q3 0 3 -4l-57 -406q-18 -104 -4.5 -152t77.5 -48h39q65 0 89 42.5t40 157.5l58 406q0 4 3 4h79q3 0 3 -4l-58 -413q-21 -147 -67.5 -210t-158.5 -63h-38zM336 763q-100 0 -100 96q0 27 7 27h35q5 0 6 -5 q5 -37 17 -48.5t43 -11.5q29 0 45 12.5t29 47.5q2 5 7 5h37q5 0 4 -5q-24 -118 -130 -118z" />
<glyph unicode="&#x16d;" d="M420 479q4 0 4 -4l-66 -471q0 -4 -5 -4h-74q-3 0 -2 4l2 17q-79 -28 -116 -28q-13 0 -22 0.5t-21.5 2t-21.5 5t-19 9.5t-16.5 14.5t-12.5 21t-8.5 28.5t-2.5 37.5t4 47.5l45 316q0 4 3 4h75q4 0 4 -4l-44 -312q-9 -62 5.5 -80t51.5 -18q15 0 41.5 7t45.5 14l19 7l54 382 q0 4 3 4h74zM271 563q-99 0 -99 96q0 27 6 27h35q5 0 6 -5q5 -37 17 -48.5t43 -11.5q30 0 46 12.5t29 47.5q2 5 6 5h37q6 0 5 -5q-24 -118 -131 -118z" />
<glyph unicode="&#x16e;" horiz-adv-x="532" d="M208 -10q-106 0 -137.5 61.5t-10.5 211.5l58 413q0 4 3 4h79q3 0 3 -4l-57 -406q-18 -104 -4.5 -152t77.5 -48h39q65 0 89 42.5t40 157.5l58 406q0 4 3 4h79q3 0 3 -4l-58 -413q-21 -147 -67.5 -210t-158.5 -63h-38zM332 738q-37 0 -57 16t-13 66l3 22q11 80 94 80 q16 0 27.5 -2.5t23.5 -9.5t17 -24.5t1 -43.5l-3 -22q-4 -27 -13 -44.5t-23.5 -25t-27 -10t-29.5 -2.5zM338 778q20 0 32 9t16 37l2 13q4 26 -5 35.5t-29 9.5q-45 0 -52 -45l-2 -13q-4 -27 6.5 -36.5t31.5 -9.5z" />
<glyph unicode="&#x16f;" d="M420 479q4 0 4 -4l-66 -471q0 -4 -5 -4h-74q-3 0 -2 4l2 17q-79 -28 -116 -28q-13 0 -22 0.5t-21.5 2t-21.5 5t-19 9.5t-16.5 14.5t-12.5 21t-8.5 28.5t-2.5 37.5t4 47.5l45 316q0 4 3 4h75q4 0 4 -4l-44 -312q-9 -62 5.5 -80t51.5 -18q15 0 41.5 7t45.5 14l19 7l54 382 q0 4 3 4h74zM268 538q-37 0 -57.5 16t-13.5 66l3 22q11 80 94 80q16 0 27.5 -2.5t23.5 -9.5t17 -24.5t1 -43.5l-3 -22q-4 -27 -13 -44.5t-23 -25t-26.5 -10t-29.5 -2.5zM273 578q20 0 32.5 9t16.5 37l2 13q4 26 -5 35.5t-30 9.5q-44 0 -51 -45l-2 -13q-4 -27 6 -36.5 t31 -9.5z" />
<glyph unicode="&#x170;" horiz-adv-x="532" d="M208 -10q-106 0 -137.5 61.5t-10.5 211.5l58 413q0 4 3 4h79q3 0 3 -4l-57 -406q-18 -104 -4.5 -152t77.5 -48h39q65 0 89 42.5t40 157.5l58 406q0 4 3 4h79q3 0 3 -4l-58 -413q-21 -147 -67.5 -210t-158.5 -63h-38zM417 759q-1 -4 -5 -4h-58q-4 0 -1 4q1 2 40.5 68.5 t40.5 68.5q3 4 6 4h73q4 0 1 -4zM295 759q-1 -4 -6 -4h-58q-2 0 -1 4q2 1 41.5 67.5t40.5 69.5q1 4 5 4h73q4 0 1 -4q0 -1 -47.5 -68t-48.5 -69z" />
<glyph unicode="&#x171;" d="M420 479q4 0 4 -4l-66 -471q0 -4 -5 -4h-74q-3 0 -2 4l2 17q-79 -28 -116 -28q-13 0 -22 0.5t-21.5 2t-21.5 5t-19 9.5t-16.5 14.5t-12.5 21t-8.5 28.5t-2.5 37.5t4 47.5l45 316q0 4 3 4h75q4 0 4 -4l-44 -312q-9 -62 5.5 -80t51.5 -18q15 0 41.5 7t45.5 14l19 7l54 382 q0 4 3 4h74zM352 559q-3 -4 -6 -4h-58q-3 0 0 4q1 2 40.5 68.5t40.5 68.5q3 4 5 4h73q4 0 1 -4zM230 559q-1 -4 -7 -4h-58q-3 0 0 4q1 1 40.5 68t40.5 69q1 4 5 4h73q5 0 2 -4q0 -1 -47.5 -68t-48.5 -69z" />
<glyph unicode="&#x172;" horiz-adv-x="532" d="M187 -183q-30 0 -46.5 11.5t-16.5 45.5q0 63 66 117q-94 4 -122 66.5t-8 205.5l58 413q0 4 4 4h79q2 0 2 -4l-57 -406q-18 -104 -4 -152t78 -48h39q65 0 89 42.5t40 157.5l57 406q0 4 4 4h79q3 0 2 -4l-58 -413q-19 -140 -62 -203t-143 -69q-42 -32 -59.5 -52.5 t-17.5 -41.5q0 -17 18 -17q4 0 9.5 2t10.5 4l6 3q4 3 5 -1l15 -37q2 -5 -2 -9q-31 -25 -65 -25z" />
<glyph unicode="&#x173;" d="M265 -178q-30 0 -46 11.5t-16 45.5q0 67 73 123l1 2l2 17q-79 -28 -116 -28q-13 0 -22 0.5t-21.5 2t-21.5 5t-19 9.5t-16.5 14.5t-12.5 21t-8.5 28.5t-2.5 37.5t4 47.5l45 316q0 4 3 4h75q4 0 4 -4l-44 -312q-9 -62 5.5 -80t51.5 -18q15 0 41.5 7t45.5 14l19 7l54 382 q0 4 3 4h74q4 0 4 -4l-66 -471q0 -4 -5 -4h-1q-46 -35 -65 -55.5t-19 -42.5q0 -17 19 -17q4 0 9.5 2t10 4.5t5.5 2.5q5 3 6 -1l15 -37q1 -4 -3 -9q-31 -25 -65 -25z" />
<glyph unicode="&#x174;" horiz-adv-x="710" d="M104 0q-4 0 -4 4l-19 672q0 4 4 4h82q3 0 4 -4l8 -535h15q160 393 161 395q2 3 4 3h68q4 0 5 -3l48 -395h16q159 532 160 535q2 4 5 4h82q3 0 2 -4l-208 -672q-1 -4 -4 -4h-105q-2 0 -3 3l-47 383h-10q-153 -378 -155 -382t-5 -4h-104zM367 755h-58q-3 0 -1 4 q10 17 47 68.5t47 68.5q2 4 6 4h70q5 0 6 -4q1 -2 28 -68.5t28 -68.5q1 -4 -2 -4h-58q-4 0 -5 4l-38 83h-4q-59 -80 -61 -83q-3 -4 -5 -4z" />
<glyph unicode="&#x175;" horiz-adv-x="622" d="M110 0q-3 0 -3 4l-39 471q0 4 3 4h77q4 0 4 -4l21 -345h8q115 251 116 254q2 4 4 4h58q3 0 3 -4l46 -254h8q112 342 114 345q2 4 6 4h78q1 0 0 -4q-1 -3 -85 -236.5t-85 -234.5q-3 -4 -5 -4h-72q-2 0 -3 4l-46 271h-8q-123 -269 -124 -271q-3 -4 -4 -4h-72zM296 555h-58 q-2 0 0 4q10 17 46.5 68.5t46.5 68.5q2 4 7 4h70q5 0 6 -4t28 -70t28 -67q0 -4 -3 -4h-58q-4 0 -4 4l-39 83h-4q-58 -80 -60 -83q-3 -4 -6 -4z" />
<glyph unicode="&#x176;" d="M152 0q-3 0 -3 4l38 268q-117 401 -118 404q-2 4 2 4h86q1 0 4 -4l80 -303h5q164 300 166 303q3 4 4 4h84q5 0 2 -4l-230 -404l-38 -268q0 -4 -4 -4h-78zM240 755h-58q-3 0 -1 4q10 17 47 68.5t47 68.5q2 4 6 4h70q5 0 6 -4q1 -2 28 -68.5t28 -68.5q1 -4 -2 -4h-58 q-4 0 -5 4l-38 83h-4q-58 -80 -60 -83q-3 -4 -6 -4z" />
<glyph unicode="&#x177;" horiz-adv-x="408" d="M-5 -180q-3 0 -3 3q0 2 8 33t8 32q0 4 6 4h21q13 0 22 4t24 22t30 53l18 44q-79 457 -80 460q-1 4 2 4h78q5 0 5 -4l51 -342h8q142 339 143 342q1 4 5 4h77q3 0 2 -4q0 -1 -56.5 -123.5t-117.5 -254.5t-67 -145q-22 -48 -39.5 -75.5t-36.5 -39.5t-32.5 -14.5t-39.5 -2.5 h-36zM191 555h-58q-3 0 -1 4q10 17 47 68.5t47 68.5q2 4 6 4h70q6 0 7 -4q1 -2 27.5 -68.5t27.5 -68.5q1 -4 -2 -4h-58q-4 0 -5 4l-38 83h-4q-58 -80 -60 -83q-3 -4 -6 -4z" />
<glyph unicode="&#x178;" d="M152 0q-3 0 -3 4l38 268q-117 401 -118 404q-2 4 2 4h86q1 0 4 -4l80 -303h5q164 300 166 303q3 4 4 4h84q5 0 2 -4l-230 -404l-38 -268q0 -4 -4 -4h-78zM188 791q-3 0 -2 4l11 81q1 4 3 4h65q3 0 3 -4l-12 -81q0 -4 -3 -4h-65zM355 791q-3 0 -2 4l11 81q1 4 3 4h64 q3 0 3 -4l-12 -81q0 -4 -3 -4h-64z" />
<glyph unicode="&#x179;" d="M4 0q-2 0 -2 2l11 77q0 5 3 6l346 507l1 9h-264q-2 0 -2 4l10 70q0 5 4 5h360q4 0 3 -5l-10 -73q-1 -6 -5 -11l-346 -504l-1 -9h274q4 0 3 -4l-9 -70q-1 -4 -5 -4h-371zM311 759q-6 -4 -7 -4h-58q-3 0 -1 4l81 137q3 4 6 4h73q5 0 2 -4z" />
<glyph unicode="&#x17a;" horiz-adv-x="397" d="M10 0q-3 0 -3 4l9 63l4 8l253 325l1 7h-198q-4 0 -3 4l9 64q0 4 4 4h295q3 0 3 -4l-9 -63q0 -2 -3 -7l-253 -326l-1 -8h208q3 0 2 -4l-9 -63q0 -4 -3 -4h-306zM253 559q-4 -4 -6 -4h-58q-3 0 -1 4l81 137q3 4 6 4h73q4 0 1 -4z" />
<glyph unicode="&#x17b;" d="M4 0q-2 0 -2 2l11 77q0 5 3 6l346 507l1 9h-264q-2 0 -2 4l10 70q0 5 4 5h360q4 0 3 -5l-10 -73q-1 -6 -5 -11l-346 -504l-1 -9h274q4 0 3 -4l-9 -70q-1 -4 -5 -4h-371zM272 788q-4 0 -4 4l12 84q0 4 5 4h76q2 0 2 -4l-12 -84q0 -4 -3 -4h-76z" />
<glyph unicode="&#x17c;" horiz-adv-x="397" d="M10 0q-3 0 -3 4l9 63l4 8l253 325l1 7h-198q-4 0 -3 4l9 64q0 4 4 4h295q3 0 3 -4l-9 -63q0 -2 -3 -7l-253 -326l-1 -8h208q3 0 2 -4l-9 -63q0 -4 -3 -4h-306zM211 588q-3 0 -3 4l12 84q0 4 4 4h76q3 0 3 -4l-12 -84q0 -4 -4 -4h-76z" />
<glyph unicode="&#x17d;" d="M4 0q-2 0 -2 2l11 77q0 5 3 6l346 507l1 9h-264q-2 0 -2 4l10 70q0 5 4 5h360q4 0 3 -5l-10 -73q-1 -6 -5 -11l-346 -504l-1 -9h274q4 0 3 -4l-9 -70q-1 -4 -5 -4h-371zM373 899h61q4 0 1 -4l-104 -137q-2 -4 -6 -4h-56q-3 0 -5 4q-6 15 -33 67.5t-33 70.5q-2 3 1 3h61 q2 0 5 -4l38 -82h4q58 79 60 82q3 4 6 4z" />
<glyph unicode="&#x17e;" horiz-adv-x="397" d="M10 0q-3 0 -3 4l9 63l4 8l253 325l1 7h-198q-4 0 -3 4l9 64q0 4 4 4h295q3 0 3 -4l-9 -63q0 -2 -3 -7l-253 -326l-1 -8h208q3 0 2 -4l-9 -63q0 -4 -3 -4h-306zM316 699h61q4 0 0 -4l-104 -137q-2 -4 -5 -4h-56q-4 0 -6 4q-6 15 -32.5 67.5t-32.5 70.5q-1 3 1 3h61 q2 0 5 -4l38 -82h4q58 79 60 82q3 4 6 4z" />
<glyph unicode="&#x192;" horiz-adv-x="417" d="M66 -185q-11 0 -25.5 1.5t-24.5 3.5t-11 2q-2 0 -2 3q0 2 8.5 30.5t8.5 29.5q0 3 6 3h8q9 -1 20.5 -1.5t18.5 -0.5q38 0 48 71l54 387h-59q-2 0 -2 4l8 58q0 4 3 4h60l18 131q12 87 48.5 115.5t89.5 28.5q7 0 21.5 -1.5t26.5 -3.5l12 -2q1 0 1 -3q0 -2 -8 -31l-8 -30 q0 -3 -6 -3q-1 0 -9 0.5t-18.5 1.5t-18.5 1q-39 0 -49 -72l-19 -132h66q4 0 4 -4l-8 -58q0 -4 -5 -4h-66l-54 -386q-12 -85 -48 -114t-89 -29z" />
<glyph unicode="&#x218;" horiz-adv-x="498" d="M208 -10q-114 0 -184 35q-3 1 -1 5l30 66q2 3 4 2q5 -3 23 -8.5t59.5 -13.5t82.5 -8q37 0 60 4.5t44 25t27 59.5l9 60q6 42 -20.5 61.5t-88.5 25.5q-107 11 -142 47t-24 117l10 73q20 149 211 149q107 0 165 -29q3 -2 1 -6l-29 -61q-2 -3 -5 -3q-3 1 -20 5.5t-52.5 10 t-69.5 5.5q-48 0 -78.5 -16t-36.5 -63l-8 -59q-6 -42 17.5 -62t87.5 -27q106 -11 143 -46t26 -117l-10 -74q-6 -42 -23.5 -72t-39 -46.5t-53 -25.5t-57 -11.5t-58.5 -2.5zM151 -253q-1 -2 -2 0t-1 3l23 163q0 4 4 4h65q3 0 3 -4l-15 -108q0 -2 -4 -6z" />
<glyph unicode="&#x219;" horiz-adv-x="408" d="M169 -7q-94 0 -154 20q-2 1 -1 5l25 58q1 2 4 2l8 -2q8 -1 21 -3.5t29 -5t37 -4t41 -1.5q28 0 43.5 2.5t29.5 16t18 39.5l4 28q3 23 -15 38t-72 23q-70 11 -100.5 37.5t-23.5 80.5l6 44q15 116 167 116q24 0 46.5 -2t38 -5.5t27 -6.5t18.5 -5l6 -2q1 0 1 -3 q-1 -2 -12 -29t-11 -28q-2 -2 -3 -2q-2 1 -18.5 4.5t-46.5 7.5t-56 4q-73 0 -80 -54l-4 -30q-3 -24 15 -36.5t67 -19.5q71 -10 104 -37.5t26 -81.5l-6 -43q-6 -42 -22 -68.5t-43 -38t-51.5 -15t-62.5 -3.5zM109 -253q-2 1 -3 3l23 163q0 4 3 4h65q4 0 4 -4l-15 -108 q0 -2 -4 -6z" />
<glyph unicode="&#x21a;" horiz-adv-x="450" d="M149 0q-2 0 -2 4l84 597h-164q-3 0 -3 4l10 71q0 4 4 4h412q3 0 2 -4l-10 -71q0 -4 -3 -4h-163l-84 -597q0 -4 -5 -4h-78zM119 -253q-1 -2 -2 0l-1 3l23 163q0 4 4 4h65q3 0 3 -4l-15 -108q0 -2 -4 -6z" />
<glyph unicode="&#x21b;" horiz-adv-x="274" d="M152 -5q-17 0 -27.5 0.5t-24 3.5t-20.5 9t-14 16.5t-9.5 26t-2.5 38t4 51.5l38 273h-44q-3 0 -3 4l9 59q0 4 3 4h44l22 156q0 4 4 4h74q3 0 3 -4l-22 -156h78q4 0 4 -4l-9 -59q0 -4 -4 -4h-78l-39 -274q-6 -32 -0.5 -48t12 -20t17.5 -4q7 0 17.5 0.5t17.5 0.5l8 1 q3 0 3 -3q0 -2 0.5 -30.5t1.5 -29.5q1 -3 -4 -5q-18 -6 -59 -6zM47 -253q-2 -2 -3 0v3l23 163q0 4 3 4h65q4 0 4 -4l-16 -108q0 -3 -3 -6z" />
<glyph unicode="&#x2c6;" horiz-adv-x="377" d="M170 555h-58q-2 0 0 4q10 17 46.5 68.5t46.5 68.5q2 4 6 4h70q6 0 7 -4q1 -2 27.5 -68.5t27.5 -68.5q1 -4 -2 -4h-58q-4 0 -5 4l-38 83h-4q-58 -80 -60 -83q-3 -4 -6 -4z" />
<glyph unicode="&#x2c7;" horiz-adv-x="378" d="M303 699h61q4 0 0 -4l-104 -137q-2 -4 -5 -4h-56q-4 0 -6 4q-6 15 -32.5 67.5t-32.5 70.5q-2 3 1 3h61q2 0 5 -4l38 -82h4q58 79 60 82q3 4 6 4z" />
<glyph unicode="&#x2d8;" horiz-adv-x="377" d="M228 563q-99 0 -99 96q0 27 7 27h35q4 0 5 -5q5 -37 17.5 -48.5t43.5 -11.5q29 0 45 12.5t29 47.5q2 5 7 5h37q5 0 4 -5q-24 -118 -131 -118z" />
<glyph unicode="&#x2d9;" horiz-adv-x="377" d="M193 588q-4 0 -4 4l12 84q0 4 5 4h76q2 0 2 -4l-12 -84q0 -4 -3 -4h-76z" />
<glyph unicode="&#x2da;" horiz-adv-x="377" d="M228 578q20 0 32.5 9t16.5 37l2 13q4 26 -5.5 35.5t-29.5 9.5q-44 0 -51 -45l-2 -13q-4 -27 6 -36.5t31 -9.5zM223 538q-37 0 -57.5 16t-13.5 66l3 22q11 80 95 80q16 0 27.5 -2.5t23.5 -9.5t16.5 -24.5t0.5 -43.5l-3 -22q-4 -27 -13 -44.5t-23 -25t-26.5 -10t-29.5 -2.5 z" />
<glyph unicode="&#x2db;" horiz-adv-x="377" d="M123 -177q-29 0 -45.5 11.5t-16.5 45.5q0 68 78 126q5 4 13 4h58q2 0 3 -1.5t0 -3.5t-3 -4q-45 -34 -64 -55t-19 -43q0 -17 18 -17q4 0 9.5 2t10 4.5t5.5 2.5q5 3 6 -1l15 -37q2 -5 -2 -9q-31 -25 -66 -25z" />
<glyph unicode="&#x2dc;" horiz-adv-x="377" d="M120 589q-3 0 -2 5l6 43q2 9 5 12q35 35 65 35q23 0 51.5 -19t46.5 -19q20 0 40.5 17.5t21.5 17.5q2 0 2 -4l-6 -44q-2 -8 -6 -13q-29 -36 -66 -36q-22 0 -50 19.5t-45 19.5q-19 0 -40.5 -17t-22.5 -17z" />
<glyph unicode="&#x2dd;" horiz-adv-x="378" d="M285 559q-3 -4 -6 -4h-58q-3 0 0 4q1 2 40.5 68.5t40.5 68.5q3 4 5 4h73q4 0 1 -4zM163 559q-1 -4 -7 -4h-58q-3 0 0 4q1 1 40.5 68t40.5 69q1 4 5 4h73q5 0 2 -4q0 -1 -47.5 -68t-48.5 -69z" />
<glyph unicode="&#x1e80;" horiz-adv-x="710" d="M104 0q-4 0 -4 4l-19 672q0 4 4 4h82q3 0 4 -4l8 -535h15q160 393 161 395q2 3 4 3h68q4 0 5 -3l48 -395h16q159 532 160 535q2 4 5 4h82q3 0 2 -4l-208 -672q-1 -4 -4 -4h-105q-2 0 -3 3l-47 383h-10q-153 -378 -155 -382t-5 -4h-104zM422 759l-58 137q-1 4 2 4h73 q4 0 4 -4q1 -1 7.5 -22t14 -46t14.5 -46.5t7 -22.5q2 -4 -2 -4h-57q-5 0 -5 4z" />
<glyph unicode="&#x1e81;" horiz-adv-x="622" d="M110 0q-3 0 -3 4l-39 471q0 4 3 4h77q4 0 4 -4l21 -345h8q115 251 116 254q2 4 4 4h58q3 0 3 -4l46 -254h8q112 342 114 345q2 4 6 4h78q1 0 0 -4q-1 -3 -85 -236.5t-85 -234.5q-3 -4 -5 -4h-72q-2 0 -3 4l-46 271h-8q-123 -269 -124 -271q-3 -4 -4 -4h-72zM348 559 l-58 137q-1 4 2 4h73q3 0 4 -4q1 -1 7.5 -22t14 -46t14.5 -46.5t7 -22.5q2 -4 -3 -4h-57q-4 0 -4 4z" />
<glyph unicode="&#x1e82;" horiz-adv-x="710" d="M104 0q-4 0 -4 4l-19 672q0 4 4 4h82q3 0 4 -4l8 -535h15q160 393 161 395q2 3 4 3h68q4 0 5 -3l48 -395h16q159 532 160 535q2 4 5 4h82q3 0 2 -4l-208 -672q-1 -4 -4 -4h-105q-2 0 -3 3l-47 383h-10q-153 -378 -155 -382t-5 -4h-104zM430 759q-6 -4 -7 -4h-58 q-3 0 -1 4l81 137q3 4 6 4h73q4 0 1 -4z" />
<glyph unicode="&#x1e83;" horiz-adv-x="622" d="M110 0q-3 0 -3 4l-39 471q0 4 3 4h77q4 0 4 -4l21 -345h8q115 251 116 254q2 4 4 4h58q3 0 3 -4l46 -254h8q112 342 114 345q2 4 6 4h78q1 0 0 -4q-1 -3 -85 -236.5t-85 -234.5q-3 -4 -5 -4h-72q-2 0 -3 4l-46 271h-8q-123 -269 -124 -271q-3 -4 -4 -4h-72zM363 559 q-4 -4 -7 -4h-58q-2 0 0 4l80 137q3 4 7 4h73q4 0 1 -4z" />
<glyph unicode="&#x1e84;" horiz-adv-x="710" d="M104 0q-4 0 -4 4l-19 672q0 4 4 4h82q3 0 4 -4l8 -535h15q160 393 161 395q2 3 4 3h68q4 0 5 -3l48 -395h16q159 532 160 535q2 4 5 4h82q3 0 2 -4l-208 -672q-1 -4 -4 -4h-105q-2 0 -3 3l-47 383h-10q-153 -378 -155 -382t-5 -4h-104zM313 791q-3 0 -3 4l12 81q0 4 3 4 h65q3 0 3 -4l-12 -81q0 -4 -3 -4h-65zM480 791q-3 0 -3 4l12 81q0 4 3 4h64q3 0 3 -4l-12 -81q0 -4 -3 -4h-64z" />
<glyph unicode="&#x1e85;" horiz-adv-x="622" d="M110 0q-3 0 -3 4l-39 471q0 4 3 4h77q4 0 4 -4l21 -345h8q115 251 116 254q2 4 4 4h58q3 0 3 -4l46 -254h8q112 342 114 345q2 4 6 4h78q1 0 0 -4q-1 -3 -85 -236.5t-85 -234.5q-3 -4 -5 -4h-72q-2 0 -3 4l-46 271h-8q-123 -269 -124 -271q-3 -4 -4 -4h-72zM241 591 q-3 0 -2 4l11 81q1 4 4 4h65q3 0 2 -4l-11 -81q-1 -4 -4 -4h-65zM408 591q-3 0 -2 4l11 81q1 4 4 4h64q3 0 2 -4l-11 -81q-1 -4 -4 -4h-64z" />
<glyph unicode="&#x1e9e;" horiz-adv-x="514" d="M26 0q-3 0 -3 4l67 474q9 63 29.5 104.5t52 62t63.5 28t74 7.5h179q4 0 4 -4l-11 -76q0 -2 -3 -8l-120 -194q107 -28 89 -163l-9 -64q-6 -46 -23 -79t-37.5 -50.5t-52 -27t-57 -12t-62.5 -2.5q-3 0 -3 4l10 67q0 4 3 4q29 0 47.5 2.5t40.5 12t35 31t18 56.5l7 54 q14 104 -93 104q-3 0 -2 4l9 68l123 200h-102q-49 0 -82 -27.5t-43 -101.5l-67 -474q0 -4 -3 -4h-78z" />
<glyph unicode="&#x2000;" horiz-adv-x="461" />
<glyph unicode="&#x2001;" horiz-adv-x="922" />
<glyph unicode="&#x2002;" horiz-adv-x="461" />
<glyph unicode="&#x2003;" horiz-adv-x="922" />
<glyph unicode="&#x2004;" horiz-adv-x="307" />
<glyph unicode="&#x2005;" horiz-adv-x="230" />
<glyph unicode="&#x2006;" horiz-adv-x="153" />
<glyph unicode="&#x2007;" horiz-adv-x="153" />
<glyph unicode="&#x2008;" horiz-adv-x="115" />
<glyph unicode="&#x2009;" horiz-adv-x="184" />
<glyph unicode="&#x200a;" horiz-adv-x="51" />
<glyph unicode="&#x2010;" horiz-adv-x="325" d="M38 239q-3 0 -3 4l9 64q0 4 4 4h237q2 0 2 -4l-9 -64q0 -4 -3 -4h-237z" />
<glyph unicode="&#x2011;" horiz-adv-x="325" d="M38 239q-3 0 -3 4l9 64q0 4 4 4h237q2 0 2 -4l-9 -64q0 -4 -3 -4h-237z" />
<glyph unicode="&#x2012;" horiz-adv-x="325" d="M38 239q-3 0 -3 4l9 64q0 4 4 4h237q2 0 2 -4l-9 -64q0 -4 -3 -4h-237z" />
<glyph unicode="&#x2013;" horiz-adv-x="387" d="M27 239q-3 0 -3 4l9 64q0 4 4 4h320q3 0 3 -4l-9 -64q0 -4 -4 -4h-320z" />
<glyph unicode="&#x2014;" horiz-adv-x="490" d="M13 239q-3 0 -3 4l9 64q0 4 4 4h452q3 0 3 -4l-9 -64q0 -4 -4 -4h-452z" />
<glyph unicode="&#x2018;" horiz-adv-x="189" d="M181 684q5 5 5 -3l-23 -163q0 -4 -5 -4h-65q-2 0 -2 4l15 108q0 3 4 6z" />
<glyph unicode="&#x2019;" horiz-adv-x="189" d="M93 510q-2 1 -3 3l23 163q0 4 4 4h65q3 0 3 -4l-15 -108q0 -2 -4 -6z" />
<glyph unicode="&#x201a;" horiz-adv-x="189" d="M15 -58q-4 -4 -4 3l23 163q0 4 4 4h65q3 0 3 -4l-15 -108q0 -2 -4 -5z" />
<glyph unicode="&#x201c;" horiz-adv-x="322" d="M315 684q5 5 5 -3l-23 -163q0 -4 -4 -4h-66q-2 0 -2 4l15 108q0 3 4 6zM181 684q5 5 5 -3l-23 -163q0 -4 -5 -4h-65q-2 0 -2 4l15 108q0 3 4 6z" />
<glyph unicode="&#x201d;" horiz-adv-x="322" d="M227 510q-2 1 -3 3l23 163q0 4 4 4h66q2 0 2 -4l-15 -108q0 -2 -4 -6zM93 510q-2 1 -3 3l23 163q0 4 4 4h65q3 0 3 -4l-15 -108q0 -2 -4 -6z" />
<glyph unicode="&#x201e;" horiz-adv-x="322" d="M149 -58q-5 -5 -5 3l23 163q0 4 5 4h65q2 0 2 -4l-15 -108q0 -2 -3 -5q-1 -1 -35.5 -26.5t-36.5 -26.5zM15 -58q-4 -4 -4 3l23 163q0 4 4 4h65q3 0 3 -4l-15 -108q0 -2 -4 -5z" />
<glyph unicode="&#x2020;" horiz-adv-x="414" d="M108 -180q-3 0 -3 4l77 546h-128q-3 0 -3 4l9 63q0 4 4 4h128l33 235q0 4 4 4h69q2 0 2 -4l-33 -235h127q3 0 2 -4l-8 -63q-1 -4 -4 -4h-127l-77 -546q0 -4 -3 -4h-69z" />
<glyph unicode="&#x2021;" horiz-adv-x="415" d="M108 -180q-3 0 -3 4l29 208h-128q-3 0 -3 4l9 64q0 4 4 4h129l41 292h-129q-3 0 -3 4l9 64q0 4 4 4h129l29 208q0 4 4 4h69q3 0 2 -4l-29 -208h127q2 0 2 -4l-9 -64q0 -4 -3 -4h-127l-41 -292h127q3 0 2 -4l-9 -64q0 -4 -3 -4h-128l-29 -208q-1 -4 -3 -4h-69z" />
<glyph unicode="&#x2022;" horiz-adv-x="335" d="M157 215q-36 0 -56.5 16.5t-13.5 66.5l3 21q12 81 96 81q16 0 27.5 -2.5t23 -10t16 -25t0.5 -43.5l-3 -21q-7 -50 -31.5 -66.5t-61.5 -16.5z" />
<glyph unicode="&#x2026;" horiz-adv-x="587" d="M214 0q-4 0 -4 4l14 94q0 4 4 4h80q3 0 3 -4l-14 -94q0 -4 -3 -4h-80zM399 0q-3 0 -3 4l14 94q0 4 3 4h80q4 0 4 -4l-14 -94q0 -4 -4 -4h-80zM28 0q-3 0 -3 4l14 94q0 4 3 4h80q3 0 3 -4l-14 -94q0 -4 -3 -4h-80z" />
<glyph unicode="&#x202f;" horiz-adv-x="184" />
<glyph unicode="&#x2030;" horiz-adv-x="905" d="M159 -5h-66q-4 0 -1 4q44 85 205 340.5t205 341.5q1 4 6 4h66q3 0 0 -4q-1 -1 -205 -340.5t-205 -341.5q-2 -4 -5 -4zM446 51q24 0 38.5 11t19.5 45l12 84q5 33 -5.5 43.5t-34.5 10.5q-51 0 -59 -54l-12 -84q-5 -33 6.5 -44.5t34.5 -11.5zM439 -5q-46 0 -71.5 21.5 t-16.5 84.5l13 99q14 102 121 102q21 0 35 -3t29 -12.5t20.5 -31.5t1.5 -55l-13 -99q-6 -45 -26.5 -70t-41.5 -30.5t-51 -5.5zM193 435q24 0 38.5 11t19.5 44l12 85q4 32 -6 43t-34 11q-51 0 -59 -54l-12 -85q-5 -33 6.5 -44t34.5 -11zM185 378q-46 0 -71.5 21t-16.5 84 l14 99q14 103 121 103q21 0 35.5 -3t29.5 -13t21 -32t1 -55l-14 -99q-9 -64 -41 -84.5t-79 -20.5zM700 51q24 0 38.5 11t19.5 45l12 84q5 32 -5.5 43t-34.5 11q-25 0 -40 -11t-20 -43l-12 -84q-5 -34 6.5 -45t35.5 -11zM693 -5q-46 0 -72 21.5t-17 84.5l13 99 q14 102 122 102q20 0 34.5 -3t29.5 -12.5t20.5 -31.5t1.5 -55l-13 -99q-9 -64 -40.5 -85t-78.5 -21z" />
<glyph unicode="&#x2039;" horiz-adv-x="280" d="M228 470l36 -43q2 -2 -1 -5l-154 -157q108 -155 110 -157q3 -2 -1 -6l-48 -43q-3 -3 -4 0l-74 101q-73 101 -73 102q0 5 2 6l203 202q2 2 4 0z" />
<glyph unicode="&#x203a;" horiz-adv-x="280" d="M47 58q-2 2 -18.5 22t-17.5 21q-2 3 1 6l153 157q-108 155 -109 157q-2 4 1 6l47 42q3 3 4 0q1 -2 73.5 -101.5t73.5 -100.5q3 -3 -1 -6l-12 -11q-11 -12 -29 -29.5t-39.5 -39.5t-43 -43t-39 -39t-29.5 -29l-11 -12q-2 -2 -4 0z" />
<glyph unicode="&#x2044;" horiz-adv-x="357" d="M21 -4q-2 0 -2 2q0 1 64.5 171t129.5 340.5t65 171.5q1 4 5 4h71q4 0 1 -4q-1 -1 -129.5 -340.5t-128.5 -340.5q-3 -4 -4 -4h-72z" />
<glyph unicode="&#x205f;" horiz-adv-x="230" />
<glyph unicode="&#x2070;" horiz-adv-x="292" d="M149 312q36 0 55 20t28 85l17 117q9 63 -4.5 82.5t-49.5 19.5t-54.5 -19.5t-27.5 -82.5l-17 -117q-10 -65 4 -85t49 -20zM143 267q-12 0 -20.5 0.5t-20 2.5t-18.5 6.5t-15.5 11t-13 17.5t-7.5 26t-2.5 35.5t3.5 46.5l17 126q6 48 19.5 78t34 43t38 17t43.5 4 q12 0 20.5 -0.5t20 -2.5t18.5 -6t15.5 -10.5t13 -17.5t8 -25t3 -34.5t-3.5 -45.5l-17 -126q-5 -41 -16.5 -69.5t-23.5 -43.5t-31 -22.5t-31.5 -9t-33.5 -1.5z" />
<glyph unicode="&#x2074;" horiz-adv-x="270" d="M201 270h-37q-4 0 -2 2l10 74h-134q-2 0 -2 2l6 44q0 2 2 4l14 29q15 29 35 70t40 81.5t35 69.5l14 30q2 2 3 2h44l-1 -2l-135 -279l-1 -5h86l12 82q0 2 2 2h38q3 0 3 -2l-12 -82h37q3 0 3 -3l-6 -41q0 -2 -3 -2h-37l-10 -74q-2 -2 -4 -2z" />
<glyph unicode="&#x2075;" horiz-adv-x="270" d="M129 267q-54 0 -88 17q-2 2 -1 3l12 36q0 2 4 2l6 -1q5 -2 13 -4t17.5 -3.5t21.5 -3t22 -1.5q59 0 66 48l6 38q9 64 -43 64h-90q-3 0 -3 2l30 209q0 5 6 5h169q2 0 2 -2l-6 -39q0 -3 -2 -3h-133l-18 -130h52q18 0 31 -3t28.5 -12t21.5 -31t1 -56l-7 -46q-13 -89 -118 -89 z" />
<glyph unicode="&#x2076;" horiz-adv-x="266" d="M137 309q17 0 28.5 4t23 21.5t16.5 48.5l3 19q6 40 -6.5 55t-39.5 15q-7 0 -22 -3t-26 -7l-12 -3l-14 -100q-3 -26 11 -38t38 -12zM134 267q-104 0 -92 90l32 229q4 29 18 49.5t32.5 29.5t34.5 12.5t32 3.5q15 0 29.5 -2t23.5 -4.5t16 -5t11 -4.5l4 -2q1 0 1 -2t-6 -19 l-7 -17q0 -2 -3 -2l-5 1q-5 2 -12 4t-16 3.5t-20.5 3t-21.5 1.5q-59 0 -66 -52l-11 -82q47 14 68 14q18 0 30 -3t26.5 -12.5t19 -33t-0.5 -60.5l-4 -27q-6 -38 -18.5 -63t-30.5 -34.5t-31.5 -12.5t-32.5 -3z" />
<glyph unicode="&#x2077;" horiz-adv-x="263" d="M107 270h-44q-2 0 -1 2l166 356l1 5h-142q-2 0 -2 2l6 40q0 3 2 3h190q2 0 2 -2l-6 -42q0 -1 -1.5 -2.5t-1.5 -2.5t-82.5 -177.5t-83.5 -179.5q-2 -2 -3 -2z" />
<glyph unicode="&#x2078;" horiz-adv-x="270" d="M138 309q29 0 44.5 13t21.5 51l4 24q11 64 -46 64t-68 -64l-4 -24q-6 -37 6.5 -50.5t41.5 -13.5zM166 505q52 0 61 54l4 23q9 57 -44 57q-54 0 -64 -57l-4 -23q-9 -54 47 -54zM132 266q-47 0 -70.5 21t-15.5 83l4 30q4 28 16.5 48.5t23.5 27.5l10 6v2q-3 2 -8 7t-12 23 t-4 40l4 30q13 97 112 97q41 0 65 -19.5t16 -77.5l-4 -30q-3 -22 -13.5 -39t-19.5 -23l-8 -7v-2q4 -2 9 -7t12.5 -26.5t3.5 -49.5l-4 -30q-9 -64 -39 -84t-78 -20z" />
<glyph unicode="&#x2079;" horiz-adv-x="269" d="M184 639q-17 0 -28.5 -4t-23 -21.5t-16.5 -48.5l-4 -28q-6 -40 6.5 -55t39.5 -15q8 0 23 3.5t27 7.5l11 3l15 108q3 26 -11.5 38t-38.5 12zM188 681q17 0 32 -3t31.5 -11.5t24 -28t3.5 -47.5l-32 -229q-6 -38 -28.5 -61t-44 -28.5t-44.5 -5.5q-25 0 -46 4t-29.5 7.5 t-9.5 4.5q-2 2 -1 4q1 1 7 17.5t6 17.5t3 1l5 -1l12.5 -2.5t17 -3.5t20.5 -3t21 -1q59 0 66 52l11 74q-47 -13 -68 -13q-18 0 -30.5 3t-27 12t-19.5 33t0 60l5 35q5 38 18 63t31.5 34.5t32.5 12.5t33 3z" />
<glyph unicode="&#x2080;" horiz-adv-x="292" d="M111 42q36 0 55 20t28 85l17 117q9 63 -4.5 82.5t-49.5 19.5t-54.5 -19.5t-27.5 -82.5l-17 -117q-10 -65 4 -85t49 -20zM105 -3q-12 0 -20.5 0.5t-20 2.5t-18.5 6.5t-15.5 11t-13 17.5t-7.5 26t-2.5 35.5t3.5 46.5l17 126q6 48 19.5 78t34 43t38 17t43.5 4 q12 0 20.5 -0.5t20 -2.5t18.5 -6t15.5 -10.5t13 -17.5t8 -25t3 -34.5t-3.5 -45.5l-17 -126q-5 -41 -16.5 -69.5t-23.5 -43.5t-31 -22.5t-31.5 -9t-33.5 -1.5z" />
<glyph unicode="&#x2081;" horiz-adv-x="259" d="M127 0h-40q-2 0 -2 2l49 349q-70 -56 -71 -57q-3 -2 -3 1q0 2 -2 20.5t-2 19.5q0 2 2 4l82 68q1 1 4 1h40q2 0 2 -2l-57 -404q0 -2 -2 -2z" />
<glyph unicode="&#x2082;" horiz-adv-x="266" d="M187 0h-191l-2 1l6 44q0 2 2 4q10 11 29 32.5t29 32.5t26.5 29.5t25 29.5t21 26t19 24.5t13.5 20.5t10.5 19.5t4.5 15.5l5 37q4 31 -11 40.5t-41 9.5q-10 0 -21.5 -1.5t-21 -3.5t-17.5 -4t-13 -3l-5 -2q-2 -2 -2 1q0 2 -1.5 18.5t-1.5 17.5q0 3 1 3q38 19 89 19 q45 0 72 -18.5t20 -72.5l-6 -43q-3 -24 -28.5 -63t-51 -69.5t-82.5 -94.5l-1 -5h130q2 0 2 -2l-6 -41q0 -2 -2 -2z" />
<glyph unicode="&#x2083;" horiz-adv-x="269" d="M1 14q-1 1 -1 2t7 19t7 19t3 1l5 -1q5 -2 13 -4t17.5 -3.5t21.5 -3t22 -1.5q62 0 68 49l5 36q4 25 -5 39t-19 17t-21 3h-37q-3 0 -3 2l6 39q0 2 3 2h37q18 0 33.5 13.5t19.5 38.5l6 36q3 22 -6 33.5t-19.5 13.5t-26.5 2q-17 0 -36 -3t-30 -6t-12 -4q-3 -1 -3 1t-1.5 18.5 t-1.5 18.5t1 3t11.5 5t32.5 8t45 4q19 0 33 -2.5t30.5 -10.5t23.5 -27.5t3 -48.5l-6 -41q-3 -20 -11.5 -37t-15.5 -24l-8 -7l-1 -4q3 -2 8 -7t11.5 -25.5t2.5 -47.5l-6 -42q-4 -30 -16.5 -49.5t-31 -27.5t-34 -10.5t-35.5 -2.5q-24 0 -46.5 4t-32.5 9z" />
<glyph unicode="&#x2084;" horiz-adv-x="270" d="M163 0h-37q-4 0 -2 2l10 74h-134q-2 0 -2 2l6 44q0 2 2 4l14 29q15 29 35 70t40 81.5t35 69.5l14 30q2 2 3 2h44l-1 -2l-135 -279l-1 -5h86l12 82q0 2 2 2h38q3 0 3 -2l-12 -82h37q3 0 3 -3l-6 -41q0 -2 -3 -2h-37l-10 -74q-2 -2 -4 -2z" />
<glyph unicode="&#x2085;" horiz-adv-x="270" d="M91 -3q-54 0 -88 17q-2 2 -1 3l12 36q0 2 4 2l6 -1q5 -2 13 -4t17.5 -3.5t21.5 -3t22 -1.5q59 0 66 48l6 38q9 64 -43 64h-90q-3 0 -3 2l30 209q0 5 6 5h169q2 0 2 -2l-6 -39q0 -3 -2 -3h-133l-18 -130h52q18 0 31 -3t28.5 -12t21.5 -31t1 -56l-7 -46q-13 -89 -118 -89z " />
<glyph unicode="&#x2086;" horiz-adv-x="266" d="M99 39q17 0 28.5 4t23 21.5t16.5 48.5l3 19q6 40 -6.5 55t-39.5 15q-7 0 -22 -3t-26 -7l-12 -3l-14 -100q-3 -26 11 -38t38 -12zM96 -3q-104 0 -92 90l32 229q4 29 18 49.5t32.5 29.5t34.5 12.5t32 3.5q15 0 29.5 -2t23.5 -4.5t16 -5t11 -4.5l4 -2q1 0 1 -2t-6 -19 l-7 -17q0 -2 -3 -2l-5 1q-5 2 -12 4t-16 3.5t-20.5 3t-21.5 1.5q-59 0 -66 -52l-11 -82q47 14 68 14q18 0 30 -3t26.5 -12.5t19 -33t-0.5 -60.5l-4 -27q-6 -38 -18.5 -63t-30.5 -34.5t-31.5 -12.5t-32.5 -3z" />
<glyph unicode="&#x2087;" horiz-adv-x="263" d="M69 0h-44q-2 0 -1 2l166 356l1 5h-142q-2 0 -2 2l6 40q0 3 2 3h190q2 0 2 -2l-6 -42q0 -1 -1.5 -2.5t-1.5 -2.5t-82.5 -177.5t-83.5 -179.5q-2 -2 -3 -2z" />
<glyph unicode="&#x2088;" horiz-adv-x="270" d="M100 39q29 0 44.5 13t21.5 51l4 24q11 64 -46 64t-68 -64l-4 -24q-6 -37 6.5 -50.5t41.5 -13.5zM128 235q52 0 61 54l4 23q9 57 -44 57q-54 0 -64 -57l-4 -23q-9 -54 47 -54zM94 -4q-47 0 -70.5 21t-15.5 83l4 30q4 28 16.5 48.5t23.5 27.5l10 6v2q-3 2 -8 7t-12 23 t-4 40l4 30q13 97 112 97q41 0 65 -19.5t16 -77.5l-4 -30q-3 -22 -13.5 -39t-19.5 -23l-8 -7v-2q4 -2 9 -7t12.5 -26.5t3.5 -49.5l-4 -30q-9 -64 -39 -84t-78 -20z" />
<glyph unicode="&#x2089;" horiz-adv-x="269" d="M146 369q-17 0 -28.5 -4t-23 -21.5t-16.5 -48.5l-4 -28q-6 -40 6.5 -55t39.5 -15q8 0 23 3.5t27 7.5l11 3l15 108q3 26 -11.5 38t-38.5 12zM150 411q17 0 32 -3t31.5 -11.5t24 -28t3.5 -47.5l-32 -229q-6 -38 -28.5 -61t-44 -28.5t-44.5 -5.5q-25 0 -46 4t-29.5 7.5 t-9.5 4.5q-2 2 -1 4q1 1 7 17.5t6 17.5t3 1l5 -1l12.5 -2.5t17 -3.5t20.5 -3t21 -1q59 0 66 52l11 74q-47 -13 -68 -13q-18 0 -30.5 3t-27 12t-19.5 33t0 60l5 35q5 38 18 63t31.5 34.5t32.5 12.5t33 3z" />
<glyph unicode="&#x20ac;" horiz-adv-x="485" d="M257 -7q-22 0 -39.5 1.5t-37 6t-34.5 13t-29 21.5t-23 33t-14.5 45.5t-5 60.5t6.5 78h-44q-3 0 -3 4l7 49q0 4 4 4h44l9 67h-44q-2 0 -2 4l7 49q0 4 3 4h44q11 76 33.5 127t57 78t72.5 38t88 11q20 0 39 -1.5t33.5 -4t27 -6t21.5 -6.5t14.5 -5.5t9.5 -4.5l4 -2v-6 l-31 -61q-2 -3 -4 -2q-3 1 -18.5 5.5t-46.5 9.5t-60 5q-66 0 -100.5 -36.5t-52.5 -138.5h147q4 0 4 -4l-7 -49q0 -4 -5 -4h-147l-9 -67h147q4 0 3 -4l-7 -49q0 -4 -4 -4h-147q-4 -57 -2.5 -92t17 -54t35 -25.5t51.5 -6.5q33 0 68.5 6.5t52 12t20.5 7.5q3 1 4 -2l14 -61 q0 -4 -2 -6q-76 -38 -169 -38z" />
<glyph unicode="&#x2122;" horiz-adv-x="692" d="M343 291l55 387q0 2 2 2h66q3 0 3 -1l44 -223h5q104 220 105 222q2 2 3 2h66q1 0 1 -2l-55 -387l-1 -2h-54q-1 0 -1 2l37 265h-7q-85 -182 -85 -183q-3 -3 -4 -3h-42q-2 0 -2 3l-35 183h-7l-37 -265q0 -2 -2 -2h-53q-2 0 -2 2zM134 291l47 333h-87q-1 0 -1 2l8 52l1 2 h231q2 0 2 -2l-8 -52q0 -2 -2 -2h-87l-47 -333q0 -2 -2 -2h-53q-2 0 -2 2z" />
<glyph unicode="&#x2190;" horiz-adv-x="701" d="M190 326h456q4 0 4 -4l-9 -64q0 -4 -5 -4h-456l162 -188q3 -3 -2 -6l-50 -44q-2 -2 -5 0q-1 1 -59.5 68.5t-116.5 135t-59 67.5q-3 3 1 6l311 273q3 3 5 0q1 -2 18.5 -23t19.5 -23q3 -2 0 -5z" />
<glyph unicode="&#x2191;" horiz-adv-x="669" d="M395 460l-64 -456q0 -4 -5 -4h-64q-3 0 -3 4l64 456q-213 -187 -215 -189q-3 -3 -5 0l-39 46q-2 3 0 5q2 1 156 136t155 136q3 3 6 0l233 -272q2 -2 0 -5q-2 -2 -26.5 -23.5t-25.5 -22.5q-2 -3 -5 0z" />
<glyph unicode="&#x2192;" horiz-adv-x="701" d="M513 255h-456q-4 0 -4 4l9 64q0 4 5 4h456l-162 188q-3 3 1 6q1 1 26 22.5t26 22.5q2 2 4 0q1 -1 59.5 -69t116.5 -135.5t59 -67.5q3 -3 0 -6l-312 -272q-3 -2 -5 0l-39 45q-2 2 1 5z" />
<glyph unicode="&#x2193;" horiz-adv-x="669" d="M278 135l64 456q0 4 5 4h64q3 0 3 -4l-64 -456q213 187 215 189q3 3 6 0q2 -2 19 -23.5t18 -22.5q2 -3 -1 -5l-309 -272q-3 -3 -6 0l-234 272q-3 3 1 5l52 46q3 2 5 0z" />
<glyph unicode="&#x2194;" horiz-adv-x="903" d="M284 15l-234 272q-2 4 1 6l311 273q3 3 5 0l38 -45q3 -3 0 -6l-215 -189h534l-162 189q-2 3 1 6l53 45q2 2 5 0q2 -2 117 -137t116 -136q2 -4 -1 -6l-310 -272q-3 -3 -5 0l-39 45q-2 4 0 6l216 189h-535q160 -188 161 -189q3 -3 -1 -6l-50 -45q-3 -3 -6 0z" />
<glyph unicode="&#x2195;" horiz-adv-x="669" d="M85 469q1 1 155 137l155 136q3 3 6 0l233 -273q4 -1 0 -5l-51 -45q-3 -3 -5 0l-163 188l-75 -534q214 186 216 188q2 3 5 0l38 -45q3 -3 -1 -6l-310 -272q-3 -3 -6 0q-1 1 -117 136l-116 136q-2 4 1 6l51 45q3 3 6 0l161 -188l75 534l-214 -188q-3 -3 -6 0l-39 45 q-2 2 1 5z" />
<glyph unicode="&#x2196;" horiz-adv-x="557" d="M484 131q2 -3 -1 -6l-51 -44q-4 -4 -6 0l-277 322l-37 -266q0 -4 -5 -4h-64q-4 0 -4 4l55 384q0 4 4 4h385q4 0 3 -4l-8 -63q-2 -4 -5 -4h-267z" />
<glyph unicode="&#x2197;" horiz-adv-x="556" d="M73 80q-3 -3 -5 0l-38 45q-2 3 1 6l367 323h-266q-4 0 -4 4l9 63q0 4 5 4h384q4 0 3 -4l-54 -385q0 -4 -4 -4h-63q-5 0 -4 4l37 267z" />
<glyph unicode="&#x2198;" horiz-adv-x="557" d="M78 473q-2 3 2 6l50 44q4 4 6 0l278 -322l38 267q0 4 4 4h63q4 0 4 -4l-54 -385q0 -4 -5 -4h-385q-4 0 -3 4l9 64q0 4 4 4h267z" />
<glyph unicode="&#x2199;" horiz-adv-x="556" d="M487 524q5 3 6 0l38 -45q3 -3 -1 -6l-367 -322h267q4 0 3 -4l-9 -64q0 -4 -4 -4h-385q-4 0 -4 4l55 385q0 4 4 4h64q4 0 4 -4l-38 -267z" />
<glyph unicode="&#x2212;" horiz-adv-x="325" d="M38 239q-3 0 -3 4l9 64q0 4 4 4h237q2 0 2 -4l-9 -64q0 -4 -3 -4h-237z" />
<glyph unicode="&#x221a;" horiz-adv-x="877" d="M53 279l56 50q3 3 6 0l176 -205q515 452 517 454t6 0l42 -50q3 -3 -1 -6l-576 -507q-3 -3 -6 0q-1 1 -56 65.5t-109.5 128.5t-55.5 64q0 5 1 6z" />
<glyph unicode="&#x2248;" horiz-adv-x="457" d="M46 182q0 6 6 12q3 4 16 14t36 20.5t42 10.5q30 0 73.5 -29t68.5 -29q18 0 39 11t35.5 22.5t16.5 11.5t2 -4l-6 -44q-2 -7 -6 -12q-5 -6 -16 -15t-34 -20.5t-45 -11.5q-29 0 -72 29.5t-68 29.5q-18 0 -39 -11t-36 -22t-17 -11q-3 0 -2 5zM73 379q2 9 7 13q3 4 15.5 13.5 t35.5 20t42 10.5q30 0 74 -29t69 -29q18 0 39 11.5t35.5 23t16.5 11.5t2 -4l-6 -44q-2 -9 -6 -13q-46 -46 -95 -46q-28 0 -71 29.5t-69 29.5q-24 0 -58 -22l-34 -23q-4 0 -3 6z" />
<glyph unicode="&#x2260;" horiz-adv-x="458" d="M57 31q-4 0 -2 4l60 105h-80q-3 0 -3 4l10 65q0 4 3 4h116l72 127h-170q-3 0 -3 4l10 64q0 4 3 4h206q59 102 61 105q3 4 6 4h53q5 0 2 -4l-61 -105h80q3 0 3 -4l-9 -64q0 -4 -4 -4h-117l-71 -127h170q4 0 2 -4l-9 -65q0 -4 -3 -4h-206q-59 -102 -61 -105q-3 -4 -5 -4 h-53z" />
<glyph unicode="&#x2264;" horiz-adv-x="458" d="M381 137l-325 162q-2 2 -2 5l8 58q0 2 4 4l371 162q2 1 2.5 0.5t-0.5 -3.5l-9 -69q-2 -4 -4 -5l-257 -116l-1 -5q222 -114 225 -115q2 -1 2 -6l-10 -69q0 -5 -4 -3zM15 0q-3 0 -3 4l9 64q0 4 4 4h348q2 0 2 -4l-9 -64q0 -4 -3 -4h-348z" />
<glyph unicode="&#x2265;" horiz-adv-x="458" d="M34 137q-3 -1 -3 3l10 69q0 4 4 6l257 115l1 5q-223 114 -225 116q-2 1 -2 5l10 69q2 3 3 3l324 -162q3 -2 3 -4l-9 -58q0 -4 -3 -5zM363 0h-348q-3 0 -3 4l9 64q0 4 4 4h348q2 0 2 -4l-9 -64q0 -4 -3 -4z" />
<glyph unicode="&#x25b2;" horiz-adv-x="717" d="M696 267l-14 -96l-3 -3l-298 239h-9q-365 -238 -367 -240q-1 -1 -2 1q-1 1 -1 2l14 97q0 2 5 5l91 59q90 59 179 118t91 60q8 6 16 0q274 -220 296 -237q2 -1 2 -5z" />
<glyph unicode="&#x25ba;" horiz-adv-x="520" d="M138 0h-96q-5 0 -2 3l285 332l1 9q-191 331 -193 333q1 2 4 3h97q1 0 4 -4q1 -2 95.5 -164t95.5 -164q5 -8 -2 -16q-164 -188 -284 -329q-1 -3 -5 -3z" />
<glyph unicode="&#x25bc;" horiz-adv-x="717" d="M36 412l14 95q0 4 1 4t2 -1l299 -238h9q364 238 365 239q4 4 4 -3l-14 -96q0 -2 -4 -5l-90 -59q-91 -59 -180.5 -118t-91.5 -60q-9 -5 -15 0l-296 237q-3 1 -3 5z" />
<glyph unicode="&#x25c4;" horiz-adv-x="520" d="M398 680h96q5 0 2 -3l-286 -332l-1 -9q191 -331 193 -333q3 -3 -3 -3h-97q-2 0 -5 4q-1 2 -95 164t-95 164q-5 8 2 16q100 115 283 329q2 3 6 3z" />
<glyph unicode="&#x25fc;" horiz-adv-x="480" d="M0 480h480v-480h-480v480z" />
<glyph horiz-adv-x="460" />
<glyph horiz-adv-x="460" d="M197 69q29 0 47.5 5.5t36.5 22.5t29.5 52.5t19.5 91.5l28 203q9 45 6 75t-7.5 48.5t-18.5 28t-28 12.5t-37 3q-57 0 -87 -31.5t-45 -135.5l-28 -203q-5 -38 -6 -67t4 -47.5t12 -30.5t19.5 -17.5t24.5 -7.5t30 -2zM185 -10q-21 0 -35.5 1t-33.5 4.5t-31.5 10.5t-26.5 18.5 t-21.5 30t-12.5 43t-4.5 59t6.5 76.5l31 220q9 64 27 109.5t38 70t50 38t53.5 16.5t58.5 3q21 0 35 -1t33.5 -4t32 -10t27 -18t22 -28.5t13.5 -41.5t5.5 -58t-6.5 -76l-30 -220q-8 -57 -21 -99.5t-32.5 -68t-38 -42t-45.5 -23t-46 -8.5t-48 -2z" />
<glyph horiz-adv-x="460" d="M259 0h-75q-3 0 -2 4l81 579q-118 -93 -120 -94q-3 -1 -3 1q0 3 -4.5 35.5t-4.5 33.5q0 4 4 7q2 1 70 56t69 56q2 2 6 2h75q2 0 2 -4l-94 -672q-1 -4 -4 -4z" />
<glyph horiz-adv-x="460" d="M350 0h-325q-2 0 -2 2l11 76q0 3 3 6q20 22 61 68.5t60.5 69t51.5 59.5t48 58.5t34.5 47.5t27 44.5t10.5 33.5l9 66q4 27 -2 44t-20 24.5t-27.5 10t-32.5 2.5q-26 0 -59.5 -5t-52.5 -10t-21 -6q-4 -2 -4 2q0 3 -2.5 31.5t-2.5 30.5q0 4 2 5l3 1q3 1 7 3t10 4.5t14 4.5 t17 4.5t20.5 5t24 4t27.5 2.5t30 1q26 0 47 -2.5t44.5 -12t38.5 -25.5t22.5 -44.5t2.5 -67.5l-10 -77q-4 -31 -23 -68.5t-62 -93.5t-74 -93.5t-101 -118.5l-1 -9h207q3 0 2 -4l-10 -70q0 -4 -3 -4z" />
<glyph horiz-adv-x="460" d="M28 17q-1 1 -1 3t11 33t11 32q0 2 5 2q2 -1 21.5 -5.5t53.5 -9t61 -4.5t45 3.5t37.5 22.5t24.5 54l9 64q5 31 -1.5 52.5t-20 30t-25 11.5t-23.5 3h-64q-3 0 -3 4l9 67q0 4 5 4h64q29 0 53.5 21.5t30.5 62.5l9 64q4 27 -2 44.5t-21 25t-27.5 9.5t-30.5 2q-27 0 -60.5 -5 t-52.5 -9.5t-21 -5.5q-4 -2 -4 3q0 3 -2.5 31.5t-2.5 30.5q0 3 3 5q5 3 20 8t53 12t77 7q26 0 45.5 -2t44.5 -10.5t40 -23.5t23 -44.5t2 -69.5l-10 -72q-4 -33 -19 -61.5t-28 -40.5l-13 -11l-1 -7q2 -1 5 -4t11.5 -13.5t12.5 -24.5t8.5 -37.5t-1.5 -52.5l-10 -76 q-7 -49 -27.5 -81.5t-52.5 -46t-58.5 -18t-61.5 -4.5q-42 0 -79.5 7t-54.5 13z" />
<glyph horiz-adv-x="460" d="M314 0h-71q-3 0 -3 4l17 121h-230q-2 0 -2 4l11 76q0 1 1.5 3.5t1.5 3.5l228 464q2 4 5 4h80q3 0 1 -4l-224 -464l-1 -8h140l19 135q0 4 3 4h72q4 0 4 -4l-19 -135h55q4 0 3 -4l-10 -71q0 -4 -4 -4h-55l-17 -121q0 -4 -5 -4z" />
<glyph horiz-adv-x="460" d="M180 -10q-72 0 -150 26q-2 1 0 6l21 62q1 2 5 2l9 -2q9 -2 23 -5t30.5 -5.5t36.5 -4.5t36 -2q96 0 108 80l10 66q16 104 -70 104h-151q-3 0 -2 4l49 351q2 8 8 8h289q3 0 3 -4l-10 -67q0 -4 -3 -4h-221l-30 -214h81q16 0 29 -1t31 -4.5t30 -11t26 -19.5t19 -30t9.5 -43.5 t-2.5 -59.5l-12 -83q-6 -41 -23.5 -70.5t-37.5 -44.5t-49 -23t-47.5 -9.5t-44.5 -1.5z" />
<glyph horiz-adv-x="460" d="M200 63q19 0 33 4t30 15t27.5 37t16.5 65l5 37q9 66 -9.5 90.5t-60.5 24.5q-12 0 -36.5 -5.5t-43.5 -10.5l-18 -6l-24 -169q-6 -42 17.5 -62t62.5 -20zM193 -10q-30 0 -55.5 5.5t-53 20t-40.5 47t-6 79.5l55 389q6 40 23 70t38 46.5t48 26.5t47.5 13t40.5 3q19 0 37 -1.5 t32 -4t26 -5.5t21 -6t14.5 -5.5t9.5 -4.5l4 -2q3 -1 1 -5q0 -2 -12 -31t-12 -30q0 -2 -4 -2q-1 0 -8.5 2t-20.5 4.5t-28 5.5t-34 5t-36 2q-94 0 -106 -85l-20 -139q78 22 112 22q30 0 50.5 -4.5t44.5 -20.5t32.5 -55.5t0.5 -100.5l-7 -50q-7 -51 -24 -88t-35.5 -56 t-45.5 -30t-45.5 -13t-43.5 -2z" />
<glyph horiz-adv-x="460" d="M157 0h-81q-6 0 -3 4l275 589l1 9h-234q-2 0 -2 4l10 69q0 5 3 5h322q3 0 3 -3l-10 -73q0 -1 -1.5 -4t-1.5 -4l-69 -148q-69 -148 -137.5 -295.5t-69.5 -148.5q-1 -4 -5 -4z" />
<glyph horiz-adv-x="460" d="M197 63q45 0 71 21.5t34 83.5l6 44q8 61 -12 82.5t-61 21.5q-93 0 -107 -104l-6 -44q-8 -62 11 -83.5t64 -21.5zM244 393q85 0 97 88l6 44q13 92 -70 92q-89 0 -101 -92l-6 -44q-12 -88 74 -88zM186 -11q-38 0 -64 6t-50.5 23t-33 53t-0.5 91l8 55q7 45 27.5 79t37.5 46 l17 12l1 3q-2 1 -5 4t-11.5 13t-13 22.5t-9 33t0.5 44.5l8 55q24 161 190 161q31 0 55 -5.5t48 -21t33 -49.5t2 -85l-8 -55q-5 -36 -22 -65.5t-31 -40.5l-15 -11l-1 -3q6 -4 15 -12.5t21 -43.5t5 -81l-8 -55q-8 -56 -27 -92.5t-48 -53t-56.5 -22t-65.5 -5.5z" />
<glyph horiz-adv-x="460" d="M276 616q-20 0 -34 -4t-30 -15t-27 -37t-17 -65l-7 -49q-10 -66 9 -91t61 -25q12 0 36.5 6t42.5 12l18 5l25 181q6 42 -16.5 62t-60.5 20zM281 689q30 0 55.5 -5.5t53.5 -20t41 -46.5t6 -79l-54 -386q-7 -50 -30.5 -84.5t-55.5 -50t-58.5 -21t-53.5 -5.5q-94 0 -146 26 q-3 2 -2 6q0 1 6.5 16t12 29.5t5.5 15.5q0 3 4 3q2 -1 20.5 -5t50.5 -8.5t59 -4.5q93 0 105 85l17 125q-77 -22 -111 -22q-12 0 -21.5 0.5t-22 2.5t-22 5.5t-20.5 10t-18 15.5t-14 23t-9.5 31.5t-3 41t3.5 51.5l8 62q7 52 23.5 89t35 55.5t45.5 29.5t46 13t44 2z" />
<glyph horiz-adv-x="460" d="M163 99q-4 0 -4 4l13 89q0 4 5 4h80q2 0 2 -4l-13 -89q0 -4 -3 -4h-80zM217 481q-4 0 -4 4l13 89q0 4 4 4h80q3 0 3 -4l-13 -89q0 -4 -3 -4h-80z" />
<glyph horiz-adv-x="380" d="M66 136q0 5 1 6t26 23.5t27 24.5t5 0l129 -179q3 -3 -2 -6l-51 -47q-4 -4 -5 0z" />
<glyph horiz-adv-x="357" d="M241 431q-4 0 -2 4l43 78q2 4 6 4h51q4 0 1 -4l-43 -78q-3 -4 -5 -4h-51zM5 -37q-3 0 -2 4q1 3 20.5 37.5t21.5 36.5q1 4 6 4h50q3 0 3 -4l-44 -75q-1 -3 -4 -3h-51z" />
<glyph horiz-adv-x="495" d="M364 602q-2 0 -1 4q1 2 32.5 54t34.5 56t6 4h65q4 0 1 -4q-1 -1 -33.5 -54.5t-33.5 -55.5q-3 -4 -6 -4h-65zM2 -40q-3 0 0 4q1 2 30.5 52t30.5 52q3 4 7 4h65q4 0 1 -4q-1 -2 -31.5 -52.5t-31.5 -51.5q-4 -4 -5 -4h-66z" />
<glyph horiz-adv-x="1002" d="M210 -10q-114 0 -184 35q-3 1 -1 5l30 66q2 3 4 2q5 -3 23 -8.5t59.5 -13.5t82.5 -8q37 0 60 4.5t44 25t27 59.5l9 60q6 42 -20.5 61.5t-88.5 25.5q-107 11 -142 47t-24 117l10 73q20 149 211 149q107 0 165 -29q3 -2 1 -6l-29 -61q-2 -3 -5 -3q-3 1 -20 5.5t-52.5 10 t-69.5 5.5q-48 0 -78.5 -16t-36.5 -63l-8 -59q-6 -42 17.5 -62t87.5 -27q106 -11 143 -46t26 -117l-10 -74q-6 -42 -23.5 -72t-39 -46.5t-53 -25.5t-57 -11.5t-58.5 -2.5zM687 -10q-114 0 -184 35q-3 1 -1 5l30 66q2 3 4 2q5 -3 23 -8.5t59.5 -13.5t82.5 -8q37 0 60 4.5 t44 25t27 59.5l9 60q6 42 -20.5 61.5t-88.5 25.5q-107 11 -142 47t-24 117l10 73q20 149 211 149q107 0 165 -29q3 -2 1 -6l-29 -61q-2 -3 -5 -3q-3 1 -20 5.5t-52.5 10t-69.5 5.5q-48 0 -78.5 -16t-36.5 -63l-8 -59q-6 -42 17.5 -62t87.5 -27q106 -11 143 -46t26 -117 l-10 -74q-6 -42 -23.5 -72t-39 -46.5t-53 -25.5t-57 -11.5t-58.5 -2.5z" />
<glyph horiz-adv-x="412" d="M44 0h-75q-3 0 -1 3q1 3 115.5 270t114.5 268q0 3 3 3h83q3 0 3 -2l77 -539q2 -3 -3 -3h-73q-2 0 -3 3l-14 108h-182q-41 -106 -42 -108q-1 -3 -3 -3zM118 176h145l-29 259h-13z" />
<glyph horiz-adv-x="403" d="M95 65h88q22 0 37 3.5t30 19t19 43.5l7 46q11 69 -68 69h-87zM129 308h84q25 0 39 -3q37 60 37 111q0 40 -16 51.5t-47 11.5h-73zM180 0h-170l76 544h160q24 0 41 -3t37.5 -13.5t31.5 -34.5t11 -62q0 -36 -11.5 -67t-39.5 -80q47 -29 36 -106l-7 -49q-5 -36 -17.5 -61 t-27 -38t-37 -20t-39.5 -8.5t-44 -1.5z" />
<glyph horiz-adv-x="374" d="M169 -4q-21 0 -36 1.5t-34 6t-31 13t-25 23t-17.5 35t-8 50t4.5 67.5l23 165q7 51 22.5 87t33.5 56t44.5 31t48.5 14t52 3q39 0 69 -6.5t39.5 -11.5t11.5 -7q2 -1 1 -4l-8 -15q-8 -14 -15 -28l-7 -14q0 -4 -4 -2q-3 1 -14.5 4.5t-36 8t-46.5 4.5q-21 0 -35 -3.5t-32 -15 t-30 -39t-18 -70.5l-21 -150q-11 -79 10 -104.5t69 -25.5q25 0 52 5.5t40 10t17 6.5q1 1 3 -2q1 -1 7.5 -28t6.5 -28q1 -2 -2 -4q-32 -16 -42 -19q-42 -14 -92 -14z" />
<glyph horiz-adv-x="416" d="M96 72h82q48 0 74 24.5t38 104.5l21 145q2 30 3.5 51t-5 35t-12 22t-17.5 12t-21.5 5t-24.5 1h-82zM168 0h-158l76 544h158q15 0 24.5 -0.5t25 -2t25.5 -5t23 -10.5t21 -16.5t16 -24t11 -32.5t3 -43.5t-4 -55.5l-23 -159q-8 -54 -24.5 -92.5t-34 -58t-45 -30t-46.5 -12.5 t-48 -2z" />
<glyph horiz-adv-x="370" d="M10 0l76 544h287q3 0 3 -3l-9 -64q0 -3 -3 -3h-211l-23 -163h179q2 0 2 -3l-9 -64q0 -3 -3 -3h-179l-24 -171h211q2 0 2 -3l-9 -64q0 -3 -3 -3h-287z" />
<glyph horiz-adv-x="366" d="M12 0q-2 1 -2 3l76 541h287q3 0 3 -3l-9 -64q0 -3 -4 -3h-211l-26 -189h179q3 0 3 -3l-9 -63q0 -3 -4 -3h-179l-30 -213q0 -3 -2 -3h-72z" />
<glyph horiz-adv-x="411" d="M165 -4q-19 0 -34 1.5t-33.5 6t-30 13t-24.5 23t-17.5 35t-8 50t4.5 67.5l23 165q7 52 24 89.5t35.5 56.5t46 30t47 13t47.5 2q38 0 73 -6.5t49.5 -12t18.5 -7.5q1 -1 0 -4l-29 -56q-1 -1 -3 -1l-8 1q-7 2 -19 4.5t-26.5 5t-32 4t-32.5 1.5q-21 0 -34.5 -3t-32 -14.5 t-30.5 -39t-18 -71.5l-21 -151q-12 -80 9.5 -105t66.5 -25q11 0 35.5 4t42.5 8l19 3l20 140h-69q-3 0 -3 3l9 60q0 3 3 3h136l-37 -263q-119 -30 -167 -30z" />
<glyph horiz-adv-x="435" d="M12 0q-2 0 -2 3l76 538q0 3 2 3h72q2 0 2 -3l-33 -233h182l33 233q0 3 4 3h70q3 0 3 -3l-76 -538q0 -3 -3 -3h-70q-4 0 -4 3l33 237h-182l-33 -237q0 -3 -2 -3h-72z" />
<glyph horiz-adv-x="176" d="M12 0q-2 0 -2 3l76 538q0 3 2 3h72q2 0 2 -3l-76 -538q0 -3 -2 -3h-72z" />
<glyph horiz-adv-x="328" d="M94 -5q-26 0 -52.5 4.5t-39 8.5t-15.5 5q-2 1 0 4l26 58q1 2 4 2l5 -1q6 -1 14.5 -2.5t18.5 -3t22.5 -2.5t23.5 -1q23 0 37 3.5t28 20.5t19 49l56 401q0 3 3 3h70q3 0 3 -3l-57 -405q-5 -39 -18.5 -66t-28.5 -41.5t-38 -22.5t-40 -9.5t-41 -1.5z" />
<glyph horiz-adv-x="405" d="M12 0q-2 1 -2 3l76 538l2 3h72q2 0 2 -3l-33 -232h24q171 229 173 232t4 3h81q4 0 1 -3l-200 -265q134 -271 135 -273q1 -3 -1 -3h-82q-2 0 -4 3l-112 237h-29l-33 -237q0 -3 -2 -3h-72z" />
<glyph horiz-adv-x="355" d="M10 0l76 541q0 3 2 3h72q2 0 2 -3l-66 -471h211q2 0 2 -3l-8 -63q-2 -4 -4 -4h-287z" />
<glyph horiz-adv-x="522" d="M12 0q-2 1 -2 3l76 539q0 2 2 2h88q4 0 5 -2l69 -321h8q155 318 156 320q2 3 5 3h87q3 0 3 -2l-76 -539q0 -3 -3 -3h-70q-2 0 -2 3l54 382h-11q-130 -267 -131 -269q-2 -3 -4 -3h-56q-5 0 -6 4l-55 267h-10l-54 -381q0 -3 -3 -3h-70z" />
<glyph horiz-adv-x="441" d="M11 0q-2 0 -2 3l76 538l2 3h85q2 0 4 -3l116 -400h8l56 400q0 3 3 3h69q3 0 3 -3l-76 -538q0 -3 -3 -3h-85q-4 0 -4 3l-115 403h-8l-57 -403q0 -3 -3 -3h-69z" />
<glyph horiz-adv-x="410" d="M175 67q47 0 73.5 25t38.5 106l21 151q11 79 -9 103.5t-67 24.5q-46 0 -73 -24.5t-38 -103.5l-21 -151q-2 -31 -3.5 -52.5t4.5 -36t11.5 -23t17.5 -13t21.5 -5.5t23.5 -1zM165 -4q-15 0 -26.5 0.5t-26 2.5t-25 6t-22.5 11t-20 17t-15 25t-9.5 33.5t-2.5 44t4 55.5l23 166 q9 63 29 104t50 58.5t55.5 23t62.5 5.5q15 0 25.5 -0.5t25.5 -2.5t25.5 -5.5t22.5 -10.5t20 -17t15.5 -24.5t10.5 -32.5t3 -43t-4 -55l-24 -166q-8 -54 -24.5 -92.5t-34 -58t-45 -30t-46 -12.5t-47.5 -2z" />
<glyph horiz-adv-x="397" d="M125 280h90q78 0 90 77l6 40q4 26 -0.5 42.5t-16.5 23.5t-23 9t-28 2h-91zM84 0h-72q-2 1 -2 3l76 541h169q23 0 39.5 -1.5t38.5 -9.5t34 -22.5t18.5 -42t1.5 -66.5l-7 -50q-20 -142 -172 -142h-93l-29 -207q0 -3 -2 -3z" />
<glyph horiz-adv-x="408" d="M165 -4q-15 0 -26.5 0.5t-26 2.5t-25 6t-22.5 11t-20 17t-15 25t-9.5 33.5t-2.5 44t4 55.5l23 166q9 63 29 104t50 58.5t55.5 23t62.5 5.5q15 0 25.5 -0.5t25.5 -2.5t25.5 -5.5t22.5 -10.5t20 -17t15.5 -24.5t10.5 -32.5t3 -43t-4 -55l-24 -166q-13 -91 -48 -138 q27 -38 28 -38q3 -2 0 -5l-46 -42q0 -4 -4 0l-31 43q-34 -15 -96 -15zM186 115q-1 3 1 5l45 42q4 4 4 0q0 -1 30 -43q14 29 21 79l21 151q11 79 -9 103.5t-67 24.5q-46 0 -73 -24.5t-38 -103.5l-21 -151q-2 -31 -3.5 -52.5t4.5 -36t11.5 -23t17.5 -13t21.5 -5.5t23.5 -1 q26 0 41 5z" />
<glyph horiz-adv-x="413" d="M125 279h90q78 0 90 78l6 40q4 26 -0.5 42.5t-16.5 23.5t-23.5 9t-27.5 2h-91zM84 0h-72q-2 1 -2 3l76 541h169q29 0 50 -4t45 -17t34 -44.5t3 -80.5l-6 -43q-14 -104 -91 -132l56 -220q2 -3 -3 -3h-78q-3 0 -4 3l-47 206h-99l-29 -206q0 -3 -2 -3z" />
<glyph horiz-adv-x="399" d="M157 -4q-88 0 -150 31q-2 1 -1 4q29 58 30 59q2 2 3 2q52 -26 129 -26q28 0 45.5 3.5t34 19t20.5 43.5l6 42q4 32 -16.5 46t-68.5 19q-85 9 -113.5 38.5t-19.5 94.5l8 56q17 120 171 120q41 0 75 -6.5t46 -11.5t14 -7t2 -3l-29 -58q-1 -3 -3 -2q-3 1 -16 5t-41.5 8.5 t-55.5 4.5q-36 0 -58.5 -12t-27.5 -47l-6 -40q-5 -32 13 -47t68 -20q84 -9 115 -37.5t21 -95.5l-8 -55q-6 -42 -25 -69t-48 -39t-54.5 -16t-59.5 -4z" />
<glyph horiz-adv-x="363" d="M106 0q-2 0 -2 3l66 470h-129q-2 0 -2 3l9 65q0 3 3 3h333q3 0 3 -3l-9 -65q0 -3 -4 -3h-129l-66 -470q0 -3 -3 -3h-70z" />
<glyph horiz-adv-x="424" d="M157 -4q-87 0 -113 49t-9 168l46 328q0 3 2 3h72q2 0 2 -3l-45 -321q-14 -78 -4 -115t59 -37h30q49 0 67.5 32.5t30.5 119.5l45 321q0 3 3 3h70q3 0 3 -3l-46 -328q-16 -116 -54 -166.5t-129 -50.5h-30z" />
<glyph horiz-adv-x="410" d="M121 0q-1 0 -3 3v97q0 361 -57 434q-7 9 -13 10h74q2 0 3 -3l50 -422h11q169 419 170 422q2 3 4 3h73q3 0 2 -3l-226 -538q-1 -3 -4 -3h-84z" />
<glyph horiz-adv-x="574" d="M88 0q-3 0 -3 3q0 7 -17 271.5t-18 266.5q-2 3 1 3h74q1 0 3 -3l20 -415h13q114 310 115 312t4 2h60q2 0 3 -3l26 -311h13q136 413 137 415q2 3 4 3h73q4 0 3 -3q-1 -1 -93 -267t-94 -271q-2 -3 -5 -3h-87q-4 0 -4 3l-21 302h-8q-105 -298 -106 -302q-1 0 -2.5 -1.5 t-2.5 -1.5h-88z" />
<glyph horiz-adv-x="384" d="M-27 0q-3 0 -1 3l178 280q-91 256 -92 258q-2 3 3 3h77q2 0 3 -3l59 -181h4q108 179 110 181q3 3 4 3h78q4 0 2 -3l-164 -258q98 -278 99 -280q1 -3 -2 -3h-78q-3 0 -4 3l-66 204h-4q-123 -202 -124 -204l-1 -1q-1 -2 -2 -2h-79z" />
<glyph horiz-adv-x="370" d="M110 0q-3 0 -3 3l30 213q-92 323 -93 325q-2 3 1 3h77q2 0 3 -3l62 -235h4q125 233 127 235l3 3h75q4 0 2 -3l-185 -325l-30 -213q0 -3 -2 -3h-71z" />
<glyph horiz-adv-x="367" d="M-8 0q-2 0 -2 2l10 68q0 4 2 6l269 390l1 7h-206q-1 0 -1 3l9 64q0 4 2 4h292q3 0 3 -4l-9 -65q-2 -7 -4 -9l-268 -388l-1 -8h213q2 0 2 -3l-9 -64q0 -3 -2 -3h-301z" />
<glyph horiz-adv-x="301" d="M81 469q-2 0 -2 3l10 69l2 3h57q3 0 3 -3l-10 -69q0 -3 -3 -3h-57zM216 469q-3 0 -3 3l10 69q0 3 3 3h55q3 0 3 -3l-10 -69q0 -3 -3 -3h-55z" />
<glyph horiz-adv-x="301" d="M176 446l-47 111q-1 3 1 3h65q1 0 3 -3l34 -111q2 -3 -1 -3h-51q-2 0 -4 3z" />
<glyph horiz-adv-x="301" d="M128 442h-51q-3 0 -1 4q7 12 38.5 55.5t38.5 55.5q1 3 5 3h60q5 0 6 -3q1 -2 22.5 -56t22.5 -56q0 -3 -1 -3h-51q-3 0 -5 4l-29 64h-3q-46 -62 -47 -64q-2 -4 -5 -4z" />
<glyph horiz-adv-x="301" d="M85 467q-2 0 -2 4l6 39q0 6 4 10q28 28 53 28q19 0 43 -15t38 -15q15 0 32 14t19 14q1 0 1 -3l-5 -39q-2 -9 -5 -12q-29 -29 -55 -29q-18 0 -41 16t-36 16q-16 0 -34 -14z" />
<glyph horiz-adv-x="301" d="M272 479h-188q-2 0 -2 3l8 52q0 3 2 3h188q2 0 2 -3l-8 -52q0 -3 -2 -3z" />
<glyph horiz-adv-x="302" d="M171 446q-1 -3 -4 -3h-52q-1 0 0 3q1 2 32.5 56t32.5 55q2 3 5 3h64q4 0 1 -3z" />
<glyph horiz-adv-x="302" d="M106 -122h-65l-1 4q1 1 33.5 61.5t33.5 61.5q3 3 5 3h51q1 0 0 -3l-53 -123q-1 -4 -4 -4z" />
<glyph horiz-adv-x="301" d="M174 448q-82 0 -82 79q0 22 6 22h30q7 0 7 -4q4 -28 13 -37t33 -9q23 0 35 9.5t23 36.5q2 4 6 4h32q5 0 4 -4q-19 -97 -107 -97z" />
<glyph horiz-adv-x="301" d="M141 466q-1 0 -1 3l10 72q0 3 2 3h68q2 0 2 -3l-10 -72q0 -3 -4 -3h-67z" />
<glyph horiz-adv-x="301" d="M173 464q11 0 17.5 2t12.5 10t9 24l2 10q4 21 -3.5 28t-24.5 7t-26 -7t-13 -28l-2 -10q-4 -22 4 -29t24 -7zM168 429q-19 0 -31 3.5t-20.5 19t-5.5 44.5l2 18q8 66 78 66q13 0 22 -2t19 -8t13.5 -20t1.5 -36l-2 -18q-3 -29 -16.5 -44.5t-27 -19t-33.5 -3.5z" />
<glyph horiz-adv-x="301" d="M223 446q-1 -3 -5 -3h-51q-3 0 -1 3q1 2 33 55.5t33 55.5q2 3 5 3h64q3 0 0 -3q-12 -12 -78 -111zM121 446q-1 -3 -5 -3h-51q-3 0 -1 3l65 111q1 3 5 3h65q1 0 0 -3q0 -1 -19 -28t-38.5 -54.5t-20.5 -28.5z" />
<glyph horiz-adv-x="302" d="M90 -143q-25 0 -39 9.5t-14 37.5q0 56 62 101q5 3 10 3h53q4 0 2 -4l-2 -3q-36 -26 -51.5 -42.5t-15.5 -33.5q0 -13 14 -13q4 0 8.5 2t7.5 4l3 1q4 2 5 0l14 -34q2 -3 -2 -7q-21 -21 -55 -21z" />
<glyph horiz-adv-x="301" d="M232 559h53q3 0 2 -3l-86 -111q-2 -4 -5 -4h-48q-4 0 -5 3q-4 11 -27 55.5t-27 56.5q-1 3 1 3h54q1 0 4 -3l30 -64h3q45 62 47 64q3 3 4 3z" />
<glyph horiz-adv-x="412" d="M44 0h-75q-3 0 -1 3q1 3 115.5 270t114.5 268q0 3 3 3h83q3 0 3 -2l77 -539q2 -3 -3 -3h-73q-2 0 -3 3l-14 108h-182q-41 -106 -42 -108q-1 -3 -3 -3zM118 176h145l-29 259h-13zM254 606l-48 111q0 3 2 3h65q2 0 2 -3l35 -111q0 -3 -1 -3h-51q-2 0 -4 3z" />
<glyph horiz-adv-x="412" d="M44 0h-75q-3 0 -1 3q1 3 115.5 270t114.5 268q0 3 3 3h83q3 0 3 -2l77 -539q2 -3 -3 -3h-73q-2 0 -3 3l-14 108h-182q-41 -106 -42 -108q-1 -3 -3 -3zM118 176h145l-29 259h-13zM246 606q0 -3 -3 -3h-52q-3 0 -1 3q1 2 33 56t33 55q2 3 4 3h64q4 0 1 -3z" />
<glyph horiz-adv-x="412" d="M44 0h-75q-3 0 -1 3q1 3 115.5 270t114.5 268q0 3 3 3h83q3 0 3 -2l77 -539q2 -3 -3 -3h-73q-2 0 -3 3l-14 108h-182q-41 -106 -42 -108q-1 -3 -3 -3zM118 176h145l-29 259h-13zM205 602h-51q-2 0 0 4q6 12 38.5 55.5t38.5 55.5q1 3 5 3h60q5 0 6 -3q1 -2 22.5 -56 t22.5 -56q0 -3 -2 -3h-51q-2 0 -4 4l-29 64h-3q-46 -62 -47 -64q-2 -4 -6 -4z" />
<glyph horiz-adv-x="412" d="M44 0h-75q-3 0 -1 3q1 3 115.5 270t114.5 268q0 3 3 3h83q3 0 3 -2l77 -539q2 -3 -3 -3h-73q-2 0 -3 3l-14 108h-182q-41 -106 -42 -108q-1 -3 -3 -3zM118 176h145l-29 259h-13zM162 627q-2 0 -1 4l5 39q2 8 5 10q28 28 52 28q19 0 43 -15t38 -15q15 0 32 14t19 14t2 -3 l-6 -39q0 -7 -5 -12q-29 -29 -55 -29q-18 0 -41 16t-36 16q-16 0 -34 -14z" />
<glyph horiz-adv-x="412" d="M44 0h-75q-3 0 -1 3q1 3 115.5 270t114.5 268q0 3 3 3h83q3 0 3 -2l77 -539q2 -3 -3 -3h-73q-2 0 -3 3l-14 108h-182q-41 -106 -42 -108q-1 -3 -3 -3zM118 176h145l-29 259h-13zM158 629l-1 3l9 69l3 3h57q2 0 2 -3l-9 -69q-1 -3 -4 -3h-57zM293 629q-3 0 -2 3l9 69 q2 3 4 3h55q2 0 2 -3l-9 -69q-1 -3 -4 -3h-55z" />
<glyph horiz-adv-x="412" d="M44 0h-75q-3 0 -1 3q1 3 115.5 270t114.5 268q0 3 3 3h83q3 0 3 -2l77 -539q2 -3 -3 -3h-73q-2 0 -3 3l-14 108h-182q-41 -106 -42 -108q-1 -3 -3 -3zM118 176h145l-29 259h-13zM248 589q-14 0 -24 2t-20 8.5t-14 20.5t0 36l3 18q10 66 78 66q13 0 22.5 -2t19.5 -8 t14 -20t0 -36l-3 -18q-7 -42 -26 -54.5t-50 -12.5zM253 624q35 0 39 36l1 10q2 21 -4.5 28t-22.5 7q-36 0 -40 -35l-1 -10q-2 -22 5 -29t23 -7z" />
<glyph horiz-adv-x="374" d="M143 -122h-65q-2 1 0 4q3 3 61 115q-24 2 -42.5 7t-37 18t-27 34t-14 55t3.5 81l24 165q9 63 29 103.5t50 58.5t56.5 23.5t64.5 5.5q39 0 69 -6.5t39.5 -11.5t11.5 -7q2 -1 1 -4l-8 -15q-8 -14 -15 -28l-7 -14q0 -4 -4 -2q-3 1 -14.5 4.5t-36 8t-46.5 4.5q-21 0 -35 -3.5 t-32 -15t-30 -39t-18 -70.5l-21 -150q-11 -79 10 -104.5t69 -25.5q25 0 52 5.5t40 10t17 6.5q1 1 3 -2q1 -1 7.5 -28t6.5 -28q1 -2 -2 -4q-54 -27 -105 -31l-50 -116q-1 -4 -5 -4z" />
<glyph horiz-adv-x="370" d="M10 0l76 544h287q3 0 3 -3l-9 -64q0 -3 -3 -3h-211l-23 -163h179q2 0 2 -3l-9 -64q0 -3 -3 -3h-179l-24 -171h211q2 0 2 -3l-9 -64q0 -3 -3 -3h-287zM233 606l-47 111q-2 3 1 3h65q2 0 3 -3l34 -111q1 -3 -1 -3h-51q-3 0 -4 3z" />
<glyph horiz-adv-x="370" d="M10 0l76 544h287q3 0 3 -3l-9 -64q0 -3 -3 -3h-211l-23 -163h179q2 0 2 -3l-9 -64q0 -3 -3 -3h-179l-24 -171h211q2 0 2 -3l-9 -64q0 -3 -3 -3h-287zM232 606q0 -3 -3 -3h-52q-3 0 -1 3q1 2 33 56t33 55q2 3 4 3h64q4 0 1 -3z" />
<glyph horiz-adv-x="370" d="M10 0l76 544h287q3 0 3 -3l-9 -64q0 -3 -3 -3h-211l-23 -163h179q2 0 2 -3l-9 -64q0 -3 -3 -3h-179l-24 -171h211q2 0 2 -3l-9 -64q0 -3 -3 -3h-287zM192 602h-51q-3 0 -1 4q6 12 38 55.5t39 55.5q1 3 5 3h60q5 0 6 -3q1 -2 22.5 -56t22.5 -56q0 -3 -1 -3h-51q-3 0 -5 4 l-29 64h-3q-46 -62 -47 -64q-2 -4 -5 -4z" />
<glyph horiz-adv-x="370" d="M10 0l76 544h287q3 0 3 -3l-9 -64q0 -3 -3 -3h-211l-23 -163h179q2 0 2 -3l-9 -64q0 -3 -3 -3h-179l-24 -171h211q2 0 2 -3l-9 -64q0 -3 -3 -3h-287zM140 629l-1 3l10 69l2 3h57q3 0 3 -3l-10 -69q0 -3 -4 -3h-57zM275 629q-3 0 -2 3l10 69q0 3 3 3h55q3 0 3 -3l-10 -69 q0 -3 -4 -3h-55z" />
<glyph horiz-adv-x="176" d="M12 0q-2 0 -2 3l76 538q0 3 2 3h72q2 0 2 -3l-76 -538q0 -3 -2 -3h-72zM137 606l-48 111q-1 3 2 3h65q2 0 3 -3l34 -111q1 -3 -2 -3h-51q-2 0 -3 3z" />
<glyph horiz-adv-x="176" d="M12 0q-2 0 -2 3l76 538q0 3 2 3h72q2 0 2 -3l-76 -538q0 -3 -2 -3h-72zM129 606q0 -3 -4 -3h-52q-1 0 0 3q1 2 32.5 56t32.5 55q2 3 5 3h64q5 0 0 -3z" />
<glyph horiz-adv-x="176" d="M12 0q-2 0 -2 3l76 538q0 3 2 3h72q2 0 2 -3l-76 -538q0 -3 -2 -3h-72zM87 602h-51q-2 0 0 4q6 12 38.5 55.5t38.5 55.5q1 3 5 3h60q5 0 6 -3q1 -2 22.5 -56t22.5 -56q0 -3 -2 -3h-51q-2 0 -4 4l-29 64h-3q-46 -62 -47 -64q-2 -4 -6 -4z" />
<glyph horiz-adv-x="176" d="M12 0q-2 0 -2 3l76 538q0 3 2 3h72q2 0 2 -3l-76 -538q0 -3 -2 -3h-72zM41 629l-1 3l10 69l2 3h57q3 0 3 -3l-10 -69q0 -3 -4 -3h-57zM176 629q-3 0 -2 3l10 69q0 3 3 3h55q3 0 3 -3l-10 -69q0 -3 -4 -3h-55z" />
<glyph horiz-adv-x="441" d="M11 0q-2 0 -2 3l76 538l2 3h85q2 0 4 -3l116 -400h8l56 400q0 3 3 3h69q3 0 3 -3l-76 -538q0 -3 -3 -3h-85q-4 0 -4 3l-115 403h-8l-57 -403q0 -3 -3 -3h-69zM178 627q-2 0 -1 4l5 39q2 8 5 10q28 28 52 28q19 0 43 -15t38 -15q15 0 32 14t19 14t2 -3l-6 -39q0 -7 -5 -12 q-29 -29 -55 -29q-18 0 -41 16t-36 16q-16 0 -34 -14z" />
<glyph horiz-adv-x="410" d="M165 -4q-15 0 -26.5 0.5t-26 2.5t-25 6t-22.5 11t-20 17t-15 25t-9.5 33.5t-2.5 44t4 55.5l23 166q9 63 29 104t50 58.5t55.5 23t62.5 5.5q15 0 25.5 -0.5t25.5 -2.5t25.5 -5.5t22.5 -10.5t20 -17t15.5 -24.5t10.5 -32.5t3 -43t-4 -55l-24 -166q-8 -54 -24.5 -92.5 t-34 -58t-45 -30t-46 -12.5t-47.5 -2zM175 67q47 0 73.5 25t38.5 106l21 151q11 79 -9 103.5t-67 24.5q-46 0 -73 -24.5t-38 -103.5l-21 -151q-2 -31 -3.5 -52.5t4.5 -36t11.5 -23t17.5 -13t21.5 -5.5t23.5 -1zM253 606l-47 111q-2 3 1 3h65q2 0 3 -3l35 -111q0 -3 -2 -3 h-51q-3 0 -4 3z" />
<glyph horiz-adv-x="410" d="M175 67q47 0 73.5 25t38.5 106l21 151q11 79 -9 103.5t-67 24.5q-46 0 -73 -24.5t-38 -103.5l-21 -151q-2 -31 -3.5 -52.5t4.5 -36t11.5 -23t17.5 -13t21.5 -5.5t23.5 -1zM165 -4q-15 0 -26.5 0.5t-26 2.5t-25 6t-22.5 11t-20 17t-15 25t-9.5 33.5t-2.5 44t4 55.5l23 166 q9 63 29 104t50 58.5t55.5 23t62.5 5.5q15 0 25.5 -0.5t25.5 -2.5t25.5 -5.5t22.5 -10.5t20 -17t15.5 -24.5t10.5 -32.5t3 -43t-4 -55l-24 -166q-8 -54 -24.5 -92.5t-34 -58t-45 -30t-46 -12.5t-47.5 -2zM247 606q-1 -3 -4 -3h-52q-3 0 -1 3q1 2 33 56t33 55q2 3 4 3h64 q4 0 1 -3z" />
<glyph horiz-adv-x="410" d="M175 67q47 0 73.5 25t38.5 106l21 151q11 79 -9 103.5t-67 24.5q-46 0 -73 -24.5t-38 -103.5l-21 -151q-2 -31 -3.5 -52.5t4.5 -36t11.5 -23t17.5 -13t21.5 -5.5t23.5 -1zM165 -4q-15 0 -26.5 0.5t-26 2.5t-25 6t-22.5 11t-20 17t-15 25t-9.5 33.5t-2.5 44t4 55.5l23 166 q9 63 29 104t50 58.5t55.5 23t62.5 5.5q15 0 25.5 -0.5t25.5 -2.5t25.5 -5.5t22.5 -10.5t20 -17t15.5 -24.5t10.5 -32.5t3 -43t-4 -55l-24 -166q-8 -54 -24.5 -92.5t-34 -58t-45 -30t-46 -12.5t-47.5 -2zM206 602h-51q-3 0 -1 4q6 12 38.5 55.5t38.5 55.5q1 3 5 3h60 q5 0 6 -3q1 -2 23 -56t23 -56q0 -3 -2 -3h-51q-3 0 -5 4l-29 64h-3q-46 -62 -47 -64q-2 -4 -5 -4z" />
<glyph horiz-adv-x="410" d="M175 67q47 0 73.5 25t38.5 106l21 151q11 79 -9 103.5t-67 24.5q-46 0 -73 -24.5t-38 -103.5l-21 -151q-2 -31 -3.5 -52.5t4.5 -36t11.5 -23t17.5 -13t21.5 -5.5t23.5 -1zM165 -4q-15 0 -26.5 0.5t-26 2.5t-25 6t-22.5 11t-20 17t-15 25t-9.5 33.5t-2.5 44t4 55.5l23 166 q9 63 29 104t50 58.5t55.5 23t62.5 5.5q15 0 25.5 -0.5t25.5 -2.5t25.5 -5.5t22.5 -10.5t20 -17t15.5 -24.5t10.5 -32.5t3 -43t-4 -55l-24 -166q-8 -54 -24.5 -92.5t-34 -58t-45 -30t-46 -12.5t-47.5 -2zM162 627q-1 0 -1 4l5 39q2 8 5 10q28 28 53 28q19 0 43 -15t38 -15 q15 0 32 14t19 14q1 0 1 -3l-5 -39q-2 -9 -5 -12q-29 -29 -55 -29q-18 0 -41.5 16t-36.5 16q-16 0 -34 -14z" />
<glyph horiz-adv-x="410" d="M165 -4q-15 0 -26.5 0.5t-26 2.5t-25 6t-22.5 11t-20 17t-15 25t-9.5 33.5t-2.5 44t4 55.5l23 166q9 63 29 104t50 58.5t55.5 23t62.5 5.5q15 0 25.5 -0.5t25.5 -2.5t25.5 -5.5t22.5 -10.5t20 -17t15.5 -24.5t10.5 -32.5t3 -43t-4 -55l-24 -166q-8 -54 -24.5 -92.5 t-34 -58t-45 -30t-46 -12.5t-47.5 -2zM175 67q47 0 73.5 25t38.5 106l21 151q11 79 -9 103.5t-67 24.5q-46 0 -73 -24.5t-38 -103.5l-21 -151q-2 -31 -3.5 -52.5t4.5 -36t11.5 -23t17.5 -13t21.5 -5.5t23.5 -1zM158 629q-2 0 -2 3l10 69l2 3h57q3 0 3 -3l-10 -69q0 -3 -3 -3 h-57zM293 629q-3 0 -3 3l10 69q0 3 3 3h55q3 0 3 -3l-10 -69q0 -3 -3 -3h-55z" />
<glyph horiz-adv-x="424" d="M157 -4q-87 0 -113 49t-9 168l46 328q0 3 2 3h72q2 0 2 -3l-45 -321q-14 -78 -4 -115t59 -37h30q49 0 67.5 32.5t30.5 119.5l45 321q0 3 3 3h70q3 0 3 -3l-46 -328q-16 -116 -54 -166.5t-129 -50.5h-30zM261 606l-48 111q-1 3 2 3h65q2 0 3 -3l34 -111q1 -3 -2 -3h-51 q-2 0 -3 3z" />
<glyph horiz-adv-x="424" d="M157 -4q-87 0 -113 49t-9 168l46 328q0 3 2 3h72q2 0 2 -3l-45 -321q-14 -78 -4 -115t59 -37h30q49 0 67.5 32.5t30.5 119.5l45 321q0 3 3 3h70q3 0 3 -3l-46 -328q-16 -116 -54 -166.5t-129 -50.5h-30zM253 606q0 -3 -4 -3h-52q-1 0 0 3q1 2 32.5 56t32.5 55q2 3 5 3h64 q5 0 0 -3z" />
<glyph horiz-adv-x="424" d="M157 -4q-87 0 -113 49t-9 168l46 328q0 3 2 3h72q2 0 2 -3l-45 -321q-14 -78 -4 -115t59 -37h30q49 0 67.5 32.5t30.5 119.5l45 321q0 3 3 3h70q3 0 3 -3l-46 -328q-16 -116 -54 -166.5t-129 -50.5h-30zM212 602h-51q-2 0 0 4q6 12 38.5 55.5t38.5 55.5q2 3 5 3h60 q5 0 6 -3q1 -2 22.5 -56t22.5 -56q0 -3 -2 -3h-51q-2 0 -4 4l-29 64h-3q-46 -62 -47 -64q-2 -4 -6 -4z" />
<glyph horiz-adv-x="424" d="M157 -4q-87 0 -113 49t-9 168l46 328q0 3 2 3h72q2 0 2 -3l-45 -321q-14 -78 -4 -115t59 -37h30q49 0 67.5 32.5t30.5 119.5l45 321q0 3 3 3h70q3 0 3 -3l-46 -328q-16 -116 -54 -166.5t-129 -50.5h-30zM165 629q-2 0 -2 3l10 69l3 3h57q2 0 2 -3l-9 -69q-1 -3 -4 -3h-57 zM300 629q-3 0 -2 3l9 69q1 3 4 3h55q2 0 2 -3l-9 -69q-1 -3 -4 -3h-55z" />
<glyph horiz-adv-x="370" d="M110 0q-3 0 -3 3l30 213q-92 323 -93 325q-2 3 1 3h77q2 0 3 -3l62 -235h4q125 233 127 235l3 3h75q4 0 2 -3l-185 -325l-30 -213q0 -3 -2 -3h-71zM226 606q0 -3 -4 -3h-52q-2 0 0 3q1 2 32.5 56t32.5 55q1 3 5 3h64q4 0 0 -3z" />
<glyph horiz-adv-x="370" d="M110 0q-3 0 -3 3l30 213q-92 323 -93 325q-2 3 1 3h77q2 0 3 -3l62 -235h4q125 233 127 235l3 3h75q4 0 2 -3l-185 -325l-30 -213q0 -3 -2 -3h-71zM139 629l-1 3l9 69l3 3h57q2 0 2 -3l-9 -69q-1 -3 -4 -3h-57zM274 629q-3 0 -2 3l9 69q1 3 4 3h55q2 0 2 -3l-9 -69 q-1 -3 -4 -3h-55z" />
<glyph horiz-adv-x="410" d="M2 -32q-3 0 0 3l40 66q-35 45 -20 154l24 166q7 51 22.5 88t33.5 56.5t44 30.5t46.5 13.5t49.5 2.5q52 0 80 -10l23 35q1 3 4 3h58q4 0 1 -3l-41 -69q32 -47 18 -147l-23 -166q-7 -54 -23.5 -92.5t-34.5 -58t-45 -30t-46 -12.5t-48 -2q-52 0 -80 10q-4 -7 -9.5 -16 t-7.5 -14l-3 -5q-1 -3 -4 -3h-59zM175 67q47 0 73.5 25t38.5 106l21 151q11 79 -9 103.5t-67 24.5q-46 0 -73 -24.5t-38 -103.5l-21 -151q-2 -31 -3.5 -52.5t4.5 -36t11.5 -23t17.5 -13t21.5 -5.5t23.5 -1z" />
<glyph horiz-adv-x="399" d="M157 -4q-88 0 -150 31q-2 1 -1 4q29 58 30 59q2 2 3 2q52 -26 129 -26q28 0 45.5 3.5t34 19t20.5 43.5l6 42q4 32 -16.5 46t-68.5 19q-85 9 -113.5 38.5t-19.5 94.5l8 56q17 120 171 120q41 0 75 -6.5t46 -11.5t14 -7t2 -3l-29 -58q-1 -3 -3 -2q-3 1 -16 5t-41.5 8.5 t-55.5 4.5q-36 0 -58.5 -12t-27.5 -47l-6 -40q-5 -32 13 -47t68 -20q84 -9 115 -37.5t21 -95.5l-8 -55q-6 -42 -25 -69t-48 -39t-54.5 -16t-59.5 -4zM304 718h53q3 0 2 -3l-86 -111q-2 -4 -6 -4h-48q-3 0 -4 3q-4 12 -27 56t-27 56q-1 3 1 3h54q1 0 4 -3l30 -64h3 q45 62 47 64q3 3 4 3z" />
<glyph horiz-adv-x="367" d="M-8 0q-2 0 -2 2l10 68q0 4 2 6l269 390l1 7h-206q-1 0 -1 3l9 64q0 4 2 4h292q3 0 3 -4l-9 -65q-2 -7 -4 -9l-268 -388l-1 -8h213q2 0 2 -3l-9 -64q0 -3 -2 -3h-301zM287 718h53q4 0 2 -3l-86 -111q-2 -4 -6 -4h-48q-2 0 -4 3q-4 12 -27.5 56t-27.5 56q-1 3 2 3h54l3 -3 l30 -64h3q45 62 47 64q3 3 5 3z" />
<glyph horiz-adv-x="619" d="M154 176h132l38 270h-14zM47 0h-75q-3 0 -1 3q1 3 164.5 269t165.5 268q3 4 5 4h311q4 0 4 -3l-9 -64q0 -3 -4 -3h-204l-23 -163h173q1 0 1 -3l-9 -64q0 -3 -2 -3h-173l-24 -171h204q3 0 3 -3l-9 -64q0 -3 -4 -3h-280l16 111h-163q-61 -106 -63 -108q-3 -3 -4 -3z" />
<glyph horiz-adv-x="618" d="M175 67q44 0 73 27t41 112l19 135q8 38 3.5 63t-10 39.5t-19 22t-24 9.5t-25.5 2q-21 0 -35 -3.5t-31 -15.5t-28.5 -40t-17.5 -72l-20 -146q-2 -31 -3.5 -53t5 -37t12 -23.5t17.5 -13t21 -5.5t22 -1zM164 -3q-14 0 -25.5 0.5t-25.5 3t-24.5 6.5t-22.5 11.5t-20 17.5 t-14.5 25t-9.5 34t-3 44.5t4 55.5l22 158q7 53 23.5 90.5t34.5 57t44.5 30.5t46.5 13.5t48 2.5q58 0 89 -38l5 35h286q3 0 3 -3l-9 -64q0 -3 -4 -3h-211l-23 -163h180q2 0 2 -3l-9 -64q0 -3 -2 -3h-180l-24 -171h211q2 0 2 -3l-9 -64q0 -3 -3 -3h-286l5 35q-46 -38 -101 -38 z" />
<glyph horiz-adv-x="416" d="M95 72h83q22 0 35.5 3t30.5 14t28.5 39t17.5 72l21 146q3 22 3.5 40.5t-2.5 31t-6.5 22t-10.5 15.5t-13 9.5t-15.5 5t-16 2t-16.5 0.5h-83l-23 -166h76q2 0 2 -3l-8 -56l-3 -4h-76zM164 0h-154l34 243h-30q-1 0 -1 4l8 56q0 3 2 3h30l33 238h154q17 0 29.5 -1t30 -3.5 t28.5 -8t25 -15t20.5 -23.5t14 -33.5t5.5 -45.5t-4 -60l-23 -159q-8 -55 -25.5 -94t-36 -58t-47.5 -29.5t-46.5 -12t-46.5 -1.5z" />
<glyph horiz-adv-x="397" d="M112 187h90q80 0 90 78l4 32q3 25 -1 41.5t-15.5 23.5t-22.5 9.5t-28 2.5h-91zM84 0h-72q-2 2 -2 3l76 538l2 3h72q2 0 2 -3l-14 -97h93q23 0 39 -1.5t38 -9.5t34.5 -22t19.5 -42t1 -67l-6 -42q-7 -48 -26.5 -79t-48.5 -43.5t-49.5 -16t-47.5 -3.5h-93l-16 -115 q0 -3 -2 -3z" />
<glyph horiz-adv-x="356" d="M10 0l31 216q-38 -25 -40 -26t-2 2l9 64q0 4 3 5l40 26l35 254q2 3 4 3h70q3 0 2 -3l-29 -209q107 70 108 70q1 1 1.5 0.5t0.5 -2.5l-9 -64q0 -2 -3 -5l-108 -70l-27 -191h211q2 0 2 -3l-9 -64q0 -3 -3 -3h-287z" />
<glyph horiz-adv-x="412" d="M44 0h-75q-3 0 -1 3q1 3 115.5 270t114.5 268q0 3 3 3h83q3 0 3 -2l77 -539q2 -3 -3 -3h-73q-2 0 -3 3l-14 108h-182q-41 -106 -42 -108q-1 -3 -3 -3zM118 176h145l-29 259h-13zM350 639h-188q-2 0 -2 3l7 52q0 3 3 3h188q1 0 1 -3l-7 -52q0 -3 -2 -3z" />
<glyph horiz-adv-x="412" d="M44 0h-75q-3 0 -1 3q1 3 115.5 270t114.5 268q0 3 3 3h83q3 0 3 -2l77 -539q2 -3 -3 -3h-73q-2 0 -3 3l-14 108h-182q-41 -106 -42 -108q-1 -3 -3 -3zM118 176h145l-29 259h-13zM251 607q-82 0 -82 79q0 22 6 22h30q7 0 7 -4q4 -28 13 -37t33 -9q23 0 35 9.5t23 36.5 q2 4 6 4h32q5 0 4 -4q-19 -97 -107 -97z" />
<glyph horiz-adv-x="412" d="M288 -144q-25 0 -39 9.5t-14 37.5q0 56 56 97h-3q-2 0 -3 3l-14 108h-182q-41 -106 -42 -108q-1 -3 -3 -3h-75q-3 0 -1 3q1 3 115.5 270t114.5 268q0 3 3 3h83q3 0 3 -2l77 -539q2 -3 -3 -3h-1q-37 -27 -52.5 -43t-15.5 -33q0 -13 14 -13q4 0 8.5 1.5t7.5 3.5l4 2 q4 2 5 0l14 -34q2 -3 -2 -7q-21 -21 -55 -21zM118 176h145l-29 259h-13z" />
<glyph horiz-adv-x="374" d="M169 -4q-21 0 -36 1.5t-34 6t-31 13t-25 23t-17.5 35t-8 50t4.5 67.5l23 165q7 51 22.5 87t33.5 56t44.5 31t48.5 14t52 3q39 0 69 -6.5t39.5 -11.5t11.5 -7q2 -1 1 -4l-8 -15q-8 -14 -15 -28l-7 -14q0 -4 -4 -2q-3 1 -14.5 4.5t-36 8t-46.5 4.5q-21 0 -35 -3.5t-32 -15 t-30 -39t-18 -70.5l-21 -150q-11 -79 10 -104.5t69 -25.5q25 0 52 5.5t40 10t17 6.5q1 1 3 -2q1 -1 7.5 -28t6.5 -28q1 -2 -2 -4q-32 -16 -42 -19q-42 -14 -92 -14zM247 606q0 -3 -3 -3h-52q-2 0 -1 3q1 2 33 56t33 55q1 3 5 3h64q3 0 0 -3z" />
<glyph horiz-adv-x="374" d="M169 -4q-21 0 -36 1.5t-34 6t-31 13t-25 23t-17.5 35t-8 50t4.5 67.5l23 165q7 51 22.5 87t33.5 56t44.5 31t48.5 14t52 3q39 0 69 -6.5t39.5 -11.5t11.5 -7q2 -1 1 -4l-8 -15q-8 -14 -15 -28l-7 -14q0 -4 -4 -2q-3 1 -14.5 4.5t-36 8t-46.5 4.5q-21 0 -35 -3.5t-32 -15 t-30 -39t-18 -70.5l-21 -150q-11 -79 10 -104.5t69 -25.5q25 0 52 5.5t40 10t17 6.5q1 1 3 -2q1 -1 7.5 -28t6.5 -28q1 -2 -2 -4q-32 -16 -42 -19q-42 -14 -92 -14zM208 602h-51q-3 0 -1 4q6 12 38.5 55.5t38.5 55.5q1 3 6 3h60q4 0 5 -3q1 -2 23 -56t23 -56q0 -3 -2 -3h-51 q-3 0 -5 4l-29 64h-3q-46 -62 -47 -64q-2 -4 -5 -4z" />
<glyph horiz-adv-x="374" d="M169 -4q-21 0 -36 1.5t-34 6t-31 13t-25 23t-17.5 35t-8 50t4.5 67.5l23 165q7 51 22.5 87t33.5 56t44.5 31t48.5 14t52 3q39 0 69 -6.5t39.5 -11.5t11.5 -7q2 -1 1 -4l-8 -15q-8 -14 -15 -28l-7 -14q0 -4 -4 -2q-3 1 -14.5 4.5t-36 8t-46.5 4.5q-21 0 -35 -3.5t-32 -15 t-30 -39t-18 -70.5l-21 -150q-11 -79 10 -104.5t69 -25.5q25 0 52 5.5t40 10t17 6.5q1 1 3 -2q1 -1 7.5 -28t6.5 -28q1 -2 -2 -4q-32 -16 -42 -19q-42 -14 -92 -14zM220 625q-2 0 -1 3l10 72q0 3 2 3h68q2 0 2 -3l-10 -72q0 -3 -4 -3h-67z" />
<glyph horiz-adv-x="374" d="M169 -4q-21 0 -36 1.5t-34 6t-31 13t-25 23t-17.5 35t-8 50t4.5 67.5l23 165q7 51 22.5 87t33.5 56t44.5 31t48.5 14t52 3q39 0 69 -6.5t39.5 -11.5t11.5 -7q2 -1 1 -4l-8 -15q-8 -14 -15 -28l-7 -14q0 -4 -4 -2q-3 1 -14.5 4.5t-36 8t-46.5 4.5q-21 0 -35 -3.5t-32 -15 t-30 -39t-18 -70.5l-21 -150q-11 -79 10 -104.5t69 -25.5q25 0 52 5.5t40 10t17 6.5q1 1 3 -2q1 -1 7.5 -28t6.5 -28q1 -2 -2 -4q-32 -16 -42 -19q-42 -14 -92 -14zM311 718h53q4 0 2 -3l-86 -111q-2 -4 -5 -4h-48q-3 0 -5 3q-4 12 -27 56t-27 56q-2 3 1 3h54q1 0 4 -3 l30 -64h3q45 62 47 64q3 3 4 3z" />
<glyph horiz-adv-x="416" d="M96 72h82q48 0 74 24.5t38 104.5l21 145q2 30 3.5 51t-5 35t-12 22t-17.5 12t-21.5 5t-24.5 1h-82zM168 0h-158l76 544h158q15 0 24.5 -0.5t25 -2t25.5 -5t23 -10.5t21 -16.5t16 -24t11 -32.5t3 -43.5t-4 -55.5l-23 -159q-8 -54 -24.5 -92.5t-34 -58t-45 -30t-46.5 -12.5 t-48 -2zM309 718h53q4 0 2 -3l-86 -111q-2 -4 -6 -4h-48q-2 0 -4 3q-4 12 -27.5 56t-27.5 56q0 3 2 3h54l3 -3l30 -64h3q45 62 47 64q3 3 5 3z" />
<glyph horiz-adv-x="416" d="M95 72h83q22 0 35.5 3t30.5 14t28.5 39t17.5 72l21 146q3 22 3.5 40.5t-2.5 31t-6.5 22t-10.5 15.5t-13 9.5t-15.5 5t-16 2t-16.5 0.5h-83l-23 -166h76q2 0 2 -3l-8 -56l-3 -4h-76zM164 0h-154l34 243h-30q-1 0 -1 4l8 56q0 3 2 3h30l33 238h154q17 0 29.5 -1t30 -3.5 t28.5 -8t25 -15t20.5 -23.5t14 -33.5t5.5 -45.5t-4 -60l-23 -159q-8 -55 -25.5 -94t-36 -58t-47.5 -29.5t-46.5 -12t-46.5 -1.5z" />
<glyph horiz-adv-x="370" d="M10 0l76 544h287q3 0 3 -3l-9 -64q0 -3 -3 -3h-211l-23 -163h179q2 0 2 -3l-9 -64q0 -3 -3 -3h-179l-24 -171h211q2 0 2 -3l-9 -64q0 -3 -3 -3h-287zM339 639h-188q-2 0 -2 3l8 52q0 3 2 3h188q1 0 1 -3l-7 -52q0 -3 -2 -3z" />
<glyph horiz-adv-x="370" d="M10 0l76 544h287q3 0 3 -3l-9 -64q0 -3 -3 -3h-211l-23 -163h179q2 0 2 -3l-9 -64q0 -3 -3 -3h-179l-24 -171h211q2 0 2 -3l-9 -64q0 -3 -3 -3h-287zM244 607q-82 0 -82 79q0 22 7 22h30q6 0 6 -4q4 -28 13 -37t33 -9q23 0 35 9.5t23 36.5q2 4 7 4h32q4 0 3 -4 q-19 -97 -107 -97z" />
<glyph horiz-adv-x="370" d="M10 0l76 544h287q3 0 3 -3l-9 -64q0 -3 -3 -3h-211l-23 -163h179q2 0 2 -3l-9 -64q0 -3 -3 -3h-179l-24 -171h211q2 0 2 -3l-9 -64q0 -3 -3 -3h-287zM219 625q-2 0 -2 3l10 72q0 3 3 3h68q1 0 1 -3l-10 -72q0 -3 -3 -3h-67z" />
<glyph horiz-adv-x="370" d="M10 0l76 544h287q3 0 3 -3l-9 -64q0 -3 -3 -3h-211l-23 -163h179q2 0 2 -3l-9 -64q0 -3 -3 -3h-179l-24 -171h211q2 0 2 -3l-9 -64q0 -3 -3 -3h-2q-35 -25 -50 -41t-15 -34q0 -13 14 -13q4 0 8.5 2t7.5 4l4 1q4 3 4 0l14 -34q2 -3 -2 -7q-21 -21 -55 -21q-25 0 -39 9.5 t-14 37.5q0 53 55 96h-217z" />
<glyph horiz-adv-x="370" d="M10 0l76 544h287q3 0 3 -3l-9 -64q0 -3 -3 -3h-211l-23 -163h179q2 0 2 -3l-9 -64q0 -3 -3 -3h-179l-24 -171h211q2 0 2 -3l-9 -64q0 -3 -3 -3h-287zM306 718h53q3 0 2 -3l-86 -111q-2 -4 -6 -4h-48q-3 0 -4 3q-4 12 -27.5 56t-27.5 56q-2 3 2 3h54l3 -3l30 -64h3 q45 62 47 64q3 3 5 3z" />
<glyph horiz-adv-x="411" d="M165 -4q-19 0 -34 1.5t-33.5 6t-30 13t-24.5 23t-17.5 35t-8 50t4.5 67.5l23 165q7 52 24 89.5t35.5 56.5t46 30t47 13t47.5 2q38 0 73 -6.5t49.5 -12t18.5 -7.5q1 -1 0 -4l-29 -56q-1 -1 -3 -1l-8 1q-7 2 -19 4.5t-26.5 5t-32 4t-32.5 1.5q-21 0 -34.5 -3t-32 -14.5 t-30.5 -39t-18 -71.5l-21 -151q-12 -80 9.5 -105t66.5 -25q11 0 35.5 4t42.5 8l19 3l20 140h-69q-3 0 -3 3l9 60q0 3 3 3h136l-37 -263q-119 -30 -167 -30zM214 602h-51q-3 0 -1 4q6 12 38.5 55.5t38.5 55.5q1 3 6 3h60q4 0 5 -3q1 -2 23 -56t23 -56q0 -3 -2 -3h-51 q-3 0 -5 4l-29 64h-3q-46 -62 -47 -64q-2 -4 -5 -4z" />
<glyph horiz-adv-x="411" d="M165 -4q-19 0 -34 1.5t-33.5 6t-30 13t-24.5 23t-17.5 35t-8 50t4.5 67.5l23 165q7 52 24 89.5t35.5 56.5t46 30t47 13t47.5 2q38 0 73 -6.5t49.5 -12t18.5 -7.5q1 -1 0 -4l-29 -56q-1 -1 -3 -1l-8 1q-7 2 -19 4.5t-26.5 5t-32 4t-32.5 1.5q-21 0 -34.5 -3t-32 -14.5 t-30.5 -39t-18 -71.5l-21 -151q-12 -80 9.5 -105t66.5 -25q11 0 35.5 4t42.5 8l19 3l20 140h-69q-3 0 -3 3l9 60q0 3 3 3h136l-37 -263q-119 -30 -167 -30zM256 607q-82 0 -82 79q0 22 6 22h30q6 0 6 -4q4 -28 13.5 -37t33.5 -9q22 0 34 9.5t23 36.5q2 4 7 4h32q4 0 3 -4 q-19 -97 -106 -97z" />
<glyph horiz-adv-x="411" d="M165 -4q-19 0 -34 1.5t-33.5 6t-30 13t-24.5 23t-17.5 35t-8 50t4.5 67.5l23 165q7 52 24 89.5t35.5 56.5t46 30t47 13t47.5 2q38 0 73 -6.5t49.5 -12t18.5 -7.5q1 -1 0 -4l-29 -56q-1 -1 -3 -1l-8 1q-7 2 -19 4.5t-26.5 5t-32 4t-32.5 1.5q-21 0 -34.5 -3t-32 -14.5 t-30.5 -39t-18 -71.5l-21 -151q-12 -80 9.5 -105t66.5 -25q11 0 35.5 4t42.5 8l19 3l20 140h-69q-3 0 -3 3l9 60q0 3 3 3h136l-37 -263q-119 -30 -167 -30zM220 625q-2 0 -1 3l10 72q0 3 2 3h68q2 0 2 -3l-10 -72q0 -3 -4 -3h-67z" />
<glyph horiz-adv-x="435" d="M12 0q-2 0 -2 3l76 538q0 3 2 3h72q2 0 2 -3l-33 -233h182l33 233q0 3 4 3h70q3 0 3 -3l-76 -538q0 -3 -3 -3h-70q-4 0 -4 3l33 237h-182l-33 -237q0 -3 -2 -3h-72zM217 602h-51q-2 0 0 4q6 12 38 55.5t39 55.5q1 3 5 3h60q5 0 6 -3q1 -2 22.5 -56t22.5 -56q0 -3 -2 -3 h-51q-2 0 -4 4l-29 64h-3q-46 -62 -47 -64q-2 -4 -6 -4z" />
<glyph horiz-adv-x="176" d="M12 0q-2 0 -2 3l76 538q0 3 2 3h72q2 0 2 -3l-76 -538q0 -3 -2 -3h-72zM45 627q-2 0 -1 4l5 39q3 8 5 10q28 28 53 28q19 0 42.5 -15t37.5 -15q15 0 32 14t19 14t2 -3l-6 -39q0 -8 -4 -12q-29 -29 -55 -29q-18 0 -41.5 16t-36.5 16q-16 0 -34 -14z" />
<glyph horiz-adv-x="176" d="M12 0q-2 0 -2 3l76 538q0 3 2 3h72q2 0 2 -3l-76 -538q0 -3 -2 -3h-72zM232 639h-188q-2 0 -2 3l7 52q0 3 3 3h188q1 0 1 -3l-7 -52q0 -3 -2 -3z" />
<glyph horiz-adv-x="176" d="M12 0q-2 0 -2 3l76 538q0 3 2 3h72q2 0 2 -3l-76 -538q0 -3 -2 -3h-3q-35 -25 -50 -41t-15 -34q0 -13 14 -13q4 0 8.5 2t7.5 4l3 1q4 2 5 0l14 -34q2 -3 -2 -7q-21 -21 -55 -21q-25 0 -39 9.5t-14 37.5q0 53 55 96h-1z" />
<glyph horiz-adv-x="176" d="M12 0q-2 0 -2 3l76 538q0 3 2 3h72q2 0 2 -3l-76 -538q0 -3 -2 -3h-72zM103 625q-2 0 -2 3l10 72q0 3 3 3h68q1 0 1 -3l-10 -72q0 -3 -3 -3h-67z" />
<glyph horiz-adv-x="328" d="M94 -5q-26 0 -52.5 4.5t-39 8.5t-15.5 5q-2 1 0 4l26 58q1 2 4 2l5 -1q6 -1 14.5 -2.5t18.5 -3t22.5 -2.5t23.5 -1q23 0 37 3.5t28 20.5t19 49l56 401q0 3 3 3h70q3 0 3 -3l-57 -405q-5 -39 -18.5 -66t-28.5 -41.5t-38 -22.5t-40 -9.5t-41 -1.5zM242 602h-51q-3 0 -1 4 q6 12 38 55.5t39 55.5q1 3 5 3h60q5 0 6 -3q1 -2 22.5 -56t22.5 -56q0 -3 -1 -3h-51q-3 0 -5 4l-29 64h-3q-46 -62 -47 -64q-2 -4 -5 -4z" />
<glyph horiz-adv-x="355" d="M10 0l76 541q0 3 2 3h72q2 0 2 -3l-66 -471h211q2 0 2 -3l-8 -63q-2 -4 -4 -4h-287zM218 606q0 -3 -3 -3h-52q-3 0 -1 3q1 2 33 56t33 55q2 3 4 3h64q4 0 1 -3z" />
<glyph horiz-adv-x="441" d="M11 0q-2 0 -2 3l76 538l2 3h85q2 0 4 -3l116 -400h8l56 400q0 3 3 3h69q3 0 3 -3l-76 -538q0 -3 -3 -3h-85q-4 0 -4 3l-115 403h-8l-57 -403q0 -3 -3 -3h-69zM261 606q0 -3 -3 -3h-52q-2 0 -1 3q1 2 33 56t33 55q1 3 4 3h64q4 0 1 -3z" />
<glyph horiz-adv-x="441" d="M11 0q-2 0 -2 3l76 538l2 3h85q2 0 4 -3l116 -400h8l56 400q0 3 3 3h69q3 0 3 -3l-76 -538q0 -3 -3 -3h-85q-4 0 -4 3l-115 403h-8l-57 -403q0 -3 -3 -3h-69zM326 718h53q4 0 1 -3l-85 -111q-4 -4 -6 -4h-48q-3 0 -4 3q-4 12 -27.5 56t-27.5 56q-2 3 2 3h54l3 -3l30 -64 h3q45 62 47 64q3 3 5 3z" />
<glyph horiz-adv-x="410" d="M175 67q47 0 73.5 25t38.5 106l21 151q11 79 -9 103.5t-67 24.5q-46 0 -73 -24.5t-38 -103.5l-21 -151q-2 -31 -3.5 -52.5t4.5 -36t11.5 -23t17.5 -13t21.5 -5.5t23.5 -1zM165 -4q-15 0 -26.5 0.5t-26 2.5t-25 6t-22.5 11t-20 17t-15 25t-9.5 33.5t-2.5 44t4 55.5l23 166 q9 63 29 104t50 58.5t55.5 23t62.5 5.5q15 0 25.5 -0.5t25.5 -2.5t25.5 -5.5t22.5 -10.5t20 -17t15.5 -24.5t10.5 -32.5t3 -43t-4 -55l-24 -166q-8 -54 -24.5 -92.5t-34 -58t-45 -30t-46 -12.5t-47.5 -2zM350 639h-188q-1 0 -1 3l7 52q0 3 2 3h188q2 0 2 -3l-7 -52 q0 -3 -3 -3z" />
<glyph horiz-adv-x="410" d="M175 67q47 0 73.5 25t38.5 106l21 151q11 79 -9 103.5t-67 24.5q-46 0 -73 -24.5t-38 -103.5l-21 -151q-2 -31 -3.5 -52.5t4.5 -36t11.5 -23t17.5 -13t21.5 -5.5t23.5 -1zM165 -4q-15 0 -26.5 0.5t-26 2.5t-25 6t-22.5 11t-20 17t-15 25t-9.5 33.5t-2.5 44t4 55.5l23 166 q9 63 29 104t50 58.5t55.5 23t62.5 5.5q15 0 25.5 -0.5t25.5 -2.5t25.5 -5.5t22.5 -10.5t20 -17t15.5 -24.5t10.5 -32.5t3 -43t-4 -55l-24 -166q-8 -54 -24.5 -92.5t-34 -58t-45 -30t-46 -12.5t-47.5 -2zM252 607q-82 0 -82 79q0 22 6 22h30q6 0 6 -4q4 -28 13.5 -37 t33.5 -9q22 0 34 9.5t23 36.5q2 4 7 4h32q4 0 3 -4q-19 -97 -106 -97z" />
<glyph horiz-adv-x="410" d="M165 -4q-15 0 -26.5 0.5t-26 2.5t-25 6t-22.5 11t-20 17t-15 25t-9.5 33.5t-2.5 44t4 55.5l23 166q9 63 29 104t50 58.5t55.5 23t62.5 5.5q15 0 25.5 -0.5t25.5 -2.5t25.5 -5.5t22.5 -10.5t20 -17t15.5 -24.5t10.5 -32.5t3 -43t-4 -55l-24 -166q-8 -54 -24.5 -92.5 t-34 -58t-45 -30t-46 -12.5t-47.5 -2zM175 67q47 0 73.5 25t38.5 106l21 151q11 79 -9 103.5t-67 24.5q-46 0 -73 -24.5t-38 -103.5l-21 -151q-2 -31 -3.5 -52.5t4.5 -36t11.5 -23t17.5 -13t21.5 -5.5t23.5 -1zM311 606q-1 -3 -4 -3h-51q-2 0 -1 3q1 2 33 55.5t33 55.5 q0 3 4 3h64q4 0 1 -3q-1 -1 -39 -54t-40 -57zM209 606q-1 -3 -4 -3h-51q-2 0 -1 3l65 111q2 3 4 3h65q3 0 1 -3q0 -1 -19.5 -28t-39 -54.5t-20.5 -28.5z" />
<glyph horiz-adv-x="413" d="M125 279h90q78 0 90 78l6 40q4 26 -0.5 42.5t-16.5 23.5t-23.5 9t-27.5 2h-91zM84 0h-72q-2 1 -2 3l76 541h169q29 0 50 -4t45 -17t34 -44.5t3 -80.5l-6 -43q-14 -104 -91 -132l56 -220q2 -3 -3 -3h-78q-3 0 -4 3l-47 206h-99l-29 -206q0 -3 -2 -3zM247 606q0 -3 -3 -3 h-52q-2 0 -1 3q1 2 33 56t33 55q1 3 4 3h64q4 0 1 -3z" />
<glyph horiz-adv-x="413" d="M125 279h90q78 0 90 78l6 40q4 26 -0.5 42.5t-16.5 23.5t-23.5 9t-27.5 2h-91zM84 0h-72q-2 1 -2 3l76 541h169q29 0 50 -4t45 -17t34 -44.5t3 -80.5l-6 -43q-14 -104 -91 -132l56 -220q2 -3 -3 -3h-78q-3 0 -4 3l-47 206h-99l-29 -206q0 -3 -2 -3zM298 718h53q4 0 1 -3 l-85 -111q-4 -4 -6 -4h-48q-3 0 -4 3q-4 12 -27.5 56t-27.5 56q0 3 2 3h54l3 -3l30 -64h3q45 62 47 64q3 3 5 3z" />
<glyph horiz-adv-x="399" d="M157 -4q-88 0 -150 31q-2 1 -1 4q29 58 30 59q2 2 3 2q52 -26 129 -26q28 0 45.5 3.5t34 19t20.5 43.5l6 42q4 32 -16.5 46t-68.5 19q-85 9 -113.5 38.5t-19.5 94.5l8 56q17 120 171 120q41 0 75 -6.5t46 -11.5t14 -7t2 -3l-29 -58q-1 -3 -3 -2q-3 1 -16 5t-41.5 8.5 t-55.5 4.5q-36 0 -58.5 -12t-27.5 -47l-6 -40q-5 -32 13 -47t68 -20q84 -9 115 -37.5t21 -95.5l-8 -55q-6 -42 -25 -69t-48 -39t-54.5 -16t-59.5 -4zM250 606q0 -3 -3 -3h-52q-3 0 -1 3q1 2 33 56t33 55q2 3 4 3h64q4 0 1 -3z" />
<glyph horiz-adv-x="399" d="M157 -4q-88 0 -150 31q-2 1 -1 4q29 58 30 59q2 2 3 2q52 -26 129 -26q28 0 45.5 3.5t34 19t20.5 43.5l6 42q4 32 -16.5 46t-68.5 19q-85 9 -113.5 38.5t-19.5 94.5l8 56q17 120 171 120q41 0 75 -6.5t46 -11.5t14 -7t2 -3l-29 -58q-1 -3 -3 -2q-3 1 -16 5t-41.5 8.5 t-55.5 4.5q-36 0 -58.5 -12t-27.5 -47l-6 -40q-5 -32 13 -47t68 -20q84 -9 115 -37.5t21 -95.5l-8 -55q-6 -42 -25 -69t-48 -39t-54.5 -16t-59.5 -4zM200 602h-51q-3 0 -1 4q6 12 38.5 55.5t38.5 55.5q1 3 5 3h60q5 0 6 -3q1 -2 22.5 -56t22.5 -56q0 -3 -1 -3h-51q-3 0 -5 4 l-29 64h-3q-46 -62 -47 -64q-2 -4 -5 -4z" />
<glyph horiz-adv-x="363" d="M106 0q-2 0 -2 3l66 470h-129q-2 0 -2 3l9 65q0 3 3 3h333q3 0 3 -3l-9 -65q0 -3 -4 -3h-129l-66 -470q0 -3 -3 -3h-70zM286 718h53q3 0 2 -3l-86 -111q-2 -4 -5 -4h-48q-4 0 -5 3q-4 12 -27 56t-27 56q-1 3 1 3h54q1 0 4 -3l30 -64h3q45 62 47 64q3 3 4 3z" />
<glyph horiz-adv-x="424" d="M157 -4q-87 0 -113 49t-9 168l46 328q0 3 2 3h72q2 0 2 -3l-45 -321q-14 -78 -4 -115t59 -37h30q49 0 67.5 32.5t30.5 119.5l45 321q0 3 3 3h70q3 0 3 -3l-46 -328q-16 -116 -54 -166.5t-129 -50.5h-30zM170 627q-2 0 -2 4l6 39q0 6 4 10q28 28 53 28q19 0 43 -15t38 -15 q15 0 32 14t19 14q1 0 1 -3l-5 -39q-2 -9 -5 -12q-29 -29 -55 -29q-18 0 -41 16t-36 16q-16 0 -34 -14z" />
<glyph horiz-adv-x="424" d="M157 -4q-87 0 -113 49t-9 168l46 328q0 3 2 3h72q2 0 2 -3l-45 -321q-14 -78 -4 -115t59 -37h30q49 0 67.5 32.5t30.5 119.5l45 321q0 3 3 3h70q3 0 3 -3l-46 -328q-16 -116 -54 -166.5t-129 -50.5h-30zM357 639h-188q-2 0 -2 3l7 52q0 3 3 3h188q1 0 1 -3l-7 -52 q0 -3 -2 -3z" />
<glyph horiz-adv-x="424" d="M157 -4q-87 0 -113 49t-9 168l46 328q0 3 2 3h72q2 0 2 -3l-45 -321q-14 -78 -4 -115t59 -37h30q49 0 67.5 32.5t30.5 119.5l45 321q0 3 3 3h70q3 0 3 -3l-46 -328q-16 -116 -54 -166.5t-129 -50.5h-30zM258 607q-82 0 -82 79q0 22 6 22h30q7 0 7 -4q4 -28 13 -37t33 -9 q23 0 35 9.5t23 36.5q2 4 6 4h32q5 0 4 -4q-19 -97 -107 -97z" />
<glyph horiz-adv-x="424" d="M157 -4q-87 0 -113 49t-9 168l46 328q0 3 2 3h72q2 0 2 -3l-45 -321q-14 -78 -4 -115t59 -37h30q49 0 67.5 32.5t30.5 119.5l45 321q0 3 3 3h70q3 0 3 -3l-46 -328q-16 -116 -54 -166.5t-129 -50.5h-30zM254 588q-19 0 -31 3.5t-20.5 19t-5.5 44.5l2 18q8 66 79 66 q13 0 22 -2t18.5 -8t13 -20t1.5 -36l-2 -18q-3 -29 -16.5 -44.5t-27 -19t-33.5 -3.5zM259 623q11 0 17.5 2t12.5 10t9 24l2 10q4 21 -3.5 28t-23.5 7q-17 0 -26.5 -7t-13.5 -28l-2 -10q-4 -22 4 -29t24 -7z" />
<glyph horiz-adv-x="424" d="M157 -4q-87 0 -113 49t-9 168l46 328q0 3 2 3h72q2 0 2 -3l-45 -321q-14 -78 -4 -115t59 -37h30q49 0 67.5 32.5t30.5 119.5l45 321q0 3 3 3h70q3 0 3 -3l-46 -328q-16 -116 -54 -166.5t-129 -50.5h-30zM328 606q-2 -3 -5 -3h-51q-2 0 -1 3q1 2 33 55.5t33 55.5q1 3 5 3 h64q4 0 1 -3q-1 -1 -39 -54t-40 -57zM226 606q-2 -3 -5 -3h-51q-2 0 0 3l65 111q1 3 4 3h65q2 0 0 -3q0 -1 -19 -28t-38.5 -54.5t-20.5 -28.5z" />
<glyph horiz-adv-x="424" d="M139 -148q-53 0 -53 47q0 54 56 98q-78 3 -100.5 52.5t-6.5 163.5l46 328q0 3 2 3h72q2 0 2 -3l-45 -321q-14 -78 -4 -115t59 -37h30q49 0 67.5 32.5t30.5 119.5l45 321q0 3 3 3h70q3 0 3 -3l-46 -328q-16 -109 -49.5 -160.5t-108.5 -51.5q-1 0 -1 -5 q-36 -26 -51.5 -42.5t-15.5 -33.5q0 -13 14 -13q4 0 8.5 1.5t7.5 3.5l4 2q4 2 5 0l13 -34q2 -3 -2 -7q-21 -21 -55 -21z" />
<glyph horiz-adv-x="574" d="M88 0q-3 0 -3 3q0 7 -17 271.5t-18 266.5q-2 3 1 3h74q1 0 3 -3l20 -415h13q114 310 115 312t4 2h60q2 0 3 -3l26 -311h13q136 413 137 415q2 3 4 3h73q4 0 3 -3q-1 -1 -93 -267t-94 -271q-2 -3 -5 -3h-87q-4 0 -4 3l-21 302h-8q-105 -298 -106 -302q-1 0 -2.5 -1.5 t-2.5 -1.5h-88zM286 602h-51q-2 0 0 4q7 12 38.5 55.5t38.5 55.5q2 3 5 3h60q5 0 6 -3q1 -2 22.5 -56t22.5 -56q0 -3 -2 -3h-51q-2 0 -4 4l-29 64h-3q-46 -62 -47 -64q-2 -4 -6 -4z" />
<glyph horiz-adv-x="370" d="M110 0q-3 0 -3 3l30 213q-92 323 -93 325q-2 3 1 3h77q2 0 3 -3l62 -235h4q125 233 127 235l3 3h75q4 0 2 -3l-185 -325l-30 -213q0 -3 -2 -3h-71zM184 602h-51q-2 0 0 4q7 12 39 55.5t38 55.5q2 3 5 3h60q5 0 6 -3q1 -2 22.5 -56t22.5 -56q0 -3 -2 -3h-51q-2 0 -4 4 l-29 64h-3q-46 -62 -47 -64q-2 -4 -6 -4z" />
<glyph horiz-adv-x="367" d="M-8 0q-2 0 -2 2l10 68q0 4 2 6l269 390l1 7h-206q-1 0 -1 3l9 64q0 4 2 4h292q3 0 3 -4l-9 -65q-2 -7 -4 -9l-268 -388l-1 -8h213q2 0 2 -3l-9 -64q0 -3 -2 -3h-301zM240 606q0 -3 -3 -3h-52q-3 0 -1 3q1 2 33 56t33 55q2 3 4 3h64q4 0 1 -3z" />
<glyph horiz-adv-x="367" d="M-8 0q-2 0 -2 2l10 68q0 4 2 6l269 390l1 7h-206q-1 0 -1 3l9 64q0 4 2 4h292q3 0 3 -4l-9 -65q-2 -7 -4 -9l-268 -388l-1 -8h213q2 0 2 -3l-9 -64q0 -3 -2 -3h-301zM203 625q-2 0 -2 3l10 72q0 3 3 3h68q1 0 1 -3l-10 -72q0 -3 -3 -3h-67z" />
<glyph horiz-adv-x="574" d="M88 0q-3 0 -3 3q0 7 -17 271.5t-18 266.5q-2 3 1 3h74q1 0 3 -3l20 -415h13q114 310 115 312t4 2h60q2 0 3 -3l26 -311h13q136 413 137 415q2 3 4 3h73q4 0 3 -3q-1 -1 -93 -267t-94 -271q-2 -3 -5 -3h-87q-4 0 -4 3l-21 302h-8q-105 -298 -106 -302q-1 0 -2.5 -1.5 t-2.5 -1.5h-88zM329 606l-48 111q-1 3 2 3h65q2 0 3 -3l34 -111q1 -3 -2 -3h-51q-2 0 -3 3z" />
<glyph horiz-adv-x="574" d="M88 0q-3 0 -3 3q0 7 -17 271.5t-18 266.5q-2 3 1 3h74q1 0 3 -3l20 -415h13q114 310 115 312t4 2h60q2 0 3 -3l26 -311h13q136 413 137 415q2 3 4 3h73q4 0 3 -3q-1 -1 -93 -267t-94 -271q-2 -3 -5 -3h-87q-4 0 -4 3l-21 302h-8q-105 -298 -106 -302q-1 0 -2.5 -1.5 t-2.5 -1.5h-88zM337 606q0 -3 -4 -3h-52q-1 0 0 3q1 2 32.5 56t32.5 55q2 3 5 3h64q4 0 0 -3z" />
<glyph horiz-adv-x="574" d="M88 0q-3 0 -3 3q0 7 -17 271.5t-18 266.5q-2 3 1 3h74q1 0 3 -3l20 -415h13q114 310 115 312t4 2h60q2 0 3 -3l26 -311h13q136 413 137 415q2 3 4 3h73q4 0 3 -3q-1 -1 -93 -267t-94 -271q-2 -3 -5 -3h-87q-4 0 -4 3l-21 302h-8q-105 -298 -106 -302q-1 0 -2.5 -1.5 t-2.5 -1.5h-88zM239 628q-2 0 -2 3l10 69l2 3h57q3 0 3 -3l-10 -69q0 -3 -3 -3h-57zM374 628q-3 0 -3 3l10 69q0 3 3 3h55q3 0 3 -3l-10 -69q0 -3 -3 -3h-55z" />
<glyph horiz-adv-x="355" d="M10 0l76 541q0 3 2 3h72q2 0 2 -3l-66 -471h211q2 0 2 -3l-8 -63q-2 -4 -4 -4h-287zM200 452q-2 1 -3 3l23 163q0 4 3 4h65q4 0 4 -4l-15 -108q0 -2 -4 -6z" />
<glyph horiz-adv-x="405" d="M12 0q-2 1 -2 3l76 538l2 3h72q2 0 2 -3l-33 -232h24q171 229 173 232t4 3h81q4 0 1 -3l-200 -265q134 -271 135 -273q1 -3 -1 -3h-82q-2 0 -4 3l-112 237h-29l-33 -237q0 -3 -2 -3h-72zM103 -211q-2 -2 -3 0v3l23 163q0 4 3 4h65q4 0 3 -4l-15 -108q0 -3 -4 -6z" />
<glyph horiz-adv-x="355" d="M10 0l76 541q0 3 2 3h72q2 0 2 -3l-66 -471h211q2 0 2 -3l-8 -63q-2 -4 -4 -4h-287zM93 -211q-2 -2 -3 0v3l23 163q0 4 3 4h65q4 0 4 -4l-16 -108q0 -3 -3 -6z" />
<glyph horiz-adv-x="441" d="M11 0q-2 0 -2 3l76 538l2 3h85q2 0 4 -3l116 -400h8l56 400q0 3 3 3h69q3 0 3 -3l-76 -538q0 -3 -3 -3h-85q-4 0 -4 3l-115 403h-8l-57 -403q0 -3 -3 -3h-69zM128 -211q-2 -2 -3 0v3l23 163q0 4 3 4h65q4 0 3 -4l-15 -108q0 -3 -4 -6z" />
<glyph horiz-adv-x="413" d="M84 0h-72q-2 1 -2 3l76 541h169q29 0 50 -4t45 -17t34 -44.5t3 -80.5l-6 -43q-14 -104 -91 -132l56 -220q2 -3 -3 -3h-78q-3 0 -4 3l-47 206h-99l-29 -206q0 -3 -2 -3zM125 279h90q78 0 90 78l6 40q4 26 -0.5 42.5t-16.5 23.5t-23.5 9t-27.5 2h-91zM110 -211q-2 -2 -3 0 v3l23 163q0 4 3 4h65q4 0 3 -4l-15 -108q0 -3 -4 -6z" />
<glyph horiz-adv-x="411" d="M165 -4q-19 0 -34 1.5t-33.5 6t-30 13t-24.5 23t-17.5 35t-8 50t4.5 67.5l23 165q7 52 24 89.5t35.5 56.5t46 30t47 13t47.5 2q38 0 73 -6.5t49.5 -12t18.5 -7.5q1 -1 0 -4l-29 -56q-1 -1 -3 -1l-8 1q-7 2 -19 4.5t-26.5 5t-32 4t-32.5 1.5q-21 0 -34.5 -3t-32 -14.5 t-30.5 -39t-18 -71.5l-21 -151q-12 -80 9.5 -105t66.5 -25q11 0 35.5 4t42.5 8l19 3l20 140h-69q-3 0 -3 3l9 60q0 3 3 3h136l-37 -263q-119 -30 -167 -30zM113 -211q-2 1 -3 3l23 163q0 4 4 4h65q3 0 3 -4l-15 -108q0 -2 -4 -6z" />
<glyph horiz-adv-x="399" d="M157 -4q-88 0 -150 31q-2 1 -1 4q29 58 30 59q2 2 3 2q52 -26 129 -26q28 0 45.5 3.5t34 19t20.5 43.5l6 42q4 32 -16.5 46t-68.5 19q-85 9 -113.5 38.5t-19.5 94.5l8 56q17 120 171 120q41 0 75 -6.5t46 -11.5t14 -7t2 -3l-29 -58q-1 -3 -3 -2q-3 1 -16 5t-41.5 8.5 t-55.5 4.5q-36 0 -58.5 -12t-27.5 -47l-6 -40q-5 -32 13 -47t68 -20q84 -9 115 -37.5t21 -95.5l-8 -55q-6 -42 -25 -69t-48 -39t-54.5 -16t-59.5 -4zM106 -211q-2 1 -3 3l23 163q0 4 3 4h65q4 0 4 -4l-15 -108q0 -2 -4 -6z" />
<glyph horiz-adv-x="363" d="M106 0q-2 0 -2 3l66 470h-129q-2 0 -2 3l9 65q0 3 3 3h333q3 0 3 -3l-9 -65q0 -3 -4 -3h-129l-66 -470q0 -3 -3 -3h-70zM81 -211q-2 1 -3 3l23 163q0 4 4 4h65q3 0 3 -4l-15 -108q0 -2 -4 -6z" />
<glyph horiz-adv-x="399" d="M153 -122h-65q-2 1 0 4l12 22q11 21 27.5 52t21.5 40q-84 2 -142 31q-2 1 -1 4q29 58 30 59q2 2 3 2q52 -26 129 -26q28 0 45.5 3.5t34 19t20.5 43.5l6 42q4 32 -16.5 46t-68.5 19q-85 9 -113.5 38.5t-19.5 94.5l8 56q17 120 171 120q41 0 75 -6.5t46 -11.5t14 -7t2 -3 l-29 -58q-1 -3 -3 -2q-3 1 -16 5t-41.5 8.5t-55.5 4.5q-36 0 -58.5 -12t-27.5 -47l-6 -40q-5 -32 13 -47t68 -20q84 -9 115 -37.5t21 -95.5l-8 -55q-16 -111 -136 -125l-51 -117q-1 -4 -4 -4z" />
<glyph horiz-adv-x="305" d="M44 112q-2 2 0 5l45 42q2 2 4 0l53 -73q53 -73 54 -74q3 -1 -1 -5l-46 -42q0 -4 -4 0z" />
<glyph horiz-adv-x="285" d="M180 343q-2 0 -1 3l36 66q2 3 4 3h44q3 0 2 -3q-30 -60 -36 -66q-3 -3 -4 -3h-45zM-5 -30q-3 0 -1 3q28 56 35 63q1 3 5 3h44q2 0 1 -3l-36 -64q-1 -2 -3 -2h-45z" />
<glyph horiz-adv-x="397" d="M280 479q-4 0 -2 3q1 2 28 46t28 45q3 3 4 3h58q4 0 1 -3q-1 -1 -27.5 -45.5t-27.5 -45.5q-3 -3 -4 -3h-58zM-9 -32q-3 0 0 3q1 1 25.5 42.5t25.5 44.5q2 3 5 3h58q5 0 2 -3q-1 -1 -26.5 -43t-26.5 -44q-2 -3 -4 -3h-59z" />
<glyph horiz-adv-x="394" d="M166 67q45 0 67.5 24.5t33.5 106.5l21 151q11 79 -5 103.5t-60 24.5q-43 0 -65.5 -24t-33.5 -104l-21 -151q-4 -44 -4.5 -70t11 -39.5t23.5 -17.5t33 -4zM156 -4q-17 0 -29 1t-27.5 3.5t-26 8.5t-21.5 15t-17.5 24t-11 34.5t-4 47.5t5.5 62l23 165q7 52 21.5 88.5t31 56 t41 30.5t44 13.5t47.5 2.5q17 0 28.5 -0.5t27.5 -3t26.5 -8.5t22 -14.5t18.5 -23t11.5 -34t4.5 -46.5t-5 -61l-24 -165q-8 -55 -23 -93.5t-31.5 -58t-42 -30t-43.5 -12.5t-47 -2z" />
<glyph horiz-adv-x="349" d="M195 0h-68q-2 0 -2 3l64 455q-92 -73 -94 -74q-3 -2 -3 1q0 1 -4 31t-4 32q0 3 3 5l112 89q2 2 4 2h68q2 0 2 -3l-76 -538q0 -3 -2 -3z" />
<glyph horiz-adv-x="358" d="M269 0h-264q-2 0 -2 2l9 66q0 3 3 6q12 13 37.5 41.5t37.5 42t34 38t33 38t27 33t24.5 32t17.5 27t13.5 25t5.5 19.5l6 47q2 20 -2 33t-15 18.5t-20.5 7.5t-23.5 2q-50 0 -107 -19q-3 0 -3 2t-2.5 28.5t-2.5 29.5t1 3q52 26 124 26q28 0 49.5 -4t44 -15.5t32.5 -38 t4 -65.5l-9 -59q-4 -24 -18.5 -53t-48 -73t-56 -71.5t-76.5 -90.5l-1 -8h158q2 0 2 -3l-9 -64q0 -3 -3 -3z" />
<glyph horiz-adv-x="362" d="M11 19q-3 3 -1 5q1 2 10.5 28.5t9.5 27.5q0 2 5 2l7 -2q6 -1 17 -3.5t24.5 -5t29.5 -4t30 -1.5q72 0 81 60l6 44q10 74 -54 74h-52q-3 0 -2 3l8 60q0 3 4 3h52q22 0 40.5 16.5t23.5 47.5l7 44q3 20 -2 33t-16.5 18.5t-21.5 7t-23 1.5q-22 0 -48 -4t-41 -8t-17 -5 q-4 -2 -4 2q0 2 -2 28.5t-2 29.5q0 2 2 3q48 24 122 24q28 0 48 -3.5t43.5 -14.5t33 -37t3.5 -66l-8 -54q-4 -25 -16 -47t-22 -32l-10 -9l-1 -7q2 -1 4.5 -3t9.5 -10.5t10.5 -19.5t7 -29.5t-1.5 -40.5l-8 -57q-6 -39 -23 -65.5t-42.5 -37.5t-47.5 -15t-51 -4q-34 0 -64.5 6 t-44.5 12z" />
<glyph horiz-adv-x="362" d="M241 0h-63q-3 0 -3 3l13 94h-179q-2 0 -2 3l10 67q0 2 2 6l180 368q1 3 4 3h72q1 0 0 -3l-175 -367l-1 -7h98l15 105q0 4 5 4h63q2 0 2 -4l-15 -105h48q3 0 2 -3l-9 -64q0 -3 -3 -3h-47l-13 -94q0 -3 -4 -3z" />
<glyph horiz-adv-x="362" d="M136 -4q-77 0 -123 23q-1 1 -1 4q3 11 20 57q1 2 5 2q2 -1 17.5 -4.5t42 -7.5t47.5 -4q74 0 82 59l6 46q10 79 -53 79h-122q-2 0 -2 3l40 285q0 6 8 6h237q1 0 1 -3l-8 -61q0 -3 -3 -3h-176l-22 -161h59q25 0 44 -4t40.5 -16t30 -41.5t2.5 -73.5l-9 -64 q-6 -41 -23.5 -67.5t-45 -37t-47.5 -13.5t-47 -3z" />
<glyph horiz-adv-x="362" d="M151 61q15 0 25.5 3t23 11.5t20.5 28t12 49.5l3 25q6 51 -6.5 69t-43.5 18q-10 0 -28.5 -4.5t-32.5 -8.5l-14 -4l-17 -126q-4 -32 13 -46.5t45 -14.5zM147 -4q-25 0 -46.5 4.5t-43.5 16.5t-32.5 38t-5.5 65l42 298q6 41 25 69t46 40t48 16.5t42 4.5q68 0 118 -25 q1 0 1 -2q0 -3 -5.5 -17t-11.5 -28l-5 -13q0 -2 -4 -2l-7 2q-6 2 -16 4.5t-22.5 4.5t-27.5 4t-28 2q-70 0 -80 -63l-15 -102q62 17 89 17q11 0 19.5 -0.5t20 -2.5t20 -6.5t18 -11t15 -18t9 -26t3.5 -35t-4 -45.5l-6 -36q-7 -42 -20.5 -71.5t-28 -45t-35.5 -24t-36 -10.5 t-36 -2z" />
<glyph horiz-adv-x="353" d="M114 0h-73q-3 0 -1 3l216 464l1 7h-185q-1 2 -1 3l9 63l2 4h263q3 0 3 -2l-9 -65q0 -1 -3 -7l-54 -117q-55 -117 -109 -233t-55 -117q-2 -3 -4 -3z" />
<glyph horiz-adv-x="363" d="M151 61q34 0 53.5 16t25.5 63l4 30q11 78 -56 78q-69 0 -80 -78l-4 -30q-6 -45 9 -62t48 -17zM187 318q64 0 73 66l4 29q9 70 -53 70q-66 0 -76 -70l-4 -29q-9 -66 56 -66zM141 -5q-65 0 -99 28.5t-22 111.5l6 40q5 35 21.5 61.5t30.5 35.5l13 10v3q-4 3 -10.5 9t-15 30 t-4.5 54l6 39q6 42 22 69.5t39.5 40t44.5 17t48 4.5t46.5 -4.5t39 -17t26.5 -40t1 -69.5l-6 -39q-4 -29 -17.5 -52t-24.5 -32l-12 -9v-2q5 -3 12.5 -10t17 -34.5t4.5 -63.5l-6 -40q-13 -85 -54 -112.5t-107 -27.5z" />
<glyph horiz-adv-x="362" d="M214 548q25 0 46 -4.5t43.5 -16t33 -37.5t5.5 -65l-42 -298q-6 -41 -25 -69.5t-46 -40.5t-48 -16.5t-42 -4.5q-74 0 -120 23q-3 1 -1 5l22 55q0 2 4 2l6 -1q7 -2 17.5 -4t23 -4.5t28 -4t28.5 -1.5q71 0 80 64l13 91q-61 -18 -88 -18q-13 0 -22.5 1t-23 4t-22 9t-19 16.5 t-13.5 26t-6 38t4 51.5l7 46q8 52 25 85t42 46.5t44 17.5t46 4zM210 483q-15 0 -25.5 -3t-23 -11.5t-21 -28t-12.5 -49.5l-5 -35q-7 -50 6.5 -68.5t44.5 -18.5q11 0 30 4.5t32 8.5l14 5l19 136q4 31 -13.5 45.5t-45.5 14.5z" />
<glyph horiz-adv-x="793" d="M159 -4q-88 0 -150 31q-2 1 -1 4q29 58 30 59q2 2 3 2q52 -26 129 -26q28 0 45.5 3.5t34 19t20.5 43.5l6 42q4 32 -16.5 46t-68.5 19q-85 9 -113.5 38.5t-19.5 94.5l8 56q17 120 171 120q41 0 75 -6.5t46 -11.5t14 -7t2 -3l-29 -58q-1 -3 -3 -2q-3 1 -16 5t-41.5 8.5 t-55.5 4.5q-36 0 -58.5 -12t-27.5 -47l-6 -40q-5 -32 13 -47t68 -20q84 -9 115 -37.5t21 -95.5l-8 -55q-6 -42 -25 -69t-48 -39t-54.5 -16t-59.5 -4zM538 -4q-88 0 -150 31q-2 1 -1 4q29 58 30 59q2 2 3 2q52 -26 129 -26q28 0 45.5 3.5t34 19t20.5 43.5l6 42q4 32 -16.5 46 t-68.5 19q-85 9 -113.5 38.5t-19.5 94.5l8 56q17 120 171 120q41 0 75 -6.5t46 -11.5t14 -7t2 -3l-29 -58q-1 -3 -3 -2q-3 1 -16 5t-41.5 8.5t-55.5 4.5q-36 0 -58.5 -12t-27.5 -47l-6 -40q-5 -32 13 -47t68 -20q84 -9 115 -37.5t21 -95.5l-8 -55q-6 -42 -25 -69t-48 -39 t-54.5 -16t-59.5 -4z" />
<glyph horiz-adv-x="362" d="M122 59q-3 0 -3 3l18 126h-111q-2 1 -2 4l8 57q0 4 3 4h111l18 128q0 3 3 3h55q3 0 3 -3l-18 -128h110q3 0 2 -4l-8 -57q0 -4 -3 -4h-110l-18 -126q0 -3 -3 -3h-55z" />
<glyph horiz-adv-x="155" d="M-27 -82q-1 2 -1 3t31 82t32 83q1 3 4 3h64q1 0 0 -3q0 -1 -38 -82t-39 -82q-2 -4 -5 -4h-48z" />
<glyph horiz-adv-x="256" d="M17 188q-1 0 -1 3l8 58q0 3 2 3h193q3 0 3 -3l-8 -58q0 -3 -4 -3h-193z" />
<glyph horiz-adv-x="159" d="M4 0q-2 1 -2 3l12 82l2 3h71q2 0 2 -3l-12 -82l-2 -3h-71z" />
<glyph horiz-adv-x="282" d="M4 -3q-2 0 -1 3q1 1 104 272.5t103 272.5q2 3 3 3h64q5 0 3 -3q-1 -1 -104 -272.5t-103 -272.5q-1 -3 -3 -3h-66z" />
<glyph horiz-adv-x="362" d="M14 108l-1 3l8 58l2 4h282q3 0 3 -4l-8 -58q0 -3 -4 -3h-282zM37 270q-2 2 -2 3l9 58l2 3h282q3 0 3 -3l-9 -58q0 -3 -3 -3h-282z" />
<glyph horiz-adv-x="193" d="M91 0h-70q-2 0 -2 3l11 76q0 3 2 3h70q2 0 2 -3l-11 -76q0 -3 -2 -3zM109 154h-62q-2 0 -2 3l54 384q0 3 2 3h62q2 0 2 -3l-54 -384q0 -3 -2 -3z" />
<glyph horiz-adv-x="308" d="M165 147h-66q-1 0 -1 4l5 38q5 37 32.5 75t54.5 68.5t30 49.5l6 37q6 38 -9 49.5t-41 11.5q-20 0 -43.5 -4.5t-36 -8.5t-15.5 -5q-3 -2 -3 1l-6 56q0 3 1 4q50 25 114 25q25 0 43.5 -3.5t38.5 -15t28 -38t2 -66.5l-6 -43q-5 -33 -60 -98t-59 -95l-5 -38q-1 -4 -4 -4z M146 0h-69q-3 0 -3 3l11 77q0 3 3 3h69q3 0 3 -3l-11 -77q0 -3 -3 -3z" />
<glyph horiz-adv-x="167" d="M-37 -82q-1 2 -1 3t30.5 82t31.5 83q2 3 4 3h64q2 0 1 -3l-78 -164q-2 -4 -4 -4h-48zM51 296q-3 0 -3 4l12 81q0 3 3 3h69q3 0 3 -3l-12 -81q0 -4 -3 -4h-69z" />
<glyph horiz-adv-x="238" d="M127 544q5 0 5 -4l-20 -138q0 -3 -3 -3h-57q-2 0 -2 3l20 137q0 5 2 5h55zM235 544q5 0 5 -4l-20 -138q0 -3 -3 -3h-56q-2 0 -2 3l20 137q0 5 2 5h54z" />
<glyph horiz-adv-x="370" d="M130 220h84l27 114h-84zM74 0h-52q-3 0 -3 2l39 162h-53q-3 0 -3 3l7 50q0 3 4 3h60l27 114h-58q-2 0 -2 3l7 50q0 3 3 3h63q36 149 36 151q0 3 3 3h54q4 0 2 -3l-36 -151h84q35 149 35 151q0 3 3 3h53q3 0 3 -3l-36 -151h50q2 0 2 -3l-7 -50q0 -3 -3 -3h-58l-26 -114h55 q2 0 2 -3l-7 -50q0 -3 -3 -3h-61q-39 -159 -39 -161q0 -3 -3 -3h-54q-2 1 -2 3l40 161h-84q-39 -159 -39 -161q0 -3 -3 -3z" />
<glyph horiz-adv-x="393" d="M126 -61q-3 0 -3 3l8 54q-71 2 -127 30q-2 1 -1 4l29 59q1 2 4 2l6 -3q7 -2 19 -6t27 -7.5t35.5 -6t40.5 -2.5q44 0 70 13t31 52l6 43q4 29 -15 44.5t-71 20.5q-80 8 -111.5 35t-20.5 98l8 55q16 111 147 120l8 54q0 3 3 3h45q4 0 4 -3l-8 -54q65 -4 107 -25q3 -1 1 -4 l-28 -57q-1 -2 -4 -1t-16 5t-41 8.5t-55 4.5q-38 0 -60 -12t-27 -47l-6 -41q-4 -32 14 -46t68 -21q81 -10 113 -36.5t22 -95.5l-8 -57q-17 -120 -157 -126l-8 -54q0 -3 -4 -3h-45z" />
<glyph horiz-adv-x="522" d="M347 -4q-39 0 -60 17.5t-14 68.5l11 78q12 84 99 84q17 0 29 -2.5t24.5 -10.5t17 -26t0.5 -45l-11 -78q-5 -36 -21.5 -56.5t-33.5 -25t-41 -4.5zM139 300q-38 0 -59 17.5t-14 68.5l11 78q12 84 98 84q17 0 29 -2.5t24.5 -10.5t17.5 -26t1 -45l-11 -78q-12 -86 -97 -86z M122 -4h-58q-2 0 -1 3q31 60 165 273.5t164 272.5q0 3 3 3h59q4 0 1 -3l-329 -546q-2 -3 -4 -3zM146 351q18 0 28.5 8t14.5 35l9 63q3 24 -5 32.5t-26 8.5q-19 0 -30 -8.5t-14 -32.5l-9 -63q-4 -27 4.5 -35t27.5 -8zM354 46q18 0 29 8.5t14 33.5l9 64q3 25 -4.5 33t-25.5 8 q-39 0 -45 -41l-9 -64q-3 -25 5.5 -33.5t26.5 -8.5z" />
<glyph horiz-adv-x="394" d="M158 -4q-17 0 -29.5 1t-29.5 4t-27.5 9.5t-23 16.5t-16.5 25.5t-8 37t2 50.5l4 29q4 33 20 67t30 52l14 17q-2 5 -4.5 13.5t-6.5 37t2 56.5l3 23q15 113 135 113q30 0 49 -4.5t35.5 -27t16.5 -64.5q0 -32 -6 -32h-49v21q0 33 -14 44t-37 11q-57 0 -69 -66l-3 -16 q-4 -22 2 -47.5t11.5 -39t26.5 -58.5l69 -159q11 18 12 25l14 98q0 3 3 3h49q3 0 3 -3l-15 -108q-2 -12 -11 -29t-17 -28l-8 -11q28 -52 29 -54q2 -3 -1 -3h-66q-3 0 -4 3l-6 14q-31 -21 -79 -21zM166 53q12 0 22.5 3.5t15.5 6.5l4 3l-83 184q-26 -30 -33 -89l-2 -16 q-7 -55 12 -73.5t64 -18.5z" />
<glyph horiz-adv-x="140" d="M132 544q5 0 5 -4l-20 -138q0 -3 -3 -3h-57q-2 0 -2 3l20 137q0 5 2 5h55z" />
<glyph horiz-adv-x="148" d="M0 -49q-4 -3 -4 2l19 136q0 3 3 3h58q1 0 1 -3l-12 -89q0 -1 -3 -4z" />
<glyph horiz-adv-x="260" d="M111 -49q-4 -4 -4 2l19 136q0 3 3 3h58q2 0 2 -3l-12 -89l-4 -4zM0 -49q-4 -3 -4 2l19 136q0 3 3 3h58q1 0 1 -3l-12 -89q0 -1 -3 -4z" />
<glyph horiz-adv-x="387" d="M197 -4q-37 0 -62.5 6.5t-50 25.5t-33 62.5t0.5 109.5h-35q-2 0 -2 3l6 42q0 3 3 3h35l7 51h-35q-2 0 -2 3l6 43q0 3 3 3h35q16 115 67.5 157.5t135.5 42.5q70 0 120 -25q2 -2 1 -5l-29 -56q-1 -3 -3 -2q-3 1 -15 4.5t-36.5 8t-47.5 4.5q-49 0 -75 -27t-40 -102h114 q2 0 2 -3l-6 -43q0 -3 -3 -3h-115l-7 -51h115q2 0 2 -3l-6 -42q0 -3 -3 -3h-114q-9 -79 10 -105t68 -26q25 0 53 5.5t40.5 10t16.5 6.5q3 1 3 -2l13 -57q1 -3 -1 -4q-2 -2 -15.5 -8.5t-48 -15t-72.5 -8.5z" />
<glyph horiz-adv-x="353" d="M118 -80q-2 0 -2 3l10 74q-22 1 -37 6t-33 19.5t-24 47.5t1 83l11 82q7 48 22.5 80.5t38 47t39 19.5t37.5 6l10 73q0 3 4 3h41q2 0 2 -3l-10 -73q37 -1 81 -16q2 -1 0 -4l-24 -50q-1 -2 -3 -2h-4q-4 1 -11.5 2.5t-16.5 2.5t-22.5 1.5t-26.5 0.5q-33 0 -54.5 -18.5 t-29.5 -76.5l-10 -70q-9 -60 7 -78.5t50 -18.5q13 0 27 1t24.5 2.5t18.5 3.5t13 3l5 1q3 0 3 -2t4 -26t5 -25q1 -3 -3 -5q-32 -16 -88 -17l-10 -74q0 -3 -4 -3h-41z" />
<glyph horiz-adv-x="591" d="M267 106q27 0 43 11.5t21 45.5l15 110q3 18 -7.5 29t-22 13.5t-24.5 2.5q-26 0 -41 -18t-21 -64l-6 -45q-5 -36 2 -56t16.5 -24.5t24.5 -4.5zM235 -110q-221 0 -221 251q0 97 20.5 169.5t51.5 114t75.5 67.5t84.5 34t86 8q49 0 86 -9.5t71 -33.5t52.5 -73t18.5 -121 q0 -138 -39 -192t-104 -54q-48 0 -69 30q-35 -31 -91 -31q-52 0 -79 28.5t-16 109.5l7 52q9 66 40 100t77 34q28 0 45.5 -6t21.5 -12l4 -6l2 18q0 2 3 2h55q2 0 2 -2l-29 -205q-8 -56 37 -56q38 0 56.5 36t18.5 150q0 107 -46 147t-133 40q-117 0 -182.5 -75.5t-65.5 -252.5 q0 -202 169 -202q37 0 75.5 5t57 9.5t21.5 5.5q2 1 2 -1l7 -49q-2 -3 -3 -4q-4 -2 -22 -7.5t-60.5 -12t-86.5 -6.5z" />
<glyph horiz-adv-x="200" d="M56 -75l-5 3q-2 2 -6.5 14t-10 55t-5.5 104q0 106 12 196t27.5 142t33.5 90.5t28.5 52t14.5 15.5q3 3 5 3h55q2 0 0 -3q-112 -168 -112 -498q0 -56 4.5 -98.5t8 -56.5t5.5 -16q3 -3 0 -3h-55z" />
<glyph horiz-adv-x="199" d="M43 -75h-55q-3 0 0 3q4 4 13.5 18t27.5 55t33.5 93.5t27 140t11.5 187.5q0 137 -19 175q-2 3 2 3h55q1 0 4 -3t7.5 -15t10 -54.5t5.5 -102.5q0 -108 -12.5 -199t-27.5 -141.5t-35.5 -91t-28.5 -50t-14 -15.5q-3 -3 -5 -3z" />
<glyph horiz-adv-x="249" d="M110 308q-2 0 -2 4l11 75q-56 -37 -58 -38q-3 -1 -4 1l-13 34q-1 1 -0.5 2.5t1.5 2.5l57 37q-44 36 -46 37q-3 2 0 5l23 35q2 2 3 1l48 -38l11 75q0 3 2 3h37q3 0 3 -3l-11 -75q56 37 57 38q2 2 4 -1l14 -35q2 -4 -1 -5l-58 -37q45 -36 47 -37q2 -2 -1 -5l-22 -34 q-2 -4 -5 -1l-46 38l-11 -75q0 -4 -3 -4h-37z" />
<glyph horiz-adv-x="197" d="M1 -74l95 674h119q2 0 2 -3l-7 -54q0 -3 -4 -3h-57l-78 -555h57q3 0 3 -3l-8 -53q0 -3 -3 -3h-119z" />
<glyph horiz-adv-x="197" d="M96 -74h-120q-2 0 -2 3l8 53q0 3 2 3h58l78 555h-58q-1 0 -1 3l7 54q0 3 3 3h120z" />
<glyph horiz-adv-x="275" d="M13 188q-1 0 -1 3l8 58q0 3 2 3h220q2 0 2 -3l-8 -58q0 -3 -3 -3h-220z" />
<glyph horiz-adv-x="315" d="M0 188q-1 0 -1 3l8 58q0 3 2 3h286q2 0 2 -3l-8 -58q0 -3 -3 -3h-286z" />
<glyph horiz-adv-x="282" d="M4 -3q-2 0 -1 3q1 1 104 272.5t103 272.5q2 3 3 3h64q5 0 3 -3q-1 -1 -104 -272.5t-103 -272.5q-1 -3 -3 -3h-66z" />
<glyph horiz-adv-x="256" d="M17 188q-1 0 -1 3l8 58q0 3 2 3h193q3 0 3 -3l-8 -58q0 -3 -4 -3h-193z" />
<glyph horiz-adv-x="362" d="M26 189q-2 0 -2 3l8 56q0 3 2 3h282q3 0 3 -3l-8 -56q0 -3 -3 -3h-282zM113 44q-2 0 -2 3l11 79q0 3 3 3h67q2 0 2 -3l-11 -79l-3 -3h-67zM151 312q-3 0 -3 3l11 78q0 3 4 3h67q1 0 1 -3l-11 -78q0 -3 -2 -3h-67z" />
<glyph horiz-adv-x="363" d="M31 0q-3 0 -3 2l31 222h-24q-2 0 -2 3l7 50q0 3 3 3h25l20 145q17 123 157 123q63 0 111 -24q1 -1 1 -3t-11 -29t-12 -30q0 -1 -3 -1l-6 2q-6 2 -15 4.5t-20.5 4.5t-26 4t-27.5 2q-30 0 -49 -12t-24 -49l-19 -137h109q2 0 2 -3l-7 -50q0 -3 -3 -3h-109l-21 -154h174 q2 0 2 -3l-9 -64q0 -3 -3 -3h-248z" />
</font>
</defs>
</svg>
