<?xml version="1.0" standalone="no"?>
<!DOCTYPE svg PUBLIC "-//W3C//DTD SVG 1.1//EN" "http://www.w3.org/Graphics/SVG/1.1/DTD/svg11.dtd" >
<svg xmlns="http://www.w3.org/2000/svg" xmlns:xlink="http://www.w3.org/1999/xlink" version="1.1">
<metadata></metadata>
<defs>
<font id="sport1light_italic" horiz-adv-x="579" >
<font-face units-per-em="1000" ascent="750" descent="-250" />
<missing-glyph horiz-adv-x="228" />
<glyph unicode=" "  horiz-adv-x="228" />
<glyph unicode="&#x09;" horiz-adv-x="228" />
<glyph unicode="&#xa0;" horiz-adv-x="228" />
<glyph unicode="!" horiz-adv-x="254" d="M117 0h-60q-4 0 -4 4l11 74q0 4 4 4h60q4 0 4 -4l-11 -74q0 -4 -4 -4zM135 182h-48q-2 0 -2 4l69 490q0 4 3 4h48q4 0 4 -4l-69 -490q0 -4 -5 -4z" />
<glyph unicode="&#x22;" horiz-adv-x="301" d="M168 680q3 0 4.5 -0.5t0.5 -3.5l-21 -149q0 -4 -4 -4h-50q-4 0 -4 4l21 148q0 5 4 5h49zM293 680q4 0 3 -4l-21 -149q0 -4 -3 -4h-50q-3 0 -3 4l21 148q0 5 4 5h49z" />
<glyph unicode="#" horiz-adv-x="494" d="M166 263h142l44 168h-142zM95 0h-38q-2 0 -2 3l54 214h-84q-4 0 -4 4l6 38q0 4 4 4h89l44 168h-90q-4 0 -3 4l5 38q1 4 4 4h96q51 197 51 199q0 4 5 4h38q2 0 2 -3l-50 -200h142q51 196 51 199q0 4 5 4h38q3 0 2 -4l-50 -199h81q4 0 4 -4l-6 -38q0 -4 -4 -4h-87l-44 -168 h88q4 0 4 -4l-6 -38q0 -4 -4 -4h-93q-55 -210 -55 -213q0 -4 -5 -4h-39q-1 1 -1 3l54 214h-142q-55 -210 -55 -213q0 -4 -5 -4z" />
<glyph unicode="$" horiz-adv-x="545" d="M211 -71q-3 0 -3 4l9 62q-50 0 -95.5 9t-64.5 16t-22 10q-2 2 -1 5l20 41q1 2 5 2l10 -3q10 -3 27 -7.5t38.5 -9t50 -7.5t56.5 -3q79 0 124.5 21t54.5 84l9 64q6 45 -26 68.5t-114 29.5q-112 6 -158 39.5t-34 119.5l9 65q19 140 207 145l9 62q0 4 5 4h35q3 0 3 -4l-9 -62 q41 -1 77.5 -8t51 -12.5t18.5 -7.5q4 -1 2 -5l-22 -39q-2 -3 -5 -2q-63 21 -155 21q-31 0 -54.5 -3t-47.5 -12t-39 -28.5t-19 -49.5l-9 -64q-7 -50 25.5 -71.5t112.5 -29.5q120 -12 162.5 -44t31.5 -112l-9 -66q-6 -41 -24 -71t-38.5 -45t-52 -24.5t-52.5 -12t-50 -3.5 l-9 -62q0 -4 -5 -4h-35z" />
<glyph unicode="%" horiz-adv-x="713" d="M154 -5h-44q-5 0 -2 4q74 113 228 340.5t228 341.5q3 4 7 4h43q4 0 1 -4q-1 -1 -227 -340.5t-227 -341.5q-2 -4 -7 -4zM484 36q32 0 51 12.5t24 49.5l13 97q5 36 -9 48t-46 12q-33 0 -53 -12.5t-25 -47.5l-13 -97q-5 -38 10.5 -50t47.5 -12zM478 -5q-23 0 -39 3t-32 12.5 t-22.5 31t-1.5 53.5l15 105q8 57 41 76.5t84 19.5q22 0 37 -3t31.5 -11.5t23 -29t1.5 -52.5l-15 -105q-5 -33 -17 -54.5t-31 -30.5t-35.5 -12t-39.5 -3zM213 425q32 0 51.5 12t24.5 50l14 97q5 35 -9.5 47.5t-46.5 12.5q-33 0 -52.5 -12.5t-24.5 -47.5l-14 -97 q-5 -38 10 -50t47 -12zM208 384q-23 0 -38.5 3t-32 12.5t-22.5 30.5t-2 53l14 105q8 57 41.5 77t84.5 20q22 0 37 -3t31.5 -11.5t22.5 -29.5t2 -53l-14 -105q-4 -32 -16.5 -53.5t-31.5 -30.5t-36 -12t-40 -3z" />
<glyph unicode="&#x26;" horiz-adv-x="544" d="M241 -5q-19 0 -33.5 0.5t-32.5 3t-30.5 6.5t-27.5 10.5t-23.5 16t-18 23t-12 31t-4.5 39.5t4 50l5 31q7 43 29 86t41 64l19 22q-1 2 -3 6.5t-8 19t-8.5 30t-4.5 40t3 49.5l4 28q5 37 23 64.5t43.5 42t51.5 21t54 6.5q32 0 53 -3t42 -13.5t31.5 -34t10.5 -59.5t-8 -36h-41 q-1 0 -1 23q0 45 -23.5 61t-65.5 16q-41 0 -73.5 -21t-39.5 -73l-3 -24q-5 -44 5.5 -82t46.5 -103l130 -235q22 27 23 37l20 138q0 4 4 4h44q4 0 4 -4l-20 -142q-2 -14 -14 -33.5t-23 -32.5l-11 -12q27 -49 29 -52q2 -4 -1 -4h-57q-4 0 -7 4l-10 19q-43 -28 -116 -28z M248 45q23 0 43.5 5.5t30.5 10.5l9 5l-149 264q-5 -5 -13.5 -15t-24.5 -42.5t-21 -67.5l-4 -27q-12 -81 20 -107t109 -26z" />
<glyph unicode="'" horiz-adv-x="186" d="M171 680q3 0 4.5 -0.5t0.5 -3.5l-21 -149q0 -4 -4 -4h-50q-4 0 -4 4l21 148q0 5 4 5h49z" />
<glyph unicode="(" horiz-adv-x="264" d="M106 -94q-2 0 -6 4t-10.5 19.5t-16 74.5t-9.5 142q0 132 16 242t36 171.5t45.5 108.5t37 59.5t18.5 18.5q4 4 7 4h42q4 0 0 -4q-7 -7 -18 -21t-36.5 -64t-45.5 -112t-36 -168.5t-16 -228.5q0 -80 9 -141t15.5 -79.5t9.5 -21.5q4 -4 -1 -4h-41z" />
<glyph unicode=")" horiz-adv-x="264" d="M50 -94h-41q-3 0 1 4q7 7 17.5 20.5t36.5 63.5t45.5 111.5t35.5 168t16 229.5q0 80 -8.5 140.5t-15.5 80t-10 22.5q-3 4 1 4h42q3 0 7 -4t10.5 -19t16 -73t9.5 -140q0 -132 -16 -243t-36 -173t-46 -109t-37.5 -60t-18.5 -19q-4 -4 -9 -4z" />
<glyph unicode="*" horiz-adv-x="333" d="M167 402q-4 0 -3 4l14 100q-88 -49 -90 -50t-3 2l-13 27q-2 3 2 6l89 50q-73 48 -75 50q-3 1 0 6l20 28q2 2 4 1l76 -50l14 100q0 4 4 4h32q4 0 3 -4l-14 -100q88 49 89 50q3 2 6 -1l11 -28q2 -3 -2 -6l-90 -50q74 -49 76 -50q2 -2 1 -6l-19 -27q-4 -5 -7 -2l-75 50 l-14 -100q0 -4 -4 -4h-32z" />
<glyph unicode="+" horiz-adv-x="507" d="M202 79q-4 0 -4 4l24 168h-161q-4 0 -4 4l6 42q0 4 5 4h161l24 172q0 4 5 4h42q3 0 3 -4l-24 -172h162q4 0 3 -4l-6 -42q0 -4 -4 -4h-162l-24 -168q0 -4 -4 -4h-42z" />
<glyph unicode="," horiz-adv-x="204" d="M-3 -95q-2 0 -2 3q0 1 17 44t35 86.5t18 44.5q1 4 5 4h55q4 0 3 -4q0 -1 -14 -28t-30.5 -59t-30.5 -60l-14 -27q-1 -4 -5 -4h-37z" />
<glyph unicode="-" horiz-adv-x="356" d="M46 250q-3 0 -3 4l6 42q0 4 4 4h255q4 0 4 -4l-6 -42q0 -4 -5 -4h-255z" />
<glyph unicode="." horiz-adv-x="209" d="M34 0q-4 0 -4 4l11 74q0 4 4 4h62q3 0 3 -4l-11 -74q0 -4 -3 -4h-62z" />
<glyph unicode="/" horiz-adv-x="388" d="M39 -4q-3 0 -3 2q0 1 70 171t141 340.5t71 171.5q1 4 5 4h44q5 0 2 -4q0 -1 -140.5 -340.5t-140.5 -340.5q-1 -4 -5 -4h-44z" />
<glyph unicode="0" horiz-adv-x="546" d="M238 44q39 0 63.5 6t50 24.5t41 58t24.5 101.5l31 217q4 42 5.5 71.5t-7.5 50t-18.5 33t-28 19.5t-35.5 9t-42 2q-37 0 -61.5 -6t-49.5 -24t-41 -56.5t-25 -98.5l-31 -217q-8 -37 -5.5 -65.5t5 -49t13.5 -34t20.5 -22t26.5 -12.5t30.5 -5.5t33.5 -1.5zM231 -10 q-19 0 -32.5 0.5t-32 3t-31.5 7t-28 13t-24.5 20.5t-18 30.5t-12 41t-3 54t5.5 68.5l33 230q9 63 27.5 107.5t40 68.5t53.5 37t57.5 16t62.5 3q20 0 33 -0.5t31.5 -3t31.5 -6.5t28 -12.5t24.5 -20t18.5 -29.5t12.5 -40t3.5 -52.5t-5 -67.5l-33 -230q-10 -67 -29.5 -113.5 t-41 -70.5t-55 -36.5t-56.5 -15t-61 -2.5z" />
<glyph unicode="1" horiz-adv-x="487" d="M254 0h-46q-5 0 -4 4l85 607q-136 -99 -138 -100q-3 -3 -3 1q0 2 -3 23t-3 23q0 3 3 6l151 114q2 2 7 2h46q4 0 4 -4l-95 -672q0 -4 -4 -4z" />
<glyph unicode="2" horiz-adv-x="497" d="M378 0h-349q-3 0 -3 2l8 57q0 2 2 4q205 206 249 254q96 107 102 152l10 74q4 31 -3.5 51t-27 28.5t-38 11t-47.5 2.5t-65 -5t-56.5 -9.5t-22.5 -5.5q-6 -2 -6 3q0 2 -2 19.5t-2 19.5q0 4 3 5q4 2 20.5 8t56 12.5t82.5 6.5q37 0 65.5 -5t55.5 -19.5t39 -45t5 -76.5 l-11 -75q-10 -70 -157 -227q-42 -46 -174 -180l-1 -8h275q2 0 2 -4l-6 -46q-1 -4 -4 -4z" />
<glyph unicode="3" horiz-adv-x="506" d="M44 16q-4 2 -2 5q2 2 8.5 20.5t6.5 20.5t6 2q4 -1 24 -5.5t57.5 -9.5t67.5 -5q22 0 36.5 1t35.5 6t34.5 14.5t25.5 27.5t15 44l10 74q5 35 -4.5 59t-29 33.5t-34.5 13t-31 3.5h-65q-3 0 -3 4l6 44q0 4 5 4h65q39 0 72.5 24.5t40.5 72.5l11 74q5 32 -3.5 52t-28.5 28 t-37.5 10.5t-44.5 2.5q-30 0 -66.5 -5t-57 -9.5t-22.5 -5.5q-6 -2 -6 3q0 3 -1.5 21t-1.5 19q0 3 3 5q5 2 20 7t55 12t83 7q25 0 44 -1.5t46 -10t43.5 -23t26.5 -43t4 -68.5l-11 -74q-5 -36 -21.5 -65t-29.5 -40l-14 -11l-1 -6q2 -1 6 -4t14 -14t15 -25.5t10.5 -39.5 t-1.5 -55l-11 -74q-5 -33 -17.5 -58.5t-31 -41t-38 -25.5t-44 -14t-41.5 -5.5t-38 -1.5q-43 0 -83 6.5t-59 13.5z" />
<glyph unicode="4" horiz-adv-x="507" d="M332 0h-46q-5 0 -5 4l19 132h-262q-2 0 -2 3l8 55q0 1 1.5 2.5t1.5 2.5q1 2 132.5 238.5t132.5 238.5q2 4 5 4h51q4 0 2 -4l-263 -478l-2 -8h202l21 147q0 4 5 4h47q3 0 3 -4l-21 -147h75q4 0 4 -4l-7 -46q0 -4 -4 -4h-75l-19 -132q0 -4 -4 -4z" />
<glyph unicode="5" horiz-adv-x="507" d="M208 -10q-82 0 -160 26q-3 2 -2 5l14 40q1 2 7 2l9 -2q10 -2 25.5 -4.5t34 -5.5t40.5 -5t40 -2q27 0 45.5 2.5t42.5 10.5t39 27.5t19 50.5l10 75q9 65 -15.5 92.5t-78.5 27.5h-169q-4 0 -4 4l48 338q0 8 10 8h301q3 0 3 -4l-6 -44q0 -4 -4 -4h-257l-35 -246h120 q14 0 25 -0.5t27 -3.5t27 -8t25 -13.5t21 -21t15 -30.5t7 -41.5t-3 -53.5l-11 -75q-21 -145 -210 -145z" />
<glyph unicode="6" horiz-adv-x="497" d="M217 42q58 0 94.5 26.5t49.5 109.5l6 39q11 76 -17.5 104.5t-90.5 28.5q-14 0 -46.5 -6t-58.5 -12l-25 -7l-27 -187q-7 -50 26.5 -73t88.5 -23zM212 -10q-23 0 -44.5 2.5t-47.5 11.5t-43.5 24t-27 42.5t-4.5 63.5l57 406q5 37 21.5 64.5t37 43.5t48 26t51 13t48.5 3 q99 0 151 -26q3 -1 1 -5q0 -1 -4 -11l-8 -20l-3 -9q0 -2 -4 -2q-1 0 -9.5 2t-22.5 4.5t-31 5.5t-38 5t-39 2q-60 0 -97 -20.5t-45 -77.5l-23 -161q94 25 136 25q13 0 22 -0.5t22.5 -1.5t23 -4t22 -7.5t20 -11t18 -16.5t14 -23t9 -29.5t3 -37.5t-3.5 -47l-7 -50 q-7 -50 -25 -86.5t-38 -54.5t-48.5 -28.5t-47.5 -12.5t-44 -2z" />
<glyph unicode="7" horiz-adv-x="497" d="M147 0h-53q-4 0 -1 4l318 613l1 8h-286q-3 0 -3 4l7 46q0 5 4 5h346q2 0 2 -3l-7 -53q0 -1 -1.5 -3t-1.5 -3t-32.5 -64t-79.5 -153t-93.5 -180t-79.5 -153l-33 -64q-3 -4 -7 -4z" />
<glyph unicode="8" horiz-adv-x="506" d="M219 41q64 0 98.5 24t44.5 96l7 49q10 71 -18 96t-87 25q-61 0 -99.5 -25.5t-48.5 -95.5l-7 -49q-10 -71 17.5 -95.5t92.5 -24.5zM267 383q120 0 134 101l7 49q15 105 -101 105q-51 0 -90.5 -24t-47.5 -81l-7 -49q-8 -55 21 -78t84 -23zM211 -11q-41 0 -69 6t-53 22.5 t-33.5 51t-1.5 87.5l8 58q4 30 15 56t24 41t25.5 26t20.5 15l8 4v3q-2 1 -6.5 4t-14 13t-16.5 22.5t-11 34t-1 46.5l8 57q7 47 29 79.5t53.5 47.5t60 21t60.5 6q168 0 146 -154l-8 -57q-3 -24 -12.5 -45t-21 -34t-22 -22.5t-17.5 -13.5l-7 -4v-3q1 -1 3.5 -2.5t9 -7 t11.5 -12.5t12.5 -18.5t10.5 -26t5 -34t-2 -42.5l-8 -58q-8 -55 -27 -90t-49.5 -51t-59.5 -21t-70 -5z" />
<glyph unicode="9" horiz-adv-x="507" d="M300 638q-28 0 -48 -4t-41.5 -17t-35.5 -42t-20 -73l-7 -54q-10 -76 17.5 -104.5t89.5 -28.5q14 0 47 6.5t59 12.5l26 7l28 201q7 50 -26.5 73t-88.5 23zM305 690q23 0 44.5 -2.5t47.5 -11.5t43.5 -24t27 -42t4.5 -63l-57 -406q-6 -46 -28 -77.5t-54.5 -46.5t-62 -21 t-62.5 -6q-43 0 -81.5 6t-53 10.5t-18.5 6.5q-5 2 -2 6q15 30 15 40q0 2 5 2q4 -1 23 -5t55 -8t65 -4q130 0 143 98l20 146q-93 -25 -136 -25q-12 0 -21 0.5t-23 1.5t-23 4t-22 7.5t-21 11t-18 16.5t-14 23t-9 29.5t-3 37.5t3 47l9 65q7 51 25 87t38.5 54.5t49 28.5t47.5 12 t44 2z" />
<glyph unicode=":" horiz-adv-x="217" d="M38 0q-4 0 -4 4l11 74q0 4 4 4h62q3 0 3 -4l-11 -74q0 -4 -3 -4h-62zM93 395q-3 0 -3 4l10 74q1 4 5 4h62q3 0 2 -4l-10 -74q-1 -4 -4 -4h-62z" />
<glyph unicode=";" horiz-adv-x="217" d="M-17 -95q-3 0 -3 4l71 174q1 4 4 4h56q3 0 2 -4q0 -1 -14 -28.5t-30 -59t-30 -59.5l-14 -27q-1 -4 -5 -4h-37zM93 395q-3 0 -3 4l11 74q0 4 3 4h62q4 0 4 -4l-11 -74q0 -4 -4 -4h-62z" />
<glyph unicode="&#x3c;" horiz-adv-x="506" d="M413 93q-4 1 -176 79t-175 80q-4 1 -4 4l6 39q0 3 4 4q2 1 199 80t198 79q2 1 3 0.5t0 -3.5l-6 -45q-1 -3 -5 -6l-317 -126v-6q278 -123 281 -125q3 -1 3 -6l-6 -45q-1 -4 -5 -3z" />
<glyph unicode="=" horiz-adv-x="507" d="M75 348q-4 0 -4 4l6 42q0 4 5 4h373q4 0 3 -4l-6 -42q0 -4 -4 -4h-373zM48 155q-4 0 -4 4l6 42q0 4 5 4h373q3 0 3 -4l-6 -42q0 -4 -4 -4h-373z" />
<glyph unicode="&#x3e;" horiz-adv-x="506" d="M39 93q-5 -1 -3 3l6 45q2 5 5 6l317 125l1 6q-279 124 -282 126q-4 3 -3 6l6 45q1 3 4 3q1 0 174.5 -78.5t177.5 -80.5q3 -1 3 -4l-5 -39q0 -2 -5 -4q-2 -1 -196.5 -79.5t-199.5 -79.5z" />
<glyph unicode="?" horiz-adv-x="425" d="M221 172h-48q-4 0 -3 4l9 62q5 34 32 71.5t56.5 64t55 56.5t28.5 50l8 59q4 32 -2 52t-22.5 28t-31.5 10.5t-40 2.5q-68 0 -134 -22q-3 -1 -4 2l-6 40q-2 3 2 5q56 28 149 28q25 0 43.5 -2t42 -10t37 -23t21 -43t2.5 -67l-8 -60q-4 -28 -30.5 -62.5t-57 -62t-57 -60.5 t-29.5 -58l-8 -61q-1 -4 -5 -4zM203 0h-60q-4 0 -3 4l10 75q0 4 5 4h60q2 0 2 -4l-10 -75q0 -4 -4 -4z" />
<glyph unicode="@" horiz-adv-x="813" d="M338 -126q-45 0 -84.5 7.5t-80.5 28.5t-70 54.5t-47.5 91t-18.5 132.5q0 472 428 472q66 0 116.5 -12t97 -43t72 -92.5t25.5 -151.5q0 -155 -43 -223t-133 -68q-72 0 -99 44q-47 -45 -134 -45q-154 0 -128 174l8 54q24 167 156 167q96 0 120 -36l4 28q0 3 3 3h41 q4 0 4 -3l-37 -264q-11 -76 68 -76q28 0 47 8t37 31t27 73t9 127q0 79 -22 133t-62 81t-84.5 37.5t-102.5 10.5t-108 -11t-98.5 -40t-82.5 -74.5t-55 -120.5t-21 -173q0 -81 23 -138t62.5 -85.5t80.5 -40.5t89 -12q143 0 218 25q4 2 5 -2l7 -37q0 -4 -3 -5q-87 -29 -234 -29 zM376 116q104 0 115 82l20 142q3 24 -7 40.5t-28.5 23.5t-34 10t-30.5 3q-50 0 -78.5 -27t-38.5 -97l-7 -47q-11 -78 15.5 -104t73.5 -26z" />
<glyph unicode="A" horiz-adv-x="568" d="M142 208h262l-69 374h-17zM41 0h-51q-4 0 -3 4q0 1 159 336t159 337q0 3 5 3h61q3 0 5 -3q0 -2 62 -337t63 -336q2 -4 -2 -4h-52q-3 0 -4 4l-28 149h-299q-69 -146 -70 -149q-1 -4 -5 -4z" />
<glyph unicode="B" horiz-adv-x="572" d="M113 54h164q30 0 52 3t45.5 13t38 31t18.5 54l8 61q4 27 -4 47.5t-21 30.5t-33.5 16t-35.5 7.5t-33 1.5h-162zM157 373h161q45 0 70 -5q64 94 64 160q0 34 -8.5 55t-27.5 30t-35.5 11t-46.5 2h-141zM266 0h-218l96 680h200q29 0 47.5 -1.5t43.5 -9t39.5 -22t25 -42 t10.5 -66.5q0 -48 -16.5 -87.5t-55.5 -100.5q71 -34 58 -134l-8 -61q-6 -43 -22 -73.5t-35.5 -46.5t-50.5 -24.5t-54 -10t-60 -1.5z" />
<glyph unicode="C" horiz-adv-x="529" d="M248 -10q-21 0 -37 1t-35 4t-34 8t-30.5 13.5t-26 21t-19.5 30.5t-13.5 40.5t-4.5 53t5 66.5l32 230q9 62 29 106.5t43.5 68.5t58.5 37t63 16.5t67 3.5q105 0 167 -31q2 -2 1 -5q-22 -33 -22 -38q-4 -4 -7 -2q-66 22 -147 22q-28 0 -48.5 -2.5t-47 -13t-44.5 -29 t-33.5 -54.5t-22.5 -86l-30 -218q-3 -41 -3.5 -71.5t10 -51.5t22 -34t31.5 -20t39 -9.5t44 -2.5q71 0 164 31q2 2 4 -2q1 -2 7 -19t6 -18q1 -2 -3 -5q-82 -41 -185 -41z" />
<glyph unicode="D" horiz-adv-x="589" d="M113 54h152q42 0 70 6t56 24t45.5 56.5t25.5 98.5l29 207q2 32 4 56.5t-5 43.5t-12.5 32t-18.5 22t-24 14.5t-28 8t-30.5 3.5t-31.5 1h-152zM257 0h-209l96 680h209q18 0 30 -0.5t30.5 -2t30.5 -4.5t28.5 -8.5t27 -14.5t22 -21t18 -29t11 -38t4.5 -48.5t-5 -60.5 l-31 -220q-9 -65 -30 -110.5t-44.5 -69t-59.5 -36t-62 -15t-66 -2.5z" />
<glyph unicode="E" horiz-adv-x="529" d="M48 0l96 680h386q3 0 3 -4l-6 -46q0 -4 -5 -4h-329l-36 -253h285q4 0 4 -4l-7 -46q0 -4 -4 -4h-285l-37 -265h329q3 0 3 -4l-6 -46q-1 -4 -5 -4h-386z" />
<glyph unicode="F" horiz-adv-x="524" d="M52 0q-4 0 -4 4l95 676h386q4 0 4 -4l-7 -46q0 -4 -4 -4h-329l-40 -286h285q3 0 3 -4l-6 -46q-1 -4 -5 -4h-285l-40 -282q0 -4 -3 -4h-50z" />
<glyph unicode="G" d="M237 -10q-22 0 -39 1.5t-38 5t-35 11t-30.5 19.5t-24 29.5t-16 42t-6.5 56.5t5 73l32 230q9 63 30 108t45 68.5t60 36.5t62.5 16t63.5 3q50 0 96.5 -7.5t67.5 -14t26 -9.5q3 -1 1 -5l-20 -38q-2 -3 -5 -2q-4 1 -29 6t-68 10.5t-76 5.5q-28 0 -47 -2t-46.5 -12 t-45.5 -28.5t-34.5 -55t-23.5 -87.5l-31 -217q-7 -37 -4 -65t6.5 -48t15.5 -33.5t23 -22t28 -13t32 -6t34 -1.5l168 12l33 236h-116q-4 0 -4 4l7 44q0 4 4 4h173l-47 -333q-169 -22 -227 -22z" />
<glyph unicode="H" horiz-adv-x="618" d="M52 0q-4 0 -4 4l95 672q0 4 4 4h50q3 0 3 -4l-43 -307h327l43 307q0 4 4 4h50q3 0 3 -4l-95 -672q0 -4 -3 -4h-50q-4 0 -4 4l44 315h-327l-44 -315q-1 -4 -3 -4h-50z" />
<glyph unicode="I" horiz-adv-x="234" d="M52 0q-4 0 -4 4l95 672q0 4 4 4h50q3 0 3 -4l-95 -672q0 -4 -3 -4h-50z" />
<glyph unicode="J" horiz-adv-x="443" d="M147 -10q-25 0 -60 4.5t-56.5 8.5t-24.5 5q-3 2 -2 5l18 40q1 3 4 2q2 -1 23.5 -3.5t52.5 -5t50 -2.5q29 0 46 2.5t37 11.5t31.5 30.5t16.5 56.5l75 531q0 4 3 4h50q4 0 4 -4l-75 -531q-6 -43 -21.5 -73t-33 -45.5t-44 -24.5t-46 -10.5t-48.5 -1.5z" />
<glyph unicode="K" horiz-adv-x="542" d="M52 0q-4 0 -4 4l95 672q0 4 4 4h50q3 0 3 -4l-43 -304h32q281 301 284 304q4 4 6 4h66q5 0 1 -4l-310 -329q232 -341 233 -343q3 -4 -1 -4h-67q-3 0 -6 4l-213 315h-33l-44 -315q-1 -4 -3 -4h-50z" />
<glyph unicode="L" horiz-adv-x="504" d="M48 0l95 676q0 4 5 4h50q3 0 2 -4l-87 -622h329q3 0 3 -4l-6 -45q-2 -5 -5 -5h-386z" />
<glyph unicode="M" horiz-adv-x="719" d="M52 0q-4 0 -4 4l95 674q0 2 3 2h71q4 0 5 -2l126 -454h11q247 451 248 453q1 3 6 3h70q2 0 2 -3l-95 -673q0 -4 -3 -4h-50q-3 0 -3 4l76 542h-15q-221 -399 -222 -401q-3 -4 -6 -4h-54q-5 0 -6 4l-111 400h-15l-76 -541q0 -4 -3 -4h-50z" />
<glyph unicode="N" horiz-adv-x="619" d="M52 0q-4 0 -4 4l95 672q0 4 4 4h72q5 0 6 -4l210 -566h14l80 566q0 4 4 4h49q4 0 4 -4l-95 -672q0 -4 -4 -4h-71q-4 0 -6 4l-210 572h-15l-80 -572q0 -4 -4 -4h-49z" />
<glyph unicode="O" d="M255 44q39 0 66.5 6t56.5 24t47.5 58t27.5 101l31 218q8 60 0 98.5t-31.5 56.5t-49 24t-64.5 6q-30 0 -52.5 -3.5t-47.5 -14.5t-43 -30.5t-32.5 -54t-21.5 -82.5l-30 -218q-2 -33 -4 -58.5t5 -45t13 -33.5t18.5 -23.5t23.5 -15t27.5 -8.5t29.5 -4t30 -1zM248 -10 q-18 0 -30.5 0.5t-30.5 2t-30.5 5.5t-28.5 10t-26.5 15.5t-21.5 22t-17.5 30t-11 39t-4 50.5t5.5 62l33 231q9 62 29.5 107t44.5 68.5t59 37t62 16.5t65 3q18 0 30 -0.5t30 -2t31 -5t29 -9t27 -15t22 -21.5t17.5 -29.5t11 -39t4.5 -49.5t-5 -61l-33 -231q-9 -66 -31 -112.5 t-46 -70.5t-61 -36.5t-61.5 -15t-62.5 -2.5z" />
<glyph unicode="P" horiz-adv-x="557" d="M153 341h162q23 0 40.5 1.5t39 8.5t36 19t26.5 34t16 53l8 55q5 31 -0.5 53t-15.5 34t-29.5 18t-36 7.5t-41.5 1.5h-165zM102 0h-50q-4 0 -4 4l95 676h218q36 0 57.5 -1.5t51 -10.5t44 -26t23 -50t1.5 -80l-8 -56q-7 -46 -25.5 -79t-40 -50t-53 -26.5t-53 -11.5t-51.5 -2 h-162l-40 -283q0 -4 -3 -4z" />
<glyph unicode="Q" horiz-adv-x="572" d="M248 -10q-18 0 -30.5 0.5t-30.5 2t-30.5 5.5t-28.5 10t-26.5 15.5t-21.5 22t-17.5 30t-11 39t-4 50.5t5.5 62l33 231q9 62 29.5 107t44.5 68.5t59 37t62 16.5t65 3q18 0 30 -0.5t30 -2t31 -5t29 -9t27 -15t22 -21.5t17.5 -29.5t11 -39t4.5 -49.5t-5 -61l-33 -231 q-17 -117 -68 -173l44 -53q3 -3 -1 -6l-38 -34q-3 -3 -6 0l-46 56q-52 -27 -147 -27zM306 126q-4 4 1 6l39 35q2 3 5 0l54 -67q35 45 48 133l31 218q8 60 0 98.5t-31.5 56.5t-49 24t-64.5 6q-30 0 -52.5 -3.5t-47.5 -14.5t-43 -30.5t-32.5 -54t-21.5 -82.5l-30 -218 q-2 -33 -4 -58.5t5 -45t13 -33.5t18.5 -23.5t23.5 -15t27.5 -8.5t29.5 -4t30 -1q66 0 103 18z" />
<glyph unicode="R" horiz-adv-x="585" d="M153 340h162q30 0 51 3.5t45.5 14t40 36t21.5 63.5l8 55q6 39 -1.5 63t-28.5 34.5t-41 13.5t-52 3h-165zM102 0h-50q-4 0 -4 4l95 676h218q36 0 58 -1.5t51.5 -11t44 -26t22.5 -50t1 -80.5l-8 -55q-19 -133 -136 -162l95 -290q2 -4 -2 -4h-57q-4 0 -5 4l-89 282h-191 l-40 -282q0 -4 -3 -4z" />
<glyph unicode="S" horiz-adv-x="567" d="M239 -10q-20 0 -39.5 1t-35.5 3t-30.5 4.5t-26.5 5.5t-22 6t-17.5 5.5t-12.5 4.5t-9 4l-3 1q-4 2 -2 5q1 2 10.5 21.5t10.5 20.5q2 3 5 2q5 -2 26 -8.5t66.5 -14.5t89.5 -8q37 0 62 3t52 13t43.5 32t21.5 57l10 69q7 49 -28 70.5t-113 27.5q-126 10 -164.5 45.5 t-27.5 113.5l10 70q21 146 224 146q52 0 95 -7t59 -13t19 -9q4 -2 2 -5l-22 -39q-2 -4 -5 -2q-63 21 -156 21q-32 0 -56 -3.5t-47.5 -12.5t-38 -28.5t-18.5 -48.5l-9 -69q-7 -49 25 -71.5t112 -29.5q122 -10 164 -43t32 -113l-9 -71q-7 -51 -31 -84.5t-63 -48t-72.5 -19 t-80.5 -4.5z" />
<glyph unicode="T" horiz-adv-x="500" d="M185 0q-4 0 -3 4l87 622h-196q-4 0 -4 4l7 46q0 4 4 4h450q4 0 4 -4l-7 -46q0 -4 -4 -4h-197l-87 -622q-1 -4 -4 -4h-50z" />
<glyph unicode="U" horiz-adv-x="604" d="M238 -10q-113 0 -147.5 61.5t-13.5 215.5l58 409q0 4 4 4h49q4 0 4 -4l-57 -403q-12 -80 -9 -131t30.5 -74.5t89.5 -23.5h47q39 0 65.5 9t44 24t29.5 46t18.5 63t14.5 87l57 403q0 4 4 4h49q4 0 4 -4l-58 -409q-11 -76 -25.5 -124t-40.5 -84.5t-67.5 -52.5t-102.5 -16 h-47z" />
<glyph unicode="V" horiz-adv-x="555" d="M206 0q-4 0 -5 4l-125 672q-1 4 2 4h52q4 0 5 -4l107 -578h17q269 575 271 578q3 4 6 4h51q3 0 1 -4l-316 -672q-3 -4 -6 -4h-60z" />
<glyph unicode="W" horiz-adv-x="762" d="M124 0q-3 0 -3 4q0 2 -20.5 336.5t-21.5 335.5q-1 4 3 4h52q3 0 4 -4l32 -578h17q200 434 201 436q2 3 4 3h47q4 0 5 -3l75 -436h18q195 575 196 578q2 4 5 4h51q4 0 3 -4l-231 -672q-1 -4 -4 -4h-73q-2 0 -3 3l-75 421h-11q-192 -417 -193 -420q-2 -4 -5 -4h-73z" />
<glyph unicode="X" horiz-adv-x="520" d="M-9 0q-5 0 -2 4l249 352q-135 317 -136 320q-2 4 3 4h56q2 0 5 -4l110 -259h5q182 257 184 259q4 4 6 4h56q6 0 3 -4l-227 -320q150 -349 151 -352q1 -4 -3 -4h-57q-5 0 -6 4l-124 292h-6q-202 -290 -204 -292q-4 -4 -6 -4h-57z" />
<glyph unicode="Y" horiz-adv-x="492" d="M182 0q-4 0 -4 4l39 272q-142 397 -143 400q-2 4 2 4h57q2 0 5 -4l114 -327h6q205 324 207 327q3 4 5 4h57q5 0 2 -4l-255 -400l-39 -272q0 -4 -4 -4h-49z" />
<glyph unicode="Z" horiz-adv-x="514" d="M14 0q-3 0 -3 2l8 56q0 2 2 4l423 555l1 8h-331q-4 0 -4 4l7 46q0 5 5 5h391q5 0 4 -5l-7 -51q-2 -6 -4 -10l-420 -552l-1 -8h341q3 0 3 -4l-6 -46q-1 -4 -4 -4h-405z" />
<glyph unicode="[" horiz-adv-x="270" d="M41 -93l118 843h129q4 0 4 -4l-6 -39q0 -4 -4 -4h-79l-105 -749h79q3 0 3 -4l-5 -39q-1 -4 -5 -4h-129z" />
<glyph unicode="\" horiz-adv-x="388" d="M271 -4h-45q-4 0 -4 4q0 3 -44 341.5t-45 339.5q-1 4 3 4h43q4 0 5 -4q1 -2 45.5 -340t44.5 -341q0 -4 -3 -4z" />
<glyph unicode="]" horiz-adv-x="270" d="M123 -93h-130q-4 0 -4 4l6 39q0 4 4 4h80l106 749h-80q-4 0 -4 4l6 39q0 4 4 4h130z" />
<glyph unicode="^" horiz-adv-x="506" d="M60 284l224 392q2 4 4 4h39q1 0 3 -4q2 -5 59 -197.5t57 -194.5q0 -4 -3 -4h-46q-3 0 -6 4l-92 317h-5q-179 -314 -181 -317q-3 -4 -6 -4h-46q-4 0 -1 4z" />
<glyph unicode="_" horiz-adv-x="439" d="M-53 -123q-4 0 -4 4l6 40q0 4 5 4h431q2 0 2 -4l-5 -40q0 -4 -4 -4h-431z" />
<glyph unicode="`" horiz-adv-x="402" d="M256 562l-64 134q0 4 2 4h56q3 0 4 -4l50 -134q0 -4 -3 -4h-41q-2 0 -4 4z" />
<glyph unicode="a" horiz-adv-x="488" d="M173 -7q-75 0 -108 37t-26 90l7 50q7 53 51 84t99 31q24 0 63 -3.5t66 -7.5l27 -3l9 61q10 65 -15.5 85t-86.5 20q-32 0 -64.5 -4t-48 -7.5t-17.5 -4.5q-4 -1 -4 3l-6 36q0 4 3 5q66 22 147 22q38 0 61 -4t48 -17.5t34 -46.5t2 -85l-46 -330q-1 -4 -5 -4h-46q-3 0 -3 4 l4 26q-31 -37 -145 -37zM191 43q21 0 35 0.5t34.5 5t33 12.5t23.5 24t14 38l15 102q-94 14 -151 14q-41 0 -66.5 -20.5t-29.5 -50.5l-6 -43q-5 -34 16 -58t82 -24z" />
<glyph unicode="b" horiz-adv-x="505" d="M240 44q28 0 45.5 3.5t39 17.5t35.5 47.5t22 87.5l11 77q2 28 4 49t-3.5 37t-9.5 27t-14.5 18.5t-18 12t-20 6.5t-21 2.5t-21.5 0.5q-14 0 -47 -6.5t-58 -13.5l-26 -6l-38 -271q-5 -33 15 -54t47 -28t58 -7zM97 0h-47q-3 0 -3 4l95 672q0 4 3 4h47q4 0 4 -4l-31 -219 q93 25 136 25q15 0 25.5 -0.5t26 -2.5t26 -5.5t23 -10.5t20.5 -17t16 -25.5t11 -34.5t3 -45.5t-4 -58.5l-12 -86q-8 -56 -23.5 -96t-32.5 -60.5t-42.5 -31.5t-43.5 -13.5t-45 -2.5q-116 0 -143 43l-5 -32q0 -3 -4 -3z" />
<glyph unicode="c" horiz-adv-x="447" d="M199 -8q-14 0 -24.5 0.5t-24 2t-24 4.5t-23 8t-21 13t-17 18t-13.5 24.5t-8 32.5t-3 41t4 50l15 109q7 51 24 88t36.5 56.5t48 30t49.5 13t50 2.5q71 0 139 -17q4 -1 2 -5l-16 -36q-1 -3 -6 -3q-27 9 -125 9q-22 0 -38 -2t-35 -10.5t-32.5 -23.5t-25.5 -42t-17 -65 l-15 -100q-7 -48 -0.5 -79.5t25.5 -45t37.5 -17.5t45.5 -4q32 0 65.5 3t50.5 6t20 4t3 -2l6 -37q0 -4 -3 -5q-4 -2 -18 -6t-51.5 -9.5t-80.5 -5.5z" />
<glyph unicode="d" horiz-adv-x="505" d="M375 0h-47q-3 0 -3 3l4 32q-39 -43 -154 -43q-16 0 -27.5 1t-27.5 3.5t-26.5 8.5t-22 15.5t-18 25t-11.5 36t-4.5 49.5t5.5 65l12 86q8 56 25.5 95.5t36.5 59.5t47.5 30.5t47.5 12.5t48 2q20 0 52 -6t54 -12l23 -7l31 219q0 4 3 4h47q4 0 4 -4l-95 -672q0 -4 -4 -4z M197 44q23 0 45 4t44.5 13.5t38 28t19.5 43.5l38 271q-93 26 -124 26q-21 0 -35.5 -1.5t-34.5 -10t-33.5 -24t-26 -45.5t-18.5 -72l-11 -77q-4 -28 -4.5 -50t2.5 -37.5t7.5 -27.5t13 -19.5t16.5 -12t20 -6.5t21 -2.5t22 -0.5z" />
<glyph unicode="e" horiz-adv-x="478" d="M102 262h259q14 99 -11 134.5t-91 35.5q-34 0 -56 -5t-44 -22t-35.5 -52t-21.5 -91zM208 -8q-22 0 -39 1.5t-38.5 6.5t-35.5 14t-29.5 24t-21 37t-10 53t3.5 71l11 83q9 65 32.5 108t57 62t63 25.5t65.5 6.5q16 0 27.5 -0.5t27 -3t26.5 -6.5t24 -12t21 -18.5t15.5 -26.5 t10.5 -36.5t3 -48t-5 -60.5l-8 -56h-314q-7 -34 -4.5 -59.5t5.5 -44t13.5 -31t20 -20t25 -11.5t29 -5t31.5 -1q21 0 43 1.5t39 4t30.5 4.5t22.5 4l8 1q5 0 5 -3q0 -2 2 -19t2 -18q0 -3 -3 -5q-4 -2 -19 -6.5t-54.5 -10t-82.5 -5.5z" />
<glyph unicode="f" horiz-adv-x="291" d="M66 0q-4 0 -4 4l60 425h-55q-3 0 -3 4l5 40q1 4 5 4h54l12 82q6 42 19 69.5t31.5 38.5t33.5 14.5t35 3.5q36 0 54 -6q3 -1 3 -4q0 -11 -14 -39q-2 -3 -4 -3q-1 0 -9.5 0.5t-21 1t-21.5 0.5q-40 0 -51 -75l-12 -83h88q3 0 3 -4l-5 -40q-1 -4 -5 -4h-88l-60 -425 q0 -4 -4 -4h-46z" />
<glyph unicode="g" horiz-adv-x="497" d="M194 45q15 0 47.5 5.5t58.5 11.5l25 6l39 276q5 37 -22 61.5t-99 24.5q-28 0 -46 -4t-39.5 -18t-35.5 -47.5t-21 -86.5l-10 -76q-8 -41 -3 -69t12 -44.5t24 -25.5t32 -11.5t38 -2.5zM167 -185q-83 0 -152 23q-5 2 -1 5q0 1 8.5 17.5t10.5 19.5t5 2q51 -17 133 -17 q64 0 98 19.5t43 85.5l6 45q-90 -22 -135 -22q-16 0 -28 0.5t-27.5 2.5t-26 6t-23 11.5t-20.5 17.5t-15 25t-10 34.5t-2.5 45.5t4.5 57l12 85q10 67 28.5 110.5t46 62.5t52 25t60.5 6q116 0 144 -40l4 31q1 4 5 4h46q3 0 3 -4l-70 -503q-6 -43 -22 -74t-34 -46t-46.5 -23.5 t-47.5 -10t-49 -1.5z" />
<glyph unicode="h" horiz-adv-x="515" d="M50 0q-3 0 -3 4l95 672q0 4 3 4h47q4 0 4 -4l-32 -228q96 34 144 34q16 0 27.5 -0.5t27 -3t25 -7t22 -12t17.5 -18.5t11.5 -27t5 -37t-3.5 -48l-46 -325q0 -4 -4 -4h-46q-4 0 -4 4l46 323q9 66 -13.5 85.5t-75.5 19.5q-18 0 -53 -9t-61 -17l-26 -9l-56 -393q0 -4 -4 -4 h-47z" />
<glyph unicode="i" horiz-adv-x="227" d="M50 0q-3 0 -3 4l66 469q0 4 4 4h47q4 0 4 -4l-66 -469q0 -4 -5 -4h-47zM132 606q-4 0 -3 4l9 66q1 4 5 4h54q2 0 2 -4l-9 -66q-1 -4 -4 -4h-54z" />
<glyph unicode="j" horiz-adv-x="228" d="M-26 -185q-10 0 -22 1.5l-20 2.5l-9 1q-5 2 -3 5q0 1 7 19.5t8 19.5q2 3 3 3t9.5 -0.5t20 -1t19.5 -0.5q41 0 52 75l74 533q1 4 5 4h46q4 0 4 -4l-75 -533q-5 -35 -16 -60t-22 -37.5t-28 -19t-27 -7.5t-26 -1zM132 606q-4 0 -3 4l9 66q1 4 5 4h54q3 0 3 -4l-9 -66 q-1 -4 -5 -4h-54z" />
<glyph unicode="k" horiz-adv-x="459" d="M50 0q-3 0 -3 4l95 672q0 4 3 4h47q4 0 4 -4l-56 -396h39q170 191 172 193q4 4 6 4h63q5 0 1 -4l-200 -221q156 -245 157 -248q2 -4 -1 -4h-65q-4 0 -6 4l-137 221h-37l-31 -221q0 -4 -4 -4h-47z" />
<glyph unicode="l" horiz-adv-x="256" d="M146 -5q-15 0 -23.5 0.5t-20 3t-18 7.5t-13 14t-9 22t-3 33t3.5 46l78 555q0 4 4 4h46q4 0 3 -4l-78 -556q-7 -33 -1 -50t13 -21t19 -4q7 0 27 1t21 1q4 0 4 -3q0 -27 4 -39q1 -3 -4 -5q-15 -5 -53 -5z" />
<glyph unicode="m" horiz-adv-x="808" d="M50 0q-3 0 -3 4l66 469q0 4 4 4h47q4 0 3 -4l-3 -25q95 34 144 34q52 0 78 -9t43 -38q110 47 170 47q35 0 56.5 -4t45 -17.5t31.5 -46.5t1 -85l-46 -325q0 -4 -4 -4h-46q-4 0 -4 4l46 323q9 66 -14 85.5t-77 19.5q-17 0 -53.5 -10t-64.5 -20l-28 -9q3 -29 -2 -64 l-46 -325q0 -4 -4 -4h-46q-4 0 -4 4l46 323q7 29 1.5 49t-10.5 31t-20 16.5t-27.5 7t-32.5 1.5q-19 0 -54 -9t-61 -17l-25 -9l-56 -393q0 -4 -4 -4h-47z" />
<glyph unicode="n" horiz-adv-x="515" d="M50 0q-3 0 -3 4l66 469q0 4 4 4h47q4 0 3 -4l-3 -25q95 34 144 34q14 0 24 -0.5t24 -2t22.5 -4.5t20.5 -8.5t18 -13.5t13.5 -19.5t8.5 -26.5t3.5 -34.5t-3.5 -43.5l-46 -325q0 -4 -4 -4h-45q-4 0 -4 4l46 323q9 66 -13 85.5t-75 19.5q-19 0 -54 -9t-61 -17l-26 -9 l-56 -393q0 -4 -4 -4h-47z" />
<glyph unicode="o" horiz-adv-x="485" d="M203 44q32 0 51.5 4t42 18.5t37 47.5t22.5 86l12 80q3 35 4.5 60t-6 42t-15 27t-23.5 15.5t-30 7t-35 1.5q-32 0 -53.5 -4.5t-44 -19.5t-36.5 -47t-22 -82l-12 -80q-5 -31 -4.5 -55t4 -40t12 -27.5t17.5 -18t23 -10t26 -4.5t30 -1zM196 -8q-20 0 -34.5 1t-33 4t-30 9 t-25.5 16.5t-20 25t-13 36t-4.5 49t4.5 63.5l12 89q7 53 23 90.5t35.5 58.5t48 33t53 15t58.5 3q17 0 29.5 -0.5t28.5 -2.5t27 -6t23.5 -11.5t20.5 -17.5t15.5 -25t10 -34.5t2.5 -45.5t-4 -57l-12 -89q-6 -47 -17.5 -82.5t-29 -57t-34.5 -35t-42 -19.5t-44.5 -8t-47.5 -2z " />
<glyph unicode="p" horiz-adv-x="505" d="M117 477h47q5 0 4 -4l-4 -31q37 40 154 40q16 0 27.5 -1t27 -3.5t26 -8.5t22 -15.5t18.5 -25t11.5 -36t4 -49.5t-5.5 -65l-12 -83q-8 -56 -25.5 -95.5t-36.5 -60t-47.5 -31.5t-48 -13t-47.5 -2q-19 0 -51.5 5.5t-54.5 11.5l-23 5l-30 -214q0 -4 -4 -4h-47q-3 0 -3 4 l95 672q0 4 3 4zM295 430q-32 0 -60 -6t-54 -26.5t-31 -53.5l-39 -276q93 -23 124 -23q26 0 44.5 4t41 18t38 47.5t23.5 85.5l11 74q5 31 4.5 55.5t-3.5 40.5t-11.5 27.5t-16.5 18t-21.5 9.5t-24 4t-25.5 1z" />
<glyph unicode="q" horiz-adv-x="505" d="M252 429q-28 0 -45.5 -3.5t-39 -17.5t-35.5 -47.5t-22 -86.5l-11 -77q-3 -24 -3.5 -44t1.5 -35t7.5 -26.5t11 -19t15 -13t17 -8.5t19 -4.5t19 -2t19.5 -0.5q14 0 46.5 6t58.5 12l25 5l39 277q5 33 -16 53t-47.5 26t-58.5 6zM395 477h47q4 0 4 -4l-95 -672q0 -4 -4 -4h-47 q-3 0 -3 4l31 214q-93 -23 -137 -23q-15 0 -25.5 0.5t-26 2.5t-26 5.5t-23.5 10.5t-21 17t-16 25.5t-11 34.5t-3 45.5t4 58.5l12 86q8 56 23.5 96t33 60.5t43 31.5t44 13.5t45.5 2.5q116 0 144 -40l4 31q1 4 3 4z" />
<glyph unicode="r" horiz-adv-x="378" d="M50 0q-3 0 -3 4l66 469q0 4 4 4h47q4 0 3 -4l-3 -25q70 34 117 34q55 0 81 -13q3 -1 1 -5q-1 -1 -8.5 -18t-7.5 -18q-2 -4 -4 -3q-24 8 -72 8q-18 0 -46.5 -9.5t-48.5 -19.5l-20 -9l-55 -391q0 -4 -4 -4h-47z" />
<glyph unicode="s" horiz-adv-x="458" d="M193 -7q-50 0 -91 5t-54.5 8.5t-17.5 5.5q-3 2 -2 5l17 39q1 3 5 3q2 -1 20.5 -4.5t55.5 -7.5t73 -4q25 0 38.5 0.5t31.5 4.5t28 11t18.5 21t11.5 34l5 32q4 26 -19.5 43.5t-94.5 27.5q-84 11 -115.5 36.5t-24.5 79.5l5 39q5 36 22 60t44.5 34.5t52 14t56.5 3.5 q25 0 48.5 -2t40 -5t28.5 -6t19 -5l6 -2q1 0 1 -3q-1 -1 -9 -20t-8 -20q-1 -1 -2 -1l-8 2q-9 1 -22.5 3.5t-29.5 5t-36 4t-37 1.5q-104 0 -113 -66l-5 -35q-4 -28 18 -42.5t83 -22.5q83 -11 123.5 -37.5t31.5 -79.5l-6 -37q-5 -34 -18 -57.5t-28.5 -36t-40.5 -19.5 t-46.5 -8.5t-54.5 -1.5z" />
<glyph unicode="t" horiz-adv-x="297" d="M158 -5q-15 0 -24 0.5t-20 3t-17.5 7.5t-13 14.5t-9 22.5t-2.5 33t4 45l43 308h-53q-3 0 -3 4l5 40q0 4 5 4h53l22 159q0 4 5 4h45q3 0 3 -4l-22 -159h91q3 0 3 -4l-5 -40q-1 -4 -5 -4h-91l-43 -309q-11 -75 30 -75q7 0 19 0.5t21 1t10 0.5q3 0 3 -3q0 -2 1.5 -20 t2.5 -19q1 -3 -5 -5q-15 -5 -53 -5z" />
<glyph unicode="u" horiz-adv-x="509" d="M448 477q4 0 4 -4l-66 -469q0 -4 -5 -4h-46q-3 0 -2 4l2 20q-95 -31 -143 -31q-15 0 -25 0.5t-24 2t-23 4.5t-20.5 8.5t-17.5 13.5t-14 19.5t-9 26.5t-3 34.5t3 43.5l45 327q1 4 5 4h46q4 0 4 -4l-46 -325q-10 -66 12.5 -85.5t75.5 -19.5q19 0 54.5 8t61.5 16l26 8 l55 398q1 4 4 4h46z" />
<glyph unicode="v" horiz-adv-x="446" d="M161 0q-2 0 -3 4q0 1 -51 234t-52 235q-1 4 2 4h52q5 0 6 -4l77 -378h13q181 376 182 378q3 4 6 4h50q5 0 2 -4l-232 -469q-1 -4 -6 -4h-46z" />
<glyph unicode="w" horiz-adv-x="681" d="M134 0q-3 0 -3 4l-60 469q0 4 2 4h49q5 0 6 -4l44 -376h10q147 283 147 286q0 4 4 4h44q3 0 4 -4l69 -286h11q143 373 145 376q2 4 6 4h50q4 0 1 -4q-1 -2 -96 -235t-95 -234q-3 -4 -5 -4h-49q-2 0 -3 4l-67 297h-10q-149 -295 -150 -297q-3 -4 -5 -4h-49z" />
<glyph unicode="x" horiz-adv-x="442" d="M-6 0q-6 0 -2 4l192 246q-109 221 -111 224q-1 3 3 3h55q3 0 5 -4l82 -172h10q131 170 132 172q3 4 7 4h54q3 0 1 -3l-175 -224q122 -243 123 -246q2 -4 -1 -4h-55q-5 0 -6 4l-94 194h-10q-149 -191 -151 -194q-2 -4 -5 -4h-54z" />
<glyph unicode="y" horiz-adv-x="446" d="M0 -180q-3 0 -3 3q0 2 6.5 22.5t6.5 21.5q0 4 5 4h22q26 0 45 16t49 74l24 49q-98 460 -99 463q-1 4 3 4h49q4 0 5 -4l80 -377h10q183 374 184 377q1 4 5 4h50q2 0 1 -4q-1 -3 -259 -519q-26 -50 -44 -77.5t-37 -40t-31 -14.5t-39 -2h-33z" />
<glyph unicode="z" horiz-adv-x="445" d="M19 0q-4 0 -4 4l7 44q0 3 5 8l313 362l1 7h-250q-4 0 -4 4l6 44q0 4 5 4h316q3 0 3 -4l-6 -43q0 -3 -4 -7l-314 -364l-1 -8h262q4 0 3 -4l-6 -43q0 -4 -4 -4h-328z" />
<glyph unicode="{" horiz-adv-x="304" d="M162 -91q-40 0 -58 24.5t-10 85.5l27 196q14 89 -47 89q-4 0 -4 4l6 43q0 4 5 4q34 0 50.5 22t22.5 67l27 196q15 110 100 110h42q3 0 3 -4l-6 -39q0 -4 -4 -4h-32q-44 0 -51 -49l-29 -209q-6 -41 -17 -66t-21 -32.5t-27 -14.5l-1 -5q12 -6 17.5 -10.5t13 -17t6 -31.5 t-3.5 -54l-29 -209q-4 -24 6 -36.5t31 -12.5h32q4 0 3 -4l-5 -39q0 -4 -5 -4h-42z" />
<glyph unicode="|" horiz-adv-x="236" d="M44 -94q-4 0 -4 4l118 836q0 4 4 4h42q4 0 4 -4l-118 -836q0 -4 -4 -4h-42z" />
<glyph unicode="}" horiz-adv-x="304" d="M36 -91h-43q-4 0 -4 4l6 39q0 4 4 4h32q45 0 51 49l30 209q6 42 17 66.5t20 31.5t27 15l1 5q-23 10 -32 31.5t-1 81.5l29 209q7 49 -37 49h-32q-3 0 -3 4l5 39q0 4 5 4h43q84 0 69 -110l-28 -196q-6 -45 3.5 -67t43.5 -22q4 0 4 -4l-6 -43q0 -4 -5 -4q-36 0 -51.5 -23.5 t-20.5 -65.5l-28 -196q-15 -110 -99 -110z" />
<glyph unicode="~" horiz-adv-x="506" d="M65 274q3 8 5 10q4 4 18.5 13.5t40.5 20t47 10.5q31 0 79.5 -29t76.5 -29q21 0 44.5 11.5t39 23t17.5 11.5q4 0 4 -4l-5 -32q0 -6 -4 -10q-5 -5 -17 -14t-38.5 -20t-51.5 -11q-30 0 -78 29t-76 29q-18 0 -42.5 -11.5t-42 -22.5t-19.5 -11q-3 0 -2 6z" />
<glyph unicode="&#xa1;" horiz-adv-x="254" d="M152 680h60q4 0 4 -4l-11 -74q0 -4 -4 -4h-60q-4 0 -4 4l11 74q0 4 4 4zM132 498h48q3 0 3 -4l-69 -490q0 -4 -4 -4h-48q-3 0 -3 4l69 490q0 4 4 4z" />
<glyph unicode="&#xa2;" horiz-adv-x="497" d="M193 -102q-4 0 -4 4l13 94q-19 1 -33.5 3t-34 9t-31 20t-23.5 34.5t-12 52.5t3 75l14 102q7 50 23 86t33.5 55t43 30.5t43.5 14.5t43 4l13 92q0 4 4 4h35q4 0 4 -4l-13 -92q97 -4 117 -17q3 -1 1 -5l-18 -37q-1 -2 -5 -2l-7 1q-6 1 -17.5 2.5t-26 2.5t-34 2t-39.5 1 q-27 0 -46.5 -4t-42 -17t-37.5 -44t-22 -78l-13 -93q-8 -40 -2 -67t13.5 -43t25.5 -24t33 -10.5t37 -2.5q19 0 40 1.5t37 3.5t29 4.5t21 3.5l8 2q2 0 3 -3l7 -36q1 -3 -3 -5q-40 -20 -128 -22l-13 -94q0 -4 -4 -4h-35z" />
<glyph unicode="&#xa3;" horiz-adv-x="506" d="M81 0q-3 0 -3 3l41 289h-39q-4 0 -4 4l6 40q0 4 5 4h39l28 199q7 49 28 80.5t53.5 44.5t57 17t57.5 4q85 0 141 -28q4 -2 2 -5l-18 -41q-1 -2 -5 -2q-3 2 -18.5 6.5t-47.5 10t-61 5.5q-27 0 -44.5 -2.5t-38 -10.5t-33 -28t-17.5 -52l-28 -198h165q3 0 3 -4l-6 -40 q0 -4 -4 -4h-164l-34 -238h262q4 0 4 -4l-7 -46q0 -4 -4 -4h-316z" />
<glyph unicode="&#xa4;" horiz-adv-x="426" d="M203 217q42 0 66.5 17t31.5 65l7 48q7 47 -13 63t-62 16q-43 0 -68 -17.5t-31 -61.5l-6 -48q-6 -50 13 -66t62 -16zM99 109h-42q-4 0 -3 4q15 59 50 80q-14 8 -23.5 33t-3.5 69l8 56q10 68 56 98q-29 21 -29 75q0 10 5 10h42q3 0 3 -4q2 -31 19 -44.5t59 -13.5 q40 0 60.5 12.5t31.5 45.5q1 4 5 4h43q3 0 2 -4q-11 -55 -49 -79q36 -27 26 -100l-8 -56q-10 -75 -55 -102q28 -19 28 -71q0 -13 -4 -13h-43q-4 0 -4 4q-1 34 -20 46t-56 12q-36 0 -59 -11t-35 -47q-1 -4 -4 -4z" />
<glyph unicode="&#xa5;" horiz-adv-x="507" d="M189 0q-2 0 -2 4l22 157h-137q-3 0 -3 4l6 40q0 4 4 4h137l9 66h-137q-2 0 -2 4l5 40q1 4 5 4h111q-125 351 -126 353q-2 4 4 4h56q2 0 4 -4l117 -329h2q207 327 208 329q2 4 6 4h57q3 0 1 -4l-223 -353h108q3 0 3 -4l-6 -40q0 -4 -4 -4h-132l-9 -66h132q3 0 3 -4l-6 -40 q0 -4 -4 -4h-132l-22 -157q0 -4 -5 -4h-50z" />
<glyph unicode="&#xa6;" horiz-adv-x="236" d="M44 -94q-4 0 -4 4l51 357q0 4 4 4h42q4 0 4 -4l-51 -357q0 -4 -4 -4h-42zM112 389q-4 0 -4 4l50 353q0 4 4 4h42q4 0 4 -4l-50 -353q0 -4 -4 -4h-42z" />
<glyph unicode="&#xa7;" horiz-adv-x="504" d="M46 16q-3 2 -1 5l18 39q2 3 5 3q2 -1 20.5 -5t55 -8.5t71.5 -4.5q62 0 92 13t36 58l4 30q4 32 -24 47t-90 24q-82 13 -108 31q-40 26 -32 85l5 37q8 58 49 85q-33 25 -25 81l5 37q9 64 55.5 88t119.5 24q40 0 75.5 -5.5t49 -9.5t17.5 -6q2 -2 0 -3q-1 -1 -9.5 -19.5 t-8.5 -19.5q0 -2 -3 -2l-4 1q-4 1 -11.5 2.5t-17 3t-21 3.5t-24 3.5t-26.5 2.5t-26 1q-103 0 -113 -66l-5 -33q-5 -31 19.5 -44t81.5 -21q75 -9 118.5 -34.5t36.5 -81.5l-5 -36q-10 -68 -48 -95q31 -23 24 -71l-5 -37q-6 -41 -21.5 -67t-44 -37.5t-54.5 -15t-68 -3.5 q-48 0 -89 5.5t-55.5 9.5t-18.5 6zM321 255q43 12 51 64l5 30q4 27 -20 44t-96 27q-38 6 -49 9q-55 -13 -61 -61l-4 -33q-3 -27 17 -42t83 -23q44 -6 74 -15z" />
<glyph unicode="&#xa8;" horiz-adv-x="402" d="M316 605q-4 0 -3 4l9 67q1 4 5 4h50q3 0 3 -4l-9 -67q-1 -4 -5 -4h-50zM127 605q-4 0 -3 4l9 67q1 4 5 4h50q3 0 3 -4l-9 -67q-1 -4 -5 -4h-50z" />
<glyph unicode="&#xa9;" horiz-adv-x="788" d="M450 685q122 0 202.5 -87.5t80.5 -215.5q0 -102 -54 -192t-141.5 -142.5t-184.5 -52.5q-122 0 -202.5 87.5t-80.5 215.5q0 77 31.5 149t83.5 124t122 83t143 31zM359 35q132 0 233.5 102t101.5 240q0 114 -70.5 191.5t-178.5 77.5q-133 0 -235 -102.5t-102 -240.5 q0 -113 71.5 -190.5t179.5 -77.5zM378 146q-29 0 -49.5 4.5t-42.5 19t-29.5 48t-0.5 83.5l12 82q7 49 24.5 81.5t42.5 46.5t47 19t51 5q82 0 110 -14l2 -2q0 -1 -15 -31q-1 -2 -4 -2q-1 0 -6 1t-14 2t-20.5 2t-27 2t-31.5 1q-22 0 -37.5 -3.5t-33.5 -14t-29.5 -35 t-16.5 -61.5l-10 -76q-5 -39 -0.5 -64t19.5 -35.5t29 -13.5t36 -3q16 0 33 1t29.5 3t22.5 3.5t16 2.5l6 1q4 0 4 -2t2 -15t3 -14q2 -4 -2 -4q-36 -18 -120 -18z" />
<glyph unicode="&#xaa;" horiz-adv-x="294" d="M155 420q74 0 80 47l8 56q-54 8 -87 8q-24 0 -39 -11.5t-17 -28.5l-3 -24q-3 -19 10 -33t48 -14zM141 387q-45 0 -65 21.5t-15 54.5l4 29q4 32 31 51t61 19l90 -9l5 33q6 37 -9.5 48.5t-51.5 11.5q-54 0 -76 -11q-3 -1 -3 2q0 1 -2 11t-2 14q0 2 1 3t10 4.5t31.5 7 t48.5 3.5q23 0 37 -2.5t29.5 -11t21 -28.5t1.5 -51l-27 -195q0 -2 -3 -2h-32q-2 0 -2 2l2 18q-18 -23 -85 -23z" />
<glyph unicode="&#xab;" horiz-adv-x="505" d="M456 453q0 -4 24 -28q2 -3 -1 -6l-169 -154q123 -152 125 -154q3 -3 0 -6q-1 -1 -16 -14t-16 -14q-3 -3 -5 0l-152 185q-3 3 1 6l204 185q2 2 5 0zM263 453l24 -28q3 -3 0 -6l-169 -154q123 -152 125 -154q3 -3 0 -6l-32 -28q-3 -3 -5 0l-151 185q-3 3 1 6l203 185 q1 1 4 0z" />
<glyph unicode="&#xac;" horiz-adv-x="507" d="M386 251h-325q-4 0 -4 4l6 42q0 4 5 4h373q4 0 3 -4l-24 -176q-2 -4 -5 -4h-44q-3 0 -3 4z" />
<glyph unicode="&#xad;" horiz-adv-x="356" d="M46 250q-3 0 -3 4l6 42q0 4 4 4h255q4 0 4 -4l-6 -42q0 -4 -5 -4h-255z" />
<glyph unicode="&#xae;" horiz-adv-x="436" d="M274 685q68 0 113 -49t45 -120q0 -87 -64.5 -151t-147.5 -64q-68 0 -112.5 49t-44.5 120q0 87 64 151t147 64zM224 329q72 0 126.5 55t54.5 129q0 61 -38 102.5t-97 41.5q-71 0 -125.5 -55t-54.5 -129q0 -61 38.5 -102.5t95.5 -41.5zM195 387h-24q-1 0 -1 2l30 213h69 q13 0 21.5 -1.5t18.5 -6.5t14 -17.5t2 -31.5l-2 -17q-5 -41 -39 -51l24 -88v-2h-27q-2 0 -2 2l-23 83h-47l-12 -83q0 -2 -2 -2zM212 496h42q38 0 42 33l2 16q2 14 -3 21.5t-11.5 9t-17.5 1.5h-42z" />
<glyph unicode="&#xaf;" horiz-adv-x="402" d="M368 618h-241q-4 0 -4 4l6 42q0 4 5 4h241q4 0 3 -4l-6 -42q0 -4 -4 -4z" />
<glyph unicode="&#xb0;" horiz-adv-x="425" d="M234 465q32 0 51 12.5t24 49.5l8 57q5 36 -9 48t-46 12q-69 0 -77 -60l-8 -57q-5 -38 10 -50t47 -12zM229 424q-23 0 -39 3t-32 12.5t-22.5 30.5t-1.5 53l9 65q8 57 41 77t83 20q22 0 37.5 -3t32 -11.5t23 -29.5t2.5 -53l-9 -65q-9 -61 -41.5 -80t-82.5 -19z" />
<glyph unicode="&#xb1;" horiz-adv-x="506" d="M207 110q-3 0 -3 4l24 171h-161q-4 0 -4 4l6 42q0 4 5 4h161l24 170q0 4 4 4h42q4 0 4 -4l-24 -170h161q3 0 3 -4l-6 -42q-1 -4 -4 -4h-161l-24 -171q0 -4 -5 -4h-42zM26 0q-4 0 -4 4l6 42q0 4 5 4h374q3 0 3 -4l-6 -42q0 -4 -4 -4h-374z" />
<glyph unicode="&#xb2;" horiz-adv-x="300" d="M251 270h-211l-2 1l5 38q0 1 2 3l28 28q46 46 68.5 69t52 55t42.5 52.5t15 34.5l6 39q5 34 -13.5 44t-53.5 10q-17 0 -38.5 -3.5t-34 -6.5t-13.5 -4q-3 0 -3 2t-2 14.5t-2 13.5q0 2 1 3q36 18 97 18q50 0 79 -18.5t22 -70.5l-6 -42q-3 -19 -16.5 -42t-46 -59.5t-55.5 -60 t-76 -76.5l-1 -5h161q3 0 3 -2l-5 -33q0 -2 -3 -2z" />
<glyph unicode="&#xb3;" horiz-adv-x="304" d="M47 284q-1 1 -1 3q11 22 11 29q0 1 5 1l6 -1q5 -2 13.5 -4t19.5 -3.5t24 -3t25 -1.5q22 0 36 2t29.5 14.5t19.5 36.5l6 40q3 20 -2.5 34t-16.5 19.5t-20 7.5t-18 2h-40q-3 0 -3 2l4 31q0 2 4 2h40q22 0 42 14.5t23 41.5l5 40q2 18 -2.5 29.5t-16 16t-21.5 6t-25 1.5 q-18 0 -40 -3t-34.5 -6t-13.5 -4q-3 -1 -3 1t-2 15t-2 14q0 2 1 3t12 5t35.5 8t50.5 4q110 0 99 -88l-5 -41q-3 -21 -12.5 -38t-17.5 -24l-9 -7l-1 -4q4 -2 9.5 -7t13.5 -26t4 -49l-6 -42q-13 -88 -128 -88q-26 0 -50.5 4.5t-36.5 8.5z" />
<glyph unicode="&#xb4;" horiz-adv-x="402" d="M223 562q-2 -4 -7 -4h-40q-3 0 -1 4l86 134q3 4 6 4h55q6 0 2 -4z" />
<glyph unicode="&#xb6;" horiz-adv-x="544" d="M205 -181q-4 0 -3 4l62 444q-32 0 -58 3.5t-53.5 14t-44.5 28.5t-25.5 49.5t-3.5 73.5l10 77q22 166 233 166h203q4 0 3 -4l-119 -852q-2 -4 -5 -4h-44q-4 0 -3 4l113 806h-103l-113 -806q0 -4 -5 -4h-44z" />
<glyph unicode="&#xb7;" horiz-adv-x="209" d="M67 225q-5 0 -4 4l11 74q0 4 4 4h60q3 0 3 -4l-11 -74q0 -4 -3 -4h-60z" />
<glyph unicode="&#xb8;" horiz-adv-x="402" d="M142 -145h-55q-4 0 -3 4q2 1 43 72.5t42 74.5q1 4 7 4h41q2 0 1 -4l-69 -147q-2 -4 -7 -4z" />
<glyph unicode="&#xb9;" horiz-adv-x="293" d="M178 270h-32q-3 0 -3 2l51 359q-81 -58 -82 -59q-2 -1 -2 1t-2.5 16.5t-2.5 15.5q0 2 2 4l91 68q1 1 5 1h32q2 0 2 -2l-57 -404q0 -2 -2 -2z" />
<glyph unicode="&#xba;" horiz-adv-x="292" d="M163 422q18 0 29.5 2.5t24.5 11t21 27.5t13 49l7 44q8 56 -7.5 72t-54.5 16q-38 0 -59.5 -16.5t-29.5 -71.5l-7 -44q-9 -57 8 -73.5t55 -16.5zM158 387q-26 0 -42.5 3.5t-32.5 14.5t-21.5 37.5t0.5 67.5l7 49q11 75 44 98t88 23q26 0 41.5 -3t32 -14t22 -36.5t-0.5 -66.5 l-7 -50q-6 -42 -18.5 -68.5t-32.5 -37.5t-36.5 -14t-43.5 -3z" />
<glyph unicode="&#xbb;" horiz-adv-x="504" d="M236 76l-24 28q-2 2 1 6l168 154q-123 152 -125 154q-3 3 1 6l32 28q3 3 4 0l152 -185q2 -3 -1 -6l-203 -185q-2 -2 -5 0zM45 76l-24 28q-3 2 1 6l167 154q-122 152 -124 154q-3 3 1 6l32 28q3 3 5 0q1 -1 75 -92t76 -93q2 -3 -1 -6q-1 -1 -51.5 -47t-101 -91.5 t-50.5 -46.5q-2 -2 -5 0z" />
<glyph unicode="&#xbc;" horiz-adv-x="725" d="M143 -5q-2 0 -1 4q70 126 205.5 356t189.5 325q3 4 7 4h32q5 0 2 -4l-395 -681q-1 -4 -7 -4h-33zM547 0h-31q-3 0 -3 2l11 78h-153q-2 0 -2 1l5 37q0 2 2 4q1 1 78.5 141.5t78.5 142.5q2 2 3 2h36q1 0 1 -2l-156 -284l-1 -5h113l12 86q0 2 3 2h32q2 0 2 -2l-12 -86h47 q3 0 3 -3l-5 -32q0 -2 -3 -2h-47l-11 -78q0 -2 -3 -2zM203 272h-32q-3 0 -3 2l51 359q-81 -58 -82 -59q-2 -1 -2 1t-2.5 16.5t-2.5 15.5q0 2 2 4l91 68q1 1 5 1h32q2 0 2 -2l-57 -404q0 -2 -2 -2z" />
<glyph unicode="&#xbd;" horiz-adv-x="761" d="M633 0h-212l-2 1l5 38q0 1 2 3l34 34l34.5 34.5t30.5 31t29 30t24.5 26.5t22 26t15.5 21.5t12 20t5 15.5l6 39q5 34 -14 44t-54 10q-11 0 -24 -1.5t-23.5 -3.5t-19.5 -4t-14 -3l-6 -2q-1 0 -1 2t-2 14.5t-2 13.5q0 2 1 3q36 18 96 18q50 0 79.5 -18.5t22.5 -70.5l-6 -42 q-5 -36 -79 -135t-93 -103l-23 -5h161q3 0 3 -2l-5 -33q0 -2 -3 -2zM145 -5q-3 0 -2 4q70 126 205.5 356t189.5 325q3 4 7 4h32q5 0 2 -4l-395 -681q-1 -4 -6 -4h-33zM203 272h-32q-3 0 -3 2l51 359q-81 -58 -82 -59q-2 -1 -2 1t-2.5 16.5t-2.5 15.5q0 2 2 4l91 68q1 1 5 1 h32q2 0 2 -2l-57 -404q0 -2 -2 -2z" />
<glyph unicode="&#xbe;" horiz-adv-x="798" d="M87 288v3q11 22 11 29q0 1 4 1l6 -1q5 -2 13.5 -4t19.5 -3.5t24 -3t25 -1.5q22 0 36 2t30.5 14.5t19.5 36.5l5 40q3 20 -2.5 34t-16.5 19.5t-20 7.5t-18 2h-40q-3 0 -3 2l5 31q0 2 3 2h40q22 0 41.5 14.5t23.5 41.5l6 40q3 24 -8 36.5t-24 14.5t-34 2q-18 0 -40 -3 t-34.5 -6t-13.5 -4q-3 -1 -3 1t-2 15t-2 14t2 3q1 1 12 5t35 8t50 4q113 0 100 -88l-6 -41q-3 -21 -13 -38t-18 -24l-8 -7v-4q4 -2 9.5 -7t13 -26t3.5 -49l-6 -42q-13 -88 -128 -88q-26 0 -50.5 4.5t-36.5 8.5zM213 -5q-4 0 -1 4q65 113 198.5 340t197.5 341q3 4 6 4h33 q4 0 1 -4l-99 -170q-99 -171 -197.5 -340.5t-98.5 -170.5q-4 -4 -7 -4h-33zM620 0h-31q-3 0 -3 2l11 78h-154q-2 0 -2 1l6 37q0 3 1 4t79 141.5t79 142.5q2 2 3 2h36q1 0 1 -2l-156 -284l-1 -5h113l13 86q0 2 2 2h32q3 0 3 -2l-13 -86h47q2 0 2 -3l-4 -32q0 -2 -3 -2h-47 l-11 -78q0 -2 -3 -2z" />
<glyph unicode="&#xbf;" horiz-adv-x="424" d="M241 508h48q4 0 3 -4l-8 -62q-4 -34 -31 -71.5t-57 -64t-56 -56.5t-29 -50l-8 -59q-4 -32 2 -52t22.5 -28t31.5 -10.5t40 -2.5q68 0 134 22q3 1 4 -2l7 -40q0 -4 -3 -5q-56 -28 -149 -28q-26 0 -44.5 2t-42 10t-37 23t-21 43t-1.5 67l9 60q4 28 30.5 62.5t56.5 62 t56.5 60.5t29.5 58l8 61q1 4 5 4zM259 680h60q4 0 4 -4l-11 -75q0 -4 -5 -4h-60q-2 0 -2 4l10 75q0 4 4 4z" />
<glyph unicode="&#xc0;" horiz-adv-x="567" d="M41 0h-51q-4 0 -3 4q0 1 159 336t159 337q0 3 5 3h61q3 0 5 -3q0 -2 62 -337t63 -336q2 -4 -2 -4h-52q-3 0 -4 4l-28 149h-299q-69 -146 -70 -149q-1 -4 -5 -4zM142 208h262l-69 374h-17zM367 762l-63 134q-1 4 1 4h56q4 0 5 -4l49 -134q2 -4 -3 -4h-41q-2 0 -4 4z" />
<glyph unicode="&#xc1;" horiz-adv-x="567" d="M41 0h-51q-4 0 -3 4q0 1 159 336t159 337q0 3 5 3h61q3 0 5 -3q0 -2 62 -337t63 -336q2 -4 -2 -4h-52q-3 0 -4 4l-28 149h-299q-69 -146 -70 -149q-1 -4 -5 -4zM142 208h262l-69 374h-17zM333 762q-2 -4 -7 -4h-40q-3 0 -1 4l86 134q3 4 6 4h55q6 0 2 -4z" />
<glyph unicode="&#xc2;" horiz-adv-x="567" d="M41 0h-51q-4 0 -3 4q0 1 159 336t159 337q0 3 5 3h61q3 0 5 -3q0 -2 62 -337t63 -336q2 -4 -2 -4h-52q-3 0 -4 4l-28 149h-299q-69 -146 -70 -149q-1 -4 -5 -4zM142 208h262l-69 374h-17zM279 758h-40q-3 0 -1 4l97 134q2 4 7 4h55q6 0 7 -4q1 -2 30 -67t30 -67 q1 -4 -3 -4h-42q-2 0 -4 4l-49 90h-5q-72 -87 -75 -90q-4 -4 -7 -4z" />
<glyph unicode="&#xc3;" horiz-adv-x="567" d="M142 208h262l-69 374h-17zM41 0h-51q-4 0 -3 4q0 1 159 336t159 337q0 3 5 3h61q3 0 5 -3q0 -2 62 -337t63 -336q2 -4 -2 -4h-52q-3 0 -4 4l-28 149h-299q-69 -146 -70 -149q-1 -4 -5 -4zM241 800q-3 0 -2 5l4 30q0 5 5 10l5 5q5 5 11 9.5t14 9.5t18 8t20 3q22 0 51 -19 t49 -19q21 0 42 17.5t22 17.5q3 0 3 -4l-5 -31q0 -6 -4 -11q-3 -5 -10.5 -11.5t-24.5 -15t-34 -8.5q-23 0 -52 19.5t-47 19.5q-20 0 -42 -17.5t-23 -17.5z" />
<glyph unicode="&#xc4;" horiz-adv-x="567" d="M41 0h-51q-4 0 -3 4q0 1 159 336t159 337q0 3 5 3h61q3 0 5 -3q0 -2 62 -337t63 -336q2 -4 -2 -4h-52q-3 0 -4 4l-28 149h-299q-69 -146 -70 -149q-1 -4 -5 -4zM142 208h262l-69 374h-17zM426 805q-4 0 -3 4l9 67q1 4 5 4h50q3 0 3 -4l-9 -67q-1 -4 -5 -4h-50zM237 805 q-4 0 -3 4l9 67q1 4 5 4h50q3 0 3 -4l-9 -67q-1 -4 -5 -4h-50z" />
<glyph unicode="&#xc5;" horiz-adv-x="567" d="M142 208h262l-69 374h-17zM41 0h-51q-4 0 -3 4q0 1 159 336t159 337q0 3 5 3h61q3 0 5 -3q0 -2 62 -337t63 -336q2 -4 -2 -4h-52q-3 0 -4 4l-28 149h-299q-69 -146 -70 -149q-1 -4 -5 -4zM353 775q25 0 39.5 9.5t18.5 38.5l2 13q4 28 -7.5 37.5t-36.5 9.5q-56 0 -61 -47 l-1 -13q-3 -29 9 -38.5t37 -9.5zM348 743q-18 0 -31 2.5t-25.5 10t-17.5 23.5t-1 41l3 20q12 75 97 75q17 0 29.5 -2t25 -9t18 -23t1.5 -41l-3 -20q-5 -33 -21.5 -51t-33 -22t-41.5 -4z" />
<glyph unicode="&#xc6;" horiz-adv-x="894" d="M195 208h242l55 388h-18zM41 0h-53q-4 0 -1 4q4 6 244 337.5t243 333.5q2 5 5 5h409q4 0 4 -4l-7 -46q0 -4 -4 -4h-328l-36 -253h283q4 0 4 -4l-7 -46q0 -4 -4 -4h-283l-38 -265h328q4 0 4 -4l-7 -46q0 -4 -4 -4h-385l21 153h-275q-105 -146 -107 -149q-3 -4 -6 -4z" />
<glyph unicode="&#xc7;" horiz-adv-x="528" d="M204 -145h-55q-5 0 -2 4l75 131q-43 2 -73.5 11t-58.5 32t-37.5 72.5t0.5 122.5l32 230q9 62 29 106.5t43.5 68.5t58.5 37t63 16.5t67 3.5q104 0 166 -31q3 -3 2 -5q-23 -34 -23 -38q-2 -4 -6 -2q-66 22 -147 22q-28 0 -48.5 -2.5t-47 -13t-44.5 -29t-33.5 -54.5 t-22.5 -86l-30 -218q-3 -41 -3.5 -71.5t10 -51.5t22 -34t31.5 -20t39 -9.5t44 -2.5q71 0 164 31q2 2 4 -2q1 -2 7 -19t6 -18q1 -2 -3 -5q-71 -36 -160 -40l-62 -132q-2 -4 -7 -4z" />
<glyph unicode="&#xc8;" horiz-adv-x="528" d="M48 0l96 680h386q3 0 3 -4l-6 -46q0 -4 -5 -4h-329l-36 -253h285q4 0 4 -4l-7 -46q0 -4 -4 -4h-285l-37 -265h329q3 0 3 -4l-6 -46q-1 -4 -5 -4h-386zM348 762l-63 134q-1 4 1 4h56q4 0 5 -4l49 -134q2 -4 -2 -4h-41q-3 0 -5 4z" />
<glyph unicode="&#xc9;" horiz-adv-x="528" d="M48 0l96 680h386q3 0 3 -4l-6 -46q0 -4 -5 -4h-329l-36 -253h285q4 0 4 -4l-7 -46q0 -4 -4 -4h-285l-37 -265h329q3 0 3 -4l-6 -46q-1 -4 -5 -4h-386zM323 762q-2 -4 -6 -4h-40q-4 0 -2 4l86 134q3 4 6 4h55q6 0 2 -4z" />
<glyph unicode="&#xca;" horiz-adv-x="528" d="M48 0l96 680h386q3 0 3 -4l-6 -46q0 -4 -5 -4h-329l-36 -253h285q4 0 4 -4l-7 -46q0 -4 -4 -4h-285l-37 -265h329q3 0 3 -4l-6 -46q-1 -4 -5 -4h-386zM270 758h-40q-4 0 -2 4l97 134q2 4 7 4h55q6 0 7 -4q1 -2 30 -67t30 -67q1 -4 -2 -4h-42q-3 0 -5 4l-49 90h-5 q-72 -87 -75 -90q-4 -4 -6 -4z" />
<glyph unicode="&#xcb;" horiz-adv-x="528" d="M48 0l96 680h386q3 0 3 -4l-6 -46q0 -4 -5 -4h-329l-36 -253h285q4 0 4 -4l-7 -46q0 -4 -4 -4h-285l-37 -265h329q3 0 3 -4l-6 -46q-1 -4 -5 -4h-386zM227 805q-4 0 -3 4l9 67q1 4 5 4h50q3 0 3 -4l-9 -67q-1 -4 -5 -4h-50zM416 805q-4 0 -3 4l9 67q1 4 5 4h50q3 0 3 -4 l-9 -67q-1 -4 -5 -4h-50z" />
<glyph unicode="&#xcc;" horiz-adv-x="234" d="M52 0q-4 0 -4 4l95 672q0 4 4 4h50q3 0 3 -4l-95 -672q0 -4 -3 -4h-50zM201 762l-63 134q-1 4 1 4h56q4 0 5 -4l49 -134q2 -4 -3 -4h-41q-2 0 -4 4z" />
<glyph unicode="&#xcd;" horiz-adv-x="234" d="M52 0q-4 0 -4 4l95 672q0 4 4 4h50q3 0 3 -4l-95 -672q0 -4 -3 -4h-50zM167 762q-2 -4 -7 -4h-40q-3 0 -1 4l86 134q3 4 6 4h55q6 0 2 -4z" />
<glyph unicode="&#xce;" horiz-adv-x="234" d="M52 0q-4 0 -4 4l95 672q0 4 4 4h50q3 0 3 -4l-95 -672q0 -4 -3 -4h-50zM113 758h-40q-3 0 -1 4l97 134q2 4 7 4h55q5 0 6 -4q1 -2 30.5 -67t30.5 -67q1 -4 -3 -4h-42q-2 0 -4 4l-50 90h-5q-71 -87 -74 -90q-4 -4 -7 -4z" />
<glyph unicode="&#xcf;" horiz-adv-x="234" d="M52 0q-4 0 -4 4l95 672q0 4 5 4h50q2 0 2 -4l-94 -672q0 -4 -4 -4h-50zM71 805q-4 0 -3 4l9 67q1 4 5 4h50q3 0 3 -4l-9 -67q-1 -4 -5 -4h-50zM260 805q-4 0 -3 4l9 67q1 4 5 4h50q3 0 3 -4l-9 -67q-1 -4 -5 -4h-50z" />
<glyph unicode="&#xd0;" horiz-adv-x="590" d="M114 54h152q30 0 49 2t46 11.5t44.5 28t33.5 54.5t23 88l29 208q4 29 4 52.5t-3 41t-11 31.5t-15.5 22.5t-20 15t-22.5 10t-25.5 5t-25.5 2t-26 0.5h-152l-36 -257h133q4 0 3 -4l-6 -42q0 -4 -4 -4h-133zM246 0h-197l45 319h-49q-3 0 -3 4l6 42q0 4 4 4h49l44 311h197 q19 0 34 -0.5t33.5 -2.5t32.5 -6t30 -10t27.5 -15t22.5 -21.5t17.5 -29t11 -37.5t4 -47.5t-4.5 -57.5l-31 -220q-6 -42 -17 -76.5t-27 -58t-32 -41.5t-38.5 -28t-39.5 -16.5t-42.5 -9t-39 -3t-37.5 -0.5z" />
<glyph unicode="&#xd1;" horiz-adv-x="619" d="M52 0q-4 0 -4 4l95 672q0 4 4 4h72q5 0 6 -4l210 -566h14l80 566q0 4 4 4h49q4 0 4 -4l-95 -672q0 -4 -4 -4h-71q-4 0 -6 4l-210 572h-15l-80 -572q0 -4 -4 -4h-49zM267 800q-3 0 -2 5l4 30q0 5 5 10l5 5q5 5 11 9.5t14 9.5t18 8t20 3q23 0 52 -19t48 -19q21 0 42 17.5 t22 17.5q3 0 3 -4l-5 -31q0 -6 -4 -11q-3 -5 -10.5 -11.5t-24.5 -15t-34 -8.5q-23 0 -52 19.5t-47 19.5q-20 0 -42 -17.5t-23 -17.5z" />
<glyph unicode="&#xd2;" d="M248 -10q-18 0 -30.5 0.5t-30.5 2t-30.5 5.5t-28.5 10t-26.5 15.5t-21.5 22t-17.5 30t-11 39t-4 50.5t5.5 62l33 231q9 62 29.5 107t44.5 68.5t59 37t62 16.5t65 3q18 0 30 -0.5t30 -2t31 -5t29 -9t27 -15t22 -21.5t17.5 -29.5t11 -39t4.5 -49.5t-5 -61l-33 -231 q-9 -66 -31 -112.5t-46 -70.5t-61 -36.5t-61.5 -15t-62.5 -2.5zM255 44q39 0 66.5 6t56.5 24t47.5 58t27.5 101l31 218q8 60 0 98.5t-31.5 56.5t-49 24t-64.5 6q-30 0 -52.5 -3.5t-47.5 -14.5t-43 -30.5t-32.5 -54t-21.5 -82.5l-30 -218q-2 -33 -4 -58.5t5 -45t13 -33.5 t18.5 -23.5t23.5 -15t27.5 -8.5t29.5 -4t30 -1zM373 762l-63 134q-1 4 2 4h56q3 0 4 -4l49 -134q2 -4 -2 -4h-41q-3 0 -5 4z" />
<glyph unicode="&#xd3;" d="M248 -10q-18 0 -30.5 0.5t-30.5 2t-30.5 5.5t-28.5 10t-26.5 15.5t-21.5 22t-17.5 30t-11 39t-4 50.5t5.5 62l33 231q9 62 29.5 107t44.5 68.5t59 37t62 16.5t65 3q18 0 30 -0.5t30 -2t31 -5t29 -9t27 -15t22 -21.5t17.5 -29.5t11 -39t4.5 -49.5t-5 -61l-33 -231 q-9 -66 -31 -112.5t-46 -70.5t-61 -36.5t-61.5 -15t-62.5 -2.5zM255 44q39 0 66.5 6t56.5 24t47.5 58t27.5 101l31 218q8 60 0 98.5t-31.5 56.5t-49 24t-64.5 6q-30 0 -52.5 -3.5t-47.5 -14.5t-43 -30.5t-32.5 -54t-21.5 -82.5l-30 -218q-2 -33 -4 -58.5t5 -45t13 -33.5 t18.5 -23.5t23.5 -15t27.5 -8.5t29.5 -4t30 -1zM338 762q-2 -4 -6 -4h-40q-4 0 -2 4l86 134q3 4 7 4h55q5 0 1 -4z" />
<glyph unicode="&#xd4;" d="M248 -10q-18 0 -30.5 0.5t-30.5 2t-30.5 5.5t-28.5 10t-26.5 15.5t-21.5 22t-17.5 30t-11 39t-4 50.5t5.5 62l33 231q9 62 29.5 107t44.5 68.5t59 37t62 16.5t65 3q18 0 30 -0.5t30 -2t31 -5t29 -9t27 -15t22 -21.5t17.5 -29.5t11 -39t4.5 -49.5t-5 -61l-33 -231 q-9 -66 -31 -112.5t-46 -70.5t-61 -36.5t-61.5 -15t-62.5 -2.5zM255 44q39 0 66.5 6t56.5 24t47.5 58t27.5 101l31 218q8 60 0 98.5t-31.5 56.5t-49 24t-64.5 6q-30 0 -52.5 -3.5t-47.5 -14.5t-43 -30.5t-32.5 -54t-21.5 -82.5l-30 -218q-2 -33 -4 -58.5t5 -45t13 -33.5 t18.5 -23.5t23.5 -15t27.5 -8.5t29.5 -4t30 -1zM286 758h-40q-4 0 -2 4l97 134q2 4 8 4h55q5 0 6 -4q1 -2 30 -67t30 -67q1 -4 -2 -4h-42q-3 0 -5 4l-49 90h-5q-72 -87 -75 -90q-4 -4 -6 -4z" />
<glyph unicode="&#xd5;" d="M255 44q39 0 66.5 6t56.5 24t47.5 58t27.5 101l31 218q8 60 0 98.5t-31.5 56.5t-49 24t-64.5 6q-30 0 -52.5 -3.5t-47.5 -14.5t-43 -30.5t-32.5 -54t-21.5 -82.5l-30 -218q-2 -33 -4 -58.5t5 -45t13 -33.5t18.5 -23.5t23.5 -15t27.5 -8.5t29.5 -4t30 -1zM248 -10 q-18 0 -30.5 0.5t-30.5 2t-30.5 5.5t-28.5 10t-26.5 15.5t-21.5 22t-17.5 30t-11 39t-4 50.5t5.5 62l33 231q9 62 29.5 107t44.5 68.5t59 37t62 16.5t65 3q18 0 30 -0.5t30 -2t31 -5t29 -9t27 -15t22 -21.5t17.5 -29.5t11 -39t4.5 -49.5t-5 -61l-33 -231q-9 -66 -31 -112.5 t-46 -70.5t-61 -36.5t-61.5 -15t-62.5 -2.5zM248 800q-3 0 -3 5l4 30q0 5 5 10l5 5q5 5 11 9.5t14 9.5t18 8t20 3q22 0 51 -19t49 -19q21 0 42 17.5t22 17.5q3 0 3 -4l-5 -31q0 -6 -4 -11q-3 -5 -10.5 -11.5t-24.5 -15t-34 -8.5q-23 0 -52 19.5t-47 19.5q-20 0 -41.5 -17.5 t-22.5 -17.5z" />
<glyph unicode="&#xd6;" d="M248 -10q-18 0 -30.5 0.5t-30.5 2t-30.5 5.5t-28.5 10t-26.5 15.5t-21.5 22t-17.5 30t-11 39t-4 50.5t5.5 62l33 231q9 62 29.5 107t44.5 68.5t59 37t62 16.5t65 3q18 0 30 -0.5t30 -2t31 -5t29 -9t27 -15t22 -21.5t17.5 -29.5t11 -39t4.5 -49.5t-5 -61l-33 -231 q-9 -66 -31 -112.5t-46 -70.5t-61 -36.5t-61.5 -15t-62.5 -2.5zM255 44q39 0 66.5 6t56.5 24t47.5 58t27.5 101l31 218q8 60 0 98.5t-31.5 56.5t-49 24t-64.5 6q-30 0 -52.5 -3.5t-47.5 -14.5t-43 -30.5t-32.5 -54t-21.5 -82.5l-30 -218q-2 -33 -4 -58.5t5 -45t13 -33.5 t18.5 -23.5t23.5 -15t27.5 -8.5t29.5 -4t30 -1zM432 805q-4 0 -3 4l9 67q1 4 5 4h50q4 0 3 -4l-9 -67q-1 -4 -5 -4h-50zM243 805q-4 0 -3 4l9 67q1 4 5 4h50q4 0 3 -4l-9 -67q-1 -4 -5 -4h-50z" />
<glyph unicode="&#xd7;" horiz-adv-x="506" d="M95 106q-5 10 -25 30q-3 2 1 6l147 135q-109 134 -110 136q-1 3 2 6q1 1 9 8t15 14l8 7q3 3 6 0l110 -135q146 133 148 135t5 0q1 0 7 -7l12 -14t7 -8q3 -3 -1 -6l-148 -136q109 -133 110 -135q3 -2 -1 -6l-34 -30q-3 -2 -5 0l-110 136q-146 -134 -148 -136t-5 0z" />
<glyph unicode="&#xd8;" d="M38 -40q-3 0 0 4l48 74q-52 59 -33 189l33 231q9 62 29.5 107t44.5 68.5t59 37t62 16.5t65 3q91 0 133 -23q7 10 15 22.5t13 19t5 7.5q3 4 7 4h43q5 0 1 -4q-2 -2 -51 -77q49 -55 31 -181l-33 -231q-9 -66 -31 -112.5t-46 -70.5t-61 -36.5t-61.5 -15t-62.5 -2.5 q-87 0 -129 22q-30 -46 -31 -48q-2 -4 -6 -4h-44zM256 44q39 0 66 6t56 24t47.5 58t27.5 101l31 218q8 60 0 98.5t-31.5 56.5t-49 24t-64.5 6q-38 0 -65 -6t-56 -24t-48 -57t-27 -98l-31 -218q-2 -33 -4 -58.5t4.5 -45t12.5 -33.5t19.5 -23.5t24.5 -15t27.5 -8.5t29.5 -4 t30 -1z" />
<glyph unicode="&#xd9;" horiz-adv-x="604" d="M238 -10q-113 0 -147.5 61.5t-13.5 215.5l58 409q0 4 4 4h49q4 0 4 -4l-57 -403q-12 -80 -9 -131t30.5 -74.5t89.5 -23.5h47q39 0 65.5 9t44 24t29.5 46t18.5 63t14.5 87l57 403q0 4 4 4h49q4 0 4 -4l-58 -409q-11 -76 -25.5 -124t-40.5 -84.5t-67.5 -52.5t-102.5 -16 h-47zM385 762l-63 134q-1 4 1 4h56q4 0 5 -4l49 -134q2 -4 -3 -4h-41q-2 0 -4 4z" />
<glyph unicode="&#xda;" horiz-adv-x="604" d="M238 -10q-113 0 -147.5 61.5t-13.5 215.5l58 409q0 4 4 4h49q4 0 4 -4l-57 -403q-12 -80 -9 -131t30.5 -74.5t89.5 -23.5h47q39 0 65.5 9t44 24t29.5 46t18.5 63t14.5 87l57 403q0 4 4 4h49q4 0 4 -4l-58 -409q-11 -76 -25.5 -124t-40.5 -84.5t-67.5 -52.5t-102.5 -16 h-47zM351 762q-2 -4 -7 -4h-40q-3 0 -1 4l86 134q3 4 6 4h55q6 0 2 -4z" />
<glyph unicode="&#xdb;" horiz-adv-x="604" d="M238 -10q-113 0 -147.5 61.5t-13.5 215.5l58 409q0 4 4 4h49q4 0 4 -4l-57 -403q-12 -80 -9 -131t30.5 -74.5t89.5 -23.5h47q39 0 65.5 9t44 24t29.5 46t18.5 63t14.5 87l57 403q0 4 4 4h49q4 0 4 -4l-58 -409q-11 -76 -25.5 -124t-40.5 -84.5t-67.5 -52.5t-102.5 -16 h-47zM297 758h-40q-3 0 -1 4l97 134q2 4 7 4h55q6 0 7 -4q1 -2 30 -67t30 -67q1 -4 -3 -4h-42q-2 0 -4 4l-49 90h-5q-72 -87 -75 -90q-4 -4 -7 -4z" />
<glyph unicode="&#xdc;" horiz-adv-x="604" d="M238 -10q-113 0 -147.5 61.5t-13.5 215.5l58 409q0 4 4 4h49q4 0 4 -4l-57 -403q-12 -80 -9 -131t30.5 -74.5t89.5 -23.5h47q39 0 65.5 9t44 24t29.5 46t18.5 63t14.5 87l57 403q0 4 4 4h49q4 0 4 -4l-58 -409q-11 -76 -25.5 -124t-40.5 -84.5t-67.5 -52.5t-102.5 -16 h-47zM257 805q-4 0 -3 4l9 67q1 4 5 4h50q3 0 3 -4l-9 -67q-1 -4 -5 -4h-50zM446 805q-4 0 -3 4l9 67q1 4 5 4h50q3 0 3 -4l-9 -67q-1 -4 -5 -4h-50z" />
<glyph unicode="&#xdd;" horiz-adv-x="491" d="M182 0q-4 0 -4 4l39 272q-142 397 -143 400q-2 4 2 4h57q2 0 5 -4l114 -327h6q205 324 207 327q3 4 5 4h57q5 0 2 -4l-255 -400l-39 -272q0 -4 -4 -4h-49zM295 762q-2 -4 -7 -4h-40q-3 0 -1 4l85 134q3 4 7 4h55q6 0 2 -4z" />
<glyph unicode="&#xde;" horiz-adv-x="557" d="M135 213h162q31 0 53 3.5t46 15t39 36t20 62.5l6 45q9 71 -24 92.5t-99 21.5h-165zM102 0h-50q-4 0 -4 4l95 672q0 4 4 4h50q3 0 3 -4l-19 -133h161q35 0 55.5 -1.5t50 -10.5t44.5 -25.5t23.5 -50t2.5 -81.5l-6 -45q-6 -46 -24.5 -79.5t-40 -50.5t-53 -26.5t-53.5 -11.5 t-52 -2h-162l-22 -155q0 -4 -3 -4z" />
<glyph unicode="&#xdf;" horiz-adv-x="514" d="M97 0h-47q-3 0 -3 4l67 473q10 68 30 112t50 63.5t57 26t65 6.5q163 0 140 -154l-8 -53q-5 -37 -20.5 -66.5t-28.5 -39.5l-13 -11l-1 -4q3 -1 7 -4t16 -14.5t18 -26.5t12 -41t-1 -58l-8 -53q-8 -53 -27.5 -87t-51 -49t-61 -19.5t-74.5 -4.5q-3 0 -3 4l7 44q0 4 3 4 q31 0 52 3.5t44 14t37.5 34.5t19.5 61l6 44q5 39 -2.5 65t-27.5 37t-40.5 15t-49.5 4q-2 0 -2 4l6 44q0 4 4 4q53 0 85 22t40 79l6 44q15 106 -91 106q-30 0 -49 -4.5t-39 -19.5t-33 -47.5t-20 -84.5l-67 -473q0 -4 -4 -4z" />
<glyph unicode="&#xe0;" horiz-adv-x="488" d="M173 -7q-75 0 -108 37t-26 90l7 50q7 53 51 84t99 31q24 0 63 -3.5t66 -7.5l27 -3l9 61q10 65 -15.5 85t-86.5 20q-32 0 -64.5 -4t-48 -7.5t-17.5 -4.5q-4 -1 -4 3l-6 36q0 4 3 5q66 22 147 22q38 0 61 -4t48 -17.5t34 -46.5t2 -85l-46 -330q-1 -4 -5 -4h-46q-3 0 -3 4 l4 26q-31 -37 -145 -37zM191 43q21 0 35 0.5t34.5 5t33 12.5t23.5 24t14 38l15 102q-94 14 -151 14q-41 0 -66.5 -20.5t-29.5 -50.5l-6 -43q-5 -34 16 -58t82 -24zM299 562l-63 134q-1 4 2 4h56q3 0 4 -4l49 -134q2 -4 -2 -4h-41q-3 0 -5 4z" />
<glyph unicode="&#xe1;" horiz-adv-x="488" d="M173 -7q-75 0 -108 37t-26 90l7 50q7 53 51 84t99 31q24 0 63 -3.5t66 -7.5l27 -3l9 61q10 65 -15.5 85t-86.5 20q-32 0 -64.5 -4t-48 -7.5t-17.5 -4.5q-4 -1 -4 3l-6 36q0 4 3 5q66 22 147 22q38 0 61 -4t48 -17.5t34 -46.5t2 -85l-46 -330q-1 -4 -5 -4h-46q-3 0 -3 4 l4 26q-31 -37 -145 -37zM191 43q21 0 35 0.5t34.5 5t33 12.5t23.5 24t14 38l15 102q-94 14 -151 14q-41 0 -66.5 -20.5t-29.5 -50.5l-6 -43q-5 -34 16 -58t82 -24zM265 562q-2 -4 -6 -4h-40q-4 0 -2 4l86 134q3 4 7 4h55q5 0 1 -4z" />
<glyph unicode="&#xe2;" horiz-adv-x="488" d="M173 -7q-75 0 -108 37t-26 90l7 50q7 53 51 84t99 31q24 0 63 -3.5t66 -7.5l27 -3l9 61q10 65 -15.5 85t-86.5 20q-32 0 -64.5 -4t-48 -7.5t-17.5 -4.5q-4 -1 -4 3l-6 36q0 4 3 5q66 22 147 22q38 0 61 -4t48 -17.5t34 -46.5t2 -85l-46 -330q-1 -4 -5 -4h-46q-3 0 -3 4 l4 26q-31 -37 -145 -37zM191 43q21 0 35 0.5t34.5 5t33 12.5t23.5 24t14 38l15 102q-94 14 -151 14q-41 0 -66.5 -20.5t-29.5 -50.5l-6 -43q-5 -34 16 -58t82 -24zM212 558h-40q-4 0 -2 4l97 134q2 4 8 4h55q5 0 6 -4q1 -2 30 -67t30 -67q1 -4 -2 -4h-42q-3 0 -5 4l-49 90 h-5q-72 -87 -75 -90q-4 -4 -6 -4z" />
<glyph unicode="&#xe3;" horiz-adv-x="488" d="M173 -7q-75 0 -108 37t-26 90l7 50q7 53 51 84t99 31q24 0 63 -3.5t66 -7.5l27 -3l9 61q10 65 -15.5 85t-86.5 20q-32 0 -64.5 -4t-48 -7.5t-17.5 -4.5q-4 -1 -4 3l-6 36q0 4 3 5q66 22 147 22q38 0 61 -4t48 -17.5t34 -46.5t2 -85l-46 -330q-1 -4 -5 -4h-46q-3 0 -3 4 l4 26q-31 -37 -145 -37zM191 43q21 0 35 0.5t34.5 5t33 12.5t23.5 24t14 38l15 102q-94 14 -151 14q-41 0 -66.5 -20.5t-29.5 -50.5l-6 -43q-5 -34 16 -58t82 -24zM174 600q-2 0 -2 5l4 30q0 5 5 10l5 5q5 5 11 9.5t14 9.5t18 8t20 3q23 0 52 -19t48 -19q21 0 42 17.5 t22 17.5q3 0 3 -4l-5 -31q0 -6 -4 -11q-3 -5 -10.5 -11.5t-24.5 -15t-34 -8.5q-23 0 -52 19.5t-47 19.5q-20 0 -42 -17.5t-23 -17.5z" />
<glyph unicode="&#xe4;" horiz-adv-x="488" d="M173 -7q-75 0 -108 37t-26 90l7 50q7 53 51 84t99 31q24 0 63 -3.5t66 -7.5l27 -3l9 61q10 65 -15.5 85t-86.5 20q-32 0 -64.5 -4t-48 -7.5t-17.5 -4.5q-4 -1 -4 3l-6 36q0 4 3 5q66 22 147 22q38 0 61 -4t48 -17.5t34 -46.5t2 -85l-46 -330q-1 -4 -5 -4h-46q-3 0 -3 4 l4 26q-31 -37 -145 -37zM191 43q21 0 35 0.5t34.5 5t33 12.5t23.5 24t14 38l15 102q-94 14 -151 14q-41 0 -66.5 -20.5t-29.5 -50.5l-6 -43q-5 -34 16 -58t82 -24zM358 605q-4 0 -3 4l9 67q1 4 5 4h50q3 0 3 -4l-9 -67q-1 -4 -5 -4h-50zM169 605q-4 0 -3 4l9 67q1 4 5 4h50 q3 0 3 -4l-9 -67q-1 -4 -5 -4h-50z" />
<glyph unicode="&#xe5;" horiz-adv-x="488" d="M173 -7q-75 0 -108 37t-26 90l7 50q7 53 51 84t99 31q24 0 63 -3.5t66 -7.5l27 -3l9 61q10 65 -15.5 85t-86.5 20q-32 0 -64.5 -4t-48 -7.5t-17.5 -4.5q-4 -1 -4 3l-6 36q0 4 3 5q66 22 147 22q38 0 61 -4t48 -17.5t34 -46.5t2 -85l-46 -330q-1 -4 -5 -4h-46q-3 0 -3 4 l4 26q-31 -37 -145 -37zM191 43q21 0 35 0.5t34.5 5t33 12.5t23.5 24t14 38l15 102q-94 14 -151 14q-41 0 -66.5 -20.5t-29.5 -50.5l-6 -43q-5 -34 16 -58t82 -24zM280 543q-18 0 -31 2.5t-25.5 10t-17.5 23.5t-1 41l3 20q12 75 98 75q17 0 29 -2t25 -9t18 -23t1 -41l-3 -20 q-5 -33 -21.5 -51t-33 -22t-41.5 -4zM285 575q25 0 39.5 9.5t19.5 38.5l2 13q4 28 -7.5 37.5t-37.5 9.5q-53 0 -60 -47l-2 -13q-4 -29 8 -38.5t38 -9.5z" />
<glyph unicode="&#xe6;" horiz-adv-x="774" d="M190 45q27 0 46.5 2.5t41.5 10.5t35 25.5t17 44.5l13 97q-88 14 -150 14q-36 0 -64 -18.5t-32 -52.5l-5 -40q-6 -46 24.5 -64.5t73.5 -18.5zM404 262h260q7 34 4.5 59t-4.5 43t-11.5 30.5t-17.5 19.5t-22 10.5t-25 4.5t-27 1q-34 0 -55.5 -5t-44 -21t-36 -51t-21.5 -91z M171 -5q-23 0 -45.5 5.5t-46.5 18t-36 39.5t-6 65l7 48q5 34 23 58t43 35.5t45.5 16t39.5 4.5q25 0 63.5 -3.5t65.5 -7.5l26 -3l8 56q5 36 -0.5 58.5t-22.5 32t-34 12t-46 2.5q-20 0 -40.5 -2t-35 -4.5t-26 -4.5t-17.5 -4l-7 -2q-4 0 -5 2q0 1 -4 18.5t-3 18.5 q-1 1 -0.5 2.5t2.5 2.5q69 23 147 23q67 0 97.5 -14t43.5 -48q29 32 64.5 47t96.5 15q13 0 23.5 -0.5t26 -2.5t26 -6.5t24.5 -11.5t22 -18t18 -26.5t12 -36.5t4.5 -47.5t-4.5 -60.5l-8 -56h-315q-13 -104 16.5 -136.5t105.5 -32.5q20 0 42 1.5t38.5 4t30.5 5t22 4.5l8 1 q3 0 4 -3l7 -37q0 -3 -3 -5q-69 -23 -157 -23q-69 0 -103.5 16t-54.5 54q-31 -39 -69 -54.5t-113 -15.5z" />
<glyph unicode="&#xe7;" horiz-adv-x="447" d="M164 -145h-55q-6 0 -3 4q0 1 15 26t34 58t28 49q-18 0 -32.5 2t-32 7t-29 14t-24 23t-17 34.5t-7.5 48.5t4 65l15 109q7 51 24 88t36.5 56.5t48 30t49.5 13t50 2.5q72 0 140 -17q3 -1 1 -5l-16 -36q-1 -3 -5 -3q-27 9 -126 9q-28 0 -47.5 -4.5t-42 -17.5t-37.5 -43.5 t-21 -77.5l-14 -100q-7 -48 -0.5 -79.5t25.5 -45t37 -17.5t45 -4q32 0 65.5 3t50.5 6t20 4t4 -2l6 -37q0 -4 -4 -5q-31 -15 -116 -20l-63 -134q-2 -4 -6 -4z" />
<glyph unicode="&#xe8;" horiz-adv-x="478" d="M208 -8q-22 0 -39 1.5t-38.5 6.5t-35.5 14t-29.5 24t-21 37t-10 53t3.5 71l11 83q9 65 32.5 108t57 62t63 25.5t65.5 6.5q16 0 27.5 -0.5t27 -3t26.5 -6.5t24 -12t21 -18.5t15.5 -26.5t10.5 -36.5t3 -48t-5 -60.5l-8 -56h-314q-7 -34 -4.5 -59.5t5.5 -44t13.5 -31t20 -20 t25 -11.5t29 -5t31.5 -1q21 0 43 1.5t39 4t30.5 4.5t22.5 4l8 1q5 0 5 -3q0 -2 2 -19t2 -18q0 -3 -3 -5q-4 -2 -19 -6.5t-54.5 -10t-82.5 -5.5zM102 262h259q14 99 -11 134.5t-91 35.5q-34 0 -56 -5t-44 -22t-35.5 -52t-21.5 -91zM294 562l-64 134q0 4 2 4h56q3 0 4 -4 l50 -134q0 -4 -3 -4h-41q-2 0 -4 4z" />
<glyph unicode="&#xe9;" horiz-adv-x="478" d="M208 -8q-22 0 -39 1.5t-38.5 6.5t-35.5 14t-29.5 24t-21 37t-10 53t3.5 71l11 83q9 65 32.5 108t57 62t63 25.5t65.5 6.5q16 0 27.5 -0.5t27 -3t26.5 -6.5t24 -12t21 -18.5t15.5 -26.5t10.5 -36.5t3 -48t-5 -60.5l-8 -56h-314q-7 -34 -4.5 -59.5t5.5 -44t13.5 -31t20 -20 t25 -11.5t29 -5t31.5 -1q21 0 43 1.5t39 4t30.5 4.5t22.5 4l8 1q5 0 5 -3q0 -2 2 -19t2 -18q0 -3 -3 -5q-4 -2 -19 -6.5t-54.5 -10t-82.5 -5.5zM102 262h259q14 99 -11 134.5t-91 35.5q-34 0 -56 -5t-44 -22t-35.5 -52t-21.5 -91zM260 562q-4 -4 -7 -4h-40q-4 0 -2 4l86 134 q3 4 7 4h55q6 0 2 -4z" />
<glyph unicode="&#xea;" horiz-adv-x="478" d="M208 -8q-22 0 -39 1.5t-38.5 6.5t-35.5 14t-29.5 24t-21 37t-10 53t3.5 71l11 83q9 65 32.5 108t57 62t63 25.5t65.5 6.5q16 0 27.5 -0.5t27 -3t26.5 -6.5t24 -12t21 -18.5t15.5 -26.5t10.5 -36.5t3 -48t-5 -60.5l-8 -56h-314q-7 -34 -4.5 -59.5t5.5 -44t13.5 -31t20 -20 t25 -11.5t29 -5t31.5 -1q21 0 43 1.5t39 4t30.5 4.5t22.5 4l8 1q5 0 5 -3q0 -2 2 -19t2 -18q0 -3 -3 -5q-4 -2 -19 -6.5t-54.5 -10t-82.5 -5.5zM102 262h259q14 99 -11 134.5t-91 35.5q-34 0 -56 -5t-44 -22t-35.5 -52t-21.5 -91zM206 558h-40q-4 0 -2 4l98 134q2 4 7 4h55 q5 0 6 -4q1 -2 30.5 -67t30.5 -67q1 -4 -3 -4h-42q-2 0 -4 4l-50 90h-5q-71 -87 -74 -90q-4 -4 -7 -4z" />
<glyph unicode="&#xeb;" horiz-adv-x="478" d="M208 -8q-22 0 -39 1.5t-38.5 6.5t-35.5 14t-29.5 24t-21 37t-10 53t3.5 71l11 83q9 65 32.5 108t57 62t63 25.5t65.5 6.5q16 0 27.5 -0.5t27 -3t26.5 -6.5t24 -12t21 -18.5t15.5 -26.5t10.5 -36.5t3 -48t-5 -60.5l-8 -56h-314q-7 -34 -4.5 -59.5t5.5 -44t13.5 -31t20 -20 t25 -11.5t29 -5t31.5 -1q21 0 43 1.5t39 4t30.5 4.5t22.5 4l8 1q5 0 5 -3q0 -2 2 -19t2 -18q0 -3 -3 -5q-4 -2 -19 -6.5t-54.5 -10t-82.5 -5.5zM102 262h259q14 99 -11 134.5t-91 35.5q-34 0 -56 -5t-44 -22t-35.5 -52t-21.5 -91zM353 605q-4 0 -4 4l10 67q0 4 4 4h50 q4 0 4 -4l-10 -67q0 -4 -4 -4h-50zM164 605q-4 0 -4 4l10 67q0 4 4 4h50q4 0 4 -4l-10 -67q0 -4 -4 -4h-50z" />
<glyph unicode="&#xec;" horiz-adv-x="227" d="M50 0q-4 0 -4 4l66 469q0 4 5 4h47q2 0 2 -4l-66 -469q0 -4 -3 -4h-47zM169 562l-63 134q-1 4 1 4h56q4 0 5 -4l49 -134q2 -4 -3 -4h-41q-2 0 -4 4z" />
<glyph unicode="&#xed;" horiz-adv-x="227" d="M50 0q-4 0 -4 4l66 469q0 4 5 4h47q2 0 2 -4l-66 -469q0 -4 -3 -4h-47zM135 562q-2 -4 -7 -4h-40q-3 0 -1 4l86 134q3 4 6 4h55q6 0 2 -4z" />
<glyph unicode="&#xee;" horiz-adv-x="227" d="M50 0q-4 0 -4 4l66 469q0 4 5 4h47q2 0 2 -4l-66 -469q0 -4 -3 -4h-47zM81 558h-40q-5 0 -1 4l96 134q4 4 8 4h55q5 0 6 -4q1 -2 30.5 -67t30.5 -67q1 -4 -3 -4h-42q-3 0 -5 4l-49 90h-5q-72 -87 -75 -90q-4 -4 -6 -4z" />
<glyph unicode="&#xef;" horiz-adv-x="227" d="M50 0q-4 0 -4 4l66 469q0 4 5 4h47q3 0 3 -4l-66 -469q0 -4 -4 -4h-47zM39 605q-4 0 -3 4l9 67q1 4 5 4h50q3 0 3 -4l-9 -67q-1 -4 -5 -4h-50zM228 605q-4 0 -3 4l9 67q1 4 5 4h50q3 0 3 -4l-9 -67q-1 -4 -5 -4h-50z" />
<glyph unicode="&#xf0;" horiz-adv-x="485" d="M197 47q57 0 98 20.5t47 65.5l39 271q-90 25 -125 25q-61 0 -97 -30t-50 -122l-11 -74q-14 -95 11 -125.5t88 -30.5zM174 -5q-18 0 -31 1t-28 4t-25.5 9.5t-21.5 16.5t-17 25t-10 35.5t-3.5 49t5.5 63.5l11 82q7 54 23.5 93t35 59.5t46 31.5t48 13.5t50.5 2.5 q21 0 53.5 -6.5t55.5 -12.5l22 -6l15 106h-137q-4 0 -4 4l6 40q0 4 4 4h138l9 65q0 4 4 4h45q4 0 4 -4l-9 -65h40q4 0 4 -4l-6 -40q0 -4 -4 -4h-42l-78 -558q-1 -4 -4 -4h-45q-4 0 -4 3l4 32q-37 -40 -154 -40z" />
<glyph unicode="&#xf1;" horiz-adv-x="515" d="M50 0q-3 0 -3 4l66 469q0 4 4 4h47q4 0 3 -4l-3 -25q95 34 144 34q14 0 24 -0.5t24 -2t22.5 -4.5t20.5 -8.5t18 -13.5t13.5 -19.5t8.5 -26.5t3.5 -34.5t-3.5 -43.5l-46 -325q0 -4 -4 -4h-45q-4 0 -4 4l46 323q9 66 -13 85.5t-75 19.5q-19 0 -54 -9t-61 -17l-26 -9 l-56 -393q0 -4 -4 -4h-47zM187 600q-3 0 -2 5l4 30q0 5 5 10l5 5q5 5 10.5 9.5t13.5 9.5t18 8t20 3q23 0 52 -19t49 -19q21 0 42 17.5t22 17.5q3 0 2 -4l-4 -31q-2 -7 -5 -11q-26 -35 -68 -35q-23 0 -52 19.5t-47 19.5q-20 0 -42 -17.5t-23 -17.5z" />
<glyph unicode="&#xf2;" horiz-adv-x="484" d="M196 -8q-20 0 -34.5 1t-33 4t-30 9t-25.5 16.5t-20 25t-13 36t-4.5 49t4.5 63.5l12 89q7 53 23 90.5t35.5 58.5t48 33t53 15t58.5 3q17 0 29.5 -0.5t28.5 -2.5t27 -6t23.5 -11.5t20.5 -17.5t15.5 -25t10 -34.5t2.5 -45.5t-4 -57l-12 -89q-6 -47 -17.5 -82.5t-29 -57 t-34.5 -35t-42 -19.5t-44.5 -8t-47.5 -2zM203 44q32 0 51.5 4t42 18.5t37 47.5t22.5 86l12 80q3 35 4.5 60t-6 42t-15 27t-23.5 15.5t-30 7t-35 1.5q-32 0 -53.5 -4.5t-44 -19.5t-36.5 -47t-22 -82l-12 -80q-5 -31 -4.5 -55t4 -40t12 -27.5t17.5 -18t23 -10t26 -4.5t30 -1z M297 562l-63 134q0 4 2 4h56q3 0 4 -4l49 -134q2 -4 -2 -4h-41q-3 0 -5 4z" />
<glyph unicode="&#xf3;" horiz-adv-x="484" d="M196 -8q-20 0 -34.5 1t-33 4t-30 9t-25.5 16.5t-20 25t-13 36t-4.5 49t4.5 63.5l12 89q7 53 23 90.5t35.5 58.5t48 33t53 15t58.5 3q17 0 29.5 -0.5t28.5 -2.5t27 -6t23.5 -11.5t20.5 -17.5t15.5 -25t10 -34.5t2.5 -45.5t-4 -57l-12 -89q-6 -47 -17.5 -82.5t-29 -57 t-34.5 -35t-42 -19.5t-44.5 -8t-47.5 -2zM203 44q32 0 51.5 4t42 18.5t37 47.5t22.5 86l12 80q3 35 4.5 60t-6 42t-15 27t-23.5 15.5t-30 7t-35 1.5q-32 0 -53.5 -4.5t-44 -19.5t-36.5 -47t-22 -82l-12 -80q-5 -31 -4.5 -55t4 -40t12 -27.5t17.5 -18t23 -10t26 -4.5t30 -1z M264 562q-4 -4 -7 -4h-40q-5 0 -1 4l85 134q3 4 7 4h55q5 0 1 -4z" />
<glyph unicode="&#xf4;" horiz-adv-x="484" d="M196 -8q-20 0 -34.5 1t-33 4t-30 9t-25.5 16.5t-20 25t-13 36t-4.5 49t4.5 63.5l12 89q7 53 23 90.5t35.5 58.5t48 33t53 15t58.5 3q17 0 29.5 -0.5t28.5 -2.5t27 -6t23.5 -11.5t20.5 -17.5t15.5 -25t10 -34.5t2.5 -45.5t-4 -57l-12 -89q-6 -47 -17.5 -82.5t-29 -57 t-34.5 -35t-42 -19.5t-44.5 -8t-47.5 -2zM203 44q32 0 51.5 4t42 18.5t37 47.5t22.5 86l12 80q3 35 4.5 60t-6 42t-15 27t-23.5 15.5t-30 7t-35 1.5q-32 0 -53.5 -4.5t-44 -19.5t-36.5 -47t-22 -82l-12 -80q-5 -31 -4.5 -55t4 -40t12 -27.5t17.5 -18t23 -10t26 -4.5t30 -1z M210 558h-40q-4 0 -2 4l97 134q2 4 8 4h55q5 0 6 -4q1 -2 30 -67t30 -67q1 -4 -2 -4h-42q-3 0 -5 4l-49 90h-5q-72 -87 -75 -90q-4 -4 -6 -4z" />
<glyph unicode="&#xf5;" horiz-adv-x="484" d="M203 44q32 0 51.5 4t42 18.5t37 47.5t22.5 86l12 80q3 35 4.5 60t-6 42t-15 27t-23.5 15.5t-30 7t-35 1.5q-32 0 -53.5 -4.5t-44 -19.5t-36.5 -47t-22 -82l-12 -80q-5 -31 -4.5 -55t4 -40t12 -27.5t17.5 -18t23 -10t26 -4.5t30 -1zM196 -8q-20 0 -34.5 1t-33 4t-30 9 t-25.5 16.5t-20 25t-13 36t-4.5 49t4.5 63.5l12 89q7 53 23 90.5t35.5 58.5t48 33t53 15t58.5 3q17 0 29.5 -0.5t28.5 -2.5t27 -6t23.5 -11.5t20.5 -17.5t15.5 -25t10 -34.5t2.5 -45.5t-4 -57l-12 -89q-6 -47 -17.5 -82.5t-29 -57t-34.5 -35t-42 -19.5t-44.5 -8t-47.5 -2z M173 600q-4 0 -3 5l5 30q0 6 4 10l5 5q5 5 11 9.5t14 9.5t18 8t20 3q23 0 52 -19t49 -19q21 0 41.5 17.5t21.5 17.5q3 0 3 -4l-4 -31q-2 -7 -5 -11q-3 -5 -10.5 -11.5t-24.5 -15t-34 -8.5q-23 0 -51.5 19.5t-46.5 19.5q-20 0 -42 -17.5t-23 -17.5z" />
<glyph unicode="&#xf6;" horiz-adv-x="484" d="M196 -8q-20 0 -34.5 1t-33 4t-30 9t-25.5 16.5t-20 25t-13 36t-4.5 49t4.5 63.5l12 89q7 53 23 90.5t35.5 58.5t48 33t53 15t58.5 3q17 0 29.5 -0.5t28.5 -2.5t27 -6t23.5 -11.5t20.5 -17.5t15.5 -25t10 -34.5t2.5 -45.5t-4 -57l-12 -89q-6 -47 -17.5 -82.5t-29 -57 t-34.5 -35t-42 -19.5t-44.5 -8t-47.5 -2zM203 44q32 0 51.5 4t42 18.5t37 47.5t22.5 86l12 80q3 35 4.5 60t-6 42t-15 27t-23.5 15.5t-30 7t-35 1.5q-32 0 -53.5 -4.5t-44 -19.5t-36.5 -47t-22 -82l-12 -80q-5 -31 -4.5 -55t4 -40t12 -27.5t17.5 -18t23 -10t26 -4.5t30 -1z M356 605q-4 0 -3 4l9 67q1 4 5 4h50q4 0 3 -4l-9 -67q-1 -4 -5 -4h-50zM167 605q-4 0 -3 4l9 67q1 4 5 4h50q4 0 3 -4l-9 -67q-1 -4 -5 -4h-50z" />
<glyph unicode="&#xf7;" horiz-adv-x="507" d="M61 250q-3 0 -3 4l6 42q0 4 4 4h373q4 0 4 -4l-6 -42q0 -4 -5 -4h-373zM195 85q-4 0 -4 4l11 75q0 4 5 4h60q2 0 2 -4l-10 -75q0 -4 -4 -4h-60zM237 383q-4 0 -4 4l11 74q0 4 4 4h60q3 0 3 -4l-11 -74q0 -4 -3 -4h-60z" />
<glyph unicode="&#xf8;" horiz-adv-x="484" d="M57 -34q-3 0 -3 2t4.5 9.5t12 19t11.5 17.5q-60 42 -42 182l12 89q7 53 23 90.5t35.5 58.5t48 33t53.5 15t59 3q54 0 82 -9l21 32q2 4 6 4h38q5 0 2 -4l-32 -50q53 -41 35 -173l-12 -89q-6 -47 -17.5 -82.5t-29 -57t-34.5 -35t-42 -19.5t-44.5 -8t-47.5 -2q-50 0 -76 7 l-20 -30q-2 -3 -5 -3h-38zM204 44q32 0 51.5 4t42 18.5t36.5 47.5t22 86l12 80q3 35 4.5 60t-6 42t-15 27t-23.5 15.5t-30 7t-35 1.5q-32 0 -53.5 -4.5t-44 -19.5t-36.5 -47t-22 -82l-12 -80q-3 -37 -4.5 -62.5t7.5 -43t16.5 -27.5t24.5 -15t30.5 -6.5t34.5 -1.5z" />
<glyph unicode="&#xf9;" horiz-adv-x="509" d="M448 477q4 0 4 -4l-66 -469q0 -4 -5 -4h-46q-3 0 -2 4l2 20q-95 -31 -143 -31q-15 0 -25 0.5t-24 2t-23 4.5t-20.5 8.5t-17.5 13.5t-14 19.5t-9 26.5t-3 34.5t3 43.5l45 327q1 4 5 4h46q4 0 4 -4l-46 -325q-10 -66 12.5 -85.5t75.5 -19.5q19 0 54.5 8t61.5 16l26 8 l55 398q1 4 4 4h46zM310 562l-63 134q-1 4 1 4h56q4 0 5 -4l49 -134q2 -4 -3 -4h-41q-2 0 -4 4z" />
<glyph unicode="&#xfa;" horiz-adv-x="509" d="M448 477q4 0 4 -4l-66 -469q0 -4 -5 -4h-46q-3 0 -2 4l2 20q-95 -31 -143 -31q-15 0 -25 0.5t-24 2t-23 4.5t-20.5 8.5t-17.5 13.5t-14 19.5t-9 26.5t-3 34.5t3 43.5l45 327q1 4 5 4h46q4 0 4 -4l-46 -325q-10 -66 12.5 -85.5t75.5 -19.5q19 0 54.5 8t61.5 16l26 8 l55 398q1 4 4 4h46zM276 562q-2 -4 -7 -4h-40q-3 0 -1 4l86 134q3 4 6 4h55q6 0 2 -4z" />
<glyph unicode="&#xfb;" horiz-adv-x="509" d="M448 477q4 0 4 -4l-66 -469q0 -4 -5 -4h-46q-3 0 -2 4l2 20q-95 -31 -143 -31q-15 0 -25 0.5t-24 2t-23 4.5t-20.5 8.5t-17.5 13.5t-14 19.5t-9 26.5t-3 34.5t3 43.5l45 327q1 4 5 4h46q4 0 4 -4l-46 -325q-10 -66 12.5 -85.5t75.5 -19.5q19 0 54.5 8t61.5 16l26 8 l55 398q1 4 4 4h46zM222 558h-40q-3 0 -1 4l97 134q2 4 7 4h55q6 0 7 -4q1 -2 30 -67t30 -67q1 -4 -3 -4h-42q-2 0 -4 4l-49 90h-5q-72 -87 -75 -90q-4 -4 -7 -4z" />
<glyph unicode="&#xfc;" horiz-adv-x="509" d="M448 477q4 0 4 -4l-66 -469q0 -4 -5 -4h-46q-3 0 -2 4l2 20q-95 -31 -143 -31q-15 0 -25 0.5t-24 2t-23 4.5t-20.5 8.5t-17.5 13.5t-14 19.5t-9 26.5t-3 34.5t3 43.5l45 327q1 4 5 4h46q4 0 4 -4l-46 -325q-10 -66 12.5 -85.5t75.5 -19.5q19 0 54.5 8t61.5 16l26 8 l55 398q1 4 4 4h46zM180 605q-4 0 -3 4l9 67q1 4 5 4h50q3 0 3 -4l-9 -67q-1 -4 -5 -4h-50zM369 605q-4 0 -3 4l9 67q1 4 5 4h50q3 0 3 -4l-9 -67q-1 -4 -5 -4h-50z" />
<glyph unicode="&#xfd;" horiz-adv-x="445" d="M0 -180q-3 0 -3 3q0 2 6.5 22.5t6.5 21.5q0 4 5 4h22q26 0 45 16t49 74l24 49q-98 460 -99 463q-1 4 3 4h49q4 0 5 -4l80 -377h10q183 374 184 377q1 4 5 4h50q2 0 1 -4q-1 -3 -259 -519q-26 -50 -44 -77.5t-37 -40t-31 -14.5t-39 -2h-33zM248 562q-2 -4 -7 -4h-40 q-3 0 -1 4l86 134q3 4 6 4h55q6 0 2 -4z" />
<glyph unicode="&#xfe;" horiz-adv-x="505" d="M71 -180h-46q-3 0 -3 4l120 852q0 4 4 4h46q3 0 3 -4l-33 -234q4 6 15.5 13.5t49 17t90.5 9.5q14 0 22.5 -0.5t23 -2.5t23.5 -5.5t21 -10.5t19 -17t14 -25.5t10 -35.5t2.5 -47t-4.5 -60l-11 -83q-6 -41 -17 -74t-23.5 -53.5t-31 -35t-32.5 -21.5t-36 -11t-33.5 -4.5 t-31.5 -0.5l-129 25l-28 -196q0 -4 -4 -4zM110 73q90 -26 125 -26q27 0 44.5 3.5t40.5 17t38.5 46.5t23.5 86l11 74q3 36 4.5 61.5t-6 42.5t-15 27.5t-22.5 16t-28 7t-32 1.5q-62 0 -100.5 -22t-44.5 -64z" />
<glyph unicode="&#xff;" horiz-adv-x="445" d="M0 -180q-3 0 -3 3q0 2 6.5 22.5t6.5 21.5q0 4 5 4h22q26 0 45 16t49 74l24 49q-98 460 -99 463q-1 4 3 4h49q4 0 5 -4l80 -377h10q183 374 184 377q1 4 5 4h50q2 0 1 -4q-1 -3 -259 -519q-26 -50 -44 -77.5t-37 -40t-31 -14.5t-39 -2h-33zM153 605q-4 0 -3 4l9 67 q1 4 4 4h50q4 0 4 -4l-10 -67q0 -4 -4 -4h-50zM342 605q-4 0 -3 4l9 67q1 4 4 4h50q4 0 4 -4l-10 -67q0 -4 -4 -4h-50z" />
<glyph unicode="&#x100;" horiz-adv-x="567" d="M142 208h262l-69 374h-17zM41 0h-51q-4 0 -3 4q0 1 159 336t159 337q0 3 5 3h61q3 0 5 -3q0 -2 62 -337t63 -336q2 -4 -2 -4h-52q-3 0 -4 4l-28 149h-299q-69 -146 -70 -149q-1 -4 -5 -4zM479 821h-241q-4 0 -3 4l6 42q0 4 4 4h241q4 0 4 -4l-6 -42q0 -4 -5 -4z" />
<glyph unicode="&#x101;" horiz-adv-x="488" d="M173 -7q-75 0 -108 37t-26 90l7 50q7 53 51 84t99 31q24 0 63 -3.5t66 -7.5l27 -3l9 61q10 65 -15.5 85t-86.5 20q-32 0 -64.5 -4t-48 -7.5t-17.5 -4.5q-4 -1 -4 3l-6 36q0 4 3 5q66 22 147 22q38 0 61 -4t48 -17.5t34 -46.5t2 -85l-46 -330q-1 -4 -5 -4h-46q-3 0 -3 4 l4 26q-31 -37 -145 -37zM191 43q21 0 35 0.5t34.5 5t33 12.5t23.5 24t14 38l15 102q-94 14 -151 14q-41 0 -66.5 -20.5t-29.5 -50.5l-6 -43q-5 -34 16 -58t82 -24zM411 618h-241q-4 0 -3 4l5 42q1 4 5 4h241q4 0 4 -4l-6 -42q0 -4 -5 -4z" />
<glyph unicode="&#x102;" horiz-adv-x="567" d="M142 208h262l-69 374h-17zM41 0h-51q-4 0 -3 4q0 1 159 336t159 337q0 3 5 3h61q3 0 5 -3q0 -2 62 -337t63 -336q2 -4 -2 -4h-52q-3 0 -4 4l-28 149h-299q-69 -146 -70 -149q-1 -4 -5 -4zM353 773q-105 0 -105 91q0 24 6 24h24q5 0 6 -5q6 -40 21.5 -53t53.5 -13 q37 0 55.5 13.5t35.5 52.5q2 5 5 5h29q4 0 3 -5q-26 -110 -134 -110z" />
<glyph unicode="&#x103;" horiz-adv-x="488" d="M173 -7q-75 0 -108 37t-26 90l7 50q7 53 51 84t99 31q24 0 63 -3.5t66 -7.5l27 -3l9 61q10 65 -15.5 85t-86.5 20q-32 0 -64.5 -4t-48 -7.5t-17.5 -4.5q-4 -1 -4 3l-6 36q0 4 3 5q66 22 147 22q38 0 61 -4t48 -17.5t34 -46.5t2 -85l-46 -330q-1 -4 -5 -4h-46q-3 0 -3 4 l4 26q-31 -37 -145 -37zM191 43q21 0 35 0.5t34.5 5t33 12.5t23.5 24t14 38l15 102q-94 14 -151 14q-41 0 -66.5 -20.5t-29.5 -50.5l-6 -43q-5 -34 16 -58t82 -24zM285 570q-105 0 -105 91q0 24 5 24h24q6 0 7 -5q6 -40 21 -53t53 -13q37 0 56 13.5t36 52.5q2 5 4 5h29 q5 0 4 -5q-26 -110 -134 -110z" />
<glyph unicode="&#x104;" horiz-adv-x="567" d="M414 -172q-29 0 -44.5 10.5t-15.5 40.5q0 40 23 67.5t66 57.5l-28 149h-299q-69 -146 -70 -149q-1 -4 -5 -4h-51q-4 0 -3 4q0 1 159 336t159 337q0 3 5 3h61q3 0 5 -3q0 -2 62 -337t63 -336q2 -4 -2 -4h-4q-51 -35 -72 -58.5t-21 -46.5q0 -12 6 -16t20 -4q17 0 32 10 q4 2 4 -2q1 -1 3 -6.5t4.5 -11t2.5 -6.5q2 -7 -1 -9q-27 -22 -59 -22zM142 208h262l-69 374h-17z" />
<glyph unicode="&#x105;" horiz-adv-x="488" d="M280 -172q-29 0 -44.5 10.5t-15.5 40.5q0 45 28 79.5t64 34.5l1 7l1 7l3 23q-30 -37 -144 -37q-75 0 -108 37t-26 90l7 50q7 53 51 84t99 31q24 0 63 -3.5t66 -7.5l27 -3l9 61q10 65 -15.5 85t-86.5 20q-32 0 -64.5 -4t-48 -7.5t-17.5 -4.5q-4 -1 -4 3l-6 36q0 4 3 5 q66 22 147 22q38 0 61 -4t48 -17.5t34 -46.5t2 -85l-46 -330q-1 -4 -5 -4h-2q-51 -34 -71.5 -58t-20.5 -47q0 -12 6 -16t20 -4q16 0 31 10q4 2 5 -2q1 -1 5 -12t4 -12q2 -7 -1 -9q-28 -22 -59 -22zM191 43q21 0 35 0.5t34.5 5t33 12.5t23.5 24t14 38l15 102q-94 14 -151 14 q-41 0 -66.5 -20.5t-29.5 -50.5l-6 -43q-5 -34 16 -58t82 -24z" />
<glyph unicode="&#x106;" horiz-adv-x="528" d="M248 -10q-21 0 -37 1t-35 4t-34 8t-30.5 13.5t-26 21t-19.5 30.5t-13.5 40.5t-4.5 53t5 66.5l32 230q9 62 29 106.5t43.5 68.5t58.5 37t63 16.5t67 3.5q105 0 167 -31q2 -2 1 -5q-22 -33 -22 -38q-4 -4 -7 -2q-66 22 -147 22q-28 0 -48.5 -2.5t-47 -13t-44.5 -29 t-33.5 -54.5t-22.5 -86l-30 -218q-3 -41 -3.5 -71.5t10 -51.5t22 -34t31.5 -20t39 -9.5t44 -2.5q71 0 164 31q2 2 4 -2q1 -2 7 -19t6 -18q1 -2 -3 -5q-82 -41 -185 -41zM335 765q-4 -4 -7 -4h-40q-5 0 -1 4l85 134q3 4 7 4h55q6 0 2 -4z" />
<glyph unicode="&#x107;" horiz-adv-x="447" d="M199 -8q-14 0 -24.5 0.5t-24 2t-24 4.5t-23 8t-21 13t-17 18t-13.5 24.5t-8 32.5t-3 41t4 50l15 109q7 51 24 88t36.5 56.5t48 30t49.5 13t50 2.5q71 0 139 -17q4 -1 2 -5l-16 -36q-1 -3 -6 -3q-27 9 -125 9q-22 0 -38 -2t-35 -10.5t-32.5 -23.5t-25.5 -42t-17 -65 l-15 -100q-7 -48 -0.5 -79.5t25.5 -45t37.5 -17.5t45.5 -4q32 0 65.5 3t50.5 6t20 4t3 -2l6 -37q0 -4 -3 -5q-4 -2 -18 -6t-51.5 -9.5t-80.5 -5.5zM264 562q-4 -4 -7 -4h-40q-4 0 -2 4l86 134q3 4 7 4h55q6 0 2 -4z" />
<glyph unicode="&#x108;" horiz-adv-x="528" d="M248 -10q-21 0 -37 1t-35 4t-34 8t-30.5 13.5t-26 21t-19.5 30.5t-13.5 40.5t-4.5 53t5 66.5l32 230q9 62 29 106.5t43.5 68.5t58.5 37t63 16.5t67 3.5q105 0 167 -31q2 -2 1 -5q-22 -33 -22 -38q-4 -4 -7 -2q-66 22 -147 22q-28 0 -48.5 -2.5t-47 -13t-44.5 -29 t-33.5 -54.5t-22.5 -86l-30 -218q-3 -41 -3.5 -71.5t10 -51.5t22 -34t31.5 -20t39 -9.5t44 -2.5q71 0 164 31q2 2 4 -2q1 -2 7 -19t6 -18q1 -2 -3 -5q-82 -41 -185 -41zM280 761h-40q-5 0 -1 4l96 134q4 4 8 4h55q5 0 6 -4q1 -2 30.5 -67t30.5 -67q1 -4 -3 -4h-42q-3 0 -5 4 l-49 90h-5q-72 -87 -75 -90q-4 -4 -6 -4z" />
<glyph unicode="&#x109;" horiz-adv-x="447" d="M199 -8q-14 0 -24.5 0.5t-24 2t-24 4.5t-23 8t-21 13t-17 18t-13.5 24.5t-8 32.5t-3 41t4 50l15 109q7 51 24 88t36.5 56.5t48 30t49.5 13t50 2.5q71 0 139 -17q4 -1 2 -5l-16 -36q-1 -3 -6 -3q-27 9 -125 9q-22 0 -38 -2t-35 -10.5t-32.5 -23.5t-25.5 -42t-17 -65 l-15 -100q-7 -48 -0.5 -79.5t25.5 -45t37.5 -17.5t45.5 -4q32 0 65.5 3t50.5 6t20 4t3 -2l6 -37q0 -4 -3 -5q-4 -2 -18 -6t-51.5 -9.5t-80.5 -5.5zM210 558h-40q-5 0 -1 4l96 134q4 4 8 4h55q5 0 6 -4q1 -2 30.5 -67t30.5 -67q1 -4 -3 -4h-42q-2 0 -4 4l-50 90h-5 q-71 -87 -74 -90q-4 -4 -7 -4z" />
<glyph unicode="&#x10a;" horiz-adv-x="528" d="M248 -10q-21 0 -37 1t-35 4t-34 8t-30.5 13.5t-26 21t-19.5 30.5t-13.5 40.5t-4.5 53t5 66.5l32 230q9 62 29 106.5t43.5 68.5t58.5 37t63 16.5t67 3.5q105 0 167 -31q2 -2 1 -5q-22 -33 -22 -38q-4 -4 -7 -2q-66 22 -147 22q-28 0 -48.5 -2.5t-47 -13t-44.5 -29 t-33.5 -54.5t-22.5 -86l-30 -218q-3 -41 -3.5 -71.5t10 -51.5t22 -34t31.5 -20t39 -9.5t44 -2.5q71 0 164 31q2 2 4 -2q1 -2 7 -19t6 -18q1 -2 -3 -5q-82 -41 -185 -41zM329 806q-3 0 -3 4l10 69q0 4 4 4h55q4 0 4 -4l-10 -69q0 -4 -5 -4h-55z" />
<glyph unicode="&#x10b;" horiz-adv-x="447" d="M199 -8q-14 0 -24.5 0.5t-24 2t-24 4.5t-23 8t-21 13t-17 18t-13.5 24.5t-8 32.5t-3 41t4 50l15 109q7 51 24 88t36.5 56.5t48 30t49.5 13t50 2.5q71 0 139 -17q4 -1 2 -5l-16 -36q-1 -3 -6 -3q-27 9 -125 9q-22 0 -38 -2t-35 -10.5t-32.5 -23.5t-25.5 -42t-17 -65 l-15 -100q-7 -48 -0.5 -79.5t25.5 -45t37.5 -17.5t45.5 -4q32 0 65.5 3t50.5 6t20 4t3 -2l6 -37q0 -4 -3 -5q-4 -2 -18 -6t-51.5 -9.5t-80.5 -5.5zM260 603q-3 0 -3 4l10 69q0 4 4 4h55q4 0 4 -4l-10 -69q0 -4 -5 -4h-55z" />
<glyph unicode="&#x10c;" horiz-adv-x="528" d="M248 -10q-21 0 -37 1t-35 4t-34 8t-30.5 13.5t-26 21t-19.5 30.5t-13.5 40.5t-4.5 53t5 66.5l32 230q9 62 29 106.5t43.5 68.5t58.5 37t63 16.5t67 3.5q105 0 167 -31q2 -2 1 -5q-22 -33 -22 -38q-4 -4 -7 -2q-66 22 -147 22q-28 0 -48.5 -2.5t-47 -13t-44.5 -29 t-33.5 -54.5t-22.5 -86l-30 -218q-3 -41 -3.5 -71.5t10 -51.5t22 -34t31.5 -20t39 -9.5t44 -2.5q71 0 164 31q2 2 4 -2q1 -2 7 -19t6 -18q1 -2 -3 -5q-82 -41 -185 -41zM440 903h44q3 0 2 -4l-110 -134q-4 -4 -6 -4h-39q-4 0 -6 4q-9 18 -34 64t-37 71q-2 3 2 3h44q2 0 5 -4 l50 -89h5q71 86 73 89q3 4 7 4z" />
<glyph unicode="&#x10d;" horiz-adv-x="447" d="M199 -8q-14 0 -24.5 0.5t-24 2t-24 4.5t-23 8t-21 13t-17 18t-13.5 24.5t-8 32.5t-3 41t4 50l15 109q7 51 24 88t36.5 56.5t48 30t49.5 13t50 2.5q71 0 139 -17q4 -1 2 -5l-16 -36q-1 -3 -6 -3q-27 9 -125 9q-22 0 -38 -2t-35 -10.5t-32.5 -23.5t-25.5 -42t-17 -65 l-15 -100q-7 -48 -0.5 -79.5t25.5 -45t37.5 -17.5t45.5 -4q32 0 65.5 3t50.5 6t20 4t3 -2l6 -37q0 -4 -3 -5q-4 -2 -18 -6t-51.5 -9.5t-80.5 -5.5zM370 700h44q4 0 1 -4l-108 -134q-4 -4 -7 -4h-39q-4 0 -6 4q-9 18 -34 64t-37 71q-2 3 2 3h44q3 0 6 -4l49 -89h5 q72 86 74 89q3 4 6 4z" />
<glyph unicode="&#x10e;" horiz-adv-x="589" d="M113 54h152q42 0 70 6t56 24t45.5 56.5t25.5 98.5l29 207q2 32 4 56.5t-5 43.5t-12.5 32t-18.5 22t-24 14.5t-28 8t-30.5 3.5t-31.5 1h-152zM257 0h-209l96 680h209q18 0 30 -0.5t30.5 -2t30.5 -4.5t28.5 -8.5t27 -14.5t22 -21t18 -29t11 -38t4.5 -48.5t-5 -60.5 l-31 -220q-9 -65 -30 -110.5t-44.5 -69t-59.5 -36t-62 -15t-66 -2.5zM451 903h44q3 0 2 -4l-110 -134q-4 -4 -6 -4h-39q-4 0 -6 4q-12 22 -36.5 67t-35.5 68q0 3 3 3h44q2 0 5 -4l50 -89h5q71 86 73 89q3 4 7 4z" />
<glyph unicode="&#x10f;" horiz-adv-x="594" d="M375 0h-47q-3 0 -3 3l4 32q-39 -43 -154 -43q-16 0 -27.5 1t-27.5 3.5t-26.5 8.5t-22 15.5t-18 25t-11.5 36t-4.5 49.5t5.5 65l12 86q8 56 25.5 95.5t36.5 59.5t47.5 30.5t47.5 12.5t48 2q20 0 52 -6t54 -12l23 -7l31 219q0 4 3 4h47q4 0 4 -4l-95 -672q0 -4 -4 -4z M197 44q23 0 45 4t44.5 13.5t38 28t19.5 43.5l38 271q-93 26 -124 26q-21 0 -35.5 -1.5t-34.5 -10t-33.5 -24t-26 -45.5t-18.5 -72l-11 -77q-4 -28 -4.5 -50t2.5 -37.5t7.5 -27.5t13 -19.5t16.5 -12t20 -6.5t21 -2.5t22 -0.5zM520 527q-5 -5 -5 3l21 146q0 4 4 4h49 q4 0 4 -4l-14 -100q0 -2 -4 -5q-2 -1 -28 -22t-27 -22z" />
<glyph unicode="&#x110;" horiz-adv-x="590" d="M114 54h152q30 0 49 2t46 11.5t44.5 28t33.5 54.5t23 88l29 208q4 29 4 52.5t-3 41t-11 31.5t-15.5 22.5t-20 15t-22.5 10t-25.5 5t-25.5 2t-26 0.5h-152l-36 -257h133q4 0 3 -4l-6 -42q0 -4 -4 -4h-133zM246 0h-197l45 319h-49q-3 0 -3 4l6 42q0 4 4 4h49l44 311h197 q19 0 34 -0.5t33.5 -2.5t32.5 -6t30 -10t27.5 -15t22.5 -21.5t17.5 -29t11 -37.5t4 -47.5t-4.5 -57.5l-31 -220q-6 -42 -17 -76.5t-27 -58t-32 -41.5t-38.5 -28t-39.5 -16.5t-42.5 -9t-39 -3t-37.5 -0.5z" />
<glyph unicode="&#x111;" horiz-adv-x="485" d="M197 47q57 0 98 20.5t47 65.5l39 271q-90 25 -125 25q-61 0 -97 -30t-50 -122l-11 -74q-14 -95 11 -125.5t88 -30.5zM174 -5q-18 0 -31 1t-28 4t-25.5 9.5t-21.5 16.5t-17 25t-10 35.5t-3.5 49t5.5 63.5l11 82q7 54 23.5 93t35 59.5t46 31.5t48 13.5t50.5 2.5 q21 0 53.5 -6.5t55.5 -12.5l22 -6l15 106h-137q-4 0 -4 4l6 40q0 4 4 4h138l9 65q0 4 4 4h45q4 0 4 -4l-9 -65h40q4 0 4 -4l-6 -40q0 -4 -4 -4h-42l-78 -558q-1 -4 -4 -4h-45q-4 0 -4 3l4 32q-37 -40 -154 -40z" />
<glyph unicode="&#x112;" horiz-adv-x="528" d="M48 0l96 680h386q3 0 3 -4l-6 -46q0 -4 -5 -4h-329l-36 -253h285q4 0 4 -4l-7 -46q0 -4 -4 -4h-285l-37 -265h329q3 0 3 -4l-6 -46q-1 -4 -5 -4h-386zM478 821h-241q-3 0 -3 4l6 42q0 4 4 4h241q4 0 4 -4l-6 -42q0 -4 -5 -4z" />
<glyph unicode="&#x113;" horiz-adv-x="478" d="M102 262h259q14 99 -11 134.5t-91 35.5q-34 0 -56 -5t-44 -22t-35.5 -52t-21.5 -91zM208 -8q-22 0 -39 1.5t-38.5 6.5t-35.5 14t-29.5 24t-21 37t-10 53t3.5 71l11 83q9 65 32.5 108t57 62t63 25.5t65.5 6.5q16 0 27.5 -0.5t27 -3t26.5 -6.5t24 -12t21 -18.5t15.5 -26.5 t10.5 -36.5t3 -48t-5 -60.5l-8 -56h-314q-7 -34 -4.5 -59.5t5.5 -44t13.5 -31t20 -20t25 -11.5t29 -5t31.5 -1q21 0 43 1.5t39 4t30.5 4.5t22.5 4l8 1q5 0 5 -3q0 -2 2 -19t2 -18q0 -3 -3 -5q-4 -2 -19 -6.5t-54.5 -10t-82.5 -5.5zM406 618h-241q-4 0 -4 4l6 42q0 4 5 4h241 q3 0 3 -4l-6 -42q0 -4 -4 -4z" />
<glyph unicode="&#x114;" horiz-adv-x="528" d="M48 0l96 680h386q3 0 3 -4l-6 -46q0 -4 -5 -4h-329l-36 -253h285q4 0 4 -4l-7 -46q0 -4 -4 -4h-285l-37 -265h329q3 0 3 -4l-6 -46q-1 -4 -5 -4h-386zM354 773q-106 0 -106 91q0 24 6 24h24q5 0 6 -5q6 -40 21.5 -53t53.5 -13q37 0 55.5 13.5t35.5 52.5q2 5 5 5h29 q4 0 3 -5q-26 -110 -133 -110z" />
<glyph unicode="&#x115;" horiz-adv-x="478" d="M102 262h259q14 99 -11 134.5t-91 35.5q-34 0 -56 -5t-44 -22t-35.5 -52t-21.5 -91zM208 -8q-22 0 -39 1.5t-38.5 6.5t-35.5 14t-29.5 24t-21 37t-10 53t3.5 71l11 83q9 65 32.5 108t57 62t63 25.5t65.5 6.5q16 0 27.5 -0.5t27 -3t26.5 -6.5t24 -12t21 -18.5t15.5 -26.5 t10.5 -36.5t3 -48t-5 -60.5l-8 -56h-314q-7 -34 -4.5 -59.5t5.5 -44t13.5 -31t20 -20t25 -11.5t29 -5t31.5 -1q21 0 43 1.5t39 4t30.5 4.5t22.5 4l8 1q5 0 5 -3q0 -2 2 -19t2 -18q0 -3 -3 -5q-4 -2 -19 -6.5t-54.5 -10t-82.5 -5.5zM285 570q-105 0 -105 91q0 24 5 24h24 q5 0 6 -5q6 -40 21.5 -53t53.5 -13q37 0 55.5 13.5t35.5 52.5q2 5 5 5h29q4 0 3 -5q-26 -110 -133 -110z" />
<glyph unicode="&#x116;" horiz-adv-x="528" d="M48 0l96 680h386q3 0 3 -4l-6 -46q0 -4 -5 -4h-329l-36 -253h285q4 0 4 -4l-7 -46q0 -4 -4 -4h-285l-37 -265h329q3 0 3 -4l-6 -46q-1 -4 -5 -4h-386zM338 806q-3 0 -3 4l10 69q0 4 4 4h55q4 0 4 -4l-10 -69q0 -4 -5 -4h-55z" />
<glyph unicode="&#x117;" horiz-adv-x="478" d="M208 -8q-22 0 -39 1.5t-38.5 6.5t-35.5 14t-29.5 24t-21 37t-10 53t3.5 71l11 83q9 65 32.5 108t57 62t63 25.5t65.5 6.5q16 0 27.5 -0.5t27 -3t26.5 -6.5t24 -12t21 -18.5t15.5 -26.5t10.5 -36.5t3 -48t-5 -60.5l-8 -56h-314q-7 -34 -4.5 -59.5t5.5 -44t13.5 -31t20 -20 t25 -11.5t29 -5t31.5 -1q21 0 43 1.5t39 4t30.5 4.5t22.5 4l8 1q5 0 5 -3q0 -2 2 -19t2 -18q0 -3 -3 -5q-4 -2 -19 -6.5t-54.5 -10t-82.5 -5.5zM102 262h259q14 99 -11 134.5t-91 35.5q-34 0 -56 -5t-44 -22t-35.5 -52t-21.5 -91zM260 603q-3 0 -3 4l10 69q0 4 4 4h55 q4 0 4 -4l-10 -69q0 -4 -5 -4h-55z" />
<glyph unicode="&#x118;" horiz-adv-x="528" d="M48 0l96 680h386q3 0 3 -4l-6 -46q0 -4 -5 -4h-329l-36 -253h285q4 0 4 -4l-7 -46q0 -4 -4 -4h-285l-37 -265h329q3 0 3 -4l-6 -46q-1 -4 -5 -4h-2q-51 -34 -71.5 -58t-20.5 -47q0 -12 6 -16t19 -4q17 0 32 10q4 2 5 -2q0 -1 4 -12t5 -12q2 -7 -1 -9q-28 -22 -59 -22 q-29 0 -44.5 10.5t-15.5 40.5q0 39 21.5 66t61.5 55h-326z" />
<glyph unicode="&#x119;" horiz-adv-x="478" d="M172 -178q-29 0 -44.5 10.5t-15.5 40.5q0 38 20.5 64t60.5 55q-21 0 -37.5 2.5t-36 8t-32.5 15t-26.5 25t-18.5 37t-8 51.5t4 68l12 83q9 65 32.5 108t57 62t62.5 25.5t65 6.5q16 0 27.5 -0.5t27 -3t27 -6.5t24 -12t21 -18.5t16 -26.5t10.5 -36.5t3 -48t-5 -60.5l-8 -56 h-314q-7 -34 -4.5 -59.5t5 -44t13.5 -31t20 -20t25 -11.5t29.5 -5t31.5 -1q21 0 43 1.5t39 4t30.5 4.5t21.5 4l9 1q4 0 4 -3q0 -2 2 -19t2 -18q0 -3 -3 -5q-28 -14 -111 -20q-50 -35 -71 -58.5t-21 -46.5q0 -12 6 -16t20 -4q16 0 31 10q4 2 5 -2q1 -1 3 -6.5t4.5 -11 t2.5 -6.5q2 -6 -2 -9q-27 -22 -59 -22zM102 262h259q14 99 -10.5 134.5t-90.5 35.5q-34 0 -56 -5t-44 -22t-36 -52t-22 -91z" />
<glyph unicode="&#x11a;" horiz-adv-x="528" d="M48 0l96 680h386q3 0 3 -4l-6 -46q0 -4 -5 -4h-329l-36 -253h285q4 0 4 -4l-7 -46q0 -4 -4 -4h-285l-37 -265h329q3 0 3 -4l-6 -46q-1 -4 -5 -4h-386zM440 903h44q3 0 2 -4l-110 -134q-4 -4 -6 -4h-39q-4 0 -6 4q-9 18 -34 64t-37 71q-2 3 2 3h44q2 0 5 -4l50 -89h5 q71 86 73 89q3 4 7 4z" />
<glyph unicode="&#x11b;" horiz-adv-x="478" d="M102 262h259q14 99 -11 134.5t-91 35.5q-34 0 -56 -5t-44 -22t-35.5 -52t-21.5 -91zM208 -8q-22 0 -39 1.5t-38.5 6.5t-35.5 14t-29.5 24t-21 37t-10 53t3.5 71l11 83q9 65 32.5 108t57 62t63 25.5t65.5 6.5q16 0 27.5 -0.5t27 -3t26.5 -6.5t24 -12t21 -18.5t15.5 -26.5 t10.5 -36.5t3 -48t-5 -60.5l-8 -56h-314q-7 -34 -4.5 -59.5t5.5 -44t13.5 -31t20 -20t25 -11.5t29 -5t31.5 -1q21 0 43 1.5t39 4t30.5 4.5t22.5 4l8 1q5 0 5 -3q0 -2 2 -19t2 -18q0 -3 -3 -5q-4 -2 -19 -6.5t-54.5 -10t-82.5 -5.5zM371 700h44q4 0 1 -4l-108 -134 q-4 -4 -7 -4h-39q-4 0 -6 4q-9 18 -34 64t-37 71q-1 3 2 3h44q3 0 6 -4l49 -89h5q72 86 74 89q3 4 6 4z" />
<glyph unicode="&#x11c;" d="M237 -10q-22 0 -39 1.5t-38 5t-35 11t-30.5 19.5t-24 29.5t-16 42t-6.5 56.5t5 73l32 230q9 63 30 108t45 68.5t60 36.5t62.5 16t63.5 3q50 0 96.5 -7.5t67.5 -14t26 -9.5q3 -1 1 -5l-20 -38q-2 -3 -5 -2q-4 1 -29 6t-68 10.5t-76 5.5q-28 0 -47 -2t-46.5 -12 t-45.5 -28.5t-34.5 -55t-23.5 -87.5l-31 -217q-7 -37 -4 -65t6.5 -48t15.5 -33.5t23 -22t28 -13t32 -6t34 -1.5l168 12l33 236h-116q-4 0 -4 4l7 44q0 4 4 4h173l-47 -333q-169 -22 -227 -22zM291 761h-40q-4 0 -2 4l97 134q2 4 8 4h55q5 0 6 -4q1 -2 30 -67t30 -67 q1 -4 -2 -4h-42q-3 0 -5 4l-49 90h-5q-72 -87 -75 -90q-4 -4 -6 -4z" />
<glyph unicode="&#x11d;" horiz-adv-x="496" d="M167 -185q-83 0 -152 23q-2 1 -2 3q0 9 20 39q2 3 5 2q51 -17 133 -17q64 0 98 19.5t43 85.5l6 45q-90 -22 -135 -22q-16 0 -28 0.5t-27.5 2.5t-26 6t-23 11.5t-20.5 17.5t-15 25t-10 34.5t-2.5 45.5t4.5 57l12 85q10 67 28.5 110.5t46 62.5t52 25t60.5 6q116 0 144 -40 l4 31q1 4 5 4h46q3 0 3 -4l-70 -503q-6 -43 -22 -74t-34 -46t-46.5 -23.5t-47.5 -10t-49 -1.5zM194 45q15 0 47.5 5.5t58.5 11.5l25 6l39 276q5 37 -22 61.5t-99 24.5q-28 0 -46 -4t-39.5 -18t-35.5 -47.5t-21 -86.5l-10 -76q-8 -41 -3 -69t12 -44.5t24 -25.5t32 -11.5 t38 -2.5zM209 558h-40q-5 0 -1 4l96 134q4 4 8 4h55q5 0 6 -4q1 -2 30.5 -67t30.5 -67q1 -4 -3 -4h-42q-2 0 -4 4l-50 90h-5q-71 -87 -74 -90q-4 -4 -7 -4z" />
<glyph unicode="&#x11e;" d="M237 -10q-22 0 -39 1.5t-38 5t-35 11t-30.5 19.5t-24 29.5t-16 42t-6.5 56.5t5 73l32 230q9 63 30 108t45 68.5t60 36.5t62.5 16t63.5 3q50 0 96.5 -7.5t67.5 -14t26 -9.5q3 -1 1 -5l-20 -38q-2 -3 -5 -2q-4 1 -29 6t-68 10.5t-76 5.5q-28 0 -47 -2t-46.5 -12 t-45.5 -28.5t-34.5 -55t-23.5 -87.5l-31 -217q-7 -37 -4 -65t6.5 -48t15.5 -33.5t23 -22t28 -13t32 -6t34 -1.5l168 12l33 236h-116q-4 0 -4 4l7 44q0 4 4 4h173l-47 -333q-169 -22 -227 -22zM362 773q-105 0 -105 91q0 24 5 24h24q6 0 7 -5q6 -40 21 -53t53 -13 q37 0 56 13.5t36 52.5q2 5 4 5h29q5 0 4 -5q-26 -110 -134 -110z" />
<glyph unicode="&#x11f;" horiz-adv-x="496" d="M194 45q15 0 47.5 5.5t58.5 11.5l25 6l39 276q5 37 -22 61.5t-99 24.5q-28 0 -46 -4t-39.5 -18t-35.5 -47.5t-21 -86.5l-10 -76q-8 -41 -3 -69t12 -44.5t24 -25.5t32 -11.5t38 -2.5zM167 -185q-83 0 -152 23q-5 2 -1 5q0 1 8.5 17.5t10.5 19.5t5 2q51 -17 133 -17 q64 0 98 19.5t43 85.5l6 45q-90 -22 -135 -22q-16 0 -28 0.5t-27.5 2.5t-26 6t-23 11.5t-20.5 17.5t-15 25t-10 34.5t-2.5 45.5t4.5 57l12 85q10 67 28.5 110.5t46 62.5t52 25t60.5 6q116 0 144 -40l4 31q1 4 5 4h46q3 0 3 -4l-70 -503q-6 -43 -22 -74t-34 -46t-46.5 -23.5 t-47.5 -10t-49 -1.5zM285 570q-105 0 -105 91q0 24 5 24h24q5 0 6 -5q6 -40 21.5 -53t53.5 -13q37 0 55.5 13.5t35.5 52.5q2 5 5 5h29q4 0 3 -5q-26 -110 -133 -110z" />
<glyph unicode="&#x120;" d="M237 -10q-22 0 -39 1.5t-38 5t-35 11t-30.5 19.5t-24 29.5t-16 42t-6.5 56.5t5 73l32 230q9 63 30 108t45 68.5t60 36.5t62.5 16t63.5 3q50 0 96.5 -7.5t67.5 -14t26 -9.5q3 -1 1 -5l-20 -38q-2 -3 -5 -2q-4 1 -29 6t-68 10.5t-76 5.5q-28 0 -47 -2t-46.5 -12 t-45.5 -28.5t-34.5 -55t-23.5 -87.5l-31 -217q-7 -37 -4 -65t6.5 -48t15.5 -33.5t23 -22t28 -13t32 -6t34 -1.5l168 12l33 236h-116q-4 0 -4 4l7 44q0 4 4 4h173l-47 -333q-169 -22 -227 -22zM335 806q-4 0 -4 4l10 69q0 4 5 4h55q3 0 3 -4l-10 -69q0 -4 -4 -4h-55z" />
<glyph unicode="&#x121;" horiz-adv-x="496" d="M167 -185q-83 0 -152 23q-2 1 -2 3q0 9 20 39q2 3 5 2q51 -17 133 -17q64 0 98 19.5t43 85.5l6 45q-90 -22 -135 -22q-16 0 -28 0.5t-27.5 2.5t-26 6t-23 11.5t-20.5 17.5t-15 25t-10 34.5t-2.5 45.5t4.5 57l12 85q10 67 28.5 110.5t46 62.5t52 25t60.5 6q116 0 144 -40 l4 31q1 4 5 4h46q3 0 3 -4l-70 -503q-6 -43 -22 -74t-34 -46t-46.5 -23.5t-47.5 -10t-49 -1.5zM194 45q15 0 47.5 5.5t58.5 11.5l25 6l39 276q5 37 -22 61.5t-99 24.5q-28 0 -46 -4t-39.5 -18t-35.5 -47.5t-21 -86.5l-10 -76q-8 -41 -3 -69t12 -44.5t24 -25.5t32 -11.5 t38 -2.5zM262 603q-3 0 -3 4l10 69q0 4 4 4h55q4 0 4 -4l-10 -69q0 -4 -5 -4h-55z" />
<glyph unicode="&#x122;" d="M237 -10q-22 0 -39 1.5t-38 5t-35 11t-30.5 19.5t-24 29.5t-16 42t-6.5 56.5t5 73l32 230q9 63 30 108t45 68.5t60 36.5t62.5 16t63.5 3q50 0 96.5 -7.5t67.5 -14t26 -9.5q3 -1 1 -5l-20 -38q-2 -3 -5 -2q-4 1 -29 6t-68 10.5t-76 5.5q-28 0 -47 -2t-46.5 -12 t-45.5 -28.5t-34.5 -55t-23.5 -87.5l-31 -217q-7 -37 -4 -65t6.5 -48t15.5 -33.5t23 -22t28 -13t32 -6t34 -1.5l168 12l33 236h-116q-4 0 -4 4l7 44q0 4 4 4h173l-47 -333q-169 -22 -227 -22zM200 -248q-5 -5 -5 3l21 146q0 4 4 4h49q4 0 4 -4l-14 -100l-1 -1q-1 -2 -3 -4 q-2 -1 -28 -22t-27 -22z" />
<glyph unicode="&#x123;" horiz-adv-x="496" d="M167 -185q-83 0 -152 23q-2 1 -2 3q0 9 20 39q2 3 5 2q51 -17 133 -17q64 0 98 19.5t43 85.5l6 45q-90 -22 -135 -22q-16 0 -28 0.5t-27.5 2.5t-26 6t-23 11.5t-20.5 17.5t-15 25t-10 34.5t-2.5 45.5t4.5 57l12 85q10 67 28.5 110.5t46 62.5t52 25t60.5 6q116 0 144 -40 l4 31q1 4 5 4h46q3 0 3 -4l-70 -503q-6 -43 -22 -74t-34 -46t-46.5 -23.5t-47.5 -10t-49 -1.5zM194 45q15 0 47.5 5.5t58.5 11.5l25 6l39 276q5 37 -22 61.5t-99 24.5q-28 0 -46 -4t-39.5 -18t-35.5 -47.5t-21 -86.5l-10 -76q-8 -41 -3 -69t12 -44.5t24 -25.5t32 -11.5 t38 -2.5zM329 748q2 2 3.5 0.5t0.5 -3.5l-20 -146q-1 -4 -5 -4h-49q-3 0 -3 4l14 100q0 2 4 5q2 1 28 22t27 22z" />
<glyph unicode="&#x124;" horiz-adv-x="618" d="M52 0q-4 0 -4 4l95 672q0 4 4 4h50q3 0 3 -4l-43 -307h327l43 307q0 4 4 4h50q3 0 3 -4l-95 -672q0 -4 -3 -4h-50q-4 0 -4 4l44 315h-327l-44 -315q-1 -4 -3 -4h-50zM305 761h-40q-4 0 -2 4l97 134q2 4 8 4h55q5 0 6 -4q1 -2 30 -67t30 -67q1 -4 -2 -4h-42q-3 0 -5 4 l-49 90h-5q-72 -87 -75 -90q-4 -4 -6 -4z" />
<glyph unicode="&#x125;" horiz-adv-x="515" d="M50 0q-3 0 -3 4l95 672q0 4 3 4h47q4 0 4 -4l-32 -228q96 34 144 34q16 0 27.5 -0.5t27 -3t25 -7t22 -12t17.5 -18.5t11.5 -27t5 -37t-3.5 -48l-46 -325q0 -4 -4 -4h-46q-4 0 -4 4l46 323q9 66 -13.5 85.5t-75.5 19.5q-18 0 -53 -9t-61 -17l-26 -9l-56 -393q0 -4 -4 -4 h-47zM251 750h-40q-3 0 -1 4l97 134q2 4 7 4h55q5 0 6 -4q1 -2 30.5 -67t30.5 -67q1 -4 -3 -4h-42q-2 0 -4 4l-50 90h-5q-71 -87 -74 -90q-4 -4 -7 -4z" />
<glyph unicode="&#x128;" horiz-adv-x="234" d="M52 0q-4 0 -4 4l95 672q0 4 5 4h50q2 0 2 -4l-94 -672q0 -4 -4 -4h-50zM76 803q-3 0 -2 5l4 30q0 6 4 10l5 5q5 5 11 9.5t14 9.5t18 8t20 3q22 0 52 -19t49 -19q21 0 42 17.5t22 17.5q2 0 2 -4l-4 -31q-2 -7 -5 -11q-3 -5 -10.5 -11.5t-24.5 -15t-34 -8.5 q-23 0 -51.5 19.5t-46.5 19.5q-20 0 -42 -17.5t-23 -17.5z" />
<glyph unicode="&#x129;" horiz-adv-x="227" d="M50 0q-4 0 -4 4l66 469q0 4 5 4h47q3 0 3 -4l-66 -469q0 -4 -4 -4h-47zM44 600q-3 0 -2 5l4 30q0 5 5 10l5 5q5 5 11 9.5t14 9.5t18 8t20 3q23 0 52 -19t48 -19q21 0 42 17.5t22 17.5q3 0 3 -4l-5 -31q0 -6 -4 -11q-3 -5 -10.5 -11.5t-24.5 -15t-34 -8.5q-23 0 -52 19.5 t-47 19.5q-20 0 -42 -17.5t-23 -17.5z" />
<glyph unicode="&#x12a;" horiz-adv-x="234" d="M52 0q-4 0 -4 4l95 672q0 4 4 4h50q3 0 3 -4l-95 -672q0 -4 -3 -4h-50zM313 821h-241q-4 0 -3 4l6 42q0 4 4 4h241q4 0 4 -4l-6 -42q0 -4 -5 -4z" />
<glyph unicode="&#x12b;" horiz-adv-x="227" d="M50 0q-4 0 -3 4l65 469q1 4 5 4h47q3 0 3 -4l-66 -469q0 -4 -4 -4h-47zM281 618h-241q-4 0 -4 4l6 42q0 4 5 4h241q4 0 3 -4l-6 -42q0 -4 -4 -4z" />
<glyph unicode="&#x12e;" horiz-adv-x="234" d="M18 -172q-29 0 -44.5 10.5t-15.5 40.5q0 28 14 52.5t30.5 39t46.5 34.5l94 671q1 4 5 4h50q3 0 2 -4l-94 -672q0 -4 -4 -4h-3q-51 -34 -71.5 -58t-20.5 -47q0 -12 6 -16t20 -4q16 0 31 10q4 2 5 -2q1 -1 3 -6.5t4.5 -11t2.5 -6.5q2 -6 -2 -9q-28 -22 -59 -22z" />
<glyph unicode="&#x12f;" horiz-adv-x="227" d="M14 -172q-29 0 -44.5 10.5t-15.5 40.5q0 45 28 79.5t64 34.5l1 7q1 7 2 7l65 466q1 4 3 4h47q4 0 4 -4l-66 -469q0 -4 -5 -4h-2q-51 -34 -71.5 -58t-20.5 -47q0 -12 6 -16t20 -4q16 0 31 10q4 2 5 -2q1 -1 3 -6.5t4.5 -11t2.5 -6.5q2 -6 -2 -9q-27 -22 -59 -22zM132 606 q-3 0 -3 4l9 66q1 4 5 4h54q2 0 2 -4l-9 -66q-1 -4 -4 -4h-54z" />
<glyph unicode="&#x130;" horiz-adv-x="234" d="M52 0q-4 0 -4 4l95 672q0 4 4 4h50q3 0 3 -4l-95 -672q0 -4 -3 -4h-50zM163 806q-4 0 -4 4l10 69q0 4 5 4h55q4 0 3 -4l-9 -69q-1 -4 -5 -4h-55z" />
<glyph unicode="&#x131;" horiz-adv-x="227" d="M50 0q-4 0 -4 4l66 469q0 4 5 4h47q2 0 2 -4l-66 -469q0 -4 -3 -4h-47z" />
<glyph unicode="&#x134;" horiz-adv-x="442" d="M147 -10q-25 0 -60 4.5t-56.5 8.5t-24.5 5q-3 2 -2 5l18 40q1 3 4 2q2 -1 23.5 -3.5t52.5 -5t50 -2.5q29 0 46 2.5t37 11.5t31.5 30.5t16.5 56.5l75 531q0 4 3 4h50q4 0 4 -4l-75 -531q-6 -43 -21.5 -73t-33 -45.5t-44 -24.5t-46 -10.5t-48.5 -1.5zM325 761h-40 q-4 0 -2 4l97 134q2 4 8 4h55q5 0 6 -4q1 -2 30 -67t30 -67q1 -4 -2 -4h-42q-3 0 -5 4l-49 90h-5q-72 -87 -75 -90q-4 -4 -6 -4z" />
<glyph unicode="&#x136;" horiz-adv-x="541" d="M52 0q-4 0 -4 4l95 672q0 4 4 4h50q3 0 3 -4l-43 -304h32q281 301 284 304q4 4 6 4h66q5 0 1 -4l-310 -329q232 -341 233 -343q3 -4 -1 -4h-67q-3 0 -6 4l-213 315h-33l-44 -315q-1 -4 -3 -4h-50zM175 -248q-5 -5 -5 3l21 146q0 4 5 4h49q3 0 3 -4l-14 -100q0 -2 -4 -5 q-2 -1 -28 -22t-27 -22z" />
<glyph unicode="&#x137;" horiz-adv-x="458" d="M50 0q-3 0 -3 4l95 672q0 4 3 4h47q4 0 4 -4l-56 -396h39q170 191 172 193q4 4 6 4h63q5 0 1 -4l-200 -221q156 -245 157 -248q2 -4 -1 -4h-65q-4 0 -6 4l-137 221h-37l-31 -221q0 -4 -4 -4h-47zM129 -248q-5 -5 -5 3l21 146q0 4 4 4h49q4 0 4 -4l-14 -100q0 -2 -4 -5 q-2 -1 -28 -22t-27 -22z" />
<glyph unicode="&#x139;" horiz-adv-x="504" d="M48 0l95 676q0 4 5 4h50q3 0 2 -4l-87 -622h329q3 0 3 -4l-6 -45q-2 -5 -5 -5h-386zM302 765q-4 -4 -7 -4h-40q-5 0 -1 4l85 134q3 4 7 4h55q6 0 2 -4z" />
<glyph unicode="&#x13a;" horiz-adv-x="256" d="M146 -5q-15 0 -23.5 0.5t-20 3t-18 7.5t-13 14t-9 22t-3 33t3.5 46l78 555q0 4 4 4h46q4 0 3 -4l-78 -556q-7 -33 -1 -50t13 -21t19 -4q7 0 27 1t21 1q4 0 4 -3q0 -27 4 -39q1 -3 -4 -5q-15 -5 -53 -5zM205 754q-4 -4 -7 -4h-40q-5 0 -1 4l85 134q3 4 7 4h55q5 0 1 -4z " />
<glyph unicode="&#x13b;" horiz-adv-x="504" d="M48 0l95 676q0 4 5 4h50q3 0 2 -4l-87 -622h329q3 0 3 -4l-6 -45q-2 -5 -5 -5h-386zM175 -248q-2 -2 -3.5 -0.5t-0.5 3.5l20 146q1 4 5 4h49q3 0 3 -4l-14 -100q0 -2 -4 -5q-2 -1 -28 -22t-27 -22z" />
<glyph unicode="&#x13c;" horiz-adv-x="256" d="M146 -5q-15 0 -23.5 0.5t-20 3t-18 7.5t-13 14t-9 22t-3 33t3.5 46l78 555q0 4 4 4h46q4 0 3 -4l-78 -556q-7 -33 -1 -50t13 -21t19 -4q7 0 27 1t21 1q4 0 4 -3q0 -27 4 -39q1 -3 -4 -5q-15 -5 -53 -5zM53 -248q-4 -4 -4 3l20 146q1 4 5 4h49q3 0 3 -4l-14 -100 q0 -3 -3 -5q-2 -1 -28.5 -22t-27.5 -22z" />
<glyph unicode="&#x13d;" horiz-adv-x="504" d="M48 0l95 676q0 4 5 4h50q3 0 2 -4l-87 -622h329q3 0 3 -4l-6 -45q-2 -5 -5 -5h-386zM275 597q-5 -5 -5 3l21 146q0 4 4 4h49q4 0 4 -4l-14 -100q0 -2 -4 -5q-2 -1 -28 -22t-27 -22z" />
<glyph unicode="&#x13e;" horiz-adv-x="359" d="M146 -5q-15 0 -23.5 0.5t-20 3t-18 7.5t-13 14t-9 22t-3 33t3.5 46l78 555q0 4 4 4h46q4 0 3 -4l-78 -556q-7 -33 -1 -50t13 -21t19 -4q7 0 27 1t21 1q4 0 4 -3q0 -27 4 -39q1 -3 -4 -5q-15 -5 -53 -5zM271 527q-2 -2 -3.5 -0.5t-0.5 3.5l20 146q1 4 5 4h49q3 0 3 -4 l-14 -100q0 -2 -4 -5q-2 -1 -28 -22t-27 -22z" />
<glyph unicode="&#x141;" horiz-adv-x="504" d="M48 0l41 292q-61 -35 -63 -36q-4 -2 -4 3l7 48q0 4 5 7l63 35l46 327q0 4 5 4h50q3 0 2 -4l-41 -294q167 94 168 94q1 1 2 0.5t1 -2.5l-7 -49q0 -3 -4 -6l-168 -95l-38 -270h330q2 0 2 -4l-6 -46q0 -4 -4 -4h-387z" />
<glyph unicode="&#x142;" horiz-adv-x="251" d="M143 -5q-17 0 -28 1t-24 5t-18.5 12t-12.5 22t-5 35t4 51l29 202q-47 -27 -49 -27t-2 3l7 45q0 3 3 6l48 27l42 299q0 4 5 4h46q4 0 3 -4l-37 -268q72 42 74 42h1q2 0 1 -3l-6 -44q-1 -5 -4 -7l-74 -42l-33 -234q-6 -45 3 -60t28 -15q7 0 18.5 0.5t20.5 0.5l9 1q3 0 4 -3 q1 -1 2 -19.5t1 -19.5q2 -5 -4 -5l-9 -1q-9 -1 -21.5 -2.5t-21.5 -1.5z" />
<glyph unicode="&#x143;" horiz-adv-x="619" d="M52 0q-4 0 -4 4l95 672q0 4 4 4h72q5 0 6 -4l210 -566h14l80 566q0 4 4 4h49q4 0 4 -4l-95 -672q0 -4 -4 -4h-71q-4 0 -6 4l-210 572h-15l-80 -572q0 -4 -4 -4h-49zM360 765q-4 -4 -7 -4h-40q-5 0 -1 4l85 134q3 4 7 4h55q5 0 1 -4z" />
<glyph unicode="&#x144;" horiz-adv-x="515" d="M50 0q-3 0 -3 4l66 469q0 4 4 4h47q4 0 3 -4l-3 -25q95 34 144 34q14 0 24 -0.5t24 -2t22.5 -4.5t20.5 -8.5t18 -13.5t13.5 -19.5t8.5 -26.5t3.5 -34.5t-3.5 -43.5l-46 -325q0 -4 -4 -4h-45q-4 0 -4 4l46 323q9 66 -13 85.5t-75 19.5q-19 0 -54 -9t-61 -17l-26 -9 l-56 -393q0 -4 -4 -4h-47zM279 562q-2 -4 -7 -4h-40q-3 0 -1 4l86 134q3 4 6 4h55q6 0 2 -4z" />
<glyph unicode="&#x145;" horiz-adv-x="619" d="M52 0q-4 0 -4 4l95 672q0 4 4 4h72q5 0 6 -4l210 -566h14l80 566q0 4 4 4h49q4 0 4 -4l-95 -672q0 -4 -4 -4h-71q-4 0 -6 4l-210 572h-15l-80 -572q0 -4 -4 -4h-49zM220 -248q-5 -5 -5 3l21 146q0 4 5 4h49q3 0 3 -4l-14 -100q0 -2 -4 -5q-2 -1 -28 -22t-27 -22z" />
<glyph unicode="&#x146;" horiz-adv-x="515" d="M50 0q-3 0 -3 4l66 469q0 4 4 4h47q4 0 3 -4l-3 -25q95 34 144 34q14 0 24 -0.5t24 -2t22.5 -4.5t20.5 -8.5t18 -13.5t13.5 -19.5t8.5 -26.5t3.5 -34.5t-3.5 -43.5l-46 -325q0 -4 -4 -4h-45q-4 0 -4 4l46 323q9 66 -13 85.5t-75 19.5q-19 0 -54 -9t-61 -17l-26 -9 l-56 -393q0 -4 -4 -4h-47zM165 -248q-5 -5 -5 3l21 146q0 4 5 4h49q3 0 3 -4l-14 -100q0 -2 -4 -5q-2 -1 -28 -22t-27 -22z" />
<glyph unicode="&#x147;" horiz-adv-x="619" d="M52 0q-4 0 -4 4l95 672q0 4 4 4h72q5 0 6 -4l210 -566h14l80 566q0 4 4 4h49q4 0 4 -4l-95 -672q0 -4 -4 -4h-71q-4 0 -6 4l-210 572h-15l-80 -572q0 -4 -4 -4h-49zM467 903h44q4 0 1 -4l-109 -134q-4 -4 -6 -4h-39q-4 0 -6 4q-10 19 -35 64.5t-37 70.5q-2 3 3 3h44 q2 0 5 -4l50 -89h5q71 86 73 89q3 4 7 4z" />
<glyph unicode="&#x148;" horiz-adv-x="515" d="M50 0q-3 0 -3 4l66 469q0 4 4 4h47q4 0 3 -4l-3 -25q95 34 144 34q14 0 24 -0.5t24 -2t22.5 -4.5t20.5 -8.5t18 -13.5t13.5 -19.5t8.5 -26.5t3.5 -34.5t-3.5 -43.5l-46 -325q0 -4 -4 -4h-45q-4 0 -4 4l46 323q9 66 -13 85.5t-75 19.5q-19 0 -54 -9t-61 -17l-26 -9 l-56 -393q0 -4 -4 -4h-47zM385 700h44q4 0 1 -4l-108 -134q-4 -4 -7 -4h-39q-4 0 -6 4q-9 18 -34 64t-37 71q-1 3 2 3h44q3 0 6 -4l49 -89h5q72 86 74 89q3 4 6 4z" />
<glyph unicode="&#x14c;" d="M255 44q39 0 66.5 6t56.5 24t47.5 58t27.5 101l31 218q8 60 0 98.5t-31.5 56.5t-49 24t-64.5 6q-30 0 -52.5 -3.5t-47.5 -14.5t-43 -30.5t-32.5 -54t-21.5 -82.5l-30 -218q-2 -33 -4 -58.5t5 -45t13 -33.5t18.5 -23.5t23.5 -15t27.5 -8.5t29.5 -4t30 -1zM248 -10 q-18 0 -30.5 0.5t-30.5 2t-30.5 5.5t-28.5 10t-26.5 15.5t-21.5 22t-17.5 30t-11 39t-4 50.5t5.5 62l33 231q9 62 29.5 107t44.5 68.5t59 37t62 16.5t65 3q18 0 30 -0.5t30 -2t31 -5t29 -9t27 -15t22 -21.5t17.5 -29.5t11 -39t4.5 -49.5t-5 -61l-33 -231q-9 -66 -31 -112.5 t-46 -70.5t-61 -36.5t-61.5 -15t-62.5 -2.5zM486 821h-241q-4 0 -4 4l6 42q0 4 5 4h241q3 0 3 -4l-6 -42q0 -4 -4 -4z" />
<glyph unicode="&#x14d;" horiz-adv-x="484" d="M203 44q32 0 51.5 4t42 18.5t37 47.5t22.5 86l12 80q3 35 4.5 60t-6 42t-15 27t-23.5 15.5t-30 7t-35 1.5q-32 0 -53.5 -4.5t-44 -19.5t-36.5 -47t-22 -82l-12 -80q-5 -31 -4.5 -55t4 -40t12 -27.5t17.5 -18t23 -10t26 -4.5t30 -1zM196 -8q-20 0 -34.5 1t-33 4t-30 9 t-25.5 16.5t-20 25t-13 36t-4.5 49t4.5 63.5l12 89q7 53 23 90.5t35.5 58.5t48 33t53 15t58.5 3q17 0 29.5 -0.5t28.5 -2.5t27 -6t23.5 -11.5t20.5 -17.5t15.5 -25t10 -34.5t2.5 -45.5t-4 -57l-12 -89q-6 -47 -17.5 -82.5t-29 -57t-34.5 -35t-42 -19.5t-44.5 -8t-47.5 -2z M409 618h-241q-4 0 -3 4l6 42q0 4 4 4h241q4 0 4 -4l-6 -42q0 -4 -5 -4z" />
<glyph unicode="&#x14e;" d="M255 44q39 0 66.5 6t56.5 24t47.5 58t27.5 101l31 218q8 60 0 98.5t-31.5 56.5t-49 24t-64.5 6q-30 0 -52.5 -3.5t-47.5 -14.5t-43 -30.5t-32.5 -54t-21.5 -82.5l-30 -218q-2 -33 -4 -58.5t5 -45t13 -33.5t18.5 -23.5t23.5 -15t27.5 -8.5t29.5 -4t30 -1zM248 -10 q-18 0 -30.5 0.5t-30.5 2t-30.5 5.5t-28.5 10t-26.5 15.5t-21.5 22t-17.5 30t-11 39t-4 50.5t5.5 62l33 231q9 62 29.5 107t44.5 68.5t59 37t62 16.5t65 3q18 0 30 -0.5t30 -2t31 -5t29 -9t27 -15t22 -21.5t17.5 -29.5t11 -39t4.5 -49.5t-5 -61l-33 -231q-9 -66 -31 -112.5 t-46 -70.5t-61 -36.5t-61.5 -15t-62.5 -2.5zM360 773q-105 0 -105 91q0 24 5 24h24q5 0 6 -5q6 -40 21.5 -53t53.5 -13q37 0 55.5 13.5t35.5 52.5q2 5 5 5h29q4 0 3 -5q-26 -110 -133 -110z" />
<glyph unicode="&#x14f;" horiz-adv-x="484" d="M203 44q32 0 51.5 4t42 18.5t37 47.5t22.5 86l12 80q3 35 4.5 60t-6 42t-15 27t-23.5 15.5t-30 7t-35 1.5q-32 0 -53.5 -4.5t-44 -19.5t-36.5 -47t-22 -82l-12 -80q-5 -31 -4.5 -55t4 -40t12 -27.5t17.5 -18t23 -10t26 -4.5t30 -1zM196 -8q-20 0 -34.5 1t-33 4t-30 9 t-25.5 16.5t-20 25t-13 36t-4.5 49t4.5 63.5l12 89q7 53 23 90.5t35.5 58.5t48 33t53 15t58.5 3q17 0 29.5 -0.5t28.5 -2.5t27 -6t23.5 -11.5t20.5 -17.5t15.5 -25t10 -34.5t2.5 -45.5t-4 -57l-12 -89q-6 -47 -17.5 -82.5t-29 -57t-34.5 -35t-42 -19.5t-44.5 -8t-47.5 -2z M283 570q-105 0 -105 91q0 24 6 24h24q5 0 6 -5q6 -40 21.5 -53t53.5 -13q37 0 55.5 13.5t35.5 52.5q2 5 5 5h29q4 0 3 -5q-26 -110 -134 -110z" />
<glyph unicode="&#x150;" d="M248 -10q-18 0 -30.5 0.5t-30.5 2t-30.5 5.5t-28.5 10t-26.5 15.5t-21.5 22t-17.5 30t-11 39t-4 50.5t5.5 62l33 231q9 62 29.5 107t44.5 68.5t59 37t62 16.5t65 3q18 0 30 -0.5t30 -2t31 -5t29 -9t27 -15t22 -21.5t17.5 -29.5t11 -39t4.5 -49.5t-5 -61l-33 -231 q-9 -66 -31 -112.5t-46 -70.5t-61 -36.5t-61.5 -15t-62.5 -2.5zM255 44q39 0 66.5 6t56.5 24t47.5 58t27.5 101l31 218q8 60 0 98.5t-31.5 56.5t-49 24t-64.5 6q-30 0 -52.5 -3.5t-47.5 -14.5t-43 -30.5t-32.5 -54t-21.5 -82.5l-30 -218q-2 -33 -4 -58.5t5 -45t13 -33.5 t18.5 -23.5t23.5 -15t27.5 -8.5t29.5 -4t30 -1zM411 766q-3 -4 -7 -4h-41q-4 0 -1 4l86 133q3 4 7 4h55q5 0 1 -4q-1 -1 -49.5 -65.5t-50.5 -67.5zM291 766q-3 -4 -7 -4h-41q-4 0 -1 4l86 133q3 4 6 4h56q4 0 1 -4q-1 -1 -50 -66.5t-50 -66.5z" />
<glyph unicode="&#x151;" horiz-adv-x="484" d="M196 -8q-20 0 -34.5 1t-33 4t-30 9t-25.5 16.5t-20 25t-13 36t-4.5 49t4.5 63.5l12 89q7 53 23 90.5t35.5 58.5t48 33t53 15t58.5 3q17 0 29.5 -0.5t28.5 -2.5t27 -6t23.5 -11.5t20.5 -17.5t15.5 -25t10 -34.5t2.5 -45.5t-4 -57l-12 -89q-6 -47 -17.5 -82.5t-29 -57 t-34.5 -35t-42 -19.5t-44.5 -8t-47.5 -2zM203 44q32 0 51.5 4t42 18.5t37 47.5t22.5 86l12 80q3 35 4.5 60t-6 42t-15 27t-23.5 15.5t-30 7t-35 1.5q-32 0 -53.5 -4.5t-44 -19.5t-36.5 -47t-22 -82l-12 -80q-5 -31 -4.5 -55t4 -40t12 -27.5t17.5 -18t23 -10t26 -4.5t30 -1z M345 563q-3 -4 -7 -4h-41q-3 0 -2 4l87 133q3 4 7 4h55q5 0 1 -4q-1 -1 -49.5 -65.5t-50.5 -67.5zM224 563q-3 -4 -6 -4h-41q-3 0 -2 4l87 133q3 4 6 4h56q4 0 1 -4q-1 -1 -50.5 -66.5t-50.5 -66.5z" />
<glyph unicode="&#x152;" horiz-adv-x="901" d="M258 49q36 0 63.5 7t57 26t49.5 61t29 105l26 188q8 39 4 68t-9 50t-18.5 35t-25.5 22.5t-30.5 12.5t-32.5 5.5t-32 1.5q-36 0 -62 -5.5t-56 -22.5t-49.5 -56.5t-28.5 -100.5l-29 -208q-2 -33 -4 -59t5 -45.5t12.5 -33t19 -23t24 -15t27.5 -8.5t30 -4t30 -1zM250 -5 q-18 0 -32 0.5t-31.5 2.5t-31 6t-28.5 10t-25.5 16t-21.5 22.5t-17 30.5t-10 39.5t-3.5 49.5t5.5 61l31 218q7 47 20 83.5t28 61t37 41.5t41.5 26.5t45.5 14.5t44.5 6t44.5 1q115 0 162 -64l8 59h386q4 0 4 -4l-7 -46q0 -4 -4 -4h-329l-36 -253h284q4 0 4 -4l-7 -46 q0 -4 -4 -4h-284l-38 -265h329q4 0 4 -3l-7 -47q0 -4 -4 -4h-386l8 59q-19 -18 -34.5 -28.5t-55.5 -23t-90 -12.5z" />
<glyph unicode="&#x153;" horiz-adv-x="795" d="M208 47q29 0 49 4.5t43 19t38.5 48t22.5 85.5l11 78q2 34 3 58.5t-8.5 41t-17.5 26t-24 14.5t-28.5 6.5t-29.5 1.5q-31 0 -51.5 -4t-44.5 -18.5t-39 -47t-22 -83.5l-10 -73q-13 -95 13.5 -126t94.5 -31zM424 262h260q15 102 -12 135t-90 33q-35 0 -57 -5.5t-44 -22 t-35.5 -51t-21.5 -89.5zM200 -5q-21 0 -37 1t-33.5 4.5t-30.5 10t-25 16.5t-19 26t-12 36.5t-4.5 48.5t5.5 62l12 82q10 66 31 108.5t53 61t61.5 24.5t72.5 6q65 0 96 -20t46 -55q27 36 65 55.5t108 19.5q19 0 33.5 -1t31.5 -4t29.5 -10t25 -17t20 -26t12.5 -37t4.5 -50 t-5.5 -65l-8 -56h-314q-11 -100 14.5 -134.5t106.5 -34.5q30 0 65 4t54 7.5t22 4.5q4 1 5 -3l6 -37q0 -3 -3 -5q-4 -2 -20 -6.5t-55.5 -10.5t-81.5 -6q-69 0 -106.5 17t-55.5 60q-48 -77 -169 -77z" />
<glyph unicode="&#x154;" horiz-adv-x="584" d="M102 0h-50q-4 0 -4 4l95 676h218q36 0 58 -1.5t51.5 -11t44 -26t22.5 -50t1 -80.5l-8 -55q-19 -133 -136 -162l95 -290q2 -4 -2 -4h-57q-4 0 -5 4l-89 282h-191l-40 -282q0 -4 -3 -4zM153 340h162q30 0 51 3.5t45.5 14t40 36t21.5 63.5l8 55q6 39 -1.5 63t-28.5 34.5 t-41 13.5t-52 3h-165zM342 765q-4 -4 -7 -4h-40q-5 0 -1 4l85 134q3 4 7 4h55q5 0 1 -4z" />
<glyph unicode="&#x155;" horiz-adv-x="377" d="M50 0q-3 0 -3 4l66 469q0 4 4 4h47q4 0 3 -4l-3 -25q70 34 117 34q55 0 81 -13q3 -1 1 -5q-1 -1 -8.5 -18t-7.5 -18q-2 -4 -4 -3q-24 8 -72 8q-18 0 -46.5 -9.5t-48.5 -19.5l-20 -9l-55 -391q0 -4 -4 -4h-47zM215 562q-2 -4 -7 -4h-40q-3 0 -1 4l86 134q3 4 6 4h55 q6 0 2 -4z" />
<glyph unicode="&#x156;" horiz-adv-x="584" d="M102 0h-50q-4 0 -4 4l95 676h218q36 0 58 -1.5t51.5 -11t44 -26t22.5 -50t1 -80.5l-8 -55q-19 -133 -136 -162l95 -290q2 -4 -2 -4h-57q-4 0 -5 4l-89 282h-191l-40 -282q0 -4 -3 -4zM153 340h162q30 0 51 3.5t45.5 14t40 36t21.5 63.5l8 55q6 39 -1.5 63t-28.5 34.5 t-41 13.5t-52 3h-165zM200 -248q-5 -5 -5 3l21 146q0 4 5 4h49q3 0 3 -4l-14 -100q0 -2 -4 -5q-2 -1 -28 -22t-27 -22z" />
<glyph unicode="&#x157;" horiz-adv-x="377" d="M50 0q-3 0 -3 4l66 469q0 4 4 4h47q4 0 3 -4l-3 -25q70 34 117 34q55 0 81 -13q3 -1 1 -5q-1 -1 -8.5 -18t-7.5 -18q-2 -4 -4 -3q-24 8 -72 8q-18 0 -46.5 -9.5t-48.5 -19.5l-20 -9l-55 -391q0 -4 -4 -4h-47zM103 -248q-5 -5 -5 3l21 146q0 4 5 4h49q3 0 3 -4l-14 -100 q0 -2 -4 -5q-2 -1 -28 -22t-27 -22z" />
<glyph unicode="&#x158;" horiz-adv-x="584" d="M153 340h162q30 0 51 3.5t45.5 14t40 36t21.5 63.5l8 55q6 39 -1.5 63t-28.5 34.5t-41 13.5t-52 3h-165zM102 0h-50q-4 0 -4 4l95 676h218q36 0 58 -1.5t51.5 -11t44 -26t22.5 -50t1 -80.5l-8 -55q-19 -133 -136 -162l95 -290q2 -4 -2 -4h-57q-4 0 -5 4l-89 282h-191 l-40 -282q0 -4 -3 -4zM430 903h44q4 0 1 -4l-109 -134q-4 -4 -6 -4h-39q-4 0 -6 4q-11 22 -35.5 67t-36.5 68q0 3 3 3h44q2 0 5 -4l50 -89h5q71 86 73 89q3 4 7 4z" />
<glyph unicode="&#x159;" horiz-adv-x="377" d="M50 0q-3 0 -3 4l66 469q0 4 4 4h47q4 0 3 -4l-3 -25q70 34 117 34q55 0 81 -13q3 -1 1 -5q-1 -1 -8.5 -18t-7.5 -18q-2 -4 -4 -3q-24 8 -72 8q-18 0 -46.5 -9.5t-48.5 -19.5l-20 -9l-55 -391q0 -4 -4 -4h-47zM317 700h44q4 0 1 -4l-108 -134q-4 -4 -7 -4h-39q-4 0 -6 4 q-9 18 -34 64t-37 71q-1 3 2 3h44q3 0 6 -4l49 -89h5q72 86 74 89q3 4 6 4z" />
<glyph unicode="&#x15a;" horiz-adv-x="566" d="M239 -10q-20 0 -39.5 1t-35.5 3t-30.5 4.5t-26.5 5.5t-22 6t-17.5 5.5t-12.5 4.5t-9 4l-3 1q-4 2 -2 5q1 2 10.5 21.5t10.5 20.5q2 3 5 2q5 -2 26 -8.5t66.5 -14.5t89.5 -8q37 0 62 3t52 13t43.5 32t21.5 57l10 69q7 49 -28 70.5t-113 27.5q-126 10 -164.5 45.5 t-27.5 113.5l10 70q21 146 224 146q52 0 95 -7t59 -13t19 -9q4 -2 2 -5l-22 -39q-2 -4 -5 -2q-63 21 -156 21q-32 0 -56 -3.5t-47.5 -12.5t-38 -28.5t-18.5 -48.5l-9 -69q-7 -49 25 -71.5t112 -29.5q122 -10 164 -43t32 -113l-9 -71q-7 -51 -31 -84.5t-63 -48t-72.5 -19 t-80.5 -4.5zM343 765q-4 -4 -7 -4h-40q-5 0 -1 4l85 134q3 4 7 4h55q6 0 2 -4z" />
<glyph unicode="&#x15b;" horiz-adv-x="457" d="M193 -7q-50 0 -91 5t-54.5 8.5t-17.5 5.5q-3 2 -2 5l17 39q1 3 5 3q2 -1 20.5 -4.5t55.5 -7.5t73 -4q25 0 38.5 0.5t31.5 4.5t28 11t18.5 21t11.5 34l5 32q4 26 -19.5 43.5t-94.5 27.5q-84 11 -115.5 36.5t-24.5 79.5l5 39q5 36 22 60t44.5 34.5t52 14t56.5 3.5 q25 0 48.5 -2t40 -5t28.5 -6t19 -5l6 -2q1 0 1 -3q-1 -1 -9 -20t-8 -20q-1 -1 -2 -1l-8 2q-9 1 -22.5 3.5t-29.5 5t-36 4t-37 1.5q-104 0 -113 -66l-5 -35q-4 -28 18 -42.5t83 -22.5q83 -11 123.5 -37.5t31.5 -79.5l-6 -37q-5 -34 -18 -57.5t-28.5 -36t-40.5 -19.5 t-46.5 -8.5t-54.5 -1.5zM259 562q-2 -4 -7 -4h-40q-3 0 -1 4l86 134q3 4 6 4h55q6 0 2 -4z" />
<glyph unicode="&#x15c;" horiz-adv-x="566" d="M239 -10q-20 0 -39.5 1t-35.5 3t-30.5 4.5t-26.5 5.5t-22 6t-17.5 5.5t-12.5 4.5t-9 4l-3 1q-4 2 -2 5q1 2 10.5 21.5t10.5 20.5q2 3 5 2q5 -2 26 -8.5t66.5 -14.5t89.5 -8q37 0 62 3t52 13t43.5 32t21.5 57l10 69q7 49 -28 70.5t-113 27.5q-126 10 -164.5 45.5 t-27.5 113.5l10 70q21 146 224 146q52 0 95 -7t59 -13t19 -9q4 -2 2 -5l-22 -39q-2 -4 -5 -2q-63 21 -156 21q-32 0 -56 -3.5t-47.5 -12.5t-38 -28.5t-18.5 -48.5l-9 -69q-7 -49 25 -71.5t112 -29.5q122 -10 164 -43t32 -113l-9 -71q-7 -51 -31 -84.5t-63 -48t-72.5 -19 t-80.5 -4.5zM280 761h-40q-5 0 -1 4l96 134q4 4 8 4h55q5 0 6 -4q1 -2 30.5 -67t30.5 -67q1 -4 -3 -4h-42q-2 0 -4 4l-50 90h-5q-72 -87 -75 -90q-4 -4 -6 -4z" />
<glyph unicode="&#x15d;" horiz-adv-x="457" d="M193 -7q-50 0 -91 5t-54.5 8.5t-17.5 5.5q-3 2 -2 5l17 39q1 3 5 3q2 -1 20.5 -4.5t55.5 -7.5t73 -4q25 0 38.5 0.5t31.5 4.5t28 11t18.5 21t11.5 34l5 32q4 26 -19.5 43.5t-94.5 27.5q-84 11 -115.5 36.5t-24.5 79.5l5 39q5 36 22 60t44.5 34.5t52 14t56.5 3.5 q25 0 48.5 -2t40 -5t28.5 -6t19 -5l6 -2q1 0 1 -3q-1 -1 -9 -20t-8 -20q-1 -1 -2 -1l-8 2q-9 1 -22.5 3.5t-29.5 5t-36 4t-37 1.5q-104 0 -113 -66l-5 -35q-4 -28 18 -42.5t83 -22.5q83 -11 123.5 -37.5t31.5 -79.5l-6 -37q-5 -34 -18 -57.5t-28.5 -36t-40.5 -19.5 t-46.5 -8.5t-54.5 -1.5zM198 558h-40q-3 0 -1 4l97 134q2 4 7 4h55q6 0 7 -4q1 -2 30 -67t30 -67q1 -4 -3 -4h-42q-2 0 -4 4l-49 90h-5q-72 -87 -75 -90q-4 -4 -7 -4z" />
<glyph unicode="&#x15e;" horiz-adv-x="566" d="M239 -10q-20 0 -39.5 1t-35.5 3t-30.5 4.5t-26.5 5.5t-22 6t-17.5 5.5t-12.5 4.5t-9 4l-3 1q-4 2 -2 5q1 2 10.5 21.5t10.5 20.5q2 3 5 2q5 -2 26 -8.5t66.5 -14.5t89.5 -8q37 0 62 3t52 13t43.5 32t21.5 57l10 69q7 49 -28 70.5t-113 27.5q-126 10 -164.5 45.5 t-27.5 113.5l10 70q21 146 224 146q52 0 95 -7t59 -13t19 -9q4 -2 2 -5l-22 -39q-2 -4 -5 -2q-63 21 -156 21q-32 0 -56 -3.5t-47.5 -12.5t-38 -28.5t-18.5 -48.5l-9 -69q-7 -49 25 -71.5t112 -29.5q122 -10 164 -43t32 -113l-9 -71q-11 -81 -63 -115t-131 -39l-62 -133 q-2 -4 -6 -4h-55q-6 0 -3 4l75 131h-2z" />
<glyph unicode="&#x15f;" horiz-adv-x="457" d="M168 -145h-55q-6 0 -3 4l77 134q-49 0 -88 5t-52 8.5t-17 5.5q-3 2 -2 5l17 39q1 3 5 3q2 -1 20.5 -4.5t55.5 -7.5t73 -4q25 0 38.5 0.5t31.5 4.5t28 11t18.5 21t11.5 34l5 32q4 26 -19.5 43.5t-94.5 27.5q-84 11 -115.5 36.5t-24.5 79.5l5 39q5 36 22 60t44.5 34.5 t52 14t56.5 3.5q25 0 48.5 -2t40 -5t28.5 -6t19 -5l6 -2q1 0 1 -3q-1 -1 -9 -20t-8 -20q-1 -1 -2 -1l-8 2q-9 1 -22.5 3.5t-29.5 5t-36 4t-37 1.5q-104 0 -113 -66l-5 -35q-4 -28 18 -42.5t83 -22.5q82 -10 121.5 -37t32.5 -80l-5 -37q-9 -67 -44.5 -92.5t-98.5 -29.5 l-64 -135q-2 -4 -6 -4z" />
<glyph unicode="&#x160;" horiz-adv-x="566" d="M239 -10q-20 0 -39.5 1t-35.5 3t-30.5 4.5t-26.5 5.5t-22 6t-17.5 5.5t-12.5 4.5t-9 4l-3 1q-4 2 -2 5q1 2 10.5 21.5t10.5 20.5q2 3 5 2q5 -2 26 -8.5t66.5 -14.5t89.5 -8q37 0 62 3t52 13t43.5 32t21.5 57l10 69q7 49 -28 70.5t-113 27.5q-126 10 -164.5 45.5 t-27.5 113.5l10 70q21 146 224 146q52 0 95 -7t59 -13t19 -9q4 -2 2 -5l-22 -39q-2 -4 -5 -2q-63 21 -156 21q-32 0 -56 -3.5t-47.5 -12.5t-38 -28.5t-18.5 -48.5l-9 -69q-7 -49 25 -71.5t112 -29.5q122 -10 164 -43t32 -113l-9 -71q-7 -51 -31 -84.5t-63 -48t-72.5 -19 t-80.5 -4.5zM440 903h44q4 0 1 -4l-108 -134q-4 -4 -7 -4h-39q-4 0 -6 4q-9 18 -34 64t-37 71q-2 3 2 3h44q2 0 5 -4l50 -89h5q71 86 73 89q3 4 7 4z" />
<glyph unicode="&#x161;" horiz-adv-x="457" d="M193 -7q-50 0 -91 5t-54.5 8.5t-17.5 5.5q-3 2 -2 5l17 39q1 3 5 3q2 -1 20.5 -4.5t55.5 -7.5t73 -4q25 0 38.5 0.5t31.5 4.5t28 11t18.5 21t11.5 34l5 32q4 26 -19.5 43.5t-94.5 27.5q-84 11 -115.5 36.5t-24.5 79.5l5 39q5 36 22 60t44.5 34.5t52 14t56.5 3.5 q25 0 48.5 -2t40 -5t28.5 -6t19 -5l6 -2q1 0 1 -3q-1 -1 -9 -20t-8 -20q-1 -1 -2 -1l-8 2q-9 1 -22.5 3.5t-29.5 5t-36 4t-37 1.5q-104 0 -113 -66l-5 -35q-4 -28 18 -42.5t83 -22.5q83 -11 123.5 -37.5t31.5 -79.5l-6 -37q-5 -34 -18 -57.5t-28.5 -36t-40.5 -19.5 t-46.5 -8.5t-54.5 -1.5zM357 700h44q3 0 2 -4l-109 -134q-4 -4 -7 -4h-39q-4 0 -6 4q-9 18 -34 64t-37 71q-1 3 2 3h44q3 0 6 -4l49 -89h5q72 86 74 89q3 4 6 4z" />
<glyph unicode="&#x164;" horiz-adv-x="500" d="M185 0q-4 0 -3 4l87 622h-196q-4 0 -4 4l7 46q0 4 4 4h450q4 0 4 -4l-7 -46q0 -4 -4 -4h-197l-87 -622q-1 -4 -4 -4h-50zM407 903h44q4 0 1 -4l-109 -134q-4 -4 -6 -4h-39q-4 0 -6 4q-10 19 -35 64.5t-37 70.5q-2 3 3 3h44q2 0 5 -4l50 -89h5q71 86 73 89q3 4 7 4z" />
<glyph unicode="&#x165;" horiz-adv-x="372" d="M158 -5q-15 0 -24 0.5t-20 3t-17.5 7.5t-13 14.5t-9 22.5t-2.5 33t4 45l43 308h-53q-3 0 -3 4l5 40q0 4 5 4h53l22 159q0 4 5 4h45q3 0 3 -4l-22 -159h91q3 0 3 -4l-5 -40q-1 -4 -5 -4h-91l-43 -309q-11 -75 30 -75q7 0 19 0.5t21 1t10 0.5q3 0 3 -3q0 -2 1.5 -20 t2.5 -19q1 -3 -5 -5q-15 -5 -53 -5zM312 527q-5 -5 -5 3l21 146q0 4 5 4h49q3 0 3 -4l-14 -100q0 -2 -4 -5q-2 -1 -28 -22t-27 -22z" />
<glyph unicode="&#x168;" horiz-adv-x="604" d="M238 -10q-113 0 -147.5 61.5t-13.5 215.5l58 409q0 4 4 4h49q4 0 4 -4l-57 -403q-12 -80 -9 -131t30.5 -74.5t89.5 -23.5h47q39 0 65.5 9t44 24t29.5 46t18.5 63t14.5 87l57 403q0 4 4 4h49q4 0 4 -4l-58 -409q-11 -76 -25.5 -124t-40.5 -84.5t-67.5 -52.5t-102.5 -16 h-47zM261 803q-3 0 -3 5l5 30q0 6 4 10l5 5q5 5 11 9.5t14 9.5t18 8t20 3q23 0 52 -19t49 -19q21 0 42 17.5t22 17.5q2 0 2 -4l-4 -31q-2 -7 -5 -11q-3 -5 -10.5 -11.5t-24.5 -15t-34 -8.5q-23 0 -51.5 19.5t-46.5 19.5q-20 0 -42 -17.5t-23 -17.5z" />
<glyph unicode="&#x169;" horiz-adv-x="509" d="M448 477q4 0 4 -4l-66 -469q0 -4 -5 -4h-46q-3 0 -2 4l2 20q-95 -31 -143 -31q-15 0 -25 0.5t-24 2t-23 4.5t-20.5 8.5t-17.5 13.5t-14 19.5t-9 26.5t-3 34.5t3 43.5l45 327q1 4 5 4h46q4 0 4 -4l-46 -325q-10 -66 12.5 -85.5t75.5 -19.5q19 0 54.5 8t61.5 16l26 8 l55 398q1 4 4 4h46zM184 600q-3 0 -2 5l4 30q0 5 5 10l5 5q5 5 11 9.5t14 9.5t18 8t20 3q23 0 52 -19t48 -19q21 0 42 17.5t22 17.5q3 0 3 -4l-5 -31q0 -6 -4 -11q-3 -5 -10.5 -11.5t-24.5 -15t-34 -8.5q-23 0 -52 19.5t-47 19.5q-20 0 -42 -17.5t-23 -17.5z" />
<glyph unicode="&#x16a;" horiz-adv-x="604" d="M238 -10q-113 0 -147.5 61.5t-13.5 215.5l58 409q0 4 4 4h49q4 0 4 -4l-57 -403q-12 -80 -9 -131t30.5 -74.5t89.5 -23.5h47q39 0 65.5 9t44 24t29.5 46t18.5 63t14.5 87l57 403q0 4 4 4h49q4 0 4 -4l-58 -409q-11 -76 -25.5 -124t-40.5 -84.5t-67.5 -52.5t-102.5 -16 h-47zM497 821h-241q-3 0 -3 4l6 42q0 4 4 4h241q4 0 4 -4l-6 -42q0 -4 -5 -4z" />
<glyph unicode="&#x16b;" horiz-adv-x="509" d="M448 477q4 0 4 -4l-66 -469q0 -4 -5 -4h-46q-3 0 -2 4l2 20q-95 -31 -143 -31q-15 0 -25 0.5t-24 2t-23 4.5t-20.5 8.5t-17.5 13.5t-14 19.5t-9 26.5t-3 34.5t3 43.5l45 327q1 4 5 4h46q4 0 4 -4l-46 -325q-10 -66 12.5 -85.5t75.5 -19.5q19 0 54.5 8t61.5 16l26 8 l55 398q1 4 4 4h46zM422 618h-241q-4 0 -4 4l6 42q0 4 5 4h241q4 0 3 -4l-6 -42q0 -4 -4 -4z" />
<glyph unicode="&#x16c;" horiz-adv-x="604" d="M238 -10q-113 0 -147.5 61.5t-13.5 215.5l58 409q0 4 4 4h49q4 0 4 -4l-57 -403q-12 -80 -9 -131t30.5 -74.5t89.5 -23.5h47q39 0 65.5 9t44 24t29.5 46t18.5 63t14.5 87l57 403q0 4 4 4h49q4 0 4 -4l-58 -409q-11 -76 -25.5 -124t-40.5 -84.5t-67.5 -52.5t-102.5 -16 h-47zM372 773q-106 0 -106 91q0 24 6 24h24q5 0 6 -5q6 -40 21.5 -53t53.5 -13q37 0 55.5 13.5t35.5 52.5q2 5 5 5h29q4 0 3 -5q-26 -110 -133 -110z" />
<glyph unicode="&#x16d;" horiz-adv-x="509" d="M448 477q4 0 4 -4l-66 -469q0 -4 -5 -4h-46q-3 0 -2 4l2 20q-95 -31 -143 -31q-15 0 -25 0.5t-24 2t-23 4.5t-20.5 8.5t-17.5 13.5t-14 19.5t-9 26.5t-3 34.5t3 43.5l45 327q1 4 5 4h46q4 0 4 -4l-46 -325q-10 -66 12.5 -85.5t75.5 -19.5q19 0 54.5 8t61.5 16l26 8 l55 398q1 4 4 4h46zM296 570q-105 0 -105 91q0 24 5 24h24q6 0 7 -5q6 -40 21 -53t53 -13q37 0 55.5 13.5t35.5 52.5q2 5 5 5h29q4 0 3 -5q-26 -110 -133 -110z" />
<glyph unicode="&#x16e;" horiz-adv-x="604" d="M238 -10q-113 0 -147.5 61.5t-13.5 215.5l58 409q0 4 4 4h49q4 0 4 -4l-57 -403q-12 -80 -9 -131t30.5 -74.5t89.5 -23.5h47q39 0 65.5 9t44 24t29.5 46t18.5 63t14.5 87l57 403q0 4 4 4h49q4 0 4 -4l-58 -409q-11 -76 -25.5 -124t-40.5 -84.5t-67.5 -52.5t-102.5 -16 h-47zM367 746q-38 0 -59 15t-16 62l2 20q8 75 98 75q17 0 29 -2t24.5 -9t17.5 -23t2 -41l-2 -20q-3 -25 -12.5 -41.5t-24.5 -23.5t-28 -9.5t-31 -2.5zM371 778q25 0 39.5 9.5t19.5 38.5l2 13q4 28 -7.5 37.5t-37.5 9.5q-53 0 -60 -47l-2 -13q-4 -29 8 -38.5t38 -9.5z" />
<glyph unicode="&#x16f;" horiz-adv-x="509" d="M448 477q4 0 4 -4l-66 -469q0 -4 -5 -4h-46q-3 0 -2 4l2 20q-95 -31 -143 -31q-15 0 -25 0.5t-24 2t-23 4.5t-20.5 8.5t-17.5 13.5t-14 19.5t-9 26.5t-3 34.5t3 43.5l45 327q1 4 5 4h46q4 0 4 -4l-46 -325q-10 -66 12.5 -85.5t75.5 -19.5q19 0 54.5 8t61.5 16l26 8 l55 398q1 4 4 4h46zM291 543q-18 0 -31 2.5t-25.5 10t-17.5 23.5t-1 41l3 20q12 75 97 75q17 0 29.5 -2t25 -9t18 -23t1.5 -41l-3 -20q-5 -33 -21.5 -51t-33 -22t-41.5 -4zM296 575q25 0 39.5 9.5t18.5 38.5l2 13q4 28 -7.5 37.5t-36.5 9.5q-56 0 -61 -47l-1 -13 q-3 -29 9 -38.5t37 -9.5z" />
<glyph unicode="&#x170;" horiz-adv-x="604" d="M238 -10q-113 0 -147.5 61.5t-13.5 215.5l58 409q0 4 4 4h49q4 0 4 -4l-57 -403q-12 -80 -9 -131t30.5 -74.5t89.5 -23.5h47q39 0 65.5 9t44 24t29.5 46t18.5 63t14.5 87l57 403q0 4 4 4h49q4 0 4 -4l-58 -409q-11 -76 -25.5 -124t-40.5 -84.5t-67.5 -52.5t-102.5 -16 h-47zM442 766q-3 -4 -7 -4h-41q-3 0 -2 4l87 133q3 4 7 4h55q5 0 1 -4q-1 -1 -49.5 -65.5t-50.5 -67.5zM321 766q-3 -4 -6 -4h-41q-3 0 -2 4l87 133q3 4 6 4h56q4 0 1 -4q-1 -1 -50.5 -66.5t-50.5 -66.5z" />
<glyph unicode="&#x171;" horiz-adv-x="509" d="M448 477q4 0 4 -4l-66 -469q0 -4 -5 -4h-46q-3 0 -2 4l2 20q-95 -31 -143 -31q-15 0 -25 0.5t-24 2t-23 4.5t-20.5 8.5t-17.5 13.5t-14 19.5t-9 26.5t-3 34.5t3 43.5l45 327q1 4 5 4h46q4 0 4 -4l-46 -325q-10 -66 12.5 -85.5t75.5 -19.5q19 0 54.5 8t61.5 16l26 8 l55 398q1 4 4 4h46zM365 563q-3 -4 -6 -4h-41q-5 0 -2 4l87 133q3 4 6 4h55q6 0 2 -4q-1 -1 -50 -65.5t-51 -67.5zM245 563q-3 -4 -6 -4h-41q-5 0 -2 4l87 133q3 4 5 4h56q5 0 2 -4q-1 -1 -50.5 -66.5t-50.5 -66.5z" />
<glyph unicode="&#x172;" horiz-adv-x="604" d="M217 -178q-29 0 -44.5 10.5t-15.5 40.5q0 38 20 64t57 53q-111 1 -144.5 62.5t-12.5 214.5l58 409q0 4 4 4h49q4 0 4 -4l-57 -403q-12 -80 -9 -131t30.5 -74.5t89.5 -23.5h47q39 0 65.5 9t44 24t29.5 46t18.5 63t14.5 87l57 403q0 4 4 4h49q4 0 4 -4l-58 -409 q-14 -100 -35.5 -156t-68 -88t-125.5 -33q-48 -33 -67.5 -56t-19.5 -45q0 -12 6 -16t20 -4q17 0 32 10q4 2 4 -2q1 -1 3 -6.5t4.5 -11t2.5 -6.5q2 -7 -1 -9q-28 -22 -59 -22z" />
<glyph unicode="&#x173;" horiz-adv-x="509" d="M298 -172q-29 0 -44.5 10.5t-15.5 40.5q0 41 24 69t68 58l3 2l2 16q-95 -31 -143 -31q-15 0 -25 0.5t-24 2t-23 4.5t-20.5 8.5t-17.5 13.5t-14 19.5t-9 26.5t-3 34.5t3 43.5l45 327q1 4 5 4h46q4 0 4 -4l-46 -325q-10 -66 12.5 -85.5t75.5 -19.5q19 0 54.5 8t61.5 16 l26 8l55 398q1 4 4 4h46q4 0 4 -4l-66 -469q0 -4 -5 -4h-2q-51 -34 -71.5 -58t-20.5 -47q0 -12 6 -16t19 -4q17 0 32 10q4 2 5 -2q1 -1 5 -12t4 -12q2 -7 -1 -9q-27 -22 -59 -22z" />
<glyph unicode="&#x174;" horiz-adv-x="778" d="M133 0q-3 0 -3 4q0 2 -20.5 336.5t-21.5 335.5q-1 4 3 4h52q3 0 4 -4l32 -578h17q200 434 201 436q2 3 4 3h47q4 0 5 -3l75 -436h18q195 575 196 578q2 4 5 4h51q4 0 3 -4l-231 -672q-1 -4 -4 -4h-73q-1 0 -3 3l-75 421h-11q-192 -417 -193 -420q-2 -4 -5 -4h-73z M385 761h-40q-4 0 -2 4l97 134q2 4 7 4h55q6 0 7 -4q1 -2 30 -67t30 -67q1 -4 -2 -4h-42q-3 0 -5 4l-49 90h-5q-72 -87 -75 -90q-4 -4 -6 -4z" />
<glyph unicode="&#x175;" horiz-adv-x="700" d="M143 0q-3 0 -3 4l-60 469q0 4 2 4h49q5 0 6 -4l44 -376h10q147 283 147 286q0 4 4 4h44q3 0 4 -4l69 -286h11q143 373 145 376q2 4 6 4h50q4 0 1 -4q-1 -2 -96 -235t-95 -234q-3 -4 -5 -4h-49q-2 0 -3 4l-67 297h-10q-149 -295 -150 -297q-3 -4 -5 -4h-49zM319 558h-40 q-4 0 -2 4l97 134q2 4 7 4h55q6 0 7 -4q1 -2 30 -67t30 -67q1 -4 -2 -4h-42q-3 0 -5 4l-49 90h-5q-72 -87 -75 -90q-4 -4 -6 -4z" />
<glyph unicode="&#x176;" horiz-adv-x="491" d="M182 0q-4 0 -4 4l39 272q-142 397 -143 400q-2 4 2 4h57q2 0 5 -4l114 -327h6q205 324 207 327q3 4 5 4h57q5 0 2 -4l-255 -400l-39 -272q0 -4 -4 -4h-49zM242 761h-40q-4 0 -2 4l97 134q2 4 8 4h55q5 0 6 -4q1 -2 30 -67t30 -67q1 -4 -2 -4h-42q-3 0 -5 4l-49 90h-5 q-72 -87 -75 -90q-4 -4 -6 -4z" />
<glyph unicode="&#x177;" horiz-adv-x="445" d="M0 -180q-3 0 -3 3q0 2 6.5 22.5t6.5 21.5q0 4 5 4h22q26 0 45 16t49 74l24 49q-98 460 -99 463q-1 4 3 4h49q4 0 5 -4l80 -377h10q183 374 184 377q1 4 5 4h50q2 0 1 -4q-1 -3 -259 -519q-26 -50 -44 -77.5t-37 -40t-31 -14.5t-39 -2h-33zM193 558h-40q-3 0 -1 4l97 134 q2 4 7 4h55q6 0 7 -4q1 -2 30 -67t30 -67q1 -4 -3 -4h-42q-2 0 -4 4l-49 90h-5q-72 -87 -75 -90q-4 -4 -7 -4z" />
<glyph unicode="&#x178;" horiz-adv-x="491" d="M182 0q-4 0 -4 4l39 272q-142 397 -143 400q-2 4 2 4h57q2 0 5 -4l114 -327h6q205 324 207 327q3 4 5 4h57q5 0 2 -4l-255 -400l-39 -272q0 -4 -4 -4h-49zM201 805q-4 0 -4 4l10 67q0 4 4 4h50q4 0 4 -4l-10 -67q0 -4 -4 -4h-50zM390 805q-4 0 -4 4l10 67q0 4 4 4h50 q4 0 4 -4l-10 -67q0 -4 -4 -4h-50z" />
<glyph unicode="&#x179;" horiz-adv-x="513" d="M14 0q-3 0 -3 2l8 56q0 2 2 4l423 555l1 8h-331q-4 0 -4 4l7 46q0 5 5 5h391q5 0 4 -5l-7 -51q-2 -6 -4 -10l-420 -552l-1 -8h341q3 0 3 -4l-6 -46q-1 -4 -4 -4h-405zM326 765q-4 -4 -7 -4h-40q-5 0 -1 4l85 134q3 4 7 4h55q6 0 2 -4z" />
<glyph unicode="&#x17a;" horiz-adv-x="444" d="M19 0q-4 0 -4 4l7 44q0 3 5 8l313 362l1 7h-250q-4 0 -4 4l6 44q0 4 5 4h316q3 0 3 -4l-6 -43q0 -3 -4 -7l-314 -364l-1 -8h262q4 0 3 -4l-6 -43q0 -4 -4 -4h-328zM262 562q-2 -4 -7 -4h-40q-3 0 -1 4l86 134q3 4 6 4h55q6 0 2 -4z" />
<glyph unicode="&#x17b;" horiz-adv-x="513" d="M14 0q-3 0 -3 2l8 56q0 2 2 4l423 555l1 8h-331q-4 0 -4 4l7 46q0 5 5 5h391q5 0 4 -5l-7 -51q-2 -6 -4 -10l-420 -552l-1 -8h341q3 0 3 -4l-6 -46q-1 -4 -4 -4h-405zM312 806q-3 0 -3 4l10 69q0 4 4 4h55q4 0 4 -4l-10 -69q0 -4 -5 -4h-55z" />
<glyph unicode="&#x17c;" horiz-adv-x="444" d="M19 0q-4 0 -4 4l7 44q0 3 5 8l313 362l1 7h-250q-4 0 -4 4l6 44q0 4 5 4h316q3 0 3 -4l-6 -43q0 -3 -4 -7l-314 -364l-1 -8h262q4 0 3 -4l-6 -43q0 -4 -4 -4h-328zM244 603q-4 0 -4 4l10 69q0 4 4 4h55q4 0 4 -4l-10 -69q0 -4 -4 -4h-55z" />
<glyph unicode="&#x17d;" horiz-adv-x="513" d="M14 0q-3 0 -3 2l8 56q0 2 2 4l423 555l1 8h-331q-4 0 -4 4l7 46q0 5 5 5h391q5 0 4 -5l-7 -51q-2 -6 -4 -10l-420 -552l-1 -8h341q3 0 3 -4l-6 -46q-1 -4 -4 -4h-405zM413 903h44q3 0 2 -4l-110 -134q-4 -4 -6 -4h-39q-4 0 -6 4q-9 18 -34 64t-37 71q-1 3 2 3h44 q2 0 5 -4l50 -89h5q71 86 73 89q3 4 7 4z" />
<glyph unicode="&#x17e;" horiz-adv-x="444" d="M19 0q-4 0 -4 4l7 44q0 3 5 8l313 362l1 7h-250q-4 0 -4 4l6 44q0 4 5 4h316q3 0 3 -4l-6 -43q0 -3 -4 -7l-314 -364l-1 -8h262q4 0 3 -4l-6 -43q0 -4 -4 -4h-328zM350 700h44q4 0 1 -4l-108 -134q-4 -4 -7 -4h-39q-4 0 -6 4q-9 18 -34 64t-37 71q-2 3 2 3h44q3 0 6 -4 l49 -89h5q72 86 74 89q3 4 6 4z" />
<glyph unicode="&#x192;" horiz-adv-x="434" d="M77 -185q-9 0 -22 1.5t-22 3t-10 1.5q-3 0 -3 3q0 2 7 20.5t7 19.5q0 3 4 3q1 0 10 -0.5t21.5 -1t20.5 -0.5q40 0 51 75l59 418h-71q-3 0 -3 4l5 40q0 4 5 4h70l22 153q11 76 41.5 101t77.5 25q6 0 19 -1.5t23.5 -3t11.5 -1.5q3 0 3 -4q0 -2 -7 -21l-7 -18q0 -3 -4 -3 l-20 1q-20 1 -32 1q-41 0 -52 -75l-22 -154h73q3 0 3 -4l-5 -40q0 -4 -5 -4h-72l-59 -417q-10 -74 -40 -100t-78 -26z" />
<glyph unicode="&#x218;" horiz-adv-x="566" d="M239 -10q-20 0 -39.5 1t-35.5 3t-30.5 4.5t-26.5 5.5t-22 6t-17.5 5.5t-12.5 4.5t-9 4l-3 1q-4 2 -2 5q1 2 10.5 21.5t10.5 20.5q2 3 5 2q5 -2 26 -8.5t66.5 -14.5t89.5 -8q37 0 62 3t52 13t43.5 32t21.5 57l10 69q7 49 -28 70.5t-113 27.5q-126 10 -164.5 45.5 t-27.5 113.5l10 70q21 146 224 146q52 0 95 -7t59 -13t19 -9q4 -2 2 -5l-22 -39q-2 -4 -5 -2q-63 21 -156 21q-32 0 -56 -3.5t-47.5 -12.5t-38 -28.5t-18.5 -48.5l-9 -69q-7 -49 25 -71.5t112 -29.5q122 -10 164 -43t32 -113l-9 -71q-7 -51 -31 -84.5t-63 -48t-72.5 -19 t-80.5 -4.5zM193 -248q-2 -2 -3.5 -0.5t-0.5 3.5l20 146q1 4 5 4h49q3 0 3 -4l-14 -100q0 -2 -4 -5q-2 -1 -28 -22t-27 -22z" />
<glyph unicode="&#x219;" horiz-adv-x="457" d="M193 -7q-50 0 -91 5t-54.5 8.5t-17.5 5.5q-3 2 -2 5l17 39q1 3 5 3q2 -1 20.5 -4.5t55.5 -7.5t73 -4q25 0 38.5 0.5t31.5 4.5t28 11t18.5 21t11.5 34l5 32q4 26 -19.5 43.5t-94.5 27.5q-84 11 -115.5 36.5t-24.5 79.5l5 39q5 36 22 60t44.5 34.5t52 14t56.5 3.5 q25 0 48.5 -2t40 -5t28.5 -6t19 -5l6 -2q1 0 1 -3q-1 -1 -9 -20t-8 -20q-1 -1 -2 -1l-8 2q-9 1 -22.5 3.5t-29.5 5t-36 4t-37 1.5q-104 0 -113 -66l-5 -35q-4 -28 18 -42.5t83 -22.5q83 -11 123.5 -37.5t31.5 -79.5l-6 -37q-5 -34 -18 -57.5t-28.5 -36t-40.5 -19.5 t-46.5 -8.5t-54.5 -1.5zM144 -248q-2 -2 -3.5 -0.5t-0.5 3.5l20 146q1 4 5 4h49q3 0 3 -4l-14 -100q0 -2 -4 -5q-2 -1 -28 -22t-27 -22z" />
<glyph unicode="&#x21a;" horiz-adv-x="500" d="M185 0q-4 0 -3 4l87 622h-196q-4 0 -4 4l7 46q0 4 4 4h450q4 0 4 -4l-7 -46q0 -4 -4 -4h-197l-87 -622q-1 -4 -4 -4h-50zM150 -248q-2 -2 -3.5 -0.5t-0.5 3.5l20 146q1 4 5 4h49q3 0 3 -4l-14 -100q0 -2 -4 -5q-2 -1 -28 -22t-27 -22z" />
<glyph unicode="&#x21b;" horiz-adv-x="297" d="M158 -5q-15 0 -24 0.5t-20 3t-17.5 7.5t-13 14.5t-9 22.5t-2.5 33t4 45l43 308h-53q-3 0 -3 4l5 40q0 4 5 4h53l22 159q0 4 5 4h45q3 0 3 -4l-22 -159h91q3 0 3 -4l-5 -40q-1 -4 -5 -4h-91l-43 -309q-11 -75 30 -75q7 0 19 0.5t21 1t10 0.5q3 0 3 -3q0 -2 1.5 -20 t2.5 -19q1 -3 -5 -5q-15 -5 -53 -5zM64 -248q-2 -2 -3.5 -0.5t-0.5 3.5l20 146q1 4 5 4h49q3 0 3 -4l-14 -100q0 -2 -4 -5q-2 -1 -28 -22t-27 -22z" />
<glyph unicode="&#x2c6;" horiz-adv-x="402" d="M168 558h-40q-5 0 -1 4l96 134q4 4 8 4h55q5 0 6 -4q1 -2 30.5 -67t30.5 -67q1 -4 -3 -4h-42q-3 0 -5 4l-49 90h-5q-72 -87 -75 -90q-4 -4 -6 -4z" />
<glyph unicode="&#x2c7;" horiz-adv-x="402" d="M329 700h44q4 0 1 -4l-108 -134q-4 -4 -7 -4h-39q-4 0 -6 4q-9 18 -34 64t-37 71q-1 3 2 3h44q3 0 6 -4l49 -89h5q72 86 74 89q3 4 6 4z" />
<glyph unicode="&#x2d8;" horiz-adv-x="402" d="M242 570q-105 0 -105 91q0 24 5 24h24q6 0 7 -5q6 -40 21 -53t53 -13q37 0 56 13.5t36 52.5q2 5 4 5h29q5 0 4 -5q-26 -110 -134 -110z" />
<glyph unicode="&#x2d9;" horiz-adv-x="402" d="M218 603q-4 0 -4 4l10 69q0 4 5 4h55q3 0 3 -4l-10 -69q0 -4 -4 -4h-55z" />
<glyph unicode="&#x2da;" horiz-adv-x="402" d="M239 575q25 0 39.5 9.5t19.5 38.5l2 13q4 28 -7.5 37.5t-36.5 9.5q-54 0 -61 -47l-2 -13q-4 -29 8 -38.5t38 -9.5zM235 543q-18 0 -31 2.5t-25.5 10t-17.5 23.5t-1 41l3 20q12 75 97 75q17 0 29.5 -2t25 -9t18 -23t1.5 -41l-3 -20q-5 -33 -21.5 -51t-33 -22t-41.5 -4z " />
<glyph unicode="&#x2db;" horiz-adv-x="402" d="M138 -172q-29 0 -44.5 10.5t-15.5 40.5q0 40 23.5 68t68.5 59q5 4 15 4h36q2 0 3.5 -1.5t0.5 -3.5t-4 -4q-52 -35 -73 -59t-21 -47q0 -12 6 -16t20 -4q16 0 31 10q4 2 5 -2q1 -1 3 -6.5t4.5 -11t2.5 -6.5q2 -6 -2 -9q-27 -22 -59 -22z" />
<glyph unicode="&#x2dc;" horiz-adv-x="402" d="M129 600q-3 0 -2 5l4 30q0 5 5 10l5 5q5 5 11 9.5t14 9.5t18 8t20 3q23 0 51.5 -19t48.5 -19q21 0 42 17.5t22 17.5q3 0 3 -4l-5 -31q0 -6 -4 -11q-3 -5 -10.5 -11.5t-24.5 -15t-34 -8.5q-23 0 -52 19.5t-47 19.5q-20 0 -42 -17.5t-23 -17.5z" />
<glyph unicode="&#x2dd;" horiz-adv-x="402" d="M286 563q-3 -4 -6 -4h-41q-5 0 -2 4l87 133q3 4 6 4h55q6 0 2 -4q-1 -1 -50 -65.5t-51 -67.5zM166 563q-3 -4 -6 -4h-41q-5 0 -2 4l87 133q3 4 5 4h56q5 0 2 -4q-1 -1 -50.5 -66.5t-50.5 -66.5z" />
<glyph unicode="&#x1e80;" horiz-adv-x="778" d="M133 0q-3 0 -3 4q0 2 -20.5 336.5t-21.5 335.5q-1 4 3 4h52q3 0 4 -4l32 -578h17q200 434 201 436q2 3 4 3h47q4 0 5 -3l75 -436h18q195 575 196 578q2 4 5 4h51q4 0 3 -4l-231 -672q-1 -4 -4 -4h-73q-1 0 -3 3l-75 421h-11q-192 -417 -193 -420q-2 -4 -5 -4h-73z M463 765l-63 134q-1 4 1 4h56q4 0 5 -4l49 -134q2 -4 -2 -4h-41q-3 0 -5 4z" />
<glyph unicode="&#x1e81;" horiz-adv-x="700" d="M143 0q-3 0 -3 4l-60 469q0 4 2 4h49q5 0 6 -4l44 -376h10q147 283 147 286q0 4 4 4h44q3 0 4 -4l69 -286h11q143 373 145 376q2 4 6 4h50q4 0 1 -4q-1 -2 -96 -235t-95 -234q-3 -4 -5 -4h-49q-2 0 -3 4l-67 297h-10q-149 -295 -150 -297q-3 -4 -5 -4h-49zM396 562 l-63 134q-1 4 1 4h56q4 0 5 -4l49 -134q2 -4 -2 -4h-41q-3 0 -5 4z" />
<glyph unicode="&#x1e82;" horiz-adv-x="778" d="M133 0q-3 0 -3 4q0 2 -20.5 336.5t-21.5 335.5q-1 4 3 4h52q3 0 4 -4l32 -578h17q200 434 201 436q2 3 4 3h47q4 0 5 -3l75 -436h18q195 575 196 578q2 4 5 4h51q4 0 3 -4l-231 -672q-1 -4 -4 -4h-73q-1 0 -3 3l-75 421h-11q-192 -417 -193 -420q-2 -4 -5 -4h-73z M448 765q-2 -4 -6 -4h-40q-4 0 -2 4l86 134q3 4 6 4h55q6 0 2 -4z" />
<glyph unicode="&#x1e83;" horiz-adv-x="700" d="M143 0q-3 0 -3 4l-60 469q0 4 2 4h49q5 0 6 -4l44 -376h10q147 283 147 286q0 4 4 4h44q3 0 4 -4l69 -286h11q143 373 145 376q2 4 6 4h50q4 0 1 -4q-1 -2 -96 -235t-95 -234q-3 -4 -5 -4h-49q-2 0 -3 4l-67 297h-10q-149 -295 -150 -297q-3 -4 -5 -4h-49zM390 562 q-2 -4 -6 -4h-40q-4 0 -2 4l86 134q3 4 6 4h55q6 0 2 -4z" />
<glyph unicode="&#x1e84;" horiz-adv-x="778" d="M133 0q-3 0 -3 4q0 2 -20.5 336.5t-21.5 335.5q-1 4 3 4h52q3 0 4 -4l32 -578h17q200 434 201 436q2 3 4 3h47q4 0 5 -3l75 -436h18q195 575 196 578q2 4 5 4h51q4 0 3 -4l-231 -672q-1 -4 -4 -4h-73q-1 0 -3 3l-75 421h-11q-192 -417 -193 -420q-2 -4 -5 -4h-73z M342 808q-4 0 -3 4l9 67q1 4 5 4h50q3 0 3 -4l-9 -67q-1 -4 -5 -4h-50zM531 808q-4 0 -3 4l9 67q1 4 5 4h50q3 0 3 -4l-9 -67q-1 -4 -5 -4h-50z" />
<glyph unicode="&#x1e85;" horiz-adv-x="700" d="M143 0q-3 0 -3 4l-60 469q0 4 2 4h49q5 0 6 -4l44 -376h10q147 283 147 286q0 4 4 4h44q3 0 4 -4l69 -286h11q143 373 145 376q2 4 6 4h50q4 0 1 -4q-1 -2 -96 -235t-95 -234q-3 -4 -5 -4h-49q-2 0 -3 4l-67 297h-10q-149 -295 -150 -297q-3 -4 -5 -4h-49zM276 605 q-4 0 -3 4l9 67q1 4 5 4h50q3 0 3 -4l-9 -67q-1 -4 -5 -4h-50zM465 605q-4 0 -3 4l9 67q1 4 5 4h50q3 0 3 -4l-9 -67q-1 -4 -5 -4h-50z" />
<glyph unicode="&#x1e9e;" horiz-adv-x="569" d="M44 0q-4 0 -4 4l67 473q9 62 31 104t55.5 62.5t67.5 28.5t78 8h190q4 0 4 -4l-7 -50l-3 -6l-154 -222q21 -3 40 -10.5t41.5 -24.5t33 -50.5t3.5 -79.5l-10 -68q-7 -45 -25 -77t-39.5 -49t-56 -26t-62 -11t-69.5 -2q-4 0 -4 4l7 44q0 4 4 4q33 0 53.5 1.5t47 8t43 18.5 t30 34.5t17.5 55.5l8 59q9 71 -28.5 96t-100.5 25q-3 0 -3 4l6 44l161 230h-134q-72 0 -114 -31.5t-55 -119.5l-67 -473q0 -4 -4 -4h-48z" />
<glyph unicode="&#x2000;" horiz-adv-x="459" />
<glyph unicode="&#x2001;" horiz-adv-x="918" />
<glyph unicode="&#x2002;" horiz-adv-x="459" />
<glyph unicode="&#x2003;" horiz-adv-x="918" />
<glyph unicode="&#x2004;" horiz-adv-x="306" />
<glyph unicode="&#x2005;" horiz-adv-x="229" />
<glyph unicode="&#x2006;" horiz-adv-x="153" />
<glyph unicode="&#x2007;" horiz-adv-x="153" />
<glyph unicode="&#x2008;" horiz-adv-x="114" />
<glyph unicode="&#x2009;" horiz-adv-x="183" />
<glyph unicode="&#x200a;" horiz-adv-x="51" />
<glyph unicode="&#x2010;" horiz-adv-x="356" d="M46 250q-3 0 -3 4l6 42q0 4 4 4h255q4 0 4 -4l-6 -42q0 -4 -5 -4h-255z" />
<glyph unicode="&#x2011;" horiz-adv-x="356" d="M46 250q-3 0 -3 4l6 42q0 4 4 4h255q4 0 4 -4l-6 -42q0 -4 -5 -4h-255z" />
<glyph unicode="&#x2012;" horiz-adv-x="356" d="M46 250q-3 0 -3 4l6 42q0 4 4 4h255q4 0 4 -4l-6 -42q0 -4 -5 -4h-255z" />
<glyph unicode="&#x2013;" horiz-adv-x="424" d="M32 250q-3 0 -3 4l6 42q0 4 4 4h350q4 0 4 -4l-6 -42q0 -4 -5 -4h-350z" />
<glyph unicode="&#x2014;" horiz-adv-x="538" d="M13 250q-3 0 -3 4l6 42q0 4 4 4h502q4 0 4 -4l-6 -42q0 -4 -5 -4h-502z" />
<glyph unicode="&#x2018;" horiz-adv-x="198" d="M178 684q5 5 5 -3l-21 -146q0 -4 -4 -4h-49q-4 0 -4 4l14 100q0 2 4 5q2 1 28 22t27 22z" />
<glyph unicode="&#x2019;" horiz-adv-x="198" d="M109 527q-5 -5 -5 3l21 146q0 4 5 4h49q3 0 3 -4l-14 -100q0 -2 -4 -5q-2 -1 -28 -22t-27 -22z" />
<glyph unicode="&#x201a;" horiz-adv-x="198" d="M29 -49q-5 -5 -5 3l21 146q0 4 5 4h49q3 0 3 -4l-14 -100q0 -2 -4 -5q-2 -1 -28 -22t-27 -22z" />
<glyph unicode="&#x201c;" horiz-adv-x="331" d="M178 684q5 5 5 -3l-21 -146q0 -4 -4 -4h-49q-4 0 -4 4l14 100q0 2 4 5q2 1 28 22t27 22zM311 684q5 5 5 -3l-21 -146q0 -4 -4 -4h-49q-4 0 -4 4l14 100q0 2 4 5q2 1 28 22t27 22z" />
<glyph unicode="&#x201d;" horiz-adv-x="331" d="M242 527q-5 -5 -5 3l21 146q0 4 5 4h49q3 0 3 -4l-14 -100q0 -2 -4 -5zM109 527q-5 -5 -5 3l21 146q0 4 5 4h49q3 0 3 -4l-14 -100q0 -2 -4 -5q-2 -1 -28 -22t-27 -22z" />
<glyph unicode="&#x201e;" horiz-adv-x="331" d="M162 -49q-6 -4 -6 3l21 146q0 4 5 4h50q3 0 3 -4l-14 -100l-5 -5q-1 -1 -28 -23zM29 -49q-5 -5 -5 3l21 146q0 4 5 4h49q3 0 3 -4l-14 -100q0 -2 -4 -5q-2 -1 -28 -22t-27 -22z" />
<glyph unicode="&#x2020;" horiz-adv-x="428" d="M127 -180q-4 0 -3 4l78 558h-142q-3 0 -2 4l6 42q0 4 3 4h142l34 244q0 4 5 4h44q3 0 3 -4l-34 -244h142q4 0 4 -4l-6 -42q0 -4 -5 -4h-142l-78 -558q-1 -4 -5 -4h-44z" />
<glyph unicode="&#x2021;" horiz-adv-x="428" d="M126 -180q-3 0 -3 4l31 219h-142q-3 0 -3 4l6 42q0 4 4 4h142l44 314h-142q-3 0 -3 4l6 42q0 4 4 4h142l31 219q0 4 4 4h44q4 0 4 -4l-31 -219h142q4 0 3 -4l-6 -42q0 -4 -4 -4h-142l-44 -314h142q3 0 3 -4l-6 -42q0 -4 -4 -4h-142l-31 -219q0 -4 -5 -4h-44z" />
<glyph unicode="&#x2022;" horiz-adv-x="360" d="M170 221q-17 0 -29.5 2.5t-25 10t-17.5 23.5t-1 41l3 20q7 44 32.5 59.5t63.5 15.5q17 0 29 -2t24 -9t17 -23t2 -41l-2 -20q-4 -33 -20.5 -51t-33.5 -22t-42 -4z" />
<glyph unicode="&#x2026;" horiz-adv-x="627" d="M52 0q-4 0 -4 4l11 74q0 4 4 4h62q4 0 4 -4l-11 -74q0 -4 -4 -4h-62zM433 0q-4 0 -4 4l11 74q0 4 4 4h62q4 0 4 -4l-11 -74q0 -4 -4 -4h-62zM243 0q-4 0 -4 4l11 74q0 4 4 4h61q4 0 4 -4l-11 -74q0 -4 -4 -4h-61z" />
<glyph unicode="&#x202f;" horiz-adv-x="183" />
<glyph unicode="&#x2030;" horiz-adv-x="989" d="M154 -5h-44q-5 0 -2 4q74 113 228 340.5t228 341.5q3 4 7 4h43q4 0 1 -4q-1 -1 -227 -340.5t-227 -341.5q-2 -4 -7 -4zM484 36q32 0 51 12.5t24 49.5l13 97q5 36 -9 48t-46 12q-33 0 -53 -12.5t-25 -47.5l-13 -97q-5 -38 10.5 -50t47.5 -12zM478 -5q-23 0 -39 3t-32 12.5 t-22.5 31t-1.5 53.5l15 105q8 57 41 76.5t84 19.5q22 0 37 -3t31.5 -11.5t23 -29t1.5 -52.5l-15 -105q-5 -33 -17 -54.5t-31 -30.5t-35.5 -12t-39.5 -3zM213 425q32 0 51.5 12t24.5 50l14 97q5 35 -9.5 47.5t-46.5 12.5q-33 0 -52.5 -12.5t-24.5 -47.5l-14 -97 q-5 -38 10 -50t47 -12zM208 384q-23 0 -38.5 3t-32 12.5t-22.5 30.5t-2 53l14 105q8 57 41.5 77t84.5 20q22 0 37 -3t31.5 -11.5t22.5 -29.5t2 -53l-14 -105q-4 -32 -16.5 -53.5t-31.5 -30.5t-36 -12t-40 -3zM760 36q32 0 51.5 12t24.5 50l13 97q5 36 -9.5 48t-46.5 12 q-33 0 -53 -12.5t-25 -47.5l-13 -97q-5 -38 10.5 -50t47.5 -12zM754 -5q-23 0 -39 3t-32 12.5t-22.5 31t-1.5 53.5l15 105q8 57 41.5 76.5t83.5 19.5q22 0 37 -3t31.5 -11.5t23 -29t1.5 -52.5l-15 -105q-9 -62 -41 -81t-82 -19z" />
<glyph unicode="&#x2039;" horiz-adv-x="286" d="M235 453l24 -28q3 -3 0 -6l-168 -154q122 -152 124 -154q3 -3 0 -6l-32 -28q-3 -3 -5 0q-1 1 -75 92t-76 93q-3 3 1 6l203 185q1 1 4 0z" />
<glyph unicode="&#x203a;" horiz-adv-x="286" d="M45 76l-24 28q-3 2 1 6l168 154q-123 152 -125 154q-3 3 1 6l32 28q3 3 4 0l152 -185q2 -3 -1 -6l-203 -185q-2 -2 -5 0z" />
<glyph unicode="&#x2044;" horiz-adv-x="388" d="M39 -4q-3 0 -3 2q0 1 70 171t141 340.5t71 171.5q1 4 5 4h44q5 0 2 -4q0 -1 -140.5 -340.5t-140.5 -340.5q-1 -4 -5 -4h-44z" />
<glyph unicode="&#x205f;" horiz-adv-x="229" />
<glyph unicode="&#x2070;" horiz-adv-x="328" d="M166 304q45 0 69.5 21t34.5 90l17 121q10 67 -9 87.5t-64 20.5q-44 0 -68 -20.5t-34 -87.5l-17 -121q-10 -70 9 -90.5t62 -20.5zM161 267q-16 0 -26 0.5t-25 3.5t-22.5 9t-18.5 16.5t-13 26t-5.5 37.5t3.5 51l19 130q5 38 16.5 65t24.5 41t32.5 22t34.5 10t38 2 q12 0 20 -0.5t19.5 -1.5t19 -4t17 -8t15 -12t11 -17.5t7.5 -24t2 -32t-3 -40.5l-19 -130q-6 -40 -18 -68.5t-24.5 -43t-33 -22t-34.5 -9t-37 -1.5z" />
<glyph unicode="&#x2074;" horiz-adv-x="305" d="M221 270h-31q-3 0 -3 2l11 78h-154q-2 0 -2 1l5 37q0 2 2 4q1 1 78.5 141.5t78.5 142.5q2 2 3 2h36q1 0 1 -2l-155 -284l-1 -5h113l12 86q0 2 3 2h32q2 0 2 -2l-12 -86h46q3 0 3 -3l-5 -32q0 -2 -3 -2h-46l-11 -78q0 -2 -3 -2z" />
<glyph unicode="&#x2075;" horiz-adv-x="305" d="M147 267q-63 0 -97 17q-2 2 -1 3q9 21 10 28q0 2 5 2l6 -1q5 -2 14.5 -4t20 -3.5t24 -3t24.5 -1.5q77 0 84 52l6 41q11 69 -57 69h-101q-1 0 -1 2l29 205q0 5 5 5h184q2 0 2 -2l-4 -31q0 -3 -3 -3h-153l-20 -141h68q19 0 33 -3t30.5 -12t23.5 -31.5t2 -56.5l-6 -43 q-12 -88 -128 -88z" />
<glyph unicode="&#x2076;" horiz-adv-x="299" d="M154 302q34 0 56.5 15.5t27.5 63.5l2 20q5 44 -11 60t-51 16l-75 -14l-15 -106q-4 -28 15 -41.5t51 -13.5zM150 267q-18 0 -34.5 3t-34.5 11.5t-27 27.5t-5 46l33 234q13 92 125 92q17 0 32 -2t25.5 -4.5t18 -4.5t11.5 -4l5 -2q1 0 1 -2q0 -1 -6 -15l-5 -14q0 -2 -3 -2 l-5 1q-5 2 -13.5 4t-18.5 3.5t-22.5 3t-23.5 1.5q-74 0 -82 -56l-13 -90q55 15 79 15q21 0 35 -2.5t31 -12t23.5 -33t1.5 -60.5l-4 -27q-6 -37 -20 -61.5t-34 -34t-35 -12.5t-35 -3z" />
<glyph unicode="&#x2077;" horiz-adv-x="298" d="M113 270h-37q-2 0 -1 2l189 364l1 5h-170q-2 0 -2 2l5 32q0 3 2 3h211q2 0 2 -2l-5 -35v-3l-1 -1q0 -1 -95 -182.5t-96 -182.5q0 -2 -3 -2z" />
<glyph unicode="&#x2078;" horiz-adv-x="305" d="M155 302q38 0 58 13.5t25 55.5l3 25q5 41 -11.5 55.5t-49.5 14.5q-34 0 -56 -14.5t-28 -55.5l-4 -25q-6 -41 10 -55t53 -14zM183 502q71 0 78 58l3 25q7 61 -58 61q-70 0 -80 -61l-4 -25q-5 -31 12.5 -44.5t48.5 -13.5zM150 266q-52 0 -78 20.5t-18 81.5l4 31q4 28 18 49 t26 28l12 7v2q-4 2 -10 6.5t-14 23t-5 41.5l4 31q13 94 123 94q102 0 89 -94l-4 -31q-3 -22 -15 -39.5t-22 -24.5l-10 -6v-2q4 -2 10 -7t15 -27t5 -51l-4 -31q-8 -62 -40.5 -82t-85.5 -20z" />
<glyph unicode="&#x2079;" horiz-adv-x="304" d="M202 646q-35 0 -56 -15t-28 -64l-4 -29q-6 -43 10 -59.5t51 -16.5q8 0 27.5 4t34.5 8l15 3l16 114q4 29 -15 42t-51 13zM205 681q18 0 34.5 -3t35 -11.5t27.5 -27t5 -45.5l-33 -235q-13 -92 -126 -92q-26 0 -49.5 3.5t-33.5 7t-11 4.5q-2 2 -1 4q1 1 6.5 14t5.5 14t3 1 l5 -1q5 -1 14 -2.5t19 -3.5t23 -3t24 -1q75 0 83 56l11 81q-55 -14 -81 -14q-20 0 -34 2.5t-31 12t-23.5 33t-1.5 59.5l5 36q5 38 19 62t34.5 34t35.5 12.5t35 2.5z" />
<glyph unicode="&#x2080;" horiz-adv-x="328" d="M128 34q45 0 69.5 21t34.5 90l17 121q10 67 -9 87.5t-64 20.5q-44 0 -68 -20.5t-34 -87.5l-17 -121q-10 -70 9 -90.5t62 -20.5zM123 -3q-16 0 -26 0.5t-25 3.5t-22.5 9t-18.5 16.5t-13 26t-5.5 37.5t3.5 51l19 130q5 38 16.5 65t24.5 41t32.5 22t34.5 10t38 2 q12 0 20 -0.5t19.5 -1.5t19 -4t17 -8t15 -12t11 -17.5t7.5 -24t2 -32t-3 -40.5l-19 -130q-6 -40 -18 -68.5t-24.5 -43t-33 -22t-34.5 -9t-37 -1.5z" />
<glyph unicode="&#x2081;" horiz-adv-x="293" d="M140 0h-32q-3 0 -3 2l51 359q-81 -58 -82 -59q-2 -1 -2 1t-2.5 16.5t-2.5 15.5q0 2 2 4l91 68q1 1 5 1h32q2 0 2 -2l-57 -404q0 -2 -2 -2z" />
<glyph unicode="&#x2082;" horiz-adv-x="300" d="M213 0h-211l-2 1l5 38q0 1 2 3l28 28q46 46 68.5 69t52 55t42.5 52.5t15 34.5l6 39q5 34 -13.5 44t-53.5 10q-17 0 -38.5 -3.5t-34 -6.5t-13.5 -4q-3 0 -3 2t-2 14.5t-2 13.5q0 2 1 3q36 18 97 18q50 0 79 -18.5t22 -70.5l-6 -42q-3 -19 -16.5 -42t-46 -59.5t-55.5 -60 t-76 -76.5l-1 -5h161q3 0 3 -2l-5 -33q0 -2 -3 -2z" />
<glyph unicode="&#x2083;" horiz-adv-x="304" d="M9 14q-1 1 -1 3q11 22 11 29q0 1 5 1l6 -1q5 -2 13.5 -4t19.5 -3.5t24 -3t25 -1.5q22 0 36 2t29.5 14.5t19.5 36.5l6 40q3 20 -2.5 34t-16.5 19.5t-20 7.5t-18 2h-40q-3 0 -3 2l4 31q0 2 4 2h40q22 0 42 14.5t23 41.5l5 40q2 18 -2.5 29.5t-16 16t-21.5 6t-25 1.5 q-18 0 -40 -3t-34.5 -6t-13.5 -4q-3 -1 -3 1t-2 15t-2 14q0 2 1 3t12 5t35.5 8t50.5 4q110 0 99 -88l-5 -41q-3 -21 -12.5 -38t-17.5 -24l-9 -7l-1 -4q4 -2 9.5 -7t13.5 -26t4 -49l-6 -42q-13 -88 -128 -88q-26 0 -50.5 4t-36.5 9z" />
<glyph unicode="&#x2084;" horiz-adv-x="305" d="M183 0h-31q-3 0 -3 2l11 78h-154q-2 0 -2 1l5 37q0 2 2 4q1 1 78.5 141.5t78.5 142.5q2 2 3 2h36q1 0 1 -2l-155 -284l-1 -5h113l12 86q0 2 3 2h32q2 0 2 -2l-12 -86h46q3 0 3 -3l-5 -32q0 -2 -3 -2h-46l-11 -78q0 -2 -3 -2z" />
<glyph unicode="&#x2085;" horiz-adv-x="305" d="M109 -3q-63 0 -97 17q-2 2 -1 3q9 21 10 28q0 2 5 2l6 -1q5 -2 14.5 -4t20 -3.5t24 -3t24.5 -1.5q77 0 84 52l6 41q11 69 -57 69h-101q-1 0 -1 2l29 205q0 5 5 5h184q2 0 2 -2l-4 -31q0 -3 -3 -3h-153l-20 -141h68q19 0 33 -3t30.5 -12t23.5 -31.5t2 -56.5l-6 -43 q-12 -88 -128 -88z" />
<glyph unicode="&#x2086;" horiz-adv-x="299" d="M116 32q34 0 56.5 15.5t27.5 63.5l2 20q5 44 -11 60t-51 16l-75 -14l-15 -106q-4 -28 15 -41.5t51 -13.5zM112 -3q-18 0 -34.5 3t-34.5 11.5t-27 27.5t-5 46l33 234q13 92 125 92q17 0 32 -2t25.5 -4.5t18 -4.5t11.5 -4l5 -2q1 0 1 -2q0 -1 -6 -15l-5 -14q0 -2 -3 -2 l-5 1q-5 2 -13.5 4t-18.5 3.5t-22.5 3t-23.5 1.5q-74 0 -82 -56l-13 -90q55 15 79 15q21 0 35 -2.5t31 -12t23.5 -33t1.5 -60.5l-4 -27q-6 -37 -20 -61.5t-34 -34t-35 -12.5t-35 -3z" />
<glyph unicode="&#x2087;" horiz-adv-x="298" d="M75 0h-37q-2 0 -1 2l189 364l1 5h-170q-2 0 -2 2l5 32q0 3 2 3h211q2 0 2 -2l-5 -35v-3l-1 -1q0 -1 -95 -182.5t-96 -182.5q0 -2 -3 -2z" />
<glyph unicode="&#x2088;" horiz-adv-x="305" d="M117 32q38 0 58 13.5t25 55.5l3 25q5 41 -11.5 55.5t-49.5 14.5q-77 0 -85 -70l-3 -25q-5 -41 11 -55t52 -14zM145 232q71 0 78 58l3 25q7 61 -58 61q-70 0 -80 -61l-4 -25q-5 -31 12.5 -44.5t48.5 -13.5zM112 -4q-25 0 -42.5 3.5t-33 13.5t-21 31.5t-0.5 53.5l5 31 q4 28 18 49t26 28l12 7v2q-4 2 -10 6.5t-14 23t-5 41.5l4 31q13 94 123 94q102 0 89 -94l-4 -31q-3 -22 -15 -39.5t-22 -24.5l-10 -6v-2q4 -2 10 -7t15 -27t5 -51l-4 -31q-8 -62 -40.5 -82t-85.5 -20z" />
<glyph unicode="&#x2089;" horiz-adv-x="304" d="M164 376q-35 0 -56 -15t-28 -64l-4 -29q-6 -43 10 -59.5t51 -16.5q8 0 27.5 4t34.5 8l15 3l16 114q4 29 -15 42t-51 13zM167 411q18 0 34.5 -3t35 -11.5t27.5 -27t5 -45.5l-33 -235q-13 -92 -126 -92q-26 0 -49.5 3.5t-33.5 7t-11 4.5q-2 2 -1 4q1 1 6.5 14t5.5 14t3 1 l5 -1q5 -1 14 -2.5t19 -3.5t23 -3t24 -1q75 0 83 56l11 81q-55 -14 -81 -14q-20 0 -34 2.5t-31 12t-23.5 33t-1.5 59.5l5 36q5 38 19 62t34.5 34t35.5 12.5t35 2.5z" />
<glyph unicode="&#x20ac;" horiz-adv-x="535" d="M287 -7q-31 0 -54 2t-47.5 8.5t-39.5 18.5t-30.5 31.5t-19.5 47.5t-7 67t7 90h-53q-3 0 -3 4l6 39q0 4 3 4h53l11 76h-53q-2 0 -2 4l5 39q1 4 4 4h53q21 150 82.5 204.5t181.5 54.5q17 0 34 -1t30.5 -3t26 -4t22.5 -4.5t18.5 -5t15 -5t10.5 -4t7 -2.5l3 -2q3 -3 1 -6 l-21 -38q-2 -3 -6 -2q-3 2 -21.5 6.5t-55.5 10.5t-71 6q-92 0 -137 -43t-62 -162h185q3 0 3 -4l-5 -39q0 -4 -5 -4h-185l-11 -76h185q4 0 4 -4l-6 -39q0 -4 -4 -4h-185q-18 -126 16.5 -168.5t122.5 -42.5q38 0 80.5 8t62 14.5t24.5 8.5q4 2 5 -2l10 -37q2 -3 -2 -6l-5 -3 q-5 -2 -13 -5.5t-19.5 -7.5t-27 -8.5t-33.5 -8t-41 -5.5t-47 -2z" />
<glyph unicode="&#x2122;" horiz-adv-x="777" d="M394 291l54 387q0 2 2 2h57q3 0 3 -1l63 -239h5q125 237 126 238q1 2 3 2h57q1 0 1 -2l-54 -387q0 -2 -3 -2h-44q-1 0 -1 2l40 285h-7q-109 -202 -109 -203q0 -3 -3 -3h-39q-4 0 -4 3l-51 203h-8l-40 -285q0 -2 -3 -2h-44q-1 1 -1 2zM161 291l48 344h-103q-3 0 -3 2l6 41 q0 2 3 2h255q2 0 2 -2l-6 -41q0 -2 -2 -2h-104l-48 -344q0 -2 -3 -2h-44q-1 0 -1 2z" />
<glyph unicode="&#x2190;" horiz-adv-x="691" d="M150 315h482q3 0 3 -4l-6 -42q0 -4 -4 -4h-482l178 -207q3 -3 -2 -6l-33 -29q-3 -3 -6 0l-227 264q-3 3 1 6l302 265q3 3 4 0l27 -30q1 -3 -1 -5z" />
<glyph unicode="&#x2191;" horiz-adv-x="659" d="M383 486l-68 -482q0 -4 -5 -4h-42q-3 0 -3 4l68 482l-236 -207q-4 -4 -6 0l-25 30q-3 3 1 5l301 265q3 3 6 0l227 -265q3 -2 0 -5l-34 -30q-3 -3 -6 0z" />
<glyph unicode="&#x2192;" horiz-adv-x="691" d="M544 266h-482q-4 0 -4 4l6 42q0 4 5 4h482l-178 207q-3 3 0 6l35 29q3 3 4 0l229 -264q2 -3 -1 -6l-302 -265q-3 -3 -6 0l-25 30q-3 3 0 5z" />
<glyph unicode="&#x2193;" horiz-adv-x="659" d="M278 94l68 482q0 4 5 4h42q3 0 3 -4l-68 -482l236 207q4 4 6 0l25 -30q3 -3 -1 -5l-301 -265q-3 -3 -6 0l-227 265q-3 3 1 5l33 30q3 3 6 0z" />
<glyph unicode="&#x2194;" horiz-adv-x="878" d="M280 22l-227 265q-3 3 1 6l302 265q3 3 6 0l25 -30q3 -2 -1 -6l-236 -207h588l-178 207q-3 3 1 6l34 30q4 4 6 0q1 -1 114 -132.5t113 -132.5q2 -3 -2 -6l-301 -265q-3 -3 -6 0l-25 30q-2 2 1 6l236 207h-588l178 -207q3 -3 -2 -6l-33 -30q-3 -3 -6 0z" />
<glyph unicode="&#x2195;" horiz-adv-x="659" d="M87 462q1 1 151 133l150 132q3 3 6 0l228 -265q2 -2 -1 -5l-34 -30q-3 -3 -5 0l-179 207l-83 -588q236 205 238 207q2 3 5 0l25 -30q3 -3 -1 -5l-302 -265q-3 -3 -5 0l-227 265q-3 3 1 5l33 30q3 3 6 0l178 -207l82 588l-236 -207q-3 -3 -6 0l-25 30q-2 2 1 5z" />
<glyph unicode="&#x2196;" horiz-adv-x="539" d="M464 121q2 -3 -1 -6l-34 -29q-4 -4 -6 0l-293 341l-41 -293q0 -4 -5 -4h-42q-4 0 -4 4l53 374q0 4 5 4h375q3 0 3 -4l-6 -42q0 -4 -4 -4h-294z" />
<glyph unicode="&#x2197;" horiz-adv-x="538" d="M59 85q-5 -3 -6 0l-25 30q-2 3 1 6l388 341h-293q-3 0 -3 4l6 42q0 4 5 4h374q3 0 3 -4l-53 -375q0 -4 -4 -4h-42q-5 0 -4 4l41 294z" />
<glyph unicode="&#x2198;" horiz-adv-x="539" d="M79 475q-3 3 0 6l35 29q4 4 6 0l293 -341l41 293q0 4 4 4h42q5 0 4 -4l-53 -374q0 -4 -4 -4h-375q-4 0 -4 4l6 42q0 4 5 4h294z" />
<glyph unicode="&#x2199;" horiz-adv-x="538" d="M483 511q3 3 6 0l25 -30q2 -3 -1 -6l-389 -341h293q4 0 3 -4l-6 -42q0 -4 -4 -4h-374q-4 0 -4 4l53 375q0 4 5 4h42q4 0 3 -4l-41 -294z" />
<glyph unicode="&#x2212;" horiz-adv-x="356" d="M46 250q-3 0 -3 4l6 42q0 4 4 4h255q4 0 4 -4l-6 -42q0 -4 -5 -4h-255z" />
<glyph unicode="&#x221a;" horiz-adv-x="877" d="M61 274l34 30q3 2 5 0l183 -214l534 468q3 3 6 0l26 -30q3 -3 0 -6l-572 -500q-3 -3 -6 0q-1 1 -53.5 62.5t-104.5 122.5t-53 61q-2 2 1 6z" />
<glyph unicode="&#x2248;" horiz-adv-x="506" d="M51 181q2 6 6 10t18.5 13.5t40 20.5t46.5 11q31 0 79.5 -29t76.5 -29q21 0 44.5 11t39 22.5t17.5 11.5q4 0 4 -4l-5 -31q0 -6 -4 -10q-6 -6 -17.5 -14.5t-38 -20t-51.5 -11.5q-30 0 -78 29.5t-76 29.5q-18 0 -42 -11t-41.5 -22.5t-19.5 -11.5q-4 0 -3 5zM78 371q2 7 6 10 q1 3 17 13t41.5 20.5t46.5 10.5q31 0 79.5 -29t76.5 -29q21 0 44.5 11.5t39 23t17.5 11.5q4 0 4 -4l-5 -32q0 -6 -4 -10q-5 -5 -17 -14t-39 -20t-52 -11q-30 0 -77.5 29.5t-75.5 29.5q-18 0 -42.5 -11.5t-42 -23t-19.5 -11.5q-4 0 -2 6z" />
<glyph unicode="&#x2260;" horiz-adv-x="507" d="M73 42q-5 0 -2 4l73 109h-96q-4 0 -4 3l6 43q0 4 5 4h123l96 143h-199q-4 0 -4 4l6 42q0 4 5 4h227l72 108q3 4 6 4h42q4 0 1 -4l-72 -108h97q4 0 3 -4l-5 -42q-1 -4 -5 -4h-125l-95 -143h200q3 0 3 -4l-6 -42q0 -4 -4 -4h-227q-71 -106 -73 -109q-3 -4 -7 -4h-41z" />
<glyph unicode="&#x2264;" horiz-adv-x="507" d="M417 127q-4 1 -176 79t-175 80q-4 1 -4 4l6 39q0 3 5 4l396 159q2 1 3 0.5t0 -3.5l-6 -46q0 -2 -5 -5l-317 -126v-6q278 -123 281 -125q3 -1 3 -6l-6 -45q-1 -4 -5 -3zM26 0q-4 0 -4 4l6 42q0 4 5 4h374q3 0 3 -4l-6 -42q0 -4 -4 -4h-374z" />
<glyph unicode="&#x2265;" horiz-adv-x="507" d="M44 127q-4 -1 -4 3l6 45q2 5 5 6l318 125l1 6q-280 124 -283 126t-3 5l6 46q1 5 5 3l352 -159q3 -1 3 -4l-6 -39q0 -3 -4 -4q-2 -1 -196.5 -79.5t-199.5 -79.5zM400 0h-374q-4 0 -4 4l6 42q0 4 5 4h374q3 0 3 -4l-6 -42q0 -4 -4 -4z" />
<glyph unicode="&#x25b2;" horiz-adv-x="720" d="M695 248l-8 -58q-2 -5 -4 -3l-298 239h-9q-365 -238 -367 -240q-1 -1 -2 1q-1 1 -1 2l9 59q0 2 4 5l91 59q90 59 179.5 118t91.5 60q9 5 15 0l297 -237q2 -1 2 -5z" />
<glyph unicode="&#x25ba;" horiz-adv-x="488" d="M103 0h-58q-5 0 -2 3l285 332l1 9q-191 331 -193 333q1 2 4 3h59q1 0 4 -4q1 -2 95.5 -164t95.5 -164q4 -7 -3 -16l-282 -329q-3 -3 -6 -3z" />
<glyph unicode="&#x25bc;" horiz-adv-x="720" d="M40 431l9 58q0 2 0.5 3t2.5 0l298 -239h9q365 238 367 240q1 1 2 -1l1 -2l-9 -59q0 -2 -4 -5l-90 -59q-91 -59 -180.5 -118t-91.5 -60q-9 -5 -15 0l-296 237q-3 2 -3 5z" />
<glyph unicode="&#x25c4;" horiz-adv-x="488" d="M401 680h58q5 0 2 -3l-286 -332l-1 -9q191 -331 193 -333q3 -3 -3 -3h-59q-2 0 -5 4q-1 2 -95 164t-95 164q-5 8 2 16l283 329q1 3 6 3z" />
<glyph unicode="&#x25fc;" horiz-adv-x="475" d="M0 475h475v-475h-475v475z" />
<glyph horiz-adv-x="510" />
<glyph horiz-adv-x="510" d="M220 44q39 0 63.5 6t50 24.5t41 58t24.5 101.5l31 217q4 42 5.5 71.5t-7.5 50t-18.5 33t-28 19.5t-35.5 9t-42 2q-37 0 -61.5 -6t-49.5 -24t-41 -56.5t-25 -98.5l-31 -217q-8 -37 -5.5 -65.5t5 -49t13.5 -34t20.5 -22t26.5 -12.5t30.5 -5.5t33.5 -1.5zM213 -10 q-19 0 -32.5 0.5t-32 3t-31.5 7t-28 13t-24.5 20.5t-18 30.5t-12 41t-3 54t5.5 68.5l33 230q9 63 27.5 107.5t40 68.5t53.5 37t57.5 16t62.5 3q20 0 33 -0.5t31.5 -3t31.5 -6.5t28 -12.5t24.5 -20t18.5 -29.5t12.5 -40t3.5 -52.5t-5 -67.5l-33 -230q-10 -67 -29.5 -113.5 t-41 -70.5t-55 -36.5t-56.5 -15t-61 -2.5z" />
<glyph horiz-adv-x="510" d="M265 0h-46q-5 0 -4 4l85 607q-136 -99 -138 -100q-3 -3 -3 1q0 2 -3 23t-3 23q0 3 3 6l151 114q2 2 7 2h46q4 0 4 -4l-95 -672q0 -4 -4 -4z" />
<glyph horiz-adv-x="510" d="M384 0h-349q-3 0 -3 2l8 57q0 2 2 4q205 206 249 254q96 107 102 152l10 74q4 31 -3.5 51t-27 28.5t-38 11t-47.5 2.5t-65 -5t-56.5 -9.5t-22.5 -5.5q-6 -2 -6 3q0 2 -2 19.5t-2 19.5q0 4 3 5q4 2 20.5 8t56 12.5t82.5 6.5q37 0 65.5 -5t55.5 -19.5t39 -45t5 -76.5 l-11 -75q-10 -70 -157 -227q-42 -46 -174 -180l-1 -8h275q2 0 2 -4l-6 -46q-1 -4 -4 -4z" />
<glyph horiz-adv-x="510" d="M44 16q-4 2 -2 5q2 2 8.5 20.5t6.5 20.5t6 2q4 -1 24 -5.5t57.5 -9.5t67.5 -5q22 0 36.5 1t35.5 6t34.5 14.5t25.5 27.5t15 44l10 74q5 35 -4.5 59t-29 33.5t-34.5 13t-31 3.5h-65q-3 0 -3 4l6 44q0 4 5 4h65q39 0 72.5 24.5t40.5 72.5l11 74q5 32 -3.5 52t-28.5 28 t-37.5 10.5t-44.5 2.5q-30 0 -66.5 -5t-57 -9.5t-22.5 -5.5q-6 -2 -6 3q0 3 -1.5 21t-1.5 19q0 3 3 5q5 2 20 7t55 12t83 7q25 0 44 -1.5t46 -10t43.5 -23t26.5 -43t4 -68.5l-11 -74q-5 -36 -21.5 -65t-29.5 -40l-14 -11l-1 -6q2 -1 6 -4t14 -14t15 -25.5t10.5 -39.5 t-1.5 -55l-11 -74q-5 -33 -17.5 -58.5t-31 -41t-38 -25.5t-44 -14t-41.5 -5.5t-38 -1.5q-43 0 -83 6.5t-59 13.5z" />
<glyph horiz-adv-x="510" d="M332 0h-46q-5 0 -5 4l19 132h-262q-2 0 -2 3l8 55q0 1 1.5 2.5t1.5 2.5q1 2 132.5 238.5t132.5 238.5q2 4 5 4h51q4 0 2 -4l-263 -478l-2 -8h202l21 147q0 4 5 4h47q3 0 3 -4l-21 -147h75q4 0 4 -4l-7 -46q0 -4 -4 -4h-75l-19 -132q0 -4 -4 -4z" />
<glyph horiz-adv-x="510" d="M208 -10q-82 0 -160 26q-3 2 -2 5l14 40q1 2 7 2l9 -2q10 -2 25.5 -4.5t34 -5.5t40.5 -5t40 -2q27 0 45.5 2.5t42.5 10.5t39 27.5t19 50.5l10 75q9 65 -15.5 92.5t-78.5 27.5h-169q-4 0 -4 4l48 338q0 8 10 8h301q3 0 3 -4l-6 -44q0 -4 -4 -4h-257l-35 -246h120 q14 0 25 -0.5t27 -3.5t27 -8t25 -13.5t21 -21t15 -30.5t7 -41.5t-3 -53.5l-11 -75q-21 -145 -210 -145z" />
<glyph horiz-adv-x="510" d="M223 42q58 0 94.5 26.5t49.5 109.5l6 39q11 76 -17.5 104.5t-90.5 28.5q-14 0 -46.5 -6t-58.5 -12l-25 -7l-27 -187q-7 -50 26.5 -73t88.5 -23zM218 -10q-23 0 -44.5 2.5t-47.5 11.5t-43.5 24t-27 42.5t-4.5 63.5l57 406q5 37 21.5 64.5t37 43.5t48 26t51 13t48.5 3 q99 0 151 -26q3 -1 1 -5q0 -1 -4 -11l-8 -20l-3 -9q0 -2 -4 -2q-1 0 -9.5 2t-22.5 4.5t-31 5.5t-38 5t-39 2q-60 0 -97 -20.5t-45 -77.5l-23 -161q94 25 136 25q13 0 22 -0.5t22.5 -1.5t23 -4t22 -7.5t20 -11t18 -16.5t14 -23t9 -29.5t3 -37.5t-3.5 -47l-7 -50 q-7 -50 -25 -86.5t-38 -54.5t-48.5 -28.5t-47.5 -12.5t-44 -2z" />
<glyph horiz-adv-x="510" d="M153 0h-53q-4 0 -1 4l318 613l1 8h-286q-3 0 -3 4l7 46q0 5 4 5h346q2 0 2 -3l-7 -53q0 -1 -1.5 -3t-1.5 -3t-32.5 -64t-79.5 -153t-93.5 -180t-79.5 -153l-33 -64q-3 -4 -7 -4z" />
<glyph horiz-adv-x="510" d="M219 41q64 0 98.5 24t44.5 96l7 49q10 71 -18 96t-87 25q-61 0 -99.5 -25.5t-48.5 -95.5l-7 -49q-10 -71 17.5 -95.5t92.5 -24.5zM267 383q120 0 134 101l7 49q15 105 -101 105q-51 0 -90.5 -24t-47.5 -81l-7 -49q-8 -55 21 -78t84 -23zM211 -11q-41 0 -69 6t-53 22.5 t-33.5 51t-1.5 87.5l8 58q4 30 15 56t24 41t25.5 26t20.5 15l8 4v3q-2 1 -6.5 4t-14 13t-16.5 22.5t-11 34t-1 46.5l8 57q7 47 29 79.5t53.5 47.5t60 21t60.5 6q168 0 146 -154l-8 -57q-3 -24 -12.5 -45t-21 -34t-22 -22.5t-17.5 -13.5l-7 -4v-3q1 -1 3.5 -2.5t9 -7 t11.5 -12.5t12.5 -18.5t10.5 -26t5 -34t-2 -42.5l-8 -58q-8 -55 -27 -90t-49.5 -51t-59.5 -21t-70 -5z" />
<glyph horiz-adv-x="510" d="M300 638q-28 0 -48 -4t-41.5 -17t-35.5 -42t-20 -73l-7 -54q-10 -76 17.5 -104.5t89.5 -28.5q14 0 47 6.5t59 12.5l26 7l28 201q7 50 -26.5 73t-88.5 23zM305 690q23 0 44.5 -2.5t47.5 -11.5t43.5 -24t27 -42t4.5 -63l-57 -406q-6 -46 -28 -77.5t-54.5 -46.5t-62 -21 t-62.5 -6q-43 0 -81.5 6t-53 10.5t-18.5 6.5q-5 2 -2 6q15 30 15 40q0 2 5 2q4 -1 23 -5t55 -8t65 -4q130 0 143 98l20 146q-93 -25 -136 -25q-12 0 -21 0.5t-23 1.5t-23 4t-22 7.5t-21 11t-18 16.5t-14 23t-9 29.5t-3 37.5t3 47l9 65q7 51 25 87t38.5 54.5t49 28.5t47.5 12 t44 2z" />
<glyph horiz-adv-x="510" d="M199 100q-4 0 -3 4l10 74q1 4 5 4h62q2 0 2 -4l-10 -74q-1 -4 -4 -4h-62zM255 495q-4 0 -4 4l11 74q0 4 4 4h62q3 0 2 -4l-10 -74q-1 -4 -3 -4h-62z" />
<glyph horiz-adv-x="392" d="M75 126q-4 4 0 6l39 35q3 3 5 0l136 -166q3 -3 -1 -6l-38 -34q-3 -3 -6 0z" />
<glyph horiz-adv-x="383" d="M279 437q-4 0 -2 4l43 67q2 4 7 4h38q4 0 1 -4l-43 -67q-3 -4 -6 -4h-38zM3 -34q-4 0 -1 4l38 61q3 4 8 4h38q3 0 0 -4l-40 -62q-2 -3 -5 -3h-38z" />
<glyph horiz-adv-x="528" d="M415 613q-5 0 -2 4l66 99q3 4 7 4h43q4 0 1 -4l-66 -99q-3 -4 -6 -4h-43zM5 -40q-3 0 0 4l59 93q3 4 6 4h44q4 0 1 -4l-60 -93q-2 -4 -6 -4h-44z" />
<glyph horiz-adv-x="1115" d="M239 -10q-20 0 -39.5 1t-35.5 3t-30.5 4.5t-26.5 5.5t-22 6t-17.5 5.5t-12.5 4.5t-9 4l-3 1q-4 2 -2 5q1 2 10.5 21.5t10.5 20.5q2 3 5 2q5 -2 26 -8.5t66.5 -14.5t89.5 -8q37 0 62 3t52 13t43.5 32t21.5 57l10 69q7 49 -28 70.5t-113 27.5q-126 10 -164.5 45.5 t-27.5 113.5l10 70q21 146 224 146q52 0 95 -7t59 -13t19 -9q4 -2 2 -5l-22 -39q-2 -4 -5 -2q-63 21 -156 21q-32 0 -56 -3.5t-47.5 -12.5t-38 -28.5t-18.5 -48.5l-9 -69q-7 -49 25 -71.5t112 -29.5q122 -10 164 -43t32 -113l-9 -71q-7 -51 -31 -84.5t-63 -48t-72.5 -19 t-80.5 -4.5zM773 -10q-20 0 -39.5 1t-35.5 3t-30.5 4.5t-26.5 5.5t-22 6t-17.5 5.5t-12.5 4.5t-9 4l-3 1q-4 2 -2 5q1 2 10.5 21.5t10.5 20.5q2 3 5 2q5 -2 26 -8.5t66.5 -14.5t89.5 -8q37 0 62 3t52 13t43.5 32t21.5 57l10 69q7 49 -28 70.5t-113 27.5q-126 10 -164.5 45.5 t-27.5 113.5l10 70q21 146 224 146q52 0 95 -7t59 -13t19 -9q4 -2 2 -5l-22 -39q-2 -4 -5 -2q-63 21 -156 21q-32 0 -56 -3.5t-47.5 -12.5t-38 -28.5t-18.5 -48.5l-9 -69q-7 -49 25 -71.5t112 -29.5q122 -10 164 -43t32 -113l-9 -71q-7 -51 -31 -84.5t-63 -48t-72.5 -19 t-80.5 -4.5z" />
<glyph horiz-adv-x="458" d="M113 169h201l-53 288h-14zM32 0h-51q-3 0 -2 3q3 6 128.5 271.5t125.5 266.5q0 3 3 3h60q2 0 4 -2q0 -2 49 -270t50 -269q1 -3 -2 -3h-50q-3 0 -4 3l-21 116h-232q-53 -114 -54 -116q-2 -3 -4 -3z" />
<glyph horiz-adv-x="457" d="M89 49h125q22 0 39 2.5t35 10t29 23.5t14 41l6 48q3 26 -5.5 43t-26 24t-32 9.5t-32.5 2.5h-123zM124 301h121q38 0 54 -4q49 71 49 123q0 26 -6.5 42t-21 22.5t-27 8.5t-35.5 2h-106zM206 0h-178l76 544h164q29 0 48 -3t42 -13t34.5 -34.5t11.5 -63.5q0 -26 -8 -51.5 t-17.5 -43t-31.5 -53.5q56 -28 45 -107l-7 -49q-5 -35 -18 -59.5t-28.5 -37.5t-40.5 -19.5t-43.5 -8t-48.5 -1.5z" />
<glyph horiz-adv-x="424" d="M192 -4q-19 0 -33.5 1t-32.5 4t-30 9t-26 15.5t-21 23.5t-14.5 34t-5.5 46t4 59l24 173q7 50 23.5 85.5t36 55t48 30.5t51 13.5t54.5 2.5q81 0 133 -26q2 -1 1 -4q0 -1 -5.5 -10.5t-10.5 -18.5l-5 -9q-2 -4 -5 -2q-1 1 -16.5 5.5t-44.5 9t-55 4.5q-28 0 -47.5 -4 t-43 -16.5t-39 -43t-21.5 -78.5l-22 -162q-12 -88 17.5 -116.5t92.5 -28.5q29 0 61.5 6.5t48.5 11.5t20 7q2 1 4 -2q1 -2 6.5 -19t4.5 -18q1 -2 -2 -4q-68 -34 -150 -34z" />
<glyph horiz-adv-x="472" d="M89 51h115q67 0 103 27.5t48 115.5l23 160q2 33 3 56t-9 38.5t-18 24.5t-25.5 13.5t-30 5.5t-32.5 1h-115zM197 0h-169l76 544h169q15 0 24.5 -0.5t24.5 -1.5t25 -3.5t23.5 -7t22 -11.5t18 -17t14.5 -23.5t9 -30.5t4 -39.5t-4 -49.5l-24 -171q-7 -53 -24.5 -90t-36 -56 t-48.5 -29t-50.5 -12t-53.5 -2z" />
<glyph horiz-adv-x="423" d="M28 0l76 544h312q4 0 4 -3l-6 -45q0 -3 -5 -3h-258l-27 -191h223q3 0 3 -3l-6 -45q0 -3 -4 -3h-223l-28 -200h258q4 0 4 -3l-7 -45q0 -3 -4 -3h-312z" />
<glyph horiz-adv-x="419" d="M30 0q-2 1 -2 3l76 541h312q4 0 4 -3l-6 -45q0 -3 -5 -3h-258l-30 -217h223q2 0 2 -3l-6 -45q0 -3 -4 -3h-223l-31 -222q0 -3 -3 -3h-49z" />
<glyph horiz-adv-x="465" d="M186 -4q-18 0 -32 1t-31.5 4t-29 9t-25 16t-20 24t-13.5 33.5t-5.5 45.5t4.5 59l24 173q7 51 24.5 87.5t37 55.5t48.5 29.5t50 12.5t51 2q41 0 79.5 -6.5t54 -11.5t21.5 -8q2 -1 1 -4l-22 -38q-1 -1 -3 -1l-9 2q-9 2 -23 4.5t-31 5t-37 4.5t-37 2q-27 0 -45.5 -3.5 t-43 -16t-40 -43t-22.5 -79.5l-23 -162q-3 -33 -3.5 -56.5t8 -39.5t17 -26t24 -15t28.5 -6.5t31 -1.5q13 0 45.5 4.5t58.5 9.5l26 4l23 165h-90q-3 0 -3 3l6 43q0 3 4 3h143l-36 -254q-137 -30 -185 -30z" />
<glyph horiz-adv-x="494" d="M30 0q-2 0 -2 3l76 538q0 3 2 3h49q3 0 3 -3l-34 -242h250l34 242q0 3 4 3h48q3 0 3 -3l-76 -538q0 -3 -3 -3h-48q-4 0 -4 3l35 248h-250l-35 -248q0 -3 -3 -3h-49z" />
<glyph horiz-adv-x="190" d="M30 0q-2 0 -2 3l76 538q0 3 2 3h49q3 0 3 -3l-76 -538q0 -3 -3 -3h-49z" />
<glyph horiz-adv-x="358" d="M111 -4q-22 0 -50.5 4t-45.5 7.5t-19 4.5t-1 4l19 40q0 1 4 1l7 -1q7 -1 18 -2.5t23.5 -3t25.5 -2.5t23 -1q22 0 35.5 2t29 9t25 24t13.5 44l58 415q0 3 4 3h49q2 0 1 -3l-58 -416q-5 -35 -17.5 -60.5t-27 -38.5t-37 -20t-39 -8.5t-40.5 -1.5z" />
<glyph horiz-adv-x="440" d="M30 0q-2 1 -2 3l76 538l2 3h49q3 0 3 -3l-34 -240h26q216 237 219 240t6 3h61q4 0 1 -3l-244 -264q180 -272 181 -274q2 -3 0 -3h-62q-5 0 -6 3l-162 248h-27l-35 -248q0 -3 -3 -3h-49z" />
<glyph horiz-adv-x="404" d="M28 0l76 541q0 3 2 3h49q3 0 3 -3l-69 -490h258q4 0 4 -3l-6 -44q0 -4 -5 -4h-312z" />
<glyph horiz-adv-x="580" d="M30 0q-2 1 -2 3l76 539q0 2 2 2h66q3 0 4 -2l98 -351h9q191 348 192 350q1 3 5 3h65q3 0 3 -2l-76 -539q0 -3 -3 -3h-48q-3 0 -3 3l59 419h-13q-168 -304 -169 -306q-1 -3 -4 -3h-49q-4 0 -5 3l-85 305h-11l-59 -418q0 -3 -3 -3h-49z" />
<glyph horiz-adv-x="497" d="M30 0q-3 0 -3 3l76 538q0 3 3 3h66q4 0 5 -3l163 -438h10l62 438q0 3 3 3h49q3 0 3 -3l-76 -538q0 -3 -3 -3h-66q-5 0 -5 3l-163 442h-10l-62 -442q0 -3 -4 -3h-48z" />
<glyph horiz-adv-x="465" d="M199 47q30 0 51 4.5t43 18.5t36.5 45t20.5 78l22 162q12 87 -17.5 114.5t-92.5 27.5q-62 0 -100 -28t-50 -114l-22 -162q-7 -49 -0.5 -80t25.5 -44.5t37.5 -17.5t46.5 -4zM192 -4q-14 0 -24.5 0.5t-25 2t-25 4.5t-23 7.5t-21.5 12.5t-17.5 18t-13.5 24t-8.5 31.5 t-3.5 40.5t4 50l24 174q7 50 23.5 86.5t36 55.5t48 29.5t50.5 13t53 2.5q14 0 24 -0.5t24.5 -1.5t25 -4t23.5 -7.5t22 -12t18 -17.5t14.5 -24t9 -31t3.5 -39.5t-4 -49.5l-24 -174q-7 -53 -25 -90.5t-37.5 -56.5t-49.5 -29.5t-50 -12.5t-51 -2z" />
<glyph horiz-adv-x="447" d="M121 275h124q23 0 39 2.5t35 11t30.5 27t15.5 47.5l6 43q4 29 -2 48t-22 26.5t-31 10t-39 2.5h-126zM79 0h-49q-2 1 -2 3l76 541h178q28 0 45.5 -1.5t41 -8.5t36 -21t19.5 -41t2 -65l-6 -46q-5 -37 -20 -64t-33 -40.5t-44 -21.5t-44 -9.5t-42 -1.5h-124l-31 -221 q0 -3 -3 -3z" />
<glyph horiz-adv-x="459" d="M192 -4q-14 0 -24.5 0.5t-25 2t-25 4.5t-23 7.5t-21.5 12.5t-17.5 18t-13.5 24t-8.5 31.5t-3.5 40.5t4 50l24 174q7 50 23.5 86.5t36 55.5t48 29.5t50.5 13t53 2.5q14 0 24 -0.5t24.5 -1.5t25 -4t23.5 -7.5t22 -12t18 -17.5t14.5 -24t9 -31t3.5 -39.5t-4 -49.5l-24 -174 q-14 -95 -56 -140l36 -43q3 -1 -1 -5l-35 -31q-3 -2 -5 0l-40 46q-38 -18 -112 -18zM232 104q-2 2 0 5l36 32q5 5 5 0l5 -7q5 -6 15.5 -19t19.5 -24q27 35 37 102l22 162q12 87 -17.5 114.5t-92.5 27.5q-62 0 -100 -28t-50 -114l-22 -162q-7 -49 -0.5 -80t25.5 -44.5 t37.5 -17.5t46.5 -4q44 0 70 10z" />
<glyph horiz-adv-x="469" d="M120 274h124q22 0 38.5 2.5t35.5 11t31 27.5t16 48l6 43q4 29 -2 48t-22 26.5t-31 10t-39 2.5h-126zM79 0h-49q-2 1 -2 3l76 541h178q28 0 46 -1.5t41.5 -9t36 -21.5t19 -41t1.5 -65l-6 -44q-15 -106 -107 -130l74 -229q1 -3 -2 -3h-55q-4 0 -5 3l-68 220h-144l-31 -220 q0 -3 -3 -3z" />
<glyph horiz-adv-x="454" d="M185 -4q-101 0 -161 30q-2 1 -1 4q19 38 22 41q2 2 3 1q4 -2 20.5 -7.5t53 -12t72.5 -6.5q38 0 62.5 4t46.5 22.5t27 52.5l7 49q5 37 -22 53t-88 21q-100 8 -131.5 37t-22.5 92l8 53q17 118 182 118q92 0 142 -25q2 -2 1 -4l-21 -38q-2 -3 -4 -2q-3 1 -17 5t-45 8.5 t-62 4.5q-52 0 -84 -14t-38 -56l-7 -48q-5 -37 20 -54.5t87 -22.5q97 -8 132 -35.5t25 -91.5l-8 -53q-6 -41 -25.5 -68t-50.5 -39t-58.5 -15.5t-64.5 -3.5z" />
<glyph horiz-adv-x="404" d="M138 0q-4 0 -4 3l69 490h-155q-3 0 -3 3l7 45q0 3 3 3h365q4 0 4 -3l-7 -45q0 -3 -4 -3h-156l-69 -490q0 -3 -2 -3h-48z" />
<glyph horiz-adv-x="483" d="M183 -4q-92 0 -120.5 49.5t-11.5 170.5l46 325q0 3 3 3h49q2 0 2 -3l-45 -319q-14 -99 1.5 -137t83.5 -38h37q69 0 92.5 37t37.5 138l45 319q0 3 4 3h48q3 0 3 -3l-46 -325q-17 -120 -56 -170t-136 -50h-37z" />
<glyph horiz-adv-x="450" d="M154 0q-2 0 -4 3q1 2 -48 268.5t-50 269.5q-2 3 2 3h51q1 0 3 -3l82 -451h13q209 448 211 451t4 3h50q4 0 2 -3l-253 -538q-1 -3 -4 -3h-59z" />
<glyph horiz-adv-x="631" d="M117 0q-4 0 -4 3t-27.5 270t-28.5 268q-1 3 2 3h51q2 0 4 -3l42 -449h14q141 342 142 344t3 2h44q3 0 4 -2l43 -344h15q168 447 169 449q2 3 4 3h49q5 0 3 -3q-1 -3 -104 -269.5t-103 -268.5q0 -3 -4 -3h-63q-4 0 -4 3l-41 332h-9q-134 -329 -135 -332q-3 -3 -4 -3h-62z " />
<glyph horiz-adv-x="421" d="M-18 0q-4 0 -2 3l200 281q-109 255 -110 257q-2 3 3 3h54q1 0 4 -3l86 -200h3q139 198 141 200q3 3 5 3h55q3 0 2 -3l-182 -257q120 -279 121 -281q2 -3 -3 -3h-55q-4 0 -5 3l-95 225h-4q-157 -223 -158 -225q-3 -3 -4 -3h-56z" />
<glyph horiz-adv-x="400" d="M136 0q-3 0 -3 3l30 216q-112 320 -113 322q-2 3 2 3h54q1 0 4 -3l88 -254h5q158 252 160 254q3 3 4 3h54q3 0 2 -3l-205 -322l-30 -216q0 -3 -3 -3h-49z" />
<glyph horiz-adv-x="414" d="M1 0q-2 0 -2 2l7 51q0 1 1 2t1 2l329 429l1 6h-257q-3 0 -2 4l6 44q0 4 3 4h317q4 0 4 -4l-7 -48q0 -5 -3 -8l-328 -426l-1 -7h266q4 0 4 -3l-7 -45q0 -3 -3 -3h-329z" />
<glyph horiz-adv-x="326" d="M91 480q-1 0 -1 3l8 58l2 3h46q3 0 3 -3l-8 -58q0 -3 -4 -3h-46zM244 480q-2 0 -2 3l8 58q0 3 3 3h45q2 0 2 -3l-8 -58q0 -3 -3 -3h-45z" />
<glyph horiz-adv-x="327" d="M198 448l-52 109q-2 3 1 3h51q4 0 5 -3l39 -108q2 -4 -2 -4h-39z" />
<glyph horiz-adv-x="326" d="M131 445h-38q-4 0 -2 4q12 18 41.5 56.5t38.5 51.5q1 3 6 3h49q4 0 5 -3l50 -109q1 -3 -2 -3h-38q-3 0 -5 4l-38 69h-5q-55 -67 -57 -69q-4 -4 -5 -4z" />
<glyph horiz-adv-x="327" d="M94 476q-2 0 -1 4l4 29q0 4 4 8q28 28 56 28q19 0 43 -15t39 -15q17 0 34.5 14t18.5 14q3 0 3 -3l-4 -29q-2 -7 -5 -10q-28 -28 -57 -28q-19 0 -42.5 15.5t-38.5 15.5q-16 0 -34 -14t-20 -14z" />
<glyph horiz-adv-x="326" d="M291 490h-198q-3 0 -3 3l6 39q0 3 3 3h198q2 0 2 -3l-6 -39q0 -3 -2 -3z" />
<glyph horiz-adv-x="327" d="M175 449q-2 -4 -4 -4h-39q-3 0 -1 4l69 108q2 3 6 3h51q1 0 0 -3z" />
<glyph horiz-adv-x="326" d="M111 -118h-51l-1 4q1 1 34 58t35 61q2 3 6 3h37q3 0 1 -3l-56 -119q-1 -4 -5 -4z" />
<glyph horiz-adv-x="327" d="M188 454q-88 0 -88 75q0 19 5 19h24q4 0 5 -4q4 -31 16 -41t43 -10q28 0 42.5 10.5t27.5 40.5q2 4 6 4h26q3 0 2 -4q-19 -90 -109 -90z" />
<glyph horiz-adv-x="326" d="M163 478q-2 0 -1 3l8 60q0 3 2 3h53q2 0 2 -3l-8 -60q-1 -3 -4 -3h-52z" />
<glyph horiz-adv-x="326" d="M186 461q19 0 30.5 7.5t15.5 30.5l2 10q4 22 -5 29.5t-29 7.5q-21 0 -32.5 -7.5t-15.5 -29.5l-2 -10q-4 -22 6 -30t30 -8zM182 433q-20 0 -33 3.5t-22 18t-6 41.5l2 17q7 61 81 61q14 0 23.5 -2t19.5 -7.5t14 -18.5t2 -33l-2 -17q-5 -39 -26 -51t-53 -12z" />
<glyph horiz-adv-x="325" d="M127 449q-3 -3 -6 -3h-38q-3 0 -1 3l69 108q1 3 6 3h51q2 0 0 -3q-1 -1 -40.5 -54t-40.5 -54zM227 449q-1 -3 -5 -3h-38q-2 0 -2 1q0 5 70 110q2 3 6 3h50q4 0 1 -3q-1 -1 -40.5 -53t-41.5 -55z" />
<glyph horiz-adv-x="327" d="M104 -139q-24 0 -37.5 9t-13.5 34q0 32 18.5 54t55.5 47q3 3 10 3h36q3 0 3.5 -2.5t-2.5 -4.5q-41 -28 -58.5 -46t-17.5 -36q0 -16 20 -16q4 0 9.5 1.5t10.5 3.5l4 3q4 2 5 -1q1 -1 5 -11.5t4 -11.5q2 -5 -2 -8q-24 -18 -50 -18z" />
<glyph horiz-adv-x="326" d="M257 560h40q5 0 2 -4l-90 -108q-3 -3 -4 -3h-37q-4 0 -6 3q-6 13 -27.5 52t-29.5 57q-1 3 1 3h41q2 0 5 -3l38 -70h5q55 68 57 70q3 3 5 3z" />
<glyph horiz-adv-x="458" d="M32 0h-51q-3 0 -2 3q3 6 128.5 271.5t125.5 266.5q0 3 3 3h60q2 0 4 -2q0 -2 49 -270t50 -269q1 -3 -2 -3h-50q-3 0 -4 3l-21 116h-232q-53 -114 -54 -116q-2 -3 -4 -3zM113 169h201l-53 288h-14zM284 608l-51 109q-1 3 1 3h51q3 0 5 -3l38 -108q2 -4 -1 -4h-39 q-1 0 -4 3z" />
<glyph horiz-adv-x="458" d="M32 0h-51q-3 0 -2 3q3 6 128.5 271.5t125.5 266.5q0 3 3 3h60q2 0 4 -2q0 -2 49 -270t50 -269q1 -3 -2 -3h-50q-3 0 -4 3l-21 116h-232q-53 -114 -54 -116q-2 -3 -4 -3zM113 169h201l-53 288h-14zM261 609q-2 -4 -4 -4h-39q-4 0 0 4l69 108q1 3 5 3h51q3 0 1 -3z" />
<glyph horiz-adv-x="458" d="M32 0h-51q-3 0 -2 3q3 6 128.5 271.5t125.5 266.5q0 3 3 3h60q2 0 4 -2q0 -2 49 -270t50 -269q1 -3 -2 -3h-50q-3 0 -4 3l-21 116h-232q-53 -114 -54 -116q-2 -3 -4 -3zM113 169h201l-53 288h-14zM219 605h-38q-4 0 -2 4q12 18 41.5 56t39.5 52q2 3 5 3h49q5 0 6 -3 l49 -109q1 -3 -2 -3h-38q-3 0 -5 4l-38 69h-5q-54 -67 -56 -69q-4 -4 -6 -4z" />
<glyph horiz-adv-x="458" d="M113 169h201l-53 288h-14zM32 0h-51q-3 0 -2 3q3 6 128.5 271.5t125.5 266.5q0 3 3 3h60q2 0 4 -2q0 -2 49 -270t50 -269q1 -3 -2 -3h-50q-3 0 -4 3l-21 116h-232q-53 -114 -54 -116q-2 -3 -4 -3zM182 636q-1 0 -1 4l4 29q0 4 4 8q28 28 56 28q19 0 43 -15t40 -15 q17 0 34.5 14t18.5 14q2 0 2 -3l-4 -29q-2 -8 -4 -10q-28 -28 -57 -28q-19 0 -43 15.5t-39 15.5q-16 0 -34 -14t-20 -14z" />
<glyph horiz-adv-x="458" d="M32 0h-51q-3 0 -2 3q3 6 128.5 271.5t125.5 266.5q0 3 3 3h60q2 0 4 -2q0 -2 49 -270t50 -269q1 -3 -2 -3h-50q-3 0 -4 3l-21 116h-232q-53 -114 -54 -116q-2 -3 -4 -3zM113 169h201l-53 288h-14zM179 640q-2 0 -2 3l8 58l3 3h46q2 0 2 -3l-8 -58q0 -3 -3 -3h-46z M332 640q-3 0 -3 3l8 58q0 3 4 3h45q1 0 1 -3l-8 -58q0 -3 -2 -3h-45z" />
<glyph horiz-adv-x="458" d="M113 169h201l-53 288h-14zM32 0h-51q-3 0 -2 3q3 6 128.5 271.5t125.5 266.5q0 3 3 3h60q2 0 4 -2q0 -2 49 -270t50 -269q1 -3 -2 -3h-50q-3 0 -4 3l-21 116h-232q-53 -114 -54 -116q-2 -3 -4 -3zM275 621q19 0 30.5 7.5t15.5 30.5l2 10q4 22 -5 29.5t-29 7.5 q-21 0 -32.5 -7.5t-15.5 -29.5l-2 -10q-4 -22 6 -30t30 -8zM271 593q-20 0 -33 3.5t-22 18t-6 41.5l2 17q7 61 81 61q14 0 24 -2t20.5 -7.5t14.5 -18.5t1 -33l-3 -17q-7 -39 -27 -51t-52 -12z" />
<glyph horiz-adv-x="424" d="M158 -118h-51q-2 1 0 4l13 22q12 22 27.5 49.5t22.5 39.5q-23 1 -40.5 4t-37 10.5t-30.5 20.5t-22 34t-10.5 51t3.5 71l24 173q7 50 23.5 85.5t36 55t48 30.5t51 13.5t54.5 2.5q81 0 133 -26q2 -1 1 -4q0 -1 -5.5 -10.5t-10.5 -18.5l-5 -9q-2 -4 -5 -2q-1 1 -16.5 5.5 t-44.5 9t-55 4.5q-28 0 -47.5 -4t-43 -16.5t-39 -43t-21.5 -78.5l-22 -162q-12 -88 17.5 -116.5t92.5 -28.5q29 0 61.5 6.5t48.5 11.5t20 7q2 1 4 -2q1 -2 6.5 -19t4.5 -18q1 -2 -2 -4q-59 -30 -126 -33l-52 -111q-1 -4 -6 -4z" />
<glyph horiz-adv-x="423" d="M28 0l76 544h312q4 0 4 -3l-6 -45q0 -3 -5 -3h-258l-27 -191h223q3 0 3 -3l-6 -45q0 -3 -4 -3h-223l-28 -200h258q4 0 4 -3l-7 -45q0 -3 -4 -3h-312zM268 608l-52 109q-2 3 1 3h51q4 0 5 -3l39 -108q2 -4 -2 -4h-39z" />
<glyph horiz-adv-x="423" d="M28 0l76 544h312q4 0 4 -3l-6 -45q0 -3 -5 -3h-258l-27 -191h223q3 0 3 -3l-6 -45q0 -3 -4 -3h-223l-28 -200h258q4 0 4 -3l-7 -45q0 -3 -4 -3h-312zM252 609q-2 -4 -4 -4h-39q-4 0 0 4l69 108q2 3 5 3h51q2 0 1 -3z" />
<glyph horiz-adv-x="423" d="M28 0l76 544h312q4 0 4 -3l-6 -45q0 -3 -5 -3h-258l-27 -191h223q3 0 3 -3l-6 -45q0 -3 -4 -3h-223l-28 -200h258q4 0 4 -3l-7 -45q0 -3 -4 -3h-312zM209 605h-38q-3 0 -1 4q12 18 41.5 56.5t38.5 51.5q2 3 5 3h49q5 0 6 -3l49 -109q1 -3 -2 -3h-38q-3 0 -5 4l-38 69h-5 q-54 -67 -56 -69q-4 -4 -6 -4z" />
<glyph horiz-adv-x="423" d="M28 0l76 544h312q4 0 4 -3l-6 -45q0 -3 -5 -3h-258l-27 -191h223q3 0 3 -3l-6 -45q0 -3 -4 -3h-223l-28 -200h258q4 0 4 -3l-7 -45q0 -3 -4 -3h-312zM168 640q-2 0 -2 3l9 58l2 3h46q2 0 2 -3l-8 -58q0 -3 -3 -3h-46zM321 640q-3 0 -3 3l9 58q0 3 3 3h45q1 0 1 -3l-8 -58 q0 -3 -2 -3h-45z" />
<glyph horiz-adv-x="190" d="M30 0q-2 0 -2 3l76 538q0 3 2 3h49q3 0 3 -3l-76 -538q0 -3 -3 -3h-49zM151 608l-51 109q-2 3 1 3h51q4 0 5 -3l38 -108q2 -4 -1 -4h-39q-1 0 -4 3z" />
<glyph horiz-adv-x="190" d="M30 0q-2 0 -2 3l76 538q0 3 2 3h49q3 0 3 -3l-76 -538q0 -3 -3 -3h-49zM129 609q-4 -4 -5 -4h-39q-3 0 -1 4l69 108q1 3 6 3h51q3 0 0 -3z" />
<glyph horiz-adv-x="190" d="M30 0q-2 0 -2 3l76 538q0 3 2 3h49q3 0 3 -3l-76 -538q0 -3 -3 -3h-49zM85 605h-38q-4 0 -2 4q12 18 41.5 56.5t38.5 51.5q1 3 6 3h49q4 0 5 -3l50 -109q1 -3 -2 -3h-38q-3 0 -5 4l-38 69h-5q-55 -67 -57 -69q-4 -4 -5 -4z" />
<glyph horiz-adv-x="190" d="M30 0q-2 0 -2 3l76 538q0 3 2 3h49q3 0 3 -3l-76 -538q0 -3 -3 -3h-49zM46 640q-2 0 -2 3l9 58l2 3h46q2 0 2 -3l-8 -58q0 -3 -3 -3h-46zM199 640q-3 0 -3 3l9 58q0 3 3 3h45q1 0 1 -3l-8 -58q0 -3 -2 -3h-45z" />
<glyph horiz-adv-x="497" d="M30 0q-3 0 -3 3l76 538q0 3 3 3h66q4 0 5 -3l163 -438h10l62 438q0 3 3 3h49q3 0 3 -3l-76 -538q0 -3 -3 -3h-66q-5 0 -5 3l-163 442h-10l-62 -442q0 -3 -4 -3h-48zM203 636q-1 0 -1 4l4 29q0 4 4 8q28 28 56 28q18 0 43 -15t40 -15q17 0 34.5 14t18.5 14q2 0 2 -3 l-4 -29q-2 -8 -4 -10q-28 -28 -57 -28q-19 0 -43 15.5t-39 15.5q-16 0 -34 -14t-20 -14z" />
<glyph horiz-adv-x="465" d="M192 -4q-14 0 -24.5 0.5t-25 2t-25 4.5t-23 7.5t-21.5 12.5t-17.5 18t-13.5 24t-8.5 31.5t-3.5 40.5t4 50l24 174q7 50 23.5 86.5t36 55.5t48 29.5t50.5 13t53 2.5q14 0 24 -0.5t24.5 -1.5t25 -4t23.5 -7.5t22 -12t18 -17.5t14.5 -24t9 -31t3.5 -39.5t-4 -49.5l-24 -174 q-7 -53 -25 -90.5t-37.5 -56.5t-49.5 -29.5t-50 -12.5t-51 -2zM199 47q30 0 51 4.5t43 18.5t36.5 45t20.5 78l22 162q12 87 -17.5 114.5t-92.5 27.5q-62 0 -100 -28t-50 -114l-22 -162q-7 -49 -0.5 -80t25.5 -44.5t37.5 -17.5t46.5 -4zM289 608l-52 109q-1 3 2 3h51 q2 0 4 -3l39 -108q2 -4 -2 -4h-39z" />
<glyph horiz-adv-x="465" d="M192 -4q-14 0 -24.5 0.5t-25 2t-25 4.5t-23 7.5t-21.5 12.5t-17.5 18t-13.5 24t-8.5 31.5t-3.5 40.5t4 50l24 174q7 50 23.5 86.5t36 55.5t48 29.5t50.5 13t53 2.5q14 0 24 -0.5t24.5 -1.5t25 -4t23.5 -7.5t22 -12t18 -17.5t14.5 -24t9 -31t3.5 -39.5t-4 -49.5l-24 -174 q-7 -53 -25 -90.5t-37.5 -56.5t-49.5 -29.5t-50 -12.5t-51 -2zM199 47q30 0 51 4.5t43 18.5t36.5 45t20.5 78l22 162q12 87 -17.5 114.5t-92.5 27.5q-62 0 -100 -28t-50 -114l-22 -162q-7 -49 -0.5 -80t25.5 -44.5t37.5 -17.5t46.5 -4zM266 609q-2 -4 -5 -4h-39q-2 0 0 4 l69 108q1 3 6 3h51q2 0 0 -3z" />
<glyph horiz-adv-x="465" d="M192 -4q-14 0 -24.5 0.5t-25 2t-25 4.5t-23 7.5t-21.5 12.5t-17.5 18t-13.5 24t-8.5 31.5t-3.5 40.5t4 50l24 174q7 50 23.5 86.5t36 55.5t48 29.5t50.5 13t53 2.5q14 0 24 -0.5t24.5 -1.5t25 -4t23.5 -7.5t22 -12t18 -17.5t14.5 -24t9 -31t3.5 -39.5t-4 -49.5l-24 -174 q-7 -53 -25 -90.5t-37.5 -56.5t-49.5 -29.5t-50 -12.5t-51 -2zM199 47q30 0 51 4.5t43 18.5t36.5 45t20.5 78l22 162q12 87 -17.5 114.5t-92.5 27.5q-62 0 -100 -28t-50 -114l-22 -162q-7 -49 -0.5 -80t25.5 -44.5t37.5 -17.5t46.5 -4zM222 605h-38q-3 0 -1 4 q12 18 41.5 56.5t38.5 51.5q1 3 6 3h49q4 0 5 -3l50 -109q1 -3 -3 -3h-38q-2 0 -4 4l-38 69h-5q-55 -67 -57 -69q-4 -4 -6 -4z" />
<glyph horiz-adv-x="465" d="M199 47q30 0 51 4.5t43 18.5t36.5 45t20.5 78l22 162q12 87 -17.5 114.5t-92.5 27.5q-62 0 -100 -28t-50 -114l-22 -162q-7 -49 -0.5 -80t25.5 -44.5t37.5 -17.5t46.5 -4zM192 -4q-14 0 -24.5 0.5t-25 2t-25 4.5t-23 7.5t-21.5 12.5t-17.5 18t-13.5 24t-8.5 31.5 t-3.5 40.5t4 50l24 174q7 50 23.5 86.5t36 55.5t48 29.5t50.5 13t53 2.5q14 0 24 -0.5t24.5 -1.5t25 -4t23.5 -7.5t22 -12t18 -17.5t14.5 -24t9 -31t3.5 -39.5t-4 -49.5l-24 -174q-7 -53 -25 -90.5t-37.5 -56.5t-49.5 -29.5t-50 -12.5t-51 -2zM187 636q-2 0 -2 4l4 29 q0 3 5 8q28 28 56 28q18 0 42 -15t40 -15q17 0 34.5 14t18.5 14q3 0 3 -3l-4 -29q-2 -7 -5 -10q-28 -28 -57 -28q-19 0 -42.5 15.5t-38.5 15.5q-16 0 -34 -14t-20 -14z" />
<glyph horiz-adv-x="465" d="M192 -4q-14 0 -24.5 0.5t-25 2t-25 4.5t-23 7.5t-21.5 12.5t-17.5 18t-13.5 24t-8.5 31.5t-3.5 40.5t4 50l24 174q7 50 23.5 86.5t36 55.5t48 29.5t50.5 13t53 2.5q14 0 24 -0.5t24.5 -1.5t25 -4t23.5 -7.5t22 -12t18 -17.5t14.5 -24t9 -31t3.5 -39.5t-4 -49.5l-24 -174 q-7 -53 -25 -90.5t-37.5 -56.5t-49.5 -29.5t-50 -12.5t-51 -2zM199 47q30 0 51 4.5t43 18.5t36.5 45t20.5 78l22 162q12 87 -17.5 114.5t-92.5 27.5q-62 0 -100 -28t-50 -114l-22 -162q-7 -49 -0.5 -80t25.5 -44.5t37.5 -17.5t46.5 -4zM183 640q-1 0 -1 3l8 58l2 3h46 q3 0 3 -3l-8 -58q0 -3 -4 -3h-46zM336 640q-2 0 -2 3l8 58q0 3 3 3h45q2 0 2 -3l-8 -58q0 -3 -3 -3h-45z" />
<glyph horiz-adv-x="483" d="M183 -4q-92 0 -120.5 49.5t-11.5 170.5l46 325q0 3 3 3h49q2 0 2 -3l-45 -319q-14 -99 1.5 -137t83.5 -38h37q69 0 92.5 37t37.5 138l45 319q0 3 4 3h48q3 0 3 -3l-46 -325q-17 -120 -56 -170t-136 -50h-37zM298 608l-52 109q-2 3 1 3h51q4 0 5 -3l39 -108q2 -4 -2 -4 h-39z" />
<glyph horiz-adv-x="483" d="M183 -4q-92 0 -120.5 49.5t-11.5 170.5l46 325q0 3 3 3h49q2 0 2 -3l-45 -319q-14 -99 1.5 -137t83.5 -38h37q69 0 92.5 37t37.5 138l45 319q0 3 4 3h48q3 0 3 -3l-46 -325q-17 -120 -56 -170t-136 -50h-37zM274 609q-2 -4 -4 -4h-39q-4 0 0 4l69 108q2 3 5 3h51 q2 0 1 -3z" />
<glyph horiz-adv-x="483" d="M183 -4q-92 0 -120.5 49.5t-11.5 170.5l46 325q0 3 3 3h49q2 0 2 -3l-45 -319q-14 -99 1.5 -137t83.5 -38h37q69 0 92.5 37t37.5 138l45 319q0 3 4 3h48q3 0 3 -3l-46 -325q-17 -120 -56 -170t-136 -50h-37zM231 605h-38q-3 0 -1 4q12 18 41.5 56.5t38.5 51.5q2 3 5 3h49 q5 0 6 -3l49 -109q1 -3 -2 -3h-38q-3 0 -5 4l-38 69h-5q-54 -67 -56 -69q-4 -4 -6 -4z" />
<glyph horiz-adv-x="483" d="M183 -4q-92 0 -120.5 49.5t-11.5 170.5l46 325q0 3 3 3h49q2 0 2 -3l-45 -319q-14 -99 1.5 -137t83.5 -38h37q69 0 92.5 37t37.5 138l45 319q0 3 4 3h48q3 0 3 -3l-46 -325q-17 -120 -56 -170t-136 -50h-37zM193 640q-2 0 -2 3l9 58l2 3h46q2 0 2 -3l-8 -58q0 -3 -3 -3 h-46zM346 640q-3 0 -3 3l9 58q0 3 3 3h45q1 0 1 -3l-8 -58q0 -3 -2 -3h-45z" />
<glyph horiz-adv-x="400" d="M136 0q-3 0 -3 3l30 216q-112 320 -113 322q-2 3 2 3h54q1 0 4 -3l88 -254h5q158 252 160 254q3 3 4 3h54q3 0 2 -3l-205 -322l-30 -216q0 -3 -3 -3h-49zM233 609q-4 -4 -5 -4h-39q-3 0 -1 4l69 108q1 3 6 3h51q3 0 0 -3z" />
<glyph horiz-adv-x="400" d="M136 0q-3 0 -3 3l30 216q-112 320 -113 322q-2 3 2 3h54q1 0 4 -3l88 -254h5q158 252 160 254q3 3 4 3h54q3 0 2 -3l-205 -322l-30 -216q0 -3 -3 -3h-49zM152 640q-2 0 -2 3l8 58l3 3h46q2 0 2 -3l-8 -58q0 -3 -3 -3h-46zM305 640q-3 0 -3 3l8 58q0 3 4 3h45q1 0 1 -3 l-8 -58q0 -3 -2 -3h-45z" />
<glyph horiz-adv-x="465" d="M20 -32q-3 0 0 3l40 63q-41 44 -26 153l24 174q7 50 23.5 86.5t36 55.5t48 29.5t50.5 13t53 2.5q69 0 102 -16q24 37 28 41q3 3 5 3h42q4 0 1 -3q-5 -5 -43 -66q39 -45 25 -146l-24 -174q-7 -53 -25 -90.5t-37.5 -56.5t-49.5 -29.5t-50 -12.5t-51 -2q-64 0 -99 15 q-26 -38 -26 -40q-1 -3 -5 -3h-42zM199 47q30 0 51 4.5t43 18.5t36.5 45t20.5 78l22 162q12 87 -17.5 114.5t-92.5 27.5q-62 0 -100 -28t-50 -114l-23 -162q-7 -49 -0.5 -80t26 -44.5t38 -17.5t46.5 -4z" />
<glyph horiz-adv-x="454" d="M185 -4q-101 0 -161 30q-2 1 -1 4q19 38 22 41q2 2 3 1q4 -2 20.5 -7.5t53 -12t72.5 -6.5q38 0 62.5 4t46.5 22.5t27 52.5l7 49q5 37 -22 53t-88 21q-100 8 -131.5 37t-22.5 92l8 53q17 118 182 118q92 0 142 -25q2 -2 1 -4l-21 -38q-2 -3 -4 -2q-3 1 -17 5t-45 8.5 t-62 4.5q-52 0 -84 -14t-38 -56l-7 -48q-5 -37 20 -54.5t87 -22.5q97 -8 132 -35.5t25 -91.5l-8 -53q-6 -41 -25.5 -68t-50.5 -39t-58.5 -15.5t-64.5 -3.5zM343 721h40q2 0 1 -4l-89 -108q-3 -3 -5 -3h-37q-3 0 -5 3q-7 14 -28.5 52.5t-29.5 56.5q-2 3 2 3h41q1 0 4 -3 l38 -70h5q55 68 57 70q3 3 6 3z" />
<glyph horiz-adv-x="414" d="M1 0q-2 0 -2 2l7 51q0 1 1 2t1 2l329 429l1 6h-257q-3 0 -2 4l6 44q0 4 3 4h317q4 0 4 -4l-7 -48q0 -5 -3 -8l-328 -426l-1 -7h266q4 0 4 -3l-7 -45q0 -3 -3 -3h-329zM322 721h40q3 0 2 -4l-89 -108q-3 -3 -5 -3h-37q-5 0 -6 3q-6 13 -27.5 52t-29.5 57q-2 3 1 3h41 q2 0 5 -3l38 -70h5q55 68 57 70q3 3 5 3z" />
<glyph horiz-adv-x="714" d="M155 169h184l42 299h-14zM33 0h-53q-3 0 -1 3q1 2 192 268t194 269q3 4 4 4h334q3 0 3 -3l-6 -45q0 -3 -4 -3h-257l-27 -191h221q2 0 2 -3l-6 -45q0 -3 -3 -3h-221l-28 -200h257q3 0 3 -3l-7 -45q0 -3 -3 -3h-312l17 119h-212q-81 -114 -83 -116q-3 -3 -4 -3z" />
<glyph horiz-adv-x="717" d="M199 47q28 0 48.5 5t43 20t38 47.5t22.5 81.5l21 146q7 49 0 81.5t-27 46t-38 18t-44 4.5q-28 0 -47.5 -4t-42.5 -17.5t-38 -44t-22 -77.5l-23 -161q-7 -49 -0.5 -80.5t26 -44.5t37.5 -17t46 -4zM192 -4q-21 0 -36.5 1t-36 5.5t-32.5 12.5t-27 22t-19.5 34.5t-9 49.5 t3.5 68l23 170q7 52 24.5 88.5t37 56t48.5 30t50.5 12.5t51.5 2q85 0 123 -48l6 44h313q4 0 4 -3l-6 -45q0 -3 -5 -3h-258l-27 -191h223q3 0 3 -3l-6 -45q0 -3 -4 -3h-223l-28 -200h258q4 0 4 -3l-7 -45q0 -3 -4 -3h-313l6 44q-53 -48 -137 -48z" />
<glyph horiz-adv-x="472" d="M90 51h115q30 0 48.5 3t42 15.5t38.5 43.5t22 80l22 161q7 48 0 78.5t-27.5 42.5t-37.5 15t-46 3h-115l-28 -195h102q3 0 3 -3l-6 -40q0 -3 -3 -3h-102zM189 0h-162l36 252h-37q-3 0 -3 3l6 40q0 3 3 3h37l35 246h162q19 0 33.5 -1t33.5 -3.5t31.5 -8t28 -15t22.5 -23 t15.5 -32.5t7 -44t-3.5 -57l-24 -171q-7 -54 -26.5 -91.5t-39.5 -56t-52.5 -28.5t-51.5 -11.5t-51 -1.5z" />
<glyph horiz-adv-x="447" d="M106 175h124q23 0 39.5 3t35 11.5t30.5 27t16 47.5l5 35q7 54 -18.5 70.5t-75.5 16.5h-126zM79 0h-49q-2 2 -2 3l76 538l2 3h49q3 0 3 -3l-15 -104h124q35 0 56 -3t47.5 -15t36.5 -42t4 -77l-5 -38q-5 -37 -20 -64t-33 -41t-44 -21.5t-44 -9t-42 -1.5h-124l-17 -122 q0 -3 -3 -3z" />
<glyph horiz-adv-x="404" d="M28 0l32 229q-48 -27 -50 -28q-3 -1 -3 2l7 46q0 3 3 5l50 27l37 260q0 3 3 3h48q3 0 3 -3l-32 -228q131 74 132 74q1 1 1.5 0.5t0.5 -2.5l-7 -46q0 -3 -2 -5l-133 -74l-29 -209h259q2 0 2 -3l-6 -45q0 -3 -3 -3h-313z" />
<glyph horiz-adv-x="458" d="M113 169h201l-53 288h-14zM32 0h-51q-3 0 -2 3q3 6 128.5 271.5t125.5 266.5q0 3 3 3h60q2 0 4 -2q0 -2 49 -270t50 -269q1 -3 -2 -3h-50q-3 0 -4 3l-21 116h-232q-53 -114 -54 -116q-2 -3 -4 -3zM379 652h-198q-2 0 -2 3l5 39q0 3 4 3h198q1 0 1 -3l-5 -39q0 -3 -3 -3z " />
<glyph horiz-adv-x="458" d="M113 169h201l-53 288h-14zM32 0h-51q-3 0 -2 3q3 6 128.5 271.5t125.5 266.5q0 3 3 3h60q2 0 4 -2q0 -2 49 -270t50 -269q1 -3 -2 -3h-50q-3 0 -4 3l-21 116h-232q-53 -114 -54 -116q-2 -3 -4 -3zM275 615q-87 0 -87 75q0 19 5 19h24q4 0 5 -4q4 -31 16 -41t43 -10 q28 0 42.5 10.5t27.5 40.5q2 4 6 4h26q3 0 2 -4q-19 -90 -110 -90z" />
<glyph horiz-adv-x="458" d="M325 -139q-24 0 -37.5 9t-13.5 34q0 31 17.5 52.5t51.5 45.5v1l-21 116h-232q-53 -114 -54 -116q-2 -3 -4 -3h-51q-3 0 -2 3q3 6 128.5 271.5t125.5 266.5q0 3 3 3h60q2 0 4 -2q0 -2 49 -270t50 -269q1 -3 -2 -3h-4q-74 -49 -74 -81q0 -16 20 -16l24 8q3 1 4 -1 q0 -1 4.5 -11.5t5.5 -11.5t0.5 -4t-2.5 -4q-24 -18 -50 -18zM113 169h201l-53 288h-14z" />
<glyph horiz-adv-x="424" d="M192 -4q-19 0 -33.5 1t-32.5 4t-30 9t-26 15.5t-21 23.5t-14.5 34t-5.5 46t4 59l24 173q7 50 23.5 85.5t36 55t48 30.5t51 13.5t54.5 2.5q81 0 133 -26q2 -1 1 -4q0 -1 -5.5 -10.5t-10.5 -18.5l-5 -9q-2 -4 -5 -2q-1 1 -16.5 5.5t-44.5 9t-55 4.5q-28 0 -47.5 -4 t-43 -16.5t-39 -43t-21.5 -78.5l-22 -162q-12 -88 17.5 -116.5t92.5 -28.5q29 0 61.5 6.5t48.5 11.5t20 7q2 1 4 -2q1 -2 6.5 -19t4.5 -18q1 -2 -2 -4q-68 -34 -150 -34zM262 611q-2 -4 -4 -4h-39q-4 0 0 4l69 108q2 3 5 3h51q2 0 1 -3z" />
<glyph horiz-adv-x="424" d="M192 -4q-19 0 -33.5 1t-32.5 4t-30 9t-26 15.5t-21 23.5t-14.5 34t-5.5 46t4 59l24 173q7 50 23.5 85.5t36 55t48 30.5t51 13.5t54.5 2.5q81 0 133 -26q2 -1 1 -4q0 -1 -5.5 -10.5t-10.5 -18.5l-5 -9q-2 -4 -5 -2q-1 1 -16.5 5.5t-44.5 9t-55 4.5q-28 0 -47.5 -4 t-43 -16.5t-39 -43t-21.5 -78.5l-22 -162q-12 -88 17.5 -116.5t92.5 -28.5q29 0 61.5 6.5t48.5 11.5t20 7q2 1 4 -2q1 -2 6.5 -19t4.5 -18q1 -2 -2 -4q-68 -34 -150 -34zM219 607h-38q-4 0 -2 4q12 18 41.5 56t39.5 52q2 3 5 3h49q5 0 6 -3l49 -109q1 -3 -2 -3h-38 q-3 0 -5 4l-38 69h-5q-54 -67 -56 -69q-4 -4 -6 -4z" />
<glyph horiz-adv-x="424" d="M192 -4q-19 0 -33.5 1t-32.5 4t-30 9t-26 15.5t-21 23.5t-14.5 34t-5.5 46t4 59l24 173q7 50 23.5 85.5t36 55t48 30.5t51 13.5t54.5 2.5q81 0 133 -26q2 -1 1 -4q0 -1 -5.5 -10.5t-10.5 -18.5l-5 -9q-2 -4 -5 -2q-1 1 -16.5 5.5t-44.5 9t-55 4.5q-28 0 -47.5 -4 t-43 -16.5t-39 -43t-21.5 -78.5l-22 -162q-12 -88 17.5 -116.5t92.5 -28.5q29 0 61.5 6.5t48.5 11.5t20 7q2 1 4 -2q1 -2 6.5 -19t4.5 -18q1 -2 -2 -4q-68 -34 -150 -34zM251 639q-1 0 -1 3l8 60q0 3 3 3h53q1 0 1 -3l-8 -60q-1 -3 -4 -3h-52z" />
<glyph horiz-adv-x="424" d="M192 -4q-19 0 -33.5 1t-32.5 4t-30 9t-26 15.5t-21 23.5t-14.5 34t-5.5 46t4 59l24 173q7 50 23.5 85.5t36 55t48 30.5t51 13.5t54.5 2.5q81 0 133 -26q2 -1 1 -4q0 -1 -5.5 -10.5t-10.5 -18.5l-5 -9q-2 -4 -5 -2q-1 1 -16.5 5.5t-44.5 9t-55 4.5q-28 0 -47.5 -4 t-43 -16.5t-39 -43t-21.5 -78.5l-22 -162q-12 -88 17.5 -116.5t92.5 -28.5q29 0 61.5 6.5t48.5 11.5t20 7q2 1 4 -2q1 -2 6.5 -19t4.5 -18q1 -2 -2 -4q-68 -34 -150 -34zM344 721h40q4 0 1 -4l-89 -108q-3 -3 -4 -3h-37q-5 0 -6 3q-6 13 -27.5 52t-29.5 57q-2 3 1 3h41 q2 0 5 -3l38 -70h5q55 68 57 70q3 3 5 3z" />
<glyph horiz-adv-x="472" d="M89 51h115q67 0 103 27.5t48 115.5l23 160q2 33 3 56t-9 38.5t-18 24.5t-25.5 13.5t-30 5.5t-32.5 1h-115zM197 0h-169l76 544h169q15 0 24.5 -0.5t24.5 -1.5t25 -3.5t23.5 -7t22 -11.5t18 -17t14.5 -23.5t9 -30.5t4 -39.5t-4 -49.5l-24 -171q-7 -53 -24.5 -90t-36 -56 t-48.5 -29t-50.5 -12t-53.5 -2zM350 721h40q5 0 2 -4l-89 -108q-3 -3 -5 -3h-37q-5 0 -6 3q-6 13 -27.5 52t-29.5 57q-2 3 1 3h41q2 0 5 -3l38 -70h5q55 68 57 70q3 3 5 3z" />
<glyph horiz-adv-x="472" d="M90 51h115q30 0 48.5 3t42 15.5t38.5 43.5t22 80l22 161q7 48 0 78.5t-27.5 42.5t-37.5 15t-46 3h-115l-28 -195h102q3 0 3 -3l-6 -40q0 -3 -3 -3h-102zM189 0h-162l36 252h-37q-3 0 -3 3l6 40q0 3 3 3h37l35 246h162q19 0 33.5 -1t33.5 -3.5t31.5 -8t28 -15t22.5 -23 t15.5 -32.5t7 -44t-3.5 -57l-24 -171q-7 -54 -26.5 -91.5t-39.5 -56t-52.5 -28.5t-51.5 -11.5t-51 -1.5z" />
<glyph horiz-adv-x="423" d="M28 0l76 544h312q4 0 4 -3l-6 -45q0 -3 -5 -3h-258l-27 -191h223q3 0 3 -3l-6 -45q0 -3 -4 -3h-223l-28 -200h258q4 0 4 -3l-7 -45q0 -3 -4 -3h-312zM377 652h-198q-3 0 -3 3l6 39q0 3 3 3h198q1 0 1 -3l-5 -39q0 -3 -2 -3z" />
<glyph horiz-adv-x="423" d="M28 0l76 544h312q4 0 4 -3l-6 -45q0 -3 -5 -3h-258l-27 -191h223q3 0 3 -3l-6 -45q0 -3 -4 -3h-223l-28 -200h258q4 0 4 -3l-7 -45q0 -3 -4 -3h-312zM274 615q-87 0 -87 75q0 19 5 19h24q4 0 5 -4q4 -31 16 -41t43 -10q28 0 42.5 10.5t27.5 40.5q2 4 6 4h26q3 0 2 -4 q-19 -90 -110 -90z" />
<glyph horiz-adv-x="423" d="M28 0l76 544h312q4 0 4 -3l-6 -45q0 -3 -5 -3h-258l-27 -191h223q3 0 3 -3l-6 -45q0 -3 -4 -3h-223l-28 -200h258q4 0 4 -3l-7 -45q0 -3 -4 -3h-312zM257 639q-2 0 -2 3l9 60q0 3 2 3h53q2 0 2 -3l-9 -60q0 -3 -3 -3h-52z" />
<glyph horiz-adv-x="423" d="M28 0l76 544h312q4 0 4 -3l-6 -45q0 -3 -5 -3h-258l-27 -191h223q3 0 3 -3l-6 -45q0 -3 -4 -3h-223l-28 -200h258q4 0 4 -3l-7 -45q0 -3 -4 -3h-1q-74 -49 -74 -81q0 -16 20 -16l24 8q3 1 4 -1q0 -1 4.5 -11.5t5.5 -11.5t0.5 -4t-2.5 -4q-24 -18 -50 -18q-24 0 -37.5 9 t-13.5 34q0 52 66 96h-258z" />
<glyph horiz-adv-x="423" d="M28 0l76 544h312q4 0 4 -3l-6 -45q0 -3 -5 -3h-258l-27 -191h223q3 0 3 -3l-6 -45q0 -3 -4 -3h-223l-28 -200h258q4 0 4 -3l-7 -45q0 -3 -4 -3h-312zM343 721h40q3 0 2 -4l-89 -108q-3 -3 -5 -3h-37q-4 0 -6 3q-6 13 -27.5 52t-29.5 57q-1 3 1 3h41q2 0 5 -3l38 -70h5 q55 68 57 70q3 3 5 3z" />
<glyph horiz-adv-x="465" d="M186 -4q-18 0 -32 1t-31.5 4t-29 9t-25 16t-20 24t-13.5 33.5t-5.5 45.5t4.5 59l24 173q7 51 24.5 87.5t37 55.5t48.5 29.5t50 12.5t51 2q41 0 79.5 -6.5t54 -11.5t21.5 -8q2 -1 1 -4l-22 -38q-1 -1 -3 -1l-9 2q-9 2 -23 4.5t-31 5t-37 4.5t-37 2q-27 0 -45.5 -3.5 t-43 -16t-40 -43t-22.5 -79.5l-23 -162q-3 -33 -3.5 -56.5t8 -39.5t17 -26t24 -15t28.5 -6.5t31 -1.5q13 0 45.5 4.5t58.5 9.5l26 4l23 165h-90q-3 0 -3 3l6 43q0 3 4 3h143l-36 -254q-137 -30 -185 -30zM228 607h-38q-4 0 -2 4q12 18 41.5 56.5t38.5 51.5q2 3 6 3h49 q4 0 5 -3l50 -109q2 -3 -2 -3h-38q-3 0 -5 4l-38 69h-5q-55 -67 -57 -69q-4 -4 -5 -4z" />
<glyph horiz-adv-x="465" d="M186 -4q-18 0 -32 1t-31.5 4t-29 9t-25 16t-20 24t-13.5 33.5t-5.5 45.5t4.5 59l24 173q7 51 24.5 87.5t37 55.5t48.5 29.5t50 12.5t51 2q41 0 79.5 -6.5t54 -11.5t21.5 -8q2 -1 1 -4l-22 -38q-1 -1 -3 -1l-9 2q-9 2 -23 4.5t-31 5t-37 4.5t-37 2q-27 0 -45.5 -3.5 t-43 -16t-40 -43t-22.5 -79.5l-23 -162q-3 -33 -3.5 -56.5t8 -39.5t17 -26t24 -15t28.5 -6.5t31 -1.5q13 0 45.5 4.5t58.5 9.5l26 4l23 165h-90q-3 0 -3 3l6 43q0 3 4 3h143l-36 -254q-137 -30 -185 -30zM283 615q-88 0 -88 75q0 19 5 19h24q4 0 5 -4q4 -31 16 -41t43 -10 q28 0 42.5 10.5t27.5 40.5q2 4 6 4h26q3 0 2 -4q-19 -90 -109 -90z" />
<glyph horiz-adv-x="465" d="M186 -4q-18 0 -32 1t-31.5 4t-29 9t-25 16t-20 24t-13.5 33.5t-5.5 45.5t4.5 59l24 173q7 51 24.5 87.5t37 55.5t48.5 29.5t50 12.5t51 2q41 0 79.5 -6.5t54 -11.5t21.5 -8q2 -1 1 -4l-22 -38q-1 -1 -3 -1l-9 2q-9 2 -23 4.5t-31 5t-37 4.5t-37 2q-27 0 -45.5 -3.5 t-43 -16t-40 -43t-22.5 -79.5l-23 -162q-3 -33 -3.5 -56.5t8 -39.5t17 -26t24 -15t28.5 -6.5t31 -1.5q13 0 45.5 4.5t58.5 9.5l26 4l23 165h-90q-3 0 -3 3l6 43q0 3 4 3h143l-36 -254q-137 -30 -185 -30zM256 639q-2 0 -1 3l8 60q0 3 2 3h53q2 0 2 -3l-8 -60q-1 -3 -4 -3 h-52z" />
<glyph horiz-adv-x="494" d="M30 0q-2 0 -2 3l76 538q0 3 2 3h49q3 0 3 -3l-34 -242h250l34 242q0 3 4 3h48q3 0 3 -3l-76 -538q0 -3 -3 -3h-48q-4 0 -4 3l35 248h-250l-35 -248q0 -3 -3 -3h-49zM238 607h-38q-3 0 -1 4q12 18 41.5 56.5t38.5 51.5q1 3 5 3h49q5 0 6 -3l49 -109q2 -3 -2 -3h-38 q-3 0 -5 4l-38 69h-5q-54 -67 -56 -69q-4 -4 -6 -4z" />
<glyph horiz-adv-x="190" d="M30 0q-2 0 -2 3l76 538q0 3 2 3h49q3 0 3 -3l-76 -538q0 -3 -3 -3h-49zM50 638q-2 0 -2 4l4 29q0 4 4 8q28 28 56 28q18 0 43 -15t40 -15q17 0 34.5 14t18.5 14q3 0 3 -3l-4 -29q-2 -7 -5 -10q-28 -28 -57 -28q-19 0 -42.5 15.5t-38.5 15.5q-16 0 -34 -14t-20 -14z" />
<glyph horiz-adv-x="190" d="M30 0q-2 0 -2 3l76 538q0 3 2 3h49q3 0 3 -3l-76 -538q0 -3 -3 -3h-49zM246 652h-198q-2 0 -2 3l5 39q0 3 4 3h198q1 0 1 -3l-5 -39q0 -3 -3 -3z" />
<glyph horiz-adv-x="190" d="M9 -139q-24 0 -37.5 9t-13.5 34q0 53 70 99l76 538q0 3 2 3h49q3 0 3 -3l-76 -538q0 -3 -3 -3h-2q-74 -49 -74 -81q0 -16 20 -16l24 8q4 2 5 -1q0 -1 4 -11.5t5 -11.5q2 -5 -2 -8q-24 -18 -50 -18z" />
<glyph horiz-adv-x="190" d="M30 0q-2 0 -2 3l76 538q0 3 2 3h49q3 0 3 -3l-76 -538q0 -3 -3 -3h-49zM119 639q-2 0 -2 3l8 60q0 3 3 3h53q1 0 1 -3l-8 -60q-1 -3 -3 -3h-52z" />
<glyph horiz-adv-x="358" d="M111 -4q-22 0 -50.5 4t-45.5 7.5t-19 4.5t-1 4l19 40q0 1 4 1l7 -1q7 -1 18 -2.5t23.5 -3t25.5 -2.5t23 -1q22 0 35.5 2t29 9t25 24t13.5 44l58 415q0 3 4 3h49q2 0 1 -3l-58 -416q-5 -35 -17.5 -60.5t-27 -38.5t-37 -20t-39 -8.5t-40.5 -1.5zM256 607h-38q-3 0 -1 4 q12 18 41.5 56.5t38.5 51.5q1 3 6 3h49q4 0 5 -3l50 -109q1 -3 -3 -3h-38q-2 0 -4 4l-38 69h-5q-55 -67 -57 -69q-4 -4 -6 -4z" />
<glyph horiz-adv-x="404" d="M28 0l76 541q0 3 2 3h49q3 0 3 -3l-69 -490h258q4 0 4 -3l-6 -44q0 -4 -5 -4h-312zM235 611q-2 -4 -5 -4h-39q-2 0 0 4l69 108q2 3 5 3h51q2 0 1 -3z" />
<glyph horiz-adv-x="497" d="M30 0q-3 0 -3 3l76 538q0 3 3 3h66q4 0 5 -3l163 -438h10l62 438q0 3 3 3h49q3 0 3 -3l-76 -538q0 -3 -3 -3h-66q-5 0 -5 3l-163 442h-10l-62 -442q0 -3 -4 -3h-48zM281 611q-2 -4 -4 -4h-39q-2 0 0 4l69 108q1 3 5 3h51q3 0 1 -3z" />
<glyph horiz-adv-x="497" d="M30 0q-3 0 -3 3l76 538q0 3 3 3h66q4 0 5 -3l163 -438h10l62 438q0 3 3 3h49q3 0 3 -3l-76 -538q0 -3 -3 -3h-66q-5 0 -5 3l-163 442h-10l-62 -442q0 -3 -4 -3h-48zM365 721h40q3 0 2 -4l-90 -108q-3 -3 -4 -3h-37q-4 0 -6 3q-6 13 -27.5 52t-29.5 57q-1 3 1 3h41 q2 0 5 -3l38 -70h5q55 68 57 70q3 3 5 3z" />
<glyph horiz-adv-x="465" d="M199 47q30 0 51 4.5t43 18.5t36.5 45t20.5 78l22 162q12 87 -17.5 114.5t-92.5 27.5q-62 0 -100 -28t-50 -114l-22 -162q-7 -49 -0.5 -80t25.5 -44.5t37.5 -17.5t46.5 -4zM192 -4q-14 0 -24.5 0.5t-25 2t-25 4.5t-23 7.5t-21.5 12.5t-17.5 18t-13.5 24t-8.5 31.5 t-3.5 40.5t4 50l24 174q7 50 23.5 86.5t36 55.5t48 29.5t50.5 13t53 2.5q14 0 24 -0.5t24.5 -1.5t25 -4t23.5 -7.5t22 -12t18 -17.5t14.5 -24t9 -31t3.5 -39.5t-4 -49.5l-24 -174q-7 -53 -25 -90.5t-37.5 -56.5t-49.5 -29.5t-50 -12.5t-51 -2zM384 652h-198q-2 0 -2 3l5 39 q0 3 3 3h198q2 0 2 -3l-6 -39q0 -3 -2 -3z" />
<glyph horiz-adv-x="465" d="M199 47q30 0 51 4.5t43 18.5t36.5 45t20.5 78l22 162q12 87 -17.5 114.5t-92.5 27.5q-62 0 -100 -28t-50 -114l-22 -162q-7 -49 -0.5 -80t25.5 -44.5t37.5 -17.5t46.5 -4zM192 -4q-14 0 -24.5 0.5t-25 2t-25 4.5t-23 7.5t-21.5 12.5t-17.5 18t-13.5 24t-8.5 31.5 t-3.5 40.5t4 50l24 174q7 50 23.5 86.5t36 55.5t48 29.5t50.5 13t53 2.5q14 0 24 -0.5t24.5 -1.5t25 -4t23.5 -7.5t22 -12t18 -17.5t14.5 -24t9 -31t3.5 -39.5t-4 -49.5l-24 -174q-7 -53 -25 -90.5t-37.5 -56.5t-49.5 -29.5t-50 -12.5t-51 -2zM280 615q-88 0 -88 75 q0 19 5 19h24q5 0 6 -4q4 -31 16 -41t42 -10q28 0 42.5 10.5t27.5 40.5q2 4 6 4h26q3 0 2 -4q-19 -90 -109 -90z" />
<glyph horiz-adv-x="465" d="M192 -4q-14 0 -24.5 0.5t-25 2t-25 4.5t-23 7.5t-21.5 12.5t-17.5 18t-13.5 24t-8.5 31.5t-3.5 40.5t4 50l24 174q7 50 23.5 86.5t36 55.5t48 29.5t50.5 13t53 2.5q14 0 24 -0.5t24.5 -1.5t25 -4t23.5 -7.5t22 -12t18 -17.5t14.5 -24t9 -31t3.5 -39.5t-4 -49.5l-24 -174 q-7 -53 -25 -90.5t-37.5 -56.5t-49.5 -29.5t-50 -12.5t-51 -2zM199 47q30 0 51 4.5t43 18.5t36.5 45t20.5 78l22 162q12 87 -17.5 114.5t-92.5 27.5q-62 0 -100 -28t-50 -114l-22 -162q-7 -49 -0.5 -80t25.5 -44.5t37.5 -17.5t46.5 -4zM227 611q-3 -3 -6 -3h-38q-3 0 -1 3 l69 108q1 3 6 3h51q2 0 0 -3q-1 -1 -40.5 -54t-40.5 -54zM327 611q-1 -3 -5 -3h-38q-2 0 -2 1q0 3 71 110q1 3 5 3h50q5 0 2 -3q-1 -1 -41 -53.5t-42 -54.5z" />
<glyph horiz-adv-x="469" d="M79 0h-49q-2 1 -2 3l76 541h178q28 0 46 -1.5t41.5 -9t36 -21.5t19 -41t1.5 -65l-6 -44q-15 -106 -107 -130l74 -229q1 -3 -2 -3h-55q-4 0 -5 3l-68 220h-144l-31 -220q0 -3 -3 -3zM120 274h124q22 0 38.5 2.5t35.5 11t31 27.5t16 48l6 43q4 29 -2 48t-22 26.5t-31 10 t-39 2.5h-126zM267 611q-2 -4 -4 -4h-39q-2 0 0 4l69 108q1 3 5 3h51q3 0 1 -3z" />
<glyph horiz-adv-x="469" d="M120 274h124q22 0 38.5 2.5t35.5 11t31 27.5t16 48l6 43q4 29 -2 48t-22 26.5t-31 10t-39 2.5h-126zM79 0h-49q-2 1 -2 3l76 541h178q28 0 46 -1.5t41.5 -9t36 -21.5t19 -41t1.5 -65l-6 -44q-15 -106 -107 -130l74 -229q1 -3 -2 -3h-55q-4 0 -5 3l-68 220h-144l-31 -220 q0 -3 -3 -3zM335 721h40q5 0 2 -4l-90 -108q-3 -3 -4 -3h-37q-4 0 -6 3q-6 13 -27.5 52t-29.5 57q-1 3 1 3h41q2 0 5 -3l38 -70h5q55 68 57 70q3 3 5 3z" />
<glyph horiz-adv-x="454" d="M185 -4q-101 0 -161 30q-2 1 -1 4q19 38 22 41q2 2 3 1q4 -2 20.5 -7.5t53 -12t72.5 -6.5q38 0 62.5 4t46.5 22.5t27 52.5l7 49q5 37 -22 53t-88 21q-100 8 -131.5 37t-22.5 92l8 53q17 118 182 118q92 0 142 -25q2 -2 1 -4l-21 -38q-2 -3 -4 -2q-3 1 -17 5t-45 8.5 t-62 4.5q-52 0 -84 -14t-38 -56l-7 -48q-5 -37 20 -54.5t87 -22.5q97 -8 132 -35.5t25 -91.5l-8 -53q-6 -41 -25.5 -68t-50.5 -39t-58.5 -15.5t-64.5 -3.5zM270 611q-2 -4 -4 -4h-39q-3 0 -1 4l69 108q1 3 6 3h51q2 0 0 -3z" />
<glyph horiz-adv-x="454" d="M185 -4q-101 0 -161 30q-2 1 -1 4q19 38 22 41q2 2 3 1q4 -2 20.5 -7.5t53 -12t72.5 -6.5q38 0 62.5 4t46.5 22.5t27 52.5l7 49q5 37 -22 53t-88 21q-100 8 -131.5 37t-22.5 92l8 53q17 118 182 118q92 0 142 -25q2 -2 1 -4l-21 -38q-2 -3 -4 -2q-3 1 -17 5t-45 8.5 t-62 4.5q-52 0 -84 -14t-38 -56l-7 -48q-5 -37 20 -54.5t87 -22.5q97 -8 132 -35.5t25 -91.5l-8 -53q-6 -41 -25.5 -68t-50.5 -39t-58.5 -15.5t-64.5 -3.5zM218 607h-38q-4 0 -2 4q12 18 41.5 56.5t38.5 51.5q2 3 6 3h49q4 0 5 -3l50 -109q2 -3 -2 -3h-38q-3 0 -5 4l-38 69 h-5q-55 -67 -57 -69q-4 -4 -5 -4z" />
<glyph horiz-adv-x="404" d="M138 0q-4 0 -4 3l69 490h-155q-3 0 -3 3l7 45q0 3 3 3h365q4 0 4 -3l-7 -45q0 -3 -4 -3h-156l-69 -490q0 -3 -2 -3h-48zM318 721h40q4 0 1 -4l-89 -108q-3 -3 -4 -3h-37q-5 0 -6 3q-6 13 -27.5 52t-29.5 57q-2 3 1 3h41q1 0 4 -3l39 -70h5q54 68 56 70q3 3 6 3z" />
<glyph horiz-adv-x="483" d="M183 -4q-92 0 -120.5 49.5t-11.5 170.5l46 325q0 3 3 3h49q2 0 2 -3l-45 -319q-14 -99 1.5 -137t83.5 -38h37q69 0 92.5 37t37.5 138l45 319q0 3 4 3h48q3 0 3 -3l-46 -325q-17 -120 -56 -170t-136 -50h-37zM196 638q-2 0 -2 4l4 29q0 4 4 8q28 28 56 28q18 0 43 -15 t40 -15q17 0 34.5 14t18.5 14q3 0 3 -3l-4 -29q-2 -7 -5 -10q-28 -28 -57 -28q-19 0 -42.5 15.5t-38.5 15.5q-16 0 -34 -14t-20 -14z" />
<glyph horiz-adv-x="483" d="M183 -4q-92 0 -120.5 49.5t-11.5 170.5l46 325q0 3 3 3h49q2 0 2 -3l-45 -319q-14 -99 1.5 -137t83.5 -38h37q69 0 92.5 37t37.5 138l45 319q0 3 4 3h48q3 0 3 -3l-46 -325q-17 -120 -56 -170t-136 -50h-37zM393 652h-198q-3 0 -3 3l6 39q0 3 3 3h198q1 0 1 -3l-5 -39 q0 -3 -2 -3z" />
<glyph horiz-adv-x="483" d="M183 -4q-92 0 -120.5 49.5t-11.5 170.5l46 325q0 3 3 3h49q2 0 2 -3l-45 -319q-14 -99 1.5 -137t83.5 -38h37q69 0 92.5 37t37.5 138l45 319q0 3 4 3h48q3 0 3 -3l-46 -325q-17 -120 -56 -170t-136 -50h-37zM288 615q-87 0 -87 75q0 19 5 19h24q4 0 5 -4q4 -31 16 -41 t43 -10q28 0 42.5 10.5t27.5 40.5q2 4 6 4h26q3 0 2 -4q-19 -90 -110 -90z" />
<glyph horiz-adv-x="483" d="M183 -4q-92 0 -120.5 49.5t-11.5 170.5l46 325q0 3 3 3h49q2 0 2 -3l-45 -319q-14 -99 1.5 -137t83.5 -38h37q69 0 92.5 37t37.5 138l45 319q0 3 4 3h48q3 0 3 -3l-46 -325q-17 -120 -56 -170t-136 -50h-37zM284 594q-20 0 -33.5 3.5t-23 18t-4.5 41.5l3 17q10 61 80 61 q14 0 24 -2t20.5 -7.5t14.5 -18.5t1 -33l-3 -17q-7 -39 -27 -51t-52 -12zM288 622q43 0 47 38l1 10q2 22 -6.5 29.5t-27.5 7.5q-45 0 -48 -37l-1 -10q-3 -23 6.5 -30.5t28.5 -7.5z" />
<glyph horiz-adv-x="483" d="M183 -4q-92 0 -120.5 49.5t-11.5 170.5l46 325q0 3 3 3h49q2 0 2 -3l-45 -319q-14 -99 1.5 -137t83.5 -38h37q69 0 92.5 37t37.5 138l45 319q0 3 4 3h48q3 0 3 -3l-46 -325q-17 -120 -56 -170t-136 -50h-37zM250 611q-3 -3 -7 -3h-38q-1 0 0 3l69 108q2 3 5 3h51 q2 0 1 -3q0 -1 -40 -53.5t-41 -54.5zM350 611q-2 -3 -6 -3h-38q-1 0 -1 1q0 5 70 110q1 3 5 3h50q5 0 2 -3q-1 -1 -40.5 -53t-41.5 -55z" />
<glyph horiz-adv-x="483" d="M166 -144q-25 0 -38.5 9t-13.5 34q0 30 17 51t50 46q-91 1 -119 50t-11 170l46 325q0 3 3 3h49q2 0 2 -3l-45 -319q-14 -99 1.5 -137t83.5 -38h37q69 0 92.5 37t37.5 138l45 319q0 3 4 3h48q3 0 3 -3l-46 -325q-16 -115 -52 -165t-124 -54l-1 -1q-41 -28 -58.5 -46.5 t-17.5 -35.5q0 -16 21 -16l24 8q3 1 4 -1q0 -1 4 -11.5t5 -11.5q2 -5 -2 -8q-24 -18 -49 -18z" />
<glyph horiz-adv-x="631" d="M117 0q-4 0 -4 3t-27.5 270t-28.5 268q-1 3 2 3h51q2 0 4 -3l42 -449h14q141 342 142 344t3 2h44q3 0 4 -2l43 -344h15q168 447 169 449q2 3 4 3h49q5 0 3 -3q-1 -3 -104 -269.5t-103 -268.5q0 -3 -4 -3h-63q-4 0 -4 3l-41 332h-9q-134 -329 -135 -332q-3 -3 -4 -3h-62z M305 607h-38q-3 0 -1 4q12 18 41.5 56.5t38.5 51.5q2 3 5 3h49q5 0 6 -3l49 -109q1 -3 -2 -3h-38q-3 0 -5 4l-38 69h-5q-54 -67 -56 -69q-4 -4 -6 -4z" />
<glyph horiz-adv-x="400" d="M136 0q-3 0 -3 3l30 216q-112 320 -113 322q-2 3 2 3h54q1 0 4 -3l88 -254h5q158 252 160 254q3 3 4 3h54q3 0 2 -3l-205 -322l-30 -216q0 -3 -3 -3h-49zM189 607h-38q-3 0 -1 4q12 18 41.5 56.5t38.5 51.5q2 3 5 3h49q5 0 6 -3l49 -109q1 -3 -2 -3h-38q-3 0 -5 4l-38 69 h-5q-54 -67 -56 -69q-4 -4 -6 -4z" />
<glyph horiz-adv-x="414" d="M1 0q-2 0 -2 2l7 51q0 1 1 2t1 2l329 429l1 6h-257q-3 0 -2 4l6 44q0 4 3 4h317q4 0 4 -4l-7 -48q0 -5 -3 -8l-328 -426l-1 -7h266q4 0 4 -3l-7 -45q0 -3 -3 -3h-329zM256 611q-2 -4 -5 -4h-39q-2 0 0 4l69 108q1 3 5 3h51q3 0 1 -3z" />
<glyph horiz-adv-x="414" d="M1 0q-2 0 -2 2l7 51q0 1 1 2t1 2l329 429l1 6h-257q-3 0 -2 4l6 44q0 4 3 4h317q4 0 4 -4l-7 -48q0 -5 -3 -8l-328 -426l-1 -7h266q4 0 4 -3l-7 -45q0 -3 -3 -3h-329zM237 639q-2 0 -2 3l9 60q0 3 2 3h53q2 0 2 -3l-9 -60q0 -3 -3 -3h-52z" />
<glyph horiz-adv-x="631" d="M117 0q-4 0 -4 3t-27.5 270t-28.5 268q-1 3 2 3h51q2 0 4 -3l42 -449h14q141 342 142 344t3 2h44q3 0 4 -2l43 -344h15q168 447 169 449q2 3 4 3h49q5 0 3 -3q-1 -3 -104 -269.5t-103 -268.5q0 -3 -4 -3h-63q-4 0 -4 3l-41 332h-9q-134 -329 -135 -332q-3 -3 -4 -3h-62z M364 610l-52 109q-2 3 1 3h51q4 0 5 -3l39 -108q2 -4 -2 -4h-39z" />
<glyph horiz-adv-x="631" d="M117 0q-4 0 -4 3t-27.5 270t-28.5 268q-1 3 2 3h51q2 0 4 -3l42 -449h14q141 342 142 344t3 2h44q3 0 4 -2l43 -344h15q168 447 169 449q2 3 4 3h49q5 0 3 -3q-1 -3 -104 -269.5t-103 -268.5q0 -3 -4 -3h-63q-4 0 -4 3l-41 332h-9q-134 -329 -135 -332q-3 -3 -4 -3h-62z M356 611q-2 -4 -4 -4h-39q-4 0 0 4l69 108q2 3 5 3h51q2 0 1 -3z" />
<glyph horiz-adv-x="631" d="M117 0q-4 0 -4 3t-27.5 270t-28.5 268q-1 3 2 3h51q2 0 4 -3l42 -449h14q141 342 142 344t3 2h44q3 0 4 -2l43 -344h15q168 447 169 449q2 3 4 3h49q5 0 3 -3q-1 -3 -104 -269.5t-103 -268.5q0 -3 -4 -3h-63q-4 0 -4 3l-41 332h-9q-134 -329 -135 -332q-3 -3 -4 -3h-62z M265 641q-2 0 -2 3l8 58l3 3h46q2 0 2 -3l-8 -58q0 -3 -3 -3h-46zM418 641q-3 0 -3 3l8 58q0 3 4 3h45q1 0 1 -3l-8 -58q0 -3 -2 -3h-45z" />
<glyph horiz-adv-x="404" d="M28 0l76 541q0 3 2 3h49q3 0 3 -3l-69 -490h258q4 0 4 -3l-6 -44q0 -4 -5 -4h-312zM212 466q-4 -4 -4 3l20 146q1 4 5 4h49q3 0 3 -4l-14 -100q0 -3 -3 -5q-2 -1 -28.5 -22t-27.5 -22z" />
<glyph horiz-adv-x="440" d="M30 0q-2 1 -2 3l76 538l2 3h49q3 0 3 -3l-34 -240h26q216 237 219 240t6 3h61q4 0 1 -3l-244 -264q180 -272 181 -274q2 -3 0 -3h-62q-5 0 -6 3l-162 248h-27l-35 -248q0 -3 -3 -3h-49zM129 -206q-5 -5 -5 3l21 146q0 4 4 4h49q4 0 4 -4l-14 -100q0 -2 -4 -5 q-2 -1 -28 -22t-27 -22z" />
<glyph horiz-adv-x="404" d="M28 0l76 541q0 3 2 3h49q3 0 3 -3l-69 -490h258q4 0 4 -3l-6 -44q0 -4 -5 -4h-312zM126 -206q-2 -2 -3.5 -0.5t-0.5 3.5l20 146q1 4 5 4h49q3 0 3 -4l-14 -100q0 -2 -4 -5q-2 -1 -28 -22t-27 -22z" />
<glyph horiz-adv-x="497" d="M30 0q-3 0 -3 3l76 538q0 3 3 3h66q4 0 5 -3l163 -438h10l62 438q0 3 3 3h49q3 0 3 -3l-76 -538q0 -3 -3 -3h-66q-5 0 -5 3l-163 442h-10l-62 -442q0 -3 -4 -3h-48zM163 -206q-5 -5 -5 3l21 146q0 4 4 4h49q4 0 4 -4l-14 -100q0 -2 -4 -5q-2 -1 -28 -22t-27 -22z" />
<glyph horiz-adv-x="469" d="M79 0h-49q-2 1 -2 3l76 541h178q28 0 46 -1.5t41.5 -9t36 -21.5t19 -41t1.5 -65l-6 -44q-15 -106 -107 -130l74 -229q1 -3 -2 -3h-55q-4 0 -5 3l-68 220h-144l-31 -220q0 -3 -3 -3zM120 274h124q22 0 38.5 2.5t35.5 11t31 27.5t16 48l6 43q4 29 -2 48t-22 26.5t-31 10 t-39 2.5h-126zM146 -206q-5 -5 -5 3l21 146q0 4 4 4h49q4 0 4 -4l-14 -100q0 -2 -4 -5q-2 -1 -28 -22t-27 -22z" />
<glyph horiz-adv-x="465" d="M186 -4q-18 0 -32 1t-31.5 4t-29 9t-25 16t-20 24t-13.5 33.5t-5.5 45.5t4.5 59l24 173q7 51 24.5 87.5t37 55.5t48.5 29.5t50 12.5t51 2q41 0 79.5 -6.5t54 -11.5t21.5 -8q2 -1 1 -4l-22 -38q-1 -1 -3 -1l-9 2q-9 2 -23 4.5t-31 5t-37 4.5t-37 2q-27 0 -45.5 -3.5 t-43 -16t-40 -43t-22.5 -79.5l-23 -162q-3 -33 -3.5 -56.5t8 -39.5t17 -26t24 -15t28.5 -6.5t31 -1.5q13 0 45.5 4.5t58.5 9.5l26 4l23 165h-90q-3 0 -3 3l6 43q0 3 4 3h143l-36 -254q-137 -30 -185 -30zM147 -206q-2 -2 -3.5 -0.5t-0.5 3.5l20 146q1 4 5 4h49q3 0 3 -4 l-14 -100q0 -2 -4 -5q-2 -1 -28 -22t-27 -22z" />
<glyph horiz-adv-x="454" d="M185 -4q-101 0 -161 30q-2 1 -1 4q19 38 22 41q2 2 3 1q4 -2 20.5 -7.5t53 -12t72.5 -6.5q38 0 62.5 4t46.5 22.5t27 52.5l7 49q5 37 -22 53t-88 21q-100 8 -131.5 37t-22.5 92l8 53q17 118 182 118q92 0 142 -25q2 -2 1 -4l-21 -38q-2 -3 -4 -2q-3 1 -17 5t-45 8.5 t-62 4.5q-52 0 -84 -14t-38 -56l-7 -48q-5 -37 20 -54.5t87 -22.5q97 -8 132 -35.5t25 -91.5l-8 -53q-6 -41 -25.5 -68t-50.5 -39t-58.5 -15.5t-64.5 -3.5zM141 -206q-2 -2 -3.5 -0.5t-0.5 3.5l20 146q1 4 5 4h49q3 0 3 -4l-14 -100q0 -2 -4 -5q-2 -1 -28 -22t-27 -22z" />
<glyph horiz-adv-x="404" d="M138 0q-4 0 -4 3l69 490h-155q-3 0 -3 3l7 45q0 3 3 3h365q4 0 4 -3l-7 -45q0 -3 -4 -3h-156l-69 -490q0 -3 -2 -3h-48zM108 -206q-5 -5 -5 3l21 146q0 4 4 4h49q4 0 4 -4l-14 -100l-1 -1q-1 -2 -3 -4q-2 -1 -28 -22t-27 -22z" />
<glyph horiz-adv-x="454" d="M185 -4q-101 0 -161 30q-2 1 -1 4q19 38 22 41q2 2 3 1q4 -2 20.5 -7.5t53 -12t72.5 -6.5q38 0 62.5 4t46.5 22.5t27 52.5l7 49q5 37 -22 53t-88 21q-100 8 -131.5 37t-22.5 92l8 53q17 118 182 118q92 0 142 -25q2 -2 1 -4l-21 -38q-2 -3 -4 -2q-3 1 -17 5t-45 8.5 t-62 4.5q-52 0 -84 -14t-38 -56l-7 -48q-5 -37 20 -54.5t87 -22.5q97 -8 132 -35.5t25 -91.5l-8 -53q-17 -114 -153 -124l-52 -112q-1 -4 -5 -4h-51l-1 4l12 22q13 22 29 49.5t23 38.5h-1z" />
<glyph horiz-adv-x="321" d="M52 104q-3 3 1 5l35 32q2 3 5 0l28 -35q28 -34 55.5 -68t28.5 -34q1 -1 0.5 -2t-3.5 -3l-34 -31q-2 -2 -5 0z" />
<glyph horiz-adv-x="310" d="M213 348q-3 0 0 3l34 57q2 3 5 3h35q3 0 1 -3q-1 -2 -18 -29t-18 -28q-3 -3 -4 -3h-35zM-5 -28q-3 0 -1 3q1 2 16.5 27t16.5 26q1 3 6 3h34q3 0 1 -3l-34 -54q-1 -2 -3 -2h-36z" />
<glyph horiz-adv-x="429" d="M322 487q-4 0 -2 3q1 2 27.5 42t27.5 41q3 3 5 3h42q4 0 1 -3q-1 -1 -27.5 -41.5t-27.5 -41.5q-3 -3 -4 -3h-42zM-4 -32q-3 0 0 3q1 1 24.5 38.5t24.5 39.5q2 3 6 3h42q4 0 1 -3q-1 -1 -25.5 -38.5t-25.5 -39.5q-1 -3 -5 -3h-42z" />
<glyph horiz-adv-x="440" d="M186 47q60 0 92.5 27.5t44.5 118.5l22 162q8 38 3.5 63.5t-10 41t-21 24t-30.5 11t-38 2.5q-59 0 -91 -27.5t-44 -114.5l-22 -162q-3 -33 -4 -57t6 -40.5t14 -26t21.5 -14.5t26.5 -6.5t30 -1.5zM179 -4q-18 0 -30.5 0.5t-30 3.5t-27.5 8.5t-23.5 14.5t-19 23t-12.5 34 t-4.5 47t4.5 61l24 173q7 51 22.5 87t32.5 55t43 29.5t46.5 13t51.5 2.5q16 0 26.5 -0.5t26 -2.5t26 -5.5t22.5 -10t20 -16t15.5 -23.5t10.5 -32t3 -43t-4 -54l-24 -173q-7 -54 -23.5 -91.5t-34 -56.5t-45 -29.5t-46.5 -12.5t-50 -2z" />
<glyph horiz-adv-x="391" d="M202 0h-46q-2 0 -2 3l67 477q-106 -77 -108 -78q-4 -2 -4 1q0 1 -3 22t-3 22q0 3 3 5l121 90q2 2 6 2h46q2 0 2 -3l-75 -538q-2 -3 -4 -3z" />
<glyph horiz-adv-x="400" d="M298 0h-284q-2 0 -2 2l7 51q0 2 2 4q173 172 214 219q58 67 62 98l7 53q6 44 -18.5 57t-70.5 13q-24 0 -52.5 -4.5t-45 -8.5t-18.5 -5q-3 0 -3 2q0 1 -3 19.5t-3 20.5t2 3q72 24 130 24q31 0 53.5 -4t45 -15.5t32 -37t4.5 -62.5l-8 -56q-4 -25 -22 -56t-60 -79t-73 -79.5 t-99 -100.5l-1 -7h211q3 0 3 -3l-7 -45q0 -3 -3 -3z" />
<glyph horiz-adv-x="407" d="M25 19q-3 0 -1 4q16 32 16 39q0 2 5 2q1 -1 18 -5t46.5 -8t54.5 -4q20 0 34 1.5t32 8t29 21.5t15 39l8 52q4 27 -3 45.5t-21.5 26t-26.5 10t-24 2.5h-54q-3 0 -3 3l6 42q0 3 3 3h54q30 0 56.5 19t31.5 55l7 52q3 24 -3.5 39t-22 21.5t-29 8t-33.5 1.5q-24 0 -53 -4 t-45.5 -8t-18.5 -5q-3 -2 -3 2q0 2 -3 20t-3 19q0 3 3 4q46 23 129 23q21 0 37 -1.5t38 -8t35 -18.5t21 -35t4 -55l-7 -55q-4 -28 -17 -50.5t-25 -31.5l-11 -9l-1 -6q2 -1 5 -3.5t11 -11t12 -20t8 -30.5t-1 -43l-8 -56q-17 -118 -171 -118q-36 0 -68.5 6t-47.5 12z" />
<glyph horiz-adv-x="406" d="M259 0h-45q-3 0 -3 3l14 102h-205q-2 0 -2 3l7 51q2 2 3 4l209 378q1 3 5 3h50q2 0 1 -3l-207 -378l-1 -7h147l16 114q0 4 5 4h45q3 0 3 -4l-16 -114h61q3 0 3 -3l-7 -44q0 -4 -3 -4h-61l-14 -102q0 -3 -5 -3z" />
<glyph horiz-adv-x="407" d="M159 -4q-85 0 -131 23q-2 1 -1 4q11 22 16 39q1 1 4 1l7 -1q8 -2 20.5 -4.5t27 -5t32 -4t32.5 -1.5q21 0 35 1.5t32 8t29 21.5t15 38l8 53q13 91 -73 91h-136q-3 0 -3 3l39 275q0 6 8 6h248q1 0 1 -3l-6 -43q0 -3 -2 -3h-205l-26 -186h89q25 0 44 -4t41 -16t31.5 -42 t3.5 -75l-8 -59q-16 -117 -172 -117z" />
<glyph horiz-adv-x="401" d="M169 44q21 0 35.5 3.5t30.5 13t26.5 31.5t15.5 56l4 27q8 58 -13 79.5t-67 21.5q-11 0 -36 -5l-45 -9l-19 -5l-20 -140q-6 -38 20 -55.5t68 -17.5zM164 -4q-25 0 -47 4t-46 15.5t-36 36.5t-7 62l43 311q5 38 23.5 64t45.5 38t50.5 16.5t49.5 4.5q78 0 124 -23q2 -1 1 -4 q0 -1 -4.5 -10.5t-8.5 -18.5l-4 -10q0 -2 -4 -2l-7 2q-7 2 -18 4.5t-24.5 4.5t-30 4t-31.5 2q-45 0 -74 -15.5t-35 -58.5l-17 -118q74 19 108 19q11 0 19.5 -0.5t20.5 -2t20 -4t19 -7.5t17 -12.5t14 -18t9 -24.5t3.5 -32.5t-2.5 -41.5l-5 -36q-7 -50 -25.5 -82.5t-46 -45.5 t-47.5 -17t-47 -4z" />
<glyph horiz-adv-x="398" d="M115 0h-51q-2 0 -1 3l250 483l1 7h-225q-2 0 -2 3l6 44q0 4 3 4h282q3 0 3 -2l-7 -49q0 -1 -1.5 -3t-1.5 -3t-124.5 -241.5t-126.5 -242.5q-2 -3 -5 -3z" />
<glyph horiz-adv-x="407" d="M170 44q49 0 75 18t34 73l5 34q8 54 -14 72.5t-66 18.5q-99 0 -112 -91l-5 -34q-8 -54 13 -72.5t70 -18.5zM208 310q89 0 100 76l5 34q12 80 -75 80q-39 0 -70 -18.5t-36 -61.5l-4 -34q-9 -76 80 -76zM164 -5q-70 0 -105 27.5t-25 108.5l5 41q5 37 23.5 65t34.5 37l16 10 l1 3q-2 1 -5 3t-11 10t-13.5 18t-9 27t-0.5 37l6 41q19 125 164 125q139 0 121 -125l-6 -41q-3 -19 -10.5 -36t-16 -27t-16.5 -18t-13 -11l-6 -3l-1 -2q6 -3 14 -10t19.5 -36t6.5 -67l-5 -41q-6 -44 -21.5 -73t-41 -41.5t-49 -17t-56.5 -4.5z" />
<glyph horiz-adv-x="406" d="M236 548q25 0 47 -4t46.5 -15.5t36.5 -36.5t7 -61l-44 -311q-5 -38 -23.5 -64t-45 -38.5t-50 -17t-49.5 -4.5q-84 0 -126 21q-4 2 -2 5l17 38q0 2 3 2l7 -2q7 -1 19 -3.5t26 -4.5t31 -3.5t32 -1.5q97 0 108 74l15 107q-74 -20 -108 -20q-21 0 -35.5 1.5t-34.5 9.5 t-31 22.5t-17 42.5t-1 68l6 47q7 50 25.5 83t46 46t47.5 16.5t47 3.5zM232 500q-29 0 -48 -5.5t-37.5 -29.5t-24.5 -69l-5 -38q-8 -58 12.5 -79.5t66.5 -21.5q12 0 37.5 5t44.5 10l20 5l21 151q5 37 -20.5 54.5t-66.5 17.5z" />
<glyph horiz-adv-x="894" d="M185 -4q-101 0 -161 30q-2 1 -1 4q19 38 22 41q2 2 3 1q4 -2 20.5 -7.5t53 -12t72.5 -6.5q38 0 62.5 4t46.5 22.5t27 52.5l7 49q5 37 -22 53t-88 21q-100 8 -131.5 37t-22.5 92l8 53q17 118 182 118q92 0 142 -25q2 -2 1 -4l-21 -38q-2 -3 -4 -2q-3 1 -17 5t-45 8.5 t-62 4.5q-52 0 -84 -14t-38 -56l-7 -48q-5 -37 20 -54.5t87 -22.5q97 -8 132 -35.5t25 -91.5l-8 -53q-6 -41 -25.5 -68t-50.5 -39t-58.5 -15.5t-64.5 -3.5zM613 -4q-101 0 -161 30q-2 1 -1 4q19 38 22 41q2 2 3 1q4 -2 20.5 -7.5t53 -12t72.5 -6.5q38 0 62.5 4t46.5 22.5 t27 52.5l7 49q5 37 -22 53t-88 21q-100 8 -131.5 37t-22.5 92l8 53q17 118 182 118q92 0 142 -25q2 -2 1 -4l-21 -38q-2 -3 -4 -2q-3 1 -17 5t-45 8.5t-62 4.5q-52 0 -84 -14t-38 -56l-7 -48q-5 -37 20 -54.5t87 -22.5q97 -8 132 -35.5t25 -91.5l-8 -53q-6 -41 -25.5 -68 t-50.5 -39t-58.5 -15.5t-64.5 -3.5z" />
<glyph horiz-adv-x="407" d="M152 62q-4 0 -4 3l19 132h-128q-3 0 -3 4l6 40q0 3 3 3h128l19 135q0 3 5 3h39q2 0 2 -3l-19 -135h129q4 0 4 -3l-6 -40q0 -4 -4 -4h-129l-19 -132q0 -3 -3 -3h-39z" />
<glyph horiz-adv-x="165" d="M-14 -78q-1 2 -1 3t29.5 73t30.5 74q1 3 4 3h50q3 0 2 -3q-1 -1 -37 -73t-37 -73q-2 -4 -5 -4h-36z" />
<glyph horiz-adv-x="286" d="M27 197q-2 0 -2 3l6 40q0 3 2 3h208q3 0 3 -3l-6 -40q0 -3 -3 -3h-208z" />
<glyph horiz-adv-x="170" d="M16 0q-2 1 -2 3l10 66l2 3h57q2 0 2 -3l-9 -66q0 -3 -3 -3h-57z" />
<glyph horiz-adv-x="312" d="M20 -3q-2 0 -2 2q0 1 112.5 272.5t113.5 273.5q2 3 4 3h43q5 0 3 -3q0 -1 -112.5 -272.5t-113.5 -272.5q-2 -3 -3 -3h-45z" />
<glyph horiz-adv-x="407" d="M28 119q-3 0 -3 4l6 40q0 4 3 4h303q4 0 4 -4l-6 -40q0 -4 -4 -4h-303zM50 276q-3 0 -3 3l6 41q0 3 3 3h303q4 0 4 -3l-6 -41q0 -3 -4 -3h-303z" />
<glyph horiz-adv-x="207" d="M90 0h-55q-2 0 -2 3l9 64q0 3 3 3h55q3 0 2 -3l-9 -64q0 -3 -3 -3zM107 148h-46q-3 0 -3 3l55 390q0 3 3 3h46q2 0 2 -3l-55 -390q0 -3 -2 -3z" />
<glyph horiz-adv-x="343" d="M158 0h-54q-3 0 -3 3l9 65q0 3 4 3h54q3 0 3 -3l-9 -65q0 -3 -4 -3zM175 140h-47q-3 0 -2 4l6 46q5 36 37.5 73.5t64 69t34.5 50.5l7 45q4 24 -1 39t-18 21.5t-24.5 8t-30.5 1.5q-23 0 -49.5 -4t-41 -8t-16.5 -5q-4 -2 -4 1q-3 30 -4 39q0 3 1 4q46 23 122 23 q27 0 46 -3.5t40.5 -14t30.5 -36t3 -64.5l-7 -47q-4 -28 -36.5 -63.5t-65 -70.5t-35.5 -60l-6 -45q-1 -4 -4 -4z" />
<glyph horiz-adv-x="177" d="M-25 -78q-1 2 -1 3t29 73t30 74q1 3 4 3h50q3 0 2 -3q-1 -1 -37 -73t-37 -73q-2 -4 -5 -4h-35zM64 310q-3 0 -2 4l9 65q0 3 3 3h56q4 0 4 -3l-9 -65q0 -4 -5 -4h-56z" />
<glyph horiz-adv-x="248" d="M129 544q5 0 5 -3l-18 -125q0 -3 -4 -3h-45q-3 0 -3 3l18 124q0 4 2 4h45zM234 544q4 0 4 -3l-18 -125q0 -3 -3 -3h-45q-3 0 -3 3l18 124q0 4 2 4h45z" />
<glyph horiz-adv-x="401" d="M130 213h110l33 129h-110zM72 0h-36q-3 0 -3 3l44 168h-67q-2 1 -2 3l5 36q0 3 3 3h72l33 129h-71q-3 0 -3 3l5 36q0 3 4 3h75q40 155 40 157q0 3 4 3h37q3 0 3 -3l-40 -157h109q40 155 40 157q0 3 4 3h37q3 0 3 -3l-40 -157h63q3 0 3 -3l-5 -36q0 -3 -4 -3h-69l-33 -129 h69q2 0 2 -3l-5 -36q0 -3 -3 -3h-73q-44 -166 -44 -168q0 -3 -4 -3h-37q-3 0 -3 3l44 168h-110q-43 -166 -43 -168q0 -3 -4 -3z" />
</font>
</defs>
</svg>
