<?xml version="1.0" standalone="no"?>
<!DOCTYPE svg PUBLIC "-//W3C//DTD SVG 1.1//EN" "http://www.w3.org/Graphics/SVG/1.1/DTD/svg11.dtd" >
<svg xmlns="http://www.w3.org/2000/svg" xmlns:xlink="http://www.w3.org/1999/xlink" version="1.1">
<metadata></metadata>
<defs>
<font id="sport1medium_italic" horiz-adv-x="531" >
<font-face units-per-em="1000" ascent="750" descent="-250" />
<missing-glyph horiz-adv-x="237" />
<glyph unicode=" "  horiz-adv-x="237" />
<glyph unicode="&#x09;" horiz-adv-x="237" />
<glyph unicode="&#xa0;" horiz-adv-x="237" />
<glyph unicode="!" horiz-adv-x="289" d="M157 0h-105q-4 0 -4 4l15 104q0 4 5 4h105q2 0 2 -4l-15 -104q0 -4 -3 -4zM177 196h-92q-3 0 -3 4l67 476q0 4 4 4h92q4 0 4 -4l-67 -476q0 -4 -5 -4z" />
<glyph unicode="&#x22;" horiz-adv-x="356" d="M354 680q5 0 4 -5l-26 -182q0 -4 -3 -4h-84q-4 0 -4 4l26 181q0 6 5 6h82zM195 680q5 0 4 -5l-26 -182q0 -4 -4 -4h-84q-3 0 -3 4l26 181q0 6 4 6h83z" />
<glyph unicode="#" horiz-adv-x="544" d="M207 281h117l34 130h-117zM131 0h-80q-3 0 -3 3l50 197h-74q-4 0 -4 4l11 73q0 4 4 4h84l34 130h-79q-5 0 -5 4l10 73q1 4 5 4h90q46 181 47 184q2 4 5 4h80q3 0 3 -3l-47 -185h117q46 181 47 184q1 4 5 4h80q5 0 3 -4l-47 -184h72q4 0 3 -4l-10 -73q-1 -4 -4 -4h-82 l-34 -130h78q4 0 4 -4l-11 -73q0 -4 -4 -4h-87q-50 -193 -51 -196q-1 -4 -5 -4h-80q-3 0 -3 3l51 197h-117q-51 -193 -51 -196q0 -4 -5 -4z" />
<glyph unicode="$" horiz-adv-x="574" d="M201 -78q-3 0 -3 4l10 68q-52 2 -97.5 11t-65 16.5t-21.5 9.5q-4 1 -2 5l42 88q1 2 5 2q4 -2 25.5 -8t69 -13t94.5 -7q39 0 64 4t46.5 20.5t25.5 46.5l7 47q5 33 -21.5 51t-100.5 25q-115 11 -160.5 44.5t-32.5 123.5l10 72q19 140 208 151l10 70q0 4 4 4h70q2 0 2 -4 l-10 -70q45 -2 83.5 -9t55 -12.5t17.5 -7.5q3 -1 3 -5l-40 -85q-2 -3 -6 -2q-5 2 -24 6t-60.5 9t-80.5 5q-52 0 -81.5 -14t-34.5 -50l-6 -46q-4 -36 20.5 -51.5t95.5 -24.5q116 -13 162.5 -47t34.5 -122l-10 -73q-6 -41 -25 -71t-41.5 -46t-55 -26t-53.5 -12.5t-50 -4.5 l-10 -68q0 -4 -3 -4h-70z" />
<glyph unicode="%" horiz-adv-x="762" d="M202 -6h-90q-5 0 -1 4q37 59 229.5 343.5t227.5 340.5q2 4 6 4h89q4 0 1 -4l-456 -684q-2 -4 -6 -4zM532 67q25 0 40 9.5t19 39.5l10 72q4 28 -7.5 38t-36.5 10q-54 0 -61 -48l-10 -72q-4 -30 8.5 -39.5t37.5 -9.5zM522 -6q-55 0 -85.5 23t-21.5 89l13 94q15 108 141 108 q24 0 41.5 -3.5t35.5 -14t25.5 -33t2.5 -57.5l-13 -94q-5 -36 -19 -59.5t-35 -34.5t-40.5 -14.5t-44.5 -3.5zM221 444q25 0 40 10t19 40l10 71q4 28 -7 38t-36 10q-26 0 -41.5 -10t-19.5 -38l-10 -71q-4 -30 8 -40t37 -10zM211 372q-55 0 -85.5 22.5t-21.5 88.5l13 94 q15 109 141 109q24 0 42 -3.5t36 -14t25.5 -33.5t2.5 -58l-13 -94q-5 -35 -19 -58.5t-35 -34.5t-41 -14.5t-45 -3.5z" />
<glyph unicode="&#x26;" horiz-adv-x="577" d="M248 -6q-35 0 -60.5 2.5t-55.5 13t-47.5 29t-27 53.5t-3.5 83l5 38q5 41 27 84t41 65l19 22q-3 6 -6.5 16t-10 44t0.5 68l4 29q20 145 194 145q32 0 54 -3.5t46 -15.5t36.5 -39.5t12.5 -70.5q0 -39 -8 -39h-74q-2 0 -2 24q0 42 -19.5 56t-52.5 14q-83 0 -95 -77l-3 -20 q-4 -27 4.5 -58.5t18 -50.5t38.5 -70l101 -182q15 20 16 28l16 116q0 4 4 4h75q4 0 4 -4l-19 -132q-2 -16 -14.5 -38t-23.5 -36l-11 -14q42 -71 44 -74q2 -4 -2 -4h-99q-3 0 -6 4l-10 17q-44 -27 -111 -27zM260 76q16 0 30 3.5t20 6.5l7 4l-123 214q-35 -33 -43 -103l-2 -18 q-8 -64 19.5 -85.5t91.5 -21.5z" />
<glyph unicode="'" horiz-adv-x="213" d="M202 680q6 0 5 -5l-26 -182q0 -4 -4 -4h-84q-4 0 -4 4l26 181q0 6 5 6h82z" />
<glyph unicode="(" horiz-adv-x="300" d="M103 -94q-4 0 -8 4t-10.5 19t-15.5 73.5t-9 140.5q0 133 15.5 243.5t36 172.5t45.5 108.5t37.5 60.5t18.5 18q5 4 7 4h85q3 0 0 -4q-148 -197 -148 -602q0 -77 8 -135.5t14 -77.5t8 -21q4 -4 0 -4h-84z" />
<glyph unicode=")" horiz-adv-x="300" d="M91 -94h-83q-4 0 0 4q5 5 16.5 20.5t36 66t44 113.5t35 171t15.5 232q0 76 -8 135t-13 75t-8 23q-3 4 1 4h84q2 0 7 -4q4 -3 11 -19t16 -73.5t9 -138.5q0 -130 -15.5 -239.5t-34 -170.5t-45 -110t-37.5 -62t-21 -22l-1 -1q-4 -4 -9 -4z" />
<glyph unicode="*" horiz-adv-x="369" d="M169 378q-4 0 -4 4l13 91q-77 -45 -79 -46q-5 -2 -6 2t-10.5 26t-10.5 23q-2 3 3 6l80 45q-66 43 -68 45q-3 1 -1 6q1 1 17.5 24.5t17.5 24.5q3 3 6 2l67 -46l13 91q0 4 4 4h56q4 0 4 -4l-13 -91q78 45 80 46q1 1 2.5 0.5t2.5 -2.5q1 -1 6 -12.5t10 -23.5t5 -13 q1 -3 -2 -6l-80 -45q65 -44 67 -45q3 -3 1 -6l-35 -49q-2 -4 -5 -2l-68 46l-13 -91q0 -4 -4 -4h-56z" />
<glyph unicode="+" d="M193 71q-4 0 -4 4l22 154h-157q-4 0 -4 4l12 85q0 4 5 4h157l22 156q0 4 4 4h84q4 0 4 -4l-22 -156h157q4 0 3 -4l-12 -85q0 -4 -4 -4h-157l-22 -154q0 -4 -4 -4h-84z" />
<glyph unicode="," horiz-adv-x="234" d="M-16 -105q-4 0 -3 4l88 219q1 4 6 4h97q3 0 2 -4q0 -1 -17.5 -35.5t-38.5 -74.5t-38 -74l-18 -35q-1 -4 -5 -4h-73z" />
<glyph unicode="-" horiz-adv-x="378" d="M42 228q-3 0 -3 4l12 86q0 4 4 4h278q4 0 4 -4l-12 -86q0 -4 -5 -4h-278z" />
<glyph unicode="." horiz-adv-x="241" d="M28 0q-4 0 -3 4l16 114q0 4 4 4h105q4 0 4 -4l-16 -114q0 -4 -5 -4h-105z" />
<glyph unicode="/" horiz-adv-x="417" d="M25 -5q-3 0 -3 4l284 683q1 4 4 4h100q3 0 2 -4q-1 -1 -141.5 -341.5t-140.5 -341.5q-1 -4 -5 -4h-100z" />
<glyph unicode="0" horiz-adv-x="577" d="M261 94q61 0 90.5 29t42.5 124l27 190q13 93 -9 121.5t-82 28.5t-90.5 -28.5t-43.5 -121.5l-27 -190q-4 -51 -3.5 -81.5t16 -46.5t32.5 -20.5t47 -4.5zM246 -10q-22 0 -38 0.5t-36 3.5t-34 8t-30 14t-26 21.5t-19 31.5t-13 43t-3.5 56t5.5 70l30 211q9 65 29 111.5 t43.5 71.5t58 38.5t63 17t69.5 3.5q21 0 36.5 -0.5t36 -3.5t34.5 -7.5t30 -13.5t26.5 -21t20 -30.5t13.5 -41.5t4 -54.5t-5 -69.5l-30 -211q-10 -69 -31 -117.5t-44 -73.5t-60 -38.5t-62.5 -16t-67.5 -2.5z" />
<glyph unicode="1" horiz-adv-x="512" d="M306 0h-103q-4 0 -4 4l78 551q-131 -88 -133 -89q-3 -2 -3 2q0 1 -6 46.5t-6 46.5q0 3 4 6q3 1 80 55t79 56t6 2h103q4 0 4 -4l-95 -673q0 -3 -4 -3z" />
<glyph unicode="2" horiz-adv-x="524" d="M412 0h-382q-4 0 -4 3l13 94q0 3 5 8q15 14 44 42q70 67 104.5 100.5t79.5 81t65.5 78.5t23.5 53l8 58q3 22 -4 37t-22.5 21.5t-29.5 8.5t-33 2q-31 0 -69 -5.5t-60.5 -10.5t-24.5 -6q-5 0 -5 3q0 2 -3.5 42.5t-3.5 41.5q0 4 2 6q4 3 22 9.5t63.5 14.5t95.5 8 q30 0 55 -2.5t54.5 -12t48 -26t28.5 -46.5t4 -70l-12 -81q-3 -24 -20.5 -55.5t-36 -57.5t-60.5 -71.5t-68 -71.5l-84 -84l-2 -9h222q3 0 3 -4l-14 -95q0 -4 -3 -4z" />
<glyph unicode="3" d="M35 17q-2 2 -1 6q0 1 13.5 42.5t14.5 42.5q1 2 6 2q2 -1 25 -5.5t62.5 -9t71.5 -4.5q100 0 110 69l8 53q4 27 -3 45.5t-21.5 26.5t-27 10.5t-25.5 2.5h-76q-4 0 -3 4l12 89q1 4 5 4h77q29 0 54.5 19t30.5 53l7 53q10 69 -87 69q-31 0 -70 -5t-60.5 -9.5t-25.5 -5.5 q-1 -1 -3 0t-2 3t-2.5 41.5t-2.5 43.5q0 3 3 5q87 29 177 29q40 0 70 -4.5t62.5 -19t47 -47.5t7.5 -83l-10 -71q-4 -31 -20.5 -58.5t-30.5 -39.5l-15 -12l-1 -8q2 -1 6 -4t14.5 -13t15.5 -23.5t10.5 -36t-0.5 -49.5l-11 -77q-7 -50 -30.5 -83t-59.5 -47.5t-68.5 -19.5 t-75.5 -5q-50 0 -94.5 7t-64.5 13z" />
<glyph unicode="4" d="M380 0h-97q-4 0 -4 4l16 111h-263q-4 0 -4 3l14 97q0 5 4 10q1 2 122.5 225.5t122.5 225.5q2 4 4 4h110q4 0 2 -4l-238 -449l-2 -9h143l17 123q0 4 3 4h98q5 0 4 -4l-17 -123h58q4 0 4 -4l-14 -95q0 -4 -4 -4h-59l-16 -111q0 -4 -4 -4z" />
<glyph unicode="5" d="M216 -11q-94 0 -178 28q-2 1 -2 5l30 85q1 4 5 2q1 0 11 -2t27 -4.5t36.5 -5t42.5 -4.5t42 -2q100 0 110 68l8 57q13 89 -77 89h-176q-2 0 -2 4l51 362q2 9 10 9h344q4 0 4 -4l-13 -89q0 -4 -5 -4h-251l-25 -182h80q29 0 51 -2t50 -12t44.5 -27t26 -49.5t3.5 -77.5 l-12 -89q-6 -42 -25.5 -72.5t-42.5 -46t-57 -24.5t-57 -10.5t-53 -1.5z" />
<glyph unicode="6" horiz-adv-x="530" d="M238 85q20 0 35 3t31.5 13t27.5 32.5t15 57.5l4 34q7 57 -11.5 77.5t-59.5 20.5q-15 0 -40.5 -5t-43.5 -10l-19 -5l-21 -151q-5 -35 19 -51t63 -16zM231 -10q-36 0 -67 5.5t-63.5 21t-48 49.5t-8.5 83l52 372q6 44 27 76.5t46 50t57 28t55 13t46 2.5q18 0 35.5 -1 t31.5 -3t27 -4t23 -5t18.5 -5.5t15 -5t10.5 -4t7 -3.5l3 -1q3 -1 1 -6q-1 -2 -8.5 -22.5t-15 -39.5t-7.5 -20q0 -2 -5 -2l-9 2l-25 5t-33 6t-40 5t-41 2q-98 0 -108 -72l-16 -119q85 20 122 20q14 0 25 -0.5t25.5 -2.5t25 -6t24 -10.5t21 -16.5t16.5 -23.5t11 -31.5t4.5 -41 t-3.5 -52l-7 -50q-7 -52 -26 -90t-40 -57.5t-52 -30.5t-53.5 -13.5t-52.5 -2.5z" />
<glyph unicode="7" horiz-adv-x="517" d="M191 0h-112q-3 0 -2 4l293 566l1 9h-259q-4 0 -3 4l13 92q0 5 4 5h379q3 0 3 -4l-13 -92q0 -2 -1 -6l-2 -4q-4 -8 -149.5 -288.5t-146.5 -281.5q-1 -4 -5 -4z" />
<glyph unicode="8" d="M237 84q45 0 71.5 19t34.5 72l6 39q13 87 -79 87q-94 0 -107 -87l-6 -39q-8 -52 13 -71.5t67 -19.5zM282 403q89 0 99 75l5 39q11 80 -75 80q-90 0 -101 -80l-5 -39q-6 -40 16 -57.5t61 -17.5zM223 -11q-28 0 -50 2.5t-46.5 9t-39.5 18.5t-29.5 32t-15.5 48.5t2 67.5 l8 54q4 26 14.5 49t23 37.5t24 24.5t19.5 14l8 5v4q-2 1 -5.5 4t-13.5 13t-15 22t-10 32t0 43l8 52q7 44 24 76t38 50t50 28t53.5 13t55.5 3q30 0 53 -3t49 -13t41 -28t22.5 -50t0.5 -76l-8 -53q-5 -35 -23.5 -63t-34.5 -39l-16 -11v-3q3 -1 7 -4.5t15 -14.5t17 -25t12 -37 t0 -50l-8 -54q-8 -57 -30 -94.5t-56 -54.5t-66.5 -23t-77.5 -6z" />
<glyph unicode="9" d="M315 688q28 0 53 -3t53.5 -13t47.5 -26.5t29.5 -46.5t4.5 -70l-52 -367q-6 -44 -27 -76.5t-45.5 -50t-57 -28t-55 -13t-45.5 -2.5q-116 0 -174 29q-3 2 -2 6l32 83q2 2 5 2q4 -1 25 -5t58.5 -8.5t68.5 -4.5q96 0 107 73l15 103q-87 -20 -124 -20q-34 0 -58 5t-50.5 21.5 t-37 56.5t-2.5 101l8 60q7 52 25.5 90t40 57.5t52 30.5t53 13.5t52.5 2.5zM309 593q-20 0 -34.5 -3t-31 -13t-27 -32t-15.5 -57l-6 -45q-8 -57 10.5 -77.5t60.5 -20.5q15 0 40.5 5t43.5 10l19 5l23 161q5 36 -19 51.5t-64 15.5z" />
<glyph unicode=":" horiz-adv-x="252" d="M86 369q-4 0 -4 4l15 105q0 4 5 4h105q3 0 3 -4l-15 -105q0 -4 -4 -4h-105zM34 0q-4 0 -4 4l15 104q0 4 5 4h105q3 0 3 -4l-14 -104q-1 -4 -5 -4h-105z" />
<glyph unicode=";" horiz-adv-x="252" d="M-31 -105q-3 0 -2 4l88 219q1 4 5 4h98q2 0 1 -4q0 -1 -17.5 -35.5t-38 -74.5t-37.5 -74l-18 -35q-1 -4 -5 -4h-74zM84 359q-4 0 -3 4l16 115q0 4 4 4h105q4 0 4 -4l-16 -115q0 -4 -5 -4h-105z" />
<glyph unicode="&#x3c;" d="M439 66l-385 165q-2 2 -2 5l11 77q0 3 4 5q2 1 216 83t215 82q2 1 2.5 0.5t0.5 -3.5l-13 -92q0 -2 -4 -6l-281 -106l-1 -4q249 -103 252 -105q2 -1 2 -5l-13 -93q0 -5 -4 -3z" />
<glyph unicode="=" d="M40 126q-4 0 -4 4l12 87q1 4 5 4h406q3 0 3 -4l-12 -87q0 -4 -4 -4h-406zM69 332q-4 0 -4 4l12 87q1 4 5 4h406q3 0 3 -4l-12 -87q0 -4 -4 -4h-406z" />
<glyph unicode="&#x3e;" d="M32 66q-3 -1 -3 3l13 93q0 4 3 5l280 105l1 4q-248 104 -250 106q-3 3 -3 6l13 92q1 3 4 3q1 0 191 -82t193 -83t3 -5l-11 -77q0 -3 -5 -5z" />
<glyph unicode="?" horiz-adv-x="453" d="M260 190h-101q-2 0 -2 4l6 42q5 38 30.5 76t52.5 63.5t50.5 53.5t26.5 47l6 42q3 22 -2 36.5t-17 21t-23 8.5t-26 2q-68 0 -137 -23q-2 -1 -3.5 0t-1.5 2l-10 82q0 5 3 6l3 1q3 2 8 3.5t12 4t15.5 5t19 5.5t22.5 5t25 4t28.5 3t30.5 1q28 0 50 -2.5t47.5 -12t41.5 -25.5 t24 -46t3 -71l-7 -52q-4 -27 -29 -60.5t-53.5 -60.5t-53.5 -60t-29 -59l-6 -42q0 -4 -4 -4zM235 0h-105q-4 0 -4 4l15 105q0 4 5 4h105q2 0 2 -4l-15 -105q0 -4 -3 -4z" />
<glyph unicode="@" horiz-adv-x="861" d="M405 139q38 0 59 13.5t27 52.5l19 136q4 28 -20.5 38.5t-54.5 10.5q-36 0 -56.5 -21t-27.5 -74l-8 -59q-8 -59 10.5 -78t51.5 -19zM364 -143q-325 0 -325 325q0 488 448 488q56 0 101 -6.5t90.5 -26.5t75.5 -53t49 -89t19 -131q0 -90 -16 -152.5t-46 -94t-63.5 -44 t-77.5 -12.5q-66 0 -99 35q-48 -36 -128 -36q-36 0 -61.5 6.5t-48 23.5t-31 52.5t-0.5 88.5l10 70q12 85 55 126t108 41q39 0 64 -6.5t31 -13.5l6 -6l2 18q1 3 3 3h84q4 0 4 -3l-35 -252q-9 -67 51 -67q23 0 38.5 6.5t31 27t23 66t7.5 115.5q0 135 -66 185.5t-193 50.5 q-80 0 -140.5 -20t-107 -64t-71 -122t-24.5 -187q0 -255 245 -255q53 0 108 6.5t80 12t31 7.5q4 2 4 -2l10 -71q0 -3 -3 -5q-105 -35 -243 -35z" />
<glyph unicode="A" horiz-adv-x="601" d="M89 0h-112q-4 0 -3 4q0 2 157 336.5t158 335.5q1 4 5 4h126q4 0 5 -4l123 -672q0 -4 -4 -4h-113q-3 0 -4 4l-20 128h-256q-56 -125 -57 -128q-1 -4 -5 -4zM193 226h200l-48 301h-20z" />
<glyph unicode="B" horiz-adv-x="588" d="M162 93h121q22 0 38.5 2.5t34.5 9.5t29.5 22.5t14.5 39.5l8 57q11 78 -97 78h-120zM204 390h115q35 0 52 -3q50 67 50 124q0 47 -23 61t-67 14h-100zM280 0h-246l96 680h233q26 0 46 -2t46 -10.5t42.5 -23t28.5 -43t12 -67.5q0 -44 -16 -83.5t-52 -93.5q33 -20 48 -49 t7 -82l-9 -62q-6 -45 -23.5 -76.5t-37.5 -48.5t-52.5 -26t-58 -11t-64.5 -2z" />
<glyph unicode="C" horiz-adv-x="547" d="M264 -10q-22 0 -40 1t-39.5 4t-37.5 9t-33.5 15t-28.5 22.5t-22.5 32t-14.5 42t-5.5 54t4.5 68.5l29 210q9 64 30.5 110t48 71t64 39.5t69.5 18.5t75 4q115 0 173 -29q3 -3 2 -6q-10 -15 -45 -85q-2 -3 -6 -2q-2 1 -20 5t-52 8t-66 4q-29 0 -49 -4t-44.5 -17.5 t-40.5 -45.5t-23 -83l-27 -188q-8 -40 -2.5 -67.5t13 -43.5t25.5 -25t35.5 -11.5t42.5 -2.5q22 0 46 2.5t42.5 5.5t33.5 6t25 6l9 2q2 2 4 -2q1 -1 10.5 -42t9.5 -43q0 -4 -3 -5q-3 -3 -21.5 -10.5t-66.5 -17.5t-104 -10z" />
<glyph unicode="D" horiz-adv-x="605" d="M165 105h113q66 0 101.5 28.5t48.5 122.5l24 171q4 26 4 46.5t-3 35.5t-8 26t-14 18t-17.5 11.5t-21 7t-23 3t-25.5 0.5h-113zM263 0h-229l96 680h229q24 0 39 -0.5t40.5 -4t40 -10t36 -18t29.5 -29t21 -43t9.5 -59.5t-4.5 -78l-26 -191q-9 -69 -32 -117.5t-48.5 -73 t-64.5 -38t-66.5 -16t-69.5 -2.5z" />
<glyph unicode="E" horiz-adv-x="539" d="M34 0l96 680h414q3 0 3 -4l-13 -94q0 -4 -5 -4h-298l-25 -183h252q3 0 3 -4l-13 -93q0 -4 -5 -4h-252l-27 -193h298q4 0 4 -4l-13 -93q0 -4 -5 -4h-414z" />
<glyph unicode="F" horiz-adv-x="534" d="M38 0q-4 0 -4 4l95 676h414q4 0 4 -4l-13 -94q0 -4 -5 -4h-298l-30 -214h252q4 0 3 -4l-13 -94q0 -4 -4 -4h-253l-36 -258q-1 -4 -4 -4h-108z" />
<glyph unicode="G" horiz-adv-x="599" d="M259 -10q-22 0 -39 1t-38 4t-36.5 8.5t-33.5 14.5t-28.5 22.5t-22 31.5t-14.5 42t-5.5 55t5.5 69l30 210q8 56 25 98t41.5 67.5t49.5 42t58.5 23.5t57 9t55.5 2q54 0 104.5 -7t73 -13.5t25.5 -8.5q3 -1 1 -6l-39 -83q-1 -3 -5 -3q-3 1 -28 5t-68.5 8t-77.5 4 q-29 0 -48.5 -3.5t-44.5 -17t-41.5 -45.5t-23.5 -83l-27 -190q-2 -35 -3 -59.5t7.5 -41.5t17 -27t24.5 -15.5t30 -7t33 -1.5l135 9l24 168h-98q-4 0 -4 4l13 89q0 4 5 4h198l-51 -357q-168 -22 -237 -22z" />
<glyph unicode="H" horiz-adv-x="632" d="M38 0q-4 0 -4 4l95 672q0 4 4 4h108q4 0 4 -4l-40 -284h252l40 284q0 4 4 4h108q4 0 4 -4l-95 -672q0 -4 -4 -4h-108q-5 0 -4 4l40 288h-252l-40 -288q-1 -4 -4 -4h-108z" />
<glyph unicode="I" horiz-adv-x="264" d="M38 0q-4 0 -4 4l95 672q0 4 4 4h108q4 0 4 -4l-95 -672q0 -4 -4 -4h-108z" />
<glyph unicode="J" horiz-adv-x="483" d="M158 -10q-91 0 -157 22q-3 1 -1 6l38 86q2 4 5 2q2 -1 20.5 -3t49 -4.5t56.5 -2.5q31 0 51 4.5t39 25t24 57.5l69 493q1 4 5 4h108q2 0 2 -4l-70 -501q-7 -51 -26 -87t-40.5 -54.5t-54.5 -29t-57.5 -12.5t-60.5 -2z" />
<glyph unicode="K" horiz-adv-x="595" d="M38 0q-4 0 -4 4l95 672q0 4 4 4h108q4 0 4 -4l-40 -283h36q229 279 232 283t6 4h124q3 0 1 -4l-276 -331q195 -339 196 -341q3 -4 -1 -4h-124q-3 0 -6 4l-161 288h-42l-40 -288q-1 -4 -4 -4h-108z" />
<glyph unicode="L" horiz-adv-x="519" d="M34 0l95 676q0 4 5 4h108q3 0 3 -4l-81 -575h298q4 0 4 -4l-13 -93q0 -4 -5 -4h-414z" />
<glyph unicode="M" horiz-adv-x="760" d="M38 0q-4 0 -4 4l95 673q0 3 3 3h135q3 0 5 -3l107 -377h12q206 373 208 376q2 4 7 4h132q4 0 4 -4l-95 -672q0 -4 -4 -4h-107q-3 0 -3 4l63 449h-14q-171 -305 -172 -307q-3 -4 -7 -4h-84q-6 0 -7 5l-86 305h-15l-63 -448q0 -4 -4 -4h-106z" />
<glyph unicode="N" horiz-adv-x="644" d="M36 0q-4 0 -4 4l95 672q0 4 4 4h127q5 0 6 -4l174 -471h12l66 471q0 4 4 4h106q4 0 4 -4l-95 -672q0 -4 -4 -4h-129q-4 0 -5 4l-173 473h-13l-66 -473q-1 -4 -4 -4h-105z" />
<glyph unicode="O" horiz-adv-x="599" d="M271 94q32 0 52.5 4.5t42 19t35 46.5t20.5 82l27 190q2 34 3.5 58.5t-7 41t-16.5 26.5t-24 15t-29.5 6.5t-34.5 1.5q-64 0 -100 -28t-49 -121l-27 -190q-6 -30 -4 -53t4 -39t12 -27t18 -17.5t22 -10t26 -4.5t29 -1zM256 -11q-19 0 -34 0.5t-34 2.5t-33 6t-30.5 10.5 t-28 16.5t-23 23t-18 31.5t-11 41.5t-4 52t5.5 64l30 210q9 65 31 112t47 72t63 39t67.5 17t70.5 3q19 0 33.5 -0.5t33.5 -2.5t33 -6t31 -10t28.5 -15.5t23.5 -22.5t18.5 -31t11.5 -40.5t4.5 -51.5t-5.5 -63l-30 -210q-7 -50 -21 -89t-30 -65t-39.5 -44t-43.5 -27.5t-49 -15 t-49 -6.5t-49 -1z" />
<glyph unicode="P" horiz-adv-x="580" d="M199 353h124q111 0 123 88l7 49q4 29 -2.5 48t-23.5 27t-32.5 10.5t-38.5 2.5h-125zM146 0h-108q-4 0 -4 4l95 676h245q33 0 57.5 -2t56 -12.5t50 -29t28.5 -54t3 -84.5l-9 -65q-25 -181 -246 -181h-129l-35 -248q0 -4 -4 -4z" />
<glyph unicode="Q" horiz-adv-x="595" d="M256 -11q-19 0 -34 0.5t-34 2.5t-33 6t-30.5 10.5t-28 16.5t-23 23t-18 31.5t-11 41.5t-4 52t5.5 64l30 210q9 65 31 112t47 72t63 39t67.5 17t70.5 3q19 0 33.5 -0.5t33.5 -2.5t33 -6t31 -10t28.5 -15.5t23.5 -22.5t18.5 -31t11.5 -40.5t4.5 -51.5t-5.5 -63l-30 -210 q-15 -107 -59 -165q30 -39 37 -46q3 -2 0 -5t-35.5 -31.5t-33.5 -29.5q-2 -3 -5 0l-42 50q-51 -21 -143 -21zM283 152q-3 2 1 6l34 30q34 30 35 31q4 4 4 0q0 -2 44 -53q12 27 20 80l27 190q2 34 3.5 58.5t-7 41t-16.5 26.5t-24 15t-29.5 6.5t-34.5 1.5q-64 0 -100 -28 t-49 -121l-27 -190q-6 -30 -4 -53t4 -39t12 -27t18 -17.5t22 -10t26 -4.5t29 -1q33 0 56 5z" />
<glyph unicode="R" horiz-adv-x="602" d="M198 353h125q110 0 123 90l7 46q4 29 -3 48t-24 27.5t-32.5 11t-37.5 2.5h-126zM145 0h-107q-4 0 -4 4l95 676h245q32 0 56 -2.5t55.5 -13t50 -29.5t29 -56t3.5 -88l-7 -52q-17 -128 -125 -168l83 -267q1 -4 -2 -4h-120q-5 0 -6 4l-71 247h-136l-35 -247q0 -4 -4 -4z" />
<glyph unicode="S" horiz-adv-x="581" d="M246 -10q-136 0 -218 34l-1 1q-2 4 -1 6l10 23q10 22 20 43.5t11 22.5q0 3 4 3q87 -29 192 -29q39 0 63 3.5t46 20t26 47.5l7 52q5 35 -24.5 52.5t-96.5 23.5q-122 12 -163.5 48t-29.5 120l11 77q21 153 245 153q59 0 107.5 -7.5t67 -14t21.5 -9.5q3 -1 1 -5l-39 -85 q-2 -3 -5 -2t-23.5 5.5t-62 9.5t-80.5 5q-106 0 -115 -64l-7 -50q-5 -36 19 -52.5t96 -23.5q122 -13 166 -49t32 -121l-11 -78q-7 -52 -34 -86t-69 -49t-79 -20t-86 -5z" />
<glyph unicode="T" horiz-adv-x="530" d="M171 0q-5 0 -4 4l80 572h-181q-4 0 -4 4l14 96q0 4 4 4h481q3 0 3 -4l-14 -96q0 -4 -3 -4h-184l-80 -572q-1 -4 -4 -4h-108z" />
<glyph unicode="U" horiz-adv-x="620" d="M248 -10q-125 0 -164 61.5t-19 207.5l58 417q2 4 5 4h108q3 0 3 -4l-57 -408q-8 -58 -7 -96.5t21.5 -57.5t66.5 -19h43q67 0 90.5 37t37.5 136l57 408q1 4 5 4h108q3 0 3 -4l-58 -417q-10 -70 -25 -116t-43 -83t-74.5 -53.5t-115.5 -16.5h-43z" />
<glyph unicode="V" horiz-adv-x="599" d="M193 0q-3 0 -3 3l-117 673q0 4 4 4h113q3 0 4 -4l80 -506h18q223 503 224 506q1 4 6 4h112q4 0 2 -4l-307 -672q-3 -4 -7 -4h-129z" />
<glyph unicode="W" horiz-adv-x="821" d="M112 0q-5 0 -5 4l-32 672q0 4 4 4h112q4 0 5 -4l18 -492h18q162 352 163 354q3 4 5 4h92q3 0 4 -4l62 -354h19q157 489 158 492q1 4 5 4h112q5 0 3 -4l-221 -672q-1 -4 -5 -4h-141q-4 0 -5 4l-58 344h-12q-153 -339 -154 -343q-3 -5 -7 -5h-140z" />
<glyph unicode="X" horiz-adv-x="565" d="M-17 0q-4 0 -3 4l248 349q-137 320 -137 323q-4 4 3 4h118q4 0 5 -4l87 -211h6q145 208 147 211q3 4 5 4h119q5 0 3 -4l-229 -323q148 -347 149 -349q1 -4 -2 -4h-119q-5 0 -6 4l-98 238h-6q-164 -236 -165 -238q-3 -4 -6 -4h-119z" />
<glyph unicode="Y" horiz-adv-x="544" d="M179 0q-4 0 -4 4l37 263q-141 406 -142 409q-2 4 3 4h116q4 0 5 -4l93 -279h6q167 276 169 279q3 4 5 4h114q4 0 3 -4l-257 -409l-37 -263q0 -4 -3 -4h-108z" />
<glyph unicode="Z" horiz-adv-x="535" d="M9 0q-3 0 -3 3l14 98q0 4 4 8l367 458l1 9h-290q-3 0 -3 4l14 95q0 5 3 5h421q5 0 5 -5l-14 -95q0 -7 -4 -11l-366 -457l-2 -9h301q4 0 4 -4l-14 -95q0 -4 -4 -4h-434z" />
<glyph unicode="[" horiz-adv-x="294" d="M23 -94l119 844h176q3 0 3 -4l-11 -79q0 -4 -5 -4h-82l-94 -670h82q4 0 4 -4l-11 -79q0 -4 -5 -4h-176z" />
<glyph unicode="\" horiz-adv-x="417" d="M313 -5h-100q-4 0 -3 4l-90 683q0 4 3 4h99q4 0 4 -78v-49q0 -444 68 -546q12 -18 19 -18z" />
<glyph unicode="]" horiz-adv-x="294" d="M165 -94h-176q-4 0 -4 4l11 79q0 4 5 4h82l94 670h-82q-4 0 -3 4l11 79q0 4 4 4h176z" />
<glyph unicode="^" d="M51 265l224 411q2 4 5 4h82q2 0 4 -4l107 -411q0 -4 -3 -4h-95q-2 0 -5 4l-68 269h-4q-143 -267 -144 -269q-3 -4 -6 -4h-94q-4 0 -3 4z" />
<glyph unicode="_" horiz-adv-x="493" d="M-51 -146q-4 0 -4 4l11 74q0 4 4 4h475q4 0 4 -4l-11 -74q0 -4 -4 -4h-475z" />
<glyph unicode="`" horiz-adv-x="445" d="M262 556l-71 141q-3 4 2 4h97q3 0 4 -4l53 -141q1 -4 -2 -4h-78q-3 0 -5 4z" />
<glyph unicode="a" horiz-adv-x="507" d="M204 75q22 0 37 1.5t31.5 6t26 15.5t12.5 28l10 77q-66 14 -113 14q-30 0 -51 -14.5t-24 -35.5l-4 -31q-3 -26 15 -43.5t60 -17.5zM159 -10q-71 0 -106.5 35t-27.5 91l8 52q9 58 56.5 90.5t107.5 32.5q24 0 57.5 -3.5t55.5 -7.5l21 -3l7 52q6 44 -15.5 58.5t-76.5 14.5 q-18 0 -38 -1.5t-35.5 -3.5t-28 -4t-20 -3.5t-8.5 -1.5q-3 0 -3 3q-1 4 -5 36t-4 35q-1 3 3 5q75 25 164 25q33 0 55 -2t50 -11t43.5 -25.5t23.5 -48.5t2 -77l-45 -324q-1 -4 -5 -4h-99q-3 0 -3 4l2 16q-28 -30 -136 -30z" />
<glyph unicode="b" horiz-adv-x="528" d="M255 88q20 0 32 3t28 13t26.5 35.5t16.5 66.5l10 70q7 33 3 54.5t-8 34t-16.5 18.5t-21.5 7.5t-24 1.5t-41.5 -5t-45.5 -10l-19 -5l-32 -227q-4 -30 22 -43.5t70 -13.5zM139 0h-103q-4 0 -4 4l95 672q0 4 5 4h103q4 0 3 -4l-29 -208q85 19 123 19q17 0 29.5 -1t30 -3.5 t28.5 -8.5t25.5 -16t20.5 -24.5t14 -36t5.5 -49.5t-4.5 -64l-12 -85q-8 -57 -24.5 -97t-34.5 -61t-45.5 -32.5t-47 -13.5t-49.5 -2q-98 0 -122 32l-3 -22q0 -3 -4 -3z" />
<glyph unicode="c" horiz-adv-x="469" d="M219 -8q-20 0 -34.5 0.5t-33 3t-31 6.5t-27.5 11.5t-23 18t-18 25t-11.5 33.5t-4 43.5t3.5 55.5l15 109q7 52 26 89t41 57t54 31t56.5 13.5t57.5 2.5q80 0 143 -21q4 -3 3 -6l-33 -73q-1 -3 -5 -3q-24 8 -117 8q-102 0 -116 -107l-13 -93q-5 -36 0 -59.5t20 -33.5t29 -13 t36 -3q19 0 38.5 1t34 2.5t26 3.5t18.5 3l7 1q5 0 5 -3q0 -2 6 -38t6 -37q0 -4 -3 -5q-69 -23 -156 -23z" />
<glyph unicode="d" horiz-adv-x="528" d="M412 0h-103q-4 0 -4 3l3 22q-13 -14 -48.5 -24t-81.5 -10q-16 0 -27 0.5t-26 3t-25.5 6.5t-22.5 11.5t-19.5 18t-14.5 26t-10 35.5t-2.5 47t4.5 59l12 87q10 68 31.5 112t54 62t57.5 23t62 5q17 0 46.5 -4.5t51.5 -9.5l21 -5l29 208q1 4 5 4h103q3 0 3 -4l-94 -672 q-1 -4 -5 -4zM217 86q100 0 108 59l32 227q-66 20 -99 20q-19 0 -31.5 -3t-27.5 -13.5t-25.5 -35t-15.5 -63.5l-10 -73q-2 -28 -3.5 -48t5 -33t11.5 -20.5t16.5 -11t19 -4.5t20.5 -1z" />
<glyph unicode="e" horiz-adv-x="503" d="M155 277h184q10 69 -10 93.5t-63 24.5q-46 0 -73.5 -23.5t-37.5 -94.5zM222 -9q-32 0 -57 3t-55.5 15.5t-48.5 34t-27.5 62t-1.5 95.5l12 84q30 205 236 205q16 0 28 -0.5t29 -3t29 -7t27 -12t23.5 -18.5t19 -27t13 -36.5t5 -46.5t-4.5 -59l-11 -77h-294q-10 -73 15 -96 t77 -23q22 0 45.5 1.5t41.5 3.5t33 4t24 3l9 2q4 1 4 -3q1 -3 4.5 -36t3.5 -36q0 -5 -3 -6q-78 -26 -176 -26z" />
<glyph unicode="f" horiz-adv-x="334" d="M54 0q-4 0 -3 4l55 393h-47q-3 0 -3 4l11 77q0 4 4 4h48l6 42q6 44 20.5 75.5t30.5 48t39.5 25t40 10.5t39.5 2q14 0 32.5 -2t30.5 -3.5t13 -2.5q2 -1 2 -4q0 -2 -10 -38t-12 -42q-1 -3 -5 -3q-1 0 -10.5 1t-22.5 1.5t-22 0.5q-47 0 -56 -68l-6 -43h92q3 0 3 -4l-11 -77 q0 -4 -4 -4h-93l-55 -393q-1 -4 -3 -4h-104z" />
<glyph unicode="g" horiz-adv-x="522" d="M208 88q15 0 41.5 5t45.5 9l19 5l32 229q8 56 -92 56q-20 0 -33 -3t-28.5 -14t-26 -36t-15.5 -65l-9 -70q-10 -72 7.5 -94t58.5 -22zM169 -203q-98 0 -167 23q-4 2 -2 5q0 1 18 38.5t18 38.5q3 4 5 3q42 -14 138 -14q33 0 53.5 4t39.5 24t24 57l5 38q-83 -18 -124 -18 q-16 0 -28.5 0.5t-28 3t-26.5 6.5t-23 11.5t-20 17.5t-15 25.5t-10 34.5t-2.5 44.5t4.5 56.5l12 84q10 68 29.5 112t49 63.5t56.5 25.5t66 6q98 0 122 -31l3 22q0 4 5 4h103q3 0 3 -4l-70 -502q-7 -50 -25.5 -84.5t-39.5 -53t-54.5 -28t-57.5 -11.5t-61 -2z" />
<glyph unicode="h" horiz-adv-x="539" d="M36 0q-4 0 -4 4l95 672q0 4 4 4h103q4 0 4 -4l-30 -215q85 26 127 26q17 0 29 -0.5t28.5 -3.5t27 -8t24 -14t19 -22t13 -31.5t5.5 -43t-4 -56.5l-43 -304q0 -4 -4 -4h-103q-4 0 -4 4l42 298q8 57 -7.5 74t-53.5 17q-16 0 -43 -6.5t-47 -12.5l-19 -6l-52 -364q0 -4 -4 -4 h-103z" />
<glyph unicode="i" horiz-adv-x="255" d="M36 0q-4 0 -4 4l67 474q0 4 5 4h103q3 0 3 -4l-67 -474q0 -4 -4 -4h-103zM115 578q-4 0 -3 4l13 94q0 4 4 4h107q3 0 3 -4l-13 -94q-1 -4 -4 -4h-107z" />
<glyph unicode="j" horiz-adv-x="265" d="M-21 -186q-10 0 -21 1t-20 2t-16.5 2t-12.5 2l-5 1q-3 0 -3 3q0 2 11.5 41.5t12.5 41.5q2 3 4 3q1 0 10 -0.5t22 -1.5t22 -1q46 0 56 70l70 500q1 4 5 4h103q3 0 3 -4l-70 -500q-6 -45 -21 -77.5t-31 -49t-40 -25.5t-40 -10.5t-39 -1.5zM125 578q-3 0 -2 4l13 94q0 4 4 4 h107q3 0 3 -4l-13 -94q-1 -4 -5 -4h-107z" />
<glyph unicode="k" horiz-adv-x="513" d="M36 0q-4 0 -4 4l95 672q0 4 4 4h103q4 0 4 -4l-53 -378h37q142 177 144 180q3 4 6 4h118q6 0 2 -4l-185 -226q140 -246 141 -248q2 -4 -1 -4h-122q-3 0 -6 4l-111 201h-37l-28 -201q-1 -4 -4 -4h-103z" />
<glyph unicode="l" horiz-adv-x="297" d="M176 -6q-22 0 -36.5 1t-30.5 4.5t-25.5 10.5t-18.5 19t-12.5 29.5t-3.5 42.5t5 58l72 517q1 4 5 4h102q4 0 4 -4l-73 -518q-6 -42 4 -56t32 -14q7 0 18.5 1t20.5 1.5t10 0.5q4 0 4 -3q1 -2 1 -81q0 -3 -3 -5q-24 -8 -75 -8z" />
<glyph unicode="m" horiz-adv-x="825" d="M36 0q-4 0 -4 4l67 474q0 4 5 4h103q4 0 3 -4l-2 -17q84 26 126 26q52 0 79 -9.5t44 -34.5q99 44 163 44q17 0 30 -1t29.5 -3.5t27 -8t23 -14.5t18.5 -22.5t12.5 -31.5t4.5 -42.5t-4 -55.5l-43 -304q0 -4 -4 -4h-103q-3 0 -3 4l42 298q8 58 -7.5 74.5t-53.5 16.5 q-16 0 -44 -7.5t-48 -15.5l-20 -7q2 -22 -3 -55l-43 -304q0 -4 -4 -4h-103q-4 0 -4 4l42 298q2 32 1.5 50.5t-11.5 27.5t-21 11t-28 2q-16 0 -43 -6.5t-46 -12.5l-19 -6l-52 -364q0 -4 -4 -4h-103z" />
<glyph unicode="n" horiz-adv-x="539" d="M36 0q-4 0 -4 4l67 474q0 4 5 4h103q3 0 3 -4l-2 -17q86 26 127 26q15 0 25.5 -0.5t25 -2.5t24.5 -5.5t22 -10t19.5 -15.5t14.5 -22.5t10.5 -31t3.5 -40.5t-4 -51l-43 -304q0 -4 -4 -4h-102q-4 0 -4 4l42 298q8 57 -7 74t-53 17q-16 0 -43.5 -6.5t-47.5 -12.5l-19 -6 l-52 -364q0 -4 -4 -4h-103z" />
<glyph unicode="o" horiz-adv-x="509" d="M224 87q23 0 38 3t31.5 14t27 36t15.5 65l10 75q10 73 -10 94.5t-67 21.5q-48 0 -75.5 -22t-37.5 -94l-10 -75q-2 -27 -3 -46.5t5 -33t11.5 -21t17.5 -11.5t22 -5t25 -1zM211 -8q-47 0 -77 6t-59.5 25.5t-39.5 63.5t-1 112l12 88q8 54 25.5 93t38.5 60t52.5 33t57.5 15 t63 3q19 0 32.5 -0.5t32 -3t30.5 -6.5t27.5 -11.5t23.5 -18t18 -25.5t11.5 -35t4.5 -45.5t-4 -57.5l-12 -89q-8 -56 -25.5 -96t-38 -61t-52.5 -33t-57.5 -14.5t-62.5 -2.5z" />
<glyph unicode="p" horiz-adv-x="528" d="M103 482h103q4 0 4 -4l-3 -22q29 31 130 31q18 0 30 -1t29 -3.5t28.5 -8.5t24 -15.5t19.5 -25.5t12.5 -36.5t5 -50.5t-5.5 -66l-12 -84q-8 -56 -25.5 -95.5t-36 -60t-46.5 -32t-48 -14t-49 -2.5q-17 0 -46.5 4.5t-50.5 9.5l-22 4l-29 -204q0 -4 -4 -4h-103q-4 0 -4 4 l95 672q0 4 4 4zM298 392q-100 0 -108 -55l-33 -232q67 -18 100 -18q19 0 31.5 3.5t27.5 14t25.5 35.5t15.5 64l10 70q2 28 3.5 48t-5 33t-11.5 20.5t-16.5 11t-19 4.5t-20.5 1z" />
<glyph unicode="q" horiz-adv-x="528" d="M260 392q-19 0 -31.5 -3t-28.5 -13.5t-26.5 -36t-16.5 -65.5l-10 -72q-7 -32 -2.5 -53.5t8.5 -34t16.5 -18.5t21.5 -7.5t24 -1.5t41 4.5t45 8.5l19 5l32 232q4 30 -21.5 42.5t-70.5 12.5zM377 482h103q3 0 3 -4l-94 -672q-1 -4 -5 -4h-103q-4 0 -3 4l28 204 q-85 -18 -123 -18q-15 0 -26.5 0.5t-26.5 3t-26 6t-23.5 11t-20.5 17.5t-15.5 25.5t-10.5 35t-3 46t4 57.5l12 86q8 57 24.5 97.5t34.5 61.5t45.5 32.5t47 13.5t48.5 2q100 0 122 -31l3 22q0 4 5 4z" />
<glyph unicode="r" horiz-adv-x="407" d="M36 0q-4 0 -4 4l67 474q0 4 5 4h103q3 0 3 -4l-3 -20q64 29 105 29q68 0 94 -17q2 -2 2 -3q0 -6 -36 -78q-1 -4 -5 -3q-24 8 -78 8q-16 0 -40 -8t-39 -16l-16 -7l-51 -359q0 -4 -4 -4h-103z" />
<glyph unicode="s" horiz-adv-x="483" d="M203 -8q-116 0 -182 22q-5 2 -1 5q0 2 14.5 37.5t16.5 38.5t6 3q4 -1 24 -5t59 -8t74 -4q43 0 66.5 9t26.5 36l3 25q2 20 -17 31.5t-78 18.5q-79 10 -117 37.5t-30 82.5l7 49q17 120 196 120q28 0 54.5 -2.5t45 -5.5t32.5 -6t22 -6l8 -2l1 -1q0 -3 -15 -39t-16 -37 q0 -2 -3 -2l-8 1q-9 2 -23 4t-31 4t-38.5 3.5t-40.5 1.5q-74 0 -80 -41l-4 -26q-3 -19 18.5 -29.5t75.5 -16.5q81 -9 119 -37.5t30 -82.5l-7 -49q-6 -42 -25 -69.5t-50.5 -39.5t-60.5 -16t-72 -4z" />
<glyph unicode="t" horiz-adv-x="331" d="M189 -5q-22 0 -35.5 1t-30 4t-26 9.5t-18.5 18.5t-12.5 29.5t-4 43t4.5 58.5l33 238h-48q-4 0 -4 4l11 77q0 4 5 4h48l22 154q0 4 4 4h103q3 0 3 -4l-22 -154h91q3 0 3 -4l-11 -77q0 -4 -4 -4h-91l-33 -238q-4 -31 1.5 -47.5t13.5 -19.5t21 -3q9 0 21 0.5t20 1.5t9 1 q2 0 3 -4q0 -1 0.5 -40.5t1.5 -40.5q1 -3 -4 -5q-28 -7 -75 -7z" />
<glyph unicode="u" horiz-adv-x="538" d="M491 482q3 0 3 -4l-67 -474q0 -4 -4 -4h-102q-4 0 -4 4l2 13q-86 -25 -127 -25q-35 0 -58 4.5t-48.5 20.5t-35 55t-0.5 99l43 307q0 4 5 4h103q3 0 3 -4l-42 -300q-8 -57 7.5 -74t52.5 -17q16 0 43.5 5.5t46.5 11.5l20 6l52 368q0 4 5 4h102z" />
<glyph unicode="v" horiz-adv-x="488" d="M154 0q-2 0 -3 4q0 1 -50 236.5t-51 237.5q-1 4 2 4h109q6 0 6 -4l56 -316h12q142 314 143 316q3 4 5 4h109q4 0 1 -4q-1 -2 -116.5 -237t-116.5 -237q-1 -4 -5 -4h-101z" />
<glyph unicode="w" horiz-adv-x="710" d="M117 0q-3 0 -4 4l-51 474q0 4 4 4h105q4 0 4 -4l28 -314h9q115 218 116 221q1 4 4 4h76q3 0 4 -4l56 -221h9q109 311 111 314q2 4 7 4h105q2 0 1 -4q-1 -2 -92 -237.5t-91 -236.5q-1 -4 -5 -4h-98q-3 0 -4 4l-56 245h-9q-127 -243 -128 -245q-3 -4 -4 -4h-97z" />
<glyph unicode="x" horiz-adv-x="487" d="M-13 0q-3 0 -1 4l191 247q-110 224 -112 227q-2 4 2 4h115q2 0 5 -4l60 -134h10q99 131 100 134q4 4 6 4h113q4 0 0 -4l-176 -227q122 -245 124 -247q0 -4 -3 -4h-113q-2 0 -5 4l-72 153h-11q-112 -150 -114 -153q-3 -4 -7 -4h-112z" />
<glyph unicode="y" horiz-adv-x="487" d="M4 -180q-3 0 -3 3q0 2 11 44l11 42q0 4 5 4h26q48 0 80 67l19 39q-102 456 -103 459q-2 4 3 4h108q4 0 4 -4l61 -308h10q142 305 142 308q2 4 6 4h107q2 0 1 -4q-6 -18 -268 -529q-24 -46 -44 -73.5t-42.5 -39t-39 -14t-48.5 -2.5h-46z" />
<glyph unicode="z" horiz-adv-x="468" d="M16 0q-4 0 -4 4l12 82q0 3 6 8l266 288l1 7h-217q-3 0 -3 4l12 85q0 4 4 4h349q3 0 3 -4l-12 -84q0 -3 -4 -7l-266 -287l-1 -8h227q4 0 3 -4l-12 -84q0 -4 -4 -4h-360z" />
<glyph unicode="{" horiz-adv-x="338" d="M184 -91q-55 0 -78 28.5t-14 94.5l23 163q6 45 -4.5 67.5t-48.5 22.5q-3 0 -3 4l12 81q0 4 3 4q38 0 55 22.5t24 67.5l23 162q10 66 40.5 95t85.5 29h58q4 0 4 -4l-11 -78q0 -4 -5 -4h-31q-40 0 -47 -46l-24 -165q-8 -61 -25.5 -84.5t-51.5 -37.5v-4q20 -9 29.5 -19 t15.5 -35.5t-2 -66.5l-24 -166q-7 -46 36 -46h30q4 0 3 -4l-10 -77q-2 -4 -5 -4h-58z" />
<glyph unicode="|" horiz-adv-x="291" d="M50 -94q-4 0 -4 4l118 836q0 4 4 4h85q4 0 4 -4l-118 -836q0 -4 -4 -4h-85z" />
<glyph unicode="}" horiz-adv-x="338" d="M48 -91h-58q-4 0 -4 4l11 77q0 4 5 4h30q41 0 48 46l23 166q8 60 25.5 83.5t50.5 37.5l1 4q-29 14 -39.5 37.5t-2.5 84.5l23 165q7 46 -34 46h-31q-4 0 -4 4l11 78q0 4 5 4h58q55 0 77.5 -29t13.5 -95l-22 -162q-7 -45 4 -67.5t49 -22.5q3 0 3 -4l-11 -81q-1 -4 -4 -4 q-39 0 -56 -23t-23 -67l-23 -163q-9 -66 -40 -94.5t-86 -28.5z" />
<glyph unicode="~" d="M72 283q1 8 8 15q11 11 42.5 28t64.5 17q35 0 87 -29t81 -29t67 23l37 23q3 0 3 -6l-8 -55q-2 -11 -8 -16q-6 -6 -18.5 -15t-39 -20.5t-51.5 -11.5q-34 0 -84.5 30t-79.5 30q-21 0 -45 -11t-41 -22.5t-20 -11.5t-3 6z" />
<glyph unicode="&#xa1;" horiz-adv-x="279" d="M147 680h105q3 0 3 -4l-15 -104q0 -4 -3 -4h-105q-4 0 -4 4l15 104q0 4 4 4zM126 484h92q3 0 3 -4l-67 -476q0 -4 -4 -4h-92q-4 0 -4 4l67 476q0 4 5 4z" />
<glyph unicode="&#xa2;" horiz-adv-x="515" d="M192 -100q-2 0 -2 4l13 92q-15 1 -25.5 2.5t-27 5t-26.5 9t-24 15.5t-20 24t-14 34t-6.5 45.5l3.5 59.5l14 103q8 60 30 100.5t54 58.5t55.5 24t54.5 9l13 90q0 4 4 4h63q3 0 3 -4l-13 -89q33 -2 61.5 -7t40 -9t14.5 -6q3 -1 1 -5l-36 -74q-1 -2 -5 -2l-6 1q-6 1 -16 2 t-23 2t-32 2t-38 1q-46 0 -76 -21.5t-39 -85.5l-12 -86q-9 -67 14.5 -88.5t70.5 -21.5q19 0 38.5 1.5t34 3.5t26 3.5t17.5 2.5l7 2q5 0 4 -3l16 -75q0 -6 -4 -6l-6 -2q-6 -2 -16.5 -5t-25 -6.5t-35.5 -6t-43 -3.5l-13 -91q0 -4 -5 -4h-63z" />
<glyph unicode="&#xa3;" d="M64 0q-3 0 -3 3l38 271h-35q-2 0 -2 4l10 73q0 4 4 4h35l24 173q6 43 25.5 74t42 46.5t54.5 24.5t53.5 10.5t48.5 1.5q100 0 162 -31q3 -1 1 -6q0 -1 -8.5 -22t-16.5 -41.5t-8 -21.5q-1 -2 -5 -2q-63 21 -137 21q-42 0 -67 -13.5t-31 -55.5l-22 -158h154q3 0 3 -4 l-10 -73q0 -4 -5 -4h-154l-24 -171h247q4 0 4 -4l-14 -95q0 -4 -4 -4h-360z" />
<glyph unicode="&#xa4;" horiz-adv-x="460" d="M220 215q36 0 57.5 14t26.5 56l5 37q5 41 -12 54t-51 13q-76 0 -85 -67l-5 -37q-6 -42 11 -56t53 -14zM125 80h-73q-5 0 -4 4q11 56 49 89q-33 33 -23 101l9 60q10 65 51 97q-25 28 -25 76q0 18 5 18h72q4 0 4 -4q1 -28 17.5 -39.5t50.5 -11.5t52 11t25 40q1 4 5 4h73 q4 0 3 -4q-9 -54 -48 -89q31 -29 22 -98l-8 -60q-9 -71 -51 -102q25 -30 25 -72q0 -20 -5 -20h-73q-4 0 -4 4q-1 29 -17.5 39.5t-49.5 10.5q-20 0 -33 -2.5t-26 -14t-18 -33.5q-1 -4 -5 -4z" />
<glyph unicode="&#xa5;" horiz-adv-x="549" d="M181 0q-3 0 -3 4l19 136h-123q-4 0 -4 4l9 63q0 4 5 4h123l7 51h-123q-4 0 -4 4l9 63q0 4 5 4h90q-117 341 -118 343q-2 4 4 4h115q2 0 4 -4l94 -280h4q169 277 171 280q2 4 5 4h115q3 0 1 -4l-214 -343h87q4 0 3 -4l-9 -63q0 -4 -4 -4h-119l-7 -51h119q3 0 3 -4l-9 -63 q0 -4 -4 -4h-120l-19 -136q0 -4 -4 -4h-108z" />
<glyph unicode="&#xa6;" horiz-adv-x="291" d="M49 -94q-3 0 -3 4l51 357q0 4 3 4h85q4 0 4 -4l-51 -357q0 -4 -4 -4h-85zM117 389q-3 0 -3 4l50 353q0 4 3 4h85q4 0 4 -4l-50 -353q0 -4 -4 -4h-85z" />
<glyph unicode="&#xa7;" horiz-adv-x="514" d="M30 20q-3 2 -2 6l36 73q1 3 5 3q2 -1 22.5 -5.5t59.5 -9t74 -4.5q45 0 66 9.5t25 35.5l3 22q4 23 -17.5 33.5t-76.5 17.5q-33 4 -55.5 9.5t-48.5 18t-37.5 35.5t-6.5 56l7 47q8 52 42 77q-28 24 -21 73l6 48q15 120 196 120q89 0 161 -24q1 -1 1 -4q0 -1 -8 -19t-16 -35 t-8 -18q0 -3 -4 -3q-2 1 -20.5 4.5t-52.5 7.5t-65 4q-75 0 -80 -41l-3 -24q-3 -21 20 -30.5t73 -15.5q34 -4 60 -10.5t49.5 -19.5t34 -35.5t6.5 -53.5l-7 -49q-7 -52 -40 -78q26 -24 19 -70l-7 -48q-6 -43 -25.5 -70.5t-51.5 -39.5t-60.5 -15.5t-70.5 -3.5q-104 0 -182 26z M321 279q26 10 31 46l3 22q1 5 -0.5 9.5t-6 8t-9.5 6t-15 6t-19 6t-24.5 7.5t-28.5 9l-27 5q-7 -1 -15 -5t-17 -14.5t-11 -25.5l-3 -23q-2 -19 22 -30.5t75 -17.5q14 -2 29 -5.5t16 -3.5z" />
<glyph unicode="&#xa8;" horiz-adv-x="445" d="M126 577q-4 0 -3 4l13 95q1 4 5 4h84q3 0 3 -4l-13 -95q-1 -4 -5 -4h-84zM318 577q-4 0 -3 4l13 95q1 4 5 4h83q3 0 3 -4l-13 -95q-1 -4 -5 -4h-83z" />
<glyph unicode="&#xa9;" horiz-adv-x="780" d="M446 685q123 0 203 -87.5t80 -216.5q0 -156 -115.5 -271.5t-264.5 -115.5q-123 0 -203.5 88t-80.5 216q0 77 32 149t84 124t122 83t143 31zM358 54q123 0 217.5 95.5t94.5 224.5q0 106 -66 178.5t-166 72.5q-124 0 -219 -95.5t-95 -224.5q0 -106 66.5 -178.5t167.5 -72.5 zM380 149q-73 0 -111.5 31.5t-26.5 122.5l10 78q19 150 182 150q75 0 109 -17q2 -1 2 -4q-1 0 -7 -14l-12 -28l-7 -15q-1 -1 -5 -1h-5q-5 1 -13 2.5t-18 2.5t-24 1.5t-28 0.5q-78 0 -90 -84l-10 -68q-4 -29 -0.5 -47.5t15.5 -26t23 -9.5t29 -2q15 0 30 1t26 2t19.5 2.5 t13.5 2.5l5 1q4 0 4 -2t4.5 -29t5.5 -28q0 -4 -2 -4q-38 -19 -119 -19z" />
<glyph unicode="&#xaa;" horiz-adv-x="297" d="M158 430q64 0 70 38l7 47q-46 8 -75 8q-20 0 -33.5 -9.5t-15.5 -23.5l-3 -20q-3 -16 9 -28t41 -12zM135 385q-43 0 -64 21t-16 55l4 30q4 34 32.5 53.5t64.5 19.5l83 -9l4 30q4 30 -9.5 39.5t-47.5 9.5q-11 0 -23 -1t-21 -2.5t-16 -3t-12 -2.5l-4 -1q-3 -2 -3 2l-3 16 q-2 17 -3 20q1 2 2 3q32 16 96 16q19 0 32 -1t29 -6.5t24.5 -15.5t13 -28.5t0.5 -44.5l-27 -193q0 -2 -3 -2h-50q-2 0 -2 2l2 15q-18 -22 -83 -22z" />
<glyph unicode="&#xab;" horiz-adv-x="567" d="M507 487q1 -1 25 -28.5t24 -28.5q2 -3 -1 -6l-175 -160q129 -158 130 -160q3 -1 -1 -5l-65 -58q-3 -3 -4 0l-181 220q-3 3 0 6l243 220q3 3 5 0zM280 487l50 -57q2 -3 -1 -6l-175 -160q128 -158 130 -160q3 -1 -1 -5l-65 -58q-3 -3 -4 0l-181 220q-3 3 0 6l243 220 q2 2 4 0z" />
<glyph unicode="&#xac;" d="M369 230h-315q-3 0 -3 4l12 85q0 4 4 4h407q4 0 3 -4l-30 -217q0 -4 -5 -4h-88q-3 0 -3 4z" />
<glyph unicode="&#xad;" horiz-adv-x="378" d="M42 228q-3 0 -3 4l12 86q0 4 4 4h278q4 0 4 -4l-12 -86q0 -4 -5 -4h-278z" />
<glyph unicode="&#xae;" horiz-adv-x="435" d="M218 498h34q30 0 33 26l2 14q1 11 -3.5 17t-10 7.5t-13.5 1.5h-33zM201 386h-38q-1 0 -1 1l30 213h75q13 0 22 -1.5t20.5 -7t16 -19t2.5 -33.5l-2 -16q-5 -41 -38 -53l23 -83q0 -1 -1 -1h-42q-1 0 -1 1l-19 75h-35l-11 -75zM224 335q69 0 120.5 52t51.5 124 q0 58 -36 97.5t-92 39.5q-67 0 -119.5 -52.5t-52.5 -123.5q0 -58 36.5 -97.5t91.5 -39.5zM273 684q69 0 114 -49t45 -120q0 -88 -64.5 -152.5t-148.5 -64.5q-68 0 -113 49t-45 120q0 88 64 152.5t148 64.5z" />
<glyph unicode="&#xaf;" horiz-adv-x="445" d="M401 590h-271q-4 0 -4 4l11 76q0 4 5 4h271q3 0 3 -4l-11 -76q0 -4 -4 -4z" />
<glyph unicode="&#xb0;" horiz-adv-x="415" d="M230 478q26 0 41 9.5t19 39.5l6 42q4 28 -7 38t-36 10q-55 0 -62 -48l-6 -42q-4 -30 8 -39.5t37 -9.5zM220 405q-54 0 -84.5 23t-21.5 89l9 63q15 109 141 109q24 0 41.5 -3.5t35.5 -14t25.5 -33.5t2.5 -58l-9 -63q-5 -36 -19 -59.5t-35 -34.5t-40.5 -14.5t-45.5 -3.5z " />
<glyph unicode="&#xb1;" d="M205 158q-3 0 -3 4l22 155h-158q-3 0 -3 4l12 86q0 4 4 4h158l22 154q0 4 4 4h85q3 0 3 -4l-22 -154h157q4 0 4 -4l-12 -86q0 -4 -5 -4h-157l-22 -155q0 -4 -4 -4h-85zM22 0q-4 0 -4 4l12 83q0 4 5 4h407q3 0 3 -4l-12 -83q0 -4 -4 -4h-407z" />
<glyph unicode="&#xb2;" horiz-adv-x="306" d="M261 270h-223l-2 1l7 51q0 1 3 4q133 129 164 167q28 35 31 55l5 34q3 20 -6.5 30.5t-21.5 12.5t-30 2t-40.5 -3.5t-35.5 -6.5t-14 -4q-3 0 -3 2q0 1 -2 21.5t-2 21.5q0 2 1 3q40 20 104 20q23 0 41 -3t37 -12t27.5 -29t4.5 -49l-6 -44q-3 -24 -31 -61.5t-54.5 -64.5 t-88.5 -89l-1 -6h143q2 0 2 -2l-7 -49q0 -2 -2 -2z" />
<glyph unicode="&#xb3;" horiz-adv-x="310" d="M43 284q-1 1 -1 2t8 23l9 22q0 1 3 1l6 -1q5 -1 14.5 -3t20.5 -4t25 -3t26 -1q66 0 72 45l5 33q8 54 -50 54h-43q-3 0 -3 2l6 47q0 2 4 2h44q19 0 35 12.5t20 34.5l5 33q3 20 -7.5 30.5t-21.5 12.5t-28 2q-19 0 -41.5 -3t-35.5 -6t-14 -4q-2 -1 -2 1t-2 23t-2 22t1 2 t13 5t37.5 8.5t52.5 4.5q23 0 40 -2.5t36 -11t27.5 -28t4.5 -49.5l-6 -40q-3 -19 -12.5 -36t-18.5 -24l-8 -7l-1 -4q4 -2 9.5 -7t13.5 -25t4 -46l-6 -43q-4 -30 -18 -49.5t-35.5 -28t-39.5 -11t-42 -2.5q-29 0 -55 4.5t-38 8.5z" />
<glyph unicode="&#xb4;" horiz-adv-x="445" d="M260 556q-4 -4 -7 -4h-77q-3 0 -2 4l92 141q3 4 7 4h96q6 0 2 -4z" />
<glyph unicode="&#xb6;" horiz-adv-x="607" d="M200 -181q-4 0 -4 4l59 419q-27 0 -52 4t-53 16t-47.5 31t-29 52.5t-3.5 77.5l11 79q7 52 33.5 89.5t63.5 55t71 25t69 7.5h277q3 0 3 -4l-120 -852q0 -4 -4 -4h-94q-4 0 -3 4l107 763h-79l-107 -763q0 -4 -4 -4h-94z" />
<glyph unicode="&#xb7;" horiz-adv-x="241" d="M60 208q-4 0 -3 4l15 108q0 4 5 4h100q3 0 3 -4l-15 -108q0 -4 -5 -4h-100z" />
<glyph unicode="&#xb8;" horiz-adv-x="445" d="M179 -156h-97q-4 0 -2 4l95 158q3 4 6 4h78q3 0 2 -4l-76 -158q-1 -4 -6 -4z" />
<glyph unicode="&#xb9;" horiz-adv-x="298" d="M194 270h-51q-3 0 -3 2l48 340q-79 -54 -80 -55q-2 0 -3 1q0 1 -3 24t-3 24t3 4l93 67q1 1 5 1h51q2 0 2 -2l-57 -404q0 -2 -2 -2z" />
<glyph unicode="&#xba;" horiz-adv-x="296" d="M168 436q32 0 50.5 14.5t24.5 63.5l5 42q6 47 -7 61.5t-44 14.5q-32 0 -51 -14.5t-25 -61.5l-5 -42q-6 -49 7.5 -63.5t44.5 -14.5zM161 387q-28 0 -45.5 3.5t-34.5 15t-23 38t0 67.5l7 49q11 75 46 98.5t93 23.5q14 0 24.5 -0.5t23.5 -3.5t21 -8t17.5 -13.5t12 -21.5 t5.5 -31.5t-2 -42.5l-7 -50q-6 -42 -19 -68.5t-34 -37.5t-39 -14.5t-46 -3.5z" />
<glyph unicode="&#xbb;" horiz-adv-x="562" d="M276 41l-49 57q-2 3 1 6l175 160q-128 158 -130 160q-3 2 0 5l65 58q4 1 5 0q2 -3 91 -111t90 -109q3 -3 0 -6l-243 -220q-3 -3 -5 0zM55 41q-2 2 -24.5 29t-23.5 28q-2 3 1 6l174 160q-129 158 -129 160q-3 2 0 5l64 58q4 1 5 0q2 -3 91 -111t90 -109q3 -3 0 -6 l-243 -220q-2 -3 -5 0z" />
<glyph unicode="&#xbc;" horiz-adv-x="770" d="M155 -6q-4 0 -2 4q32 59 199 342.5t198 340.5q3 4 6 4h59q4 0 1 -4l-396 -683q-3 -4 -6 -4h-59zM597 0h-48q-3 0 -3 2l10 70h-154q-2 0 -2 2l7 51q0 2 3 5q1 1 75 137t75 139q2 2 3 2h55q1 0 1 -2l-147 -275l-1 -5h92l11 78q0 2 3 2h49q2 0 2 -2l-11 -78h41q3 0 3 -3 l-7 -48q0 -3 -3 -3h-41l-10 -70q0 -2 -3 -2zM225 272h-51q-2 0 -2 2l48 340q-80 -54 -81 -55q-2 -2 -2 1q0 1 -3.5 24t-3.5 24t3 4l94 67q1 1 4 1h51q3 0 3 -2l-57 -404q0 -2 -3 -2z" />
<glyph unicode="&#xbd;" horiz-adv-x="804" d="M158 -6q-5 0 -3 4q33 61 200 345t197 338q3 4 6 4h59q4 0 1 -4q0 -1 -198 -341.5t-198 -341.5q-1 -4 -5 -4h-59zM677 0h-223l-2 1l7 51q0 3 1 4q132 126 161 161q33 40 36 61l4 34q2 20 -7.5 30.5t-20.5 12.5t-29 2q-11 0 -24.5 -1.5t-24.5 -3.5t-20.5 -4t-15.5 -4l-6 -1 q-2 0 -2 2q0 1 -2.5 21.5t-2.5 21.5q0 2 2 3q40 20 103 20q23 0 41 -3t37 -12t27.5 -29t4.5 -49l-6 -44q-5 -36 -70 -122.5t-84 -92.5l-20 -6h143q2 0 2 -2l-7 -49q0 -2 -2 -2zM225 272h-51q-2 0 -2 2l48 340q-80 -54 -81 -55q-2 -2 -2 1q0 1 -3.5 24t-3.5 24t3 4l94 67 q1 1 4 1h51q3 0 3 -2l-57 -404q0 -2 -3 -2z" />
<glyph unicode="&#xbe;" horiz-adv-x="837" d="M221 -6q-3 0 -1 4q31 57 198 341t198 342q3 4 6 4h59q4 0 1 -4l-99 -171q-99 -171 -197.5 -341t-98.5 -171q-4 -4 -7 -4h-59zM87 288v3q1 2 8.5 22.5t7.5 21.5t3 1l6 -1q6 -1 15.5 -3t21 -4t25 -3t25.5 -1q67 0 72 45l4 33q6 54 -49 54h-44q-3 0 -3 2l7 47q0 2 3 2h44 q19 0 36 12.5t20 34.5l4 33q2 20 -7.5 30.5t-20.5 12.5t-28 2q-18 0 -40.5 -3t-35.5 -6t-15 -4q-1 -1 -2 -0.5t-1 1.5q0 2 -2 22.5t-2 21.5t2 3q1 1 13 5t37.5 8.5t52.5 4.5q23 0 40 -2.5t36 -11t27.5 -28t4.5 -49.5l-6 -40q-3 -19 -13 -36t-19 -24l-8 -7v-4q4 -2 9.5 -7 t13.5 -25t4 -46l-6 -43q-4 -30 -18 -49.5t-35.5 -28t-40 -11t-42.5 -2.5q-28 0 -54 4.5t-38 8.5zM664 0h-48q-3 0 -3 2l10 70h-154q-2 0 -2 2l8 51q0 3 2 5q1 1 75 137t75 139q2 2 3 2h55q1 0 1 -2l-147 -275v-5h92l11 78q0 2 2 2h49q3 0 3 -2l-11 -78h41q2 0 2 -3l-6 -48 q-2 -3 -4 -3h-41l-10 -70q0 -2 -3 -2z" />
<glyph unicode="&#xbf;" horiz-adv-x="443" d="M211 490h101q2 0 2 -4l-6 -42q-5 -37 -30.5 -75.5t-53 -64t-51.5 -53t-26 -47.5l-5 -42q-4 -29 7.5 -45t25.5 -19.5t35 -3.5q68 0 137 23q1 1 3 0t2 -2l9 -82q1 -4 -2 -6l-3 -1q-3 -2 -8 -3.5t-12 -4t-15.5 -5t-19 -5.5t-22.5 -5t-25 -4t-28.5 -3t-30.5 -1q-28 0 -50 2.5 t-47.5 12t-41.5 25.5t-24 46t-3 71l7 52q4 27 29 60.5t53.5 60.5t53.5 60t29 59l6 42q0 4 4 4zM236 680h105q4 0 4 -4l-15 -105q0 -4 -5 -4h-105q-2 0 -2 4l15 105q0 4 3 4z" />
<glyph unicode="&#xc0;" horiz-adv-x="591" d="M89 0h-112q-4 0 -3 4q0 2 157 336.5t158 335.5q1 4 5 4h126q4 0 5 -4l123 -672q0 -4 -4 -4h-113q-3 0 -4 4l-20 128h-256q-56 -125 -57 -128q-1 -4 -5 -4zM193 226h200l-48 301h-20zM369 756l-71 141q-3 4 2 4h97q4 0 5 -4l52 -141q1 -4 -1 -4h-78q-4 0 -6 4z" />
<glyph unicode="&#xc1;" horiz-adv-x="591" d="M89 0h-112q-4 0 -3 4q0 2 157 336.5t158 335.5q1 4 5 4h126q4 0 5 -4l123 -672q0 -4 -4 -4h-113q-3 0 -4 4l-20 128h-256q-56 -125 -57 -128q-1 -4 -5 -4zM193 226h200l-48 301h-20zM363 756q-2 -4 -6 -4h-77q-5 0 -2 4l91 141q3 4 7 4h96q6 0 2 -4z" />
<glyph unicode="&#xc2;" horiz-adv-x="591" d="M89 0h-112q-4 0 -3 4q0 2 157 336.5t158 335.5q1 4 5 4h126q4 0 5 -4l123 -672q0 -4 -4 -4h-113q-3 0 -4 4l-20 128h-256q-56 -125 -57 -128q-1 -4 -5 -4zM193 226h200l-48 301h-20zM304 751h-78q-3 0 -1 4q9 13 55 72t54 70q2 3 7 3h91q6 0 8 -4q0 -2 34 -71t34 -70 q4 -4 -2 -4h-78q-3 0 -5 4l-44 77h-4q-61 -74 -64 -77q-4 -4 -7 -4z" />
<glyph unicode="&#xc3;" horiz-adv-x="591" d="M89 0h-112q-4 0 -3 4q0 2 157 336.5t158 335.5q1 4 5 4h126q4 0 5 -4l123 -672q0 -4 -4 -4h-113q-3 0 -4 4l-20 128h-256q-56 -125 -57 -128q-1 -4 -5 -4zM193 226h200l-48 301h-20zM237 777q-4 0 -2 5l8 56q2 10 7 15q35 35 77 35q26 0 61 -19t56 -19q22 0 46 17.5 t26 17.5q4 0 4 -5l-8 -55q-2 -11 -7 -16q-37 -37 -79 -37q-27 0 -61 20t-53 20q-23 0 -48.5 -17.5t-26.5 -17.5z" />
<glyph unicode="&#xc4;" horiz-adv-x="591" d="M89 0h-112q-4 0 -3 4q0 2 157 336.5t158 335.5q1 4 5 4h126q4 0 5 -4l123 -672q0 -4 -4 -4h-113q-3 0 -4 4l-20 128h-256q-56 -125 -57 -128q-1 -4 -5 -4zM193 226h200l-48 301h-20zM232 777q-4 0 -3 4l13 95q1 4 5 4h84q3 0 3 -4l-13 -95q-1 -4 -5 -4h-84zM424 777 q-4 0 -3 4l13 95q1 4 5 4h83q3 0 3 -4l-13 -95q-1 -4 -5 -4h-83z" />
<glyph unicode="&#xc5;" horiz-adv-x="591" d="M89 0h-112q-4 0 -3 4q0 2 157 336.5t158 335.5q1 4 5 4h126q4 0 5 -4l123 -672q0 -4 -4 -4h-113q-3 0 -4 4l-20 128h-256q-56 -125 -57 -128q-1 -4 -5 -4zM193 226h200l-48 301h-20zM364 733q-44 0 -68.5 17.5t-17.5 70.5l3 22q11 86 112 86q20 0 33.5 -2.5t28 -10.5 t20 -26.5t1.5 -46.5l-3 -22q-4 -29 -14.5 -47.5t-27.5 -27t-31.5 -11t-35.5 -2.5zM371 782q22 0 35 8.5t18 35.5l2 12q4 25 -6.5 34t-32.5 9q-49 0 -56 -43l-2 -12q-4 -27 7.5 -35.5t34.5 -8.5z" />
<glyph unicode="&#xc6;" horiz-adv-x="894" d="M245 226h180l44 314h-19zM95 0h-114q-4 0 -1 4q1 2 226.5 336t227.5 335q1 5 6 5h452q3 0 3 -4l-13 -94q0 -4 -4 -4h-288l-26 -183h242q4 0 4 -4l-13 -93q0 -4 -5 -4h-242l-27 -193h288q3 0 2 -4l-13 -93q0 -4 -3 -4h-404l18 132h-227q-81 -125 -83 -128q-3 -4 -6 -4z " />
<glyph unicode="&#xc7;" horiz-adv-x="536" d="M231 -156h-97q-3 0 -1 4q24 37 85 144q-28 2 -51 7t-46 16t-38 28.5t-27 44.5t-13 63.5t4 86.5l29 210q9 64 30.5 110t48 71t64 39.5t69.5 18.5t75 4q115 0 173 -29q3 -3 2 -6q-10 -15 -45 -85q-2 -3 -6 -2q-2 1 -20 5t-52 8t-66 4q-29 0 -49 -4t-44.5 -17.5t-40.5 -45.5 t-23 -83l-27 -188q-8 -40 -2.5 -67.5t13 -43.5t25.5 -25t35.5 -11.5t42.5 -2.5q22 0 46 2.5t42.5 5.5t33.5 6t25 6l9 2q2 2 4 -2q1 -1 10.5 -42t9.5 -43q0 -4 -3 -5q-2 -2 -17 -8.5t-52.5 -15.5t-80.5 -12l-68 -144q-1 -4 -7 -4z" />
<glyph unicode="&#xc8;" horiz-adv-x="529" d="M34 0l96 680h414q3 0 3 -4l-13 -94q0 -4 -5 -4h-298l-25 -183h252q3 0 3 -4l-13 -93q0 -4 -5 -4h-252l-27 -193h298q4 0 4 -4l-13 -93q0 -4 -5 -4h-414zM338 756l-71 141q-3 4 3 4h97q3 0 4 -4l52 -141q1 -4 -1 -4h-78q-4 0 -6 4z" />
<glyph unicode="&#xc9;" horiz-adv-x="529" d="M34 0l96 680h414q3 0 3 -4l-13 -94q0 -4 -5 -4h-298l-25 -183h252q3 0 3 -4l-13 -93q0 -4 -5 -4h-252l-27 -193h298q4 0 4 -4l-13 -93q0 -4 -5 -4h-414zM342 756q-4 -4 -7 -4h-77q-5 0 -2 4l91 141q3 4 8 4h96q5 0 1 -4z" />
<glyph unicode="&#xca;" horiz-adv-x="529" d="M34 0l96 680h414q3 0 3 -4l-13 -94q0 -4 -5 -4h-298l-25 -183h252q3 0 3 -4l-13 -93q0 -4 -5 -4h-252l-27 -193h298q4 0 4 -4l-13 -93q0 -4 -5 -4h-414zM283 751h-78q-4 0 -2 4q9 13 55 72t54 70q2 3 7 3h91q6 0 8 -4q0 -1 34 -70t34 -71q4 -4 -1 -4h-78q-4 0 -6 4 l-44 77h-4q-61 -74 -64 -77q-4 -4 -6 -4z" />
<glyph unicode="&#xcb;" horiz-adv-x="529" d="M34 0l96 680h414q3 0 3 -4l-13 -94q0 -4 -5 -4h-298l-25 -183h252q3 0 3 -4l-13 -93q0 -4 -5 -4h-252l-27 -193h298q4 0 4 -4l-13 -93q0 -4 -5 -4h-414zM205 777q-4 0 -3 4l13 95q1 4 5 4h84q3 0 3 -4l-13 -95q-1 -4 -5 -4h-84zM397 777q-4 0 -3 4l13 95q1 4 5 4h83 q3 0 3 -4l-13 -95q-1 -4 -5 -4h-83z" />
<glyph unicode="&#xcc;" horiz-adv-x="254" d="M38 0q-4 0 -4 4l95 672q0 4 4 4h108q4 0 4 -4l-95 -672q0 -4 -4 -4h-108zM201 756l-71 141q-3 4 2 4h97q4 0 5 -4l52 -141q1 -4 -2 -4h-78q-3 0 -5 4z" />
<glyph unicode="&#xcd;" horiz-adv-x="254" d="M38 0q-4 0 -4 4l95 672q0 4 4 4h108q4 0 4 -4l-95 -672q0 -4 -4 -4h-108zM195 756q-2 -4 -7 -4h-77q-4 0 -1 4l91 141q3 4 7 4h96q6 0 2 -4z" />
<glyph unicode="&#xce;" horiz-adv-x="254" d="M38 0q-4 0 -4 4l95 672q0 4 4 4h108q4 0 4 -4l-95 -672q0 -4 -4 -4h-108zM136 751h-78q-3 0 -1 4q9 13 55 72t54 70q2 3 7 3h91q5 0 7 -4q0 -1 34 -70t35 -71q4 -4 -2 -4h-78q-3 0 -5 4l-44 77h-4q-61 -74 -64 -77q-4 -4 -7 -4z" />
<glyph unicode="&#xcf;" horiz-adv-x="254" d="M38 0q-4 0 -4 4l95 672q0 4 5 4h108q3 0 3 -4l-94 -672q0 -4 -5 -4h-108zM64 777q-4 0 -3 4l13 95q1 4 5 4h84q3 0 3 -4l-13 -95q-1 -4 -5 -4h-84zM256 777q-4 0 -3 4l13 95q1 4 5 4h83q3 0 3 -4l-13 -95q-1 -4 -5 -4h-83z" />
<glyph unicode="&#xd0;" horiz-adv-x="605" d="M165 105h114q24 0 39 1.5t35.5 10t33.5 23.5t24.5 44.5t17.5 71.5l24 171q3 23 3.5 42.5t-1.5 34t-7.5 25.5t-11 18.5t-15 12.5t-17 8t-19.5 4t-19.5 1.5t-20.5 0.5h-114l-26 -185h103q3 0 3 -4l-12 -83q0 -4 -4 -4h-103zM257 0h-223l42 298h-41q-4 0 -4 4l12 83q0 4 5 4 h41l41 291h223q41 0 69 -3t63.5 -16.5t55 -38t29.5 -71.5t1 -113l-26 -191q-7 -50 -21.5 -90t-31 -65.5t-42 -43.5t-46 -27.5t-51 -14t-49 -5.5t-47.5 -1z" />
<glyph unicode="&#xd1;" horiz-adv-x="633" d="M36 0q-4 0 -4 4l95 672q0 4 4 4h127q5 0 6 -4l174 -471h12l66 471q0 4 4 4h106q4 0 4 -4l-95 -672q0 -4 -4 -4h-129q-4 0 -5 4l-173 473h-13l-66 -473q-1 -4 -4 -4h-105zM258 777q-4 0 -2 5l8 56q2 10 7 15q35 35 77 35q26 0 61 -19t56 -19q23 0 47 17.5t25 17.5 q4 0 4 -5l-8 -55q-2 -11 -7 -16q-37 -37 -79 -37q-27 0 -61 20t-53 20q-23 0 -48.5 -17.5t-26.5 -17.5z" />
<glyph unicode="&#xd2;" horiz-adv-x="588" d="M256 -11q-19 0 -34 0.5t-34 2.5t-33 6t-30.5 10.5t-28 16.5t-23 23t-18 31.5t-11 41.5t-4 52t5.5 64l30 210q9 65 31 112t47 72t63 39t67.5 17t70.5 3q19 0 33.5 -0.5t33.5 -2.5t33 -6t31 -10t28.5 -15.5t23.5 -22.5t18.5 -31t11.5 -40.5t4.5 -51.5t-5.5 -63l-30 -210 q-7 -50 -21 -89t-30 -65t-39.5 -44t-43.5 -27.5t-49 -15t-49 -6.5t-49 -1zM271 94q32 0 52.5 4.5t42 19t35 46.5t20.5 82l27 190q2 34 3.5 58.5t-7 41t-16.5 26.5t-24 15t-29.5 6.5t-34.5 1.5q-64 0 -100 -28t-49 -121l-27 -190q-6 -30 -4 -53t4 -39t12 -27t18 -17.5t22 -10 t26 -4.5t29 -1zM368 756l-71 141q-3 4 2 4h97q4 0 5 -4l52 -141q1 -4 -2 -4h-78q-3 0 -5 4z" />
<glyph unicode="&#xd3;" horiz-adv-x="588" d="M256 -11q-19 0 -34 0.5t-34 2.5t-33 6t-30.5 10.5t-28 16.5t-23 23t-18 31.5t-11 41.5t-4 52t5.5 64l30 210q9 65 31 112t47 72t63 39t67.5 17t70.5 3q19 0 33.5 -0.5t33.5 -2.5t33 -6t31 -10t28.5 -15.5t23.5 -22.5t18.5 -31t11.5 -40.5t4.5 -51.5t-5.5 -63l-30 -210 q-7 -50 -21 -89t-30 -65t-39.5 -44t-43.5 -27.5t-49 -15t-49 -6.5t-49 -1zM271 94q32 0 52.5 4.5t42 19t35 46.5t20.5 82l27 190q2 34 3.5 58.5t-7 41t-16.5 26.5t-24 15t-29.5 6.5t-34.5 1.5q-64 0 -100 -28t-49 -121l-27 -190q-6 -30 -4 -53t4 -39t12 -27t18 -17.5t22 -10 t26 -4.5t29 -1zM361 756q-2 -4 -7 -4h-77q-4 0 -1 4l91 141q3 4 7 4h96q6 0 2 -4z" />
<glyph unicode="&#xd4;" horiz-adv-x="588" d="M271 94q32 0 52.5 4.5t42 19t35 46.5t20.5 82l27 190q2 34 3.5 58.5t-7 41t-16.5 26.5t-24 15t-29.5 6.5t-34.5 1.5q-64 0 -100 -28t-49 -121l-27 -190q-6 -30 -4 -53t4 -39t12 -27t18 -17.5t22 -10t26 -4.5t29 -1zM256 -11q-19 0 -34 0.5t-34 2.5t-33 6t-30.5 10.5 t-28 16.5t-23 23t-18 31.5t-11 41.5t-4 52t5.5 64l30 210q9 65 31 112t47 72t63 39t67.5 17t70.5 3q19 0 33.5 -0.5t33.5 -2.5t33 -6t31 -10t28.5 -15.5t23.5 -22.5t18.5 -31t11.5 -40.5t4.5 -51.5t-5.5 -63l-30 -210q-7 -50 -21 -89t-30 -65t-39.5 -44t-43.5 -27.5t-49 -15 t-49 -6.5t-49 -1zM302 751h-78q-3 0 -1 4q9 13 55 72t54 70q2 3 7 3h91q5 0 7 -4q0 -1 34 -70t35 -71q2 -4 -2 -4h-78q-3 0 -5 4l-44 77h-4q-61 -74 -64 -77q-4 -4 -7 -4z" />
<glyph unicode="&#xd5;" horiz-adv-x="588" d="M271 94q32 0 52.5 4.5t42 19t35 46.5t20.5 82l27 190q2 34 3.5 58.5t-7 41t-16.5 26.5t-24 15t-29.5 6.5t-34.5 1.5q-64 0 -100 -28t-49 -121l-27 -190q-6 -30 -4 -53t4 -39t12 -27t18 -17.5t22 -10t26 -4.5t29 -1zM256 -11q-19 0 -34 0.5t-34 2.5t-33 6t-30.5 10.5 t-28 16.5t-23 23t-18 31.5t-11 41.5t-4 52t5.5 64l30 210q9 65 31 112t47 72t63 39t67.5 17t70.5 3q19 0 33.5 -0.5t33.5 -2.5t33 -6t31 -10t28.5 -15.5t23.5 -22.5t18.5 -31t11.5 -40.5t4.5 -51.5t-5.5 -63l-30 -210q-7 -50 -21 -89t-30 -65t-39.5 -44t-43.5 -27.5t-49 -15 t-49 -6.5t-49 -1zM236 777q-4 0 -2 5l7 56q1 8 8 15q35 35 77 35q26 0 61 -19t56 -19q23 0 47 17.5t25 17.5q4 0 3 -5l-7 -55q-2 -10 -8 -16q-37 -37 -78 -37q-27 0 -61 20t-53 20q-23 0 -48.5 -17.5t-26.5 -17.5z" />
<glyph unicode="&#xd6;" horiz-adv-x="588" d="M256 -11q-19 0 -34 0.5t-34 2.5t-33 6t-30.5 10.5t-28 16.5t-23 23t-18 31.5t-11 41.5t-4 52t5.5 64l30 210q9 65 31 112t47 72t63 39t67.5 17t70.5 3q19 0 33.5 -0.5t33.5 -2.5t33 -6t31 -10t28.5 -15.5t23.5 -22.5t18.5 -31t11.5 -40.5t4.5 -51.5t-5.5 -63l-30 -210 q-7 -50 -21 -89t-30 -65t-39.5 -44t-43.5 -27.5t-49 -15t-49 -6.5t-49 -1zM271 94q32 0 52.5 4.5t42 19t35 46.5t20.5 82l27 190q2 34 3.5 58.5t-7 41t-16.5 26.5t-24 15t-29.5 6.5t-34.5 1.5q-64 0 -100 -28t-49 -121l-27 -190q-6 -30 -4 -53t4 -39t12 -27t18 -17.5t22 -10 t26 -4.5t29 -1zM230 777q-4 0 -4 4l14 95q0 4 4 4h84q4 0 4 -4l-14 -95q0 -4 -4 -4h-84zM422 777q-4 0 -4 4l14 95q0 4 4 4h83q4 0 4 -4l-14 -95q0 -4 -4 -4h-83z" />
<glyph unicode="&#xd7;" d="M107 80q0 1 -23.5 29.5t-25.5 29.5q-2 3 1 6l142 131q-104 129 -106 131q-3 3 1 6q1 1 33.5 29.5t33.5 29.5q4 2 6 0l105 -131q141 129 143 131q3 2 5 0l50 -59q2 -3 -1 -6l-142 -131q105 -129 106 -131q1 -1 0.5 -3t-2.5 -3l-67 -59q-2 -2 -5 0l-105 131 q-141 -129 -143 -131t-6 0z" />
<glyph unicode="&#xd8;" horiz-adv-x="588" d="M23 -40q-4 0 -1 4q0 1 9 14t22 33t22 35q-46 59 -28 191l29 210q9 65 31 112t47 72t63 39t67.5 17t70.5 3q77 0 116 -13l27 40q2 4 6 4h89q5 0 1 -4q-1 -1 -9.5 -14t-22.5 -35t-23 -36q46 -61 28 -185l-29 -210q-8 -58 -24 -101.5t-39.5 -69.5t-47 -42.5t-56.5 -23.5 t-56 -9t-58 -2q-76 0 -114 12q-5 -8 -11.5 -17.5t-9.5 -14.5l-4 -5q-1 -4 -5 -4h-90zM272 94q32 0 52.5 4.5t42 19t35 46.5t20.5 82l27 190q2 34 3.5 58.5t-7 41t-16.5 26.5t-24 15t-29.5 6.5t-34.5 1.5q-64 0 -100 -28t-49 -121l-27 -190q-6 -30 -4 -53t4 -39t12 -27 t18 -17.5t22 -10t26 -4.5t29 -1z" />
<glyph unicode="&#xd9;" horiz-adv-x="610" d="M248 -10q-125 0 -164 61.5t-19 207.5l58 417q2 4 5 4h108q3 0 3 -4l-57 -408q-8 -58 -7 -96.5t21.5 -57.5t66.5 -19h43q67 0 90.5 37t37.5 136l57 408q1 4 5 4h108q3 0 3 -4l-58 -417q-10 -70 -25 -116t-43 -83t-74.5 -53.5t-115.5 -16.5h-43zM378 756l-71 141q-1 4 3 4 h97q3 0 4 -4l52 -141q1 -4 -1 -4h-78q-4 0 -6 4z" />
<glyph unicode="&#xda;" horiz-adv-x="610" d="M248 -10q-125 0 -164 61.5t-19 207.5l58 417q2 4 5 4h108q3 0 3 -4l-57 -408q-8 -58 -7 -96.5t21.5 -57.5t66.5 -19h43q67 0 90.5 37t37.5 136l57 408q1 4 5 4h108q3 0 3 -4l-58 -417q-10 -70 -25 -116t-43 -83t-74.5 -53.5t-115.5 -16.5h-43zM373 756q-4 -4 -7 -4h-77 q-4 0 -1 4l90 141q3 4 8 4h96q5 0 1 -4z" />
<glyph unicode="&#xdb;" horiz-adv-x="610" d="M248 -10q-125 0 -164 61.5t-19 207.5l58 417q2 4 5 4h108q3 0 3 -4l-57 -408q-8 -58 -7 -96.5t21.5 -57.5t66.5 -19h43q67 0 90.5 37t37.5 136l57 408q1 4 5 4h108q3 0 3 -4l-58 -417q-10 -70 -25 -116t-43 -83t-74.5 -53.5t-115.5 -16.5h-43zM314 751h-78q-4 0 -2 4 q9 13 55 72t54 70q1 3 8 3h91q5 0 7 -4q0 -1 34 -70t34 -71q4 -4 -1 -4h-78q-4 0 -6 4l-44 77h-4q-61 -74 -64 -77q-4 -4 -6 -4z" />
<glyph unicode="&#xdc;" horiz-adv-x="610" d="M248 -10q-125 0 -164 61.5t-19 207.5l58 417q2 4 5 4h108q3 0 3 -4l-57 -408q-8 -58 -7 -96.5t21.5 -57.5t66.5 -19h43q67 0 90.5 37t37.5 136l57 408q1 4 5 4h108q3 0 3 -4l-58 -417q-10 -70 -25 -116t-43 -83t-74.5 -53.5t-115.5 -16.5h-43zM242 777q-4 0 -3 4l13 95 q1 4 5 4h84q3 0 3 -4l-13 -95q-1 -4 -5 -4h-84zM434 777q-4 0 -3 4l13 95q1 4 5 4h83q3 0 3 -4l-13 -95q-1 -4 -5 -4h-83z" />
<glyph unicode="&#xdd;" horiz-adv-x="534" d="M179 0q-4 0 -4 4l37 263q-141 406 -142 409q-2 4 3 4h116q4 0 5 -4l93 -279h6q167 276 169 279q3 4 5 4h114q4 0 3 -4l-257 -409l-37 -263q0 -4 -3 -4h-108zM334 756q-2 -4 -7 -4h-77q-4 0 -1 4l91 141q3 4 7 4h96q6 0 2 -4z" />
<glyph unicode="&#xde;" horiz-adv-x="580" d="M184 243h124q109 0 122 88l6 40q4 29 -2.5 47.5t-23 27t-32.5 11t-39 2.5h-125zM145 0h-107q-4 0 -4 4l95 672q0 4 4 4h107q4 0 4 -4l-16 -116h130q32 0 55.5 -2t55.5 -12t50.5 -28.5t29 -54t3.5 -85.5l-8 -55q-26 -181 -245 -181h-131l-19 -138q0 -4 -4 -4z" />
<glyph unicode="&#xdf;" horiz-adv-x="543" d="M138 0h-102q-4 0 -4 4l68 478q9 64 30.5 106.5t55 62.5t66 27t76.5 7q28 0 49.5 -2.5t47 -13t41 -27.5t23.5 -49t2 -76l-6 -48q-4 -35 -18 -62.5t-25 -37.5l-12 -10l-1 -6q3 -1 6.5 -4.5t15 -14.5t17 -25t11.5 -37.5t0 -51.5l-7 -49q-8 -56 -30 -92.5t-57.5 -53.5 t-69.5 -22.5t-82 -5.5q-3 0 -3 4l12 87q0 4 5 4q46 0 76.5 18t37.5 68l5 38q7 50 -20 69t-69 19q-4 0 -4 4l12 87q1 4 5 4q79 0 90 77l5 36q11 79 -70 79q-44 0 -69.5 -21t-35.5 -88l-68 -478q0 -4 -4 -4z" />
<glyph unicode="&#xe0;" horiz-adv-x="497" d="M159 -10q-71 0 -106.5 35t-27.5 91l8 52q9 58 56.5 90.5t107.5 32.5q24 0 57.5 -3.5t55.5 -7.5l21 -3l7 52q6 44 -15.5 58.5t-76.5 14.5q-18 0 -38 -1.5t-35.5 -3.5t-28 -4t-20 -3.5t-8.5 -1.5q-2 -1 -3 0t0 3q-1 3 -3 19t-4 33t-2 19q0 4 3 5q75 25 164 25q33 0 55 -2 t50 -11t43.5 -25.5t23.5 -48.5t2 -77l-45 -324q-1 -4 -5 -4h-99q-3 0 -3 4l2 16q-28 -30 -136 -30zM204 75q22 0 37 1.5t31.5 6t26 15.5t12.5 28l10 77q-66 14 -113 14q-30 0 -51 -14.5t-24 -35.5l-4 -31q-3 -26 15 -43.5t60 -17.5zM294 556l-71 141q-3 4 2 4h97q4 0 5 -4 l52 -141q1 -4 -1 -4h-78q-4 0 -6 4z" />
<glyph unicode="&#xe1;" horiz-adv-x="497" d="M159 -10q-71 0 -106.5 35t-27.5 91l8 52q9 58 56.5 90.5t107.5 32.5q24 0 57.5 -3.5t55.5 -7.5l21 -3l7 52q6 44 -15.5 58.5t-76.5 14.5q-18 0 -38 -1.5t-35.5 -3.5t-28 -4t-20 -3.5t-8.5 -1.5q-2 -1 -3 0t0 3q-1 3 -3 19t-4 33t-2 19q0 4 3 5q75 25 164 25q33 0 55 -2 t50 -11t43.5 -25.5t23.5 -48.5t2 -77l-45 -324q-1 -4 -5 -4h-99q-3 0 -3 4l2 16q-28 -30 -136 -30zM204 75q22 0 37 1.5t31.5 6t26 15.5t12.5 28l10 77q-66 14 -113 14q-30 0 -51 -14.5t-24 -35.5l-4 -31q-3 -26 15 -43.5t60 -17.5zM288 556q-2 -4 -6 -4h-77q-5 0 -2 4 l91 141q3 4 7 4h96q6 0 2 -4z" />
<glyph unicode="&#xe2;" horiz-adv-x="497" d="M204 75q22 0 37 1.5t31.5 6t26 15.5t12.5 28l10 77q-66 14 -113 14q-30 0 -51 -14.5t-24 -35.5l-4 -31q-3 -26 15 -43.5t60 -17.5zM159 -10q-71 0 -106.5 35t-27.5 91l8 52q9 58 56.5 90.5t107.5 32.5q24 0 57.5 -3.5t55.5 -7.5l21 -3l7 52q6 44 -15.5 58.5t-76.5 14.5 q-18 0 -38 -1.5t-35.5 -3.5t-28 -4t-20 -3.5t-8.5 -1.5q-3 0 -3 3q-1 4 -5 36t-4 35q-1 3 3 5q75 25 164 25q33 0 55 -2t50 -11t43.5 -25.5t23.5 -48.5t2 -77l-45 -324q-1 -4 -5 -4h-99q-3 0 -3 4l2 16q-28 -30 -136 -30zM229 551h-78q-3 0 -1 4q9 13 55 72t54 70q1 3 7 3 h91q6 0 8 -4q1 -2 34 -71t34 -70q2 -4 -2 -4h-78q-3 0 -5 4l-44 77h-4q-61 -74 -64 -77q-4 -4 -7 -4z" />
<glyph unicode="&#xe3;" horiz-adv-x="497" d="M204 75q22 0 37 1.5t31.5 6t26 15.5t12.5 28l10 77q-66 14 -113 14q-30 0 -51 -14.5t-24 -35.5l-4 -31q-3 -26 15 -43.5t60 -17.5zM159 -10q-71 0 -106.5 35t-27.5 91l8 52q9 58 56.5 90.5t107.5 32.5q24 0 57.5 -3.5t55.5 -7.5l21 -3l7 52q6 44 -15.5 58.5t-76.5 14.5 q-18 0 -38 -1.5t-35.5 -3.5t-28 -4t-20 -3.5t-8.5 -1.5q-3 0 -3 3q-1 4 -5 36t-4 35q-1 3 3 5q75 25 164 25q33 0 55 -2t50 -11t43.5 -25.5t23.5 -48.5t2 -77l-45 -324q-1 -4 -5 -4h-99q-3 0 -3 4l2 16q-28 -30 -136 -30zM162 577q-4 0 -2 5l8 56q2 10 7 15q35 35 77 35 q26 0 61 -19t56 -19q23 0 47 17.5t25 17.5q4 0 4 -5l-8 -55q-2 -11 -7 -16q-37 -37 -79 -37q-27 0 -61 20t-53 20q-23 0 -48.5 -17.5t-26.5 -17.5z" />
<glyph unicode="&#xe4;" horiz-adv-x="497" d="M159 -10q-71 0 -106.5 35t-27.5 91l8 52q9 58 56.5 90.5t107.5 32.5q24 0 57.5 -3.5t55.5 -7.5l21 -3l7 52q6 44 -15.5 58.5t-76.5 14.5q-18 0 -38 -1.5t-35.5 -3.5t-28 -4t-20 -3.5t-8.5 -1.5q-2 -1 -3 0t0 3q-1 3 -3 19t-4 33t-2 19q0 4 3 5q75 25 164 25q33 0 55 -2 t50 -11t43.5 -25.5t23.5 -48.5t2 -77l-45 -324q-1 -4 -5 -4h-99q-3 0 -3 4l2 16q-28 -30 -136 -30zM204 75q22 0 37 1.5t31.5 6t26 15.5t12.5 28l10 77q-66 14 -113 14q-30 0 -51 -14.5t-24 -35.5l-4 -31q-3 -26 15 -43.5t60 -17.5zM157 577q-4 0 -3 4l13 95q1 4 5 4h84 q3 0 3 -4l-13 -95q-1 -4 -5 -4h-84zM349 577q-4 0 -3 4l13 95q1 4 5 4h83q3 0 3 -4l-13 -95q-1 -4 -5 -4h-83z" />
<glyph unicode="&#xe5;" horiz-adv-x="497" d="M204 75q22 0 37 1.5t31.5 6t26 15.5t12.5 28l10 77q-66 14 -113 14q-30 0 -51 -14.5t-24 -35.5l-4 -31q-3 -26 15 -43.5t60 -17.5zM159 -10q-71 0 -106.5 35t-27.5 91l8 52q9 58 56.5 90.5t107.5 32.5q24 0 57.5 -3.5t55.5 -7.5l21 -3l7 52q6 44 -15.5 58.5t-76.5 14.5 q-18 0 -38 -1.5t-35.5 -3.5t-28 -4t-20 -3.5t-8.5 -1.5q-3 0 -3 3q-1 4 -5 36t-4 35q-1 3 3 5q75 25 164 25q33 0 55 -2t50 -11t43.5 -25.5t23.5 -48.5t2 -77l-45 -324q-1 -4 -5 -4h-99q-3 0 -3 4l2 16q-28 -30 -136 -30zM296 582q22 0 35 8.5t18 35.5l2 12q4 25 -6.5 34 t-32.5 9q-49 0 -56 -43l-2 -12q-4 -27 7.5 -35.5t34.5 -8.5zM289 533q-44 0 -68.5 17.5t-17.5 70.5l3 22q11 86 112 86q20 0 33.5 -2.5t28 -10.5t20 -26.5t1.5 -46.5l-3 -22q-4 -29 -14.5 -47.5t-27.5 -27t-31.5 -11t-35.5 -2.5z" />
<glyph unicode="&#xe6;" horiz-adv-x="786" d="M207 76q98 0 106 56l10 71q-63 14 -112 14q-28 0 -50 -13t-26 -37l-4 -29q-5 -34 19 -48t57 -14zM445 277h184q10 70 -9.5 93t-64.5 23q-47 0 -73.5 -23t-36.5 -93zM167 -8q-25 0 -47.5 4.5t-47 16.5t-37 39t-7.5 66l7 52q8 60 56.5 91t107.5 31q24 0 57.5 -3.5 t55.5 -6.5l21 -4l7 47q7 46 -15.5 59t-76.5 13q-18 0 -38 -1.5t-35 -3.5t-27 -4.5t-20 -3.5l-7 -2q-4 0 -4 3q-1 1 -6 35t-5 36q-1 3 3 5q81 27 164 27q116 0 145 -45q53 45 150 45q13 0 22.5 -0.5t25 -2t26 -4.5t25.5 -8.5t24 -13.5t20.5 -19t16.5 -26.5t11 -35t4 -44 t-4 -54.5l-11 -76h-293q-9 -72 13.5 -94t77.5 -22q22 0 46 1.5t41.5 4t32 4.5t22.5 4l9 1q4 0 5 -3l11 -73q0 -4 -4 -5q-4 -2 -23 -7.5t-64 -12.5t-91 -7q-64 0 -98 12.5t-56 39.5q-33 -31 -75 -43t-115 -12z" />
<glyph unicode="&#xe7;" horiz-adv-x="458" d="M192 -156h-97q-3 0 -1 4l86 145q-78 4 -116.5 44.5t-23.5 151.5l15 109q7 52 26 89t41 57t54 31t56.5 13.5t57.5 2.5q80 0 143 -21q4 -3 3 -6l-33 -73q-1 -3 -5 -3q-24 8 -117 8q-102 0 -116 -107l-13 -93q-5 -36 0 -59.5t19.5 -33.5t28.5 -13t36 -3q19 0 39 1t34.5 2.5 t26 3.5t18.5 3l7 1q5 0 5 -3q0 -2 6 -38t6 -37q0 -4 -3 -5q-48 -16 -106 -21l-70 -146q-1 -4 -7 -4z" />
<glyph unicode="&#xe8;" horiz-adv-x="493" d="M222 -9q-32 0 -57 3t-55.5 15.5t-48.5 34t-27.5 62t-1.5 95.5l12 84q30 205 236 205q16 0 28 -0.5t29 -3t29 -7t27 -12t23.5 -18.5t19 -27t13 -36.5t5 -46.5t-4.5 -59l-11 -77h-294q-10 -73 15 -96t77 -23q22 0 45.5 1.5t41.5 3.5t33 4t24 3l9 2q4 1 4 -3q1 -4 5 -36.5 t3 -35.5q2 -4 -3 -6q-78 -26 -176 -26zM155 277h184q10 69 -10 93.5t-63 24.5q-46 0 -73.5 -23.5t-37.5 -94.5zM292 556l-71 141q-3 4 2 4h97q4 0 5 -4l52 -141q1 -4 -2 -4h-78q-3 0 -5 4z" />
<glyph unicode="&#xe9;" horiz-adv-x="493" d="M222 -9q-32 0 -57 3t-55.5 15.5t-48.5 34t-27.5 62t-1.5 95.5l12 84q30 205 236 205q16 0 28 -0.5t29 -3t29 -7t27 -12t23.5 -18.5t19 -27t13 -36.5t5 -46.5t-4.5 -59l-11 -77h-294q-10 -73 15 -96t77 -23q22 0 45.5 1.5t41.5 3.5t33 4t24 3l9 2q4 1 4 -3q1 -4 5 -36.5 t3 -35.5q2 -4 -3 -6q-78 -26 -176 -26zM155 277h184q10 69 -10 93.5t-63 24.5q-46 0 -73.5 -23.5t-37.5 -94.5zM286 556q-2 -4 -7 -4h-77q-4 0 -1 4l91 141q3 4 7 4h96q6 0 2 -4z" />
<glyph unicode="&#xea;" horiz-adv-x="493" d="M155 277h184q10 69 -10 93.5t-63 24.5q-46 0 -73.5 -23.5t-37.5 -94.5zM222 -9q-32 0 -57 3t-55.5 15.5t-48.5 34t-27.5 62t-1.5 95.5l12 84q30 205 236 205q16 0 28 -0.5t29 -3t29 -7t27 -12t23.5 -18.5t19 -27t13 -36.5t5 -46.5t-4.5 -59l-11 -77h-294q-10 -73 15 -96 t77 -23q22 0 45.5 1.5t41.5 3.5t33 4t24 3l9 2q4 1 4 -3q1 -3 4.5 -36t3.5 -36q0 -5 -3 -6q-78 -26 -176 -26zM227 551h-78q-3 0 -1 4q9 13 55 72t54 70q1 3 7 3h91q5 0 7 -4q0 -2 34 -71t35 -70q2 -4 -2 -4h-78q-3 0 -5 4l-44 77h-4q-61 -74 -64 -77q-4 -4 -7 -4z" />
<glyph unicode="&#xeb;" horiz-adv-x="493" d="M222 -9q-32 0 -57 3t-55.5 15.5t-48.5 34t-27.5 62t-1.5 95.5l12 84q30 205 236 205q16 0 28 -0.5t29 -3t29 -7t27 -12t23.5 -18.5t19 -27t13 -36.5t5 -46.5t-4.5 -59l-11 -77h-294q-10 -73 15 -96t77 -23q22 0 45.5 1.5t41.5 3.5t33 4t24 3l9 2q4 1 4 -3q1 -4 5 -36.5 t3 -35.5q2 -4 -3 -6q-78 -26 -176 -26zM155 277h184q10 69 -10 93.5t-63 24.5q-46 0 -73.5 -23.5t-37.5 -94.5zM155 577q-4 0 -3 4l13 95q1 4 4 4h84q4 0 4 -4l-13 -95q-1 -4 -5 -4h-84zM347 577q-4 0 -3 4l13 95q1 4 4 4h83q4 0 4 -4l-13 -95q-1 -4 -5 -4h-83z" />
<glyph unicode="&#xec;" horiz-adv-x="245" d="M30 0q-3 0 -3 4l67 474q0 4 4 4h104q2 0 2 -4l-67 -474q0 -4 -3 -4h-104zM168 556l-71 141q-3 4 2 4h97q4 0 5 -4l52 -141q1 -4 -2 -4h-78q-3 0 -5 4z" />
<glyph unicode="&#xed;" horiz-adv-x="245" d="M30 0q-3 0 -3 4l67 474q0 4 4 4h104q2 0 2 -4l-67 -474q0 -4 -3 -4h-104zM162 556q-2 -4 -7 -4h-77q-4 0 -1 4l91 141q3 4 7 4h96q6 0 2 -4z" />
<glyph unicode="&#xee;" horiz-adv-x="245" d="M30 0q-2 0 -2 4l66 474q1 4 4 4h104q3 0 3 -4l-67 -474q0 -4 -4 -4h-104zM104 551h-78q-4 0 -2 4q9 13 55 72t54 70q1 3 8 3h91q5 0 7 -4q0 -1 34 -70t34 -71q4 -4 -1 -4h-78q-4 0 -6 4l-44 77h-4q-61 -74 -64 -77q-4 -4 -6 -4z" />
<glyph unicode="&#xef;" horiz-adv-x="245" d="M30 0q-3 0 -3 4l67 474q0 4 4 4h104q2 0 2 -4l-66 -474q-1 -4 -4 -4h-104zM31 577q-4 0 -3 4l13 95q1 4 5 4h84q3 0 3 -4l-13 -95q-1 -4 -5 -4h-84zM223 577q-4 0 -3 4l13 95q1 4 5 4h83q3 0 3 -4l-13 -95q-1 -4 -5 -4h-83z" />
<glyph unicode="&#xf0;" horiz-adv-x="530" d="M218 89q100 0 108 56l32 227q-65 20 -101 20q-41 0 -65.5 -22.5t-34.5 -92.5l-10 -70q-10 -72 8.5 -95t62.5 -23zM178 -6q-19 0 -34 1t-31.5 4.5t-28 10t-23 17t-18 26t-10.5 36.5t-3.5 49t5.5 63l12 83q8 54 24 93t35 60t46 32.5t49 14.5t52 3q21 0 50.5 -5t48.5 -10 l19 -5l11 81h-117q-3 0 -3 4l10 72q0 4 6 4h115l7 47q0 4 5 4h103q2 0 2 -4l-7 -47h45q4 0 4 -4l-10 -72q0 -4 -5 -4h-45l-76 -544q-1 -4 -4 -4h-103q-3 0 -3 3l3 22q-32 -31 -131 -31z" />
<glyph unicode="&#xf1;" horiz-adv-x="529" d="M36 0q-4 0 -4 4l67 474q0 4 5 4h103q3 0 3 -4l-2 -17q86 26 127 26q15 0 25.5 -0.5t25 -2.5t24.5 -5.5t22 -10t19.5 -15.5t14.5 -22.5t10.5 -31t3.5 -40.5t-4 -51l-43 -304q0 -4 -4 -4h-102q-4 0 -4 4l42 298q8 57 -7 74t-53 17q-16 0 -43.5 -6.5t-47.5 -12.5l-19 -6 l-52 -364q0 -4 -4 -4h-103zM178 577q-4 0 -2 5l8 56q2 10 7 15q35 35 77 35q26 0 61 -19t56 -19q22 0 46 17.5t26 17.5q4 0 3 -5l-7 -55q-2 -10 -8 -16q-37 -37 -78 -37q-27 0 -61 20t-53 20q-23 0 -48.5 -17.5t-26.5 -17.5z" />
<glyph unicode="&#xf2;" horiz-adv-x="499" d="M211 -8q-47 0 -77 6t-59.5 25.5t-39.5 63.5t-1 112l12 88q8 54 25.5 93t38.5 60t52.5 33t57.5 15t63 3q19 0 32.5 -0.5t32 -3t30.5 -6.5t27.5 -11.5t23.5 -18t18 -25.5t11.5 -35t4.5 -45.5t-4 -57.5l-12 -89q-8 -56 -25.5 -96t-38 -61t-52.5 -33t-57.5 -14.5t-62.5 -2.5z M224 87q23 0 38 3t31.5 14t27 36t15.5 65l10 75q10 73 -10 94.5t-67 21.5q-48 0 -75.5 -22t-37.5 -94l-10 -75q-2 -27 -3 -46.5t5 -33t11.5 -21t17.5 -11.5t22 -5t25 -1zM295 556l-71 141q-3 4 2 4h97q4 0 5 -4l52 -141q1 -4 -2 -4h-78q-3 0 -5 4z" />
<glyph unicode="&#xf3;" horiz-adv-x="499" d="M211 -8q-47 0 -77 6t-59.5 25.5t-39.5 63.5t-1 112l12 88q8 54 25.5 93t38.5 60t52.5 33t57.5 15t63 3q19 0 32.5 -0.5t32 -3t30.5 -6.5t27.5 -11.5t23.5 -18t18 -25.5t11.5 -35t4.5 -45.5t-4 -57.5l-12 -89q-8 -56 -25.5 -96t-38 -61t-52.5 -33t-57.5 -14.5t-62.5 -2.5z M224 87q23 0 38 3t31.5 14t27 36t15.5 65l10 75q10 73 -10 94.5t-67 21.5q-48 0 -75.5 -22t-37.5 -94l-10 -75q-2 -27 -3 -46.5t5 -33t11.5 -21t17.5 -11.5t22 -5t25 -1zM288 556q-2 -4 -7 -4h-77q-4 0 -1 4l91 141q3 4 7 4h96q6 0 2 -4z" />
<glyph unicode="&#xf4;" horiz-adv-x="499" d="M224 87q23 0 38 3t31.5 14t27 36t15.5 65l10 75q10 73 -10 94.5t-67 21.5q-48 0 -75.5 -22t-37.5 -94l-10 -75q-2 -27 -3 -46.5t5 -33t11.5 -21t17.5 -11.5t22 -5t25 -1zM211 -8q-47 0 -77 6t-59.5 25.5t-39.5 63.5t-1 112l12 88q8 54 25.5 93t38.5 60t52.5 33t57.5 15 t63 3q19 0 32.5 -0.5t32 -3t30.5 -6.5t27.5 -11.5t23.5 -18t18 -25.5t11.5 -35t4.5 -45.5t-4 -57.5l-12 -89q-8 -56 -25.5 -96t-38 -61t-52.5 -33t-57.5 -14.5t-62.5 -2.5zM229 551h-78q-3 0 -1 4q9 13 55 72t54 70q1 3 7 3h91q5 0 7 -4q1 -2 35 -71t34 -70q2 -4 -2 -4h-78 q-3 0 -5 4l-44 77h-4q-61 -74 -64 -77q-4 -4 -7 -4z" />
<glyph unicode="&#xf5;" horiz-adv-x="499" d="M224 87q23 0 38 3t31.5 14t27 36t15.5 65l10 75q10 73 -10 94.5t-67 21.5q-48 0 -75.5 -22t-37.5 -94l-10 -75q-2 -27 -3 -46.5t5 -33t11.5 -21t17.5 -11.5t22 -5t25 -1zM211 -8q-47 0 -77 6t-59.5 25.5t-39.5 63.5t-1 112l12 88q8 54 25.5 93t38.5 60t52.5 33t57.5 15 t63 3q19 0 32.5 -0.5t32 -3t30.5 -6.5t27.5 -11.5t23.5 -18t18 -25.5t11.5 -35t4.5 -45.5t-4 -57.5l-12 -89q-8 -56 -25.5 -96t-38 -61t-52.5 -33t-57.5 -14.5t-62.5 -2.5zM163 577q-3 0 -3 5l8 56q2 10 7 15q35 35 77 35q26 0 61.5 -19t56.5 -19q22 0 46 17.5t26 17.5 q4 0 3 -5l-7 -55q-2 -10 -8 -16q-37 -37 -78 -37q-27 0 -61 20t-53 20q-23 0 -48.5 -17.5t-26.5 -17.5z" />
<glyph unicode="&#xf6;" horiz-adv-x="499" d="M211 -8q-47 0 -77 6t-59.5 25.5t-39.5 63.5t-1 112l12 88q8 54 25.5 93t38.5 60t52.5 33t57.5 15t63 3q19 0 32.5 -0.5t32 -3t30.5 -6.5t27.5 -11.5t23.5 -18t18 -25.5t11.5 -35t4.5 -45.5t-4 -57.5l-12 -89q-8 -56 -25.5 -96t-38 -61t-52.5 -33t-57.5 -14.5t-62.5 -2.5z M224 87q23 0 38 3t31.5 14t27 36t15.5 65l10 75q10 73 -10 94.5t-67 21.5q-48 0 -75.5 -22t-37.5 -94l-10 -75q-2 -27 -3 -46.5t5 -33t11.5 -21t17.5 -11.5t22 -5t25 -1zM158 577q-4 0 -4 4l14 95q0 4 4 4h84q4 0 4 -4l-14 -95q0 -4 -4 -4h-84zM350 577q-4 0 -4 4l14 95 q0 4 4 4h83q4 0 4 -4l-14 -95q0 -4 -4 -4h-83z" />
<glyph unicode="&#xf7;" d="M54 229q-3 0 -3 4l12 84q0 4 4 4h406q4 0 4 -4l-12 -84q0 -4 -5 -4h-406zM181 42q-4 0 -3 4l15 109q1 4 4 4h100q4 0 4 -4l-16 -109q0 -4 -4 -4h-100zM230 392q-4 0 -3 4l15 108q0 4 4 4h100q4 0 4 -4l-15 -108q0 -4 -5 -4h-100z" />
<glyph unicode="&#xf8;" horiz-adv-x="499" d="M64 -40q-3 0 -3 2q0 4 28 51q-76 43 -55 186l13 88q10 67 32.5 110t57.5 62.5t67 25.5t79 6q43 0 64 -3q4 6 8 13.5t7 12.5l2 4q4 4 7 4h68q4 0 1 -4l-29 -51q69 -44 49 -179l-13 -89q-8 -56 -26 -96t-38.5 -61t-52 -33t-57 -14.5t-62.5 -2.5q-31 0 -56 3 q-19 -28 -19 -31q-1 -4 -6 -4h-66zM225 87q23 0 37.5 3t31 14t26.5 36t16 65l11 75q7 31 3 52.5t-8.5 34t-17.5 19t-24.5 8.5t-29.5 2q-47 0 -75 -22t-38 -94l-11 -75q-11 -75 10 -96.5t69 -21.5z" />
<glyph unicode="&#xf9;" horiz-adv-x="527" d="M491 482q3 0 3 -4l-67 -474q0 -4 -4 -4h-102q-4 0 -4 4l2 13q-86 -25 -127 -25q-35 0 -58 4.5t-48.5 20.5t-35 55t-0.5 99l43 307q0 4 5 4h103q3 0 3 -4l-42 -300q-8 -57 7.5 -74t52.5 -17q16 0 43.5 5.5t46.5 11.5l20 6l52 368q0 4 5 4h102zM309 556l-71 141q-3 4 2 4 h97q4 0 5 -4l52 -141q1 -4 -2 -4h-78q-3 0 -5 4z" />
<glyph unicode="&#xfa;" horiz-adv-x="527" d="M491 482q3 0 3 -4l-67 -474q0 -4 -4 -4h-102q-4 0 -4 4l2 13q-86 -25 -127 -25q-35 0 -58 4.5t-48.5 20.5t-35 55t-0.5 99l43 307q0 4 5 4h103q3 0 3 -4l-42 -300q-8 -57 7.5 -74t52.5 -17q16 0 43.5 5.5t46.5 11.5l20 6l52 368q0 4 5 4h102zM303 556q-2 -4 -7 -4h-77 q-4 0 -1 4l91 141q3 4 7 4h96q6 0 2 -4z" />
<glyph unicode="&#xfb;" horiz-adv-x="527" d="M491 482q3 0 3 -4l-67 -474q0 -4 -4 -4h-102q-4 0 -4 4l2 13q-86 -25 -127 -25q-35 0 -58 4.5t-48.5 20.5t-35 55t-0.5 99l43 307q0 4 5 4h103q3 0 3 -4l-42 -300q-8 -57 7.5 -74t52.5 -17q16 0 43.5 5.5t46.5 11.5l20 6l52 368q0 4 5 4h102zM244 551h-78q-3 0 -1 4 q9 13 55 72t54 70q2 3 7 3h91q5 0 7 -4q1 -2 35 -71t34 -70q4 -4 -2 -4h-78q-3 0 -5 4l-44 77h-4q-61 -74 -64 -77q-4 -4 -7 -4z" />
<glyph unicode="&#xfc;" horiz-adv-x="527" d="M491 482q3 0 3 -4l-67 -474q0 -4 -4 -4h-102q-4 0 -4 4l2 13q-86 -25 -127 -25q-35 0 -58 4.5t-48.5 20.5t-35 55t-0.5 99l43 307q0 4 5 4h103q3 0 3 -4l-42 -300q-8 -57 7.5 -74t52.5 -17q16 0 43.5 5.5t46.5 11.5l20 6l52 368q0 4 5 4h102zM172 577q-4 0 -3 4l13 95 q1 4 4 4h84q4 0 4 -4l-13 -95q-1 -4 -5 -4h-84zM364 577q-4 0 -3 4l13 95q1 4 4 4h83q4 0 4 -4l-13 -95q-1 -4 -5 -4h-83z" />
<glyph unicode="&#xfd;" horiz-adv-x="477" d="M4 -180q-3 0 -3 3q0 2 11 44l11 42q0 4 5 4h26q48 0 80 67l19 39q-102 456 -103 459q-2 4 3 4h108q4 0 4 -4l61 -308h10q142 305 142 308q2 4 6 4h107q2 0 1 -4q-6 -18 -268 -529q-24 -46 -44 -73.5t-42.5 -39t-39 -14t-48.5 -2.5h-46zM282 556q-2 -4 -7 -4h-77 q-4 0 -1 4l91 141q3 4 7 4h96q6 0 2 -4z" />
<glyph unicode="&#xfe;" horiz-adv-x="528" d="M158 109q65 -20 100 -20q19 0 30.5 2.5t27 13t26 35.5t16.5 65l10 69q3 41 2 64.5t-15 35.5t-26 15t-32 3q-99 0 -106 -55zM114 -180h-103q-4 0 -4 4l120 852q0 4 5 4h103q3 0 3 -4l-31 -220q31 31 131 31q15 0 24 -0.5t25 -2t25.5 -5t23 -11t21 -17.5t15.5 -26t11 -36 t3 -48t-5 -61l-12 -83q-8 -58 -27 -99t-38.5 -60.5t-49.5 -30t-46.5 -12t-44.5 -1.5q-11 0 -40.5 5t-53.5 10l-24 5l-27 -190q0 -4 -4 -4z" />
<glyph unicode="&#xff;" horiz-adv-x="477" d="M4 -180q-3 0 -3 3q0 2 11 44l11 42q0 4 5 4h26q48 0 80 67l19 39q-102 456 -103 459q-2 4 3 4h108q4 0 4 -4l61 -308h10q142 305 142 308q2 4 6 4h107q2 0 1 -4q-6 -18 -268 -529q-24 -46 -44 -73.5t-42.5 -39t-39 -14t-48.5 -2.5h-46zM151 577q-4 0 -3 4l13 95q1 4 4 4 h84q4 0 4 -4l-13 -95q-1 -4 -5 -4h-84zM343 577q-4 0 -3 4l13 95q1 4 4 4h83q4 0 4 -4l-13 -95q-1 -4 -5 -4h-83z" />
<glyph unicode="&#x100;" horiz-adv-x="591" d="M89 0h-112q-4 0 -3 4q0 2 157 336.5t158 335.5q1 4 5 4h126q4 0 5 -4l123 -672q0 -4 -4 -4h-113q-3 0 -4 4l-20 128h-256q-56 -125 -57 -128q-1 -4 -5 -4zM193 226h200l-48 301h-20zM507 788h-271q-4 0 -4 4l11 76q0 4 4 4h271q4 0 4 -4l-11 -76q0 -4 -4 -4z" />
<glyph unicode="&#x101;" horiz-adv-x="497" d="M204 75q22 0 37 1.5t31.5 6t26 15.5t12.5 28l10 77q-66 14 -113 14q-30 0 -51 -14.5t-24 -35.5l-4 -31q-3 -26 15 -43.5t60 -17.5zM159 -10q-71 0 -106.5 35t-27.5 91l8 52q9 58 56.5 90.5t107.5 32.5q24 0 57.5 -3.5t55.5 -7.5l21 -3l7 52q6 44 -15.5 58.5t-76.5 14.5 q-18 0 -38 -1.5t-35.5 -3.5t-28 -4t-20 -3.5t-8.5 -1.5q-3 0 -3 3q-1 4 -5 36t-4 35q-1 3 3 5q75 25 164 25q33 0 55 -2t50 -11t43.5 -25.5t23.5 -48.5t2 -77l-45 -324q-1 -4 -5 -4h-99q-3 0 -3 4l2 16q-28 -30 -136 -30zM432 590h-271q-4 0 -4 4l11 76q0 4 5 4h271 q3 0 3 -4l-11 -76q0 -4 -4 -4z" />
<glyph unicode="&#x102;" horiz-adv-x="591" d="M89 0h-112q-4 0 -3 4q0 2 157 336.5t158 335.5q1 4 5 4h126q4 0 5 -4l123 -672q0 -4 -4 -4h-113q-3 0 -4 4l-20 128h-256q-56 -125 -57 -128q-1 -4 -5 -4zM193 226h200l-48 301h-20zM368 754q-122 0 -122 104q0 27 8 27h47q7 0 8 -5q7 -33 20.5 -43.5t47.5 -10.5 q31 0 48.5 11.5t32.5 42.5q2 5 8 5h49q6 0 5 -6q-25 -125 -152 -125z" />
<glyph unicode="&#x103;" horiz-adv-x="497" d="M204 75q22 0 37 1.5t31.5 6t26 15.5t12.5 28l10 77q-66 14 -113 14q-30 0 -51 -14.5t-24 -35.5l-4 -31q-3 -26 15 -43.5t60 -17.5zM159 -10q-71 0 -106.5 35t-27.5 91l8 52q9 58 56.5 90.5t107.5 32.5q24 0 57.5 -3.5t55.5 -7.5l21 -3l7 52q6 44 -15.5 58.5t-76.5 14.5 q-18 0 -38 -1.5t-35.5 -3.5t-28 -4t-20 -3.5t-8.5 -1.5q-3 0 -3 3q-1 4 -5 36t-4 35q-1 3 3 5q75 25 164 25q33 0 55 -2t50 -11t43.5 -25.5t23.5 -48.5t2 -77l-45 -324q-1 -4 -5 -4h-99q-3 0 -3 4l2 16q-28 -30 -136 -30zM293 556q-121 0 -121 104q0 27 8 27h47q7 0 8 -5 q7 -33 20 -43.5t47 -10.5q31 0 48.5 11.5t32.5 42.5q3 5 9 5h49q6 0 5 -6q-25 -125 -153 -125z" />
<glyph unicode="&#x104;" horiz-adv-x="591" d="M440 -184q-37 0 -57.5 13.5t-20.5 51.5q0 67 78 119h-9q-3 0 -4 4l-20 128h-256q-56 -125 -57 -128q-1 -4 -5 -4h-112q-4 0 -3 4q0 2 157 336.5t158 335.5q1 4 5 4h126q4 0 5 -4l123 -672q0 -4 -4 -4q-1 0 -1 -1q-50 -30 -72 -49t-22 -40q0 -16 19 -16q14 0 29 10 q6 2 7 -2l19 -49q2 -6 -2 -9q-35 -28 -81 -28zM193 226h200l-48 301h-20z" />
<glyph unicode="&#x105;" horiz-adv-x="497" d="M292 -184q-37 0 -57.5 13.5t-20.5 51.5q0 42 22.5 74.5t56.5 32.5v16l2 16q-28 -30 -136 -30q-71 0 -106.5 35t-27.5 91l8 52q9 58 56.5 90.5t107.5 32.5q24 0 57.5 -3.5t55.5 -7.5l21 -3l7 52q6 44 -15.5 58.5t-76.5 14.5q-18 0 -38 -1.5t-35.5 -3.5t-28 -4t-20 -3.5 t-8.5 -1.5q-2 -1 -3 0t0 3q-1 3 -3 19t-4 33t-2 19q0 4 3 5q75 25 164 25q33 0 55 -2t50 -11t43.5 -25.5t23.5 -48.5t2 -77l-45 -324q-1 -4 -4 -4q-1 0 -1 -1q-50 -30 -71.5 -49t-21.5 -40q0 -16 18 -16q15 0 30 10q5 2 6 -2l19 -49q2 -6 -2 -9q-35 -28 -81 -28zM204 75 q22 0 37 1.5t31.5 6t26 15.5t12.5 28l10 77q-66 14 -113 14q-30 0 -51 -14.5t-24 -35.5l-4 -31q-3 -26 15 -43.5t60 -17.5z" />
<glyph unicode="&#x106;" horiz-adv-x="536" d="M264 -10q-22 0 -40 1t-39.5 4t-37.5 9t-33.5 15t-28.5 22.5t-22.5 32t-14.5 42t-5.5 54t4.5 68.5l29 210q9 64 30.5 110t48 71t64 39.5t69.5 18.5t75 4q115 0 173 -29q3 -3 2 -6q-10 -15 -45 -85q-2 -3 -6 -2q-2 1 -20 5t-52 8t-66 4q-29 0 -49 -4t-44.5 -17.5 t-40.5 -45.5t-23 -83l-27 -188q-8 -40 -2.5 -67.5t13 -43.5t25.5 -25t35.5 -11.5t42.5 -2.5q22 0 46 2.5t42.5 5.5t33.5 6t25 6l9 2q2 2 4 -2q1 -1 10.5 -42t9.5 -43q0 -4 -3 -5q-3 -3 -21.5 -10.5t-66.5 -17.5t-104 -10zM366 754q-4 -4 -7 -4h-77q-3 0 -2 4l91 141q3 4 8 4 h96q5 0 1 -4z" />
<glyph unicode="&#x107;" horiz-adv-x="458" d="M219 -8q-20 0 -34.5 0.5t-33 3t-31 6.5t-27.5 11.5t-23 18t-18 25t-11.5 33.5t-4 43.5t3.5 55.5l15 109q7 52 26 89t41 57t54 31t56.5 13.5t57.5 2.5q80 0 143 -21q4 -3 3 -6l-33 -73q-1 -3 -5 -3q-24 8 -117 8q-102 0 -116 -107l-13 -93q-5 -36 0 -59.5t20 -33.5t29 -13 t36 -3q19 0 38.5 1t34 2.5t26 3.5t18.5 3l7 1q5 0 5 -3q0 -2 6 -38t6 -37q0 -4 -3 -5q-69 -23 -156 -23zM299 556q-4 -4 -7 -4h-77q-4 0 -1 4l90 141q3 4 8 4h96q5 0 1 -4z" />
<glyph unicode="&#x108;" horiz-adv-x="536" d="M264 -10q-22 0 -40 1t-39.5 4t-37.5 9t-33.5 15t-28.5 22.5t-22.5 32t-14.5 42t-5.5 54t4.5 68.5l29 210q9 64 30.5 110t48 71t64 39.5t69.5 18.5t75 4q115 0 173 -29q3 -3 2 -6q-10 -15 -45 -85q-2 -3 -6 -2q-2 1 -20 5t-52 8t-66 4q-29 0 -49 -4t-44.5 -17.5 t-40.5 -45.5t-23 -83l-27 -188q-8 -40 -2.5 -67.5t13 -43.5t25.5 -25t35.5 -11.5t42.5 -2.5q22 0 46 2.5t42.5 5.5t33.5 6t25 6l9 2q2 2 4 -2q1 -1 10.5 -42t9.5 -43q0 -4 -3 -5q-3 -3 -21.5 -10.5t-66.5 -17.5t-104 -10zM307 749h-78q-4 0 -2 4q9 13 55 72t54 70q2 3 8 3 h91q5 0 7 -4q0 -1 34 -70t34 -71q4 -4 -1 -4h-78q-4 0 -6 4l-44 77h-4q-61 -74 -64 -77q-4 -4 -6 -4z" />
<glyph unicode="&#x109;" horiz-adv-x="458" d="M219 -8q-20 0 -34.5 0.5t-33 3t-31 6.5t-27.5 11.5t-23 18t-18 25t-11.5 33.5t-4 43.5t3.5 55.5l15 109q7 52 26 89t41 57t54 31t56.5 13.5t57.5 2.5q80 0 143 -21q4 -3 3 -6l-33 -73q-1 -3 -5 -3q-24 8 -117 8q-102 0 -116 -107l-13 -93q-5 -36 0 -59.5t20 -33.5t29 -13 t36 -3q19 0 38.5 1t34 2.5t26 3.5t18.5 3l7 1q5 0 5 -3q0 -2 6 -38t6 -37q0 -4 -3 -5q-69 -23 -156 -23zM234 551h-78q-4 0 -2 4q9 13 55 72t54 70q1 3 8 3h91q5 0 7 -4q0 -1 34 -70t34 -71q4 -4 -1 -4h-78q-4 0 -6 4l-44 77h-4q-61 -74 -64 -77q-4 -4 -6 -4z" />
<glyph unicode="&#x10a;" horiz-adv-x="536" d="M264 -10q-22 0 -40 1t-39.5 4t-37.5 9t-33.5 15t-28.5 22.5t-22.5 32t-14.5 42t-5.5 54t4.5 68.5l29 210q9 64 30.5 110t48 71t64 39.5t69.5 18.5t75 4q115 0 173 -29q3 -3 2 -6q-10 -15 -45 -85q-2 -3 -6 -2q-2 1 -20 5t-52 8t-66 4q-29 0 -49 -4t-44.5 -17.5 t-40.5 -45.5t-23 -83l-27 -188q-8 -40 -2.5 -67.5t13 -43.5t25.5 -25t35.5 -11.5t42.5 -2.5q22 0 46 2.5t42.5 5.5t33.5 6t25 6l9 2q2 2 4 -2q1 -1 10.5 -42t9.5 -43q0 -4 -3 -5q-3 -3 -21.5 -10.5t-66.5 -17.5t-104 -10zM320 770q-4 0 -4 4l14 100q0 4 5 4h102q3 0 3 -4 l-14 -100q0 -4 -5 -4h-101z" />
<glyph unicode="&#x10b;" horiz-adv-x="458" d="M219 -8q-20 0 -34.5 0.5t-33 3t-31 6.5t-27.5 11.5t-23 18t-18 25t-11.5 33.5t-4 43.5t3.5 55.5l15 109q7 52 26 89t41 57t54 31t56.5 13.5t57.5 2.5q80 0 143 -21q4 -3 3 -6l-33 -73q-1 -3 -5 -3q-24 8 -117 8q-102 0 -116 -107l-13 -93q-5 -36 0 -59.5t20 -33.5t29 -13 t36 -3q19 0 38.5 1t34 2.5t26 3.5t18.5 3l7 1q5 0 5 -3q0 -2 6 -38t6 -37q0 -4 -3 -5q-69 -23 -156 -23zM254 572q-4 0 -4 4l14 100q0 4 5 4h102q4 0 3 -4l-14 -100q0 -4 -5 -4h-101z" />
<glyph unicode="&#x10c;" horiz-adv-x="536" d="M264 -10q-22 0 -40 1t-39.5 4t-37.5 9t-33.5 15t-28.5 22.5t-22.5 32t-14.5 42t-5.5 54t4.5 68.5l29 210q9 64 30.5 110t48 71t64 39.5t69.5 18.5t75 4q115 0 173 -29q3 -3 2 -6q-10 -15 -45 -85q-2 -3 -6 -2q-2 1 -20 5t-52 8t-66 4q-29 0 -49 -4t-44.5 -17.5 t-40.5 -45.5t-23 -83l-27 -188q-8 -40 -2.5 -67.5t13 -43.5t25.5 -25t35.5 -11.5t42.5 -2.5q22 0 46 2.5t42.5 5.5t33.5 6t25 6l9 2q2 2 4 -2q1 -1 10.5 -42t9.5 -43q0 -4 -3 -5q-3 -3 -21.5 -10.5t-66.5 -17.5t-104 -10zM450 896h82q4 0 0 -4l-120 -141q-4 -4 -8 -4h-73 q-5 0 -7 4q-6 13 -41 72t-40 70q-1 3 2 3h81q3 0 6 -4l43 -75h4q63 72 65 75q3 4 6 4z" />
<glyph unicode="&#x10d;" horiz-adv-x="458" d="M219 -8q-20 0 -34.5 0.5t-33 3t-31 6.5t-27.5 11.5t-23 18t-18 25t-11.5 33.5t-4 43.5t3.5 55.5l15 109q7 52 26 89t41 57t54 31t56.5 13.5t57.5 2.5q80 0 143 -21q4 -3 3 -6l-33 -73q-1 -3 -5 -3q-24 8 -117 8q-102 0 -116 -107l-13 -93q-5 -36 0 -59.5t20 -33.5t29 -13 t36 -3q19 0 38.5 1t34 2.5t26 3.5t18.5 3l7 1q5 0 5 -3q0 -2 6 -38t6 -37q0 -4 -3 -5q-69 -23 -156 -23zM378 698h82q4 0 1 -4l-121 -141q-4 -4 -8 -4h-73q-5 0 -7 4q-6 13 -41 72t-40 70q-1 3 2 3h81q3 0 6 -4l43 -75h4q63 72 65 75q3 4 6 4z" />
<glyph unicode="&#x10e;" horiz-adv-x="594" d="M165 105h113q66 0 101.5 28.5t48.5 122.5l24 171q4 26 4 46.5t-3 35.5t-8 26t-14 18t-17.5 11.5t-21 7t-23 3t-25.5 0.5h-113zM263 0h-229l96 680h229q24 0 39 -0.5t40.5 -4t40 -10t36 -18t29.5 -29t21 -43t9.5 -59.5t-4.5 -78l-26 -191q-9 -69 -32 -117.5t-48.5 -73 t-64.5 -38t-66.5 -16t-69.5 -2.5zM444 896h82q4 0 0 -4l-121 -141q-4 -4 -7 -4h-73q-5 0 -7 4q-6 12 -41 71t-40 71q-1 3 2 3h81q2 0 5 -4l44 -75h4q62 72 64 75q3 4 7 4z" />
<glyph unicode="&#x10f;" horiz-adv-x="651" d="M412 0h-103q-4 0 -4 3l3 22q-13 -14 -48.5 -24t-81.5 -10q-16 0 -27 0.5t-26 3t-25.5 6.5t-22.5 11.5t-19.5 18t-14.5 26t-10 35.5t-2.5 47t4.5 59l12 87q10 68 31.5 112t54 62t57.5 23t62 5q17 0 46.5 -4.5t51.5 -9.5l21 -5l29 208q1 4 5 4h103q3 0 3 -4l-94 -672 q-1 -4 -5 -4zM217 86q100 0 108 59l32 227q-66 20 -99 20q-19 0 -31.5 -3t-27.5 -13.5t-25.5 -35t-15.5 -63.5l-10 -73q-2 -28 -3.5 -48t5 -33t11.5 -20.5t16.5 -11t19 -4.5t20.5 -1zM554 492q-2 -1 -4 0t-1 4l25 180q1 4 4 4h87q2 0 2 -4l-16 -116q0 -3 -4 -6z" />
<glyph unicode="&#x110;" horiz-adv-x="605" d="M165 105h114q24 0 39 1.5t35.5 10t33.5 23.5t24.5 44.5t17.5 71.5l24 171q3 23 3.5 42.5t-1.5 34t-7.5 25.5t-11 18.5t-15 12.5t-17 8t-19.5 4t-19.5 1.5t-20.5 0.5h-114l-26 -185h103q3 0 3 -4l-12 -83q0 -4 -4 -4h-103zM257 0h-223l42 298h-41q-4 0 -4 4l12 83q0 4 5 4 h41l41 291h223q41 0 69 -3t63.5 -16.5t55 -38t29.5 -71.5t1 -113l-26 -191q-7 -50 -21.5 -90t-31 -65.5t-42 -43.5t-46 -27.5t-51 -14t-49 -5.5t-47.5 -1z" />
<glyph unicode="&#x111;" horiz-adv-x="530" d="M218 89q100 0 108 56l32 227q-65 20 -101 20q-41 0 -65.5 -22.5t-34.5 -92.5l-10 -70q-10 -72 8.5 -95t62.5 -23zM178 -6q-19 0 -34 1t-31.5 4.5t-28 10t-23 17t-18 26t-10.5 36.5t-3.5 49t5.5 63l12 83q8 54 24 93t35 60t46 32.5t49 14.5t52 3q21 0 50.5 -5t48.5 -10 l19 -5l11 81h-117q-3 0 -3 4l10 72q0 4 6 4h115l7 47q0 4 5 4h103q2 0 2 -4l-7 -47h45q4 0 4 -4l-10 -72q0 -4 -5 -4h-45l-76 -544q-1 -4 -4 -4h-103q-3 0 -3 3l3 22q-32 -31 -131 -31z" />
<glyph unicode="&#x112;" horiz-adv-x="529" d="M34 0l96 680h414q3 0 3 -4l-13 -94q0 -4 -5 -4h-298l-25 -183h252q3 0 3 -4l-13 -93q0 -4 -5 -4h-252l-27 -193h298q4 0 4 -4l-13 -93q0 -4 -5 -4h-414zM489 788h-271q-4 0 -4 4l11 76q0 4 5 4h271q3 0 3 -4l-11 -76q0 -4 -4 -4z" />
<glyph unicode="&#x113;" horiz-adv-x="493" d="M155 277h184q10 69 -10 93.5t-63 24.5q-46 0 -73.5 -23.5t-37.5 -94.5zM222 -9q-32 0 -57 3t-55.5 15.5t-48.5 34t-27.5 62t-1.5 95.5l12 84q30 205 236 205q16 0 28 -0.5t29 -3t29 -7t27 -12t23.5 -18.5t19 -27t13 -36.5t5 -46.5t-4.5 -59l-11 -77h-294q-10 -73 15 -96 t77 -23q22 0 45.5 1.5t41.5 3.5t33 4t24 3l9 2q4 1 4 -3q1 -3 4.5 -36t3.5 -36q0 -5 -3 -6q-78 -26 -176 -26zM430 590h-271q-4 0 -4 4l11 76q0 4 5 4h271q3 0 3 -4l-11 -76q0 -4 -4 -4z" />
<glyph unicode="&#x114;" horiz-adv-x="529" d="M34 0l96 680h414q3 0 3 -4l-13 -94q0 -4 -5 -4h-298l-25 -183h252q3 0 3 -4l-13 -93q0 -4 -5 -4h-252l-27 -193h298q4 0 4 -4l-13 -93q0 -4 -5 -4h-414zM357 754q-121 0 -121 104q0 27 7 27h47q8 0 9 -5q7 -33 20 -43.5t47 -10.5q31 0 48.5 11.5t32.5 42.5q3 5 8 5h49 q6 0 5 -6q-25 -125 -152 -125z" />
<glyph unicode="&#x115;" horiz-adv-x="493" d="M155 277h184q10 69 -10 93.5t-63 24.5q-46 0 -73.5 -23.5t-37.5 -94.5zM222 -9q-32 0 -57 3t-55.5 15.5t-48.5 34t-27.5 62t-1.5 95.5l12 84q30 205 236 205q16 0 28 -0.5t29 -3t29 -7t27 -12t23.5 -18.5t19 -27t13 -36.5t5 -46.5t-4.5 -59l-11 -77h-294q-10 -73 15 -96 t77 -23q22 0 45.5 1.5t41.5 3.5t33 4t24 3l9 2q4 1 4 -3q1 -3 4.5 -36t3.5 -36q0 -5 -3 -6q-78 -26 -176 -26zM294 556q-121 0 -121 104q0 27 7 27h47q8 0 9 -5q7 -33 20 -43.5t47 -10.5q31 0 48.5 11.5t32.5 42.5q2 5 8 5h49q6 0 5 -6q-25 -125 -152 -125z" />
<glyph unicode="&#x116;" horiz-adv-x="529" d="M34 0l96 680h414q3 0 3 -4l-13 -94q0 -4 -5 -4h-298l-25 -183h252q3 0 3 -4l-13 -93q0 -4 -5 -4h-252l-27 -193h298q4 0 4 -4l-13 -93q0 -4 -5 -4h-414zM315 770q-3 0 -3 4l14 100q0 4 4 4h102q4 0 4 -4l-14 -100q0 -4 -6 -4h-101z" />
<glyph unicode="&#x117;" horiz-adv-x="493" d="M222 -9q-32 0 -57 3t-55.5 15.5t-48.5 34t-27.5 62t-1.5 95.5l12 84q30 205 236 205q16 0 28 -0.5t29 -3t29 -7t27 -12t23.5 -18.5t19 -27t13 -36.5t5 -46.5t-4.5 -59l-11 -77h-294q-10 -73 15 -96t77 -23q22 0 45.5 1.5t41.5 3.5t33 4t24 3l9 2q4 1 4 -3q1 -4 5 -36.5 t3 -35.5q2 -4 -3 -6q-78 -26 -176 -26zM155 277h184q10 69 -10 93.5t-63 24.5q-46 0 -73.5 -23.5t-37.5 -94.5zM245 572q-3 0 -3 4l14 100q0 4 4 4h102q4 0 4 -4l-14 -100q0 -4 -6 -4h-101z" />
<glyph unicode="&#x118;" horiz-adv-x="529" d="M34 0l96 680h414q3 0 3 -4l-13 -94q0 -4 -5 -4h-298l-25 -183h252q3 0 3 -4l-13 -93q0 -4 -5 -4h-252l-27 -193h298q4 0 4 -4l-13 -93q0 -4 -3 -4q-2 0 -2 -1q-50 -30 -71.5 -49t-21.5 -40q0 -16 18 -16q15 0 30 10q5 2 6 -2l19 -49q2 -6 -2 -9q-35 -28 -81 -28 q-37 0 -57.5 13.5t-20.5 51.5q0 66 78 119h-311z" />
<glyph unicode="&#x119;" horiz-adv-x="493" d="M180 -187q-37 0 -57.5 13.5t-20.5 51.5q0 64 72 115q-166 17 -141 208l11 84q27 205 236 205q18 0 32 -1t33 -4t32 -9.5t29 -17t24 -25.5t16.5 -37t7.5 -50.5t-4 -65.5l-11 -77h-294q-10 -73 14.5 -96t76.5 -23q22 0 45.5 1.5t41.5 3.5t33 4t24 3l9 2q5 1 5 -3 q1 -3 4.5 -36t3.5 -36q0 -5 -3 -6q-52 -17 -120 -23q-48 -29 -68.5 -47.5t-20.5 -39.5q0 -16 18 -16q15 0 30 10q5 2 6 -2l19 -49q2 -6 -2 -9q-35 -28 -81 -28zM155 277h184q10 69 -9.5 93.5t-62.5 24.5q-46 0 -74 -23.5t-38 -94.5z" />
<glyph unicode="&#x11a;" horiz-adv-x="529" d="M34 0l96 680h414q3 0 3 -4l-13 -94q0 -4 -5 -4h-298l-25 -183h252q3 0 3 -4l-13 -93q0 -4 -5 -4h-252l-27 -193h298q4 0 4 -4l-13 -93q0 -4 -5 -4h-414zM441 896h82q4 0 0 -4l-121 -141q-4 -4 -7 -4h-73q-5 0 -7 4q-6 13 -41 72t-40 70q-2 3 2 3h81q2 0 5 -4l44 -75h4 q62 72 64 75q3 4 7 4z" />
<glyph unicode="&#x11b;" horiz-adv-x="493" d="M155 277h184q10 69 -10 93.5t-63 24.5q-46 0 -73.5 -23.5t-37.5 -94.5zM222 -9q-32 0 -57 3t-55.5 15.5t-48.5 34t-27.5 62t-1.5 95.5l12 84q30 205 236 205q16 0 28 -0.5t29 -3t29 -7t27 -12t23.5 -18.5t19 -27t13 -36.5t5 -46.5t-4.5 -59l-11 -77h-294q-10 -73 15 -96 t77 -23q22 0 45.5 1.5t41.5 3.5t33 4t24 3l9 2q4 1 4 -3q1 -3 4.5 -36t3.5 -36q0 -5 -3 -6q-78 -26 -176 -26zM374 698h82q4 0 1 -4l-122 -141q-4 -4 -7 -4h-73q-5 0 -7 4q-6 12 -41 71t-40 71q-1 3 2 3h81q3 0 6 -4l43 -75h4q62 72 64 75q3 4 7 4z" />
<glyph unicode="&#x11c;" horiz-adv-x="588" d="M259 -10q-22 0 -39 1t-38 4t-36.5 8.5t-33.5 14.5t-28.5 22.5t-22 31.5t-14.5 42t-5.5 55t5.5 69l30 210q8 56 25 98t41.5 67.5t49.5 42t58.5 23.5t57 9t55.5 2q54 0 104.5 -7t73 -13.5t25.5 -8.5q3 -1 1 -6l-39 -83q-1 -3 -5 -3q-3 1 -28 5t-68.5 8t-77.5 4 q-29 0 -48.5 -3.5t-44.5 -17t-41.5 -45.5t-23.5 -83l-27 -190q-2 -35 -3 -59.5t7.5 -41.5t17 -27t24.5 -15.5t30 -7t33 -1.5l135 9l24 168h-98q-4 0 -4 4l13 89q0 4 5 4h198l-51 -357q-168 -22 -237 -22zM315 749h-78q-3 0 -1 4q9 14 55 72.5t53 69.5q2 3 8 3h91q5 0 7 -4 q0 -2 34 -71t35 -70q2 -4 -2 -4h-78q-4 0 -6 4l-44 77h-4q-61 -74 -64 -77q-4 -4 -6 -4z" />
<glyph unicode="&#x11d;" horiz-adv-x="511" d="M208 88q15 0 41.5 5t45.5 9l19 5l32 229q8 56 -92 56q-20 0 -33 -3t-28.5 -14t-26 -36t-15.5 -65l-9 -70q-10 -72 7.5 -94t58.5 -22zM169 -203q-98 0 -167 23q-4 2 -2 5q0 1 18 38.5t18 38.5q3 4 5 3q42 -14 138 -14q33 0 53.5 4t39.5 24t24 57l5 38q-83 -18 -124 -18 q-16 0 -28.5 0.5t-28 3t-26.5 6.5t-23 11.5t-20 17.5t-15 25.5t-10 34.5t-2.5 44.5t4.5 56.5l12 84q10 68 29.5 112t49 63.5t56.5 25.5t66 6q98 0 122 -31l3 22q0 4 5 4h103q3 0 3 -4l-70 -502q-7 -50 -25.5 -84.5t-39.5 -53t-54.5 -28t-57.5 -11.5t-61 -2zM234 551h-78 q-3 0 -1 4q9 13 55 72t54 70q2 3 7 3h91q5 0 7 -4q0 -2 34 -71t35 -70q2 -4 -2 -4h-78q-3 0 -5 4l-44 77h-4q-61 -74 -64 -77q-4 -4 -7 -4z" />
<glyph unicode="&#x11e;" horiz-adv-x="588" d="M259 -10q-22 0 -39 1t-38 4t-36.5 8.5t-33.5 14.5t-28.5 22.5t-22 31.5t-14.5 42t-5.5 55t5.5 69l30 210q8 56 25 98t41.5 67.5t49.5 42t58.5 23.5t57 9t55.5 2q54 0 104.5 -7t73 -13.5t25.5 -8.5q3 -1 1 -6l-39 -83q-1 -3 -5 -3q-3 1 -28 5t-68.5 8t-77.5 4 q-29 0 -48.5 -3.5t-44.5 -17t-41.5 -45.5t-23.5 -83l-27 -190q-2 -35 -3 -59.5t7.5 -41.5t17 -27t24.5 -15.5t30 -7t33 -1.5l135 9l24 168h-98q-4 0 -4 4l13 89q0 4 5 4h198l-51 -357q-168 -22 -237 -22zM373 754q-122 0 -122 104q0 27 8 27h47q7 0 8 -5q7 -33 20.5 -43.5 t47.5 -10.5q31 0 48 11.5t32 42.5q2 5 9 5h49q6 0 5 -6q-25 -125 -152 -125z" />
<glyph unicode="&#x11f;" horiz-adv-x="511" d="M208 88q15 0 41.5 5t45.5 9l19 5l32 229q8 56 -92 56q-20 0 -33 -3t-28.5 -14t-26 -36t-15.5 -65l-9 -70q-10 -72 7.5 -94t58.5 -22zM169 -203q-98 0 -167 23q-4 2 -2 5q0 1 18 38.5t18 38.5q3 4 5 3q42 -14 138 -14q33 0 53.5 4t39.5 24t24 57l5 38q-83 -18 -124 -18 q-16 0 -28.5 0.5t-28 3t-26.5 6.5t-23 11.5t-20 17.5t-15 25.5t-10 34.5t-2.5 44.5t4.5 56.5l12 84q10 68 29.5 112t49 63.5t56.5 25.5t66 6q98 0 122 -31l3 22q0 4 5 4h103q3 0 3 -4l-70 -502q-7 -50 -25.5 -84.5t-39.5 -53t-54.5 -28t-57.5 -11.5t-61 -2zM296 556 q-121 0 -121 104q0 27 7 27h47q8 0 9 -5q7 -33 20 -43.5t47 -10.5q31 0 48.5 11.5t32.5 42.5q2 5 8 5h49q6 0 5 -6q-25 -125 -152 -125z" />
<glyph unicode="&#x120;" horiz-adv-x="588" d="M259 -10q-22 0 -39 1t-38 4t-36.5 8.5t-33.5 14.5t-28.5 22.5t-22 31.5t-14.5 42t-5.5 55t5.5 69l30 210q8 56 25 98t41.5 67.5t49.5 42t58.5 23.5t57 9t55.5 2q54 0 104.5 -7t73 -13.5t25.5 -8.5q3 -1 1 -6l-39 -83q-1 -3 -5 -3q-3 1 -28 5t-68.5 8t-77.5 4 q-29 0 -48.5 -3.5t-44.5 -17t-41.5 -45.5t-23.5 -83l-27 -190q-2 -35 -3 -59.5t7.5 -41.5t17 -27t24.5 -15.5t30 -7t33 -1.5l135 9l24 168h-98q-4 0 -4 4l13 89q0 4 5 4h198l-51 -357q-168 -22 -237 -22zM317 770q-3 0 -3 4l14 100q0 4 4 4h102q4 0 4 -4l-14 -100 q0 -4 -6 -4h-101z" />
<glyph unicode="&#x121;" horiz-adv-x="511" d="M170 -203q-99 0 -168 23q-2 2 -2 3q0 7 36 79q3 4 5 3q56 -14 138 -14q33 0 53.5 4t39.5 24t24 57l5 38q-82 -18 -123 -18q-16 0 -28.5 0.5t-28 3t-26.5 6.5t-23 11.5t-20 17.5t-15 25.5t-10 34.5t-2.5 44.5t4.5 56.5l12 84q10 68 29.5 112t49 63.5t56.5 25.5t66 6 q99 0 121 -31l3 22q0 4 5 4h103q4 0 3 -4l-70 -502q-7 -50 -25.5 -84.5t-39.5 -53t-54 -28t-57 -11.5t-61 -2zM209 88q15 0 41 5t45 9l19 5l32 229q8 56 -92 56q-20 0 -32.5 -3t-28 -14t-25.5 -36t-16 -65l-10 -70q-10 -72 8 -94t59 -22zM247 572q-4 0 -4 4l14 100q0 4 5 4 h102q4 0 3 -4l-14 -100q0 -4 -5 -4h-101z" />
<glyph unicode="&#x122;" horiz-adv-x="588" d="M259 -10q-22 0 -39 1t-38 4t-36.5 8.5t-33.5 14.5t-28.5 22.5t-22 31.5t-14.5 42t-5.5 55t5.5 69l30 210q8 56 25 98t41.5 67.5t49.5 42t58.5 23.5t57 9t55.5 2q54 0 104.5 -7t73 -13.5t25.5 -8.5q3 -1 1 -6l-39 -83q-1 -3 -5 -3q-3 1 -28 5t-68.5 8t-77.5 4 q-29 0 -48.5 -3.5t-44.5 -17t-41.5 -45.5t-23.5 -83l-27 -190q-2 -35 -3 -59.5t7.5 -41.5t17 -27t24.5 -15.5t30 -7t33 -1.5l135 9l24 168h-98q-4 0 -4 4l13 89q0 4 5 4h198l-51 -357q-168 -22 -237 -22zM191 -259q-2 -1 -4 0t-1 4l25 180q1 4 4 4h87q2 0 2 -4l-16 -116 q0 -3 -4 -6z" />
<glyph unicode="&#x123;" horiz-adv-x="511" d="M170 -203q-99 0 -168 23q-2 2 -2 3q0 7 36 79q3 4 5 3q56 -14 138 -14q33 0 53.5 4t39.5 24t24 57l5 38q-82 -18 -123 -18q-16 0 -28.5 0.5t-28 3t-26.5 6.5t-23 11.5t-20 17.5t-15 25.5t-10 34.5t-2.5 44.5t4.5 56.5l12 84q10 68 29.5 112t49 63.5t56.5 25.5t66 6 q99 0 121 -31l3 22q0 4 5 4h103q4 0 3 -4l-70 -502q-7 -50 -25.5 -84.5t-39.5 -53t-54 -28t-57 -11.5t-61 -2zM209 88q15 0 41 5t45 9l19 5l32 229q8 56 -92 56q-20 0 -32.5 -3t-28 -14t-25.5 -36t-16 -65l-10 -70q-10 -72 8 -94t59 -22zM356 758q2 1 4 0t1 -4l-25 -180 q-1 -4 -4 -4h-87q-2 0 -2 4l16 116q0 3 4 6z" />
<glyph unicode="&#x124;" horiz-adv-x="622" d="M38 0q-4 0 -4 4l95 672q0 4 4 4h108q4 0 4 -4l-40 -284h252l40 284q0 4 4 4h108q4 0 4 -4l-95 -672q0 -4 -4 -4h-108q-5 0 -4 4l40 288h-252l-40 -288q-1 -4 -4 -4h-108zM319 749h-78q-3 0 -1 4q9 13 55 72t54 70q1 3 7 3h91q5 0 7 -4q1 -2 34.5 -71t34.5 -70q2 -4 -2 -4 h-78q-3 0 -5 4l-44 77h-4q-61 -74 -64 -77q-4 -4 -7 -4z" />
<glyph unicode="&#x125;" horiz-adv-x="529" d="M36 0q-4 0 -4 4l95 672q0 4 4 4h103q4 0 4 -4l-30 -215q85 26 127 26q17 0 29 -0.5t28.5 -3.5t27 -8t24 -14t19 -22t13 -31.5t5.5 -43t-4 -56.5l-43 -304q0 -4 -4 -4h-103q-4 0 -4 4l42 298q8 57 -7.5 74t-53.5 17q-16 0 -43 -6.5t-47 -12.5l-19 -6l-52 -364q0 -4 -4 -4 h-103zM273 749h-78q-3 0 -1 4q9 13 55 72t54 70q1 3 7 3h91q5 0 7 -4q0 -2 34 -71t35 -70q2 -4 -2 -4h-78q-3 0 -5 4l-44 77h-4q-61 -74 -64 -77q-4 -4 -7 -4z" />
<glyph unicode="&#x128;" horiz-adv-x="254" d="M38 0q-4 0 -4 4l95 672q0 4 5 4h108q3 0 3 -4l-94 -672q0 -4 -5 -4h-108zM68 775q-4 0 -2 5l7 56q1 8 8 15q35 35 77 35q26 0 61 -19t56 -19q23 0 47 17.5t25 17.5q4 0 3 -5l-7 -55q-2 -10 -8 -16q-37 -37 -78 -37q-27 0 -61 20t-53 20q-23 0 -48.5 -17.5t-26.5 -17.5z " />
<glyph unicode="&#x129;" horiz-adv-x="245" d="M30 0q-3 0 -3 4l67 474q0 4 4 4h104q2 0 2 -4l-66 -474q-1 -4 -4 -4h-104zM36 577q-4 0 -2 5l8 56q2 10 7 15q35 35 77 35q26 0 61 -19t56 -19q23 0 47 17.5t25 17.5q4 0 4 -5l-8 -55q-2 -11 -7 -16q-37 -37 -79 -37q-27 0 -61 20t-53 20q-23 0 -48.5 -17.5t-26.5 -17.5z " />
<glyph unicode="&#x12a;" horiz-adv-x="254" d="M38 0q-4 0 -4 4l95 672q0 4 4 4h108q4 0 4 -4l-95 -672q0 -4 -4 -4h-108zM338 788h-271q-3 0 -3 4l11 76q0 4 4 4h271q4 0 4 -4l-11 -76q0 -4 -5 -4z" />
<glyph unicode="&#x12b;" horiz-adv-x="245" d="M30 0q-3 0 -3 4l67 474q0 4 4 4h104q2 0 2 -4l-67 -474q0 -4 -3 -4h-104zM306 590h-271q-4 0 -4 4l11 76q0 4 5 4h271q3 0 3 -4l-11 -76q0 -4 -4 -4z" />
<glyph unicode="&#x12e;" horiz-adv-x="254" d="M38 0q-4 0 -4 4l95 672q0 4 4 4h108q4 0 4 -4l-95 -672q0 -4 -4 -4h-2q-48 -29 -69.5 -48t-21.5 -40q0 -16 18 -16q15 0 30 10q5 2 6 -2l19 -49q2 -6 -2 -9q-35 -28 -81 -28q-37 0 -57.5 13.5t-20.5 51.5q0 65 75 117h-2z" />
<glyph unicode="&#x12f;" horiz-adv-x="245" d="M36 0q-4 0 -4 4l67 474q0 4 5 4h103q3 0 3 -4l-66 -474q-2 -4 -3 -4q-2 0 -2 -1q-50 -30 -71.5 -49t-21.5 -40q0 -16 18 -16q15 0 30 10q5 2 6 -2l19 -49q2 -6 -2 -9q-35 -28 -81 -28q-37 0 -57.5 13.5t-20.5 51.5q0 66 78 119zM115 578q-4 0 -3 4l13 94q0 4 5 4h107 q2 0 2 -4l-13 -94q-1 -4 -4 -4h-107z" />
<glyph unicode="&#x130;" horiz-adv-x="254" d="M38 0q-4 0 -4 4l95 672q0 4 4 4h108q4 0 4 -4l-95 -672q0 -4 -4 -4h-108zM150 770q-3 0 -3 4l14 100q0 4 4 4h102q4 0 3 -4l-14 -100q0 -4 -5 -4h-101z" />
<glyph unicode="&#x131;" horiz-adv-x="245" d="M30 0q-3 0 -3 4l67 474q0 4 4 4h104q2 0 2 -4l-67 -474q0 -4 -3 -4h-104z" />
<glyph unicode="&#x134;" horiz-adv-x="473" d="M158 -10q-91 0 -157 22q-3 1 -1 6l38 86q2 4 5 2q2 -1 20.5 -3t49 -4.5t56.5 -2.5q31 0 51 4.5t39 25t24 57.5l69 493q1 4 5 4h108q2 0 2 -4l-70 -501q-7 -51 -26 -87t-40.5 -54.5t-54.5 -29t-57.5 -12.5t-60.5 -2zM357 749h-78q-3 0 -1 4q9 13 55 72t54 70q1 3 7 3h91 q6 0 8 -4q0 -2 33.5 -71t34.5 -70q4 -4 -2 -4h-78q-3 0 -5 4l-44 77h-4q-61 -74 -64 -77q-4 -4 -7 -4z" />
<glyph unicode="&#x136;" horiz-adv-x="584" d="M38 0q-4 0 -4 4l95 672q0 4 4 4h108q4 0 4 -4l-40 -283h36q229 279 232 283t6 4h124q3 0 1 -4l-276 -331q195 -339 196 -341q3 -4 -1 -4h-124q-3 0 -6 4l-161 288h-42l-40 -288q-1 -4 -4 -4h-108zM180 -259q-2 -1 -4 0t-1 4l25 180q1 4 4 4h87q3 0 2 -4l-16 -116 q0 -3 -4 -6z" />
<glyph unicode="&#x137;" horiz-adv-x="502" d="M36 0q-4 0 -4 4l95 672q0 4 4 4h103q4 0 4 -4l-53 -378h37q142 177 144 180q3 4 6 4h118q6 0 2 -4l-185 -226q140 -246 141 -248q2 -4 -1 -4h-122q-3 0 -6 4l-111 201h-37l-28 -201q-1 -4 -4 -4h-103zM138 -259q-2 -1 -4 0t-1 4l25 180q1 4 4 4h87q2 0 2 -4l-16 -116 q0 -3 -4 -6z" />
<glyph unicode="&#x139;" horiz-adv-x="509" d="M34 0l95 676q0 4 5 4h108q3 0 3 -4l-81 -575h298q4 0 4 -4l-13 -93q0 -4 -5 -4h-414zM322 754q-2 -4 -7 -4h-77q-4 0 -1 4l91 141q3 4 7 4h96q6 0 2 -4z" />
<glyph unicode="&#x13a;" horiz-adv-x="286" d="M176 -6q-22 0 -36.5 1t-30.5 4.5t-25.5 10.5t-18.5 19t-12.5 29.5t-3.5 42.5t5 58l72 517q1 4 5 4h102q4 0 4 -4l-73 -518q-6 -42 4 -56t32 -14q7 0 18.5 1t20.5 1.5t10 0.5q4 0 4 -3q1 -2 1 -81q0 -3 -3 -5q-24 -8 -75 -8zM226 754q-4 -4 -7 -4h-77q-4 0 -1 4l90 141 q3 4 8 4h96q5 0 1 -4z" />
<glyph unicode="&#x13b;" horiz-adv-x="509" d="M34 0l95 676q0 4 5 4h108q3 0 3 -4l-81 -575h298q4 0 4 -4l-13 -93q0 -4 -5 -4h-414zM162 -259q-5 -2 -5 4l25 180q1 4 4 4h87q3 0 2 -4l-16 -116q0 -3 -4 -6z" />
<glyph unicode="&#x13c;" horiz-adv-x="286" d="M176 -6q-22 0 -36.5 1t-30.5 4.5t-25.5 10.5t-18.5 19t-12.5 29.5t-3.5 42.5t5 58l72 517q1 4 5 4h102q4 0 4 -4l-73 -518q-6 -42 4 -56t32 -14q7 0 18.5 1t20.5 1.5t10 0.5q4 0 4 -3q1 -2 1 -81q0 -3 -3 -5q-24 -8 -75 -8zM54 -259q-2 -1 -3.5 0t-0.5 4l25 180q1 4 3 4 h87q3 0 3 -4l-16 -116q0 -3 -4 -6z" />
<glyph unicode="&#x13d;" horiz-adv-x="509" d="M34 0l95 676q0 4 5 4h108q3 0 3 -4l-81 -575h298q4 0 4 -4l-13 -93q0 -4 -5 -4h-414zM303 562q-2 -1 -3.5 0t-0.5 4l25 180q1 4 3 4h87q3 0 3 -4l-16 -116q0 -3 -4 -6z" />
<glyph unicode="&#x13e;" horiz-adv-x="415" d="M176 -6q-22 0 -36.5 1t-30.5 4.5t-25.5 10.5t-18.5 19t-12.5 29.5t-3.5 42.5t5 58l72 517q1 4 5 4h102q4 0 4 -4l-73 -518q-6 -42 4 -56t32 -14q7 0 18.5 1t20.5 1.5t10 0.5q4 0 4 -3q1 -2 1 -81q0 -3 -3 -5q-24 -8 -75 -8zM307 492q-5 -2 -5 4l25 180q1 4 4 4h87 q3 0 2 -4l-16 -116q0 -3 -4 -6z" />
<glyph unicode="&#x141;" horiz-adv-x="521" d="M34 0l36 261q-52 -31 -54 -32q-4 -2 -4 3l13 93q0 5 5 7l55 31l44 313q0 4 4 4h108q4 0 4 -4l-35 -246q149 84 150 85t2 0t1 -3l-13 -93q0 -3 -4 -7l-150 -84l-32 -227h298q4 0 3 -4l-13 -93q0 -4 -4 -4h-414z" />
<glyph unicode="&#x142;" horiz-adv-x="305" d="M175 -6q-22 0 -36.5 1t-30.5 5t-26 10.5t-18.5 18.5t-12 29.5t-3.5 42.5t5 58l18 126q-43 -24 -44 -25q-4 0 -4 3l13 87q0 5 4 6l44 25l41 295q0 4 4 4h103q4 0 3 -4l-32 -231q71 41 73 41q2 1 2.5 0.5t-0.5 -3.5l-12 -86q-1 -5 -4 -7l-72 -41l-27 -191q-6 -43 4 -56.5 t32 -13.5q8 0 19.5 1t19.5 1l9 1q2 1 3.5 -0.5t1.5 -5.5v-24t0.5 -36t0.5 -18q0 -5 -4 -5l-5 -1q-5 -1 -13 -2t-17 -2t-19.5 -2t-19.5 -1z" />
<glyph unicode="&#x143;" horiz-adv-x="633" d="M36 0q-4 0 -4 4l95 672q0 4 4 4h127q5 0 6 -4l174 -471h12l66 471q0 4 4 4h106q4 0 4 -4l-95 -672q0 -4 -4 -4h-129q-4 0 -5 4l-173 473h-13l-66 -473q-1 -4 -4 -4h-105zM384 754q-2 -4 -7 -4h-77q-4 0 -1 4l91 141q3 4 7 4h96q6 0 2 -4z" />
<glyph unicode="&#x144;" horiz-adv-x="529" d="M36 0q-4 0 -4 4l67 474q0 4 5 4h103q3 0 3 -4l-2 -17q86 26 127 26q15 0 25.5 -0.5t25 -2.5t24.5 -5.5t22 -10t19.5 -15.5t14.5 -22.5t10.5 -31t3.5 -40.5t-4 -51l-43 -304q0 -4 -4 -4h-102q-4 0 -4 4l42 298q8 57 -7 74t-53 17q-16 0 -43.5 -6.5t-47.5 -12.5l-19 -6 l-52 -364q0 -4 -4 -4h-103zM309 556q-2 -4 -7 -4h-77q-4 0 -1 4l91 141q3 4 7 4h96q6 0 2 -4z" />
<glyph unicode="&#x145;" horiz-adv-x="633" d="M36 0q-4 0 -4 4l95 672q0 4 4 4h127q5 0 6 -4l174 -471h12l66 471q0 4 4 4h106q4 0 4 -4l-95 -672q0 -4 -4 -4h-129q-4 0 -5 4l-173 473h-13l-66 -473q-1 -4 -4 -4h-105zM213 -259q-2 -1 -4 0t-1 4l25 180q1 4 4 4h87q3 0 2 -4l-16 -116q0 -3 -4 -6z" />
<glyph unicode="&#x146;" horiz-adv-x="529" d="M36 0q-4 0 -4 4l67 474q0 4 5 4h103q3 0 3 -4l-2 -17q86 26 127 26q15 0 25.5 -0.5t25 -2.5t24.5 -5.5t22 -10t19.5 -15.5t14.5 -22.5t10.5 -31t3.5 -40.5t-4 -51l-43 -304q0 -4 -4 -4h-102q-4 0 -4 4l42 298q8 57 -7 74t-53 17q-16 0 -43.5 -6.5t-47.5 -12.5l-19 -6 l-52 -364q0 -4 -4 -4h-103zM159 -259q-2 -1 -4 0t-1 4l25 180q1 4 4 4h87q3 0 2 -4l-16 -116q0 -3 -4 -6z" />
<glyph unicode="&#x147;" horiz-adv-x="633" d="M36 0q-4 0 -4 4l95 672q0 4 4 4h127q5 0 6 -4l174 -471h12l66 471q0 4 4 4h106q4 0 4 -4l-95 -672q0 -4 -4 -4h-129q-4 0 -5 4l-173 473h-13l-66 -473q-1 -4 -4 -4h-105zM469 896h82q4 0 0 -4l-121 -141q-4 -4 -7 -4h-73q-5 0 -7 4q-6 13 -41.5 72t-40.5 70q-1 3 3 3h81 q2 0 5 -4l44 -75h4q62 72 64 75q3 4 7 4z" />
<glyph unicode="&#x148;" horiz-adv-x="529" d="M36 0q-4 0 -4 4l67 474q0 4 5 4h103q3 0 3 -4l-2 -17q86 26 127 26q15 0 25.5 -0.5t25 -2.5t24.5 -5.5t22 -10t19.5 -15.5t14.5 -22.5t10.5 -31t3.5 -40.5t-4 -51l-43 -304q0 -4 -4 -4h-102q-4 0 -4 4l42 298q8 57 -7 74t-53 17q-16 0 -43.5 -6.5t-47.5 -12.5l-19 -6 l-52 -364q0 -4 -4 -4h-103zM389 698h82q4 0 1 -4l-122 -141q-4 -4 -7 -4h-73q-5 0 -7 4q-6 13 -41 72t-40 70q-2 3 2 3h81q3 0 6 -4l43 -75h4q62 72 64 75q3 4 7 4z" />
<glyph unicode="&#x14c;" horiz-adv-x="588" d="M271 94q32 0 52.5 4.5t42 19t35 46.5t20.5 82l27 190q2 34 3.5 58.5t-7 41t-16.5 26.5t-24 15t-29.5 6.5t-34.5 1.5q-64 0 -100 -28t-49 -121l-27 -190q-6 -30 -4 -53t4 -39t12 -27t18 -17.5t22 -10t26 -4.5t29 -1zM256 -11q-19 0 -34 0.5t-34 2.5t-33 6t-30.5 10.5 t-28 16.5t-23 23t-18 31.5t-11 41.5t-4 52t5.5 64l30 210q9 65 31 112t47 72t63 39t67.5 17t70.5 3q19 0 33.5 -0.5t33.5 -2.5t33 -6t31 -10t28.5 -15.5t23.5 -22.5t18.5 -31t11.5 -40.5t4.5 -51.5t-5.5 -63l-30 -210q-7 -50 -21 -89t-30 -65t-39.5 -44t-43.5 -27.5t-49 -15 t-49 -6.5t-49 -1zM504 788h-271q-3 0 -3 4l11 76q0 4 4 4h271q4 0 4 -4l-11 -76q0 -4 -5 -4z" />
<glyph unicode="&#x14d;" horiz-adv-x="499" d="M224 87q23 0 38 3t31.5 14t27 36t15.5 65l10 75q10 73 -10 94.5t-67 21.5q-48 0 -75.5 -22t-37.5 -94l-10 -75q-2 -27 -3 -46.5t5 -33t11.5 -21t17.5 -11.5t22 -5t25 -1zM211 -8q-47 0 -77 6t-59.5 25.5t-39.5 63.5t-1 112l12 88q8 54 25.5 93t38.5 60t52.5 33t57.5 15 t63 3q19 0 32.5 -0.5t32 -3t30.5 -6.5t27.5 -11.5t23.5 -18t18 -25.5t11.5 -35t4.5 -45.5t-4 -57.5l-12 -89q-8 -56 -25.5 -96t-38 -61t-52.5 -33t-57.5 -14.5t-62.5 -2.5zM433 590h-271q-4 0 -4 4l11 76q0 4 4 4h271q4 0 4 -4l-11 -76q0 -4 -4 -4z" />
<glyph unicode="&#x14e;" horiz-adv-x="588" d="M271 94q32 0 52.5 4.5t42 19t35 46.5t20.5 82l27 190q2 34 3.5 58.5t-7 41t-16.5 26.5t-24 15t-29.5 6.5t-34.5 1.5q-64 0 -100 -28t-49 -121l-27 -190q-6 -30 -4 -53t4 -39t12 -27t18 -17.5t22 -10t26 -4.5t29 -1zM256 -11q-19 0 -34 0.5t-34 2.5t-33 6t-30.5 10.5 t-28 16.5t-23 23t-18 31.5t-11 41.5t-4 52t5.5 64l30 210q9 65 31 112t47 72t63 39t67.5 17t70.5 3q19 0 33.5 -0.5t33.5 -2.5t33 -6t31 -10t28.5 -15.5t23.5 -22.5t18.5 -31t11.5 -40.5t4.5 -51.5t-5.5 -63l-30 -210q-7 -50 -21 -89t-30 -65t-39.5 -44t-43.5 -27.5t-49 -15 t-49 -6.5t-49 -1zM367 754q-122 0 -122 104q0 27 8 27h47q7 0 8 -5q7 -33 20.5 -43.5t47.5 -10.5q31 0 48 11.5t32 42.5q2 5 9 5h49q6 0 5 -6q-25 -125 -152 -125z" />
<glyph unicode="&#x14f;" horiz-adv-x="499" d="M224 87q23 0 38 3t31.5 14t27 36t15.5 65l10 75q10 73 -10 94.5t-67 21.5q-48 0 -75.5 -22t-37.5 -94l-10 -75q-2 -27 -3 -46.5t5 -33t11.5 -21t17.5 -11.5t22 -5t25 -1zM211 -8q-47 0 -77 6t-59.5 25.5t-39.5 63.5t-1 112l12 88q8 54 25.5 93t38.5 60t52.5 33t57.5 15 t63 3q19 0 32.5 -0.5t32 -3t30.5 -6.5t27.5 -11.5t23.5 -18t18 -25.5t11.5 -35t4.5 -45.5t-4 -57.5l-12 -89q-8 -56 -25.5 -96t-38 -61t-52.5 -33t-57.5 -14.5t-62.5 -2.5zM294 556q-121 0 -121 104q0 27 7 27h47q7 0 8 -5q7 -33 20.5 -43.5t47.5 -10.5q31 0 48.5 11.5 t32.5 42.5q2 5 8 5h49q6 0 5 -6q-25 -125 -152 -125z" />
<glyph unicode="&#x150;" horiz-adv-x="588" d="M256 -11q-19 0 -34 0.5t-34 2.5t-33 6t-30.5 10.5t-28 16.5t-23 23t-18 31.5t-11 41.5t-4 52t5.5 64l30 210q9 65 31 112t47 72t63 39t67.5 17t70.5 3q19 0 33.5 -0.5t33.5 -2.5t33 -6t31 -10t28.5 -15.5t23.5 -22.5t18.5 -31t11.5 -40.5t4.5 -51.5t-5.5 -63l-30 -210 q-7 -50 -21 -89t-30 -65t-39.5 -44t-43.5 -27.5t-49 -15t-49 -6.5t-49 -1zM271 94q32 0 52.5 4.5t42 19t35 46.5t20.5 82l27 190q2 34 3.5 58.5t-7 41t-16.5 26.5t-24 15t-29.5 6.5t-34.5 1.5q-64 0 -100 -28t-49 -121l-27 -190q-6 -30 -4 -53t4 -39t12 -27t18 -17.5t22 -10 t26 -4.5t29 -1zM307 753q-3 -4 -7 -4h-78q-4 0 -1 4q2 2 46 70.5t45 70.5q1 4 7 4h97q5 0 1 -4zM456 753q-3 -4 -6 -4h-78q-4 0 -1 4q2 2 46 70.5t45 70.5q1 4 7 4h97q4 0 0 -4z" />
<glyph unicode="&#x151;" horiz-adv-x="499" d="M211 -8q-47 0 -77 6t-59.5 25.5t-39.5 63.5t-1 112l12 88q8 54 25.5 93t38.5 60t52.5 33t57.5 15t63 3q19 0 32.5 -0.5t32 -3t30.5 -6.5t27.5 -11.5t23.5 -18t18 -25.5t11.5 -35t4.5 -45.5t-4 -57.5l-12 -89q-8 -56 -25.5 -96t-38 -61t-52.5 -33t-57.5 -14.5t-62.5 -2.5z M224 87q23 0 38 3t31.5 14t27 36t15.5 65l10 75q10 73 -10 94.5t-67 21.5q-48 0 -75.5 -22t-37.5 -94l-10 -75q-2 -27 -3 -46.5t5 -33t11.5 -21t17.5 -11.5t22 -5t25 -1zM241 555q-3 -4 -7 -4h-78q-4 0 -1 4q2 2 46.5 70.5t45.5 70.5q1 4 6 4h97q5 0 2 -4zM390 555 q-3 -4 -6 -4h-78q-4 0 -1 4q2 2 46.5 70.5t45.5 70.5q1 4 6 4h97q4 0 1 -4z" />
<glyph unicode="&#x152;" horiz-adv-x="893" d="M274 99q29 0 49 5t42.5 20t37.5 49.5t23 87.5l23 161q2 28 4 49.5t-3.5 38t-10 28t-14.5 19.5t-18 12.5t-21 7t-22 3t-22 0.5q-29 0 -48 -4t-42 -18t-38.5 -47t-22.5 -84l-24 -171q-7 -32 -4 -55.5t5 -40.5t12.5 -28t18.5 -17.5t22.5 -10t25.5 -4.5t27 -1zM259 -3 q-19 0 -33.5 0.5t-33 2.5t-33 6.5t-31 10.5t-28 16.5t-23 24t-18.5 32t-11.5 41.5t-4 52.5t5.5 64.5l27 189q10 66 32 113.5t47.5 72.5t63 39t66.5 17t70 3q75 0 125 -39l5 37h414q2 0 2 -4l-13 -94q0 -4 -3 -4h-298l-26 -183h252q4 0 3 -4l-13 -93q0 -4 -4 -4h-252 l-27 -193h298q2 0 2 -3l-13 -94q0 -4 -4 -4h-414l6 37q-63 -40 -136 -40z" />
<glyph unicode="&#x153;" horiz-adv-x="804" d="M227 89q21 0 35.5 3.5t31.5 14t28.5 36t17.5 65.5l10 71q10 71 -12 92t-66 21q-22 0 -36.5 -3t-31.5 -13.5t-28 -35t-17 -63.5l-10 -69q-10 -73 10 -96t68 -23zM462 277h184q10 69 -10 92t-64 23q-46 0 -73 -23t-37 -92zM214 -6q-23 0 -41 1.5t-38 5t-33.5 10t-28 17.5 t-22 26.5t-14 36.5t-5 48.5t4.5 62.5l12 81q8 55 26.5 94t39.5 60t52.5 32.5t56.5 14.5t61 3q97 0 140 -54q62 54 160 54q17 0 30 -0.5t30 -3t29 -7t26.5 -12t23 -18.5t18.5 -26.5t12.5 -35.5t4.5 -46t-4 -58l-11 -77h-293q-7 -68 12.5 -92t79.5 -24q21 0 44 1.5t41 3.5 t33 4.5t24 3.5l9 2q3 2 5 -3l10 -73q0 -4 -3 -5q-81 -27 -177 -27q-118 0 -157 57q-64 -57 -158 -57z" />
<glyph unicode="&#x154;" horiz-adv-x="591" d="M145 0h-107q-4 0 -4 4l95 676h245q32 0 56 -2.5t55.5 -13t50 -29.5t29 -56t3.5 -88l-7 -52q-17 -128 -125 -168l83 -267q1 -4 -2 -4h-120q-5 0 -6 4l-71 247h-136l-35 -247q0 -4 -4 -4zM198 353h125q110 0 123 90l7 46q4 29 -3 48t-24 27.5t-32.5 11t-37.5 2.5h-126z M363 754q-2 -4 -7 -4h-77q-4 0 -1 4l91 141q3 4 7 4h96q6 0 2 -4z" />
<glyph unicode="&#x155;" horiz-adv-x="396" d="M36 0q-4 0 -4 4l67 474q0 4 5 4h103q3 0 3 -4l-3 -20q64 29 105 29q68 0 94 -17q2 -2 2 -3q0 -6 -36 -78q-1 -4 -5 -3q-24 8 -78 8q-16 0 -40 -8t-39 -16l-16 -7l-51 -359q0 -4 -4 -4h-103zM245 556q-2 -4 -7 -4h-77q-4 0 -1 4l91 141q3 4 7 4h96q6 0 2 -4z" />
<glyph unicode="&#x156;" horiz-adv-x="591" d="M145 0h-107q-4 0 -4 4l95 676h245q32 0 56 -2.5t55.5 -13t50 -29.5t29 -56t3.5 -88l-7 -52q-17 -128 -125 -168l83 -267q1 -4 -2 -4h-120q-5 0 -6 4l-71 247h-136l-35 -247q0 -4 -4 -4zM198 353h125q110 0 123 90l7 46q4 29 -3 48t-24 27.5t-32.5 11t-37.5 2.5h-126z M188 -259q-2 -1 -4 0t-1 4l25 180q1 4 4 4h87q3 0 2 -4l-16 -116q0 -3 -4 -6z" />
<glyph unicode="&#x157;" horiz-adv-x="396" d="M36 0q-4 0 -4 4l67 474q0 4 5 4h103q3 0 3 -4l-3 -20q64 29 105 29q68 0 94 -17q2 -2 2 -3q0 -6 -36 -78q-1 -4 -5 -3q-24 8 -78 8q-16 0 -40 -8t-39 -16l-16 -7l-51 -359q0 -4 -4 -4h-103zM103 -249q-5 -3 -5 4l26 180q0 4 3 4h87q3 0 3 -4l-17 -116q0 -3 -4 -6z" />
<glyph unicode="&#x158;" horiz-adv-x="591" d="M198 353h125q110 0 123 90l7 46q4 29 -3 48t-24 27.5t-32.5 11t-37.5 2.5h-126zM145 0h-107q-4 0 -4 4l95 676h245q32 0 56 -2.5t55.5 -13t50 -29.5t29 -56t3.5 -88l-7 -52q-17 -128 -125 -168l83 -267q1 -4 -2 -4h-120q-5 0 -6 4l-71 247h-136l-35 -247q0 -4 -4 -4z M429 896h82q4 0 0 -4l-121 -141q-4 -4 -7 -4h-73q-5 0 -7 4q-6 13 -41.5 72t-40.5 70q0 3 3 3h81q2 0 5 -4l44 -75h4q62 72 64 75q3 4 7 4z" />
<glyph unicode="&#x159;" horiz-adv-x="396" d="M36 0q-4 0 -4 4l67 474q0 4 5 4h103q3 0 3 -4l-3 -20q64 29 105 29q68 0 94 -17q2 -2 2 -3q0 -6 -36 -78q-1 -4 -5 -3q-24 8 -78 8q-16 0 -40 -8t-39 -16l-16 -7l-51 -359q0 -4 -4 -4h-103zM323 698h82q4 0 1 -4l-122 -141q-4 -4 -7 -4h-73q-5 0 -7 4q-6 13 -41 72 t-40 70q-2 3 2 3h81q3 0 6 -4l43 -75h4q62 72 64 75q3 4 7 4z" />
<glyph unicode="&#x15a;" horiz-adv-x="571" d="M246 -10q-136 0 -218 34l-1 1q-2 4 -1 6l10 23q10 22 20 43.5t11 22.5q0 3 4 3q87 -29 192 -29q39 0 63 3.5t46 20t26 47.5l7 52q5 35 -24.5 52.5t-96.5 23.5q-122 12 -163.5 48t-29.5 120l11 77q21 153 245 153q59 0 107.5 -7.5t67 -14t21.5 -9.5q3 -1 1 -5l-39 -85 q-2 -3 -5 -2t-23.5 5.5t-62 9.5t-80.5 5q-106 0 -115 -64l-7 -50q-5 -36 19 -52.5t96 -23.5q122 -13 166 -49t32 -121l-11 -78q-7 -52 -34 -86t-69 -49t-79 -20t-86 -5zM368 754q-2 -4 -7 -4h-77q-4 0 -1 4l91 141q3 4 7 4h96q6 0 2 -4z" />
<glyph unicode="&#x15b;" horiz-adv-x="473" d="M203 -8q-116 0 -182 22q-5 2 -1 5q0 2 14.5 37.5t16.5 38.5t6 3q4 -1 24 -5t59 -8t74 -4q43 0 66.5 9t26.5 36l3 25q2 20 -17 31.5t-78 18.5q-79 10 -117 37.5t-30 82.5l7 49q17 120 196 120q28 0 54.5 -2.5t45 -5.5t32.5 -6t22 -6l8 -2l1 -1q0 -3 -15 -39t-16 -37 q0 -2 -3 -2l-8 1q-9 2 -23 4t-31 4t-38.5 3.5t-40.5 1.5q-74 0 -80 -41l-4 -26q-3 -19 18.5 -29.5t75.5 -16.5q81 -9 119 -37.5t30 -82.5l-7 -49q-6 -42 -25 -69.5t-50.5 -39.5t-60.5 -16t-72 -4zM288 556q-2 -4 -7 -4h-77q-4 0 -1 4l91 141q3 4 7 4h96q6 0 2 -4z" />
<glyph unicode="&#x15c;" horiz-adv-x="571" d="M246 -10q-136 0 -218 34l-1 1q-2 4 -1 6l10 23q10 22 20 43.5t11 22.5q0 3 4 3q87 -29 192 -29q39 0 63 3.5t46 20t26 47.5l7 52q5 35 -24.5 52.5t-96.5 23.5q-122 12 -163.5 48t-29.5 120l11 77q21 153 245 153q59 0 107.5 -7.5t67 -14t21.5 -9.5q3 -1 1 -5l-39 -85 q-2 -3 -5 -2t-23.5 5.5t-62 9.5t-80.5 5q-106 0 -115 -64l-7 -50q-5 -36 19 -52.5t96 -23.5q122 -13 166 -49t32 -121l-11 -78q-7 -52 -34 -86t-69 -49t-79 -20t-86 -5zM294 749h-78q-3 0 -1 4q9 13 55 72t54 70q2 3 7 3h91q5 0 7 -4q0 -2 34 -71t35 -70q2 -4 -2 -4h-78 q-3 0 -5 4l-44 77h-4q-61 -74 -64 -77q-4 -4 -7 -4z" />
<glyph unicode="&#x15d;" horiz-adv-x="473" d="M203 -8q-116 0 -182 22q-5 2 -1 5q0 2 14.5 37.5t16.5 38.5t6 3q4 -1 24 -5t59 -8t74 -4q43 0 66.5 9t26.5 36l3 25q2 20 -17 31.5t-78 18.5q-79 10 -117 37.5t-30 82.5l7 49q17 120 196 120q28 0 54.5 -2.5t45 -5.5t32.5 -6t22 -6l8 -2l1 -1q0 -3 -15 -39t-16 -37 q0 -2 -3 -2l-8 1q-9 2 -23 4t-31 4t-38.5 3.5t-40.5 1.5q-74 0 -80 -41l-4 -26q-3 -19 18.5 -29.5t75.5 -16.5q81 -9 119 -37.5t30 -82.5l-7 -49q-6 -42 -25 -69.5t-50.5 -39.5t-60.5 -16t-72 -4zM220 551h-78q-3 0 -1 4q9 13 55 72t54 70q2 3 7 3h91q5 0 7 -4q1 -2 35 -71 t34 -70q4 -4 -2 -4h-78q-3 0 -5 4l-44 77h-4q-61 -74 -64 -77q-4 -4 -7 -4z" />
<glyph unicode="&#x15e;" horiz-adv-x="571" d="M245 -156h-97q-3 0 -1 4l85 142q-127 2 -204 34l-1 1q-2 4 -1 6l10 23q10 22 20 43.5t11 22.5q0 3 4 3q87 -29 192 -29q39 0 63 3.5t46 20t26 47.5l7 52q5 35 -24.5 52.5t-96.5 23.5q-122 12 -163.5 48t-29.5 120l11 77q21 153 245 153q59 0 107.5 -7.5t67 -14t21.5 -9.5 q3 -1 1 -5l-39 -85q-2 -3 -5 -2t-23.5 5.5t-62 9.5t-80.5 5q-106 0 -115 -64l-7 -50q-5 -36 19 -52.5t96 -23.5q122 -13 166 -49t32 -121l-11 -78q-19 -138 -192 -156l-70 -146q-1 -4 -7 -4z" />
<glyph unicode="&#x15f;" horiz-adv-x="473" d="M191 -156h-97q-3 0 -1 4l86 144q-101 3 -158 22q-5 2 -1 5q0 2 14.5 37.5t16.5 38.5t6 3q4 -1 24 -5t59 -8t74 -4q43 0 66.5 9t26.5 36l3 25q2 20 -17 31.5t-78 18.5q-79 10 -117 37.5t-30 82.5l7 49q17 120 196 120q28 0 54.5 -2.5t45 -5.5t32.5 -6t22 -6l8 -2l1 -1 q0 -3 -15 -39t-16 -37q0 -2 -3 -2l-8 1q-9 2 -23 4t-31 4t-38.5 3.5t-40.5 1.5q-74 0 -80 -41l-4 -26q-3 -19 18.5 -29.5t75.5 -16.5q81 -9 119 -37.5t30 -82.5l-7 -49q-9 -63 -46 -91t-97 -35l-70 -147q-1 -4 -7 -4z" />
<glyph unicode="&#x160;" horiz-adv-x="571" d="M246 -10q-136 0 -218 34l-1 1q-2 4 -1 6l10 23q10 22 20 43.5t11 22.5q0 3 4 3q87 -29 192 -29q39 0 63 3.5t46 20t26 47.5l7 52q5 35 -24.5 52.5t-96.5 23.5q-122 12 -163.5 48t-29.5 120l11 77q21 153 245 153q59 0 107.5 -7.5t67 -14t21.5 -9.5q3 -1 1 -5l-39 -85 q-2 -3 -5 -2t-23.5 5.5t-62 9.5t-80.5 5q-106 0 -115 -64l-7 -50q-5 -36 19 -52.5t96 -23.5q122 -13 166 -49t32 -121l-11 -78q-7 -52 -34 -86t-69 -49t-79 -20t-86 -5zM438 896h82q4 0 0 -4l-121 -141q-4 -4 -7 -4h-73q-5 0 -7 4q-6 13 -41.5 72t-40.5 70q-2 3 3 3h81 q2 0 5 -4l44 -75h4q62 72 64 75q3 4 7 4z" />
<glyph unicode="&#x161;" horiz-adv-x="473" d="M203 -8q-116 0 -182 22q-5 2 -1 5q0 2 14.5 37.5t16.5 38.5t6 3q4 -1 24 -5t59 -8t74 -4q43 0 66.5 9t26.5 36l3 25q2 20 -17 31.5t-78 18.5q-79 10 -117 37.5t-30 82.5l7 49q17 120 196 120q28 0 54.5 -2.5t45 -5.5t32.5 -6t22 -6l8 -2l1 -1q0 -3 -15 -39t-16 -37 q0 -2 -3 -2l-8 1q-9 2 -23 4t-31 4t-38.5 3.5t-40.5 1.5q-74 0 -80 -41l-4 -26q-3 -19 18.5 -29.5t75.5 -16.5q81 -9 119 -37.5t30 -82.5l-7 -49q-6 -42 -25 -69.5t-50.5 -39.5t-60.5 -16t-72 -4zM361 698h82q4 0 1 -4l-122 -141q-4 -4 -7 -4h-73q-5 0 -7 4q-6 13 -41 72 t-40 70q-2 3 2 3h81q3 0 6 -4l43 -75h4q62 72 64 75q3 4 7 4z" />
<glyph unicode="&#x164;" horiz-adv-x="520" d="M171 0q-5 0 -4 4l80 572h-181q-4 0 -4 4l14 96q0 4 4 4h481q3 0 3 -4l-14 -96q0 -4 -3 -4h-184l-80 -572q-1 -4 -4 -4h-108zM413 896h82q4 0 0 -4l-121 -141q-4 -4 -7 -4h-73q-5 0 -7 4q-6 13 -41.5 72t-40.5 70q-1 3 3 3h81q2 0 5 -4l44 -75h4q62 72 64 75q3 4 7 4z" />
<glyph unicode="&#x165;" horiz-adv-x="432" d="M189 -5q-22 0 -35.5 1t-30 4t-26 9.5t-18.5 18.5t-12.5 29.5t-4 43t4.5 58.5l33 238h-48q-4 0 -4 4l11 77q0 4 5 4h48l22 154q0 4 4 4h103q3 0 3 -4l-22 -154h91q3 0 3 -4l-11 -77q0 -4 -4 -4h-91l-33 -238q-4 -31 1.5 -47.5t13.5 -19.5t21 -3q9 0 21 0.5t20 1.5t9 1 q2 0 3 -4q0 -1 0.5 -40.5t1.5 -40.5q1 -3 -4 -5q-28 -7 -75 -7zM350 492q-2 -1 -3.5 0t-0.5 4l25 180q1 4 3 4h87q3 0 3 -4l-16 -116q0 -3 -4 -6z" />
<glyph unicode="&#x168;" horiz-adv-x="610" d="M248 -10q-125 0 -164 61.5t-19 207.5l58 417q2 4 5 4h108q3 0 3 -4l-57 -408q-8 -58 -7 -96.5t21.5 -57.5t66.5 -19h43q67 0 90.5 37t37.5 136l57 408q1 4 5 4h108q3 0 3 -4l-58 -417q-10 -70 -25 -116t-43 -83t-74.5 -53.5t-115.5 -16.5h-43zM246 775q-4 0 -2 5l8 56 q2 10 7 15q35 35 77 35q26 0 61 -19t56 -19q23 0 47 17.5t25 17.5q4 0 4 -5l-8 -55q-2 -11 -7 -16q-37 -37 -79 -37q-27 0 -61 20t-53 20q-23 0 -48.5 -17.5t-26.5 -17.5z" />
<glyph unicode="&#x169;" horiz-adv-x="527" d="M491 482q3 0 3 -4l-67 -474q0 -4 -4 -4h-102q-4 0 -4 4l2 13q-86 -25 -127 -25q-35 0 -58 4.5t-48.5 20.5t-35 55t-0.5 99l43 307q0 4 5 4h103q3 0 3 -4l-42 -300q-8 -57 7.5 -74t52.5 -17q16 0 43.5 5.5t46.5 11.5l20 6l52 368q0 4 5 4h102zM177 577q-4 0 -2 5l8 56 q2 10 7 15q35 35 77 35q26 0 61 -19t56 -19q22 0 46 17.5t26 17.5q4 0 3 -5l-7 -55q-2 -10 -8 -16q-37 -37 -78 -37q-27 0 -61 20t-53 20q-23 0 -48.5 -17.5t-26.5 -17.5z" />
<glyph unicode="&#x16a;" horiz-adv-x="610" d="M248 -10q-125 0 -164 61.5t-19 207.5l58 417q2 4 5 4h108q3 0 3 -4l-57 -408q-8 -58 -7 -96.5t21.5 -57.5t66.5 -19h43q67 0 90.5 37t37.5 136l57 408q1 4 5 4h108q3 0 3 -4l-58 -417q-10 -70 -25 -116t-43 -83t-74.5 -53.5t-115.5 -16.5h-43zM516 788h-271q-4 0 -4 4 l11 76q0 4 5 4h271q3 0 3 -4l-11 -76q0 -4 -4 -4z" />
<glyph unicode="&#x16b;" horiz-adv-x="527" d="M491 482q3 0 3 -4l-67 -474q0 -4 -4 -4h-102q-4 0 -4 4l2 13q-86 -25 -127 -25q-35 0 -58 4.5t-48.5 20.5t-35 55t-0.5 99l43 307q0 4 5 4h103q3 0 3 -4l-42 -300q-8 -57 7.5 -74t52.5 -17q16 0 43.5 5.5t46.5 11.5l20 6l52 368q0 4 5 4h102zM447 590h-271q-4 0 -4 4 l11 76q0 4 5 4h271q3 0 3 -4l-11 -76q0 -4 -4 -4z" />
<glyph unicode="&#x16c;" horiz-adv-x="610" d="M248 -10q-125 0 -164 61.5t-19 207.5l58 417q2 4 5 4h108q3 0 3 -4l-57 -408q-8 -58 -7 -96.5t21.5 -57.5t66.5 -19h43q67 0 90.5 37t37.5 136l57 408q1 4 5 4h108q3 0 3 -4l-58 -417q-10 -70 -25 -116t-43 -83t-74.5 -53.5t-115.5 -16.5h-43zM378 754q-121 0 -121 104 q0 27 8 27h47q7 0 8 -5q7 -33 20 -43.5t47 -10.5q31 0 48.5 11.5t32.5 42.5q2 5 9 5h49q6 0 5 -6q-25 -125 -153 -125z" />
<glyph unicode="&#x16d;" horiz-adv-x="527" d="M491 482q3 0 3 -4l-67 -474q0 -4 -4 -4h-102q-4 0 -4 4l2 13q-86 -25 -127 -25q-35 0 -58 4.5t-48.5 20.5t-35 55t-0.5 99l43 307q0 4 5 4h103q3 0 3 -4l-42 -300q-8 -57 7.5 -74t52.5 -17q16 0 43.5 5.5t46.5 11.5l20 6l52 368q0 4 5 4h102zM308 556q-121 0 -121 104 q0 27 7 27h47q8 0 9 -5q7 -33 20 -43.5t47 -10.5q31 0 48.5 11.5t32.5 42.5q2 5 8 5h49q6 0 5 -6q-25 -125 -152 -125z" />
<glyph unicode="&#x16e;" horiz-adv-x="610" d="M248 -10q-125 0 -164 61.5t-19 207.5l58 417q2 4 5 4h108q3 0 3 -4l-57 -408q-8 -58 -7 -96.5t21.5 -57.5t66.5 -19h43q67 0 90.5 37t37.5 136l57 408q1 4 5 4h108q3 0 3 -4l-58 -417q-10 -70 -25 -116t-43 -83t-74.5 -53.5t-115.5 -16.5h-43zM373 731q-44 0 -68.5 17.5 t-17.5 70.5l3 22q11 86 112 86q20 0 33.5 -2.5t28 -10.5t20 -26.5t1.5 -46.5l-3 -22q-4 -29 -14.5 -47.5t-27.5 -27t-31.5 -11t-35.5 -2.5zM380 780q22 0 35 8.5t18 35.5l2 12q4 25 -6.5 34t-32.5 9q-49 0 -56 -43l-2 -12q-4 -27 7.5 -35.5t34.5 -8.5z" />
<glyph unicode="&#x16f;" horiz-adv-x="527" d="M491 482q3 0 3 -4l-67 -474q0 -4 -4 -4h-102q-4 0 -4 4l2 13q-86 -25 -127 -25q-35 0 -58 4.5t-48.5 20.5t-35 55t-0.5 99l43 307q0 4 5 4h103q3 0 3 -4l-42 -300q-8 -57 7.5 -74t52.5 -17q16 0 43.5 5.5t46.5 11.5l20 6l52 368q0 4 5 4h102zM304 533q-44 0 -68.5 17.5 t-17.5 70.5l3 22q11 86 112 86q20 0 33.5 -2.5t28 -10.5t20 -26.5t1.5 -46.5l-3 -22q-4 -29 -14.5 -47.5t-27.5 -27t-31.5 -11t-35.5 -2.5zM311 582q22 0 35 8.5t18 35.5l2 12q4 25 -6.5 34t-32.5 9q-49 0 -56 -43l-2 -12q-4 -27 7.5 -35.5t34.5 -8.5z" />
<glyph unicode="&#x170;" horiz-adv-x="610" d="M248 -10q-125 0 -164 61.5t-19 207.5l58 417q2 4 5 4h108q3 0 3 -4l-57 -408q-8 -58 -7 -96.5t21.5 -57.5t66.5 -19h43q67 0 90.5 37t37.5 136l57 408q1 4 5 4h108q3 0 3 -4l-58 -417q-10 -70 -25 -116t-43 -83t-74.5 -53.5t-115.5 -16.5h-43zM331 753q-1 -4 -7 -4h-78 q-2 0 -1 4q2 2 46.5 70.5t45.5 70.5q1 4 6 4h97q5 0 2 -4zM480 753q-1 -4 -6 -4h-78q-2 0 -1 4q2 2 46.5 70.5t45.5 70.5q1 4 6 4h97q4 0 1 -4z" />
<glyph unicode="&#x171;" horiz-adv-x="527" d="M491 482q3 0 3 -4l-67 -474q0 -4 -4 -4h-102q-4 0 -4 4l2 13q-86 -25 -127 -25q-35 0 -58 4.5t-48.5 20.5t-35 55t-0.5 99l43 307q0 4 5 4h103q3 0 3 -4l-42 -300q-8 -57 7.5 -74t52.5 -17q16 0 43.5 5.5t46.5 11.5l20 6l52 368q0 4 5 4h102zM263 555q-3 -4 -7 -4h-78 q-4 0 -1 4q2 2 46.5 70.5t45.5 70.5q1 4 6 4h97q5 0 2 -4zM412 555q-3 -4 -6 -4h-78q-4 0 -1 4q2 2 46.5 70.5t45.5 70.5q1 4 6 4h97q4 0 1 -4z" />
<glyph unicode="&#x172;" horiz-adv-x="610" d="M225 -188q-37 0 -57.5 13.5t-20.5 51.5q0 63 71 114q-107 7 -140 69t-14 199l59 417q0 4 4 4h108q4 0 4 -4l-58 -408q-8 -58 -7 -96.5t21.5 -57.5t66.5 -19h43q67 0 90.5 37t37.5 136l58 408q0 4 4 4h108q4 0 4 -4l-59 -417q-9 -66 -22.5 -110.5t-39 -80.5t-66 -54.5 t-100.5 -22.5q-45 -28 -65 -46.5t-20 -38.5q0 -16 18 -16q15 0 30 10q5 2 7 -2l19 -49q2 -5 -3 -9q-35 -28 -81 -28z" />
<glyph unicode="&#x173;" horiz-adv-x="527" d="M320 -184q-37 0 -57.5 13.5t-20.5 51.5q0 67 78 119q-3 0 -3 4l2 13q-86 -25 -127 -25q-35 0 -58 4.5t-48.5 20.5t-35 55t-0.5 99l43 307q0 4 5 4h103q3 0 3 -4l-42 -300q-8 -57 7.5 -74t52.5 -17q16 0 43.5 5.5t46.5 11.5l20 6l52 368q0 4 5 4h102q3 0 3 -4l-67 -474 q0 -4 -3 -4q-1 0 -1 -1q-50 -30 -72 -49t-22 -40q0 -16 19 -16q14 0 29 10q6 2 7 -2l19 -49q2 -6 -2 -9q-35 -28 -81 -28z" />
<glyph unicode="&#x174;" horiz-adv-x="828" d="M121 0q-5 0 -5 4l-32 672q0 4 4 4h112q4 0 5 -4l18 -492h18q162 352 163 354q3 4 5 4h92q3 0 4 -4l62 -354h19q157 489 158 492q1 4 5 4h112q5 0 3 -4l-221 -672q-1 -4 -5 -4h-141q-4 0 -5 4l-58 344h-12q-153 -339 -154 -343q-2 -5 -7 -5h-140zM422 749h-78q-4 0 -2 4 q9 13 55 72t54 70q1 3 8 3h91q5 0 7 -4q0 -1 34 -70t34 -71q4 -4 -1 -4h-78q-4 0 -6 4l-44 77h-4q-61 -74 -64 -77q-4 -4 -6 -4z" />
<glyph unicode="&#x175;" horiz-adv-x="718" d="M126 0q-3 0 -4 4l-51 474q0 4 4 4h105q4 0 4 -4l28 -314h9q115 218 116 221q1 4 4 4h76q3 0 4 -4l56 -221h9q109 311 111 314q2 4 7 4h105q2 0 1 -4q-1 -2 -92 -237.5t-91 -236.5q-1 -4 -5 -4h-98q-3 0 -4 4l-56 245h-9q-127 -243 -128 -245q-3 -4 -4 -4h-97zM339 551 h-78q-3 0 -1 4q9 13 55 72t54 70q1 3 7 3h91q5 0 7 -4q0 -2 34 -71t35 -70q4 -4 -2 -4h-78q-3 0 -5 4l-44 77h-4q-61 -74 -64 -77q-4 -4 -7 -4z" />
<glyph unicode="&#x176;" horiz-adv-x="534" d="M179 0q-4 0 -4 4l37 263q-141 406 -142 409q-2 4 3 4h116q4 0 5 -4l93 -279h6q167 276 169 279q3 4 5 4h114q4 0 3 -4l-257 -409l-37 -263q0 -4 -3 -4h-108zM275 749h-78q-3 0 -1 4q9 14 55 72.5t53 69.5q2 3 8 3h91q5 0 7 -4q0 -2 34 -71t35 -70q2 -4 -2 -4h-78 q-4 0 -6 4l-44 77h-4q-61 -74 -64 -77q-4 -4 -6 -4z" />
<glyph unicode="&#x177;" horiz-adv-x="477" d="M4 -180q-3 0 -3 3q0 2 11 44l11 42q0 4 5 4h26q48 0 80 67l19 39q-102 456 -103 459q-2 4 3 4h108q4 0 4 -4l61 -308h10q142 305 142 308q2 4 6 4h107q2 0 1 -4q-6 -18 -268 -529q-24 -46 -44 -73.5t-42.5 -39t-39 -14t-48.5 -2.5h-46zM222 551h-78q-3 0 -1 4q9 13 55 72 t54 70q2 3 7 3h91q5 0 7 -4q1 -2 34.5 -71t34.5 -70q4 -4 -2 -4h-78q-3 0 -5 4l-44 77h-4q-61 -74 -64 -77q-4 -4 -7 -4z" />
<glyph unicode="&#x178;" horiz-adv-x="534" d="M179 0q-4 0 -4 4l37 263q-141 406 -142 409q-2 4 3 4h116q4 0 5 -4l93 -279h6q167 276 169 279q3 4 5 4h114q4 0 3 -4l-257 -409l-37 -263q0 -4 -3 -4h-108zM206 777q-4 0 -4 4l14 95q0 4 4 4h84q4 0 4 -4l-14 -95q0 -4 -4 -4h-84zM398 777q-4 0 -4 4l14 95q0 4 4 4h83 q4 0 4 -4l-14 -95q0 -4 -4 -4h-83z" />
<glyph unicode="&#x179;" horiz-adv-x="524" d="M9 0q-3 0 -3 3l14 98q0 4 4 8l367 458l1 9h-290q-3 0 -3 4l14 95q0 5 3 5h421q5 0 5 -5l-14 -95q0 -7 -4 -11l-366 -457l-2 -9h301q4 0 4 -4l-14 -95q0 -4 -4 -4h-434zM354 754q-2 -4 -7 -4h-77q-4 0 -1 4l91 141q3 4 7 4h96q6 0 2 -4z" />
<glyph unicode="&#x17a;" horiz-adv-x="458" d="M16 0q-4 0 -4 4l12 82q0 3 6 8l266 288l1 7h-217q-3 0 -3 4l12 85q0 4 4 4h349q3 0 3 -4l-12 -84q0 -3 -4 -7l-266 -287l-1 -8h227q4 0 3 -4l-12 -84q0 -4 -4 -4h-360zM293 556q-2 -4 -7 -4h-77q-4 0 -1 4l91 141q3 4 7 4h96q6 0 2 -4z" />
<glyph unicode="&#x17b;" horiz-adv-x="524" d="M9 0q-3 0 -3 3l14 98q0 4 4 8l367 458l1 9h-290q-3 0 -3 4l14 95q0 5 3 5h421q5 0 5 -5l-14 -95q0 -7 -4 -11l-366 -457l-2 -9h301q4 0 4 -4l-14 -95q0 -4 -4 -4h-434zM294 770q-3 0 -3 4l14 100q0 4 4 4h102q4 0 4 -4l-14 -100q0 -4 -6 -4h-101z" />
<glyph unicode="&#x17c;" horiz-adv-x="458" d="M16 0q-4 0 -4 4l12 82q0 3 6 8l266 288l1 7h-217q-3 0 -3 4l12 85q0 4 4 4h349q3 0 3 -4l-12 -84q0 -3 -4 -7l-266 -287l-1 -8h227q4 0 3 -4l-12 -84q0 -4 -4 -4h-360zM230 572q-3 0 -3 4l14 100q0 4 4 4h102q4 0 4 -4l-14 -100q0 -4 -6 -4h-101z" />
<glyph unicode="&#x17d;" horiz-adv-x="524" d="M9 0q-3 0 -3 3l14 98q0 4 4 8l367 458l1 9h-290q-3 0 -3 4l14 95q0 5 3 5h421q5 0 5 -5l-14 -95q0 -7 -4 -11l-366 -457l-2 -9h301q4 0 4 -4l-14 -95q0 -4 -4 -4h-434zM415 896h82q4 0 0 -4l-121 -141q-4 -4 -7 -4h-73q-5 0 -7 4q-6 13 -41.5 72t-40.5 70q-1 3 3 3h81 q2 0 5 -4l44 -75h4q62 72 64 75q3 4 7 4z" />
<glyph unicode="&#x17e;" horiz-adv-x="458" d="M16 0q-4 0 -4 4l12 82q0 3 6 8l266 288l1 7h-217q-3 0 -3 4l12 85q0 4 4 4h349q3 0 3 -4l-12 -84q0 -3 -4 -7l-266 -287l-1 -8h227q4 0 3 -4l-12 -84q0 -4 -4 -4h-360zM354 698h82q4 0 1 -4l-122 -141q-4 -4 -7 -4h-73q-5 0 -7 4q-6 13 -41 72t-40 70q-1 3 2 3h81 q3 0 6 -4l43 -75h4q62 72 64 75q3 4 7 4z" />
<glyph unicode="&#x192;" horiz-adv-x="497" d="M89 -186q-13 0 -31.5 2t-31.5 4l-13 2q-2 0 -2 4q0 1 11.5 40t11.5 40q0 3 6 3l10 -1q9 0 22 -1t21 -1q48 0 57 68l50 356h-67q-3 0 -3 4l11 77q0 4 4 4h67l15 109q7 53 25 87.5t44 49t48.5 19.5t53.5 5q10 0 28.5 -2t33 -4t15.5 -2q1 -1 1 -3t-11 -41.5t-11 -40.5 q0 -3 -6 -3q-1 0 -10 0.5t-22 1.5t-22 1q-47 0 -56 -68l-15 -109h77q4 0 3 -4l-11 -77q0 -4 -4 -4h-77l-50 -355q-6 -42 -19.5 -72.5t-29.5 -47.5t-38.5 -26.5t-41 -12t-43.5 -2.5z" />
<glyph unicode="&#x218;" horiz-adv-x="571" d="M246 -10q-136 0 -218 34l-1 1q-2 4 -1 6l10 23q10 22 20 43.5t11 22.5q0 3 4 3q87 -29 192 -29q39 0 63 3.5t46 20t26 47.5l7 52q5 35 -24.5 52.5t-96.5 23.5q-122 12 -163.5 48t-29.5 120l11 77q21 153 245 153q59 0 107.5 -7.5t67 -14t21.5 -9.5q3 -1 1 -5l-39 -85 q-2 -3 -5 -2t-23.5 5.5t-62 9.5t-80.5 5q-106 0 -115 -64l-7 -50q-5 -36 19 -52.5t96 -23.5q122 -13 166 -49t32 -121l-11 -78q-7 -52 -34 -86t-69 -49t-79 -20t-86 -5zM181 -259q-2 -1 -4 0t-1 4l25 180q1 4 4 4h87q3 0 2 -4l-16 -116q0 -3 -4 -6z" />
<glyph unicode="&#x219;" horiz-adv-x="473" d="M203 -8q-116 0 -182 22q-5 2 -1 5q0 2 14.5 37.5t16.5 38.5t6 3q4 -1 24 -5t59 -8t74 -4q43 0 66.5 9t26.5 36l3 25q2 20 -17 31.5t-78 18.5q-79 10 -117 37.5t-30 82.5l7 49q17 120 196 120q28 0 54.5 -2.5t45 -5.5t32.5 -6t22 -6l8 -2l1 -1q0 -3 -15 -39t-16 -37 q0 -2 -3 -2l-8 1q-9 2 -23 4t-31 4t-38.5 3.5t-40.5 1.5q-74 0 -80 -41l-4 -26q-3 -19 18.5 -29.5t75.5 -16.5q81 -9 119 -37.5t30 -82.5l-7 -49q-6 -42 -25 -69.5t-50.5 -39.5t-60.5 -16t-72 -4zM134 -259q-2 -1 -4 0t-1 4l25 180q1 4 4 4h87q3 0 2 -4l-16 -116q0 -3 -4 -6 z" />
<glyph unicode="&#x21a;" horiz-adv-x="520" d="M171 0q-5 0 -4 4l80 572h-181q-4 0 -4 4l14 96q0 4 4 4h481q3 0 3 -4l-14 -96q0 -4 -3 -4h-184l-80 -572q-1 -4 -4 -4h-108zM147 -259q-2 -1 -4 0t-1 4l25 180q1 4 4 4h87q3 0 2 -4l-16 -116q0 -3 -4 -6z" />
<glyph unicode="&#x21b;" horiz-adv-x="321" d="M189 -5q-22 0 -35.5 1t-30 4t-26 9.5t-18.5 18.5t-12.5 29.5t-4 43t4.5 58.5l33 238h-48q-4 0 -4 4l11 77q0 4 5 4h48l22 154q0 4 4 4h103q3 0 3 -4l-22 -154h91q3 0 3 -4l-11 -77q0 -4 -4 -4h-91l-33 -238q-4 -31 1.5 -47.5t13.5 -19.5t21 -3q9 0 21 0.5t20 1.5t9 1 q2 0 3 -4q0 -1 0.5 -40.5t1.5 -40.5q1 -3 -4 -5q-28 -7 -75 -7zM66 -259q-2 -1 -4 0t-1 4l25 180q1 4 4 4h87q3 0 2 -4l-16 -116q0 -3 -4 -6z" />
<glyph unicode="&#x2c6;" horiz-adv-x="445" d="M199 551h-78q-4 0 -2 4q9 13 55 72t54 70q2 3 8 3h91q5 0 7 -4q1 -2 35 -71t34 -70q2 -4 -2 -4h-78q-4 0 -6 4l-44 77h-4q-61 -74 -64 -77q-4 -4 -6 -4z" />
<glyph unicode="&#x2c7;" horiz-adv-x="445" d="M342 698h82q4 0 0 -4l-120 -141q-4 -4 -8 -4h-73q-5 0 -7 4q-6 12 -41 71t-40 71q-1 3 2 3h81q3 0 6 -4l43 -75h4q63 72 65 75q3 4 6 4z" />
<glyph unicode="&#x2d8;" horiz-adv-x="445" d="M262 556q-121 0 -121 104q0 27 8 27h47q7 0 8 -5q7 -33 20 -43.5t47 -10.5q31 0 48.5 11.5t32.5 42.5q2 5 9 5h49q6 0 5 -6q-25 -125 -153 -125z" />
<glyph unicode="&#x2d9;" horiz-adv-x="445" d="M211 572q-3 0 -3 4l14 100q0 4 5 4h102q3 0 3 -4l-14 -100q0 -4 -6 -4h-101z" />
<glyph unicode="&#x2da;" horiz-adv-x="445" d="M262 582q23 0 36.5 8.5t16.5 35.5l1 12q3 25 -6.5 34t-31.5 9q-49 0 -56 -43l-2 -12q-4 -27 7.5 -35.5t34.5 -8.5zM255 533q-44 0 -68.5 17.5t-17.5 70.5l3 22q11 86 112 86q20 0 33.5 -2.5t28 -10.5t20 -26.5t1.5 -46.5l-3 -22q-4 -29 -14.5 -47.5t-27.5 -27t-31.5 -11 t-35.5 -2.5z" />
<glyph unicode="&#x2db;" horiz-adv-x="445" d="M155 -182q-37 0 -57.5 13.5t-20.5 51.5q0 67 85 123q5 4 14 4h81q4 0 5 -3t-4 -6q-50 -30 -71.5 -49t-21.5 -40q0 -16 18 -16q15 0 30 10q5 2 6 -2l19 -49q2 -6 -2 -9q-35 -28 -81 -28z" />
<glyph unicode="&#x2dc;" horiz-adv-x="445" d="M130 577q-4 0 -2 5l8 56q2 10 7 15q35 35 77 35q26 0 61 -19t56 -19q22 0 46 17.5t26 17.5q4 0 4 -5l-8 -55q-2 -11 -7 -16q-37 -37 -79 -37q-27 0 -61 20t-53 20q-23 0 -48.5 -17.5t-26.5 -17.5z" />
<glyph unicode="&#x2dd;" horiz-adv-x="445" d="M187 555q-3 -4 -7 -4h-78q-3 0 -2 4q2 1 46.5 69.5t45.5 71.5q1 4 7 4h97q5 0 1 -4zM336 555q-3 -4 -6 -4h-78q-3 0 -2 4q2 1 46.5 69.5t45.5 71.5q1 4 7 4h97q4 0 0 -4z" />
<glyph unicode="&#x1e80;" horiz-adv-x="828" d="M121 0q-5 0 -5 4l-32 672q0 4 4 4h112q4 0 5 -4l18 -492h18q162 352 163 354q3 4 5 4h92q3 0 4 -4l62 -354h19q157 489 158 492q1 4 5 4h112q5 0 3 -4l-221 -672q-1 -4 -5 -4h-141q-4 0 -5 4l-58 344h-12q-153 -339 -154 -343q-2 -5 -7 -5h-140zM477 754l-71 141 q-1 4 3 4h97q3 0 4 -4l52 -141q1 -4 -1 -4h-78q-4 0 -6 4z" />
<glyph unicode="&#x1e81;" horiz-adv-x="718" d="M126 0q-3 0 -4 4l-51 474q0 4 4 4h105q4 0 4 -4l28 -314h9q115 218 116 221q1 4 4 4h76q3 0 4 -4l56 -221h9q109 311 111 314q2 4 7 4h105q2 0 1 -4q-1 -2 -92 -237.5t-91 -236.5q-1 -4 -5 -4h-98q-3 0 -4 4l-56 245h-9q-127 -243 -128 -245q-3 -4 -4 -4h-97zM390 556 l-71 141q-3 4 2 4h97q4 0 5 -4l52 -141q1 -4 -2 -4h-78q-3 0 -5 4z" />
<glyph unicode="&#x1e82;" horiz-adv-x="828" d="M121 0q-5 0 -5 4l-32 672q0 4 4 4h112q4 0 5 -4l18 -492h18q162 352 163 354q3 4 5 4h92q3 0 4 -4l62 -354h19q157 489 158 492q1 4 5 4h112q5 0 3 -4l-221 -672q-1 -4 -5 -4h-141q-4 0 -5 4l-58 344h-12q-153 -339 -154 -343q-2 -5 -7 -5h-140zM496 754q-4 -4 -7 -4h-77 q-4 0 -1 4l90 141q3 4 8 4h96q6 0 2 -4z" />
<glyph unicode="&#x1e83;" horiz-adv-x="718" d="M126 0q-3 0 -4 4l-51 474q0 4 4 4h105q4 0 4 -4l28 -314h9q115 218 116 221q1 4 4 4h76q3 0 4 -4l56 -221h9q109 311 111 314q2 4 7 4h105q2 0 1 -4q-1 -2 -92 -237.5t-91 -236.5q-1 -4 -5 -4h-98q-3 0 -4 4l-56 245h-9q-127 -243 -128 -245q-3 -4 -4 -4h-97zM417 556 q-2 -4 -7 -4h-77q-4 0 -1 4l91 141q3 4 7 4h96q6 0 2 -4z" />
<glyph unicode="&#x1e84;" horiz-adv-x="828" d="M121 0q-5 0 -5 4l-32 672q0 4 4 4h112q4 0 5 -4l18 -492h18q162 352 163 354q3 4 5 4h92q3 0 4 -4l62 -354h19q157 489 158 492q1 4 5 4h112q5 0 3 -4l-221 -672q-1 -4 -5 -4h-141q-4 0 -5 4l-58 344h-12q-153 -339 -154 -343q-2 -5 -7 -5h-140zM349 775q-4 0 -3 4l13 95 q1 4 5 4h84q3 0 3 -4l-13 -95q-1 -4 -5 -4h-84zM541 775q-4 0 -3 4l13 95q1 4 5 4h83q3 0 3 -4l-13 -95q-1 -4 -5 -4h-83z" />
<glyph unicode="&#x1e85;" horiz-adv-x="718" d="M126 0q-3 0 -4 4l-51 474q0 4 4 4h105q4 0 4 -4l28 -314h9q115 218 116 221q1 4 4 4h76q3 0 4 -4l56 -221h9q109 311 111 314q2 4 7 4h105q2 0 1 -4q-1 -2 -92 -237.5t-91 -236.5q-1 -4 -5 -4h-98q-3 0 -4 4l-56 245h-9q-127 -243 -128 -245q-3 -4 -4 -4h-97zM267 577 q-4 0 -4 4l14 95q0 4 4 4h84q4 0 4 -4l-14 -95q0 -4 -4 -4h-84zM459 577q-4 0 -4 4l14 95q0 4 4 4h83q4 0 4 -4l-14 -95q0 -4 -4 -4h-83z" />
<glyph unicode="&#x1e9e;" horiz-adv-x="597" d="M32 0q-4 0 -4 4l67 475q7 51 25 88t40.5 58.5t55 34t63 16.5t69.5 4h213q4 0 4 -5l-15 -102q0 -5 -3 -9l-122 -166q115 -37 99 -160l-8 -61q-6 -47 -25.5 -81t-43 -52t-60 -28.5t-66.5 -13t-72 -2.5q-4 0 -4 4l13 89q0 4 4 4q29 0 48.5 2.5t42 10t36 26.5t17.5 48l7 49 q7 51 -23.5 69.5t-78.5 18.5q-3 0 -2 4l12 90l122 171h-108q-111 0 -126 -107l-67 -475q0 -4 -3 -4h-107z" />
<glyph unicode="&#x2000;" horiz-adv-x="464" />
<glyph unicode="&#x2001;" horiz-adv-x="929" />
<glyph unicode="&#x2002;" horiz-adv-x="464" />
<glyph unicode="&#x2003;" horiz-adv-x="929" />
<glyph unicode="&#x2004;" horiz-adv-x="309" />
<glyph unicode="&#x2005;" horiz-adv-x="232" />
<glyph unicode="&#x2006;" horiz-adv-x="154" />
<glyph unicode="&#x2007;" horiz-adv-x="154" />
<glyph unicode="&#x2008;" horiz-adv-x="116" />
<glyph unicode="&#x2009;" horiz-adv-x="185" />
<glyph unicode="&#x200a;" horiz-adv-x="51" />
<glyph unicode="&#x2010;" horiz-adv-x="378" d="M42 228q-3 0 -3 4l12 86q0 4 4 4h278q4 0 4 -4l-12 -86q0 -4 -5 -4h-278z" />
<glyph unicode="&#x2011;" horiz-adv-x="378" d="M42 228q-3 0 -3 4l12 86q0 4 4 4h278q4 0 4 -4l-12 -86q0 -4 -5 -4h-278z" />
<glyph unicode="&#x2012;" horiz-adv-x="378" d="M42 228q-3 0 -3 4l12 86q0 4 4 4h278q4 0 4 -4l-12 -86q0 -4 -5 -4h-278z" />
<glyph unicode="&#x2013;" horiz-adv-x="452" d="M31 228q-2 0 -2 4l12 86q0 4 3 4h373q4 0 4 -4l-12 -86q0 -4 -5 -4h-373z" />
<glyph unicode="&#x2014;" horiz-adv-x="571" d="M15 228q-3 0 -3 4l12 86q0 4 4 4h525q4 0 4 -4l-12 -86q0 -4 -5 -4h-525z" />
<glyph unicode="&#x2018;" horiz-adv-x="224" d="M209 685q5 3 5 -4l-26 -180q0 -4 -3 -4h-87q-3 0 -3 4l17 116q0 3 4 6z" />
<glyph unicode="&#x2019;" horiz-adv-x="224" d="M100 492q-2 -1 -4 0t-1 4l25 180q1 4 4 4h87q2 0 2 -4l-16 -116q0 -3 -4 -6z" />
<glyph unicode="&#x201a;" horiz-adv-x="224" d="M22 -67q-6 -4 -6 3l26 180q0 4 4 4h86q4 0 4 -4l-16 -115q0 -3 -5 -6q-2 -2 -47 -32z" />
<glyph unicode="&#x201c;" horiz-adv-x="386" d="M372 685q5 3 5 -4l-26 -180q0 -4 -4 -4h-86q-4 0 -4 4l17 116q0 3 4 6q4 2 94 62zM209 685q5 3 5 -4l-26 -180q0 -4 -3 -4h-87q-3 0 -3 4l17 116q0 3 4 6z" />
<glyph unicode="&#x201d;" horiz-adv-x="386" d="M262 492q-2 -1 -4 0t-1 4l25 180q1 4 5 4h86q3 0 3 -4l-16 -116q0 -3 -5 -6zM100 492q-2 -1 -4 0t-1 4l25 180q1 4 4 4h87q2 0 2 -4l-16 -116q0 -3 -4 -6z" />
<glyph unicode="&#x201e;" horiz-adv-x="386" d="M22 -67q-6 -4 -6 3l26 180q0 4 4 4h86q4 0 4 -4l-16 -115q0 -3 -5 -6q-2 -2 -47 -32zM184 -67q-5 -3 -5 3l26 180q0 4 3 4h87q3 0 3 -4l-16 -115q0 -3 -4 -6q-3 -2 -47.5 -31.5t-46.5 -30.5z" />
<glyph unicode="&#x2020;" horiz-adv-x="496" d="M135 -180q-3 0 -3 4l75 533h-148q-4 0 -4 4l12 86q4 4 5 4h148l32 225q0 4 4 4h94q4 0 4 -4l-32 -225h147q3 0 3 -4l-12 -86q0 -4 -4 -4h-147l-75 -533q0 -4 -5 -4h-94z" />
<glyph unicode="&#x2021;" horiz-adv-x="496" d="M135 -180q-3 0 -3 4l28 197h-149q-3 0 -3 4l12 86l4 4h149l38 270h-149q-3 0 -2 4l11 85q2 4 4 4h149l28 198q0 4 4 4h94q3 0 3 -4l-28 -198h148q4 0 3 -4l-12 -85q0 -4 -4 -4h-148l-38 -270h148q3 0 3 -4l-12 -86q0 -4 -4 -4h-148l-28 -197q0 -4 -4 -4h-94z" />
<glyph unicode="&#x2022;" horiz-adv-x="395" d="M187 210q-44 0 -68 17.5t-17 70.5l3 22q11 86 112 86q19 0 32.5 -2.5t28 -10.5t20 -26.5t1.5 -46.5l-3 -22q-4 -29 -14.5 -47.5t-27.5 -27t-31.5 -11t-35.5 -2.5z" />
<glyph unicode="&#x2026;" horiz-adv-x="692" d="M476 0q-4 0 -3 4l16 114q0 4 4 4h105q4 0 4 -4l-16 -114q0 -4 -5 -4h-105zM253 0q-3 0 -2 4l16 114q0 4 3 4h106q4 0 4 -4l-16 -114q0 -4 -5 -4h-106zM31 0q-3 0 -2 4l16 114q0 4 3 4h106q3 0 3 -4l-16 -114q0 -4 -4 -4h-106z" />
<glyph unicode="&#x202f;" horiz-adv-x="185" />
<glyph unicode="&#x2030;" horiz-adv-x="1058" d="M202 -6h-90q-5 0 -1 4q37 59 229.5 343.5t227.5 340.5q2 4 6 4h89q4 0 1 -4l-456 -684q-2 -4 -6 -4zM532 67q25 0 40 9.5t19 39.5l10 72q4 28 -7.5 38t-36.5 10q-54 0 -61 -48l-10 -72q-4 -30 8.5 -39.5t37.5 -9.5zM522 -6q-55 0 -85.5 23t-21.5 89l13 94q15 108 141 108 q24 0 41.5 -3.5t35.5 -14t25.5 -33t2.5 -57.5l-13 -94q-5 -36 -19 -59.5t-35 -34.5t-40.5 -14.5t-44.5 -3.5zM221 444q25 0 40 10t19 40l10 71q4 28 -7 38t-36 10q-26 0 -41.5 -10t-19.5 -38l-10 -71q-4 -30 8 -40t37 -10zM211 372q-55 0 -85.5 22.5t-21.5 88.5l13 94 q15 109 141 109q24 0 42 -3.5t36 -14t25.5 -33.5t2.5 -58l-13 -94q-5 -35 -19 -58.5t-35 -34.5t-41 -14.5t-45 -3.5zM828 67q25 0 40 9.5t19 39.5l10 72q4 28 -7 38t-36 10q-55 0 -62 -48l-10 -72q-4 -30 8.5 -39.5t37.5 -9.5zM818 -6q-55 0 -85.5 23t-21.5 89l13 94 q15 108 141 108q24 0 41.5 -3.5t35.5 -14t25.5 -33t2.5 -57.5l-13 -94q-5 -36 -19 -59.5t-35 -34.5t-40.5 -14.5t-44.5 -3.5z" />
<glyph unicode="&#x2039;" horiz-adv-x="336" d="M267 487l50 -57q2 -3 -1 -6l-175 -160q128 -158 130 -160q3 -1 -1 -5l-65 -58q-3 -3 -4 0l-181 220q-3 3 0 6l243 220q2 2 4 0z" />
<glyph unicode="&#x203a;" horiz-adv-x="336" d="M63 41l-50 57q-1 3 2 6l174 160q-128 158 -130 160q-3 1 1 5l65 58q3 3 5 0q1 -2 90 -110.5t90 -109.5q3 -3 0 -6q-1 -1 -61.5 -55.5t-120.5 -109t-60 -55.5q-2 -3 -5 0z" />
<glyph unicode="&#x2044;" horiz-adv-x="417" d="M25 -5q-3 0 -3 4l284 683q1 4 4 4h100q3 0 2 -4q-1 -1 -141.5 -341.5t-140.5 -341.5q-1 -4 -5 -4h-100z" />
<glyph unicode="&#x205f;" horiz-adv-x="232" />
<glyph unicode="&#x2070;" horiz-adv-x="336" d="M174 321q39 0 59 18.5t28 79.5l16 112q8 60 -6.5 78t-53.5 18t-59.5 -18t-28.5 -78l-16 -112q-9 -61 6.5 -79.5t54.5 -18.5zM166 267q-30 0 -48.5 3.5t-38.5 17t-26.5 45t0.5 81.5l17 124q5 38 17 65.5t25.5 42.5t34 23t37 10t40.5 2q30 0 48 -3.5t38.5 -16t27.5 -43.5 t0 -80l-17 -124q-6 -41 -18.5 -70t-26 -43.5t-35 -22.5t-36.5 -9.5t-39 -1.5z" />
<glyph unicode="&#x2074;" horiz-adv-x="310" d="M235 270h-48q-3 0 -3 2l10 70h-154q-2 0 -2 2l7 51q0 2 3 5q1 1 75 137t75 139q2 2 3 2h55q1 0 1 -2l-147 -275l-1 -5h92l11 78q0 2 3 2h49q2 0 2 -2l-11 -78h41q3 0 3 -3l-7 -48q0 -3 -3 -3h-41l-10 -70q0 -2 -3 -2z" />
<glyph unicode="&#x2075;" horiz-adv-x="310" d="M148 267q-69 0 -103 17q-2 2 -1 3q0 1 4 12t7.5 20t3.5 12q0 1 4 1l6 -1q6 -1 15.5 -3t21 -4t25.5 -3t25 -1q66 0 72 44l5 35q8 58 -50 58h-104q-2 0 -2 2l30 214q0 5 6 5h199q2 0 2 -2l-7 -46q0 -3 -2 -3h-152l-17 -120h55q21 0 36.5 -3t34.5 -12t26.5 -30.5t2.5 -55.5 l-7 -48q-13 -91 -136 -91z" />
<glyph unicode="&#x2076;" horiz-adv-x="307" d="M159 316q28 0 46 13.5t25 55.5l3 18q6 38 -7 51.5t-42 13.5q-8 0 -25 -3t-29 -7l-13 -3l-13 -93q-3 -24 13 -35t42 -11zM154 267q-20 0 -38 3.5t-37 12t-28 28.5t-5 49l32 223q5 40 32 63.5t51.5 29t50.5 5.5q18 0 35 -2t28 -4.5t19 -5.5t12 -5l5 -2v-3q0 -1 -4.5 -11.5 t-8 -20.5t-3.5 -11t-4 -1l-5 1q-6 2 -14.5 4t-19 3.5t-23.5 3t-24 1.5q-63 0 -70 -47l-11 -76q53 13 76 13q21 0 35 -3t30.5 -12.5t22.5 -33.5t1 -61l-4 -27q-6 -38 -20 -63t-35 -35t-37.5 -13t-38.5 -3z" />
<glyph unicode="&#x2077;" horiz-adv-x="302" d="M126 270h-56q-2 0 -1 2l180 348l1 5h-160q-2 0 -2 2l7 48q0 3 2 3h221q2 0 2 -2l-7 -49q0 -1 -1 -3l-1 -2l-45 -87q-45 -87 -90 -175l-46 -88q-2 -2 -4 -2z" />
<glyph unicode="&#x2078;" horiz-adv-x="310" d="M159 316q31 0 47.5 12t22.5 47l4 22q9 59 -53 59q-61 0 -71 -59l-4 -22q-6 -34 8.5 -46.5t45.5 -12.5zM186 508q59 0 66 50l3 21q7 53 -50 53q-60 0 -67 -53l-3 -21q-3 -26 11.5 -38t39.5 -12zM151 266q-54 0 -82 21t-20 84l4 30q4 26 17.5 46t25.5 27l11 7l1 2 q-4 2 -9.5 7t-13.5 23t-5 40l4 29q14 99 129 99q113 0 97 -99l-5 -30q-3 -21 -14.5 -38t-20.5 -24l-10 -6v-2q4 -2 10 -7.5t15 -26t5 -47.5l-4 -30q-9 -64 -44 -84.5t-91 -20.5z" />
<glyph unicode="&#x2079;" horiz-adv-x="310" d="M203 631q-19 0 -31 -3.5t-24.5 -19t-16.5 -45.5l-4 -27q-6 -37 7.5 -50.5t42.5 -13.5q9 0 25.5 3t29.5 7l12 3l14 101q3 24 -13 34.5t-42 10.5zM206 681q21 0 39 -3.5t37 -12t28.5 -28t5.5 -48.5l-32 -224q-5 -40 -32 -63.5t-51.5 -29t-50.5 -5.5q-67 0 -101 17l-1 1 q0 2 8.5 23t8.5 22t4 1l5 -1l15 -2.5t19.5 -3.5t24 -3t24.5 -1q63 0 70 48l10 67q-53 -13 -77 -13q-16 0 -27 1.5t-27 7.5t-22.5 17.5t-13 32t0.5 51.5l5 34q5 31 16 53.5t23.5 34t30.5 18t30.5 8t29.5 1.5z" />
<glyph unicode="&#x2080;" horiz-adv-x="336" d="M136 51q39 0 59 18.5t28 79.5l16 112q8 60 -6.5 78t-53.5 18t-59.5 -18t-28.5 -78l-16 -112q-9 -61 6.5 -79.5t54.5 -18.5zM128 -3q-30 0 -48.5 3.5t-38.5 17t-26.5 45t0.5 81.5l17 124q5 38 17 65.5t25.5 42.5t34 23t37 10t40.5 2q30 0 48 -3.5t38.5 -16t27.5 -43.5 t0 -80l-17 -124q-6 -41 -18.5 -70t-26 -43.5t-35 -22.5t-36.5 -9.5t-39 -1.5z" />
<glyph unicode="&#x2081;" horiz-adv-x="298" d="M156 0h-51q-3 0 -3 2l48 340q-79 -54 -80 -55q-2 0 -3 1q0 1 -3 24t-3 24t3 4l93 67q1 1 5 1h51q2 0 2 -2l-57 -404q0 -2 -2 -2z" />
<glyph unicode="&#x2082;" horiz-adv-x="306" d="M223 0h-223l-2 1l7 51q0 1 3 4q133 129 164 167q28 35 31 55l5 34q3 20 -6.5 30.5t-21.5 12.5t-30 2t-40.5 -3.5t-35.5 -6.5t-14 -4q-3 0 -3 2q0 1 -2 21.5t-2 21.5q0 2 1 3q40 20 104 20q23 0 41 -3t37 -12t27.5 -29t4.5 -49l-6 -44q-3 -24 -31 -61.5t-54.5 -64.5 t-88.5 -89l-1 -6h143q2 0 2 -2l-7 -49q0 -2 -2 -2z" />
<glyph unicode="&#x2083;" horiz-adv-x="310" d="M5 14q-1 1 -1 2t8 23l9 22q0 1 3 1l6 -1q5 -1 14.5 -3t20.5 -4t25 -3t26 -1q66 0 72 45l5 33q8 54 -50 54h-43q-3 0 -3 2l6 47q0 2 4 2h44q19 0 35 12.5t20 34.5l5 33q3 20 -7.5 30.5t-21.5 12.5t-28 2q-19 0 -41.5 -3t-35.5 -6t-14 -4q-2 -1 -2 1t-2 23t-2 22t1 2t13 5 t37.5 8.5t52.5 4.5q23 0 40 -2.5t36 -11t27.5 -28t4.5 -49.5l-6 -40q-3 -19 -12.5 -36t-18.5 -24l-8 -7l-1 -4q4 -2 9.5 -7t13.5 -25t4 -46l-6 -43q-4 -30 -18 -49.5t-35.5 -28t-39.5 -11t-42 -2.5q-29 0 -55 4t-38 9z" />
<glyph unicode="&#x2084;" horiz-adv-x="310" d="M197 0h-48q-3 0 -3 2l10 70h-154q-2 0 -2 2l7 51q0 2 3 5q1 1 75 137t75 139q2 2 3 2h55q1 0 1 -2l-147 -275l-1 -5h92l11 78q0 2 3 2h49q2 0 2 -2l-11 -78h41q3 0 3 -3l-7 -48q0 -3 -3 -3h-41l-10 -70q0 -2 -3 -2z" />
<glyph unicode="&#x2085;" horiz-adv-x="310" d="M110 -3q-69 0 -103 17q-2 2 -1 3q0 1 4 12t7.5 20t3.5 12q0 1 4 1l6 -1q6 -1 15.5 -3t21 -4t25.5 -3t25 -1q66 0 72 44l5 35q8 58 -50 58h-104q-2 0 -2 2l30 214q0 5 6 5h199q2 0 2 -2l-7 -46q0 -3 -2 -3h-152l-17 -120h55q21 0 36.5 -3t34.5 -12t26.5 -30.5t2.5 -55.5 l-7 -48q-13 -91 -136 -91z" />
<glyph unicode="&#x2086;" horiz-adv-x="307" d="M121 46q28 0 46 13.5t25 55.5l3 18q6 38 -7 51.5t-42 13.5q-8 0 -25 -3t-29 -7l-13 -3l-13 -93q-3 -24 13 -35t42 -11zM116 -3q-20 0 -37.5 3.5t-36.5 12t-28 28.5t-5 49l31 223q5 40 32 63.5t51.5 29t50.5 5.5q18 0 35 -2t28 -4.5t19 -5.5t12 -5l5 -2v-3 q0 -1 -4.5 -11.5t-8 -20.5t-3.5 -11t-4 -1l-5 1q-6 2 -14.5 4t-19 3.5t-23.5 3t-24 1.5q-63 0 -70 -47l-11 -76q53 13 76 13q21 0 35 -3t30.5 -12.5t22.5 -33.5t1 -61l-4 -27q-6 -38 -20 -63t-35 -35t-37.5 -13t-38.5 -3z" />
<glyph unicode="&#x2087;" horiz-adv-x="302" d="M88 0h-56q-2 0 -1 2l180 348l1 5h-160q-2 0 -2 2l7 48q0 3 2 3h221q2 0 2 -2l-7 -49q0 -1 -1 -3l-1 -2l-45 -87q-45 -87 -90 -175l-46 -88q-2 -2 -4 -2z" />
<glyph unicode="&#x2088;" horiz-adv-x="310" d="M121 46q31 0 48.5 12t22.5 47l3 22q8 59 -53 59t-71 -59l-4 -22q-6 -34 8.5 -46.5t45.5 -12.5zM148 238q59 0 66 50l3 21q7 53 -50 53q-60 0 -67 -53l-3 -21q-3 -26 11.5 -38t39.5 -12zM113 -4q-54 0 -82 21t-20 84l4 30q4 26 17.5 46t25.5 27l11 7l1 2q-4 2 -10 7 t-14.5 23t-4.5 40l5 29q16 99 129 99t97 -99l-5 -30q-3 -21 -14.5 -38t-20.5 -24l-10 -6v-2q4 -2 10 -7.5t15 -26t5 -47.5l-4 -30q-9 -64 -44 -84.5t-91 -20.5z" />
<glyph unicode="&#x2089;" horiz-adv-x="310" d="M165 361q-19 0 -31 -3.5t-24.5 -19t-16.5 -45.5l-4 -27q-6 -37 7.5 -50.5t42.5 -13.5q9 0 25.5 3t29.5 7l12 3l14 101q3 24 -13 34.5t-42 10.5zM168 411q21 0 38.5 -3.5t36.5 -12t28.5 -28t5.5 -48.5l-31 -224q-5 -40 -32 -63.5t-51.5 -29t-50.5 -5.5q-67 0 -101 17l-1 1 q0 2 8.5 23t8.5 22t4 1l5 -1l15 -2.5t19.5 -3.5t24 -3t24.5 -1q63 0 70 48l10 67q-53 -13 -77 -13q-16 0 -27 1.5t-27 7.5t-22.5 17.5t-13 32t0.5 51.5l5 34q5 31 16 53.5t23.5 34t30.5 18t30.5 8t29.5 1.5z" />
<glyph unicode="&#x20ac;" horiz-adv-x="565" d="M306 -8q-25 0 -44.5 1.5t-43 6t-40.5 12.5t-35.5 21t-28.5 32t-19.5 45t-8.5 59.5t5 76.5h-49q-4 0 -4 4l9 59q0 4 4 4h49l8 58h-49q-3 0 -3 4l8 59q1 4 5 4h49q10 75 36.5 126t67 77t84 36t100.5 10q115 0 173 -29q2 -2 1 -6l-41 -84q-2 -3 -5 -2q-4 1 -22 4.5t-53.5 8 t-67.5 4.5q-67 0 -102.5 -30.5t-52.5 -114.5h160q4 0 3 -4l-8 -59q0 -4 -5 -4h-161l-8 -58h161q4 0 4 -4l-9 -59q0 -4 -4 -4h-160q-9 -88 18 -117t95 -29q36 0 75 5.5t59 10.5t23 6q4 1 5 -2l19 -85q2 -4 -2 -5q-6 -4 -24 -11t-67 -17t-104 -10z" />
<glyph unicode="&#x2122;" horiz-adv-x="799" d="M392 291l54 386q0 3 2 3h84q3 0 3 -2l53 -206h7q108 204 109 205q2 3 4 3h83q1 0 1 -3l-54 -386q0 -2 -2 -2h-69v2l34 245h-8q-87 -162 -87 -163q-2 -3 -3 -3h-52q-4 0 -4 3l-41 163h-8l-34 -245q0 -2 -3 -2h-68q-1 0 -1 2zM150 291l45 322h-98q-2 0 -2 2l9 62q0 3 2 3 h268q3 0 3 -3l-9 -62q0 -2 -3 -2h-97l-45 -322q0 -2 -3 -2h-69q-1 0 -1 2z" />
<glyph unicode="&#x2190;" horiz-adv-x="711" d="M231 337h429q3 0 3 -4l-12 -85q0 -4 -4 -4h-429l146 -170q2 -3 -1 -6q-2 -1 -35 -29.5t-35 -30.5q-3 -2 -5 0l-240 279q-3 3 1 6l319 280q2 3 5 0l52 -60q3 -3 0 -6z" />
<glyph unicode="&#x2191;" horiz-adv-x="679" d="M407 433l-60 -429q-1 -4 -5 -4h-86q-4 0 -3 4l60 429l-194 -170q-3 -3 -5 0q-1 1 -26 31l-25 30q-3 2 0 5t160.5 141t158.5 139q3 3 6 0l240 -280q2 -3 0 -5q-2 -1 -35 -30t-35 -31q-2 -3 -5 0z" />
<glyph unicode="&#x2192;" horiz-adv-x="711" d="M483 244h-429q-4 0 -4 4l12 86q0 4 5 4h429l-146 170q-2 2 1 5q2 1 35 30t34 30q2 3 5 0q2 -2 121 -140t120 -139q2 -3 -1 -6l-319 -280q-3 -3 -5 0q-1 2 -26 30.5t-27 30.5t1 5z" />
<glyph unicode="&#x2193;" horiz-adv-x="679" d="M278 177l60 429q1 4 5 4h85q4 0 3 -4l-60 -429l194 170q4 2 6 0l25 -30q25 -30 26 -31q3 -3 -1 -5l-318 -280q-3 -3 -6 0l-240 280q-3 3 1 5l68 61q4 4 6 0z" />
<glyph unicode="&#x2194;" horiz-adv-x="927" d="M289 8l-241 280q-4 2 0 6l320 280q2 2 5 0q1 -1 26 -30.5t26 -30.5q3 -3 0 -6l-194 -169h481q-145 167 -146 169q-2 3 1 6l69 61q4 4 6 0q0 -1 120 -140t120 -140q2 -3 -1 -6l-318 -280q-5 -2 -6 0l-51 61q-4 1 0 5l193 170h-481l146 -170q2 -2 -1 -5l-69 -61q-2 -2 -5 0 z" />
<glyph unicode="&#x2195;" horiz-adv-x="679" d="M84 477q1 1 159 140t159 140q4 4 6 0q1 -1 120.5 -140t120.5 -140q2 -3 -1 -6l-69 -60q-3 -3 -5 0l-146 169l-68 -481l194 170q2 3 5 0l52 -61q3 -3 -1 -5l-319 -280q-3 -3 -6 0t-121 141t-118 139q-4 2 1 5l68 61q3 3 5 0l146 -170l68 481q-192 -167 -194 -169 q-2 -3 -5 0l-52 60q-3 3 1 6z" />
<glyph unicode="&#x2196;" horiz-adv-x="576" d="M504 142q2 -2 -1 -6l-69 -60q-4 -4 -6 0l-262 303l-34 -240q0 -4 -4 -4h-85q-4 0 -4 4l56 396q0 4 5 4h396q3 0 3 -4l-12 -86q0 -4 -5 -4h-241z" />
<glyph unicode="&#x2197;" horiz-adv-x="575" d="M88 75q-3 -3 -6 0l-52 61q-2 2 2 5l345 304h-240q-3 0 -3 4l12 86q0 4 4 4h396q4 0 4 -4l-56 -396q0 -4 -4 -4h-86q-4 0 -4 4l34 240z" />
<glyph unicode="&#x2198;" horiz-adv-x="576" d="M78 471q-2 3 1 6l69 60q2 3 5 0l261 -304l34 240q0 4 5 4h86q4 0 4 -4l-56 -395q0 -4 -5 -4h-396q-3 0 -3 4l12 85q0 4 4 4h240z" />
<glyph unicode="&#x2199;" horiz-adv-x="575" d="M493 538q3 3 6 0l51 -61q2 -4 0 -6l-347 -304h240q4 0 3 -4l-12 -85q0 -4 -4 -4h-395q-4 0 -4 4l56 396q0 4 5 4h85q3 0 3 -4l-34 -241z" />
<glyph unicode="&#x2212;" horiz-adv-x="378" d="M42 228q-3 0 -3 4l12 86q0 4 4 4h278q4 0 4 -4l-12 -86q0 -4 -5 -4h-278z" />
<glyph unicode="&#x221a;" horiz-adv-x="877" d="M47 285l78 70q2 2 4 0l171 -198q497 439 499 440q3 3 7 0l58 -70q2 -2 -1 -5q-2 -2 -291 -257.5t-290 -256.5q-3 -3 -6 0q-1 1 -58 68.5l-114 135t-58 67.5q-2 3 1 6z" />
<glyph unicode="&#x2248;" d="M84 388q2 9 8 15q11 11 43 28t65 17q36 0 87 -29t80 -29t66 22l37 23q4 0 3 -5l-7 -56q-2 -9 -8 -15q-7 -7 -19 -16t-38 -20t-51 -11q-35 0 -85.5 30t-79.5 30q-21 0 -45 -11t-41 -22.5t-20 -11.5q-4 0 -2 5zM56 182q0 8 7 15q11 11 43 28t65 17q35 0 86 -29t81 -29 q29 0 66 22l37 23q4 0 4 -5l-8 -55q-2 -10 -8 -16q-55 -47 -108 -47q-35 0 -85.5 30t-79.5 30q-21 0 -45 -11t-41 -22.5t-20 -11.5q-2 0 -2 5z" />
<glyph unicode="&#x2260;" d="M67 21q-5 0 -2 4l64 101h-89q-3 0 -3 3l13 87q0 4 3 4h137l71 112h-192q-3 0 -3 4l12 86q0 4 4 4h240q63 99 66 103t5 4h70q4 0 2 -4l-65 -103h89q4 0 3 -4l-12 -86q0 -4 -4 -4h-137l-71 -112h192q3 0 3 -4l-12 -86q0 -4 -4 -4h-240q-62 -99 -64 -101q-2 -4 -6 -4h-70z " />
<glyph unicode="&#x2264;" d="M450 148q-3 1 -194 83l-190 82q-4 2 -4 4l11 77q0 1 4 5l432 165q4 2 4 -3l-13 -92q0 -3 -5 -6l-280 -105l-1 -5q248 -103 251 -104t3 -6l-13 -92q0 -5 -5 -3zM21 0q-4 0 -4 4l13 87q0 4 4 4h409q4 0 3 -4l-12 -87q0 -4 -4 -4h-409z" />
<glyph unicode="&#x2265;" d="M42 148q-4 -2 -4 3l13 92q0 3 5 6l279 104l1 5q-247 104 -250 105q-4 3 -3 6l13 92q1 4 4 3t193.5 -83t191.5 -82q3 -1 3 -5l-11 -77q0 -2 -4 -4q-1 0 -108 -41.5t-214 -82.5t-109 -41zM430 0h-409q-4 0 -4 4l13 87q0 4 4 4h409q4 0 3 -4l-12 -87q0 -4 -4 -4z" />
<glyph unicode="&#x25b2;" horiz-adv-x="715" d="M697 285l-19 -132q0 -4 -1 -4t-2 1l-299 237h-9q-364 -237 -365 -238q-4 -4 -4 3l19 133q0 3 5 6l361 236q9 5 17 0l295 -236q2 -2 2 -6z" />
<glyph unicode="&#x25ba;" horiz-adv-x="552" d="M172 0h-132q-5 0 -3 3l284 332l1 9q-190 331 -191 332q-4 4 4 4h133q2 0 5 -4l190 -328q4 -7 -3 -16l-282 -329q-3 -3 -6 -3z" />
<glyph unicode="&#x25bc;" horiz-adv-x="715" d="M32 393l19 133q0 2 1.5 3t2.5 0l298 -238h9q365 237 367 239q1 1 2 -1v-2l-19 -134q0 -2 -4 -5l-90 -59q-91 -59 -180.5 -118t-91.5 -60q-8 -6 -16 0q-241 194 -295 237q-3 2 -3 5z" />
<glyph unicode="&#x25c4;" horiz-adv-x="552" d="M396 680h132q5 0 2 -3l-284 -332l-1 -9q191 -331 191 -333q2 -1 0 -2t-3 -1h-133q-3 0 -6 4l-189 328q-5 7 2 16q24 28 140.5 164t141.5 165q3 3 7 3z" />
<glyph unicode="&#x25fc;" horiz-adv-x="480" d="M0 480h480v-480h-480v480z" />
<glyph horiz-adv-x="530" />
<glyph horiz-adv-x="530" d="M236 94q61 0 90.5 29t42.5 124l27 190q13 93 -9 121.5t-82 28.5t-90.5 -28.5t-43.5 -121.5l-27 -190q-4 -51 -3.5 -81.5t16 -46.5t32.5 -20.5t47 -4.5zM221 -10q-22 0 -38 0.5t-36 3.5t-34 8t-30 14t-26 21.5t-19 31.5t-13 43t-3.5 56t5.5 70l30 211q9 65 29 111.5 t43.5 71.5t58 38.5t63 17t69.5 3.5q21 0 36.5 -0.5t36 -3.5t34.5 -7.5t30 -13.5t26.5 -21t20 -30.5t13.5 -41.5t4 -54.5t-5 -69.5l-30 -211q-10 -69 -31 -117.5t-44 -73.5t-60 -38.5t-62.5 -16t-67.5 -2.5z" />
<glyph horiz-adv-x="530" d="M314 0h-103q-4 0 -4 4l78 551q-131 -88 -133 -89q-3 -2 -3 2q0 1 -6 46.5t-6 46.5q0 3 4 6q3 1 80 55t79 56t6 2h103q4 0 4 -4l-95 -673q0 -3 -4 -3z" />
<glyph horiz-adv-x="530" d="M415 0h-382q-4 0 -4 3l13 94q0 3 5 8q15 14 44 42q70 67 104.5 100.5t79.5 81t65.5 78.5t23.5 53l8 58q3 22 -4 37t-22.5 21.5t-29.5 8.5t-33 2q-31 0 -69 -5.5t-60.5 -10.5t-24.5 -6q-5 0 -5 3q0 2 -3.5 42.5t-3.5 41.5q0 4 2 6q4 3 22 9.5t63.5 14.5t95.5 8 q30 0 55 -2.5t54.5 -12t48 -26t28.5 -46.5t4 -70l-12 -81q-3 -24 -20.5 -55.5t-36 -57.5t-60.5 -71.5t-68 -71.5l-84 -84l-2 -9h222q3 0 3 -4l-14 -95q0 -4 -3 -4z" />
<glyph horiz-adv-x="530" d="M35 17q-2 2 -1 6q0 1 13.5 42.5t14.5 42.5q1 2 6 2q2 -1 25 -5.5t62.5 -9t71.5 -4.5q100 0 110 69l8 53q4 27 -3 45.5t-21.5 26.5t-27 10.5t-25.5 2.5h-76q-4 0 -3 4l12 89q1 4 5 4h77q29 0 54.5 19t30.5 53l7 53q10 69 -87 69q-31 0 -70 -5t-60.5 -9.5t-25.5 -5.5 q-1 -1 -3 0t-2 3t-2.5 41.5t-2.5 43.5q0 3 3 5q87 29 177 29q40 0 70 -4.5t62.5 -19t47 -47.5t7.5 -83l-10 -71q-4 -31 -20.5 -58.5t-30.5 -39.5l-15 -12l-1 -8q2 -1 6 -4t14.5 -13t15.5 -23.5t10.5 -36t-0.5 -49.5l-11 -77q-7 -50 -30.5 -83t-59.5 -47.5t-68.5 -19.5 t-75.5 -5q-50 0 -94.5 7t-64.5 13z" />
<glyph horiz-adv-x="530" d="M380 0h-97q-4 0 -4 4l16 111h-263q-4 0 -4 3l14 97q0 5 4 10q1 2 122.5 225.5t122.5 225.5q2 4 4 4h110q4 0 2 -4l-238 -449l-2 -9h143l17 123q0 4 3 4h98q5 0 4 -4l-17 -123h58q4 0 4 -4l-14 -95q0 -4 -4 -4h-59l-16 -111q0 -4 -4 -4z" />
<glyph horiz-adv-x="530" d="M216 -11q-94 0 -178 28q-2 1 -2 5l30 85q1 4 5 2q1 0 11 -2t27 -4.5t36.5 -5t42.5 -4.5t42 -2q100 0 110 68l8 57q13 89 -77 89h-176q-2 0 -2 4l51 362q2 9 10 9h344q4 0 4 -4l-13 -89q0 -4 -5 -4h-251l-25 -182h80q29 0 51 -2t50 -12t44.5 -27t26 -49.5t3.5 -77.5 l-12 -89q-6 -42 -25.5 -72.5t-42.5 -46t-57 -24.5t-57 -10.5t-53 -1.5z" />
<glyph horiz-adv-x="530" d="M238 85q20 0 35 3t31.5 13t27.5 32.5t15 57.5l4 34q7 57 -11.5 77.5t-59.5 20.5q-15 0 -40.5 -5t-43.5 -10l-19 -5l-21 -151q-5 -35 19 -51t63 -16zM231 -10q-36 0 -67 5.5t-63.5 21t-48 49.5t-8.5 83l52 372q6 44 27 76.5t46 50t57 28t55 13t46 2.5q18 0 35.5 -1 t31.5 -3t27 -4t23 -5t18.5 -5.5t15 -5t10.5 -4t7 -3.5l3 -1q3 -1 1 -6q-1 -2 -8.5 -22.5t-15 -39.5t-7.5 -20q0 -2 -5 -2l-9 2l-25 5t-33 6t-40 5t-41 2q-98 0 -108 -72l-16 -119q85 20 122 20q14 0 25 -0.5t25.5 -2.5t25 -6t24 -10.5t21 -16.5t16.5 -23.5t11 -31.5t4.5 -41 t-3.5 -52l-7 -50q-7 -52 -26 -90t-40 -57.5t-52 -30.5t-53.5 -13.5t-52.5 -2.5z" />
<glyph horiz-adv-x="530" d="M198 0h-112q-3 0 -2 4l293 566l1 9h-259q-4 0 -3 4l13 92q0 5 4 5h379q3 0 3 -4l-13 -92q0 -2 -1 -6l-2 -4q-4 -8 -149.5 -288.5t-146.5 -281.5q-1 -4 -5 -4z" />
<glyph horiz-adv-x="530" d="M237 84q45 0 71.5 19t34.5 72l6 39q13 87 -79 87q-94 0 -107 -87l-6 -39q-8 -52 13 -71.5t67 -19.5zM282 403q89 0 99 75l5 39q11 80 -75 80q-90 0 -101 -80l-5 -39q-6 -40 16 -57.5t61 -17.5zM223 -11q-28 0 -50 2.5t-46.5 9t-39.5 18.5t-29.5 32t-15.5 48.5t2 67.5 l8 54q4 26 14.5 49t23 37.5t24 24.5t19.5 14l8 5v4q-2 1 -5.5 4t-13.5 13t-15 22t-10 32t0 43l8 52q7 44 24 76t38 50t50 28t53.5 13t55.5 3q30 0 53 -3t49 -13t41 -28t22.5 -50t0.5 -76l-8 -53q-5 -35 -23.5 -63t-34.5 -39l-16 -11v-3q3 -1 7 -4.5t15 -14.5t17 -25t12 -37 t0 -50l-8 -54q-8 -57 -30 -94.5t-56 -54.5t-66.5 -23t-77.5 -6z" />
<glyph horiz-adv-x="530" d="M315 688q28 0 53 -3t53.5 -13t47.5 -26.5t29.5 -46.5t4.5 -70l-52 -367q-6 -44 -27 -76.5t-45.5 -50t-57 -28t-55 -13t-45.5 -2.5q-116 0 -174 29q-3 2 -2 6l32 83q2 2 5 2q4 -1 25 -5t58.5 -8.5t68.5 -4.5q96 0 107 73l15 103q-87 -20 -124 -20q-34 0 -58 5t-50.5 21.5 t-37 56.5t-2.5 101l8 60q7 52 25.5 90t40 57.5t52 30.5t53 13.5t52.5 2.5zM309 593q-20 0 -34.5 -3t-31 -13t-27 -32t-15.5 -57l-6 -45q-8 -57 10.5 -77.5t60.5 -20.5q15 0 40.5 5t43.5 10l19 5l23 161q5 36 -19 51.5t-64 15.5z" />
<glyph horiz-adv-x="530" d="M186 97q-4 0 -4 4l15 105q0 4 5 4h105q3 0 3 -4l-15 -105q0 -4 -4 -4h-105zM238 467q-4 0 -4 4l15 104q0 4 4 4h105q4 0 4 -4l-15 -104q0 -4 -4 -4h-105z" />
<glyph horiz-adv-x="454" d="M83 146q-3 3 0 6l34 30q34 30 35 31q2 3 5 0q2 -2 79.5 -96.5t78.5 -96.5q1 -3 -1 -5q-3 -3 -35 -31.5t-33 -29.5q-2 -2 -5 0z" />
<glyph horiz-adv-x="421" d="M269 425q-4 0 -2 4l50 89q3 4 7 4h68q4 0 1 -4l-50 -89l-6 -4h-68zM17 -40q-4 0 -3 4q1 3 25 44t26 43q1 4 7 4h67q3 0 2 -4l-52 -87q-1 -4 -6 -4h-66z" />
<glyph horiz-adv-x="583" d="M407 592q-3 0 -2 4q1 1 9 13t20 29.5t23 35t19 30.5l9 13q2 4 6 4h89q5 0 2 -4l-80 -121q-3 -4 -6 -4h-89zM10 -40q-3 0 0 4l74 115q3 4 6 4h89q5 0 2 -4l-75 -115q-3 -4 -6 -4h-90z" />
<glyph horiz-adv-x="1160" d="M251 -10q-136 0 -218 34l-1 1q-2 4 -1 6l10 23q10 22 20 43.5t11 22.5q0 3 4 3q87 -29 192 -29q39 0 63 3.5t46 20t26 47.5l7 52q5 35 -24.5 52.5t-96.5 23.5q-122 12 -163.5 48t-29.5 120l11 77q21 153 245 153q59 0 107.5 -7.5t67 -14t21.5 -9.5q3 -1 1 -5l-39 -85 q-2 -3 -5 -2t-23.5 5.5t-62 9.5t-80.5 5q-106 0 -115 -64l-7 -50q-5 -36 19 -52.5t96 -23.5q122 -13 166 -49t32 -121l-11 -78q-7 -52 -34 -86t-69 -49t-79 -20t-86 -5zM800 -10q-136 0 -218 34l-1 1q-2 4 -1 6l10 23q10 22 20 43.5t11 22.5q0 3 4 3q87 -29 192 -29 q39 0 63 3.5t46 20t26 47.5l7 52q5 35 -24.5 52.5t-96.5 23.5q-122 12 -163.5 48t-29.5 120l11 77q21 153 245 153q59 0 107.5 -7.5t67 -14t21.5 -9.5q3 -1 1 -5l-39 -85q-2 -3 -5 -2t-23.5 5.5t-62 9.5t-80.5 5q-106 0 -115 -64l-7 -50q-5 -36 19 -52.5t96 -23.5 q122 -13 166 -49t32 -121l-11 -78q-7 -52 -34 -86t-69 -49t-79 -20t-86 -5z" />
<glyph horiz-adv-x="477" d="M66 0h-99q-3 0 -2 3q1 1 125.5 269t125.5 269q2 3 4 3h111q3 0 4 -3l97 -538q2 -3 -3 -3h-99q-2 0 -4 3l-15 99h-198q-42 -97 -43 -99q-2 -3 -4 -3zM149 183h151l-35 230h-16z" />
<glyph horiz-adv-x="463" d="M124 81h90q23 0 38.5 2.5t31.5 15.5t19 36l6 46q2 19 -4 31.5t-19 17.5t-24 7t-25 2h-90zM157 314h85q31 0 41 -2q36 52 36 94q0 36 -17.5 46.5t-49.5 10.5h-74zM213 0h-201l76 544h192q143 0 143 -117q0 -59 -55 -141q53 -32 43 -104l-7 -50q-5 -36 -19 -61.5t-30.5 -39 t-42.5 -21t-46.5 -9t-52.5 -1.5z" />
<glyph horiz-adv-x="430" d="M200 -4q-21 0 -37 1t-35.5 4.5t-33 10t-29 16.5t-23 25t-15 35t-6.5 47t4 61l22 157q9 63 31.5 104.5t57.5 60.5t67 25t76 6q90 0 140 -25q2 -1 0 -4q-1 -1 -20 -38t-19 -38q-1 -2 -5 -2q-2 1 -16 4.5t-41 7t-52 3.5q-22 0 -37 -3t-33.5 -13t-31 -35t-17.5 -63l-19 -138 q-10 -70 12.5 -92t73.5 -22q18 0 36.5 2t33 4.5t26.5 5t19 4.5t8 2q1 1 3 -2q0 -1 8.5 -37.5t9.5 -37.5q2 -3 -2 -5q-62 -31 -156 -31z" />
<glyph horiz-adv-x="477" d="M127 92h84q50 0 76.5 21.5t36.5 94.5l19 130q1 27 2.5 45.5t-5.5 31t-13 20t-18.5 11t-22.5 4.5t-25 1h-84zM198 0h-186l76 544h186q41 0 66.5 -4.5t58.5 -21t45.5 -59.5t2.5 -111l-21 -148q-8 -56 -26.5 -95t-39 -59t-52.5 -31t-54 -13t-56 -2z" />
<glyph horiz-adv-x="423" d="M12 0l76 544h335q4 0 4 -3l-12 -83q0 -3 -4 -3h-233l-19 -136h197q3 0 2 -3l-11 -82q0 -3 -4 -3h-197l-19 -142h233q3 0 3 -4l-12 -82q0 -3 -4 -3h-335z" />
<glyph horiz-adv-x="419" d="M15 0q-3 0 -3 3l76 541h335q4 0 4 -3l-12 -83q0 -3 -4 -3h-233l-23 -160h197q3 0 3 -3l-12 -83q0 -3 -3 -3h-197l-29 -203q0 -3 -3 -3h-96z" />
<glyph horiz-adv-x="472" d="M198 -4q-20 0 -35 1t-34.5 4t-32.5 9.5t-28.5 16.5t-23.5 24.5t-16 35t-6.5 47.5t3.5 62l22 157q7 53 26.5 91.5t41 58t54 30.5t55 13t54.5 2q44 0 85 -6.5t58 -11.5t21 -7t2 -5l-38 -73q-1 -2 -4 -2l-4 1q-5 1 -12.5 2t-17.5 2.5t-22.5 3t-25 2.5t-27 2t-27.5 1 q-22 0 -36.5 -2.5t-33 -12.5t-30.5 -35t-18 -64l-20 -140q-10 -71 12.5 -93t71.5 -22q13 0 39 3t45 6l20 3l16 114h-75q-3 0 -3 4l11 78q0 3 3 3h162l-38 -273q-136 -30 -194 -30z" />
<glyph horiz-adv-x="498" d="M15 0q-3 0 -3 3l76 538q0 3 3 3h96q3 0 3 -3l-31 -224h190l31 224q0 3 4 3h95q3 0 3 -3l-76 -538q0 -3 -3 -3h-95q-4 0 -4 3l32 227h-190l-32 -227q0 -3 -3 -3h-96z" />
<glyph horiz-adv-x="206" d="M15 0q-3 0 -3 3l76 538q0 3 3 3h96q3 0 3 -3l-76 -538q0 -3 -3 -3h-96z" />
<glyph horiz-adv-x="383" d="M115 -6q-33 0 -65 5t-45 9t-17 6q-2 1 -1 4l35 77q0 1 4 1l6 -1q6 -1 16 -2t21.5 -2.5t26.5 -2.5t28 -1q37 0 60.5 13t29.5 54l54 387q0 3 3 3h95q3 0 3 -3l-55 -394q-6 -42 -21.5 -71.5t-33.5 -45t-45.5 -24t-48 -10.5t-50.5 -2z" />
<glyph horiz-adv-x="474" d="M15 0q-3 0 -3 3l76 538q0 3 3 3h96q3 0 3 -3l-31 -224h28q177 221 179 224t5 3h107q4 0 1 -3l-215 -265q149 -271 151 -273q3 -3 -1 -3h-108q-3 0 -5 3l-121 226h-34l-32 -226q0 -3 -3 -3h-96z" />
<glyph horiz-adv-x="407" d="M12 0l76 541q0 3 3 3h96q3 0 3 -3l-64 -452h234q3 0 3 -4l-12 -82q0 -3 -4 -3h-335z" />
<glyph horiz-adv-x="604" d="M15 0q-3 0 -3 3l76 538q0 3 3 3h117q3 0 4 -2l83 -290h10q159 286 160 288q3 4 6 4h115q3 0 3 -3l-76 -538q0 -3 -3 -3h-94q-3 0 -3 3l48 345h-11q-128 -229 -129 -231q-2 -3 -6 -3h-72q-5 0 -6 3l-65 230h-12l-48 -344q0 -3 -3 -3h-94z" />
<glyph horiz-adv-x="508" d="M13 0q-3 0 -3 3l76 538q0 3 4 3h109q3 0 5 -3l134 -362h9l51 362q0 3 3 3h94q2 0 2 -3l-76 -538q0 -3 -3 -3h-111q-3 0 -5 3l-133 363h-9l-51 -363q0 -3 -3 -3h-93z" />
<glyph horiz-adv-x="472" d="M207 87q50 0 77 21.5t37 94.5l19 140q10 71 -11 92t-70 21t-75.5 -21t-36.5 -92l-19 -140q-10 -74 10 -95t69 -21zM194 -5q-18 0 -31 0.5t-30.5 3t-29.5 6.5t-27 11t-23 17.5t-18 25.5t-12 34.5t-4.5 45t4.5 56.5l23 157q7 53 25 90.5t38.5 57.5t50.5 31.5t54 14t58 2.5 q17 0 30 -0.5t30.5 -2.5t29.5 -6.5t27.5 -11t23.5 -17t18.5 -25t12.5 -33.5t5 -44t-4 -56l-22 -157q-8 -55 -26.5 -94.5t-39 -59.5t-52.5 -31t-54.5 -13t-56.5 -2z" />
<glyph horiz-adv-x="458" d="M154 285h94q82 0 92 65l6 39q6 41 -15.5 53.5t-58.5 12.5h-94zM111 0h-96q-3 0 -3 3l76 541h200q34 0 58 -4t53 -17.5t41.5 -45.5t6.5 -81l-7 -54q-19 -146 -201 -146h-98l-27 -193q0 -3 -3 -3z" />
<glyph horiz-adv-x="470" d="M194 -5q-18 0 -31 0.5t-30.5 3t-29.5 6.5t-27 11t-23 17.5t-18 25.5t-12 34.5t-4.5 45t4.5 56.5l23 157q7 53 25 90.5t38.5 57.5t50.5 31.5t54 14t58 2.5q17 0 30 -0.5t30.5 -2.5t29.5 -6.5t27.5 -11t23.5 -17t18.5 -25t12.5 -33.5t5 -44t-4 -56l-22 -157 q-12 -86 -49 -134l30 -37q2 -2 -1 -4q-1 -1 -15.5 -14.5t-28.5 -25.5l-14 -13q-3 -2 -5 0l-35 42q-42 -14 -111 -14zM210 125q-3 2 0 5l60 52q2 2 3.5 2t1.5 -2t31 -38q8 18 15 59l19 140q10 71 -11 92t-70 21t-75.5 -21t-36.5 -92l-19 -140q-10 -74 10 -95t69 -21 q22 0 32 2z" />
<glyph horiz-adv-x="474" d="M153 284h95q82 0 92 68l5 35q4 29 -8 45t-27.5 19.5t-37.5 3.5h-95zM110 0h-95q-3 0 -3 3l76 541h200q25 0 45 -2t45.5 -11t41 -24.5t24.5 -45.5t3 -71l-6 -42q-15 -103 -99 -134l65 -211q1 -3 -2 -3h-106q-3 0 -4 3l-54 192h-101l-27 -192q0 -3 -3 -3z" />
<glyph horiz-adv-x="457" d="M187 -4q-117 0 -179 31q-2 1 0 5l4 8q4 9 9.5 20t10.5 22t9 19t5 8q1 2 5 2l7 -3l22 -5.5t31 -7t41 -6t48 -2.5q45 0 71 10t31 42l5 35q4 26 -19.5 39t-74.5 18q-97 10 -130.5 39t-23.5 97l8 59q17 123 198 123q106 0 160 -27q2 -2 2 -4l-37 -75q-1 -2 -4 -2q-3 1 -19 5 t-48.5 8.5t-63.5 4.5q-79 0 -86 -47l-5 -33q-4 -26 14.5 -38.5t74.5 -18.5q96 -11 132.5 -40.5t26.5 -97.5l-8 -59q-6 -42 -27.5 -69.5t-55.5 -39.5t-64 -16t-70 -4z" />
<glyph horiz-adv-x="419" d="M122 0q-2 0 -2 3l63 450h-144q-3 0 -3 3l12 85q0 3 4 3h389q2 0 2 -3l-12 -85q0 -3 -3 -3h-144l-63 -450q0 -3 -4 -3h-95z" />
<glyph horiz-adv-x="488" d="M187 -4q-102 0 -133.5 49.5t-15.5 164.5l47 331q0 3 2 3h96q1 0 2 -1t0 -2l-45 -323q-13 -64 -1 -97t62 -33h34q49 0 66.5 28t28.5 102l45 323q0 3 4 3h95q3 0 3 -3l-47 -331q-8 -56 -19.5 -92t-34.5 -65.5t-61 -43t-94 -13.5h-34z" />
<glyph horiz-adv-x="476" d="M140 0q-2 0 -4 2v97q0 351 -69 431q-12 14 -20 14h100q3 0 4 -3l60 -394h14q171 391 172 394t5 3h99q3 0 2 -3l-245 -538q-2 -3 -5 -3h-113z" />
<glyph horiz-adv-x="670" d="M102 0q-4 0 -4 3l-49 538q-1 3 2 3h99q2 0 4 -3l29 -381h15q114 277 115 279q1 3 5 3h80q2 0 3 -3l36 -279h16q135 379 136 381q1 3 4 3h99q4 0 3 -3q-1 -1 -100.5 -268t-100.5 -270q-2 -3 -5 -3h-118q-3 0 -5 3l-28 271h-9q-102 -266 -104 -270q-1 -4 -5 -4h-118z" />
<glyph horiz-adv-x="448" d="M-28 0q-4 0 -2 3l198 279q-109 257 -110 259q-2 3 2 3h104q1 0 4 -3l66 -162h5q110 160 112 162q3 3 4 3h105q1 0 2 -1t0 -2l-183 -259q118 -278 119 -279q3 -3 -2 -3h-105q-3 0 -4 3l-75 182h-5q-125 -180 -126 -182q-1 -3 -4 -3h-105z" />
<glyph horiz-adv-x="434" d="M130 0q-3 0 -3 3l29 209q-112 327 -113 329q-1 3 2 3h102q1 0 4 -3l70 -216h5q129 214 131 216l3 3h100q4 0 3 -3l-206 -329l-29 -209q-1 -3 -3 -3h-95z" />
<glyph horiz-adv-x="422" d="M-6 0q-2 0 -2 2l12 85q0 4 3 7l285 352l1 7h-225q-3 0 -3 4l12 83q0 4 3 4h341q3 0 3 -4l-12 -83q0 -6 -3 -9l-284 -350l-1 -8h234q2 0 2 -3l-12 -84q0 -3 -3 -3h-351z" />
<glyph horiz-adv-x="353" d="M87 458q-2 0 -2 3l11 80q0 3 3 3h73q3 0 3 -3l-11 -80q-1 -3 -4 -3h-73zM242 458q-3 0 -3 3l11 80q0 3 4 3h71q3 0 3 -3l-11 -80q-1 -3 -4 -3h-71z" />
<glyph horiz-adv-x="354" d="M199 444l-58 114q-3 3 1 3h84q2 0 4 -3l42 -114q1 -4 -2 -4h-68q-1 0 -3 4z" />
<glyph horiz-adv-x="353" d="M150 440h-68q-1 0 -1.5 1t0.5 2t41.5 52.5t46.5 61.5q6 3 7 3h78q5 0 6 -3l56 -114q2 -3 -1 -3h-68q-3 0 -5 3l-34 59h-3q-47 -57 -49 -59q-3 -3 -6 -3z" />
<glyph horiz-adv-x="353" d="M91 458q-2 0 -2 4l7 49q2 7 7 13q28 28 63 28q22 0 50 -15t45 -15q18 0 38 14t22 14q3 0 3 -4l-7 -49q-2 -9 -7 -14q-29 -29 -63 -29q-22 0 -50.5 16t-44.5 16q-18 0 -39 -14t-22 -14z" />
<glyph horiz-adv-x="353" d="M314 468h-222q-3 0 -3 3l10 66q0 3 3 3h222q2 0 2 -3l-10 -66q0 -3 -2 -3z" />
<glyph horiz-adv-x="354" d="M199 444q-2 -4 -4 -4h-68q-3 0 -1 4l75 114q1 3 5 3h84q2 0 1 -3z" />
<glyph horiz-adv-x="353" d="M137 -126h-85q-2 0 -1 3q1 1 38.5 64t38.5 64q3 3 5 3h68q1 0 0 -3l-60 -128q-1 -3 -4 -3z" />
<glyph horiz-adv-x="353" d="M199 442q-100 0 -100 86q0 22 7 22h42q6 0 7 -5q5 -25 15.5 -32.5t37.5 -7.5q25 0 38 8.5t24 31.5q2 5 8 5h42q5 0 4 -5q-20 -103 -125 -103z" />
<glyph horiz-adv-x="353" d="M155 453q-3 0 -3 3l12 85q0 3 3 3h89q3 0 3 -3l-12 -85q0 -3 -4 -3h-88z" />
<glyph horiz-adv-x="353" d="M200 466q18 0 28.5 7t13.5 28l1 9q2 20 -5.5 27t-24.5 7q-40 0 -44 -34l-1 -9q-3 -21 5.5 -28t26.5 -7zM194 425q-37 0 -57 14t-13 58l3 18q7 42 31 56t61 14q16 0 27 -2t23 -8.5t17 -21.5t1 -38l-3 -18q-5 -31 -20.5 -48t-30.5 -20.5t-39 -3.5z" />
<glyph horiz-adv-x="353" d="M139 443q-1 -3 -5 -3h-68q-2 0 -1 3l75 114q0 3 4 3h85q1 0 0 -3q-1 -1 -45 -57t-45 -57zM262 443q-2 -3 -4 -3h-68q-3 0 0 3l73 114q3 3 6 3h83q4 0 1 -3q-1 -1 -45 -56.5t-46 -57.5z" />
<glyph horiz-adv-x="353" d="M114 -147q-65 0 -65 54q0 57 66 98q4 3 13 3h71q3 0 4 -2.5t-3 -4.5q-76 -42 -76 -69q0 -12 15 -12q6 0 22 8q5 2 7 -1q10 -30 17 -44q2 -4 -2 -7q-31 -23 -69 -23z" />
<glyph horiz-adv-x="353" d="M262 558h71q3 0 0 -3l-98 -114q-3 -3 -6 -3h-64q-3 0 -5 3q-4 8 -34 57.5t-33 56.5q-1 3 1 3h71q2 0 5 -3l34 -58h4q47 56 49 58q3 3 5 3z" />
<glyph horiz-adv-x="477" d="M66 0h-99q-3 0 -2 3q1 1 125.5 269t125.5 269q2 3 4 3h111q3 0 4 -3l97 -538q2 -3 -3 -3h-99q-2 0 -4 3l-15 99h-198q-42 -97 -43 -99q-2 -3 -4 -3zM149 183h151l-35 230h-16zM283 604l-58 114q-3 3 1 3h84q2 0 4 -3l42 -114q1 -4 -2 -4h-68q-1 0 -3 4z" />
<glyph horiz-adv-x="477" d="M66 0h-99q-3 0 -2 3q1 1 125.5 269t125.5 269q2 3 4 3h111q3 0 4 -3l97 -538q2 -3 -3 -3h-99q-2 0 -4 3l-15 99h-198q-42 -97 -43 -99q-2 -3 -4 -3zM149 183h151l-35 230h-16zM280 604q-2 -4 -4 -4h-68q-3 0 -1 4l75 114q2 3 5 3h84q3 0 1 -3z" />
<glyph horiz-adv-x="477" d="M66 0h-99q-3 0 -2 3q1 1 125.5 269t125.5 269q2 3 4 3h111q3 0 4 -3l97 -538q2 -3 -3 -3h-99q-2 0 -4 3l-15 99h-198q-42 -97 -43 -99q-2 -3 -4 -3zM149 183h151l-35 230h-16zM233 600h-68q-1 0 -1.5 1t0.5 2q4 5 43.5 55t45.5 59l6 3h78q5 0 7 -3l56 -114q2 -3 -2 -3 h-68q-4 0 -5 3l-33 59h-3q-48 -57 -50 -59q-3 -3 -6 -3z" />
<glyph horiz-adv-x="477" d="M66 0h-99q-3 0 -2 3q1 1 125.5 269t125.5 269q2 3 4 3h111q3 0 4 -3l97 -538q2 -3 -3 -3h-99q-2 0 -4 3l-15 99h-198q-42 -97 -43 -99q-2 -3 -4 -3zM149 183h151l-35 230h-16zM176 618q-3 0 -3 4l7 49q2 7 7 13q28 28 63 28q22 0 50.5 -15t45.5 -15q18 0 38 14t22 14 t2 -4l-7 -49q-2 -9 -7 -14q-29 -29 -63 -29q-22 0 -50 16t-44 16q-19 0 -40 -14z" />
<glyph horiz-adv-x="477" d="M66 0h-99q-3 0 -2 3q1 1 125.5 269t125.5 269q2 3 4 3h111q3 0 4 -3l97 -538q2 -3 -3 -3h-99q-2 0 -4 3l-15 99h-198q-42 -97 -43 -99q-2 -3 -4 -3zM149 183h151l-35 230h-16zM172 618q-3 0 -3 3l11 80q0 3 4 3h73q1 0 2 -1t0 -2l-11 -80q-1 -3 -3 -3h-73zM327 618 q-4 0 -4 3l11 80q0 3 5 3h71q2 0 2.5 -1t-0.5 -2l-11 -80q-1 -3 -3 -3h-71z" />
<glyph horiz-adv-x="477" d="M66 0h-99q-3 0 -2 3q1 1 125.5 269t125.5 269q2 3 4 3h111q3 0 4 -3l97 -538q2 -3 -3 -3h-99q-2 0 -4 3l-15 99h-198q-42 -97 -43 -99q-2 -3 -4 -3zM280 585q-37 0 -57 14t-13 58l3 18q7 42 31 56t61 14q16 0 27.5 -2t23.5 -8.5t16.5 -21.5t0.5 -38l-3 -18 q-5 -31 -20.5 -48t-30.5 -20.5t-39 -3.5zM149 183h151l-35 230h-16zM286 626q18 0 28.5 7t13.5 28l1 9q2 20 -5.5 27t-24.5 7q-40 0 -44 -34l-1 -9q-3 -21 5.5 -28t26.5 -7z" />
<glyph horiz-adv-x="430" d="M177 -126h-85q-2 0 0 3q1 1 15 25t31.5 53.5t25.5 41.5q-77 5 -116.5 47.5t-23.5 151.5l23 157q9 63 32 104.5t57.5 60.5t66.5 25t76 6q90 0 140 -25q2 -1 0 -4q-1 -1 -20 -38t-19 -38q-1 -2 -5 -2q-2 1 -16 4.5t-41 7t-52 3.5q-22 0 -37 -3t-33.5 -13t-31 -35t-17.5 -63 l-19 -138q-10 -70 12.5 -92t73.5 -22q18 0 36.5 2t33 4.5t26.5 5t19 4.5t8 2q1 1 3 -2q0 -1 8.5 -37.5t9.5 -37.5q2 -3 -2 -5q-49 -24 -118 -29l-56 -121q-2 -3 -5 -3z" />
<glyph horiz-adv-x="423" d="M12 0l76 544h335q4 0 4 -3l-12 -83q0 -3 -4 -3h-233l-19 -136h197q3 0 2 -3l-11 -82q0 -3 -4 -3h-197l-19 -142h233q3 0 3 -4l-12 -82q0 -3 -4 -3h-335zM257 604l-58 114q-1 3 1 3h84q2 0 4 -3l42 -114q1 -4 -2 -4h-68q-1 0 -3 4z" />
<glyph horiz-adv-x="423" d="M12 0l76 544h335q4 0 4 -3l-12 -83q0 -3 -4 -3h-233l-19 -136h197q3 0 2 -3l-11 -82q0 -3 -4 -3h-197l-19 -142h233q3 0 3 -4l-12 -82q0 -3 -4 -3h-335zM263 604q-2 -4 -5 -4h-68q-2 0 0 4l74 114q2 3 5 3h84q3 0 1 -3z" />
<glyph horiz-adv-x="423" d="M12 0l76 544h335q4 0 4 -3l-12 -83q0 -3 -4 -3h-233l-19 -136h197q3 0 2 -3l-11 -82q0 -3 -4 -3h-197l-19 -142h233q3 0 3 -4l-12 -82q0 -3 -4 -3h-335zM214 600h-68q-1 0 -1 1t1 2t41.5 52.5t46.5 61.5l6 3h78q5 0 7 -3l56 -114q1 -3 -2 -3h-68q-3 0 -4 3l-34 59h-3 q-47 -57 -49 -59q-3 -3 -7 -3z" />
<glyph horiz-adv-x="423" d="M12 0l76 544h335q4 0 4 -3l-12 -83q0 -3 -4 -3h-233l-19 -136h197q3 0 2 -3l-11 -82q0 -3 -4 -3h-197l-19 -142h233q3 0 3 -4l-12 -82q0 -3 -4 -3h-335zM147 618q-3 0 -3 3l12 80q0 3 3 3h73q1 0 2 -1t0 -2l-11 -80q-1 -3 -3 -3h-73zM302 618q-4 0 -4 3l12 80q0 3 4 3h71 q2 0 2.5 -1t-0.5 -2l-11 -80q-1 -3 -3 -3h-71z" />
<glyph horiz-adv-x="206" d="M15 0q-3 0 -3 3l76 538q0 3 3 3h96q3 0 3 -3l-76 -538q0 -3 -3 -3h-96zM149 604l-58 114q-3 3 1 3h84q2 0 4 -3l41 -114q1 -4 -1 -4h-68q-1 0 -3 4z" />
<glyph horiz-adv-x="206" d="M15 0q-3 0 -3 3l76 538q0 3 3 3h96q3 0 3 -3l-76 -538q0 -3 -3 -3h-96zM146 604q-2 -4 -4 -4h-68q-3 0 -1 4l75 114q2 3 5 3h84q3 0 1 -3z" />
<glyph horiz-adv-x="206" d="M15 0q-3 0 -3 3l76 538q0 3 3 3h96q3 0 3 -3l-76 -538q0 -3 -3 -3h-96zM98 600h-68q-1 0 -1.5 1t0.5 2t41.5 52.5t46.5 61.5q1 0 3 1.5t4 1.5h78q5 0 6 -3l56 -114q2 -3 -1 -3h-68q-3 0 -5 3l-33 59h-3q-48 -57 -50 -59q-3 -3 -6 -3z" />
<glyph horiz-adv-x="206" d="M15 0q-3 0 -3 3l76 538q0 3 3 3h96q3 0 3 -3l-76 -538q0 -3 -3 -3h-96zM37 618q-3 0 -3 3l12 80q0 3 3 3h73q1 0 2 -1t0 -2l-11 -80q-1 -3 -3 -3h-73zM192 618q-4 0 -4 3l12 80q0 3 4 3h71q2 0 2.5 -1t-0.5 -2l-11 -80q-1 -3 -3 -3h-71z" />
<glyph horiz-adv-x="508" d="M13 0q-3 0 -3 3l76 538q0 3 4 3h109q3 0 5 -3l134 -362h9l51 362q0 3 3 3h94q2 0 2 -3l-76 -538q0 -3 -3 -3h-111q-3 0 -5 3l-133 363h-9l-51 -363q0 -3 -3 -3h-93zM193 618q-3 0 -3 4l7 49q1 7 7 13q28 28 63 28q22 0 50.5 -15t45.5 -15q18 0 38 14t22 14t2 -4l-7 -49 q-2 -9 -7 -14q-29 -29 -63 -29q-22 0 -50 16t-44 16q-18 0 -39 -14t-22 -14z" />
<glyph horiz-adv-x="472" d="M194 -5q-18 0 -31 0.5t-30.5 3t-29.5 6.5t-27 11t-23 17.5t-18 25.5t-12 34.5t-4.5 45t4.5 56.5l23 157q7 53 25 90.5t38.5 57.5t50.5 31.5t54 14t58 2.5q17 0 30 -0.5t30.5 -2.5t29.5 -6.5t27.5 -11t23.5 -17t18.5 -25t12.5 -33.5t5 -44t-4 -56l-22 -157 q-8 -55 -26.5 -94.5t-39 -59.5t-52.5 -31t-54.5 -13t-56.5 -2zM207 87q50 0 77 21.5t37 94.5l19 140q10 71 -11 92t-70 21t-75.5 -21t-36.5 -92l-19 -140q-10 -74 10 -95t69 -21zM282 604l-58 114q-2 3 1 3h84q3 0 4 -3l42 -114q1 -4 -2 -4h-68q-1 0 -3 4z" />
<glyph horiz-adv-x="472" d="M194 -5q-18 0 -31 0.5t-30.5 3t-29.5 6.5t-27 11t-23 17.5t-18 25.5t-12 34.5t-4.5 45t4.5 56.5l23 157q7 53 25 90.5t38.5 57.5t50.5 31.5t54 14t58 2.5q17 0 30 -0.5t30.5 -2.5t29.5 -6.5t27.5 -11t23.5 -17t18.5 -25t12.5 -33.5t5 -44t-4 -56l-22 -157 q-8 -55 -26.5 -94.5t-39 -59.5t-52.5 -31t-54.5 -13t-56.5 -2zM207 87q50 0 77 21.5t37 94.5l19 140q10 71 -11 92t-70 21t-75.5 -21t-36.5 -92l-19 -140q-10 -74 10 -95t69 -21zM279 604q-2 -4 -5 -4h-68q-2 0 0 4l74 114q2 3 5 3h84q3 0 1 -3z" />
<glyph horiz-adv-x="472" d="M194 -5q-18 0 -31 0.5t-30.5 3t-29.5 6.5t-27 11t-23 17.5t-18 25.5t-12 34.5t-4.5 45t4.5 56.5l23 157q7 53 25 90.5t38.5 57.5t50.5 31.5t54 14t58 2.5q17 0 30 -0.5t30.5 -2.5t29.5 -6.5t27.5 -11t23.5 -17t18.5 -25t12.5 -33.5t5 -44t-4 -56l-22 -157 q-8 -55 -26.5 -94.5t-39 -59.5t-52.5 -31t-54.5 -13t-56.5 -2zM207 87q50 0 77 21.5t37 94.5l19 140q10 71 -11 92t-70 21t-75.5 -21t-36.5 -92l-19 -140q-10 -74 10 -95t69 -21zM231 600h-68q-1 0 -1 1t1 2t41.5 52.5t46.5 61.5l6 3h78q5 0 7 -3l56 -114q2 -3 -2 -3h-68 q-2 0 -4 3l-34 59h-3q-47 -57 -49 -59q-3 -3 -7 -3z" />
<glyph horiz-adv-x="472" d="M207 87q50 0 77 21.5t37 94.5l19 140q10 71 -11 92t-70 21t-75.5 -21t-36.5 -92l-19 -140q-10 -74 10 -95t69 -21zM194 -5q-18 0 -31 0.5t-30.5 3t-29.5 6.5t-27 11t-23 17.5t-18 25.5t-12 34.5t-4.5 45t4.5 56.5l23 157q7 53 25 90.5t38.5 57.5t50.5 31.5t54 14t58 2.5 q17 0 30 -0.5t30.5 -2.5t29.5 -6.5t27.5 -11t23.5 -17t18.5 -25t12.5 -33.5t5 -44t-4 -56l-22 -157q-8 -55 -26.5 -94.5t-39 -59.5t-52.5 -31t-54.5 -13t-56.5 -2zM174 618q-3 0 -2 4l6 49q2 7 7 13q28 28 63 28q22 0 50.5 -15t45.5 -15q18 0 38 14t22 14t2 -4l-7 -49 q-2 -10 -6 -14q-29 -29 -64 -29q-22 0 -50 16t-44 16q-19 0 -40 -14z" />
<glyph horiz-adv-x="472" d="M194 -5q-18 0 -31 0.5t-30.5 3t-29.5 6.5t-27 11t-23 17.5t-18 25.5t-12 34.5t-4.5 45t4.5 56.5l23 157q7 53 25 90.5t38.5 57.5t50.5 31.5t54 14t58 2.5q17 0 30 -0.5t30.5 -2.5t29.5 -6.5t27.5 -11t23.5 -17t18.5 -25t12.5 -33.5t5 -44t-4 -56l-22 -157 q-8 -55 -26.5 -94.5t-39 -59.5t-52.5 -31t-54.5 -13t-56.5 -2zM207 87q50 0 77 21.5t37 94.5l19 140q10 71 -11 92t-70 21t-75.5 -21t-36.5 -92l-19 -140q-10 -74 10 -95t69 -21zM169 618q-3 0 -3 3l12 80q0 3 3 3h73q3 0 3 -3l-12 -80q0 -3 -3 -3h-73zM324 618q-4 0 -4 3 l12 80q0 3 4 3h71q3 0 3 -3l-12 -80q0 -3 -3 -3h-71z" />
<glyph horiz-adv-x="488" d="M187 -4q-102 0 -133.5 49.5t-15.5 164.5l47 331q0 3 2 3h96q1 0 2 -1t0 -2l-45 -323q-13 -64 -1 -97t62 -33h34q49 0 66.5 28t28.5 102l45 323q0 3 4 3h95q3 0 3 -3l-47 -331q-8 -56 -19.5 -92t-34.5 -65.5t-61 -43t-94 -13.5h-34zM289 604l-58 114q-1 3 2 3h84q1 0 3 -3 l42 -114q1 -4 -1 -4h-68q-2 0 -4 4z" />
<glyph horiz-adv-x="488" d="M187 -4q-102 0 -133.5 49.5t-15.5 164.5l47 331q0 3 2 3h96q1 0 2 -1t0 -2l-45 -323q-13 -64 -1 -97t62 -33h34q49 0 66.5 28t28.5 102l45 323q0 3 4 3h95q3 0 3 -3l-47 -331q-8 -56 -19.5 -92t-34.5 -65.5t-61 -43t-94 -13.5h-34zM287 604q-2 -4 -4 -4h-68q-4 0 0 4 l73 114q3 3 6 3h84q2 0 0 -3z" />
<glyph horiz-adv-x="488" d="M187 -4q-102 0 -133.5 49.5t-15.5 164.5l47 331q0 3 2 3h96q1 0 2 -1t0 -2l-45 -323q-13 -64 -1 -97t62 -33h34q49 0 66.5 28t28.5 102l45 323q0 3 4 3h95q3 0 3 -3l-47 -331q-8 -56 -19.5 -92t-34.5 -65.5t-61 -43t-94 -13.5h-34zM240 600h-68q-1 0 -1.5 1t0.5 2 t41.5 52.5t46.5 61.5q6 3 7 3h78q5 0 6 -3l56 -114q2 -3 -1 -3h-68q-3 0 -5 3l-34 59h-3q-47 -57 -49 -59q-3 -3 -6 -3z" />
<glyph horiz-adv-x="488" d="M187 -4q-102 0 -133.5 49.5t-15.5 164.5l47 331q0 3 2 3h96q1 0 2 -1t0 -2l-45 -323q-13 -64 -1 -97t62 -33h34q49 0 66.5 28t28.5 102l45 323q0 3 4 3h95q3 0 3 -3l-47 -331q-8 -56 -19.5 -92t-34.5 -65.5t-61 -43t-94 -13.5h-34zM178 618q-3 0 -2 3l11 80q0 3 3 3h73 q3 0 3 -3l-11 -80q-1 -3 -4 -3h-73zM333 618q-4 0 -3 3l11 80q0 3 4 3h71q3 0 3 -3l-11 -80q-1 -3 -4 -3h-71z" />
<glyph horiz-adv-x="434" d="M130 0q-3 0 -3 3l29 209q-112 327 -113 329q-1 3 2 3h102q1 0 4 -3l70 -216h5q129 214 131 216l3 3h100q4 0 3 -3l-206 -329l-29 -209q-1 -3 -3 -3h-95zM259 604q-2 -4 -4 -4h-68q-3 0 -1 4l75 114q1 3 5 3h84q2 0 1 -3z" />
<glyph horiz-adv-x="434" d="M130 0q-3 0 -3 3l29 209q-112 327 -113 329q-1 3 2 3h102q1 0 4 -3l70 -216h5q129 214 131 216l3 3h100q4 0 3 -3l-206 -329l-29 -209q-1 -3 -3 -3h-95zM153 618q-3 0 -3 3l11 80q0 3 4 3h73q2 0 2 -3l-11 -80q-1 -3 -3 -3h-73zM308 618q-4 0 -4 3l11 80q0 3 5 3h71 q2 0 2 -3l-11 -80q-1 -3 -3 -3h-71z" />
<glyph horiz-adv-x="472" d="M4 -32q-2 0 -1 3l45 69q-39 47 -24 155l22 157q7 53 25 90.5t38.5 57.5t50.5 31.5t54 14t58 2.5q56 0 88 -9q22 33 24 35q2 3 5 3h78q4 0 1 -3q-1 -1 -8.5 -12.5t-19 -30t-19.5 -30.5q38 -48 24 -149l-22 -157q-8 -55 -26.5 -94.5t-39 -59.5t-52 -31t-54 -13t-56.5 -2 q-56 0 -87 8l-21 -32q-1 -3 -5 -3h-78zM208 87q50 0 76.5 21.5t36.5 94.5l20 140q10 71 -11.5 92t-70.5 21q-48 0 -74.5 -21t-36.5 -92l-20 -140q-10 -74 10.5 -95t69.5 -21z" />
<glyph horiz-adv-x="457" d="M187 -4q-117 0 -179 31q-2 1 0 5l4 8q4 9 9.5 20t10.5 22t9 19t5 8q1 2 5 2l7 -3l22 -5.5t31 -7t41 -6t48 -2.5q45 0 71 10t31 42l5 35q4 26 -19.5 39t-74.5 18q-97 10 -130.5 39t-23.5 97l8 59q17 123 198 123q106 0 160 -27q2 -2 2 -4l-37 -75q-1 -2 -4 -2q-3 1 -19 5 t-48.5 8.5t-63.5 4.5q-79 0 -86 -47l-5 -33q-4 -26 14.5 -38.5t74.5 -18.5q96 -11 132.5 -40.5t26.5 -97.5l-8 -59q-6 -42 -27.5 -69.5t-55.5 -39.5t-64 -16t-70 -4zM337 715h71q3 0 0 -3l-99 -114q-3 -3 -5 -3h-64q-4 0 -6 3q-4 8 -34 57.5t-33 56.5q-1 3 2 3h71q1 0 4 -3 l34 -58h4q47 56 49 58q3 3 6 3z" />
<glyph horiz-adv-x="422" d="M-6 0q-2 0 -2 2l12 85q0 4 3 7l285 352l1 7h-225q-3 0 -3 4l12 83q0 4 3 4h341q3 0 3 -4l-12 -83q0 -6 -3 -9l-284 -350l-1 -8h234q2 0 2 -3l-12 -84q0 -3 -3 -3h-351zM318 715h71q3 0 1 -3l-99 -114q-3 -3 -6 -3h-64q-3 0 -5 3q-4 8 -34 57.5t-33 56.5q-1 3 1 3h71 q2 0 5 -3l34 -58h4q47 56 49 58q3 3 5 3z" />
<glyph horiz-adv-x="706" d="M190 183h136l33 240h-16zM72 0h-101q-3 0 -1 3q1 3 178.5 269t180.5 268q1 4 5 4h367q4 0 4 -3l-12 -83q0 -3 -4 -3h-224l-19 -135h188q2 0 2 -3l-12 -83q0 -3 -3 -3h-188l-19 -142h224q3 0 3 -4l-12 -82q0 -3 -4 -3h-325l14 102h-175q-61 -97 -63 -99q-3 -3 -4 -3z" />
<glyph horiz-adv-x="703" d="M208 87q22 0 37 3.5t32 15t28 38t17 67.5l18 124q2 29 3 49t-6.5 33.5t-13.5 21t-18.5 11.5t-21.5 5t-23 1q-21 0 -35.5 -3t-31.5 -13.5t-28.5 -36t-17.5 -65.5l-18 -130q-2 -29 -3 -49t6 -33.5t13 -21t18.5 -11.5t21.5 -5t23 -1zM195 -2q-17 0 -30 0.5t-30 3t-29 6.5 t-27 11.5t-23 18t-18.5 25.5t-12.5 35t-4.5 45.5t4.5 57.5l21 146q9 66 32 108.5t57.5 61t64.5 24t72 5.5q60 0 93 -29l4 27h335q3 0 3 -3l-12 -83q0 -3 -3 -3h-233l-19 -135h197q2 0 2 -3l-11 -83q-2 -3 -4 -3h-197l-20 -142h233q3 0 3 -4l-12 -82q0 -3 -3 -3h-335l3 26 q-45 -28 -101 -28z" />
<glyph horiz-adv-x="477" d="M127 92h84q24 0 38 2.5t31.5 13t28 35.5t16.5 65l18 130q2 18 2.5 33t-1 26t-5.5 19.5t-8 14t-11.5 9.5t-13 6t-14.5 3.5t-15 1.5h-16h-84l-19 -137h78q2 0 2 -3l-10 -73q0 -3 -3 -3h-78zM195 0h-183l33 235h-32q-3 0 -3 3l11 73q0 3 3 3h32l32 230h183q17 0 30 -0.5 t30.5 -2.5t30 -6.5t28 -11t24 -17t19 -25t13 -33.5t5.5 -44t-4 -56l-21 -148q-8 -56 -27.5 -95.5t-40.5 -59.5t-54 -30.5t-54 -12.5t-55 -2z" />
<glyph horiz-adv-x="458" d="M142 199h94q83 0 92 66l4 31q5 40 -15.5 53t-57.5 13h-94zM110 0h-95q-3 0 -3 3l76 538q0 3 3 3h95q3 0 3 -3l-13 -90h99q26 0 45 -2t45 -10t41.5 -23t24 -44t3.5 -69l-6 -46q-19 -146 -201 -146h-99l-15 -108q0 -3 -3 -3z" />
<glyph horiz-adv-x="410" d="M12 0l29 204q-41 -24 -43 -25t-2 1l1 2l11 81q0 5 3 6l42 23l35 249q0 3 4 3h95q3 0 3 -3l-27 -189q116 65 117 66q3 2 3 -2l-12 -82q0 -3 -4 -5l-116 -66l-25 -174h234q2 0 2 -4l-12 -82q0 -3 -2 -3h-336z" />
<glyph horiz-adv-x="477" d="M66 0h-99q-3 0 -2 3q1 1 125.5 269t125.5 269q2 3 4 3h111q3 0 4 -3l97 -538q2 -3 -3 -3h-99q-2 0 -4 3l-15 99h-198q-42 -97 -43 -99q-2 -3 -4 -3zM149 183h151l-35 230h-16zM397 626h-222q-3 0 -3 3l9 66q3 3 4 3h222q1 0 1.5 -1t-0.5 -2l-9 -66q0 -3 -2 -3z" />
<glyph horiz-adv-x="477" d="M66 0h-99q-3 0 -2 3q1 1 125.5 269t125.5 269q2 3 4 3h111q3 0 4 -3l97 -538q2 -3 -3 -3h-99q-2 0 -4 3l-15 99h-198q-42 -97 -43 -99q-2 -3 -4 -3zM149 183h151l-35 230h-16zM283 599q-100 0 -100 86q0 22 7 22h42q6 0 7 -5q5 -25 15.5 -32.5t37.5 -7.5q25 0 38 8.5 t24 31.5q2 5 8 5h42q5 0 4 -5q-20 -103 -125 -103z" />
<glyph horiz-adv-x="477" d="M342 -149q-65 0 -65 54q0 53 61 95h-8q-2 0 -4 3l-15 99h-198q-42 -97 -43 -99q-2 -3 -4 -3h-99q-3 0 -2 3q1 1 125.5 269t125.5 269q2 3 4 3h111q3 0 4 -3l97 -538q2 -3 -3 -3q-1 0 -1 -1q-76 -42 -76 -69q0 -12 15 -12q6 0 22 8q6 2 7 -1q10 -30 17 -44q2 -4 -2 -7 q-31 -23 -69 -23zM149 183h151l-35 230h-16z" />
<glyph horiz-adv-x="430" d="M200 -4q-21 0 -37 1t-35.5 4.5t-33 10t-29 16.5t-23 25t-15 35t-6.5 47t4 61l22 157q9 63 31.5 104.5t57.5 60.5t67 25t76 6q90 0 140 -25q2 -1 0 -4q-1 -1 -20 -38t-19 -38q-1 -2 -5 -2q-2 1 -16 4.5t-41 7t-52 3.5q-22 0 -37 -3t-33.5 -13t-31 -35t-17.5 -63l-19 -138 q-10 -70 12.5 -92t73.5 -22q18 0 36.5 2t33 4.5t26.5 5t19 4.5t8 2q1 1 3 -2q0 -1 8.5 -37.5t9.5 -37.5q2 -3 -2 -5q-62 -31 -156 -31zM283 601q-4 -4 -5 -4h-68q-3 0 -1 4l75 114q2 3 5 3h84q3 0 0 -3z" />
<glyph horiz-adv-x="430" d="M200 -4q-21 0 -37 1t-35.5 4.5t-33 10t-29 16.5t-23 25t-15 35t-6.5 47t4 61l22 157q9 63 31.5 104.5t57.5 60.5t67 25t76 6q90 0 140 -25q2 -1 0 -4q-1 -1 -20 -38t-19 -38q-1 -2 -5 -2q-2 1 -16 4.5t-41 7t-52 3.5q-22 0 -37 -3t-33.5 -13t-31 -35t-17.5 -63l-19 -138 q-10 -70 12.5 -92t73.5 -22q18 0 36.5 2t33 4.5t26.5 5t19 4.5t8 2q1 1 3 -2q0 -1 8.5 -37.5t9.5 -37.5q2 -3 -2 -5q-62 -31 -156 -31zM235 598h-68q-1 0 -1.5 1t0.5 2q4 5 43.5 55t45.5 59l6 3h78q5 0 6 -3l56 -114q1 -3 -1 -3h-68q-4 0 -5 3l-33 59h-3q-48 -57 -50 -59 q-3 -3 -6 -3z" />
<glyph horiz-adv-x="430" d="M200 -4q-21 0 -37 1t-35.5 4.5t-33 10t-29 16.5t-23 25t-15 35t-6.5 47t4 61l22 157q9 63 31.5 104.5t57.5 60.5t67 25t76 6q90 0 140 -25q2 -1 0 -4q-1 -1 -20 -38t-19 -38q-1 -2 -5 -2q-2 1 -16 4.5t-41 7t-52 3.5q-22 0 -37 -3t-33.5 -13t-31 -35t-17.5 -63l-19 -138 q-10 -70 12.5 -92t73.5 -22q18 0 36.5 2t33 4.5t26.5 5t19 4.5t8 2q1 1 3 -2q0 -1 8.5 -37.5t9.5 -37.5q2 -3 -2 -5q-62 -31 -156 -31zM241 610q-3 0 -3 3l12 85q0 3 4 3h89q2 0 2 -3l-12 -85q0 -3 -4 -3h-88z" />
<glyph horiz-adv-x="430" d="M200 -4q-21 0 -37 1t-35.5 4.5t-33 10t-29 16.5t-23 25t-15 35t-6.5 47t4 61l22 157q9 63 31.5 104.5t57.5 60.5t67 25t76 6q90 0 140 -25q2 -1 0 -4q-1 -1 -20 -38t-19 -38q-1 -2 -5 -2q-2 1 -16 4.5t-41 7t-52 3.5q-22 0 -37 -3t-33.5 -13t-31 -35t-17.5 -63l-19 -138 q-10 -70 12.5 -92t73.5 -22q18 0 36.5 2t33 4.5t26.5 5t19 4.5t8 2q1 1 3 -2q0 -1 8.5 -37.5t9.5 -37.5q2 -3 -2 -5q-62 -31 -156 -31zM349 715h71q3 0 0 -3l-99 -114q-3 -3 -5 -3h-64q-4 0 -6 3q-4 8 -34 57.5t-33 56.5q-1 3 2 3h71q1 0 4 -3l34 -58h4q47 56 49 58q3 3 6 3 z" />
<glyph horiz-adv-x="477" d="M127 92h84q50 0 76.5 21.5t36.5 94.5l19 130q1 27 2.5 45.5t-5.5 31t-13 20t-18.5 11t-22.5 4.5t-25 1h-84zM198 0h-186l76 544h186q41 0 66.5 -4.5t58.5 -21t45.5 -59.5t2.5 -111l-21 -148q-8 -56 -26.5 -95t-39 -59t-52.5 -31t-54 -13t-56 -2zM341 715h71q4 0 1 -3 l-99 -114q-3 -3 -5 -3h-64q-5 0 -6 3q-4 8 -34 57.5t-33 56.5q-2 3 1 3h71q2 0 5 -3l34 -58h4q47 56 49 58q3 3 5 3z" />
<glyph horiz-adv-x="477" d="M127 92h84q24 0 38 2.5t31.5 13t28 35.5t16.5 65l18 130q2 18 2.5 33t-1 26t-5.5 19.5t-8 14t-11.5 9.5t-13 6t-14.5 3.5t-15 1.5h-16h-84l-19 -137h78q2 0 2 -3l-10 -73q0 -3 -3 -3h-78zM195 0h-183l33 235h-32q-3 0 -3 3l11 73q0 3 3 3h32l32 230h183q17 0 30 -0.5 t30.5 -2.5t30 -6.5t28 -11t24 -17t19 -25t13 -33.5t5.5 -44t-4 -56l-21 -148q-8 -56 -27.5 -95.5t-40.5 -59.5t-54 -30.5t-54 -12.5t-55 -2z" />
<glyph horiz-adv-x="423" d="M12 0l76 544h335q4 0 4 -3l-12 -83q0 -3 -4 -3h-233l-19 -136h197q3 0 2 -3l-11 -82q0 -3 -4 -3h-197l-19 -142h233q3 0 3 -4l-12 -82q0 -3 -4 -3h-335zM381 626h-222q-3 0 -3 3l10 66q0 3 3 3h222q2 0 2 -3l-10 -66q0 -3 -2 -3z" />
<glyph horiz-adv-x="423" d="M12 0l76 544h335q4 0 4 -3l-12 -83q0 -3 -4 -3h-233l-19 -136h197q3 0 2 -3l-11 -82q0 -3 -4 -3h-197l-19 -142h233q3 0 3 -4l-12 -82q0 -3 -4 -3h-335zM272 599q-100 0 -100 86q0 22 7 22h42q6 0 7 -5q5 -25 15.5 -32.5t37.5 -7.5q25 0 38 8.5t24 31.5q2 5 8 5h42 q6 0 5 -5q-20 -103 -126 -103z" />
<glyph horiz-adv-x="423" d="M12 0l76 544h335q4 0 4 -3l-12 -83q0 -3 -4 -3h-233l-19 -136h197q3 0 2 -3l-11 -82q0 -3 -4 -3h-197l-19 -142h233q3 0 3 -4l-12 -82q0 -3 -4 -3h-335zM236 610q-3 0 -3 3l12 85q0 3 4 3h89q2 0 2 -3l-12 -85q0 -3 -4 -3h-88z" />
<glyph horiz-adv-x="423" d="M12 0l76 544h335q4 0 4 -3l-12 -83q0 -3 -4 -3h-233l-19 -136h197q3 0 2 -3l-11 -82q0 -3 -4 -3h-197l-19 -142h233q3 0 3 -4l-12 -82q0 -3 -4 -3h-1q-73 -40 -73 -68q0 -12 15 -12q6 0 22 8q4 2 7 -1q0 -10 17 -44q2 -4 -2 -7q-31 -23 -70 -23q-64 0 -64 54q0 52 58 93 h-244z" />
<glyph horiz-adv-x="423" d="M12 0l76 544h335q4 0 4 -3l-12 -83q0 -3 -4 -3h-233l-19 -136h197q3 0 2 -3l-11 -82q0 -3 -4 -3h-197l-19 -142h233q3 0 3 -4l-12 -82q0 -3 -4 -3h-335zM339 715h71q4 0 1 -3l-99 -114q-3 -3 -5 -3h-64q-5 0 -6 3q-4 8 -34 57.5t-33 56.5q-2 3 1 3h71q2 0 5 -3l34 -58h4 q47 56 49 58q3 3 5 3z" />
<glyph horiz-adv-x="472" d="M198 -4q-20 0 -35 1t-34.5 4t-32.5 9.5t-28.5 16.5t-23.5 24.5t-16 35t-6.5 47.5t3.5 62l22 157q7 53 26.5 91.5t41 58t54 30.5t55 13t54.5 2q44 0 85 -6.5t58 -11.5t21 -7t2 -5l-38 -73q-1 -2 -4 -2l-4 1q-5 1 -12.5 2t-17.5 2.5t-22.5 3t-25 2.5t-27 2t-27.5 1 q-22 0 -36.5 -2.5t-33 -12.5t-30.5 -35t-18 -64l-20 -140q-10 -71 12.5 -93t71.5 -22q13 0 39 3t45 6l20 3l16 114h-75q-3 0 -3 4l11 78q0 3 3 3h162l-38 -273q-136 -30 -194 -30zM242 598h-68q-1 0 -1 1t1 2t41.5 52.5t46.5 61.5l6 3h78q5 0 7 -3l56 -114q1 -3 -2 -3h-68 q-3 0 -4 3l-34 59h-3q-47 -57 -49 -59q-3 -3 -7 -3z" />
<glyph horiz-adv-x="472" d="M198 -4q-20 0 -35 1t-34.5 4t-32.5 9.5t-28.5 16.5t-23.5 24.5t-16 35t-6.5 47.5t3.5 62l22 157q7 53 26.5 91.5t41 58t54 30.5t55 13t54.5 2q44 0 85 -6.5t58 -11.5t21 -7t2 -5l-38 -73q-1 -2 -4 -2l-4 1q-5 1 -12.5 2t-17.5 2.5t-22.5 3t-25 2.5t-27 2t-27.5 1 q-22 0 -36.5 -2.5t-33 -12.5t-30.5 -35t-18 -64l-20 -140q-10 -71 12.5 -93t71.5 -22q13 0 39 3t45 6l20 3l16 114h-75q-3 0 -3 4l11 78q0 3 3 3h162l-38 -273q-136 -30 -194 -30zM288 599q-100 0 -100 86q0 22 7 22h42q6 0 6 -5q5 -25 15.5 -32.5t37.5 -7.5q25 0 38 8.5 t24 31.5q2 5 9 5h42q5 0 4 -5q-20 -103 -125 -103z" />
<glyph horiz-adv-x="472" d="M198 -4q-20 0 -35 1t-34.5 4t-32.5 9.5t-28.5 16.5t-23.5 24.5t-16 35t-6.5 47.5t3.5 62l22 157q7 53 26.5 91.5t41 58t54 30.5t55 13t54.5 2q44 0 85 -6.5t58 -11.5t21 -7t2 -5l-38 -73q-1 -2 -4 -2l-4 1q-5 1 -12.5 2t-17.5 2.5t-22.5 3t-25 2.5t-27 2t-27.5 1 q-22 0 -36.5 -2.5t-33 -12.5t-30.5 -35t-18 -64l-20 -140q-10 -71 12.5 -93t71.5 -22q13 0 39 3t45 6l20 3l16 114h-75q-3 0 -3 4l11 78q0 3 3 3h162l-38 -273q-136 -30 -194 -30zM238 610q-2 0 -2 3l12 85q0 3 3 3h89q3 0 3 -3l-12 -85q0 -3 -5 -3h-88z" />
<glyph horiz-adv-x="498" d="M15 0q-3 0 -3 3l76 538q0 3 3 3h96q3 0 3 -3l-31 -224h190l31 224q0 3 4 3h95q3 0 3 -3l-76 -538q0 -3 -3 -3h-95q-4 0 -4 3l32 227h-190l-32 -227q0 -3 -3 -3h-96zM244 598h-68q-1 0 -1.5 1t0.5 2t41.5 52.5t46.5 61.5q6 3 7 3h78q5 0 6 -3l56 -114q2 -3 -1 -3h-68 q-3 0 -5 3l-33 59h-3q-48 -57 -50 -59q-3 -3 -6 -3z" />
<glyph horiz-adv-x="206" d="M15 0q-3 0 -3 3l76 538q0 3 3 3h96q3 0 3 -3l-76 -538q0 -3 -3 -3h-96zM40 615q-2 0 -2 4l7 49q1 7 7 13q28 28 63 28q22 0 50 -15t45 -15q18 0 38 14t22 14q3 0 3 -4l-7 -49q-2 -9 -7 -14q-29 -29 -63 -29q-22 0 -50.5 16t-44.5 16q-19 0 -40 -14z" />
<glyph horiz-adv-x="206" d="M15 0q-3 0 -3 3l76 538q0 3 3 3h96q3 0 3 -3l-76 -538q0 -3 -3 -3h-96zM263 626h-222q-3 0 -3 3l9 66q3 3 4 3h222q1 0 1.5 -1t-0.5 -2l-9 -66q0 -3 -2 -3z" />
<glyph horiz-adv-x="206" d="M15 0q-2 0 -2 3l76 538q0 3 3 3h96q3 0 3 -3l-76 -538q0 -3 -4 -3h-2q-73 -41 -73 -68q0 -12 15 -12q6 0 22 8q5 2 7 -1q10 -30 17 -44q2 -4 -2 -7q-31 -23 -69 -23q-65 0 -65 54q0 52 58 93h-4z" />
<glyph horiz-adv-x="206" d="M15 0q-3 0 -3 3l76 538q0 3 3 3h96q3 0 3 -3l-76 -538q0 -3 -3 -3h-96zM104 610q-2 0 -2 3l12 85q0 3 3 3h89q3 0 3 -3l-12 -85q0 -3 -5 -3h-88z" />
<glyph horiz-adv-x="383" d="M115 -6q-33 0 -65 5t-45 9t-17 6q-2 1 -1 4l35 77q0 1 4 1l6 -1q6 -1 16 -2t21.5 -2.5t26.5 -2.5t28 -1q37 0 60.5 13t29.5 54l54 387q0 3 3 3h95q3 0 3 -3l-55 -394q-6 -42 -21.5 -71.5t-33.5 -45t-45.5 -24t-48 -10.5t-50.5 -2zM277 598h-68q-1 0 -1.5 1t0.5 2 t41.5 52.5t46.5 61.5q1 0 3 1.5t4 1.5h78q5 0 6 -3l56 -114q1 -3 -1 -3h-68q-4 0 -5 3l-33 59h-3q-48 -57 -50 -59q-3 -3 -6 -3z" />
<glyph horiz-adv-x="407" d="M12 0l76 541q0 3 3 3h96q3 0 3 -3l-64 -452h234q3 0 3 -4l-12 -82q0 -3 -4 -3h-335zM247 601q-4 -4 -5 -4h-68q-4 0 0 4l73 114q3 3 6 3h84q3 0 0 -3z" />
<glyph horiz-adv-x="508" d="M13 0q-3 0 -3 3l76 538q0 3 4 3h109q3 0 5 -3l134 -362h9l51 362q0 3 3 3h94q2 0 2 -3l-76 -538q0 -3 -3 -3h-111q-3 0 -5 3l-133 363h-9l-51 -363q0 -3 -3 -3h-93zM297 601q-2 -4 -4 -4h-68q-4 0 0 4l73 114q3 3 6 3h84q2 0 0 -3z" />
<glyph horiz-adv-x="508" d="M13 0q-3 0 -3 3l76 538q0 3 4 3h109q3 0 5 -3l134 -362h9l51 362q0 3 3 3h94q2 0 2 -3l-76 -538q0 -3 -3 -3h-111q-3 0 -5 3l-133 363h-9l-51 -363q0 -3 -3 -3h-93zM363 715h71q3 0 1 -3l-99 -114q-3 -3 -6 -3h-64q-4 0 -5 3q-4 8 -34 57.5t-33 56.5q-2 3 1 3h71 q2 0 5 -3l34 -58h4q47 56 49 58q3 3 5 3z" />
<glyph horiz-adv-x="472" d="M207 87q50 0 77 21.5t37 94.5l19 140q10 71 -11 92t-70 21t-75.5 -21t-36.5 -92l-19 -140q-10 -74 10 -95t69 -21zM194 -5q-18 0 -31 0.5t-30.5 3t-29.5 6.5t-27 11t-23 17.5t-18 25.5t-12 34.5t-4.5 45t4.5 56.5l23 157q7 53 25 90.5t38.5 57.5t50.5 31.5t54 14t58 2.5 q17 0 30 -0.5t30.5 -2.5t29.5 -6.5t27.5 -11t23.5 -17t18.5 -25t12.5 -33.5t5 -44t-4 -56l-22 -157q-8 -55 -26.5 -94.5t-39 -59.5t-52.5 -31t-54.5 -13t-56.5 -2zM395 626h-222q-2 0 -2 3l9 66q0 3 3 3h222q2 0 2 -3l-9 -66q0 -3 -3 -3z" />
<glyph horiz-adv-x="472" d="M207 87q50 0 77 21.5t37 94.5l19 140q10 71 -11 92t-70 21t-75.5 -21t-36.5 -92l-19 -140q-10 -74 10 -95t69 -21zM194 -5q-18 0 -31 0.5t-30.5 3t-29.5 6.5t-27 11t-23 17.5t-18 25.5t-12 34.5t-4.5 45t4.5 56.5l23 157q7 53 25 90.5t38.5 57.5t50.5 31.5t54 14t58 2.5 q17 0 30 -0.5t30.5 -2.5t29.5 -6.5t27.5 -11t23.5 -17t18.5 -25t12.5 -33.5t5 -44t-4 -56l-22 -157q-8 -55 -26.5 -94.5t-39 -59.5t-52.5 -31t-54.5 -13t-56.5 -2zM281 599q-100 0 -100 86q0 22 8 22h42q5 0 6 -5q5 -25 15.5 -32.5t37.5 -7.5q25 0 38 8.5t24 31.5q2 5 9 5 h42q5 0 4 -5q-20 -103 -126 -103z" />
<glyph horiz-adv-x="472" d="M194 -5q-18 0 -31 0.5t-30.5 3t-29.5 6.5t-27 11t-23 17.5t-18 25.5t-12 34.5t-4.5 45t4.5 56.5l23 157q7 53 25 90.5t38.5 57.5t50.5 31.5t54 14t58 2.5q17 0 30 -0.5t30.5 -2.5t29.5 -6.5t27.5 -11t23.5 -17t18.5 -25t12.5 -33.5t5 -44t-4 -56l-22 -157 q-8 -55 -26.5 -94.5t-39 -59.5t-52.5 -31t-54.5 -13t-56.5 -2zM207 87q50 0 77 21.5t37 94.5l19 140q10 71 -11 92t-70 21t-75.5 -21t-36.5 -92l-19 -140q-10 -74 10 -95t69 -21zM236 601q-2 -3 -6 -3h-68q-2 0 0 3l74 114q0 3 4 3h85q3 0 1 -3q-1 -1 -45 -57t-45 -57z M359 601q-1 -3 -5 -3h-68q-2 0 -1 3l75 114q2 3 5 3h83q5 0 2 -3q-1 -1 -45 -56.5t-46 -57.5z" />
<glyph horiz-adv-x="474" d="M110 0h-95q-3 0 -3 3l76 541h200q25 0 45 -2t45.5 -11t41 -24.5t24.5 -45.5t3 -71l-6 -42q-15 -103 -99 -134l65 -211q1 -3 -2 -3h-106q-3 0 -4 3l-54 192h-101l-27 -192q0 -3 -3 -3zM153 284h95q82 0 92 68l5 35q4 29 -8 45t-27.5 19.5t-37.5 3.5h-95zM279 601 q-2 -4 -4 -4h-68q-4 0 0 4l73 114q3 3 6 3h84q2 0 0 -3z" />
<glyph horiz-adv-x="474" d="M153 284h95q82 0 92 68l5 35q4 29 -8 45t-27.5 19.5t-37.5 3.5h-95zM110 0h-95q-3 0 -3 3l76 541h200q25 0 45 -2t45.5 -11t41 -24.5t24.5 -45.5t3 -71l-6 -42q-15 -103 -99 -134l65 -211q1 -3 -2 -3h-106q-3 0 -4 3l-54 192h-101l-27 -192q0 -3 -3 -3zM330 715h71 q3 0 1 -3l-99 -114q-3 -3 -6 -3h-64q-3 0 -5 3q-4 8 -34 57.5t-33 56.5q-1 3 1 3h71q2 0 5 -3l34 -58h4q47 56 49 58q3 3 5 3z" />
<glyph horiz-adv-x="457" d="M187 -4q-117 0 -179 31q-2 1 0 5l4 8q4 9 9.5 20t10.5 22t9 19t5 8q1 2 5 2l7 -3l22 -5.5t31 -7t41 -6t48 -2.5q45 0 71 10t31 42l5 35q4 26 -19.5 39t-74.5 18q-97 10 -130.5 39t-23.5 97l8 59q17 123 198 123q106 0 160 -27q2 -2 2 -4l-37 -75q-1 -2 -4 -2q-3 1 -19 5 t-48.5 8.5t-63.5 4.5q-79 0 -86 -47l-5 -33q-4 -26 14.5 -38.5t74.5 -18.5q96 -11 132.5 -40.5t26.5 -97.5l-8 -59q-6 -42 -27.5 -69.5t-55.5 -39.5t-64 -16t-70 -4zM285 601q-4 -4 -5 -4h-68q-3 0 -1 4l75 114q2 3 5 3h84q3 0 0 -3z" />
<glyph horiz-adv-x="457" d="M187 -4q-117 0 -179 31q-2 1 0 5l4 8q4 9 9.5 20t10.5 22t9 19t5 8q1 2 5 2l7 -3l22 -5.5t31 -7t41 -6t48 -2.5q45 0 71 10t31 42l5 35q4 26 -19.5 39t-74.5 18q-97 10 -130.5 39t-23.5 97l8 59q17 123 198 123q106 0 160 -27q2 -2 2 -4l-37 -75q-1 -2 -4 -2q-3 1 -19 5 t-48.5 8.5t-63.5 4.5q-79 0 -86 -47l-5 -33q-4 -26 14.5 -38.5t74.5 -18.5q96 -11 132.5 -40.5t26.5 -97.5l-8 -59q-6 -42 -27.5 -69.5t-55.5 -39.5t-64 -16t-70 -4zM224 598h-68q-1 0 -1.5 1t0.5 2q4 5 43.5 55t45.5 59l6 3h78q5 0 6 -3l56 -114q2 -3 -1 -3h-68q-3 0 -5 3 l-33 59h-3q-48 -57 -50 -59q-3 -3 -6 -3z" />
<glyph horiz-adv-x="419" d="M122 0q-2 0 -2 3l63 450h-144q-3 0 -3 3l12 85q0 3 4 3h389q2 0 2 -3l-12 -85q0 -3 -3 -3h-144l-63 -450q0 -3 -4 -3h-95zM319 715h71q3 0 0 -3l-99 -114q-3 -3 -5 -3h-64q-4 0 -6 3q-4 8 -34 57.5t-33 56.5q-1 3 2 3h71q1 0 4 -3l34 -58h4q47 56 49 58q3 3 6 3z" />
<glyph horiz-adv-x="488" d="M187 -4q-102 0 -133.5 49.5t-15.5 164.5l47 331q0 3 2 3h96q1 0 2 -1t0 -2l-45 -323q-13 -64 -1 -97t62 -33h34q49 0 66.5 28t28.5 102l45 323q0 3 4 3h95q3 0 3 -3l-47 -331q-8 -56 -19.5 -92t-34.5 -65.5t-61 -43t-94 -13.5h-34zM182 615q-3 0 -3 4l7 49q2 7 7 13 q28 28 63 28q22 0 50.5 -15t45.5 -15q18 0 38 14t22 14t2 -4l-7 -49q-2 -9 -7 -14q-29 -29 -63 -29q-22 0 -50 16t-44 16q-19 0 -40 -14z" />
<glyph horiz-adv-x="488" d="M187 -4q-102 0 -133.5 49.5t-15.5 164.5l47 331q0 3 2 3h96q1 0 2 -1t0 -2l-45 -323q-13 -64 -1 -97t62 -33h34q49 0 66.5 28t28.5 102l45 323q0 3 4 3h95q3 0 3 -3l-47 -331q-8 -56 -19.5 -92t-34.5 -65.5t-61 -43t-94 -13.5h-34zM403 626h-222q-2 0 -2 3l9 66q0 3 4 3 h222q1 0 1 -3l-9 -66q0 -3 -3 -3z" />
<glyph horiz-adv-x="488" d="M187 -4q-102 0 -133.5 49.5t-15.5 164.5l47 331q0 3 2 3h96q1 0 2 -1t0 -2l-45 -323q-13 -64 -1 -97t62 -33h34q49 0 66.5 28t28.5 102l45 323q0 3 4 3h95q3 0 3 -3l-47 -331q-8 -56 -19.5 -92t-34.5 -65.5t-61 -43t-94 -13.5h-34zM290 599q-100 0 -100 86q0 22 7 22h42 q6 0 6 -5q5 -25 15.5 -32.5t37.5 -7.5q25 0 38 8.5t24 31.5q2 5 9 5h42q5 0 4 -5q-20 -103 -125 -103z" />
<glyph horiz-adv-x="488" d="M187 -4q-102 0 -133.5 49.5t-15.5 164.5l47 331q0 3 2 3h96q1 0 2 -1t0 -2l-45 -323q-13 -64 -1 -97t62 -33h34q49 0 66.5 28t28.5 102l45 323q0 3 4 3h95q3 0 3 -3l-47 -331q-8 -56 -19.5 -92t-34.5 -65.5t-61 -43t-94 -13.5h-34zM286 582q-17 0 -29 2.5t-23.5 9 t-16.5 22t-1 38.5l3 18q7 42 31 56t61 14q16 0 27.5 -2t23.5 -8.5t16.5 -21.5t0.5 -38l-3 -18q-5 -31 -20.5 -48t-30.5 -20.5t-39 -3.5zM292 623q18 0 28.5 7t13.5 28l1 9q2 20 -5.5 27t-24.5 7q-40 0 -44 -34l-1 -9q-3 -21 5.5 -28t26.5 -7z" />
<glyph horiz-adv-x="488" d="M187 -4q-102 0 -133.5 49.5t-15.5 164.5l47 331q0 3 2 3h96q1 0 2 -1t0 -2l-45 -323q-13 -64 -1 -97t62 -33h34q49 0 66.5 28t28.5 102l45 323q0 3 4 3h95q3 0 3 -3l-47 -331q-8 -56 -19.5 -92t-34.5 -65.5t-61 -43t-94 -13.5h-34zM254 601q-2 -3 -6 -3h-68q-2 0 0 3 l74 114q0 3 4 3h85q3 0 1 -3q-1 -1 -45 -57t-45 -57zM377 601q-1 -3 -5 -3h-68q-2 0 0 3l74 114q2 3 5 3h83q5 0 2 -3q-1 -1 -45 -56.5t-46 -57.5z" />
<glyph horiz-adv-x="488" d="M168 -152q-65 0 -65 54q0 53 61 95q-87 4 -114.5 54t-11.5 159l46 331q0 3 3 3h96q2 0 2 -3l-45 -323q-13 -64 -1 -97t62 -33h34q49 0 66.5 28t28.5 102l45 323q0 3 4 3h95q2 0 2 -3l-46 -331q-15 -104 -51 -154t-123 -58l-2 -2q-13 -10 -35.5 -25t-31.5 -24.5t-9 -19.5 q0 -12 15 -12q7 0 23 8q5 2 6 -1q10 -30 17 -44q2 -4 -2 -7q-31 -23 -69 -23z" />
<glyph horiz-adv-x="670" d="M102 0q-4 0 -4 3l-49 538q-1 3 2 3h99q2 0 4 -3l29 -381h15q114 277 115 279q1 3 5 3h80q2 0 3 -3l36 -279h16q135 379 136 381q1 3 4 3h99q4 0 3 -3q-1 -1 -100.5 -268t-100.5 -270q-2 -3 -5 -3h-118q-3 0 -5 3l-28 271h-9q-102 -266 -104 -270q-1 -4 -5 -4h-118z M330 598h-68q-1 0 -1.5 1t0.5 2t41.5 52.5t46.5 61.5q6 3 7 3h78q5 0 6 -3l56 -114q2 -3 -1 -3h-68q-3 0 -5 3l-34 59h-3q-47 -57 -49 -59q-3 -3 -6 -3z" />
<glyph horiz-adv-x="434" d="M130 0q-3 0 -3 3l29 209q-112 327 -113 329q-1 3 2 3h102q1 0 4 -3l70 -216h5q129 214 131 216l3 3h100q4 0 3 -3l-206 -329l-29 -209q-1 -3 -3 -3h-95zM212 598h-68q-1 0 -1.5 1t0.5 2t41.5 52.5t46.5 61.5q6 3 7 3h78q5 0 6 -3l56 -114q2 -3 -1 -3h-68q-3 0 -5 3 l-34 59h-3q-47 -57 -49 -59q-3 -3 -6 -3z" />
<glyph horiz-adv-x="422" d="M-6 0q-2 0 -2 2l12 85q0 4 3 7l285 352l1 7h-225q-3 0 -3 4l12 83q0 4 3 4h341q3 0 3 -4l-12 -83q0 -6 -3 -9l-284 -350l-1 -8h234q2 0 2 -3l-12 -84q0 -3 -3 -3h-351zM273 601q-2 -4 -4 -4h-68q-4 0 0 4l73 114q3 3 6 3h84q2 0 0 -3z" />
<glyph horiz-adv-x="422" d="M-6 0q-2 0 -2 2l12 85q0 4 3 7l285 352l1 7h-225q-3 0 -3 4l12 83q0 4 3 4h341q3 0 3 -4l-12 -83q0 -6 -3 -9l-284 -350l-1 -8h234q2 0 2 -3l-12 -84q0 -3 -3 -3h-351zM219 610q-3 0 -3 3l12 85q0 3 3 3h89q3 0 3 -3l-12 -85q0 -3 -4 -3h-88z" />
<glyph horiz-adv-x="670" d="M102 0q-4 0 -4 3l-49 538q-1 3 2 3h99q2 0 4 -3l29 -381h15q114 277 115 279q1 3 5 3h80q2 0 3 -3l36 -279h16q135 379 136 381q1 3 4 3h99q4 0 3 -3q-1 -1 -100.5 -268t-100.5 -270q-2 -3 -5 -3h-118q-3 0 -5 3l-28 271h-9q-102 -266 -104 -270q-1 -4 -5 -4h-118z M371 601l-58 114q-1 3 2 3h84q1 0 3 -3l42 -114q1 -4 -1 -4h-68q-2 0 -4 4z" />
<glyph horiz-adv-x="670" d="M102 0q-4 0 -4 3l-49 538q-1 3 2 3h99q2 0 4 -3l29 -381h15q114 277 115 279q1 3 5 3h80q2 0 3 -3l36 -279h16q135 379 136 381q1 3 4 3h99q4 0 3 -3q-1 -1 -100.5 -268t-100.5 -270q-2 -3 -5 -3h-118q-3 0 -5 3l-28 271h-9q-102 -266 -104 -270q-1 -4 -5 -4h-118z M389 601q-2 -4 -4 -4h-68q-3 0 -1 4l74 114q2 3 6 3h84q2 0 0 -3z" />
<glyph horiz-adv-x="670" d="M102 0q-4 0 -4 3l-49 538q-1 3 2 3h99q2 0 4 -3l29 -381h15q114 277 115 279q1 3 5 3h80q2 0 3 -3l36 -279h16q135 379 136 381q1 3 4 3h99q4 0 3 -3q-1 -1 -100.5 -268t-100.5 -270q-2 -3 -5 -3h-118q-3 0 -5 3l-28 271h-9q-102 -266 -104 -270q-1 -4 -5 -4h-118z M267 615q-3 0 -2 3l11 80q0 3 3 3h73q3 0 3 -3l-11 -80q-1 -3 -4 -3h-73zM422 615q-4 0 -3 3l11 80q0 3 4 3h71q3 0 3 -3l-11 -80q-1 -3 -4 -3h-71z" />
<glyph horiz-adv-x="407" d="M12 0l76 541q0 3 3 3h96q3 0 3 -3l-64 -452h234q3 0 3 -4l-12 -82q0 -3 -4 -3h-335zM233 436q-2 -1 -4 0t-1 4l25 180q1 4 4 4h87q2 0 2 -4l-16 -116q0 -3 -4 -6z" />
<glyph horiz-adv-x="474" d="M15 0q-3 0 -3 3l76 538q0 3 3 3h96q3 0 3 -3l-31 -224h28q177 221 179 224t5 3h107q4 0 1 -3l-215 -265q149 -271 151 -273q3 -3 -1 -3h-108q-3 0 -5 3l-121 226h-34l-32 -226q0 -3 -3 -3h-96zM129 -217q-2 -1 -4 0t-1 4l25 180q1 4 4 4h87q3 0 2 -4l-16 -116q0 -3 -4 -6 z" />
<glyph horiz-adv-x="407" d="M12 0l76 541q0 3 3 3h96q3 0 3 -3l-64 -452h234q3 0 3 -4l-12 -82q0 -3 -4 -3h-335zM113 -217q-2 -1 -4 0t-1 4l25 180q1 4 4 4h87q3 0 2 -4l-16 -116q0 -3 -4 -6z" />
<glyph horiz-adv-x="508" d="M13 0q-3 0 -3 3l76 538q0 3 4 3h109q3 0 5 -3l134 -362h9l51 362q0 3 3 3h94q2 0 2 -3l-76 -538q0 -3 -3 -3h-111q-3 0 -5 3l-133 363h-9l-51 -363q0 -3 -3 -3h-93zM154 -217q-2 -1 -4 0t-1 4l25 180q1 4 4 4h87q3 0 2 -4l-16 -116q0 -3 -4 -6z" />
<glyph horiz-adv-x="474" d="M110 0h-95q-3 0 -3 3l76 541h200q25 0 45 -2t45.5 -11t41 -24.5t24.5 -45.5t3 -71l-6 -42q-15 -103 -99 -134l65 -211q1 -3 -2 -3h-106q-3 0 -4 3l-54 192h-101l-27 -192q0 -3 -3 -3zM153 284h95q82 0 92 68l5 35q4 29 -8 45t-27.5 19.5t-37.5 3.5h-95zM133 -217 q-2 -1 -4 0t-1 4l25 180q1 4 4 4h87q3 0 2 -4l-16 -116q0 -3 -4 -6z" />
<glyph horiz-adv-x="472" d="M198 -4q-20 0 -35 1t-34.5 4t-32.5 9.5t-28.5 16.5t-23.5 24.5t-16 35t-6.5 47.5t3.5 62l22 157q7 53 26.5 91.5t41 58t54 30.5t55 13t54.5 2q44 0 85 -6.5t58 -11.5t21 -7t2 -5l-38 -73q-1 -2 -4 -2l-4 1q-5 1 -12.5 2t-17.5 2.5t-22.5 3t-25 2.5t-27 2t-27.5 1 q-22 0 -36.5 -2.5t-33 -12.5t-30.5 -35t-18 -64l-20 -140q-10 -71 12.5 -93t71.5 -22q13 0 39 3t45 6l20 3l16 114h-75q-3 0 -3 4l11 78q0 3 3 3h162l-38 -273q-136 -30 -194 -30zM137 -217q-2 -1 -3.5 0t-0.5 4l25 180q1 4 3 4h87q3 0 3 -4l-16 -116q0 -3 -4 -6z" />
<glyph horiz-adv-x="457" d="M187 -4q-117 0 -179 31q-2 1 0 5l4 8q4 9 9.5 20t10.5 22t9 19t5 8q1 2 5 2l7 -3l22 -5.5t31 -7t41 -6t48 -2.5q45 0 71 10t31 42l5 35q4 26 -19.5 39t-74.5 18q-97 10 -130.5 39t-23.5 97l8 59q17 123 198 123q106 0 160 -27q2 -2 2 -4l-37 -75q-1 -2 -4 -2q-3 1 -19 5 t-48.5 8.5t-63.5 4.5q-79 0 -86 -47l-5 -33q-4 -26 14.5 -38.5t74.5 -18.5q96 -11 132.5 -40.5t26.5 -97.5l-8 -59q-6 -42 -27.5 -69.5t-55.5 -39.5t-64 -16t-70 -4zM129 -217q-2 -1 -4 0t-1 4l25 180q1 4 4 4h87q3 0 2 -4l-16 -116q0 -3 -4 -6z" />
<glyph horiz-adv-x="419" d="M122 0q-2 0 -2 3l63 450h-144q-3 0 -3 3l12 85q0 3 4 3h389q2 0 2 -3l-12 -85q0 -3 -3 -3h-144l-63 -450q0 -3 -4 -3h-95zM102 -217q-5 -3 -5 4l26 180q0 4 3 4h87q3 0 2 -4l-16 -116q0 -3 -4 -6z" />
<glyph horiz-adv-x="457" d="M187 -126h-85q-2 0 0 3q15 30 71 119q-107 2 -165 31q-2 1 0 5l4 8q4 9 9.5 20t10.5 22t9 19t5 8q1 2 5 2l7 -3l22 -5.5t31 -7t41 -6t48 -2.5q45 0 71 10t31 42l5 35q4 26 -19.5 39t-74.5 18q-97 10 -130.5 39t-23.5 97l8 59q17 123 198 123q106 0 160 -27q2 -2 2 -4 l-37 -75q-1 -2 -4 -2q-3 1 -19 5t-48.5 8.5t-63.5 4.5q-79 0 -86 -47l-5 -33q-4 -26 14.5 -38.5t74.5 -18.5q96 -11 132.5 -40.5t26.5 -97.5l-8 -59q-15 -110 -155 -126l-57 -122q-2 -3 -5 -3z" />
<glyph horiz-adv-x="363" d="M54 120q-3 1 1 5l59 52q2 3 5 0q1 -1 64.5 -79t64.5 -79q2 -1 -1 -4q-1 -1 -15.5 -14.5t-28.5 -26.5l-14 -12q-3 -2 -5 0z" />
<glyph horiz-adv-x="333" d="M201 338q-3 0 -1 4l41 74q3 3 5 3h58q4 0 2 -3l-42 -74q-4 -4 -5 -4h-58zM3 -33q-3 0 -2 3q22 44 42 74q2 3 5 3h58q4 0 1 -3l-42 -74q-2 -3 -4 -3h-58z" />
<glyph horiz-adv-x="466" d="M311 470q-3 0 -1 3l16 25q17 26 33 50.5t17 25.5q3 3 5 3h78q3 0 1 -3q0 -1 -16.5 -26t-32 -49.5t-16.5 -25.5q-3 -3 -6 -3h-78zM-4 -32q-4 0 -1 3q1 1 31 48t31 48q3 3 5 3h78q4 0 1 -3q-1 -1 -31 -48t-31 -48q-3 -3 -5 -3h-78z" />
<glyph horiz-adv-x="456" d="M199 87q47 0 69.5 22t32.5 95l19 140q10 71 -6.5 92.5t-62.5 21.5q-44 0 -66.5 -21.5t-32.5 -92.5l-19 -140q-10 -73 6 -95t60 -22zM186 -4q-42 0 -68 5t-53 23.5t-35.5 61t0.5 110.5l22 158q9 65 29.5 106.5t52.5 59.5t60 23.5t70 5.5q17 0 30 -0.5t29.5 -2.5t28 -6 t24.5 -11t22 -17t16.5 -25t11 -33.5t3.5 -44t-4 -55.5l-22 -158q-8 -56 -25 -95t-36 -59t-49 -31t-51.5 -13t-55.5 -2z" />
<glyph horiz-adv-x="403" d="M240 0h-91q-3 0 -3 3l61 432q-103 -68 -105 -69q-2 7 -2 9v7q0 53 -9 70v2l129 88q2 2 5 2h91q3 0 3 -3l-76 -539q0 -2 -3 -2z" />
<glyph horiz-adv-x="414" d="M322 0h-311q-2 0 -2 2l12 81q0 4 3 7q14 13 41 38.5t40.5 38.5t36.5 35t35 35t29.5 31t26.5 30t19 25.5t14.5 24t5.5 19.5l5 40q4 30 -16 40.5t-50 10.5q-16 0 -34 -2t-33 -5l-27.5 -5.5t-20.5 -4.5l-8 -2q-4 0 -4 2t-4 37t-4 38q0 4 1 4l3 1l6 3t10 4t13.5 4t16.5 4.5 t20.5 4.5t23 3.5t26 2.5t29.5 1q25 0 45.5 -2t44.5 -10t39 -21t23.5 -37.5t3.5 -57.5l-9 -61q-5 -32 -37.5 -77.5t-64 -78.5t-103.5 -105l-1 -8h169q2 0 2 -3l-12 -84q0 -3 -3 -3z" />
<glyph horiz-adv-x="419" d="M15 20q-3 0 -1 4q1 1 13.5 37.5t12.5 37.5q1 2 5 2q2 -1 20.5 -4.5t49.5 -7.5t57 -4q75 0 82 50l5 36q4 27 -7.5 42t-23.5 18.5t-27 3.5h-63q-3 0 -2 3l11 79q0 3 3 3h63q23 0 41.5 14t22.5 40l5 35q3 22 -8.5 34t-25 14.5t-31.5 2.5q-25 0 -56 -4t-49 -8t-20 -5 q-3 -1 -3 2q0 2 -3 37t-3 37q0 4 2 5q5 2 19.5 7t51 11.5t73.5 6.5q26 0 46.5 -2t44.5 -9.5t38.5 -20t22.5 -36.5t3 -57l-8 -52q-4 -24 -17.5 -46t-24.5 -32l-12 -9l-1 -7q2 -1 5 -3t10.5 -10t13 -18.5t8.5 -28t0 -38.5l-8 -59q-5 -40 -24 -66.5t-48.5 -38.5t-56.5 -16 t-62 -4q-41 0 -77 6t-52 12z" />
<glyph horiz-adv-x="418" d="M292 0h-85q-3 0 -3 3l12 85h-205q-2 0 -2 3l12 85l1 2q0 1 1 3t1 3l192 357q2 3 5 3h96q3 0 1 -3l-188 -355l-1 -8h100l13 95q0 4 4 4h85q5 0 4 -4l-13 -95h48q4 0 4 -3l-12 -83q0 -4 -4 -4h-49l-12 -85q0 -3 -5 -3z" />
<glyph horiz-adv-x="418" d="M161 -5q-97 0 -145 24q-2 1 0 5l26 75q0 1 5 1l8 -2q8 -1 21.5 -3.5t29 -5t34 -4t33.5 -1.5q75 0 83 51l6 39q5 36 -12.5 51t-46.5 15h-142q-3 0 -3 3l42 294q0 7 9 7h282q2 0 2 -3l-11 -79q0 -3 -3 -3h-200l-19 -135h57q24 0 42.5 -2t41.5 -9.5t37 -21.5t21.5 -40 t2.5 -61l-10 -70q-5 -34 -21 -58.5t-34.5 -37t-45.5 -19.5t-46 -8.5t-44 -1.5z" />
<glyph horiz-adv-x="419" d="M182 78q20 0 34 4t28 23t19 53l3 23q6 42 -7.5 57.5t-43.5 15.5q-12 0 -31.5 -4t-33.5 -8l-13 -3l-16 -111q-3 -26 15 -38t46 -12zM177 -4q-30 0 -55.5 4.5t-52 17t-39.5 40t-7 68.5l40 284q6 44 29.5 74.5t55.5 43t56.5 17t47.5 4.5q84 0 140 -28q3 -1 1 -5 q-1 -3 -15 -37.5t-14 -35.5q0 -2 -5 -2l-7 2q-8 2 -20 4.5t-26 5t-32 4.5t-33 2q-73 0 -80 -53l-12 -84q67 15 97 15q27 0 46 -4t40.5 -17.5t29.5 -45.5t1 -81l-5 -36q-6 -42 -20.5 -72.5t-32 -46.5t-42 -25t-43 -11t-43.5 -2z" />
<glyph horiz-adv-x="406" d="M146 0h-98q-4 0 -2 3l231 445l1 8h-204q-2 0 -2 3l12 81q0 4 2 4h309q3 0 3 -3l-11 -80q0 -3 -4 -9q0 -1 -116 -224.5t-116 -224.5q-3 -3 -5 -3z" />
<glyph horiz-adv-x="419" d="M181 78q71 0 79 68l3 26q8 64 -59 64q-69 0 -79 -64l-4 -26q-6 -38 10 -53t50 -15zM216 325q64 0 73 56l4 26q9 60 -56 60q-66 0 -75 -60l-4 -26q-4 -30 12.5 -43t45.5 -13zM169 -5q-35 0 -60.5 5t-49 19t-33 44.5t-3.5 76.5l5 37q4 32 22 58t34 35l15 10v3q-5 3 -12 9.5 t-16.5 30t-5.5 51.5l5 37q6 45 24 74t45.5 42t52 17.5t57.5 4.5q32 0 55 -4.5t46 -17.5t32 -42t3 -74l-5 -38q-4 -27 -18.5 -49.5t-27.5 -31.5l-13 -9v-2q2 -1 5.5 -3.5t11.5 -11.5t14 -20t9.5 -29.5t0.5 -39.5l-5 -37q-6 -46 -24 -76.5t-46 -44.5t-54.5 -19t-63.5 -5z" />
<glyph horiz-adv-x="418" d="M241 549q24 0 44 -2.5t43.5 -10.5t38.5 -21.5t23.5 -38t3.5 -57.5l-40 -284q-6 -44 -29 -74.5t-55.5 -43t-56.5 -17t-47 -4.5q-92 0 -142 25q-4 2 -2 5l29 72q2 2 4 2l8 -2q8 -1 20.5 -3.5t27.5 -4.5t33 -3.5t33 -1.5q73 0 80 54l11 74q-69 -15 -98 -15q-27 0 -46.5 4 t-41 17.5t-29.5 45.5t-1 81l7 45q6 42 21.5 73t32.5 47t42 25t43 11t43 2zM236 466q-21 0 -34.5 -4t-28 -22.5t-19.5 -53.5l-5 -32q-6 -42 7.5 -57.5t44.5 -15.5q12 0 31.5 3.5t33.5 7.5l13 4l17 121q3 26 -14.5 37.5t-45.5 11.5z" />
<glyph horiz-adv-x="913" d="M191 -4q-117 0 -179 31q-2 1 0 5l4 8q4 9 9.5 20t10.5 22t9 19t5 8q1 2 5 2l7 -3l22 -5.5t31 -7t41 -6t48 -2.5q45 0 71 10t31 42l5 35q4 26 -19.5 39t-74.5 18q-97 10 -130.5 39t-23.5 97l8 59q17 123 198 123q106 0 160 -27q2 -2 2 -4l-37 -75q-1 -2 -4 -2q-3 1 -19 5 t-48.5 8.5t-63.5 4.5q-79 0 -86 -47l-5 -33q-4 -26 14.5 -38.5t74.5 -18.5q96 -11 132.5 -40.5t26.5 -97.5l-8 -59q-6 -42 -27.5 -69.5t-55.5 -39.5t-64 -16t-70 -4zM627 -4q-117 0 -179 31q-2 1 0 5l4 8q4 9 9.5 20t10.5 22t9 19t5 8q1 2 5 2l7 -3l22 -5.5t31 -7t41 -6 t48 -2.5q45 0 71 10t31 42l5 35q4 26 -19.5 39t-74.5 18q-97 10 -130.5 39t-23.5 97l8 59q17 123 198 123q106 0 160 -27q2 -2 2 -4l-37 -75q-1 -2 -4 -2q-3 1 -19 5t-48.5 8.5t-63.5 4.5q-79 0 -86 -47l-5 -33q-4 -26 14.5 -38.5t74.5 -18.5q96 -11 132.5 -40.5t26.5 -97.5 l-8 -59q-6 -42 -27.5 -69.5t-55.5 -39.5t-64 -16t-70 -4z" />
<glyph horiz-adv-x="419" d="M139 56q-3 0 -3 3l17 120h-125q-2 0 -2 4l11 75q0 3 2 3h125l17 122q0 3 5 3h74q2 0 2 -3l-17 -122h125q3 0 3 -3l-11 -75q0 -4 -3 -4h-125l-17 -120q0 -3 -4 -3h-74z" />
<glyph horiz-adv-x="182" d="M-28 -86q-2 0 -2 4l74 182q2 3 4 3h83q3 0 2 -3q0 -1 -45.5 -91t-46.5 -91q-2 -4 -4 -4h-65z" />
<glyph horiz-adv-x="296" d="M20 179q-2 0 -2.5 1t0.5 2l10 75q1 4 4 4h226q2 0 2 -4l-10 -75q0 -3 -4 -3h-226z" />
<glyph horiz-adv-x="188" d="M8 0q-3 0 -3 3l14 98q0 3 4 3h91q2 0 2 -3l-14 -98q0 -3 -3 -3h-91z" />
<glyph horiz-adv-x="328" d="M5 -4q-2 0 -2 2q0 1 113 273.5t114 274.5q2 3 4 3h87q3 0 2 -3q0 -1 -113 -273.5t-113 -273.5q-1 -3 -4 -3h-88z" />
<glyph horiz-adv-x="419" d="M40 263q-2 0 -2 3l11 77q0 3 3 3h331q2 0 2 -3l-11 -77q0 -3 -3 -3h-331zM16 96q-1 0 -1 4l11 76q0 3 2 3h331q3 0 3 -3l-11 -76q0 -4 -4 -4h-331z" />
<glyph horiz-adv-x="227" d="M118 0h-90q-3 0 -3 3l13 88q0 3 3 3h90q3 0 3 -3l-13 -88q0 -3 -3 -3zM136 159h-81q-2 0 -2 3l53 379q0 3 3 3h81q3 0 3 -3l-53 -379q0 -3 -4 -3z" />
<glyph horiz-adv-x="357" d="M180 0h-90q-4 0 -4 3l13 89q0 3 4 3h90q3 0 3 -3l-13 -89q0 -3 -3 -3zM201 154h-88q-2 0 -2 4l4 31q5 39 35 76t59.5 66.5t32.5 48.5l5 31q8 51 -51 51q-15 0 -31.5 -2t-30 -5t-24.5 -5.5t-18 -4.5l-6 -2q-4 0 -4 2t-4 35.5t-4 36.5q0 5 1 5q78 26 135 26q29 0 51.5 -4 t45.5 -16t33 -39t4 -68l-6 -41q-4 -31 -64.5 -96t-64.5 -96l-4 -30q0 -4 -4 -4z" />
<glyph horiz-adv-x="197" d="M-39 -86q-2 0 -2 3q0 1 36.5 91t37.5 92q1 3 3 3h84q4 0 2 -3l-93 -182q-2 -4 -4 -4h-64zM54 282q-3 0 -3 3l14 98q0 3 3 3h90q4 0 4 -3l-14 -98q0 -3 -4 -3h-90z" />
<glyph horiz-adv-x="283" d="M146 544q4 0 3 -4l-21 -151q0 -3 -3 -3h-73q-2 0 -2 3l21 150q0 5 3 5h72zM278 544q5 0 4 -4l-21 -151q0 -3 -3 -3h-72q-3 0 -3 3l21 150q0 5 4 5h70z" />
<glyph horiz-adv-x="433" d="M159 228h90l25 98h-89zM97 0h-70q-3 0 -3 3l40 154h-58q-3 0 -3 3l9 65q0 3 4 3h67l25 98h-62q-4 0 -4 3l9 64q0 3 3 3h71q38 142 38 145t3 3h71q5 0 3 -3l-38 -145h90q37 143 37 145q0 3 4 3h71q1 0 2 -1t0 -2l-37 -145h56q3 0 3 -3l-9 -64q0 -3 -3 -3h-65l-25 -98h61 q2 0 2 -3l-9 -65q0 -3 -3 -3h-69q-40 -152 -40 -154q0 -3 -4 -3h-71q-2 0 -2 2l40 155h-90q-40 -152 -40 -154q0 -3 -4 -3z" />
<glyph horiz-adv-x="454" d="M147 -64q-3 0 -3 3l8 56q-91 3 -147 31q-2 2 -1 5q1 1 19 38.5t19 38.5q1 2 6 2q4 -2 20 -7t53.5 -11t75.5 -6q45 0 71.5 10t30.5 42l4 35q3 24 -17.5 37.5t-77.5 19.5q-92 10 -127 36.5t-25 99.5l8 59q15 113 166 121l8 58q0 3 3 3h60q3 0 3 -3l-8 -58q84 -4 126 -25 l2 -2q0 -3 -37 -77q-2 -3 -4 -2t-18.5 5t-49.5 8.5t-64 4.5q-80 0 -86 -47l-5 -33q-4 -27 14.5 -38.5t75.5 -18.5q92 -11 130.5 -39t28.5 -99l-9 -59q-18 -121 -182 -129l-8 -56q0 -3 -3 -3h-60z" />
<glyph horiz-adv-x="607" d="M155 -5h-78q-1 0 0 3q23 37 182.5 273.5t182.5 274.5q3 3 5 3h78q4 0 1 -4l-365 -547q-1 -3 -6 -3zM156 295q-44 0 -69.5 19t-17.5 72l11 74q13 89 115 89q43 0 67.5 -18t17.5 -71l-10 -74q-13 -91 -114 -91zM411 -5q-45 0 -70 19t-18 73l10 73q12 89 116 89 q43 0 67.5 -18t17.5 -71l-10 -73q-12 -92 -113 -92zM165 358q20 0 31.5 7.5t14.5 30.5l7 53q5 37 -33 37q-42 0 -47 -37l-7 -53q-3 -23 5.5 -30.5t28.5 -7.5zM420 58q19 0 30 7.5t14 30.5l8 53q3 22 -5.5 29.5t-27.5 7.5q-40 0 -46 -37l-8 -53q-3 -23 6.5 -30.5t28.5 -7.5z " />
<glyph horiz-adv-x="456" d="M186 -5q-28 0 -48 2t-44.5 10.5t-39 23.5t-22.5 42.5t-3 66.5l4 31q4 33 21.5 67t33.5 52l15 18q-3 4 -6 12t-8.5 34.5t1.5 53.5l4 23q19 118 158 118q25 0 43 -3t37.5 -13t30 -32.5t10.5 -57.5q0 -32 -6 -32h-65v19q0 33 -15.5 44t-41.5 11q-65 0 -73 -59l-2 -15 q1 -11 -1 -15t1 -15t3 -14.5t5 -14.5t6.5 -15t7.5 -15.5t9 -16.5t10 -17.5t10 -18.5l76 -138q10 15 11 21l13 89q0 4 3 4h65q3 0 3 -4l-14 -103q-2 -13 -12 -31.5t-20 -30.5l-9 -11q36 -60 37 -62q2 -3 -1 -3h-86q-1 0 -4 3l-8 13q-36 -21 -89 -21zM196 66q12 0 22.5 2.5 t15.5 5.5l4 2l-94 163q-23 -24 -31 -79l-2 -13q-8 -49 13.5 -65t71.5 -16z" />
<glyph horiz-adv-x="165" d="M153 544q5 0 4 -4l-21 -151q0 -3 -4 -3h-72q-3 0 -3 3l21 150q0 5 4 5h71z" />
<glyph horiz-adv-x="173" d="M4 -56q-6 -4 -6 2l22 150q0 3 3 3h75q2 0 2 -3l-13 -95q0 -2 -4 -5z" />
<glyph horiz-adv-x="308" d="M4 -56q-6 -4 -6 2l22 150q0 3 3 3h75q2 0 2 -3l-13 -95q0 -2 -4 -5zM139 -56q-6 -4 -6 2l22 150q0 3 3 3h74q2 0 2 -3l-13 -95q0 -2 -4 -5z" />
<glyph horiz-adv-x="447" d="M235 -5q-22 0 -40 1.5t-39.5 6.5t-36 14t-30.5 23.5t-22 35.5t-11 50.5t3 68.5h-40q-2 0 -2 3l7 50q0 3 3 3h40l6 44h-40q-1 0 -1.5 1t0.5 2l7 51q0 3 2 3h40q8 60 30 100.5t55.5 60.5t68 27.5t80.5 7.5q42 0 76.5 -6t47 -11.5t14.5 -7.5q2 -1 1 -4l-37 -74q-2 -3 -4 -2 t-16.5 4t-41.5 6.5t-53 3.5q-51 0 -77.5 -21.5t-40.5 -83.5h124q3 0 3 -3l-7 -51q-3 -3 -4 -3h-125l-6 -44h125q2 0 2 -3l-7 -50q0 -3 -3 -3h-124q-6 -64 14.5 -84.5t71.5 -20.5q29 0 60 4.5t46 8.5t18 5q3 2 3 -2l18 -75q0 -3 -2 -5q-62 -31 -156 -31z" />
<glyph horiz-adv-x="405" d="M140 -79q-2 0 -2 3l10 73q-25 2 -42.5 6.5t-39 18.5t-29.5 47.5t-1 83.5l12 83q21 145 156 153l10 73q0 3 3 3h54q3 0 3 -3l-10 -72q61 -3 91 -18q3 -2 2 -4l-32 -65q-1 -2 -4 -2l-5 1q-4 0 -12 1t-18.5 2.5t-25 2t-29.5 0.5q-35 0 -57.5 -16t-29.5 -64l-10 -68 q-7 -50 10.5 -66t54.5 -16q15 0 30.5 1t26.5 2.5t20 3t14 2.5l5 1q4 0 4 -3q0 -1 5.5 -33t6.5 -33q1 -3 -1 -5l-5 -2q-5 -1 -13.5 -3.5t-20 -5t-28.5 -4.5t-35 -3l-10 -72q0 -3 -4 -3h-54z" />
<glyph horiz-adv-x="686" d="M316 115q29 0 45 10t20 40l15 108q2 14 -9 22.5t-22.5 10t-25.5 1.5q-26 0 -41 -15t-21 -55l-7 -50q-6 -44 8 -58t38 -14zM283 -117q-265 0 -265 262q0 98 24 171.5t59.5 115t87 66.5t96 32.5t95.5 7.5q58 0 101.5 -9.5t84.5 -34.5t63 -76t22 -127q0 -74 -13.5 -124.5 t-38.5 -75t-51.5 -34.5t-61.5 -10q-53 0 -80 27q-39 -27 -102 -27q-62 0 -94 28t-21 108l8 58q9 69 45 101.5t88 32.5q29 0 48.5 -4.5t23.5 -9.5l5 -5l2 13q0 2 3 2h74q1 0 1 -2l-28 -200q-7 -52 40 -52q24 0 38.5 9t26.5 48t12 111q0 106 -52.5 145.5t-154.5 39.5 q-132 0 -201.5 -71.5t-69.5 -238.5q0 -202 195 -202q40 0 83.5 5t66.5 10t25 6q4 2 4 -1l9 -62q-2 -3 -3 -4q-4 -2 -25.5 -8t-70.5 -13.5t-99 -7.5z" />
<glyph horiz-adv-x="235" d="M68 -75l-5 3q-3 3 -8.5 14.5t-13 58.5t-7.5 113q0 106 12.5 194.5t29 139t36.5 87t30 48t15 14.5q4 3 6 3h74q2 0 -1 -3q-4 -4 -13.5 -17t-28.5 -53.5t-35 -91.5t-28 -137.5t-12 -184.5q0 -61 6 -107.5t10.5 -61t6.5 -16.5q3 -3 0 -3h-74z" />
<glyph horiz-adv-x="235" d="M66 -75h-74q-2 0 1 3q5 5 14 17.5t28 52.5t35 90.5t28 136.5t12 185q0 141 -23 187q-1 3 1 3h73q2 0 5 -3t8.5 -15t13 -58.5t7.5 -112.5q0 -107 -13.5 -197t-28 -137t-38 -88t-28.5 -46l-15 -15q-3 -3 -6 -3z" />
<glyph horiz-adv-x="291" d="M123 299q-2 0 -2 3l10 71q-61 -35 -63 -36q-3 -1 -4 2l-18 43q-2 2 1 4l63 36q-51 34 -53 35q-3 1 0 4q26 39 30 43q1 2 4 2l53 -37l10 72q0 3 4 3h48q3 0 3 -3l-10 -72q61 36 63 37q2 2 4 -2l18 -43q2 -2 -2 -4l-62 -35q50 -35 52 -36q3 -2 1 -4l-30 -43q-2 -3 -4 -2 l-53 36l-10 -71q0 -3 -4 -3h-49z" />
<glyph horiz-adv-x="229" d="M3 -75l95 675h147q3 0 3 -3l-10 -70q0 -3 -4 -3h-66l-73 -523h66q2 0 2 -4l-10 -69q0 -3 -3 -3h-147z" />
<glyph horiz-adv-x="229" d="M124 -75h-148q-2 0 -2 3l10 69q0 4 3 4h67l73 523h-67q-1 0 -1 3l10 70q0 3 2 3h148z" />
<glyph horiz-adv-x="320" d="M16 179q-1 0 -2 1t0 2l10 75q1 4 4 4h257q2 0 2 -4l-10 -75q0 -3 -4 -3h-257z" />
<glyph horiz-adv-x="367" d="M2 179q-2 0 -2.5 1t0.5 2l10 75q1 4 4 4h332q2 0 2 -4l-10 -75q0 -3 -4 -3h-332z" />
<glyph horiz-adv-x="328" d="M5 -4q-2 0 -2 2q0 1 113 273.5t114 274.5q2 3 4 3h87q3 0 2 -3q0 -1 -113 -273.5t-113 -273.5q-1 -3 -4 -3h-88z" />
<glyph horiz-adv-x="296" d="M20 179q-2 0 -2.5 1t0.5 2l10 75q1 4 4 4h226q2 0 2 -4l-10 -75q0 -3 -4 -3h-226z" />
<glyph horiz-adv-x="419" d="M28 180q-1 0 -1 3l10 74q0 3 3 3h331q2 0 2 -3l-10 -74q0 -3 -4 -3h-331zM130 27q-4 0 -4 3l13 92q0 4 5 4h86q2 0 2 -4l-13 -92q0 -3 -3 -3h-86zM170 315q-4 0 -3 3l13 92q0 3 4 3h86q3 0 3 -3l-13 -92q0 -3 -4 -3h-86z" />
<glyph horiz-adv-x="419" d="M35 0q-2 0 -2 2l30 215h-27q-2 0 -2 3l9 63q0 3 3 3h27l19 134q18 128 184 128q79 0 131 -26q2 -2 2 -3t-14.5 -38t-15.5 -38q0 -2 -3 -2q-1 0 -7.5 2t-17.5 4.5t-24.5 4.5t-30.5 4t-32 2q-31 0 -49.5 -10.5t-22.5 -40.5l-17 -121h122q3 0 3 -3l-9 -63q0 -3 -4 -3h-122 l-17 -127h195q2 0 2 -3l-12 -84q0 -3 -3 -3h-295z" />
<glyph horiz-adv-x="403" d="M8 17q-2 1 0 5q1 2 15 31t15 32q2 3 5 3q2 -1 18.5 -4.5t47.5 -7t59 -3.5q34 0 50.5 6.5t18.5 25.5l2 16q2 17 -14 24t-59 13q-20 3 -34.5 5.5t-33 9.5t-30 16.5t-18 26t-3.5 38.5l5 40q5 40 33 59q-21 18 -16 58l5 39q13 98 160 98q36 0 69 -5t45.5 -9t16.5 -6 q2 -1 2 -3q-28 -56 -28 -63q0 -2 -4 -2l-7 1q-6 1 -17 3t-24.5 4t-30.5 3t-32 1q-55 0 -59 -29l-2 -17q-2 -15 16 -22.5t57 -11.5q59 -7 92.5 -28t26.5 -68l-6 -41q-6 -39 -31 -60q20 -20 15 -55l-6 -41q-5 -35 -21 -57t-42.5 -31.5t-49.5 -12.5t-57 -3q-41 0 -78.5 5.5 t-52 10t-18.5 6.5zM244 227q18 7 22 34l2 16q1 9 -12 17.5t-30.5 14t-37.5 8.5l-19 2q-8 -1 -18.5 -9.5t-12.5 -23.5l-2 -17q-3 -26 77 -36q14 -2 31 -6z" />
<glyph horiz-adv-x="436" d="M131 0q-3 0 -3 3l15 106h-97q-4 0 -4 3l8 54q0 3 4 3h97l6 39h-97q-4 0 -4 3l8 54q0 3 4 3h68q-91 271 -92 273q-2 3 2 3h102q2 0 3 -3l71 -217h4q129 214 131 217q3 3 4 3h101q4 0 2 -3l-171 -273h67q2 0 2 -3l-8 -54q0 -3 -2 -3h-94l-6 -39h94q2 0 2 -3l-8 -54 q0 -3 -2 -3h-95l-15 -106q0 -3 -2 -3h-95z" />
<glyph horiz-adv-x="266" d="M139 -73q-47 0 -65.5 23.5t-11.5 77.5l18 125q5 36 -4 54t-40 18q-3 0 -3 3l10 71q0 3 4 3q30 0 44.5 18t19.5 54l17 125q7 53 33 77t73 24h48q2 0 2 -3l-9 -68q0 -4 -4 -4h-24q-34 0 -39 -36l-18 -126q-7 -48 -21 -67.5t-41 -30.5v-3q24 -12 32 -31t2 -67l-17 -126 q-5 -37 28 -37h24q3 0 3 -3l-10 -68q0 -3 -3 -3h-48z" />
<glyph horiz-adv-x="231" d="M28 -75q-3 0 -3 3l94 669q0 3 4 3h75q2 0 2 -3l-94 -669q0 -3 -3 -3h-75z" />
</font>
</defs>
</svg>
