<?xml version="1.0" standalone="no"?>
<!DOCTYPE svg PUBLIC "-//W3C//DTD SVG 1.1//EN" "http://www.w3.org/Graphics/SVG/1.1/DTD/svg11.dtd" >
<svg xmlns="http://www.w3.org/2000/svg" xmlns:xlink="http://www.w3.org/1999/xlink" version="1.1">
<metadata></metadata>
<defs>
<font id="sport1black_italic" horiz-adv-x="615" >
<font-face units-per-em="1000" ascent="750" descent="-250" />
<missing-glyph horiz-adv-x="246" />
<glyph unicode=" "  horiz-adv-x="246" />
<glyph unicode="&#x09;" horiz-adv-x="246" />
<glyph unicode="&#xa0;" horiz-adv-x="246" />
<glyph unicode="!" horiz-adv-x="324" d="M196 0h-148q-4 0 -4 4l19 135q0 4 5 4h148q4 0 3 -4l-19 -135q0 -4 -4 -4zM221 211h-138q-3 0 -3 4l65 461q0 4 3 4h138q3 0 3 -4l-65 -461q0 -4 -3 -4z" />
<glyph unicode="&#x22;" horiz-adv-x="411" d="M220 680q5 0 5 -6l-31 -215q0 -4 -4 -4h-118q-3 0 -3 4l30 214q0 7 4 7h117zM414 680q6 0 6 -6l-31 -215q0 -4 -3 -4h-118q-4 0 -4 4l30 214q0 7 5 7h115z" />
<glyph unicode="#" horiz-adv-x="594" d="M249 300h92l23 91h-91zM168 0h-122q-4 0 -3 4l46 179h-65q-4 0 -4 4l16 109q0 4 4 4h79l23 91h-69q-5 0 -4 4l15 109q1 4 5 4h84q43 165 43 168q0 4 5 4h122q5 0 3 -4l-43 -168h92q41 165 42 168q1 4 6 4h123q4 0 2 -4l-42 -168h62q3 0 3 -4l-15 -109q-1 -4 -5 -4h-77 l-23 -91h68q4 0 4 -4l-16 -109q0 -4 -4 -4h-82q-44 -176 -45 -179q-1 -4 -6 -4h-123q-2 0 -2 3l46 180h-92q-46 -176 -46 -179q0 -4 -5 -4z" />
<glyph unicode="$" horiz-adv-x="604" d="M192 -85q-3 0 -3 4l11 75q-122 6 -186 38q-2 2 -1 6q0 1 31 67t31 67q0 4 5 2q78 -26 198 -26q40 0 63.5 7t27.5 31l5 30q3 19 -18.5 32t-85.5 22q-59 8 -93.5 17t-62 28t-35.5 51t-1 81l11 79q19 139 207 157l11 78q0 4 5 4h103q3 0 3 -4l-11 -78q47 -3 88.5 -10.5 t58.5 -13t19 -7.5t2 -3q0 -3 -28.5 -66.5t-30.5 -66.5q-2 -4 -6 -2q-5 2 -26 6t-64.5 9t-84.5 5q-67 0 -72 -36l-4 -27q-3 -21 15 -31.5t81 -19.5q43 -6 71 -12.5t58 -19.5t45.5 -31.5t23 -48.5t1.5 -71l-11 -79q-6 -41 -26 -71.5t-44 -46.5t-57.5 -27t-55 -14t-49.5 -5 l-11 -75q0 -4 -5 -4h-103z" />
<glyph unicode="%" horiz-adv-x="811" d="M249 -6h-134q-1 0 -3 4q0 2 115.5 172.5t230 341t112.5 171.5q4 4 7 4h134q4 0 1 -4q-1 -1 -228.5 -342.5t-228.5 -342.5q-3 -4 -6 -4zM580 98q39 0 43 37l6 46q3 22 -5 29t-26 7q-40 0 -45 -36l-6 -46q-3 -22 6 -29.5t27 -7.5zM565 -6q-137 0 -119 124l12 82 q17 121 157 121q26 0 46 -4.5t40 -16t28 -37t3 -63.5l-12 -82q-7 -51 -33.5 -80t-55 -36.5t-66.5 -7.5zM229 464q19 0 29.5 7t13.5 30l7 46q3 21 -5.5 28.5t-26.5 7.5q-39 0 -45 -36l-7 -46q-3 -22 6.5 -29.5t27.5 -7.5zM214 360q-60 0 -94 26t-25 98l11 82q17 121 158 121 q57 0 91 -25t25 -96l-11 -82q-17 -124 -155 -124z" />
<glyph unicode="&#x26;" horiz-adv-x="609" d="M254 -6q-34 0 -60 2.5t-59.5 13t-53.5 28.5t-32 53.5t-5 83.5l6 45q5 40 26.5 82.5t40.5 65.5l19 22q-2 5 -5 14t-8 38t1 59l4 30q6 42 23 72.5t38 46t51 24.5t52 11t52 2q24 0 42 -2t42 -10.5t39 -23t26 -43t11 -68.5q0 -42 -8 -42h-106q-1 0 -1 24q0 38 -16 50.5 t-41 12.5q-70 0 -78 -59l-2 -16q-2 -17 0.5 -33.5t11.5 -35.5t16 -32t22 -37t21 -35l71 -130q7 13 8 20l13 93q0 4 5 4h106q3 0 3 -4l-17 -121q-3 -19 -15.5 -44t-24.5 -40l-11 -15q56 -93 58 -96q2 -4 -2 -4h-142q-2 0 -5 4l-9 15q-45 -25 -107 -25zM270 108q10 0 18 1.5 t11 2.5l3 2l-98 165q-18 -20 -25 -82l-1 -9q-6 -47 17.5 -63.5t74.5 -16.5z" />
<glyph unicode="'" horiz-adv-x="239" d="M231 680q7 0 7 -6l-31 -215q0 -4 -4 -4h-118q-4 0 -4 4l30 214q0 7 5 7h115z" />
<glyph unicode="(" horiz-adv-x="336" d="M98 -94q-2 0 -6 4q-36 54 -36 232q0 133 15.5 244t36 173.5t45.5 108.5t37.5 60t18.5 18q7 4 8 4h127q3 0 -1 -4q-5 -5 -16.5 -22t-35 -68t-42.5 -115.5t-34 -173t-15 -232.5q0 -74 6.5 -130.5t12 -74.5t7.5 -20q4 -4 -1 -4h-127z" />
<glyph unicode=")" horiz-adv-x="336" d="M132 -94h-126q-3 0 1 4q5 5 16.5 22t35 68t42.5 115.5t34 173t15 232.5q0 74 -7 130.5t-11.5 72.5t-7.5 22q-3 4 2 4h125q2 0 7 -4q4 -3 11 -18.5t16 -73t9 -138.5q0 -135 -16 -247t-35 -173t-45.5 -108.5t-37 -58.5t-19.5 -19q-4 -4 -9 -4z" />
<glyph unicode="*" horiz-adv-x="405" d="M172 355q-4 0 -3 4l11 81q-69 -40 -71 -41q-4 -2 -5 2q-11 33 -30 71q-2 3 2 5l71 41q-57 38 -59 40q-3 1 -1 5l50 71q3 3 6 2l59 -41l11 81q1 4 5 4h80q5 0 4 -4l-11 -81q68 40 70 41q4 2 5 -2q0 -1 14.5 -35.5t15.5 -35.5q2 -4 -2 -5l-70 -40q57 -39 59 -41q3 -1 1 -5 l-50 -71q-4 -3 -6 -2l-59 41l-11 -81q0 -4 -5 -4h-81z" />
<glyph unicode="+" horiz-adv-x="556" d="M183 64q-4 0 -4 4l20 139h-153q-3 0 -3 4l18 129q0 4 4 4h153l20 139q0 4 4 4h127q4 0 4 -4l-20 -139h152q4 0 3 -4l-18 -129q0 -4 -4 -4h-152l-20 -139q0 -4 -4 -4h-127z" />
<glyph unicode="," horiz-adv-x="265" d="M-29 -115q-5 0 -2 4l106 265q1 4 5 4h139q5 0 1 -4l-135 -265q-3 -4 -4 -4h-110z" />
<glyph unicode="-" horiz-adv-x="400" d="M38 207q-3 0 -3 4l18 129q0 4 4 4h301q4 0 4 -4l-18 -129q0 -4 -5 -4h-301z" />
<glyph unicode="." horiz-adv-x="273" d="M22 0q-4 0 -4 4l22 155q0 4 5 4h148q3 0 3 -4l-21 -155q-1 -4 -5 -4h-148z" />
<glyph unicode="/" horiz-adv-x="446" d="M12 -5q-3 0 -2 4q1 2 141.5 342.5t141.5 341.5q1 4 5 4h154q5 0 2 -4l-282 -684q-1 -4 -5 -4h-155z" />
<glyph unicode="0" horiz-adv-x="608" d="M283 144q45 0 62.5 22t27.5 95l23 163q10 72 -2 93t-55 21t-61.5 -21t-28.5 -93l-23 -163q-10 -73 1 -95t56 -22zM262 -10q-24 0 -42 1t-40 4t-37.5 8.5t-32.5 15t-28 23t-21 33t-14 44t-4 57.5t6 73l27 191q10 67 31 115t46 74.5t62.5 41t69 18t75.5 3.5q24 0 41 -1 t39 -3.5t37.5 -7.5t33 -14.5t29 -22.5t21.5 -32t14.5 -43t5 -56.5t-5.5 -71.5l-27 -191q-7 -52 -20.5 -92.5t-29.5 -67.5t-39.5 -46t-43.5 -29.5t-49.5 -16t-50.5 -6.5t-53 -1z" />
<glyph unicode="1" horiz-adv-x="537" d="M358 0h-159q-4 0 -3 4l69 495q-125 -76 -127 -77q-1 -1 -2 -0.5t-1 2.5q0 3 -9 71t-10 69q-1 4 4 7l168 107q4 2 7 2h159q3 0 3 -4l-94 -673q-1 -3 -5 -3z" />
<glyph unicode="2" horiz-adv-x="551" d="M445 0h-415q-4 0 -4 4l19 131q0 6 6 12q15 13 45.5 41t45.5 41.5t41.5 37.5t40 38t33.5 34t30.5 33.5t22 29t17 27.5t6.5 23l6 42q3 18 -9.5 29t-25 13.5t-24.5 2.5q-33 0 -73.5 -6t-64.5 -11.5t-26 -6.5q-5 0 -5 3t-5.5 65.5t-5.5 63.5q0 3 3 6q6 4 24 11t69 17t109 10 q238 0 214 -169l-12 -86q-4 -29 -19.5 -59.5t-48.5 -69t-59.5 -66t-78.5 -78.5l-2 -11h167q4 0 3 -4l-20 -144q0 -4 -4 -4z" />
<glyph unicode="3" horiz-adv-x="556" d="M28 19q-2 0 -2 3t20.5 66.5t21.5 65.5q1 3 6 3q2 -1 27.5 -5t67 -8.5t73.5 -4.5q27 0 49.5 11t25.5 33l4 33q8 60 -55 60h-88q-4 0 -4 4l19 135q0 4 5 4h89q20 0 37 13t20 34l4 32q2 18 -10 29t-24.5 13.5t-24.5 2.5q-33 0 -74 -5t-64 -9.5t-27 -5.5q-6 -2 -6 3 q0 4 -2.5 66t-2.5 63q0 4 3 6q5 2 26 8.5t70 14.5t99 8q38 0 67.5 -3t61 -13t50.5 -27t28.5 -47t3.5 -72l-10 -68q-4 -26 -21 -52t-32 -39l-15 -13l-1 -10q2 -1 6 -3.5t14 -12t17 -21.5t11 -32t1 -44l-11 -81q-7 -51 -30.5 -85t-61.5 -50.5t-76.5 -22.5t-90.5 -6 q-56 0 -104.5 7t-69.5 15z" />
<glyph unicode="4" horiz-adv-x="556" d="M428 0h-148q-4 0 -4 4l13 90h-264q-4 0 -4 4l20 139q0 6 5 14l223 425q2 4 5 4h168q4 0 2 -4l-215 -420l-1 -10h82l14 100q0 4 5 4h148q3 0 3 -4l-14 -100h43q3 0 3 -4l-20 -144q-1 -4 -4 -4h-43l-13 -90q0 -4 -4 -4z" />
<glyph unicode="5" horiz-adv-x="556" d="M224 -11q-109 0 -196 29q-3 1 -1 6q0 1 21 64.5t22 65.5q2 3 5 2t28.5 -5t67 -8.5t73.5 -4.5q25 0 47.5 10.5t25.5 34.5l6 39q5 32 -14 45t-43 13h-184q-3 0 -3 4l55 387q0 9 10 9h388q4 0 3 -4l-18 -134q-2 -4 -5 -4h-245l-17 -118h40q34 0 60.5 -2.5t59 -12t52 -26 t30.5 -48t5 -74.5l-15 -104q-6 -45 -27 -77t-45.5 -48.5t-61 -25.5t-62.5 -11t-62 -2z" />
<glyph unicode="6" horiz-adv-x="563" d="M259 128q13 0 22 2t20.5 9t19 23.5t11.5 41.5l4 29q5 38 -4.5 50.5t-30.5 12.5q-16 0 -34.5 -3.5t-29.5 -6.5l-11 -4l-16 -116q-3 -21 12 -29.5t37 -8.5zM252 -10q-234 0 -209 175l47 338q7 51 32.5 88.5t54.5 56t67 29.5t60 13t43 2t40.5 -1.5t35.5 -3.5t30.5 -4.5 t25.5 -6t20.5 -6.5t16 -6t11 -5t7.5 -3l3 -2q3 -1 1 -6q-1 -4 -23.5 -63.5t-23.5 -61.5q0 -2 -4 -2l-10 2q-10 2 -26.5 5.5t-35.5 6.5t-42.5 5t-43.5 2q-21 0 -45.5 -10.5t-27.5 -35.5l-11 -76q80 14 111 14q19 0 33.5 -1.5t33 -5.5t30.5 -12.5t26 -22.5t18.5 -34t8.5 -48.5 t-4 -65.5l-7 -49q-8 -55 -27 -94t-41.5 -60t-55 -33t-58.5 -15t-61 -3z" />
<glyph unicode="7" horiz-adv-x="536" d="M234 1h-169q-4 0 -3 4l267 518l2 10h-232q-4 0 -4 4l20 139q0 4 4 4h412q4 0 4 -4l-19 -132q0 -5 -5 -13l-271 -526q-3 -4 -6 -4z" />
<glyph unicode="8" horiz-adv-x="556" d="M256 128q60 0 69 61l4 29q4 29 -13 41t-39 12t-43 -12.5t-25 -40.5l-4 -29q-8 -61 51 -61zM298 423q22 0 41 11.5t22 37.5l4 29q8 55 -48 55q-57 0 -64 -55l-4 -29q-3 -25 11.5 -37t37.5 -12zM236 -10q-36 0 -64 3.5t-58 15t-48 31.5t-27 55.5t-3 83.5l6 49q3 22 13 42.5 t22 34t23.5 23.5t19.5 14l8 5l1 4q-5 4 -13 12t-19 36t-7 60l7 48q7 50 25 86t39 54.5t53.5 29t58 13t63.5 2.5q37 0 63 -2.5t55 -13.5t45 -30t23.5 -54.5t0.5 -84.5l-7 -49q-4 -31 -21.5 -58t-32.5 -38l-16 -12l-1 -3q3 -2 7 -5t15 -13.5t18.5 -23.5t12 -33.5t1.5 -43.5 l-7 -49q-7 -48 -25.5 -83.5t-42 -55.5t-56.5 -31.5t-63 -15t-69 -3.5z" />
<glyph unicode="9" horiz-adv-x="556" d="M319 549q-13 0 -22 -2t-20.5 -9t-19 -23t-11.5 -41l-5 -35q-5 -38 4.5 -50.5t30.5 -12.5q16 0 34.5 3.5t29.5 6.5l11 4l17 121q3 22 -11.5 30t-37.5 8zM326 687q34 0 62 -3t59.5 -14t52 -29.5t31.5 -51.5t5 -77l-46 -328q-7 -51 -32.5 -88.5t-54.5 -56t-67 -29.5t-60 -13 t-43 -2t-41 1t-36 3t-30.5 4.5t-26 5.5t-21 6t-16.5 5.5t-12 4.5t-8 3l-3 2q-3 1 -1 6q1 5 24 62.5l25 62.5q1 3 5 3q4 -1 26 -5.5t61.5 -9t71.5 -4.5q12 0 26 3t29.5 14.5t17.5 29.5l8 60q-80 -14 -111 -14q-22 0 -38.5 2t-38 8.5t-33.5 19t-24.5 34t-13 52t2.5 74.5l7 54 q7 55 26 94t41.5 60t55.5 33t59 15t61 3z" />
<glyph unicode=":" horiz-adv-x="287" d="M30 0q-4 0 -3 4l19 135q0 4 4 4h148q4 0 4 -4l-19 -135q0 -4 -5 -4h-148zM78 344q-4 0 -3 4l19 135q0 4 4 4h148q4 0 4 -4l-19 -135q0 -4 -5 -4h-148z" />
<glyph unicode=";" horiz-adv-x="287" d="M-43 -115q-5 0 -2 4l106 265q1 4 4 4h139q6 0 2 -4l-135 -265q-3 -4 -5 -4h-109zM76 324q-5 0 -4 4l22 155q0 4 4 4h148q4 0 4 -4l-22 -155q0 -4 -4 -4h-148z" />
<glyph unicode="&#x3c;" horiz-adv-x="556" d="M465 40l-418 171l-1 2q-1 2 -1 3l17 116q0 2 3 5l465 172q3 1 3 -3l-20 -140q0 -4 -3 -5l-243 -86l-1 -3q217 -83 219 -84q3 -2 3 -5l-20 -140z" />
<glyph unicode="=" horiz-adv-x="556" d="M31 98q-3 0 -3 4l19 131q0 4 3 4h440q4 0 4 -4l-19 -131q0 -4 -4 -4h-440zM62 317q-3 0 -3 4l19 131q0 4 3 4h440q3 0 3 -4l-18 -131q0 -4 -4 -4h-440z" />
<glyph unicode="&#x3e;" horiz-adv-x="556" d="M22 40q-1 -1 -1 0v3l20 140q0 3 2 5l244 84l1 3q-217 84 -220 86q-2 2 -2 5l20 140q1 3 2 3l417 -172q4 -2 4 -5l-17 -116q0 -3 -4 -5z" />
<glyph unicode="?" horiz-adv-x="481" d="M267 0h-149q-4 0 -3 4l19 135q0 4 4 4h149q3 0 3 -4l-19 -135q0 -4 -4 -4zM299 208h-152q-3 0 -3 4l3 23q5 41 29 79.5t49 62.5t47 50.5t25 45.5l3 24q3 23 -11 33.5t-29 10.5q-18 0 -39 -2.5t-38 -6t-31.5 -7t-23.5 -5.5l-8 -3q-5 0 -5 2t-7 62.5t-7 61.5q0 5 3 6 q5 3 25 10.5t65 17t90 9.5q31 0 56 -3t53 -13.5t45.5 -28t26.5 -49.5t3 -75l-6 -44q-4 -26 -27.5 -59t-50.5 -59.5t-50.5 -60t-26.5 -59.5l-3 -23q0 -4 -5 -4z" />
<glyph unicode="@" horiz-adv-x="909" d="M433 163q31 0 42 9t15 40l18 131q2 12 -12 16t-37 4q-22 0 -34.5 -14.5t-17.5 -50.5l-10 -71q-1 -23 -0.5 -36t8.5 -19t13.5 -7.5t14.5 -1.5zM390 -159q-53 0 -96 6t-92.5 27t-83.5 56t-56.5 98.5t-22.5 149.5q0 503 470 503q61 0 108.5 -6.5t96 -26.5t80.5 -53.5 t52.5 -91t20.5 -136.5q0 -81 -14.5 -140.5t-36.5 -92.5t-54.5 -52t-60.5 -24.5t-63 -5.5q-63 0 -100 27q-42 -27 -124 -27q-40 0 -67 5.5t-51 22t-33 51.5t-1 89l12 85q24 168 170 168q30 0 50 -4.5t25 -8.5l5 -4l1 9q0 3 5 3h127q4 0 3 -3l-33 -240q-8 -59 34 -59 q18 0 29.5 5.5t24.5 23.5t19.5 59t6.5 104q0 120 -59 165t-189 45q-174 0 -248 -86.5t-74 -280.5q0 -72 19.5 -120.5t55.5 -72.5t74 -33t87 -9q42 0 97 7t87 13t36 7t4 -2l12 -104q0 -5 -2 -6q-120 -40 -251 -40z" />
<glyph unicode="A" horiz-adv-x="635" d="M138 0h-174q-4 0 -2 4l312 672q3 4 4 4h191q5 0 6 -4l117 -672q2 -4 -3 -4h-174q-4 0 -5 4l-12 107h-212q-43 -104 -44 -107q-1 -4 -4 -4zM242 244h139l-26 229h-22z" />
<glyph unicode="B" horiz-adv-x="604" d="M212 133h78q75 0 81 46l8 54q5 31 -16 41.5t-52 10.5h-78zM250 407h70q27 0 36 -1q34 45 34 88q0 53 -60 53h-60zM293 0h-273l96 680h267q30 0 56.5 -5t58 -18.5t50.5 -45.5t19 -79q0 -75 -65 -169q32 -24 45 -51.5t6 -76.5l-9 -63q-7 -46 -25 -79t-39.5 -51t-55.5 -27.5 t-62 -12t-69 -2.5z" />
<glyph unicode="C" horiz-adv-x="565" d="M279 -10q-27 0 -49.5 1.5t-48.5 6.5t-44.5 13t-38.5 21.5t-31 33t-21.5 45.5t-9.5 60.5t5 77.5l27 190q9 65 32 112t52 74t69.5 42.5t76.5 20t82 4.5q126 0 180 -27q3 -3 1 -6l-66 -132q-1 -3 -6 -3q-2 1 -18.5 4t-49 6t-62.5 3q-22 0 -36.5 -3t-33 -13t-30.5 -35 t-18 -64l-23 -159q-10 -70 11 -90.5t73 -20.5q22 0 45 1.5t40.5 3.5t32 4t22.5 3l9 2q2 2 4 -2l28 -133q1 -2 -3 -6q-70 -35 -201 -35z" />
<glyph unicode="D" horiz-adv-x="620" d="M216 157h74q23 0 36.5 3t28.5 14t24.5 35.5t14.5 64.5l18 134q7 32 3.5 53.5t-7 34t-15.5 18.5t-22.5 7.5t-28.5 1.5h-74zM268 0h-248l96 680h248q41 0 68 -2.5t66 -16t60 -39t32.5 -76.5t1.5 -123l-22 -161q-10 -73 -35 -124.5t-52.5 -77.5t-70 -40.5t-71.5 -17 t-73 -2.5z" />
<glyph unicode="E" horiz-adv-x="549" d="M20 0l96 680h441q3 0 3 -4l-20 -141q0 -4 -4 -4h-267l-16 -114h220q4 0 3 -4l-20 -140q0 -4 -4 -4h-220l-17 -120h267q4 0 3 -4l-19 -141q-2 -4 -5 -4h-441z" />
<glyph unicode="F" horiz-adv-x="544" d="M24 0q-4 0 -4 4l95 676h441q4 0 4 -4l-20 -141q0 -4 -5 -4h-267l-20 -143h220q4 0 4 -4l-20 -141q0 -4 -5 -4h-220l-33 -235q0 -4 -4 -4h-166z" />
<glyph unicode="G" horiz-adv-x="618" d="M280 -10q-44 0 -76 3.5t-69.5 18.5t-59 41.5t-32 76t-1.5 118.5l26 191q9 69 35.5 118.5t57 74.5t75 39t75 17t72.5 3q58 0 111.5 -7t76 -13t26.5 -8q3 -1 1 -6l-57 -129q-1 -3 -6 -3q-1 1 -26.5 3.5t-68.5 5.5t-79 3q-23 0 -38 -3t-33.5 -13t-31 -34.5t-17.5 -63.5 l-23 -163q-10 -71 11.5 -92.5t72.5 -21.5l102 6l14 100h-79q-4 0 -3 4l18 133q1 4 5 4h222l-54 -381q-166 -22 -247 -22z" />
<glyph unicode="H" horiz-adv-x="646" d="M24 0q-4 0 -4 4l95 672q0 4 4 4h166q4 0 4 -4l-37 -261h178l37 261q0 4 4 4h167q3 0 3 -4l-95 -672q0 -4 -3 -4h-167q-4 0 -4 4l37 262h-178l-37 -262q0 -4 -4 -4h-166z" />
<glyph unicode="I" horiz-adv-x="294" d="M24 0q-4 0 -4 4l95 672q0 4 4 4h166q4 0 4 -4l-95 -672q0 -4 -4 -4h-166z" />
<glyph unicode="J" horiz-adv-x="524" d="M168 -10q-19 0 -36.5 1t-32 2.5t-27.5 3.5t-23 4t-18.5 4t-14.5 4.5t-10.5 4l-7.5 2.5l-2 1q-3 1 -1 6l59 132q2 5 6 3q30 -10 124 -10q88 0 99 73l63 455q1 4 5 4h166q4 0 3 -4l-66 -470q-8 -59 -30.5 -101t-49 -64t-66 -34t-69 -14.5t-71.5 -2.5z" />
<glyph unicode="K" horiz-adv-x="647" d="M24 0q-4 0 -4 4l95 672q0 4 4 4h166q4 0 4 -4l-37 -262h40q179 258 182 262t5 4h181q4 0 1 -4l-239 -332q155 -337 157 -340q3 -4 -1 -4h-181q-3 0 -6 4l-110 261h-50l-37 -261q0 -4 -4 -4h-166z" />
<glyph unicode="L" horiz-adv-x="534" d="M20 0l95 676q0 4 5 4h166q3 0 3 -4l-74 -527h267q4 0 3 -4l-19 -141q-2 -4 -5 -4h-441z" />
<glyph unicode="M" horiz-adv-x="801" d="M24 0q-4 0 -4 4l95 672q0 4 4 4h197q4 0 6 -3l88 -300h14q166 295 167 298q2 5 8 5h195q4 0 4 -4l-95 -672q0 -4 -4 -4h-164q-3 0 -3 4l50 356h-15q-118 -210 -120 -213q-3 -4 -8 -4h-115q-5 0 -7 6l-62 211h-14l-50 -356q0 -4 -4 -4h-163z" />
<glyph unicode="N" horiz-adv-x="668" d="M20 0q-4 0 -4 4l95 672q0 4 5 4h181q5 0 6 -3l136 -377h11l53 376q0 4 3 4h164q5 0 4 -4l-95 -672q0 -4 -5 -4h-185q-5 0 -6 4l-135 375h-11l-53 -375q0 -4 -4 -4h-160z" />
<glyph unicode="O" horiz-adv-x="618" d="M289 145q49 0 71 20t32 95l22 162q10 74 -6.5 93.5t-64.5 19.5q-24 0 -37.5 -2.5t-28 -13t-23.5 -34.5t-14 -63l-23 -162q-10 -75 6 -95t66 -20zM267 -11q-22 0 -38.5 1t-37 3t-36 6.5t-33 11t-30 17t-24.5 24.5t-19 33.5t-11.5 43t-4 53.5t5.5 66l27 189q10 68 33 116.5 t50 74.5t67 40.5t72 18t77 3.5q21 0 37 -0.5t36.5 -2.5t36 -6.5t33 -11t30 -17t25 -24t19.5 -32t12 -41.5t4.5 -53t-5.5 -65l-27 -189q-10 -72 -34 -122.5t-50.5 -76.5t-68 -40t-71 -17t-75.5 -3z" />
<glyph unicode="P" horiz-adv-x="603" d="M245 366h87q14 0 30 3.5t34 17.5t22 38l7 44q4 26 -8.5 40.5t-27.5 18t-34 3.5h-87zM190 0h-166q-4 0 -4 4l95 676h271q243 0 215 -195l-11 -75q-28 -193 -269 -193h-97l-30 -213q0 -4 -4 -4z" />
<glyph unicode="Q" horiz-adv-x="618" d="M267 -11q-22 0 -38.5 1t-37 3t-36 6.5t-33 11t-30 17t-24.5 24.5t-19 33.5t-11.5 43t-4 53.5t5.5 66l27 189q10 68 33 116.5t50 74.5t67 40.5t72 18t77 3.5q21 0 37 -0.5t36.5 -2.5t36 -6.5t33 -11t30 -17t25 -24t19.5 -32t12 -41.5t4.5 -53t-5.5 -65l-27 -189 q-14 -100 -52 -158l31 -38q1 -3 -1 -5t-50 -45l-47 -42q-3 -3 -6 0l-38 44q-51 -15 -136 -15zM260 178q-2 2 1 6l99 87q4 4 4 0l3 -3q3 -4 9.5 -11.5t12.5 -15.5l3 19l22 162q10 74 -6.5 93.5t-64.5 19.5q-24 0 -37.5 -2.5t-28 -13t-23.5 -34.5t-14 -63l-23 -162 q-3 -40 -3.5 -63t11.5 -34.5t24.5 -14.5t37.5 -3z" />
<glyph unicode="R" horiz-adv-x="618" d="M244 366h88q15 0 31 4t34.5 19t21.5 40l5 37q5 37 -18 51t-52 14h-87zM189 0h-165q-4 0 -4 4l95 676h271q24 0 45.5 -2.5t50.5 -9t50.5 -21t40 -36.5t25.5 -58t1 -82l-7 -49q-9 -64 -41 -108.5t-74 -64.5l73 -245q1 -4 -3 -4h-184q-4 0 -5 4l-54 213h-81l-30 -213 q0 -4 -4 -4z" />
<glyph unicode="S" horiz-adv-x="595" d="M253 -10q-73 0 -134 9.5t-79 16t-26 10.5q-4 2 -2 6l59 137q0 3 5 3q81 -27 200 -27q42 0 66 7.5t27 30.5l5 35q3 20 -22.5 33.5t-81.5 20.5q-118 13 -161.5 49.5t-30.5 127.5l12 84q23 159 264 159q66 0 121.5 -8.5t73 -14.5t24.5 -9q4 -1 2 -6l-56 -130q-1 -3 -6 -3 q-4 1 -26.5 5.5t-67 9.5t-84.5 5q-65 0 -70 -36l-4 -31q-3 -22 14 -32.5t80 -18.5q120 -16 166 -55t34 -129l-12 -84q-6 -43 -28 -74.5t-49.5 -48.5t-67.5 -27t-72.5 -12.5t-72.5 -2.5z" />
<glyph unicode="T" horiz-adv-x="560" d="M157 0q-4 0 -4 4l74 523h-168q-4 0 -4 4l21 145q0 4 4 4h511q3 0 3 -4l-21 -145q0 -4 -3 -4h-169l-74 -523q0 -4 -4 -4h-166z" />
<glyph unicode="U" horiz-adv-x="635" d="M256 -10q-136 0 -180 61.5t-24 199.5l59 425q1 4 5 4h167q3 0 2 -4l-58 -413q-12 -52 -2 -84t54 -32h40q42 0 58.5 25.5t25.5 90.5l58 413q0 4 4 4h167q4 0 4 -4l-60 -425q-9 -65 -24.5 -108.5t-46 -80.5t-82 -54.5t-127.5 -17.5h-40z" />
<glyph unicode="V" horiz-adv-x="643" d="M181 0q-3 0 -5 3q1 2 -52 336.5t-53 336.5q0 4 4 4h174q3 0 4 -4l53 -434h18q178 431 178 434q0 4 5 4h174q3 0 2 -4l-300 -672q-2 -4 -5 -4h-197z" />
<glyph unicode="W" horiz-adv-x="881" d="M100 0q-6 0 -6 5l-22 671q0 4 3 4h174q4 0 5 -4l5 -406h19q123 270 124 273q1 4 5 4h137q4 0 5 -5l49 -272h19q118 403 119 406q1 4 5 4h174q5 0 3 -4l-210 -671q-1 -5 -7 -5h-209q-6 0 -6 5l-42 267h-12q-115 -260 -117 -266t-8 -6h-207z" />
<glyph unicode="X" horiz-adv-x="609" d="M-25 0q-4 0 -3 4l247 347q-138 322 -140 325q-3 4 3 4h181q4 0 5 -4l65 -163h7q107 160 109 163q3 4 5 4h181q5 0 3 -4l-231 -325q147 -345 148 -347q1 -4 -2 -4h-181q-4 0 -5 4l-73 185h-7q-124 -183 -125 -185q-3 -4 -6 -4h-181z" />
<glyph unicode="Y" horiz-adv-x="597" d="M175 0q-4 0 -4 4l36 255q-140 414 -141 417q-1 4 4 4h175q5 0 5 -4l70 -231h6q132 228 133 231q1 4 5 4h172q4 0 3 -4l-258 -417l-36 -255q-1 -4 -3 -4h-167z" />
<glyph unicode="Z" horiz-adv-x="555" d="M5 0q-4 0 -4 4l20 140q0 2 7 12l309 361l2 11h-249q-2 0 -2 4l20 144q0 4 3 4h451q4 0 4 -4l-20 -139q-1 -8 -6 -13l-309 -361l-2 -11h259q4 0 3 -4l-20 -144q-1 -4 -4 -4h-462z" />
<glyph unicode="[" horiz-adv-x="318" d="M6 -94l119 844h222q3 0 3 -4l-17 -119q0 -4 -4 -4h-84l-83 -590h84q3 0 3 -4l-16 -119q-2 -4 -5 -4h-222z" />
<glyph unicode="\" horiz-adv-x="446" d="M355 -5h-154q-4 0 -4 4l-90 684q0 4 2 4h155q5 0 5 -4t44 -343t45 -341q1 -4 -3 -4z" />
<glyph unicode="]" horiz-adv-x="318" d="M206 -94h-222q-4 0 -4 4l17 119q0 4 5 4h84l83 590h-84q-4 0 -4 4l17 119q0 4 5 4h222z" />
<glyph unicode="^" horiz-adv-x="556" d="M43 246l223 430q2 4 4 4h125q3 0 5 -4l99 -430q2 -4 -3 -4h-144q-3 0 -4 4l-44 222h-3q-106 -220 -107 -222q-2 -4 -6 -4h-143q-4 0 -2 4z" />
<glyph unicode="_" horiz-adv-x="548" d="M-49 -169q-4 0 -4 4l16 109q0 4 4 4h520q4 0 4 -4l-16 -109q0 -4 -4 -4h-520z" />
<glyph unicode="`" horiz-adv-x="489" d="M270 550l-81 148q-1 4 3 4h139q4 0 5 -4l55 -148q1 -4 -2 -4h-115q-2 0 -4 4z" />
<glyph unicode="a" horiz-adv-x="527" d="M217 107q68 0 72 23l7 51q-38 14 -74 14q-19 0 -36 -8t-19 -21l-3 -19q-3 -19 13 -29.5t40 -10.5zM144 -12q-66 0 -103 32t-29 92l7 55q8 63 60.5 96.5t117.5 33.5q24 0 52.5 -3.5t44.5 -6.5l16 -3l6 42q3 23 -15 32t-68 9q-17 0 -35.5 -1t-34 -3t-28.5 -4t-21 -3t-9 -1 q-4 0 -5 3q-1 2 -6 53.5t-5 52.5q0 4 4 5q4 3 22.5 9t63.5 13t95 7q36 0 61.5 -2t58 -12t50.5 -27.5t28.5 -52t3.5 -82.5l-45 -318q0 -4 -4 -4h-152q-4 0 -4 4l1 7q-33 -23 -128 -23z" />
<glyph unicode="b" horiz-adv-x="551" d="M272 132q14 0 24 3t22 22t17 55l9 64q7 50 -1 64.5t-30 14.5q-16 0 -36 -3.5t-32 -7.5l-12 -3l-26 -184q-2 -12 12.5 -18.5t52.5 -6.5zM182 0h-160q-4 0 -4 4l95 672q0 4 5 4h160q2 0 2 -4l-28 -197q80 14 112 14q17 0 30.5 -1t30.5 -4t28.5 -9.5t25 -16.5t20 -25.5 t13.5 -36.5t5.5 -49t-4.5 -64l-11 -84q-8 -58 -25.5 -99t-36.5 -62t-48.5 -32.5t-50.5 -13.5t-53 -2q-85 0 -101 21l-1 -11q0 -4 -4 -4z" />
<glyph unicode="c" horiz-adv-x="490" d="M240 -8q-27 0 -47.5 1t-44 4.5t-38.5 9.5t-32 16.5t-25 25t-16.5 35t-7 47.5t3.5 61l15 110q9 64 36 106t68.5 60t76.5 23.5t83 5.5q96 0 146 -25q3 -2 2 -6l-47 -110q-2 -3 -6 -3q-1 0 -6.5 0.5t-16 1.5t-23 2t-29.5 1.5t-34 0.5q-11 0 -22.5 -2.5t-25 -9.5t-23.5 -22 t-13 -36l-12 -87q-6 -45 11 -58.5t52 -13.5q94 0 112 9q6 0 6 -3q0 -2 10.5 -57.5t10.5 -56.5q0 -4 -3 -5q-75 -25 -161 -25z" />
<glyph unicode="d" horiz-adv-x="551" d="M449 0h-160q-3 0 -3 4l2 12q-27 -25 -108 -25q-17 0 -28.5 0.5t-28 3t-27.5 6.5t-24.5 11.5t-21.5 18t-16 26.5t-11 36t-2.5 47.5t5.5 60.5l13 87q8 55 25 94.5t36 60.5t46.5 33t48.5 14.5t50 2.5q15 0 41.5 -3.5t45.5 -7.5l20 -3l28 197q0 4 6 4h159q2 0 2 -4l-94 -672 q-1 -4 -4 -4zM237 129q66 0 70 28l26 184q-39 14 -76 14q-21 0 -33 -14.5t-19 -63.5l-9 -68q-1 -29 -1 -45t9.5 -24t15.5 -9.5t17 -1.5z" />
<glyph unicode="e" horiz-adv-x="528" d="M208 292h109q9 67 -44 67q-21 0 -40.5 -15t-24.5 -52zM235 -10q-32 0 -59 3t-60 16t-54.5 34.5t-32.5 63t-3 97.5l12 84q30 209 255 209q30 0 54 -3t54 -15.5t49 -33.5t28.5 -61.5t1.5 -95.5l-14 -97h-272q-6 -38 11 -52.5t51 -14.5q37 0 77 3.5t61.5 6.5t24.5 4 q4 1 4 -3q13 -91 13 -106q0 -8 -3 -9l-4 -2l-10 -2.5t-14.5 -4t-19 -4.5t-23 -4.5t-27.5 -5t-30.5 -4t-33.5 -2.5t-36 -1z" />
<glyph unicode="f" horiz-adv-x="378" d="M43 0q-4 0 -4 4l51 361h-40q-2 0 -2 4l16 114q0 4 3 4h41v3q3 54 20 92.5t38.5 58t54.5 30.5t55.5 13t54.5 2q22 0 46 -2.5t37 -4.5t15 -3q4 -1 2 -5q-9 -43 -32 -121q-1 -3 -5 -3q-1 0 -11 1t-24 2t-23 1q-57 0 -60 -61v-3h93q4 0 4 -4l-16 -114q0 -4 -5 -4h-94 l-51 -361q0 -4 -4 -4h-160z" />
<glyph unicode="g" horiz-adv-x="546" d="M222 131q15 0 35 3.5t33 7.5l12 4l26 183q1 8 -2.5 13t-18.5 9t-43 4q-11 0 -19 -2.5t-18 -10t-16.5 -25t-10.5 -43.5l-9 -64q-7 -49 1 -64t30 -15zM173 -220q-119 0 -185 22q-3 2 0 5q0 2 24 58t26 60q2 5 6 3q1 0 8.5 -1t20.5 -3t29.5 -3.5t39 -2.5t45.5 -1 q17 0 29.5 2t26.5 8t23 20t13 36l5 31q-76 -14 -112 -14q-17 0 -30 0.5t-28 3t-26.5 7t-23.5 12t-19.5 17.5t-14.5 25t-9.5 34t-2.5 44.5t4 55.5l11 84q8 56 24 95.5t34.5 61.5t46.5 34.5t52 15.5t57 3q81 0 101 -22l2 12q0 4 4 4h159q4 0 4 -4l-71 -500q-7 -47 -21 -82 t-36 -56.5t-44.5 -35t-54.5 -19.5t-56.5 -8t-60.5 -2z" />
<glyph unicode="h" horiz-adv-x="563" d="M22 0q-4 0 -4 4l95 672q0 4 4 4h160q3 0 3 -4l-29 -202q76 19 113 19q15 0 26 -0.5t26.5 -3t26.5 -6.5t23.5 -11.5t21 -18t16 -26t11 -35t3.5 -46t-5 -58.5l-40 -284q0 -4 -4 -4h-160q-3 0 -3 4l39 273q7 35 1 52.5t-12.5 21t-20.5 3.5q-15 0 -35 -4t-32 -8l-13 -3 l-48 -335q0 -4 -3 -4h-160z" />
<glyph unicode="i" horiz-adv-x="283" d="M21 0q-4 0 -4 4l68 479q0 4 4 4h160q3 0 3 -4l-68 -479q0 -4 -3 -4h-160zM98 550q-3 0 -3 4l17 122q0 4 4 4h159q4 0 4 -4l-17 -122q0 -4 -5 -4h-159z" />
<glyph unicode="j" horiz-adv-x="303" d="M-17 -186q-19 0 -43 2.5t-40 5.5l-16 2q-2 2 -2 4q0 1 16.5 61.5t17.5 63.5t5 3q1 0 10.5 -1t23 -2t23.5 -1q14 0 24 2.5t22 18t16 44.5l65 466q1 4 5 4h160q4 0 3 -4l-66 -466q-8 -55 -26.5 -95t-39.5 -60.5t-52 -31.5t-53 -13.5t-53 -2.5zM118 550q-2 0 -2 4l17 122 q0 4 4 4h159q3 0 3 -4l-17 -122q0 -4 -5 -4h-159z" />
<glyph unicode="k" horiz-adv-x="567" d="M22 0q-4 0 -4 4l95 672q0 4 4 4h160q3 0 3 -4l-50 -359h34q115 163 117 166q3 4 6 4h175q3 0 1 -4l-171 -231q124 -246 125 -248q2 -4 -1 -4h-178q-3 0 -6 4l-87 182h-34l-26 -182q0 -4 -3 -4h-160z" />
<glyph unicode="l" horiz-adv-x="337" d="M206 -6q-30 0 -50 1.5t-41.5 6t-34 13.5t-23.5 23.5t-15 36.5t-4.5 52t5.5 70l68 479q0 4 4 4h159q3 0 3 -4l-68 -479q-6 -39 5.5 -52t37.5 -13q9 0 21 1t20 2t9 1q3 0 4 -4v-26q0 -100 -6 -102q-1 -1 -14.5 -3t-36.5 -4.5t-43 -2.5z" />
<glyph unicode="m" horiz-adv-x="842" d="M22 0q-4 0 -4 4l68 479q0 4 4 4h160q3 0 3 -4l-2 -9q75 19 110 19q51 0 78.5 -10.5t45.5 -31.5q84 42 157 42q21 0 37 -1.5t35 -6.5t31 -14.5t25 -24.5t17 -36.5t7 -52t-5 -69.5l-40 -284q0 -4 -4 -4h-159q-4 0 -4 4l39 273q7 36 1.5 53t-11.5 20.5t-20 3.5 q-15 0 -34.5 -5t-31.5 -10l-12 -5q-1 -18 -5 -46l-40 -284q0 -4 -4 -4h-160q-3 0 -3 4l39 273q7 35 1.5 52.5t-12 21t-19.5 3.5q-15 0 -34 -4t-31 -8l-12 -3l-48 -335q0 -4 -3 -4h-160z" />
<glyph unicode="n" horiz-adv-x="563" d="M22 0q-4 0 -4 4l68 479q0 4 4 4h160q3 0 3 -4l-2 -9q78 19 113 19q15 0 26 -0.5t26.5 -3t26.5 -6.5t23.5 -11.5t21 -18t16 -26t11 -35t3.5 -46t-5 -58.5l-40 -284q0 -4 -4 -4h-160q-3 0 -3 4l39 273q7 49 -1.5 63t-30.5 14q-15 0 -35 -4t-32 -8l-13 -3l-48 -335 q0 -4 -3 -4h-160z" />
<glyph unicode="o" horiz-adv-x="533" d="M245 130q19 0 31 4t23.5 22.5t16.5 53.5l10 71q7 48 -7 63t-43 15q-18 0 -29.5 -4t-23 -22t-16.5 -52l-10 -71q-7 -50 5.5 -65t42.5 -15zM226 -8q-24 0 -43.5 1.5t-41.5 5t-37.5 10.5t-32 17.5t-25 26t-17 37t-7 49.5t4.5 63l13 87q10 69 35 113t64 63.5t73 25.5t84 6 q49 0 81.5 -5.5t67 -24.5t47.5 -63t3 -112l-13 -90q-8 -56 -27 -96t-41.5 -62t-56.5 -34t-62.5 -15t-68.5 -3z" />
<glyph unicode="p" horiz-adv-x="551" d="M90 487h160q3 0 3 -4l-2 -12q22 22 106 22q17 0 29 -0.5t28 -3t27.5 -6.5t24.5 -11.5t21.5 -18t16 -26.5t11 -36t3.5 -47.5t-5 -60.5l-12 -86q-8 -55 -25 -94.5t-36.5 -60.5t-47.5 -33t-49 -14.5t-50 -2.5q-14 0 -41 3t-46 7l-20 3l-28 -194q0 -4 -4 -4h-159q-4 0 -4 4 l95 672q0 4 4 4zM302 355q-68 0 -71 -25l-26 -187q40 -13 75 -13q23 0 35 14.5t19 63.5l10 67q2 29 1 45t-10 23.5t-16 9.5t-17 2z" />
<glyph unicode="q" horiz-adv-x="551" d="M269 355q-10 0 -17.5 -2t-17.5 -9t-17 -24.5t-11 -44.5l-9 -67q-7 -49 1 -63.5t29 -14.5q16 0 35.5 3t31.5 7l12 3l27 187q2 12 -12 18.5t-52 6.5zM359 487h160q2 0 2 -4l-94 -672q-1 -4 -4 -4h-160q-4 0 -3 4l27 194q-79 -13 -112 -13q-17 0 -30 1t-30.5 4t-28.5 9 t-25 16.5t-20 25.5t-13.5 36t-5.5 49t5 64l12 86q8 58 25.5 99t36.5 62.5t48.5 33t50 13.5t52.5 2q83 0 100 -22l2 12q0 4 5 4z" />
<glyph unicode="r" horiz-adv-x="436" d="M22 0q-4 0 -4 4l68 479q0 4 4 4h160q3 0 3 -4l-2 -14q59 24 92 24q75 0 107 -21q2 -2 2 -3q0 -9 -55 -119q-1 -3 -5 -3q-24 8 -85 8q-15 0 -34 -6t-31 -12l-11 -6l-46 -327q0 -4 -3 -4h-160z" />
<glyph unicode="s" horiz-adv-x="508" d="M213 -8q-125 0 -200 25q-3 1 -3 5l50 113q1 2 4 2l10 -2q11 -2 27.5 -4.5t37 -4.5t45.5 -4t47 -2q54 0 56 19l2 17q1 14 -13.5 19.5t-60.5 10.5q-73 8 -118 37t-37 86l8 60q18 128 215 128q111 0 183 -24q2 -2 2 -3q0 -2 -21.5 -54t-23.5 -55q-1 -3 -5 -3q-3 1 -22 4 t-56 6t-71 3q-45 0 -48 -16l-2 -17q-1 -6 4 -10.5t16.5 -7.5t26.5 -5.5t39 -4.5q80 -9 116.5 -38t28.5 -85l-9 -61q-5 -35 -21.5 -60t-38 -39t-52 -22t-56.5 -10.5t-60 -2.5z" />
<glyph unicode="t" horiz-adv-x="365" d="M221 -5q-26 0 -42 1t-36.5 3.5t-32 8.5t-25 15.5t-20 24.5t-11 36t-3.5 49.5t6 64.5l24 168h-44q-3 0 -3 4l16 114q0 4 4 4h44l21 149q0 4 5 4h160q3 0 3 -4l-21 -149h89q4 0 4 -4l-16 -114q0 -4 -5 -4h-89l-24 -168q-4 -29 2 -44t15 -18t25 -3q11 0 22.5 1t19 2t8.5 1 q2 0 3 -4v-13.5v-30.5t-0.5 -35.5t-0.5 -30.5v-13q0 -2 -3 -5q-40 -10 -95 -10z" />
<glyph unicode="u" horiz-adv-x="566" d="M534 487q3 0 3 -4l-68 -479q0 -4 -3 -4h-160q-4 0 -4 4l1 7q-77 -19 -110 -19q-15 0 -26.5 0.5t-26.5 3t-26.5 6.5t-24 11.5t-21 18t-16.5 26t-11.5 35t-3.5 46t5 58.5l41 286q0 4 3 4h160q4 0 4 -4l-39 -275q-7 -49 1.5 -63t30.5 -14q15 0 34.5 3.5t32.5 7.5l12 4 l48 337q0 4 4 4h160z" />
<glyph unicode="v" horiz-adv-x="529" d="M146 0q-3 0 -4 4l-99 479q-1 4 2 4h168q5 0 5 -4l34 -254h13q101 252 103 254q0 4 4 4h167q3 0 2 -4q-2 -2 -118 -240t-117 -239q-2 -4 -4 -4h-156z" />
<glyph unicode="w" horiz-adv-x="738" d="M99 0q-1 0 -2 4q-1 1 -22 237t-21 242q0 4 4 4h161q4 0 4 -4l12 -252h7q83 154 85 157q3 4 5 4h108q2 0 3 -4l43 -157h7q77 249 77 252q2 4 7 4h161q2 0 1 -4q0 -2 -86.5 -240t-87.5 -239q-1 -4 -6 -4h-146q-3 0 -3 4l-48 193h-7q-103 -190 -104 -193q-1 -4 -5 -4h-147z " />
<glyph unicode="x" horiz-adv-x="533" d="M-20 0q-3 0 -1 4l191 248q-113 228 -114 231q-2 4 2 4h174q3 0 6 -4l38 -96h10q65 93 67 96q4 4 6 4h170q4 0 2 -4l-177 -231q121 -246 122 -248q1 -4 -3 -4h-172q-2 0 -5 4l-49 113h-10q-78 -110 -80 -113q-3 -4 -7 -4h-170z" />
<glyph unicode="y" horiz-adv-x="528" d="M8 -180q-5 0 -3 4q1 2 16 64.5t15 63.5q0 4 6 4h29q45 0 66 43l13 30q-105 451 -106 454q-2 4 2 4h166q5 0 5 -4l41 -239h9q102 236 103 239q2 4 5 4h163q3 0 2 -4q-7 -20 -277 -538q-18 -36 -37 -59.5t-35 -36.5t-38.5 -19.5t-39 -8t-45.5 -1.5h-60z" />
<glyph unicode="z" horiz-adv-x="491" d="M14 0q-4 0 -4 4l17 121l1 1q1 2 2 3.5t3 2.5l219 215l1 7h-183q-4 0 -4 4l18 125q0 4 4 4h381q4 0 4 -4l-18 -125q0 -2 -4 -6l-218 -211l-1 -8h192q3 0 3 -4l-18 -125q0 -4 -4 -4h-391z" />
<glyph unicode="{" horiz-adv-x="372" d="M208 -91q-71 0 -98 33t-17 104l18 129q7 48 -5.5 69.5t-53.5 21.5q-4 0 -4 4l17 119q0 4 5 4q42 0 60 23t25 68l18 129q10 71 45.5 104t107.5 33h73q3 0 3 -4l-16 -116q0 -4 -5 -4h-29q-24 0 -33.5 -11.5t-12.5 -31.5l-17 -122q-8 -61 -28 -87t-60 -43v-3 q35 -16 47 -42.5t4 -86.5l-17 -123q-3 -21 3.5 -32t31.5 -11h28q4 0 4 -4l-17 -116q0 -4 -4 -4h-73z" />
<glyph unicode="|" horiz-adv-x="346" d="M56 -94q-4 0 -4 4l118 836q0 4 4 4h128q3 0 3 -4l-118 -836q0 -4 -3 -4h-128z" />
<glyph unicode="}" horiz-adv-x="372" d="M59 -91h-73q-3 0 -3 4l17 116q0 4 3 4h29q24 0 33.5 11.5t12.5 31.5l17 123q8 60 28.5 86.5t60.5 42.5v3q-35 17 -47.5 43t-4.5 87l17 122q6 43 -33 43h-30q-2 0 -2 4l16 116q0 4 4 4h73q72 0 99 -33t17 -104l-18 -129q-7 -45 5 -68t53 -23q3 0 3 -4l-17 -119q0 -4 -4 -4 q-40 0 -58.5 -21.5t-25.5 -69.5l-18 -129q-10 -71 -46.5 -104t-107.5 -33z" />
<glyph unicode="~" horiz-adv-x="556" d="M78 293q1 12 11 20q7 7 19 16t38 19.5t52 10.5q41 0 95 -29t84 -29t67.5 22.5t38.5 22.5q4 0 3 -7l-11 -79q-2 -13 -10 -21t-20.5 -17.5t-39 -20.5t-51.5 -11q-40 0 -93 30.5t-83 30.5q-23 0 -47.5 -11t-41 -22t-19.5 -11q-5 0 -3 5z" />
<glyph unicode="&#xa1;" horiz-adv-x="304" d="M143 680h148q4 0 4 -4l-19 -135q0 -4 -5 -4h-148q-3 0 -3 4l19 135q0 4 4 4zM119 469h138q2 0 2 -4l-65 -461q0 -4 -3 -4h-138q-3 0 -3 4l65 461q1 4 4 4z" />
<glyph unicode="&#xa2;" horiz-adv-x="533" d="M193 -97q-4 0 -4 4l13 89q-13 1 -20 2t-21 3.5t-22.5 5.5t-22 8.5t-21 13.5t-17.5 18.5t-14.5 24.5t-8.5 31.5t-4 40.5t4 49l15 104q7 48 25.5 84t38.5 55t49 31.5t46.5 16.5t41.5 6l13 89q0 4 4 4h90q4 0 3 -4l-12 -87q78 -4 112 -27q3 -1 2 -5l-54 -111q-1 -2 -4 -2 q-1 0 -6 1t-14 2t-20.5 2t-29 2t-36.5 1q-72 0 -82 -71l-11 -80q-6 -44 10.5 -58t51.5 -14q30 0 57 2.5t39.5 4.5t14.5 3q6 0 6 -3q0 -2 11 -57t12 -57q2 -6 -3 -6l-5 -2q-6 -2 -17 -5.5t-25 -7t-35.5 -6t-44.5 -3.5l-12 -88q-1 -4 -3 -4h-90z" />
<glyph unicode="&#xa3;" horiz-adv-x="556" d="M47 0q-4 0 -4 4l36 253h-30q-3 0 -3 4l15 105q0 4 4 4h29l21 147q24 169 254 169q54 0 99.5 -9t61.5 -16t19 -10q4 -1 2 -6q-1 -3 -24.5 -65.5t-24.5 -63.5q-2 -3 -5 -3q-5 2 -23 6t-55 9.5t-68 5.5q-57 0 -64 -45l-17 -119h146q2 0 2 -4l-15 -105q0 -4 -3 -4h-145 l-15 -105h231q3 0 3 -4l-20 -144q0 -4 -4 -4h-403z" />
<glyph unicode="&#xa4;" horiz-adv-x="494" d="M237 214q18 0 30 3t24 16.5t15 38.5l3 25q4 35 -10 45.5t-39 10.5q-66 0 -72 -56l-3 -25q-4 -34 9.5 -46t42.5 -12zM151 51h-104q-3 0 -3 3q0 51 47 100q-28 37 -19 99l9 65q9 65 49 96q-25 29 -25 74q0 28 8 28h103q3 0 3 -5q0 -25 15 -33.5t42 -8.5q55 0 62 43q0 4 6 4 h103q3 0 3 -3q0 -53 -45 -99q26 -34 18 -96l-9 -65q-9 -66 -48 -101q23 -33 23 -72q0 -29 -8 -29h-102q-3 0 -3 4q0 25 -14.5 34t-42.5 9q-17 0 -28 -2.5t-21 -12.5t-13 -28q0 -4 -6 -4z" />
<glyph unicode="&#xa5;" horiz-adv-x="591" d="M173 0q-5 0 -4 4l16 116h-110q-4 0 -4 4l12 85q0 4 5 4h111l5 37h-111q-4 0 -4 4l12 85q0 4 5 4h69q-110 331 -111 333q-2 4 3 4h175q4 0 5 -4l70 -231h7q131 228 133 231q3 4 5 4h172q3 0 2 -4l-204 -333h66q4 0 3 -4l-12 -85q0 -4 -4 -4h-107l-5 -37h107q3 0 3 -4 l-12 -85q0 -4 -4 -4h-109l-16 -116q-1 -4 -4 -4h-165z" />
<glyph unicode="&#xa6;" horiz-adv-x="346" d="M55 -94q-4 0 -4 4l51 358q0 4 4 4h128q3 0 3 -4l-51 -358q0 -4 -3 -4h-128zM123 389q-4 0 -4 4l50 353q0 4 4 4h128q3 0 3 -4l-50 -353q0 -4 -3 -4h-128z" />
<glyph unicode="&#xa7;" horiz-adv-x="524" d="M322 303q9 26 9 28l2 14q1 7 -11.5 8t-35.5 6t-42 19q-2 2 -6 2q-7 -2 -15.5 -10t-9.5 -19l-2 -14q-2 -12 24.5 -19t69.5 -12q5 -1 10.5 -2t6.5 -1zM15 25q-5 2 -2 6q0 1 26 54t27 54q2 3 6 3q1 -1 24 -5.5t63 -9.5t75 -5q54 0 56 19l2 14q2 14 -12.5 19.5t-62.5 10.5 q-28 3 -53 9t-52 19t-41 37.5t-9 56.5l8 58q5 38 35 68q-22 25 -16 66l8 58q18 129 215 129q96 0 180 -28q5 -2 3 -5q0 -2 -23.5 -52.5t-23.5 -52.5q0 -3 -5 -3q-3 1 -21 4t-54 6.5t-70 3.5q-46 0 -48 -16l-2 -14q-1 -6 5 -10.5t18.5 -8t27 -5.5t36.5 -4q73 -8 112.5 -34.5 t31.5 -87.5l-8 -61q-4 -35 -33 -61q21 -26 14 -69l-8 -60q-5 -36 -22 -61.5t-38.5 -39.5t-53.5 -21.5t-56.5 -9.5t-57.5 -2q-108 0 -201 31z" />
<glyph unicode="&#xa8;" horiz-adv-x="489" d="M125 550q-4 0 -3 4l17 122q0 4 5 4h118q2 0 2 -4l-17 -122q0 -4 -4 -4h-118zM320 550q-4 0 -3 4l17 122q0 4 5 4h117q3 0 3 -4l-17 -122q0 -4 -5 -4h-117z" />
<glyph unicode="&#xa9;" horiz-adv-x="772" d="M441 686q123 0 203.5 -87.5t80.5 -217.5q0 -103 -53.5 -193t-141.5 -142.5t-186 -52.5q-123 0 -203.5 88t-80.5 216q0 157 115.5 273t265.5 116zM355 74q115 0 203 89t88 209q0 99 -61 166t-155 67q-114 0 -202 -89t-88 -209q0 -98 61 -165.5t154 -67.5zM381 152 q-83 0 -124.5 32.5t-29.5 120.5l10 74q20 148 197 148q70 0 108 -19q2 -2 2 -4l-38 -85q0 -1 -3 -1h-4q-4 1 -11.5 2t-16.5 2t-21.5 1.5t-24.5 0.5q-55 0 -63 -53l-8 -60q-3 -19 0 -31t11 -16.5t15.5 -6t20.5 -1.5q14 0 27.5 1t23 2t16.5 2t12 2l4 1q2 0 4 -2q0 -1 7 -42.5 t7 -43.5t-3 -4q-40 -20 -118 -20z" />
<glyph unicode="&#xaa;" horiz-adv-x="301" d="M128 384q-42 0 -63.5 20.5t-16.5 54.5l5 32q6 36 34.5 55.5t65.5 19.5l77 -8l4 26q4 23 -9 30.5t-45 7.5q-11 0 -22.5 -1t-20.5 -2t-16.5 -2.5l-12.5 -2.5l-4 -1q-2 0 -3 2l-6 48q0 3 1 3q34 17 102 17q26 0 43 -2.5t36 -11.5t27 -30.5t3 -55.5l-27 -191q0 -2 -3 -2h-67 q-2 0 -2 2l2 12q-25 -20 -82 -20zM160 441q56 0 59 28l5 39q-36 8 -62 8q-37 0 -42 -26l-3 -16q-2 -14 9.5 -23.5t33.5 -9.5z" />
<glyph unicode="&#xab;" horiz-adv-x="630" d="M298 522q2 -2 37 -44t36 -43q3 -1 -1 -5l-181 -166q134 -164 135 -166q3 -1 -1 -5q-1 -1 -25 -22.5t-48 -42.5t-24 -22q-2 -2 -5 0q-2 2 -106 128t-104 127q-3 3 0 6l282 255q3 2 5 0zM558 522q2 -2 37 -44t36 -43q3 -1 -1 -5l-180 -166q133 -164 134 -166q3 -1 -1 -5 l-97 -87q-3 -3 -5 0q-1 2 -105 128t-105 127q-3 3 1 6q1 1 71 64.5t140 126.5t70 64q3 2 5 0z" />
<glyph unicode="&#xac;" horiz-adv-x="556" d="M352 209h-304q-3 0 -3 4l19 129q0 4 3 4h440q4 0 4 -4l-37 -258q0 -4 -4 -4h-132q-4 0 -4 4z" />
<glyph unicode="&#xad;" horiz-adv-x="400" d="M38 207q-3 0 -3 4l18 129q0 4 4 4h301q4 0 4 -4l-18 -129q0 -4 -5 -4h-301z" />
<glyph unicode="&#xae;" horiz-adv-x="434" d="M223 500h26q21 0 25 20l2 11q2 12 -5 16.5t-15 4.5h-25zM206 385h-51q-2 0 -2 1l30 213h83q11 0 21 -2t22 -8t18 -20.5t3 -35.5l-2 -15q-6 -41 -36 -55l22 -77q0 -1 -2 -1h-56q-1 0 -1 1l-15 67h-23l-10 -67zM224 341q66 0 115 49.5t49 117.5q0 56 -34.5 93.5t-87.5 37.5 q-64 0 -113.5 -50t-49.5 -117q0 -56 34.5 -93.5t86.5 -37.5zM272 684q70 0 115.5 -49.5t45.5 -121.5q0 -88 -65 -153t-150 -65q-68 0 -113.5 49.5t-45.5 121.5q0 88 64.5 153t148.5 65z" />
<glyph unicode="&#xaf;" horiz-adv-x="488" d="M435 563h-302q-4 0 -4 4l16 109q0 4 4 4h302q3 0 3 -4l-16 -109q0 -4 -3 -4z" />
<glyph unicode="&#xb0;" horiz-adv-x="404" d="M227 491q19 0 29.5 7t13.5 30l4 26q3 21 -5 28.5t-26 7.5q-39 0 -45 -36l-4 -26q-3 -22 6 -29.5t27 -7.5zM212 387q-60 0 -94.5 26t-24.5 98l9 62q17 121 158 121q26 0 46 -4.5t39.5 -16t27.5 -37t3 -63.5l-9 -62q-18 -124 -155 -124z" />
<glyph unicode="&#xb1;" horiz-adv-x="556" d="M203 207q-3 0 -3 4l20 139h-154q-4 0 -4 4l19 129q0 4 4 4h154l20 139q0 4 3 4h128q4 0 4 -4l-20 -139h152q4 0 4 -4l-19 -129q0 -4 -4 -4h-152l-20 -139q0 -4 -4 -4h-128zM18 0q-4 0 -4 4l18 125q0 4 4 4h440q4 0 4 -4l-18 -125q0 -4 -4 -4h-440z" />
<glyph unicode="&#xb2;" horiz-adv-x="311" d="M271 270h-234q-2 0 -2 2l9 63q0 2 3 5q126 119 154 154q27 32 30 51l4 29q2 16 -6.5 24.5t-18.5 10.5t-24 2q-11 0 -25 -1.5t-25 -3.5t-21 -4t-16 -4l-6 -1q-1 -1 -2 -0.5t-1 1.5t-3 29t-3 30t2 3q42 21 111 21q24 0 43 -3t39.5 -12t30 -29.5t5.5 -51.5l-6 -46 q-3 -23 -28 -57.5t-47 -57.5t-77 -78l-1 -6h125v-2l-9 -66q0 -2 -1 -2z" />
<glyph unicode="&#xb3;" horiz-adv-x="315" d="M38 285q0 1 -0.5 1t-0.5 1t11 31l11 29q0 1 3 1l6 -1q6 -1 16 -3t21.5 -4t25.5 -3t26 -1q54 0 60 37l4 26q7 46 -43 46h-46q-3 0 -3 2l9 62q0 2 3 2h47q16 0 29.5 10.5t16.5 28.5l4 25q2 16 -6.5 25t-18.5 11t-23 2q-18 0 -41 -3t-36.5 -6t-15.5 -4q-4 -2 -4 1 q0 1 -1.5 28.5t-1.5 30.5q0 2 1 3t14 5.5t40 9t55 4.5q25 0 44 -3t39.5 -12t29.5 -29t4 -50l-6 -39q-3 -18 -13 -34t-18 -23l-9 -8l-1 -5q4 -2 10 -6.5t14 -23.5t4 -43l-6 -44q-4 -30 -18 -50.5t-36 -29.5t-42.5 -12t-47.5 -3q-31 0 -58.5 4.5t-39.5 8.5z" />
<glyph unicode="&#xb4;" horiz-adv-x="489" d="M295 550q-4 -4 -6 -4h-114q-4 0 -1 4l95 148q3 4 8 4h138q4 0 1 -4z" />
<glyph unicode="&#xb6;" horiz-adv-x="670" d="M196 -180q-5 0 -4 4l55 394q-29 0 -60 8t-64.5 27.5t-51.5 60.5t-10 97l11 80q6 42 25.5 76t46 54.5t58 34.5t59.5 19t53 5h351q3 0 3 -4l-120 -852q0 -4 -3 -4h-144q-5 0 -4 4l101 719h-54l-101 -719q0 -4 -4 -4h-143z" />
<glyph unicode="&#xb7;" horiz-adv-x="273" d="M54 191q-4 0 -4 4l20 142q0 4 5 4h141q2 0 2 -4l-20 -142q0 -4 -3 -4h-141z" />
<glyph unicode="&#xb8;" horiz-adv-x="489" d="M217 -166h-139q-4 0 -2 4l105 168q3 4 6 4h114q3 0 2 -4l-80 -168q-2 -4 -6 -4z" />
<glyph unicode="&#xb9;" horiz-adv-x="304" d="M210 270h-71q-2 0 -2 2l45 321q-77 -50 -78 -51q-2 0 -3 1q0 1 -4 32t-4 32t4 4l95 66q1 1 4 1h71q3 0 3 -2l-57 -404q0 -2 -3 -2z" />
<glyph unicode="&#xba;" horiz-adv-x="300" d="M172 451q26 0 41.5 12t20.5 53l5 41q5 39 -6 51t-36 12q-16 0 -27 -3.5t-21.5 -18t-13.5 -41.5l-5 -41q-5 -41 6 -53t36 -12zM163 387q-29 0 -48 4t-37 15.5t-24 38t0 67.5l7 49q11 76 48 99.5t97 23.5q28 0 45.5 -3t36.5 -14.5t26 -37.5t1 -67l-7 -50 q-6 -42 -19.5 -68.5t-35.5 -38t-41.5 -15t-48.5 -3.5z" />
<glyph unicode="&#xbb;" horiz-adv-x="619" d="M316 6q-2 2 -37 44t-36 43q-3 1 1 5l180 166q-133 164 -134 166q-3 1 1 5l97 87q3 3 5 0q1 -2 105 -128t105 -127q3 -3 0 -6l-282 -255q-3 -2 -5 0zM65 6q-2 2 -37 44t-36 43q-3 1 1 5l181 166q-134 164 -135 166q-3 1 1 5q1 1 25 22.5t48 42.5t24 22q3 2 5 0l210 -255 q3 -3 0 -6l-282 -255q-2 -2 -5 0z" />
<glyph unicode="&#xbc;" horiz-adv-x="815" d="M168 -6q-3 0 -2 4q-1 1 99.5 171.5t200.5 340.5t97 172q4 4 6 4h85q5 0 2 -4l-397 -684q-3 -4 -6 -4h-85zM647 0h-66q-2 0 -2 2l9 63h-154q-1 0 -1 3l9 65l3 6q1 1 71.5 132.5t71.5 134.5q2 2 3 2h74v-2l-138 -265v-5h71l9 70q2 2 4 2h66q4 0 2 -2l-9 -70h36q2 0 2 -3 l-9 -65q0 -3 -3 -3h-36l-9 -63q0 -2 -4 -2zM248 272h-70q-2 0 -2 2l45 321q-77 -50 -78 -51q-2 0 -3 1q0 1 -4.5 32t-4.5 32t4 4l96 66q1 1 4 1h70q3 0 3 -2l-57 -404q0 -2 -3 -2z" />
<glyph unicode="&#xbd;" horiz-adv-x="848" d="M171 -6q-3 0 -3 4q-1 1 200 341.5t198 342.5q4 4 6 4h85q4 0 1 -4l-397 -684q-3 -4 -5 -4h-85zM720 0h-234q-1 0 -1 2l9 63q0 3 2 5q125 118 152 150q30 36 33 55l4 29q2 16 -6.5 24.5t-18.5 10.5t-24 2q-12 0 -25.5 -1.5t-25 -3.5t-21.5 -4t-16 -4l-6 -1l-1 1q0 1 -3 29 t-3 30q0 3 1 3q42 21 111 21q19 0 34 -1.5t33.5 -7.5t30 -15.5t18 -28t2.5 -43.5l-7 -46q-5 -35 -59.5 -110.5t-74.5 -82.5l-18 -6h124q2 0 2 -2l-9 -66q0 -2 -3 -2zM248 272h-70q-2 0 -2 2l45 321q-77 -50 -78 -51q-2 0 -3 1q0 1 -4.5 32t-4.5 32t4 4l96 66q1 1 4 1h70 q3 0 3 -2l-57 -404q0 -2 -3 -2z" />
<glyph unicode="&#xbe;" horiz-adv-x="876" d="M229 -6q-5 0 -1 4q-2 1 98 171.5t200 340.5t98 172q2 4 6 4h84q5 0 2 -4l-396 -684q-3 -4 -7 -4h-84zM88 289q-1 1 -1 2t11 31l10 29q0 1 3 1l7 -1q6 -1 15.5 -3t21.5 -4t26 -3t26 -1q54 0 60 37l4 26q7 46 -44 46h-46q-3 0 -3 2l9 62q0 2 3 2h47q17 0 31 10.5t16 28.5 l3 25q2 16 -6.5 25t-18 11t-22.5 2q-18 0 -41 -3t-36.5 -6t-15.5 -4q-4 -2 -4 1q0 1 -2 28.5t-2 30.5q0 1 2 3q1 1 13.5 5.5t39.5 9t55 4.5q25 0 44 -3t39 -12t29 -29t5 -50l-5 -39q-2 -18 -12 -34t-19 -23l-9 -8l-1 -5q4 -2 10 -6.5t14 -23.5t4 -43l-7 -44 q-9 -57 -47.5 -76t-96.5 -19q-31 0 -58.5 4.5t-38.5 8.5zM708 0h-66q-3 0 -3 2l9 63h-154v3l9 65l3 6q1 1 70.5 132.5t71.5 134.5q2 2 3 2h75q1 0 1 -2l-139 -265l-1 -5h71l10 70q0 2 3 2h66q3 0 3 -2l-10 -70h36q3 0 3 -3l-9 -65q0 -3 -4 -3h-36l-9 -63q0 -2 -3 -2z" />
<glyph unicode="&#xbf;" horiz-adv-x="461" d="M215 680h149q3 0 3 -4l-19 -135q0 -4 -4 -4h-149q-3 0 -3 4l19 135q0 4 4 4zM183 472h152q3 0 3 -4l-3 -23q-5 -41 -29 -79.5t-49 -62.5t-47 -50.5t-25 -45.5l-3 -24q-3 -23 11 -33.5t29 -10.5q18 0 39 2.5t38 6t31.5 7t23.5 5.5l8 3q5 0 5 -2t7 -62.5t7 -61.5 q0 -5 -3 -6q-5 -3 -25 -10.5t-65 -17t-90 -9.5q-31 0 -56 3t-53 13.5t-45.5 28t-26.5 49.5t-3 75l6 44q4 26 27.5 59t50.5 59.5t50.5 60t26.5 59.5l3 23q0 4 5 4z" />
<glyph unicode="&#xc0;" d="M138 0h-174q-4 0 -2 4l312 672q3 4 4 4h191q5 0 6 -4l117 -672q2 -4 -3 -4h-174q-4 0 -5 4l-12 107h-212q-43 -104 -44 -107q-1 -4 -4 -4zM372 750l-80 148q-3 4 2 4h139q4 0 5 -4l55 -148q1 -4 -1 -4h-115q-3 0 -5 4zM242 244h139l-26 229h-22z" />
<glyph unicode="&#xc1;" d="M138 0h-174q-4 0 -2 4l312 672q3 4 4 4h191q5 0 6 -4l117 -672q2 -4 -3 -4h-174q-4 0 -5 4l-12 107h-212q-43 -104 -44 -107q-1 -4 -4 -4zM392 750q-4 -4 -6 -4h-114q-5 0 -2 4l96 148q3 4 7 4h138q5 0 2 -4zM242 244h139l-26 229h-22z" />
<glyph unicode="&#xc2;" d="M138 0h-174q-4 0 -2 4l312 672q3 4 4 4h191q5 0 6 -4l117 -672q2 -4 -3 -4h-174q-4 0 -5 4l-12 107h-212q-43 -104 -44 -107q-1 -4 -4 -4zM327 745h-115q-1 0 0 4q1 2 60.5 74.5t59.5 73.5q3 4 7 4h127q6 0 8 -4l77 -148q2 -4 -2 -4h-114q-5 0 -6 4l-37 63h-3 q-53 -60 -55 -63q-3 -4 -7 -4zM242 244h139l-26 229h-22z" />
<glyph unicode="&#xc3;" d="M138 0h-174q-4 0 -2 4l312 672q3 4 4 4h191q5 0 6 -4l117 -672q2 -4 -3 -4h-174q-4 0 -5 4l-12 107h-212q-43 -104 -44 -107q-1 -4 -4 -4zM232 755q-3 0 -3 5l12 82q1 10 10 20q35 35 85 35q31 0 71 -19t63 -19q24 0 51.5 17.5t29.5 17.5q5 0 4 -6l-11 -80 q-2 -13 -11 -21q-43 -39 -86 -39q-32 0 -71 20.5t-60 20.5q-26 0 -54.5 -17t-29.5 -17zM242 244h139l-26 229h-22z" />
<glyph unicode="&#xc4;" d="M138 0h-174q-4 0 -2 4l312 672q3 4 4 4h191q5 0 6 -4l117 -672q2 -4 -3 -4h-174q-4 0 -5 4l-12 107h-212q-43 -104 -44 -107q-1 -4 -4 -4zM242 244h139l-26 229h-22zM226 750q-4 0 -3 4l17 122q0 4 4 4h118q3 0 3 -4l-17 -122q0 -4 -4 -4h-118zM421 750q-4 0 -3 4l17 122 q0 4 4 4h117q4 0 4 -4l-17 -122q0 -4 -5 -4h-117z" />
<glyph unicode="&#xc5;" d="M138 0h-174q-4 0 -2 4l312 672q3 4 4 4h191q5 0 6 -4l117 -672q2 -4 -3 -4h-174q-4 0 -5 4l-12 107h-212q-43 -104 -44 -107q-1 -4 -4 -4zM378 723q-50 0 -77.5 19.5t-18.5 79.5l4 25q9 58 42 77.5t84 19.5q22 0 37.5 -3t32 -11.5t23 -29.5t1.5 -53l-4 -25 q-5 -32 -17.5 -53.5t-31 -30.5t-35.5 -12t-40 -3zM242 244h139l-26 229h-22zM388 789q13 0 21.5 2t16 11.5t10.5 26.5l2 11q7 39 -36 39t-50 -39l-2 -11q-4 -25 6 -32.5t32 -7.5z" />
<glyph unicode="&#xc6;" horiz-adv-x="894" d="M293 244h120l34 240h-22zM149 0h-175q-5 0 -2 4q1 2 211 336.5t211 335.5q1 4 6 4h495q4 0 4 -4l-20 -141q0 -4 -5 -4h-247l-15 -113h200q3 0 3 -4l-20 -141q0 -4 -4 -4h-200l-17 -120h247q4 0 3 -4l-20 -141q0 -4 -4 -4h-421l15 111h-181q-57 -104 -59 -107q-3 -4 -5 -4 z" />
<glyph unicode="&#xc7;" horiz-adv-x="544" d="M258 -166h-139q-4 0 -2 4l96 155q-35 4 -62 12.5t-53 26.5t-39.5 46.5t-20.5 71t3 99.5l27 190q9 65 32 112t51.5 74t69 42.5t76.5 20t82 4.5q126 0 180 -27q3 -3 2 -6l-66 -132q-1 -3 -6 -3q-2 1 -18.5 4t-49 6t-62.5 3q-22 0 -36.5 -3t-33.5 -13t-31.5 -35t-17.5 -64 l-22 -159q-10 -71 11 -91t72 -20q22 0 45 1.5t40.5 3.5t32 4t23.5 3l8 2q4 2 4 -2l28 -133q1 -3 -2 -6q-50 -25 -143 -32l-73 -155q-2 -4 -6 -4z" />
<glyph unicode="&#xc8;" horiz-adv-x="529" d="M20 0l96 680h441q3 0 3 -4l-20 -141q0 -4 -4 -4h-267l-16 -114h220q4 0 3 -4l-20 -140q0 -4 -4 -4h-220l-17 -120h267q4 0 3 -4l-19 -141q-2 -4 -5 -4h-441zM329 750l-80 148q-1 4 3 4h139q3 0 4 -4l56 -148q1 -4 -2 -4h-115q-3 0 -5 4z" />
<glyph unicode="&#xc9;" horiz-adv-x="529" d="M20 0l96 680h441q3 0 3 -4l-20 -141q0 -4 -4 -4h-267l-16 -114h220q4 0 3 -4l-20 -140q0 -4 -4 -4h-220l-17 -120h267q4 0 3 -4l-19 -141q-2 -4 -5 -4h-441zM360 750q-4 -4 -6 -4h-114q-4 0 -1 4l95 148q3 4 8 4h138q4 0 1 -4z" />
<glyph unicode="&#xca;" horiz-adv-x="529" d="M20 0l96 680h441q3 0 3 -4l-20 -141q0 -4 -4 -4h-267l-16 -114h220q4 0 3 -4l-20 -140q0 -4 -4 -4h-220l-17 -120h267q4 0 3 -4l-19 -141q-2 -4 -5 -4h-441zM295 745h-115q-2 0 -1 4q1 2 60.5 74.5t59.5 73.5q3 4 8 4h127q5 0 7 -4l77 -148q2 -4 -1 -4h-114q-6 0 -7 4 l-37 63h-3q-53 -60 -55 -63q-3 -4 -6 -4z" />
<glyph unicode="&#xcb;" horiz-adv-x="529" d="M20 0l96 680h441q3 0 3 -4l-20 -141q0 -4 -4 -4h-267l-16 -114h220q4 0 3 -4l-20 -140q0 -4 -4 -4h-220l-17 -120h267q4 0 3 -4l-19 -141q-2 -4 -5 -4h-441zM183 750q-4 0 -3 4l17 122q0 4 5 4h118q2 0 2 -4l-17 -122q0 -4 -4 -4h-118zM378 750q-4 0 -3 4l17 122q0 4 5 4 h117q3 0 3 -4l-17 -122q0 -4 -5 -4h-117z" />
<glyph unicode="&#xcc;" horiz-adv-x="274" d="M24 0q-4 0 -4 4l95 672q0 4 4 4h166q4 0 4 -4l-95 -672q0 -4 -4 -4h-166zM202 750l-80 148q-3 4 2 4h139q4 0 5 -4l55 -148q1 -4 -1 -4h-115q-3 0 -5 4z" />
<glyph unicode="&#xcd;" horiz-adv-x="274" d="M24 0q-4 0 -4 4l95 672q0 4 4 4h166q4 0 4 -4l-95 -672q0 -4 -4 -4h-166zM223 750q-4 -4 -6 -4h-114q-5 0 -2 4l96 148q3 4 7 4h138q5 0 2 -4z" />
<glyph unicode="&#xce;" horiz-adv-x="274" d="M24 0q-4 0 -4 4l95 672q0 4 4 4h166q4 0 4 -4l-95 -672q0 -4 -4 -4h-166zM157 745h-115q-1 0 0 4q1 2 60.5 74.5t59.5 73.5q3 4 7 4h127q6 0 8 -4l77 -148q2 -4 -2 -4h-114q-5 0 -6 4l-37 63h-3q-53 -60 -55 -63q-3 -4 -7 -4z" />
<glyph unicode="&#xcf;" horiz-adv-x="274" d="M24 0q-4 0 -4 4l95 672q0 4 5 4h166q4 0 3 -4l-94 -672q0 -4 -5 -4h-166zM56 750q-4 0 -3 4l17 122q0 4 5 4h118q2 0 2 -4l-17 -122q0 -4 -4 -4h-118zM251 750q-4 0 -3 4l17 122q0 4 5 4h117q3 0 3 -4l-17 -122q0 -4 -5 -4h-117z" />
<glyph unicode="&#xd0;" horiz-adv-x="620" d="M216 157h75q23 0 36.5 3t29 14t25 35.5t14.5 65.5l18 133q3 24 3 42t-2 30t-8 20.5t-11 12.5t-15.5 6.5t-17.5 3t-20 0.5h-75l-17 -114h74q3 0 3 -4l-18 -124q0 -4 -3 -4h-74zM269 0h-249l39 277h-34q-3 0 -3 4l17 124q1 4 4 4h34l39 271h249q25 0 42.5 -1t44 -4.5 t42.5 -10.5t38.5 -19.5t32 -31.5t22 -45.5t10 -62.5t-4.5 -82l-22 -161q-10 -73 -34.5 -124.5t-52 -77.5t-69.5 -40.5t-71 -17t-74 -2.5z" />
<glyph unicode="&#xd1;" horiz-adv-x="647" d="M20 0q-4 0 -4 4l95 672q0 4 5 4h181q5 0 6 -3l136 -377h11l53 376q0 4 3 4h164q5 0 4 -4l-95 -672q0 -4 -5 -4h-185q-5 0 -6 4l-135 375h-11l-53 -375q0 -4 -4 -4h-160zM249 755q-4 0 -2 5l11 82q1 10 10 20q35 35 85 35q31 0 71.5 -19t63.5 -19q24 0 51.5 17.5 t29.5 17.5q4 0 4 -6l-12 -80q-2 -13 -11 -21q-43 -39 -86 -39q-32 0 -71 20.5t-60 20.5q-26 0 -54.5 -17t-29.5 -17z" />
<glyph unicode="&#xd2;" horiz-adv-x="597" d="M267 -11q-22 0 -38.5 1t-37 3t-36 6.5t-33 11t-30 17t-24.5 24.5t-19 33.5t-11.5 43t-4 53.5t5.5 66l27 189q10 68 33 116.5t50 74.5t67 40.5t72 18t77 3.5q21 0 37 -0.5t36.5 -2.5t36 -6.5t33 -11t30 -17t25 -24t19.5 -32t12 -41.5t4.5 -53t-5.5 -65l-27 -189 q-10 -72 -34 -122.5t-50.5 -76.5t-68 -40t-71 -17t-75.5 -3zM289 145q49 0 71 20t32 95l22 162q10 74 -6.5 93.5t-64.5 19.5q-24 0 -37.5 -2.5t-28 -13t-23.5 -34.5t-14 -63l-23 -162q-10 -75 6 -95t66 -20zM364 750l-79 148q-3 4 2 4h139q3 0 4 -4l56 -148q1 -4 -2 -4h-115 q-3 0 -5 4z" />
<glyph unicode="&#xd3;" horiz-adv-x="597" d="M267 -11q-22 0 -38.5 1t-37 3t-36 6.5t-33 11t-30 17t-24.5 24.5t-19 33.5t-11.5 43t-4 53.5t5.5 66l27 189q10 68 33 116.5t50 74.5t67 40.5t72 18t77 3.5q21 0 37 -0.5t36.5 -2.5t36 -6.5t33 -11t30 -17t25 -24t19.5 -32t12 -41.5t4.5 -53t-5.5 -65l-27 -189 q-10 -72 -34 -122.5t-50.5 -76.5t-68 -40t-71 -17t-75.5 -3zM289 145q49 0 71 20t32 95l22 162q10 74 -6.5 93.5t-64.5 19.5q-24 0 -37.5 -2.5t-28 -13t-23.5 -34.5t-14 -63l-23 -162q-10 -75 6 -95t66 -20zM384 750q-4 -4 -6 -4h-114q-4 0 -1 4l95 148q3 4 8 4h138 q4 0 1 -4z" />
<glyph unicode="&#xd4;" horiz-adv-x="597" d="M267 -11q-22 0 -38.5 1t-37 3t-36 6.5t-33 11t-30 17t-24.5 24.5t-19 33.5t-11.5 43t-4 53.5t5.5 66l27 189q10 68 33 116.5t50 74.5t67 40.5t72 18t77 3.5q21 0 37 -0.5t36.5 -2.5t36 -6.5t33 -11t30 -17t25 -24t19.5 -32t12 -41.5t4.5 -53t-5.5 -65l-27 -189 q-10 -72 -34 -122.5t-50.5 -76.5t-68 -40t-71 -17t-75.5 -3zM289 145q49 0 71 20t32 95l22 162q10 74 -6.5 93.5t-64.5 19.5q-24 0 -37.5 -2.5t-28 -13t-23.5 -34.5t-14 -63l-23 -162q-10 -75 6 -95t66 -20zM320 745h-115q-2 0 -1 4q1 2 60.5 74.5t59.5 73.5q3 4 8 4h127 q5 0 7 -4l77 -148q2 -4 -1 -4h-114q-6 0 -7 4l-37 63h-3q-53 -60 -55 -63q-3 -4 -6 -4z" />
<glyph unicode="&#xd5;" horiz-adv-x="597" d="M289 145q49 0 71 20t32 95l22 162q10 74 -6.5 93.5t-64.5 19.5q-24 0 -37.5 -2.5t-28 -13t-23.5 -34.5t-14 -63l-23 -162q-10 -75 6 -95t66 -20zM267 -11q-22 0 -38.5 1t-37 3t-36 6.5t-33 11t-30 17t-24.5 24.5t-19 33.5t-11.5 43t-4 53.5t5.5 66l27 189q10 68 33 116.5 t50 74.5t67 40.5t72 18t77 3.5q21 0 37 -0.5t36.5 -2.5t36 -6.5t33 -11t30 -17t25 -24t19.5 -32t12 -41.5t4.5 -53t-5.5 -65l-27 -189q-10 -72 -34 -122.5t-50.5 -76.5t-68 -40t-71 -17t-75.5 -3zM224 755q-2 0 -2 5l11 82q1 10 10 20q35 35 85 35q31 0 71.5 -19t63.5 -19 q24 0 51.5 17.5t29.5 17.5q6 0 4 -6l-11 -80q-2 -13 -11 -21q-43 -39 -87 -39q-32 0 -71 20.5t-60 20.5q-26 0 -54.5 -17t-29.5 -17z" />
<glyph unicode="&#xd6;" horiz-adv-x="597" d="M267 -11q-22 0 -38.5 1t-37 3t-36 6.5t-33 11t-30 17t-24.5 24.5t-19 33.5t-11.5 43t-4 53.5t5.5 66l27 189q10 68 33 116.5t50 74.5t67 40.5t72 18t77 3.5q21 0 37 -0.5t36.5 -2.5t36 -6.5t33 -11t30 -17t25 -24t19.5 -32t12 -41.5t4.5 -53t-5.5 -65l-27 -189 q-10 -72 -34 -122.5t-50.5 -76.5t-68 -40t-71 -17t-75.5 -3zM289 145q49 0 71 20t32 95l22 162q10 74 -6.5 93.5t-64.5 19.5q-24 0 -37.5 -2.5t-28 -13t-23.5 -34.5t-14 -63l-23 -162q-10 -75 6 -95t66 -20zM219 750q-5 0 -4 4l17 122q0 4 5 4h118q2 0 2 -4l-17 -122 q0 -4 -3 -4h-118zM414 750q-5 0 -4 4l17 122q0 4 5 4h117q3 0 3 -4l-17 -122q0 -4 -4 -4h-117z" />
<glyph unicode="&#xd7;" horiz-adv-x="556" d="M120 55q-1 1 -19 23t-36 43.5t-19 21.5q-2 3 1 6l136 126q-99 125 -101 127q-3 3 1 5q1 1 25.5 23t49 43.5t24.5 22.5q4 2 5 0l102 -127q136 125 138 127q3 2 5 0l75 -89q1 -1 -1 -5l-138 -127q102 -124 103 -126q2 -3 -1 -6q-1 -1 -26 -22.5t-49.5 -43t-24.5 -22.5 q-2 -3 -5 0l-102 126q-136 -124 -138 -126q-3 -3 -5 0z" />
<glyph unicode="&#xd8;" horiz-adv-x="597" d="M8 -40q-4 0 -1 4l59 91q-45 64 -27 193l27 189q10 68 33 116.5t50 74.5t67 40.5t72 18t77 3.5q60 0 96 -7l22 35q2 4 7 4h134q4 0 1 -4l-60 -94q46 -61 28 -187l-27 -189q-10 -72 -34 -122.5t-50.5 -76.5t-68 -40t-71 -17t-75.5 -3q-62 0 -98 7q-20 -31 -21 -32 q-3 -4 -5 -4h-135zM289 145q49 0 71 20t32 95l23 162q10 74 -6.5 93.5t-64.5 19.5q-24 0 -37.5 -2.5t-28.5 -13t-24 -34.5t-14 -63l-23 -162q-10 -75 6 -95t66 -20z" />
<glyph unicode="&#xd9;" d="M256 -10q-136 0 -180 61.5t-24 199.5l59 425q1 4 5 4h167q3 0 2 -4l-58 -413q-12 -52 -2 -84t54 -32h40q42 0 58.5 25.5t25.5 90.5l58 413q0 4 4 4h167q4 0 4 -4l-60 -425q-9 -65 -24.5 -108.5t-46 -80.5t-82 -54.5t-127.5 -17.5h-40zM373 750l-81 148q-1 4 3 4h139 q4 0 5 -4l55 -148q1 -4 -2 -4h-115q-2 0 -4 4z" />
<glyph unicode="&#xda;" d="M256 -10q-136 0 -180 61.5t-24 199.5l59 425q1 4 5 4h167q3 0 2 -4l-58 -413q-12 -52 -2 -84t54 -32h40q42 0 58.5 25.5t25.5 90.5l58 413q0 4 4 4h167q4 0 4 -4l-60 -425q-9 -65 -24.5 -108.5t-46 -80.5t-82 -54.5t-127.5 -17.5h-40zM394 750q-4 -4 -7 -4h-114 q-4 0 -1 4l96 148q3 4 7 4h138q5 0 2 -4z" />
<glyph unicode="&#xdb;" d="M256 -10q-136 0 -180 61.5t-24 199.5l59 425q1 4 5 4h167q3 0 2 -4l-58 -413q-12 -52 -2 -84t54 -32h40q42 0 58.5 25.5t25.5 90.5l58 413q0 4 4 4h167q4 0 4 -4l-60 -425q-9 -65 -24.5 -108.5t-46 -80.5t-82 -54.5t-127.5 -17.5h-40zM328 745h-115q-1 0 0 4q1 2 60 74.5 t59 73.5q3 4 8 4h127q5 0 8 -4l77 -148q2 -4 -2 -4h-114q-5 0 -6 4l-37 63h-3q-53 -60 -55 -63q-3 -4 -7 -4z" />
<glyph unicode="&#xdc;" d="M256 -10q-136 0 -180 61.5t-24 199.5l59 425q1 4 5 4h167q3 0 2 -4l-58 -413q-12 -52 -2 -84t54 -32h40q42 0 58.5 25.5t25.5 90.5l58 413q0 4 4 4h167q4 0 4 -4l-60 -425q-9 -65 -24.5 -108.5t-46 -80.5t-82 -54.5t-127.5 -17.5h-40zM227 750q-4 0 -4 4l18 122q0 4 4 4 h118q3 0 3 -4l-18 -122q0 -4 -3 -4h-118zM422 750q-4 0 -4 4l18 122q0 4 4 4h117q4 0 4 -4l-18 -122q0 -4 -4 -4h-117z" />
<glyph unicode="&#xdd;" horiz-adv-x="577" d="M175 0q-4 0 -4 4l36 255q-140 414 -141 417q-1 4 4 4h175q5 0 5 -4l70 -231h6q132 228 133 231q1 4 5 4h172q4 0 3 -4l-258 -417l-36 -255q-1 -4 -3 -4h-167zM374 750q-4 -4 -7 -4h-114q-4 0 -1 4l96 148q3 4 7 4h138q5 0 2 -4z" />
<glyph unicode="&#xde;" horiz-adv-x="603" d="M232 274h87q10 0 21 2t26 7t26.5 18t13.5 32l4 34q2 20 -3.5 33t-18 19t-23.5 8t-24 2h-87zM189 0h-165q-4 0 -4 4l95 672q0 4 4 4h165q4 0 4 -4l-14 -98h98q30 0 56 -2.5t61 -14t57.5 -31.5t35.5 -57.5t5 -89.5l-10 -66q-8 -52 -33 -90t-53.5 -57t-67.5 -30t-63 -13 t-52 -2h-98l-17 -121q0 -4 -4 -4z" />
<glyph unicode="&#xdf;" horiz-adv-x="572" d="M178 0h-156q-4 0 -4 4l68 483q17 116 82 157.5t172 41.5q33 0 59 -3t54.5 -14.5t46 -30.5t26 -53t2.5 -81l-6 -44q-4 -32 -16 -58t-22 -36l-10 -9l-1 -7q2 -2 6 -5t14 -14.5t16.5 -24.5t10.5 -34t1 -44l-7 -46q-7 -47 -25.5 -82t-42 -55t-57.5 -31.5t-65.5 -15.5 t-72.5 -4q-3 0 -3 4l18 130q0 4 4 4q70 0 78 60l4 31q3 26 -17.5 41t-43.5 15q-3 0 -3 4l18 130q1 4 4 4q48 0 55 52l4 29q8 52 -49 52q-61 0 -70 -63l-68 -483q0 -4 -4 -4z" />
<glyph unicode="&#xe0;" horiz-adv-x="506" d="M144 -12q-66 0 -103 32t-29 92l7 55q8 63 60.5 96.5t117.5 33.5q24 0 52.5 -3.5t44.5 -6.5l16 -3l6 42q3 23 -15 32t-68 9q-17 0 -35.5 -1t-34 -3t-28.5 -4t-21 -3t-9 -1q-4 0 -5 3q-1 2 -6 53t-5 53q0 4 4 5q4 3 22.5 9t63.5 13t95 7q36 0 61.5 -2t58 -12t50.5 -27.5 t28.5 -52t3.5 -82.5l-45 -318q0 -4 -4 -4h-152q-4 0 -4 4l1 7q-33 -23 -128 -23zM290 550l-80 148q-3 4 2 4h139q4 0 5 -4l55 -148q1 -4 -1 -4h-115q-3 0 -5 4zM217 107q68 0 72 23l7 51q-38 14 -74 14q-19 0 -36 -8t-19 -21l-3 -19q-3 -19 13 -29.5t40 -10.5z" />
<glyph unicode="&#xe1;" horiz-adv-x="506" d="M144 -12q-66 0 -103 32t-29 92l7 55q8 63 60.5 96.5t117.5 33.5q24 0 52.5 -3.5t44.5 -6.5l16 -3l6 42q3 23 -15 32t-68 9q-17 0 -35.5 -1t-34 -3t-28.5 -4t-21 -3t-9 -1q-4 0 -5 3q-1 2 -6 53t-5 53q0 4 4 5q4 3 22.5 9t63.5 13t95 7q36 0 61.5 -2t58 -12t50.5 -27.5 t28.5 -52t3.5 -82.5l-45 -318q0 -4 -4 -4h-152q-4 0 -4 4l1 7q-33 -23 -128 -23zM310 550q-4 -4 -6 -4h-114q-5 0 -2 4l96 148q3 4 7 4h138q5 0 2 -4zM217 107q68 0 72 23l7 51q-38 14 -74 14q-19 0 -36 -8t-19 -21l-3 -19q-3 -19 13 -29.5t40 -10.5z" />
<glyph unicode="&#xe2;" horiz-adv-x="506" d="M144 -12q-66 0 -103 32t-29 92l7 55q8 63 60.5 96.5t117.5 33.5q24 0 52.5 -3.5t44.5 -6.5l16 -3l6 42q3 23 -15 32t-68 9q-17 0 -35.5 -1t-34 -3t-28.5 -4t-21 -3t-9 -1q-4 0 -5 3q-1 2 -6 53t-5 53q0 4 4 5q4 3 22.5 9t63.5 13t95 7q36 0 61.5 -2t58 -12t50.5 -27.5 t28.5 -52t3.5 -82.5l-45 -318q0 -4 -4 -4h-152q-4 0 -4 4l1 7q-33 -23 -128 -23zM245 545h-115q-1 0 0 4q1 2 60.5 74.5t59.5 73.5q3 4 7 4h127q6 0 8 -4l77 -148q2 -4 -2 -4h-114q-5 0 -6 4l-37 63h-3q-53 -60 -55 -63q-3 -4 -7 -4zM217 107q68 0 72 23l7 51q-38 14 -74 14 q-19 0 -36 -8t-19 -21l-3 -19q-3 -19 13 -29.5t40 -10.5z" />
<glyph unicode="&#xe3;" horiz-adv-x="506" d="M217 107q68 0 72 23l7 51q-38 14 -74 14q-19 0 -36 -8t-19 -21l-3 -19q-3 -19 13 -29.5t40 -10.5zM144 -12q-66 0 -103 32t-29 92l7 55q8 63 60.5 96.5t117.5 33.5q24 0 52.5 -3.5t44.5 -6.5l16 -3l6 42q3 23 -15 32t-68 9q-17 0 -35.5 -1t-34 -3t-28.5 -4t-21 -3t-9 -1 q-4 0 -5 3q-1 2 -6 53.5t-5 52.5q0 4 4 5q4 3 22.5 9t63.5 13t95 7q36 0 61.5 -2t58 -12t50.5 -27.5t28.5 -52t3.5 -82.5l-45 -318q0 -4 -4 -4h-152q-4 0 -4 4l1 7q-33 -23 -128 -23zM150 555q-4 0 -2 5l11 82q1 10 10 20q35 35 85 35q31 0 71 -19t63 -19q24 0 51.5 17.5 t29.5 17.5q5 0 4 -6l-11 -80q-2 -13 -11 -21q-43 -39 -86 -39q-32 0 -71 20.5t-60 20.5q-26 0 -54.5 -17t-29.5 -17z" />
<glyph unicode="&#xe4;" horiz-adv-x="506" d="M144 -12q-66 0 -103 32t-29 92l7 55q8 63 60.5 96.5t117.5 33.5q24 0 52.5 -3.5t44.5 -6.5l16 -3l6 42q3 23 -15 32t-68 9q-17 0 -35.5 -1t-34 -3t-28.5 -4t-21 -3t-9 -1q-4 0 -5 3q-1 2 -6 53t-5 53q0 4 4 5q4 3 22.5 9t63.5 13t95 7q36 0 61.5 -2t58 -12t50.5 -27.5 t28.5 -52t3.5 -82.5l-45 -318q0 -4 -4 -4h-152q-4 0 -4 4l1 7q-33 -23 -128 -23zM144 550q-4 0 -3 4l17 122q0 4 4 4h118q3 0 3 -4l-17 -122q0 -4 -4 -4h-118zM339 550q-4 0 -3 4l17 122q0 4 4 4h117q4 0 4 -4l-17 -122q0 -4 -5 -4h-117zM217 107q68 0 72 23l7 51 q-38 14 -74 14q-19 0 -36 -8t-19 -21l-3 -19q-3 -19 13 -29.5t40 -10.5z" />
<glyph unicode="&#xe5;" horiz-adv-x="506" d="M217 107q68 0 72 23l7 51q-38 14 -74 14q-19 0 -36 -8t-19 -21l-3 -19q-3 -19 13 -29.5t40 -10.5zM144 -12q-66 0 -103 32t-29 92l7 55q8 63 60.5 96.5t117.5 33.5q24 0 52.5 -3.5t44.5 -6.5l16 -3l6 42q3 23 -15 32t-68 9q-17 0 -35.5 -1t-34 -3t-28.5 -4t-21 -3t-9 -1 q-4 0 -5 3q-1 2 -6 53.5t-5 52.5q0 4 4 5q4 3 22.5 9t63.5 13t95 7q36 0 61.5 -2t58 -12t50.5 -27.5t28.5 -52t3.5 -82.5l-45 -318q0 -4 -4 -4h-152q-4 0 -4 4l1 7q-33 -23 -128 -23zM306 589q13 0 21.5 2t16 11.5t10.5 26.5l2 11q7 39 -36 39t-50 -39l-2 -11 q-4 -25 6 -32.5t32 -7.5zM296 523q-50 0 -77.5 19.5t-18.5 79.5l4 25q9 58 42 77.5t84 19.5q22 0 37.5 -3t32 -11.5t23 -29.5t1.5 -53l-4 -25q-5 -32 -17.5 -53.5t-31 -30.5t-35.5 -12t-40 -3z" />
<glyph unicode="&#xe6;" horiz-adv-x="799" d="M223 108q69 0 73 28l6 46q-37 14 -74 14q-20 0 -36.5 -8t-17.5 -21l-2 -18q-3 -22 13 -31.5t38 -9.5zM485 293h109q4 34 -6 48.5t-39 14.5q-55 0 -64 -63zM161 -11q-20 0 -38 2t-40.5 9.5t-37 20.5t-23 37t-3.5 56l8 55q8 59 56 94.5t120 35.5q23 0 51.5 -3.5t45.5 -7.5 l16 -3l5 38q3 23 -15 31.5t-65 8.5q-27 0 -58.5 -3.5t-49.5 -6.5t-20 -4q-5 0 -5 4q0 1 -6.5 52.5t-6.5 53.5q0 4 4 5q5 2 25 8.5t66 14t91 7.5q102 0 149 -28q49 28 138 28q30 0 51.5 -2t54 -13t51.5 -31.5t29.5 -61t2.5 -97.5l-14 -97h-271q-5 -40 11 -51.5t51 -11.5 q24 0 49 1.5t44 3.5t34.5 4t24.5 4l9 1q4 0 4 -3l15 -109q0 -4 -3 -5q-93 -31 -199 -31q-101 0 -149 35q-65 -41 -202 -41z" />
<glyph unicode="&#xe7;" horiz-adv-x="469" d="M220 -166h-139q-3 0 -1 4q1 1 20.5 32.5t43 70t33.5 53.5q-83 7 -121 49t-23 149l15 110q7 52 27.5 89.5t45.5 57.5t61 31.5t64 14t65 2.5q97 0 147 -25q3 -2 2 -6l-47 -110q-2 -3 -6 -3q-1 0 -6.5 0.5t-16 1.5t-23 2t-29.5 1.5t-34 0.5q-11 0 -22.5 -2.5t-25 -9.5 t-23.5 -22t-13 -36l-12 -87q-6 -45 11 -58.5t52 -13.5q94 0 112 9q6 0 6 -3q0 -2 10.5 -57.5t10.5 -56.5q0 -4 -3 -5q-53 -18 -100 -22l-74 -157q-2 -4 -7 -4z" />
<glyph unicode="&#xe8;" horiz-adv-x="508" d="M235 -10q-32 0 -59 3t-60 16t-54.5 34.5t-32.5 63t-3 97.5l12 84q30 209 255 209q30 0 54 -3t54 -15.5t49 -33.5t28.5 -61.5t1.5 -95.5l-14 -97h-272q-6 -38 11 -52.5t51 -14.5q37 0 77 3.5t61.5 6.5t24.5 4q4 1 4 -3q13 -91 13 -106q0 -8 -3 -9l-4 -2l-10 -2.5t-14.5 -4 t-19 -4.5t-23 -4.5t-27.5 -5t-30.5 -4t-33.5 -2.5t-36 -1zM291 550l-80 148q-3 4 3 4h139q3 0 4 -4l55 -148q1 -4 -1 -4h-115q-3 0 -5 4zM208 292h109q9 67 -44 67q-21 0 -40.5 -15t-24.5 -52z" />
<glyph unicode="&#xe9;" horiz-adv-x="508" d="M235 -10q-32 0 -59 3t-60 16t-54.5 34.5t-32.5 63t-3 97.5l12 84q30 209 255 209q30 0 54 -3t54 -15.5t49 -33.5t28.5 -61.5t1.5 -95.5l-14 -97h-272q-6 -38 11 -52.5t51 -14.5q37 0 77 3.5t61.5 6.5t24.5 4q4 1 4 -3q13 -91 13 -106q0 -8 -3 -9l-4 -2l-10 -2.5t-14.5 -4 t-19 -4.5t-23 -4.5t-27.5 -5t-30.5 -4t-33.5 -2.5t-36 -1zM312 550q-4 -4 -6 -4h-114q-5 0 -2 4l96 148q3 4 8 4h138q4 0 1 -4zM208 292h109q9 67 -44 67q-21 0 -40.5 -15t-24.5 -52z" />
<glyph unicode="&#xea;" horiz-adv-x="508" d="M235 -10q-32 0 -59 3t-60 16t-54.5 34.5t-32.5 63t-3 97.5l12 84q30 209 255 209q30 0 54 -3t54 -15.5t49 -33.5t28.5 -61.5t1.5 -95.5l-14 -97h-272q-6 -38 11 -52.5t51 -14.5q37 0 77 3.5t61.5 6.5t24.5 4q4 1 4 -3q13 -91 13 -106q0 -8 -3 -9l-4 -2l-10 -2.5t-14.5 -4 t-19 -4.5t-23 -4.5t-27.5 -5t-30.5 -4t-33.5 -2.5t-36 -1zM246 545h-115q-1 0 0 4q1 2 60.5 74.5t59.5 73.5q3 4 7 4h127q6 0 8 -4l77 -148q2 -4 -2 -4h-114q-5 0 -6 4l-37 63h-3q-53 -60 -55 -63q-3 -4 -7 -4zM208 292h109q9 67 -44 67q-21 0 -40.5 -15t-24.5 -52z" />
<glyph unicode="&#xeb;" horiz-adv-x="508" d="M235 -10q-32 0 -59 3t-60 16t-54.5 34.5t-32.5 63t-3 97.5l12 84q30 209 255 209q30 0 54 -3t54 -15.5t49 -33.5t28.5 -61.5t1.5 -95.5l-14 -97h-272q-6 -38 11 -52.5t51 -14.5q37 0 77 3.5t61.5 6.5t24.5 4q4 1 4 -3q13 -91 13 -106q0 -8 -3 -9l-4 -2l-10 -2.5t-14.5 -4 t-19 -4.5t-23 -4.5t-27.5 -5t-30.5 -4t-33.5 -2.5t-36 -1zM145 550q-4 0 -3 4l17 122q0 4 4 4h118q3 0 3 -4l-17 -122q0 -4 -4 -4h-118zM340 550q-4 0 -3 4l17 122q0 4 4 4h117q4 0 4 -4l-17 -122q0 -4 -5 -4h-117zM208 292h109q9 67 -44 67q-21 0 -40.5 -15t-24.5 -52z" />
<glyph unicode="&#xec;" horiz-adv-x="262" d="M11 0q-4 0 -4 4l68 479q0 4 4 4h159q4 0 4 -4l-68 -479q0 -4 -4 -4h-159zM168 550l-80 148q-3 4 3 4h139q3 0 4 -4l55 -148q1 -4 -1 -4h-115q-3 0 -5 4z" />
<glyph unicode="&#xed;" horiz-adv-x="262" d="M11 0q-4 0 -4 4l68 479q0 4 4 4h159q4 0 4 -4l-68 -479q0 -4 -4 -4h-159zM189 550q-4 -4 -6 -4h-114q-5 0 -2 4l96 148q3 4 8 4h138q4 0 1 -4z" />
<glyph unicode="&#xee;" horiz-adv-x="262" d="M11 0q-3 0 -3 4l67 479q1 4 5 4h159q4 0 3 -4l-67 -479q-1 -4 -5 -4h-159zM124 545h-115q-1 0 0 4q1 2 60 74.5t59 73.5q3 4 8 4h127q5 0 7 -4l77 -148q2 -4 -1 -4h-114q-5 0 -6 4l-38 63h-3q-52 -60 -54 -63q-3 -4 -7 -4z" />
<glyph unicode="&#xef;" horiz-adv-x="262" d="M11 0q-4 0 -3 4l67 479q1 4 4 4h159q4 0 4 -4l-67 -479q-1 -4 -5 -4h-159zM22 550q-4 0 -3 4l17 122q0 4 5 4h118q2 0 2 -4l-17 -122q0 -4 -4 -4h-118zM217 550q-4 0 -3 4l17 122q0 4 5 4h117q3 0 3 -4l-17 -122q0 -4 -5 -4h-117z" />
<glyph unicode="&#xf0;" horiz-adv-x="574" d="M237 132q68 0 71 25l26 184q-39 14 -75 14q-13 0 -21.5 -3.5t-17.5 -22t-14 -52.5l-9 -65q-7 -49 4 -64.5t36 -15.5zM182 -6q-29 0 -49 2.5t-42.5 10t-34.5 21.5t-23.5 37.5t-10.5 57.5t5 81l12 84q10 67 30.5 110.5t51.5 62.5t58.5 25.5t66.5 6.5q21 0 47.5 -3.5 t42.5 -7.5l17 -3l8 55h-97q-5 0 -3 5l14 103q1 4 6 4h96l4 30q0 4 4 4h160q4 0 4 -4l-4 -30h47q3 0 3 -4l-14 -104q-2 -4 -4 -4h-49l-74 -530q-1 -4 -4 -4h-160q-4 0 -4 4l2 12q-25 -22 -106 -22z" />
<glyph unicode="&#xf1;" horiz-adv-x="543" d="M22 0q-4 0 -4 4l68 479q0 4 4 4h160q3 0 3 -4l-2 -9q78 19 113 19q15 0 26 -0.5t26.5 -3t26.5 -6.5t23.5 -11.5t21 -18t16 -26t11 -35t3.5 -46t-5 -58.5l-40 -284q0 -4 -4 -4h-160q-3 0 -3 4l39 273q7 49 -1.5 63t-30.5 14q-15 0 -35 -4t-32 -8l-13 -3l-48 -335 q0 -4 -3 -4h-160zM169 555q-4 0 -2 5l11 82q1 10 10 20q35 35 85 35q31 0 71 -19t63 -19q24 0 51.5 17.5t29.5 17.5q6 0 4 -6l-11 -80q-2 -13 -11 -21q-43 -39 -86 -39q-32 0 -71 20.5t-60 20.5q-26 0 -54.5 -17t-29.5 -17z" />
<glyph unicode="&#xf2;" horiz-adv-x="513" d="M226 -8q-24 0 -43.5 1.5t-41.5 5t-37.5 10.5t-32 17.5t-25 26t-17 37t-7 49.5t4.5 63l13 87q10 69 35 113t64 63.5t73 25.5t84 6q49 0 81.5 -5.5t67 -24.5t47.5 -63t3 -112l-13 -90q-8 -56 -27 -96t-41.5 -62t-56.5 -34t-62.5 -15t-68.5 -3zM245 130q19 0 31 4t23.5 22.5 t16.5 53.5l10 71q7 48 -7 63t-43 15q-18 0 -29.5 -4t-23 -22t-16.5 -52l-10 -71q-7 -50 5.5 -65t42.5 -15zM293 550l-80 148q-3 4 3 4h139q3 0 4 -4l55 -148q1 -4 -1 -4h-115q-3 0 -5 4z" />
<glyph unicode="&#xf3;" horiz-adv-x="513" d="M226 -8q-24 0 -43.5 1.5t-41.5 5t-37.5 10.5t-32 17.5t-25 26t-17 37t-7 49.5t4.5 63l13 87q10 69 35 113t64 63.5t73 25.5t84 6q49 0 81.5 -5.5t67 -24.5t47.5 -63t3 -112l-13 -90q-8 -56 -27 -96t-41.5 -62t-56.5 -34t-62.5 -15t-68.5 -3zM245 130q19 0 31 4t23.5 22.5 t16.5 53.5l10 71q7 48 -7 63t-43 15q-18 0 -29.5 -4t-23 -22t-16.5 -52l-10 -71q-7 -50 5.5 -65t42.5 -15zM313 550q-4 -4 -6 -4h-114q-4 0 -1 4l95 148q3 4 8 4h138q4 0 1 -4z" />
<glyph unicode="&#xf4;" horiz-adv-x="513" d="M226 -8q-24 0 -43.5 1.5t-41.5 5t-37.5 10.5t-32 17.5t-25 26t-17 37t-7 49.5t4.5 63l13 87q10 69 35 113t64 63.5t73 25.5t84 6q49 0 81.5 -5.5t67 -24.5t47.5 -63t3 -112l-13 -90q-8 -56 -27 -96t-41.5 -62t-56.5 -34t-62.5 -15t-68.5 -3zM249 545h-115q-2 0 -1 4 q1 2 60.5 74.5t59.5 73.5q3 4 8 4h127q5 0 7 -4l77 -148q2 -4 -1 -4h-114q-6 0 -7 4l-37 63h-3q-53 -60 -55 -63q-3 -4 -6 -4zM245 130q19 0 31 4t23.5 22.5t16.5 53.5l10 71q7 48 -7 63t-43 15q-18 0 -29.5 -4t-23 -22t-16.5 -52l-10 -71q-7 -50 5.5 -65t42.5 -15z" />
<glyph unicode="&#xf5;" horiz-adv-x="513" d="M245 130q19 0 31 4t23.5 22.5t16.5 53.5l10 71q7 48 -7 63t-43 15q-18 0 -29.5 -4t-23 -22t-16.5 -52l-10 -71q-7 -50 5.5 -65t42.5 -15zM226 -8q-24 0 -43.5 1.5t-41.5 5t-37.5 10.5t-32 17.5t-25 26t-17 37t-7 49.5t4.5 63l13 87q10 69 35 113t64 63.5t73 25.5t84 6 q49 0 81.5 -5.5t67 -24.5t47.5 -63t3 -112l-13 -90q-8 -56 -27 -96t-41.5 -62t-56.5 -34t-62.5 -15t-68.5 -3zM153 555q-4 0 -2 5l11 82q1 10 10 20q35 35 85 35q31 0 71.5 -19t63.5 -19q24 0 51.5 17.5t29.5 17.5q4 0 4 -6l-12 -80q-2 -14 -10 -21q-43 -39 -87 -39 q-32 0 -71 20.5t-60 20.5q-26 0 -54.5 -17t-29.5 -17z" />
<glyph unicode="&#xf6;" horiz-adv-x="513" d="M226 -8q-24 0 -43.5 1.5t-41.5 5t-37.5 10.5t-32 17.5t-25 26t-17 37t-7 49.5t4.5 63l13 87q10 69 35 113t64 63.5t73 25.5t84 6q49 0 81.5 -5.5t67 -24.5t47.5 -63t3 -112l-13 -90q-8 -56 -27 -96t-41.5 -62t-56.5 -34t-62.5 -15t-68.5 -3zM245 130q19 0 31 4t23.5 22.5 t16.5 53.5l10 71q7 48 -7 63t-43 15q-18 0 -29.5 -4t-23 -22t-16.5 -52l-10 -71q-7 -50 5.5 -65t42.5 -15zM148 550q-4 0 -3 4l17 122q0 4 5 4h118q2 0 2 -4l-17 -122q0 -4 -4 -4h-118zM343 550q-4 0 -3 4l17 122q0 4 5 4h117q3 0 3 -4l-17 -122q0 -4 -5 -4h-117z" />
<glyph unicode="&#xf7;" horiz-adv-x="556" d="M46 209q-2 0 -2 4l18 125q0 4 3 4h440q4 0 4 -4l-18 -125q0 -4 -5 -4h-440zM223 402q-4 0 -3 4l20 142q0 4 5 4h141q3 0 3 -4l-20 -142q0 -4 -5 -4h-141zM167 0q-4 0 -3 4l20 142q0 4 4 4h141q4 0 4 -4l-20 -142q0 -4 -5 -4h-141z" />
<glyph unicode="&#xf8;" horiz-adv-x="513" d="M69 -45q-2 0 -2 2q0 4 28 56q-88 42 -67 189l12 87q8 55 27 95t42.5 61.5t57.5 33.5t62 15t67 3q6 0 20 -0.5t20 -0.5l17 32q3 4 7 4h98q5 0 2 -4l-29 -53q82 -42 64 -183l-12 -90q-8 -56 -26.5 -96t-41.5 -62t-57.5 -34t-63 -15t-68.5 -3q-6 0 -18 0.5t-18 0.5 q-3 -7 -8 -16t-7 -13l-2 -5q-3 -4 -8 -4h-96zM246 130q14 0 23.5 2.5t19.5 10t16.5 24t10.5 43.5l10 71q7 48 -6.5 63t-42.5 15q-13 0 -22 -2.5t-19.5 -9.5t-17.5 -23.5t-11 -42.5l-10 -71q-7 -50 6 -65t43 -15z" />
<glyph unicode="&#xf9;" horiz-adv-x="545" d="M534 487q3 0 3 -4l-68 -479q0 -4 -3 -4h-160q-4 0 -4 4l1 7q-77 -19 -110 -19q-15 0 -26.5 0.5t-26.5 3t-26.5 6.5t-24 11.5t-21 18t-16.5 26t-11.5 35t-3.5 46t5 58.5l41 286q0 4 3 4h160q4 0 4 -4l-39 -275q-7 -49 1.5 -63t30.5 -14q15 0 34.5 3.5t32.5 7.5l12 4 l48 337q0 4 4 4h160zM310 550l-80 148q-3 4 2 4h139q4 0 5 -4l55 -148q1 -4 -2 -4h-115q-2 0 -4 4z" />
<glyph unicode="&#xfa;" horiz-adv-x="545" d="M534 487q3 0 3 -4l-68 -479q0 -4 -3 -4h-160q-4 0 -4 4l1 7q-77 -19 -110 -19q-15 0 -26.5 0.5t-26.5 3t-26.5 6.5t-24 11.5t-21 18t-16.5 26t-11.5 35t-3.5 46t5 58.5l41 286q0 4 3 4h160q4 0 4 -4l-39 -275q-7 -49 1.5 -63t30.5 -14q15 0 34.5 3.5t32.5 7.5l12 4 l48 337q0 4 4 4h160zM330 550q-4 -4 -7 -4h-114q-4 0 -1 4l96 148q3 4 7 4h138q5 0 2 -4z" />
<glyph unicode="&#xfb;" horiz-adv-x="545" d="M534 487q3 0 3 -4l-68 -479q0 -4 -3 -4h-160q-4 0 -4 4l1 7q-77 -19 -110 -19q-15 0 -26.5 0.5t-26.5 3t-26.5 6.5t-24 11.5t-21 18t-16.5 26t-11.5 35t-3.5 46t5 58.5l41 286q0 4 3 4h160q4 0 4 -4l-39 -275q-7 -49 1.5 -63t30.5 -14q15 0 34.5 3.5t32.5 7.5l12 4 l48 337q0 4 4 4h160zM265 545h-115q-1 0 0 4q1 2 60.5 74.5t59.5 73.5q3 4 7 4h127q6 0 8 -4l77 -148q2 -4 -2 -4h-114q-5 0 -6 4l-37 63h-3q-53 -60 -55 -63q-3 -4 -7 -4z" />
<glyph unicode="&#xfc;" horiz-adv-x="545" d="M534 487q3 0 3 -4l-68 -479q0 -4 -3 -4h-160q-4 0 -4 4l1 7q-77 -19 -110 -19q-15 0 -26.5 0.5t-26.5 3t-26.5 6.5t-24 11.5t-21 18t-16.5 26t-11.5 35t-3.5 46t5 58.5l41 286q0 4 3 4h160q4 0 4 -4l-39 -275q-7 -49 1.5 -63t30.5 -14q15 0 34.5 3.5t32.5 7.5l12 4 l48 337q0 4 4 4h160zM164 550q-4 0 -3 4l17 122q0 4 4 4h118q3 0 3 -4l-17 -122q0 -4 -4 -4h-118zM359 550q-4 0 -3 4l17 122q0 4 4 4h117q4 0 4 -4l-17 -122q0 -4 -5 -4h-117z" />
<glyph unicode="&#xfd;" horiz-adv-x="508" d="M8 -180q-5 0 -3 4q1 2 16 64.5t15 63.5q0 4 6 4h29q45 0 66 43l13 30q-105 451 -106 454q-2 4 2 4h166q5 0 5 -4l41 -239h9q102 236 103 239q2 4 5 4h163q3 0 2 -4q-7 -20 -277 -538q-18 -36 -37 -59.5t-35 -36.5t-38.5 -19.5t-39 -8t-45.5 -1.5h-60zM316 550 q-4 -4 -6 -4h-114q-4 0 -1 4l95 148q3 4 8 4h138q4 0 1 -4z" />
<glyph unicode="&#xfe;" horiz-adv-x="551" d="M206 146q40 -14 76 -14q14 0 22 3.5t17 21.5t14 53l9 65q2 29 1.5 45t-10 23.5t-16 9.5t-17.5 2q-67 0 -70 -25zM157 -180h-160q-4 0 -4 4l120 852q0 4 5 4h160q2 0 2 -4l-29 -205q25 22 107 22h26t26 -2t27.5 -5.5t25 -11t22.5 -17.5t17 -26t12.5 -36.5t3.5 -49 t-5 -62.5l-12 -84q-8 -58 -27.5 -99.5t-39 -61.5t-50 -30.5t-47 -12t-43.5 -1.5q-14 0 -41 3.5t-47 6.5l-20 4l-26 -184q0 -4 -3 -4z" />
<glyph unicode="&#xff;" horiz-adv-x="508" d="M8 -180q-5 0 -3 4q1 2 16 64.5t15 63.5q0 4 6 4h29q45 0 66 43l13 30q-105 451 -106 454q-2 4 2 4h166q5 0 5 -4l41 -239h9q102 236 103 239q2 4 5 4h163q3 0 2 -4q-7 -20 -277 -538q-18 -36 -37 -59.5t-35 -36.5t-38.5 -19.5t-39 -8t-45.5 -1.5h-60zM149 550q-4 0 -3 4 l17 122q0 4 5 4h118q2 0 2 -4l-17 -122q0 -4 -4 -4h-118zM344 550q-4 0 -3 4l17 122q0 4 5 4h117q3 0 3 -4l-17 -122q0 -4 -5 -4h-117z" />
<glyph unicode="&#x100;" d="M138 0h-174q-4 0 -2 4l312 672q3 4 4 4h191q5 0 6 -4l117 -672q2 -4 -3 -4h-174q-4 0 -5 4l-12 107h-212q-43 -104 -44 -107q-1 -4 -4 -4zM534 756h-302q-3 0 -3 4l15 109q0 4 4 4h302q3 0 3 -4l-15 -109q-1 -4 -4 -4zM242 244h139l-26 229h-22z" />
<glyph unicode="&#x101;" horiz-adv-x="506" d="M217 107q68 0 72 23l7 51q-38 14 -74 14q-19 0 -36 -8t-19 -21l-3 -19q-3 -19 13 -29.5t40 -10.5zM144 -12q-66 0 -103 32t-29 92l7 55q8 63 60.5 96.5t117.5 33.5q24 0 52.5 -3.5t44.5 -6.5l16 -3l6 42q3 23 -15 32t-68 9q-17 0 -35.5 -1t-34 -3t-28.5 -4t-21 -3t-9 -1 q-4 0 -5 3q-1 2 -6 53.5t-5 52.5q0 4 4 5q4 3 22.5 9t63.5 13t95 7q36 0 61.5 -2t58 -12t50.5 -27.5t28.5 -52t3.5 -82.5l-45 -318q0 -4 -4 -4h-152q-4 0 -4 4l1 7q-33 -23 -128 -23zM453 563h-302q-3 0 -3 4l15 109q0 4 4 4h302q3 0 3 -4l-16 -109q0 -4 -3 -4z" />
<glyph unicode="&#x102;" d="M138 0h-174q-4 0 -2 4l312 672q3 4 4 4h191q5 0 6 -4l117 -672q2 -4 -3 -4h-174q-4 0 -5 4l-12 107h-212q-43 -104 -44 -107q-1 -4 -4 -4zM382 735q-137 0 -137 117q0 20 2.5 25.5t8.5 5.5h69q7 0 9 -6q8 -25 19 -33t41 -8q50 0 70 41q3 6 13 6h69q5 0 7 -1.5t1 -5.5 q-25 -141 -172 -141zM242 244h139l-26 229h-22z" />
<glyph unicode="&#x103;" horiz-adv-x="506" d="M217 107q68 0 72 23l7 51q-38 14 -74 14q-19 0 -36 -8t-19 -21l-3 -19q-3 -19 13 -29.5t40 -10.5zM144 -12q-66 0 -103 32t-29 92l7 55q8 63 60.5 96.5t117.5 33.5q24 0 52.5 -3.5t44.5 -6.5l16 -3l6 42q3 23 -15 32t-68 9q-17 0 -35.5 -1t-34 -3t-28.5 -4t-21 -3t-9 -1 q-4 0 -5 3q-1 2 -6 53.5t-5 52.5q0 4 4 5q4 3 22.5 9t63.5 13t95 7q36 0 61.5 -2t58 -12t50.5 -27.5t28.5 -52t3.5 -82.5l-45 -318q0 -4 -4 -4h-152q-4 0 -4 4l1 7q-33 -23 -128 -23zM301 542q-137 0 -137 117q0 20 2.5 25.5t8.5 5.5h69q7 0 9 -6q8 -25 19 -33t41 -8 q27 0 43 9.5t27 31.5q3 6 13 6h69q5 0 7 -1.5t1 -5.5q-25 -141 -172 -141z" />
<glyph unicode="&#x104;" d="M464 -195q-44 0 -69.5 16.5t-25.5 61.5q0 72 71 117h-25q-4 0 -5 4l-12 107h-212q-43 -104 -44 -107q-1 -4 -4 -4h-174q-4 0 -2 4l312 672q3 4 4 4h191q5 0 6 -4l117 -672q2 -4 -2 -4q-2 0 -4 -2q-25 -12 -35.5 -17.5t-27 -16t-23 -19.5t-6.5 -19q0 -11 13 -11t27 9 q5 3 9 -1q0 -2 7 -20t14.5 -36t7.5 -19q2 -5 -3 -9t-17 -11t-37.5 -15t-50.5 -8zM242 244h139l-26 229h-22z" />
<glyph unicode="&#x105;" horiz-adv-x="506" d="M303 -195q-44 0 -69.5 16.5t-25.5 61.5q0 72 71 117h-4q-4 0 -4 4l1 7q-33 -23 -128 -23q-66 0 -103 32t-29 92l7 55q8 63 60.5 96.5t117.5 33.5q24 0 52.5 -3.5t44.5 -6.5l16 -3l6 42q3 23 -15 32t-68 9q-17 0 -35.5 -1t-34 -3t-28.5 -4t-21 -3t-9 -1q-4 0 -5 3 q-1 2 -6 53t-5 53q0 4 4 5q4 3 22.5 9t63.5 13t95 7q36 0 61.5 -2t58 -12t50.5 -27.5t28.5 -52t3.5 -82.5l-45 -318q0 -4 -2 -4t-4 -2q-32 -16 -46.5 -23.5t-29.5 -21.5t-15 -27q0 -11 12 -11q14 0 27 9q5 3 9 -1q0 -2 7 -20t14.5 -36t7.5 -19q2 -5 -3 -9t-17 -11t-37.5 -15 t-50.5 -8zM217 107q68 0 72 23l7 51q-38 14 -74 14q-19 0 -36 -8t-19 -21l-3 -19q-3 -19 13 -29.5t40 -10.5z" />
<glyph unicode="&#x106;" horiz-adv-x="544" d="M279 -10q-27 0 -49.5 1.5t-48.5 6.5t-44.5 13t-38.5 21.5t-31 33t-21.5 45.5t-9.5 60.5t5 77.5l27 190q9 65 32 112t52 74t69.5 42.5t76.5 20t82 4.5q126 0 180 -27q3 -3 1 -6l-66 -132q-1 -3 -6 -3q-2 1 -18.5 4t-49 6t-62.5 3q-22 0 -36.5 -3t-33 -13t-30.5 -35 t-18 -64l-23 -159q-10 -70 11 -90.5t73 -20.5q22 0 45 1.5t40.5 3.5t32 4t22.5 3l9 2q2 2 4 -2l28 -133q1 -2 -3 -6q-70 -35 -201 -35zM396 743q-4 -4 -7 -4h-114q-4 0 -1 4l96 148q3 4 7 4h138q5 0 2 -4z" />
<glyph unicode="&#x107;" horiz-adv-x="470" d="M240 -8q-27 0 -47.5 1t-44 4.5t-38.5 9.5t-32 16.5t-25 25t-16.5 35t-7 47.5t3.5 61l15 110q9 64 36 106t68.5 60t76.5 23.5t83 5.5q96 0 146 -25q3 -2 2 -6l-47 -110q-2 -3 -6 -3q-1 0 -6.5 0.5t-16 1.5t-23 2t-29.5 1.5t-34 0.5q-11 0 -22.5 -2.5t-25 -9.5t-23.5 -22 t-13 -36l-12 -87q-6 -45 11 -58.5t52 -13.5q94 0 112 9q6 0 6 -3q0 -2 10.5 -57.5t10.5 -56.5q0 -4 -3 -5q-75 -25 -161 -25zM332 550q-4 -4 -7 -4h-114q-4 0 -1 4l96 148q3 4 7 4h138q5 0 2 -4z" />
<glyph unicode="&#x108;" horiz-adv-x="544" d="M279 -10q-27 0 -49.5 1.5t-48.5 6.5t-44.5 13t-38.5 21.5t-31 33t-21.5 45.5t-9.5 60.5t5 77.5l27 190q9 65 32 112t52 74t69.5 42.5t76.5 20t82 4.5q126 0 180 -27q3 -3 1 -6l-66 -132q-1 -3 -6 -3q-2 1 -18.5 4t-49 6t-62.5 3q-22 0 -36.5 -3t-33 -13t-30.5 -35 t-18 -64l-23 -159q-10 -70 11 -90.5t73 -20.5q22 0 45 1.5t40.5 3.5t32 4t22.5 3l9 2q2 2 4 -2l28 -133q1 -2 -3 -6q-70 -35 -201 -35zM331 738h-115q-1 0 0 4q1 2 60 74.5t59 73.5q3 4 8 4h127q6 0 8 -4l77 -148q2 -4 -2 -4h-114q-5 0 -6 4l-37 63h-3q-53 -60 -55 -63 q-3 -4 -7 -4z" />
<glyph unicode="&#x109;" horiz-adv-x="470" d="M240 -8q-27 0 -47.5 1t-44 4.5t-38.5 9.5t-32 16.5t-25 25t-16.5 35t-7 47.5t3.5 61l15 110q9 64 36 106t68.5 60t76.5 23.5t83 5.5q96 0 146 -25q3 -2 2 -6l-47 -110q-2 -3 -6 -3q-1 0 -6.5 0.5t-16 1.5t-23 2t-29.5 1.5t-34 0.5q-11 0 -22.5 -2.5t-25 -9.5t-23.5 -22 t-13 -36l-12 -87q-6 -45 11 -58.5t52 -13.5q94 0 112 9q6 0 6 -3q0 -2 10.5 -57.5t10.5 -56.5q0 -4 -3 -5q-75 -25 -161 -25zM255 545h-115q-1 0 0 4q1 2 60.5 74.5t59.5 73.5q3 4 7 4h127q6 0 8 -4l77 -148q2 -4 -2 -4h-114q-5 0 -6 4l-37 63h-3q-53 -60 -55 -63 q-3 -4 -7 -4z" />
<glyph unicode="&#x10a;" horiz-adv-x="544" d="M279 -10q-27 0 -49.5 1.5t-48.5 6.5t-44.5 13t-38.5 21.5t-31 33t-21.5 45.5t-9.5 60.5t5 77.5l27 190q9 65 32 112t52 74t69.5 42.5t76.5 20t82 4.5q126 0 180 -27q3 -3 1 -6l-66 -132q-1 -3 -6 -3q-2 1 -18.5 4t-49 6t-62.5 3q-22 0 -36.5 -3t-33 -13t-30.5 -35 t-18 -64l-23 -159q-10 -70 11 -90.5t73 -20.5q22 0 45 1.5t40.5 3.5t32 4t22.5 3l9 2q2 2 4 -2l28 -133q1 -2 -3 -6q-70 -35 -201 -35zM310 735q-4 0 -4 4l19 130q0 4 4 4h149q3 0 3 -4l-19 -130q0 -4 -4 -4h-148z" />
<glyph unicode="&#x10b;" horiz-adv-x="470" d="M240 -8q-27 0 -47.5 1t-44 4.5t-38.5 9.5t-32 16.5t-25 25t-16.5 35t-7 47.5t3.5 61l15 110q9 64 36 106t68.5 60t76.5 23.5t83 5.5q96 0 146 -25q3 -2 2 -6l-47 -110q-2 -3 -6 -3q-1 0 -6.5 0.5t-16 1.5t-23 2t-29.5 1.5t-34 0.5q-11 0 -22.5 -2.5t-25 -9.5t-23.5 -22 t-13 -36l-12 -87q-6 -45 11 -58.5t52 -13.5q94 0 112 9q6 0 6 -3q0 -2 10.5 -57.5t10.5 -56.5q0 -4 -3 -5q-75 -25 -161 -25zM246 542q-3 0 -3 4l18 130q0 4 4 4h149q3 0 3 -4l-19 -130q0 -4 -4 -4h-148z" />
<glyph unicode="&#x10c;" horiz-adv-x="544" d="M279 -10q-27 0 -49.5 1.5t-48.5 6.5t-44.5 13t-38.5 21.5t-31 33t-21.5 45.5t-9.5 60.5t5 77.5l27 190q9 65 32 112t52 74t69.5 42.5t76.5 20t82 4.5q126 0 180 -27q3 -3 1 -6l-66 -132q-1 -3 -6 -3q-2 1 -18.5 4t-49 6t-62.5 3q-22 0 -36.5 -3t-33 -13t-30.5 -35 t-18 -64l-23 -159q-10 -70 11 -90.5t73 -20.5q22 0 45 1.5t40.5 3.5t32 4t22.5 3l9 2q2 2 4 -2l28 -133q1 -2 -3 -6q-70 -35 -201 -35zM461 890h119q5 0 1 -4l-134 -148q-3 -4 -8 -4h-108q-6 0 -7 4q0 1 -23.5 38t-46.5 74l-23 36q-2 4 3 4h119q2 0 5 -4l38 -62h2 q54 59 56 62q3 4 7 4z" />
<glyph unicode="&#x10d;" horiz-adv-x="470" d="M240 -8q-27 0 -47.5 1t-44 4.5t-38.5 9.5t-32 16.5t-25 25t-16.5 35t-7 47.5t3.5 61l15 110q9 64 36 106t68.5 60t76.5 23.5t83 5.5q96 0 146 -25q3 -2 2 -6l-47 -110q-2 -3 -6 -3q-1 0 -6.5 0.5t-16 1.5t-23 2t-29.5 1.5t-34 0.5q-11 0 -22.5 -2.5t-25 -9.5t-23.5 -22 t-13 -36l-12 -87q-6 -45 11 -58.5t52 -13.5q94 0 112 9q6 0 6 -3q0 -2 10.5 -57.5t10.5 -56.5q0 -4 -3 -5q-75 -25 -161 -25zM385 697h119q5 0 1 -4l-134 -148q-3 -4 -8 -4h-108q-6 0 -7 4q0 1 -23.5 38t-46.5 73l-23 37q-2 4 3 4h119q2 0 5 -4l38 -62h2q54 59 56 62 q3 4 7 4z" />
<glyph unicode="&#x10e;" horiz-adv-x="600" d="M216 157h74q23 0 36.5 3t28.5 14t24.5 35.5t14.5 64.5l18 134q7 32 3.5 53.5t-7 34t-15.5 18.5t-22.5 7.5t-28.5 1.5h-74zM268 0h-248l96 680h248q41 0 68 -2.5t66 -16t60 -39t32.5 -76.5t1.5 -123l-22 -161q-10 -73 -35 -124.5t-52.5 -77.5t-70 -40.5t-71.5 -17 t-73 -2.5zM438 890h119q5 0 2 -4l-134 -148q-3 -4 -9 -4h-108q-5 0 -6 4q0 1 -23.5 38t-46.5 74l-23 36q-2 4 2 4h119q3 0 6 -4l38 -62h2q54 59 56 62q3 4 6 4z" />
<glyph unicode="&#x10f;" horiz-adv-x="707" d="M449 0h-160q-3 0 -3 4l2 12q-27 -25 -108 -25q-17 0 -28.5 0.5t-28 3t-27.5 6.5t-24.5 11.5t-21.5 18t-16 26.5t-11 36t-2.5 47.5t5.5 60.5l13 87q8 55 25 94.5t36 60.5t46.5 33t48.5 14.5t50 2.5q15 0 41.5 -3.5t45.5 -7.5l20 -3l28 197q0 4 6 4h159q2 0 2 -4l-94 -672 q-1 -4 -4 -4zM237 129q66 0 70 28l26 184q-39 14 -76 14q-21 0 -33 -14.5t-19 -63.5l-9 -68q-1 -29 -1 -45t9.5 -24t15.5 -9.5t17 -1.5zM585 458q-2 -1 -4 0t-1 4l30 214q0 4 5 4h123q3 0 3 -4l-18 -132q-2 -5 -5 -7q-3 -1 -66.5 -39t-66.5 -40z" />
<glyph unicode="&#x110;" horiz-adv-x="620" d="M216 157h75q23 0 36.5 3t29 14t25 35.5t14.5 65.5l18 133q3 24 3 42t-2 30t-8 20.5t-11 12.5t-15.5 6.5t-17.5 3t-20 0.5h-75l-17 -114h74q3 0 3 -4l-18 -124q0 -4 -3 -4h-74zM269 0h-249l39 277h-34q-3 0 -3 4l17 124q1 4 4 4h34l39 271h249q25 0 42.5 -1t44 -4.5 t42.5 -10.5t38.5 -19.5t32 -31.5t22 -45.5t10 -62.5t-4.5 -82l-22 -161q-10 -73 -34.5 -124.5t-52 -77.5t-69.5 -40.5t-71 -17t-74 -2.5z" />
<glyph unicode="&#x111;" horiz-adv-x="574" d="M237 132q68 0 71 25l26 184q-39 14 -75 14q-13 0 -21.5 -3.5t-17.5 -22t-14 -52.5l-9 -65q-7 -49 4 -64.5t36 -15.5zM182 -6q-29 0 -49 2.5t-42.5 10t-34.5 21.5t-23.5 37.5t-10.5 57.5t5 81l12 84q10 67 30.5 110.5t51.5 62.5t58.5 25.5t66.5 6.5q21 0 47.5 -3.5 t42.5 -7.5l17 -3l8 55h-97q-5 0 -3 5l14 103q1 4 6 4h96l4 30q0 4 4 4h160q4 0 4 -4l-4 -30h47q3 0 3 -4l-14 -104q-2 -4 -4 -4h-49l-74 -530q-1 -4 -4 -4h-160q-4 0 -4 4l2 12q-25 -22 -106 -22z" />
<glyph unicode="&#x112;" horiz-adv-x="529" d="M20 0l96 680h441q3 0 3 -4l-20 -141q0 -4 -4 -4h-267l-16 -114h220q4 0 3 -4l-20 -140q0 -4 -4 -4h-220l-17 -120h267q4 0 3 -4l-19 -141q-2 -4 -5 -4h-441zM500 756h-302q-3 0 -3 4l15 109q0 4 5 4h302q2 0 2 -4l-15 -109q-1 -4 -4 -4z" />
<glyph unicode="&#x113;" horiz-adv-x="508" d="M208 292h109q9 67 -44 67q-21 0 -40.5 -15t-24.5 -52zM235 -10q-32 0 -59 3t-60 16t-54.5 34.5t-32.5 63t-3 97.5l12 84q30 209 255 209q30 0 54 -3t54 -15.5t49 -33.5t28.5 -61.5t1.5 -95.5l-14 -97h-272q-6 -38 11 -52.5t51 -14.5q37 0 77 3.5t61.5 6.5t24.5 4 q4 1 4 -3q13 -91 13 -106q0 -8 -3 -9l-4 -2l-10 -2.5t-14.5 -4t-19 -4.5t-23 -4.5t-27.5 -5t-30.5 -4t-33.5 -2.5t-36 -1zM454 563h-302q-3 0 -3 4l15 109q0 4 4 4h302q3 0 3 -4l-15 -109q-1 -4 -4 -4z" />
<glyph unicode="&#x114;" horiz-adv-x="529" d="M20 0l96 680h441q3 0 3 -4l-20 -141q0 -4 -4 -4h-267l-16 -114h220q4 0 3 -4l-20 -140q0 -4 -4 -4h-220l-17 -120h267q4 0 3 -4l-19 -141q-2 -4 -5 -4h-441zM359 735q-137 0 -137 117q0 20 2.5 25.5t8.5 5.5h69q7 0 9 -6q8 -25 19 -33t41 -8q27 0 43 9.5t27 31.5 q3 6 13 6h69q5 0 7 -1.5t1 -5.5q-25 -141 -172 -141z" />
<glyph unicode="&#x115;" horiz-adv-x="508" d="M208 292h109q9 67 -44 67q-21 0 -40.5 -15t-24.5 -52zM235 -10q-32 0 -59 3t-60 16t-54.5 34.5t-32.5 63t-3 97.5l12 84q30 209 255 209q30 0 54 -3t54 -15.5t49 -33.5t28.5 -61.5t1.5 -95.5l-14 -97h-272q-6 -38 11 -52.5t51 -14.5q37 0 77 3.5t61.5 6.5t24.5 4 q4 1 4 -3q13 -91 13 -106q0 -8 -3 -9l-4 -2l-10 -2.5t-14.5 -4t-19 -4.5t-23 -4.5t-27.5 -5t-30.5 -4t-33.5 -2.5t-36 -1zM302 542q-137 0 -137 117q0 20 2.5 25.5t8.5 5.5h69q7 0 9 -6q8 -25 19 -33t41 -8q50 0 70 41q3 6 13 6h69q5 0 7 -1.5t1 -5.5q-25 -141 -172 -141z " />
<glyph unicode="&#x116;" horiz-adv-x="529" d="M20 0l96 680h441q3 0 3 -4l-20 -141q0 -4 -4 -4h-267l-16 -114h220q4 0 3 -4l-20 -140q0 -4 -4 -4h-220l-17 -120h267q4 0 3 -4l-19 -141q-2 -4 -5 -4h-441zM292 735q-3 0 -3 4l18 130q0 4 5 4h149q2 0 2 -4l-18 -130q0 -4 -5 -4h-148z" />
<glyph unicode="&#x117;" horiz-adv-x="508" d="M235 -10q-32 0 -59 3t-60 16t-54.5 34.5t-32.5 63t-3 97.5l12 84q30 209 255 209q30 0 54 -3t54 -15.5t49 -33.5t28.5 -61.5t1.5 -95.5l-14 -97h-272q-6 -38 11 -52.5t51 -14.5q37 0 77 3.5t61.5 6.5t24.5 4q4 1 4 -3q13 -91 13 -106q0 -8 -3 -9l-4 -2l-10 -2.5t-14.5 -4 t-19 -4.5t-23 -4.5t-27.5 -5t-30.5 -4t-33.5 -2.5t-36 -1zM231 542q-3 0 -3 4l18 130q0 4 4 4h149q3 0 3 -4l-18 -130q0 -4 -5 -4h-148zM208 292h109q9 67 -44 67q-21 0 -40.5 -15t-24.5 -52z" />
<glyph unicode="&#x118;" horiz-adv-x="529" d="M20 0l96 680h441q3 0 3 -4l-20 -141q0 -4 -4 -4h-267l-16 -114h220q4 0 3 -4l-20 -140q0 -4 -4 -4h-220l-17 -120h267q3 0 3 -4l-20 -141v-1q0 -2 -5 -5q-25 -12 -35.5 -17.5t-27 -16t-23 -19.5t-6.5 -19q0 -11 12 -11q14 0 27 9q6 3 9 -1q1 -2 15 -38t14 -37q2 -5 -3 -9 t-16.5 -10.5t-37 -15t-50.5 -8.5q-44 0 -69.5 16.5t-25.5 61.5q0 73 70 117h-293z" />
<glyph unicode="&#x119;" horiz-adv-x="508" d="M185 -196q-44 0 -69.5 16.5t-25.5 61.5q0 73 67 115q-156 30 -131 207l12 84q30 209 254 209q30 0 54 -3t54.5 -15.5t49.5 -33.5t28.5 -61.5t1.5 -95.5l-14 -97h-273q-5 -38 12 -52.5t51 -14.5q37 0 77 3.5t61.5 6.5t24.5 4t3 -3q14 -98 14 -106t-4 -9q-62 -21 -133 -27 q-28 -13 -42.5 -21.5t-28 -21t-13.5 -25.5q0 -11 12 -11q15 0 28 9q5 3 9 -1q0 -2 6.5 -20t14 -36t7.5 -19q2 -6 -2 -9q-5 -4 -17 -11t-37.5 -15t-50.5 -8zM208 292h109q9 67 -44 67q-22 0 -41 -15t-24 -52z" />
<glyph unicode="&#x11a;" horiz-adv-x="529" d="M20 0l96 680h441q3 0 3 -4l-20 -141q0 -4 -4 -4h-267l-16 -114h220q4 0 3 -4l-20 -140q0 -4 -4 -4h-220l-17 -120h267q4 0 3 -4l-19 -141q-2 -4 -5 -4h-441zM441 890h119q5 0 2 -4l-134 -148q-3 -4 -9 -4h-108q-5 0 -6 4q0 1 -23.5 38t-46.5 74l-23 36q-2 4 2 4h119 q3 0 6 -4l38 -62h2q54 59 56 62q3 4 6 4z" />
<glyph unicode="&#x11b;" horiz-adv-x="508" d="M208 292h109q9 67 -44 67q-21 0 -40.5 -15t-24.5 -52zM235 -10q-32 0 -59 3t-60 16t-54.5 34.5t-32.5 63t-3 97.5l12 84q30 209 255 209q30 0 54 -3t54 -15.5t49 -33.5t28.5 -61.5t1.5 -95.5l-14 -97h-272q-6 -38 11 -52.5t51 -14.5q37 0 77 3.5t61.5 6.5t24.5 4 q4 1 4 -3q13 -91 13 -106q0 -8 -3 -9l-4 -2l-10 -2.5t-14.5 -4t-19 -4.5t-23 -4.5t-27.5 -5t-30.5 -4t-33.5 -2.5t-36 -1zM378 697h119q5 0 1 -4l-133 -148q-4 -4 -9 -4h-108q-6 0 -7 4q0 1 -23.5 38t-46.5 73l-23 37q0 4 3 4h119q2 0 5 -4l39 -62h2q53 59 55 62q3 4 7 4z " />
<glyph unicode="&#x11c;" horiz-adv-x="598" d="M280 -10q-44 0 -76 3.5t-69.5 18.5t-59 41.5t-32 76t-1.5 118.5l26 191q9 69 35.5 118.5t57 74.5t75 39t75 17t72.5 3q58 0 111.5 -7t76 -13t26.5 -8q3 -1 1 -6l-57 -129q-1 -3 -6 -3q-1 1 -26.5 3.5t-68.5 5.5t-79 3q-23 0 -38 -3t-33.5 -13t-31 -34.5t-17.5 -63.5 l-23 -163q-10 -71 11.5 -92.5t72.5 -21.5l102 6l14 100h-79q-4 0 -3 4l18 133q1 4 5 4h222l-54 -381q-166 -22 -247 -22zM338 738h-115q-1 0 0 4q1 2 60.5 74.5t59.5 73.5q3 4 7 4h127q6 0 8 -4l77 -148q2 -4 -2 -4h-114q-5 0 -6 4l-37 63h-3q-53 -60 -55 -63q-3 -4 -7 -4z " />
<glyph unicode="&#x11d;" horiz-adv-x="526" d="M173 -220q-119 0 -185 22q-3 2 0 5q0 2 24 58t26 60q2 5 6 3q1 0 8.5 -1t20.5 -3t29.5 -3.5t39 -2.5t45.5 -1q17 0 29.5 2t26.5 8t23 20t13 36l5 31q-76 -14 -112 -14q-17 0 -30 0.5t-28 3t-26.5 7t-23.5 12t-19.5 17.5t-14.5 25t-9.5 34t-2.5 44.5t4 55.5l11 84 q8 56 24 95.5t34.5 61.5t46.5 34.5t52 15.5t57 3q81 0 101 -22l2 12q0 4 4 4h159q4 0 4 -4l-71 -500q-7 -47 -21 -82t-36 -56.5t-44.5 -35t-54.5 -19.5t-56.5 -8t-60.5 -2zM258 545h-115q-1 0 0 4q1 2 60.5 74.5t59.5 73.5q3 4 7 4h127q6 0 8 -4l77 -148q2 -4 -2 -4h-114 q-5 0 -6 4l-37 63h-3q-53 -60 -55 -63q-3 -4 -7 -4zM222 131q15 0 35 3.5t33 7.5l12 4l26 183q1 8 -2.5 13t-18.5 9t-43 4q-11 0 -19 -2.5t-18 -10t-16.5 -25t-10.5 -43.5l-9 -64q-7 -49 1 -64t30 -15z" />
<glyph unicode="&#x11e;" horiz-adv-x="598" d="M280 -10q-44 0 -76 3.5t-69.5 18.5t-59 41.5t-32 76t-1.5 118.5l26 191q9 69 35.5 118.5t57 74.5t75 39t75 17t72.5 3q58 0 111.5 -7t76 -13t26.5 -8q3 -1 1 -6l-57 -129q-1 -3 -6 -3q-1 1 -26.5 3.5t-68.5 5.5t-79 3q-23 0 -38 -3t-33.5 -13t-31 -34.5t-17.5 -63.5 l-23 -163q-10 -71 11.5 -92.5t72.5 -21.5l102 6l14 100h-79q-4 0 -3 4l18 133q1 4 5 4h222l-54 -381q-166 -22 -247 -22zM384 735q-137 0 -137 117q0 20 2.5 25.5t8.5 5.5h69q7 0 9 -6q8 -25 19 -33t41 -8q50 0 70 41q3 6 13 6h69q5 0 7 -1.5t1 -5.5q-25 -141 -172 -141z " />
<glyph unicode="&#x11f;" horiz-adv-x="526" d="M222 131q15 0 35 3.5t33 7.5l12 4l26 183q1 8 -2.5 13t-18.5 9t-43 4q-11 0 -19 -2.5t-18 -10t-16.5 -25t-10.5 -43.5l-9 -64q-7 -49 1 -64t30 -15zM173 -220q-119 0 -185 22q-3 2 0 5q0 2 24 58t26 60q2 5 6 3q1 0 8.5 -1t20.5 -3t29.5 -3.5t39 -2.5t45.5 -1 q17 0 29.5 2t26.5 8t23 20t13 36l5 31q-76 -14 -112 -14q-17 0 -30 0.5t-28 3t-26.5 7t-23.5 12t-19.5 17.5t-14.5 25t-9.5 34t-2.5 44.5t4 55.5l11 84q8 56 24 95.5t34.5 61.5t46.5 34.5t52 15.5t57 3q81 0 101 -22l2 12q0 4 4 4h159q4 0 4 -4l-71 -500q-7 -47 -21 -82 t-36 -56.5t-44.5 -35t-54.5 -19.5t-56.5 -8t-60.5 -2zM307 542q-137 0 -137 117q0 20 2.5 25.5t8.5 5.5h69q7 0 9 -6q8 -25 19 -33t41 -8q27 0 43 9.5t27 31.5q3 6 13 6h69q5 0 7 -1.5t1 -5.5q-25 -141 -172 -141z" />
<glyph unicode="&#x120;" horiz-adv-x="598" d="M280 -10q-44 0 -76 3.5t-69.5 18.5t-59 41.5t-32 76t-1.5 118.5l26 191q9 69 35.5 118.5t57 74.5t75 39t75 17t72.5 3q58 0 111.5 -7t76 -13t26.5 -8q3 -1 1 -6l-57 -129q-1 -3 -6 -3q-1 1 -26.5 3.5t-68.5 5.5t-79 3q-23 0 -38 -3t-33.5 -13t-31 -34.5t-17.5 -63.5 l-23 -163q-10 -71 11.5 -92.5t72.5 -21.5l102 6l14 100h-79q-4 0 -3 4l18 133q1 4 5 4h222l-54 -381q-166 -22 -247 -22zM300 735q-3 0 -3 4l18 130q0 4 4 4h149q3 0 3 -4l-18 -130q0 -4 -5 -4h-148z" />
<glyph unicode="&#x121;" horiz-adv-x="526" d="M173 -220q-119 0 -185 22q-3 2 0 5q0 2 24 58t26 60q2 5 6 3q1 0 8.5 -1t20.5 -3t29.5 -3.5t39 -2.5t45.5 -1q17 0 29.5 2t26.5 8t23 20t13 36l5 31q-76 -14 -112 -14q-17 0 -30 0.5t-28 3t-26.5 7t-23.5 12t-19.5 17.5t-14.5 25t-9.5 34t-2.5 44.5t4 55.5l11 84 q8 56 24 95.5t34.5 61.5t46.5 34.5t52 15.5t57 3q81 0 101 -22l2 12q0 4 4 4h159q4 0 4 -4l-71 -500q-7 -47 -21 -82t-36 -56.5t-44.5 -35t-54.5 -19.5t-56.5 -8t-60.5 -2zM222 131q15 0 35 3.5t33 7.5l12 4l26 183q1 8 -2.5 13t-18.5 9t-43 4q-11 0 -19 -2.5t-18 -10 t-16.5 -25t-10.5 -43.5l-9 -64q-7 -49 1 -64t30 -15zM229 542q-4 0 -4 4l19 130q0 4 4 4h149q3 0 3 -4l-19 -130q0 -4 -4 -4h-148z" />
<glyph unicode="&#x122;" horiz-adv-x="598" d="M280 -10q-44 0 -76 3.5t-69.5 18.5t-59 41.5t-32 76t-1.5 118.5l26 191q9 69 35.5 118.5t57 74.5t75 39t75 17t72.5 3q58 0 111.5 -7t76 -13t26.5 -8q3 -1 1 -6l-57 -129q-1 -3 -6 -3q-1 1 -26.5 3.5t-68.5 5.5t-79 3q-23 0 -38 -3t-33.5 -13t-31 -34.5t-17.5 -63.5 l-23 -163q-10 -71 11.5 -92.5t72.5 -21.5l102 6l14 100h-79q-4 0 -3 4l18 133q1 4 5 4h222l-54 -381q-166 -22 -247 -22zM181 -269q-2 -1 -4 0t-1 4l30 214q0 4 4 4h123q4 0 4 -4l-19 -132q0 -4 -5 -7q-3 -1 -66 -39t-66 -40z" />
<glyph unicode="&#x123;" horiz-adv-x="526" d="M173 -220q-119 0 -185 22q-3 2 0 5q0 2 24 58t26 60q2 5 6 3q1 0 8.5 -1t20.5 -3t29.5 -3.5t39 -2.5t45.5 -1q17 0 29.5 2t26.5 8t23 20t13 36l5 31q-76 -14 -112 -14q-17 0 -30 0.5t-28 3t-26.5 7t-23.5 12t-19.5 17.5t-14.5 25t-9.5 34t-2.5 44.5t4 55.5l11 84 q8 56 24 95.5t34.5 61.5t46.5 34.5t52 15.5t57 3q81 0 101 -22l2 12q0 4 4 4h159q4 0 4 -4l-71 -500q-7 -47 -21 -82t-36 -56.5t-44.5 -35t-54.5 -19.5t-56.5 -8t-60.5 -2zM222 131q15 0 35 3.5t33 7.5l12 4l26 183q1 8 -2.5 13t-18.5 9t-43 4q-11 0 -19 -2.5t-18 -10 t-16.5 -25t-10.5 -43.5l-9 -64q-7 -49 1 -64t30 -15zM383 769q2 1 4 0t1 -4l-30 -214q0 -4 -4 -4h-123q-4 0 -4 4l19 132q0 4 5 7q3 1 66 39t66 40z" />
<glyph unicode="&#x124;" horiz-adv-x="626" d="M24 0q-4 0 -4 4l95 672q0 4 4 4h166q4 0 4 -4l-37 -261h178l37 261q0 4 4 4h167q3 0 3 -4l-95 -672q0 -4 -3 -4h-167q-4 0 -4 4l37 262h-178l-37 -262q0 -4 -4 -4h-166zM333 738h-115q-2 0 -1 4q1 2 60.5 74.5t59.5 73.5q3 4 8 4h127q5 0 7 -4l77 -148q2 -4 -1 -4h-114 q-6 0 -7 4l-37 63h-3q-53 -60 -55 -63q-3 -4 -6 -4z" />
<glyph unicode="&#x125;" horiz-adv-x="543" d="M22 0q-4 0 -4 4l95 672q0 4 4 4h160q3 0 3 -4l-29 -202q76 19 113 19q15 0 26 -0.5t26.5 -3t26.5 -6.5t23.5 -11.5t21 -18t16 -26t11 -35t3.5 -46t-5 -58.5l-40 -284q0 -4 -4 -4h-160q-3 0 -3 4l39 273q7 35 1 52.5t-12.5 21t-20.5 3.5q-15 0 -35 -4t-32 -8l-13 -3 l-48 -335q0 -4 -3 -4h-160zM293 750h-115q-1 0 0 4q1 2 60.5 74.5t59.5 73.5q3 4 7 4h127q6 0 8 -4l77 -148q2 -4 -2 -4h-114q-5 0 -6 4l-37 63h-3q-53 -60 -55 -63q-3 -4 -7 -4z" />
<glyph unicode="&#x128;" horiz-adv-x="274" d="M24 0q-4 0 -4 4l95 672q0 4 5 4h166q4 0 3 -4l-94 -672q0 -4 -5 -4h-166zM61 748q-2 0 -2 5l11 82q1 10 10 20q35 35 85 35q31 0 71.5 -19t63.5 -19q24 0 51.5 17.5t29.5 17.5q4 0 4 -6l-11 -80q-2 -13 -11 -21q-43 -39 -87 -39q-32 0 -71 20.5t-60 20.5q-26 0 -54.5 -17 t-29.5 -17z" />
<glyph unicode="&#x129;" horiz-adv-x="262" d="M11 0q-4 0 -3 4l67 479q1 4 4 4h159q4 0 4 -4l-67 -479q-1 -4 -5 -4h-159zM28 555q-4 0 -2 5l11 82q1 10 10 20q35 35 85 35q31 0 71.5 -19t63.5 -19q24 0 51.5 17.5t29.5 17.5q4 0 4 -6l-12 -80q-2 -13 -11 -21q-43 -39 -86 -39q-32 0 -71 20.5t-60 20.5 q-26 0 -54.5 -17t-29.5 -17z" />
<glyph unicode="&#x12a;" horiz-adv-x="274" d="M24 0q-4 0 -4 4l95 672q0 4 4 4h166q4 0 4 -4l-95 -672q0 -4 -4 -4h-166zM364 756h-302q-4 0 -4 4l16 109q0 4 4 4h302q3 0 3 -4l-15 -109q-1 -4 -4 -4z" />
<glyph unicode="&#x12b;" horiz-adv-x="262" d="M11 0q-4 0 -4 4l68 479q0 4 4 4h159q4 0 4 -4l-68 -479q0 -4 -4 -4h-159zM331 563h-302q-3 0 -3 4l15 109q0 4 4 4h302q3 0 3 -4l-15 -109q-1 -4 -4 -4z" />
<glyph unicode="&#x12e;" horiz-adv-x="274" d="M24 0q-3 0 -3 4l94 672q1 4 5 4h166q4 0 3 -4l-94 -672q0 -4 -5 -4h-3q-31 -15 -45.5 -23t-29.5 -21.5t-15 -26.5q0 -11 13 -11q14 0 27 9q5 3 9 -1q0 -2 6.5 -20t14 -36t7.5 -19q2 -6 -2 -9q-5 -4 -17 -11t-37.5 -15t-50.5 -8q-44 0 -69.5 16.5t-25.5 61.5q0 70 66 114 h-14z" />
<glyph unicode="&#x12f;" horiz-adv-x="262" d="M21 0q-3 0 -3 4l67 479q1 4 5 4h160q3 0 2 -4l-67 -479q0 -3 -2 -3l-2 -2t-2 -1q-25 -12 -35.5 -17.5t-27 -16t-23 -19.5t-6.5 -19q0 -11 13 -11t27 9q5 3 9 -1q0 -2 6.5 -20t14 -36t7.5 -19q2 -6 -2 -9q-5 -4 -17 -11t-37.5 -15t-50.5 -8q-44 0 -69.5 16.5t-25.5 61.5 q0 72 70 117h-11zM99 550q-4 0 -4 4l17 122q0 4 5 4h159q3 0 3 -4l-17 -122q0 -4 -4 -4h-159z" />
<glyph unicode="&#x130;" horiz-adv-x="274" d="M24 0q-4 0 -4 4l95 672q0 4 4 4h166q4 0 4 -4l-95 -672q0 -4 -4 -4h-166zM136 735q-3 0 -3 4l18 130q0 4 4 4h149q3 0 3 -4l-18 -130q0 -4 -5 -4h-148z" />
<glyph unicode="&#x131;" horiz-adv-x="262" d="M11 0q-4 0 -4 4l68 479q0 4 4 4h159q4 0 4 -4l-68 -479q0 -4 -4 -4h-159z" />
<glyph unicode="&#x134;" horiz-adv-x="503" d="M168 -10q-19 0 -36.5 1t-32 2.5t-27.5 3.5t-23 4t-18.5 4t-14.5 4.5t-10.5 4l-7.5 2.5l-2 1q-3 1 -1 6l59 132q2 5 6 3q30 -10 124 -10q88 0 99 73l63 455q1 4 5 4h166q4 0 3 -4l-66 -470q-8 -59 -30.5 -101t-49 -64t-66 -34t-69 -14.5t-71.5 -2.5zM388 738h-115 q-1 0 0 4q1 2 60 74.5t59 73.5q3 4 8 4h127q6 0 8 -4l77 -148q2 -4 -2 -4h-114q-5 0 -6 4l-37 63h-3q-53 -60 -55 -63q-3 -4 -7 -4z" />
<glyph unicode="&#x136;" horiz-adv-x="627" d="M24 0q-4 0 -4 4l95 672q0 4 4 4h166q4 0 4 -4l-37 -262h40q179 258 182 262t5 4h181q4 0 1 -4l-239 -332q155 -337 157 -340q3 -4 -1 -4h-181q-3 0 -6 4l-110 261h-50l-37 -261q0 -4 -4 -4h-166zM183 -269q-2 -1 -4 0t-1 4l30 214q0 4 4 4h123q4 0 4 -4l-19 -132 q0 -4 -5 -7q-3 -1 -66 -39t-66 -40z" />
<glyph unicode="&#x137;" horiz-adv-x="547" d="M22 0q-4 0 -4 4l95 672q0 4 4 4h160q3 0 3 -4l-50 -359h34q115 163 117 166q3 4 6 4h175q3 0 1 -4l-171 -231q124 -246 125 -248q2 -4 -1 -4h-178q-3 0 -6 4l-87 182h-34l-26 -182q0 -4 -3 -4h-160zM145 -269q-2 -1 -4 0t-1 4l30 214q0 4 4 4h123q4 0 4 -4l-19 -132 q0 -4 -5 -7q-3 -1 -66 -39t-66 -40z" />
<glyph unicode="&#x139;" horiz-adv-x="513" d="M20 0l95 676q0 4 5 4h166q3 0 3 -4l-74 -527h267q4 0 3 -4l-19 -141q-2 -4 -5 -4h-441zM341 743q-4 -4 -6 -4h-114q-4 0 -1 4l95 148q3 4 8 4h138q4 0 1 -4z" />
<glyph unicode="&#x13a;" horiz-adv-x="317" d="M206 -6q-30 0 -50 1.5t-41.5 6t-34 13.5t-23.5 23.5t-15 36.5t-4.5 52t5.5 70l68 479q0 4 4 4h159q3 0 3 -4l-68 -479q-6 -39 5.5 -52t37.5 -13q9 0 21 1t20 2t9 1q3 0 4 -4v-26q0 -100 -6 -102q-1 -1 -14.5 -3t-36.5 -4.5t-43 -2.5zM244 754q-4 -4 -6 -4h-114q-4 0 -1 4 l95 148q3 4 8 4h138q4 0 1 -4z" />
<glyph unicode="&#x13b;" horiz-adv-x="513" d="M20 0l95 676q0 4 5 4h166q3 0 3 -4l-74 -527h267q4 0 3 -4l-19 -141q-2 -4 -5 -4h-441zM148 -269q-2 -1 -4 0t-1 4l30 214q0 4 4 4h123q4 0 4 -4l-19 -132q0 -4 -5 -7q-3 -1 -66 -39t-66 -40z" />
<glyph unicode="&#x13c;" horiz-adv-x="317" d="M206 -6q-30 0 -50 1.5t-41.5 6t-34 13.5t-23.5 23.5t-15 36.5t-4.5 52t5.5 70l68 479q0 4 4 4h159q3 0 3 -4l-68 -479q-6 -39 5.5 -52t37.5 -13q9 0 21 1t20 2t9 1q3 0 4 -4v-26q0 -100 -6 -102q-1 -1 -14.5 -3t-36.5 -4.5t-43 -2.5zM54 -269q-6 -3 -6 4l30 214q0 4 5 4 h123q4 0 3 -4l-18 -132q-2 -5 -5 -7q-3 -1 -66 -39t-66 -40z" />
<glyph unicode="&#x13d;" horiz-adv-x="513" d="M20 0l95 676q0 4 5 4h166q3 0 3 -4l-74 -527h267q4 0 3 -4l-19 -141q-2 -4 -5 -4h-441zM331 528q-2 -1 -4 0t-1 4l30 214q0 4 4 4h123q4 0 4 -4l-19 -132q0 -4 -5 -7q-3 -1 -66 -39t-66 -40z" />
<glyph unicode="&#x13e;" horiz-adv-x="471" d="M206 -6q-30 0 -50 1.5t-41.5 6t-34 13.5t-23.5 23.5t-15 36.5t-4.5 52t5.5 70l68 479q0 4 4 4h159q3 0 3 -4l-68 -479q-6 -39 5.5 -52t37.5 -13q9 0 21 1t20 2t9 1q3 0 4 -4v-26q0 -100 -6 -102q-1 -1 -14.5 -3t-36.5 -4.5t-43 -2.5zM341 458q-2 -1 -4 0t-1 4l30 214 q0 4 4 4h123q4 0 4 -4l-19 -132q0 -4 -5 -7q-3 -1 -66 -39t-66 -40z" />
<glyph unicode="&#x141;" horiz-adv-x="539" d="M20 0l33 230q-44 -26 -46 -27q-4 -2 -4 3l20 138q0 5 5 7l45 26l43 300q0 3 4 3h166q4 0 3 -4l-27 -197q130 74 131 75q2 1 3 0.5t0 -3.5l-19 -138q-2 -6 -4 -7l-132 -74l-26 -183h267q4 0 4 -4l-20 -141q0 -4 -5 -4h-441z" />
<glyph unicode="&#x142;" horiz-adv-x="359" d="M208 -6q-30 0 -49.5 1.5t-41 6t-34 13t-24 23.5t-15.5 36.5t-4.5 52t5.5 70.5l7 50q-37 -21 -38 -22q-4 -2 -4 3l18 128q0 4 5 7l38 22l41 291q0 4 5 4h159q4 0 3 -4l-27 -194q70 40 72 41t2.5 0.5t-0.5 -3.5l-18 -128q-1 -5 -4 -7l-71 -41l-21 -147q-5 -41 6 -53t36 -12 q9 0 20.5 1t19.5 2l9 1q4 0 4 -2q0 -1 -0.5 -62t-0.5 -63q0 -5 -5 -5l-6 -1q-6 -1 -15.5 -2.5t-21 -3t-25 -2.5t-25.5 -1z" />
<glyph unicode="&#x143;" horiz-adv-x="647" d="M20 0q-4 0 -4 4l95 672q0 4 5 4h181q5 0 6 -3l136 -377h11l53 376q0 4 3 4h164q5 0 4 -4l-95 -672q0 -4 -5 -4h-185q-5 0 -6 4l-135 375h-11l-53 -375q0 -4 -4 -4h-160zM408 743q-4 -4 -6 -4h-114q-3 0 -2 4l96 148q3 4 8 4h138q4 0 1 -4z" />
<glyph unicode="&#x144;" horiz-adv-x="543" d="M22 0q-4 0 -4 4l68 479q0 4 4 4h160q3 0 3 -4l-2 -9q78 19 113 19q15 0 26 -0.5t26.5 -3t26.5 -6.5t23.5 -11.5t21 -18t16 -26t11 -35t3.5 -46t-5 -58.5l-40 -284q0 -4 -4 -4h-160q-3 0 -3 4l39 273q7 49 -1.5 63t-30.5 14q-15 0 -35 -4t-32 -8l-13 -3l-48 -335 q0 -4 -3 -4h-160zM339 550q-4 -4 -6 -4h-114q-5 0 -2 4l96 148q3 4 8 4h138q4 0 1 -4z" />
<glyph unicode="&#x145;" horiz-adv-x="647" d="M20 0q-4 0 -4 4l95 672q0 4 5 4h181q5 0 6 -3l136 -377h11l53 376q0 4 3 4h164q5 0 4 -4l-95 -672q0 -4 -5 -4h-185q-5 0 -6 4l-135 375h-11l-53 -375q0 -4 -4 -4h-160zM204 -269q-2 -1 -4 0t-1 4l30 214q0 4 4 4h123q4 0 4 -4l-19 -132q0 -4 -5 -7q-3 -1 -66 -39 t-66 -40z" />
<glyph unicode="&#x146;" horiz-adv-x="543" d="M22 0q-4 0 -4 4l68 479q0 4 4 4h160q3 0 3 -4l-2 -9q78 19 113 19q15 0 26 -0.5t26.5 -3t26.5 -6.5t23.5 -11.5t21 -18t16 -26t11 -35t3.5 -46t-5 -58.5l-40 -284q0 -4 -4 -4h-160q-3 0 -3 4l39 273q7 49 -1.5 63t-30.5 14q-15 0 -35 -4t-32 -8l-13 -3l-48 -335 q0 -4 -3 -4h-160zM151 -269q-2 -1 -4 0t-1 4l30 214q0 4 4 4h123q4 0 4 -4l-19 -132q0 -4 -5 -7q-3 -1 -66 -39t-66 -40z" />
<glyph unicode="&#x147;" horiz-adv-x="647" d="M20 0q-4 0 -4 4l95 672q0 4 5 4h181q5 0 6 -3l136 -377h11l53 376q0 4 3 4h164q5 0 4 -4l-95 -672q0 -4 -5 -4h-185q-5 0 -6 4l-135 375h-11l-53 -375q0 -4 -4 -4h-160zM472 890h119q5 0 1 -4l-133 -148q-4 -4 -9 -4h-108q-6 0 -7 4q0 1 -23.5 38t-46.5 74l-23 36 q0 4 3 4h119q2 0 5 -4l39 -62h2q53 59 55 62q3 4 7 4z" />
<glyph unicode="&#x148;" horiz-adv-x="543" d="M22 0q-4 0 -4 4l68 479q0 4 4 4h160q3 0 3 -4l-2 -9q78 19 113 19q15 0 26 -0.5t26.5 -3t26.5 -6.5t23.5 -11.5t21 -18t16 -26t11 -35t3.5 -46t-5 -58.5l-40 -284q0 -4 -4 -4h-160q-3 0 -3 4l39 273q7 49 -1.5 63t-30.5 14q-15 0 -35 -4t-32 -8l-13 -3l-48 -335 q0 -4 -3 -4h-160zM393 697h119q5 0 1 -4l-133 -148q-4 -4 -9 -4h-108q-6 0 -7 4q0 1 -23.5 38t-46.5 73l-23 37q0 4 3 4h119q2 0 5 -4l39 -62h2q53 59 55 62q3 4 7 4z" />
<glyph unicode="&#x14c;" horiz-adv-x="597" d="M289 145q49 0 71 20t32 95l22 162q10 74 -6.5 93.5t-64.5 19.5q-24 0 -37.5 -2.5t-28 -13t-23.5 -34.5t-14 -63l-23 -162q-10 -75 6 -95t66 -20zM267 -11q-22 0 -38.5 1t-37 3t-36 6.5t-33 11t-30 17t-24.5 24.5t-19 33.5t-11.5 43t-4 53.5t5.5 66l27 189q10 68 33 116.5 t50 74.5t67 40.5t72 18t77 3.5q21 0 37 -0.5t36.5 -2.5t36 -6.5t33 -11t30 -17t25 -24t19.5 -32t12 -41.5t4.5 -53t-5.5 -65l-27 -189q-10 -72 -34 -122.5t-50.5 -76.5t-68 -40t-71 -17t-75.5 -3zM526 756h-302q-3 0 -3 4l15 109q0 4 5 4h302q2 0 2 -4l-15 -109q-1 -4 -4 -4 z" />
<glyph unicode="&#x14d;" horiz-adv-x="513" d="M245 130q19 0 31 4t23.5 22.5t16.5 53.5l10 71q7 48 -7 63t-43 15q-18 0 -29.5 -4t-23 -22t-16.5 -52l-10 -71q-7 -50 5.5 -65t42.5 -15zM226 -8q-24 0 -43.5 1.5t-41.5 5t-37.5 10.5t-32 17.5t-25 26t-17 37t-7 49.5t4.5 63l13 87q10 69 35 113t64 63.5t73 25.5t84 6 q49 0 81.5 -5.5t67 -24.5t47.5 -63t3 -112l-13 -90q-8 -56 -27 -96t-41.5 -62t-56.5 -34t-62.5 -15t-68.5 -3zM457 563h-302q-3 0 -3 4l15 109q0 4 5 4h302q2 0 2 -4l-15 -109q-1 -4 -4 -4z" />
<glyph unicode="&#x14e;" horiz-adv-x="597" d="M289 145q49 0 71 20t32 95l22 162q10 74 -6.5 93.5t-64.5 19.5q-24 0 -37.5 -2.5t-28 -13t-23.5 -34.5t-14 -63l-23 -162q-10 -75 6 -95t66 -20zM267 -11q-22 0 -38.5 1t-37 3t-36 6.5t-33 11t-30 17t-24.5 24.5t-19 33.5t-11.5 43t-4 53.5t5.5 66l27 189q10 68 33 116.5 t50 74.5t67 40.5t72 18t77 3.5q21 0 37 -0.5t36.5 -2.5t36 -6.5t33 -11t30 -17t25 -24t19.5 -32t12 -41.5t4.5 -53t-5.5 -65l-27 -189q-10 -72 -34 -122.5t-50.5 -76.5t-68 -40t-71 -17t-75.5 -3zM374 735q-137 0 -137 117q0 20 2.5 25.5t8.5 5.5h69q7 0 9 -6 q8 -25 19.5 -33t41.5 -8q27 0 43 9.5t27 31.5q3 6 12 6h69q5 0 7 -1.5t1 -5.5q-25 -141 -172 -141z" />
<glyph unicode="&#x14f;" horiz-adv-x="513" d="M245 130q19 0 31 4t23.5 22.5t16.5 53.5l10 71q7 48 -7 63t-43 15q-18 0 -29.5 -4t-23 -22t-16.5 -52l-10 -71q-7 -50 5.5 -65t42.5 -15zM226 -8q-24 0 -43.5 1.5t-41.5 5t-37.5 10.5t-32 17.5t-25 26t-17 37t-7 49.5t4.5 63l13 87q10 69 35 113t64 63.5t73 25.5t84 6 q49 0 81.5 -5.5t67 -24.5t47.5 -63t3 -112l-13 -90q-8 -56 -27 -96t-41.5 -62t-56.5 -34t-62.5 -15t-68.5 -3zM304 542q-137 0 -137 117q0 20 2.5 25.5t8.5 5.5h69q7 0 9 -6q8 -25 19 -33t41 -8q50 0 70 41q3 6 13 6h69q5 0 7 -1.5t1 -5.5q-25 -141 -172 -141z" />
<glyph unicode="&#x150;" horiz-adv-x="597" d="M267 -11q-22 0 -38.5 1t-37 3t-36 6.5t-33 11t-30 17t-24.5 24.5t-19 33.5t-11.5 43t-4 53.5t5.5 66l27 189q10 68 33 116.5t50 74.5t67 40.5t72 18t77 3.5q21 0 37 -0.5t36.5 -2.5t36 -6.5t33 -11t30 -17t25 -24t19.5 -32t12 -41.5t4.5 -53t-5.5 -65l-27 -189 q-10 -72 -34 -122.5t-50.5 -76.5t-68 -40t-71 -17t-75.5 -3zM289 145q49 0 71 20t32 95l22 162q10 74 -6.5 93.5t-64.5 19.5q-24 0 -37.5 -2.5t-28 -13t-23.5 -34.5t-14 -63l-23 -162q-10 -75 6 -95t66 -20zM324 741q-1 -4 -6 -4h-115q-2 0 -1 4q2 1 49 74t48 74q3 4 7 4 h139q4 0 1 -4zM504 741q-4 -4 -7 -4h-114q-3 0 -2 4q2 1 49 74t48 74q3 4 7 4h139q4 0 0 -4z" />
<glyph unicode="&#x151;" horiz-adv-x="513" d="M226 -8q-24 0 -43.5 1.5t-41.5 5t-37.5 10.5t-32 17.5t-25 26t-17 37t-7 49.5t4.5 63l13 87q10 69 35 113t64 63.5t73 25.5t84 6q49 0 81.5 -5.5t67 -24.5t47.5 -63t3 -112l-13 -90q-8 -56 -27 -96t-41.5 -62t-56.5 -34t-62.5 -15t-68.5 -3zM245 130q19 0 31 4t23.5 22.5 t16.5 53.5l10 71q7 48 -7 63t-43 15q-18 0 -29.5 -4t-23 -22t-16.5 -52l-10 -71q-7 -50 5.5 -65t42.5 -15zM259 548q-1 -4 -7 -4h-115q-1 0 0 4q1 1 48.5 74t48.5 74q1 4 6 4h139q3 0 2 -4zM438 548q-3 -4 -7 -4h-114q-2 0 -1 4q1 1 48.5 74t48.5 74q1 4 6 4h139q4 0 1 -4z " />
<glyph unicode="&#x152;" horiz-adv-x="885" d="M290 150q22 0 34 2.5t28 13.5t26.5 38t16.5 71l19 133q2 29 4 50t-5 34.5t-11.5 21t-16 11t-19.5 4.5t-22 1q-21 0 -33.5 -3t-28.5 -13.5t-26.5 -37t-16.5 -68.5l-19 -133q-2 -30 -4 -51t4 -35t11 -21.5t16.5 -11.5t20 -5t22.5 -1zM268 0q-20 0 -35 0.5t-35.5 2.5 t-35.5 6.5t-33 11t-30.5 17t-25 24.5t-20 34t-12.5 44t-4.5 55t5.5 68l23 160q10 68 33 117t50 75.5t66.5 41.5t72.5 19t77 4q14 0 29 -2t24 -4t20 -5.5t13 -3.5l2 15h441q3 0 3 -4l-20 -141q0 -4 -4 -4h-267l-16 -113h220q3 0 3 -4l-19 -141q-1 -4 -5 -4h-220l-17 -120h267 q4 0 4 -4l-20 -141q0 -4 -5 -4h-441l2 16q-54 -16 -90 -16z" />
<glyph unicode="&#x153;" horiz-adv-x="814" d="M249 132q19 0 30 3.5t23 22.5t17 55l9 64q7 49 -6.5 63.5t-42.5 14.5q-18 0 -29.5 -3.5t-23.5 -22t-17 -52.5l-9 -64q-7 -51 6 -66t43 -15zM499 292h109q5 37 -7 50t-38 13q-54 0 -64 -63zM229 -6q-29 0 -51.5 2t-46.5 7.5t-40 15t-31.5 25.5t-21.5 38t-10.5 52.5 t3.5 69.5l11 81q8 56 27.5 96t43 61.5t58.5 33.5t62 14.5t65 2.5q32 0 72 -8.5t63 -25.5q61 34 149 34q31 0 55.5 -2.5t55 -14.5t49 -33t28.5 -60.5t2 -94.5l-14 -97h-273q-3 -37 11 -50t52 -13q23 0 48 1.5t44 3.5t34.5 4t25.5 3l9 2q3 0 4 -3l15 -109q0 -4 -3 -5 q-93 -31 -198 -31q-103 0 -153 36q-56 -36 -145 -36z" />
<glyph unicode="&#x154;" horiz-adv-x="598" d="M189 0h-165q-4 0 -4 4l95 676h271q24 0 45.5 -2.5t50.5 -9t50.5 -21t40 -36.5t25.5 -58t1 -82l-7 -49q-9 -64 -41 -108.5t-74 -64.5l73 -245q1 -4 -3 -4h-184q-4 0 -5 4l-54 213h-81l-30 -213q0 -4 -4 -4zM244 366h88q15 0 31 4t34.5 19t21.5 40l5 37q5 37 -18 51t-52 14 h-87zM384 743q-4 -4 -6 -4h-114q-3 0 -2 4l96 148q3 4 8 4h138q4 0 1 -4z" />
<glyph unicode="&#x155;" horiz-adv-x="415" d="M22 0q-4 0 -4 4l68 479q0 4 4 4h160q3 0 3 -4l-2 -14q59 24 92 24q75 0 107 -21q2 -2 2 -3q0 -9 -55 -119q-1 -3 -5 -3q-24 8 -85 8q-15 0 -34 -6t-31 -12l-11 -6l-46 -327q0 -4 -3 -4h-160zM275 550q-4 -4 -7 -4h-114q-4 0 -1 4l96 148q3 4 7 4h138q5 0 2 -4z" />
<glyph unicode="&#x156;" horiz-adv-x="598" d="M189 0h-165q-4 0 -4 4l95 676h271q24 0 45.5 -2.5t50.5 -9t50.5 -21t40 -36.5t25.5 -58t1 -82l-7 -49q-9 -64 -41 -108.5t-74 -64.5l73 -245q1 -4 -3 -4h-184q-4 0 -5 4l-54 213h-81l-30 -213q0 -4 -4 -4zM244 366h88q15 0 31 4t34.5 19t21.5 40l5 37q5 37 -18 51t-52 14 h-87zM174 -269q-2 -1 -4 0t-1 4l30 214q0 4 4 4h123q4 0 4 -4l-19 -132q0 -4 -5 -7q-3 -1 -66 -39t-66 -40z" />
<glyph unicode="&#x157;" horiz-adv-x="415" d="M22 0q-4 0 -4 4l68 479q0 4 4 4h160q3 0 3 -4l-2 -14q59 24 92 24q75 0 107 -21q2 -2 2 -3q0 -9 -55 -119q-1 -3 -5 -3q-24 8 -85 8q-15 0 -34 -6t-31 -12l-11 -6l-46 -327q0 -4 -3 -4h-160zM104 -249q-6 -3 -6 4l30 214q0 4 5 4h123q4 0 3 -4l-18 -132q-2 -5 -5 -7 q-3 -1 -66 -39t-66 -40z" />
<glyph unicode="&#x158;" horiz-adv-x="598" d="M244 366h88q15 0 31 4t34.5 19t21.5 40l5 37q5 37 -18 51t-52 14h-87zM189 0h-165q-4 0 -4 4l95 676h271q24 0 45.5 -2.5t50.5 -9t50.5 -21t40 -36.5t25.5 -58t1 -82l-7 -49q-9 -64 -41 -108.5t-74 -64.5l73 -245q1 -4 -3 -4h-184q-4 0 -5 4l-54 213h-81l-30 -213 q0 -4 -4 -4zM428 890h119q5 0 1 -4l-133 -148q-4 -4 -9 -4h-108q-6 0 -7 4q0 1 -23.5 38t-46.5 74l-23 36q0 4 3 4h119q2 0 5 -4l39 -62h2q53 59 55 62q3 4 7 4z" />
<glyph unicode="&#x159;" horiz-adv-x="415" d="M22 0q-4 0 -4 4l68 479q0 4 4 4h160q3 0 3 -4l-2 -14q59 24 92 24q75 0 107 -21q2 -2 2 -3q0 -9 -55 -119q-1 -3 -5 -3q-24 8 -85 8q-15 0 -34 -6t-31 -12l-11 -6l-46 -327q0 -4 -3 -4h-160zM329 697h119q5 0 1 -4l-134 -148q-3 -4 -8 -4h-108q-6 0 -7 4q0 1 -23.5 38 t-46.5 73l-23 37q-2 4 3 4h119q2 0 5 -4l38 -62h2q54 59 56 62q3 4 7 4z" />
<glyph unicode="&#x15a;" horiz-adv-x="575" d="M253 -10q-73 0 -134 9.5t-79 16t-26 10.5q-4 2 -2 6l59 137q0 3 5 3q81 -27 200 -27q42 0 66 7.5t27 30.5l5 35q3 20 -22.5 33.5t-81.5 20.5q-118 13 -161.5 49.5t-30.5 127.5l12 84q23 159 264 159q66 0 121.5 -8.5t73 -14.5t24.5 -9q4 -1 2 -6l-56 -130q-1 -3 -6 -3 q-4 1 -26.5 5.5t-67 9.5t-84.5 5q-65 0 -70 -36l-4 -31q-3 -22 14 -32.5t80 -18.5q120 -16 166 -55t34 -129l-12 -84q-6 -43 -28 -74.5t-49.5 -48.5t-67.5 -27t-72.5 -12.5t-72.5 -2.5zM392 743q-4 -4 -6 -4h-114q-4 0 -1 4l95 148q3 4 8 4h138q4 0 1 -4z" />
<glyph unicode="&#x15b;" horiz-adv-x="488" d="M213 -8q-125 0 -200 25q-3 1 -3 5l50 113q1 2 4 2l10 -2q11 -2 27.5 -4.5t37 -4.5t45.5 -4t47 -2q54 0 56 19l2 17q1 14 -13.5 19.5t-60.5 10.5q-73 8 -118 37t-37 86l8 60q18 128 215 128q111 0 183 -24q2 -2 2 -3q0 -2 -21.5 -54t-23.5 -55q-1 -3 -5 -3q-3 1 -22 4 t-56 6t-71 3q-45 0 -48 -16l-2 -17q-1 -6 4 -10.5t16.5 -7.5t26.5 -5.5t39 -4.5q80 -9 116.5 -38t28.5 -85l-9 -61q-5 -35 -21.5 -60t-38 -39t-52 -22t-56.5 -10.5t-60 -2.5zM317 550q-6 -4 -7 -4h-114q-4 0 -1 4l96 148q3 4 7 4h138q5 0 2 -4z" />
<glyph unicode="&#x15c;" horiz-adv-x="575" d="M253 -10q-73 0 -134 9.5t-79 16t-26 10.5q-4 2 -2 6l59 137q0 3 5 3q81 -27 200 -27q42 0 66 7.5t27 30.5l5 35q3 20 -22.5 33.5t-81.5 20.5q-118 13 -161.5 49.5t-30.5 127.5l12 84q23 159 264 159q66 0 121.5 -8.5t73 -14.5t24.5 -9q4 -1 2 -6l-56 -130q-1 -3 -6 -3 q-4 1 -26.5 5.5t-67 9.5t-84.5 5q-65 0 -70 -36l-4 -31q-3 -22 14 -32.5t80 -18.5q120 -16 166 -55t34 -129l-12 -84q-6 -43 -28 -74.5t-49.5 -48.5t-67.5 -27t-72.5 -12.5t-72.5 -2.5zM307 738h-115q-2 0 -1 4q1 2 60.5 74.5t59.5 73.5q3 4 8 4h127q5 0 7 -4l77 -148 q2 -4 -1 -4h-114q-6 0 -7 4l-37 63h-3q-53 -60 -55 -63q-3 -4 -6 -4z" />
<glyph unicode="&#x15d;" horiz-adv-x="488" d="M213 -8q-125 0 -200 25q-3 1 -3 5l50 113q1 2 4 2l10 -2q11 -2 27.5 -4.5t37 -4.5t45.5 -4t47 -2q54 0 56 19l2 17q1 14 -13.5 19.5t-60.5 10.5q-73 8 -118 37t-37 86l8 60q18 128 215 128q111 0 183 -24q2 -2 2 -3q0 -2 -21.5 -54t-23.5 -55q-1 -3 -5 -3q-3 1 -22 4 t-56 6t-71 3q-45 0 -48 -16l-2 -17q-1 -6 4 -10.5t16.5 -7.5t26.5 -5.5t39 -4.5q80 -9 116.5 -38t28.5 -85l-9 -61q-5 -35 -21.5 -60t-38 -39t-52 -22t-56.5 -10.5t-60 -2.5zM242 545h-115q-1 0 0 4q1 2 60 74.5t59 73.5q3 4 8 4h127q5 0 8 -4l77 -148q2 -4 -2 -4h-114 q-5 0 -6 4l-38 63h-3q-52 -60 -54 -63q-3 -4 -7 -4z" />
<glyph unicode="&#x15e;" horiz-adv-x="575" d="M266 -166h-139q-4 0 -2 4l95 153q-144 4 -206 35q-4 2 -2 6l59 137q0 3 5 3q81 -27 200 -27q42 0 66 7.5t27 30.5l5 35q3 20 -22.5 33.5t-81.5 20.5q-118 13 -161.5 49.5t-30.5 127.5l12 84q23 159 264 159q66 0 121.5 -8.5t73 -14.5t24.5 -9q4 -1 2 -6l-56 -130 q-1 -3 -6 -3q-4 1 -26.5 5.5t-67 9.5t-84.5 5q-65 0 -70 -36l-4 -31q-3 -22 14 -32.5t80 -18.5q120 -16 166 -55t34 -129l-12 -84q-20 -138 -196 -159l-75 -158q-2 -4 -6 -4z" />
<glyph unicode="&#x15f;" horiz-adv-x="488" d="M215 -166h-139q-3 0 -1 4l96 155q-44 2 -83.5 8t-55.5 10.5t-19 5.5t-3 5l50 113q1 2 4 2l10 -2q11 -2 27.5 -4.5t37 -4.5t45.5 -4t47 -2q54 0 56 19l2 17q1 14 -13.5 19.5t-60.5 10.5q-73 8 -118 37t-37 86l8 60q18 128 215 128q111 0 183 -24q2 -2 2 -3q0 -2 -21.5 -54 t-23.5 -55q-1 -3 -5 -3q-3 1 -22 4t-56 6t-71 3q-45 0 -48 -16l-2 -17q-1 -6 4 -10.5t16.5 -7.5t26.5 -5.5t39 -4.5q80 -9 116.5 -38t28.5 -85l-9 -61q-17 -110 -143 -128l-76 -160q-2 -4 -7 -4z" />
<glyph unicode="&#x160;" horiz-adv-x="575" d="M253 -10q-73 0 -134 9.5t-79 16t-26 10.5q-4 2 -2 6l59 137q0 3 5 3q81 -27 200 -27q42 0 66 7.5t27 30.5l5 35q3 20 -22.5 33.5t-81.5 20.5q-118 13 -161.5 49.5t-30.5 127.5l12 84q23 159 264 159q66 0 121.5 -8.5t73 -14.5t24.5 -9q4 -1 2 -6l-56 -130q-1 -3 -6 -3 q-4 1 -26.5 5.5t-67 9.5t-84.5 5q-65 0 -70 -36l-4 -31q-3 -22 14 -32.5t80 -18.5q120 -16 166 -55t34 -129l-12 -84q-6 -43 -28 -74.5t-49.5 -48.5t-67.5 -27t-72.5 -12.5t-72.5 -2.5zM435 890h119q5 0 2 -4l-134 -148q-3 -4 -9 -4h-108q-5 0 -6 4q0 1 -23.5 38t-46.5 74 l-23 36q-2 4 2 4h119q3 0 6 -4l38 -62h2q54 59 56 62q3 4 6 4z" />
<glyph unicode="&#x161;" horiz-adv-x="488" d="M213 -8q-125 0 -200 25q-3 1 -3 5l50 113q1 2 4 2l10 -2q11 -2 27.5 -4.5t37 -4.5t45.5 -4t47 -2q54 0 56 19l2 17q1 14 -13.5 19.5t-60.5 10.5q-73 8 -118 37t-37 86l8 60q18 128 215 128q111 0 183 -24q2 -2 2 -3q0 -2 -21.5 -54t-23.5 -55q-1 -3 -5 -3q-3 1 -22 4 t-56 6t-71 3q-45 0 -48 -16l-2 -17q-1 -6 4 -10.5t16.5 -7.5t26.5 -5.5t39 -4.5q80 -9 116.5 -38t28.5 -85l-9 -61q-5 -35 -21.5 -60t-38 -39t-52 -22t-56.5 -10.5t-60 -2.5zM365 697h119q5 0 2 -4l-134 -148q-3 -4 -8 -4h-108q-6 0 -7 4q0 1 -23.5 38t-46.5 73l-23 37 q-2 4 2 4h119q3 0 6 -4l38 -62h2q54 59 56 62q3 4 6 4z" />
<glyph unicode="&#x164;" horiz-adv-x="540" d="M157 0q-4 0 -4 4l74 523h-168q-4 0 -4 4l21 145q0 4 4 4h511q3 0 3 -4l-21 -145q0 -4 -3 -4h-169l-74 -523q0 -4 -4 -4h-166zM418 890h119q5 0 1 -4l-133 -148q-4 -4 -9 -4h-108q-6 0 -7 4q0 1 -23.5 38t-46.5 74l-23 36q0 4 3 4h119q2 0 5 -4l39 -62h2q53 59 55 62 q3 4 7 4z" />
<glyph unicode="&#x165;" horiz-adv-x="492" d="M221 -5q-26 0 -42 1t-36.5 3.5t-32 8.5t-25 15.5t-20 24.5t-11 36t-3.5 49.5t6 64.5l24 168h-44q-3 0 -3 4l16 114q0 4 4 4h44l21 149q0 4 5 4h160q3 0 3 -4l-21 -149h89q4 0 4 -4l-16 -114q0 -4 -5 -4h-89l-24 -168q-4 -29 2 -44t15 -18t25 -3q11 0 22.5 1t19 2t8.5 1 q2 0 3 -4v-13.5v-30.5t-0.5 -35.5t-0.5 -30.5v-13q0 -2 -3 -5q-40 -10 -95 -10zM389 458q-2 -1 -4 0t-1 4l30 214q0 4 4 4h123q4 0 4 -4l-19 -132q0 -4 -5 -7q-3 -1 -66 -39t-66 -40z" />
<glyph unicode="&#x168;" d="M256 -10q-136 0 -180 61.5t-24 199.5l59 425q1 4 5 4h167q3 0 2 -4l-58 -413q-12 -52 -2 -84t54 -32h40q42 0 58.5 25.5t25.5 90.5l58 413q0 4 4 4h167q4 0 4 -4l-60 -425q-9 -65 -24.5 -108.5t-46 -80.5t-82 -54.5t-127.5 -17.5h-40zM232 748q-3 0 -3 5l12 82 q1 10 10 20q35 35 85 35q31 0 71 -19t63 -19q24 0 51.5 17.5t29.5 17.5q5 0 4 -6l-11 -80q-2 -13 -11 -21q-43 -39 -86 -39q-32 0 -71.5 20.5t-60.5 20.5q-26 0 -54 -17t-29 -17z" />
<glyph unicode="&#x169;" horiz-adv-x="545" d="M534 487q3 0 3 -4l-68 -479q0 -4 -3 -4h-160q-4 0 -4 4l1 7q-77 -19 -110 -19q-15 0 -26.5 0.5t-26.5 3t-26.5 6.5t-24 11.5t-21 18t-16.5 26t-11.5 35t-3.5 46t5 58.5l41 286q0 4 3 4h160q4 0 4 -4l-39 -275q-7 -49 1.5 -63t30.5 -14q15 0 34.5 3.5t32.5 7.5l12 4 l48 337q0 4 4 4h160zM170 555q-3 0 -3 5l12 82q1 10 10 20q35 35 85 35q31 0 71 -19t63 -19q24 0 51.5 17.5t29.5 17.5q5 0 4 -6l-11 -80q-2 -13 -11 -21q-43 -39 -86 -39q-32 0 -71.5 20.5t-60.5 20.5q-26 0 -54 -17t-29 -17z" />
<glyph unicode="&#x16a;" d="M256 -10q-136 0 -180 61.5t-24 199.5l59 425q1 4 5 4h167q3 0 2 -4l-58 -413q-12 -52 -2 -84t54 -32h40q42 0 58.5 25.5t25.5 90.5l58 413q0 4 4 4h167q4 0 4 -4l-60 -425q-9 -65 -24.5 -108.5t-46 -80.5t-82 -54.5t-127.5 -17.5h-40zM535 756h-302q-4 0 -4 4l16 109 q0 4 4 4h302q3 0 3 -4l-16 -109q0 -4 -3 -4z" />
<glyph unicode="&#x16b;" horiz-adv-x="545" d="M534 487q3 0 3 -4l-68 -479q0 -4 -3 -4h-160q-4 0 -4 4l1 7q-77 -19 -110 -19q-15 0 -26.5 0.5t-26.5 3t-26.5 6.5t-24 11.5t-21 18t-16.5 26t-11.5 35t-3.5 46t5 58.5l41 286q0 4 3 4h160q4 0 4 -4l-39 -275q-7 -49 1.5 -63t30.5 -14q15 0 34.5 3.5t32.5 7.5l12 4 l48 337q0 4 4 4h160zM473 563h-302q-4 0 -4 4l16 109q0 4 4 4h302q3 0 3 -4l-16 -109q0 -4 -3 -4z" />
<glyph unicode="&#x16c;" d="M256 -10q-136 0 -180 61.5t-24 199.5l59 425q1 4 5 4h167q3 0 2 -4l-58 -413q-12 -52 -2 -84t54 -32h40q42 0 58.5 25.5t25.5 90.5l58 413q0 4 4 4h167q4 0 4 -4l-60 -425q-9 -65 -24.5 -108.5t-46 -80.5t-82 -54.5t-127.5 -17.5h-40zM384 735q-138 0 -138 117 q0 31 12 31h69q7 0 9 -6q8 -25 19 -33t41 -8q50 0 70 41q3 6 13 6h69q8 0 7 -7q-25 -141 -171 -141z" />
<glyph unicode="&#x16d;" horiz-adv-x="545" d="M534 487q3 0 3 -4l-68 -479q0 -4 -3 -4h-160q-4 0 -4 4l1 7q-77 -19 -110 -19q-15 0 -26.5 0.5t-26.5 3t-26.5 6.5t-24 11.5t-21 18t-16.5 26t-11.5 35t-3.5 46t5 58.5l41 286q0 4 3 4h160q4 0 4 -4l-39 -275q-7 -49 1.5 -63t30.5 -14q15 0 34.5 3.5t32.5 7.5l12 4 l48 337q0 4 4 4h160zM321 542q-137 0 -137 117q0 20 2.5 25.5t8.5 5.5h69q7 0 9 -6q8 -25 19 -33t41 -8q27 0 43 9.5t27 31.5q3 6 13 6h69q5 0 7 -1.5t1 -5.5q-25 -141 -172 -141z" />
<glyph unicode="&#x16e;" d="M256 -10q-136 0 -180 61.5t-24 199.5l59 425q1 4 5 4h167q3 0 2 -4l-58 -413q-12 -52 -2 -84t54 -32h40q42 0 58.5 25.5t25.5 90.5l58 413q0 4 4 4h167q4 0 4 -4l-60 -425q-9 -65 -24.5 -108.5t-46 -80.5t-82 -54.5t-127.5 -17.5h-40zM378 716q-50 0 -77.5 19.5 t-18.5 79.5l4 25q9 58 42 77.5t84 19.5q22 0 37.5 -3t32 -11.5t23 -29.5t1.5 -53l-4 -25q-5 -32 -17.5 -53.5t-31 -30.5t-35.5 -12t-40 -3zM387 782q13 0 21.5 2t16.5 11.5t11 26.5l2 11q7 39 -36 39t-50 -39l-2 -11q-4 -25 6 -32.5t31 -7.5z" />
<glyph unicode="&#x16f;" horiz-adv-x="545" d="M534 487q3 0 3 -4l-68 -479q0 -4 -3 -4h-160q-4 0 -4 4l1 7q-77 -19 -110 -19q-15 0 -26.5 0.5t-26.5 3t-26.5 6.5t-24 11.5t-21 18t-16.5 26t-11.5 35t-3.5 46t5 58.5l41 286q0 4 3 4h160q4 0 4 -4l-39 -275q-7 -49 1.5 -63t30.5 -14q15 0 34.5 3.5t32.5 7.5l12 4 l48 337q0 4 4 4h160zM316 523q-50 0 -77.5 19.5t-18.5 79.5l4 25q9 58 42 77.5t84 19.5q22 0 37.5 -3t32 -11.5t23 -29.5t1.5 -53l-4 -25q-5 -32 -17.5 -53.5t-31 -30.5t-35.5 -12t-40 -3zM325 589q13 0 21.5 2t16.5 11.5t11 26.5l2 11q7 39 -36 39t-50 -39l-2 -11 q-4 -25 6 -32.5t31 -7.5z" />
<glyph unicode="&#x170;" d="M256 -10q-136 0 -180 61.5t-24 199.5l59 425q1 4 5 4h167q3 0 2 -4l-58 -413q-12 -52 -2 -84t54 -32h40q42 0 58.5 25.5t25.5 90.5l58 413q0 4 4 4h167q4 0 4 -4l-60 -425q-9 -65 -24.5 -108.5t-46 -80.5t-82 -54.5t-127.5 -17.5h-40zM342 741q-3 -4 -7 -4h-115q-3 0 0 4 q1 1 48 74t48 74q3 4 7 4h139q4 0 1 -4zM521 741q-4 -4 -7 -4h-114q-4 0 -1 4q1 1 48 74t48 74q3 4 7 4h139q4 0 0 -4z" />
<glyph unicode="&#x171;" horiz-adv-x="545" d="M534 487q3 0 3 -4l-68 -479q0 -4 -3 -4h-160q-4 0 -4 4l1 7q-77 -19 -110 -19q-15 0 -26.5 0.5t-26.5 3t-26.5 6.5t-24 11.5t-21 18t-16.5 26t-11.5 35t-3.5 46t5 58.5l41 286q0 4 3 4h160q4 0 4 -4l-39 -275q-7 -49 1.5 -63t30.5 -14q15 0 34.5 3.5t32.5 7.5l12 4 l48 337q0 4 4 4h160zM280 548q-3 -4 -7 -4h-115q-3 0 0 4q1 1 48 74t49 74q1 4 6 4h139q3 0 2 -4zM458 548q-3 -4 -6 -4h-114q-4 0 -1 4q1 1 48 74t49 74q1 4 6 4h139q4 0 1 -4z" />
<glyph unicode="&#x172;" d="M232 -197q-44 0 -69.5 16.5t-25.5 61.5q0 70 63 112q-102 12 -134 73t-15 185l60 425q0 4 4 4h167q3 0 3 -4l-58 -413q-12 -52 -2 -84t54 -32h40q42 0 58.5 25.5t25.5 90.5l58 413q0 4 3 4h167q4 0 4 -4l-60 -425q-8 -59 -21.5 -100t-38.5 -76.5t-66.5 -55.5t-101.5 -26 q-29 -14 -43.5 -22t-28 -21t-13.5 -26q0 -11 13 -11t27 9q5 3 9 -1q0 -2 6.5 -20t14 -36t7.5 -19q2 -6 -2 -9q-5 -4 -17 -11t-37.5 -15t-50.5 -8z" />
<glyph unicode="&#x173;" horiz-adv-x="545" d="M341 -195q-44 0 -69.5 16.5t-25.5 61.5q0 72 71 117h-11q-4 0 -4 4l1 7q-77 -19 -110 -19q-15 0 -26.5 0.5t-26.5 3t-26.5 6.5t-24 11.5t-21 18t-16.5 26t-11.5 35t-3.5 46t5 58.5l41 286q0 4 3 4h160q4 0 4 -4l-39 -275q-7 -49 1.5 -63t30.5 -14q15 0 34.5 3.5t32.5 7.5 l12 4l48 337q0 4 4 4h160q3 0 3 -4l-68 -479q0 -4 -2 -4t-4 -2q-25 -12 -35.5 -17.5t-27 -16t-23 -19.5t-6.5 -19q0 -11 13 -11q14 0 27 9q5 3 9 -1q0 -2 7 -20t14.5 -36t7.5 -19q2 -5 -3 -9t-17 -11t-37.5 -15t-50.5 -8z" />
<glyph unicode="&#x174;" horiz-adv-x="877" d="M109 0q-6 0 -6 5l-22 671q0 4 3 4h174q4 0 5 -4l5 -406h19q123 270 124 273q1 4 5 4h137q4 0 5 -5l49 -272h19q118 403 119 406q1 4 5 4h174q5 0 3 -4l-210 -671q-1 -5 -7 -5h-209q-6 0 -6 5l-42 267h-12q-115 -260 -117 -266t-8 -6h-207zM457 738h-115q-1 0 0 4 q1 2 60.5 74.5t59.5 73.5q3 4 7 4h127q6 0 8 -4l77 -148q2 -4 -2 -4h-114q-5 0 -6 4l-37 63h-3q-53 -60 -55 -63q-3 -4 -7 -4z" />
<glyph unicode="&#x175;" horiz-adv-x="735" d="M107 0q-1 0 -2 4q-1 1 -22 237t-21 242q0 4 4 4h161q4 0 4 -4l12 -252h7q83 154 85 157q3 4 5 4h108q2 0 3 -4l43 -157h7q77 249 77 252q2 4 7 4h161q2 0 1 -4q-1 -2 -87.5 -240t-86.5 -239q-1 -4 -6 -4h-146q-3 0 -3 4l-48 193h-7q-103 -190 -104 -193q-1 -4 -5 -4h-147 zM361 545h-115q-2 0 -1 4q1 2 60.5 74.5t59.5 73.5q3 4 8 4h127q5 0 7 -4l77 -148q2 -4 -1 -4h-114q-6 0 -7 4l-37 63h-3q-53 -60 -55 -63q-3 -4 -6 -4z" />
<glyph unicode="&#x176;" horiz-adv-x="577" d="M175 0q-4 0 -4 4l36 255q-140 414 -141 417q-1 4 4 4h175q5 0 5 -4l70 -231h6q132 228 133 231q1 4 5 4h172q4 0 3 -4l-258 -417l-36 -255q-1 -4 -3 -4h-167zM307 738h-115q-1 0 0 4q1 2 60.5 74.5t59.5 73.5q3 4 7 4h127q6 0 8 -4l77 -148q2 -4 -2 -4h-114q-5 0 -6 4 l-37 63h-3q-53 -60 -55 -63q-3 -4 -7 -4z" />
<glyph unicode="&#x177;" horiz-adv-x="508" d="M8 -180q-5 0 -3 4q1 2 16 64.5t15 63.5q0 4 6 4h29q45 0 66 43l13 30q-105 451 -106 454q-2 4 2 4h166q5 0 5 -4l41 -239h9q102 236 103 239q2 4 5 4h163q3 0 2 -4q-7 -20 -277 -538q-18 -36 -37 -59.5t-35 -36.5t-38.5 -19.5t-39 -8t-45.5 -1.5h-60zM251 545h-115 q-2 0 -1 4q1 2 60.5 74.5t59.5 73.5q3 4 8 4h127q5 0 7 -4l77 -148q2 -4 -1 -4h-114q-6 0 -7 4l-37 63h-3q-53 -60 -55 -63q-3 -4 -6 -4z" />
<glyph unicode="&#x178;" horiz-adv-x="577" d="M175 0q-4 0 -4 4l36 255q-140 414 -141 417q-1 4 4 4h175q5 0 5 -4l70 -231h6q132 228 133 231q1 4 5 4h172q4 0 3 -4l-258 -417l-36 -255q-1 -4 -3 -4h-167zM211 750q-4 0 -3 4l17 122q0 4 4 4h118q3 0 3 -4l-17 -122q0 -4 -4 -4h-118zM406 750q-4 0 -3 4l17 122 q0 4 4 4h117q4 0 4 -4l-17 -122q0 -4 -5 -4h-117z" />
<glyph unicode="&#x179;" horiz-adv-x="535" d="M5 0q-4 0 -4 4l20 140q0 2 7 12l309 361l2 11h-249q-2 0 -2 4l20 144q0 4 3 4h451q4 0 4 -4l-20 -139q-1 -8 -6 -13l-309 -361l-2 -11h259q4 0 3 -4l-20 -144q-1 -4 -4 -4h-462zM381 743q-4 -4 -6 -4h-114q-5 0 -2 4l96 148q3 4 8 4h138q4 0 1 -4z" />
<glyph unicode="&#x17a;" horiz-adv-x="471" d="M14 0q-4 0 -4 4l17 121l1 1q1 2 2 3.5t3 2.5l219 215l1 7h-183q-4 0 -4 4l18 125q0 4 4 4h381q4 0 4 -4l-18 -125q0 -2 -4 -6l-218 -211l-1 -8h192q3 0 3 -4l-18 -125q0 -4 -4 -4h-391zM323 550q-4 -4 -6 -4h-114q-5 0 -2 4l96 148q3 4 8 4h138q4 0 1 -4z" />
<glyph unicode="&#x17b;" horiz-adv-x="535" d="M5 0q-4 0 -4 4l20 140q0 2 7 12l309 361l2 11h-249q-2 0 -2 4l20 144q0 4 3 4h451q4 0 4 -4l-20 -139q-1 -8 -6 -13l-309 -361l-2 -11h259q4 0 3 -4l-20 -144q-1 -4 -4 -4h-462zM275 735q-3 0 -3 4l18 130q0 4 4 4h149q3 0 3 -4l-18 -130q0 -4 -5 -4h-148z" />
<glyph unicode="&#x17c;" horiz-adv-x="471" d="M14 0q-4 0 -4 4l17 121l1 1q1 2 2 3.5t3 2.5l219 215l1 7h-183q-4 0 -4 4l18 125q0 4 4 4h381q4 0 4 -4l-18 -125q0 -2 -4 -6l-218 -211l-1 -8h192q3 0 3 -4l-18 -125q0 -4 -4 -4h-391zM216 542q-3 0 -3 4l18 130q0 4 4 4h149q3 0 3 -4l-18 -130q0 -4 -5 -4h-148z" />
<glyph unicode="&#x17d;" horiz-adv-x="535" d="M5 0q-4 0 -4 4l20 140q0 2 7 12l309 361l2 11h-249q-2 0 -2 4l20 144q0 4 3 4h451q4 0 4 -4l-20 -139q-1 -8 -6 -13l-309 -361l-2 -11h259q4 0 3 -4l-20 -144q-1 -4 -4 -4h-462zM416 890h119q5 0 1 -4l-133 -148q-4 -4 -9 -4h-108q-6 0 -7 4q0 1 -23.5 38t-46.5 74 l-23 36q0 4 3 4h119q2 0 5 -4l39 -62h2q53 59 55 62q3 4 7 4z" />
<glyph unicode="&#x17e;" horiz-adv-x="471" d="M14 0q-4 0 -4 4l17 121l1 1q1 2 2 3.5t3 2.5l219 215l1 7h-183q-4 0 -4 4l18 125q0 4 4 4h381q4 0 4 -4l-18 -125q0 -2 -4 -6l-218 -211l-1 -8h192q3 0 3 -4l-18 -125q0 -4 -4 -4h-391zM357 697h119q5 0 1 -4l-133 -148q-4 -4 -9 -4h-108q-6 0 -7 4q0 1 -23.5 38 t-46.5 73l-23 37q0 4 3 4h119q2 0 5 -4l39 -62h2q53 59 55 62q3 4 7 4z" />
<glyph unicode="&#x192;" horiz-adv-x="559" d="M101 -187q-11 0 -25 1t-26.5 2.5t-22.5 3t-17 2.5l-7 1q-2 0 -2 4q0 2 16.5 61.5t16.5 60.5q0 3 6 3q4 -4 57 -4q52 0 61 61l41 293h-62q-4 0 -4 4l16 114q0 4 5 4h62l9 65q7 53 25.5 91t39.5 58t51.5 31t53 13.5t53.5 2.5q9 0 22 -1t25.5 -2.5t24 -3t18.5 -2.5l8 -1 q3 0 3 -4q0 -2 -17 -61.5t-17 -60.5q0 -3 -5 -3l-10 1q-10 1 -23.5 2t-23.5 1q-52 0 -61 -61l-9 -65h82q4 0 3 -4l-16 -114q0 -4 -4 -4h-82l-41 -293q-9 -66 -32.5 -108t-58.5 -60t-63.5 -23t-69.5 -5z" />
<glyph unicode="&#x218;" horiz-adv-x="575" d="M253 -10q-73 0 -134 9.5t-79 16t-26 10.5q-4 2 -2 6l59 137q0 3 5 3q81 -27 200 -27q42 0 66 7.5t27 30.5l5 35q3 20 -22.5 33.5t-81.5 20.5q-118 13 -161.5 49.5t-30.5 127.5l12 84q23 159 264 159q66 0 121.5 -8.5t73 -14.5t24.5 -9q4 -1 2 -6l-56 -130q-1 -3 -6 -3 q-4 1 -26.5 5.5t-67 9.5t-84.5 5q-65 0 -70 -36l-4 -31q-3 -22 14 -32.5t80 -18.5q120 -16 166 -55t34 -129l-12 -84q-6 -43 -28 -74.5t-49.5 -48.5t-67.5 -27t-72.5 -12.5t-72.5 -2.5zM168 -269q-2 -1 -4 0t-1 4l30 214q0 4 4 4h123q4 0 4 -4l-19 -132q0 -4 -5 -7 q-3 -1 -66 -39t-66 -40z" />
<glyph unicode="&#x219;" horiz-adv-x="488" d="M213 -8q-125 0 -200 25q-3 1 -3 5l50 113q1 2 4 2l10 -2q11 -2 27.5 -4.5t37 -4.5t45.5 -4t47 -2q54 0 56 19l2 17q1 14 -13.5 19.5t-60.5 10.5q-73 8 -118 37t-37 86l8 60q18 128 215 128q111 0 183 -24q2 -2 2 -3q0 -2 -21.5 -54t-23.5 -55q-1 -3 -5 -3q-3 1 -22 4 t-56 6t-71 3q-45 0 -48 -16l-2 -17q-1 -6 4 -10.5t16.5 -7.5t26.5 -5.5t39 -4.5q80 -9 116.5 -38t28.5 -85l-9 -61q-5 -35 -21.5 -60t-38 -39t-52 -22t-56.5 -10.5t-60 -2.5zM123 -269q-6 -3 -6 4l30 214q0 4 5 4h123q4 0 3 -4l-18 -132q-2 -5 -5 -7q-3 -1 -66 -39t-66 -40z " />
<glyph unicode="&#x21a;" horiz-adv-x="540" d="M157 0q-4 0 -4 4l74 523h-168q-4 0 -4 4l21 145q0 4 4 4h511q3 0 3 -4l-21 -145q0 -4 -3 -4h-169l-74 -523q0 -4 -4 -4h-166zM143 -269q-2 -1 -4 0t-1 4l30 214q0 4 4 4h123q4 0 4 -4l-19 -132q0 -4 -5 -7q-3 -1 -66 -39t-66 -40z" />
<glyph unicode="&#x21b;" horiz-adv-x="345" d="M221 -5q-26 0 -42 1t-36.5 3.5t-32 8.5t-25 15.5t-20 24.5t-11 36t-3.5 49.5t6 64.5l24 168h-44q-3 0 -3 4l16 114q0 4 4 4h44l21 149q0 4 5 4h160q3 0 3 -4l-21 -149h89q4 0 4 -4l-16 -114q0 -4 -5 -4h-89l-24 -168q-4 -29 2 -44t15 -18t25 -3q11 0 22.5 1t19 2t8.5 1 q2 0 3 -4v-13.5v-30.5t-0.5 -35.5t-0.5 -30.5v-13q0 -2 -3 -5q-40 -10 -95 -10zM68 -269q-6 -3 -6 4l30 214q0 4 5 4h123q4 0 3 -4l-18 -132q-2 -5 -5 -7q-3 -1 -66 -39t-66 -40z" />
<glyph unicode="&#x2c6;" horiz-adv-x="489" d="M228 545h-115q-1 0 0 4q1 2 60 74.5t59 73.5q3 4 8 4h127q5 0 7 -4l77 -148q2 -4 -1 -4h-114q-5 0 -6 4l-38 63h-3q-52 -60 -54 -63q-3 -4 -7 -4z" />
<glyph unicode="&#x2c7;" horiz-adv-x="488" d="M355 697h119q5 0 2 -4l-134 -148q-3 -4 -9 -4h-108q-5 0 -6 4q0 1 -23.5 38t-46.5 73l-23 37q-2 4 2 4h119q3 0 6 -4l38 -62h2q54 59 56 62q3 4 6 4z" />
<glyph unicode="&#x2d8;" horiz-adv-x="489" d="M282 542q-137 0 -137 117q0 20 2.5 25.5t8.5 5.5h69q7 0 9 -6q8 -25 19.5 -33t41.5 -8q49 0 69 41q3 6 13 6h69q5 0 7 -1.5t1 -5.5q-25 -141 -172 -141z" />
<glyph unicode="&#x2d9;" horiz-adv-x="488" d="M205 542q-3 0 -3 4l18 130q0 4 5 4h149q2 0 2 -4l-18 -130q0 -4 -5 -4h-148z" />
<glyph unicode="&#x2da;" horiz-adv-x="489" d="M284 589q13 0 21.5 2t16 11.5t10.5 26.5l2 11q4 23 -5.5 31t-29.5 8q-44 0 -51 -39l-2 -11q-4 -25 6 -32.5t32 -7.5zM275 523q-49 0 -76 19.5t-20 79.5l3 25q7 57 41.5 77t85.5 20q22 0 37 -3t31 -11.5t22.5 -29.5t2.5 -53l-3 -25q-4 -32 -16 -53.5t-31.5 -30.5t-36 -12 t-40.5 -3z" />
<glyph unicode="&#x2db;" horiz-adv-x="489" d="M172 -192q-44 0 -69.5 16.5t-25.5 61.5q0 74 76 120q6 4 15 4h125q6 0 6.5 -3t-5.5 -6q-25 -12 -35.5 -17.5t-27 -16t-23 -19.5t-6.5 -19q0 -11 13 -11t27 9q5 3 9 -1q0 -2 6.5 -20t14 -36t7.5 -19q2 -6 -2 -9q-5 -4 -17 -11t-37.5 -15t-50.5 -8z" />
<glyph unicode="&#x2dc;" horiz-adv-x="488" d="M131 555q-4 0 -2 5l11 82q1 10 10 20q35 35 85 35q31 0 71.5 -19t63.5 -19q24 0 51.5 17.5t29.5 17.5q4 0 4 -6l-12 -80q-2 -13 -11 -21q-43 -39 -86 -39q-32 0 -71 20.5t-60 20.5q-26 0 -54.5 -17t-29.5 -17z" />
<glyph unicode="&#x2dd;" horiz-adv-x="489" d="M206 548q-1 -4 -6 -4h-115q-2 0 -1 4q2 1 49 74t48 74q3 4 7 4h139q4 0 1 -4zM386 548q-4 -4 -7 -4h-114q-3 0 -2 4q2 1 49 74t48 74q3 4 7 4h139q4 0 0 -4z" />
<glyph unicode="&#x1e80;" horiz-adv-x="877" d="M109 0q-6 0 -6 5l-22 671q0 4 3 4h174q4 0 5 -4l5 -406h19q123 270 124 273q1 4 5 4h137q4 0 5 -5l49 -272h19q118 403 119 406q1 4 5 4h174q5 0 3 -4l-210 -671q-1 -5 -7 -5h-209q-6 0 -6 5l-42 267h-12q-115 -260 -117 -266t-8 -6h-207zM493 743l-80 148q-3 4 2 4h139 q4 0 5 -4l55 -148q1 -4 -2 -4h-115q-2 0 -4 4z" />
<glyph unicode="&#x1e81;" horiz-adv-x="735" d="M107 0q-1 0 -2 4q-1 1 -22 237t-21 242q0 4 4 4h161q4 0 4 -4l12 -252h7q83 154 85 157q3 4 5 4h108q2 0 3 -4l43 -157h7q77 249 77 252q2 4 7 4h161q2 0 1 -4q-1 -2 -87.5 -240t-86.5 -239q-1 -4 -6 -4h-146q-3 0 -3 4l-48 193h-7q-103 -190 -104 -193q-1 -4 -5 -4h-147 zM385 550l-80 148q-1 4 3 4h139q3 0 4 -4l56 -148q1 -4 -2 -4h-115q-3 0 -5 4z" />
<glyph unicode="&#x1e82;" horiz-adv-x="877" d="M109 0q-6 0 -6 5l-22 671q0 4 3 4h174q4 0 5 -4l5 -406h19q123 270 124 273q1 4 5 4h137q4 0 5 -5l49 -272h19q118 403 119 406q1 4 5 4h174q5 0 3 -4l-210 -671q-1 -5 -7 -5h-209q-6 0 -6 5l-42 267h-12q-115 -260 -117 -266t-8 -6h-207zM543 743q-4 -4 -7 -4h-114 q-4 0 -1 4l96 148q3 4 7 4h138q5 0 2 -4z" />
<glyph unicode="&#x1e83;" horiz-adv-x="735" d="M107 0q-1 0 -2 4q-1 1 -22 237t-21 242q0 4 4 4h161q4 0 4 -4l12 -252h7q83 154 85 157q3 4 5 4h108q2 0 3 -4l43 -157h7q77 249 77 252q2 4 7 4h161q2 0 1 -4q-1 -2 -87.5 -240t-86.5 -239q-1 -4 -6 -4h-146q-3 0 -3 4l-48 193h-7q-103 -190 -104 -193q-1 -4 -5 -4h-147 zM444 550q-4 -4 -6 -4h-114q-4 0 -1 4l95 148q3 4 8 4h138q4 0 1 -4z" />
<glyph unicode="&#x1e84;" horiz-adv-x="877" d="M109 0q-6 0 -6 5l-22 671q0 4 3 4h174q4 0 5 -4l5 -406h19q123 270 124 273q1 4 5 4h137q4 0 5 -5l49 -272h19q118 403 119 406q1 4 5 4h174q5 0 3 -4l-210 -671q-1 -5 -7 -5h-209q-6 0 -6 5l-42 267h-12q-115 -260 -117 -266t-8 -6h-207zM356 743q-4 0 -3 4l17 122 q0 4 4 4h118q3 0 3 -4l-17 -122q0 -4 -4 -4h-118zM551 743q-4 0 -3 4l17 122q0 4 4 4h117q4 0 4 -4l-17 -122q0 -4 -5 -4h-117z" />
<glyph unicode="&#x1e85;" horiz-adv-x="735" d="M107 0q-1 0 -2 4q-1 1 -22 237t-21 242q0 4 4 4h161q4 0 4 -4l12 -252h7q83 154 85 157q3 4 5 4h108q2 0 3 -4l43 -157h7q77 249 77 252q2 4 7 4h161q2 0 1 -4q-1 -2 -87.5 -240t-86.5 -239q-1 -4 -6 -4h-146q-3 0 -3 4l-48 193h-7q-103 -190 -104 -193q-1 -4 -5 -4h-147 zM259 550q-4 0 -3 4l17 122q0 4 5 4h118q2 0 2 -4l-17 -122q0 -4 -4 -4h-118zM454 550q-4 0 -3 4l17 122q0 4 5 4h117q3 0 3 -4l-17 -122q0 -4 -5 -4h-117z" />
<glyph unicode="&#x1e9e;" horiz-adv-x="624" d="M19 0q-4 0 -4 4l67 477q7 51 26 88.5t43 58.5t60 33t68.5 15.5t77.5 3.5h235q5 0 5 -5l-22 -154q0 -5 -5 -12l-90 -111q20 -9 34 -19t29 -28t20 -45t0 -63l-8 -53q-9 -61 -36.5 -101t-70 -58t-82.5 -24.5t-94 -6.5q-4 0 -4 4l19 135q0 4 5 4q88 0 96 56l5 39 q4 31 -18 42.5t-54 11.5q-5 0 -4 4l19 137l85 111h-83q-27 0 -52 -13.5t-30 -49.5l-67 -477q0 -4 -4 -4h-166z" />
<glyph unicode="&#x2000;" horiz-adv-x="472" />
<glyph unicode="&#x2001;" horiz-adv-x="944" />
<glyph unicode="&#x2002;" horiz-adv-x="472" />
<glyph unicode="&#x2003;" horiz-adv-x="944" />
<glyph unicode="&#x2004;" horiz-adv-x="314" />
<glyph unicode="&#x2005;" horiz-adv-x="236" />
<glyph unicode="&#x2006;" horiz-adv-x="157" />
<glyph unicode="&#x2007;" horiz-adv-x="157" />
<glyph unicode="&#x2008;" horiz-adv-x="118" />
<glyph unicode="&#x2009;" horiz-adv-x="188" />
<glyph unicode="&#x200a;" horiz-adv-x="52" />
<glyph unicode="&#x2010;" horiz-adv-x="400" d="M38 207q-3 0 -3 4l18 129q0 4 4 4h301q4 0 4 -4l-18 -129q0 -4 -5 -4h-301z" />
<glyph unicode="&#x2011;" horiz-adv-x="400" d="M38 207q-3 0 -3 4l18 129q0 4 4 4h301q4 0 4 -4l-18 -129q0 -4 -5 -4h-301z" />
<glyph unicode="&#x2012;" horiz-adv-x="400" d="M38 207q-3 0 -3 4l18 129q0 4 4 4h301q4 0 4 -4l-18 -129q0 -4 -5 -4h-301z" />
<glyph unicode="&#x2013;" horiz-adv-x="480" d="M31 207q-3 0 -3 4l18 129q0 4 4 4h396q4 0 4 -4l-18 -129q0 -4 -5 -4h-396z" />
<glyph unicode="&#x2014;" horiz-adv-x="604" d="M17 207q-3 0 -3 4l18 129q0 4 4 4h548q4 0 4 -4l-18 -129q0 -4 -5 -4h-548z" />
<glyph unicode="&#x2018;" horiz-adv-x="249" d="M240 686q6 3 6 -4l-31 -214q0 -4 -4 -4h-123q-4 0 -4 4l19 132q0 4 5 7q3 1 66 39t66 40z" />
<glyph unicode="&#x2019;" horiz-adv-x="249" d="M89 458q-2 -1 -4 0t-1 4l30 214q0 4 5 4h123q3 0 3 -4l-19 -132q0 -4 -5 -7q-3 -1 -66 -39t-66 -40z" />
<glyph unicode="&#x201a;" horiz-adv-x="249" d="M14 -84q-2 -2 -4.5 -1t-1.5 4l30 214q0 4 4 4h123q4 0 4 -4l-19 -131q0 -5 -5 -7q-2 -2 -65 -40t-66 -39z" />
<glyph unicode="&#x201c;" horiz-adv-x="441" d="M240 686q6 3 6 -4l-31 -214q0 -4 -4 -4h-123q-4 0 -4 4l19 132q0 4 5 7q3 1 66 39t66 40zM432 686q5 2 5 -4l-31 -214q0 -4 -3 -4h-124q-3 0 -3 4l19 132q0 4 5 7z" />
<glyph unicode="&#x201d;" horiz-adv-x="441" d="M89 458q-2 -1 -4 0t-1 4l30 214q0 4 5 4h123q3 0 3 -4l-19 -132q0 -4 -5 -7q-3 -1 -66 -39t-66 -40zM281 458q-2 -1 -4 0t-1 4l30 214q0 4 4 4h124q2 0 2 -4l-19 -132q0 -4 -5 -7z" />
<glyph unicode="&#x201e;" horiz-adv-x="441" d="M14 -84q-2 -2 -4.5 -1t-1.5 4l30 214q0 4 4 4h123q4 0 4 -4l-19 -131q0 -5 -5 -7q-2 -2 -65 -40t-66 -39zM205 -84q-2 -2 -3.5 -1t-0.5 4l30 214q0 4 4 4h122q3 0 3 -4l-19 -131q0 -4 -4 -7q-3 -2 -66.5 -40t-65.5 -39z" />
<glyph unicode="&#x2020;" horiz-adv-x="564" d="M145 -180q-4 0 -4 4l72 509h-155q-3 0 -3 4l19 129q0 4 3 4h155l29 206q0 4 5 4h143q3 0 3 -4l-29 -206h154q5 0 3 -4l-18 -129q0 -4 -4 -4h-154l-72 -509q0 -4 -4 -4h-143z" />
<glyph unicode="&#x2021;" horiz-adv-x="565" d="M144 -180q-4 0 -4 4l25 176h-155q-3 0 -3 4l18 129l4 4h155l32 226h-155q-3 0 -2 4l18 129q0 4 3 4h155l25 176q0 4 4 4h144q3 0 3 -4l-25 -176h154q4 0 4 -4l-19 -129q0 -4 -4 -4h-154l-32 -226h154q5 0 3 -4l-18 -129q0 -4 -4 -4h-154l-25 -176q0 -4 -3 -4h-144z" />
<glyph unicode="&#x2022;" horiz-adv-x="429" d="M203 199q-50 0 -78 19.5t-19 79.5l4 25q9 57 42.5 77t84.5 20q22 0 37 -3t30.5 -11.5t22 -29.5t2.5 -53l-3 -25q-4 -32 -16 -53.5t-31 -30.5t-36 -12t-40 -3z" />
<glyph unicode="&#x2026;" horiz-adv-x="757" d="M264 0q-4 0 -4 4l22 155q0 4 5 4h149q3 0 3 -4l-21 -155q-1 -4 -5 -4h-149zM518 0q-4 0 -4 4l22 155q0 4 5 4h148q3 0 3 -4l-21 -155q-1 -4 -5 -4h-148zM11 0q-4 0 -4 4l22 155q0 4 5 4h148q3 0 3 -4l-21 -155q-1 -4 -5 -4h-148z" />
<glyph unicode="&#x202f;" horiz-adv-x="188" />
<glyph unicode="&#x2030;" horiz-adv-x="1127" d="M249 -6h-134q-1 0 -3 4q0 2 115.5 172.5t230 341t112.5 171.5q4 4 7 4h134q4 0 1 -4q-1 -1 -228.5 -342.5t-228.5 -342.5q-3 -4 -6 -4zM580 98q39 0 43 37l6 46q3 22 -5 29t-26 7q-40 0 -45 -36l-6 -46q-3 -22 6 -29.5t27 -7.5zM565 -6q-137 0 -119 124l12 82 q17 121 157 121q26 0 46 -4.5t40 -16t28 -37t3 -63.5l-12 -82q-7 -51 -33.5 -80t-55 -36.5t-66.5 -7.5zM229 464q19 0 29.5 7t13.5 30l7 46q3 21 -5.5 28.5t-26.5 7.5q-39 0 -45 -36l-7 -46q-3 -22 6.5 -29.5t27.5 -7.5zM214 360q-60 0 -94 26t-25 98l11 82q17 121 158 121 q57 0 91 -25t25 -96l-11 -82q-17 -124 -155 -124zM896 98q39 0 43 37l6 46q3 22 -5 29t-26 7q-40 0 -45 -36l-6 -46q-3 -22 6 -29.5t27 -7.5zM881 -6q-59 0 -93 26t-25 98l11 82q17 121 157 121q26 0 46 -4.5t40 -16t28 -37t3 -63.5l-12 -82q-18 -124 -155 -124z" />
<glyph unicode="&#x2039;" horiz-adv-x="386" d="M299 522q2 -2 37 -44t36 -43q3 -1 -1 -5l-180 -166q133 -164 134 -166q2 -2 -1 -5l-97 -87q-3 -2 -5 0l-210 255q-3 3 0 6l283 255q2 2 4 0z" />
<glyph unicode="&#x203a;" horiz-adv-x="386" d="M80 6q-2 2 -37 44t-36 43q-3 1 1 5l181 166q-134 164 -135 166q-3 1 1 5q1 1 25 22.5t48 42.5t24 22q2 2 5 0l210 -255q3 -3 0 -6l-282 -255q-3 -2 -5 0z" />
<glyph unicode="&#x2044;" horiz-adv-x="446" d="M12 -5q-3 0 -2 4q1 2 141.5 342.5t141.5 341.5q1 4 5 4h154q5 0 2 -4l-282 -684q-1 -4 -5 -4h-155z" />
<glyph unicode="&#x205f;" horiz-adv-x="236" />
<glyph unicode="&#x2070;" horiz-adv-x="344" d="M179 338q34 0 50 16.5t23 69.5l14 103q7 52 -4.5 68t-44.5 16t-49.5 -16t-23.5 -68l-14 -103q-8 -53 4 -69.5t45 -16.5zM169 267q-14 0 -23.5 0.5t-22 2t-21.5 4.5t-18.5 8.5t-15.5 13.5t-11.5 19.5t-8 26t-2 34t3.5 42.5l17 117q7 49 22.5 80t39.5 45t45.5 18t52.5 4 q32 0 51.5 -3.5t41 -17t29 -45t0.5 -81.5l-17 -117q-7 -52 -23.5 -84.5t-42 -46t-45.5 -17t-52 -3.5z" />
<glyph unicode="&#x2074;" horiz-adv-x="315" d="M249 270h-65q-3 0 -3 2l9 63h-154q-2 0 -2 3l9 65l3 6q1 1 72 132.5t72 134.5q2 2 3 2h74q1 0 1 -2l-139 -265l-1 -5h72l10 70q0 2 3 2h65q3 0 3 -2l-10 -70h37q2 0 2 -3l-9 -65q0 -3 -3 -3h-37l-9 -63q0 -2 -3 -2z" />
<glyph unicode="&#x2075;" horiz-adv-x="315" d="M149 267q-73 0 -109 18q-2 1 -2 3t10.5 29.5t11.5 29.5q0 1 3 1l7 -1q6 -1 16 -3t21.5 -4t25.5 -3t25 -1q56 0 61 36l4 29q6 48 -44 48h-106q-2 0 -2 2l31 222q0 5 6 5h214q2 0 2 -2l-9 -61q0 -3 -2 -3h-150l-14 -98h41q23 0 40.5 -3t37.5 -12t28.5 -30.5t4.5 -54.5 l-7 -53q-3 -26 -15 -44.5t-26.5 -27.5t-35.5 -14.5t-35 -6.5t-33 -1z" />
<glyph unicode="&#x2076;" horiz-adv-x="315" d="M164 331q15 0 25.5 3t21 17t13.5 39l2 16q4 31 -6 42t-32 11q-9 0 -23 -2.5t-24 -5.5l-10 -3l-12 -81q-5 -36 45 -36zM159 267q-23 0 -42 3.5t-38.5 13t-29 30.5t-5.5 51l30 212q6 44 36.5 69.5t55.5 30.5t51 5q20 0 37.5 -2.5t29.5 -5.5t20.5 -6t13.5 -6l4 -2q2 0 0 -3 q0 -2 -10.5 -29t-10.5 -28t-4 -1l-5 1q-6 2 -15 4t-20 3.5t-24 3t-25 1.5q-55 0 -60 -38l-8 -61q50 11 72 11q21 0 35.5 -3t30.5 -13.5t22 -34.5t1 -61l-4 -27q-6 -39 -20.5 -64.5t-36 -36.5t-39 -14t-42.5 -3z" />
<glyph unicode="&#x2077;" horiz-adv-x="305" d="M139 270h-75q-4 0 -2 3l172 331l1 6h-151q-2 0 -2 2l9 63q0 3 2 3h233q2 0 2 -2l-9 -62q0 -1 -1.5 -3.5t-1.5 -3.5t-86.5 -167t-86.5 -167q-1 -3 -4 -3z" />
<glyph unicode="&#x2078;" horiz-adv-x="314" d="M163 331q51 0 58 49l3 19q7 47 -44 47t-58 -47l-3 -19q-8 -49 44 -49zM189 515q49 0 54 41l2 18q5 44 -40 44q-48 0 -55 -44l-3 -18q-3 -21 9 -31t33 -10zM153 267q-26 0 -45 3.5t-37 14t-25 33.5t-2 57l4 29q3 24 16 43t24 26l12 7l1 2q-4 2 -9.5 7t-13 22.5t-4.5 38.5 l4 27q5 34 18.5 56.5t34.5 32.5t39.5 13t44.5 3q53 0 82.5 -20.5t20.5 -84.5l-4 -28q-3 -20 -14 -36.5t-21 -23.5l-10 -7l-1 -2q2 -1 4.5 -2.5t9.5 -8t10.5 -15t7.5 -21.5t0 -29l-5 -29q-11 -66 -47 -87t-95 -21z" />
<glyph unicode="&#x2079;" horiz-adv-x="315" d="M204 617q-15 0 -25 -3t-20.5 -16.5t-13.5 -38.5l-3 -24q-4 -31 5 -42t31 -11q9 0 23.5 3t24.5 5l10 3l12 89q5 35 -44 35zM209 682q23 0 42 -3.5t39 -13t29.5 -30.5t5.5 -51l-30 -212q-6 -44 -36.5 -69.5t-55.5 -30.5t-51 -5q-69 0 -107 19q-2 2 -1 3q0 1 6 15t11 27.5 t5 14.5q0 2 4 2l6 -1q6 -1 15 -3t20 -4t24.5 -3t25.5 -1q53 0 59 40l7 53q-51 -11 -73 -11q-20 0 -34.5 3t-30.5 13.5t-22 34.5t0 61l5 33q6 39 20.5 65t36 36.5t39 14t41.5 3.5z" />
<glyph unicode="&#x2080;" horiz-adv-x="344" d="M141 68q34 0 50 16.5t23 69.5l14 103q7 52 -4.5 68t-44.5 16t-49.5 -16t-23.5 -68l-14 -103q-8 -53 4 -69.5t45 -16.5zM131 -3q-14 0 -23.5 0.5t-22 2t-21.5 4.5t-18.5 8.5t-15.5 13.5t-11.5 19.5t-8 26t-2 34t3.5 42.5l17 117q7 49 22.5 80t39.5 45t45.5 18t52.5 4 t50.5 -3.5t41 -17t29 -45t0.5 -81.5l-16 -117q-7 -52 -23 -84.5t-41.5 -46t-45.5 -17t-53 -3.5z" />
<glyph unicode="&#x2081;" horiz-adv-x="304" d="M172 0h-71q-2 0 -2 2l45 321q-77 -50 -78 -51q-2 0 -3 1q0 1 -4 32t-4 32t4 4l95 66q1 1 4 1h71q3 0 3 -2l-57 -404q0 -2 -3 -2z" />
<glyph unicode="&#x2082;" horiz-adv-x="311" d="M233 0h-234q-2 0 -2 2l9 63q0 2 3 5q126 119 154 154q27 32 30 51l4 29q2 16 -6.5 24.5t-18.5 10.5t-24 2q-11 0 -25 -1.5t-25 -3.5t-21 -4t-16 -4l-6 -1q-1 -1 -2 -0.5t-1 1.5t-3 29t-3 30t2 3q42 21 111 21q24 0 43 -3t39.5 -12t30 -29.5t5.5 -51.5l-6 -46 q-3 -23 -28 -57.5t-47 -57.5t-77 -78l-1 -6h125v-2l-9 -66q0 -2 -1 -2z" />
<glyph unicode="&#x2083;" horiz-adv-x="315" d="M0 15q0 1 -0.5 1t-0.5 1t11 31l11 29q0 1 3 1l6 -1q6 -1 16 -3t21.5 -4t25.5 -3t26 -1q56 0 61 37l3 26q5 46 -43 46h-46q-3 0 -3 2l9 62q0 2 3 2h47q16 0 29.5 10.5t16.5 28.5l4 25q2 16 -6.5 25t-18.5 11t-23 2q-18 0 -41 -3t-36.5 -6t-15.5 -4q-3 -2 -3 1q0 1 -2 28.5 t-2 30.5q0 2 1 3t14 5.5t40 9t55 4.5q25 0 44 -3t39.5 -12t29.5 -29t4 -50l-6 -39q-3 -18 -13 -34t-18 -23l-9 -8l-1 -5q4 -2 10 -6.5t14 -23.5t4 -43l-6 -44q-4 -30 -18 -50.5t-36 -29.5t-42.5 -12t-47.5 -3q-31 0 -58.5 4.5t-39.5 8.5z" />
<glyph unicode="&#x2084;" horiz-adv-x="315" d="M211 0h-65q-3 0 -3 2l9 63h-154q-2 0 -2 3l9 65l3 6q1 1 72 132.5t72 134.5q2 2 3 2h74q1 0 1 -2l-139 -265l-1 -5h72l10 70q0 2 3 2h65q3 0 3 -2l-10 -70h37q2 0 2 -3l-9 -65q0 -3 -3 -3h-37l-9 -63q0 -2 -3 -2z" />
<glyph unicode="&#x2085;" horiz-adv-x="315" d="M111 -3q-73 0 -109 18q-2 1 -2 3t11 29.5t11 29.5q0 1 3 1l7 -1q6 -1 16 -3t21.5 -4t25.5 -3t25 -1q56 0 61 36l4 29q6 48 -44 48h-106q-2 0 -2 2l31 222q0 5 6 5h214q2 0 2 -2l-9 -61q0 -3 -2 -3h-150l-14 -98h41q23 0 40.5 -3t37.5 -12t28.5 -30.5t4.5 -54.5l-7 -53 q-3 -26 -15 -44.5t-26.5 -27.5t-35.5 -14.5t-35 -6.5t-33 -1z" />
<glyph unicode="&#x2086;" horiz-adv-x="315" d="M126 61q15 0 25.5 3t21 17t13.5 39l2 16q4 31 -6 42t-32 11q-9 0 -23 -2.5t-24 -5.5l-10 -3l-12 -81q-5 -36 45 -36zM121 -3q-23 0 -42 3.5t-38.5 13t-29 30.5t-5.5 51l30 212q6 44 36.5 69.5t55.5 30.5t51 5q20 0 37.5 -2.5t29.5 -5.5t20.5 -6t13.5 -6l4 -2q2 0 0 -3 q0 -2 -10.5 -29t-10.5 -28t-4 -1l-5 1q-6 2 -15 4t-20 3.5t-24 3t-25 1.5q-55 0 -60 -38l-8 -61q50 11 72 11q21 0 35.5 -3t30.5 -13.5t22 -34.5t1 -61l-4 -27q-6 -39 -20.5 -64.5t-36 -36.5t-39 -14t-42.5 -3z" />
<glyph unicode="&#x2087;" horiz-adv-x="305" d="M101 0h-75q-4 0 -2 3l172 331l1 6h-151q-2 0 -2 2l9 63q0 3 2 3h233q2 0 2 -2l-9 -62q0 -1 -1.5 -3.5t-1.5 -3.5t-86 -167l-87 -167q-1 -3 -4 -3z" />
<glyph unicode="&#x2088;" horiz-adv-x="314" d="M125 61q51 0 58 49l3 19q7 47 -44 47t-58 -47l-3 -19q-8 -49 44 -49zM151 245q49 0 54 41l2 18q5 44 -40 44q-51 0 -56 -44l-2 -18q-5 -41 42 -41zM115 -3q-27 0 -46 3.5t-37.5 14t-25.5 33.5t-1 57l5 29q4 24 17 43t24 26l11 7l1 2q-4 2 -9.5 7t-13 22.5t-4.5 38.5l4 27 q5 34 18.5 56.5t34.5 32.5t39.5 13t44.5 3q53 0 82.5 -20.5t20.5 -84.5l-4 -28q-3 -20 -14 -36.5t-21 -23.5l-10 -7l-1 -2q2 -1 4.5 -2.5t9.5 -8t10.5 -15t7.5 -21.5t0 -29l-5 -29q-11 -66 -47 -87t-95 -21z" />
<glyph unicode="&#x2089;" horiz-adv-x="315" d="M166 347q-15 0 -25 -3t-20.5 -16.5t-13.5 -38.5l-3 -24q-4 -31 5 -42t31 -11q9 0 23.5 3t24.5 5l10 3l12 89q5 35 -44 35zM171 412q23 0 42 -3.5t39 -13t29.5 -30.5t5.5 -51l-30 -212q-6 -44 -36.5 -69.5t-55.5 -30.5t-51 -5q-69 0 -107 19q-2 2 -1 3q0 1 6 15t11 27.5 t5 14.5q0 2 4 2l6 -1q6 -1 15 -3t20 -4t24.5 -3t25.5 -1q53 0 59 40l7 53q-51 -11 -73 -11q-20 0 -34.5 3t-30.5 13.5t-22 34.5t0 61l5 33q6 39 20.5 65t36 36.5t39 14t41.5 3.5z" />
<glyph unicode="&#x20ac;" horiz-adv-x="594" d="M326 -8q-38 0 -69 4t-69 18.5t-62 39.5t-36.5 71t-3.5 109h-47q-3 0 -3 4l12 79q0 4 3 4h47l6 41h-47q-3 0 -3 4l12 79q0 4 3 4h47q8 59 31.5 103.5t53 70t70.5 40.5t77 20t79 5q57 0 101.5 -7t59.5 -12.5t18 -8.5q3 -1 1 -5l-60 -130q-2 -3 -6 -2q-2 1 -20 3t-51.5 4.5 t-64.5 2.5q-43 0 -68.5 -17.5t-42.5 -66.5h134q3 0 3 -4l-11 -79q0 -4 -4 -4h-136l-6 -41h136q4 0 3 -4l-11 -79q0 -4 -4 -4h-134q0 -49 19.5 -64.5t66.5 -15.5q34 0 71 3t56 6t21 4q5 2 5 -2l27 -133q0 -4 -3 -5q-5 -3 -23.5 -10t-69 -16t-108.5 -9z" />
<glyph unicode="&#x2122;" horiz-adv-x="820" d="M389 291l54 386q0 3 3 3h110q3 0 3 -2l46 -173h8q90 170 91 172q3 3 5 3h109q2 0 2 -3l-54 -386q0 -2 -3 -2h-93v2l29 205h-9q-64 -121 -65 -123t-4 -2h-64q-4 0 -5 3l-29 122h-8l-29 -205q0 -2 -4 -2h-91q-2 0 -2 2zM139 291l42 301h-92q-1 0 -1 2l12 83l1 3h281 q2 0 2 -3l-12 -83q0 -2 -2 -2h-91l-42 -301q0 -2 -4 -2h-93q-1 0 -1 2z" />
<glyph unicode="&#x2190;" horiz-adv-x="732" d="M312 360h377q3 0 3 -4l-18 -129q0 -4 -4 -4h-377l114 -133q2 -2 -1 -5q-2 -1 -52.5 -45t-52.5 -46q-3 -2 -5 0l-253 294q-3 3 0 6l337 295q2 3 5 0l79 -91q2 -2 -1 -6z" />
<glyph unicode="&#x2191;" horiz-adv-x="699" d="M431 381l-53 -377q0 -4 -4 -4h-129q-4 0 -4 4l53 377l-151 -133q-3 -2 -5 0q-1 1 -39 46t-39 46q-3 3 1 5l335 295q3 3 6 0l253 -295q3 -3 0 -5l-104 -92q-4 -4 -6 0z" />
<glyph unicode="&#x2192;" horiz-adv-x="732" d="M423 223h-377q-4 0 -4 4l18 129q0 4 5 4h377l-114 133q-2 3 0 5q2 1 52.5 45t52.5 46q3 3 5 0l254 -294q2 -3 -1 -6l-336 -295q-3 -3 -5 0l-80 91q-2 3 1 6z" />
<glyph unicode="&#x2193;" horiz-adv-x="699" d="M278 260l53 377q0 4 4 4h129q4 0 4 -4l-53 -377l151 133q2 3 5 0q1 -1 39 -46t39 -46q3 -3 -1 -5l-335 -295q-3 -3 -6 0l-253 295q-2 2 0 5l104 92q4 4 6 0z" />
<glyph unicode="&#x2194;" horiz-adv-x="977" d="M296 -5l-253 294q-3 3 1 6l336 295q2 2 5 0q1 -1 39.5 -45.5t39.5 -45.5q2 -3 -1 -6l-151 -132h375q-113 130 -114 132q-2 3 1 6l104 91q2 2 5 0q2 -2 127 -148t126 -147q2 -4 0 -6l-337 -294q-3 -3 -5 0l-78 91q-2 2 1 5l150 133h-374l114 -133q2 -2 -1 -5l-105 -91 q-3 -3 -5 0z" />
<glyph unicode="&#x2195;" horiz-adv-x="699" d="M81 492q1 1 168 147.5t168 147.5q3 3 5 0q1 -2 126.5 -147.5t127.5 -147.5t-1 -6q-1 -1 -52 -45.5t-52 -45.5q-3 -3 -5 0l-114 132l-52 -374l150 132q3 3 6 0l78 -91q3 -3 0 -6l-337 -295q-3 -3 -6 0l-253 295q-2 2 1 6l104 91q3 3 5 0l115 -132l52 374 q-149 -130 -151 -132q-3 -3 -5 0l-79 91q-2 2 1 6z" />
<glyph unicode="&#x2196;" horiz-adv-x="613" d="M544 163q2 -3 -1 -6l-105 -91q-2 -2 -5 0l-229 266l-27 -187q0 -4 -4 -4h-129q-4 0 -4 4l59 417q0 4 5 4h417q3 0 3 -4l-18 -129q0 -4 -5 -4h-187z" />
<glyph unicode="&#x2197;" horiz-adv-x="612" d="M118 65q-4 -3 -6 0l-78 92q-2 3 0 5l304 267h-187q-4 0 -4 4l18 129q0 4 5 4h417q4 0 4 -4l-59 -417q0 -4 -5 -4h-129q-4 0 -3 4l26 187z" />
<glyph unicode="&#x2198;" horiz-adv-x="613" d="M78 467q-3 3 1 6l104 91q3 2 5 0l230 -266l26 187q0 4 5 4h129q3 0 3 -4l-58 -417q-2 -4 -5 -4h-417q-4 0 -3 4l18 129q0 4 4 4h187z" />
<glyph unicode="&#x2199;" horiz-adv-x="612" d="M502 565q4 2 6 0l78 -92q2 -3 0 -5l-304 -267h187q4 0 4 -4l-19 -129q0 -4 -4 -4h-417q-4 0 -4 4l59 417q0 4 5 4h129q4 0 3 -4l-26 -187z" />
<glyph unicode="&#x2212;" horiz-adv-x="400" d="M38 207q-3 0 -3 4l18 129q0 4 4 4h301q4 0 4 -4l-18 -129q0 -4 -5 -4h-301z" />
<glyph unicode="&#x221a;" horiz-adv-x="877" d="M33 296l121 110q4 3 7 0l155 -181q465 411 466 412q4 3 7 0l90 -110q2 -2 -1 -5l-591 -527q-3 -3 -6 0q-1 1 -63 74.5t-123.5 147t-62.5 73.5q0 5 1 6z" />
<glyph unicode="&#x2248;" horiz-adv-x="556" d="M59 184q1 10 11 20q6 6 18.5 15t38.5 19.5t52 10.5q41 0 95 -29t84 -29t67 22.5t38 22.5q5 0 3 -6l-11 -80q-2 -14 -10 -21q-54 -49 -111 -49q-40 0 -92 30.5t-83 30.5q-23 0 -47.5 -11t-41 -22t-19.5 -11q-4 0 -4 5zM90 405q1 12 11 20q11 12 41.5 29t67.5 17 q41 0 95 -29t84 -29t67 22.5t38 22.5q4 0 4 -6l-12 -80q-2 -14 -10 -21q-54 -49 -111 -49q-39 0 -91.5 30.5t-83.5 30.5q-23 0 -47.5 -11t-41 -22t-19.5 -11q-5 0 -3 5z" />
<glyph unicode="&#x2260;" horiz-adv-x="556" d="M60 0q-4 0 -2 4l56 93h-82q-3 0 -3 4l19 131q0 4 3 4h150l47 80h-185q-3 0 -3 4l19 131q0 4 3 4h253q57 93 59 97q3 4 5 4h99q3 0 3 -4l-59 -97h80q4 0 4 -4l-19 -131q0 -4 -4 -4h-148l-47 -80h183q4 0 4 -4l-19 -131q0 -4 -4 -4h-251q-55 -91 -56 -93q-3 -4 -6 -4h-99z " />
<glyph unicode="&#x2264;" horiz-adv-x="555" d="M482 169l-417 171q-3 3 -3 5l16 115q0 5 5 5l465 172q4 2 4 -3l-20 -139q0 -4 -5 -6l-242 -85v-3q216 -84 218 -84q4 -2 3 -6l-19 -139q-2 -5 -5 -3zM16 0q-4 0 -4 4l19 132q0 4 4 4h443q4 0 4 -4l-19 -132q0 -4 -4 -4h-443z" />
<glyph unicode="&#x2265;" horiz-adv-x="555" d="M39 169q-3 -1 -3 3l19 139q2 6 5 6l243 84v3q-216 84 -219 85t-3 6l20 139q0 5 4 3q2 -1 209 -86.5t208 -85.5q5 0 3 -5l-16 -115q0 -3 -5 -5zM459 0h-443q-4 0 -4 4l19 132q0 4 4 4h443q4 0 4 -4l-19 -132q0 -4 -4 -4z" />
<glyph unicode="&#x25b2;" horiz-adv-x="710" d="M701 323l-29 -207q0 -2 -1.5 -3t-2.5 0l-299 236h-9q-364 -236 -365 -237q-4 -4 -4 3l30 208q0 3 5 6l361 236q8 6 16 0l17 -14q18 -14 43.5 -34.5t57 -45.5t62.5 -50t56.5 -45.5t42.5 -33.5l16 -13q4 -4 3 -6z" />
<glyph unicode="&#x25ba;" horiz-adv-x="617" d="M242 0h-207q-6 0 -3 3l283 332l1 9q-189 331 -190 332q-4 4 3 4h208q3 0 6 -4l190 -328q4 -8 -2 -16q-2 -2 -72.5 -84t-140 -163t-70.5 -82q-3 -3 -6 -3z" />
<glyph unicode="&#x25bc;" horiz-adv-x="710" d="M25 356l29 207l3 3l299 -236h9q364 236 365 237q4 4 4 -3l-29 -208q0 -3 -5 -6l-361 -236q-8 -6 -16 0q-294 235 -296 236q-3 3 -2 6z" />
<glyph unicode="&#x25c4;" horiz-adv-x="617" d="M391 680h207q5 0 2 -3l-283 -332l-1 -9q189 -331 190 -332q4 -4 -3 -4h-208q-3 0 -6 4l-189 328q-5 7 2 16q1 1 72 84t140.5 163.5t69.5 81.5q3 3 7 3z" />
<glyph unicode="&#x25fc;" horiz-adv-x="485" d="M0 485h485v-485h-485v485z" />
<glyph horiz-adv-x="550" />
<glyph horiz-adv-x="550" d="M253 144q45 0 62.5 22t27.5 95l23 163q10 72 -2 93t-55 21t-61.5 -21t-28.5 -93l-23 -163q-10 -73 1 -95t56 -22zM232 -10q-24 0 -42 1t-40 4t-37.5 8.5t-32.5 15t-28 23t-21 33t-14 44t-4 57.5t6 73l27 191q10 67 31 115t46 74.5t62.5 41t69 18t75.5 3.5q24 0 41 -1 t39 -3.5t37.5 -7.5t33 -14.5t29 -22.5t21.5 -32t14.5 -43t5 -56.5t-5.5 -71.5l-27 -191q-7 -52 -20.5 -92.5t-29.5 -67.5t-39.5 -46t-43.5 -29.5t-49.5 -16t-50.5 -6.5t-53 -1z" />
<glyph horiz-adv-x="550" d="M369 0h-159q-4 0 -3 4l69 495q-125 -76 -127 -77q-1 -1 -2 -0.5t-1 2.5q0 3 -9 71t-10 69q-1 4 4 7l168 107q4 2 7 2h159q3 0 3 -4l-94 -673q-2 -3 -5 -3z" />
<glyph horiz-adv-x="550" d="M445 0h-415q-4 0 -4 4l19 131q0 6 6 12q15 13 45.5 41t45.5 41.5t41.5 37.5t40 38t33.5 34t30.5 33.5t22 29t17 27.5t6.5 23l6 42q3 18 -9.5 29t-25 13.5t-24.5 2.5q-33 0 -73.5 -6t-64.5 -11.5t-26 -6.5q-5 0 -5 3t-5.5 65.5t-5.5 63.5q0 3 3 6q6 4 24 11t69 17t109 10 q238 0 214 -169l-12 -86q-4 -29 -19.5 -59.5t-48.5 -69t-59.5 -66t-78.5 -78.5l-2 -11h167q4 0 3 -4l-20 -144q0 -4 -4 -4z" />
<glyph horiz-adv-x="550" d="M26 19q-2 0 -2 3t20.5 66.5t21.5 65.5q1 3 6 3q2 -1 27.5 -5t67 -8.5t73.5 -4.5q27 0 49.5 11t25.5 33l4 33q8 60 -55 60h-88q-4 0 -4 4l19 135q0 4 5 4h89q20 0 37 13t20 34l4 32q2 18 -10 29t-24.5 13.5t-24.5 2.5q-33 0 -74 -5t-64 -9.5t-27 -5.5q-6 -2 -6 3 q0 4 -2.5 66t-2.5 63q0 4 3 6q5 2 26 8.5t70 14.5t99 8q38 0 67.5 -3t61 -13t50.5 -27t28.5 -47t3.5 -72l-10 -68q-4 -26 -21 -52t-32 -39l-15 -13l-1 -10q2 -1 6 -3.5t14 -12t17 -21.5t11 -32t1 -44l-11 -81q-7 -51 -30.5 -85t-61.5 -50.5t-76.5 -22.5t-90.5 -6 q-56 0 -104.5 7t-69.5 15z" />
<glyph horiz-adv-x="550" d="M428 0h-148q-4 0 -4 4l13 90h-264q-4 0 -4 4l20 139q0 6 5 14l223 425q2 4 5 4h168q4 0 2 -4l-215 -420l-1 -10h82l14 100q0 4 5 4h148q3 0 3 -4l-14 -100h43q3 0 3 -4l-20 -144q-1 -4 -4 -4h-43l-13 -90q0 -4 -4 -4z" />
<glyph horiz-adv-x="550" d="M224 -11q-109 0 -196 29q-3 1 -1 6q0 1 21 64.5t22 65.5q2 3 5 2t28.5 -5t67 -8.5t73.5 -4.5q25 0 47.5 10.5t25.5 34.5l6 39q5 32 -14 45t-43 13h-184q-3 0 -3 4l55 387q0 9 10 9h388q4 0 3 -4l-18 -134q-2 -4 -5 -4h-245l-17 -118h40q34 0 60.5 -2.5t59 -12t52 -26 t30.5 -48t5 -74.5l-15 -104q-6 -45 -27 -77t-45.5 -48.5t-61 -25.5t-62.5 -11t-62 -2z" />
<glyph horiz-adv-x="550" d="M247 128q13 0 22 2t20.5 9t19 23.5t11.5 41.5l4 29q5 38 -4.5 50.5t-30.5 12.5q-16 0 -34.5 -3.5t-29.5 -6.5l-11 -4l-16 -116q-3 -21 12 -29.5t37 -8.5zM240 -10q-234 0 -209 175l47 338q7 51 32.5 88.5t54.5 56t67 29.5t60 13t43 2t40.5 -1.5t35.5 -3.5t30.5 -4.5 t25.5 -6t20.5 -6.5t16 -6t11 -5t7.5 -3l3 -2q3 -1 1 -6q-1 -4 -23.5 -63.5t-23.5 -61.5q0 -2 -4 -2l-10 2q-10 2 -26.5 5.5t-35.5 6.5t-42.5 5t-43.5 2q-21 0 -45.5 -10.5t-27.5 -35.5l-11 -76q80 14 111 14q19 0 33.5 -1.5t33 -5.5t30.5 -12.5t26 -22.5t18.5 -34t8.5 -48.5 t-4 -65.5l-7 -49q-8 -55 -27 -94t-41.5 -60t-55 -33t-58.5 -15t-61 -3z" />
<glyph horiz-adv-x="550" d="M240 1h-169q-4 0 -3 4l267 518l2 10h-232q-4 0 -4 4l20 139q0 4 4 4h412q4 0 4 -4l-19 -132q0 -5 -5 -13l-271 -526q-3 -4 -6 -4z" />
<glyph horiz-adv-x="550" d="M256 128q60 0 69 61l4 29q4 29 -13 41t-39 12t-43 -12.5t-25 -40.5l-4 -29q-8 -61 51 -61zM298 423q22 0 41 11.5t22 37.5l4 29q8 55 -48 55q-57 0 -64 -55l-4 -29q-3 -25 11.5 -37t37.5 -12zM236 -10q-36 0 -64 3.5t-58 15t-48 31.5t-27 55.5t-3 83.5l6 49q3 22 13 42.5 t22 34t23.5 23.5t19.5 14l8 5l1 4q-5 4 -13 12t-19 36t-7 60l7 48q7 50 25 86t39 54.5t53.5 29t58 13t63.5 2.5q37 0 63 -2.5t55 -13.5t45 -30t23.5 -54.5t0.5 -84.5l-7 -49q-4 -31 -21.5 -58t-32.5 -38l-16 -12l-1 -3q3 -2 7 -5t15 -13.5t18.5 -23.5t12 -33.5t1.5 -43.5 l-7 -49q-7 -48 -25.5 -83.5t-42 -55.5t-56.5 -31.5t-63 -15t-69 -3.5z" />
<glyph horiz-adv-x="550" d="M319 549q-13 0 -22 -2t-20.5 -9t-19 -23t-11.5 -41l-5 -35q-5 -38 4.5 -50.5t30.5 -12.5q16 0 34.5 3.5t29.5 6.5l11 4l17 121q3 22 -11.5 30t-37.5 8zM326 687q34 0 62 -3t59.5 -14t52 -29.5t31.5 -51.5t5 -77l-46 -328q-7 -51 -32.5 -88.5t-54.5 -56t-67 -29.5t-60 -13 t-43 -2t-41 1t-36 3t-30.5 4.5t-26 5.5t-21 6t-16.5 5.5t-12 4.5t-8 3l-3 2q-3 1 -1 6q1 5 24 62.5l25 62.5q1 3 5 3q4 -1 26 -5.5t61.5 -9t71.5 -4.5q12 0 26 3t29.5 14.5t17.5 29.5l8 60q-80 -14 -111 -14q-22 0 -38.5 2t-38 8.5t-33.5 19t-24.5 34t-13 52t2.5 74.5l7 54 q7 55 26 94t41.5 60t55.5 33t59 15t61 3z" />
<glyph horiz-adv-x="550" d="M170 95q-4 0 -3 4l19 135q0 4 4 4h148q4 0 4 -4l-19 -135q0 -4 -5 -4h-148zM219 439q-4 0 -4 4l19 135q0 4 5 4h148q3 0 3 -4l-19 -135q0 -4 -4 -4h-148z" />
<glyph horiz-adv-x="516" d="M90 166q-2 3 1 6l99 87q2 2 4 0t91.5 -109.5t90.5 -109.5t-2 -5q-2 -2 -50 -45l-47 -42q-3 -3 -6 0z" />
<glyph horiz-adv-x="459" d="M29 -45q-4 0 -1 4l59 113q3 4 8 4h96q3 0 2 -4q-2 -4 -31 -57.5t-30 -55.5q-2 -4 -7 -4h-96zM257 414q-4 0 -2 4l58 110q3 4 7 4h98q5 0 2 -4l-59 -110q0 -4 -6 -4h-98z" />
<glyph horiz-adv-x="639" d="M399 571q-3 0 -2 4l93 143q2 4 7 4h134q4 0 1 -4l-92 -143q-3 -4 -6 -4h-135zM15 -40q-4 0 -1 4l89 138q3 4 7 4h133q5 0 2 -4l-90 -138q-3 -4 -5 -4h-135z" />
<glyph horiz-adv-x="1206" d="M263 -10q-73 0 -134 9.5t-79 16t-26 10.5q-4 2 -2 6l59 137q0 3 5 3q81 -27 200 -27q42 0 66 7.5t27 30.5l5 35q3 20 -22.5 33.5t-81.5 20.5q-118 13 -161.5 49.5t-30.5 127.5l12 84q23 159 264 159q66 0 121.5 -8.5t73 -14.5t24.5 -9q4 -1 2 -6l-56 -130q-1 -3 -6 -3 q-4 1 -26.5 5.5t-67 9.5t-84.5 5q-65 0 -70 -36l-4 -31q-3 -22 14 -32.5t80 -18.5q120 -16 166 -55t34 -129l-12 -84q-6 -43 -28 -74.5t-49.5 -48.5t-67.5 -27t-72.5 -12.5t-72.5 -2.5zM827 -10q-73 0 -134 9.5t-79 16t-26 10.5q-4 2 -2 6l59 137q0 3 5 3q81 -27 200 -27 q42 0 66 7.5t27 30.5l5 35q3 20 -22.5 33.5t-81.5 20.5q-118 13 -161.5 49.5t-30.5 127.5l12 84q23 159 264 159q66 0 121.5 -8.5t73 -14.5t24.5 -9q4 -1 2 -6l-56 -130q-1 -3 -6 -3q-4 1 -26.5 5.5t-67 9.5t-84.5 5q-65 0 -70 -36l-4 -31q-3 -22 14 -32.5t80 -18.5 q120 -16 166 -55t34 -129l-12 -84q-6 -43 -28 -74.5t-49.5 -48.5t-67.5 -27t-72.5 -12.5t-72.5 -2.5z" />
<glyph horiz-adv-x="495" d="M101 0h-149q-2 0 -1 3l249 538q2 3 4 3h162q4 0 5 -3l93 -538q2 -3 -3 -3h-148q-3 0 -4 3l-8 83h-164q-32 -81 -33 -83q-2 -3 -3 -3zM185 198h101l-17 172h-18z" />
<glyph horiz-adv-x="468" d="M220 0h-223l76 544h219q24 0 46 -4t47.5 -15t41 -37t15.5 -63q0 -59 -52 -134q25 -19 35.5 -41.5t4.5 -60.5l-7 -50q-6 -46 -25 -75.5t-50 -42.5t-58.5 -17t-69.5 -4zM160 113h56q55 0 59 32l6 43q3 23 -11 30t-38 7h-56zM190 328h76q25 33 25 65q0 38 -44 38h-42z" />
<glyph horiz-adv-x="437" d="M209 -4q-22 0 -40.5 1.5t-39.5 5t-36 10.5t-31.5 18t-25.5 26.5t-17 36.5t-7.5 48.5t3.5 62.5l20 141q9 64 33.5 107t62 63t74 27t84.5 7t84.5 -6t47.5 -10.5t13 -6.5t0 -5l-6 -12q-6 -12 -14.5 -28t-17 -32.5t-14 -28t-5.5 -12.5q0 -2 -5 -2l-6 1q-6 1 -15.5 2.5 t-21 3.5t-27.5 3t-31 1q-22 0 -36.5 -3.5t-30.5 -24t-22 -59.5l-16 -114q-8 -53 8 -68t54 -15q27 0 56 3t44.5 5.5t16.5 2.5q2 2 4 -1l24 -114q2 -3 -2 -5q-58 -29 -162 -29z" />
<glyph horiz-adv-x="481" d="M164 134h53q17 0 26.5 2t20.5 10t18 27t11 49l14 101q8 57 -4.5 72t-46.5 15h-53zM198 0h-201l76 544h201q43 0 70.5 -4.5t63 -22.5t49 -63.5t3.5 -117.5l-17 -124q-8 -59 -28 -100.5t-42.5 -63t-57 -33t-58 -13.5t-59.5 -2z" />
<glyph horiz-adv-x="423" d="M-3 0l76 544h357q3 0 3 -3l-17 -120q0 -4 -3 -4h-209l-12 -80h172q3 0 3 -3l-17 -119q0 -4 -3 -4h-172l-12 -84h209q2 0 2 -4l-17 -120q0 -3 -3 -3h-357z" />
<glyph horiz-adv-x="419" d="M0 0q-3 0 -3 3l76 541h357q3 0 3 -3l-17 -120q0 -4 -4 -4h-209l-14 -103h172q2 0 2 -3l-16 -120q-1 -3 -4 -3h-172l-26 -185q0 -3 -3 -3h-142z" />
<glyph horiz-adv-x="480" d="M211 -4q-35 0 -61 3t-57 15t-49 33t-27 61.5t-1 95.5l20 142q8 56 29 95.5t45.5 60t60 32t60 13.5t58.5 2q47 0 90 -6.5t61.5 -11.5t20.5 -7t0 -5l-52 -109q-1 -2 -5 -2h-4q-5 1 -12 2t-17 2t-22 2t-25 2t-27.5 1.5t-27.5 0.5q-23 0 -37 -3.5t-29 -24t-20 -58.5l-16 -118 q-8 -53 8.5 -69t54.5 -16l77 6l9 63h-61q-2 0 -2 4l16 113q0 3 3 3h182l-41 -292q-135 -30 -202 -30z" />
<glyph horiz-adv-x="502" d="M0 0q-3 0 -3 3l76 538q0 3 3 3h142q3 0 3 -3l-29 -205h132l29 205q0 3 3 3h142q3 0 3 -3l-76 -538q0 -3 -3 -3h-142q-3 0 -3 3l29 206h-132l-29 -206q0 -3 -3 -3h-142z" />
<glyph horiz-adv-x="222" d="M0 0q-3 0 -3 3l76 538q0 3 3 3h142q3 0 3 -3l-76 -538q0 -3 -3 -3h-142z" />
<glyph horiz-adv-x="408" d="M118 -8q-91 0 -139 24q-2 1 0 5l52 113q2 4 4 2l5 -1q5 -1 13.5 -2t19.5 -2.5t26.5 -2.5t32.5 -1q69 0 76 56l51 358q0 3 3 3h142q3 0 3 -3l-52 -371q-7 -48 -25.5 -82.5t-40 -52.5t-54.5 -28.5t-57.5 -12.5t-59.5 -2z" />
<glyph horiz-adv-x="509" d="M0 0q-3 0 -3 3l76 538q0 3 3 3h142q3 0 3 -3l-29 -207h33q136 204 137 207t5 3h153q3 0 1 -3l-186 -266q118 -270 120 -272q3 -3 -1 -3h-154q-1 0 -4 3l-80 205h-42l-29 -205q0 -3 -3 -3h-142z" />
<glyph horiz-adv-x="411" d="M-3 0l76 541q0 3 3 3h142q3 0 3 -3l-58 -414h209q2 0 2 -4l-17 -120q0 -3 -3 -3h-357z" />
<glyph horiz-adv-x="629" d="M0 0q-3 0 -3 3l76 538q0 3 3 3h167q4 0 5 -2l68 -229h12q126 225 127 227q3 4 6 4h166q3 0 3 -3l-76 -538q0 -3 -3 -3h-139q-3 0 -3 3l38 271h-12q-87 -154 -88 -156q-2 -3 -7 -3h-96q-6 0 -8 4l-45 155h-11l-38 -271q0 -3 -3 -3h-139z" />
<glyph horiz-adv-x="519" d="M-4 0q-3 0 -3 3l76 538q0 3 4 3h153q4 0 5 -2l104 -287h8l40 286q0 3 3 3h139q3 0 3 -3l-76 -538q0 -3 -4 -3h-156q-4 0 -5 3l-102 285h-9l-40 -285q0 -3 -3 -3h-137z" />
<glyph horiz-adv-x="478" d="M217 128q37 0 52 14.5t23 71.5l16 117q8 56 -4 70.5t-47 14.5q-36 0 -52 -14t-24 -71l-16 -117q-8 -56 3 -71t49 -15zM198 -5q-18 0 -31.5 0.5t-30 2.5t-29.5 5.5t-27 9t-24 14t-19.5 19.5t-15.5 26.5t-9.5 34.5t-3 43.5t4.5 53.5l20 140q8 55 26.5 94t40.5 60t54.5 32.5 t58.5 14.5t63 3q19 0 33.5 -0.5t33 -3t31 -7t28.5 -12t24.5 -18t19 -25.5t12.5 -35t5 -45.5t-4 -57.5l-20 -140q-7 -49 -20.5 -85.5t-33.5 -58.5t-39.5 -36t-48 -20t-48.5 -7.5t-51 -1.5z" />
<glyph horiz-adv-x="469" d="M186 295h64q10 0 21.5 2.5t26 13t16.5 27.5l5 34q4 27 -12.5 36t-39.5 9h-64zM142 0h-142q-3 0 -3 3l76 541h221q25 0 46.5 -2.5t49.5 -12t46.5 -25.5t28.5 -46.5t4 -71.5l-9 -62q-7 -51 -33.5 -85.5t-64 -48t-64.5 -18t-57 -4.5h-73l-23 -165q0 -3 -3 -3z" />
<glyph horiz-adv-x="480" d="M198 -5q-18 0 -31.5 0.5t-30 2.5t-29.5 5.5t-27 9t-24 14t-19.5 19.5t-15.5 26.5t-9.5 34.5t-3 43.5t4.5 53.5l20 140q8 55 26.5 94t40.5 60t54.5 32.5t58.5 14.5t63 3q19 0 33.5 -0.5t33 -3t31 -7t28.5 -12t24.5 -18t19 -25.5t12.5 -35t5 -45.5t-4 -57.5l-20 -140 q-12 -82 -42 -128q25 -30 26 -30q1 -2 0 -4q-1 -1 -21.5 -19.5t-41.5 -36.5l-20 -18q0 -2 -2 -2t-3 2l-32 38q-37 -11 -105 -11zM188 147q-2 2 1 5l83 73q3 3 3 0q0 -1 16 -19l1 8l16 117q8 56 -4 70.5t-47 14.5q-36 0 -52 -14t-24 -71l-16 -117q-7 -52 1.5 -68.5 t37.5 -17.5z" />
<glyph horiz-adv-x="479" d="M185 295h65q10 0 22 3t26 14t17 29l4 28q4 27 -14 37.5t-39 10.5h-64zM141 0h-141q-3 0 -3 3l76 541h221q30 0 57 -5.5t59 -21t48 -52.5t9 -91l-5 -39q-6 -51 -31 -86.5t-60 -52.5l57 -193q2 -3 -3 -3h-156q-3 0 -5 3l-40 165h-57l-23 -165q0 -3 -3 -3z" />
<glyph horiz-adv-x="460" d="M187 -4q-128 0 -194 33q-3 1 -1 5l6 12q6 13 14 29t16 33t13.5 28.5t6.5 11.5q0 3 4 3l8 -3q8 -2 22 -5t32 -6.5t43 -6t50 -2.5q64 0 67 25l3 21q5 30 -79 40q-95 11 -129.5 39.5t-24.5 103.5l9 65q17 128 214 128q122 0 178 -28q3 -2 3 -4q0 -8 -52 -112q-1 -2 -3 -2 l-9 2q-8 2 -22 4.5t-31 4.5t-38.5 4t-41.5 2q-46 0 -49 -24l-3 -18q-3 -15 10 -23t62 -14q96 -12 133 -44t27 -105l-9 -64q-6 -43 -29.5 -71t-60.5 -40.5t-70 -17t-75 -4.5z" />
<glyph horiz-adv-x="435" d="M106 0q-3 0 -3 3l58 411h-132q-3 0 -3 3l18 124q0 3 3 3h413q3 0 3 -3l-18 -124q0 -3 -3 -3h-133l-58 -411q0 -3 -3 -3h-142z" />
<glyph horiz-adv-x="492" d="M189 -4q-111 0 -146.5 49.5t-19.5 158.5l47 337q0 3 3 3h143q2 -1 2 -3l-46 -327q-9 -36 -2 -60t39 -24h31q30 0 42 19t19 65l46 327q0 3 3 3h142q3 0 3 -3l-47 -337q-14 -104 -62 -156t-166 -52h-31z" />
<glyph horiz-adv-x="503" d="M125 0q-1 0 -3 2q1 2 -41 270t-42 269q0 3 2 3h149q2 0 4 -3l39 -336h14q135 334 135 336q0 3 3 3h149q4 0 2 -3l-238 -538q-2 -3 -5 -3h-168z" />
<glyph horiz-adv-x="708" d="M87 0q-4 0 -4 4l-43 537q0 3 2 3h149q1 0 3 -3l17 -312h15q89 212 90 214q2 3 3 3h116q4 0 5 -4l29 -213h16q103 310 104 312q1 3 3 3h149q5 0 3 -3q-1 -1 -97.5 -267.5t-97.5 -269.5q-1 -4 -6 -4h-173q-5 0 -6 4l-14 210h-10q-71 -204 -73 -209q-3 -5 -7 -5h-173z" />
<glyph horiz-adv-x="475" d="M-39 0q-3 0 -1 3l196 277q-109 259 -111 261q-3 3 2 3h154q3 0 4 -3l48 -123h6q80 121 82 123l3 3h155q1 0 2 -1t0 -2l-184 -261q116 -276 117 -277q3 -3 -1 -3h-155q-3 0 -4 3l-54 140h-5q-94 -138 -95 -140q-2 -3 -5 -3h-154z" />
<glyph horiz-adv-x="468" d="M123 0q-3 0 -3 3l28 203q-111 333 -112 335q-1 3 2 3h149q3 0 4 -3l53 -178h6q99 176 100 178q2 3 3 3h146q5 0 3 -3l-206 -335l-28 -203q-1 -3 -4 -3h-141z" />
<glyph horiz-adv-x="429" d="M-13 0q-3 0 -3 3l17 119q0 5 5 10l240 274l1 9h-193q-3 0 -3 3l18 123q0 3 3 3h365q2 0 2 -3l-17 -118q-1 -9 -3 -11l-241 -274l-1 -9h202q1 0 1 -3l-17 -123q0 -3 -2 -3h-374z" />
<glyph horiz-adv-x="379" d="M82 436l-1 3l14 102q0 3 2 3h101q2 0 2 -3l-14 -102l-3 -3h-101zM240 436q-4 0 -3 3l14 102q0 3 4 3h98q2 0 2 -3l-14 -102q0 -3 -3 -3h-98z" />
<glyph horiz-adv-x="380" d="M200 440l-65 119q-3 3 1 3h118q2 0 4 -3l44 -120q1 -3 -1 -3h-98q-2 0 -3 4z" />
<glyph horiz-adv-x="380" d="M169 435h-97q-1 0 -1 3q0 -1 24.5 29.5t49 60.5t23.5 30q1 0 3.5 1.5t4.5 1.5h106q4 0 6 -3q51 -102 63 -120q3 -3 0 -3h-98q-3 0 -5 3l-29 49h-1q-41 -47 -43 -49q-3 -3 -6 -3z" />
<glyph horiz-adv-x="380" d="M88 441q-3 0 -3 4l10 69q1 8 10 17q28 28 70 28q25 0 57.5 -15t50.5 -15q20 0 42.5 14t24.5 14q4 0 4 -5l-10 -68q-2 -11 -10 -18q-35 -31 -70 -31q-26 0 -58 16.5t-49 16.5q-21 0 -44.5 -13.5t-24.5 -13.5z" />
<glyph horiz-adv-x="380" d="M337 446h-247q-2 2 -2 3l13 93l3 3h247q1 0 1 -3l-13 -93q0 -3 -2 -3z" />
<glyph horiz-adv-x="380" d="M224 439q-3 -3 -4 -3h-98q-2 0 -1 3l78 120q4 3 6 3h117q3 0 0 -3z" />
<glyph horiz-adv-x="380" d="M163 -134h-118q-3 0 -1 3q1 1 42 68t42 68q3 3 6 3h98q1 -1 0 -3l-66 -136q-2 -3 -3 -3z" />
<glyph horiz-adv-x="379" d="M210 431q-53 0 -82.5 24.5t-29.5 72.5q0 16 2 20t7 4h59q8 0 9 -5q5 -18 14.5 -24t32.5 -6q39 0 54 30q2 5 11 5h58q5 0 6.5 -1t0.5 -4q-21 -116 -142 -116z" />
<glyph horiz-adv-x="380" d="M145 429q-1 0 -1 3l15 109q0 3 2 3h126q4 0 4 -3l-15 -109q0 -3 -6 -3h-125z" />
<glyph horiz-adv-x="379" d="M214 472q33 0 37 32l1 8q4 31 -26 31q-37 0 -41 -31l-1 -8q-3 -20 5 -26t25 -6zM206 417q-19 0 -32.5 2.5t-27 10.5t-18.5 25t-1 43l3 20q7 47 34 63t70 16q18 0 30 -2t25.5 -9.5t18.5 -24.5t1 -43l-3 -20q-4 -27 -14 -44t-25 -24.5t-28.5 -10t-32.5 -2.5z" />
<glyph horiz-adv-x="380" d="M151 437q-1 -3 -5 -3h-97q-3 0 0 3l77 120q3 3 6 3h117q1 0 0 -3q-1 -1 -49 -60t-49 -60zM298 437q-2 -3 -4 -3h-97q-2 0 -2 3q2 1 40 60t39 60q3 3 6 3h117q3 0 0 -3q-2 -2 -50 -60t-49 -60z" />
<glyph horiz-adv-x="379" d="M122 -155q-36 0 -57 13.5t-21 51.5q0 60 60 95q5 3 12 3h107q7 0 4 -4l-4 -3q-35 -15 -54 -27.5t-19 -27.5q0 -8 9 -8q7 0 21 7q4 3 8 -1l24 -64q1 -4 -2 -7t-13.5 -9t-32 -12.5t-42.5 -6.5z" />
<glyph horiz-adv-x="379" d="M268 557h101q3 0 2 -2l-110 -120q-2 -4 -7 -4h-91q-6 0 -6 3q2 0 -70 112l-5 8q-2 3 1 3h101q2 0 4 -3l31 -47h1q42 45 44 47q3 3 4 3z" />
<glyph horiz-adv-x="495" d="M101 0h-149q-2 0 -1 3l249 538q2 3 4 3h162q4 0 5 -3l93 -538q2 -3 -3 -3h-148q-3 0 -4 3l-8 83h-164q-32 -81 -33 -83q-2 -3 -3 -3zM281 600l-65 119q-3 3 1 3h118q3 0 4 -3l44 -120q1 -3 0 -3h-98q-3 0 -4 4zM185 198h101l-17 172h-18z" />
<glyph horiz-adv-x="495" d="M101 0h-149q-2 0 -1 3l249 538q2 3 4 3h162q4 0 5 -3l93 -538q2 -3 -3 -3h-148q-3 0 -4 3l-8 83h-164q-32 -81 -33 -83q-2 -3 -3 -3zM300 599q-2 -3 -3 -3h-98q-3 0 -1 3l78 120q3 3 5 3h117q4 0 1 -3zM185 198h101l-17 172h-18z" />
<glyph horiz-adv-x="495" d="M101 0h-149q-2 0 -1 3l249 538q2 3 4 3h162q4 0 5 -3l93 -538q2 -3 -3 -3h-148q-3 0 -4 3l-8 83h-164q-32 -81 -33 -83q-2 -3 -3 -3zM247 595h-97v3q0 -1 24.5 29.5t49 60.5t23.5 30q1 0 3 1.5t4 1.5h106q5 0 7 -3q51 -102 63 -120q0 -2 -1 -3h-98q-3 0 -4 3l-29 49h-1 q-41 -47 -43 -49q-3 -3 -7 -3zM185 198h101l-17 172h-18z" />
<glyph horiz-adv-x="495" d="M101 0h-149q-2 0 -1 3l249 538q2 3 4 3h162q4 0 5 -3l93 -538q2 -3 -3 -3h-148q-3 0 -4 3l-8 83h-164q-32 -81 -33 -83q-2 -3 -3 -3zM168 601q-2 0 -2 4l10 69q1 9 9 17q28 28 70 28q25 0 58 -15t51 -15q20 0 42.5 14t24.5 14q3 0 3 -5l-10 -68q-2 -12 -9 -18 q-35 -31 -71 -31q-26 0 -58 16.5t-49 16.5q-21 0 -45 -14zM185 198h101l-17 172h-18z" />
<glyph horiz-adv-x="495" d="M101 0h-149q-2 0 -1 3l249 538q2 3 4 3h162q4 0 5 -3l93 -538q2 -3 -3 -3h-148q-3 0 -4 3l-8 83h-164q-32 -81 -33 -83q-2 -3 -3 -3zM163 596q-2 0 -2 3l14 102q0 3 3 3h101q1 0 1.5 -1t-0.5 -2l-14 -102l-2 -3h-101zM321 596q-4 0 -4 3l14 102q0 3 5 3h98q1 0 1.5 -1 t-0.5 -2l-14 -102q0 -3 -2 -3h-98zM185 198h101l-17 172h-18z" />
<glyph horiz-adv-x="495" d="M101 0h-149q-2 0 -1 3l249 538q2 3 4 3h162q4 0 5 -3l93 -538q2 -3 -3 -3h-148q-3 0 -4 3l-8 83h-164q-32 -81 -33 -83q-2 -3 -3 -3zM288 577q-19 0 -32.5 2.5t-27 10.5t-18.5 25t-1 43l3 20q7 47 34 63t70 16q18 0 30 -2t25.5 -9.5t18.5 -24.5t1 -43l-3 -20 q-4 -27 -14 -44t-25 -24.5t-28.5 -10t-32.5 -2.5zM185 198h101l-17 172h-18zM296 632q33 0 37 32l1 8q4 31 -26 31q-37 0 -41 -31l-1 -8q-3 -20 5 -26t25 -6z" />
<glyph horiz-adv-x="437" d="M194 -134h-118q-2 0 0 3l79 130q-77 8 -116 53t-24 153l20 141q7 52 25.5 90t41.5 59.5t56 34t62.5 16.5t67.5 4q48 0 84.5 -6t48 -10.5t13.5 -6.5q1 -1 -1 -5q-56 -112 -56 -113q0 -2 -6 -2l-5 1q-6 1 -15.5 2.5t-21.5 3.5t-27.5 3t-30.5 1q-22 0 -36.5 -3.5t-30.5 -24 t-22 -59.5l-16 -114q-8 -53 8 -68t54 -15q27 0 56 3t44 5l16 3q4 2 4 -1l24 -114q2 -4 -1 -5q-43 -21 -112 -27l-61 -129q-2 -3 -4 -3z" />
<glyph horiz-adv-x="423" d="M-3 0l76 544h357q3 0 3 -3l-17 -120q0 -4 -3 -4h-209l-12 -80h172q3 0 3 -3l-17 -119q0 -4 -3 -4h-172l-12 -84h209q2 0 2 -4l-17 -120q0 -3 -3 -3h-357zM245 600l-65 119q-3 3 1 3h118q3 0 4 -3l44 -120q1 -3 0 -3h-98q-3 0 -4 4z" />
<glyph horiz-adv-x="423" d="M-3 0l76 544h357q3 0 3 -3l-17 -120q0 -4 -3 -4h-209l-12 -80h172q3 0 3 -3l-17 -119q0 -4 -3 -4h-172l-12 -84h209q2 0 2 -4l-17 -120q0 -3 -3 -3h-357zM273 599q-1 -3 -3 -3h-98q-2 0 -1 3l78 120q3 3 5 3h117q4 0 1 -3z" />
<glyph horiz-adv-x="423" d="M-3 0l76 544h357q3 0 3 -3l-17 -120q0 -4 -3 -4h-209l-12 -80h172q3 0 3 -3l-17 -119q0 -4 -3 -4h-172l-12 -84h209q2 0 2 -4l-17 -120q0 -3 -3 -3h-357zM220 595h-97q-1 0 -1 3q0 -1 24.5 29.5t49 60.5t23.5 30q1 0 3 1.5t4 1.5h106q5 0 7 -3q51 -102 63 -120q3 -3 0 -3 h-98q-4 0 -5 3l-29 49h-1q-41 -47 -43 -49q-3 -3 -6 -3z" />
<glyph horiz-adv-x="423" d="M-3 0l76 544h357q3 0 3 -3l-17 -120q0 -4 -3 -4h-209l-12 -80h172q3 0 3 -3l-17 -119q0 -4 -3 -4h-172l-12 -84h209q2 0 2 -4l-17 -120q0 -3 -3 -3h-357zM126 596q-2 0 -2 3l15 102q0 3 2 3h101q1 0 1.5 -1t-0.5 -2l-14 -102l-2 -3h-101zM284 596q-4 0 -4 3l15 102 q0 3 4 3h98q1 0 1.5 -1t-0.5 -2l-14 -102q0 -3 -2 -3h-98z" />
<glyph horiz-adv-x="222" d="M0 0q-3 0 -3 3l76 538q0 3 3 3h142q3 0 3 -3l-76 -538q0 -3 -3 -3h-142zM145 600l-65 119q-3 3 1 3h118q3 0 4 -3l44 -120q1 -3 -1 -3h-98q-2 0 -3 4z" />
<glyph horiz-adv-x="222" d="M0 0q-3 0 -3 3l76 538q0 3 3 3h142q3 0 3 -3l-76 -538q0 -3 -3 -3h-142zM164 599q-2 -3 -4 -3h-98q-2 0 0 3l78 120q3 3 5 3h117q4 0 1 -3z" />
<glyph horiz-adv-x="222" d="M0 0q-3 0 -3 3l76 538q0 3 3 3h142q3 0 3 -3l-76 -538q0 -3 -3 -3h-142zM111 595h-97v3q0 -1 24.5 29.5t49 60.5t23.5 30q1 0 3 1.5t4 1.5h106q5 0 7 -3q51 -102 63 -120q0 -2 -1 -3h-98q-3 0 -4 3l-29 49h-1q-41 -47 -43 -49q-3 -3 -7 -3z" />
<glyph horiz-adv-x="222" d="M0 0q-3 0 -3 3l76 538q0 3 3 3h142q3 0 3 -3l-76 -538q0 -3 -3 -3h-142zM26 596q-2 0 -2 3l15 102q0 3 2 3h101q1 0 1.5 -1t-0.5 -2l-14 -102l-2 -3h-101zM184 596q-4 0 -4 3l15 102q0 3 4 3h98q1 0 1.5 -1t-0.5 -2l-14 -102q0 -3 -2 -3h-98z" />
<glyph horiz-adv-x="519" d="M-4 0q-3 0 -3 3l76 538q0 3 4 3h153q4 0 5 -2l104 -287h8l40 286q0 3 3 3h139q3 0 3 -3l-76 -538q0 -3 -4 -3h-156q-4 0 -5 3l-102 285h-9l-40 -285q0 -3 -3 -3h-137zM180 601q-2 0 -2 4l10 69q1 9 9 17q28 28 70 28q25 0 58 -15t51 -15q20 0 42.5 14t24.5 14q3 0 3 -5 l-10 -68q-2 -12 -9 -18q-35 -31 -71 -31q-26 0 -58 16.5t-49 16.5q-21 0 -45 -14z" />
<glyph horiz-adv-x="478" d="M198 -5q-18 0 -31.5 0.5t-30 2.5t-29.5 5.5t-27 9t-24 14t-19.5 19.5t-15.5 26.5t-9.5 34.5t-3 43.5t4.5 53.5l20 140q8 55 26.5 94t40.5 60t54.5 32.5t58.5 14.5t63 3q19 0 33.5 -0.5t33 -3t31 -7t28.5 -12t24.5 -18t19 -25.5t12.5 -35t5 -45.5t-4 -57.5l-20 -140 q-7 -49 -20.5 -85.5t-33.5 -58.5t-39.5 -36t-48 -20t-48.5 -7.5t-51 -1.5zM217 128q37 0 52 14.5t23 71.5l16 117q8 56 -4 70.5t-47 14.5q-36 0 -52 -14t-24 -71l-16 -117q-8 -56 3 -71t49 -15zM274 600l-65 119q-3 3 1 3h118q2 0 4 -3l44 -120q1 -3 -1 -3h-98q-2 0 -3 4z " />
<glyph horiz-adv-x="478" d="M198 -5q-18 0 -31.5 0.5t-30 2.5t-29.5 5.5t-27 9t-24 14t-19.5 19.5t-15.5 26.5t-9.5 34.5t-3 43.5t4.5 53.5l20 140q8 55 26.5 94t40.5 60t54.5 32.5t58.5 14.5t63 3q19 0 33.5 -0.5t33 -3t31 -7t28.5 -12t24.5 -18t19 -25.5t12.5 -35t5 -45.5t-4 -57.5l-20 -140 q-7 -49 -20.5 -85.5t-33.5 -58.5t-39.5 -36t-48 -20t-48.5 -7.5t-51 -1.5zM217 128q37 0 52 14.5t23 71.5l16 117q8 56 -4 70.5t-47 14.5q-36 0 -52 -14t-24 -71l-16 -117q-8 -56 3 -71t49 -15zM293 599q-1 -3 -4 -3h-98q-1 0 0 3l78 120q3 3 5 3h117q4 0 1 -3z" />
<glyph horiz-adv-x="478" d="M217 128q37 0 52 14.5t23 71.5l16 117q8 56 -4 70.5t-47 14.5q-36 0 -52 -14t-24 -71l-16 -117q-8 -56 3 -71t49 -15zM198 -5q-18 0 -31.5 0.5t-30 2.5t-29.5 5.5t-27 9t-24 14t-19.5 19.5t-15.5 26.5t-9.5 34.5t-3 43.5t4.5 53.5l20 140q8 55 26.5 94t40.5 60t54.5 32.5 t58.5 14.5t63 3q19 0 33.5 -0.5t33 -3t31 -7t28.5 -12t24.5 -18t19 -25.5t12.5 -35t5 -45.5t-4 -57.5l-20 -140q-7 -49 -20.5 -85.5t-33.5 -58.5t-39.5 -36t-48 -20t-48.5 -7.5t-51 -1.5zM240 595h-97v3q0 -1 24.5 29.5t49 60.5t23.5 30q1 0 3 1.5t4 1.5h106q5 0 7 -3 q51 -102 63 -120q0 -2 -1 -3h-98q-2 0 -4 3l-29 49h-1q-41 -47 -43 -49q-3 -3 -7 -3z" />
<glyph horiz-adv-x="478" d="M217 128q37 0 52 14.5t23 71.5l16 117q8 56 -4 70.5t-47 14.5q-36 0 -52 -14t-24 -71l-16 -117q-8 -56 3 -71t49 -15zM198 -5q-18 0 -31.5 0.5t-30 2.5t-29.5 5.5t-27 9t-24 14t-19.5 19.5t-15.5 26.5t-9.5 34.5t-3 43.5t4.5 53.5l20 140q8 55 26.5 94t40.5 60t54.5 32.5 t58.5 14.5t63 3q19 0 33.5 -0.5t33 -3t31 -7t28.5 -12t24.5 -18t19 -25.5t12.5 -35t5 -45.5t-4 -57.5l-20 -140q-7 -49 -20.5 -85.5t-33.5 -58.5t-39.5 -36t-48 -20t-48.5 -7.5t-51 -1.5zM160 601q-2 0 -2 4l9 69q1 8 10 17q28 28 70 28q25 0 58 -15t51 -15q20 0 42.5 14 t24.5 14q3 0 3 -5l-10 -68q-2 -12 -9 -18q-35 -31 -71 -31q-26 0 -58 16.5t-49 16.5q-21 0 -45 -14z" />
<glyph horiz-adv-x="478" d="M198 -5q-18 0 -31.5 0.5t-30 2.5t-29.5 5.5t-27 9t-24 14t-19.5 19.5t-15.5 26.5t-9.5 34.5t-3 43.5t4.5 53.5l20 140q8 55 26.5 94t40.5 60t54.5 32.5t58.5 14.5t63 3q19 0 33.5 -0.5t33 -3t31 -7t28.5 -12t24.5 -18t19 -25.5t12.5 -35t5 -45.5t-4 -57.5l-20 -140 q-7 -49 -20.5 -85.5t-33.5 -58.5t-39.5 -36t-48 -20t-48.5 -7.5t-51 -1.5zM217 128q37 0 52 14.5t23 71.5l16 117q8 56 -4 70.5t-47 14.5q-36 0 -52 -14t-24 -71l-16 -117q-8 -56 3 -71t49 -15zM154 596q-1 0 -1 3l14 102q0 3 3 3h101q1 0 1 -3l-14 -102l-3 -3h-101z M312 596q-3 0 -3 3l14 102q0 3 5 3h98q1 0 1 -3l-14 -102q0 -3 -3 -3h-98z" />
<glyph horiz-adv-x="492" d="M189 -4q-111 0 -146.5 49.5t-19.5 158.5l47 337q0 3 3 3h143q2 -1 2 -3l-46 -327q-9 -36 -2 -60t39 -24h31q30 0 42 19t19 65l46 327q0 3 3 3h142q3 0 3 -3l-47 -337q-14 -104 -62 -156t-166 -52h-31zM280 600l-65 119q-3 3 1 3h118q2 0 4 -3l44 -120q1 -3 0 -3h-98 q-3 0 -4 4z" />
<glyph horiz-adv-x="492" d="M189 -4q-111 0 -146.5 49.5t-19.5 158.5l47 337q0 3 3 3h143q2 -1 2 -3l-46 -327q-9 -36 -2 -60t39 -24h31q30 0 42 19t19 65l46 327q0 3 3 3h142q3 0 3 -3l-47 -337q-14 -104 -62 -156t-166 -52h-31zM300 599q-2 -3 -3 -3h-98q-3 0 -1 3l78 120q3 3 5 3h117q4 0 1 -3z " />
<glyph horiz-adv-x="492" d="M189 -4q-111 0 -146.5 49.5t-19.5 158.5l47 337q0 3 3 3h143q2 -1 2 -3l-46 -327q-9 -36 -2 -60t39 -24h31q30 0 42 19t19 65l46 327q0 3 3 3h142q3 0 3 -3l-47 -337q-14 -104 -62 -156t-166 -52h-31zM247 595h-97v3q0 -1 24.5 29.5t49 60.5t23.5 30q1 0 3 1.5t4 1.5h106 q5 0 7 -3q51 -102 63 -120q0 -2 -1 -3h-98q-3 0 -4 3l-29 49h-1q-41 -47 -43 -49q-3 -3 -7 -3z" />
<glyph horiz-adv-x="492" d="M189 -4q-111 0 -146.5 49.5t-19.5 158.5l47 337q0 3 3 3h143q2 -1 2 -3l-46 -327q-9 -36 -2 -60t39 -24h31q30 0 42 19t19 65l46 327q0 3 3 3h142q3 0 3 -3l-47 -337q-14 -104 -62 -156t-166 -52h-31zM161 596q-2 0 -2 3l14 102q0 3 3 3h101q1 0 1.5 -1t-0.5 -2l-14 -102 l-2 -3h-101zM319 596q-4 0 -4 3l14 102q0 3 5 3h98q1 0 1.5 -1t-0.5 -2l-14 -102q0 -3 -2 -3h-98z" />
<glyph horiz-adv-x="468" d="M123 0q-3 0 -3 3l28 203q-111 333 -112 335q-1 3 2 3h149q3 0 4 -3l53 -178h6q99 176 100 178q2 3 3 3h146q5 0 3 -3l-206 -335l-28 -203q-1 -3 -4 -3h-141zM287 599q-3 -3 -4 -3h-98q-1 0 0 3l78 120q3 3 5 3h117q4 0 1 -3z" />
<glyph horiz-adv-x="468" d="M123 0q-3 0 -3 3l28 203q-111 333 -112 335q-1 3 2 3h149q3 0 4 -3l53 -178h6q99 176 100 178q2 3 3 3h146q5 0 3 -3l-206 -335l-28 -203q-1 -3 -4 -3h-141zM151 596l-1 3l14 102q0 3 2 3h101q2 0 2 -3l-14 -102l-3 -3h-101zM309 596q-4 0 -3 3l14 102q0 3 4 3h98 q2 0 2 -3l-14 -102q0 -3 -3 -3h-98z" />
<glyph horiz-adv-x="478" d="M-14 -32q-1 1 -1 2t7.5 13t21 32.5t20.5 32.5q-36 53 -21 156l20 140q8 55 26.5 94t40.5 60t54.5 32.5t58.5 14.5t63 3q41 0 70 -5l21 32q1 3 5 3h115q1 -1 0 -3l-50 -80q37 -50 22 -151l-20 -140q-7 -49 -20.5 -85.5t-33.5 -58.5t-39.5 -36t-48 -20t-48.5 -7.5t-51 -1.5 q-45 0 -74 5q-18 -26 -18 -29q-5 -3 -6 -3h-114zM217 128q37 0 52 14.5t23 71.5l16 117q8 56 -4 70.5t-47 14.5q-36 0 -52 -14t-24 -71l-16 -117q-8 -56 3 -71t49 -15z" />
<glyph horiz-adv-x="460" d="M187 -4q-128 0 -194 33q-3 1 -1 5l6 12q6 13 14 29t16 33t13.5 28.5t6.5 11.5q0 3 4 3l8 -3q8 -2 22 -5t32 -6.5t43 -6t50 -2.5q64 0 67 25l3 21q5 30 -79 40q-95 11 -129.5 39.5t-24.5 103.5l9 65q17 128 214 128q122 0 178 -28q3 -2 3 -4q0 -8 -52 -112q-1 -2 -3 -2 l-9 2q-8 2 -22 4.5t-31 4.5t-38.5 4t-41.5 2q-46 0 -49 -24l-3 -18q-3 -15 10 -23t62 -14q96 -12 133 -44t27 -105l-9 -64q-6 -43 -29.5 -71t-60.5 -40.5t-70 -17t-75 -4.5zM331 711h101q3 0 2 -2l-110 -120q-2 -4 -7 -4h-91q-4 0 -7 3q1 0 -7 12.5t-19 30.5l-22 36 t-18.5 30t-7.5 11q-1 3 1 3h101q3 0 4 -3l31 -47h1q41 45 43 47q3 3 5 3z" />
<glyph horiz-adv-x="429" d="M-13 0q-3 0 -3 3l17 119q0 5 5 10l240 274l1 9h-193q-3 0 -3 3l18 123q0 3 3 3h365q2 0 2 -3l-17 -118q-1 -9 -3 -11l-241 -274l-1 -9h202q1 0 1 -3l-17 -123q0 -3 -2 -3h-374zM315 711h101q3 0 1 -2l-109 -120q-4 -4 -7 -4h-91q-4 0 -7 3q2 0 -70 112l-5 8q-2 3 2 3h101 q3 0 4 -3l31 -47h1q41 45 43 47q3 3 5 3z" />
<glyph horiz-adv-x="698" d="M225 198h88l25 181h-18zM111 0h-149q-2 0 -1 3q1 2 166 269.5t166 268.5q1 3 5 3h402q4 0 4 -3l-17 -120q0 -4 -5 -4h-191l-11 -79h154q2 0 2 -3l-17 -120q0 -4 -2 -4h-154l-12 -84h191q3 0 3 -4l-17 -120q0 -3 -4 -3h-339l12 86h-138q-44 -80 -45 -83q-2 -3 -3 -3z" />
<glyph horiz-adv-x="689" d="M218 128q17 0 25.5 1.5t20.5 10t19 28.5t12 54l14 102q6 27 2.5 44.5t-5.5 27t-11.5 14t-16.5 5.5t-19 1q-16 0 -25 -2t-20.5 -10t-19 -28t-12.5 -53l-14 -100q-2 -35 -2.5 -54t9.5 -28t18.5 -11t24.5 -2zM199 0q-16 0 -28.5 0.5t-28.5 2t-28.5 5t-27 9t-24.5 14 t-20.5 20t-16.5 27.5t-10 35.5t-3.5 44.5t4.5 55l18 123q8 55 26.5 94.5t40.5 61t54 34t58.5 15.5t62.5 3q18 0 63 -9l1 9h357q3 0 3 -3l-17 -120q0 -4 -4 -4h-209l-11 -79h172q3 0 3 -3l-17 -120q0 -4 -4 -4h-172l-12 -84h209q3 0 3 -4l-17 -120q0 -3 -4 -3h-357l2 9 q-3 -1 -15.5 -3.5t-25.5 -4t-25 -1.5z" />
<glyph horiz-adv-x="481" d="M164 134h54q24 0 36 4t23 24t17 61l14 100q1 21 3 36t-3 24.5t-7.5 15t-11.5 8t-15 3t-17 0.5h-54l-12 -80h54q3 0 3 -3l-15 -105q0 -4 -3 -4h-54zM200 0h-203l31 218h-27q-3 0 -3 4l15 105q0 3 3 3h27l30 214h203q16 0 27.5 -0.5t28 -2t28 -4.5t27 -8.5t25 -13.5 t21.5 -19.5t16.5 -26.5t10.5 -34.5t4 -44t-4 -54.5l-17 -124q-8 -59 -28 -100.5t-41.5 -63t-55.5 -33t-58 -13.5t-60 -2z" />
<glyph horiz-adv-x="469" d="M176 224h64q6 0 13.5 1.5t19.5 5t20.5 13t10.5 23.5l4 26q4 27 -12 36.5t-39 9.5h-64zM141 0h-141q-3 0 -3 3l76 538q0 3 3 3h141q3 0 3 -3l-11 -76h74q24 0 45 -2t49.5 -11.5t47 -25.5t29 -46.5t4.5 -72.5l-8 -54q-5 -35 -19.5 -62.5t-35.5 -44t-42.5 -27t-46.5 -15 t-41.5 -6t-33.5 -1.5h-74l-13 -94q0 -3 -3 -3z" />
<glyph horiz-adv-x="416" d="M-3 0l25 179q-34 -20 -36 -21q-1 -1 -1.5 -0.5t-0.5 3.5l17 117q0 4 3 6l36 20l33 238q0 2 3 2h142q3 0 3 -3l-21 -150q100 57 101 58q4 2 4 -2l-17 -118q0 -3 -5 -5l-101 -58l-19 -139h209q3 0 2 -4l-17 -120q0 -3 -3 -3h-357z" />
<glyph horiz-adv-x="495" d="M101 0h-149q-2 0 -1 3l249 538q2 3 4 3h162q4 0 5 -3l93 -538q2 -3 -3 -3h-148q-3 0 -4 3l-8 83h-164q-32 -81 -33 -83q-2 -3 -3 -3zM414 600h-247l-1 3l13 93l2 3h247q2 0 2 -3l-13 -93q0 -3 -3 -3zM185 198h101l-17 172h-18z" />
<glyph horiz-adv-x="495" d="M101 0h-149q-2 0 -1 3l249 538q2 3 4 3h162q4 0 5 -3l93 -538q2 -3 -3 -3h-148q-3 0 -4 3l-8 83h-164q-32 -81 -33 -83q-2 -3 -3 -3zM290 585q-112 0 -112 97q0 16 2 20t7 4h59q7 0 8 -5q5 -18 14.5 -24t32.5 -6q39 0 54 30q3 5 12 5h58q4 0 5.5 -1t0.5 -4 q-21 -116 -141 -116zM185 198h101l-17 172h-18z" />
<glyph horiz-adv-x="495" d="M358 -158q-36 0 -57 13.5t-21 51.5q0 60 56 93h-23q-3 0 -4 3l-8 83h-164q-32 -81 -33 -83q-2 -3 -3 -3h-149q-2 0 -1 3l249 538q2 3 4 3h162q4 0 5 -3l93 -538q2 -3 -2 -3q-1 0 -3 -2q-21 -9 -28.5 -13t-21.5 -12t-19 -15t-5 -15t10 -8q7 0 21 7q4 3 7 -1l24 -64 q1 -5 -1 -7q-3 -3 -13.5 -9t-32 -12.5t-42.5 -6.5zM185 198h101l-17 172h-18z" />
<glyph horiz-adv-x="437" d="M209 -4q-22 0 -40.5 1.5t-39.5 5t-36 10.5t-31.5 18t-25.5 26.5t-17 36.5t-7.5 48.5t3.5 62.5l20 141q9 64 33.5 107t62 63t74 27t84.5 7t84.5 -6t47.5 -10.5t13 -6.5t0 -5l-6 -12q-6 -12 -14.5 -28t-17 -32.5t-14 -28t-5.5 -12.5q0 -2 -5 -2l-6 1q-6 1 -15.5 2.5 t-21 3.5t-27.5 3t-31 1q-22 0 -36.5 -3.5t-30.5 -24t-22 -59.5l-16 -114q-8 -53 8 -68t54 -15q27 0 56 3t44.5 5.5t16.5 2.5q2 2 4 -1l24 -114q2 -3 -2 -5q-58 -29 -162 -29zM303 592q-3 -3 -4 -3h-98q-1 0 0 3l78 120q3 3 5 3h117q4 0 1 -3z" />
<glyph horiz-adv-x="437" d="M209 -4q-22 0 -40.5 1.5t-39.5 5t-36 10.5t-31.5 18t-25.5 26.5t-17 36.5t-7.5 48.5t3.5 62.5l20 141q9 64 33.5 107t62 63t74 27t84.5 7t84.5 -6t47.5 -10.5t13 -6.5t0 -5l-6 -12q-6 -12 -14.5 -28t-17 -32.5t-14 -28t-5.5 -12.5q0 -2 -5 -2l-6 1q-6 1 -15.5 2.5 t-21 3.5t-27.5 3t-31 1q-22 0 -36.5 -3.5t-30.5 -24t-22 -59.5l-16 -114q-8 -53 8 -68t54 -15q27 0 56 3t44.5 5.5t16.5 2.5q2 2 4 -1l24 -114q2 -3 -2 -5q-58 -29 -162 -29zM251 589h-97v3q0 -1 24.5 29.5t48.5 60.5t23 30q1 0 3.5 1.5t4.5 1.5h106q5 0 7 -3 q51 -102 63 -120q0 -2 -1 -3h-98q-3 0 -4 3l-30 49h-1q-40 -47 -42 -49q-3 -3 -7 -3z" />
<glyph horiz-adv-x="437" d="M209 -4q-22 0 -40.5 1.5t-39.5 5t-36 10.5t-31.5 18t-25.5 26.5t-17 36.5t-7.5 48.5t3.5 62.5l20 141q9 64 33.5 107t62 63t74 27t84.5 7t84.5 -6t47.5 -10.5t13 -6.5t0 -5l-6 -12q-6 -12 -14.5 -28t-17 -32.5t-14 -28t-5.5 -12.5q0 -2 -5 -2l-6 1q-6 1 -15.5 2.5 t-21 3.5t-27.5 3t-31 1q-22 0 -36.5 -3.5t-30.5 -24t-22 -59.5l-16 -114q-8 -53 8 -68t54 -15q27 0 56 3t44.5 5.5t16.5 2.5q2 2 4 -1l24 -114q2 -3 -2 -5q-58 -29 -162 -29zM228 583q-1 0 -1 3l15 109q0 3 2 3h126q4 0 4 -3l-15 -109q0 -3 -6 -3h-125z" />
<glyph horiz-adv-x="437" d="M209 -4q-22 0 -40.5 1.5t-39.5 5t-36 10.5t-31.5 18t-25.5 26.5t-17 36.5t-7.5 48.5t3.5 62.5l20 141q9 64 33.5 107t62 63t74 27t84.5 7t84.5 -6t47.5 -10.5t13 -6.5t0 -5l-6 -12q-6 -12 -14.5 -28t-17 -32.5t-14 -28t-5.5 -12.5q0 -2 -5 -2l-6 1q-6 1 -15.5 2.5 t-21 3.5t-27.5 3t-31 1q-22 0 -36.5 -3.5t-30.5 -24t-22 -59.5l-16 -114q-8 -53 8 -68t54 -15q27 0 56 3t44.5 5.5t16.5 2.5q2 2 4 -1l24 -114q2 -3 -2 -5q-58 -29 -162 -29zM352 711h101q3 0 2 -2l-110 -120q-2 -4 -6 -4h-91q-4 0 -7 3q2 0 -70 112l-5 8q-2 3 1 3h101 q4 0 5 -3l30 -47h1q42 45 44 47q3 3 4 3z" />
<glyph horiz-adv-x="481" d="M164 134h53q17 0 26.5 2t20.5 10t18 27t11 49l14 101q8 57 -4.5 72t-46.5 15h-53zM198 0h-201l76 544h201q43 0 70.5 -4.5t63 -22.5t49 -63.5t3.5 -117.5l-17 -124q-8 -59 -28 -100.5t-42.5 -63t-57 -33t-58 -13.5t-59.5 -2zM332 711h101q3 0 2 -2l-110 -120q-2 -4 -7 -4 h-91q-6 0 -6 3q2 0 -70 112l-5 8q-2 3 1 3h101q2 0 4 -3l31 -47h1q42 45 44 47q3 3 4 3z" />
<glyph horiz-adv-x="481" d="M164 134h54q24 0 36 4t23 24t17 61l14 100q1 21 3 36t-3 24.5t-7.5 15t-11.5 8t-15 3t-17 0.5h-54l-12 -80h54q3 0 3 -3l-15 -105q0 -4 -3 -4h-54zM200 0h-203l31 218h-27q-3 0 -3 4l15 105q0 3 3 3h27l30 214h203q16 0 27.5 -0.5t28 -2t28 -4.5t27 -8.5t25 -13.5 t21.5 -19.5t16.5 -26.5t10.5 -34.5t4 -44t-4 -54.5l-17 -124q-8 -59 -28 -100.5t-41.5 -63t-55.5 -33t-58 -13.5t-60 -2z" />
<glyph horiz-adv-x="423" d="M-3 0l76 544h357q3 0 3 -3l-17 -120q0 -4 -3 -4h-209l-12 -80h172q3 0 3 -3l-17 -119q0 -4 -3 -4h-172l-12 -84h209q2 0 2 -4l-17 -120q0 -3 -3 -3h-357zM384 600h-247q-1 2 -1 3l13 93l2 3h247q2 0 2 -3l-13 -93q0 -3 -3 -3z" />
<glyph horiz-adv-x="423" d="M-3 0l76 544h357q3 0 3 -3l-17 -120q0 -4 -3 -4h-209l-12 -80h172q3 0 3 -3l-17 -119q0 -4 -3 -4h-172l-12 -84h209q2 0 2 -4l-17 -120q0 -3 -3 -3h-357zM270 585q-112 0 -112 97q0 16 2 20t7 4h59q8 0 9 -5q5 -19 14 -24.5t32 -5.5q39 0 54 30q3 5 12 5h58q4 0 5.5 -1 t0.5 -4q-21 -116 -141 -116z" />
<glyph horiz-adv-x="423" d="M-3 0l76 544h357q3 0 3 -3l-17 -120q0 -4 -3 -4h-209l-12 -80h172q3 0 3 -3l-17 -119q0 -4 -3 -4h-172l-12 -84h209q2 0 2 -4l-17 -120q0 -3 -3 -3h-357zM213 583q-2 0 -2 3l16 109q0 3 2 3h126q4 0 4 -3l-16 -109q0 -3 -5 -3h-125z" />
<glyph horiz-adv-x="423" d="M-3 0l76 544h357q3 0 3 -3l-17 -120q0 -4 -3 -4h-209l-12 -80h172q3 0 3 -3l-17 -119q0 -4 -3 -4h-172l-12 -84h209q2 0 2 -4l-17 -120q0 -3 -3 -3h-4q-35 -15 -52.5 -27t-17.5 -27q0 -8 9 -8q7 0 21 7q5 3 8 -1l24 -64q1 -4 -2 -7t-13.5 -9t-32 -12.5t-42.5 -6.5 q-78 0 -78 65q0 56 51 90h-228z" />
<glyph horiz-adv-x="423" d="M-3 0l76 544h357q3 0 3 -3l-17 -120q0 -4 -3 -4h-209l-12 -80h172q3 0 3 -3l-17 -119q0 -4 -3 -4h-172l-12 -84h209q2 0 2 -4l-17 -120q0 -3 -3 -3h-357zM336 711h101q3 0 2 -2l-110 -120q-2 -4 -7 -4h-91q-5 0 -6 3q2 0 -70 112l-5 8q-2 3 1 3h101q2 0 4 -3l31 -47h1 q42 45 44 47q3 3 4 3z" />
<glyph horiz-adv-x="480" d="M211 -4q-35 0 -61 3t-57 15t-49 33t-27 61.5t-1 95.5l20 142q8 56 29 95.5t45.5 60t60 32t60 13.5t58.5 2q47 0 90 -6.5t61.5 -11.5t20.5 -7t0 -5l-52 -109q-1 -2 -5 -2h-4q-5 1 -12 2t-17 2t-22 2t-25 2t-27.5 1.5t-27.5 0.5q-23 0 -37 -3.5t-29 -24t-20 -58.5l-16 -118 q-8 -53 8.5 -69t54.5 -16l77 6l9 63h-61q-2 0 -2 4l16 113q0 3 3 3h182l-41 -292q-135 -30 -202 -30zM257 589h-97v3q0 -1 24.5 29.5t49 60.5t23.5 30q1 0 3 1.5t4 1.5h106q5 0 7 -3q51 -102 63 -120q0 -2 -1 -3h-98q-3 0 -4 3l-29 49h-1q-41 -47 -43 -49q-3 -3 -7 -3z" />
<glyph horiz-adv-x="480" d="M211 -4q-35 0 -61 3t-57 15t-49 33t-27 61.5t-1 95.5l20 142q8 56 29 95.5t45.5 60t60 32t60 13.5t58.5 2q47 0 90 -6.5t61.5 -11.5t20.5 -7t0 -5l-52 -109q-1 -2 -5 -2h-4q-5 1 -12 2t-17 2t-22 2t-25 2t-27.5 1.5t-27.5 0.5q-23 0 -37 -3.5t-29 -24t-20 -58.5l-16 -118 q-8 -53 8.5 -69t54.5 -16l77 6l9 63h-61q-2 0 -2 4l16 113q0 3 3 3h182l-41 -292q-135 -30 -202 -30zM292 585q-113 0 -113 97q0 24 10 24h59q7 0 8 -5q5 -18 14.5 -24t32.5 -6q39 0 54 30q3 5 12 5h58q4 0 5.5 -1t0.5 -4q-21 -116 -141 -116z" />
<glyph horiz-adv-x="480" d="M211 -4q-35 0 -61 3t-57 15t-49 33t-27 61.5t-1 95.5l20 142q8 56 29 95.5t45.5 60t60 32t60 13.5t58.5 2q47 0 90 -6.5t61.5 -11.5t20.5 -7t0 -5l-52 -109q-1 -2 -5 -2h-4q-5 1 -12 2t-17 2t-22 2t-25 2t-27.5 1.5t-27.5 0.5q-23 0 -37 -3.5t-29 -24t-20 -58.5l-16 -118 q-8 -53 8.5 -69t54.5 -16l77 6l9 63h-61q-2 0 -2 4l16 113q0 3 3 3h182l-41 -292q-135 -30 -202 -30zM220 583q-1 0 -1 3l15 109q0 3 3 3h126q3 0 3 -3l-15 -109q0 -3 -6 -3h-125z" />
<glyph horiz-adv-x="502" d="M0 0q-3 0 -3 3l76 538q0 3 3 3h142q3 0 3 -3l-29 -205h132l29 205q0 3 3 3h142q3 0 3 -3l-76 -538q0 -3 -3 -3h-142q-3 0 -3 3l29 206h-132l-29 -206q0 -3 -3 -3h-142zM250 589h-97q-1 0 -1 3q0 -1 24.5 29.5t49 60.5t23.5 30q1 0 3 1.5t4 1.5h106q5 0 7 -3 q51 -102 63 -120q3 -3 0 -3h-98q-4 0 -5 3l-29 49h-1q-41 -47 -43 -49q-3 -3 -6 -3z" />
<glyph horiz-adv-x="222" d="M0 0q-3 0 -3 3l76 538q0 3 3 3h142q3 0 3 -3l-76 -538q0 -3 -3 -3h-142zM30 594q-2 0 -2 4l10 69q1 9 9 17q28 28 70 28q25 0 58 -15t51 -15q20 0 42.5 14t24.5 14q3 0 3 -5l-9 -68q-2 -11 -10 -18q-35 -31 -70 -31q-26 0 -58.5 16.5t-49.5 16.5q-22 0 -45 -13.5 t-24 -13.5z" />
<glyph horiz-adv-x="222" d="M0 0q-3 0 -3 3l76 538q0 3 3 3h142q3 0 3 -3l-76 -538q0 -3 -3 -3h-142zM278 600h-247q-2 2 -2 3l14 93l2 3h247q1 0 1.5 -1t-0.5 -2l-13 -93q0 -3 -2 -3z" />
<glyph horiz-adv-x="222" d="M0 0q-3 0 -3 3l76 538q0 3 3 3h142q3 0 3 -3l-76 -538q0 -3 -3 -3h-4q-35 -15 -52.5 -27t-17.5 -27q0 -8 9 -8q7 0 21 7q4 3 8 -1l24 -64q1 -4 -2 -7t-13.5 -9t-32 -12.5t-42.5 -6.5q-36 0 -57 13.5t-21 51.5q0 56 51 90h-13z" />
<glyph horiz-adv-x="222" d="M0 0q-3 0 -3 3l76 538q0 3 3 3h142q3 0 3 -3l-76 -538q0 -3 -3 -3h-142zM89 583q-2 0 -2 3l15 109l1 1q1 2 2 2h126q3 0 3 -3l-15 -109q0 -3 -5 -3h-125z" />
<glyph horiz-adv-x="408" d="M118 -8q-91 0 -139 24q-2 1 0 5l52 113q2 4 4 2l5 -1q5 -1 13.5 -2t19.5 -2.5t26.5 -2.5t32.5 -1q69 0 76 56l51 358q0 3 3 3h142q3 0 3 -3l-52 -371q-7 -48 -25.5 -82.5t-40 -52.5t-54.5 -28.5t-57.5 -12.5t-59.5 -2zM297 589h-97v3q0 -1 24.5 29.5t49 60.5t23.5 30 q1 0 3 1.5t4 1.5h106q5 0 7 -3q51 -102 63 -120q0 -2 -1 -3h-98q-3 0 -4 3l-29 49h-1q-41 -47 -43 -49q-3 -3 -7 -3z" />
<glyph horiz-adv-x="411" d="M-3 0l76 541q0 3 3 3h142q3 0 3 -3l-58 -414h209q2 0 2 -4l-17 -120q0 -3 -3 -3h-357zM258 592q-2 -3 -3 -3h-98q-3 0 -1 3l78 120q3 3 5 3h117q4 0 1 -3z" />
<glyph horiz-adv-x="519" d="M-4 0q-3 0 -3 3l76 538q0 3 4 3h153q4 0 5 -2l104 -287h8l40 286q0 3 3 3h139q3 0 3 -3l-76 -538q0 -3 -4 -3h-156q-4 0 -5 3l-102 285h-9l-40 -285q0 -3 -3 -3h-137zM312 592q-2 -3 -3 -3h-98q-3 0 -1 3l78 120q3 3 5 3h117q4 0 1 -3z" />
<glyph horiz-adv-x="519" d="M-4 0q-3 0 -3 3l76 538q0 3 4 3h153q4 0 5 -2l104 -287h8l40 286q0 3 3 3h139q3 0 3 -3l-76 -538q0 -3 -4 -3h-156q-4 0 -5 3l-102 285h-9l-40 -285q0 -3 -3 -3h-137zM361 711h101q3 0 2 -2l-110 -120q-2 -4 -7 -4h-91q-4 0 -7 3q1 0 -7 12.5t-19 30.5l-22 36t-18.5 30 t-7.5 11q-1 3 1 3h101q3 0 4 -3l31 -47h1q41 45 43 47q3 3 5 3z" />
<glyph horiz-adv-x="478" d="M217 128q37 0 52 14.5t23 71.5l16 117q8 56 -4 70.5t-47 14.5q-36 0 -52 -14t-24 -71l-16 -117q-8 -56 3 -71t49 -15zM198 -5q-18 0 -31.5 0.5t-30 2.5t-29.5 5.5t-27 9t-24 14t-19.5 19.5t-15.5 26.5t-9.5 34.5t-3 43.5t4.5 53.5l20 140q8 55 26.5 94t40.5 60t54.5 32.5 t58.5 14.5t63 3q19 0 33.5 -0.5t33 -3t31 -7t28.5 -12t24.5 -18t19 -25.5t12.5 -35t5 -45.5t-4 -57.5l-20 -140q-7 -49 -20.5 -85.5t-33.5 -58.5t-39.5 -36t-48 -20t-48.5 -7.5t-51 -1.5zM407 600h-247q-1 2 -1 3l13 93l2 3h247q1 0 1 -3l-13 -93q0 -3 -2 -3z" />
<glyph horiz-adv-x="478" d="M217 128q37 0 52 14.5t23 71.5l16 117q8 56 -4 70.5t-47 14.5q-36 0 -52 -14t-24 -71l-16 -117q-8 -56 3 -71t49 -15zM198 -5q-18 0 -31.5 0.5t-30 2.5t-29.5 5.5t-27 9t-24 14t-19.5 19.5t-15.5 26.5t-9.5 34.5t-3 43.5t4.5 53.5l20 140q8 55 26.5 94t40.5 60t54.5 32.5 t58.5 14.5t63 3q19 0 33.5 -0.5t33 -3t31 -7t28.5 -12t24.5 -18t19 -25.5t12.5 -35t5 -45.5t-4 -57.5l-20 -140q-7 -49 -20.5 -85.5t-33.5 -58.5t-39.5 -36t-48 -20t-48.5 -7.5t-51 -1.5zM282 585q-112 0 -112 97q0 16 2 20t7 4h59q7 0 8 -5q5 -18 14.5 -24t32.5 -6 q39 0 54 30q3 5 12 5h58q4 0 5.5 -1t0.5 -4q-21 -116 -141 -116z" />
<glyph horiz-adv-x="478" d="M198 -5q-18 0 -31.5 0.5t-30 2.5t-29.5 5.5t-27 9t-24 14t-19.5 19.5t-15.5 26.5t-9.5 34.5t-3 43.5t4.5 53.5l20 140q8 55 26.5 94t40.5 60t54.5 32.5t58.5 14.5t63 3q19 0 33.5 -0.5t33 -3t31 -7t28.5 -12t24.5 -18t19 -25.5t12.5 -35t5 -45.5t-4 -57.5l-20 -140 q-7 -49 -20.5 -85.5t-33.5 -58.5t-39.5 -36t-48 -20t-48.5 -7.5t-51 -1.5zM217 128q37 0 52 14.5t23 71.5l16 117q8 56 -4 70.5t-47 14.5q-36 0 -52 -14t-24 -71l-16 -117q-8 -56 3 -71t49 -15zM245 591q-1 -3 -6 -3h-97q-2 0 0 3l78 120q2 3 5 3h117q2 0 1 -3 q-1 -1 -49 -60t-49 -60zM392 591q-2 -3 -5 -3h-97q-1 0 -1 3q1 1 39.5 60t39.5 60q3 3 5 3h117q4 0 1 -3q-2 -2 -50 -60t-49 -60z" />
<glyph horiz-adv-x="479" d="M141 0h-141q-3 0 -3 3l76 541h221q30 0 57 -5.5t59 -21t48 -52.5t9 -91l-5 -39q-6 -51 -31 -86.5t-60 -52.5l57 -193q2 -3 -3 -3h-156q-3 0 -5 3l-40 165h-57l-23 -165q0 -3 -3 -3zM292 592q-2 -3 -3 -3h-98q-3 0 -1 3l78 120q3 3 5 3h117q4 0 1 -3zM185 295h65 q10 0 22 3t26 14t17 29l4 28q4 27 -14 37.5t-39 10.5h-64z" />
<glyph horiz-adv-x="479" d="M185 295h65q10 0 22 3t26 14t17 29l4 28q4 27 -14 37.5t-39 10.5h-64zM141 0h-141q-3 0 -3 3l76 541h221q30 0 57 -5.5t59 -21t48 -52.5t9 -91l-5 -39q-6 -51 -31 -86.5t-60 -52.5l57 -193q2 -3 -3 -3h-156q-3 0 -5 3l-40 165h-57l-23 -165q0 -3 -3 -3zM325 711h101 q3 0 2 -2l-110 -120q-2 -4 -7 -4h-91q-6 0 -6 3q1 0 -18.5 30.5l-39 61t-18.5 28.5q0 3 2 3h101q3 0 4 -3l31 -47h1q41 45 43 47q3 3 5 3z" />
<glyph horiz-adv-x="460" d="M187 -4q-128 0 -194 33q-3 1 -1 5l6 12q6 13 14 29t16 33t13.5 28.5t6.5 11.5q0 3 4 3l8 -3q8 -2 22 -5t32 -6.5t43 -6t50 -2.5q64 0 67 25l3 21q5 30 -79 40q-95 11 -129.5 39.5t-24.5 103.5l9 65q17 128 214 128q122 0 178 -28q3 -2 3 -4q0 -8 -52 -112q-1 -2 -3 -2 l-9 2q-8 2 -22 4.5t-31 4.5t-38.5 4t-41.5 2q-46 0 -49 -24l-3 -18q-3 -15 10 -23t62 -14q96 -12 133 -44t27 -105l-9 -64q-6 -43 -29.5 -71t-60.5 -40.5t-70 -17t-75 -4.5zM299 592q-1 -3 -3 -3h-98q-2 0 -1 3l78 120q3 3 5 3h117q4 0 1 -3z" />
<glyph horiz-adv-x="460" d="M187 -4q-128 0 -194 33q-3 1 -1 5l6 12q6 13 14 29t16 33t13.5 28.5t6.5 11.5q0 3 4 3l8 -3q8 -2 22 -5t32 -6.5t43 -6t50 -2.5q64 0 67 25l3 21q5 30 -79 40q-95 11 -129.5 39.5t-24.5 103.5l9 65q17 128 214 128q122 0 178 -28q3 -2 3 -4q0 -8 -52 -112q-1 -2 -3 -2 l-9 2q-8 2 -22 4.5t-31 4.5t-38.5 4t-41.5 2q-46 0 -49 -24l-3 -18q-3 -15 10 -23t62 -14q96 -12 133 -44t27 -105l-9 -64q-6 -43 -29.5 -71t-60.5 -40.5t-70 -17t-75 -4.5zM230 589h-97q-1 0 -1 3q0 -1 24.5 29.5t49 60.5t23.5 30q1 0 3 1.5t4 1.5h106q5 0 7 -3 q51 -102 63 -120q3 -3 0 -3h-98q-4 0 -5 3l-29 49h-1q-41 -47 -43 -49q-3 -3 -6 -3z" />
<glyph horiz-adv-x="435" d="M106 0q-3 0 -3 3l58 411h-132q-3 0 -3 3l18 124q0 3 3 3h413q3 0 3 -3l-18 -124q0 -3 -3 -3h-133l-58 -411q0 -3 -3 -3h-142zM319 711h101q3 0 1 -2l-109 -120q-4 -4 -7 -4h-91q-4 0 -7 3q2 0 -70 112l-5 8q-2 3 2 3h101q3 0 4 -3l31 -47h1q41 45 43 47q3 3 5 3z" />
<glyph horiz-adv-x="492" d="M189 -4q-111 0 -146.5 49.5t-19.5 158.5l47 337q0 3 3 3h143q2 -1 2 -3l-46 -327q-9 -36 -2 -60t39 -24h31q30 0 42 19t19 65l46 327q0 3 3 3h142q3 0 3 -3l-47 -337q-14 -104 -62 -156t-166 -52h-31zM166 594q-2 0 -2 4l10 69q1 9 9 17q28 28 70 28q25 0 58 -15t51 -15 q20 0 42.5 14t24.5 14q3 0 3 -5l-10 -68q-2 -12 -9 -18q-35 -31 -70 -31q-26 0 -58.5 16.5t-49.5 16.5q-21 0 -45 -13z" />
<glyph horiz-adv-x="492" d="M189 -4q-111 0 -146.5 49.5t-19.5 158.5l47 337q0 3 3 3h143q2 -1 2 -3l-46 -327q-9 -36 -2 -60t39 -24h31q30 0 42 19t19 65l46 327q0 3 3 3h142q3 0 3 -3l-47 -337q-14 -104 -62 -156t-166 -52h-31zM414 600h-247l-1 3l13 93l2 3h247q2 0 2 -3l-13 -93q0 -3 -3 -3z" />
<glyph horiz-adv-x="492" d="M189 -4q-111 0 -146.5 49.5t-19.5 158.5l47 337q0 3 3 3h143q2 -1 2 -3l-46 -327q-9 -36 -2 -60t39 -24h31q30 0 42 19t19 65l46 327q0 3 3 3h142q3 0 3 -3l-47 -337q-14 -104 -62 -156t-166 -52h-31zM290 585q-112 0 -112 97q0 16 2 20t7 4h59q7 0 8 -5q5 -18 14.5 -24 t32.5 -6q39 0 54 30q3 5 12 5h58q4 0 5.5 -1t0.5 -4q-21 -116 -141 -116z" />
<glyph horiz-adv-x="492" d="M189 -4q-111 0 -146.5 49.5t-19.5 158.5l47 337q0 3 3 3h143q2 -1 2 -3l-46 -327q-9 -36 -2 -60t39 -24h31q30 0 42 19t19 65l46 327q0 3 3 3h142q3 0 3 -3l-47 -337q-14 -104 -62 -156t-166 -52h-31zM286 570q-19 0 -32.5 2.5t-27 10.5t-18.5 25t-1 43l3 20q7 47 34 63 t70 16q18 0 30 -2t25.5 -9.5t18.5 -24.5t1 -43l-3 -20q-4 -27 -14 -44t-25 -24.5t-28.5 -10t-32.5 -2.5zM294 625q33 0 37 32l1 8q4 31 -26 31q-37 0 -41 -31l-1 -8q-3 -20 5 -26t25 -6z" />
<glyph horiz-adv-x="492" d="M189 -4q-111 0 -146.5 49.5t-19.5 158.5l47 337q0 3 3 3h143q2 -1 2 -3l-46 -327q-9 -36 -2 -60t39 -24h31q30 0 42 19t19 65l46 327q0 3 3 3h142q3 0 3 -3l-47 -337q-14 -104 -62 -156t-166 -52h-31zM257 591q-1 -3 -5 -3h-97q-3 0 -1 3l78 120q2 3 5 3h117q2 0 1 -3 q-1 -1 -49 -60t-49 -60zM404 591q-2 -3 -4 -3h-97q-2 0 -2 3q1 1 39.5 60t39.5 60q3 3 5 3h117q4 0 1 -3q-2 -2 -50 -60t-49 -60z" />
<glyph horiz-adv-x="492" d="M171 -159q-36 0 -57 13.5t-21 51.5q0 58 54 92q-85 9 -111.5 58t-12.5 148l47 337q0 3 3 3h143q2 -1 2 -3l-46 -327q-9 -36 -2 -60t39 -24h31q30 0 42 19t19 65l46 327q0 3 3 3h142q3 0 3 -3l-47 -337q-13 -91 -50 -142t-123 -62q0 -2 -3 -3q-21 -9 -28.5 -13t-21.5 -12 t-19 -15t-5 -15t10 -8q7 0 21 7q4 3 7 -1l24 -64q2 -4 -1 -7t-13.5 -9t-32 -12.5t-42.5 -6.5z" />
<glyph horiz-adv-x="708" d="M87 0q-4 0 -4 4l-43 537q0 3 2 3h149q1 0 3 -3l17 -312h15q89 212 90 214q2 3 3 3h116q4 0 5 -4l29 -213h16q103 310 104 312q1 3 3 3h149q5 0 3 -3q-1 -1 -97.5 -267.5t-97.5 -269.5q-1 -4 -6 -4h-173q-5 0 -6 4l-14 210h-10q-71 -204 -73 -209q-3 -5 -7 -5h-173z M353 589h-97v3q0 -1 24.5 29.5t49 60.5t23.5 30q1 0 3 1.5t4 1.5h106q5 0 7 -3q51 -102 63 -120q0 -2 -1 -3h-98q-3 0 -4 3l-29 49h-1q-41 -47 -43 -49q-3 -3 -7 -3z" />
<glyph horiz-adv-x="468" d="M123 0q-3 0 -3 3l28 203q-111 333 -112 335q-1 3 2 3h149q3 0 4 -3l53 -178h6q99 176 100 178q2 3 3 3h146q5 0 3 -3l-206 -335l-28 -203q-1 -3 -4 -3h-141zM233 589h-97v3q0 -1 24.5 29.5t49 60.5t23.5 30q1 0 3 1.5t4 1.5h106q5 0 7 -3q51 -102 63 -120q0 -2 -1 -3h-98 q-3 0 -4 3l-29 49h-1q-41 -47 -43 -49q-3 -3 -7 -3z" />
<glyph horiz-adv-x="429" d="M-13 0q-3 0 -3 3l17 119q0 5 5 10l240 274l1 9h-193q-3 0 -3 3l18 123q0 3 3 3h365q2 0 2 -3l-17 -118q-1 -9 -3 -11l-241 -274l-1 -9h202q1 0 1 -3l-17 -123q0 -3 -2 -3h-374zM291 592q-1 -3 -4 -3h-98q-1 0 0 3l78 120q3 3 5 3h117q4 0 1 -3z" />
<glyph horiz-adv-x="429" d="M-13 0q-3 0 -3 3l17 119q0 5 5 10l240 274l1 9h-193q-3 0 -3 3l18 123q0 3 3 3h365q2 0 2 -3l-17 -118q-1 -9 -3 -11l-241 -274l-1 -9h202q1 0 1 -3l-17 -123q0 -3 -2 -3h-374zM200 583q-2 0 -2 3l15 109l1 1q1 2 2 2h126q3 0 3 -3l-15 -109q0 -3 -5 -3h-125z" />
<glyph horiz-adv-x="708" d="M87 0q-4 0 -4 4l-43 537q0 3 2 3h149q1 0 3 -3l17 -312h15q89 212 90 214q2 3 3 3h116q4 0 5 -4l29 -213h16q103 310 104 312q1 3 3 3h149q5 0 3 -3q-1 -1 -97.5 -267.5t-97.5 -269.5q-1 -4 -6 -4h-173q-5 0 -6 4l-14 210h-10q-71 -204 -73 -209q-3 -5 -7 -5h-173z M379 593l-65 119q-3 3 1 3h118q3 0 4 -3l44 -120q1 -3 -1 -3h-98q-2 0 -3 4z" />
<glyph horiz-adv-x="708" d="M87 0q-4 0 -4 4l-43 537q0 3 2 3h149q1 0 3 -3l17 -312h15q89 212 90 214q2 3 3 3h116q4 0 5 -4l29 -213h16q103 310 104 312q1 3 3 3h149q5 0 3 -3q-1 -1 -97.5 -267.5t-97.5 -269.5q-1 -4 -6 -4h-173q-5 0 -6 4l-14 210h-10q-71 -204 -73 -209q-3 -5 -7 -5h-173z M423 592q-1 -3 -4 -3h-98q-1 0 0 3l78 120q3 3 5 3h117q4 0 1 -3z" />
<glyph horiz-adv-x="708" d="M87 0q-4 0 -4 4l-43 537q0 3 2 3h149q1 0 3 -3l17 -312h15q89 212 90 214q2 3 3 3h116q4 0 5 -4l29 -213h16q103 310 104 312q1 3 3 3h149q5 0 3 -3q-1 -1 -97.5 -267.5t-97.5 -269.5q-1 -4 -6 -4h-173q-5 0 -6 4l-14 210h-10q-71 -204 -73 -209q-3 -5 -7 -5h-173z M268 589q-1 0 -1 3l14 102q0 3 3 3h101q1 0 1 -3l-14 -102l-3 -3h-101zM426 589q-3 0 -3 3l14 102q0 3 5 3h98q1 0 1 -3l-14 -102q0 -3 -3 -3h-98z" />
<glyph horiz-adv-x="411" d="M-3 0l76 541q0 3 3 3h142q3 0 3 -3l-58 -414h209q2 0 2 -4l-17 -120q0 -3 -3 -3h-357zM251 408q-2 -1 -4 0t-1 4l30 214q0 4 5 4h123q3 0 3 -4l-19 -132q0 -4 -5 -7q-3 -1 -66 -39t-66 -40z" />
<glyph horiz-adv-x="509" d="M0 0q-3 0 -3 3l76 538q0 3 3 3h142q3 0 3 -3l-29 -207h33q136 204 137 207t5 3h153q3 0 1 -3l-186 -266q118 -270 120 -272q3 -3 -1 -3h-154q-1 0 -4 3l-80 205h-42l-29 -205q0 -3 -3 -3h-142zM128 -226q-2 -1 -4 0t-1 4l30 214q0 4 4 4h123q4 0 4 -4l-19 -132 q0 -4 -5 -7q-3 -1 -66 -39t-66 -40z" />
<glyph horiz-adv-x="411" d="M-3 0l76 541q0 3 3 3h142q3 0 3 -3l-58 -414h209q2 0 2 -4l-17 -120q0 -3 -3 -3h-357zM98 -226q-2 -1 -4 0t-1 4l30 214q0 4 4 4h123q4 0 4 -4l-19 -132q0 -4 -5 -7q-3 -1 -66 -39t-66 -40z" />
<glyph horiz-adv-x="519" d="M-4 0q-3 0 -3 3l76 538q0 3 4 3h153q4 0 5 -2l104 -287h8l40 286q0 3 3 3h139q3 0 3 -3l-76 -538q0 -3 -4 -3h-156q-4 0 -5 3l-102 285h-9l-40 -285q0 -3 -3 -3h-137zM144 -226q-2 -1 -4 0t-1 4l30 214q0 4 4 4h123q4 0 4 -4l-19 -132q0 -4 -5 -7q-3 -1 -66 -39t-66 -40z " />
<glyph horiz-adv-x="479" d="M141 0h-141q-3 0 -3 3l76 541h221q30 0 57 -5.5t59 -21t48 -52.5t9 -91l-5 -39q-6 -51 -31 -86.5t-60 -52.5l57 -193q2 -3 -3 -3h-156q-3 0 -5 3l-40 165h-57l-23 -165q0 -3 -3 -3zM119 -226q-2 -1 -4 0t-1 4l30 214q0 4 4 4h123q4 0 4 -4l-19 -132q0 -4 -5 -7 q-3 -1 -66 -39t-66 -40zM185 295h65q10 0 22 3t26 14t17 29l4 28q4 27 -14 37.5t-39 10.5h-64z" />
<glyph horiz-adv-x="480" d="M125 -226q-2 -1 -4 0t-1 4l30 214q0 4 5 4h41q-23 0 -41.5 2.5t-40.5 7.5t-37 14.5t-31 25t-22.5 37t-11 52t3.5 69.5l20 142q8 56 29 95.5t45 60t59.5 32t60 13.5t58.5 2q47 0 90 -6.5t62.5 -12t20.5 -6.5t-1 -5l-51 -109q-1 -2 -5 -2h-4q-5 1 -12 2t-17 2t-22 2t-25 2 t-27.5 1.5t-27.5 0.5q-17 0 -27.5 -2t-24 -10t-22 -26.5t-12.5 -47.5l-17 -118q-8 -53 8.5 -69t54.5 -16l78 6l9 63h-61q-3 0 -2 4l15 113q2 3 4 3h182l-41 -292q-122 -27 -192 -30h57q3 0 3 -4l-18 -132q-1 -4 -6 -7q-3 -1 -66 -39t-66 -40z" />
<glyph horiz-adv-x="460" d="M115 -226q-2 -1 -4 0t-1 4l30 214q0 4 4 4h23q-108 0 -174 33q-3 1 -1 5l6 12q6 13 14 29t16 33t13.5 28.5t6.5 11.5q0 3 4 3l8 -3q8 -2 22 -5t32 -6.5t43 -6t50 -2.5q64 0 67 25l3 21q5 30 -79 40q-95 11 -129.5 39.5t-24.5 103.5l9 65q17 128 214 128q122 0 178 -28 q3 -2 3 -4q0 -8 -52 -112q-1 -2 -3 -2l-9 2q-8 2 -22 4.5t-31 4.5t-38.5 4t-41.5 2q-46 0 -49 -24l-3 -18q-3 -15 10 -23t62 -14q96 -12 133 -44t27 -105l-9 -64q-6 -41 -27.5 -68.5t-55.5 -40.5t-66 -18t-72 -6h66q4 0 4 -4l-19 -132q0 -4 -5 -7q-3 -1 -66 -39t-66 -40z " />
<glyph horiz-adv-x="435" d="M106 0q-3 0 -3 3l58 411h-132q-3 0 -3 3l18 124q0 3 3 3h413q3 0 3 -3l-18 -124q0 -3 -3 -3h-133l-58 -411q0 -3 -3 -3h-142zM95 -226q-2 -1 -4 0t-1 4l30 214q0 4 4 4h123q4 0 4 -4l-19 -132q0 -4 -5 -7q-3 -1 -66 -39t-66 -40z" />
<glyph horiz-adv-x="460" d="M199 -134h-118q-3 0 -1 3l78 128q-107 3 -165 32q-3 1 -1 5l6 12q6 13 14 29t16 33t13.5 28.5t6.5 11.5q0 3 4 3l8 -3q8 -2 22 -5t32 -6.5t43 -6t50 -2.5q64 0 67 25l3 21q5 30 -79 40q-95 11 -129.5 39.5t-24.5 103.5l9 65q17 128 214 128q122 0 178 -28q3 -2 3 -4 q0 -8 -52 -112q-1 -2 -3 -2l-9 2q-8 2 -22 4.5t-31 4.5t-38.5 4t-41.5 2q-46 0 -49 -24l-3 -18q-3 -15 10 -23t62 -14q96 -12 133 -44t27 -105l-9 -64q-15 -110 -157 -129l-63 -131q-2 -3 -3 -3z" />
<glyph horiz-adv-x="405" d="M57 136q-3 2 0 5l84 73q2 2 3 0l148 -179q0 -1 -1 -4q-1 -1 -21.5 -19.5t-40.5 -36.5l-20 -18q0 -1 -1.5 -1t-3.5 1z" />
<glyph horiz-adv-x="356" d="M9 -37q-3 0 -2 3l51 95q0 3 5 3h81q5 0 2 -3l-51 -95q-2 -3 -5 -3h-81zM188 329q-4 0 -2 4l49 91q1 3 4 3h83q4 0 2 -3l-49 -91q-2 -4 -5 -4h-82z" />
<glyph horiz-adv-x="502" d="M301 454q-4 0 -1 3l76 118q2 3 6 3h115q0 -1 -1 -3q-1 -1 -19 -30.5t-36 -58t-19 -29.5q-3 -3 -6 -3h-115zM-4 -32q-2 0 -1 3l73 114q4 3 7 3h113q3 0 0 -3q-1 -1 -36.5 -57t-36.5 -57q-3 -3 -5 -3h-114z" />
<glyph horiz-adv-x="473" d="M212 127q34 0 47 16t20 72l16 118q7 55 -1 70.5t-41 15.5q-31 0 -43.5 -15.5t-20.5 -70.5l-16 -118q-8 -55 -1 -71.5t40 -16.5zM194 -4q-20 0 -34.5 0.5t-32 3t-30.5 7t-26.5 12.5t-22.5 18.5t-16.5 26.5t-11 36t-3 46.5t4.5 58.5l20 142q9 67 31.5 110t57 62t65.5 25 t76 6q19 0 33.5 -0.5t32.5 -3t30.5 -6.5t26.5 -11.5t23.5 -18t17.5 -26t11.5 -35t3.5 -45.5t-4 -57l-20 -142q-8 -58 -26 -98.5t-38.5 -62t-52.5 -32.5t-55.5 -13.5t-60.5 -2.5z" />
<glyph horiz-adv-x="415" d="M278 0h-137q-1 1 -1 3l54 388q-99 -59 -101 -60q-3 -1 -3 1t-7.5 60.5t-8.5 59.5t3 5q1 1 67.5 42.5t68.5 42.5q2 2 5 2h137q2 0 2 -3l-76 -539q0 -2 -3 -2z" />
<glyph horiz-adv-x="428" d="M345 0h-337q-3 0 -3 3l16 111q0 5 5 10q12 11 35.5 31.5t35.5 31.5t32 29.5t31 29.5t26.5 26t24 26t17 22.5t13 21.5t5.5 18l4 27q2 13 -7.5 21t-18.5 10t-17 2q-16 0 -35.5 -2t-35.5 -5t-29.5 -6.5t-22.5 -5.5l-8 -2q-5 0 -5 2t-4.5 55t-4.5 56q0 2 1 4q3 3 19 9.5 t57.5 15t88.5 8.5q33 0 60.5 -4.5t59.5 -17t47.5 -42t8.5 -73.5l-10 -66q-6 -43 -42.5 -88t-113.5 -120l-1 -9h126q2 0 2 -3l-17 -123q0 -3 -3 -3z" />
<glyph horiz-adv-x="431" d="M4 21q-2 2 -2 3q0 2 19 56t20 56t4 2l9 -2q9 -1 23 -3.5t30.5 -4.5t36 -3.5t36.5 -1.5q19 0 36 8t18 23l2 19q6 44 -41 44h-72q-2 0 -2 4l16 115q0 3 4 3h73q15 0 26.5 9.5t13.5 24.5l3 18q2 12 -7.5 20t-19 10t-16.5 2q-26 0 -59 -4t-52 -8t-21 -5q-5 -2 -5 2q0 2 -3 55 t-3 56q0 4 1 4q4 2 21.5 7.5t58 12.5t80.5 7q32 0 56 -2.5t49.5 -10.5t41 -21.5t23.5 -38t3 -58.5l-7 -50q-3 -20 -16.5 -40.5t-25.5 -30.5l-13 -11l-1 -9q5 -3 13 -8.5t19.5 -28t7.5 -51.5l-9 -61q-12 -78 -66.5 -105.5t-143.5 -27.5q-47 0 -86.5 6t-56.5 12z" />
<glyph horiz-adv-x="431" d="M326 0h-127q-3 0 -3 3l10 69h-205q-3 0 -3 3l17 118q0 5 5 12l175 336q1 3 4 3h143q4 0 2 -3l-169 -332l-1 -8h50l11 76q0 4 3 4h127q3 0 3 -4l-11 -76h38q1 0 2.5 -1t0.5 -2l-17 -123q0 -3 -4 -3h-38l-10 -69q0 -3 -3 -3z" />
<glyph horiz-adv-x="430" d="M163 -5q-109 0 -159 25l-1 2q0 3 19 57.5t20 56.5q2 4 5 2q2 -1 22 -4.5t52.5 -7.5t58.5 -4q18 0 35.5 8t19.5 24l3 25q3 23 -12 32t-32 9h-147q-2 0 -2 3l44 314q2 7 8 7h317q2 0 2 -3l-16 -114q0 -4 -3 -4h-195l-12 -84h25q28 0 49.5 -2t48 -9.5t42.5 -21t25.5 -38.5 t4.5 -59l-11 -81q-5 -36 -21.5 -62t-36.5 -39.5t-50 -21t-51.5 -9t-51.5 -1.5z" />
<glyph horiz-adv-x="437" d="M194 113q13 0 21.5 2.5t18 15.5t13.5 38l3 19q7 45 -22 45q-13 0 -27 -2.5t-22 -5.5l-8 -3l-11 -83q-2 -15 8.5 -20.5t25.5 -5.5zM188 -4q-28 0 -50.5 2.5t-48.5 11.5t-42.5 24t-25 41.5t-3.5 62.5l36 258q6 42 27 72.5t45 45.5t54.5 24t48 10.5t34.5 1.5q89 0 155 -33 q1 -1 1 -5q-1 -4 -21.5 -55t-20.5 -52q0 -2 -3 -2l-8 2q-8 2 -21 4.5t-28.5 5.5t-34.5 5t-36 2q-12 0 -30 -7.5t-21 -24.5l-7 -51q61 11 86 11q28 0 48 -4.5t40 -19t27.5 -47t0.5 -82.5l-5 -35q-8 -55 -27.5 -90t-49.5 -50.5t-56.5 -20.5t-63.5 -5z" />
<glyph horiz-adv-x="414" d="M176 1h-144q-4 0 -2 3l209 407l2 8h-182q-2 2 -2 3l17 119l2 3h335q4 0 4 -3l-16 -112q0 -3 -4 -11l-214 -414q-3 -3 -5 -3z" />
<glyph horiz-adv-x="432" d="M191 113q43 0 50 44l3 18q3 20 -10.5 28.5t-28.5 8.5t-29.5 -9t-17.5 -28l-3 -18q-7 -44 36 -44zM223 341q15 0 29 9t17 27l3 17q7 40 -36 40q-38 0 -45 -40l-3 -17q-3 -18 8 -27t27 -9zM174 -4q-37 0 -65 5t-55 20t-38.5 47.5t-4.5 80.5l5 34q4 28 21 51.5t32 33.5l15 9 l1 3q-4 3 -10 9.5t-15 29t-6 47.5l4 33q5 41 19.5 70.5t31.5 44.5t43.5 23.5t47.5 10.5t53 2q39 0 64.5 -4.5t51 -18.5t35 -46t1.5 -82l-5 -34q-4 -24 -17.5 -45.5t-25.5 -31.5l-12 -9v-2q2 -1 5.5 -3.5t12 -11.5t14.5 -19t10 -26t1 -34l-5 -34q-7 -48 -27 -80.5t-51 -47 t-61 -20t-70 -5.5z" />
<glyph horiz-adv-x="430" d="M240 433q-47 0 -53 -56l-3 -26q-3 -27 3 -36t19 -9t27 2.5t21 5.5l8 2l13 91q2 15 -8.5 20.5t-26.5 5.5zM247 550q36 0 64 -5t56.5 -19t41.5 -44t7 -75l-36 -257q-6 -41 -27 -72t-45 -46t-54.5 -24t-48 -10.5t-33.5 -1.5q-100 0 -158 29q-3 1 -1 5q2 6 21 54.5t21 51.5 q1 3 3 3l8 -1q9 -2 22 -4.5t29 -5t35 -4t35 -1.5q14 0 31.5 8t20.5 26l6 42q-61 -11 -87 -11q-27 0 -46.5 5t-40 19t-28 47t-0.5 82l6 43q6 44 21.5 76t33.5 49t44.5 26.5t48 12t50.5 2.5z" />
<glyph horiz-adv-x="932" d="M195 -4q-128 0 -194 33q-3 1 -1 5l6 12q6 13 14 29t16 33t13.5 28.5t6.5 11.5q0 3 4 3l8 -3q8 -2 22 -5t32 -6.5t43 -6t50 -2.5q64 0 67 25l3 21q5 30 -79 40q-95 11 -129.5 39.5t-24.5 103.5l9 65q17 128 214 128q122 0 178 -28q3 -2 3 -4q0 -8 -52 -112q-1 -2 -3 -2 l-9 2q-8 2 -22 4.5t-31 4.5t-38.5 4t-41.5 2q-46 0 -49 -24l-3 -18q-3 -15 10 -23t62 -14q96 -12 133 -44t27 -105l-9 -64q-6 -43 -29.5 -71t-60.5 -40.5t-70 -17t-75 -4.5zM638 -4q-128 0 -194 33q-3 1 -1 5l6 12q6 13 14 29t16 33t13.5 28.5t6.5 11.5q0 3 4 3l8 -3 q8 -2 22 -5t32 -6.5t43 -6t50 -2.5q64 0 67 25l3 21q5 30 -79 40q-95 11 -129.5 39.5t-24.5 103.5l9 65q17 128 214 128q122 0 178 -28q3 -2 3 -4q0 -8 -52 -112q-1 -2 -3 -2l-8 2q-9 2 -23 4.5t-31 4.5t-38.5 4t-41.5 2q-46 0 -49 -24l-3 -18q-3 -15 10 -23t62 -14 q96 -12 133 -44t27 -105l-9 -64q-6 -43 -29.5 -71t-60.5 -40.5t-70 -17t-75 -4.5z" />
<glyph horiz-adv-x="431" d="M128 50q-4 0 -4 3l15 109h-120q-3 0 -3 3l16 110q0 4 3 4h121l15 108q0 3 5 3h108q2 0 2 -3l-15 -108h122q2 0 2 -4l-16 -110q0 -3 -2 -3h-123l-15 -109q0 -3 -3 -3h-108z" />
<glyph horiz-adv-x="199" d="M-42 -94q-4 0 -2 4l88 219q2 3 4 3h117q3 0 2 -3l-112 -219q-2 -4 -4 -4h-93z" />
<glyph horiz-adv-x="305" d="M13 162q-3 0 -3 3l16 110q0 4 3 4h244q3 0 3 -4l-16 -110q0 -3 -3 -3h-244z" />
<glyph horiz-adv-x="205" d="M0 0q-3 0 -3 3l19 130q0 4 3 4h125q3 0 3 -4l-19 -130q0 -3 -3 -3h-125z" />
<glyph horiz-adv-x="343" d="M-8 -4q-4 0 -2 3q1 2 113.5 274.5t112.5 273.5q0 3 5 3h131q4 0 3 -3l-227 -548q-2 -3 -4 -3h-132z" />
<glyph horiz-adv-x="431" d="M31 251q-2 0 -2 3l15 112q2 3 4 3h358q2 0 1 -3l-15 -112q0 -3 -3 -3h-358zM6 74q-2 0 -2 3l16 112q0 3 3 3h358q2 0 2 -3l-16 -112q0 -3 -3 -3h-358z" />
<glyph horiz-adv-x="247" d="M146 0h-125q-3 0 -3 3l16 113q0 3 4 3h125q2 0 2 -3l-16 -113q0 -3 -3 -3zM166 171h-117q-2 0 -2 3l52 367q0 3 2 3h117q3 0 3 -3l-52 -367q0 -3 -3 -3z" />
<glyph horiz-adv-x="371" d="M201 0h-125q-3 0 -3 3l16 113q0 3 4 3h125q4 0 4 -3l-16 -113q0 -3 -5 -3zM228 169h-129q-3 0 -3 3l3 16q6 33 24.5 64t37.5 50t35.5 40t19.5 36l3 16q3 16 -8 24t-20 8q-15 0 -31.5 -2t-30.5 -5t-25.5 -6t-18.5 -5l-7 -2q-3 0 -3 2q0 1 -6 53t-6 53q0 4 2 5l3 1 q3 2 7.5 3.5t11 4t14 4.5t17 4.5t20.5 5t22.5 4t24.5 2.5t26 1q32 0 57.5 -5t51 -18t36.5 -42t5 -72l-5 -34q-5 -31 -60.5 -95t-60.5 -95l-3 -16q0 -3 -4 -3z" />
<glyph horiz-adv-x="217" d="M-54 -94q-4 0 -2 4l89 219q1 3 3 3h117q3 0 2 -3l-111 -219q-2 -4 -4 -4h-94zM43 254q-3 0 -3 3l18 130q1 3 4 3h124q3 0 3 -3l-18 -130q0 -3 -4 -3h-124z" />
<glyph horiz-adv-x="319" d="M163 544q4 0 4 -5l-25 -177q0 -3 -3 -3h-100q-3 0 -3 3l25 176q0 6 4 6h98zM323 544q5 0 5 -5l-25 -177q0 -3 -3 -3h-99q-4 0 -4 3l25 176q0 6 5 6h96z" />
<glyph horiz-adv-x="464" d="M188 243h70l16 67h-69zM122 0h-103q-3 0 -3 2l36 142h-51q-2 1 -2 3l13 93l3 3h64l16 67h-54q-3 0 -3 3l13 93q0 3 3 3h66q35 129 35 132l2 3h105q4 0 3 -3l-34 -132h70q33 130 33 132q0 3 4 3h104q6 0 3 -3l-34 -132h49q2 0 2 -3l-13 -93q0 -3 -3 -3h-62l-16 -67h53 q2 0 2 -3l-13 -93q0 -3 -3 -3h-65q-36 -139 -36 -141q0 -3 -3 -3h-105q-2 0 -2 2l36 142h-70q-36 -139 -36 -141q0 -3 -4 -3z" />
<glyph horiz-adv-x="470" d="M135 -69q-2 0 -2 3l9 61q-95 5 -149 32q-3 2 -2 5q57 114 57 115q0 3 4 1q3 -2 20 -6.5t55.5 -10t79.5 -5.5q64 0 67 25l3 22q1 8 -3.5 14.5t-23.5 13.5t-53 12q-94 12 -129 39t-24 104l9 64q16 111 166 126l9 64q0 3 3 3h86q4 0 4 -3l-9 -64q93 -5 134 -26q1 0 1 -2 q0 -3 -23.5 -56t-26.5 -58q-2 -4 -6 -2q-2 1 -19.5 5t-52.5 8.5t-68 4.5q-46 0 -50 -25l-3 -18q-2 -15 11 -22.5t62 -14.5q43 -6 69.5 -13.5t52.5 -23t35.5 -43.5t3.5 -69l-9 -64q-17 -119 -188 -132l-9 -61q0 -3 -5 -3h-86z" />
<glyph horiz-adv-x="638" d="M189 -5h-115q-4 0 1 3q-4 -3 22 37q35 53 169 251q176 260 173 261l6 3h115v-2q0 -2 -91 -139t-183 -274l-92 -137q-2 -3 -5 -3zM453 83q28 0 32 28l5 33q4 27 -22 27q-30 0 -34 -27l-5 -33q-4 -28 24 -28zM441 -5q-111 0 -97 101l9 64q13 99 128 99q110 0 96 -99l-9 -64 q-14 -101 -127 -101zM167 374q28 0 32 28l5 33q4 27 -24 27q-30 0 -34 -27l-5 -33q-3 -17 4 -22.5t22 -5.5zM155 286q-112 0 -98 101l9 64q13 99 129 99q108 0 94 -99l-9 -64q-14 -101 -125 -101z" />
<glyph horiz-adv-x="474" d="M188 -5q-27 0 -48 2t-48.5 10.5t-44.5 23t-26.5 42.5t-4.5 67l5 37q4 32 21.5 66t33.5 52l15 18q-2 4 -4.5 10.5t-7 29.5t1.5 46l4 24q7 43 25.5 70.5t46.5 38.5t50.5 14.5t53.5 3.5q25 0 43 -3.5t40.5 -14t34.5 -36.5t12 -66q0 -35 -6 -35h-91v19q0 50 -43 50 q-53 0 -61 -45l-2 -12q-3 -16 2.5 -35t13 -32t22 -35.5t21.5 -34.5l53 -96q4 9 5 14l10 71q0 4 3 4h89q4 0 4 -4l-14 -95q-2 -16 -12.5 -36t-19.5 -32l-9 -13q48 -78 49 -80q1 -3 -2 -3h-120q-1 0 -4 3l-7 12q-35 -20 -84 -20zM201 91l21 4l-74 124q-3 -18 -16 -62l-2 -6 q-2 -35 15 -47.5t56 -12.5z" />
<glyph horiz-adv-x="179" d="M174 544q5 0 5 -5l-25 -177q0 -3 -4 -3h-99q-3 0 -3 3l25 176q0 6 4 6h97z" />
<glyph horiz-adv-x="186" d="M-6 -70q-6 -2 -6 2l25 177q0 3 4 3h104q2 0 2 -3l-15 -107q0 -3 -4 -6q-1 -1 -54.5 -33t-55.5 -33z" />
<glyph horiz-adv-x="343" d="M-6 -70q-6 -2 -6 2l25 177q0 3 4 3h104q2 0 2 -3l-15 -107q0 -3 -4 -6q-1 -1 -54.5 -33t-55.5 -33zM151 -70q-4 -2 -4 2l25 177q0 3 3 3h103q2 0 2 -3l-15 -107q0 -3 -4 -6q-1 -1 -54.5 -33t-55.5 -33z" />
<glyph horiz-adv-x="463" d="M246 -5q-29 0 -54 3t-56 14.5t-50.5 31t-30.5 56t-4 85.5h-37q-3 0 -3 4l10 66q0 3 3 3h37l4 30h-37q-2 0 -2 3l9 67q0 3 4 3h37q26 188 251 188q47 0 82.5 -6t47.5 -10.5t15 -7.5q2 -1 0 -4l-53 -111q-2 -3 -4 -2q-1 1 -15.5 3t-40.5 4t-51 2q-32 0 -50 -11t-31 -45h104 q3 0 3 -3l-9 -67q0 -3 -5 -3h-105l-4 -30h105q4 0 4 -3l-10 -66q0 -4 -4 -4h-104q1 -32 15.5 -42t49.5 -10q28 0 56.5 2.5t43.5 5t17 3.5t3 -2l24 -114q1 -2 -2 -4q-58 -29 -163 -29z" />
<glyph horiz-adv-x="412" d="M137 -77q-3 0 -3 3l10 71q-65 7 -91 31q-39 38 -27 127l11 83q5 38 20 67t31.5 44.5t40 25.5t38 13t33.5 5l10 71q0 3 3 3h75q3 0 3 -3l-10 -70q17 -1 31.5 -3.5t25 -5.5t17.5 -5.5t11 -5.5l5 -2q3 -2 2 -4l-46 -94q-1 -2 -3 -2h-4q-4 1 -11 2t-16.5 2t-23 1.5t-28.5 0.5 q-54 0 -61 -51l-9 -63q-5 -32 7 -42t39 -10q15 0 29 1t24 2t18 2t12 2l5 1q3 0 3 -3q0 -2 10 -49t11 -48t0 -3t-3 -2l-4 -2q-5 -2 -13.5 -4.5t-20 -5t-28.5 -4.5t-35 -3l-10 -70q0 -3 -3 -3h-75z" />
<glyph horiz-adv-x="717" d="M334 134q24 0 31.5 6.5t10.5 30.5l14 104q1 4 -2 6t-9 3t-11.5 1.5t-13.5 0.5q-31 0 -37 -47l-8 -59q-6 -46 25 -46zM299 -130q-43 0 -77.5 5t-75 21.5t-67.5 44.5t-45.5 79.5t-18.5 120.5q0 405 379 405q62 0 108.5 -9.5t90.5 -34.5t67.5 -77.5t23.5 -130.5 q0 -66 -12.5 -114.5t-30.5 -74.5t-45 -41.5t-49.5 -19.5t-50.5 -4q-47 0 -80 20q-33 -20 -98 -20q-33 0 -54.5 4.5t-41 17.5t-26.5 41t-1 71l10 71q19 134 137 134q22 0 37.5 -3t19.5 -6l4 -3l1 6q0 2 4 2h107q2 0 2 -2l-26 -190q-7 -46 26 -46q17 0 28.5 7.5t22 42.5 t10.5 99q0 94 -47 129.5t-151 35.5q-141 0 -197 -69t-56 -220q0 -57 15.5 -95.5t43.5 -57t58 -26t69 -7.5q32 0 76 5.5t71.5 10.5t29.5 6q3 2 3 -2l11 -88q-1 -4 -3 -5q-5 -2 -27.5 -9t-73.5 -15.5t-101 -8.5z" />
<glyph horiz-adv-x="256" d="M60 -75q-2 0 -5 3q-28 56 -28 185q0 107 12.5 195.5t29 138.5t36 87t30 48.5t14.5 14.5t6 3h108q4 0 1 -3q-4 -4 -13.5 -17.5t-28.5 -54.5t-34.5 -93t-27.5 -139.5t-12 -186.5q0 -58 5.5 -102.5t9.5 -59t6 -16.5q3 -3 -1 -3h-108z" />
<glyph horiz-adv-x="256" d="M95 -75h-108q-3 0 0 3q4 4 13.5 18t28 55t34 92.5t27.5 138.5t12 186q0 139 -20 179q-2 3 1 3h107q2 0 5 -3t8.5 -15t12.5 -58t7 -111q0 -108 -12.5 -197.5t-28.5 -138.5t-36.5 -87t-29.5 -47.5t-15 -14.5q-3 -3 -6 -3z" />
<glyph horiz-adv-x="312" d="M121 280q-2 0 -2 4l9 63q-55 -31 -57 -32t-3 1l-26 61q-2 1 1 4l57 32q-46 30 -48 31q-2 2 0 4l43 60q1 2 4 2l47 -33l9 64q0 3 3 3h67q4 0 4 -3l-9 -64q54 32 56 33q4 1 4 -2q0 -1 12 -29.5t13 -30.5q2 -2 -2 -4l-54 -31q43 -31 45 -32q2 -2 0 -4l-42 -61q-1 -2 -4 -1 l-46 32l-9 -63q0 -4 -4 -4h-68z" />
<glyph horiz-adv-x="241" d="M-15 -75l95 675h185q2 0 2 -3l-14 -102q0 -3 -3 -3h-68l-65 -459h68q3 0 3 -4l-15 -101q0 -3 -3 -3h-185z" />
<glyph horiz-adv-x="241" d="M154 -75h-185q-3 0 -3 3l15 101q0 4 3 4h68l65 459h-68q-3 0 -3 3l14 102q0 3 4 3h185z" />
<glyph horiz-adv-x="337" d="M14 162q-3 0 -3 3l16 110q0 4 3 4h275q3 0 3 -4l-16 -110q0 -3 -3 -3h-275z" />
<glyph horiz-adv-x="387" d="M1 162q-3 0 -3 3l16 110q0 4 3 4h351q3 0 3 -4l-16 -110q0 -3 -3 -3h-351z" />
<glyph horiz-adv-x="343" d="M-8 -4q-4 0 -2 3q1 2 113.5 274.5t112.5 273.5q0 3 5 3h131q4 0 3 -3l-227 -548q-2 -3 -4 -3h-132z" />
<glyph horiz-adv-x="305" d="M13 162q-3 0 -3 3l16 110q0 4 3 4h244q3 0 3 -4l-16 -110q0 -3 -3 -3h-244z" />
<glyph horiz-adv-x="431" d="M19 164q-1 0 -2 1t0 2l15 107q0 3 3 3h358q2 0 2 -3l-15 -107l-1 -1q-1 -2 -2 -2h-358zM114 -7q-2 0 -1 4l16 118q1 4 3 4h119q2 0 2 -4l-16 -118q-2 -4 -4 -4h-119zM160 323q-1 0 -1 3l17 119q0 3 2 3h119q3 0 3 -3l-17 -119q0 -3 -4 -3h-119z" />
<glyph horiz-adv-x="431" d="M18 0q-3 0 -3 3l28 200h-24q-1 0 -1 3l12 89l3 3h24l16 114q19 137 207 137q89 0 147 -29q2 -1 2 -4q0 -1 -21 -56l-22 -55q0 -2 -4 -2q-1 0 -8 2t-18.5 4.5t-26 4.5t-32 4t-33.5 2q-40 0 -45 -33l-13 -89h115q2 0 2 -3l-12 -89q0 -3 -4 -3h-114l-10 -74h182q2 0 2.5 -1 t-0.5 -2l-17 -123q0 -3 -3 -3h-329z" />
<glyph horiz-adv-x="404" d="M-8 21q-1 0 -1 2t22 48l22 46q0 3 6 3q2 -1 20 -4.5t50.5 -7.5t60.5 -4q39 0 39 11l2 10q1 10 -9.5 13.5t-47.5 7.5q-32 3 -58.5 10.5t-49.5 30.5t-18 57l7 48q4 30 27 53q-17 20 -12 51l6 48q13 105 176 105q40 0 77 -6t51.5 -10.5t18.5 -6.5q3 -1 2 -4l-19 -44 q-20 -43 -20 -45q0 -3 -6 -3q-1 0 -7.5 1t-17 3t-24.5 3.5t-32 2.5t-35 1q-31 0 -33 -9l-2 -9q-1 -4 4 -7.5t16 -5.5t21.5 -3.5t28.5 -3.5q58 -6 89 -27.5t24 -70.5l-7 -51q-3 -24 -25 -46q16 -19 10 -55l-7 -50q-5 -35 -23.5 -58.5t-48.5 -33.5t-55 -13t-58 -3 q-44 0 -85.5 7t-57.5 12t-21 7zM240 246q3 6 5 20l2 10q1 3 -6 6.5t-17.5 6.5t-20.5 5.5l-18 4.5l-8 2l-1 -1q-5 -1 -11 -7t-7 -14l-1 -9q-1 -5 6 -9t18.5 -6.5t23.5 -4.5t26 -3z" />
<glyph horiz-adv-x="462" d="M120 0q-3 0 -3 3l13 90h-87q-3 0 -3 3l10 72q0 3 4 3h87l4 27h-87q-3 0 -3 3l10 72q0 3 3 3h52q-85 263 -86 265q-2 3 2 3h149q1 0 3 -3l53 -177h6q98 174 100 177q1 3 4 3h147q4 0 2 -3l-163 -265h50q2 0 2 -3l-10 -72q0 -3 -2 -3h-84l-4 -27h84q1 0 1 -3l-10 -72 q0 -3 -2 -3h-85l-13 -90q0 -3 -3 -3h-141z" />
<glyph horiz-adv-x="284" d="M153 -73q-60 0 -82 27t-14 85l14 98q5 39 -5 56t-43 17q-3 0 -3 3l14 101q0 3 4 3q34 0 48.5 18.5t19.5 54.5l14 98q8 58 38 85t90 27h60q2 0 2 -3l-14 -99q0 -3 -3 -3h-23q-19 0 -26.5 -9t-10.5 -25l-13 -91q-7 -49 -23 -70.5t-48 -34.5l-1 -3q29 -13 38.5 -34t3.5 -70 l-12 -92q-6 -34 28 -34h22q2 0 2 -3l-14 -99q0 -3 -3 -3h-60z" />
<glyph horiz-adv-x="266" d="M29 -75q-3 0 -3 3l94 669q0 3 4 3h108q2 0 2 -3l-94 -669q0 -3 -3 -3h-108z" />
<glyph horiz-adv-x="284" d="M33 -73h-61q-3 0 -3 3l14 99q0 3 3 3h23q33 0 37 34l13 92q7 48 23.5 69.5t48.5 34.5v3q-29 13 -39 34.5t-3 70.5l13 91q4 34 -26 34h-24q-3 0 -3 3l14 99q0 3 3 3h61q60 0 82 -27.5t14 -84.5l-14 -98q-5 -36 4.5 -54.5t43.5 -18.5q2 0 2 -3l-14 -101q0 -3 -4 -3 q-33 0 -48 -17t-20 -56l-14 -98q-8 -58 -37.5 -85t-88.5 -27z" />
<glyph horiz-adv-x="266" d="M28 -75q-3 0 -3 3l40 286q0 4 4 4h108q2 0 2 -4l-40 -286q0 -3 -3 -3h-108zM82 311q-3 0 -3 3l40 283q0 3 4 3h108q2 0 2 -3l-39 -283q-2 -3 -4 -3h-108z" />
</font>
</defs>
</svg>
