<?xml version="1.0" standalone="no"?>
<!DOCTYPE svg PUBLIC "-//W3C//DTD SVG 1.1//EN" "http://www.w3.org/Graphics/SVG/1.1/DTD/svg11.dtd" >
<svg xmlns="http://www.w3.org/2000/svg" xmlns:xlink="http://www.w3.org/1999/xlink" version="1.1">
<metadata></metadata>
<defs>
<font id="sport1black" horiz-adv-x="615" >
<font-face units-per-em="1000" ascent="750" descent="-250" />
<missing-glyph horiz-adv-x="246" />
<glyph unicode=" "  horiz-adv-x="246" />
<glyph unicode="&#x09;" horiz-adv-x="246" />
<glyph unicode="&#xa0;" horiz-adv-x="246" />
<glyph unicode="!" horiz-adv-x="324" d="M236 0h-148q-4 0 -4 4v135q0 4 4 4h148q4 0 4 -4v-135q0 -4 -4 -4zM231 211h-138q-3 0 -3 4v461q0 4 3 4h138q3 0 3 -4v-461q0 -4 -3 -4z" />
<glyph unicode="&#x22;" horiz-adv-x="411" d="M165 680q5 0 5 -6v-215q0 -4 -4 -4h-118q-3 0 -3 4v214q0 7 3 7h117zM359 680q6 0 6 -6v-215q0 -4 -3 -4h-118q-4 0 -4 4v214q0 7 4 7h115z" />
<glyph unicode="#" horiz-adv-x="594" d="M247 300h92l10 91h-91zM208 0h-122q-4 0 -4 4l21 179h-65q-4 0 -4 4v109q0 4 4 4h79l10 91h-69q-5 0 -5 4v109q0 4 4 4h84q20 165 20 168q0 4 4 4h122q4 0 4 -4l-20 -168h92q19 165 19 168q1 4 5 4h123q5 0 3 -4l-19 -168h62q4 0 4 -4v-109q0 -4 -4 -4h-77l-10 -91h68 q4 0 4 -4v-109q0 -4 -4 -4h-82q-20 -176 -20 -179q-1 -4 -5 -4h-123q-3 0 -3 4l21 179h-92q-21 -176 -21 -179q0 -4 -4 -4z" />
<glyph unicode="$" horiz-adv-x="604" d="M244 -85q-4 0 -4 4v75q-53 3 -101.5 13t-66 16t-23.5 9q-3 2 -2 6q44 132 44 134q0 4 4 2q8 -3 28.5 -7.5t72 -11.5t101.5 -7q26 0 42.5 2t30 11t13.5 25v30q0 19 -22.5 32t-88.5 22q-60 7 -96 16.5t-66 28.5t-42.5 51t-12.5 81v79q0 138 185 157v78q0 4 4 4h103 q4 0 4 -4v-78q48 -3 90 -10.5t60 -13t20 -7.5q2 -1 2 -5q0 -11 -40 -131q-2 -4 -5 -2q-4 1 -26 5.5t-66.5 9.5t-85.5 5q-67 0 -67 -36v-27q0 -21 19 -31.5t84 -19.5q44 -6 73 -12t60.5 -19t49.5 -32t30 -49t12 -71v-79q0 -149 -210 -164v-75q0 -4 -4 -4h-103z" />
<glyph unicode="%" horiz-adv-x="811" d="M290 -6h-134q-5 0 -2 4q-2 1 89 172t182.5 341.5t88.5 171.5q4 4 7 4h134q4 0 1 -4q0 -1 -180 -342t-180 -343q-3 -4 -6 -4zM606 98q19 0 28.5 7t9.5 30v46q0 21 -9 28.5t-27 7.5q-40 0 -40 -36v-46q0 -22 10 -29.5t28 -7.5zM606 -6q-136 0 -136 124v82q0 121 140 121 q134 0 134 -121v-82q0 -39 -12 -65t-33.5 -38t-43 -16.5t-49.5 -4.5zM204 464q19 0 28.5 7t9.5 30v46q0 21 -9.5 28.5t-27.5 7.5q-40 0 -40 -36v-46q0 -37 39 -37zM204 360q-137 0 -137 124v82q0 121 141 121q133 0 133 -121v-82q0 -39 -12 -65t-33.5 -38t-42.5 -16.5 t-49 -4.5z" />
<glyph unicode="&#x26;" horiz-adv-x="609" d="M295 -6q-34 0 -60.5 2.5t-61.5 13t-58 28.5t-39.5 53.5t-16.5 83.5v45q0 40 15.5 82.5t31.5 65.5l15 22q-28 43 -28 111v30q0 42 13 72.5t31.5 46t47.5 24.5t50.5 11t51.5 2q27 0 47 -2t47.5 -12.5t45.5 -29.5t30.5 -55t12.5 -86q0 -4 -4 -4h-106q-4 0 -4 4 q0 35 -11.5 55t-24 24t-30.5 4q-15 0 -29 -3.5t-27.5 -17.5t-13.5 -38v-16q0 -20 10 -44.5t19.5 -38.5t34 -47t31.5 -43l90 -130q5 13 5 20v93q0 4 4 4h106q4 0 4 -4v-121q0 -19 -9 -44t-19 -40l-9 -15q69 -93 71 -96q4 -4 -1 -4h-142q-3 0 -6 4l-11 15q-41 -25 -103 -25z M295 108q10 0 17.5 1.5t10.5 2.5l3 2l-121 165q-14 -20 -14 -82v-9q0 -47 26 -63.5t78 -16.5z" />
<glyph unicode="'" horiz-adv-x="239" d="M176 680q7 0 7 -6v-215q0 -4 -4 -4h-118q-4 0 -4 4v214q0 7 4 7h115z" />
<glyph unicode="(" horiz-adv-x="336" d="M151 -94q-2 0 -7 4q-76 101 -76 418q0 97 7.5 175t17.5 120.5t22.5 72.5t19 38.5t9.5 11.5l7 4h127q4 0 0 -4q-3 -5 -7.5 -13.5t-16 -42.5t-20 -76.5t-15.5 -119t-7 -166.5t7 -166t15.5 -120t19.5 -76t16.5 -43t7.5 -13q4 -4 0 -4h-127z" />
<glyph unicode=")" horiz-adv-x="336" d="M185 -94h-126q-4 0 0 4q2 2 7.5 13t16.5 43t19.5 76t15.5 120t7 166t-7 166.5t-15.5 119t-20 76.5t-16 42.5t-7.5 13.5q-3 4 1 4h125q3 0 8 -4q3 -2 10 -11t19 -39t22 -72.5t17.5 -120.5t7.5 -175t-8 -175.5t-17.5 -120t-22.5 -73t-18 -38t-10 -11.5q-4 -4 -8 -4z" />
<glyph unicode="*" horiz-adv-x="405" d="M162 355q-4 0 -4 4v81q-63 -40 -65 -41q-3 -2 -6 2q0 1 -10 18.5t-20 34.5t-10 18q-2 3 2 5l65 41q-63 38 -65 40q-4 2 -2 5l40 71q3 3 6 2l65 -41v81q0 4 4 4h80q5 0 5 -4v-81q62 40 64 41q3 2 6 -2q2 -3 20.5 -36.5t19.5 -34.5q2 -4 -2 -5l-64 -40q62 -39 64 -41 q4 -2 2 -5l-40 -71q-3 -3 -6 -2l-64 41v-81q0 -4 -4 -4h-81z" />
<glyph unicode="+" horiz-adv-x="556" d="M214 64q-4 0 -4 4v139h-153q-3 0 -3 4v129q0 4 3 4h153v139q0 4 4 4h127q4 0 4 -4v-139h152q4 0 4 -4v-129q0 -4 -4 -4h-152v-139q0 -4 -4 -4h-127z" />
<glyph unicode="," horiz-adv-x="265" d="M27 -115q-4 0 -3 4l69 265q1 4 5 4h139q4 0 2 -4l-98 -265q-1 -4 -4 -4h-110z" />
<glyph unicode="-" horiz-adv-x="400" d="M49 207q-4 0 -4 4v129q0 4 4 4h301q4 0 4 -4v-129q0 -4 -4 -4h-301z" />
<glyph unicode="." horiz-adv-x="273" d="M62 0q-4 0 -4 4v155q0 4 4 4h148q4 0 4 -4v-155q0 -4 -4 -4h-148z" />
<glyph unicode="/" horiz-adv-x="446" d="M53 -5q-3 0 -2 4t93.5 343t92.5 341q1 4 5 4h154q4 0 3 -4l-186 -684q-1 -4 -5 -4h-155z" />
<glyph unicode="0" horiz-adv-x="608" d="M303 144q44 0 58.5 21.5t14.5 95.5v163q0 72 -15 93t-58 21t-58.5 -21t-15.5 -93v-163q0 -73 14.5 -95t59.5 -22zM303 -10q-31 0 -54 1.5t-50.5 7.5t-47 16.5t-39 30t-31.5 46.5t-19.5 66.5t-7.5 90.5v191q0 67 14.5 115t36 74.5t57 41t66.5 18t75 3.5t73.5 -3t66 -17.5 t58.5 -40t37 -74t15 -117.5v-191q0 -72 -15.5 -122.5t-36.5 -76.5t-58.5 -40t-66 -17t-73.5 -3z" />
<glyph unicode="1" horiz-adv-x="537" d="M398 0h-159q-4 0 -4 4v495q-115 -76 -117 -77q-1 -1 -2 -0.5t-1 2.5q0 1 -19 69.5t-20 70.5q-1 4 4 7l152 107q4 2 7 2h159q4 0 4 -4v-673q0 -3 -4 -3z" />
<glyph unicode="2" horiz-adv-x="551" d="M485 0h-415q-4 0 -4 4v131q0 7 5 12q13 14 39.5 41t40 41t36 38t34.5 38t29 34t25.5 33.5t17.5 29t13 27.5t4 23v42q0 18 -13.5 29t-26.5 13.5t-25 2.5q-33 0 -73 -6t-62.5 -11.5t-25.5 -6.5q-6 0 -6 3q0 1 -14 64.5t-14 64.5q-1 4 1 6q6 4 23 11t66.5 17t107.5 10 q238 0 238 -169v-86q0 -38 -25.5 -86t-54 -83.5t-88.5 -103.5v-11h167q4 0 4 -4v-144q0 -4 -4 -4z" />
<glyph unicode="3" horiz-adv-x="556" d="M65 19q-2 1 -2 6q0 2 11.5 65t11.5 64q1 3 6 3q2 -1 28 -5t68 -8.5t74 -4.5q27 0 48 11t21 33v33q0 60 -64 60h-88q-4 0 -4 4v135q0 4 4 4h89q20 0 35 13t15 34v32q0 18 -13.5 29t-26.5 13.5t-25 2.5q-33 0 -73.5 -5t-63 -9.5t-26.5 -5.5q-6 -2 -6 3q0 1 -11.5 64 t-11.5 65q-1 4 2 6q5 3 25 9t68 14t98 8q38 0 67.5 -3t62.5 -13t54 -27t35 -47t14 -72v-68q0 -26 -13.5 -52t-26.5 -39l-13 -13v-10q3 -1 7 -3.5t15.5 -12t20 -21.5t15.5 -32t7 -44v-81q0 -51 -19 -85t-54.5 -50.5t-73 -22.5t-89.5 -6q-56 0 -105.5 7t-71.5 15z" />
<glyph unicode="4" horiz-adv-x="556" d="M468 0h-148q-4 0 -4 4v90h-264q-4 0 -4 4v139q0 7 3 14l163 425q2 4 5 4h168q4 0 2 -4l-155 -420v-10h82v100q0 4 4 4h148q4 0 4 -4v-100h43q4 0 4 -4v-144q0 -4 -4 -4h-43v-90q0 -4 -4 -4z" />
<glyph unicode="5" horiz-adv-x="556" d="M265 -11q-113 0 -200 29q-2 1 -2 6q1 1 13 65t12 65q2 3 5 2t29 -5t68 -8.5t74 -4.5q25 0 46 10.5t21 34.5v39q0 32 -20.5 45t-44.5 13h-184q-3 0 -3 4v387q0 9 9 9h388q4 0 4 -4v-134q0 -4 -4 -4h-245v-118h40q34 0 60.5 -2.5t60 -12t55.5 -26t37.5 -48t15.5 -74.5v-104 q0 -45 -16 -77t-38.5 -48.5t-57.5 -25.5t-61 -11t-62 -2z" />
<glyph unicode="6" horiz-adv-x="563" d="M281 128q13 0 21.5 2t19 9t16 23.5t5.5 41.5v29q0 38 -11.5 50.5t-32.5 12.5q-16 0 -34 -3.5t-29 -6.5l-10 -4v-116q0 -38 55 -38zM293 -10q-234 0 -234 175v338q0 37 10.5 67t26.5 49t39 33.5t43.5 21.5t44.5 11.5t38 5.5t28 1q21 0 41 -1.5t36 -3.5t31 -4.5t26.5 -6 t21.5 -6.5t17 -6t12 -5t8 -3l3 -2q2 -1 2 -6q-1 -3 -8.5 -34t-14.5 -60t-7 -31t-4 -2l-11 2q-10 2 -26.5 5.5t-36.5 6.5t-43.5 5t-43.5 2q-21 0 -43.5 -10.5t-22.5 -35.5v-76q78 14 109 14q27 0 47.5 -3t45.5 -14t41 -30.5t27 -56t11 -86.5v-49q0 -55 -13.5 -94t-33 -60 t-50.5 -33t-56.5 -15t-60.5 -3z" />
<glyph unicode="7" horiz-adv-x="536" d="M274 1h-169q-4 0 -3 4l194 518v10h-232q-4 0 -4 4v139q0 4 4 4h412q4 0 4 -4v-132q0 -6 -3 -13l-197 -526q-3 -4 -6 -4z" />
<glyph unicode="8" horiz-adv-x="556" d="M278 128q60 0 60 61v29q0 29 -19 41t-41 12t-41 -12.5t-19 -40.5v-29q0 -61 60 -61zM278 423q21 0 38.5 11.5t17.5 37.5v29q0 55 -56 55t-56 -55v-29q0 -25 16.5 -37t39.5 -12zM277 -10q-36 0 -64.5 3.5t-60.5 15t-53 31t-35 55.5t-14 84v49q0 22 7 42.5t17 34t20.5 23.5 t17.5 14l7 5v4q-6 4 -15 12t-24 36t-15 60v48q0 50 13 86t31 54.5t49 29t56.5 13t63.5 2.5q37 0 63.5 -2.5t57 -13.5t49 -30t31 -54.5t12.5 -84.5v-49q0 -31 -13.5 -58t-27.5 -38l-14 -12v-3l7.5 -5t16.5 -13.5t21.5 -23.5t17 -33.5t7.5 -43.5v-49q0 -48 -13.5 -83.5 t-34 -55.5t-52 -31.5t-61 -15t-68.5 -3.5z" />
<glyph unicode="9" horiz-adv-x="556" d="M282 549q-13 0 -21.5 -2t-19 -9t-16 -23t-5.5 -41v-35q0 -38 11.5 -50.5t32.5 -12.5q16 0 34 3.5t28 6.5l11 4v121q0 38 -55 38zM270 687q234 0 234 -175v-328q0 -37 -10.5 -67t-26.5 -49t-39 -33.5t-43.5 -21.5t-44.5 -11.5t-38 -5.5t-28 -1q-21 0 -41 1t-36.5 3 t-31.5 4.5t-27 5.5t-21.5 6t-17.5 5.5t-13 4.5t-8 3l-3 2q-2 1 -2 6q1 5 15.5 62.5t16.5 62.5q1 3 4 3q4 -1 26.5 -5.5t63 -9t72.5 -4.5q12 0 25.5 3t27 14.5t13.5 29.5v60q-78 -14 -109 -14q-27 0 -47.5 3t-45.5 14t-41 30.5t-27 56t-11 86.5v54q0 55 13.5 94t33 60 t50.5 33t56.5 15t60.5 3z" />
<glyph unicode=":" horiz-adv-x="287" d="M70 0q-4 0 -4 4v135q0 4 4 4h148q4 0 4 -4v-135q0 -4 -4 -4h-148zM70 344q-4 0 -4 4v135q0 4 4 4h148q4 0 4 -4v-135q0 -4 -4 -4h-148z" />
<glyph unicode=";" horiz-adv-x="287" d="M13 -115q-4 0 -3 4l69 265q1 4 4 4h139q5 0 3 -4l-98 -265q-1 -4 -5 -4h-109zM70 324q-4 0 -4 4v155q0 4 4 4h148q4 0 4 -4v-155q0 -4 -4 -4h-148z" />
<glyph unicode="&#x3c;" horiz-adv-x="556" d="M499 40l-441 171q-3 3 -3 5v116q0 2 3 5l441 172q3 1 3 -3v-140q0 -4 -3 -5l-231 -86v-3q229 -83 231 -84q3 -2 3 -5v-140z" />
<glyph unicode="=" horiz-adv-x="556" d="M57 98q-3 0 -3 4v131q0 4 3 4h440q4 0 4 -4v-131q0 -4 -4 -4h-440zM57 317q-3 0 -3 4v131q0 4 3 4h440q4 0 4 -4v-131q0 -4 -4 -4h-440z" />
<glyph unicode="&#x3e;" horiz-adv-x="556" d="M57 40q-1 1 -2 3v140q0 3 2 5l232 84v3q-229 84 -232 86q-2 2 -2 5v140q1 3 2 3l441 -172q4 -2 4 -5v-116q0 -3 -4 -5z" />
<glyph unicode="?" horiz-adv-x="481" d="M307 0h-149q-4 0 -4 4v135q0 4 4 4h149q3 0 3 -4v-135q0 -4 -3 -4zM310 208h-152q-4 0 -4 4v23q0 41 18 79.5t40 62.5t40 50.5t18 45.5v24q0 23 -15.5 33.5t-30.5 10.5q-18 0 -38.5 -2.5t-37.5 -6t-30.5 -7t-21.5 -5.5l-9 -3q-4 0 -5 2q0 1 -15.5 62t-15.5 62q-2 5 2 6 q5 3 23.5 10.5t62 17t88.5 9.5q208 0 208 -169v-44q0 -26 -19 -58.5t-41.5 -59.5t-41.5 -60.5t-19 -59.5v-23q0 -4 -4 -4z" />
<glyph unicode="@" horiz-adv-x="909" d="M450 163q31 0 40.5 9t9.5 40v131q0 20 -52 20q-22 0 -32.5 -14.5t-10.5 -50.5v-71q0 -22 4 -35.5t12 -19.5t14 -7.5t15 -1.5zM452 -159q-41 0 -76 3.5t-77.5 14.5t-76 29.5t-67 50.5t-56 75t-36 107t-13.5 142q0 107 27.5 186.5t67.5 122.5t98 69t106 33t104 7 q68 0 121 -7.5t109 -32.5t92.5 -67t60 -115t23.5 -173q0 -74 -16.5 -123.5t-46.5 -72t-59 -30.5t-66 -8q-62 0 -104 27q-39 -27 -120 -27q-40 0 -67.5 5.5t-54.5 22t-40.5 51.5t-13.5 89v85q0 92 41.5 130t105.5 38q30 0 50.5 -4.5t25.5 -8.5l6 -4v9q0 3 4 3h127q4 0 4 -3 v-240q0 -59 43 -59q17 0 27.5 6t19.5 34.5t9 81.5q0 163 -65 221.5t-216 58.5q-143 0 -208 -69t-65 -232q0 -75 16 -130.5t41 -87.5t62.5 -51.5t73 -25.5t79.5 -6q42 0 96 7t84.5 12.5t35.5 7.5q3 1 5 -2l26 -104q0 -5 -1 -6q-120 -40 -246 -40z" />
<glyph unicode="A" horiz-adv-x="635" d="M178 0h-174q-5 0 -3 4l218 672q1 4 4 4h191q5 0 6 -4l212 -672q2 -4 -3 -4h-174q-4 0 -5 4l-27 107h-212q-28 -104 -29 -107q-1 -4 -4 -4zM248 244h139l-58 229h-22z" />
<glyph unicode="B" horiz-adv-x="604" d="M233 133h78q75 0 75 46v54q0 52 -75 52h-78v-152zM233 407h70q27 0 36 -1q22 35 22 76q0 65 -68 65h-60v-140zM333 0h-273v680h267q25 0 48.5 -2.5t54 -13.5t52 -29t37 -51.5t15.5 -79.5q0 -64 -43 -141q35 -23 52 -51t17 -77v-63q0 -46 -13.5 -79t-33 -51t-52 -27.5 t-60 -12t-68.5 -2.5z" />
<glyph unicode="C" horiz-adv-x="565" d="M320 -10q-46 0 -80.5 4.5t-73 20.5t-63 43t-41 75.5t-16.5 115.5v190q0 65 16 112t41 74t63.5 42.5t74 20t81.5 4.5q130 0 184 -27q3 -3 2 -6q0 -1 -12 -34t-23.5 -65t-11.5 -33q-1 -3 -6 -3q-2 1 -19 4t-50 6t-63 3q-22 0 -36 -3t-31.5 -13t-26 -35t-8.5 -64v-159 q0 -71 24 -91t75 -20q22 0 45 1.5t40 3.5t31 4t22 3l9 2q2 2 4 -2l47 -133q1 -3 -2 -6q-70 -35 -196 -35z" />
<glyph unicode="D" horiz-adv-x="620" d="M234 157h74q23 0 36 3t26.5 14t19 35.5t5.5 64.5v134q0 39 -6 63.5t-19 35t-26 13.5t-36 3h-74v-366zM308 0h-248v680h248q29 0 48 -1t49.5 -6t51 -15t44.5 -29t38.5 -45.5t24 -67.5t9.5 -93v-161q0 -53 -9 -94.5t-23 -68.5t-36.5 -46.5t-43 -29.5t-51 -15.5t-51 -6.5 t-51.5 -1z" />
<glyph unicode="E" horiz-adv-x="549" d="M60 0v680h441q4 0 4 -4v-141q0 -4 -4 -4h-267v-114h220q4 0 4 -4v-140q0 -4 -4 -4h-220v-120h267q4 0 4 -4v-141q0 -4 -4 -4h-441z" />
<glyph unicode="F" horiz-adv-x="544" d="M64 0q-4 0 -4 4v676h441q4 0 4 -4v-141q0 -4 -4 -4h-267v-143h220q4 0 4 -4v-141q0 -4 -4 -4h-220v-235q0 -4 -4 -4h-166z" />
<glyph unicode="G" horiz-adv-x="618" d="M322 -10q-44 0 -76.5 3.5t-72.5 18.5t-65.5 41.5t-43 76t-17.5 118.5v191q0 50 10 90t25.5 65.5t40.5 44.5t47 29t53 15.5t52.5 6.5t50.5 1q58 0 112.5 -7t78 -13t27.5 -8q3 -2 2 -6l-39 -129q-1 -3 -6 -3q-1 1 -27 3.5t-69 5.5t-79 3q-23 0 -37.5 -3t-32 -13t-26 -34.5 t-8.5 -63.5v-163q0 -71 24.5 -92.5t75.5 -21.5l101 6v100h-79q-4 0 -4 4v133q0 4 4 4h222v-381q-163 -22 -244 -22z" />
<glyph unicode="H" horiz-adv-x="646" d="M64 0q-4 0 -4 4v672q0 4 4 4h166q4 0 4 -4v-261h178v261q0 4 4 4h167q3 0 3 -4v-672q0 -4 -3 -4h-167q-4 0 -4 4v262h-178v-262q0 -4 -4 -4h-166z" />
<glyph unicode="I" horiz-adv-x="294" d="M64 0q-4 0 -4 4v672q0 4 4 4h166q4 0 4 -4v-672q0 -4 -4 -4h-166z" />
<glyph unicode="J" horiz-adv-x="524" d="M209 -10q-95 0 -176 27q-3 1 -1 6l40 132q2 5 5 3q30 -10 126 -10q88 0 88 73v455q0 4 4 4h166q4 0 4 -4v-470q0 -59 -16.5 -101t-40 -64t-61.5 -34t-67 -14.5t-71 -2.5z" />
<glyph unicode="K" horiz-adv-x="647" d="M64 0q-4 0 -4 4v672q0 4 4 4h166q4 0 4 -4v-262h40q143 258 145 262q3 4 5 4h181q4 0 1 -4l-192 -332q203 -337 205 -340q3 -4 -1 -4h-181q-3 0 -6 4l-147 261h-50v-261q0 -4 -4 -4h-166z" />
<glyph unicode="L" horiz-adv-x="534" d="M60 0v676q0 4 4 4h166q4 0 4 -4v-527h267q4 0 4 -4v-141q0 -4 -4 -4h-441z" />
<glyph unicode="M" horiz-adv-x="801" d="M64 0q-4 0 -4 4v672q0 4 4 4h197q5 0 6 -3l130 -300h14q124 295 125 298q2 5 8 5h195q4 0 4 -4v-672q0 -4 -4 -4h-164q-3 0 -3 4v356h-15q-89 -210 -90 -213q-3 -4 -8 -4h-115q-6 0 -8 6l-91 211h-14v-356q0 -4 -4 -4h-163z" />
<glyph unicode="N" horiz-adv-x="668" d="M60 0q-4 0 -4 4v672q0 4 5 4h181q4 0 6 -3l189 -377h11v376q0 4 3 4h164q4 0 4 -4v-672q0 -4 -5 -4h-185q-5 0 -6 4l-188 375h-11v-375q0 -4 -4 -4h-160z" />
<glyph unicode="O" horiz-adv-x="618" d="M308 145q25 0 38.5 3t26 14t17.5 34.5t5 63.5v162q0 74 -19.5 93.5t-67.5 19.5q-24 0 -37 -2.5t-26.5 -13t-19 -34.5t-5.5 -63v-162q0 -75 19 -95t69 -20zM308 -11q-46 0 -77.5 3.5t-69.5 18t-61.5 41.5t-39.5 76.5t-16 119.5v189q0 68 16 116.5t39.5 74.5t62 40.5t70 18 t76.5 3.5q44 0 75 -3t69.5 -17.5t62 -40.5t40 -74.5t16.5 -117.5v-189q0 -52 -8.5 -92.5t-21.5 -67.5t-35.5 -46.5t-42.5 -29.5t-50 -15.5t-51.5 -6.5t-53.5 -1z" />
<glyph unicode="P" horiz-adv-x="603" d="M234 366h87q15 0 30 3.5t31.5 17.5t16.5 38v44q0 62 -78 62h-87v-165zM230 0h-166q-4 0 -4 4v676h271q242 0 242 -195v-75q0 -38 -10 -68t-25 -50t-37.5 -34.5t-43.5 -22t-47 -12t-43 -5.5t-36 -1h-97v-213q0 -4 -4 -4z" />
<glyph unicode="Q" horiz-adv-x="618" d="M308 -11q-46 0 -77.5 3.5t-69.5 18t-61.5 41.5t-39.5 76.5t-16 119.5v189q0 68 16 116.5t39.5 74.5t62 40.5t70 18t76.5 3.5q44 0 75 -3t69.5 -17.5t62 -40.5t40 -74.5t16.5 -117.5v-189q0 -100 -30 -158l37 -38q1 -3 -1 -5q-4 -6 -85 -87q-3 -3 -6 0l-44 44 q-48 -15 -134 -15zM275 178q-3 3 0 6l87 87q2 2 4 0l4 -3q3 -4 10.5 -12t14.5 -15v19v162q0 74 -19.5 93.5t-67.5 19.5q-24 0 -37 -2.5t-26.5 -13t-19 -34.5t-5.5 -63v-162q0 -74 19 -94.5t67 -20.5z" />
<glyph unicode="R" horiz-adv-x="618" d="M233 366h88q15 0 30.5 4t31.5 19t16 40v37q0 37 -25 51t-54 14h-87v-165zM229 0h-165q-4 0 -4 4v676h271q24 0 46 -2.5t51.5 -9t53.5 -21t45.5 -36.5t33.5 -58t12 -82v-49q0 -64 -25.5 -108.5t-65.5 -64.5l108 -245q1 -4 -3 -4h-184q-4 0 -5 4l-84 213h-81v-213 q0 -4 -4 -4z" />
<glyph unicode="S" horiz-adv-x="595" d="M294 -10q-73 0 -135 9.5t-81.5 16t-27.5 10.5q-4 2 -2 6l39 137q0 3 5 3q8 -3 29 -8t73 -12t102 -7q42 0 64.5 7.5t22.5 30.5v35q0 41 -111 54q-120 13 -168.5 49.5t-48.5 127.5v84q0 159 242 159q66 0 122.5 -8.5t75.5 -14.5t25 -9q3 -1 3 -6l-38 -130q-1 -3 -5 -3 q-4 1 -27.5 5.5t-68.5 9.5t-85 5q-65 0 -65 -36v-31q0 -22 18.5 -32.5t82.5 -18.5q123 -16 174.5 -55.5t51.5 -128.5v-84q0 -43 -17.5 -74.5t-43 -48.5t-63.5 -27t-70.5 -12.5t-72.5 -2.5z" />
<glyph unicode="T" horiz-adv-x="560" d="M197 0q-4 0 -4 4v523h-168q-4 0 -4 4v145q0 4 4 4h511q3 0 3 -4v-145q0 -4 -3 -4h-169v-523q0 -4 -4 -4h-166z" />
<glyph unicode="U" horiz-adv-x="635" d="M297 -10q-136 0 -188.5 61.5t-52.5 199.5v425q0 4 4 4h167q3 0 3 -4v-413q0 -25 1 -39t4.5 -31t10.5 -25.5t20 -14.5t32 -6h40q42 0 55 26t13 90v413q0 4 3 4h167q4 0 4 -4v-425q0 -65 -9 -108.5t-34.5 -80.5t-74.5 -54.5t-125 -17.5h-40z" />
<glyph unicode="V" horiz-adv-x="643" d="M221 0q-3 0 -5 3q0 1 -100 336.5t-100 336.5q0 4 3 4h174q4 0 5 -4l114 -434h18q117 431 117 434q0 4 4 4h174q4 0 3 -4l-205 -672q-2 -4 -5 -4h-197z" />
<glyph unicode="W" horiz-adv-x="881" d="M140 0q-5 0 -6 5l-116 671q-1 4 2 4h174q4 0 5 -4l62 -406h19q85 270 86 273q1 4 5 4h137q4 0 5 -5l87 -272h19q61 403 62 406q1 4 5 4h174q5 0 3 -4l-115 -671q-1 -5 -7 -5h-209q-5 0 -6 5l-80 267h-12q-78 -260 -79 -266q-2 -6 -8 -6h-207z" />
<glyph unicode="X" horiz-adv-x="609" d="M15 0q-4 0 -3 4l198 347q-184 322 -186 325q-3 4 3 4h181q4 0 5 -4l88 -163h7q84 160 86 163q3 4 5 4h181q5 0 3 -4l-185 -325q196 -345 197 -347q3 -4 -2 -4h-181q-3 0 -6 4l-98 185h-7q-98 -183 -99 -185q-1 -4 -6 -4h-181z" />
<glyph unicode="Y" horiz-adv-x="597" d="M215 0q-4 0 -4 4v255q-198 414 -199 417q-3 4 3 4h175q4 0 5 -4l103 -231h6q99 228 100 231q1 4 5 4h172q4 0 3 -4l-199 -417v-255q0 -4 -3 -4h-167z" />
<glyph unicode="Z" horiz-adv-x="555" d="M45 0q-4 0 -4 4v140q0 4 5 12l259 361v11h-249q-3 0 -3 4v144q0 4 3 4h451q4 0 4 -4v-139q0 -8 -4 -13l-259 -361v-11h259q4 0 4 -4v-144q0 -4 -4 -4h-462z" />
<glyph unicode="[" horiz-adv-x="318" d="M59 -94v844h222q4 0 4 -4v-119q0 -4 -4 -4h-84v-590h84q4 0 4 -4v-119q0 -4 -4 -4h-222z" />
<glyph unicode="\" horiz-adv-x="446" d="M396 -5h-154q-4 0 -5 4l-186 684q-1 4 2 4h155q5 0 5 -4q0 -2 92.5 -341t93.5 -343t-3 -4z" />
<glyph unicode="]" horiz-adv-x="318" d="M259 -94h-222q-4 0 -4 4v119q0 4 4 4h84v590h-84q-4 0 -4 4v119q0 4 4 4h222v-844z" />
<glyph unicode="^" horiz-adv-x="556" d="M49 246l162 430q2 4 4 4h125q3 0 5 -4l160 -430q2 -4 -3 -4h-144q-3 0 -4 4l-75 222h-3q-75 -220 -76 -222q-2 -4 -6 -4h-143q-4 0 -2 4z" />
<glyph unicode="_" horiz-adv-x="548" d="M14 -169q-4 0 -4 4v109q0 4 4 4h520q4 0 4 -4v-109q0 -4 -4 -4h-520z" />
<glyph unicode="`" horiz-adv-x="489" d="M232 550l-101 148q-3 4 2 4h139q4 0 5 -4l76 -148q3 -4 -1 -4h-115q-3 0 -5 4z" />
<glyph unicode="a" horiz-adv-x="527" d="M242 107q69 0 69 23v51q-40 14 -76 14q-19 0 -35 -8t-16 -21v-19q0 -19 17 -29.5t41 -10.5zM186 -12q-66 0 -108 32.5t-42 91.5v55q0 63 47 96.5t112 33.5q24 0 52.5 -3.5t45.5 -6.5l17 -3v42q0 23 -19 32t-69 9q-17 0 -35.5 -1t-34 -3t-28.5 -4t-20.5 -3t-8.5 -1 q-4 0 -5 3q-1 2 -13.5 53.5t-12.5 52.5q0 4 3 5q4 3 21.5 8.5t61.5 13t94 7.5q36 0 61.5 -2t59.5 -12t55 -27.5t36 -52t15 -82.5v-318q0 -4 -4 -4h-152q-4 0 -4 4v7q-30 -23 -125 -23z" />
<glyph unicode="b" horiz-adv-x="551" d="M293 132q10 0 17 2t16 9t14 24.5t5 44.5v64q0 50 -10 64.5t-32 14.5q-16 0 -35.5 -3.5t-31.5 -7.5l-11 -3v-184q0 -25 68 -25zM222 0h-160q-4 0 -4 4v672q0 4 4 4h160q3 0 3 -4v-197q78 14 110 14q29 0 50 -3t47 -14.5t42 -32.5t27.5 -61t11.5 -95v-84q0 -49 -7 -85.5 t-22 -58.5t-30.5 -36t-39.5 -20t-41.5 -7.5t-43.5 -1.5q-85 0 -104 21v-11q0 -4 -3 -4z" />
<glyph unicode="c" horiz-adv-x="490" d="M281 -8q-45 0 -75.5 3t-63 14.5t-52 32.5t-32 59t-12.5 91v110q0 52 15.5 89.5t37.5 57.5t56.5 31.5t62 14t64.5 2.5q100 0 150 -25q4 -3 3 -6l-32 -110q-1 -3 -5 -3q-1 0 -7 0.5t-16 1.5t-23 2t-30 1.5t-34 0.5q-15 0 -30 -4.5t-29.5 -21.5t-14.5 -44v-87 q0 -45 19 -58.5t54 -13.5q93 0 111 9q6 0 6 -3q0 -1 18.5 -57t18.5 -57q2 -3 -2 -5l-3 -1q-2 -1 -5.5 -2.5t-9.5 -3.5t-13.5 -4t-17 -4t-21.5 -4t-25 -3t-29.5 -2t-33.5 -1z" />
<glyph unicode="d" horiz-adv-x="551" d="M489 0h-160q-4 0 -4 4v12q-23 -25 -104 -25q-32 0 -52 2t-47.5 13.5t-44 33t-28 62.5t-11.5 99v87q0 55 11.5 94.5t27.5 60.5t42 33t47 14.5t50 2.5q15 0 42 -3.5t47 -7.5l20 -3v197q0 4 5 4h159q3 0 3 -4v-672q0 -4 -3 -4zM259 129q66 0 66 28v184q-41 14 -78 14 q-21 0 -31 -14.5t-10 -63.5v-68q0 -27 5 -44.5t14 -24.5t16 -9t18 -2z" />
<glyph unicode="e" horiz-adv-x="528" d="M207 292h109q0 67 -53 67q-22 0 -39 -15t-17 -52zM277 -10q-239 0 -239 214v84q0 209 225 209q217 0 217 -209v-97h-273q0 -38 19 -52.5t53 -14.5q37 0 76.5 3.5t60.5 6.5t24 4q2 1 4 -3q28 -98 28 -107q0 -7 -2 -8l-4 -1q-4 -1 -9.5 -3t-13.5 -4.5t-18.5 -4.5 t-22.5 -4.5t-26.5 -5t-29.5 -4t-33 -2.5t-36 -1z" />
<glyph unicode="f" horiz-adv-x="378" d="M83 0q-4 0 -4 4v361h-40q-3 0 -3 4v114q0 4 3 4h40v3q0 54 13.5 92.5t31.5 58t47.5 30.5t51 13t52.5 2q22 0 46.5 -2.5t37.5 -4.5t15 -3q3 -1 3 -5q0 -2 -7 -58.5t-8 -62.5q0 -3 -5 -3q-1 0 -11 1t-24 2t-23 1q-52 0 -52 -61v-3h94q4 0 4 -4v-114q0 -4 -4 -4h-94v-361 q0 -4 -4 -4h-160z" />
<glyph unicode="g" horiz-adv-x="546" d="M244 131q15 0 34.5 3.5t31.5 7.5l12 4v183q0 26 -68 26q-23 0 -37.5 -15.5t-14.5 -65.5v-64q0 -49 10 -64t32 -15zM244 -220q-122 0 -188 22q-3 1 -1 5q0 2 17 59.5t17 58.5q1 4 5 3q1 0 8.5 -1t21 -3t30 -3.5t39.5 -2.5t46 -1q17 0 29.5 2t26 8t20.5 20t7 36v31 q-74 -14 -110 -14q-41 0 -67 5.5t-54.5 24t-42.5 61t-14 108.5v84q0 56 10.5 95.5t26 61.5t41.5 34.5t49.5 15.5t56.5 3q82 0 104 -22v12q0 4 4 4h159q4 0 4 -4v-500q0 -56 -15 -95t-36 -60t-57 -32t-64.5 -13.5t-72.5 -2.5z" />
<glyph unicode="h" horiz-adv-x="563" d="M62 0q-4 0 -4 4v672q0 4 4 4h160q3 0 3 -4v-202q73 19 110 19q28 0 48 -2.5t46.5 -14t43 -32t28.5 -60.5t12 -96v-284q0 -4 -4 -4h-160q-3 0 -3 4v273q0 34 -7 52t-14.5 21.5t-21.5 3.5q-15 0 -34.5 -4t-31.5 -8l-12 -3v-335q0 -4 -3 -4h-160z" />
<glyph unicode="i" horiz-adv-x="283" d="M61 0q-4 0 -4 4v479q0 4 4 4h160q3 0 3 -4v-479q0 -4 -3 -4h-160zM61 550q-4 0 -4 4v122q0 4 4 4h159q4 0 4 -4v-122q0 -4 -4 -4h-159z" />
<glyph unicode="j" horiz-adv-x="303" d="M49 -186q-19 0 -43.5 2.5t-40.5 5.5l-16 2q-3 2 -3 5q0 2 8 62t9 62q1 3 4 3q1 0 11 -1t23.5 -2t23.5 -1q14 0 23.5 2.5t19 18t9.5 44.5v466q0 4 4 4h160q4 0 4 -4v-466q0 -55 -13 -95t-31.5 -60.5t-47.5 -31.5t-51 -13.5t-53 -2.5zM81 550q-3 0 -3 4v122q0 4 3 4h159 q4 0 4 -4v-122q0 -4 -4 -4h-159z" />
<glyph unicode="k" horiz-adv-x="567" d="M62 0q-4 0 -4 4v672q0 4 4 4h160q3 0 3 -4v-359h35q91 163 93 166q3 4 6 4h175q3 0 1 -4l-138 -231q159 -246 160 -248q4 -4 -1 -4h-178q-3 0 -6 4l-113 182h-34v-182q0 -4 -3 -4h-160z" />
<glyph unicode="l" horiz-adv-x="337" d="M247 -6q-54 0 -84 5.5t-57.5 25.5t-38.5 61.5t-11 110.5v479q0 4 4 4h159q3 0 3 -4v-479q0 -39 13 -52t39 -13q9 0 20.5 1t19.5 2t9 1q4 0 5 -4q1 -1 8 -61t7 -62q0 -4 -3 -5q-2 -1 -15 -3t-35.5 -4.5t-42.5 -2.5z" />
<glyph unicode="m" horiz-adv-x="842" d="M62 0q-4 0 -4 4v479q0 4 4 4h160q3 0 3 -4v-9q72 19 107 19q88 0 130 -42q76 42 151 42q30 0 52.5 -3.5t47 -15.5t40 -33.5t26 -60t10.5 -92.5v-284q0 -4 -4 -4h-159q-4 0 -4 4v273q0 35 -6 52.5t-13.5 21t-21.5 3.5q-15 0 -34 -5t-30 -10l-11 -5q2 -18 2 -46v-284 q0 -4 -4 -4h-160q-3 0 -3 4v273q0 34 -6.5 52t-13.5 21.5t-21 3.5q-15 0 -33.5 -4t-30.5 -8l-11 -3v-335q0 -4 -3 -4h-160z" />
<glyph unicode="n" horiz-adv-x="563" d="M62 0q-4 0 -4 4v479q0 4 4 4h160q3 0 3 -4v-9q75 19 110 19q28 0 48 -2.5t46.5 -14t43 -32t28.5 -60.5t12 -96v-284q0 -4 -4 -4h-160q-3 0 -3 4v273q0 49 -10.5 63t-32.5 14q-15 0 -34.5 -4t-31.5 -8l-12 -3v-335q0 -4 -3 -4h-160z" />
<glyph unicode="o" horiz-adv-x="533" d="M267 130q19 0 30 4t20 22.5t9 53.5v71q0 48 -15.5 63t-44.5 15q-13 0 -22 -2.5t-18 -9.5t-14 -23.5t-5 -42.5v-71q0 -50 15 -65t45 -15zM267 -8q-40 0 -69.5 3.5t-61 16.5t-51.5 35t-33 61t-13 94v87q0 55 13.5 95t34 61.5t53 33.5t60 15t66.5 3t65.5 -2.5t60 -14.5 t54 -33t34.5 -60.5t14 -94.5v-90q0 -56 -13.5 -96t-33 -62t-52 -34t-60.5 -15t-68 -3z" />
<glyph unicode="p" horiz-adv-x="551" d="M62 487h160q3 0 3 -4v-12q19 22 103 22q32 0 52.5 -2t48.5 -13.5t44 -33t28 -62.5t12 -99v-86q0 -55 -11.5 -94.5t-28 -60.5t-42.5 -33t-47 -14.5t-50 -2.5q-14 0 -41.5 3t-47.5 7l-20 3v-194q0 -4 -4 -4h-159q-4 0 -4 4v672q0 4 4 4zM292 355q-67 0 -67 -25v-187 q42 -13 77 -13q23 0 33 14.5t10 63.5v67q0 35 -10 54t-19.5 22.5t-23.5 3.5z" />
<glyph unicode="q" horiz-adv-x="551" d="M259 355q-10 0 -17.5 -2t-16 -9t-13.5 -24.5t-5 -44.5v-67q0 -49 10 -63.5t31 -14.5q16 0 35.5 3t30.5 7l12 3v187q0 25 -67 25zM330 487h160q3 0 3 -4v-672q0 -4 -3 -4h-160q-4 0 -4 4v194q-77 -13 -110 -13q-29 0 -49.5 2.5t-46.5 14.5t-42 33t-27.5 60.5t-11.5 94.5 v86q0 58 11.5 99t28 62.5t44 33t47.5 13.5t52 2q84 0 104 -22v12q0 4 4 4z" />
<glyph unicode="r" horiz-adv-x="436" d="M62 0q-4 0 -4 4v479q0 4 4 4h160q3 0 3 -4v-14q56 24 89 24q30 0 57.5 -5t38.5 -9.5t14 -6.5q2 -1 2 -5q0 -1 -18.5 -58t-19.5 -59q0 -3 -4 -3q-24 8 -87 8q-15 0 -33 -6t-28 -12l-11 -6v-327q0 -4 -3 -4h-160z" />
<glyph unicode="s" horiz-adv-x="508" d="M254 -8q-129 0 -204 25q-3 1 -3 5l33 113q1 2 4 2l10 -2q11 -2 28.5 -4.5t38 -4.5t46 -4t47.5 -2q53 0 53 19v17q0 14 -16 19.5t-63 10.5q-74 8 -123 37t-49 86v60q0 128 197 128q114 0 186 -24q2 -1 2 -5q0 -1 -14 -53t-15 -54q-2 -3 -5 -3q-3 1 -22.5 4t-57 6t-71.5 3 q-45 0 -45 -16v-17q0 -19 90 -28q82 -8 122 -37.5t40 -85.5v-61q0 -43 -18 -71.5t-51 -41t-65 -17t-75 -4.5z" />
<glyph unicode="t" horiz-adv-x="365" d="M262 -5q-29 0 -47.5 1t-41 5t-36 12.5t-28 23t-22 36t-12.5 53t-5 72.5v168h-44q-4 0 -4 4v114q0 4 4 4h44v149q0 4 4 4h160q4 0 4 -4v-149h89q4 0 4 -4v-114q0 -4 -4 -4h-89v-168q0 -42 13.5 -53.5t37.5 -11.5q11 0 22.5 1t18.5 2t8 1q3 0 4 -4q1 -2 8.5 -61.5 t7.5 -61.5q1 -2 -2 -5q-40 -10 -94 -10z" />
<glyph unicode="u" horiz-adv-x="566" d="M506 487q3 0 3 -4v-479q0 -4 -3 -4h-160q-4 0 -4 4v7q-75 -19 -108 -19q-29 0 -48.5 2.5t-46.5 14t-43.5 32t-28.5 60.5t-12 96v286q0 4 3 4h160q4 0 4 -4v-275q0 -49 10.5 -63t32.5 -14q15 0 34 3.5t31 7.5l12 4v337q0 4 4 4h160z" />
<glyph unicode="v" horiz-adv-x="529" d="M186 0q-3 0 -4 4l-167 479q-1 4 2 4h168q5 0 5 -4l70 -254h13q66 252 67 254q0 4 4 4h167q3 0 2 -4q-1 -2 -82.5 -235.5t-84.5 -243.5q-2 -4 -4 -4h-156z" />
<glyph unicode="w" horiz-adv-x="738" d="M139 0q-2 0 -3 4q-1 2 -55.5 239.5t-54.5 239.5q0 4 3 4h161q5 0 5 -4l47 -252h7q62 154 63 157q3 4 5 4h108q1 0 4 -4l64 -157h7q42 249 42 252q2 4 6 4h161q3 0 2 -4q-1 -3 -54 -240t-53 -239q-1 -4 -5 -4h-146q-3 0 -4 4l-75 193h-7q-76 -190 -77 -193q-1 -4 -4 -4 h-147z" />
<glyph unicode="x" horiz-adv-x="533" d="M20 0q-4 0 -2 4l157 248q-145 228 -147 231q-2 4 2 4h174q3 0 6 -4l52 -96h10q52 93 53 96q4 4 6 4h170q4 0 2 -4l-144 -231q155 -246 156 -248q3 -4 -2 -4h-172q-3 0 -6 4l-64 113h-10q-63 -110 -65 -113q-3 -4 -6 -4h-170z" />
<glyph unicode="y" horiz-adv-x="528" d="M73 -180q-3 0 -3 4q1 2 7 64t6 64q0 4 5 4h29q45 0 60 43l9 30q-169 451 -170 454q-2 4 2 4h166q5 0 5 -4l75 -239h9q69 236 69 239q2 4 5 4h163q3 0 2 -4q-1 -2 -47 -126t-96 -257.5t-58 -154.5q-13 -35 -28.5 -59t-30 -37t-36 -19.5t-38 -8t-45.5 -1.5h-60z" />
<glyph unicode="z" horiz-adv-x="491" d="M54 0q-4 0 -4 4v121q0 3 5 7l188 215v7h-183q-4 0 -4 4v125q0 4 4 4h381q4 0 4 -4v-125q0 -2 -3 -6l-189 -211v-8h192q4 0 4 -4v-125q0 -4 -4 -4h-391z" />
<glyph unicode="{" horiz-adv-x="372" d="M260 -91q-71 0 -102.5 33t-31.5 104v129q0 48 -15.5 69.5t-56.5 21.5q-4 0 -4 4v119q0 4 4 4q42 0 57 23t15 68v129q0 71 31 104t103 33h73q4 0 4 -4v-116q0 -4 -4 -4h-29q-24 0 -32 -11t-8 -32v-122q0 -61 -16.5 -87t-53.5 -43v-3q38 -16 54 -42.5t16 -86.5v-123 q0 -21 8 -32t33 -11h28q4 0 4 -4v-116q0 -4 -4 -4h-73z" />
<glyph unicode="|" horiz-adv-x="346" d="M109 -94q-4 0 -4 4v836q0 4 4 4h128q3 0 3 -4v-836q0 -4 -3 -4h-128z" />
<glyph unicode="}" horiz-adv-x="372" d="M112 -91h-73q-3 0 -3 4v116q0 4 3 4h29q24 0 32 11.5t8 31.5v123q0 60 16 86.5t54 42.5v3q-37 17 -53.5 43t-16.5 87v122q0 43 -39 43h-30q-3 0 -3 4v116q0 4 3 4h73q72 0 103.5 -33t31.5 -104v-129q0 -45 15 -68t56 -23q4 0 4 -4v-119q0 -4 -4 -4q-40 0 -55.5 -21.5 t-15.5 -69.5v-129q0 -71 -32 -104t-103 -33z" />
<glyph unicode="~" horiz-adv-x="556" d="M77 293q0 12 8 20q6 7 17 16t35.5 19.5t50.5 10.5q41 0 99 -29t88 -29q22 0 44 11.5t36.5 22.5t18.5 11t4 -7v-79q0 -13 -7 -21q-44 -49 -104 -49q-39 0 -96.5 30.5t-87.5 30.5q-23 0 -46 -11t-38 -22t-18 -11q-4 0 -4 5v81z" />
<glyph unicode="&#xa1;" horiz-adv-x="304" d="M88 680h148q4 0 4 -4v-135q0 -4 -4 -4h-148q-4 0 -4 4v135q0 4 4 4zM93 469h138q3 0 3 -4v-461q0 -4 -3 -4h-138q-3 0 -3 4v461q0 4 3 4z" />
<glyph unicode="&#xa2;" horiz-adv-x="533" d="M246 -97q-4 0 -4 4v89q-27 3 -43 5.5t-44 14.5t-44.5 31t-29.5 56.5t-13 89.5v104q0 48 13.5 84t31 55t44.5 31.5t44.5 16.5t40.5 6v89q0 4 4 4h90q3 0 3 -4v-87q82 -5 116 -27q4 -1 3 -5l-38 -111q-1 -2 -4 -2q-1 0 -6 1t-14 2t-21 2t-29.5 2t-36.5 1q-72 0 -72 -71v-80 q0 -44 18.5 -58t53.5 -14q30 0 57 2.5t39 4.5t14 3q6 0 6 -3q0 -1 19 -56.5t20 -57.5q2 -6 -2 -6l-6 -2q-5 -2 -15 -5.5t-23.5 -7t-34.5 -6t-44 -3.5v-88q0 -4 -3 -4h-90z" />
<glyph unicode="&#xa3;" horiz-adv-x="556" d="M87 0q-4 0 -4 4v253h-30q-3 0 -3 4v105q0 4 3 4h30v147q0 169 230 169q54 0 100.5 -9t64.5 -16.5t20 -9.5q3 -1 3 -6q-1 -3 -16 -65.5t-15 -63.5q-2 -3 -5 -3q-5 2 -24 6t-56.5 9.5t-68.5 5.5q-57 0 -57 -45v-119h145q3 0 3 -4v-105q0 -4 -3 -4h-145v-105h231q4 0 4 -4 v-144q0 -4 -4 -4h-403z" />
<glyph unicode="&#xa4;" horiz-adv-x="494" d="M247 214q13 0 22 1.5t18.5 7t14.5 18t5 31.5v25q0 35 -15.5 45.5t-41.5 10.5q-18 0 -30 -2.5t-23 -16t-11 -37.5v-25q0 -34 15.5 -46t45.5 -12zM184 51h-104q-4 0 -4 4q-1 58 33 99q-33 38 -33 99v65q0 65 35 96q-37 38 -35 98q0 4 4 4h103q3 0 4 -4q3 -26 19.5 -34.5 t43.5 -8.5q55 0 56 43q0 4 5 4h103q4 0 4 -4q0 -60 -32 -98q32 -34 32 -96v-65q0 -67 -34 -101q34 -39 34 -97q0 -4 -4 -4h-102q-4 0 -4 4q-4 25 -19.5 34t-43.5 9q-17 0 -27.5 -2.5t-19.5 -12.5t-9 -28q0 -4 -5 -4z" />
<glyph unicode="&#xa5;" horiz-adv-x="591" d="M213 0q-4 0 -4 4v116h-111q-4 0 -4 4v85q0 4 4 4h111v37h-111q-4 0 -4 4v85q0 4 4 4h69q-157 331 -158 333q-2 4 3 4h175q4 0 5 -4l103 -231h7q98 228 100 231q1 4 5 4h172q3 0 2 -4l-157 -333h66q4 0 4 -4v-85q0 -4 -4 -4h-107v-37h107q4 0 4 -4v-85q0 -4 -4 -4h-108 v-116q0 -4 -4 -4h-165z" />
<glyph unicode="&#xa6;" horiz-adv-x="346" d="M108 -94q-4 0 -4 4v358q0 4 4 4h128q3 0 3 -4v-358q0 -4 -3 -4h-128zM108 389q-4 0 -4 4v353q0 4 4 4h128q3 0 3 -4v-353q0 -4 -3 -4h-128z" />
<glyph unicode="&#xa7;" horiz-adv-x="524" d="M319 303q6 18 6 28v14q0 7 -12.5 8t-36.5 6t-45 19q-2 2 -6 2q-7 -2 -14 -10t-7 -19v-14q0 -20 98 -31q5 -1 10.5 -2t6.5 -1zM51 25q-3 2 -2 6q1 2 19 54.5t18 53.5q2 3 6 3q1 -1 24.5 -5.5t64.5 -9.5t76 -5q53 0 53 19v14q0 14 -15.5 19.5t-63.5 10.5q-172 19 -172 122 v58q0 39 25 68q-25 25 -25 66v58q0 129 197 129q100 0 184 -28q3 -1 3 -5q0 -1 -8 -27t-16 -51.5t-8 -26.5q0 -3 -5 -3q-3 1 -21.5 4t-55 6.5t-70.5 3.5q-45 0 -45 -16v-14q0 -12 21.5 -17.5t69.5 -10.5q35 -3 61 -10t50 -20t37 -36.5t13 -55.5v-61q0 -35 -24 -61 q24 -26 24 -69v-60q0 -36 -13.5 -61.5t-33 -39.5t-50 -21.5t-55 -9.5t-57.5 -2q-113 0 -206 31z" />
<glyph unicode="&#xa8;" horiz-adv-x="489" d="M88 550q-4 0 -4 4v122q0 4 4 4h118q3 0 3 -4v-122q0 -4 -3 -4h-118zM283 550q-4 0 -4 4v122q0 4 4 4h117q4 0 4 -4v-122q0 -4 -4 -4h-117z" />
<glyph unicode="&#xa9;" horiz-adv-x="772" d="M385 686q137 0 233 -101.5t96 -245.5q0 -143 -96.5 -244.5t-232.5 -101.5t-232.5 101.5t-96.5 244.5q0 144 96.5 245.5t232.5 101.5zM385 74q104 0 177.5 77.5t73.5 187.5t-73.5 188t-177.5 78t-177 -78t-73 -188t73.5 -187.5t176.5 -77.5zM400 152q-83 0 -129.5 33 t-46.5 120v74q0 148 176 148q73 0 111 -19q2 -2 2 -4l-26 -85q0 -1 -1 -1.5t-2 0.5h-4q-4 1 -11.5 2t-17 2t-22 1.5t-24.5 0.5q-55 0 -55 -53v-60q0 -19 4 -31t13 -16.5t17 -6t21 -1.5q14 0 27.5 1t22.5 2t16.5 2t11.5 2l4 1q2 0 4 -2q0 -1 13 -43t13 -43q0 -3 -2 -4 q-40 -20 -115 -20z" />
<glyph unicode="&#xaa;" horiz-adv-x="301" d="M114 384q-42 0 -66 20.5t-24 54.5v32q0 36 26.5 55.5t63.5 19.5l78 -8v26q0 23 -13.5 30.5t-45.5 7.5q-11 0 -22 -1t-20 -2t-16.5 -2.5l-12.5 -2.5l-4 -1q-2 0 -3 2l-13 48q0 3 1 3q34 17 99 17q26 0 43.5 -2.5t38 -11.5t31 -30.5t10.5 -55.5v-191q0 -2 -3 -2h-67 q-2 0 -2 2v12q-20 -20 -79 -20zM138 441q55 0 55 28v39q-37 8 -63 8q-17 0 -28 -7.5t-11 -18.5v-16q0 -14 12.5 -23.5t34.5 -9.5z" />
<glyph unicode="&#xab;" horiz-adv-x="630" d="M265 522q83 -83 85 -87q3 -2 0 -5l-158 -166q157 -164 158 -166q3 -2 0 -5q-83 -83 -85 -87q-3 -2 -5 0q-5 5 -125.5 129.5t-120.5 125.5q-3 3 0 6l246 255q2 2 5 0zM525 522q83 -83 85 -87q3 -2 0 -5l-157 -166q156 -164 157 -166q3 -2 0 -5l-85 -87q-3 -2 -5 0 q-1 2 -121.5 126.5t-124.5 128.5q-3 3 0 6q5 5 125 129.5t121 125.5q2 2 5 0z" />
<glyph unicode="&#xac;" horiz-adv-x="556" d="M362 209h-304q-3 0 -3 4v129q0 4 3 4h440q4 0 4 -4v-258q0 -4 -4 -4h-132q-4 0 -4 4v125z" />
<glyph unicode="&#xad;" horiz-adv-x="400" d="M49 207q-4 0 -4 4v129q0 4 4 4h301q4 0 4 -4v-129q0 -4 -4 -4h-301z" />
<glyph unicode="&#xae;" horiz-adv-x="434" d="M193 500h26q22 0 22 20v11q0 21 -23 21h-25v-52zM192 385h-51q-2 0 -2 1v213h83q73 0 73 -66v-15q0 -41 -28 -55l32 -77q1 -1 -1 -1h-56q-1 0 -1 1l-25 67h-23v-67zM216 341q59 0 100 43.5t41 105.5t-41 105.5t-100 43.5q-58 0 -99 -44t-41 -105q0 -62 41 -105.5 t99 -43.5zM216 684q77 0 131.5 -57t54.5 -137q0 -81 -54.5 -138t-131.5 -57q-76 0 -130 57t-54 138q0 80 54 137t130 57z" />
<glyph unicode="&#xaf;" horiz-adv-x="488" d="M396 563h-302q-4 0 -4 4v109q0 4 4 4h302q3 0 3 -4v-109q0 -4 -3 -4z" />
<glyph unicode="&#xb0;" horiz-adv-x="404" d="M198 491q19 0 28.5 7t9.5 30v26q0 21 -9 28.5t-27 7.5q-40 0 -40 -36v-26q0 -22 10 -29.5t28 -7.5zM198 387q-137 0 -137 124v62q0 121 141 121q133 0 133 -121v-62q0 -39 -12 -65t-33.5 -38t-42.5 -16.5t-49 -4.5z" />
<glyph unicode="&#xb1;" horiz-adv-x="556" d="M214 207q-3 0 -3 4v139h-154q-4 0 -4 4v129q0 4 4 4h154v139q0 4 3 4h128q4 0 4 -4v-139h152q4 0 4 -4v-129q0 -4 -4 -4h-152v-139q0 -4 -4 -4h-128zM58 0q-4 0 -4 4v125q0 4 4 4h440q4 0 4 -4v-125q0 -4 -4 -4h-440z" />
<glyph unicode="&#xb2;" horiz-adv-x="311" d="M273 270h-234q-2 0 -2 2v63q0 3 2 5q109 119 133 155q22 32 22 50v29q0 37 -54 37q-11 0 -24.5 -1.5t-24.5 -3.5t-20.5 -4t-15.5 -4l-6 -1q-1 -1 -2 -0.5t-1 1.5l-7 29l-7 29q0 4 1 4q42 21 108 21q132 0 132 -96v-46q0 -23 -20 -57.5t-39 -57.5t-66 -78v-6h125q1 0 1 -2 v-66q0 -2 -1 -2z" />
<glyph unicode="&#xb3;" horiz-adv-x="315" d="M38 285q-1 1 -1 3q0 1 7 30l6 29q0 1 3 1l7 -1q6 -1 16 -3t22 -4t26 -3t26 -1q55 0 55 37v26q0 46 -50 46h-46q-3 0 -3 2v62q0 2 3 2h47q16 0 28.5 10.5t12.5 28.5v25q0 38 -53 38q-18 0 -40.5 -3t-35.5 -6t-15 -4q-4 -2 -4 1l-6 29q-6 29 -6 30q0 2 1 3t13 5.5t38.5 9 t54.5 4.5q130 0 130 -94v-39q0 -18 -8 -34t-16 -23l-7 -8v-5q4 -2 10.5 -6.5t17 -23.5t10.5 -43v-44q0 -57 -36.5 -76t-94.5 -19q-31 0 -59 4.5t-41 8.5z" />
<glyph unicode="&#xb4;" horiz-adv-x="489" d="M258 550q-4 -4 -6 -4h-114q-3 0 -2 4l75 148q3 4 7 4h138q5 0 2 -4z" />
<glyph unicode="&#xb6;" horiz-adv-x="670" d="M261 -180q-4 0 -4 4v394q-29 0 -61.5 8t-69 27.5t-60 60t-23.5 97.5v80q0 52 22.5 91.5t57.5 59t69.5 29t66.5 9.5h351q3 0 3 -4v-852q0 -4 -3 -4h-144q-4 0 -4 4v719h-54v-719q0 -4 -4 -4h-143z" />
<glyph unicode="&#xb7;" horiz-adv-x="273" d="M67 191q-4 0 -4 4v142q0 4 4 4h141q3 0 3 -4v-142q0 -4 -3 -4h-141z" />
<glyph unicode="&#xb8;" horiz-adv-x="489" d="M280 -166h-139q-4 0 -2 4l81 168q3 4 6 4h114q3 0 2 -4l-56 -168q-2 -4 -6 -4z" />
<glyph unicode="&#xb9;" horiz-adv-x="304" d="M212 270h-71q-2 0 -2 2v321q-70 -50 -71 -51q-2 0 -3 1q0 1 -8.5 32t-8.5 32q0 3 3 4l86 66q1 1 4 1h71q3 0 3 -2v-404q0 -2 -3 -2z" />
<glyph unicode="&#xba;" horiz-adv-x="300" d="M149 451q26 0 39 12t13 53v41q0 39 -12.5 51t-38.5 12q-25 0 -39 -12t-14 -51v-41q0 -41 13 -53t39 -12zM149 387q-61 0 -94 24t-33 101v49q0 76 34 99.5t94 23.5q28 0 46 -3t38.5 -14.5t31 -37.5t10.5 -67v-50q0 -42 -10 -68.5t-30.5 -38t-39 -15t-47.5 -3.5z" />
<glyph unicode="&#xbb;" horiz-adv-x="619" d="M355 6q-83 83 -85 87q-3 2 0 5l157 166q-156 164 -157 166q-3 2 0 5l85 87q3 2 5 0q1 -2 121.5 -126.5t124.5 -128.5q3 -3 0 -6l-246 -255q-2 -2 -5 0zM104 6q-83 83 -85 87q-3 2 0 5l158 166q-157 164 -158 166q-3 2 0 5q83 83 85 87q2 2 5 0l246 -255q3 -3 0 -6 l-246 -255q-3 -2 -5 0z" />
<glyph unicode="&#xbc;" horiz-adv-x="815" d="M208 -6q-3 0 -2 4q-2 1 151 341.5t150 342.5q2 4 5 4h85q5 0 2 -4l-300 -684q-3 -4 -6 -4h-85zM687 0h-66q-3 0 -3 2v63h-154q-1 0 -1 3v65q0 2 2 6l26 67q26 66 52.5 132.5t26.5 67.5q2 2 3 2h75v-2l-101 -265v-5h71v70q0 2 3 2h66q3 0 3 -2v-70h36q3 0 3 -3v-65 q0 -3 -3 -3h-36v-63q0 -2 -3 -2zM249 272h-70q-2 0 -2 2v321q-70 -50 -71 -51q-2 0 -3 1q0 1 -9 32t-9 32q0 3 3 4l87 66q1 1 4 1h70q3 0 3 -2v-404q0 -2 -3 -2z" />
<glyph unicode="&#xbd;" horiz-adv-x="848" d="M211 -6q-3 0 -3 4q-1 1 152 341.5t150 342.5q2 4 5 4h85q3 0 2 -4l-301 -684q-1 -4 -5 -4h-85zM760 0h-234q-2 0 -2 2v63q0 3 2 5q8 8 23 25q35 38 52 57t39.5 46.5t32 45.5t9.5 31v29q0 37 -54 37q-12 0 -25.5 -1.5t-24.5 -3.5t-20.5 -4t-15.5 -4l-6 -1q-1 1 -2 1l-7 29 l-7 29q0 4 1 4q42 21 108 21q131 0 131 -96v-46q0 -35 -44 -110.5t-63 -82.5l-17 -6h124q2 0 2 -2v-66q0 -2 -2 -2zM249 272h-70q-2 0 -2 2v321q-70 -50 -71 -51q-2 0 -3 1q0 1 -9 32t-9 32q0 3 3 4l87 66q1 1 4 1h70q3 0 3 -2v-404q0 -2 -3 -2z" />
<glyph unicode="&#xbe;" horiz-adv-x="876" d="M270 -6q-5 0 -2 4q-2 1 150.5 341.5t149.5 342.5q2 4 6 4h84q5 0 2 -4l-300 -684q-3 -4 -6 -4h-84zM87 289q-1 1 -1 3q0 1 6 30l7 29q0 1 3 1l6 -1q7 -1 17 -3t22 -4t26 -3t26 -1q55 0 55 37v26q0 46 -50 46h-46q-3 0 -3 2v62q0 2 3 2h47q16 0 28.5 10.5t12.5 28.5v25 q0 38 -53 38q-18 0 -40.5 -3t-35.5 -6t-15 -4q-4 -2 -4 1l-6 29q-6 29 -6 30q0 2 1 3t13 5.5t38.5 9t54.5 4.5q130 0 130 -94v-39q0 -18 -7.5 -34t-15.5 -23l-8 -8v-5q4 -2 10.5 -6.5t17 -23.5t10.5 -43v-44q0 -57 -36.5 -76t-94.5 -19q-31 0 -59 4.5t-40 8.5zM748 0h-66 q-3 0 -3 2v63h-154q-1 1 -1 3v65q0 2 2 6l26 67q26 66 52.5 132.5t26.5 67.5q2 2 3 2h75q1 0 1 -2l-102 -265v-5h71v70q0 2 3 2h66q3 0 3 -2v-70h36q3 0 3 -3v-65q0 -3 -3 -3h-36v-63q0 -2 -3 -2z" />
<glyph unicode="&#xbf;" horiz-adv-x="461" d="M159 680h149q4 0 4 -4v-135q0 -4 -4 -4h-149q-3 0 -3 4v135q0 4 3 4zM156 472h152q4 0 4 -4v-23q0 -41 -18 -79.5t-40 -62.5t-40 -50.5t-18 -45.5v-24q0 -23 15.5 -33.5t30.5 -10.5q18 0 38.5 2.5t37.5 6t30.5 7t21.5 5.5l9 3q4 0 5 -2q0 -1 15.5 -62t15.5 -62 q2 -5 -2 -6q-5 -3 -23.5 -10.5t-62 -17t-88.5 -9.5q-208 0 -208 169v44q0 26 19 58.5t41.5 59.5t41.5 60.5t19 59.5v23q0 4 4 4z" />
<glyph unicode="&#xc0;" d="M178 0h-174q-5 0 -3 4l218 672q1 4 4 4h191q5 0 6 -4l212 -672q2 -4 -3 -4h-174q-4 0 -5 4l-27 107h-212q-28 -104 -29 -107q-1 -4 -4 -4zM307 750l-101 148q-3 4 2 4h139q4 0 5 -4l76 -148q3 -4 -1 -4h-115q-3 0 -5 4zM248 244h139l-58 229h-22z" />
<glyph unicode="&#xc1;" d="M178 0h-174q-5 0 -3 4l218 672q1 4 4 4h191q5 0 6 -4l212 -672q2 -4 -3 -4h-174q-4 0 -5 4l-27 107h-212q-28 -104 -29 -107q-1 -4 -4 -4zM327 750q-4 -4 -6 -4h-114q-3 0 -2 4l75 148q3 4 7 4h138q5 0 2 -4zM248 244h139l-58 229h-22z" />
<glyph unicode="&#xc2;" d="M178 0h-174q-5 0 -3 4l218 672q1 4 4 4h191q5 0 6 -4l212 -672q2 -4 -3 -4h-174q-4 0 -5 4l-27 107h-212q-28 -104 -29 -107q-1 -4 -4 -4zM263 745h-115q-2 0 -1 4q1 2 50 74.5t49 73.5q1 4 7 4h127q5 0 8 -4l98 -148q2 -4 -1 -4h-114q-4 0 -7 4l-46 63h-3 q-44 -60 -46 -63q-3 -4 -6 -4zM248 244h139l-58 229h-22z" />
<glyph unicode="&#xc3;" d="M178 0h-174q-5 0 -3 4l218 672q1 4 4 4h191q5 0 6 -4l212 -672q2 -4 -3 -4h-174q-4 0 -5 4l-27 107h-212q-28 -104 -29 -107q-1 -4 -4 -4zM166 755q-3 0 -3 5v82q0 11 7 20q30 35 80 35q31 0 74 -19t66 -19q24 0 49 17.5t27 17.5q5 0 5 -6v-80q0 -13 -8 -21 q-39 -39 -81 -39q-32 0 -74 20.5t-63 20.5q-26 0 -52 -17t-27 -17zM248 244h139l-58 229h-22z" />
<glyph unicode="&#xc4;" d="M178 0h-174q-5 0 -3 4l218 672q1 4 4 4h191q5 0 6 -4l212 -672q2 -4 -3 -4h-174q-4 0 -5 4l-27 107h-212q-28 -104 -29 -107q-1 -4 -4 -4zM248 244h139l-58 229h-22zM161 750q-4 0 -4 4v122q0 4 4 4h118q3 0 3 -4v-122q0 -4 -3 -4h-118zM356 750q-4 0 -4 4v122q0 4 4 4 h117q4 0 4 -4v-122q0 -4 -4 -4h-117z" />
<glyph unicode="&#xc5;" d="M178 0h-174q-5 0 -3 4l218 672q1 4 4 4h191q5 0 6 -4l212 -672q2 -4 -3 -4h-174q-4 0 -5 4l-27 107h-212q-28 -104 -29 -107q-1 -4 -4 -4zM317 723q-23 0 -39.5 3t-34 12.5t-27 30.5t-9.5 53v25q0 30 9.5 50.5t27 30t35 13t41.5 3.5q22 0 37.5 -3t33 -11.5t27 -29.5 t9.5 -53v-25q0 -61 -30 -80t-80 -19zM248 244h139l-58 229h-22zM317 789q13 0 21.5 2t15 11.5t6.5 26.5v11q0 39 -41 39q-45 0 -45 -39v-11q0 -25 11 -32.5t32 -7.5z" />
<glyph unicode="&#xc6;" horiz-adv-x="894" d="M299 244h120v240h-22zM189 0h-175q-3 0 -2 4l34 70q34 69 81.5 167.5t95.5 197t81.5 167.5t34.5 70q1 4 6 4h495q4 0 4 -4v-141q0 -4 -4 -4h-247v-113h200q4 0 4 -4v-141q0 -4 -4 -4h-200v-120h247q4 0 4 -4v-141q0 -4 -4 -4h-421v111h-181q-43 -104 -45 -107 q-1 -4 -4 -4z" />
<glyph unicode="&#xc7;" horiz-adv-x="544" d="M321 -166h-139q-4 0 -2 4l74 155q-45 4 -79.5 18t-65 41.5t-47 77t-16.5 119.5v190q0 65 16 112t41 74t63.5 42.5t74 20t81.5 4.5q130 0 184 -27q3 -3 2 -6q0 -1 -12 -34t-23.5 -65t-11.5 -33q-1 -3 -6 -3q-2 1 -19 4t-50 6t-63 3q-22 0 -36 -3t-31.5 -13t-26 -35 t-8.5 -64v-159q0 -71 24 -91t75 -20q22 0 45 1.5t40 3.5t31 4t22 3l9 2q2 2 4 -2l47 -133q1 -3 -2 -6q-51 -25 -138 -32l-51 -155q-2 -4 -6 -4z" />
<glyph unicode="&#xc8;" horiz-adv-x="529" d="M60 0v680h441q4 0 4 -4v-141q0 -4 -4 -4h-267v-114h220q4 0 4 -4v-140q0 -4 -4 -4h-220v-120h267q4 0 4 -4v-141q0 -4 -4 -4h-441zM264 750l-101 148q-3 4 2 4h139q4 0 5 -4l76 -148q3 -4 -1 -4h-115q-3 0 -5 4z" />
<glyph unicode="&#xc9;" horiz-adv-x="529" d="M60 0v680h441q4 0 4 -4v-141q0 -4 -4 -4h-267v-114h220q4 0 4 -4v-140q0 -4 -4 -4h-220v-120h267q4 0 4 -4v-141q0 -4 -4 -4h-441zM295 750q-4 -4 -6 -4h-114q-3 0 -2 4l75 148q3 4 7 4h138q5 0 2 -4z" />
<glyph unicode="&#xca;" horiz-adv-x="529" d="M60 0v680h441q4 0 4 -4v-141q0 -4 -4 -4h-267v-114h220q4 0 4 -4v-140q0 -4 -4 -4h-220v-120h267q4 0 4 -4v-141q0 -4 -4 -4h-441zM230 745h-115q-2 0 -1 4q1 2 50 74.5t49 73.5q1 4 7 4h127q5 0 8 -4l98 -148q2 -4 -1 -4h-114q-4 0 -7 4l-46 63h-3q-44 -60 -46 -63 q-3 -4 -6 -4z" />
<glyph unicode="&#xcb;" horiz-adv-x="529" d="M60 0v680h441q4 0 4 -4v-141q0 -4 -4 -4h-267v-114h220q4 0 4 -4v-140q0 -4 -4 -4h-220v-120h267q4 0 4 -4v-141q0 -4 -4 -4h-441zM118 750q-4 0 -4 4v122q0 4 4 4h118q3 0 3 -4v-122q0 -4 -3 -4h-118zM313 750q-4 0 -4 4v122q0 4 4 4h117q4 0 4 -4v-122q0 -4 -4 -4h-117 z" />
<glyph unicode="&#xcc;" horiz-adv-x="274" d="M64 0q-4 0 -4 4v672q0 4 4 4h166q4 0 4 -4v-672q0 -4 -4 -4h-166zM137 750l-101 148q-3 4 2 4h139q4 0 5 -4l76 -148q3 -4 -1 -4h-115q-3 0 -5 4z" />
<glyph unicode="&#xcd;" horiz-adv-x="274" d="M64 0q-4 0 -4 4v672q0 4 4 4h166q4 0 4 -4v-672q0 -4 -4 -4h-166zM158 750q-4 -4 -6 -4h-114q-3 0 -2 4l75 148q3 4 7 4h138q5 0 2 -4z" />
<glyph unicode="&#xce;" horiz-adv-x="274" d="M64 0q-4 0 -4 4v672q0 4 4 4h166q4 0 4 -4v-672q0 -4 -4 -4h-166zM93 745h-115q-2 0 -1 4q1 2 50 74.5t49 73.5q1 4 7 4h127q5 0 8 -4l98 -148q2 -4 -1 -4h-114q-4 0 -7 4l-46 63h-3q-44 -60 -46 -63q-3 -4 -6 -4z" />
<glyph unicode="&#xcf;" horiz-adv-x="274" d="M64 0q-4 0 -4 4v672q0 4 4 4h166q4 0 4 -4v-672q0 -4 -4 -4h-166zM-9 750q-4 0 -4 4v122q0 4 4 4h118q3 0 3 -4v-122q0 -4 -3 -4h-118zM186 750q-4 0 -4 4v122q0 4 4 4h117q4 0 4 -4v-122q0 -4 -4 -4h-117z" />
<glyph unicode="&#xd0;" horiz-adv-x="620" d="M234 157h75q47 0 67.5 20.5t20.5 97.5v133q0 40 -6 65t-20.5 35t-26.5 12.5t-35 2.5h-75v-114h74q3 0 3 -4v-124q0 -4 -3 -4h-74v-120zM309 0h-249v277h-34q-4 0 -4 4v124q0 4 4 4h34v271h249q42 0 70.5 -2.5t68.5 -17t64.5 -40t42.5 -76t18 -121.5v-161 q0 -73 -17.5 -124.5t-41 -77.5t-63.5 -40.5t-68.5 -17t-73.5 -2.5z" />
<glyph unicode="&#xd1;" horiz-adv-x="647" d="M60 0q-4 0 -4 4v672q0 4 5 4h181q4 0 6 -3l189 -377h11v376q0 4 3 4h164q4 0 4 -4v-672q0 -4 -5 -4h-185q-5 0 -6 4l-188 375h-11v-375q0 -4 -4 -4h-160zM183 755q-3 0 -3 5v82q0 11 7 20q30 35 80 35q31 0 74 -19t66 -19q24 0 49 17.5t27 17.5q5 0 5 -6v-80 q0 -13 -8 -21q-39 -39 -81 -39q-32 0 -74 20.5t-63 20.5q-26 0 -52 -17t-27 -17z" />
<glyph unicode="&#xd2;" horiz-adv-x="597" d="M308 -11q-46 0 -77.5 3.5t-69.5 18t-61.5 41.5t-39.5 76.5t-16 119.5v189q0 68 16 116.5t39.5 74.5t62 40.5t70 18t76.5 3.5q44 0 75 -3t69.5 -17.5t62 -40.5t40 -74.5t16.5 -117.5v-189q0 -52 -8.5 -92.5t-21.5 -67.5t-35.5 -46.5t-42.5 -29.5t-50 -15.5t-51.5 -6.5 t-53.5 -1zM308 145q25 0 38.5 3t26 14t17.5 34.5t5 63.5v162q0 74 -19.5 93.5t-67.5 19.5q-24 0 -37 -2.5t-26.5 -13t-19 -34.5t-5.5 -63v-162q0 -75 19 -95t69 -20zM299 750l-101 148q-3 4 2 4h139q4 0 5 -4l76 -148q3 -4 -1 -4h-115q-3 0 -5 4z" />
<glyph unicode="&#xd3;" horiz-adv-x="597" d="M308 -11q-46 0 -77.5 3.5t-69.5 18t-61.5 41.5t-39.5 76.5t-16 119.5v189q0 68 16 116.5t39.5 74.5t62 40.5t70 18t76.5 3.5q44 0 75 -3t69.5 -17.5t62 -40.5t40 -74.5t16.5 -117.5v-189q0 -52 -8.5 -92.5t-21.5 -67.5t-35.5 -46.5t-42.5 -29.5t-50 -15.5t-51.5 -6.5 t-53.5 -1zM308 145q25 0 38.5 3t26 14t17.5 34.5t5 63.5v162q0 74 -19.5 93.5t-67.5 19.5q-24 0 -37 -2.5t-26.5 -13t-19 -34.5t-5.5 -63v-162q0 -75 19 -95t69 -20zM319 750q-4 -4 -6 -4h-114q-3 0 -2 4l75 148q3 4 7 4h138q5 0 2 -4z" />
<glyph unicode="&#xd4;" horiz-adv-x="597" d="M308 -11q-46 0 -77.5 3.5t-69.5 18t-61.5 41.5t-39.5 76.5t-16 119.5v189q0 68 16 116.5t39.5 74.5t62 40.5t70 18t76.5 3.5q44 0 75 -3t69.5 -17.5t62 -40.5t40 -74.5t16.5 -117.5v-189q0 -52 -8.5 -92.5t-21.5 -67.5t-35.5 -46.5t-42.5 -29.5t-50 -15.5t-51.5 -6.5 t-53.5 -1zM308 145q25 0 38.5 3t26 14t17.5 34.5t5 63.5v162q0 74 -19.5 93.5t-67.5 19.5q-24 0 -37 -2.5t-26.5 -13t-19 -34.5t-5.5 -63v-162q0 -75 19 -95t69 -20zM255 745h-115q-2 0 -1 4q1 2 50 74.5t49 73.5q1 4 7 4h127q5 0 8 -4l98 -148q2 -4 -1 -4h-114q-4 0 -7 4 l-46 63h-3q-44 -60 -46 -63q-3 -4 -6 -4z" />
<glyph unicode="&#xd5;" horiz-adv-x="597" d="M308 145q25 0 38.5 3t26 14t17.5 34.5t5 63.5v162q0 74 -19.5 93.5t-67.5 19.5q-24 0 -37 -2.5t-26.5 -13t-19 -34.5t-5.5 -63v-162q0 -75 19 -95t69 -20zM308 -11q-46 0 -77.5 3.5t-69.5 18t-61.5 41.5t-39.5 76.5t-16 119.5v189q0 68 16 116.5t39.5 74.5t62 40.5t70 18 t76.5 3.5q44 0 75 -3t69.5 -17.5t62 -40.5t40 -74.5t16.5 -117.5v-189q0 -52 -8.5 -92.5t-21.5 -67.5t-35.5 -46.5t-42.5 -29.5t-50 -15.5t-51.5 -6.5t-53.5 -1zM158 755q-3 0 -3 5v82q0 11 7 20q30 35 80 35q31 0 74 -19t66 -19q24 0 49 17.5t27 17.5q5 0 5 -6v-80 q0 -13 -8 -21q-39 -39 -81 -39q-32 0 -74 20.5t-63 20.5q-26 0 -52 -17t-27 -17z" />
<glyph unicode="&#xd6;" horiz-adv-x="597" d="M308 -11q-46 0 -77.5 3.5t-69.5 18t-61.5 41.5t-39.5 76.5t-16 119.5v189q0 68 16 116.5t39.5 74.5t62 40.5t70 18t76.5 3.5q44 0 75 -3t69.5 -17.5t62 -40.5t40 -74.5t16.5 -117.5v-189q0 -52 -8.5 -92.5t-21.5 -67.5t-35.5 -46.5t-42.5 -29.5t-50 -15.5t-51.5 -6.5 t-53.5 -1zM308 145q25 0 38.5 3t26 14t17.5 34.5t5 63.5v162q0 74 -19.5 93.5t-67.5 19.5q-24 0 -37 -2.5t-26.5 -13t-19 -34.5t-5.5 -63v-162q0 -75 19 -95t69 -20zM153 750q-4 0 -4 4v122q0 4 4 4h118q3 0 3 -4v-122q0 -4 -3 -4h-118zM348 750q-4 0 -4 4v122q0 4 4 4h117 q4 0 4 -4v-122q0 -4 -4 -4h-117z" />
<glyph unicode="&#xd7;" horiz-adv-x="556" d="M153 55l-9 9q-10 10 -22 22.5t-25 25.5t-21.5 22t-9.5 9q-3 3 0 6l119 126q-117 125 -119 127q-3 3 0 5q85 85 87 89q4 2 5 0l120 -127q118 125 120 127q1 3 4 0l88 -89q2 -2 0 -5l-120 -127q119 -124 120 -126q2 -4 0 -6q-86 -86 -87 -88q-2 -3 -5 0l-120 126 q-118 -124 -120 -126q-2 -3 -5 0z" />
<glyph unicode="&#xd8;" horiz-adv-x="597" d="M53 -40q-3 0 -2 4l47 91q-54 64 -54 193v189q0 68 16 116.5t39.5 74.5t62 40.5t70 18t76.5 3.5q60 0 97 -7l17 35q2 4 6 4h134q3 0 2 -4l-47 -94q54 -61 54 -187v-189q0 -52 -8.5 -92.5t-21.5 -67.5t-35.5 -46.5t-42.5 -29.5t-50 -15.5t-51.5 -6.5t-53.5 -1q-62 0 -99 7 q-16 -30 -16 -32q-3 -4 -5 -4h-135zM308 145q25 0 38.5 3t26 14t17.5 34.5t5 63.5v162q0 74 -19.5 93.5t-67.5 19.5q-24 0 -37 -2.5t-26.5 -13t-19 -34.5t-5.5 -63v-162q0 -75 19 -95t69 -20z" />
<glyph unicode="&#xd9;" d="M297 -10q-136 0 -188.5 61.5t-52.5 199.5v425q0 4 4 4h167q3 0 3 -4v-413q0 -25 1 -39t4.5 -31t10.5 -25.5t20 -14.5t32 -6h40q42 0 55 26t13 90v413q0 4 3 4h167q4 0 4 -4v-425q0 -65 -9 -108.5t-34.5 -80.5t-74.5 -54.5t-125 -17.5h-40zM307 750l-101 148q-3 4 2 4h139 q4 0 5 -4l76 -148q3 -4 -1 -4h-115q-3 0 -5 4z" />
<glyph unicode="&#xda;" d="M297 -10q-136 0 -188.5 61.5t-52.5 199.5v425q0 4 4 4h167q3 0 3 -4v-413q0 -25 1 -39t4.5 -31t10.5 -25.5t20 -14.5t32 -6h40q42 0 55 26t13 90v413q0 4 3 4h167q4 0 4 -4v-425q0 -65 -9 -108.5t-34.5 -80.5t-74.5 -54.5t-125 -17.5h-40zM328 750q-4 -4 -6 -4h-114 q-3 0 -2 4l75 148q3 4 7 4h138q5 0 2 -4z" />
<glyph unicode="&#xdb;" d="M297 -10q-136 0 -188.5 61.5t-52.5 199.5v425q0 4 4 4h167q3 0 3 -4v-413q0 -25 1 -39t4.5 -31t10.5 -25.5t20 -14.5t32 -6h40q42 0 55 26t13 90v413q0 4 3 4h167q4 0 4 -4v-425q0 -65 -9 -108.5t-34.5 -80.5t-74.5 -54.5t-125 -17.5h-40zM263 745h-115q-2 0 -1 4 q1 2 50 74.5t49 73.5q1 4 7 4h127q5 0 8 -4l98 -148q2 -4 -1 -4h-114q-4 0 -7 4l-46 63h-3q-44 -60 -46 -63q-3 -4 -6 -4z" />
<glyph unicode="&#xdc;" d="M297 -10q-136 0 -188.5 61.5t-52.5 199.5v425q0 4 4 4h167q3 0 3 -4v-413q0 -25 1 -39t4.5 -31t10.5 -25.5t20 -14.5t32 -6h40q42 0 55 26t13 90v413q0 4 3 4h167q4 0 4 -4v-425q0 -65 -9 -108.5t-34.5 -80.5t-74.5 -54.5t-125 -17.5h-40zM161 750q-4 0 -4 4v122q0 4 4 4 h118q3 0 3 -4v-122q0 -4 -3 -4h-118zM356 750q-4 0 -4 4v122q0 4 4 4h117q4 0 4 -4v-122q0 -4 -4 -4h-117z" />
<glyph unicode="&#xdd;" horiz-adv-x="577" d="M215 0q-4 0 -4 4v255q-198 414 -199 417q-3 4 3 4h175q4 0 5 -4l103 -231h6q99 228 100 231q1 4 5 4h172q4 0 3 -4l-199 -417v-255q0 -4 -3 -4h-167zM309 750q-4 -4 -6 -4h-114q-3 0 -2 4l75 148q3 4 7 4h138q5 0 2 -4z" />
<glyph unicode="&#xde;" horiz-adv-x="603" d="M234 274h87q10 0 20.5 2t25 7t23.5 18t9 32v34q0 62 -78 62h-87v-155zM229 0h-165q-4 0 -4 4v672q0 4 4 4h165q4 0 4 -4v-98h98q242 0 242 -195v-66q0 -52 -19.5 -90t-45.5 -57t-63.5 -30t-61.5 -13t-52 -2h-98v-121q0 -4 -4 -4z" />
<glyph unicode="&#xdf;" horiz-adv-x="572" d="M218 0h-156q-4 0 -4 4v483q0 61 17 101.5t50 61t70.5 28.5t88.5 8q33 0 59.5 -3t56.5 -14.5t50 -30.5t33.5 -53t13.5 -81v-44q0 -32 -8.5 -58t-16.5 -36l-8 -9v-7q7 -5 18 -14t29 -40.5t18 -67.5v-46q0 -59 -19 -98t-55 -57.5t-73.5 -25.5t-89.5 -7q-4 0 -4 4v130 q0 4 4 4q69 0 69 60v31q0 26 -23 41t-46 15q-4 0 -4 4v130q0 4 4 4q47 0 47 52v29q0 52 -56 52q-61 0 -61 -63v-483q0 -4 -4 -4z" />
<glyph unicode="&#xe0;" horiz-adv-x="506" d="M186 -12q-66 0 -108 32.5t-42 91.5v55q0 63 47 96.5t112 33.5q24 0 52.5 -3.5t45.5 -6.5l17 -3v42q0 23 -19 32t-69 9q-17 0 -35.5 -1t-34 -3t-28.5 -4t-20.5 -3t-8.5 -1q-4 0 -5 3q-1 2 -13.5 53.5t-12.5 52.5q0 4 3 5q4 3 21.5 8.5t61.5 13t94 7.5q36 0 61.5 -2 t59.5 -12t55 -27.5t36 -52t15 -82.5v-318q0 -4 -4 -4h-152q-4 0 -4 4v7q-30 -23 -125 -23zM253 550l-101 148q-3 4 2 4h139q4 0 5 -4l76 -148q3 -4 -1 -4h-115q-3 0 -5 4zM242 107q69 0 69 23v51q-40 14 -76 14q-19 0 -35 -8t-16 -21v-19q0 -19 17 -29.5t41 -10.5z" />
<glyph unicode="&#xe1;" horiz-adv-x="506" d="M186 -12q-66 0 -108 32.5t-42 91.5v55q0 63 47 96.5t112 33.5q24 0 52.5 -3.5t45.5 -6.5l17 -3v42q0 23 -19 32t-69 9q-17 0 -35.5 -1t-34 -3t-28.5 -4t-20.5 -3t-8.5 -1q-4 0 -5 3q-1 2 -13.5 53.5t-12.5 52.5q0 4 3 5q4 3 21.5 8.5t61.5 13t94 7.5q36 0 61.5 -2 t59.5 -12t55 -27.5t36 -52t15 -82.5v-318q0 -4 -4 -4h-152q-4 0 -4 4v7q-30 -23 -125 -23zM273 550q-4 -4 -6 -4h-114q-3 0 -2 4l75 148q3 4 7 4h138q5 0 2 -4zM242 107q69 0 69 23v51q-40 14 -76 14q-19 0 -35 -8t-16 -21v-19q0 -19 17 -29.5t41 -10.5z" />
<glyph unicode="&#xe2;" horiz-adv-x="506" d="M186 -12q-66 0 -108 32.5t-42 91.5v55q0 63 47 96.5t112 33.5q24 0 52.5 -3.5t45.5 -6.5l17 -3v42q0 23 -19 32t-69 9q-17 0 -35.5 -1t-34 -3t-28.5 -4t-20.5 -3t-8.5 -1q-4 0 -5 3q-1 2 -13.5 53.5t-12.5 52.5q0 4 3 5q4 3 21.5 8.5t61.5 13t94 7.5q36 0 61.5 -2 t59.5 -12t55 -27.5t36 -52t15 -82.5v-318q0 -4 -4 -4h-152q-4 0 -4 4v7q-30 -23 -125 -23zM209 545h-115q-2 0 -1 4q1 2 50 74.5t49 73.5q1 4 7 4h127q5 0 8 -4l98 -148q2 -4 -1 -4h-114q-4 0 -7 4l-46 63h-3q-44 -60 -46 -63q-3 -4 -6 -4zM242 107q69 0 69 23v51 q-40 14 -76 14q-19 0 -35 -8t-16 -21v-19q0 -19 17 -29.5t41 -10.5z" />
<glyph unicode="&#xe3;" horiz-adv-x="506" d="M242 107q69 0 69 23v51q-40 14 -76 14q-19 0 -35 -8t-16 -21v-19q0 -19 17 -29.5t41 -10.5zM186 -12q-66 0 -108 32.5t-42 91.5v55q0 63 47 96.5t112 33.5q24 0 52.5 -3.5t45.5 -6.5l17 -3v42q0 23 -19 32t-69 9q-17 0 -35.5 -1t-34 -3t-28.5 -4t-20.5 -3t-8.5 -1 q-4 0 -5 3q-1 2 -13.5 53.5t-12.5 52.5q0 4 3 5q4 3 21.5 8.5t61.5 13t94 7.5q36 0 61.5 -2t59.5 -12t55 -27.5t36 -52t15 -82.5v-318q0 -4 -4 -4h-152q-4 0 -4 4v7q-30 -23 -125 -23zM112 555q-3 0 -3 5v82q0 11 7 20q30 35 80 35q31 0 74 -19t66 -19q24 0 49 17.5t27 17.5 q5 0 5 -6v-80q0 -13 -8 -21q-39 -39 -81 -39q-32 0 -74 20.5t-63 20.5q-26 0 -52 -17t-27 -17z" />
<glyph unicode="&#xe4;" horiz-adv-x="506" d="M186 -12q-66 0 -108 32.5t-42 91.5v55q0 63 47 96.5t112 33.5q24 0 52.5 -3.5t45.5 -6.5l17 -3v42q0 23 -19 32t-69 9q-17 0 -35.5 -1t-34 -3t-28.5 -4t-20.5 -3t-8.5 -1q-4 0 -5 3q-1 2 -13.5 53.5t-12.5 52.5q0 4 3 5q4 3 21.5 8.5t61.5 13t94 7.5q36 0 61.5 -2 t59.5 -12t55 -27.5t36 -52t15 -82.5v-318q0 -4 -4 -4h-152q-4 0 -4 4v7q-30 -23 -125 -23zM107 550q-4 0 -4 4v122q0 4 4 4h118q3 0 3 -4v-122q0 -4 -3 -4h-118zM302 550q-4 0 -4 4v122q0 4 4 4h117q4 0 4 -4v-122q0 -4 -4 -4h-117zM242 107q69 0 69 23v51q-40 14 -76 14 q-19 0 -35 -8t-16 -21v-19q0 -19 17 -29.5t41 -10.5z" />
<glyph unicode="&#xe5;" horiz-adv-x="506" d="M242 107q69 0 69 23v51q-40 14 -76 14q-19 0 -35 -8t-16 -21v-19q0 -19 17 -29.5t41 -10.5zM186 -12q-66 0 -108 32.5t-42 91.5v55q0 63 47 96.5t112 33.5q24 0 52.5 -3.5t45.5 -6.5l17 -3v42q0 23 -19 32t-69 9q-17 0 -35.5 -1t-34 -3t-28.5 -4t-20.5 -3t-8.5 -1 q-4 0 -5 3q-1 2 -13.5 53.5t-12.5 52.5q0 4 3 5q4 3 21.5 8.5t61.5 13t94 7.5q36 0 61.5 -2t59.5 -12t55 -27.5t36 -52t15 -82.5v-318q0 -4 -4 -4h-152q-4 0 -4 4v7q-30 -23 -125 -23zM263 589q13 0 21.5 2t15 11.5t6.5 26.5v11q0 39 -41 39q-45 0 -45 -39v-11 q0 -25 11 -32.5t32 -7.5zM263 523q-23 0 -39.5 3t-34 12.5t-27 30.5t-9.5 53v25q0 30 9.5 50.5t27 30t35 13t41.5 3.5q22 0 37.5 -3t33 -11.5t27 -29.5t9.5 -53v-25q0 -61 -30 -80t-80 -19z" />
<glyph unicode="&#xe6;" horiz-adv-x="799" d="M248 108q69 0 69 28v46q-39 14 -76 14q-20 0 -35 -8t-15 -21v-18q0 -22 17.5 -31.5t39.5 -9.5zM484 293h109q0 34 -12.5 48.5t-41.5 14.5q-55 0 -55 -63zM203 -11q-160 0 -160 125v55q0 59 43 94.5t115 35.5q23 0 52 -3.5t46 -7.5l17 -3v38q0 23 -19.5 31.5t-66.5 8.5 q-27 0 -58 -3.5t-48.5 -6.5t-19.5 -4q-5 0 -5 4q-1 2 -14.5 53t-13.5 53q-2 3 3 5t24 8t64 14t90 8q102 0 153 -28q45 28 134 28q30 0 52 -2t56 -13t55.5 -31.5t38 -61t16.5 -97.5v-97h-272q1 -40 18.5 -51.5t52.5 -11.5q24 0 49 1.5t43.5 3.5t33.5 4t24 4l9 1q5 0 5 -3 l30 -109q2 -3 -3 -5q-93 -31 -194 -31t-154 35q-60 -41 -196 -41z" />
<glyph unicode="&#xe7;" horiz-adv-x="469" d="M284 -166h-139q-4 0 -2 4q6 18 75 156q-84 7 -128 49t-44 149v110q0 52 15.5 89.5t37.5 57.5t56.5 31.5t62 14t64.5 2.5q100 0 150 -25q4 -3 3 -6l-32 -110q-1 -3 -5 -3q-1 0 -7 0.5t-16 1.5t-23 2t-30 1.5t-34 0.5q-15 0 -30 -4.5t-29.5 -21.5t-14.5 -44v-87 q0 -45 19 -58.5t54 -13.5q93 0 111 9q6 0 6 -3q0 -1 18.5 -57t18.5 -57q2 -3 -2 -5q-54 -18 -97 -22l-52 -157q-2 -4 -6 -4z" />
<glyph unicode="&#xe8;" horiz-adv-x="508" d="M277 -10q-239 0 -239 214v84q0 209 225 209q217 0 217 -209v-97h-273q0 -38 19 -52.5t53 -14.5q37 0 76.5 3.5t60.5 6.5t24 4q2 1 4 -3q28 -98 28 -107q0 -7 -2 -8l-4 -1q-4 -1 -9.5 -3t-13.5 -4.5t-18.5 -4.5t-22.5 -4.5t-26.5 -5t-29.5 -4t-33 -2.5t-36 -1zM254 550 l-101 148q-3 4 2 4h139q4 0 5 -4l76 -148q3 -4 -1 -4h-115q-3 0 -5 4zM207 292h109q0 67 -53 67q-22 0 -39 -15t-17 -52z" />
<glyph unicode="&#xe9;" horiz-adv-x="508" d="M277 -10q-239 0 -239 214v84q0 209 225 209q217 0 217 -209v-97h-273q0 -38 19 -52.5t53 -14.5q37 0 76.5 3.5t60.5 6.5t24 4q2 1 4 -3q28 -98 28 -107q0 -7 -2 -8l-4 -1q-4 -1 -9.5 -3t-13.5 -4.5t-18.5 -4.5t-22.5 -4.5t-26.5 -5t-29.5 -4t-33 -2.5t-36 -1zM275 550 q-4 -4 -6 -4h-114q-3 0 -2 4l75 148q3 4 7 4h138q5 0 2 -4zM207 292h109q0 67 -53 67q-22 0 -39 -15t-17 -52z" />
<glyph unicode="&#xea;" horiz-adv-x="508" d="M277 -10q-239 0 -239 214v84q0 209 225 209q217 0 217 -209v-97h-273q0 -38 19 -52.5t53 -14.5q37 0 76.5 3.5t60.5 6.5t24 4q2 1 4 -3q28 -98 28 -107q0 -7 -2 -8l-4 -1q-4 -1 -9.5 -3t-13.5 -4.5t-18.5 -4.5t-22.5 -4.5t-26.5 -5t-29.5 -4t-33 -2.5t-36 -1zM210 545 h-115q-2 0 -1 4q1 2 50 74.5t49 73.5q1 4 7 4h127q5 0 8 -4l98 -148q2 -4 -1 -4h-114q-4 0 -7 4l-46 63h-3q-44 -60 -46 -63q-3 -4 -6 -4zM207 292h109q0 67 -53 67q-22 0 -39 -15t-17 -52z" />
<glyph unicode="&#xeb;" horiz-adv-x="508" d="M277 -10q-239 0 -239 214v84q0 209 225 209q217 0 217 -209v-97h-273q0 -38 19 -52.5t53 -14.5q37 0 76.5 3.5t60.5 6.5t24 4q2 1 4 -3q28 -98 28 -107q0 -7 -2 -8l-4 -1q-4 -1 -9.5 -3t-13.5 -4.5t-18.5 -4.5t-22.5 -4.5t-26.5 -5t-29.5 -4t-33 -2.5t-36 -1zM108 550 q-4 0 -4 4v122q0 4 4 4h118q3 0 3 -4v-122q0 -4 -3 -4h-118zM303 550q-4 0 -4 4v122q0 4 4 4h117q4 0 4 -4v-122q0 -4 -4 -4h-117zM207 292h109q0 67 -53 67q-22 0 -39 -15t-17 -52z" />
<glyph unicode="&#xec;" horiz-adv-x="262" d="M51 0q-4 0 -4 4v479q0 4 4 4h159q4 0 4 -4v-479q0 -4 -4 -4h-159zM131 550l-101 148q-3 4 2 4h139q4 0 5 -4l76 -148q3 -4 -1 -4h-115q-3 0 -5 4z" />
<glyph unicode="&#xed;" horiz-adv-x="262" d="M51 0q-4 0 -4 4v479q0 4 4 4h159q4 0 4 -4v-479q0 -4 -4 -4h-159zM152 550q-4 -4 -6 -4h-114q-3 0 -2 4l75 148q3 4 7 4h138q5 0 2 -4z" />
<glyph unicode="&#xee;" horiz-adv-x="262" d="M51 0q-4 0 -4 4v479q0 4 4 4h159q4 0 4 -4v-479q0 -4 -4 -4h-159zM87 545h-115q-2 0 -1 4q1 2 50 74.5t49 73.5q1 4 7 4h127q5 0 8 -4l98 -148q2 -4 -1 -4h-114q-4 0 -7 4l-46 63h-3q-44 -60 -46 -63q-3 -4 -6 -4z" />
<glyph unicode="&#xef;" horiz-adv-x="262" d="M51 0q-4 0 -4 4v479q0 4 4 4h159q4 0 4 -4v-479q0 -4 -4 -4h-159zM-15 550q-4 0 -4 4v122q0 4 4 4h118q3 0 3 -4v-122q0 -4 -3 -4h-118zM180 550q-4 0 -4 4v122q0 4 4 4h117q4 0 4 -4v-122q0 -4 -4 -4h-117z" />
<glyph unicode="&#xf0;" horiz-adv-x="574" d="M259 132q67 0 67 25v184q-41 14 -77 14q-13 0 -21 -3.5t-14.5 -22t-6.5 -52.5v-65q0 -49 13.5 -64.5t38.5 -15.5zM223 -6q-44 0 -73 6.5t-56.5 27t-41 64.5t-13.5 112v84q0 54 10.5 93t26.5 60t41.5 33.5t47.5 15.5t52 3q21 0 48 -3.5t44 -7.5l17 -3v55h-97q-4 0 -4 5 v103q0 4 5 4h96v30q0 4 4 4h160q4 0 4 -4v-30h47q4 0 4 -4v-104q0 -4 -3 -4h-48v-530q0 -4 -4 -4h-160q-4 0 -4 4v12q-22 -22 -103 -22z" />
<glyph unicode="&#xf1;" horiz-adv-x="543" d="M62 0q-4 0 -4 4v479q0 4 4 4h160q3 0 3 -4v-9q75 19 110 19q28 0 48 -2.5t46.5 -14t43 -32t28.5 -60.5t12 -96v-284q0 -4 -4 -4h-160q-3 0 -3 4v273q0 49 -10.5 63t-32.5 14q-15 0 -34.5 -4t-31.5 -8l-12 -3v-335q0 -4 -3 -4h-160zM131 555q-3 0 -3 5v82q0 11 7 20 q30 35 80 35q31 0 74 -19t66 -19q24 0 49 17.5t27 17.5q5 0 5 -6v-80q0 -13 -8 -21q-39 -39 -81 -39q-32 0 -74 20.5t-63 20.5q-26 0 -52 -17t-27 -17z" />
<glyph unicode="&#xf2;" horiz-adv-x="513" d="M267 -8q-40 0 -69.5 3.5t-61 16.5t-51.5 35t-33 61t-13 94v87q0 55 13.5 95t34 61.5t53 33.5t60 15t66.5 3t65.5 -2.5t60 -14.5t54 -33t34.5 -60.5t14 -94.5v-90q0 -56 -13.5 -96t-33 -62t-52 -34t-60.5 -15t-68 -3zM267 130q19 0 30 4t20 22.5t9 53.5v71q0 48 -15.5 63 t-44.5 15q-13 0 -22 -2.5t-18 -9.5t-14 -23.5t-5 -42.5v-71q0 -50 15 -65t45 -15zM256 550l-101 148q-3 4 2 4h139q4 0 5 -4l76 -148q3 -4 -1 -4h-115q-3 0 -5 4z" />
<glyph unicode="&#xf3;" horiz-adv-x="513" d="M267 -8q-40 0 -69.5 3.5t-61 16.5t-51.5 35t-33 61t-13 94v87q0 55 13.5 95t34 61.5t53 33.5t60 15t66.5 3t65.5 -2.5t60 -14.5t54 -33t34.5 -60.5t14 -94.5v-90q0 -56 -13.5 -96t-33 -62t-52 -34t-60.5 -15t-68 -3zM267 130q19 0 30 4t20 22.5t9 53.5v71q0 48 -15.5 63 t-44.5 15q-13 0 -22 -2.5t-18 -9.5t-14 -23.5t-5 -42.5v-71q0 -50 15 -65t45 -15zM276 550q-4 -4 -6 -4h-114q-3 0 -2 4l75 148q3 4 7 4h138q5 0 2 -4z" />
<glyph unicode="&#xf4;" horiz-adv-x="513" d="M267 -8q-40 0 -69.5 3.5t-61 16.5t-51.5 35t-33 61t-13 94v87q0 55 13.5 95t34 61.5t53 33.5t60 15t66.5 3t65.5 -2.5t60 -14.5t54 -33t34.5 -60.5t14 -94.5v-90q0 -56 -13.5 -96t-33 -62t-52 -34t-60.5 -15t-68 -3zM212 545h-115q-2 0 -1 4q1 2 50 74.5t49 73.5q1 4 7 4 h127q5 0 8 -4l98 -148q2 -4 -1 -4h-114q-4 0 -7 4l-46 63h-3q-44 -60 -46 -63q-3 -4 -6 -4zM267 130q19 0 30 4t20 22.5t9 53.5v71q0 48 -15.5 63t-44.5 15q-13 0 -22 -2.5t-18 -9.5t-14 -23.5t-5 -42.5v-71q0 -50 15 -65t45 -15z" />
<glyph unicode="&#xf5;" horiz-adv-x="513" d="M267 130q19 0 30 4t20 22.5t9 53.5v71q0 48 -15.5 63t-44.5 15q-13 0 -22 -2.5t-18 -9.5t-14 -23.5t-5 -42.5v-71q0 -50 15 -65t45 -15zM267 -8q-40 0 -69.5 3.5t-61 16.5t-51.5 35t-33 61t-13 94v87q0 55 13.5 95t34 61.5t53 33.5t60 15t66.5 3t65.5 -2.5t60 -14.5 t54 -33t34.5 -60.5t14 -94.5v-90q0 -56 -13.5 -96t-33 -62t-52 -34t-60.5 -15t-68 -3zM115 555q-3 0 -3 5v82q0 11 7 20q30 35 80 35q31 0 74 -19t66 -19q24 0 49 17.5t27 17.5q5 0 5 -6v-80q0 -13 -8 -21q-39 -39 -81 -39q-32 0 -74 20.5t-63 20.5q-26 0 -52 -17t-27 -17z " />
<glyph unicode="&#xf6;" horiz-adv-x="513" d="M267 -8q-40 0 -69.5 3.5t-61 16.5t-51.5 35t-33 61t-13 94v87q0 55 13.5 95t34 61.5t53 33.5t60 15t66.5 3t65.5 -2.5t60 -14.5t54 -33t34.5 -60.5t14 -94.5v-90q0 -56 -13.5 -96t-33 -62t-52 -34t-60.5 -15t-68 -3zM267 130q19 0 30 4t20 22.5t9 53.5v71q0 48 -15.5 63 t-44.5 15q-13 0 -22 -2.5t-18 -9.5t-14 -23.5t-5 -42.5v-71q0 -50 15 -65t45 -15zM111 550q-4 0 -4 4v122q0 4 4 4h118q3 0 3 -4v-122q0 -4 -3 -4h-118zM306 550q-4 0 -4 4v122q0 4 4 4h117q4 0 4 -4v-122q0 -4 -4 -4h-117z" />
<glyph unicode="&#xf7;" horiz-adv-x="556" d="M57 209q-3 0 -3 4v125q0 4 3 4h440q4 0 4 -4v-125q0 -4 -4 -4h-440zM207 402q-4 0 -4 4v142q0 4 4 4h141q4 0 4 -4v-142q0 -4 -4 -4h-141zM207 0q-4 0 -4 4v142q0 4 4 4h141q4 0 4 -4v-142q0 -4 -4 -4h-141z" />
<glyph unicode="&#xf8;" horiz-adv-x="513" d="M115 -45q-3 0 -2 4q0 2 20 54q-94 42 -94 189v87q0 55 13.5 95t34 61.5t53 33.5t60 15t66.5 3q6 0 20 -0.5t20 -0.5l4 10t3.5 8.5t2.5 6.5t2 5l1 2q1 4 6 4h98q4 0 3 -4l-22 -53q90 -43 90 -183v-90q0 -56 -13.5 -96t-33 -62t-52 -34t-60.5 -15t-68 -3q-6 0 -18 0.5 t-18 0.5q-13 -33 -13 -34q-2 -4 -7 -4h-96zM267 130q19 0 30 4t20 22.5t9 53.5v71q0 48 -15.5 63t-44.5 15q-13 0 -22 -2.5t-18 -9.5t-14 -23.5t-5 -42.5v-71q0 -50 15 -65t45 -15z" />
<glyph unicode="&#xf9;" horiz-adv-x="545" d="M506 487q3 0 3 -4v-479q0 -4 -3 -4h-160q-4 0 -4 4v7q-75 -19 -108 -19q-29 0 -48.5 2.5t-46.5 14t-43.5 32t-28.5 60.5t-12 96v286q0 4 3 4h160q4 0 4 -4v-275q0 -49 10.5 -63t32.5 -14q15 0 34 3.5t31 7.5l12 4v337q0 4 4 4h160zM273 550l-101 148q-3 4 2 4h139 q4 0 5 -4l76 -148q3 -4 -1 -4h-115q-3 0 -5 4z" />
<glyph unicode="&#xfa;" horiz-adv-x="545" d="M506 487q3 0 3 -4v-479q0 -4 -3 -4h-160q-4 0 -4 4v7q-75 -19 -108 -19q-29 0 -48.5 2.5t-46.5 14t-43.5 32t-28.5 60.5t-12 96v286q0 4 3 4h160q4 0 4 -4v-275q0 -49 10.5 -63t32.5 -14q15 0 34 3.5t31 7.5l12 4v337q0 4 4 4h160zM293 550q-4 -4 -6 -4h-114q-3 0 -2 4 l75 148q3 4 7 4h138q5 0 2 -4z" />
<glyph unicode="&#xfb;" horiz-adv-x="545" d="M506 487q3 0 3 -4v-479q0 -4 -3 -4h-160q-4 0 -4 4v7q-75 -19 -108 -19q-29 0 -48.5 2.5t-46.5 14t-43.5 32t-28.5 60.5t-12 96v286q0 4 3 4h160q4 0 4 -4v-275q0 -49 10.5 -63t32.5 -14q15 0 34 3.5t31 7.5l12 4v337q0 4 4 4h160zM229 545h-115q-2 0 -1 4q1 2 50 74.5 t49 73.5q1 4 7 4h127q5 0 8 -4l98 -148q2 -4 -1 -4h-114q-4 0 -7 4l-46 63h-3q-44 -60 -46 -63q-3 -4 -6 -4z" />
<glyph unicode="&#xfc;" horiz-adv-x="545" d="M506 487q3 0 3 -4v-479q0 -4 -3 -4h-160q-4 0 -4 4v7q-75 -19 -108 -19q-29 0 -48.5 2.5t-46.5 14t-43.5 32t-28.5 60.5t-12 96v286q0 4 3 4h160q4 0 4 -4v-275q0 -49 10.5 -63t32.5 -14q15 0 34 3.5t31 7.5l12 4v337q0 4 4 4h160zM127 550q-4 0 -4 4v122q0 4 4 4h118 q3 0 3 -4v-122q0 -4 -3 -4h-118zM322 550q-4 0 -4 4v122q0 4 4 4h117q4 0 4 -4v-122q0 -4 -4 -4h-117z" />
<glyph unicode="&#xfd;" horiz-adv-x="508" d="M73 -180q-3 0 -3 4q1 2 7 64t6 64q0 4 5 4h29q45 0 60 43l9 30q-169 451 -170 454q-2 4 2 4h166q5 0 5 -4l75 -239h9q69 236 69 239q2 4 5 4h163q3 0 2 -4q-1 -2 -47 -126t-96 -257.5t-58 -154.5q-13 -35 -28.5 -59t-30 -37t-36 -19.5t-38 -8t-45.5 -1.5h-60zM279 550 q-4 -4 -6 -4h-114q-3 0 -2 4l75 148q3 4 7 4h138q5 0 2 -4z" />
<glyph unicode="&#xfe;" horiz-adv-x="551" d="M225 146q42 -14 78 -14q14 0 21.5 3.5t14 21.5t6.5 53v65q0 27 -5 44.5t-14 24.5t-16 9t-18 2q-67 0 -67 -25v-184zM222 -180h-160q-4 0 -4 4v852q0 4 4 4h160q3 0 3 -4v-205q22 22 104 22q31 0 48.5 -1.5t47 -12.5t46 -31.5t29.5 -62.5t13 -102v-84q0 -58 -13.5 -99.5 t-30.5 -61.5t-45.5 -30.5t-45 -12t-43.5 -1.5q-14 0 -41.5 3.5t-47.5 6.5l-21 4v-184q0 -4 -3 -4z" />
<glyph unicode="&#xff;" horiz-adv-x="508" d="M73 -180q-3 0 -3 4q1 2 7 64t6 64q0 4 5 4h29q45 0 60 43l9 30q-169 451 -170 454q-2 4 2 4h166q5 0 5 -4l75 -239h9q69 236 69 239q2 4 5 4h163q3 0 2 -4q-1 -2 -47 -126t-96 -257.5t-58 -154.5q-13 -35 -28.5 -59t-30 -37t-36 -19.5t-38 -8t-45.5 -1.5h-60zM112 550 q-4 0 -4 4v122q0 4 4 4h118q3 0 3 -4v-122q0 -4 -3 -4h-118zM307 550q-4 0 -4 4v122q0 4 4 4h117q4 0 4 -4v-122q0 -4 -4 -4h-117z" />
<glyph unicode="&#x100;" d="M178 0h-174q-5 0 -3 4l218 672q1 4 4 4h191q5 0 6 -4l212 -672q2 -4 -3 -4h-174q-4 0 -5 4l-27 107h-212q-28 -104 -29 -107q-1 -4 -4 -4zM468 756h-302q-4 0 -4 4v109q0 4 4 4h302q3 0 3 -4v-109q0 -4 -3 -4zM248 244h139l-58 229h-22z" />
<glyph unicode="&#x101;" horiz-adv-x="506" d="M242 107q69 0 69 23v51q-40 14 -76 14q-19 0 -35 -8t-16 -21v-19q0 -19 17 -29.5t41 -10.5zM186 -12q-66 0 -108 32.5t-42 91.5v55q0 63 47 96.5t112 33.5q24 0 52.5 -3.5t45.5 -6.5l17 -3v42q0 23 -19 32t-69 9q-17 0 -35.5 -1t-34 -3t-28.5 -4t-20.5 -3t-8.5 -1 q-4 0 -5 3q-1 2 -13.5 53.5t-12.5 52.5q0 4 3 5q4 3 21.5 8.5t61.5 13t94 7.5q36 0 61.5 -2t59.5 -12t55 -27.5t36 -52t15 -82.5v-318q0 -4 -4 -4h-152q-4 0 -4 4v7q-30 -23 -125 -23zM414 563h-302q-4 0 -4 4v109q0 4 4 4h302q3 0 3 -4v-109q0 -4 -3 -4z" />
<glyph unicode="&#x102;" d="M178 0h-174q-5 0 -3 4l218 672q1 4 4 4h191q5 0 6 -4l212 -672q2 -4 -3 -4h-174q-4 0 -5 4l-27 107h-212q-28 -104 -29 -107q-1 -4 -4 -4zM319 735q-155 0 -155 141q0 7 8 7h69q7 0 10 -6q11 -25 23.5 -33t42.5 -8q27 0 42 9.5t22 31.5q3 6 12 6h69q9 0 9 -7 q-6 -141 -152 -141zM248 244h139l-58 229h-22z" />
<glyph unicode="&#x103;" horiz-adv-x="506" d="M242 107q69 0 69 23v51q-40 14 -76 14q-19 0 -35 -8t-16 -21v-19q0 -19 17 -29.5t41 -10.5zM186 -12q-66 0 -108 32.5t-42 91.5v55q0 63 47 96.5t112 33.5q24 0 52.5 -3.5t45.5 -6.5l17 -3v42q0 23 -19 32t-69 9q-17 0 -35.5 -1t-34 -3t-28.5 -4t-20.5 -3t-8.5 -1 q-4 0 -5 3q-1 2 -13.5 53.5t-12.5 52.5q0 4 3 5q4 3 21.5 8.5t61.5 13t94 7.5q36 0 61.5 -2t59.5 -12t55 -27.5t36 -52t15 -82.5v-318q0 -4 -4 -4h-152q-4 0 -4 4v7q-30 -23 -125 -23zM265 542q-155 0 -155 141q0 7 8 7h69q7 0 10 -6q11 -25 23.5 -33t42.5 -8q27 0 42 9.5 t22 31.5q3 6 12 6h69q9 0 9 -7q-6 -141 -152 -141z" />
<glyph unicode="&#x104;" d="M532 -195q-49 0 -78 20t-29 77q0 60 55 98h-25q-4 0 -5 4l-27 107h-212q-28 -104 -29 -107q-1 -4 -4 -4h-174q-5 0 -3 4l218 672q1 4 4 4h191q5 0 6 -4l212 -672q2 -4 -2 -4q-1 0 -3 -2q-28 -15 -41.5 -23t-27 -20.5t-13.5 -24.5q0 -15 14 -15q13 0 26 9q5 3 9 -1 q1 -2 20 -38t19 -37q4 -6 -1 -9q-4 -4 -15 -11t-35.5 -15t-49.5 -8zM248 244h139l-58 229h-22z" />
<glyph unicode="&#x105;" horiz-adv-x="506" d="M371 -195q-49 0 -78 20t-29 77q0 60 55 98h-4q-4 0 -4 4v7q-30 -23 -125 -23q-66 0 -108 32.5t-42 91.5v55q0 63 47 96.5t112 33.5q24 0 52.5 -3.5t45.5 -6.5l17 -3v42q0 23 -19 32t-69 9q-17 0 -35.5 -1t-34 -3t-28.5 -4t-20.5 -3t-8.5 -1q-4 0 -5 3q-1 2 -13.5 53.5 t-12.5 52.5q0 4 3 5q4 3 21.5 8.5t61.5 13t94 7.5q36 0 61.5 -2t59.5 -12t55 -27.5t36 -52t15 -82.5v-318q0 -2 -2 -4q-1 0 -3 -2q-28 -15 -41.5 -23t-27 -20.5t-13.5 -24.5q0 -15 14 -15q12 0 26 9q5 3 9 -1q1 -2 20 -38t19 -37q4 -6 -1 -9q-4 -4 -15 -11t-35.5 -15 t-49.5 -8zM242 107q69 0 69 23v51q-40 14 -76 14q-19 0 -35 -8t-16 -21v-19q0 -19 17 -29.5t41 -10.5z" />
<glyph unicode="&#x106;" horiz-adv-x="544" d="M320 -10q-46 0 -80.5 4.5t-73 20.5t-63 43t-41 75.5t-16.5 115.5v190q0 65 16 112t41 74t63.5 42.5t74 20t81.5 4.5q130 0 184 -27q3 -3 2 -6q0 -1 -12 -34t-23.5 -65t-11.5 -33q-1 -3 -6 -3q-2 1 -19 4t-50 6t-63 3q-22 0 -36 -3t-31.5 -13t-26 -35t-8.5 -64v-159 q0 -71 24 -91t75 -20q22 0 45 1.5t40 3.5t31 4t22 3l9 2q2 2 4 -2l47 -133q1 -3 -2 -6q-70 -35 -196 -35zM331 743q-4 -4 -6 -4h-114q-3 0 -2 4l75 148q3 4 7 4h138q5 0 2 -4z" />
<glyph unicode="&#x107;" horiz-adv-x="470" d="M281 -8q-45 0 -75.5 3t-63 14.5t-52 32.5t-32 59t-12.5 91v110q0 52 15.5 89.5t37.5 57.5t56.5 31.5t62 14t64.5 2.5q100 0 150 -25q4 -3 3 -6l-32 -110q-1 -3 -5 -3q-1 0 -7 0.5t-16 1.5t-23 2t-30 1.5t-34 0.5q-15 0 -30 -4.5t-29.5 -21.5t-14.5 -44v-87 q0 -45 19 -58.5t54 -13.5q93 0 111 9q6 0 6 -3q0 -1 18.5 -57t18.5 -57q2 -3 -2 -5l-3 -1q-2 -1 -5.5 -2.5t-9.5 -3.5t-13.5 -4t-17 -4t-21.5 -4t-25 -3t-29.5 -2t-33.5 -1zM295 550q-4 -4 -6 -4h-114q-3 0 -2 4l75 148q3 4 7 4h138q5 0 2 -4z" />
<glyph unicode="&#x108;" horiz-adv-x="544" d="M320 -10q-46 0 -80.5 4.5t-73 20.5t-63 43t-41 75.5t-16.5 115.5v190q0 65 16 112t41 74t63.5 42.5t74 20t81.5 4.5q130 0 184 -27q3 -3 2 -6q0 -1 -12 -34t-23.5 -65t-11.5 -33q-1 -3 -6 -3q-2 1 -19 4t-50 6t-63 3q-22 0 -36 -3t-31.5 -13t-26 -35t-8.5 -64v-159 q0 -71 24 -91t75 -20q22 0 45 1.5t40 3.5t31 4t22 3l9 2q2 2 4 -2l47 -133q1 -3 -2 -6q-70 -35 -196 -35zM267 738h-115q-2 0 -1 4q1 2 50 74.5t49 73.5q1 4 7 4h127q5 0 8 -4l98 -148q2 -4 -1 -4h-114q-4 0 -7 4l-46 63h-3q-44 -60 -46 -63q-3 -4 -6 -4z" />
<glyph unicode="&#x109;" horiz-adv-x="470" d="M281 -8q-45 0 -75.5 3t-63 14.5t-52 32.5t-32 59t-12.5 91v110q0 52 15.5 89.5t37.5 57.5t56.5 31.5t62 14t64.5 2.5q100 0 150 -25q4 -3 3 -6l-32 -110q-1 -3 -5 -3q-1 0 -7 0.5t-16 1.5t-23 2t-30 1.5t-34 0.5q-15 0 -30 -4.5t-29.5 -21.5t-14.5 -44v-87 q0 -45 19 -58.5t54 -13.5q93 0 111 9q6 0 6 -3q0 -1 18.5 -57t18.5 -57q2 -3 -2 -5l-3 -1q-2 -1 -5.5 -2.5t-9.5 -3.5t-13.5 -4t-17 -4t-21.5 -4t-25 -3t-29.5 -2t-33.5 -1zM219 545h-115q-2 0 -1 4q1 2 50 74.5t49 73.5q1 4 7 4h127q5 0 8 -4l98 -148q2 -4 -1 -4h-114 q-4 0 -7 4l-46 63h-3q-44 -60 -46 -63q-3 -4 -6 -4z" />
<glyph unicode="&#x10a;" horiz-adv-x="544" d="M320 -10q-46 0 -80.5 4.5t-73 20.5t-63 43t-41 75.5t-16.5 115.5v190q0 65 16 112t41 74t63.5 42.5t74 20t81.5 4.5q130 0 184 -27q3 -3 2 -6q0 -1 -12 -34t-23.5 -65t-11.5 -33q-1 -3 -6 -3q-2 1 -19 4t-50 6t-63 3q-22 0 -36 -3t-31.5 -13t-26 -35t-8.5 -64v-159 q0 -71 24 -91t75 -20q22 0 45 1.5t40 3.5t31 4t22 3l9 2q2 2 4 -2l47 -133q1 -3 -2 -6q-70 -35 -196 -35zM246 735q-4 0 -4 4v130q0 4 4 4h149q3 0 3 -4v-130q0 -4 -4 -4h-148z" />
<glyph unicode="&#x10b;" horiz-adv-x="470" d="M281 -8q-45 0 -75.5 3t-63 14.5t-52 32.5t-32 59t-12.5 91v110q0 52 15.5 89.5t37.5 57.5t56.5 31.5t62 14t64.5 2.5q100 0 150 -25q4 -3 3 -6l-32 -110q-1 -3 -5 -3q-1 0 -7 0.5t-16 1.5t-23 2t-30 1.5t-34 0.5q-15 0 -30 -4.5t-29.5 -21.5t-14.5 -44v-87 q0 -45 19 -58.5t54 -13.5q93 0 111 9q6 0 6 -3q0 -1 18.5 -57t18.5 -57q2 -3 -2 -5l-3 -1q-2 -1 -5.5 -2.5t-9.5 -3.5t-13.5 -4t-17 -4t-21.5 -4t-25 -3t-29.5 -2t-33.5 -1zM210 542q-4 0 -4 4v130q0 4 4 4h149q3 0 3 -4v-130q0 -4 -4 -4h-148z" />
<glyph unicode="&#x10c;" horiz-adv-x="544" d="M320 -10q-46 0 -80.5 4.5t-73 20.5t-63 43t-41 75.5t-16.5 115.5v190q0 65 16 112t41 74t63.5 42.5t74 20t81.5 4.5q130 0 184 -27q3 -3 2 -6q0 -1 -12 -34t-23.5 -65t-11.5 -33q-1 -3 -6 -3q-2 1 -19 4t-50 6t-63 3q-22 0 -36 -3t-31.5 -13t-26 -35t-8.5 -64v-159 q0 -71 24 -91t75 -20q22 0 45 1.5t40 3.5t31 4t22 3l9 2q2 2 4 -2l47 -133q1 -3 -2 -6q-70 -35 -196 -35zM375 890h119q5 0 2 -4l-113 -148q-3 -4 -8 -4h-108q-6 0 -7 4q-1 1 -29.5 38t-56.5 74l-28 36q-2 4 2 4h119q3 0 6 -4l47 -62h2q45 59 47 62q3 4 6 4z" />
<glyph unicode="&#x10d;" horiz-adv-x="470" d="M281 -8q-45 0 -75.5 3t-63 14.5t-52 32.5t-32 59t-12.5 91v110q0 52 15.5 89.5t37.5 57.5t56.5 31.5t62 14t64.5 2.5q100 0 150 -25q4 -3 3 -6l-32 -110q-1 -3 -5 -3q-1 0 -7 0.5t-16 1.5t-23 2t-30 1.5t-34 0.5q-15 0 -30 -4.5t-29.5 -21.5t-14.5 -44v-87 q0 -45 19 -58.5t54 -13.5q93 0 111 9q6 0 6 -3q0 -1 18.5 -57t18.5 -57q2 -3 -2 -5l-3 -1q-2 -1 -5.5 -2.5t-9.5 -3.5t-13.5 -4t-17 -4t-21.5 -4t-25 -3t-29.5 -2t-33.5 -1zM327 697h119q5 0 2 -4l-113 -148q-3 -4 -8 -4h-108q-6 0 -7 4q-1 1 -29.5 38t-56.5 73l-28 37 q-2 4 2 4h119q3 0 6 -4l47 -62h2q45 59 47 62q3 4 6 4z" />
<glyph unicode="&#x10e;" horiz-adv-x="600" d="M234 157h74q23 0 36 3t26.5 14t19 35.5t5.5 64.5v134q0 39 -6 63.5t-19 35t-26 13.5t-36 3h-74v-366zM308 0h-248v680h248q29 0 48 -1t49.5 -6t51 -15t44.5 -29t38.5 -45.5t24 -67.5t9.5 -93v-161q0 -53 -9 -94.5t-23 -68.5t-36.5 -46.5t-43 -29.5t-51 -15.5t-51 -6.5 t-51.5 -1zM353 890h119q5 0 2 -4l-113 -148q-3 -4 -8 -4h-108q-6 0 -7 4q-1 1 -29.5 38t-56.5 74l-28 36q-2 4 2 4h119q3 0 6 -4l47 -62h2q45 59 47 62q3 4 6 4z" />
<glyph unicode="&#x10f;" horiz-adv-x="707" d="M489 0h-160q-4 0 -4 4v12q-23 -25 -104 -25q-32 0 -52 2t-47.5 13.5t-44 33t-28 62.5t-11.5 99v87q0 55 11.5 94.5t27.5 60.5t42 33t47 14.5t50 2.5q15 0 42 -3.5t47 -7.5l20 -3v197q0 4 5 4h159q3 0 3 -4v-672q0 -4 -3 -4zM259 129q66 0 66 28v184q-41 14 -78 14 q-21 0 -31 -14.5t-10 -63.5v-68q0 -27 5 -44.5t14 -24.5t16 -9t18 -2zM561 458q-6 -3 -6 4v214q0 4 4 4h123q4 0 4 -4v-132q0 -4 -4 -7q-10 -5 -121 -79z" />
<glyph unicode="&#x110;" horiz-adv-x="620" d="M234 157h75q47 0 67.5 20.5t20.5 97.5v133q0 40 -6 65t-20.5 35t-26.5 12.5t-35 2.5h-75v-114h74q3 0 3 -4v-124q0 -4 -3 -4h-74v-120zM309 0h-249v277h-34q-4 0 -4 4v124q0 4 4 4h34v271h249q42 0 70.5 -2.5t68.5 -17t64.5 -40t42.5 -76t18 -121.5v-161 q0 -73 -17.5 -124.5t-41 -77.5t-63.5 -40.5t-68.5 -17t-73.5 -2.5z" />
<glyph unicode="&#x111;" horiz-adv-x="574" d="M259 132q67 0 67 25v184q-41 14 -77 14q-13 0 -21 -3.5t-14.5 -22t-6.5 -52.5v-65q0 -49 13.5 -64.5t38.5 -15.5zM223 -6q-44 0 -73 6.5t-56.5 27t-41 64.5t-13.5 112v84q0 54 10.5 93t26.5 60t41.5 33.5t47.5 15.5t52 3q21 0 48 -3.5t44 -7.5l17 -3v55h-97q-4 0 -4 5 v103q0 4 5 4h96v30q0 4 4 4h160q4 0 4 -4v-30h47q4 0 4 -4v-104q0 -4 -3 -4h-48v-530q0 -4 -4 -4h-160q-4 0 -4 4v12q-22 -22 -103 -22z" />
<glyph unicode="&#x112;" horiz-adv-x="529" d="M60 0v680h441q4 0 4 -4v-141q0 -4 -4 -4h-267v-114h220q4 0 4 -4v-140q0 -4 -4 -4h-220v-120h267q4 0 4 -4v-141q0 -4 -4 -4h-441zM434 756h-302q-4 0 -4 4v109q0 4 4 4h302q3 0 3 -4v-109q0 -4 -3 -4z" />
<glyph unicode="&#x113;" horiz-adv-x="508" d="M207 292h109q0 67 -53 67q-22 0 -39 -15t-17 -52zM277 -10q-239 0 -239 214v84q0 209 225 209q217 0 217 -209v-97h-273q0 -38 19 -52.5t53 -14.5q37 0 76.5 3.5t60.5 6.5t24 4q2 1 4 -3q28 -98 28 -107q0 -7 -2 -8l-4 -1q-4 -1 -9.5 -3t-13.5 -4.5t-18.5 -4.5 t-22.5 -4.5t-26.5 -5t-29.5 -4t-33 -2.5t-36 -1zM415 563h-302q-4 0 -4 4v109q0 4 4 4h302q3 0 3 -4v-109q0 -4 -3 -4z" />
<glyph unicode="&#x114;" horiz-adv-x="529" d="M60 0v680h441q4 0 4 -4v-141q0 -4 -4 -4h-267v-114h220q4 0 4 -4v-140q0 -4 -4 -4h-220v-120h267q4 0 4 -4v-141q0 -4 -4 -4h-441zM296 735q-155 0 -155 141q0 7 8 7h69q7 0 10 -6q11 -25 23.5 -33t42.5 -8q27 0 42 9.5t22 31.5q3 6 12 6h69q9 0 9 -7q-6 -141 -152 -141z " />
<glyph unicode="&#x115;" horiz-adv-x="508" d="M207 292h109q0 67 -53 67q-22 0 -39 -15t-17 -52zM277 -10q-239 0 -239 214v84q0 209 225 209q217 0 217 -209v-97h-273q0 -38 19 -52.5t53 -14.5q37 0 76.5 3.5t60.5 6.5t24 4q2 1 4 -3q28 -98 28 -107q0 -7 -2 -8l-4 -1q-4 -1 -9.5 -3t-13.5 -4.5t-18.5 -4.5 t-22.5 -4.5t-26.5 -5t-29.5 -4t-33 -2.5t-36 -1zM266 542q-155 0 -155 141q0 7 8 7h69q7 0 10 -6q11 -25 23.5 -33t42.5 -8q27 0 42 9.5t22 31.5q3 6 12 6h69q9 0 9 -7q-6 -141 -152 -141z" />
<glyph unicode="&#x116;" horiz-adv-x="529" d="M60 0v680h441q4 0 4 -4v-141q0 -4 -4 -4h-267v-114h220q4 0 4 -4v-140q0 -4 -4 -4h-220v-120h267q4 0 4 -4v-141q0 -4 -4 -4h-441zM229 735q-4 0 -4 4v130q0 4 4 4h149q3 0 3 -4v-130q0 -4 -4 -4h-148z" />
<glyph unicode="&#x117;" horiz-adv-x="508" d="M277 -10q-239 0 -239 214v84q0 209 225 209q217 0 217 -209v-97h-273q0 -38 19 -52.5t53 -14.5q37 0 76.5 3.5t60.5 6.5t24 4q2 1 4 -3q28 -98 28 -107q0 -7 -2 -8l-4 -1q-4 -1 -9.5 -3t-13.5 -4.5t-18.5 -4.5t-22.5 -4.5t-26.5 -5t-29.5 -4t-33 -2.5t-36 -1zM195 542 q-4 0 -4 4v130q0 4 4 4h149q3 0 3 -4v-130q0 -4 -4 -4h-148zM207 292h109q0 67 -53 67q-22 0 -39 -15t-17 -52z" />
<glyph unicode="&#x118;" horiz-adv-x="529" d="M60 0v680h441q4 0 4 -4v-141q0 -4 -4 -4h-267v-114h220q4 0 4 -4v-140q0 -4 -4 -4h-220v-120h267q4 0 4 -4v-141v-1q0 -2 -5 -5q-28 -15 -41.5 -23t-27 -20.5t-13.5 -24.5q0 -15 14 -15q12 0 26 9q5 3 9 -1q1 -2 20 -38t19 -37q4 -6 -1 -9q-4 -4 -15 -11t-35.5 -15 t-49.5 -8q-49 0 -78 20t-29 77q0 60 55 98h-293z" />
<glyph unicode="&#x119;" horiz-adv-x="508" d="M253 -196q-49 0 -78 20t-29 77q0 59 52 96q-160 30 -160 207v84q0 209 225 209q217 0 217 -209v-97h-273q0 -38 19 -52.5t53 -14.5q37 0 76.5 3.5t60.5 6.5t24 4q2 1 4 -3q28 -98 28 -107q0 -7 -2 -8q-63 -21 -130 -27q-36 -18 -55 -33t-19 -31q0 -15 14 -15q12 0 26 9 q5 3 9 -1q1 -2 20 -38t19 -37q4 -5 -1 -9q-4 -4 -15 -11t-35.5 -15t-49.5 -8zM207 292h109q0 67 -53 67q-22 0 -39 -15t-17 -52z" />
<glyph unicode="&#x11a;" horiz-adv-x="529" d="M60 0v680h441q4 0 4 -4v-141q0 -4 -4 -4h-267v-114h220q4 0 4 -4v-140q0 -4 -4 -4h-220v-120h267q4 0 4 -4v-141q0 -4 -4 -4h-441zM356 890h119q5 0 2 -4l-113 -148q-3 -4 -8 -4h-108q-6 0 -7 4q-1 1 -29.5 38t-56.5 74l-28 36q-2 4 2 4h119q3 0 6 -4l47 -62h2 q45 59 47 62q3 4 6 4z" />
<glyph unicode="&#x11b;" horiz-adv-x="508" d="M207 292h109q0 67 -53 67q-22 0 -39 -15t-17 -52zM277 -10q-239 0 -239 214v84q0 209 225 209q217 0 217 -209v-97h-273q0 -38 19 -52.5t53 -14.5q37 0 76.5 3.5t60.5 6.5t24 4q2 1 4 -3q28 -98 28 -107q0 -7 -2 -8l-4 -1q-4 -1 -9.5 -3t-13.5 -4.5t-18.5 -4.5 t-22.5 -4.5t-26.5 -5t-29.5 -4t-33 -2.5t-36 -1zM320 697h119q5 0 2 -4l-113 -148q-3 -4 -8 -4h-108q-6 0 -7 4q-1 1 -29.5 38t-56.5 73l-28 37q-2 4 2 4h119q3 0 6 -4l47 -62h2q45 59 47 62q3 4 6 4z" />
<glyph unicode="&#x11c;" horiz-adv-x="598" d="M322 -10q-44 0 -76.5 3.5t-72.5 18.5t-65.5 41.5t-43 76t-17.5 118.5v191q0 50 10 90t25.5 65.5t40.5 44.5t47 29t53 15.5t52.5 6.5t50.5 1q58 0 112.5 -7t78 -13t27.5 -8q3 -2 2 -6l-39 -129q-1 -3 -6 -3q-1 1 -27 3.5t-69 5.5t-79 3q-23 0 -37.5 -3t-32 -13t-26 -34.5 t-8.5 -63.5v-163q0 -71 24.5 -92.5t75.5 -21.5l101 6v100h-79q-4 0 -4 4v133q0 4 4 4h222v-381q-163 -22 -244 -22zM275 738h-115q-2 0 -1 4q1 2 50 74.5t49 73.5q1 4 7 4h127q5 0 8 -4l98 -148q2 -4 -1 -4h-114q-4 0 -7 4l-46 63h-3q-44 -60 -46 -63q-3 -4 -6 -4z" />
<glyph unicode="&#x11d;" horiz-adv-x="526" d="M244 -220q-122 0 -188 22q-3 1 -1 5q0 2 17 59.5t17 58.5q1 4 5 3q1 0 8.5 -1t21 -3t30 -3.5t39.5 -2.5t46 -1q17 0 29.5 2t26 8t20.5 20t7 36v31q-74 -14 -110 -14q-41 0 -67 5.5t-54.5 24t-42.5 61t-14 108.5v84q0 56 10.5 95.5t26 61.5t41.5 34.5t49.5 15.5t56.5 3 q82 0 104 -22v12q0 4 4 4h159q4 0 4 -4v-500q0 -56 -15 -95t-36 -60t-57 -32t-64.5 -13.5t-72.5 -2.5zM222 545h-115q-2 0 -1 4q1 2 50 74.5t49 73.5q1 4 7 4h127q5 0 8 -4l98 -148q2 -4 -1 -4h-114q-4 0 -7 4l-46 63h-3q-44 -60 -46 -63q-3 -4 -6 -4zM244 131 q15 0 34.5 3.5t31.5 7.5l12 4v183q0 26 -68 26q-23 0 -37.5 -15.5t-14.5 -65.5v-64q0 -49 10 -64t32 -15z" />
<glyph unicode="&#x11e;" horiz-adv-x="598" d="M322 -10q-44 0 -76.5 3.5t-72.5 18.5t-65.5 41.5t-43 76t-17.5 118.5v191q0 50 10 90t25.5 65.5t40.5 44.5t47 29t53 15.5t52.5 6.5t50.5 1q58 0 112.5 -7t78 -13t27.5 -8q3 -2 2 -6l-39 -129q-1 -3 -6 -3q-1 1 -27 3.5t-69 5.5t-79 3q-23 0 -37.5 -3t-32 -13t-26 -34.5 t-8.5 -63.5v-163q0 -71 24.5 -92.5t75.5 -21.5l101 6v100h-79q-4 0 -4 4v133q0 4 4 4h222v-381q-163 -22 -244 -22zM321 735q-155 0 -155 141q0 7 8 7h69q7 0 10 -6q11 -25 23.5 -33t42.5 -8q27 0 42 9.5t22 31.5q3 6 12 6h69q9 0 9 -7q-6 -141 -152 -141z" />
<glyph unicode="&#x11f;" horiz-adv-x="526" d="M244 131q15 0 34.5 3.5t31.5 7.5l12 4v183q0 26 -68 26q-23 0 -37.5 -15.5t-14.5 -65.5v-64q0 -49 10 -64t32 -15zM244 -220q-122 0 -188 22q-3 1 -1 5q0 2 17 59.5t17 58.5q1 4 5 3q1 0 8.5 -1t21 -3t30 -3.5t39.5 -2.5t46 -1q17 0 29.5 2t26 8t20.5 20t7 36v31 q-74 -14 -110 -14q-41 0 -67 5.5t-54.5 24t-42.5 61t-14 108.5v84q0 56 10.5 95.5t26 61.5t41.5 34.5t49.5 15.5t56.5 3q82 0 104 -22v12q0 4 4 4h159q4 0 4 -4v-500q0 -56 -15 -95t-36 -60t-57 -32t-64.5 -13.5t-72.5 -2.5zM271 542q-155 0 -155 141q0 7 8 7h69q7 0 10 -6 q11 -25 23.5 -33t42.5 -8q27 0 42 9.5t22 31.5q3 6 12 6h69q9 0 9 -7q-6 -141 -152 -141z" />
<glyph unicode="&#x120;" horiz-adv-x="598" d="M322 -10q-44 0 -76.5 3.5t-72.5 18.5t-65.5 41.5t-43 76t-17.5 118.5v191q0 50 10 90t25.5 65.5t40.5 44.5t47 29t53 15.5t52.5 6.5t50.5 1q58 0 112.5 -7t78 -13t27.5 -8q3 -2 2 -6l-39 -129q-1 -3 -6 -3q-1 1 -27 3.5t-69 5.5t-79 3q-23 0 -37.5 -3t-32 -13t-26 -34.5 t-8.5 -63.5v-163q0 -71 24.5 -92.5t75.5 -21.5l101 6v100h-79q-4 0 -4 4v133q0 4 4 4h222v-381q-163 -22 -244 -22zM237 735q-4 0 -4 4v130q0 4 4 4h149q3 0 3 -4v-130q0 -4 -4 -4h-148z" />
<glyph unicode="&#x121;" horiz-adv-x="526" d="M244 -220q-122 0 -188 22q-3 1 -1 5q0 2 17 59.5t17 58.5q1 4 5 3q1 0 8.5 -1t21 -3t30 -3.5t39.5 -2.5t46 -1q17 0 29.5 2t26 8t20.5 20t7 36v31q-74 -14 -110 -14q-41 0 -67 5.5t-54.5 24t-42.5 61t-14 108.5v84q0 56 10.5 95.5t26 61.5t41.5 34.5t49.5 15.5t56.5 3 q82 0 104 -22v12q0 4 4 4h159q4 0 4 -4v-500q0 -56 -15 -95t-36 -60t-57 -32t-64.5 -13.5t-72.5 -2.5zM244 131q15 0 34.5 3.5t31.5 7.5l12 4v183q0 26 -68 26q-23 0 -37.5 -15.5t-14.5 -65.5v-64q0 -49 10 -64t32 -15zM193 542q-4 0 -4 4v130q0 4 4 4h149q3 0 3 -4v-130 q0 -4 -4 -4h-148z" />
<glyph unicode="&#x122;" horiz-adv-x="598" d="M322 -10q-44 0 -76.5 3.5t-72.5 18.5t-65.5 41.5t-43 76t-17.5 118.5v191q0 50 10 90t25.5 65.5t40.5 44.5t47 29t53 15.5t52.5 6.5t50.5 1q58 0 112.5 -7t78 -13t27.5 -8q3 -2 2 -6l-39 -129q-1 -3 -6 -3q-1 1 -27 3.5t-69 5.5t-79 3q-23 0 -37.5 -3t-32 -13t-26 -34.5 t-8.5 -63.5v-163q0 -71 24.5 -92.5t75.5 -21.5l101 6v100h-79q-4 0 -4 4v133q0 4 4 4h222v-381q-163 -22 -244 -22zM259 -269q-6 -3 -6 4v214q0 4 4 4h123q4 0 4 -4v-132q0 -4 -4 -7q-10 -5 -121 -79z" />
<glyph unicode="&#x123;" horiz-adv-x="526" d="M244 -220q-122 0 -188 22q-3 1 -1 5q0 2 17 59.5t17 58.5q1 4 5 3q1 0 8.5 -1t21 -3t30 -3.5t39.5 -2.5t46 -1q17 0 29.5 2t26 8t20.5 20t7 36v31q-74 -14 -110 -14q-41 0 -67 5.5t-54.5 24t-42.5 61t-14 108.5v84q0 56 10.5 95.5t26 61.5t41.5 34.5t49.5 15.5t56.5 3 q82 0 104 -22v12q0 4 4 4h159q4 0 4 -4v-500q0 -56 -15 -95t-36 -60t-57 -32t-64.5 -13.5t-72.5 -2.5zM244 131q15 0 34.5 3.5t31.5 7.5l12 4v183q0 26 -68 26q-23 0 -37.5 -15.5t-14.5 -65.5v-64q0 -49 10 -64t32 -15zM315 769q6 3 6 -4v-214q0 -4 -4 -4h-123q-4 0 -4 4 v132q0 4 4 7q10 5 121 79z" />
<glyph unicode="&#x124;" horiz-adv-x="626" d="M64 0q-4 0 -4 4v672q0 4 4 4h166q4 0 4 -4v-261h178v261q0 4 4 4h167q3 0 3 -4v-672q0 -4 -3 -4h-167q-4 0 -4 4v262h-178v-262q0 -4 -4 -4h-166zM269 738h-115q-2 0 -1 4q1 2 50 74.5t49 73.5q1 4 7 4h127q5 0 8 -4l98 -148q2 -4 -1 -4h-114q-4 0 -7 4l-46 63h-3 q-44 -60 -46 -63q-3 -4 -6 -4z" />
<glyph unicode="&#x125;" horiz-adv-x="543" d="M62 0q-4 0 -4 4v672q0 4 4 4h160q3 0 3 -4v-202q73 19 110 19q28 0 48 -2.5t46.5 -14t43 -32t28.5 -60.5t12 -96v-284q0 -4 -4 -4h-160q-3 0 -3 4v273q0 34 -7 52t-14.5 21.5t-21.5 3.5q-15 0 -34.5 -4t-31.5 -8l-12 -3v-335q0 -4 -3 -4h-160zM228 750h-115q-2 0 -1 4 q1 2 50 74.5t49 73.5q1 4 7 4h127q5 0 8 -4l98 -148q2 -4 -1 -4h-114q-4 0 -7 4l-46 63h-3q-44 -60 -46 -63q-3 -4 -6 -4z" />
<glyph unicode="&#x128;" horiz-adv-x="274" d="M64 0q-4 0 -4 4v672q0 4 4 4h166q4 0 4 -4v-672q0 -4 -4 -4h-166zM-4 748q-3 0 -3 5v82q0 11 7 20q30 35 80 35q31 0 74 -19t66 -19q24 0 49 17.5t27 17.5q5 0 5 -6v-80q0 -13 -8 -21q-39 -39 -81 -39q-32 0 -74 20.5t-63 20.5q-26 0 -52 -17t-27 -17z" />
<glyph unicode="&#x129;" horiz-adv-x="262" d="M51 0q-4 0 -4 4v479q0 4 4 4h159q4 0 4 -4v-479q0 -4 -4 -4h-159zM-10 555q-3 0 -3 5v82q0 11 7 20q30 35 80 35q31 0 74 -19t66 -19q24 0 49 17.5t27 17.5q5 0 5 -6v-80q0 -13 -8 -21q-39 -39 -81 -39q-32 0 -74 20.5t-63 20.5q-26 0 -52 -17t-27 -17z" />
<glyph unicode="&#x12a;" horiz-adv-x="274" d="M64 0q-4 0 -4 4v672q0 4 4 4h166q4 0 4 -4v-672q0 -4 -4 -4h-166zM298 756h-302q-4 0 -4 4v109q0 4 4 4h302q3 0 3 -4v-109q0 -4 -3 -4z" />
<glyph unicode="&#x12b;" horiz-adv-x="262" d="M51 0q-4 0 -4 4v479q0 4 4 4h159q4 0 4 -4v-479q0 -4 -4 -4h-159zM292 563h-302q-4 0 -4 4v109q0 4 4 4h302q3 0 3 -4v-109q0 -4 -3 -4z" />
<glyph unicode="&#x12e;" horiz-adv-x="274" d="M64 0q-4 0 -4 4v672q0 4 4 4h166q4 0 4 -4v-672q0 -4 -4 -4h-3q-26 -13 -40 -21.5t-27 -21t-13 -24.5q0 -15 14 -15q13 0 26 9q5 3 9 -1q1 -2 20 -38t19 -37q4 -5 -1 -9q-4 -4 -15 -11t-35.5 -15t-49.5 -8q-49 0 -78 20t-29 77q0 58 51 95h-14z" />
<glyph unicode="&#x12f;" horiz-adv-x="262" d="M61 0q-4 0 -4 4v479q0 4 4 4h160q3 0 3 -4v-479q0 -3 -2 -3l-3 -3q-28 -15 -41.5 -23t-27 -20.5t-13.5 -24.5q0 -15 14 -15q13 0 26 9q5 3 9 -1q1 -2 20 -38t19 -37q4 -6 -1 -9q-4 -4 -15 -11t-35.5 -15t-49.5 -8q-49 0 -78 20t-29 77q0 60 55 98h-11zM61 550q-4 0 -4 4 v122q0 4 4 4h159q4 0 4 -4v-122q0 -4 -4 -4h-159z" />
<glyph unicode="&#x130;" horiz-adv-x="274" d="M64 0q-4 0 -4 4v672q0 4 4 4h166q4 0 4 -4v-672q0 -4 -4 -4h-166zM73 735q-4 0 -4 4v130q0 4 4 4h149q3 0 3 -4v-130q0 -4 -4 -4h-148z" />
<glyph unicode="&#x131;" horiz-adv-x="262" d="M51 0q-4 0 -4 4v479q0 4 4 4h159q4 0 4 -4v-479q0 -4 -4 -4h-159z" />
<glyph unicode="&#x134;" horiz-adv-x="503" d="M209 -10q-95 0 -176 27q-3 1 -1 6l40 132q2 5 5 3q30 -10 126 -10q88 0 88 73v455q0 4 4 4h166q4 0 4 -4v-470q0 -59 -16.5 -101t-40 -64t-61.5 -34t-67 -14.5t-71 -2.5zM324 738h-115q-2 0 -1 4q1 2 50 74.5t49 73.5q1 4 7 4h127q5 0 8 -4l98 -148q2 -4 -1 -4h-114 q-4 0 -7 4l-46 63h-3q-44 -60 -46 -63q-3 -4 -6 -4z" />
<glyph unicode="&#x136;" horiz-adv-x="627" d="M64 0q-4 0 -4 4v672q0 4 4 4h166q4 0 4 -4v-262h40q143 258 145 262q3 4 5 4h181q4 0 1 -4l-192 -332q203 -337 205 -340q3 -4 -1 -4h-181q-3 0 -6 4l-147 261h-50v-261q0 -4 -4 -4h-166zM261 -269q-6 -3 -6 4v214q0 4 4 4h123q4 0 4 -4v-132q0 -4 -4 -7q-10 -5 -121 -79 z" />
<glyph unicode="&#x137;" horiz-adv-x="547" d="M62 0q-4 0 -4 4v672q0 4 4 4h160q3 0 3 -4v-359h35q91 163 93 166q3 4 6 4h175q3 0 1 -4l-138 -231q159 -246 160 -248q4 -4 -1 -4h-178q-3 0 -6 4l-113 182h-34v-182q0 -4 -3 -4h-160zM223 -269q-6 -3 -6 4v214q0 4 4 4h123q4 0 4 -4v-132q0 -4 -4 -7q-10 -5 -121 -79z " />
<glyph unicode="&#x139;" horiz-adv-x="513" d="M60 0v676q0 4 4 4h166q4 0 4 -4v-527h267q4 0 4 -4v-141q0 -4 -4 -4h-441zM277 743q-4 -4 -6 -4h-114q-3 0 -2 4l75 148q3 4 7 4h138q5 0 2 -4z" />
<glyph unicode="&#x13a;" horiz-adv-x="317" d="M247 -6q-54 0 -84 5.5t-57.5 25.5t-38.5 61.5t-11 110.5v479q0 4 4 4h159q3 0 3 -4v-479q0 -39 13 -52t39 -13q9 0 20.5 1t19.5 2t9 1q4 0 5 -4q1 -1 8 -61t7 -62q0 -4 -3 -5q-2 -1 -15 -3t-35.5 -4.5t-42.5 -2.5zM179 754q-4 -4 -6 -4h-114q-3 0 -2 4l75 148q3 4 7 4 h138q5 0 2 -4z" />
<glyph unicode="&#x13b;" horiz-adv-x="513" d="M60 0v676q0 4 4 4h166q4 0 4 -4v-527h267q4 0 4 -4v-141q0 -4 -4 -4h-441zM226 -269q-6 -3 -6 4v214q0 4 4 4h123q4 0 4 -4v-132q0 -4 -4 -7q-10 -5 -121 -79z" />
<glyph unicode="&#x13c;" horiz-adv-x="317" d="M247 -6q-54 0 -84 5.5t-57.5 25.5t-38.5 61.5t-11 110.5v479q0 4 4 4h159q3 0 3 -4v-479q0 -39 13 -52t39 -13q9 0 20.5 1t19.5 2t9 1q4 0 5 -4q1 -1 8 -61t7 -62q0 -4 -3 -5q-2 -1 -15 -3t-35.5 -4.5t-42.5 -2.5zM132 -269q-6 -3 -6 4v214q0 4 4 4h123q4 0 4 -4v-132 q0 -4 -4 -7q-10 -5 -121 -79z" />
<glyph unicode="&#x13d;" horiz-adv-x="513" d="M60 0v676q0 4 4 4h166q4 0 4 -4v-527h267q4 0 4 -4v-141q0 -4 -4 -4h-441zM297 528q-6 -3 -6 4v214q0 4 4 4h123q4 0 4 -4v-132q0 -4 -4 -7q-10 -5 -121 -79z" />
<glyph unicode="&#x13e;" horiz-adv-x="471" d="M247 -6q-54 0 -84 5.5t-57.5 25.5t-38.5 61.5t-11 110.5v479q0 4 4 4h159q3 0 3 -4v-479q0 -39 13 -52t39 -13q9 0 20.5 1t19.5 2t9 1q4 0 5 -4q1 -1 8 -61t7 -62q0 -4 -3 -5q-2 -1 -15 -3t-35.5 -4.5t-42.5 -2.5zM317 458q-6 -3 -6 4v214q0 4 4 4h123q4 0 4 -4v-132 q0 -4 -4 -7q-10 -5 -121 -79z" />
<glyph unicode="&#x141;" horiz-adv-x="539" d="M60 0v230q-40 -26 -42 -27q-4 -2 -4 3v138q0 6 4 7l42 26v300q0 3 4 3h166q4 0 4 -4v-197q120 74 121 75t2 0.5t1 -3.5v-138q0 -5 -3 -7l-121 -74v-183h267q4 0 4 -4v-141q0 -4 -4 -4h-441z" />
<glyph unicode="&#x142;" horiz-adv-x="359" d="M248 -6q-53 0 -83 5.5t-57.5 25t-39 61.5t-11.5 111v50q-34 -21 -35 -22q-4 -2 -4 3v128q0 4 4 7l35 22v291q0 4 4 4h159q4 0 4 -4v-194q64 40 66 41t2.5 0.5t0.5 -3.5v-128q0 -5 -3 -7l-66 -41v-147q0 -41 13 -53t38 -12q9 0 20.5 1t20.5 2l8 1q4 2 4 -3q0 -2 8 -62.5 t8 -61.5q0 -5 -4 -5l-6 -1q-6 -1 -15.5 -2.5t-20.5 -3t-24.5 -2.5t-25.5 -1z" />
<glyph unicode="&#x143;" horiz-adv-x="647" d="M60 0q-4 0 -4 4v672q0 4 5 4h181q4 0 6 -3l189 -377h11v376q0 4 3 4h164q4 0 4 -4v-672q0 -4 -5 -4h-185q-5 0 -6 4l-188 375h-11v-375q0 -4 -4 -4h-160zM344 743q-4 -4 -6 -4h-114q-3 0 -2 4l75 148q3 4 7 4h138q5 0 2 -4z" />
<glyph unicode="&#x144;" horiz-adv-x="543" d="M62 0q-4 0 -4 4v479q0 4 4 4h160q3 0 3 -4v-9q75 19 110 19q28 0 48 -2.5t46.5 -14t43 -32t28.5 -60.5t12 -96v-284q0 -4 -4 -4h-160q-3 0 -3 4v273q0 49 -10.5 63t-32.5 14q-15 0 -34.5 -4t-31.5 -8l-12 -3v-335q0 -4 -3 -4h-160zM302 550q-4 -4 -6 -4h-114q-3 0 -2 4 l75 148q3 4 7 4h138q5 0 2 -4z" />
<glyph unicode="&#x145;" horiz-adv-x="647" d="M60 0q-4 0 -4 4v672q0 4 5 4h181q4 0 6 -3l189 -377h11v376q0 4 3 4h164q4 0 4 -4v-672q0 -4 -5 -4h-185q-5 0 -6 4l-188 375h-11v-375q0 -4 -4 -4h-160zM282 -269q-6 -3 -6 4v214q0 4 4 4h123q4 0 4 -4v-132q0 -4 -4 -7q-10 -5 -121 -79z" />
<glyph unicode="&#x146;" horiz-adv-x="543" d="M62 0q-4 0 -4 4v479q0 4 4 4h160q3 0 3 -4v-9q75 19 110 19q28 0 48 -2.5t46.5 -14t43 -32t28.5 -60.5t12 -96v-284q0 -4 -4 -4h-160q-3 0 -3 4v273q0 49 -10.5 63t-32.5 14q-15 0 -34.5 -4t-31.5 -8l-12 -3v-335q0 -4 -3 -4h-160zM229 -269q-6 -3 -6 4v214q0 4 4 4h123 q4 0 4 -4v-132q0 -4 -4 -7q-10 -5 -121 -79z" />
<glyph unicode="&#x147;" horiz-adv-x="647" d="M60 0q-4 0 -4 4v672q0 4 5 4h181q4 0 6 -3l189 -377h11v376q0 4 3 4h164q4 0 4 -4v-672q0 -4 -5 -4h-185q-5 0 -6 4l-188 375h-11v-375q0 -4 -4 -4h-160zM387 890h119q5 0 2 -4l-113 -148q-3 -4 -8 -4h-108q-6 0 -7 4q-1 1 -29.5 38t-56.5 74l-28 36q-2 4 2 4h119 q3 0 6 -4l47 -62h2q45 59 47 62q3 4 6 4z" />
<glyph unicode="&#x148;" horiz-adv-x="543" d="M62 0q-4 0 -4 4v479q0 4 4 4h160q3 0 3 -4v-9q75 19 110 19q28 0 48 -2.5t46.5 -14t43 -32t28.5 -60.5t12 -96v-284q0 -4 -4 -4h-160q-3 0 -3 4v273q0 49 -10.5 63t-32.5 14q-15 0 -34.5 -4t-31.5 -8l-12 -3v-335q0 -4 -3 -4h-160zM335 697h119q5 0 2 -4l-113 -148 q-3 -4 -8 -4h-108q-6 0 -7 4q-1 1 -29.5 38t-56.5 73l-28 37q-2 4 2 4h119q3 0 6 -4l47 -62h2q45 59 47 62q3 4 6 4z" />
<glyph unicode="&#x14c;" horiz-adv-x="597" d="M308 145q25 0 38.5 3t26 14t17.5 34.5t5 63.5v162q0 74 -19.5 93.5t-67.5 19.5q-24 0 -37 -2.5t-26.5 -13t-19 -34.5t-5.5 -63v-162q0 -75 19 -95t69 -20zM308 -11q-46 0 -77.5 3.5t-69.5 18t-61.5 41.5t-39.5 76.5t-16 119.5v189q0 68 16 116.5t39.5 74.5t62 40.5t70 18 t76.5 3.5q44 0 75 -3t69.5 -17.5t62 -40.5t40 -74.5t16.5 -117.5v-189q0 -52 -8.5 -92.5t-21.5 -67.5t-35.5 -46.5t-42.5 -29.5t-50 -15.5t-51.5 -6.5t-53.5 -1zM460 756h-302q-4 0 -4 4v109q0 4 4 4h302q3 0 3 -4v-109q0 -4 -3 -4z" />
<glyph unicode="&#x14d;" horiz-adv-x="513" d="M267 130q19 0 30 4t20 22.5t9 53.5v71q0 48 -15.5 63t-44.5 15q-13 0 -22 -2.5t-18 -9.5t-14 -23.5t-5 -42.5v-71q0 -50 15 -65t45 -15zM267 -8q-40 0 -69.5 3.5t-61 16.5t-51.5 35t-33 61t-13 94v87q0 55 13.5 95t34 61.5t53 33.5t60 15t66.5 3t65.5 -2.5t60 -14.5 t54 -33t34.5 -60.5t14 -94.5v-90q0 -56 -13.5 -96t-33 -62t-52 -34t-60.5 -15t-68 -3zM418 563h-302q-4 0 -4 4v109q0 4 4 4h302q3 0 3 -4v-109q0 -4 -3 -4z" />
<glyph unicode="&#x14e;" horiz-adv-x="597" d="M308 145q25 0 38.5 3t26 14t17.5 34.5t5 63.5v162q0 74 -19.5 93.5t-67.5 19.5q-24 0 -37 -2.5t-26.5 -13t-19 -34.5t-5.5 -63v-162q0 -75 19 -95t69 -20zM308 -11q-46 0 -77.5 3.5t-69.5 18t-61.5 41.5t-39.5 76.5t-16 119.5v189q0 68 16 116.5t39.5 74.5t62 40.5t70 18 t76.5 3.5q44 0 75 -3t69.5 -17.5t62 -40.5t40 -74.5t16.5 -117.5v-189q0 -52 -8.5 -92.5t-21.5 -67.5t-35.5 -46.5t-42.5 -29.5t-50 -15.5t-51.5 -6.5t-53.5 -1zM311 735q-155 0 -155 141q0 7 8 7h69q7 0 10 -6q11 -25 23.5 -33t42.5 -8q27 0 42 9.5t22 31.5q3 6 12 6h69 q9 0 9 -7q-6 -141 -152 -141z" />
<glyph unicode="&#x14f;" horiz-adv-x="513" d="M267 130q19 0 30 4t20 22.5t9 53.5v71q0 48 -15.5 63t-44.5 15q-13 0 -22 -2.5t-18 -9.5t-14 -23.5t-5 -42.5v-71q0 -50 15 -65t45 -15zM267 -8q-40 0 -69.5 3.5t-61 16.5t-51.5 35t-33 61t-13 94v87q0 55 13.5 95t34 61.5t53 33.5t60 15t66.5 3t65.5 -2.5t60 -14.5 t54 -33t34.5 -60.5t14 -94.5v-90q0 -56 -13.5 -96t-33 -62t-52 -34t-60.5 -15t-68 -3zM268 542q-155 0 -155 141q0 7 8 7h69q7 0 10 -6q11 -25 23.5 -33t42.5 -8q27 0 42 9.5t22 31.5q3 6 12 6h69q9 0 9 -7q-6 -141 -152 -141z" />
<glyph unicode="&#x150;" horiz-adv-x="597" d="M308 -11q-46 0 -77.5 3.5t-69.5 18t-61.5 41.5t-39.5 76.5t-16 119.5v189q0 68 16 116.5t39.5 74.5t62 40.5t70 18t76.5 3.5q44 0 75 -3t69.5 -17.5t62 -40.5t40 -74.5t16.5 -117.5v-189q0 -52 -8.5 -92.5t-21.5 -67.5t-35.5 -46.5t-42.5 -29.5t-50 -15.5t-51.5 -6.5 t-53.5 -1zM308 145q25 0 38.5 3t26 14t17.5 34.5t5 63.5v162q0 74 -19.5 93.5t-67.5 19.5q-24 0 -37 -2.5t-26.5 -13t-19 -34.5t-5.5 -63v-162q0 -75 19 -95t69 -20zM260 741q-1 -4 -6 -4h-115q-2 0 -1 4q1 1 38 74t38 74q1 4 6 4h139q3 0 2 -4zM439 741q-3 -4 -6 -4h-114 q-3 0 -2 4q1 1 38 74t38 74q1 4 6 4h139q4 0 1 -4z" />
<glyph unicode="&#x151;" horiz-adv-x="513" d="M267 -8q-40 0 -69.5 3.5t-61 16.5t-51.5 35t-33 61t-13 94v87q0 55 13.5 95t34 61.5t53 33.5t60 15t66.5 3t65.5 -2.5t60 -14.5t54 -33t34.5 -60.5t14 -94.5v-90q0 -56 -13.5 -96t-33 -62t-52 -34t-60.5 -15t-68 -3zM267 130q19 0 30 4t20 22.5t9 53.5v71q0 48 -15.5 63 t-44.5 15q-13 0 -22 -2.5t-18 -9.5t-14 -23.5t-5 -42.5v-71q0 -50 15 -65t45 -15zM222 548q-1 -4 -6 -4h-115q-2 0 -1 4q1 1 38 74t38 74q1 4 6 4h139q3 0 2 -4zM401 548q-3 -4 -6 -4h-114q-3 0 -2 4q1 1 38 74t38 74q1 4 6 4h139q4 0 1 -4z" />
<glyph unicode="&#x152;" horiz-adv-x="885" d="M309 150q22 0 34 2.5t26 13.5t20.5 38t6.5 71v133q0 42 -6.5 68.5t-21 37t-26.5 13.5t-33 3t-33 -3t-26.5 -13.5t-21.5 -37t-7 -68.5v-133q0 -43 6.5 -70t20.5 -38t26.5 -14t34.5 -3zM308 0q-43 0 -72.5 3t-68.5 18t-63 41.5t-41.5 77.5t-17.5 123v160q0 68 16 117 t39.5 75.5t61 41.5t70 19t76.5 4q23 0 88 -15v15h441q4 0 4 -4v-141q0 -4 -4 -4h-267v-113h220q4 0 4 -4v-141q0 -4 -4 -4h-220v-120h267q4 0 4 -4v-141q0 -4 -4 -4h-441v16q-54 -16 -88 -16z" />
<glyph unicode="&#x153;" horiz-adv-x="814" d="M270 132q14 0 22.5 2t18 9.5t14 24.5t4.5 45v64q0 49 -15.5 63.5t-44.5 14.5q-13 0 -21.5 -2t-18 -9.5t-14.5 -24t-5 -42.5v-64q0 -51 15.5 -66t44.5 -15zM498 292h109q0 37 -14 50t-40 13q-55 0 -55 -63zM270 -6q-41 0 -71.5 4t-61.5 17t-50.5 35.5t-32 61t-12.5 92.5 v81q0 56 14.5 96t34.5 61.5t53.5 33.5t60 14.5t64.5 2.5q32 0 73 -8.5t66 -25.5q57 34 145 34q31 0 55.5 -2.5t57 -14.5t54 -33t36.5 -60.5t15 -94.5v-97h-273q2 -37 18 -50t54 -13q23 0 47.5 1.5t43.5 3.5t34.5 4t24.5 3l9 2q3 0 4 -3l31 -109q0 -4 -3 -5q-93 -31 -193 -31 q-103 0 -158 36q-52 -36 -140 -36z" />
<glyph unicode="&#x154;" horiz-adv-x="598" d="M229 0h-165q-4 0 -4 4v676h271q24 0 46 -2.5t51.5 -9t53.5 -21t45.5 -36.5t33.5 -58t12 -82v-49q0 -64 -25.5 -108.5t-65.5 -64.5l108 -245q1 -4 -3 -4h-184q-4 0 -5 4l-84 213h-81v-213q0 -4 -4 -4zM233 366h88q15 0 30.5 4t31.5 19t16 40v37q0 37 -25 51t-54 14h-87 v-165zM320 743q-4 -4 -6 -4h-114q-3 0 -2 4l75 148q3 4 7 4h138q5 0 2 -4z" />
<glyph unicode="&#x155;" horiz-adv-x="415" d="M62 0q-4 0 -4 4v479q0 4 4 4h160q3 0 3 -4v-14q56 24 89 24q30 0 57.5 -5t38.5 -9.5t14 -6.5q2 -1 2 -5q0 -1 -18.5 -58t-19.5 -59q0 -3 -4 -3q-24 8 -87 8q-15 0 -33 -6t-28 -12l-11 -6v-327q0 -4 -3 -4h-160zM238 550q-4 -4 -6 -4h-114q-3 0 -2 4l75 148q3 4 7 4h138 q5 0 2 -4z" />
<glyph unicode="&#x156;" horiz-adv-x="598" d="M229 0h-165q-4 0 -4 4v676h271q24 0 46 -2.5t51.5 -9t53.5 -21t45.5 -36.5t33.5 -58t12 -82v-49q0 -64 -25.5 -108.5t-65.5 -64.5l108 -245q1 -4 -3 -4h-184q-4 0 -5 4l-84 213h-81v-213q0 -4 -4 -4zM233 366h88q15 0 30.5 4t31.5 19t16 40v37q0 37 -25 51t-54 14h-87 v-165zM252 -269q-6 -3 -6 4v214q0 4 4 4h123q4 0 4 -4v-132q0 -4 -4 -7q-10 -5 -121 -79z" />
<glyph unicode="&#x157;" horiz-adv-x="415" d="M62 0q-4 0 -4 4v479q0 4 4 4h160q3 0 3 -4v-14q56 24 89 24q30 0 57.5 -5t38.5 -9.5t14 -6.5q2 -1 2 -5q0 -1 -18.5 -58t-19.5 -59q0 -3 -4 -3q-24 8 -87 8q-15 0 -33 -6t-28 -12l-11 -6v-327q0 -4 -3 -4h-160zM179 -249q-6 -3 -6 4v214q0 4 4 4h123q4 0 4 -4v-132 q0 -4 -4 -7q-10 -5 -121 -79z" />
<glyph unicode="&#x158;" horiz-adv-x="598" d="M233 366h88q15 0 30.5 4t31.5 19t16 40v37q0 37 -25 51t-54 14h-87v-165zM229 0h-165q-4 0 -4 4v676h271q24 0 46 -2.5t51.5 -9t53.5 -21t45.5 -36.5t33.5 -58t12 -82v-49q0 -64 -25.5 -108.5t-65.5 -64.5l108 -245q1 -4 -3 -4h-184q-4 0 -5 4l-84 213h-81v-213 q0 -4 -4 -4zM343 890h119q5 0 2 -4l-113 -148q-3 -4 -8 -4h-108q-6 0 -7 4q-1 1 -29.5 38t-56.5 74l-28 36q-2 4 2 4h119q3 0 6 -4l47 -62h2q45 59 47 62q3 4 6 4z" />
<glyph unicode="&#x159;" horiz-adv-x="415" d="M62 0q-4 0 -4 4v479q0 4 4 4h160q3 0 3 -4v-14q56 24 89 24q30 0 57.5 -5t38.5 -9.5t14 -6.5q2 -1 2 -5q0 -1 -18.5 -58t-19.5 -59q0 -3 -4 -3q-24 8 -87 8q-15 0 -33 -6t-28 -12l-11 -6v-327q0 -4 -3 -4h-160zM271 697h119q5 0 2 -4l-113 -148q-3 -4 -8 -4h-108 q-6 0 -7 4q-1 1 -29.5 38t-56.5 73l-28 37q-2 4 2 4h119q3 0 6 -4l47 -62h2q45 59 47 62q3 4 6 4z" />
<glyph unicode="&#x15a;" horiz-adv-x="575" d="M294 -10q-73 0 -135 9.5t-81.5 16t-27.5 10.5q-4 2 -2 6l39 137q0 3 5 3q8 -3 29 -8t73 -12t102 -7q42 0 64.5 7.5t22.5 30.5v35q0 41 -111 54q-120 13 -168.5 49.5t-48.5 127.5v84q0 159 242 159q66 0 122.5 -8.5t75.5 -14.5t25 -9q3 -1 3 -6l-38 -130q-1 -3 -5 -3 q-4 1 -27.5 5.5t-68.5 9.5t-85 5q-65 0 -65 -36v-31q0 -22 18.5 -32.5t82.5 -18.5q123 -16 174.5 -55.5t51.5 -128.5v-84q0 -43 -17.5 -74.5t-43 -48.5t-63.5 -27t-70.5 -12.5t-72.5 -2.5zM328 743q-4 -4 -6 -4h-114q-3 0 -2 4l75 148q3 4 7 4h138q5 0 2 -4z" />
<glyph unicode="&#x15b;" horiz-adv-x="488" d="M254 -8q-129 0 -204 25q-3 1 -3 5l33 113q1 2 4 2l10 -2q11 -2 28.5 -4.5t38 -4.5t46 -4t47.5 -2q53 0 53 19v17q0 14 -16 19.5t-63 10.5q-74 8 -123 37t-49 86v60q0 128 197 128q114 0 186 -24q2 -1 2 -5q0 -1 -14 -53t-15 -54q-2 -3 -5 -3q-3 1 -22.5 4t-57 6t-71.5 3 q-45 0 -45 -16v-17q0 -19 90 -28q82 -8 122 -37.5t40 -85.5v-61q0 -43 -18 -71.5t-51 -41t-65 -17t-75 -4.5zM279 550q-4 -4 -6 -4h-114q-3 0 -2 4l75 148q3 4 7 4h138q5 0 2 -4z" />
<glyph unicode="&#x15c;" horiz-adv-x="575" d="M294 -10q-73 0 -135 9.5t-81.5 16t-27.5 10.5q-4 2 -2 6l39 137q0 3 5 3q8 -3 29 -8t73 -12t102 -7q42 0 64.5 7.5t22.5 30.5v35q0 41 -111 54q-120 13 -168.5 49.5t-48.5 127.5v84q0 159 242 159q66 0 122.5 -8.5t75.5 -14.5t25 -9q3 -1 3 -6l-38 -130q-1 -3 -5 -3 q-4 1 -27.5 5.5t-68.5 9.5t-85 5q-65 0 -65 -36v-31q0 -22 18.5 -32.5t82.5 -18.5q123 -16 174.5 -55.5t51.5 -128.5v-84q0 -43 -17.5 -74.5t-43 -48.5t-63.5 -27t-70.5 -12.5t-72.5 -2.5zM243 738h-115q-2 0 -1 4q1 2 50 74.5t49 73.5q1 4 7 4h127q5 0 8 -4l98 -148 q2 -4 -1 -4h-114q-4 0 -7 4l-46 63h-3q-44 -60 -46 -63q-3 -4 -6 -4z" />
<glyph unicode="&#x15d;" horiz-adv-x="488" d="M254 -8q-129 0 -204 25q-3 1 -3 5l33 113q1 2 4 2l10 -2q11 -2 28.5 -4.5t38 -4.5t46 -4t47.5 -2q53 0 53 19v17q0 14 -16 19.5t-63 10.5q-74 8 -123 37t-49 86v60q0 128 197 128q114 0 186 -24q2 -1 2 -5q0 -1 -14 -53t-15 -54q-2 -3 -5 -3q-3 1 -22.5 4t-57 6t-71.5 3 q-45 0 -45 -16v-17q0 -19 90 -28q82 -8 122 -37.5t40 -85.5v-61q0 -43 -18 -71.5t-51 -41t-65 -17t-75 -4.5zM205 545h-115q-2 0 -1 4q1 2 50 74.5t49 73.5q1 4 7 4h127q5 0 8 -4l98 -148q2 -4 -1 -4h-114q-4 0 -7 4l-46 63h-3q-44 -60 -46 -63q-3 -4 -6 -4z" />
<glyph unicode="&#x15e;" horiz-adv-x="575" d="M329 -166h-139q-4 0 -2 4l73 153q-63 2 -116.5 11t-70.5 15t-24 9q-4 2 -2 6l39 137q0 3 5 3q8 -3 29 -8t73 -12t102 -7q42 0 64.5 7.5t22.5 30.5v35q0 41 -111 54q-120 13 -168.5 49.5t-48.5 127.5v84q0 159 242 159q66 0 122.5 -8.5t75.5 -14.5t25 -9q3 -1 3 -6 l-38 -130q-1 -3 -5 -3q-4 1 -27.5 5.5t-68.5 9.5t-85 5q-65 0 -65 -36v-31q0 -22 18.5 -32.5t82.5 -18.5q123 -16 174.5 -55.5t51.5 -128.5v-84q0 -138 -174 -159l-52 -158q-2 -4 -6 -4z" />
<glyph unicode="&#x15f;" horiz-adv-x="488" d="M278 -166h-139q-4 0 -2 4l74 155q-44 2 -84 8t-57 10.5t-20 5.5t-3 5l33 113q1 2 4 2l10 -2q11 -2 28.5 -4.5t38 -4.5t46 -4t47.5 -2q53 0 53 19v17q0 14 -16 19.5t-63 10.5q-74 8 -123 37t-49 86v60q0 128 197 128q114 0 186 -24q2 -1 2 -5q0 -1 -14 -53t-15 -54 q-2 -3 -5 -3q-3 1 -22.5 4t-57 6t-71.5 3q-45 0 -45 -16v-17q0 -19 90 -28q82 -8 122 -37.5t40 -85.5v-61q0 -109 -126 -128l-53 -160q-2 -4 -6 -4z" />
<glyph unicode="&#x160;" horiz-adv-x="575" d="M294 -10q-73 0 -135 9.5t-81.5 16t-27.5 10.5q-4 2 -2 6l39 137q0 3 5 3q8 -3 29 -8t73 -12t102 -7q42 0 64.5 7.5t22.5 30.5v35q0 41 -111 54q-120 13 -168.5 49.5t-48.5 127.5v84q0 159 242 159q66 0 122.5 -8.5t75.5 -14.5t25 -9q3 -1 3 -6l-38 -130q-1 -3 -5 -3 q-4 1 -27.5 5.5t-68.5 9.5t-85 5q-65 0 -65 -36v-31q0 -22 18.5 -32.5t82.5 -18.5q123 -16 174.5 -55.5t51.5 -128.5v-84q0 -43 -17.5 -74.5t-43 -48.5t-63.5 -27t-70.5 -12.5t-72.5 -2.5zM350 890h119q5 0 2 -4l-113 -148q-3 -4 -8 -4h-108q-6 0 -7 4q-1 1 -29.5 38 t-56.5 74l-28 36q-2 4 2 4h119q3 0 6 -4l47 -62h2q45 59 47 62q3 4 6 4z" />
<glyph unicode="&#x161;" horiz-adv-x="488" d="M254 -8q-129 0 -204 25q-3 1 -3 5l33 113q1 2 4 2l10 -2q11 -2 28.5 -4.5t38 -4.5t46 -4t47.5 -2q53 0 53 19v17q0 14 -16 19.5t-63 10.5q-74 8 -123 37t-49 86v60q0 128 197 128q114 0 186 -24q2 -1 2 -5q0 -1 -14 -53t-15 -54q-2 -3 -5 -3q-3 1 -22.5 4t-57 6t-71.5 3 q-45 0 -45 -16v-17q0 -19 90 -28q82 -8 122 -37.5t40 -85.5v-61q0 -43 -18 -71.5t-51 -41t-65 -17t-75 -4.5zM307 697h119q5 0 2 -4l-113 -148q-3 -4 -8 -4h-108q-6 0 -7 4q-1 1 -29.5 38t-56.5 73l-28 37q-2 4 2 4h119q3 0 6 -4l47 -62h2q45 59 47 62q3 4 6 4z" />
<glyph unicode="&#x164;" horiz-adv-x="540" d="M197 0q-4 0 -4 4v523h-168q-4 0 -4 4v145q0 4 4 4h511q3 0 3 -4v-145q0 -4 -3 -4h-169v-523q0 -4 -4 -4h-166zM333 890h119q5 0 2 -4l-113 -148q-3 -4 -8 -4h-108q-6 0 -7 4q-1 1 -29.5 38t-56.5 74l-28 36q-2 4 2 4h119q3 0 6 -4l47 -62h2q45 59 47 62q3 4 6 4z" />
<glyph unicode="&#x165;" horiz-adv-x="492" d="M262 -5q-29 0 -47.5 1t-41 5t-36 12.5t-28 23t-22 36t-12.5 53t-5 72.5v168h-44q-4 0 -4 4v114q0 4 4 4h44v149q0 4 4 4h160q4 0 4 -4v-149h89q4 0 4 -4v-114q0 -4 -4 -4h-89v-168q0 -42 13.5 -53.5t37.5 -11.5q11 0 22.5 1t18.5 2t8 1q3 0 4 -4q1 -2 8.5 -61.5 t7.5 -61.5q1 -2 -2 -5q-40 -10 -94 -10zM365 458q-6 -3 -6 4v214q0 4 4 4h123q4 0 4 -4v-132q0 -4 -4 -7q-10 -5 -121 -79z" />
<glyph unicode="&#x168;" d="M297 -10q-136 0 -188.5 61.5t-52.5 199.5v425q0 4 4 4h167q3 0 3 -4v-413q0 -25 1 -39t4.5 -31t10.5 -25.5t20 -14.5t32 -6h40q42 0 55 26t13 90v413q0 4 3 4h167q4 0 4 -4v-425q0 -65 -9 -108.5t-34.5 -80.5t-74.5 -54.5t-125 -17.5h-40zM166 748q-3 0 -3 5v82 q0 11 7 20q30 35 80 35q31 0 74 -19t66 -19q24 0 49 17.5t27 17.5q5 0 5 -6v-80q0 -13 -8 -21q-39 -39 -81 -39q-32 0 -74 20.5t-63 20.5q-26 0 -52 -17t-27 -17z" />
<glyph unicode="&#x169;" horiz-adv-x="545" d="M506 487q3 0 3 -4v-479q0 -4 -3 -4h-160q-4 0 -4 4v7q-75 -19 -108 -19q-29 0 -48.5 2.5t-46.5 14t-43.5 32t-28.5 60.5t-12 96v286q0 4 3 4h160q4 0 4 -4v-275q0 -49 10.5 -63t32.5 -14q15 0 34 3.5t31 7.5l12 4v337q0 4 4 4h160zM132 555q-3 0 -3 5v82q0 11 7 20 q30 35 80 35q31 0 74 -19t66 -19q24 0 49 17.5t27 17.5q5 0 5 -6v-80q0 -13 -8 -21q-39 -39 -81 -39q-32 0 -74 20.5t-63 20.5q-26 0 -52 -17t-27 -17z" />
<glyph unicode="&#x16a;" d="M297 -10q-136 0 -188.5 61.5t-52.5 199.5v425q0 4 4 4h167q3 0 3 -4v-413q0 -25 1 -39t4.5 -31t10.5 -25.5t20 -14.5t32 -6h40q42 0 55 26t13 90v413q0 4 3 4h167q4 0 4 -4v-425q0 -65 -9 -108.5t-34.5 -80.5t-74.5 -54.5t-125 -17.5h-40zM468 756h-302q-4 0 -4 4v109 q0 4 4 4h302q3 0 3 -4v-109q0 -4 -3 -4z" />
<glyph unicode="&#x16b;" horiz-adv-x="545" d="M506 487q3 0 3 -4v-479q0 -4 -3 -4h-160q-4 0 -4 4v7q-75 -19 -108 -19q-29 0 -48.5 2.5t-46.5 14t-43.5 32t-28.5 60.5t-12 96v286q0 4 3 4h160q4 0 4 -4v-275q0 -49 10.5 -63t32.5 -14q15 0 34 3.5t31 7.5l12 4v337q0 4 4 4h160zM434 563h-302q-4 0 -4 4v109q0 4 4 4 h302q3 0 3 -4v-109q0 -4 -3 -4z" />
<glyph unicode="&#x16c;" d="M297 -10q-136 0 -188.5 61.5t-52.5 199.5v425q0 4 4 4h167q3 0 3 -4v-413q0 -25 1 -39t4.5 -31t10.5 -25.5t20 -14.5t32 -6h40q42 0 55 26t13 90v413q0 4 3 4h167q4 0 4 -4v-425q0 -65 -9 -108.5t-34.5 -80.5t-74.5 -54.5t-125 -17.5h-40zM320 735q-155 0 -155 141 q0 7 8 7h69q7 0 10 -6q11 -25 23.5 -33t42.5 -8q27 0 42 9.5t22 31.5q3 6 12 6h69q9 0 9 -7q-6 -141 -152 -141z" />
<glyph unicode="&#x16d;" horiz-adv-x="545" d="M506 487q3 0 3 -4v-479q0 -4 -3 -4h-160q-4 0 -4 4v7q-75 -19 -108 -19q-29 0 -48.5 2.5t-46.5 14t-43.5 32t-28.5 60.5t-12 96v286q0 4 3 4h160q4 0 4 -4v-275q0 -49 10.5 -63t32.5 -14q15 0 34 3.5t31 7.5l12 4v337q0 4 4 4h160zM285 542q-155 0 -155 141q0 7 8 7h69 q7 0 10 -6q11 -25 23.5 -33t42.5 -8q27 0 42 9.5t22 31.5q3 6 12 6h69q9 0 9 -7q-6 -141 -152 -141z" />
<glyph unicode="&#x16e;" d="M297 -10q-136 0 -188.5 61.5t-52.5 199.5v425q0 4 4 4h167q3 0 3 -4v-413q0 -25 1 -39t4.5 -31t10.5 -25.5t20 -14.5t32 -6h40q42 0 55 26t13 90v413q0 4 3 4h167q4 0 4 -4v-425q0 -65 -9 -108.5t-34.5 -80.5t-74.5 -54.5t-125 -17.5h-40zM317 716q-23 0 -39.5 3 t-34 12.5t-27 30.5t-9.5 53v25q0 30 9.5 50.5t27 30t35 13t41.5 3.5q22 0 37.5 -3t33 -11.5t27 -29.5t9.5 -53v-25q0 -61 -30 -80t-80 -19zM317 782q13 0 21.5 2t15 11.5t6.5 26.5v11q0 39 -41 39q-45 0 -45 -39v-11q0 -25 11 -32.5t32 -7.5z" />
<glyph unicode="&#x16f;" horiz-adv-x="545" d="M506 487q3 0 3 -4v-479q0 -4 -3 -4h-160q-4 0 -4 4v7q-75 -19 -108 -19q-29 0 -48.5 2.5t-46.5 14t-43.5 32t-28.5 60.5t-12 96v286q0 4 3 4h160q4 0 4 -4v-275q0 -49 10.5 -63t32.5 -14q15 0 34 3.5t31 7.5l12 4v337q0 4 4 4h160zM283 523q-23 0 -39.5 3t-34 12.5 t-27 30.5t-9.5 53v25q0 30 9.5 50.5t27 30t35 13t41.5 3.5q22 0 37.5 -3t33 -11.5t27 -29.5t9.5 -53v-25q0 -61 -30 -80t-80 -19zM283 589q13 0 21.5 2t15 11.5t6.5 26.5v11q0 39 -41 39q-45 0 -45 -39v-11q0 -25 11 -32.5t32 -7.5z" />
<glyph unicode="&#x170;" d="M297 -10q-136 0 -188.5 61.5t-52.5 199.5v425q0 4 4 4h167q3 0 3 -4v-413q0 -25 1 -39t4.5 -31t10.5 -25.5t20 -14.5t32 -6h40q42 0 55 26t13 90v413q0 4 3 4h167q4 0 4 -4v-425q0 -65 -9 -108.5t-34.5 -80.5t-74.5 -54.5t-125 -17.5h-40zM277 741q-1 -4 -6 -4h-115 q-2 0 -1 4q1 1 38 74t38 74q1 4 6 4h139q3 0 2 -4zM456 741q-3 -4 -6 -4h-114q-3 0 -2 4q1 1 38 74t38 74q1 4 6 4h139q4 0 1 -4z" />
<glyph unicode="&#x171;" horiz-adv-x="545" d="M506 487q3 0 3 -4v-479q0 -4 -3 -4h-160q-4 0 -4 4v7q-75 -19 -108 -19q-29 0 -48.5 2.5t-46.5 14t-43.5 32t-28.5 60.5t-12 96v286q0 4 3 4h160q4 0 4 -4v-275q0 -49 10.5 -63t32.5 -14q15 0 34 3.5t31 7.5l12 4v337q0 4 4 4h160zM243 548q-1 -4 -6 -4h-115q-2 0 -1 4 q1 1 38 74t38 74q1 4 6 4h139q3 0 2 -4zM422 548q-3 -4 -6 -4h-114q-3 0 -2 4q1 1 38 74t38 74q1 4 6 4h139q4 0 1 -4z" />
<glyph unicode="&#x172;" d="M300 -197q-49 0 -78 20t-29 77t48 93q-104 12 -144.5 73t-40.5 185v425q0 4 4 4h167q3 0 3 -4v-413q0 -25 1 -39t4.5 -31t10.5 -25.5t20 -14.5t32 -6h40q42 0 55 26t13 90v413q0 4 3 4h167q4 0 4 -4v-425q0 -120 -39.5 -183.5t-152.5 -74.5q-37 -19 -56 -34t-19 -31 q0 -15 14 -15q13 0 26 9q5 3 9 -1q1 -2 20 -38t19 -37q4 -5 -1 -9q-4 -4 -15 -11t-35.5 -15t-49.5 -8z" />
<glyph unicode="&#x173;" horiz-adv-x="545" d="M409 -195q-49 0 -78 20t-29 77q0 60 55 98h-11q-4 0 -4 4v7q-75 -19 -108 -19q-29 0 -48.5 2.5t-46.5 14t-43.5 32t-28.5 60.5t-12 96v286q0 4 3 4h160q4 0 4 -4v-275q0 -49 10.5 -63t32.5 -14q15 0 34 3.5t31 7.5l12 4v337q0 4 4 4h160q3 0 3 -4v-479q0 -4 -2 -4 q-1 0 -3 -2q-28 -15 -41.5 -23t-27 -20.5t-13.5 -24.5q0 -15 14 -15q12 0 26 9q5 3 9 -1q1 -2 20 -38t19 -37q4 -6 -1 -9q-4 -4 -15 -11t-35.5 -15t-49.5 -8z" />
<glyph unicode="&#x174;" horiz-adv-x="877" d="M149 0q-5 0 -6 5l-116 671q-1 4 2 4h174q4 0 5 -4l62 -406h19q85 270 86 273q1 4 5 4h137q4 0 5 -5l87 -272h19q61 403 62 406q1 4 5 4h174q5 0 3 -4l-115 -671q-1 -5 -7 -5h-209q-5 0 -6 5l-80 267h-12q-78 -260 -79 -266q-2 -6 -8 -6h-207zM394 738h-115q-2 0 -1 4 q1 2 50 74.5t49 73.5q1 4 7 4h127q5 0 8 -4l98 -148q2 -4 -1 -4h-114q-4 0 -7 4l-46 63h-3q-44 -60 -46 -63q-3 -4 -6 -4z" />
<glyph unicode="&#x175;" horiz-adv-x="735" d="M147 0q-2 0 -3 4q-1 2 -55.5 239.5t-54.5 239.5q0 4 3 4h161q5 0 5 -4l47 -252h7q62 154 63 157q3 4 5 4h108q1 0 4 -4l64 -157h7q42 249 42 252q2 4 6 4h161q3 0 2 -4q-1 -3 -54 -240t-53 -239q-1 -4 -5 -4h-146q-3 0 -4 4l-75 193h-7q-76 -190 -77 -193q-1 -4 -4 -4 h-147zM324 545h-115q-2 0 -1 4q1 2 50 74.5t49 73.5q1 4 7 4h127q5 0 8 -4l98 -148q2 -4 -1 -4h-114q-4 0 -7 4l-46 63h-3q-44 -60 -46 -63q-3 -4 -6 -4z" />
<glyph unicode="&#x176;" horiz-adv-x="577" d="M215 0q-4 0 -4 4v255q-198 414 -199 417q-3 4 3 4h175q4 0 5 -4l103 -231h6q99 228 100 231q1 4 5 4h172q4 0 3 -4l-199 -417v-255q0 -4 -3 -4h-167zM244 738h-115q-2 0 -1 4q1 2 50 74.5t49 73.5q1 4 7 4h127q5 0 8 -4l98 -148q2 -4 -1 -4h-114q-4 0 -7 4l-46 63h-3 q-44 -60 -46 -63q-3 -4 -6 -4z" />
<glyph unicode="&#x177;" horiz-adv-x="508" d="M73 -180q-3 0 -3 4q1 2 7 64t6 64q0 4 5 4h29q45 0 60 43l9 30q-169 451 -170 454q-2 4 2 4h166q5 0 5 -4l75 -239h9q69 236 69 239q2 4 5 4h163q3 0 2 -4q-1 -2 -47 -126t-96 -257.5t-58 -154.5q-13 -35 -28.5 -59t-30 -37t-36 -19.5t-38 -8t-45.5 -1.5h-60zM214 545 h-115q-2 0 -1 4q1 2 50 74.5t49 73.5q1 4 7 4h127q5 0 8 -4l98 -148q2 -4 -1 -4h-114q-4 0 -7 4l-46 63h-3q-44 -60 -46 -63q-3 -4 -6 -4z" />
<glyph unicode="&#x178;" horiz-adv-x="577" d="M215 0q-4 0 -4 4v255q-198 414 -199 417q-3 4 3 4h175q4 0 5 -4l103 -231h6q99 228 100 231q1 4 5 4h172q4 0 3 -4l-199 -417v-255q0 -4 -3 -4h-167zM146 750q-4 0 -4 4v122q0 4 4 4h118q3 0 3 -4v-122q0 -4 -3 -4h-118zM341 750q-4 0 -4 4v122q0 4 4 4h117q4 0 4 -4 v-122q0 -4 -4 -4h-117z" />
<glyph unicode="&#x179;" horiz-adv-x="535" d="M45 0q-4 0 -4 4v140q0 4 5 12l259 361v11h-249q-3 0 -3 4v144q0 4 3 4h451q4 0 4 -4v-139q0 -8 -4 -13l-259 -361v-11h259q4 0 4 -4v-144q0 -4 -4 -4h-462zM317 743q-4 -4 -6 -4h-114q-3 0 -2 4l75 148q3 4 7 4h138q5 0 2 -4z" />
<glyph unicode="&#x17a;" horiz-adv-x="471" d="M54 0q-4 0 -4 4v121q0 3 5 7l188 215v7h-183q-4 0 -4 4v125q0 4 4 4h381q4 0 4 -4v-125q0 -2 -3 -6l-189 -211v-8h192q4 0 4 -4v-125q0 -4 -4 -4h-391zM286 550q-4 -4 -6 -4h-114q-3 0 -2 4l75 148q3 4 7 4h138q5 0 2 -4z" />
<glyph unicode="&#x17b;" horiz-adv-x="535" d="M45 0q-4 0 -4 4v140q0 4 5 12l259 361v11h-249q-3 0 -3 4v144q0 4 3 4h451q4 0 4 -4v-139q0 -8 -4 -13l-259 -361v-11h259q4 0 4 -4v-144q0 -4 -4 -4h-462zM212 735q-4 0 -4 4v130q0 4 4 4h149q3 0 3 -4v-130q0 -4 -4 -4h-148z" />
<glyph unicode="&#x17c;" horiz-adv-x="471" d="M54 0q-4 0 -4 4v121q0 3 5 7l188 215v7h-183q-4 0 -4 4v125q0 4 4 4h381q4 0 4 -4v-125q0 -2 -3 -6l-189 -211v-8h192q4 0 4 -4v-125q0 -4 -4 -4h-391zM180 542q-4 0 -4 4v130q0 4 4 4h149q3 0 3 -4v-130q0 -4 -4 -4h-148z" />
<glyph unicode="&#x17d;" horiz-adv-x="535" d="M45 0q-4 0 -4 4v140q0 4 5 12l259 361v11h-249q-3 0 -3 4v144q0 4 3 4h451q4 0 4 -4v-139q0 -8 -4 -13l-259 -361v-11h259q4 0 4 -4v-144q0 -4 -4 -4h-462zM331 890h119q5 0 2 -4l-113 -148q-3 -4 -8 -4h-108q-6 0 -7 4q-1 1 -29.5 38t-56.5 74l-28 36q-2 4 2 4h119 q3 0 6 -4l47 -62h2q45 59 47 62q3 4 6 4z" />
<glyph unicode="&#x17e;" horiz-adv-x="471" d="M54 0q-4 0 -4 4v121q0 3 5 7l188 215v7h-183q-4 0 -4 4v125q0 4 4 4h381q4 0 4 -4v-125q0 -2 -3 -6l-189 -211v-8h192q4 0 4 -4v-125q0 -4 -4 -4h-391zM299 697h119q5 0 2 -4l-113 -148q-3 -4 -8 -4h-108q-6 0 -7 4q-1 1 -29.5 38t-56.5 73l-28 37q-2 4 2 4h119q3 0 6 -4 l47 -62h2q45 59 47 62q3 4 6 4z" />
<glyph unicode="&#x192;" horiz-adv-x="559" d="M167 -187q-11 0 -25 1t-26.5 2.5t-23 3l-17.5 2.5l-7 1q-3 0 -3 5q0 2 8 61t8 60q0 3 5 3q8 -4 58 -4q52 0 52 61v293h-62q-4 0 -4 4v114q0 4 4 4h62v65q0 53 13 91t31 58t47 31t51 13.5t53 2.5q9 0 22.5 -1t26 -2.5t24.5 -3l20 -2.5l7 -1q3 -1 3 -5q0 -2 -8 -61t-8 -60 q0 -3 -5 -3l-10 1q-10 1 -24 2t-24 1q-52 0 -52 -61v-65h82q4 0 4 -4v-114q0 -4 -4 -4h-82v-293q0 -53 -13 -91t-30.5 -58t-47 -31t-51.5 -13.5t-54 -2.5z" />
<glyph unicode="&#x218;" horiz-adv-x="575" d="M294 -10q-73 0 -135 9.5t-81.5 16t-27.5 10.5q-4 2 -2 6l39 137q0 3 5 3q8 -3 29 -8t73 -12t102 -7q42 0 64.5 7.5t22.5 30.5v35q0 41 -111 54q-120 13 -168.5 49.5t-48.5 127.5v84q0 159 242 159q66 0 122.5 -8.5t75.5 -14.5t25 -9q3 -1 3 -6l-38 -130q-1 -3 -5 -3 q-4 1 -27.5 5.5t-68.5 9.5t-85 5q-65 0 -65 -36v-31q0 -22 18.5 -32.5t82.5 -18.5q123 -16 174.5 -55.5t51.5 -128.5v-84q0 -43 -17.5 -74.5t-43 -48.5t-63.5 -27t-70.5 -12.5t-72.5 -2.5zM246 -269q-6 -3 -6 4v214q0 4 4 4h123q4 0 4 -4v-132q0 -4 -4 -7q-10 -5 -121 -79z " />
<glyph unicode="&#x219;" horiz-adv-x="488" d="M254 -8q-129 0 -204 25q-3 1 -3 5l33 113q1 2 4 2l10 -2q11 -2 28.5 -4.5t38 -4.5t46 -4t47.5 -2q53 0 53 19v17q0 14 -16 19.5t-63 10.5q-74 8 -123 37t-49 86v60q0 128 197 128q114 0 186 -24q2 -1 2 -5q0 -1 -14 -53t-15 -54q-2 -3 -5 -3q-3 1 -22.5 4t-57 6t-71.5 3 q-45 0 -45 -16v-17q0 -19 90 -28q82 -8 122 -37.5t40 -85.5v-61q0 -43 -18 -71.5t-51 -41t-65 -17t-75 -4.5zM200 -269q-6 -3 -6 4v214q0 4 4 4h123q4 0 4 -4v-132q0 -4 -4 -7q-10 -5 -121 -79z" />
<glyph unicode="&#x21a;" horiz-adv-x="540" d="M197 0q-4 0 -4 4v523h-168q-4 0 -4 4v145q0 4 4 4h511q3 0 3 -4v-145q0 -4 -3 -4h-169v-523q0 -4 -4 -4h-166zM221 -269q-6 -3 -6 4v214q0 4 4 4h123q4 0 4 -4v-132q0 -4 -4 -7q-10 -5 -121 -79z" />
<glyph unicode="&#x21b;" horiz-adv-x="345" d="M262 -5q-29 0 -47.5 1t-41 5t-36 12.5t-28 23t-22 36t-12.5 53t-5 72.5v168h-44q-4 0 -4 4v114q0 4 4 4h44v149q0 4 4 4h160q4 0 4 -4v-149h89q4 0 4 -4v-114q0 -4 -4 -4h-89v-168q0 -42 13.5 -53.5t37.5 -11.5q11 0 22.5 1t18.5 2t8 1q3 0 4 -4q1 -2 8.5 -61.5 t7.5 -61.5q1 -2 -2 -5q-40 -10 -94 -10zM146 -269q-6 -3 -6 4v214q0 4 4 4h123q4 0 4 -4v-132q0 -4 -4 -7q-10 -5 -121 -79z" />
<glyph unicode="&#x2c6;" horiz-adv-x="489" d="M191 545h-115q-2 0 -1 4q1 2 50 74.5t49 73.5q1 4 7 4h127q5 0 8 -4l98 -148q2 -4 -1 -4h-114q-4 0 -7 4l-46 63h-3q-44 -60 -46 -63q-3 -4 -6 -4z" />
<glyph unicode="&#x2c7;" horiz-adv-x="488" d="M297 697h119q5 0 2 -4l-113 -148q-3 -4 -8 -4h-108q-6 0 -7 4q-1 1 -29.5 38t-56.5 73l-28 37q-2 4 2 4h119q3 0 6 -4l47 -62h2q45 59 47 62q3 4 6 4z" />
<glyph unicode="&#x2d8;" horiz-adv-x="489" d="M246 542q-155 0 -155 141q0 7 8 7h69q7 0 10 -6q11 -25 23.5 -33t42.5 -8q27 0 42 9.5t22 31.5q3 6 12 6h69q9 0 9 -7q-6 -141 -152 -141z" />
<glyph unicode="&#x2d9;" horiz-adv-x="488" d="M169 542q-4 0 -4 4v130q0 4 4 4h149q3 0 3 -4v-130q0 -4 -4 -4h-148z" />
<glyph unicode="&#x2da;" horiz-adv-x="489" d="M241 589q13 0 21.5 2t15 11.5t6.5 26.5v11q0 39 -41 39q-45 0 -45 -39v-11q0 -25 11 -32.5t32 -7.5zM241 523q-23 0 -39.5 3t-34 12.5t-27 30.5t-9.5 53v25q0 30 9.5 50.5t27 30t35 13t41.5 3.5q22 0 37.5 -3t33 -11.5t27 -29.5t9.5 -53v-25q0 -61 -30 -80t-80 -19z" />
<glyph unicode="&#x2db;" horiz-adv-x="489" d="M239 -192q-49 0 -78 20t-29 77q0 62 60 101q5 4 15 4h125q6 0 7 -3t-5 -6q-28 -15 -41.5 -23t-27 -20.5t-13.5 -24.5q0 -15 14 -15q12 0 26 9q5 3 9 -1q1 -2 20 -38t19 -37q4 -5 -1 -9q-4 -4 -15 -11t-35.5 -15t-49.5 -8z" />
<glyph unicode="&#x2dc;" horiz-adv-x="488" d="M93 555q-3 0 -3 5v82q0 11 7 20q30 35 80 35q31 0 74 -19t66 -19q24 0 49 17.5t27 17.5q5 0 5 -6v-80q0 -13 -8 -21q-39 -39 -81 -39q-32 0 -74 20.5t-63 20.5q-26 0 -52 -17t-27 -17z" />
<glyph unicode="&#x2dd;" horiz-adv-x="489" d="M169 548q-1 -4 -6 -4h-115q-2 0 -1 4q1 1 38 74t38 74q1 4 6 4h139q3 0 2 -4zM348 548q-3 -4 -6 -4h-114q-3 0 -2 4q1 1 38 74t38 74q1 4 6 4h139q4 0 1 -4z" />
<glyph unicode="&#x1e80;" horiz-adv-x="877" d="M149 0q-5 0 -6 5l-116 671q-1 4 2 4h174q4 0 5 -4l62 -406h19q85 270 86 273q1 4 5 4h137q4 0 5 -5l87 -272h19q61 403 62 406q1 4 5 4h174q5 0 3 -4l-115 -671q-1 -5 -7 -5h-209q-5 0 -6 5l-80 267h-12q-78 -260 -79 -266q-2 -6 -8 -6h-207zM429 743l-101 148q-3 4 2 4 h139q4 0 5 -4l76 -148q3 -4 -1 -4h-115q-3 0 -5 4z" />
<glyph unicode="&#x1e81;" horiz-adv-x="735" d="M147 0q-2 0 -3 4q-1 2 -55.5 239.5t-54.5 239.5q0 4 3 4h161q5 0 5 -4l47 -252h7q62 154 63 157q3 4 5 4h108q1 0 4 -4l64 -157h7q42 249 42 252q2 4 6 4h161q3 0 2 -4q-1 -3 -54 -240t-53 -239q-1 -4 -5 -4h-146q-3 0 -4 4l-75 193h-7q-76 -190 -77 -193q-1 -4 -4 -4 h-147zM348 550l-101 148q-3 4 2 4h139q4 0 5 -4l76 -148q3 -4 -1 -4h-115q-3 0 -5 4z" />
<glyph unicode="&#x1e82;" horiz-adv-x="877" d="M149 0q-5 0 -6 5l-116 671q-1 4 2 4h174q4 0 5 -4l62 -406h19q85 270 86 273q1 4 5 4h137q4 0 5 -5l87 -272h19q61 403 62 406q1 4 5 4h174q5 0 3 -4l-115 -671q-1 -5 -7 -5h-209q-5 0 -6 5l-80 267h-12q-78 -260 -79 -266q-2 -6 -8 -6h-207zM479 743q-4 -4 -6 -4h-114 q-3 0 -2 4l75 148q3 4 7 4h138q5 0 2 -4z" />
<glyph unicode="&#x1e83;" horiz-adv-x="735" d="M147 0q-2 0 -3 4q-1 2 -55.5 239.5t-54.5 239.5q0 4 3 4h161q5 0 5 -4l47 -252h7q62 154 63 157q3 4 5 4h108q1 0 4 -4l64 -157h7q42 249 42 252q2 4 6 4h161q3 0 2 -4q-1 -3 -54 -240t-53 -239q-1 -4 -5 -4h-146q-3 0 -4 4l-75 193h-7q-76 -190 -77 -193q-1 -4 -4 -4 h-147zM407 550q-4 -4 -6 -4h-114q-3 0 -2 4l75 148q3 4 7 4h138q5 0 2 -4z" />
<glyph unicode="&#x1e84;" horiz-adv-x="877" d="M149 0q-5 0 -6 5l-116 671q-1 4 2 4h174q4 0 5 -4l62 -406h19q85 270 86 273q1 4 5 4h137q4 0 5 -5l87 -272h19q61 403 62 406q1 4 5 4h174q5 0 3 -4l-115 -671q-1 -5 -7 -5h-209q-5 0 -6 5l-80 267h-12q-78 -260 -79 -266q-2 -6 -8 -6h-207zM292 743q-4 0 -4 4v122 q0 4 4 4h118q3 0 3 -4v-122q0 -4 -3 -4h-118zM487 743q-4 0 -4 4v122q0 4 4 4h117q4 0 4 -4v-122q0 -4 -4 -4h-117z" />
<glyph unicode="&#x1e85;" horiz-adv-x="735" d="M147 0q-2 0 -3 4q-1 2 -55.5 239.5t-54.5 239.5q0 4 3 4h161q5 0 5 -4l47 -252h7q62 154 63 157q3 4 5 4h108q1 0 4 -4l64 -157h7q42 249 42 252q2 4 6 4h161q3 0 2 -4q-1 -3 -54 -240t-53 -239q-1 -4 -5 -4h-146q-3 0 -4 4l-75 193h-7q-76 -190 -77 -193q-1 -4 -4 -4 h-147zM222 550q-4 0 -4 4v122q0 4 4 4h118q3 0 3 -4v-122q0 -4 -3 -4h-118zM417 550q-4 0 -4 4v122q0 4 4 4h117q4 0 4 -4v-122q0 -4 -4 -4h-117z" />
<glyph unicode="&#x1e9e;" horiz-adv-x="624" d="M59 0q-4 0 -4 4v477q0 64 19 105.5t56.5 61t76 26t95.5 6.5h235q5 0 5 -5v-154q0 -7 -3 -12l-75 -111q29 -12 49 -26.5t38 -48t18 -80.5v-53q0 -49 -15.5 -85t-39 -55.5t-60 -31t-68.5 -15t-74 -3.5q-4 0 -4 4v135q0 4 4 4q88 0 88 56v39q0 54 -80 54q-4 0 -4 4v137 l69 111h-83q-28 0 -50.5 -13.5t-22.5 -49.5v-477q0 -4 -4 -4h-166z" />
<glyph unicode="&#x2000;" horiz-adv-x="472" />
<glyph unicode="&#x2001;" horiz-adv-x="944" />
<glyph unicode="&#x2002;" horiz-adv-x="472" />
<glyph unicode="&#x2003;" horiz-adv-x="944" />
<glyph unicode="&#x2004;" horiz-adv-x="314" />
<glyph unicode="&#x2005;" horiz-adv-x="236" />
<glyph unicode="&#x2006;" horiz-adv-x="157" />
<glyph unicode="&#x2007;" horiz-adv-x="157" />
<glyph unicode="&#x2008;" horiz-adv-x="118" />
<glyph unicode="&#x2009;" horiz-adv-x="188" />
<glyph unicode="&#x200a;" horiz-adv-x="52" />
<glyph unicode="&#x2010;" horiz-adv-x="400" d="M49 207q-4 0 -4 4v129q0 4 4 4h301q4 0 4 -4v-129q0 -4 -4 -4h-301z" />
<glyph unicode="&#x2011;" horiz-adv-x="400" d="M49 207q-4 0 -4 4v129q0 4 4 4h301q4 0 4 -4v-129q0 -4 -4 -4h-301z" />
<glyph unicode="&#x2012;" horiz-adv-x="400" d="M49 207q-4 0 -4 4v129q0 4 4 4h301q4 0 4 -4v-129q0 -4 -4 -4h-301z" />
<glyph unicode="&#x2013;" horiz-adv-x="480" d="M42 207q-4 0 -4 4v129q0 4 4 4h396q4 0 4 -4v-129q0 -4 -4 -4h-396z" />
<glyph unicode="&#x2014;" horiz-adv-x="604" d="M28 207q-4 0 -4 4v129q0 4 4 4h548q4 0 4 -4v-129q0 -4 -4 -4h-548z" />
<glyph unicode="&#x2018;" horiz-adv-x="249" d="M184 686q6 3 6 -4v-214q0 -4 -4 -4h-123q-4 0 -4 4v132q0 4 4 7q10 5 121 79z" />
<glyph unicode="&#x2019;" horiz-adv-x="249" d="M65 458q-6 -3 -6 4v214q0 4 4 4h123q4 0 4 -4v-132q0 -4 -4 -7q-10 -5 -121 -79z" />
<glyph unicode="&#x201a;" horiz-adv-x="249" d="M66 -84q-7 -5 -7 3v214q0 4 4 4h123q4 0 4 -4v-131q0 -5 -4 -7q-2 -2 -60 -40t-60 -39z" />
<glyph unicode="&#x201c;" horiz-adv-x="441" d="M184 686q6 3 6 -4v-214q0 -4 -4 -4h-123q-4 0 -4 4v132q0 4 4 7q10 5 121 79zM376 686q5 2 5 -4v-214q0 -4 -3 -4h-124q-3 0 -3 4v132q0 4 4 7z" />
<glyph unicode="&#x201d;" horiz-adv-x="441" d="M65 458q-6 -3 -6 4v214q0 4 4 4h123q4 0 4 -4v-132q0 -4 -4 -7q-10 -5 -121 -79zM256 458q-5 -2 -5 4v214q0 4 3 4h124q3 0 3 -4v-132q0 -4 -4 -7z" />
<glyph unicode="&#x201e;" horiz-adv-x="441" d="M66 -84q-7 -5 -7 3v214q0 4 4 4h123q4 0 4 -4v-131q0 -5 -4 -7q-2 -2 -60 -40t-60 -39zM257 -84q-5 -3 -5 3v214q0 4 4 4h122q3 0 3 -4v-131q0 -5 -3 -7q-2 -2 -60.5 -40t-60.5 -39z" />
<glyph unicode="&#x2020;" horiz-adv-x="564" d="M210 -180q-4 0 -4 4v509h-155q-3 0 -3 4v129q0 4 3 4h155v206q0 4 4 4h143q4 0 4 -4v-206h154q4 0 4 -4v-129q0 -4 -4 -4h-154v-509q0 -4 -4 -4h-143z" />
<glyph unicode="&#x2021;" horiz-adv-x="565" d="M209 -180q-4 0 -4 4v176h-155q-3 0 -3 4v129q0 4 3 4h155v226h-155q-3 0 -3 4v129q0 4 3 4h155v176q0 4 4 4h144q3 0 3 -4v-176h154q4 0 4 -4v-129q0 -4 -4 -4h-154v-226h154q4 0 4 -4v-129q0 -4 -4 -4h-154v-176q0 -4 -3 -4h-144z" />
<glyph unicode="&#x2022;" horiz-adv-x="429" d="M215 199q-23 0 -39.5 3t-34 12.5t-27 30.5t-9.5 53v25q0 57 31 77t82 20q22 0 37.5 -3t33 -11.5t26.5 -29.5t9 -53v-25q0 -61 -29.5 -80t-79.5 -19z" />
<glyph unicode="&#x2026;" horiz-adv-x="757" d="M304 0q-4 0 -4 4v155q0 4 4 4h149q4 0 4 -4v-155q0 -4 -4 -4h-149zM558 0q-4 0 -4 4v155q0 4 4 4h148q4 0 4 -4v-155q0 -4 -4 -4h-148zM51 0q-4 0 -4 4v155q0 4 4 4h148q4 0 4 -4v-155q0 -4 -4 -4h-148z" />
<glyph unicode="&#x202f;" horiz-adv-x="188" />
<glyph unicode="&#x2030;" horiz-adv-x="1127" d="M290 -6h-134q-5 0 -2 4q-2 1 89 172t182.5 341.5t88.5 171.5q4 4 7 4h134q4 0 1 -4q0 -1 -180 -342t-180 -343q-3 -4 -6 -4zM606 98q19 0 28.5 7t9.5 30v46q0 21 -9 28.5t-27 7.5q-40 0 -40 -36v-46q0 -22 10 -29.5t28 -7.5zM606 -6q-136 0 -136 124v82q0 121 140 121 q134 0 134 -121v-82q0 -39 -12 -65t-33.5 -38t-43 -16.5t-49.5 -4.5zM204 464q19 0 28.5 7t9.5 30v46q0 21 -9.5 28.5t-27.5 7.5q-40 0 -40 -36v-46q0 -37 39 -37zM204 360q-137 0 -137 124v82q0 121 141 121q133 0 133 -121v-82q0 -39 -12 -65t-33.5 -38t-42.5 -16.5 t-49 -4.5zM922 98q19 0 28.5 7t9.5 30v46q0 21 -9 28.5t-27 7.5q-40 0 -40 -36v-46q0 -22 10 -29.5t28 -7.5zM922 -6q-136 0 -136 124v82q0 121 140 121q134 0 134 -121v-82q0 -39 -12 -65t-33.5 -38t-43 -16.5t-49.5 -4.5z" />
<glyph unicode="&#x2039;" horiz-adv-x="386" d="M266 522q83 -83 85 -87q3 -2 0 -5l-157 -166q156 -164 157 -166q3 -2 0 -5l-85 -87q-2 -2 -4 0l-247 255q-2 4 0 6l247 255q2 2 4 0z" />
<glyph unicode="&#x203a;" horiz-adv-x="386" d="M119 6q-83 83 -85 87q-3 2 0 5l158 166q-157 164 -158 166q-3 2 0 5q83 83 85 87q3 2 5 0l246 -255q3 -3 0 -6l-246 -255q-2 -2 -5 0z" />
<glyph unicode="&#x2044;" horiz-adv-x="446" d="M53 -5q-3 0 -2 4t93.5 343t92.5 341q1 4 5 4h154q4 0 3 -4l-186 -684q-1 -4 -5 -4h-155z" />
<glyph unicode="&#x205f;" horiz-adv-x="236" />
<glyph unicode="&#x2070;" horiz-adv-x="344" d="M171 338q34 0 47.5 16t13.5 70v103q0 52 -14 68t-47 16t-47 -15.5t-14 -68.5v-103q0 -53 14 -69.5t47 -16.5zM171 267q-32 0 -52.5 4t-43 17.5t-33.5 46t-11 83.5v117q0 49 11 80t33.5 45t43.5 18t52 4q25 0 41 -1.5t37 -10t33.5 -23.5t21.5 -43.5t9 -68.5v-117 q0 -52 -11.5 -84.5t-35 -46t-43 -17t-52.5 -3.5z" />
<glyph unicode="&#x2074;" horiz-adv-x="315" d="M251 270h-65q-3 0 -3 2v63h-154q-2 0 -2 3v65q0 2 2 6l27 67q26 66 52.5 132.5t26.5 67.5q2 2 3 2h74q1 0 1 -2l-102 -265v-5h72v70q0 2 3 2h65q3 0 3 -2v-70h37q3 0 3 -3v-65q0 -3 -3 -3h-37v-63q0 -2 -3 -2z" />
<glyph unicode="&#x2075;" horiz-adv-x="315" d="M152 267q-76 0 -112 18q-2 1 -2 3q13 52 13 59q0 1 3 1l6 -1q7 -1 17.5 -3t22.5 -4t26 -3t25 -1q56 0 56 36v29q0 48 -51 48h-106q-2 0 -2 2v222q0 5 5 5h214q2 0 2 -2v-61q0 -3 -2 -3h-150v-98h41q23 0 41 -3t39 -12t33 -30.5t12 -54.5v-53q0 -26 -9.5 -44.5t-22 -27.5 t-32.5 -14.5t-34 -6.5t-33 -1z" />
<glyph unicode="&#x2076;" horiz-adv-x="315" d="M158 331q15 0 24.5 3t18 17t8.5 39v16q0 31 -11.5 42t-33.5 11q-9 0 -23 -2.5t-23 -5.5l-10 -3v-81q0 -36 50 -36zM162 267q-129 0 -129 98v212q0 34 14.5 56.5t37.5 32t40.5 13t35.5 3.5q20 0 38 -2.5t30 -5.5t21 -6t14 -6l5 -2q1 0 1 -3q-13 -52 -13 -57q0 -1 -4 -1 l-6 1q-6 2 -15 4t-20 3.5t-24.5 3t-25.5 1.5q-54 0 -54 -38v-61q49 11 71 11q21 0 35.5 -3t32 -13.5t27 -34.5t9.5 -61v-27q0 -39 -11 -64.5t-31 -36.5t-37 -14t-42 -3z" />
<glyph unicode="&#x2077;" horiz-adv-x="305" d="M141 270h-75q-4 0 -2 3l125 331v6h-151q-2 0 -2 2v63q0 3 2 3h233q2 0 2 -2v-62q0 -1 -1 -3.5t-1 -3.5t-63 -167t-63 -167q-1 -3 -4 -3z" />
<glyph unicode="&#x2078;" horiz-adv-x="314" d="M157 331q51 0 51 49v19q0 47 -50 47q-52 0 -52 -47v-19q0 -49 51 -49zM157 515q48 0 48 41v18q0 44 -47 44q-49 0 -49 -44v-18q0 -41 48 -41zM156 267q-27 0 -46 3.5t-38.5 14t-30 33.5t-10.5 57v29q0 24 10.5 43t20.5 26l11 7v2q-4 2 -10 7t-16 22.5t-10 38.5v27 q0 34 10.5 56.5t30 32.5t37.5 13t44 3q24 0 42 -3.5t37 -13t29 -32t10 -56.5v-28q0 -20 -9 -36.5t-18 -23.5l-9 -7v-2q2 -1 4.5 -2.5t10 -8.5t13 -14.5t10 -21.5t4.5 -29v-29q0 -35 -10 -57.5t-30 -33t-39.5 -14t-47.5 -3.5z" />
<glyph unicode="&#x2079;" horiz-adv-x="315" d="M158 617q-11 0 -18.5 -1.5t-15.5 -7t-12.5 -18t-4.5 -31.5v-24q0 -31 11 -42t33 -11q9 0 23 3t24 5l9 3v89q0 35 -49 35zM153 682q130 0 130 -98v-212q0 -34 -14.5 -56.5t-37.5 -32t-40.5 -13t-35.5 -3.5q-72 0 -110 19q-1 1 -1 3q14 42 14 57q0 2 3 2l6 -1q6 -1 15.5 -3 t21 -4t25 -3t25.5 -1q53 0 53 40v53q-49 -11 -71 -11q-20 0 -35 3t-32 13.5t-26.5 34.5t-9.5 61v33q0 39 11 65t31 36.5t37 14t41 3.5z" />
<glyph unicode="&#x2080;" horiz-adv-x="344" d="M171 68q34 0 47.5 16t13.5 70v103q0 52 -14 68t-47 16t-47 -15.5t-14 -68.5v-103q0 -53 14 -69.5t47 -16.5zM171 -3q-32 0 -52.5 4t-43 17.5t-33.5 46t-11 83.5v117q0 49 11 80t33.5 45t43.5 18t52 4q25 0 41 -1.5t37 -10t33.5 -23.5t21.5 -43.5t9 -68.5v-117 q0 -52 -11.5 -84.5t-35 -46t-43 -17t-52.5 -3.5z" />
<glyph unicode="&#x2081;" horiz-adv-x="304" d="M212 0h-71q-2 0 -2 2v321q-70 -50 -71 -51q-2 0 -3 1q0 1 -8.5 32t-8.5 32q0 3 3 4l86 66q1 1 4 1h71q3 0 3 -2v-404q0 -2 -3 -2z" />
<glyph unicode="&#x2082;" horiz-adv-x="311" d="M273 0h-234q-2 0 -2 2v63q0 3 2 5q109 119 133 155q22 32 22 50v29q0 37 -54 37q-11 0 -24.5 -1.5t-24.5 -3.5t-20.5 -4t-15.5 -4l-6 -1q-1 -1 -2 -0.5t-1 1.5l-7 29l-7 29q0 4 1 4q42 21 108 21q132 0 132 -96v-46q0 -23 -20 -57.5t-39 -57.5t-66 -78v-6h125q1 0 1 -2 v-66q0 -2 -1 -2z" />
<glyph unicode="&#x2083;" horiz-adv-x="315" d="M38 15q-1 1 -1 3q0 1 7 30l6 29q0 1 3 1l7 -1q6 -1 16 -3t22 -4t26 -3t26 -1q55 0 55 37v26q0 46 -50 46h-46q-3 0 -3 2v62q0 2 3 2h47q16 0 28.5 10.5t12.5 28.5v25q0 38 -53 38q-18 0 -40.5 -3t-35.5 -6t-15 -4q-4 -2 -4 1l-6 29q-6 29 -6 30q0 2 1 3t13 5.5t38.5 9 t54.5 4.5q130 0 130 -94v-39q0 -18 -8 -34t-16 -23l-7 -8v-5q4 -2 10.5 -6.5t17 -23.5t10.5 -43v-44q0 -57 -36.5 -76t-94.5 -19q-31 0 -59 4.5t-41 8.5z" />
<glyph unicode="&#x2084;" horiz-adv-x="315" d="M251 0h-65q-3 0 -3 2v63h-154q-2 0 -2 3v65q0 2 2 6l27 67q26 66 52.5 132.5t26.5 67.5q2 2 3 2h74q1 0 1 -2l-102 -265v-5h72v70q0 2 3 2h65q3 0 3 -2v-70h37q3 0 3 -3v-65q0 -3 -3 -3h-37v-63q0 -2 -3 -2z" />
<glyph unicode="&#x2085;" horiz-adv-x="315" d="M152 -3q-76 0 -112 18q-2 1 -2 3q13 52 13 59q0 1 3 1l6 -1q7 -1 17.5 -3t22.5 -4t26 -3t25 -1q56 0 56 36v29q0 48 -51 48h-106q-2 0 -2 2v222q0 5 5 5h214q2 0 2 -2v-61q0 -3 -2 -3h-150v-98h41q23 0 41 -3t39 -12t33 -30.5t12 -54.5v-53q0 -26 -9.5 -44.5t-22 -27.5 t-32.5 -14.5t-34 -6.5t-33 -1z" />
<glyph unicode="&#x2086;" horiz-adv-x="315" d="M158 61q15 0 24.5 3t18 17t8.5 39v16q0 31 -11.5 42t-33.5 11q-9 0 -23 -2.5t-23 -5.5l-10 -3v-81q0 -36 50 -36zM162 -3q-129 0 -129 98v212q0 34 14.5 56.5t37.5 32t40.5 13t35.5 3.5q20 0 38 -2.5t30 -5.5t21 -6t14 -6l5 -2q1 0 1 -3q-13 -52 -13 -57q0 -1 -4 -1l-6 1 q-6 2 -15 4t-20 3.5t-24.5 3t-25.5 1.5q-54 0 -54 -38v-61q49 11 71 11q21 0 35.5 -3t32 -13.5t27 -34.5t9.5 -61v-27q0 -39 -11 -64.5t-31 -36.5t-37 -14t-42 -3z" />
<glyph unicode="&#x2087;" horiz-adv-x="305" d="M141 0h-75q-4 0 -2 3l125 331v6h-151q-2 0 -2 2v63q0 3 2 3h233q2 0 2 -2v-62q0 -1 -1 -3.5t-1 -3.5t-63 -167l-63 -167q-1 -3 -4 -3z" />
<glyph unicode="&#x2088;" horiz-adv-x="314" d="M157 61q51 0 51 49v19q0 47 -50 47q-52 0 -52 -47v-19q0 -49 51 -49zM157 245q48 0 48 41v18q0 44 -47 44q-49 0 -49 -44v-18q0 -41 48 -41zM156 -3q-27 0 -46 3.5t-38.5 14t-30 33.5t-10.5 57v29q0 24 10.5 43t20.5 26l11 7v2q-4 2 -10 7t-16 22.5t-10 38.5v27 q0 34 10.5 56.5t30 32.5t37.5 13t44 3q24 0 42 -3.5t37 -13t29 -32t10 -56.5v-28q0 -20 -9 -36.5t-18 -23.5l-9 -7v-2q2 -1 4.5 -2.5t10 -8.5t13 -14.5t10 -21.5t4.5 -29v-29q0 -35 -10 -57.5t-30 -33t-39.5 -14t-47.5 -3.5z" />
<glyph unicode="&#x2089;" horiz-adv-x="315" d="M158 347q-11 0 -18.5 -1.5t-15.5 -7t-12.5 -18t-4.5 -31.5v-24q0 -31 11 -42t33 -11q9 0 23 3t24 5l9 3v89q0 35 -49 35zM153 412q130 0 130 -98v-212q0 -34 -14.5 -56.5t-37.5 -32t-40.5 -13t-35.5 -3.5q-72 0 -110 19q-1 1 -1 3q14 42 14 57q0 2 3 2l6 -1q6 -1 15.5 -3 t21 -4t25 -3t25.5 -1q53 0 53 40v53q-49 -11 -71 -11q-20 0 -35 3t-32 13.5t-26.5 34.5t-9.5 61v33q0 39 11 65t31 36.5t37 14t41 3.5z" />
<glyph unicode="&#x20ac;" horiz-adv-x="594" d="M367 -8q-274 0 -274 242h-47q-3 0 -3 4v79q0 4 3 4h47v41h-47q-3 0 -3 4v79q0 4 3 4h47q0 59 17 103.5t43 70t64.5 40.5t74 20t78.5 5q57 0 102.5 -7t61.5 -12.5t19 -8.5q4 -1 2 -5l-42 -130q-2 -3 -5 -2q-2 1 -20.5 3t-52.5 4.5t-65 2.5q-43 0 -66 -17.5t-33 -66.5h134 q4 0 4 -4v-79q0 -4 -4 -4h-136v-41h136q4 0 4 -4v-79q0 -4 -4 -4h-134q7 -49 28.5 -64.5t68.5 -15.5q34 0 70.5 3t55.5 6t21 4q3 1 5 -2l45 -133q2 -4 -2 -5q-3 -3 -21.5 -10t-67.5 -16t-107 -9z" />
<glyph unicode="&#x2122;" horiz-adv-x="820" d="M388 291v386q0 3 3 3h110q3 0 3 -2l70 -173h8q66 170 67 172q3 3 5 3h109q2 0 2 -3v-386q0 -2 -2 -2h-93q-1 0 -1 2v205h-9q-46 -121 -47 -123t-4 -2h-64q-4 0 -5 3l-47 122h-8v-205q0 -2 -3 -2h-91q-3 0 -3 2zM138 291v301h-92q-1 0 -1 2v83l1 3h281q2 0 2 -3v-83 q0 -2 -2 -2h-91v-301q0 -2 -3 -2h-93q-2 0 -2 2z" />
<glyph unicode="&#x2190;" horiz-adv-x="732" d="M301 360h377q4 0 4 -4v-129q0 -4 -4 -4h-377l133 -133q2 -2 0 -5q-3 -2 -92 -91q-2 -2 -5 0l-295 294q-3 3 0 6l295 295q3 3 5 0l92 -91q3 -3 0 -6z" />
<glyph unicode="&#x2191;" horiz-adv-x="699" d="M418 381v-377q0 -4 -4 -4h-129q-4 0 -4 4v377l-133 -133q-2 -2 -5 0q-1 1 -15.5 15t-30.5 30.5t-31 31.5l-14 15q-2 2 0 5l294 295q3 3 6 0l295 -295q3 -3 0 -5l-91 -92q-3 -3 -6 0z" />
<glyph unicode="&#x2192;" horiz-adv-x="732" d="M431 223h-377q-4 0 -4 4v129q0 4 4 4h377l-133 133q-2 3 0 5q3 2 92 91q2 3 5 0l295 -294q3 -3 0 -6l-295 -295q-3 -2 -5 0l-92 91q-3 3 0 6z" />
<glyph unicode="&#x2193;" horiz-adv-x="699" d="M281 260v377q0 4 4 4h129q4 0 4 -4v-377l133 133q3 3 5 0q1 -1 15.5 -15t30.5 -30.5t30 -31.5l15 -15q3 -3 0 -5l-294 -295q-3 -3 -6 0l-295 295q-2 2 0 5l91 92q3 3 6 0z" />
<glyph unicode="&#x2194;" horiz-adv-x="977" d="M337 -5l-295 294q-3 3 0 6l295 295q3 2 5 0q3 -2 92 -91q3 -3 0 -6l-133 -132h375q-131 130 -132 132q-3 3 0 6l91 91q3 2 5 0l295 -295q3 -3 0 -6l-295 -294q-2 -3 -5 0l-91 91q-2 2 0 5l132 133h-375l133 -133q2 -3 0 -5l-92 -91q-2 -3 -5 0z" />
<glyph unicode="&#x2195;" horiz-adv-x="699" d="M52 492q1 2 294 295q3 3 6 0l295 -295q3 -3 0 -6l-10 -10q-10 -10 -23 -22.5t-26 -26t-22.5 -22.5t-9.5 -10q-3 -3 -6 0l-132 132v-374l132 132q3 3 6 0l91 -91q3 -3 0 -6l-295 -295q-3 -3 -6 0l-294 295q-3 3 0 6l91 91q3 3 5 0l133 -132v374q-131 -130 -133 -132 q-2 -3 -5 0l-91 91q-3 3 0 6z" />
<glyph unicode="&#x2196;" horiz-adv-x="613" d="M561 163q3 -3 0 -6l-92 -91q-3 -2 -5 0l-267 266v-187q0 -4 -4 -4h-129q-4 0 -4 4v417q0 4 4 4h417q4 0 4 -4v-129q0 -4 -4 -4h-187z" />
<glyph unicode="&#x2197;" horiz-adv-x="612" d="M149 65q-3 -3 -6 0l-91 92q-2 3 0 5l266 267h-187q-4 0 -4 4v129q0 4 4 4h417q4 0 4 -4v-417q0 -4 -4 -4h-129q-4 0 -4 4v187z" />
<glyph unicode="&#x2198;" horiz-adv-x="613" d="M52 467q-3 3 0 6l92 91q2 2 5 0l267 -266v187q0 4 4 4h129q4 0 4 -4v-417q0 -4 -4 -4h-417q-4 0 -4 4v129q0 4 4 4h187z" />
<glyph unicode="&#x2199;" horiz-adv-x="612" d="M463 565q3 3 6 0l91 -92q2 -3 0 -5l-266 -267h187q4 0 4 -4v-129q0 -4 -4 -4h-417q-4 0 -4 4v417q0 4 4 4h129q4 0 4 -4v-187z" />
<glyph unicode="&#x2212;" horiz-adv-x="400" d="M49 207q-4 0 -4 4v129q0 4 4 4h301q4 0 4 -4v-129q0 -4 -4 -4h-301z" />
<glyph unicode="&#x221a;" horiz-adv-x="877" d="M32 296l106 110q3 3 6 0l181 -181q407 411 408 412q3 3 6 0l106 -110q3 -3 0 -5l-517 -527q-3 -3 -6 0l-30 31q-31 31 -73 74t-84.5 86t-72 73.5t-30.5 30.5q-2 4 0 6z" />
<glyph unicode="&#x2248;" horiz-adv-x="556" d="M73 184q0 11 8 20q5 6 16.5 15t36 19.5t50.5 10.5q41 0 99 -29t88 -29q22 0 44 11t36.5 22.5t18.5 11.5t4 -6v-80q0 -14 -7 -21q-49 -49 -104 -49q-39 0 -96 30.5t-88 30.5q-23 0 -46 -11t-38 -22t-18 -11q-4 0 -4 5v82zM73 405q0 12 8 20q9 12 37.5 29t65.5 17 q41 0 99 -29t88 -29q22 0 44 11.5t36.5 22.5t18.5 11t4 -6v-80q0 -14 -7 -21q-49 -49 -104 -49q-39 0 -96 30.5t-88 30.5q-23 0 -46 -11t-38 -22t-18 -11q-4 0 -4 5v81z" />
<glyph unicode="&#x2260;" horiz-adv-x="556" d="M100 0q-5 0 -3 4l43 93h-82q-3 0 -3 4v131q0 4 3 4h150l35 80h-185q-3 0 -3 4v131q0 4 3 4h253q43 93 45 97q1 4 5 4h99q3 0 3 -4l-45 -97h80q4 0 4 -4v-131q0 -4 -4 -4h-148l-35 -80h183q4 0 4 -4v-131q0 -4 -4 -4h-251q-42 -91 -43 -93q-1 -4 -5 -4h-99z" />
<glyph unicode="&#x2264;" horiz-adv-x="555" d="M499 169l-441 171q-4 2 -4 5v115q0 5 4 5l441 172q4 2 4 -3v-139q0 -5 -4 -6l-230 -85v-3q228 -84 230 -84q4 -2 4 -6v-139q0 -5 -4 -3zM56 0q-4 0 -4 4v132q0 4 4 4h443q4 0 4 -4v-132q0 -4 -4 -4h-443z" />
<glyph unicode="&#x2265;" horiz-adv-x="555" d="M56 169q-4 -2 -4 3v139q0 6 4 6l231 84v3q-228 84 -231 85q-4 1 -4 6v139q0 5 4 3q2 -1 221 -86.5t220 -85.5q4 0 4 -5v-115q0 -3 -4 -5zM499 0h-443q-4 0 -4 4v132q0 4 4 4h443q4 0 4 -4v-132q0 -4 -4 -4z" />
<glyph unicode="&#x25b2;" horiz-adv-x="710" d="M695 323v-207l-3 -3l-332 236h-9q-331 -236 -332 -237q-4 -4 -4 3v208q0 3 4 6l328 236q8 6 16 0q2 -1 84 -60.5t163 -117.5t82 -58q3 -3 3 -6z" />
<glyph unicode="&#x25ba;" horiz-adv-x="617" d="M282 0h-207q-6 0 -3 3l236 332v9q-236 331 -237 332q-4 4 3 4h208q3 0 6 -4l236 -328q6 -8 0 -16q-1 -2 -60.5 -84t-117.5 -163t-58 -82q-3 -3 -6 -3z" />
<glyph unicode="&#x25bc;" horiz-adv-x="710" d="M15 356v207l3 3l332 -236h9q331 236 332 237q4 4 4 -3v-208q0 -3 -4 -6l-328 -236q-8 -6 -16 0q-2 1 -84 60.5t-163 117.5t-82 58q-3 3 -3 6z" />
<glyph unicode="&#x25c4;" horiz-adv-x="617" d="M335 680h207q6 0 3 -3l-236 -332v-9q236 -331 237 -332q4 -4 -3 -4h-208q-3 0 -6 4l-236 328q-6 8 0 16q1 2 60.5 84t117.5 163t58 82q3 3 6 3z" />
<glyph unicode="&#x25fc;" horiz-adv-x="485" d="M0 485h485v-485h-485v485z" />
<glyph horiz-adv-x="550" />
<glyph horiz-adv-x="550" d="M274 144q44 0 58.5 21.5t14.5 95.5v163q0 72 -15 93t-58 21t-58.5 -21t-15.5 -93v-163q0 -73 14.5 -95t59.5 -22zM274 -10q-31 0 -54 1.5t-50.5 7.5t-47 16.5t-39 30t-31.5 46.5t-19.5 66.5t-7.5 90.5v191q0 67 14.5 115t36 74.5t57 41t66.5 18t75 3.5t73.5 -3t66 -17.5 t58.5 -40t37 -74t15 -117.5v-191q0 -72 -15.5 -122.5t-36.5 -76.5t-58.5 -40t-66 -17t-73.5 -3z" />
<glyph horiz-adv-x="550" d="M404 0h-159q-4 0 -4 4v495q-115 -76 -117 -77q-1 -1 -2 -0.5t-1 2.5q0 1 -19 69.5t-20 70.5q-1 4 4 7l152 107q4 2 7 2h159q4 0 4 -4v-673q0 -3 -4 -3z" />
<glyph horiz-adv-x="550" d="M485 0h-415q-4 0 -4 4v131q0 7 5 12q13 14 39.5 41t40 41t36 38t34.5 38t29 34t25.5 33.5t17.5 29t13 27.5t4 23v42q0 18 -13.5 29t-26.5 13.5t-25 2.5q-33 0 -73 -6t-62.5 -11.5t-25.5 -6.5q-6 0 -6 3q0 1 -14 64.5t-14 64.5q-1 4 1 6q6 4 23 11t66.5 17t107.5 10 q238 0 238 -169v-86q0 -38 -25.5 -86t-54 -83.5t-88.5 -103.5v-11h167q4 0 4 -4v-144q0 -4 -4 -4z" />
<glyph horiz-adv-x="550" d="M62 19q-2 1 -2 6q0 2 11.5 65t11.5 64q1 3 6 3q2 -1 28 -5t68 -8.5t74 -4.5q27 0 48 11t21 33v33q0 60 -64 60h-88q-4 0 -4 4v135q0 4 4 4h89q20 0 35 13t15 34v32q0 18 -13.5 29t-26.5 13.5t-25 2.5q-33 0 -73.5 -5t-63 -9.5t-26.5 -5.5q-6 -2 -6 3q0 1 -11.5 64 t-11.5 65q-1 4 2 6q5 3 25 9t68 14t98 8q38 0 67.5 -3t62.5 -13t54 -27t35 -47t14 -72v-68q0 -26 -13 -52t-27 -39l-13 -13v-10q3 -1 7 -3.5t15.5 -12t20 -21.5t15.5 -32t7 -44v-81q0 -51 -19 -85t-54.5 -50.5t-73 -22.5t-89.5 -6q-56 0 -105.5 7t-70.5 15z" />
<glyph horiz-adv-x="550" d="M465 0h-148q-4 0 -4 4v90h-264q-4 0 -4 4v139q0 7 3 14l163 425q2 4 5 4h168q4 0 2 -4l-155 -420v-10h82v100q0 4 4 4h148q4 0 4 -4v-100h43q4 0 4 -4v-144q0 -4 -4 -4h-43v-90q0 -4 -4 -4z" />
<glyph horiz-adv-x="550" d="M262 -11q-113 0 -200 29q-2 1 -2 6q1 1 13 65t12 65q2 3 5 2t29 -5t68 -8.5t74 -4.5q25 0 46 10.5t21 34.5v39q0 32 -20.5 45t-44.5 13h-184q-3 0 -3 4v387q0 9 9 9h388q4 0 4 -4v-134q0 -4 -4 -4h-245v-118h40q34 0 60.5 -2.5t60 -12t55.5 -26t37.5 -48t15.5 -74.5v-104 q0 -45 -16 -77t-38.5 -48.5t-57.5 -25.5t-61 -11t-62 -2z" />
<glyph horiz-adv-x="550" d="M275 128q13 0 21.5 2t19 9t16 23.5t5.5 41.5v29q0 38 -11.5 50.5t-32.5 12.5q-16 0 -34 -3.5t-29 -6.5l-10 -4v-116q0 -38 55 -38zM287 -10q-234 0 -234 175v338q0 37 10.5 67t26.5 49t39 33.5t43.5 21.5t44.5 11.5t38 5.5t28 1q21 0 41 -1.5t36 -3.5t31 -4.5t26.5 -6 t21.5 -6.5t17 -6t12 -5t8 -3l3 -2q2 -1 2 -6q-1 -3 -8.5 -34t-14.5 -60t-7 -31t-4 -2l-11 2q-10 2 -26.5 5.5t-36.5 6.5t-43.5 5t-43.5 2q-21 0 -43.5 -10.5t-22.5 -35.5v-76q78 14 109 14q27 0 47.5 -3t45.5 -14t41 -30.5t27 -56t11 -86.5v-49q0 -55 -13.5 -94t-33 -60 t-50.5 -33t-56.5 -15t-60.5 -3z" />
<glyph horiz-adv-x="550" d="M281 1h-169q-4 0 -3 4l194 518v10h-232q-4 0 -4 4v139q0 4 4 4h412q4 0 4 -4v-132q0 -6 -3 -13l-197 -526q-3 -4 -6 -4z" />
<glyph horiz-adv-x="550" d="M275 128q60 0 60 61v29q0 29 -19 41t-41 12t-41 -12.5t-19 -40.5v-29q0 -61 60 -61zM275 423q21 0 38.5 11.5t17.5 37.5v29q0 55 -56 55t-56 -55v-29q0 -25 16.5 -37t39.5 -12zM274 -10q-36 0 -64.5 3.5t-60.5 15t-53 31t-35 55.5t-14 84v49q0 22 7 42.5t17 34t20.5 23.5 t17.5 14l7 5v4q-6 4 -15 12t-24 36t-15 60v48q0 50 13 86t31 54.5t49 29t56.5 13t63.5 2.5q37 0 63.5 -2.5t57 -13.5t49 -30t31 -54.5t12.5 -84.5v-49q0 -31 -14 -58t-28 -38l-13 -12v-3l7.5 -5t16.5 -13.5t21.5 -23.5t17 -33.5t7.5 -43.5v-49q0 -48 -13.5 -83.5t-34 -55.5 t-52 -31.5t-61 -15t-68.5 -3.5z" />
<glyph horiz-adv-x="550" d="M279 549q-13 0 -21.5 -2t-19 -9t-16 -23t-5.5 -41v-35q0 -38 11.5 -50.5t32.5 -12.5q16 0 34 3.5t29 6.5l10 4v121q0 38 -55 38zM267 687q234 0 234 -175v-328q0 -37 -10.5 -67t-26.5 -49t-39 -33.5t-43.5 -21.5t-44.5 -11.5t-38 -5.5t-28 -1q-21 0 -41 1t-36.5 3 t-31.5 4.5t-27 5.5t-21.5 6t-17.5 5.5t-13 4.5t-8 3l-3 2q-2 1 -2 6q1 5 15.5 62.5t16.5 62.5q2 3 4 3q4 -1 26.5 -5.5t63 -9t72.5 -4.5q12 0 25.5 3t27 14.5t13.5 29.5v60q-78 -14 -109 -14q-27 0 -47.5 3t-45.5 14t-41 30.5t-27 56t-11 86.5v54q0 55 13.5 94t33 60 t50.5 33t56.5 15t60.5 3z" />
<glyph horiz-adv-x="550" d="M201 95q-4 0 -4 4v135q0 4 4 4h148q4 0 4 -4v-135q0 -4 -4 -4h-148zM201 439q-4 0 -4 4v135q0 4 4 4h148q4 0 4 -4v-135q0 -4 -4 -4h-148z" />
<glyph horiz-adv-x="516" d="M107 166q-3 3 0 6l87 87q2 2 4 0q5 -5 108 -111t104 -108q1 -3 -1 -5q-4 -6 -85 -87q-3 -3 -6 0z" />
<glyph horiz-adv-x="459" d="M75 -45q-3 0 -2 4l44 113q1 4 7 4h96q4 0 3 -4q-1 -2 -23 -57t-22 -56q-2 -4 -7 -4h-96zM239 414q-5 0 -3 4l43 110q1 4 6 4h98q4 0 3 -4l-44 -110q0 -4 -5 -4h-98z" />
<glyph horiz-adv-x="639" d="M358 571q-3 0 -2 4l73 143q2 4 6 4h134q3 0 2 -4l-72 -143q-3 -4 -6 -4h-135zM60 -40q-3 0 -2 4l70 138q3 4 7 4h133q5 0 2 -4l-70 -138q-3 -4 -5 -4h-135z" />
<glyph horiz-adv-x="1206" d="M304 -10q-73 0 -135 9.5t-81.5 16t-27.5 10.5q-4 2 -2 6l39 137q0 3 5 3q8 -3 29 -8t73 -12t102 -7q42 0 64.5 7.5t22.5 30.5v35q0 41 -111 54q-120 13 -168.5 49.5t-48.5 127.5v84q0 159 242 159q66 0 122.5 -8.5t75.5 -14.5t25 -9q3 -1 3 -6l-38 -130q-1 -3 -5 -3 q-4 1 -27.5 5.5t-68.5 9.5t-85 5q-65 0 -65 -36v-31q0 -22 18.5 -32.5t82.5 -18.5q123 -16 174.5 -55.5t51.5 -128.5v-84q0 -43 -17.5 -74.5t-43 -48.5t-63.5 -27t-70.5 -12.5t-72.5 -2.5zM868 -10q-73 0 -135 9.5t-81.5 16t-27.5 10.5q-4 2 -2 6l39 137q0 3 5 3q8 -3 29 -8 t73 -12t102 -7q42 0 64.5 7.5t22.5 30.5v35q0 41 -111 54q-120 13 -168.5 49.5t-48.5 127.5v84q0 159 242 159q66 0 122.5 -8.5t75.5 -14.5t25 -9q3 -1 3 -6l-38 -130q-1 -3 -5 -3q-4 1 -27.5 5.5t-68.5 9.5t-85 5q-65 0 -65 -36v-31q0 -22 18.5 -32.5t82.5 -18.5 q123 -16 174.5 -55.5t51.5 -128.5v-84q0 -43 -17.5 -74.5t-43 -48.5t-63.5 -27t-70.5 -12.5t-72.5 -2.5z" />
<glyph horiz-adv-x="495" d="M141 0h-149q-2 0 -1 3l173 538q2 3 4 3h162q4 0 5 -3l169 -538q2 -3 -3 -3h-148q-3 0 -4 3l-20 83h-164q-20 -81 -21 -83q-2 -3 -3 -3zM197 198h101l-41 172h-18z" />
<glyph horiz-adv-x="468" d="M260 0h-223v544h219q20 0 38.5 -2.5t43 -11t42.5 -22.5t30.5 -41t12.5 -63q0 -52 -34 -113q28 -19 41 -41.5t13 -60.5v-50q0 -46 -14.5 -75.5t-43.5 -42.5t-56 -17t-69 -4zM184 113h56q55 0 55 32v43q0 37 -55 37h-56v-112zM184 328h76q16 26 16 57q0 46 -50 46h-42v-103 z" />
<glyph horiz-adv-x="437" d="M249 -4q-37 0 -65.5 3.5t-59.5 16.5t-51.5 35t-33.5 61t-13 93v141q0 64 18.5 107t53 63t70 27t83.5 7t85.5 -6t49.5 -10.5t14 -6.5t0 -5q-1 -2 -21 -57t-20 -56q0 -2 -5 -2l-6 1q-6 1 -15.5 2.5t-21.5 3.5t-28 3t-31 1q-16 0 -27 -2t-24 -10t-19.5 -27t-6.5 -48v-114 q0 -53 17.5 -68t56.5 -15q27 0 55.5 3t43.5 5.5t16 2.5q2 2 4 -1l40 -114q2 -4 -1 -5q-58 -29 -158 -29z" />
<glyph horiz-adv-x="481" d="M185 134h53q23 0 34.5 4t20.5 24t9 60v101q0 57 -14.5 72t-49.5 15h-53v-276zM238 0h-201v544h201q23 0 38.5 -1t40.5 -5t41.5 -12t36 -23t31 -36.5t19.5 -55t8 -75.5v-124q0 -59 -14.5 -100.5t-33.5 -63t-52 -33t-56 -13.5t-59 -2z" />
<glyph horiz-adv-x="423" d="M37 0v544h357q3 0 3 -3v-120q0 -4 -3 -4h-209v-80h172q3 0 3 -3v-119q0 -4 -3 -4h-172v-84h209q3 0 3 -4v-120q0 -3 -3 -3h-357z" />
<glyph horiz-adv-x="419" d="M40 0q-3 0 -3 3v541h357q3 0 3 -3v-120q0 -4 -3 -4h-209v-103h172q3 0 3 -3v-120q0 -3 -0.5 -3h-2.5h-172v-185q0 -3 -3 -3h-142z" />
<glyph horiz-adv-x="480" d="M251 -4q-35 0 -61.5 3t-59 15t-53.5 33t-35.5 61.5t-14.5 95.5v142q0 56 15.5 95.5t37 60t55.5 32t58 13.5t58 2q47 0 91 -6.5t64 -12t21 -6.5q2 -2 0 -5l-36 -109q-1 -2 -5 -2h-4q-5 1 -12.5 2t-17 2t-22 2t-25.5 2t-27.5 1.5t-27.5 0.5q-17 0 -27.5 -2t-22.5 -10 t-18 -26.5t-6 -47.5v-118q0 -53 18.5 -69t56.5 -16l77 6v63h-61q-3 0 -3 4v113q0 3 3 3h182v-292q-131 -30 -198 -30z" />
<glyph horiz-adv-x="502" d="M40 0q-3 0 -3 3v538q0 3 3 3h142q3 0 3 -3v-205h132v205q0 3 3 3h142q3 0 3 -3v-538q0 -3 -3 -3h-142q-3 0 -3 3v206h-132v-206q0 -3 -3 -3h-142z" />
<glyph horiz-adv-x="222" d="M40 0q-3 0 -3 3v538q0 3 3 3h142q3 0 3 -3v-538q0 -3 -3 -3h-142z" />
<glyph horiz-adv-x="408" d="M160 -8q-95 0 -143 24q-3 1 -1 5l36 113q2 4 4 2l5 -1q5 -1 14 -2t20 -2.5t27 -2.5t33 -1q68 0 68 56v358q0 3 3 3h142q3 0 3 -3v-371q0 -48 -13.5 -82.5t-32.5 -52.5t-50.5 -28.5t-55.5 -12.5t-59 -2z" />
<glyph horiz-adv-x="509" d="M40 0q-3 0 -3 3v538q0 3 3 3h142q3 0 3 -3v-207h33q107 204 108 207t5 3h153q2 0 1 -3l-149 -266q157 -270 159 -272q3 -3 -1 -3h-154q-1 0 -4 3l-109 205h-42v-205q0 -3 -3 -3h-142z" />
<glyph horiz-adv-x="411" d="M37 0v541q0 3 3 3h142q3 0 3 -3v-414h209q3 0 3 -4v-120q0 -3 -3 -3h-357z" />
<glyph horiz-adv-x="629" d="M40 0q-3 0 -3 3v538q0 3 3 3h167q4 0 5 -2l100 -229h12q94 225 95 227q1 4 6 4h166q3 0 3 -3v-538q0 -3 -3 -3h-139q-3 0 -3 3v271h-12q-66 -154 -67 -156q-1 -3 -6 -3h-96q-6 0 -8 4l-67 155h-11v-271q0 -3 -3 -3h-139z" />
<glyph horiz-adv-x="519" d="M36 0q-3 0 -3 3v538q0 3 4 3h153q4 0 5 -2l144 -287h8v286q0 3 3 3h139q3 0 3 -3v-538q0 -3 -4 -3h-156q-4 0 -5 3l-142 285h-9v-285q0 -3 -3 -3h-137z" />
<glyph horiz-adv-x="478" d="M239 128q37 0 50 14.5t13 71.5v117q0 56 -14 70.5t-49 14.5q-36 0 -50 -14t-14 -71v-117q0 -56 13 -71t51 -15zM239 -5q-37 0 -63 3t-57 15t-49.5 33t-31.5 61.5t-13 96.5v140q0 55 13 94t32 60t50 32.5t56.5 14.5t62.5 3q36 0 61 -2.5t56 -14.5t50 -32.5t32 -60 t13 -94.5v-140q0 -58 -13.5 -99t-32 -62t-50 -32.5t-55.5 -13.5t-61 -2z" />
<glyph horiz-adv-x="469" d="M185 295h64q10 0 21 2.5t24 13t13 27.5v34q0 45 -58 45h-64v-122zM182 0h-142q-3 0 -3 3v541h221q197 0 197 -158v-62q0 -51 -21.5 -85.5t-57 -48t-62 -18t-56.5 -4.5h-73v-165q0 -3 -3 -3z" />
<glyph horiz-adv-x="480" d="M239 -5q-37 0 -63 3t-57 15t-49.5 33t-31.5 61.5t-13 96.5v140q0 55 13 94t32 60t50 32.5t56.5 14.5t62.5 3q36 0 61 -2.5t56 -14.5t50 -32.5t32 -60t13 -94.5v-140q0 -80 -24 -128q28 -30 30 -30q1 -2 0 -4q-1 -1 -19 -19.5t-36 -36.5l-17 -18q0 -2 -1.5 -2t-3.5 2 l-37 38q-36 -11 -104 -11zM208 147q-3 2 0 5l73 73q2 2 3 0q0 -1 18 -19v8v117q0 56 -14 70.5t-49 14.5q-36 0 -50 -14t-14 -71v-117q0 -52 11 -68.5t40 -17.5z" />
<glyph horiz-adv-x="479" d="M184 295h65q10 0 21.5 3t24 14t12.5 29v28q0 27 -19.5 37.5t-39.5 10.5h-64v-122zM181 0h-141q-3 0 -3 3v541h221q30 0 58 -5.5t62.5 -21t55.5 -52.5t21 -91v-39q0 -102 -71 -139l84 -193q2 -3 -3 -3h-156q-3 0 -5 3l-63 165h-57v-165q0 -3 -3 -3z" />
<glyph horiz-adv-x="460" d="M228 -4q-133 0 -199 33q-4 1 -2 5q0 1 19.5 57t20.5 57q0 3 4 3l9 -3q8 -2 22 -5t32.5 -6.5t44 -6t50.5 -2.5q64 0 64 25v21q0 30 -85 40q-96 11 -135 40t-39 103v65q0 128 196 128q126 0 182 -28q3 -2 3 -5q0 -1 -17.5 -55t-18.5 -56t-3 -2l-8 2q-9 2 -23.5 4.5 t-31.5 4.5t-39 4t-42 2q-46 0 -46 -24v-18q0 -15 14 -23t63 -14q98 -13 139.5 -45t41.5 -104v-64q0 -43 -19.5 -71t-55 -40.5t-67.5 -17t-74 -4.5z" />
<glyph horiz-adv-x="435" d="M146 0q-3 0 -3 3v411h-132q-3 0 -3 3v124q0 3 3 3h413q3 0 3 -3v-124q0 -3 -3 -3h-133v-411q0 -3 -3 -3h-142z" />
<glyph horiz-adv-x="492" d="M230 -4q-111 0 -153.5 49.5t-42.5 158.5v337q0 3 3 3h143q2 -1 2 -3v-327q0 -29 2 -44t13.5 -27.5t33.5 -12.5h31q30 0 39.5 19t9.5 65v327q0 3 3 3h142q3 0 3 -3v-337q0 -51 -7.5 -85.5t-28 -64t-60.5 -44t-102 -14.5h-31z" />
<glyph horiz-adv-x="503" d="M165 0q-1 0 -3 2q0 2 -79.5 270t-79.5 269q0 3 2 3h149q2 0 4 -3l86 -336h14q88 334 88 336q0 3 3 3h149q4 0 2 -3l-162 -538q-2 -3 -5 -3h-168z" />
<glyph horiz-adv-x="708" d="M127 0q-3 0 -4 4l-118 537q-1 3 1 3h149q1 0 3 -3l61 -312h15q59 212 60 214q2 3 3 3h116q4 0 5 -4l59 -213h16q59 310 60 312q1 3 3 3h149q5 0 3 -3q-1 -1 -60 -268.5t-59 -268.5q-1 -4 -6 -4h-173q-5 0 -6 4l-44 210h-10q-42 -204 -43 -209q-3 -5 -7 -5h-173z" />
<glyph horiz-adv-x="475" d="M1 0q-3 0 -1 3l157 277q-146 259 -148 261q-3 3 2 3h154q3 0 4 -3l65 -123h6q63 121 65 123l3 3h155q1 0 2 -1t0 -2l-147 -261q155 -276 156 -277q3 -3 -1 -3h-155q-3 0 -4 3l-74 140h-5q-74 -138 -75 -140q-2 -3 -5 -3h-154z" />
<glyph horiz-adv-x="468" d="M163 0q-3 0 -3 3v203q-159 333 -160 335q-1 3 2 3h149q3 0 4 -3l78 -178h6q74 176 75 178q2 3 3 3h146q5 0 3 -3l-158 -335v-203q0 -3 -4 -3h-141z" />
<glyph horiz-adv-x="429" d="M27 0q-3 0 -3 3v119q0 4 4 10l201 274v9h-193q-3 0 -3 3v123q0 3 3 3h365q2 0 2 -3v-118q0 -8 -2 -11l-202 -274v-9h202q2 0 2 -3v-123q0 -3 -2 -3h-374z" />
<glyph horiz-adv-x="379" d="M61 436q-2 0 -2 3v102q0 3 2 3h101q2 0 2 -3v-102l-2 -3h-101zM219 436q-4 0 -4 3v102q0 3 4 3h98q2 0 2 -3v-102q0 -3 -2 -3h-98z" />
<glyph horiz-adv-x="380" d="M178 440l-82 119q-3 3 1 3h118q3 0 4 -3l61 -120q1 -3 0 -3h-98q-3 0 -4 4z" />
<glyph horiz-adv-x="380" d="M148 435h-97q-3 0 0 3q-1 0 19 30t40.5 60t19.5 30q1 0 3 1.5t4 1.5h106q5 0 7 -3l80 -120q3 -3 0 -3h-98q-4 0 -5 3l-36 49h-1q-34 -47 -36 -49q-2 -3 -6 -3z" />
<glyph horiz-adv-x="380" d="M66 441q-3 0 -3 4v69q0 9 7 17q23 28 66 28q25 0 60 -15t53 -15q20 0 40.5 14t22.5 14q4 0 4 -5v-68q0 -11 -7 -18q-31 -31 -66 -31q-26 0 -60.5 16.5t-51.5 16.5q-21 0 -43 -14z" />
<glyph horiz-adv-x="380" d="M314 446h-247q-2 2 -2 3v93l2 3h247q2 0 2 -3v-93q0 -3 -2 -3z" />
<glyph horiz-adv-x="380" d="M202 439q-2 -3 -3 -3h-98q-3 0 -1 3l61 120q3 3 5 3h117q4 0 1 -3z" />
<glyph horiz-adv-x="380" d="M222 -134h-118q-2 0 -1 3l10 21q10 22 22 47t22 46t11 22q3 3 5 3h98q1 -1 0 -3l-46 -136q-1 -3 -3 -3z" />
<glyph horiz-adv-x="379" d="M190 431q-127 0 -127 116q0 5 7 5h59q7 0 9 -5q8 -19 18 -24.5t33 -5.5q39 0 50 30q2 5 11 5h58q7 0 7 -5q-4 -116 -125 -116z" />
<glyph horiz-adv-x="380" d="M125 429q-2 0 -2 3v109q0 3 2 3h126q4 0 4 -3v-109q0 -3 -5 -3h-125z" />
<glyph horiz-adv-x="379" d="M187 472q33 0 33 32v8q0 31 -31 31q-36 0 -36 -31v-8q0 -20 9 -26t25 -6zM187 417q-26 0 -43.5 4.5t-32 23.5t-14.5 53v20q0 47 25 63t68 16q18 0 30 -2t26.5 -9.5t22 -24.5t7.5 -43v-20q0 -27 -7.5 -44t-22 -24.5t-27.5 -10t-32 -2.5z" />
<glyph horiz-adv-x="380" d="M130 437q-2 -3 -5 -3h-97q-2 0 -1 3l61 120q2 3 5 3h117q2 0 1 -3q0 -1 -40 -59.5t-41 -60.5zM277 437q-1 -3 -4 -3h-97q-2 0 -2 3q1 1 31 60t31 60q2 3 5 3h117q4 0 1 -3q-6 -6 -82 -120z" />
<glyph horiz-adv-x="379" d="M184 -155q-40 0 -64 16.5t-24 63.5q0 50 47 80q5 3 12 3h107q4 0 5 -2.5t-4 -4.5q-22 -11 -33 -17t-22 -16t-11 -19q0 -11 11 -11q6 0 20 7q4 3 8 -1l33 -64q1 -4 -1 -7q-3 -3 -12.5 -9t-30 -12.5t-41.5 -6.5z" />
<glyph horiz-adv-x="379" d="M230 557h101q3 0 2 -2l-93 -120q-2 -4 -6 -4h-91q-4 0 -7 3q1 0 -22.5 30.5l-47 61t-22.5 28.5q-2 3 1 3h101q2 0 5 -3l37 -47h1q35 45 37 47q3 3 4 3z" />
<glyph horiz-adv-x="495" d="M141 0h-149q-2 0 -1 3l173 538q2 3 4 3h162q4 0 5 -3l169 -538q2 -3 -3 -3h-148q-3 0 -4 3l-20 83h-164q-20 -81 -21 -83q-2 -3 -3 -3zM237 600l-82 119q-3 3 1 3h118q2 0 4 -3l61 -120q1 -3 0 -3h-98q-3 0 -4 4zM197 198h101l-41 172h-18z" />
<glyph horiz-adv-x="495" d="M141 0h-149q-2 0 -1 3l173 538q2 3 4 3h162q4 0 5 -3l169 -538q2 -3 -3 -3h-148q-3 0 -4 3l-20 83h-164q-20 -81 -21 -83q-2 -3 -3 -3zM256 599q-2 -3 -3 -3h-98q-3 0 -1 3l61 120q3 3 5 3h117q4 0 1 -3zM197 198h101l-41 172h-18z" />
<glyph horiz-adv-x="495" d="M141 0h-149q-2 0 -1 3l173 538q2 3 4 3h162q4 0 5 -3l169 -538q2 -3 -3 -3h-148q-3 0 -4 3l-20 83h-164q-20 -81 -21 -83q-2 -3 -3 -3zM204 595h-97q-3 0 0 3q-1 0 19 30t40.5 60t19.5 30q1 0 3 1.5t4 1.5h106q5 0 7 -3l80 -120q3 -3 0 -3h-98q-4 0 -5 3l-36 49h-1 q-34 -47 -36 -49q-2 -3 -6 -3zM197 198h101l-41 172h-18z" />
<glyph horiz-adv-x="495" d="M141 0h-149q-2 0 -1 3l173 538q2 3 4 3h162q4 0 5 -3l169 -538q2 -3 -3 -3h-148q-3 0 -4 3l-20 83h-164q-20 -81 -21 -83q-2 -3 -3 -3zM124 601q-3 0 -3 4v69q0 9 7 17q23 28 66 28q25 0 60 -15t53 -15q20 0 40.5 14t22.5 14q4 0 4 -5v-68q0 -11 -7 -18q-31 -31 -66 -31 q-26 0 -60.5 16.5t-51.5 16.5q-21 0 -43 -14zM197 198h101l-41 172h-18z" />
<glyph horiz-adv-x="495" d="M141 0h-149q-2 0 -1 3l173 538q2 3 4 3h162q4 0 5 -3l169 -538q2 -3 -3 -3h-148q-3 0 -4 3l-20 83h-164q-20 -81 -21 -83q-2 -3 -3 -3zM119 596q-2 0 -2 3v102q0 3 2 3h101q2 0 2 -3v-102l-2 -3h-101zM277 596q-4 0 -4 3v102q0 3 4 3h98q2 0 2 -3v-102q0 -3 -2 -3h-98z M197 198h101l-41 172h-18z" />
<glyph horiz-adv-x="495" d="M141 0h-149q-2 0 -1 3l173 538q2 3 4 3h162q4 0 5 -3l169 -538q2 -3 -3 -3h-148q-3 0 -4 3l-20 83h-164q-20 -81 -21 -83q-2 -3 -3 -3zM247 577q-26 0 -43.5 4.5t-32 23.5t-14.5 53v20q0 47 25 63t68 16q18 0 30 -2t26.5 -9.5t22 -24.5t7.5 -43v-20q0 -27 -7.5 -44 t-22 -24.5t-27.5 -10t-32 -2.5zM197 198h101l-41 172h-18zM247 632q33 0 33 32v8q0 31 -31 31q-36 0 -36 -31v-8q0 -20 9 -26t25 -6z" />
<glyph horiz-adv-x="437" d="M253 -134h-118q-3 0 -1 3l61 130q-78 8 -123.5 53t-45.5 153v141q0 64 18.5 107t53 63t70 27t83.5 7t85.5 -6t49.5 -10.5t14 -6.5t0 -5q-1 -2 -21 -57t-20 -56q0 -2 -5 -2l-6 1q-6 1 -15.5 2.5t-21.5 3.5t-28 3t-31 1q-16 0 -27 -2t-24 -10t-19.5 -27t-6.5 -48v-114 q0 -53 17.5 -68t56.5 -15q27 0 55.5 3t43.5 5.5t16 2.5q2 2 4 -1l40 -114q2 -4 -1 -5q-43 -22 -108 -27l-43 -129q-2 -3 -3 -3z" />
<glyph horiz-adv-x="423" d="M37 0v544h357q3 0 3 -3v-120q0 -4 -3 -4h-209v-80h172q3 0 3 -3v-119q0 -4 -3 -4h-172v-84h209q3 0 3 -4v-120q0 -3 -3 -3h-357zM201 600l-82 119q-3 3 1 3h118q2 0 4 -3l61 -120q1 -3 0 -3h-98q-3 0 -4 4z" />
<glyph horiz-adv-x="423" d="M37 0v544h357q3 0 3 -3v-120q0 -4 -3 -4h-209v-80h172q3 0 3 -3v-119q0 -4 -3 -4h-172v-84h209q3 0 3 -4v-120q0 -3 -3 -3h-357zM229 599q-1 -3 -3 -3h-98q-2 0 -1 3l61 120q3 3 5 3h117q4 0 1 -3z" />
<glyph horiz-adv-x="423" d="M37 0v544h357q3 0 3 -3v-120q0 -4 -3 -4h-209v-80h172q3 0 3 -3v-119q0 -4 -3 -4h-172v-84h209q3 0 3 -4v-120q0 -3 -3 -3h-357zM176 595h-97q-3 0 0 3q-1 0 19 30t40.5 60t19.5 30q1 0 3 1.5t4 1.5h106q5 0 7 -3l80 -120q3 -3 0 -3h-98q-4 0 -5 3l-36 49h-1 q-34 -47 -36 -49q-2 -3 -6 -3z" />
<glyph horiz-adv-x="423" d="M37 0v544h357q3 0 3 -3v-120q0 -4 -3 -4h-209v-80h172q3 0 3 -3v-119q0 -4 -3 -4h-172v-84h209q3 0 3 -4v-120q0 -3 -3 -3h-357zM82 596q-2 0 -2 3v102q0 3 2 3h101q2 0 2 -3v-102l-2 -3h-101zM240 596q-4 0 -4 3v102q0 3 4 3h98q2 0 2 -3v-102q0 -3 -2 -3h-98z" />
<glyph horiz-adv-x="222" d="M40 0q-3 0 -3 3v538q0 3 3 3h142q3 0 3 -3v-538q0 -3 -3 -3h-142zM101 600l-82 119q-3 3 1 3h118q2 0 4 -3l61 -120q1 -3 0 -3h-98q-3 0 -4 4z" />
<glyph horiz-adv-x="222" d="M40 0q-3 0 -3 3v538q0 3 3 3h142q3 0 3 -3v-538q0 -3 -3 -3h-142zM120 599q-2 -3 -3 -3h-98q-3 0 -1 3l61 120q3 3 5 3h117q4 0 1 -3z" />
<glyph horiz-adv-x="222" d="M40 0q-3 0 -3 3v538q0 3 3 3h142q3 0 3 -3v-538q0 -3 -3 -3h-142zM68 595h-97q-3 0 0 3q-1 0 19 30t40.5 60t19.5 30q1 0 3 1.5t4 1.5h106q5 0 7 -3l80 -120q3 -3 0 -3h-98q-4 0 -5 3l-36 49h-1q-34 -47 -36 -49q-2 -3 -6 -3z" />
<glyph horiz-adv-x="222" d="M40 0q-3 0 -3 3v538q0 3 3 3h142q3 0 3 -3v-538q0 -3 -3 -3h-142zM-18 596q-2 0 -2 3v102q0 3 2 3h101q2 0 2 -3v-102l-2 -3h-101zM140 596q-4 0 -4 3v102q0 3 4 3h98q2 0 2 -3v-102q0 -3 -2 -3h-98z" />
<glyph horiz-adv-x="519" d="M36 0q-3 0 -3 3v538q0 3 4 3h153q4 0 5 -2l144 -287h8v286q0 3 3 3h139q3 0 3 -3v-538q0 -3 -4 -3h-156q-4 0 -5 3l-142 285h-9v-285q0 -3 -3 -3h-137zM136 601q-3 0 -3 4v69q0 9 7 17q23 28 66 28q25 0 60 -15t53 -15q20 0 40.5 14t22.5 14q4 0 4 -5v-68q0 -11 -7 -18 q-31 -31 -66 -31q-26 0 -60.5 16.5t-51.5 16.5q-21 0 -43 -14z" />
<glyph horiz-adv-x="478" d="M239 -5q-37 0 -63 3t-57 15t-49.5 33t-31.5 61.5t-13 96.5v140q0 55 13 94t32 60t50 32.5t56.5 14.5t62.5 3q36 0 61 -2.5t56 -14.5t50 -32.5t32 -60t13 -94.5v-140q0 -58 -13.5 -99t-32 -62t-50 -32.5t-55.5 -13.5t-61 -2zM239 128q37 0 50 14.5t13 71.5v117 q0 56 -14 70.5t-49 14.5q-36 0 -50 -14t-14 -71v-117q0 -56 13 -71t51 -15zM230 600l-82 119q-3 3 1 3h118q3 0 4 -3l61 -120q1 -3 0 -3h-98q-3 0 -4 4z" />
<glyph horiz-adv-x="478" d="M239 -5q-37 0 -63 3t-57 15t-49.5 33t-31.5 61.5t-13 96.5v140q0 55 13 94t32 60t50 32.5t56.5 14.5t62.5 3q36 0 61 -2.5t56 -14.5t50 -32.5t32 -60t13 -94.5v-140q0 -58 -13.5 -99t-32 -62t-50 -32.5t-55.5 -13.5t-61 -2zM239 128q37 0 50 14.5t13 71.5v117 q0 56 -14 70.5t-49 14.5q-36 0 -50 -14t-14 -71v-117q0 -56 13 -71t51 -15zM249 599q-1 -3 -3 -3h-98q-2 0 -1 3l61 120q3 3 5 3h117q4 0 1 -3z" />
<glyph horiz-adv-x="478" d="M239 128q37 0 50 14.5t13 71.5v117q0 56 -14 70.5t-49 14.5q-36 0 -50 -14t-14 -71v-117q0 -56 13 -71t51 -15zM239 -5q-37 0 -63 3t-57 15t-49.5 33t-31.5 61.5t-13 96.5v140q0 55 13 94t32 60t50 32.5t56.5 14.5t62.5 3q36 0 61 -2.5t56 -14.5t50 -32.5t32 -60 t13 -94.5v-140q0 -58 -13.5 -99t-32 -62t-50 -32.5t-55.5 -13.5t-61 -2zM197 595h-97q-3 0 0 3q-1 0 19 30t40.5 60t19.5 30q1 0 3 1.5t4 1.5h106q5 0 7 -3l80 -120q3 -3 0 -3h-98q-3 0 -5 3l-36 49h-1q-34 -47 -36 -49q-2 -3 -6 -3z" />
<glyph horiz-adv-x="478" d="M239 128q37 0 50 14.5t13 71.5v117q0 56 -14 70.5t-49 14.5q-36 0 -50 -14t-14 -71v-117q0 -56 13 -71t51 -15zM239 -5q-37 0 -63 3t-57 15t-49.5 33t-31.5 61.5t-13 96.5v140q0 55 13 94t32 60t50 32.5t56.5 14.5t62.5 3q36 0 61 -2.5t56 -14.5t50 -32.5t32 -60 t13 -94.5v-140q0 -58 -13.5 -99t-32 -62t-50 -32.5t-55.5 -13.5t-61 -2zM116 601q-3 0 -3 4v69q0 9 7 17q23 28 66 28q25 0 60 -15t53 -15q20 0 40.5 14t22.5 14q4 0 4 -5v-68q0 -11 -7 -18q-31 -31 -66 -31q-26 0 -60.5 16.5t-51.5 16.5q-21 0 -43 -14z" />
<glyph horiz-adv-x="478" d="M239 -5q-37 0 -63 3t-57 15t-49.5 33t-31.5 61.5t-13 96.5v140q0 55 13 94t32 60t50 32.5t56.5 14.5t62.5 3q36 0 61 -2.5t56 -14.5t50 -32.5t32 -60t13 -94.5v-140q0 -58 -13.5 -99t-32 -62t-50 -32.5t-55.5 -13.5t-61 -2zM239 128q37 0 50 14.5t13 71.5v117 q0 56 -14 70.5t-49 14.5q-36 0 -50 -14t-14 -71v-117q0 -56 13 -71t51 -15zM111 596q-2 0 -2 3v102q0 3 2 3h101q2 0 2 -3v-102l-2 -3h-101zM269 596q-4 0 -4 3v102q0 3 4 3h98q2 0 2 -3v-102q0 -3 -2 -3h-98z" />
<glyph horiz-adv-x="492" d="M230 -4q-111 0 -153.5 49.5t-42.5 158.5v337q0 3 3 3h143q2 -1 2 -3v-327q0 -29 2 -44t13.5 -27.5t33.5 -12.5h31q30 0 39.5 19t9.5 65v327q0 3 3 3h142q3 0 3 -3v-337q0 -51 -7.5 -85.5t-28 -64t-60.5 -44t-102 -14.5h-31zM236 600l-82 119q-3 3 1 3h118q3 0 4 -3 l61 -120q1 -3 0 -3h-98q-3 0 -4 4z" />
<glyph horiz-adv-x="492" d="M230 -4q-111 0 -153.5 49.5t-42.5 158.5v337q0 3 3 3h143q2 -1 2 -3v-327q0 -29 2 -44t13.5 -27.5t33.5 -12.5h31q30 0 39.5 19t9.5 65v327q0 3 3 3h142q3 0 3 -3v-337q0 -51 -7.5 -85.5t-28 -64t-60.5 -44t-102 -14.5h-31zM256 599q-2 -3 -3 -3h-98q-3 0 -1 3l61 120 q3 3 5 3h117q4 0 1 -3z" />
<glyph horiz-adv-x="492" d="M230 -4q-111 0 -153.5 49.5t-42.5 158.5v337q0 3 3 3h143q2 -1 2 -3v-327q0 -29 2 -44t13.5 -27.5t33.5 -12.5h31q30 0 39.5 19t9.5 65v327q0 3 3 3h142q3 0 3 -3v-337q0 -51 -7.5 -85.5t-28 -64t-60.5 -44t-102 -14.5h-31zM204 595h-97q-3 0 0 3q-1 0 19 30t40.5 60 t19.5 30q1 0 3 1.5t4 1.5h106q5 0 7 -3l80 -120q3 -3 0 -3h-98q-4 0 -5 3l-36 49h-1q-34 -47 -36 -49q-2 -3 -6 -3z" />
<glyph horiz-adv-x="492" d="M230 -4q-111 0 -153.5 49.5t-42.5 158.5v337q0 3 3 3h143q2 -1 2 -3v-327q0 -29 2 -44t13.5 -27.5t33.5 -12.5h31q30 0 39.5 19t9.5 65v327q0 3 3 3h142q3 0 3 -3v-337q0 -51 -7.5 -85.5t-28 -64t-60.5 -44t-102 -14.5h-31zM117 596q-2 0 -2 3v102q0 3 2 3h101q2 0 2 -3 v-102l-2 -3h-101zM275 596q-4 0 -4 3v102q0 3 4 3h98q2 0 2 -3v-102q0 -3 -2 -3h-98z" />
<glyph horiz-adv-x="468" d="M163 0q-3 0 -3 3v203q-159 333 -160 335q-1 3 2 3h149q3 0 4 -3l78 -178h6q74 176 75 178q2 3 3 3h146q5 0 3 -3l-158 -335v-203q0 -3 -4 -3h-141zM243 599q-1 -3 -3 -3h-98q-2 0 -1 3l61 120q3 3 5 3h117q4 0 1 -3z" />
<glyph horiz-adv-x="468" d="M163 0q-3 0 -3 3v203q-159 333 -160 335q-1 3 2 3h149q3 0 4 -3l78 -178h6q74 176 75 178q2 3 3 3h146q5 0 3 -3l-158 -335v-203q0 -3 -4 -3h-141zM108 596q-2 0 -2 3v102q0 3 2 3h101q2 0 2 -3v-102l-2 -3h-101zM266 596q-4 0 -4 3v102q0 3 4 3h98q2 0 2 -3v-102 q0 -3 -2 -3h-98z" />
<glyph horiz-adv-x="478" d="M31 -32q-3 0 -1 3q0 1 38 77q-43 51 -43 156v140q0 55 13 94t32 60t50 32.5t56.5 14.5t62.5 3q41 0 70 -5l17 32q2 3 5 3h115q1 -1 0 -3l-39 -80q44 -49 44 -151v-140q0 -58 -13.5 -99t-32 -62t-50 -32.5t-55.5 -13.5t-61 -2q-45 0 -75 5q-14 -28 -14 -29q-3 -3 -5 -3 h-114zM239 128q37 0 50 14.5t13 71.5v117q0 56 -14 70.5t-49 14.5q-36 0 -50 -14t-14 -71v-117q0 -56 13 -71t51 -15z" />
<glyph horiz-adv-x="460" d="M228 -4q-133 0 -199 33q-4 1 -2 5q0 1 19.5 57t20.5 57q0 3 4 3l9 -3q8 -2 22 -5t32.5 -6.5t44 -6t50.5 -2.5q64 0 64 25v21q0 30 -85 40q-96 11 -135 40t-39 103v65q0 128 196 128q126 0 182 -28q3 -2 3 -5q0 -1 -17.5 -55t-18.5 -56t-3 -2l-8 2q-9 2 -23.5 4.5 t-31.5 4.5t-39 4t-42 2q-46 0 -46 -24v-18q0 -15 14 -23t63 -14q98 -13 139.5 -45t41.5 -104v-64q0 -43 -19.5 -71t-55 -40.5t-67.5 -17t-74 -4.5zM271 711h101q3 0 2 -2l-93 -120q-2 -4 -6 -4h-91q-4 0 -7 3q1 0 -22.5 30.5l-47 61t-22.5 28.5q-1 3 1 3h101q2 0 5 -3 l37 -47h1q35 45 37 47q3 3 4 3z" />
<glyph horiz-adv-x="429" d="M27 0q-3 0 -3 3v119q0 4 4 10l201 274v9h-193q-3 0 -3 3v123q0 3 3 3h365q2 0 2 -3v-118q0 -8 -2 -11l-202 -274v-9h202q2 0 2 -3v-123q0 -3 -2 -3h-374zM255 711h101q3 0 2 -2l-93 -120q-2 -4 -6 -4h-91q-4 0 -7 3q1 0 -22.5 30.5l-47 61t-22.5 28.5q-1 3 1 3h101 q2 0 5 -3l37 -47h1q35 45 37 47q3 3 4 3z" />
<glyph horiz-adv-x="698" d="M237 198h88v181h-18zM151 0h-149q-2 0 -1 3l40 85q40 84 87.5 184t87.5 184t41 85q1 3 5 3h402q4 0 4 -3v-120q0 -4 -4 -4h-191v-79h154q2 0 2 -3v-120q0 -4 -2 -4h-154v-84h191q4 0 4 -4v-120q0 -3 -4 -3h-339v86h-138q-32 -80 -33 -83q0 -3 -3 -3z" />
<glyph horiz-adv-x="689" d="M240 128q17 0 25 1.5t18.5 10t15 28.5t4.5 54v102q0 32 -4.5 52t-15 28t-19 10t-24.5 2t-24.5 -2t-19 -10t-15.5 -28t-5 -53v-100q0 -33 4.5 -53.5t15 -29t19.5 -10.5t25 -2zM239 0q-34 0 -58 2.5t-56 14.5t-51.5 33.5t-33.5 63t-14 99.5v123q0 55 13 94.5t32 61t49 34 t56.5 15.5t62.5 3q19 0 64 -9v9h357q3 0 3 -3v-120q0 -4 -3 -4h-209v-79h172q3 0 3 -3v-120q0 -4 -3 -4h-172v-84h209q3 0 3 -4v-120q0 -3 -3 -3h-357v9q-58 -9 -64 -9z" />
<glyph horiz-adv-x="481" d="M185 134h54q18 0 27.5 2t19 10.5t13.5 27t4 49.5v100q0 40 -9.5 60t-21 23.5t-33.5 3.5h-54v-80h54q3 0 3 -3v-105q0 -4 -3 -4h-54v-84zM240 0h-203v218h-27q-3 0 -3 4v105q0 3 3 3h27v214h203q28 0 47 -1.5t46.5 -7.5t46.5 -20t37 -36t27 -58.5t9 -84.5v-124 q0 -59 -14 -100.5t-33 -63t-51 -33t-55.5 -13.5t-59.5 -2z" />
<glyph horiz-adv-x="469" d="M185 224h64q9 0 20 2t24.5 12.5t13.5 28.5v26q0 46 -58 46h-64v-115zM181 0h-141q-3 0 -3 3v538q0 3 3 3h141q3 0 3 -3v-76h74q24 0 45 -2t51 -11.5t50.5 -25.5t35.5 -46.5t15 -72.5v-54q0 -42 -16 -73t-37.5 -46.5t-52 -24t-50 -10.5t-41.5 -2h-74v-94q0 -3 -3 -3z" />
<glyph horiz-adv-x="416" d="M37 0v179q-31 -20 -33 -21q-1 -1 -1.5 -0.5t-0.5 3.5v117q0 5 2 6l33 20v238q0 2 3 2h142q3 0 3 -3v-150q92 57 93 58q4 2 4 -2v-118q0 -3 -4 -5l-93 -58v-139h209q3 0 3 -4v-120q0 -3 -3 -3h-357z" />
<glyph horiz-adv-x="495" d="M141 0h-149q-2 0 -1 3l173 538q2 3 4 3h162q4 0 5 -3l169 -538q2 -3 -3 -3h-148q-3 0 -4 3l-20 83h-164q-20 -81 -21 -83q-2 -3 -3 -3zM370 600h-247q-2 2 -2 3v93l2 3h247q2 0 2 -3v-93q0 -3 -2 -3zM197 198h101l-41 172h-18z" />
<glyph horiz-adv-x="495" d="M141 0h-149q-2 0 -1 3l173 538q2 3 4 3h162q4 0 5 -3l169 -538q2 -3 -3 -3h-148q-3 0 -4 3l-20 83h-164q-20 -81 -21 -83q-2 -3 -3 -3zM248 585q-127 0 -127 116q0 5 7 5h59q7 0 9 -5q8 -19 18 -24.5t33 -5.5q39 0 50 30q2 5 11 5h58q7 0 7 -5q-4 -116 -125 -116z M197 198h101l-41 172h-18z" />
<glyph horiz-adv-x="495" d="M420 -158q-40 0 -64 16.5t-24 63.5q0 49 44 78h-23q-3 0 -4 3l-20 83h-164q-20 -81 -21 -83q-2 -3 -3 -3h-149q-2 0 -1 3l173 538q2 3 4 3h162q4 0 5 -3l169 -538q2 -3 -2 -3q-1 0 -3 -2q-22 -11 -33 -17t-22 -16t-11 -19q0 -11 11 -11q6 0 20 7q4 3 8 -1l33 -64 q1 -5 -1 -7q-3 -3 -12.5 -9t-30 -12.5t-41.5 -6.5zM197 198h101l-41 172h-18z" />
<glyph horiz-adv-x="437" d="M249 -4q-37 0 -65.5 3.5t-59.5 16.5t-51.5 35t-33.5 61t-13 93v141q0 64 18.5 107t53 63t70 27t83.5 7t85.5 -6t49.5 -10.5t14 -6.5t0 -5q-1 -2 -21 -57t-20 -56q0 -2 -5 -2l-6 1q-6 1 -15.5 2.5t-21.5 3.5t-28 3t-31 1q-16 0 -27 -2t-24 -10t-19.5 -27t-6.5 -48v-114 q0 -53 17.5 -68t56.5 -15q27 0 55.5 3t43.5 5.5t16 2.5q2 2 4 -1l40 -114q2 -4 -1 -5q-58 -29 -158 -29zM259 592q-1 -3 -3 -3h-98q-2 0 -1 3l61 120q3 3 5 3h117q4 0 1 -3z" />
<glyph horiz-adv-x="437" d="M249 -4q-37 0 -65.5 3.5t-59.5 16.5t-51.5 35t-33.5 61t-13 93v141q0 64 18.5 107t53 63t70 27t83.5 7t85.5 -6t49.5 -10.5t14 -6.5t0 -5q-1 -2 -21 -57t-20 -56q0 -2 -5 -2l-6 1q-6 1 -15.5 2.5t-21.5 3.5t-28 3t-31 1q-16 0 -27 -2t-24 -10t-19.5 -27t-6.5 -48v-114 q0 -53 17.5 -68t56.5 -15q27 0 55.5 3t43.5 5.5t16 2.5q2 2 4 -1l40 -114q2 -4 -1 -5q-58 -29 -158 -29zM208 589h-97q-3 0 0 3q-1 0 19 30t40.5 60t19.5 30q1 0 3 1.5t4 1.5h106q5 0 7 -3l80 -120q3 -3 0 -3h-98q-4 0 -5 3l-36 49h-1q-34 -47 -36 -49q-2 -3 -6 -3z" />
<glyph horiz-adv-x="437" d="M249 -4q-37 0 -65.5 3.5t-59.5 16.5t-51.5 35t-33.5 61t-13 93v141q0 64 18.5 107t53 63t70 27t83.5 7t85.5 -6t49.5 -10.5t14 -6.5t0 -5q-1 -2 -21 -57t-20 -56q0 -2 -5 -2l-6 1q-6 1 -15.5 2.5t-21.5 3.5t-28 3t-31 1q-16 0 -27 -2t-24 -10t-19.5 -27t-6.5 -48v-114 q0 -53 17.5 -68t56.5 -15q27 0 55.5 3t43.5 5.5t16 2.5q2 2 4 -1l40 -114q2 -4 -1 -5q-58 -29 -158 -29zM186 583q-2 0 -2 3v109q0 3 2 3h126q4 0 4 -3v-109q0 -3 -5 -3h-125z" />
<glyph horiz-adv-x="437" d="M249 -4q-37 0 -65.5 3.5t-59.5 16.5t-51.5 35t-33.5 61t-13 93v141q0 64 18.5 107t53 63t70 27t83.5 7t85.5 -6t49.5 -10.5t14 -6.5t0 -5q-1 -2 -21 -57t-20 -56q0 -2 -5 -2l-6 1q-6 1 -15.5 2.5t-21.5 3.5t-28 3t-31 1q-16 0 -27 -2t-24 -10t-19.5 -27t-6.5 -48v-114 q0 -53 17.5 -68t56.5 -15q27 0 55.5 3t43.5 5.5t16 2.5q2 2 4 -1l40 -114q2 -4 -1 -5q-58 -29 -158 -29zM292 711h101q3 0 2 -2l-93 -120q-2 -4 -6 -4h-91q-4 0 -7 3q1 0 -22.5 30.5l-47 61t-22.5 28.5q-2 3 1 3h101q2 0 5 -3l37 -47h1q35 45 37 47q3 3 4 3z" />
<glyph horiz-adv-x="481" d="M185 134h53q23 0 34.5 4t20.5 24t9 60v101q0 57 -14.5 72t-49.5 15h-53v-276zM238 0h-201v544h201q23 0 38.5 -1t40.5 -5t41.5 -12t36 -23t31 -36.5t19.5 -55t8 -75.5v-124q0 -59 -14.5 -100.5t-33.5 -63t-52 -33t-56 -13.5t-59 -2zM272 711h101q3 0 2 -2l-93 -120 q-2 -4 -6 -4h-91q-4 0 -7 3q1 0 -22.5 30.5l-47 61t-22.5 28.5q-2 3 1 3h101q2 0 5 -3l37 -47h1q35 45 37 47q3 3 4 3z" />
<glyph horiz-adv-x="481" d="M185 134h54q18 0 27.5 2t19 10.5t13.5 27t4 49.5v100q0 40 -9.5 60t-21 23.5t-33.5 3.5h-54v-80h54q3 0 3 -3v-105q0 -4 -3 -4h-54v-84zM240 0h-203v218h-27q-3 0 -3 4v105q0 3 3 3h27v214h203q28 0 47 -1.5t46.5 -7.5t46.5 -20t37 -36t27 -58.5t9 -84.5v-124 q0 -59 -14 -100.5t-33 -63t-51 -33t-55.5 -13.5t-59.5 -2z" />
<glyph horiz-adv-x="423" d="M37 0v544h357q3 0 3 -3v-120q0 -4 -3 -4h-209v-80h172q3 0 3 -3v-119q0 -4 -3 -4h-172v-84h209q3 0 3 -4v-120q0 -3 -3 -3h-357zM340 600h-247q-2 2 -2 3v93l2 3h247q2 0 2 -3v-93q0 -3 -2 -3z" />
<glyph horiz-adv-x="423" d="M37 0v544h357q3 0 3 -3v-120q0 -4 -3 -4h-209v-80h172q3 0 3 -3v-119q0 -4 -3 -4h-172v-84h209q3 0 3 -4v-120q0 -3 -3 -3h-357zM228 585q-127 0 -127 116q0 5 7 5h59q7 0 9 -5q8 -19 18 -24.5t33 -5.5q39 0 50 30q2 5 11 5h58q7 0 7 -5q-4 -116 -125 -116z" />
<glyph horiz-adv-x="423" d="M37 0v544h357q3 0 3 -3v-120q0 -4 -3 -4h-209v-80h172q3 0 3 -3v-119q0 -4 -3 -4h-172v-84h209q3 0 3 -4v-120q0 -3 -3 -3h-357zM171 583q-2 0 -2 3v109q0 3 2 3h126q4 0 4 -3v-109q0 -3 -5 -3h-125z" />
<glyph horiz-adv-x="423" d="M37 0v544h357q3 0 3 -3v-120q0 -4 -3 -4h-209v-80h172q3 0 3 -3v-119q0 -4 -3 -4h-172v-84h209q3 0 3 -4v-120q0 -3 -3 -3h-4q-63 -30 -63 -51q0 -11 11 -11q6 0 20 7q4 3 8 -1l33 -64q1 -4 -1 -7q-3 -3 -12.5 -9t-30 -12.5t-41.5 -6.5q-40 0 -64 16.5t-24 63.5 q0 46 39 75h-228z" />
<glyph horiz-adv-x="423" d="M37 0v544h357q3 0 3 -3v-120q0 -4 -3 -4h-209v-80h172q3 0 3 -3v-119q0 -4 -3 -4h-172v-84h209q3 0 3 -4v-120q0 -3 -3 -3h-357zM276 711h101q3 0 2 -2l-93 -120q-2 -4 -6 -4h-91q-4 0 -7 3q1 0 -22.5 30.5l-47 61t-22.5 28.5q-2 3 1 3h101q2 0 5 -3l37 -47h1 q35 45 37 47q3 3 4 3z" />
<glyph horiz-adv-x="480" d="M251 -4q-35 0 -61.5 3t-59 15t-53.5 33t-35.5 61.5t-14.5 95.5v142q0 56 15.5 95.5t37 60t55.5 32t58 13.5t58 2q47 0 91 -6.5t64 -12t21 -6.5q2 -2 0 -5l-36 -109q-1 -2 -5 -2h-4q-5 1 -12.5 2t-17 2t-22 2t-25.5 2t-27.5 1.5t-27.5 0.5q-17 0 -27.5 -2t-22.5 -10 t-18 -26.5t-6 -47.5v-118q0 -53 18.5 -69t56.5 -16l77 6v63h-61q-3 0 -3 4v113q0 3 3 3h182v-292q-131 -30 -198 -30zM214 589h-97q-3 0 0 3q-1 0 19 30t40.5 60t19.5 30q1 0 3 1.5t4 1.5h106q5 0 7 -3l80 -120q3 -3 0 -3h-98q-4 0 -5 3l-36 49h-1q-34 -47 -36 -49 q-2 -3 -6 -3z" />
<glyph horiz-adv-x="480" d="M251 -4q-35 0 -61.5 3t-59 15t-53.5 33t-35.5 61.5t-14.5 95.5v142q0 56 15.5 95.5t37 60t55.5 32t58 13.5t58 2q47 0 91 -6.5t64 -12t21 -6.5q2 -2 0 -5l-36 -109q-1 -2 -5 -2h-4q-5 1 -12.5 2t-17 2t-22 2t-25.5 2t-27.5 1.5t-27.5 0.5q-17 0 -27.5 -2t-22.5 -10 t-18 -26.5t-6 -47.5v-118q0 -53 18.5 -69t56.5 -16l77 6v63h-61q-3 0 -3 4v113q0 3 3 3h182v-292q-131 -30 -198 -30zM249 585q-127 0 -127 116q0 5 7 5h59q7 0 9 -5q8 -19 18 -24.5t33 -5.5q39 0 50 30q2 5 11 5h58q7 0 7 -5q-4 -116 -125 -116z" />
<glyph horiz-adv-x="480" d="M251 -4q-35 0 -61.5 3t-59 15t-53.5 33t-35.5 61.5t-14.5 95.5v142q0 56 15.5 95.5t37 60t55.5 32t58 13.5t58 2q47 0 91 -6.5t64 -12t21 -6.5q2 -2 0 -5l-36 -109q-1 -2 -5 -2h-4q-5 1 -12.5 2t-17 2t-22 2t-25.5 2t-27.5 1.5t-27.5 0.5q-17 0 -27.5 -2t-22.5 -10 t-18 -26.5t-6 -47.5v-118q0 -53 18.5 -69t56.5 -16l77 6v63h-61q-3 0 -3 4v113q0 3 3 3h182v-292q-131 -30 -198 -30zM178 583q-2 0 -2 3v109q0 3 2 3h126q4 0 4 -3v-109q0 -3 -5 -3h-125z" />
<glyph horiz-adv-x="502" d="M40 0q-3 0 -3 3v538q0 3 3 3h142q3 0 3 -3v-205h132v205q0 3 3 3h142q3 0 3 -3v-538q0 -3 -3 -3h-142q-3 0 -3 3v206h-132v-206q0 -3 -3 -3h-142zM207 589h-97q-3 0 0 3q-1 0 19 30t40.5 60t19.5 30q1 0 3 1.5t4 1.5h106q5 0 7 -3l80 -120q3 -3 0 -3h-98q-3 0 -5 3 l-36 49h-1q-34 -47 -36 -49q-2 -3 -6 -3z" />
<glyph horiz-adv-x="222" d="M40 0q-3 0 -3 3v538q0 3 3 3h142q3 0 3 -3v-538q0 -3 -3 -3h-142zM-13 594q-3 0 -3 4v69q0 9 7 17q23 28 66 28q25 0 60 -15t53 -15q20 0 40.5 14t22.5 14q4 0 4 -5v-68q0 -11 -7 -18q-31 -31 -66 -31q-26 0 -60.5 16.5t-51.5 16.5q-22 0 -43 -13.5t-22 -13.5z" />
<glyph horiz-adv-x="222" d="M40 0q-3 0 -3 3v538q0 3 3 3h142q3 0 3 -3v-538q0 -3 -3 -3h-142zM234 600h-247q-2 2 -2 3v93l2 3h247q2 0 2 -3v-93q0 -3 -2 -3z" />
<glyph horiz-adv-x="222" d="M40 0q-3 0 -3 3v538q0 3 3 3h142q3 0 3 -3v-538q0 -3 -3 -3h-4q-63 -30 -63 -51q0 -11 11 -11q6 0 20 7q4 3 8 -1l33 -64q1 -4 -1 -7q-3 -3 -12.5 -9t-30 -12.5t-41.5 -6.5q-40 0 -64 16.5t-24 63.5q0 46 39 75h-13z" />
<glyph horiz-adv-x="222" d="M40 0q-3 0 -3 3v538q0 3 3 3h142q3 0 3 -3v-538q0 -3 -3 -3h-142zM47 583q-2 0 -2 3v109q0 3 2 3h126q4 0 4 -3v-109q0 -3 -5 -3h-125z" />
<glyph horiz-adv-x="408" d="M160 -8q-95 0 -143 24q-3 1 -1 5l36 113q2 4 4 2l5 -1q5 -1 14 -2t20 -2.5t27 -2.5t33 -1q68 0 68 56v358q0 3 3 3h142q3 0 3 -3v-371q0 -48 -13.5 -82.5t-32.5 -52.5t-50.5 -28.5t-55.5 -12.5t-59 -2zM255 589h-97q-3 0 0 3q-1 0 19 30t40.5 60t19.5 30q1 0 3 1.5t4 1.5 h106q5 0 7 -3l80 -120q3 -3 0 -3h-98q-3 0 -5 3l-36 49h-1q-34 -47 -36 -49q-2 -3 -6 -3z" />
<glyph horiz-adv-x="411" d="M37 0v541q0 3 3 3h142q3 0 3 -3v-414h209q3 0 3 -4v-120q0 -3 -3 -3h-357zM215 592q-1 -3 -3 -3h-98q-2 0 -1 3l61 120q3 3 5 3h117q4 0 1 -3z" />
<glyph horiz-adv-x="519" d="M36 0q-3 0 -3 3v538q0 3 4 3h153q4 0 5 -2l144 -287h8v286q0 3 3 3h139q3 0 3 -3v-538q0 -3 -4 -3h-156q-4 0 -5 3l-142 285h-9v-285q0 -3 -3 -3h-137zM269 592q-1 -3 -3 -3h-98q-2 0 -1 3l61 120q3 3 5 3h117q4 0 1 -3z" />
<glyph horiz-adv-x="519" d="M36 0q-3 0 -3 3v538q0 3 4 3h153q4 0 5 -2l144 -287h8v286q0 3 3 3h139q3 0 3 -3v-538q0 -3 -4 -3h-156q-4 0 -5 3l-142 285h-9v-285q0 -3 -3 -3h-137zM301 711h101q3 0 2 -2l-93 -120q-2 -4 -6 -4h-91q-4 0 -7 3q1 0 -22.5 30.5l-47 61t-22.5 28.5q-1 3 1 3h101 q2 0 5 -3l37 -47h1q35 45 37 47q3 3 4 3z" />
<glyph horiz-adv-x="478" d="M239 128q37 0 50 14.5t13 71.5v117q0 56 -14 70.5t-49 14.5q-36 0 -50 -14t-14 -71v-117q0 -56 13 -71t51 -15zM239 -5q-37 0 -63 3t-57 15t-49.5 33t-31.5 61.5t-13 96.5v140q0 55 13 94t32 60t50 32.5t56.5 14.5t62.5 3q36 0 61 -2.5t56 -14.5t50 -32.5t32 -60 t13 -94.5v-140q0 -58 -13.5 -99t-32 -62t-50 -32.5t-55.5 -13.5t-61 -2zM363 600h-247q-2 2 -2 3v93l2 3h247q2 0 2 -3v-93q0 -3 -2 -3z" />
<glyph horiz-adv-x="478" d="M239 128q37 0 50 14.5t13 71.5v117q0 56 -14 70.5t-49 14.5q-36 0 -50 -14t-14 -71v-117q0 -56 13 -71t51 -15zM239 -5q-37 0 -63 3t-57 15t-49.5 33t-31.5 61.5t-13 96.5v140q0 55 13 94t32 60t50 32.5t56.5 14.5t62.5 3q36 0 61 -2.5t56 -14.5t50 -32.5t32 -60 t13 -94.5v-140q0 -58 -13.5 -99t-32 -62t-50 -32.5t-55.5 -13.5t-61 -2zM240 585q-127 0 -127 116q0 5 7 5h59q7 0 9 -5q8 -19 18 -24.5t33 -5.5q39 0 50 30q2 5 11 5h58q7 0 7 -5q-4 -116 -125 -116z" />
<glyph horiz-adv-x="478" d="M239 -5q-37 0 -63 3t-57 15t-49.5 33t-31.5 61.5t-13 96.5v140q0 55 13 94t32 60t50 32.5t56.5 14.5t62.5 3q36 0 61 -2.5t56 -14.5t50 -32.5t32 -60t13 -94.5v-140q0 -58 -13.5 -99t-32 -62t-50 -32.5t-55.5 -13.5t-61 -2zM239 128q37 0 50 14.5t13 71.5v117 q0 56 -14 70.5t-49 14.5q-36 0 -50 -14t-14 -71v-117q0 -56 13 -71t51 -15zM202 591q-2 -3 -5 -3h-97q-2 0 -1 3l61 120q2 3 5 3h117q2 0 1 -3q0 -1 -40 -59.5t-41 -60.5zM349 591q-1 -3 -4 -3h-97q-2 0 -2 3q1 1 31 60t31 60q2 3 5 3h117q4 0 1 -3q-6 -6 -82 -120z" />
<glyph horiz-adv-x="479" d="M181 0h-141q-3 0 -3 3v541h221q30 0 58 -5.5t62.5 -21t55.5 -52.5t21 -91v-39q0 -102 -71 -139l84 -193q2 -3 -3 -3h-156q-3 0 -5 3l-63 165h-57v-165q0 -3 -3 -3zM249 592q-1 -3 -3 -3h-98q-2 0 -1 3l61 120q3 3 5 3h117q4 0 1 -3zM184 295h65q10 0 21.5 3t24 14 t12.5 29v28q0 27 -19.5 37.5t-39.5 10.5h-64v-122z" />
<glyph horiz-adv-x="479" d="M184 295h65q10 0 21.5 3t24 14t12.5 29v28q0 27 -19.5 37.5t-39.5 10.5h-64v-122zM181 0h-141q-3 0 -3 3v541h221q30 0 58 -5.5t62.5 -21t55.5 -52.5t21 -91v-39q0 -102 -71 -139l84 -193q2 -3 -3 -3h-156q-3 0 -5 3l-63 165h-57v-165q0 -3 -3 -3zM265 711h101q3 0 2 -2 l-93 -120q-2 -4 -6 -4h-91q-4 0 -7 3q1 0 -22.5 30.5l-47 61t-22.5 28.5q-1 3 1 3h101q2 0 5 -3l37 -47h1q35 45 37 47q3 3 4 3z" />
<glyph horiz-adv-x="460" d="M228 -4q-133 0 -199 33q-4 1 -2 5q0 1 19.5 57t20.5 57q0 3 4 3l9 -3q8 -2 22 -5t32.5 -6.5t44 -6t50.5 -2.5q64 0 64 25v21q0 30 -85 40q-96 11 -135 40t-39 103v65q0 128 196 128q126 0 182 -28q3 -2 3 -5q0 -1 -17.5 -55t-18.5 -56t-3 -2l-8 2q-9 2 -23.5 4.5 t-31.5 4.5t-39 4t-42 2q-46 0 -46 -24v-18q0 -15 14 -23t63 -14q98 -13 139.5 -45t41.5 -104v-64q0 -43 -19.5 -71t-55 -40.5t-67.5 -17t-74 -4.5zM256 592q-2 -3 -3 -3h-98q-3 0 -1 3l61 120q3 3 5 3h117q4 0 1 -3z" />
<glyph horiz-adv-x="460" d="M228 -4q-133 0 -199 33q-4 1 -2 5q0 1 19.5 57t20.5 57q0 3 4 3l9 -3q8 -2 22 -5t32.5 -6.5t44 -6t50.5 -2.5q64 0 64 25v21q0 30 -85 40q-96 11 -135 40t-39 103v65q0 128 196 128q126 0 182 -28q3 -2 3 -5q0 -1 -17.5 -55t-18.5 -56t-3 -2l-8 2q-9 2 -23.5 4.5 t-31.5 4.5t-39 4t-42 2q-46 0 -46 -24v-18q0 -15 14 -23t63 -14q98 -13 139.5 -45t41.5 -104v-64q0 -43 -19.5 -71t-55 -40.5t-67.5 -17t-74 -4.5zM187 589h-97q-3 0 0 3q-1 0 19 30t40.5 60t19.5 30q1 0 3 1.5t4 1.5h106q5 0 7 -3l80 -120q3 -3 0 -3h-98q-3 0 -5 3l-36 49 h-1q-34 -47 -36 -49q-2 -3 -6 -3z" />
<glyph horiz-adv-x="435" d="M146 0q-3 0 -3 3v411h-132q-3 0 -3 3v124q0 3 3 3h413q3 0 3 -3v-124q0 -3 -3 -3h-133v-411q0 -3 -3 -3h-142zM259 711h101q3 0 2 -2l-93 -120q-2 -4 -6 -4h-91q-4 0 -7 3q1 0 -22.5 30.5l-47 61t-22.5 28.5q-1 3 1 3h101q2 0 5 -3l37 -47h1q35 45 37 47q3 3 4 3z" />
<glyph horiz-adv-x="492" d="M230 -4q-111 0 -153.5 49.5t-42.5 158.5v337q0 3 3 3h143q2 -1 2 -3v-327q0 -29 2 -44t13.5 -27.5t33.5 -12.5h31q30 0 39.5 19t9.5 65v327q0 3 3 3h142q3 0 3 -3v-337q0 -51 -7.5 -85.5t-28 -64t-60.5 -44t-102 -14.5h-31zM123 594q-3 0 -3 4v69q0 9 7 17q23 28 66 28 q25 0 60 -15t53 -15q20 0 40.5 14t22.5 14q4 0 4 -5v-68q0 -11 -7 -18q-31 -31 -66 -31q-26 0 -60.5 16.5t-51.5 16.5q-22 0 -43 -13.5t-22 -13.5z" />
<glyph horiz-adv-x="492" d="M230 -4q-111 0 -153.5 49.5t-42.5 158.5v337q0 3 3 3h143q2 -1 2 -3v-327q0 -29 2 -44t13.5 -27.5t33.5 -12.5h31q30 0 39.5 19t9.5 65v327q0 3 3 3h142q3 0 3 -3v-337q0 -51 -7.5 -85.5t-28 -64t-60.5 -44t-102 -14.5h-31zM370 600h-247q-2 2 -2 3v93l2 3h247q2 0 2 -3 v-93q0 -3 -2 -3z" />
<glyph horiz-adv-x="492" d="M230 -4q-111 0 -153.5 49.5t-42.5 158.5v337q0 3 3 3h143q2 -1 2 -3v-327q0 -29 2 -44t13.5 -27.5t33.5 -12.5h31q30 0 39.5 19t9.5 65v327q0 3 3 3h142q3 0 3 -3v-337q0 -51 -7.5 -85.5t-28 -64t-60.5 -44t-102 -14.5h-31zM248 585q-127 0 -127 116q0 5 7 5h59q7 0 9 -5 q8 -19 18 -24.5t33 -5.5q39 0 50 30q2 5 11 5h58q7 0 7 -5q-4 -116 -125 -116z" />
<glyph horiz-adv-x="492" d="M230 -4q-111 0 -153.5 49.5t-42.5 158.5v337q0 3 3 3h143q2 -1 2 -3v-327q0 -29 2 -44t13.5 -27.5t33.5 -12.5h31q30 0 39.5 19t9.5 65v327q0 3 3 3h142q3 0 3 -3v-337q0 -51 -7.5 -85.5t-28 -64t-60.5 -44t-102 -14.5h-31zM246 570q-26 0 -43.5 4.5t-32 23.5t-14.5 53 v20q0 47 25 63t68 16q18 0 30 -2t26.5 -9.5t22 -24.5t7.5 -43v-20q0 -27 -7.5 -44t-22 -24.5t-27.5 -10t-32 -2.5zM246 625q33 0 33 32v8q0 31 -31 31q-36 0 -36 -31v-8q0 -20 9 -26t25 -6z" />
<glyph horiz-adv-x="492" d="M230 -4q-111 0 -153.5 49.5t-42.5 158.5v337q0 3 3 3h143q2 -1 2 -3v-327q0 -29 2 -44t13.5 -27.5t33.5 -12.5h31q30 0 39.5 19t9.5 65v327q0 3 3 3h142q3 0 3 -3v-337q0 -51 -7.5 -85.5t-28 -64t-60.5 -44t-102 -14.5h-31zM214 591q-2 -3 -5 -3h-97q-2 0 -1 3l61 120 q2 3 5 3h117q2 0 1 -3q0 -1 -40 -59.5t-41 -60.5zM361 591q-1 -3 -4 -3h-97q-2 0 -2 3q1 1 31 60t31 60q2 3 5 3h117q4 0 1 -3q-6 -6 -82 -120z" />
<glyph horiz-adv-x="492" d="M233 -159q-40 0 -64 16.5t-24 63.5q0 48 42 77q-86 9 -119.5 58t-33.5 148v337q0 3 3 3h143q2 -1 2 -3v-327q0 -29 2 -44t13.5 -27.5t33.5 -12.5h31q30 0 39.5 19t9.5 65v327q0 3 3 3h142q3 0 3 -3v-337q0 -92 -30 -142.5t-114 -61.5q0 -2 -3 -3q-22 -11 -33 -17t-22 -16 t-11 -19q0 -11 11 -11q6 0 20 7q4 3 8 -1l33 -64q2 -4 -1 -7t-12.5 -9t-30 -12.5t-41.5 -6.5z" />
<glyph horiz-adv-x="708" d="M127 0q-3 0 -4 4l-118 537q-1 3 1 3h149q1 0 3 -3l61 -312h15q59 212 60 214q2 3 3 3h116q4 0 5 -4l59 -213h16q59 310 60 312q1 3 3 3h149q5 0 3 -3q-1 -1 -60 -268.5t-59 -268.5q-1 -4 -6 -4h-173q-5 0 -6 4l-44 210h-10q-42 -204 -43 -209q-3 -5 -7 -5h-173zM311 589 h-97q-3 0 0 3q-1 0 19 30t40.5 60t19.5 30q1 0 3 1.5t4 1.5h106q5 0 7 -3l80 -120q3 -3 0 -3h-98q-3 0 -5 3l-36 49h-1q-34 -47 -36 -49q-2 -3 -6 -3z" />
<glyph horiz-adv-x="468" d="M163 0q-3 0 -3 3v203q-159 333 -160 335q-1 3 2 3h149q3 0 4 -3l78 -178h6q74 176 75 178q2 3 3 3h146q5 0 3 -3l-158 -335v-203q0 -3 -4 -3h-141zM191 589h-97q-3 0 0 3q-1 0 19 30t40.5 60t19.5 30q1 0 3 1.5t4 1.5h106q5 0 7 -3l80 -120q3 -3 0 -3h-98q-3 0 -5 3 l-36 49h-1q-34 -47 -36 -49q-2 -3 -6 -3z" />
<glyph horiz-adv-x="429" d="M27 0q-3 0 -3 3v119q0 4 4 10l201 274v9h-193q-3 0 -3 3v123q0 3 3 3h365q2 0 2 -3v-118q0 -8 -2 -11l-202 -274v-9h202q2 0 2 -3v-123q0 -3 -2 -3h-374zM248 592q-2 -3 -3 -3h-98q-3 0 -1 3l61 120q3 3 5 3h117q4 0 1 -3z" />
<glyph horiz-adv-x="429" d="M27 0q-3 0 -3 3v119q0 4 4 10l201 274v9h-193q-3 0 -3 3v123q0 3 3 3h365q2 0 2 -3v-118q0 -8 -2 -11l-202 -274v-9h202q2 0 2 -3v-123q0 -3 -2 -3h-374zM158 583q-2 0 -2 3v109q0 3 2 3h126q4 0 4 -3v-109q0 -3 -5 -3h-125z" />
<glyph horiz-adv-x="708" d="M127 0q-3 0 -4 4l-118 537q-1 3 1 3h149q1 0 3 -3l61 -312h15q59 212 60 214q2 3 3 3h116q4 0 5 -4l59 -213h16q59 310 60 312q1 3 3 3h149q5 0 3 -3q-1 -1 -60 -268.5t-59 -268.5q-1 -4 -6 -4h-173q-5 0 -6 4l-44 210h-10q-42 -204 -43 -209q-3 -5 -7 -5h-173zM336 593 l-82 119q-3 3 1 3h118q3 0 4 -3l61 -120q1 -3 0 -3h-98q-3 0 -4 4z" />
<glyph horiz-adv-x="708" d="M127 0q-3 0 -4 4l-118 537q-1 3 1 3h149q1 0 3 -3l61 -312h15q59 212 60 214q2 3 3 3h116q4 0 5 -4l59 -213h16q59 310 60 312q1 3 3 3h149q5 0 3 -3q-1 -1 -60 -268.5t-59 -268.5q-1 -4 -6 -4h-173q-5 0 -6 4l-44 210h-10q-42 -204 -43 -209q-3 -5 -7 -5h-173zM380 592 q-2 -3 -3 -3h-98q-3 0 -1 3l61 120q3 3 5 3h117q4 0 1 -3z" />
<glyph horiz-adv-x="708" d="M127 0q-3 0 -4 4l-118 537q-1 3 1 3h149q1 0 3 -3l61 -312h15q59 212 60 214q2 3 3 3h116q4 0 5 -4l59 -213h16q59 310 60 312q1 3 3 3h149q5 0 3 -3q-1 -1 -60 -268.5t-59 -268.5q-1 -4 -6 -4h-173q-5 0 -6 4l-44 210h-10q-42 -204 -43 -209q-3 -5 -7 -5h-173zM226 589 q-2 0 -2 3v102q0 3 2 3h101q2 0 2 -3v-102l-2 -3h-101zM384 589q-4 0 -4 3v102q0 3 4 3h98q2 0 2 -3v-102q0 -3 -2 -3h-98z" />
<glyph horiz-adv-x="411" d="M37 0v541q0 3 3 3h142q3 0 3 -3v-414h209q3 0 3 -4v-120q0 -3 -3 -3h-357zM234 408q-6 -3 -6 4v214q0 4 4 4h123q4 0 4 -4v-132q0 -4 -4 -7q-10 -5 -121 -79z" />
<glyph horiz-adv-x="509" d="M40 0q-3 0 -3 3v538q0 3 3 3h142q3 0 3 -3v-207h33q107 204 108 207t5 3h153q2 0 1 -3l-149 -266q157 -270 159 -272q3 -3 -1 -3h-154q-1 0 -4 3l-109 205h-42v-205q0 -3 -3 -3h-142zM200 -226q-6 -3 -6 4v214q0 4 4 4h123q4 0 4 -4v-132q0 -4 -4 -7q-10 -5 -121 -79z " />
<glyph horiz-adv-x="411" d="M37 0v541q0 3 3 3h142q3 0 3 -3v-414h209q3 0 3 -4v-120q0 -3 -3 -3h-357zM170 -226q-6 -3 -6 4v214q0 4 4 4h123q4 0 4 -4v-132q0 -4 -4 -7q-10 -5 -121 -79z" />
<glyph horiz-adv-x="519" d="M36 0q-3 0 -3 3v538q0 3 4 3h153q4 0 5 -2l144 -287h8v286q0 3 3 3h139q3 0 3 -3v-538q0 -3 -4 -3h-156q-4 0 -5 3l-142 285h-9v-285q0 -3 -3 -3h-137zM216 -226q-6 -3 -6 4v214q0 4 4 4h123q4 0 4 -4v-132q0 -4 -4 -7q-10 -5 -121 -79z" />
<glyph horiz-adv-x="479" d="M181 0h-141q-3 0 -3 3v541h221q30 0 58 -5.5t62.5 -21t55.5 -52.5t21 -91v-39q0 -102 -71 -139l84 -193q2 -3 -3 -3h-156q-3 0 -5 3l-63 165h-57v-165q0 -3 -3 -3zM191 -226q-6 -3 -6 4v214q0 4 4 4h123q4 0 4 -4v-132q0 -4 -4 -7q-10 -5 -121 -79zM184 295h65 q10 0 21.5 3t24 14t12.5 29v28q0 27 -19.5 37.5t-39.5 10.5h-64v-122z" />
<glyph horiz-adv-x="480" d="M197 -226q-6 -3 -6 4v214q0 4 4 4h41q-33 1 -59 4.5t-55.5 16.5t-49 34.5t-32.5 60.5t-13 92v142q0 56 15.5 95.5t37 60t55.5 32t58 13.5t58 2q47 0 91 -6.5t64 -12t21 -6.5q2 -2 0 -5l-36 -109q-1 -2 -5 -2h-4q-5 1 -12.5 2t-17 2t-22 2t-25.5 2t-27.5 1.5t-27.5 0.5 q-17 0 -27.5 -2t-22.5 -10t-18 -26.5t-6 -47.5v-118q0 -53 18.5 -69t56.5 -16l77 6v63h-61q-3 0 -3 4v113q0 3 3 3h182v-292q-118 -27 -188 -30h57q4 0 4 -4v-132q0 -4 -4 -7q-10 -5 -121 -79z" />
<glyph horiz-adv-x="460" d="M187 -226q-6 -3 -6 4v214q0 4 4 4h23q-119 3 -179 33q-4 1 -2 5q0 1 19.5 57t20.5 57q0 3 4 3l9 -3q8 -2 22 -5t32.5 -6.5t44 -6t50.5 -2.5q64 0 64 25v21q0 30 -85 40q-96 11 -135 40t-39 103v65q0 128 196 128q126 0 182 -28q3 -2 3 -5q0 -1 -17.5 -55t-18.5 -56t-3 -2 l-8 2q-9 2 -23.5 4.5t-31.5 4.5t-39 4t-42 2q-46 0 -46 -24v-18q0 -15 14 -23t63 -14q98 -13 139.5 -45t41.5 -104v-64q0 -41 -18 -68.5t-50 -40.5t-63 -18t-71 -6h66q4 0 4 -4v-132q0 -4 -4 -7q-10 -5 -121 -79z" />
<glyph horiz-adv-x="435" d="M146 0q-3 0 -3 3v411h-132q-3 0 -3 3v124q0 3 3 3h413q3 0 3 -3v-124q0 -3 -3 -3h-133v-411q0 -3 -3 -3h-142zM167 -226q-6 -3 -6 4v214q0 4 4 4h123q4 0 4 -4v-132q0 -4 -4 -7q-10 -5 -121 -79z" />
<glyph horiz-adv-x="460" d="M258 -134h-118q-2 0 -1 3l60 128q-112 3 -170 32q-4 1 -2 5q0 1 19.5 57t20.5 57q0 3 4 3l9 -3q8 -2 22 -5t32.5 -6.5t44 -6t50.5 -2.5q64 0 64 25v21q0 30 -85 40q-96 11 -135 40t-39 103v65q0 128 196 128q126 0 182 -28q3 -2 3 -5q0 -1 -17.5 -55t-18.5 -56t-3 -2 l-8 2q-9 2 -23.5 4.5t-31.5 4.5t-39 4t-42 2q-46 0 -46 -24v-18q0 -15 14 -23t63 -14q98 -13 139.5 -45t41.5 -104v-64q0 -110 -139 -129l-44 -131q-1 -3 -3 -3z" />
<glyph horiz-adv-x="405" d="M78 136q-3 2 0 5l73 73q2 2 3 0l173 -179q1 -2 0 -4q-1 -1 -19 -19.5t-36 -36.5l-17 -18q0 -1 -1.5 -1t-3.5 1z" />
<glyph horiz-adv-x="356" d="M54 -37q-4 0 -2 3l37 95q0 3 5 3h81q5 0 3 -3l-38 -95q-1 -3 -5 -3h-81zM182 329q-5 0 -3 4l36 91q1 3 4 3h83q4 0 2 -3l-36 -91q-2 -4 -4 -4h-82z" />
<glyph horiz-adv-x="502" d="M277 454q-3 0 -2 3l60 118q1 3 5 3h115q1 -1 0 -3q-1 -3 -29 -60t-29 -58q-3 -3 -5 -3h-115zM40 -32q-2 0 -1 3l57 114q3 3 6 3h113q4 0 1 -3q-1 -1 -28.5 -57t-28.5 -57q-3 -3 -5 -3h-114z" />
<glyph horiz-adv-x="473" d="M235 127q34 0 44 16t10 72v118q0 55 -10.5 70.5t-43.5 15.5q-31 0 -41.5 -15.5t-10.5 -70.5v-118q0 -55 9.5 -71.5t42.5 -16.5zM235 -4q-37 0 -61.5 3t-53.5 14.5t-46 33.5t-28.5 61.5t-11.5 96.5v142q0 54 12 92.5t29.5 59.5t46 33t53.5 15t60 3q36 0 60.5 -2.5t54 -14 t47.5 -32.5t30 -60t12 -94v-142q0 -49 -7.5 -85.5t-23.5 -58.5t-33 -36t-43.5 -20t-46 -7.5t-50.5 -1.5z" />
<glyph horiz-adv-x="415" d="M318 0h-137q-2 1 -2 3v388q-91 -59 -93 -60q-3 -1 -3 1q0 1 -16 60t-17 60t3 5q1 1 61.5 42.5t62.5 42.5q2 2 4 2h137q3 0 3 -3v-539q0 -2 -3 -2z" />
<glyph horiz-adv-x="428" d="M385 0h-337q-3 0 -3 3v111q0 6 4 10q11 12 31 32t31 31.5t28 29t27 29t22.5 26.5t20 26t14.5 22.5t10 21.5t3 18v27q0 13 -10.5 21t-20 10t-17.5 2q-16 0 -35 -2t-34.5 -5t-29 -6.5t-21.5 -5.5l-8 -2q-5 0 -5 2q0 1 -12.5 55t-12.5 55q0 4 1 5q1 2 17 9.5t56 15.5t87 8 q195 0 195 -137v-66q0 -43 -30 -88t-97 -120v-9h126q3 0 3 -3v-123q0 -3 -3 -3z" />
<glyph horiz-adv-x="431" d="M41 21q-2 1 -2 5q0 1 11.5 55t11.5 55q1 2 4 2l9 -2q9 -1 23.5 -3.5t31.5 -4.5t36.5 -3.5t36.5 -1.5q19 0 34 8t15 23v19q0 44 -47 44h-72q-3 0 -3 4v115q0 3 3 3h73q15 0 25.5 9.5t10.5 24.5v18q0 12 -10.5 20t-20 10t-16.5 2q-26 0 -58.5 -4t-51 -8t-20.5 -5 q-5 -2 -5 2q0 1 -11 55t-11 55q0 5 1 5q5 2 21 7.5t55.5 12.5t79.5 7t70 -4.5t59.5 -17t45.5 -40.5t16 -69v-50q0 -20 -11 -40.5t-21 -30.5l-11 -11v-9q6 -3 14.5 -8.5t23 -28t14.5 -51.5v-61q0 -41 -15 -68.5t-43.5 -41t-59.5 -18.5t-73 -5q-47 0 -87.5 6t-58.5 12z" />
<glyph horiz-adv-x="431" d="M366 0h-127q-3 0 -3 3v69h-205q-3 0 -3 3v118q0 6 3 12l128 336q1 3 4 3h143q4 0 2 -3l-122 -332v-8h50v76q0 4 3 4h127q3 0 3 -4v-76h38q4 0 4 -3v-123q0 -3 -4 -3h-38v-69q0 -3 -3 -3z" />
<glyph horiz-adv-x="430" d="M204 -5q-46 0 -87.5 6.5t-56 11t-19.5 7.5q-1 0 -1 5q0 1 11 55.5t12 55.5q2 3 4 2t22.5 -4.5t54 -7.5t59.5 -4q18 0 34 8t16 24v25q0 23 -16.5 32t-33.5 9h-147q-3 0 -3 3v314q0 7 7 7h317q3 0 3 -3v-114q0 -4 -3 -4h-195v-84h25q28 0 50 -2t49.5 -9.5t46 -21t31 -38.5 t12.5 -59v-81q0 -36 -13 -62t-31 -39.5t-47 -21t-50 -9t-51 -1.5z" />
<glyph horiz-adv-x="437" d="M218 113q13 0 21 2.5t16 15.5t8 38v19q0 45 -28 45q-13 0 -26.5 -2.5t-20.5 -5.5l-8 -3v-83q0 -26 38 -26zM228 -4q-190 0 -190 142v258q0 42 16.5 72.5t38.5 45.5t52 24t47 10.5t34 1.5q93 0 159 -33q2 -1 2 -5q-1 -4 -14 -55t-13 -52q0 -2 -3 -2l-9 2q-8 2 -21 4.5 t-29 5.5t-35 5t-36 2q-12 0 -29.5 -7.5t-17.5 -24.5v-51q60 11 85 11q28 0 48.5 -4.5t42.5 -19t34 -47t12 -82.5v-35q0 -55 -14.5 -90t-42.5 -50.5t-54 -20.5t-63 -5z" />
<glyph horiz-adv-x="414" d="M216 1h-144q-4 0 -2 3l152 407v8h-182q-2 2 -2 3v119l2 3h335q4 0 4 -3v-112q0 -5 -3 -11l-155 -414q-3 -3 -5 -3z" />
<glyph horiz-adv-x="432" d="M215 113q44 0 44 44v18q0 20 -14.5 28.5t-29.5 8.5t-28.5 -9t-13.5 -28v-18q0 -44 42 -44zM215 341q15 0 28 9t13 27v17q0 40 -41 40q-40 0 -40 -40v-17q0 -18 12 -27t28 -9zM214 -4q-37 0 -65.5 5t-57.5 20t-45 47.5t-16 80.5v34q0 17 5.5 33t14 27t16.5 19t14 12l5 3v3 q-5 3 -12 9.5t-19 29t-12 47.5v33q0 41 10.5 70.5t25 44.5t40 23.5t46 10.5t52.5 2q39 0 65 -4.5t53.5 -18.5t41 -46t13.5 -82v-34q0 -24 -10.5 -45.5t-21.5 -31.5l-11 -9v-2q2 -1 6 -3.5t13.5 -11.5t17 -19t13.5 -26t6 -34v-34q0 -48 -15.5 -80.5t-44.5 -47t-58.5 -20 t-69.5 -5.5z" />
<glyph horiz-adv-x="430" d="M219 433q-12 0 -20.5 -2.5t-16.5 -16t-8 -37.5v-26q0 -27 7.5 -36t21.5 -9q13 0 26.5 2.5t20.5 5.5l7 2v91q0 26 -38 26zM209 550q190 0 190 -143v-257q0 -41 -16.5 -72t-38.5 -46t-51.5 -24t-47 -10.5t-33.5 -1.5q-104 0 -162 29q-2 1 -2 5q1 5 13.5 53.5t13.5 52.5 q1 3 3 3l8 -1q9 -2 22.5 -4.5t30 -5t35.5 -4t35 -1.5q14 0 31 8t17 26v42q-60 -11 -86 -11q-27 0 -47.5 5t-42.5 19t-34 47t-12 82v43q0 44 11 76t26.5 49t40.5 26.5t46 12t50 2.5z" />
<glyph horiz-adv-x="932" d="M236 -4q-133 0 -199 33q-4 1 -2 5q0 1 19.5 57t20.5 57q0 3 4 3l9 -3q8 -2 22 -5t32.5 -6.5t44 -6t50.5 -2.5q64 0 64 25v21q0 30 -85 40q-96 11 -135 40t-39 103v65q0 128 196 128q126 0 182 -28q3 -2 3 -5q0 -1 -17.5 -55t-18.5 -56t-3 -2l-8 2q-9 2 -23.5 4.5 t-31.5 4.5t-39 4t-42 2q-46 0 -46 -24v-18q0 -15 14 -23t63 -14q98 -13 139.5 -45t41.5 -104v-64q0 -43 -19.5 -71t-55 -40.5t-67.5 -17t-74 -4.5zM679 -4q-133 0 -199 33q-4 1 -2 5q0 1 19.5 57t20.5 57q0 3 4 3l8 -3q9 -2 23 -5t32.5 -6.5t44 -6t50.5 -2.5q64 0 64 25v21 q0 30 -85 40q-96 11 -135 40t-39 103v65q0 128 196 128q126 0 182 -28q3 -2 3 -5q0 -1 -17.5 -55t-18.5 -56t-3 -2l-9 2q-8 2 -22.5 4.5t-31.5 4.5t-39 4t-42 2q-46 0 -46 -24v-18q0 -15 14 -23t63 -14q98 -13 139.5 -45t41.5 -104v-64q0 -43 -19.5 -71t-55 -40.5t-67.5 -17 t-74 -4.5z" />
<glyph horiz-adv-x="431" d="M161 50q-4 0 -4 3v109h-121q-3 0 -3 3v110q0 4 3 4h121v108q0 3 4 3h108q3 0 3 -3v-108h122q2 0 2 -4v-110q0 -3 -2 -3h-122v-109q0 -3 -3 -3h-108z" />
<glyph horiz-adv-x="199" d="M11 -94q-4 0 -2 4l57 219q2 3 4 3h117q3 0 2 -3l-81 -219q-2 -4 -4 -4h-93z" />
<glyph horiz-adv-x="305" d="M30 162q-3 0 -3 3v110q0 4 3 4h244q3 0 3 -4v-110q0 -3 -3 -3h-244z" />
<glyph horiz-adv-x="205" d="M40 0q-3 0 -3 3v130q0 4 3 4h125q3 0 3 -4v-130q0 -3 -3 -3h-125z" />
<glyph horiz-adv-x="343" d="M32 -4q-4 0 -2 3q1 2 75 274.5t74 273.5q0 3 4 3h131q4 0 3 -3l-149 -548q-2 -3 -4 -3h-132z" />
<glyph horiz-adv-x="431" d="M36 251q-3 0 -3 3v112q0 3 3 3h358q2 0 2 -3v-112q0 -3 -2 -3h-358zM36 74q-3 0 -3 3v112q0 3 3 3h358q2 0 2 -3v-112q0 -3 -2 -3h-358z" />
<glyph horiz-adv-x="247" d="M186 0h-125q-3 0 -3 3v113q0 3 3 3h125q3 0 3 -3v-113q0 -3 -3 -3zM182 171h-117q-2 0 -2 3v367q0 3 2 3h117q3 0 3 -3v-367q0 -3 -3 -3z" />
<glyph horiz-adv-x="371" d="M241 0h-125q-4 0 -4 3v113q0 3 4 3h125q4 0 4 -3v-113q0 -3 -4 -3zM244 169h-129q-3 0 -3 3v16q0 33 14 64t31.5 50t31.5 40t14 36v16q0 16 -11.5 24t-20.5 8q-15 0 -31.5 -2t-30 -5t-24.5 -6t-17 -5l-7 -2q-5 0 -4 2l-13 53l-13 53q0 4 1 5l4 2q5 2 11.5 4.5t16 5.5 t21.5 6.5t25.5 6t30 4t33.5 1.5q169 0 169 -137v-34q0 -30 -47.5 -94t-47.5 -96v-16q0 -3 -4 -3z" />
<glyph horiz-adv-x="217" d="M-1 -94q-4 0 -2 4l58 219q1 3 3 3h117q3 0 2 -3l-80 -219q-2 -4 -4 -4h-94zM47 254q-3 0 -3 3v130q0 3 3 3h124q4 0 4 -3v-130q0 -3 -4 -3h-124z" />
<glyph horiz-adv-x="319" d="M126 544q5 0 5 -5v-177q0 -3 -3 -3h-100q-3 0 -3 3v176q0 6 3 6h98zM286 544q6 0 6 -5v-177q0 -3 -3 -3h-99q-4 0 -4 3v176q0 6 4 6h96z" />
<glyph horiz-adv-x="464" d="M194 243h70l7 67h-69zM162 0h-103q-3 0 -3 3l16 141h-51q-2 1 -2 3v93l2 3h64l7 67h-54q-4 0 -4 3v93q0 3 3 3h66q16 129 16 132l2 3h105q3 0 3 -3l-15 -132h70q14 130 14 132q0 3 4 3h104q6 0 3 -3l-15 -132h49q2 0 2 -3v-93q0 -3 -2 -3h-62l-7 -67h53q3 0 3 -3v-93 q0 -3 -3 -3h-65q-16 -139 -16 -141q0 -3 -3 -3h-105q-2 0 -2 3l16 141h-70q-16 -139 -16 -141q0 -3 -4 -3z" />
<glyph horiz-adv-x="470" d="M185 -69q-3 0 -3 3v61q-99 5 -153 32q-3 2 -2 5q1 2 20.5 58t19.5 57q0 3 4 1q3 -2 20.5 -6.5t57 -10t80.5 -5.5q64 0 64 25v22q0 27 -86 40q-96 12 -134.5 39.5t-38.5 103.5v64q0 111 148 126v64q0 3 3 3h86q4 0 4 -3v-64q97 -6 138 -26q1 0 1 -4q0 -1 -16.5 -55.5 t-17.5 -56.5q-2 -4 -5 -2q-2 1 -20.5 5t-54 8.5t-68.5 4.5q-47 0 -47 -25v-18q0 -15 14 -22.5t64 -14.5q44 -6 71.5 -13.5t55.5 -23t41.5 -43.5t13.5 -69v-64q0 -119 -170 -132v-61q0 -3 -4 -3h-86z" />
<glyph horiz-adv-x="638" d="M230 -5h-115q-2 0 0 3l21 43q25 50 118 223q151 283 148 283l6 3h115q1 -1 0 -4q0 -1 -45 -86.5t-98.5 -187.5t-99.5 -188l-45 -86q-1 -3 -5 -3zM482 83q14 0 21 5.5t7 22.5v33q0 27 -26 27q-30 0 -30 -27v-33q0 -28 28 -28zM482 -5q-111 0 -111 101v64q0 99 114 99 q110 0 110 -99v-64q0 -101 -113 -101zM155 374q14 0 21 5.5t7 22.5v33q0 27 -28 27q-30 0 -30 -27v-33q0 -28 30 -28zM155 286q-112 0 -112 101v64q0 99 115 99q108 0 108 -99v-64q0 -101 -111 -101z" />
<glyph horiz-adv-x="474" d="M228 -5q-27 0 -48.5 2t-50 10.5t-47.5 23t-32.5 42.5t-13.5 67v37q0 32 12.5 66t25.5 52l13 18q-22 33 -22 86v24q0 35 11 59.5t25.5 37.5t38.5 20t41 8.5t42 1.5q28 0 48.5 -4t46.5 -17.5t40 -46.5t14 -84q0 -3 -3 -3h-91q-2 1 -2 3q0 28 -9 44t-18.5 19t-23.5 3 q-54 0 -54 -45v-12q0 -16 8 -35t17 -32t27 -36t26 -34l66 -96q3 9 3 14v71q0 4 3 4h89q4 0 4 -4v-95q0 -16 -7.5 -36t-14.5 -32l-8 -13q58 -78 60 -80q2 -3 -1 -3h-120q-2 0 -5 3l-8 12q-33 -20 -82 -20zM228 91l20 4l-91 124q-9 -14 -9 -62v-6q0 -35 20.5 -47.5t59.5 -12.5 z" />
<glyph horiz-adv-x="179" d="M137 544q6 0 6 -5v-177q0 -3 -4 -3h-99q-3 0 -3 3v176q0 6 3 6h97z" />
<glyph horiz-adv-x="186" d="M44 -70q-6 -2 -6 2v177q0 3 3 3h104q3 0 3 -3v-107q0 -4 -3 -6q-1 -1 -50 -33t-51 -33z" />
<glyph horiz-adv-x="343" d="M44 -70q-6 -2 -6 2v177q0 3 3 3h104q3 0 3 -3v-107q0 -4 -3 -6q-1 -1 -50 -33t-51 -33zM201 -70q-4 -2 -4 2v177q0 3 2 3h103q3 0 3 -3v-107q0 -4 -3 -6q-1 -1 -50 -33t-51 -33z" />
<glyph horiz-adv-x="463" d="M287 -5q-222 0 -222 190h-37q-3 0 -3 4v66q0 3 3 3h37v30h-37q-3 0 -3 3v67q0 3 3 3h37q0 188 225 188q47 0 83.5 -6t49.5 -11t15 -7q2 -1 1 -4l-37 -111q-2 -3 -4 -2q-1 1 -15.5 3t-41 4t-51.5 2q-32 0 -48.5 -11t-25.5 -45h104q4 0 4 -3v-67q0 -3 -4 -3h-105v-30h105 q4 0 4 -3v-66q0 -4 -4 -4h-104q6 -32 22 -42t50 -10q28 0 56.5 2.5t43 5t16.5 3.5t3 -2l40 -114q1 -3 -1 -4q-58 -29 -159 -29z" />
<glyph horiz-adv-x="412" d="M188 -77q-3 0 -3 3v71q-29 3 -45.5 7t-42.5 18.5t-39.5 48t-13.5 84.5v83q0 47 14.5 79.5t40.5 47.5t44 20t42 8v71q0 3 3 3h75q3 0 3 -3v-70q12 -1 23.5 -2.5t20.5 -3t16.5 -4l13.5 -4.5t9.5 -3.5t6.5 -2.5l3 -2q3 -2 2 -4l-32 -94q-1 -2 -3 -2h-4q-4 1 -11.5 2t-17 2 t-23 1.5t-28.5 0.5q-54 0 -54 -51v-63q0 -32 13.5 -42t40.5 -10q70 0 86 8q4 0 4 -3q0 -1 16.5 -48t17.5 -49q2 -5 -2 -5l-4 -2q-5 -2 -13 -4.5t-18.5 -5t-27.5 -4.5t-35 -3v-70q0 -3 -3 -3h-75z" />
<glyph horiz-adv-x="717" d="M355 134q23 0 30 6.5t7 30.5v104q0 11 -38 11q-30 0 -30 -47v-59q0 -46 31 -46zM357 -130q-48 0 -87 5.5t-85.5 26.5t-78 56t-53 99.5t-21.5 152.5q0 87 22.5 151t54.5 98.5t79.5 55t85.5 26t83 5.5q55 0 98 -6t88.5 -26t75 -53.5t48.5 -92.5t19 -139q0 -60 -13.5 -100.5 t-39 -58.5t-48.5 -24t-54 -6q-47 0 -83 20q-32 -20 -95 -20q-68 0 -105 26.5t-37 107.5v71q0 134 118 134q22 0 38 -3t21 -6l4 -3v6q0 2 3 2h107q3 0 3 -2v-190q0 -46 33 -46q12 0 20 4.5t15 26.5t7 63q0 128 -51 174t-172 46q-115 0 -165 -54.5t-50 -182.5q0 -73 18 -123 t51 -73.5t67 -32.5t79 -9q32 0 75 5.5t69.5 10.5t28.5 6q4 2 4 -2l23 -88q0 -4 -2 -5q-5 -3 -26.5 -9.5t-71.5 -15t-100 -8.5z" />
<glyph horiz-adv-x="256" d="M111 -75q-1 0 -6 3l-3 3q-2 3 -5 8.5t-8 14.5t-9.5 23.5t-9.5 32.5t-9.5 43.5t-8 55t-5.5 69.5t-2 84q0 77 6 140t14 97t17.5 58t15 31t7.5 9q4 3 6 3h108q3 0 1 -3q-5 -5 -15 -28.5t-24 -107.5t-14 -199q0 -72 5.5 -132.5t12.5 -95.5t15 -61t12.5 -34.5t6.5 -10.5 q3 -3 0 -3h-108z" />
<glyph horiz-adv-x="256" d="M146 -75h-108q-3 0 0 3q2 2 6.5 10.5t12.5 34.5t15 61t12.5 95.5t5.5 132.5t-5.5 133t-12 95t-15.5 61.5t-12.5 34.5t-6.5 11q-2 3 1 3h107q2 0 6 -3q3 -3 7.5 -9t14.5 -31t18 -58.5t14 -96.5t6 -140q0 -78 -6 -140.5t-13.5 -96t-18 -58.5t-14.5 -30t-8 -9q-3 -3 -6 -3z " />
<glyph horiz-adv-x="312" d="M122 280q-3 0 -3 4v63q-50 -31 -52 -32t-3 1l-35 61q-1 1 1 4l52 32q-50 30 -52 31q-2 2 -1 4l35 60q1 2 3 2l52 -33v64q0 3 3 3h67q4 0 4 -3v-64q49 32 51 33q4 2 5 -2l8 -14q8 -15 16.5 -30t8.5 -16q2 -2 -1 -4l-50 -31q48 -31 50 -32q3 -3 1 -4l-34 -61q-1 -2 -4 -1 l-51 32v-63q0 -4 -3 -4h-68z" />
<glyph horiz-adv-x="241" d="M36 -75v675h185q3 0 3 -3v-102q0 -3 -3 -3h-68v-459h68q3 0 3 -4v-101q0 -3 -3 -3h-185z" />
<glyph horiz-adv-x="241" d="M205 -75h-185q-3 0 -3 3v101q0 4 3 4h68v459h-68q-3 0 -3 3v102q0 3 3 3h185v-675z" />
<glyph horiz-adv-x="337" d="M31 162q-3 0 -3 3v110q0 4 3 4h275q3 0 3 -4v-110q0 -3 -3 -3h-275z" />
<glyph horiz-adv-x="387" d="M18 162q-3 0 -3 3v110q0 4 3 4h351q3 0 3 -4v-110q0 -3 -3 -3h-351z" />
<glyph horiz-adv-x="343" d="M32 -4q-4 0 -2 3q1 2 75 274.5t74 273.5q0 3 4 3h131q4 0 3 -3l-149 -548q-2 -3 -4 -3h-132z" />
<glyph horiz-adv-x="305" d="M30 162q-3 0 -3 3v110q0 4 3 4h244q3 0 3 -4v-110q0 -3 -3 -3h-244z" />
<glyph horiz-adv-x="431" d="M36 164q-3 0 -3 3v107q0 3 3 3h358q2 0 2 -3v-107q0 -3 -2 -3h-358zM155 -7q-2 0 -2 4v118q0 4 2 4h119q3 0 3 -4v-118q0 -4 -3 -4h-119zM155 323q-2 0 -2 3v119q0 3 2 3h119q3 0 3 -3v-119q0 -3 -3 -3h-119z" />
<glyph horiz-adv-x="431" d="M58 0q-3 0 -3 3v200h-24q-2 0 -2 3v89l2 3h24v114q0 137 188 137q93 0 151 -29q3 -2 3 -5q0 -1 -14 -55l-14 -55q0 -2 -3 -2q-1 0 -8.5 2t-19.5 4.5t-26.5 4.5t-32.5 4t-34 2q-40 0 -40 -33v-89h114q3 0 3 -3v-89q0 -3 -3 -3h-114v-74h182q3 0 3 -3v-123q0 -3 -3 -3h-329 z" />
<glyph horiz-adv-x="404" d="M29 21q-1 1 -1 5l16 46l15 45q0 3 5 3q2 -1 20.5 -4.5t51.5 -7.5t61 -4q38 0 38 11v10q0 10 -11 13.5t-49 7.5q-139 14 -139 98v48q0 33 20 53q-20 20 -20 51v48q0 105 161 105q40 0 77.5 -6t53 -10.5t19.5 -6.5q3 -1 3 -4q-27 -81 -27 -89q0 -3 -5 -3q-1 0 -7.5 1 t-17.5 3t-25 3.5t-32.5 2.5t-35.5 1q-32 0 -32 -9v-9q0 -13 72 -20q59 -6 93 -27.5t34 -70.5v-51q0 -24 -18 -46q18 -20 18 -55v-50q0 -35 -15.5 -58.5t-43.5 -33.5t-53 -13t-58 -3q-44 0 -86.5 6.5t-60 12t-21.5 7.5zM245 246q3 6 3 20v10q0 4 -11 8.5t-24.5 8t-25.5 5.5 l-12 3l-1 -1q-5 -1 -10 -7t-5 -14v-9q0 -16 77 -23z" />
<glyph horiz-adv-x="462" d="M160 0q-3 0 -3 3v90h-87q-3 0 -3 3v72q0 3 3 3h87v27h-87q-3 0 -3 3v72q0 3 3 3h52q-123 263 -124 265q-2 3 2 3h149q1 0 3 -3l78 -177h6q74 174 75 177t4 3h147q4 0 2 -3l-125 -265h50q2 0 2 -3v-72q0 -3 -2 -3h-84v-27h84q2 0 2 -3v-72q0 -3 -2 -3h-85v-90q0 -3 -3 -3 h-141z" />
<glyph horiz-adv-x="284" d="M203 -73q-60 0 -86 27t-26 85v98q0 39 -12.5 56t-45.5 17q-3 0 -3 3v101q0 3 3 3q34 0 46 18.5t12 54.5v98q0 58 26 85t86 27h60q3 0 3 -3v-99q0 -3 -3 -3h-23q-32 0 -32 -34v-91q0 -49 -13.5 -70.5t-43.5 -34.5v-3q31 -13 44 -34.5t13 -69.5v-92q0 -34 33 -34h22 q3 0 3 -3v-99q0 -3 -3 -3h-60z" />
<glyph horiz-adv-x="266" d="M79 -75q-3 0 -3 3v669q0 3 3 3h108q3 0 3 -3v-669q0 -3 -3 -3h-108z" />
<glyph horiz-adv-x="284" d="M83 -73h-61q-3 0 -3 3v99q0 3 3 3h23q32 0 32 34v92q0 48 13 69.5t44 34.5v3q-30 13 -43.5 34.5t-13.5 70.5v91q0 34 -31 34h-24q-3 0 -3 3v99q0 3 3 3h61q59 0 85 -27t26 -85v-98q0 -36 12 -54.5t46 -18.5q3 0 3 -3v-101q0 -3 -3 -3q-33 0 -45.5 -17t-12.5 -56v-98 q0 -58 -26 -85t-85 -27z" />
<glyph horiz-adv-x="266" d="M78 -75q-3 0 -3 3v286q0 4 3 4h108q3 0 3 -4v-286q0 -3 -3 -3h-108zM78 311q-3 0 -3 3v283q0 3 3 3h108q3 0 3 -3v-283q0 -3 -3 -3h-108z" />
<glyph horiz-adv-x="431" d="M116 40l-74 75q-3 2 0 5l94 100q-92 99 -94 101t0 4q1 1 37 37.5t37 38.5q4 0 4 -1l94 -100q94 99 96 100q4 2 4 1q4 -6 74 -76q2 -2 0 -4l-95 -101q94 -98 95 -100q2 -2 0 -5l-75 -75q-1 -2 -3 0l-96 100q-92 -99 -94 -100q-3 -1 -4 0z" />
<glyph horiz-adv-x="431" d="M394 28l-89 34q-89 35 -178 69.5t-90 34.5q-3 2 -3 4v98q0 4 3 5l357 138q3 1 3 -2v-120q0 -1 -3 -4l-180 -65v-2q179 -64 180 -65q3 -1 3 -3v-120q0 -4 -3 -2z" />
<glyph horiz-adv-x="431" d="M36 28q-2 -1 -2 2v120q0 2 2 3l180 65v2q-178 64 -180 65q-2 2 -2 4v120q0 3 2 2l359 -138q2 -1 2 -5v-98q0 -3 -2 -4z" />
<glyph horiz-adv-x="343" d="M314 -4h-131q-3 0 -4 3l-149 548q-2 3 1 3h133q4 0 4 -3q0 -1 74 -273.5t75 -274.5q1 -3 -3 -3z" />
<glyph horiz-adv-x="431" d="M29 194l129 347q3 3 4 3h107q1 0 3 -3l127 -347q1 -3 -2 -3h-122q-3 0 -4 3l-55 170h-3q-55 -168 -56 -170q-1 -3 -4 -3h-122q-3 0 -2 3z" />
<glyph horiz-adv-x="429" d="M3 -139q-3 0 -3 3v93q0 3 3 3h423q3 0 3 -3v-93q0 -3 -3 -3h-423z" />
<glyph horiz-adv-x="431" d="M54 236q0 10 7 17q32 37 82 37q33 0 80 -23.5t71 -23.5t51.5 18t28.5 18q4 0 4 -6v-67q0 -10 -7 -17q-40 -40 -84 -40q-32 0 -77.5 24.5t-70.5 24.5q-18 0 -37 -9t-31 -17.5t-14 -8.5q-3 0 -3 4v69z" />
<glyph horiz-adv-x="331" d="M165 157q-25 0 -42.5 4.5t-32 23.5t-14.5 53v21q0 79 92 79q18 0 31 -2.5t27 -9.5t21.5 -24t7.5 -43v-21q0 -50 -24.5 -65.5t-65.5 -15.5z" />
<glyph horiz-adv-x="330" d="M164 547q61 0 105 -45.5t44 -109.5q0 -65 -43.5 -110.5t-105.5 -45.5q-61 0 -104.5 45.5t-43.5 110.5q0 64 43.5 109.5t104.5 45.5zM164 274q47 0 79 34.5t32 83.5t-32.5 83.5t-78.5 34.5t-79 -34.5t-33 -83.5t32.5 -83.5t79.5 -34.5zM146 308h-43q-2 0 -2 1v170h67 q60 0 60 -54v-11q0 -33 -22 -45l26 -60l-1 -1h-48q-1 0 -1 1l-20 52h-16v-53zM146 400h19q17 0 17 15v9q0 16 -17 16h-19v-40z" />
<glyph horiz-adv-x="599" d="M298 549q110 0 187 -81.5t77 -196.5t-77.5 -196t-186.5 -81t-186 81t-77 196t77 196.5t186 81.5zM298 62q82 0 140 61.5t58 147.5q0 87 -58 148.5t-140 61.5t-139.5 -61.5t-57.5 -148.5q0 -86 57.5 -147.5t139.5 -61.5zM311 122q-68 0 -105.5 26.5t-37.5 95.5v59 q0 118 143 118q27 0 49 -4t30.5 -7.5t9.5 -4.5t1 -3q0 -1 -10 -36t-11 -36q0 -1 -1 -1.5t-2 0.5l-3 1q-4 0 -9.5 1t-12.5 1.5t-17 1t-20 0.5q-40 0 -40 -38v-47q0 -26 10 -32.5t30 -6.5q11 0 21.5 0.5t18 1.5t13 2t8.5 2h4h2l1 -1q0 -1 10.5 -37t10.5 -37q0 -2 -2 -3 q-32 -16 -91 -16z" />
<glyph horiz-adv-x="641" d="M301 233v309q0 2 3 2h92q3 0 3 -2l54 -133h6q51 130 52 132l1 1q0 2 2 2h92q1 -1 1 -2v-309l-1 -2h-78q-1 0 -1 2v158h-7q-34 -91 -35 -93q-1 -1 -4 -1h-52q-3 0 -4 2l-37 92h-5v-158q0 -2 -2 -2h-77q-3 0 -3 2zM100 233v237h-72q-1 0 -1 2v70l1 2h226q2 0 2 -2v-70 q0 -2 -2 -2h-72v-237q0 -2 -2 -2h-78q-2 0 -2 2z" />
<glyph horiz-adv-x="431" d="M70 -3q-4 0 -2 3l34 73h-65q-3 0 -3 3v112q0 3 3 3h122l25 59h-147q-3 0 -3 4v111q0 3 3 3h203q34 74 36 77q1 3 5 3h82q6 0 3 -3l-35 -77h64q2 0 2 -3v-111q0 -4 -2 -4h-121l-25 -59h146q2 0 2 -3v-112q0 -3 -2 -3h-204q-32 -71 -33 -73q-2 -3 -4 -3h-84z" />
<glyph horiz-adv-x="431" d="M161 173q-3 0 -3 3v109h-122q-3 0 -3 3v110q0 3 3 3h122v109q0 3 3 3h109q3 0 3 -3v-109h122q2 0 2 -3v-110l-2 -3h-122v-109q0 -3 -3 -3h-109zM37 0q-3 0 -3 3v107q0 3 3 3h358q2 0 2 -3v-107q0 -3 -2 -3h-358z" />
<glyph horiz-adv-x="430" d="M394 138l-89 34q-89 35 -178 69.5t-90 34.5q-3 2 -3 4v98q0 4 3 4q1 0 178 69t179 70q3 1 3 -3v-118q0 -4 -3 -5l-179 -65v-2l179 -64q3 0 3 -5v-118q0 -5 -3 -3zM35 0q-3 0 -3 3v113q0 3 3 3h359q3 0 3 -3v-113q0 -3 -3 -3h-359z" />
<glyph horiz-adv-x="430" d="M35 138q-3 -2 -3 3v118q0 5 3 5l179 64v2q-177 64 -179 65q-3 1 -3 5v118q0 4 3 3q2 -1 179 -70t178 -69q4 0 4 -4v-98q0 -2 -4 -4zM394 0h-359q-3 0 -3 3v113q0 3 3 3h359q3 0 3 -3v-113q0 -3 -3 -3z" />
<glyph horiz-adv-x="431" d="M50 147q0 9 7 17q4 5 13 12t28.5 15.5t40.5 8.5q33 0 80 -23t71 -23t51.5 18t28.5 18q4 0 4 -5v-68q0 -11 -7 -18q-39 -39 -84 -39q-32 0 -77.5 24.5t-70.5 24.5q-18 0 -37 -8.5t-31 -17.5t-14 -9q-3 0 -3 4v69zM50 327q0 10 7 16q7 10 29.5 23.5t52.5 13.5q33 0 80 -23 t71 -23t51.5 18t28.5 18q4 0 4 -5v-68q0 -10 -7 -17q-40 -40 -84 -40q-32 0 -77.5 24.5t-70.5 24.5q-18 0 -37 -8.5t-31 -17.5t-14 -9q-3 0 -3 4v69z" />
<glyph horiz-adv-x="204" d="M44 150q-3 0 -3 3v119q0 3 3 3h118q3 0 3 -3v-119q0 -3 -3 -3h-118z" />
<glyph horiz-adv-x="343" d="M143 549q5 3 5 -3v-177q0 -3 -3 -3h-104q-3 0 -3 3v108q0 4 3 6zM301 549q4 2 4 -3v-177q0 -3 -3 -3h-104q-3 0 -3 3v108q0 3 3 6z" />
<glyph horiz-adv-x="343" d="M43 361q-5 -3 -5 3v177q0 3 3 3h104q3 0 3 -3v-108q0 -4 -3 -6zM200 361q-5 -3 -5 3v177q0 3 3 3h104q3 0 3 -3v-108q0 -4 -3 -6z" />
<glyph horiz-adv-x="186" d="M143 549q5 3 5 -3v-177q0 -3 -3 -3h-104q-3 0 -3 3v108q0 4 3 6z" />
<glyph horiz-adv-x="186" d="M43 361q-5 -3 -5 3v177q0 3 3 3h104q3 0 3 -3v-108q0 -4 -3 -6z" />
<glyph horiz-adv-x="893" d="M230 -5h-115q-2 0 0 3l21 43q25 50 118 223q151 283 148 283l6 3h115q1 -1 0 -4q0 -1 -45 -86.5t-98.5 -187.5t-99.5 -188l-45 -86q-1 -3 -5 -3zM482 83q14 0 21 5.5t7 22.5v33q0 27 -26 27q-30 0 -30 -27v-33q0 -28 28 -28zM482 -5q-111 0 -111 101v64q0 99 114 99 q110 0 110 -99v-64q0 -101 -113 -101zM155 374q14 0 21 5.5t7 22.5v33q0 27 -28 27q-30 0 -30 -27v-33q0 -28 30 -28zM155 286q-112 0 -112 101v64q0 99 115 99q108 0 108 -99v-64q0 -101 -111 -101zM738 83q29 0 29 28v33q0 27 -27 27q-30 0 -30 -27v-33q0 -17 7 -22.5 t21 -5.5zM738 -5q-112 0 -112 101v64q0 99 115 99q109 0 109 -99v-64q0 -101 -112 -101z" />
<glyph horiz-adv-x="304" d="M149 395q9 0 14.5 1.5t9.5 8t4 17.5v19q0 27 -27 27q-30 0 -30 -27v-19q0 -27 29 -27zM149 307q-111 0 -111 101v49q0 99 114 99q109 0 109 -99v-49q0 -101 -112 -101z" />
<glyph horiz-adv-x="513" d="M427 423l73 -74q2 -2 0 -4l-127 -134q126 -132 127 -134q4 0 0 -4l-73 -74q-2 -2 -4 0q-4 4 -102.5 106.5t-98.5 103.5v5q4 4 102 106t99 103q2 2 4 0zM214 423q72 -72 72 -74q3 -1 0 -4l-127 -134q127 -132 127 -134q4 0 0 -4l-72 -74q-2 -2 -4 0q-5 5 -103.5 107 t-98.5 103v5q1 0 51 52t101 104l50 53q2 2 4 0z" />
<glyph horiz-adv-x="505" d="M291 -1q-71 71 -73 75q-3 0 0 3l127 134q-126 132 -127 134q-2 2 0 4l73 74q2 2 4 0l201 -209q2 -2 0 -5q-4 -4 -102 -106.5t-99 -103.5q-2 -2 -4 0zM86 -1q-72 72 -72 75q-3 0 0 3l126 134q-126 132 -126 134q-3 1 0 4l72 74q2 2 4 0l201 -209q2 -3 0 -5 q-4 -4 -102 -106.5t-99 -103.5q-2 -2 -4 0z" />
<glyph horiz-adv-x="316" d="M217 423q72 -72 72 -74q3 -1 0 -4l-127 -134q127 -132 127 -134q4 0 0 -4l-72 -74q-2 -2 -4 0q-4 4 -102.5 106.5t-98.5 103.5v5q1 0 50.5 52t99.5 104l51 53q2 2 4 0z" />
<glyph horiz-adv-x="316" d="M99 -1q-72 72 -72 75q-3 0 0 3l126 134q-126 132 -126 134q-3 1 0 4l72 74q2 2 4 0l201 -209q2 -3 0 -5q-4 -4 -102 -106.5t-99 -103.5q-2 -2 -4 0z" />
<glyph horiz-adv-x="287" d="M70 95q-4 0 -4 4v135q0 4 4 4h148q4 0 4 -4v-135q0 -4 -4 -4h-148zM70 439q-4 0 -4 4v135q0 4 4 4h148q4 0 4 -4v-135q0 -4 -4 -4h-148z" />
</font>
</defs>
</svg>
