<?xml version="1.0" standalone="no"?>
<!DOCTYPE svg PUBLIC "-//W3C//DTD SVG 1.1//EN" "http://www.w3.org/Graphics/SVG/1.1/DTD/svg11.dtd" >
<svg xmlns="http://www.w3.org/2000/svg" xmlns:xlink="http://www.w3.org/1999/xlink" version="1.1">
<metadata></metadata>
<defs>
<font id="sport1medium" horiz-adv-x="531" >
<font-face units-per-em="1000" ascent="750" descent="-250" />
<missing-glyph horiz-adv-x="237" />
<glyph unicode=" "  horiz-adv-x="237" />
<glyph unicode="&#x09;" horiz-adv-x="237" />
<glyph unicode="&#xa0;" horiz-adv-x="237" />
<glyph unicode="!" horiz-adv-x="289" d="M197 0h-105q-4 0 -4 4v104q0 4 4 4h105q3 0 3 -4v-104q0 -4 -3 -4zM190 196h-92q-4 0 -4 4v476q0 4 4 4h92q4 0 4 -4v-476q0 -4 -4 -4z" />
<glyph unicode="&#x22;" horiz-adv-x="356" d="M298 680q5 0 5 -5v-182q0 -4 -3 -4h-84q-4 0 -4 4v181q0 6 4 6h82zM139 680q5 0 5 -5v-182q0 -4 -4 -4h-84q-3 0 -3 4v181q0 6 3 6h83z" />
<glyph unicode="#" horiz-adv-x="544" d="M208 281h117l15 130h-117zM171 0h-80q-3 0 -3 4l22 196h-74q-4 0 -4 4v73q0 4 4 4h84l15 130h-79q-5 0 -5 4v73q0 4 4 4h90q21 181 21 184q2 4 5 4h80q3 0 3 -4l-21 -184h117q21 181 21 184q1 4 5 4h80q5 0 3 -4l-21 -184h72q4 0 4 -4v-73q0 -4 -4 -4h-82l-15 -130h78 q4 0 4 -4v-73q0 -4 -4 -4h-87q-23 -193 -23 -196q-1 -4 -5 -4h-80q-3 0 -3 4l23 196h-117q-23 -193 -23 -196q0 -4 -5 -4z" />
<glyph unicode="$" horiz-adv-x="574" d="M252 -78q-3 0 -3 4v68q-52 2 -99 11t-67.5 16.5t-22.5 9.5q-4 1 -2 5l29 88q1 2 5 2q4 -2 26.5 -8t71 -13t95.5 -7q29 0 48.5 2.5t39 9t29 21.5t9.5 38v47q0 32 -29 50.5t-104 25.5q-58 5 -95 14t-66 27t-42 49t-13 78v72q0 140 187 151v70q0 4 3 4h70q3 0 3 -4v-70 q45 -2 84.5 -9t56.5 -12.5t19 -7.5q3 -1 3 -5l-28 -85q-2 -3 -5 -2q-5 2 -25 6t-62 9t-81 5q-52 0 -79.5 -14t-27.5 -50v-46q0 -35 27 -51t100 -25q118 -13 169.5 -47t51.5 -122v-73q0 -41 -15 -71t-35 -46t-51 -26t-52.5 -12.5t-49.5 -4.5v-68q0 -4 -3 -4h-70z" />
<glyph unicode="%" horiz-adv-x="762" d="M243 -6h-90q-5 0 -1 4q29 61 181.5 345.5t178.5 338.5q2 4 6 4h89q4 0 1 -4q-1 -2 -179.5 -342t-180.5 -342q-2 -4 -5 -4zM563 67q25 0 38.5 9.5t13.5 39.5v72q0 28 -13 38t-38 10q-54 0 -54 -48v-72q0 -30 14 -39.5t39 -9.5zM563 -6q-25 0 -44 4t-38.5 15t-30 34.5 t-10.5 58.5v94q0 108 126 108q24 0 42 -3.5t37.5 -14t30 -33t10.5 -57.5v-94q0 -67 -34 -89.5t-89 -22.5zM199 444q25 0 38.5 10t13.5 40v71q0 28 -12.5 38t-37.5 10q-26 0 -40 -10t-14 -38v-71q0 -30 13.5 -40t38.5 -10zM199 372q-25 0 -44 4t-38.5 14.5t-30 34t-10.5 58.5 v94q0 109 126 109q24 0 42.5 -3.5t38 -14t30 -33.5t10.5 -58v-94q0 -35 -10.5 -58.5t-30.5 -34.5t-39 -14.5t-44 -3.5z" />
<glyph unicode="&#x26;" horiz-adv-x="577" d="M289 -6q-35 0 -61 2.5t-58 13t-52.5 29t-34.5 53.5t-14 83v38q0 41 15.5 84t31.5 65l16 22q-34 49 -34 128v29q0 145 174 145q35 0 59.5 -4.5t52 -19.5t42 -50.5t14.5 -89.5q0 -4 -4 -4h-74q-4 0 -4 4q0 54 -22.5 72t-60.5 18q-33 0 -58.5 -17t-25.5 -60v-20 q0 -27 13 -58.5t25.5 -50.5t47.5 -70l126 -182q12 20 12 28v116q0 4 4 4h75q4 0 4 -4v-132q0 -16 -9 -38t-19 -36l-9 -14q52 -71 54 -74q4 -4 -1 -4h-99q-4 0 -7 4l-12 17q-40 -27 -107 -27zM289 76q16 0 29.5 3.5t19.5 6.5l6 4l-153 214q-28 -33 -28 -103v-18 q0 -64 30.5 -85.5t95.5 -21.5z" />
<glyph unicode="'" horiz-adv-x="213" d="M146 680q6 0 6 -5v-182q0 -4 -4 -4h-84q-4 0 -4 4v181q0 6 4 6h82z" />
<glyph unicode="(" horiz-adv-x="300" d="M156 -94q-3 0 -8 4q-4 4 -9.5 11.5t-18.5 38.5t-22.5 73t-17.5 120.5t-8 174.5t7.5 174.5t17.5 120.5t22.5 72.5t19 39t9.5 11.5q5 4 7 4h85q3 0 0 -4q-4 -6 -8.5 -13.5t-17 -42.5t-21.5 -77.5t-16.5 -118.5t-7.5 -166t7.5 -166.5t17 -120t21 -76t17.5 -43t8 -12.5 q4 -4 0 -4h-84z" />
<glyph unicode=")" horiz-adv-x="300" d="M144 -94h-83q-4 0 0 4v1q45 68 62 241q8 81 8 176q0 90 -7.5 166t-16 118.5t-21 77t-17 42.5t-8.5 14q-3 4 0 4h84q3 0 8 -4q3 -3 9.5 -11.5t19 -39t22.5 -72.5t17.5 -120.5t7.5 -174.5t-8 -174.5t-18 -120.5t-23 -73t-18.5 -38.5t-9.5 -11.5q-3 -4 -8 -4z" />
<glyph unicode="*" horiz-adv-x="369" d="M156 378q-4 0 -4 4v91q-71 -45 -73 -46q-3 -2 -6 2q-1 3 -14 25.5t-14 23.5q-2 4 2 6l74 45q-72 43 -74 45q-3 2 -2 6q7 7 28 49q3 3 6 2l73 -46v91q0 4 4 4h56q4 0 4 -4v-91q72 45 74 46q1 1 2.5 0.5t2.5 -2.5q7 -7 28 -49q2 -3 -1 -6l-74 -45q72 -44 74 -45q2 -2 1 -6 l-28 -49q-2 -4 -5 -2l-74 46v-91q0 -4 -4 -4h-56z" />
<glyph unicode="+" d="M223 71q-4 0 -4 4v154h-157q-4 0 -4 4v85q0 4 4 4h157v156q0 4 4 4h84q4 0 4 -4v-156h157q4 0 4 -4v-85q0 -4 -4 -4h-157v-154q0 -4 -4 -4h-84z" />
<glyph unicode="," horiz-adv-x="234" d="M39 -105q-4 0 -3 4l57 219q1 4 5 4h97q4 0 3 -4q0 -1 -20.5 -55.5t-40.5 -108.5t-20 -55q-1 -4 -5 -4h-73z" />
<glyph unicode="-" horiz-adv-x="378" d="M50 228q-4 0 -4 4v86q0 4 4 4h278q4 0 4 -4v-86q0 -4 -4 -4h-278z" />
<glyph unicode="." horiz-adv-x="241" d="M68 0q-4 0 -4 4v114q0 4 4 4h105q4 0 4 -4v-114q0 -4 -4 -4h-105z" />
<glyph unicode="/" horiz-adv-x="417" d="M66 -5q-3 0 -3 4l187 683q1 4 4 4h100q3 0 2 -4t-93 -342.5t-92 -340.5q-1 -4 -5 -4h-100z" />
<glyph unicode="0" horiz-adv-x="577" d="M288 94q61 0 86.5 29t25.5 124v190q0 93 -26 121.5t-86 28.5q-40 0 -62 -9t-36.5 -42.5t-14.5 -98.5v-190q0 -95 26.5 -124t86.5 -29zM288 -10q-41 0 -68 3t-60.5 17t-53 39t-33.5 73t-14 116v211q0 65 13.5 111.5t33.5 71.5t52.5 38.5t60.5 17t69 3.5q40 0 66.5 -3 t60.5 -16t54 -37.5t34.5 -71.5t14.5 -114v-211q0 -50 -7.5 -89t-18.5 -65t-30.5 -44.5t-36.5 -28t-43.5 -14.5t-45.5 -6t-48 -1z" />
<glyph unicode="1" horiz-adv-x="512" d="M346 0h-103q-4 0 -4 4v551q-118 -88 -120 -89q-3 -2 -3 2q-1 2 -13.5 47t-12.5 46q-2 3 4 6q2 2 72 56t71 55q2 2 6 2h103q4 0 4 -4v-673q0 -3 -4 -3z" />
<glyph unicode="2" horiz-adv-x="524" d="M452 0h-382q-4 0 -4 3v94q0 5 3 8q15 16 45 49.5t44.5 50t40.5 45t39 44.5t31.5 39.5t28.5 38.5t20 32.5t14 31t4 24.5v58q0 69 -98 69q-31 0 -68.5 -5.5t-59 -10.5t-23.5 -6q-6 0 -6 3q0 1 -9 42t-9 42q-1 4 1 6q5 3 21 9.5t60.5 14.5t94.5 8q212 0 212 -157v-81 q0 -40 -34.5 -99t-70 -102.5t-117.5 -138.5v-9h222q3 0 3 -4v-95q0 -4 -3 -4z" />
<glyph unicode="3" d="M73 17q-2 1 -2 6q1 2 8.5 42.5t7.5 42.5q1 2 6 2q2 -1 25.5 -5.5t63.5 -9t72 -4.5q101 0 101 69v53q0 85 -89 85h-76q-4 0 -4 4v89q0 4 4 4h77q29 0 52 19t23 53v53q0 69 -97 69q-31 0 -69.5 -5t-59 -9.5t-24.5 -5.5q-1 -1 -3 0t-2 3q0 1 -8.5 42t-8.5 43q0 4 2 5 q87 29 173 29q31 0 56 -2.5t55 -11.5t50 -24.5t34 -45.5t14 -70v-71q0 -31 -13 -58.5t-25 -39.5l-13 -12v-8q3 -1 7 -4t15 -13.5t19.5 -23.5t15.5 -35.5t7 -49.5v-77q0 -50 -19 -83t-53.5 -47.5t-66 -19.5t-74.5 -5q-50 0 -95 7t-65 13z" />
<glyph unicode="4" d="M420 0h-97q-4 0 -4 4v111h-263q-4 0 -4 3v97q0 4 3 10l90 225q90 224 91 226q2 4 4 4h110q4 0 2 -4l-175 -449v-9h142v123q0 4 3 4h98q4 0 4 -4v-123h59q4 0 4 -4v-95q0 -4 -4 -4h-59v-111q0 -4 -4 -4z" />
<glyph unicode="5" d="M257 -11q-98 0 -182 28q-2 1 -2 5l17 85q1 4 5 2q1 0 11.5 -2t27.5 -4.5t37 -5t43.5 -4.5t42.5 -2q100 0 100 68v57q0 89 -89 89h-176q-3 0 -3 4v362q0 9 9 9h344q4 0 4 -4v-89q0 -4 -4 -4h-251v-182h80q37 0 65 -4.5t62 -20t53 -52t19 -91.5v-89q0 -42 -15.5 -72.5 t-36.5 -46t-53.5 -24.5t-55 -10.5t-52.5 -1.5z" />
<glyph unicode="6" horiz-adv-x="530" d="M266 85q20 0 34 3t29 13t23 32.5t8 57.5v34q0 57 -21.5 77.5t-63.5 20.5q-15 0 -40 -5t-43 -10l-17 -5v-151q0 -35 26 -51t65 -16zM273 -10q-210 0 -210 159v372q0 44 16 76.5t38.5 50t53.5 28t53.5 13t45.5 2.5q18 0 35.5 -1t32 -3t27.5 -4t24 -5t19.5 -5.5t15.5 -5 t11.5 -4t7.5 -3.5l3 -1q2 -1 2 -6l-10.5 -42t-9.5 -40t-5 -2l-9 2q-10 2 -25.5 5t-34 6t-41 5t-41.5 2q-97 0 -97 -72v-119q83 20 120 20q34 0 58.5 -5t54 -21.5t45.5 -56.5t16 -101v-50q0 -52 -13.5 -90t-31.5 -57.5t-47.5 -30.5t-51.5 -13.5t-52 -2.5z" />
<glyph unicode="7" horiz-adv-x="517" d="M231 0h-112q-3 0 -2 4l213 566v9h-259q-4 0 -4 4v92q0 5 4 5h379q3 0 3 -4v-92q0 -2 -2 -10q0 -1 -107 -284.5t-108 -285.5q-1 -4 -5 -4z" />
<glyph unicode="8" d="M266 84q46 0 69.5 19t23.5 72v39q0 87 -91 87q-95 0 -95 -87v-39q0 -52 23.5 -71.5t69.5 -19.5zM266 403q88 0 88 75v39q0 80 -86 80q-90 0 -90 -80v-39q0 -75 88 -75zM265 -11q-34 0 -60.5 3.5t-55 14.5t-46.5 29.5t-30 52t-12 78.5v54q0 26 7.5 49t17.5 37.5t20.5 24.5 t17.5 14l8 5v4q-7 4 -17 12t-26.5 37t-16.5 65v52q0 44 12.5 76t31 50t46.5 28t52 13t55 3q39 0 67.5 -5.5t59 -21.5t47 -52.5t16.5 -90.5v-53q0 -35 -14.5 -63t-28.5 -39l-15 -11v-3q3 -1 7.5 -4t16.5 -14.5t21 -25t16.5 -37t7.5 -50.5v-54q0 -57 -16.5 -94.5t-48 -54.5 t-63.5 -23t-77 -6z" />
<glyph unicode="9" d="M259 688q210 0 210 -159v-367q0 -44 -16 -76.5t-38.5 -50t-53.5 -28t-53.5 -13t-45.5 -2.5q-50 0 -95.5 7.5t-61 13t-21.5 8.5q-3 2 -2 6l20 83q2 2 5 2q3 -1 25 -5t60 -8.5t69 -4.5q97 0 97 73v103q-84 -20 -121 -20q-34 0 -58.5 5t-54 21.5t-45.5 56.5t-16 101v60 q0 52 13.5 90t31.5 57.5t47.5 30.5t51.5 13.5t52 2.5zM266 593q-20 0 -34 -3t-29 -13t-22.5 -32t-7.5 -57v-45q0 -57 21.5 -77.5t63.5 -20.5q15 0 40 5t42 10l18 5v161q0 67 -92 67z" />
<glyph unicode=":" horiz-adv-x="252" d="M74 369q-4 0 -4 4v105q0 4 4 4h105q4 0 4 -4v-105q0 -4 -4 -4h-105zM74 0q-4 0 -4 4v104q0 4 4 4h105q4 0 4 -4v-104q0 -4 -4 -4h-105z" />
<glyph unicode=";" horiz-adv-x="252" d="M24 -105q-3 0 -2 4l57 219q1 4 4 4h98q3 0 2 -4q0 -1 -20.5 -55.5t-40 -108.5t-19.5 -55q-1 -4 -5 -4h-74zM74 359q-4 0 -4 4v115q0 4 4 4h105q4 0 4 -4v-115q0 -4 -4 -4h-105z" />
<glyph unicode="&#x3c;" d="M470 66l-408 165q-3 1 -3 5v77q0 3 3 5q2 1 204.5 83t203.5 82q2 1 2.5 0.5t0.5 -3.5v-92q0 -3 -3 -6l-266 -106v-4q263 -103 266 -105q3 -1 3 -5v-93z" />
<glyph unicode="=" d="M62 126q-4 0 -4 4v87q0 4 4 4h406q4 0 4 -4v-87q0 -4 -4 -4h-406zM62 332q-4 0 -4 4v87q0 4 4 4h406q4 0 4 -4v-87q0 -4 -4 -4h-406z" />
<glyph unicode="&#x3e;" d="M62 66q-1 -1 -2 0t-1 3v93q0 4 3 5l265 105v4q-262 104 -265 106q-3 3 -3 6v92q0 3 0.5 3.5t2.5 -0.5q1 0 203 -82t204 -83q4 -1 4 -5v-77q0 -4 -4 -5z" />
<glyph unicode="?" horiz-adv-x="453" d="M274 190h-101q-3 0 -3 4v42q0 48 32 95t63.5 84t31.5 61v42q0 68 -78 68q-65 0 -134 -23q-3 -2 -5 2l-21 82q-1 4 2 6l3 1q3 2 7.5 3.5t11 4t15 5t18 5.5t21.5 5t25 4t28 3t30 1q28 0 50.5 -2.5t49.5 -12t45 -25.5t30.5 -46t12.5 -71v-52q0 -27 -20.5 -60.5t-45 -60.5 t-45 -60t-20.5 -59v-42q0 -4 -3 -4zM275 0h-105q-4 0 -4 4v105q0 4 4 4h105q3 0 3 -4v-105q0 -4 -3 -4z" />
<glyph unicode="@" horiz-adv-x="861" d="M425 139q38 0 57.5 13.5t19.5 52.5v136q0 49 -82 49q-35 0 -53 -21t-18 -74v-59q0 -59 21.5 -78t54.5 -19zM424 -143q-375 0 -375 407q0 101 24.5 177t61.5 118.5t90.5 68.5t101.5 34t105 8q64 0 114.5 -8t102.5 -32.5t86.5 -66t56.5 -112.5t22 -167q0 -128 -44 -175.5 t-120 -47.5q-67 0 -104 35q-42 -36 -123 -36q-36 0 -62 6.5t-51 23.5t-38.5 52.5t-13.5 88.5v70q0 85 37.5 126t102.5 41q39 0 65 -6.5t33 -13.5l6 -6v18q0 3 3 3h84q4 0 4 -3v-252q0 -67 61 -67q17 0 27.5 4t22 17.5t17.5 44.5t6 79q0 93 -21 155t-62.5 94t-91.5 44.5 t-121 12.5q-140 0 -215.5 -73t-75.5 -253q0 -322 284 -322q53 0 107.5 6.5t78.5 12t30 7.5q2 1 4 -2l20 -71q0 -4 -2 -5q-105 -35 -238 -35z" />
<glyph unicode="A" horiz-adv-x="601" d="M129 0h-112q-4 0 -3 4q8 25 114 347.5t106 324.5q1 4 5 4h126q4 0 5 -4l217 -672q2 -4 -3 -4h-113q-3 0 -4 4l-38 128h-256q-38 -125 -39 -128q-1 -4 -5 -4zM201 226h200l-90 301h-20z" />
<glyph unicode="B" horiz-adv-x="588" d="M189 93h121q22 0 38 2.5t33.5 9.5t26.5 22.5t9 39.5v57q0 78 -108 78h-120v-209zM189 390h115q35 0 53 -3q33 56 33 101q0 33 -8 54t-24 30t-30.5 11.5t-38.5 2.5h-100v-196zM320 0h-246v680h233q29 0 51 -2.5t51.5 -12.5t49 -28t33 -53t13.5 -83q0 -60 -45 -144 q35 -20 54 -49t19 -82v-62q0 -45 -12.5 -76.5t-30.5 -48.5t-49.5 -26t-56.5 -11t-64 -2z" />
<glyph unicode="C" horiz-adv-x="547" d="M305 -10q-42 0 -73 4t-67 18.5t-58.5 40.5t-38 73t-15.5 112v210q0 64 15 110t38 71t58.5 39.5t67 18.5t74.5 4q119 0 177 -29q3 -3 2 -6q0 -1 -8.5 -22t-16 -41.5t-7.5 -21.5q-2 -3 -6 -2q-2 1 -20.5 5t-53.5 8t-67 4q-29 0 -48.5 -4t-42 -17.5t-34 -45.5t-11.5 -83 v-188q0 -92 34 -121t101 -29q22 0 45.5 2.5t42 5.5t33 6t23.5 6l9 2q2 2 4 -2q1 -2 16.5 -43t15.5 -42q2 -4 -2 -5q-3 -3 -20 -10.5t-64 -17.5t-103 -10z" />
<glyph unicode="D" horiz-adv-x="605" d="M190 105h113q32 0 52.5 4.5t39.5 19t28 46t9 81.5v171q0 40 -7.5 68.5t-18 44t-29 23.5t-34.5 10t-40 2h-113v-470zM303 0h-229v680h229q28 0 46 -1t46 -6t47 -13.5t41 -26.5t35 -43t22 -64t9 -88v-191q0 -69 -16 -117.5t-38 -73t-59 -38t-64 -16t-69 -2.5z" />
<glyph unicode="E" horiz-adv-x="539" d="M74 0v680h414q4 0 4 -4v-94q0 -4 -4 -4h-298v-183h252q4 0 4 -4v-93q0 -4 -4 -4h-252v-193h298q4 0 4 -4v-93q0 -4 -4 -4h-414z" />
<glyph unicode="F" horiz-adv-x="534" d="M78 0q-4 0 -4 4v676h414q4 0 4 -4v-94q0 -4 -4 -4h-298v-214h252q4 0 4 -4v-94q0 -4 -4 -4h-252v-258q0 -4 -4 -4h-108z" />
<glyph unicode="G" horiz-adv-x="599" d="M301 -10q-41 0 -70.5 3.5t-65.5 18t-58 40t-37.5 73t-15.5 113.5v210q0 48 9 86t22.5 63t35.5 43t42.5 27.5t48.5 15t48 6.5t47 1q54 0 105.5 -7t75 -13.5t26.5 -8.5t2 -6l-27 -83q-1 -3 -5 -3q-3 1 -28.5 5t-69.5 8t-78 4q-29 0 -48 -3.5t-42 -17t-35 -45.5t-12 -83 v-190q0 -50 10 -82t30 -46.5t40 -19t50 -4.5l134 9v168h-98q-4 0 -4 4v89q0 4 4 4h198v-357q-165 -22 -234 -22z" />
<glyph unicode="H" horiz-adv-x="632" d="M78 0q-4 0 -4 4v672q0 4 4 4h108q4 0 4 -4v-284h252v284q0 4 4 4h108q4 0 4 -4v-672q0 -4 -4 -4h-108q-4 0 -4 4v288h-252v-288q0 -4 -4 -4h-108z" />
<glyph unicode="I" horiz-adv-x="264" d="M78 0q-4 0 -4 4v672q0 4 4 4h108q4 0 4 -4v-672q0 -4 -4 -4h-108z" />
<glyph unicode="J" horiz-adv-x="483" d="M199 -10q-94 0 -160 22q-3 1 -1 6l25 86q2 4 5 2q2 -1 20.5 -3t49.5 -4.5t57 -2.5q31 0 50.5 4.5t35.5 25t16 57.5v493q0 4 4 4h108q3 0 3 -4v-501q0 -51 -13.5 -87t-33 -54.5t-51 -29t-55.5 -12.5t-60 -2z" />
<glyph unicode="K" horiz-adv-x="595" d="M78 0q-4 0 -4 4v672q0 4 4 4h108q4 0 4 -4v-283h36q190 279 192 283q3 4 6 4h124q3 0 1 -4l-229 -331q242 -339 244 -341q3 -4 -1 -4h-124q-3 0 -7 4l-201 288h-41v-288q0 -4 -4 -4h-108z" />
<glyph unicode="L" horiz-adv-x="519" d="M74 0v676q0 4 4 4h108q4 0 4 -4v-575h298q4 0 4 -4v-93q0 -4 -4 -4h-414z" />
<glyph unicode="M" horiz-adv-x="760" d="M78 0q-4 0 -4 4v673q0 3 3 3h135q4 0 5 -3l160 -377h12q154 373 155 376q2 4 7 4h132q4 0 4 -4v-672q0 -4 -4 -4h-107q-3 0 -3 4v449h-15q-127 -305 -128 -307q-3 -4 -7 -4h-84q-5 0 -8 5l-128 305h-15v-448q0 -4 -4 -4h-106z" />
<glyph unicode="N" horiz-adv-x="644" d="M76 0q-4 0 -4 4v672q0 4 4 4h127q5 0 6 -4l240 -471h12v471q0 4 4 4h106q4 0 4 -4v-672q0 -4 -4 -4h-129q-4 0 -5 4l-240 473h-12v-473q0 -4 -4 -4h-105z" />
<glyph unicode="O" horiz-adv-x="599" d="M298 94q32 0 52 4.5t39.5 19t28.5 46.5t9 82v190q0 49 -9.5 80.5t-29 45.5t-39 18.5t-51.5 4.5q-31 0 -50.5 -4.5t-39 -18.5t-29 -45.5t-9.5 -80.5v-190q0 -51 9.5 -83t29.5 -46t39 -18.5t50 -4.5zM298 -11q-41 0 -69 3t-64.5 17t-58.5 39t-37.5 73t-15.5 116v210 q0 47 8 84.5t20.5 63t32.5 43.5t39 28t46.5 15.5t48.5 7t50 1.5q33 0 56.5 -2t55 -9t53 -23.5t41.5 -42t30 -68t10 -98.5v-210q0 -50 -8 -89t-20.5 -65t-33.5 -44t-40 -27.5t-47 -15t-48 -6.5t-49 -1z" />
<glyph unicode="P" horiz-adv-x="580" d="M190 353h124q110 0 110 88v49q0 29 -9.5 48t-27.5 27t-33.5 10.5t-38.5 2.5h-125v-225zM186 0h-108q-4 0 -4 4v676h245q33 0 57.5 -2t57.5 -12.5t54 -29t36 -54t15 -84.5v-65q0 -49 -16.5 -84.5t-38.5 -53.5t-55.5 -28.5t-57 -12.5t-52.5 -2h-129v-248q0 -4 -4 -4z" />
<glyph unicode="Q" horiz-adv-x="595" d="M298 -11q-41 0 -69 3t-64.5 17t-58.5 39t-37.5 73t-15.5 116v210q0 47 8 84.5t20.5 63t32.5 43.5t39 28t46.5 15.5t48.5 7t50 1.5q33 0 56.5 -2t55 -9t53 -23.5t41.5 -42t30 -68t10 -98.5v-210q0 -106 -36 -165q24 -26 44 -46q2 -2 0 -5q-2 -2 -30.5 -31t-29.5 -30 q-2 -3 -5 0l-49 50q-48 -21 -140 -21zM302 152q-3 3 0 6q59 59 60 61q2 3 5 0q0 -2 51 -53q9 30 9 80v190q0 49 -9.5 80.5t-29 45.5t-39 18.5t-51.5 4.5q-31 0 -50.5 -4.5t-39 -18.5t-29 -45.5t-9.5 -80.5v-190q0 -51 9.5 -83t29.5 -46t39 -18.5t50 -4.5q34 0 55 5z" />
<glyph unicode="R" horiz-adv-x="602" d="M189 353h125q110 0 110 90v46q0 29 -9.5 48t-27.5 27.5t-34 11t-38 2.5h-126v-225zM185 0h-107q-4 0 -4 4v676h245q32 0 56.5 -2.5t57.5 -13t54 -29.5t36.5 -56t15.5 -88v-52q0 -128 -101 -168l121 -267q1 -4 -2 -4h-120q-5 0 -6 4l-106 247h-136v-247q0 -4 -4 -4z" />
<glyph unicode="S" horiz-adv-x="581" d="M287 -10q-118 0 -223 35q-3 3 -2 6l14 44q13 44 14 45q0 3 4 3q87 -29 196 -29q39 0 62.5 3.5t43 20t19.5 47.5v52q0 35 -32 52.5t-100 23.5q-124 12 -170.5 48t-46.5 120v77q0 153 224 153q59 0 108.5 -7.5t69 -14t22.5 -9.5q4 -2 2 -5l-27 -85q-2 -3 -5 -2 q-2 1 -24 5.5t-64 9.5t-81 5q-49 0 -77.5 -13t-28.5 -51v-50q0 -36 26.5 -52.5t99.5 -23.5q123 -13 172.5 -49t49.5 -121v-78q0 -52 -22 -86t-62 -49t-76.5 -20t-85.5 -5z" />
<glyph unicode="T" horiz-adv-x="530" d="M211 0q-4 0 -4 4v572h-182q-4 0 -4 4v96q0 4 4 4h481q3 0 3 -4v-96q0 -4 -3 -4h-183v-572q0 -4 -4 -4h-108z" />
<glyph unicode="U" horiz-adv-x="620" d="M289 -10q-125 0 -173 61.5t-48 207.5v417q0 4 4 4h108q4 0 4 -4v-408q0 -96 19 -134.5t86 -38.5h43q67 0 85.5 37t18.5 136v408q0 4 4 4h108q4 0 4 -4v-417q0 -70 -8.5 -116t-31.5 -83t-67 -53.5t-113 -16.5h-43z" />
<glyph unicode="V" horiz-adv-x="599" d="M233 0q-3 0 -4 3l-211 673q0 4 3 4h113q4 0 5 -4l151 -506h18q152 503 153 506q1 4 5 4h112q5 0 3 -4l-213 -672q-1 -4 -6 -4h-129z" />
<glyph unicode="W" horiz-adv-x="821" d="M152 0q-4 0 -5 4l-126 672q-1 4 3 4h112q4 0 5 -4l88 -492h18q112 352 113 354q1 4 4 4h92q4 0 5 -4l112 -354h19q87 489 88 492q1 4 5 4h112q5 0 3 -4l-126 -672q-1 -4 -5 -4h-141q-4 0 -5 4l-106 344h-12q-106 -339 -106 -343q-3 -5 -7 -5h-140z" />
<glyph unicode="X" horiz-adv-x="565" d="M23 0q-4 0 -3 4l199 349q-182 320 -183 323q-4 4 3 4h118q4 0 5 -4l117 -211h6q115 208 117 211q3 4 5 4h119q5 0 3 -4l-183 -323q197 -347 198 -349q3 -4 -2 -4h-119q-3 0 -6 4l-132 238h-6q-130 -236 -131 -238q-1 -4 -6 -4h-119z" />
<glyph unicode="Y" horiz-adv-x="544" d="M219 0q-4 0 -4 4v263q-199 406 -200 409q-2 4 3 4h116q2 0 5 -4l132 -279h6q129 276 130 279q3 4 5 4h114q4 0 3 -4l-199 -409v-263q0 -4 -3 -4h-108z" />
<glyph unicode="Z" horiz-adv-x="535" d="M49 0q-3 0 -3 3v98q0 2 3 8l302 458v9h-290q-3 0 -3 4v95q0 5 3 5h421q5 0 5 -5v-95q0 -6 -3 -11l-302 -457v-9h301q4 0 4 -4v-95q0 -4 -4 -4h-434z" />
<glyph unicode="[" horiz-adv-x="294" d="M76 -94v844h176q4 0 4 -4v-79q0 -4 -4 -4h-82v-670h82q4 0 4 -4v-79q0 -4 -4 -4h-176z" />
<glyph unicode="\" horiz-adv-x="417" d="M354 -5h-100q-4 0 -4 4l-186 683q-1 4 3 4h99q4 0 5 -4q0 -2 92.5 -340.5t93.5 -342.5q0 -4 -3 -4z" />
<glyph unicode="]" horiz-adv-x="294" d="M218 -94h-176q-4 0 -4 4v79q0 4 4 4h82v670h-82q-4 0 -4 4v79q0 4 4 4h176v-844z" />
<glyph unicode="^" d="M54 265l166 411q2 4 4 4h82q3 0 5 -4l165 -411q0 -4 -3 -4h-95q-2 0 -5 4l-106 269h-4q-105 -267 -106 -269q-1 -4 -6 -4h-94q-4 0 -3 4z" />
<glyph unicode="_" horiz-adv-x="493" d="M9 -146q-4 0 -4 4v74q0 4 4 4h475q4 0 4 -4v-74q0 -4 -4 -4h-475z" />
<glyph unicode="`" horiz-adv-x="445" d="M224 556l-91 141q-3 4 2 4h97q4 0 5 -4l72 -141q1 -4 -1 -4h-78q-4 0 -6 4z" />
<glyph unicode="a" horiz-adv-x="507" d="M234 75q22 0 36.5 1.5t30.5 6t24 15.5t8 28v77q-68 14 -115 14q-30 0 -49 -14.5t-19 -35.5v-31q0 -26 21 -43.5t63 -17.5zM200 -10q-71 0 -111 35t-40 91v52q0 58 43.5 90.5t103.5 32.5q24 0 58 -3.5t56 -7.5l22 -3v52q0 44 -23.5 58.5t-78.5 14.5q-18 0 -38 -1.5 t-35 -3.5t-27.5 -4t-19.5 -3.5t-8 -1.5q-4 -2 -4 3q-1 3 -5.5 19t-8.5 33t-5 19q-2 3 2 5q75 25 161 25q42 0 69.5 -4t60.5 -19t50 -50.5t17 -90.5v-324q0 -4 -4 -4h-99q-4 0 -4 4v16q-24 -30 -132 -30z" />
<glyph unicode="b" horiz-adv-x="528" d="M283 88q20 0 31.5 3t26 13t21.5 35.5t7 66.5v70q0 39 -6.5 64t-20.5 35.5t-25.5 13.5t-30.5 3q-15 0 -41 -5t-44 -10l-18 -5v-227q0 -57 100 -57zM179 0h-103q-4 0 -4 4v672q0 4 4 4h103q4 0 4 -4v-208q83 19 121 19q29 0 48.5 -2.5t46 -13.5t43 -31.5t28 -60t11.5 -95.5 v-85q0 -48 -7 -84t-20.5 -57.5t-28 -35.5t-37 -20t-39 -7.5t-40.5 -1.5q-99 0 -126 32v-22q0 -3 -4 -3z" />
<glyph unicode="c" horiz-adv-x="469" d="M260 -8q-37 0 -62 2.5t-55 14t-48 31.5t-30 58t-12 91v109q0 52 13.5 89t33 57t50 31t54.5 13.5t57 2.5q83 0 146 -21q4 -3 3 -6l-22 -73q-2 -3 -5 -3q-24 8 -118 8q-19 0 -34.5 -3.5t-32 -13.5t-25.5 -33t-9 -57v-93q0 -36 8 -59.5t24.5 -33.5t31 -13t36.5 -3 q90 0 123 11q3 0 5 -3q0 -1 11.5 -37.5t11.5 -37.5q2 -3 -2 -5q-69 -23 -153 -23z" />
<glyph unicode="d" horiz-adv-x="528" d="M452 0h-103q-4 0 -4 3v22q-12 -14 -46 -24t-80 -10q-24 0 -40.5 1.5t-38.5 8t-37 20t-28.5 35.5t-20.5 58t-7 84v87q0 55 11.5 94.5t28 60t43 31.5t46 13.5t48.5 2.5q17 0 47 -4.5t52 -9.5l22 -5v208q0 4 4 4h103q4 0 4 -4v-672q0 -4 -4 -4zM245 86q100 0 100 59v227 q-69 20 -102 20q-19 0 -31 -3t-25.5 -13.5t-20.5 -35t-7 -63.5v-73q0 -40 7 -65.5t21.5 -36t26.5 -13.5t31 -3z" />
<glyph unicode="e" horiz-adv-x="503" d="M156 277h184q0 69 -23 93.5t-66 24.5q-46 0 -70.5 -23.5t-24.5 -94.5zM263 -9q-32 0 -57.5 3t-57.5 15.5t-53 34t-36 62t-15 95.5v84q0 205 207 205q30 0 52.5 -2.5t52 -14.5t48.5 -33.5t32.5 -62.5t13.5 -97v-77h-294q0 -73 28 -96t80 -23q22 0 45 1.5t41 3.5t32.5 4 t23.5 3l9 2q3 1 5 -3l18 -72q2 -5 -2 -6q-78 -26 -173 -26z" />
<glyph unicode="f" horiz-adv-x="334" d="M94 0q-3 0 -3 4v393h-48q-3 0 -3 4v77q0 4 3 4h48v42q0 44 10 75.5t23.5 48t36 25t38.5 10.5t40 2q14 0 32.5 -2t31 -3.5t13.5 -2.5q3 -1 3 -5q0 -1 -2.5 -19t-5.5 -37.5t-3 -22.5q-1 -3 -5 -3q-1 0 -10.5 1t-22.5 1.5t-22 0.5q-47 0 -47 -68v-43h92q4 0 4 -4v-77 q0 -4 -4 -4h-92v-393q0 -4 -3 -4h-104z" />
<glyph unicode="g" horiz-adv-x="522" d="M236 88q15 0 40.5 5t43.5 9l19 5v229q0 56 -100 56q-20 0 -32.5 -3t-26 -14t-20.5 -36t-7 -65v-70q0 -72 21 -94t62 -22zM238 -203q-102 0 -171 23q-4 2 -2 5q0 1 12 38t13 39q1 4 4 3q56 -14 140 -14q25 0 40.5 2.5t32 10.5t24.5 26t8 46v38q-80 -18 -121 -18 q-40 0 -65.5 5.5t-54 23.5t-43 61t-14.5 110v84q0 68 13.5 112t40.5 63.5t53 25.5t65 6q98 0 126 -31v22q0 4 4 4h103q4 0 4 -4v-502q0 -50 -13.5 -84.5t-32 -53t-50.5 -28t-55.5 -11.5t-60.5 -2z" />
<glyph unicode="h" horiz-adv-x="539" d="M76 0q-4 0 -4 4v672q0 4 4 4h103q4 0 4 -4v-215q82 26 124 26q35 0 58.5 -4.5t51.5 -20.5t42.5 -55t14.5 -99v-304q0 -4 -4 -4h-103q-4 0 -4 4v298q0 57 -18 74t-56 17q-16 0 -42.5 -6.5t-44.5 -12.5l-19 -6v-364q0 -4 -4 -4h-103z" />
<glyph unicode="i" horiz-adv-x="255" d="M76 0q-4 0 -4 4v474q0 4 4 4h103q4 0 4 -4v-474q0 -4 -4 -4h-103zM74 578q-4 0 -4 4v94q0 4 4 4h107q3 0 3 -4v-94q0 -4 -3 -4h-107z" />
<glyph unicode="j" horiz-adv-x="265" d="M45 -186q-10 0 -21 1t-20 2t-17 2t-13 2l-5 1q-4 1 -3 5q0 2 5.5 41t6.5 40q1 3 4 3q1 0 10 -0.5t22 -1.5t22 -1q46 0 46 70v500q0 4 4 4h103q4 0 4 -4v-500q0 -45 -10 -77.5t-24 -49t-36.5 -25.5t-38.5 -10.5t-39 -1.5zM84 578q-3 0 -3 4v94q0 4 3 4h107q4 0 4 -4v-94 q0 -4 -4 -4h-107z" />
<glyph unicode="k" horiz-adv-x="513" d="M76 0q-4 0 -4 4v672q0 4 4 4h103q4 0 4 -4v-378h37q117 177 119 180q3 4 6 4h118q6 0 2 -4l-153 -226q174 -246 176 -248q2 -4 -1 -4h-122q-3 0 -6 4l-140 201h-36v-201q0 -4 -4 -4h-103z" />
<glyph unicode="l" horiz-adv-x="297" d="M216 -6q-39 0 -61.5 4.5t-44 20t-30.5 49.5t-9 91v517q0 4 4 4h102q4 0 4 -4v-518q0 -42 12 -56t34 -14q7 0 18.5 1t20.5 1.5t10 0.5q4 0 4 -3q0 -1 6 -40.5t7 -40.5q0 -3 -3 -5q-24 -8 -74 -8z" />
<glyph unicode="m" horiz-adv-x="825" d="M76 0q-4 0 -4 4v474q0 4 4 4h103q4 0 4 -4v-17q81 26 123 26q52 0 80 -9.5t49 -34.5q88 44 157 44q29 0 49 -2.5t44 -13t38.5 -29t24.5 -52.5t10 -82v-304q0 -4 -4 -4h-103q-3 0 -3 4v298q0 58 -18 74.5t-56 16.5q-16 0 -43 -7.5t-46 -15.5l-19 -7q5 -18 5 -55v-304 q0 -4 -4 -4h-103q-4 0 -4 4v298q0 41 -10.5 62t-24 25t-37.5 4q-16 0 -42.5 -6.5t-44.5 -12.5l-18 -6v-364q0 -4 -4 -4h-103z" />
<glyph unicode="n" horiz-adv-x="539" d="M76 0q-4 0 -4 4v474q0 4 4 4h103q4 0 4 -4v-17q83 26 124 26q28 0 46.5 -2t43.5 -12t39.5 -28t25.5 -53t11 -84v-304q0 -4 -4 -4h-102q-4 0 -4 4v298q0 57 -17.5 74t-55.5 17q-16 0 -43 -6.5t-45 -12.5l-19 -6v-364q0 -4 -4 -4h-103z" />
<glyph unicode="o" horiz-adv-x="509" d="M252 87q23 0 37 3t29 14t22 36t7 65v75q0 73 -23 94.5t-70 21.5t-72 -22t-25 -94v-75q0 -75 23.5 -96.5t71.5 -21.5zM252 -8q-37 0 -62.5 3t-55 15t-47 33.5t-29.5 61t-12 94.5v88q0 45 7.5 79.5t23 56.5t33.5 36t44 20.5t48 9t52 2.5q36 0 60 -2.5t54 -14t48 -32 t30.5 -60t12.5 -94.5v-89q0 -56 -12 -96t-30 -61t-48 -33t-55 -14.5t-62 -2.5z" />
<glyph unicode="p" horiz-adv-x="528" d="M76 482h103q4 0 4 -4v-22q26 31 126 31q30 0 49 -2t45 -13.5t41 -32.5t26 -61.5t11 -97.5v-84q0 -56 -11.5 -95.5t-28 -60t-43 -32t-46 -14t-48.5 -2.5q-17 0 -47 4.5t-52 9.5l-22 4v-204q0 -4 -4 -4h-103q-4 0 -4 4v672q0 4 4 4zM283 392q-100 0 -100 -55v-232 q69 -18 102 -18q19 0 31 3.5t25.5 14t20.5 35.5t7 64v70q0 40 -7 65.5t-21.5 36t-26.5 13.5t-31 3z" />
<glyph unicode="q" horiz-adv-x="528" d="M245 392q-19 0 -31 -3t-26.5 -13.5t-21.5 -36t-7 -65.5v-72q0 -39 7 -63.5t20.5 -35t25.5 -13.5t31 -3q15 0 40.5 4.5t43.5 8.5l18 5v232q0 55 -100 55zM349 482h103q4 0 4 -4v-672q0 -4 -4 -4h-103q-4 0 -4 4v204q-83 -18 -121 -18q-37 0 -61.5 5t-54 23t-45 62 t-15.5 112v86q0 57 11 97.5t26 61.5t41 32.5t45 13.5t48 2q100 0 126 -31v22q0 4 4 4z" />
<glyph unicode="r" horiz-adv-x="407" d="M76 0q-4 0 -4 4v474q0 4 4 4h103q4 0 4 -4v-20q60 29 101 29q26 0 49.5 -4t33.5 -7.5t13 -5.5q4 -1 2 -5q0 -1 -12 -38t-12 -38q-1 -4 -5 -3q-24 8 -79 8q-16 0 -39 -8t-37 -16l-15 -7v-359q0 -4 -4 -4h-103z" />
<glyph unicode="s" horiz-adv-x="483" d="M244 -8q-119 0 -185 22q-4 1 -2 5q0 2 10 38t11 38q1 3 5 3q4 -1 24.5 -5t60.5 -8t75 -4q43 0 64.5 9t21.5 36v25q0 20 -21 31.5t-81 18.5q-80 10 -122 37.5t-42 82.5v49q0 120 179 120q99 0 165 -22q1 0 1 -4q0 -1 -9.5 -36.5t-10.5 -36.5q0 -2 -3 -2l-9 1q-8 2 -22.5 4 t-31.5 4t-39 3.5t-41 1.5q-74 0 -74 -41v-26q0 -19 22.5 -29.5t77.5 -16.5q82 -9 124 -37.5t42 -82.5v-49q0 -34 -11 -58.5t-27.5 -38t-43.5 -21t-51 -9.5t-57 -2z" />
<glyph unicode="t" horiz-adv-x="331" d="M230 -5q-39 0 -60 3.5t-43.5 18.5t-32 50t-9.5 92v238h-49q-4 0 -4 4v77q0 4 4 4h49v154q0 4 3 4h103q4 0 4 -4v-154h90q4 0 4 -4v-77q0 -4 -4 -4h-90v-238q0 -31 8 -47.5t16.5 -19.5t21.5 -3q9 0 20.5 0.5t19.5 1.5t9 1q3 0 4 -4q0 -1 6 -40.5t7 -40.5q1 -3 -3 -5 q-28 -7 -74 -7z" />
<glyph unicode="u" horiz-adv-x="538" d="M463 482q4 0 4 -4v-474q0 -4 -4 -4h-102q-4 0 -4 4v13q-83 -25 -124 -25q-27 0 -46 2t-44 12t-40 28t-26 53t-11 84v307q0 4 4 4h103q4 0 4 -4v-300q0 -57 18 -74t55 -17q16 0 43 5.5t45 11.5l19 6v368q0 4 4 4h102z" />
<glyph unicode="v" horiz-adv-x="488" d="M194 0q-3 0 -4 4q-1 3 -83.5 236t-84.5 238q-1 4 2 4h109q6 0 6 -4l101 -316h12q97 314 98 316q1 4 5 4h109q3 0 2 -4q-1 -2 -82.5 -234t-84.5 -240q-1 -4 -4 -4h-101z" />
<glyph unicode="w" horiz-adv-x="710" d="M157 0q-3 0 -4 4l-118 474q0 4 3 4h105q5 0 5 -4l72 -314h9q84 218 85 221q1 4 4 4h76q3 0 4 -4l87 -221h9q66 311 67 314q2 4 6 4h105q3 0 2 -4q-116 -464 -116 -474q-1 -4 -5 -4h-98q-3 0 -4 4l-91 245h-9q-92 -243 -93 -245q-1 -4 -4 -4h-97z" />
<glyph unicode="x" horiz-adv-x="487" d="M27 0q-4 0 -2 4l157 247q-142 224 -144 227q-4 4 1 4h115q3 0 6 -4l79 -134h10q80 131 81 134q4 4 5 4h113q5 0 1 -4l-144 -227q156 -245 158 -247q1 -4 -2 -4h-113q-3 0 -6 4l-93 153h-11q-91 -150 -93 -153q-3 -4 -6 -4h-112z" />
<glyph unicode="y" horiz-adv-x="487" d="M69 -180q-3 0 -3 4q0 2 5 44l5 41q0 4 4 4h26q14 0 24 3.5t23.5 19t23.5 44.5l13 39q-166 456 -167 459q-2 4 2 4h108q5 0 5 -4l104 -308h10q99 305 99 308q2 4 5 4h107q3 0 2 -4q-1 -2 -46 -125t-93 -255t-55 -149q-17 -46 -33.5 -73.5t-37.5 -39t-37 -14t-48 -2.5h-46z " />
<glyph unicode="z" horiz-adv-x="468" d="M56 0q-4 0 -4 4v82q0 3 5 8l225 288v7h-217q-3 0 -3 4v85q0 4 3 4h349q4 0 4 -4v-84q0 -2 -3 -7l-226 -287v-8h227q4 0 4 -4v-84q0 -4 -4 -4h-360z" />
<glyph unicode="{" horiz-adv-x="338" d="M237 -91q-55 0 -82 28.5t-27 94.5v163q0 44 -14 67t-52 23q-3 0 -3 4v81q0 4 3 4q38 0 52 22.5t14 67.5v162q0 66 27 95t82 29h58q4 0 4 -4v-78q0 -4 -4 -4h-31q-41 0 -41 -46v-165q0 -61 -14.5 -84.5t-45.5 -37.5v-4q32 -14 46 -37.5t14 -83.5v-166q0 -46 42 -46h30 q4 0 4 -4v-77q0 -4 -4 -4h-58z" />
<glyph unicode="|" horiz-adv-x="291" d="M103 -94q-4 0 -4 4v836q0 4 4 4h85q4 0 4 -4v-836q0 -4 -4 -4h-85z" />
<glyph unicode="}" horiz-adv-x="338" d="M101 -91h-58q-4 0 -4 4v77q0 4 4 4h30q42 0 42 46v166q0 60 14 83.5t45 37.5v4q-31 14 -45 38t-14 84v165q0 46 -41 46h-31q-4 0 -4 4v78q0 4 4 4h58q55 0 82 -29t27 -95v-162q0 -45 14 -67.5t52 -22.5q4 0 4 -4v-81q0 -4 -4 -4q-38 0 -52 -23t-14 -67v-163 q0 -66 -27 -94.5t-82 -28.5z" />
<glyph unicode="~" d="M72 283q0 9 6 15q9 11 38.5 28t62.5 17q35 0 91 -29t85 -29t63 23l34 23q4 0 4 -6v-55q0 -10 -6 -16q-5 -6 -16 -15t-36 -20.5t-50 -11.5q-34 0 -89 30t-84 30q-21 0 -43.5 -11t-37.5 -22.5t-18 -11.5q-4 0 -4 6v55z" />
<glyph unicode="&#xa1;" horiz-adv-x="279" d="M92 680h105q3 0 3 -4v-104q0 -4 -3 -4h-105q-4 0 -4 4v104q0 4 4 4zM98 484h92q4 0 4 -4v-476q0 -4 -4 -4h-92q-4 0 -4 4v476q0 4 4 4z" />
<glyph unicode="&#xa2;" horiz-adv-x="515" d="M246 -100q-3 0 -3 4v92q-25 2 -42.5 5t-43 14.5t-41.5 31t-28 56.5t-12 88v103q0 49 12 85t28.5 55t42 31t43 15.5t41.5 5.5v90q0 4 3 4h63q4 0 4 -4v-89q33 -2 62 -7t41 -9t15 -6q4 -2 2 -5l-25 -74q-1 -2 -5 -2l-6 1q-6 1 -16.5 2t-23.5 2t-32 2t-38 1q-46 0 -73 -21.5 t-27 -85.5v-86q0 -67 26.5 -88.5t73.5 -21.5q30 0 60 3t44.5 6t16.5 4q5 0 5 -3l26 -75q1 -4 -3 -6l-6 -2q-5 -2 -15.5 -5t-24 -6.5t-34.5 -6t-43 -3.5v-91q0 -4 -4 -4h-63z" />
<glyph unicode="&#xa3;" d="M104 0q-3 0 -3 3v271h-35q-3 0 -3 4v73q0 4 3 4h35v173q0 43 15 74t35.5 46.5t51.5 24.5t52 10.5t48 1.5q104 0 166 -31q3 -2 2 -6q-1 -3 -11 -43t-10 -42q-1 -2 -5 -2q-63 21 -140 21q-42 0 -65 -13.5t-23 -55.5v-158h154q4 0 4 -4v-73q0 -4 -4 -4h-154v-171h247 q4 0 4 -4v-95q0 -4 -4 -4h-360z" />
<glyph unicode="&#xa4;" horiz-adv-x="460" d="M230 215q35 0 54.5 14t19.5 56v37q0 41 -19 54t-53 13q-35 0 -55.5 -14t-20.5 -53v-37q0 -42 19 -56t55 -14zM154 80h-73q-4 0 -4 4q4 57 36 89q-37 32 -37 101v60q0 64 38 97q-34 33 -37 90q0 4 4 4h72q3 0 4 -4q9 -51 75 -51q33 0 49.5 11t20.5 40q0 4 5 4h73q3 0 3 -4 q-2 -54 -35 -89q36 -30 36 -98v-60q0 -73 -37 -102q35 -35 36 -88q0 -4 -3 -4h-73q-4 0 -4 4q-5 29 -23 39.5t-51 10.5q-21 0 -33.5 -2.5t-24 -14t-13.5 -33.5q0 -4 -4 -4z" />
<glyph unicode="&#xa5;" horiz-adv-x="549" d="M221 0q-4 0 -4 4v136h-123q-4 0 -4 4v63q0 4 4 4h123v51h-123q-4 0 -4 4v63q0 4 4 4h90q-165 341 -166 343q-2 4 3 4h115q3 0 5 -4l133 -280h4q130 277 132 280q2 4 4 4h115q4 0 2 -4l-166 -343h87q4 0 4 -4v-63q0 -4 -4 -4h-119v-51h119q4 0 4 -4v-63q0 -4 -4 -4h-120 v-136q0 -4 -3 -4h-108z" />
<glyph unicode="&#xa6;" horiz-adv-x="291" d="M102 -94q-3 0 -3 4v357q0 4 3 4h85q4 0 4 -4v-357q0 -4 -4 -4h-85zM102 389q-3 0 -3 4v353q0 4 3 4h85q4 0 4 -4v-353q0 -4 -4 -4h-85z" />
<glyph unicode="&#xa7;" horiz-adv-x="514" d="M67 20q-3 2 -2 6l25 73q1 3 5 3q2 -1 23 -5.5t60.5 -9t74.5 -4.5q45 0 65 9.5t20 35.5v22q0 23 -22.5 33.5t-78.5 17.5q-26 3 -44.5 6.5t-43 12.5t-40 20.5t-26.5 32t-11 47.5v47q0 52 32 77q-32 24 -32 73v48q0 67 48 93.5t131 26.5q92 0 164 -24q2 -1 2 -4 q-22 -66 -22 -72q0 -3 -4 -3q-2 1 -21 4.5t-53.5 7.5t-65.5 4q-74 0 -74 -41v-24q0 -21 24.5 -30.5t75.5 -15.5q35 -4 61.5 -10.5t52 -19.5t39 -35.5t13.5 -53.5v-49q0 -51 -29 -78q29 -23 29 -70v-48q0 -35 -11.5 -59.5t-28 -38t-44 -20.5t-50.5 -9t-56 -2q-108 0 -186 26z M322 279q24 10 24 46v22q0 5 -2 9.5t-7 8t-10.5 6t-16 6t-19.5 6t-25 7.5t-30 9l-28 5q-6 -1 -13.5 -5t-15 -14.5t-7.5 -25.5v-23q0 -36 104 -48q14 -2 29.5 -5.5t16.5 -3.5z" />
<glyph unicode="&#xa8;" horiz-adv-x="445" d="M85 577q-4 0 -4 4v95q0 4 4 4h84q4 0 4 -4v-95q0 -4 -4 -4h-84zM277 577q-4 0 -4 4v95q0 4 4 4h83q4 0 4 -4v-95q0 -4 -4 -4h-83z" />
<glyph unicode="&#xa9;" horiz-adv-x="780" d="M390 685q136 0 232 -101t96 -245q0 -143 -96 -244t-232 -101t-232.5 101t-96.5 244q0 144 96 245t233 101zM390 54q112 0 190.5 83.5t78.5 201.5q0 119 -78.5 202.5t-190.5 83.5t-191.5 -83.5t-79.5 -202.5q0 -118 79.5 -201.5t191.5 -83.5zM399 149q-34 0 -59.5 5.5 t-50 21t-37.5 47.5t-13 80v78q0 150 160 150q78 0 112 -17q2 -1 2 -4q-1 -1 -9.5 -28.5t-8.5 -28.5q-2 -2 -4 -1h-5q-5 1 -13 2.5t-18.5 2.5t-24.5 1.5t-28 0.5q-21 0 -36.5 -4.5t-29 -24.5t-13.5 -55v-68q0 -29 6.5 -47.5t19.5 -26t24 -9.5t29 -2q15 0 29.5 1t25.5 2 t19.5 2.5t13.5 2.5l5 1q4 0 4 -2t8.5 -29t9.5 -28q0 -4 -2 -4q-38 -19 -116 -19z" />
<glyph unicode="&#xaa;" horiz-adv-x="297" d="M137 430q65 0 65 38v47q-47 8 -76 8q-20 0 -32 -9.5t-12 -23.5v-20q0 -17 13 -28.5t42 -11.5zM121 385q-44 0 -67.5 21t-23.5 55v30q0 34 25 53.5t61 19.5l85 -9v30q0 30 -15 39.5t-49 9.5q-11 0 -22.5 -1t-20.5 -2.5t-16 -3t-12 -2.5l-4 -1q-2 -1 -3 2q-3 17 -11 36 q0 2 1 3q32 16 94 16q24 0 40 -2.5t35 -11t28.5 -29.5t9.5 -53v-193q0 -2 -3 -2h-50q-2 0 -2 2v15q-16 -22 -80 -22z" />
<glyph unicode="&#xab;" horiz-adv-x="567" d="M478 487l6 -7q7 -6 15 -13.5t16 -16t14 -14t6 -6.5q2 -2 0 -6l-152 -160q151 -158 152 -160q3 -2 0 -5l-57 -58q-3 -3 -4 0l-212 220q-3 3 0 6l212 220q3 3 4 0zM252 487l57 -57q2 -2 0 -6l-152 -160q150 -158 152 -160q3 -2 0 -5l-57 -58q-3 -3 -4 0l-212 220q-3 3 0 6 l212 220q2 2 4 0z" />
<glyph unicode="&#xac;" d="M377 230h-315q-3 0 -3 4v85q0 4 3 4h407q4 0 4 -4v-217q0 -4 -4 -4h-88q-4 0 -4 4v128z" />
<glyph unicode="&#xad;" horiz-adv-x="378" d="M50 228q-4 0 -4 4v86q0 4 4 4h278q4 0 4 -4v-86q0 -4 -4 -4h-278z" />
<glyph unicode="&#xae;" horiz-adv-x="435" d="M188 498h34q29 0 29 26v14q0 26 -30 26h-33v-66zM187 386h-38q-1 0 -1 1v213h75q69 0 69 -61v-16q0 -41 -30 -53l35 -83q0 -1 -1 -1h-42q-1 0 -1 1l-30 75h-35v-75zM217 335q62 0 105 45.5t43 110.5t-43 111t-105 46q-61 0 -104.5 -46t-43.5 -111t43.5 -110.5 t104.5 -45.5zM217 684q77 0 130.5 -56.5t53.5 -136.5t-53.5 -136.5t-130.5 -56.5q-76 0 -129.5 56.5t-53.5 136.5t53.5 136.5t129.5 56.5z" />
<glyph unicode="&#xaf;" horiz-adv-x="445" d="M358 590h-271q-4 0 -4 4v76q0 4 4 4h271q4 0 4 -4v-76q0 -4 -4 -4z" />
<glyph unicode="&#xb0;" horiz-adv-x="415" d="M203 478q26 0 39.5 9.5t13.5 39.5v42q0 28 -12.5 38t-37.5 10q-26 0 -40.5 -10t-14.5 -38v-42q0 -30 13.5 -39.5t38.5 -9.5zM203 405q-54 0 -88 23t-34 89v63q0 109 126 109q24 0 42 -3.5t37.5 -14t30 -33.5t10.5 -58v-63q0 -67 -34.5 -89.5t-89.5 -22.5z" />
<glyph unicode="&#xb1;" d="M223 158q-3 0 -3 4v155h-158q-4 0 -4 4v86q0 4 4 4h158v154q0 4 3 4h85q4 0 4 -4v-154h157q4 0 4 -4v-86q0 -4 -4 -4h-157v-155q0 -4 -4 -4h-85zM62 0q-4 0 -4 4v83q0 4 4 4h407q4 0 4 -4v-83q0 -4 -4 -4h-407z" />
<glyph unicode="&#xb2;" horiz-adv-x="306" d="M263 270h-223l-2 1v51q0 2 2 4q113 127 136 161q28 40 28 61v34q0 20 -11 30.5t-23 12.5t-30 2t-40 -3.5t-34.5 -6.5t-13.5 -4q-3 0 -3 2q0 1 -5 22l-6 21q0 2 1 3q40 20 101 20q123 0 123 -93v-44q0 -24 -22 -61t-45.5 -65.5t-75.5 -88.5v-6h143q2 0 2 -2v-49 q0 -2 -2 -2z" />
<glyph unicode="&#xb3;" horiz-adv-x="310" d="M43 284q-1 1 -1 3q0 1 5 23l5 21q0 1 3 1l6 -1q6 -1 15.5 -3t21 -4t25.5 -3t26 -1q66 0 66 45v33q0 54 -58 54h-43q-3 0 -3 2v47q0 2 3 2h44q19 0 34 12.5t15 34.5v33q0 45 -63 45q-19 0 -41 -3t-34.5 -6t-13.5 -4q-3 -1 -3 1q0 1 -5 22l-5 22q0 2 1 3t12 5t36 8.5 t52 4.5q121 0 121 -91v-40q0 -19 -7.5 -36t-14.5 -24l-8 -7v-4q4 -2 10.5 -7t17 -25t10.5 -46v-43q0 -30 -11.5 -49.5t-32 -28t-38 -11t-41.5 -2.5q-29 0 -55.5 4.5t-38.5 8.5z" />
<glyph unicode="&#xb4;" horiz-adv-x="445" d="M221 556q-2 -4 -6 -4h-77q-3 0 -2 4l71 141q3 4 7 4h96q6 0 2 -4z" />
<glyph unicode="&#xb6;" horiz-adv-x="607" d="M265 -181q-4 0 -4 4v419q-27 0 -52.5 4t-55.5 16t-52 31t-36.5 52.5t-14.5 77.5v79q0 42 14.5 75t36.5 51.5t52 30.5t56 16t53 4h277q4 0 4 -4v-852q0 -4 -4 -4h-94q-3 0 -3 4v763h-79v-763q0 -4 -4 -4h-94z" />
<glyph unicode="&#xb7;" horiz-adv-x="241" d="M71 208q-4 0 -4 4v108q0 4 4 4h100q4 0 4 -4v-108q0 -4 -4 -4h-100z" />
<glyph unicode="&#xb8;" horiz-adv-x="445" d="M241 -156h-97q-4 0 -2 4l72 158q3 4 6 4h78q3 0 2 -4l-53 -158q-1 -4 -6 -4z" />
<glyph unicode="&#xb9;" horiz-adv-x="298" d="M196 270h-51q-3 0 -3 2v340q-71 -54 -72 -55q-2 0 -3 1l-7 24l-6 24q0 1 3 4l83 67q1 1 5 1h51q2 0 2 -2v-404q0 -2 -2 -2z" />
<glyph unicode="&#xba;" horiz-adv-x="296" d="M146 436q32 0 48 14.5t16 63.5v42q0 47 -15 61.5t-47 14.5t-48.5 -14.5t-16.5 -61.5v-42q0 -49 15.5 -63.5t47.5 -14.5zM146 387q-28 0 -46 3.5t-36.5 15t-28 38t-9.5 67.5v49q0 40 9.5 65.5t29 37t38 15.5t45.5 4q26 0 43.5 -3t36.5 -14t29 -37t10 -67v-50 q0 -42 -9.5 -68.5t-29 -37.5t-37 -14.5t-45.5 -3.5z" />
<glyph unicode="&#xbb;" horiz-adv-x="562" d="M310 41l-57 57q-2 4 0 6l153 160q-151 158 -153 160q-3 2 0 5l57 58q3 2 5 0t106.5 -110.5t105.5 -109.5q3 -3 0 -6l-212 -220q-3 -3 -5 0zM89 41q-55 55 -56 57q-3 3 0 6l152 160q-151 158 -152 160q-3 2 0 5l56 58q3 2 5 0t106.5 -110.5t105.5 -109.5q3 -3 0 -6 l-212 -220q-2 -3 -5 0z" />
<glyph unicode="&#xbc;" horiz-adv-x="770" d="M196 -6q-4 0 -2 4q24 60 151.5 344t149.5 339q1 4 5 4h59q5 0 2 -4l-300 -683q-1 -4 -6 -4h-59zM637 0h-48q-3 0 -3 2v70h-154q-2 0 -2 2v51q0 3 2 5l28 68q27 69 55 138t28 70q2 2 3 2h55q1 0 1 -2l-108 -275v-5h92v78q0 2 2 2h49q3 0 3 -2v-78h41q3 0 3 -3v-48 q0 -3 -3 -3h-41v-70q0 -2 -3 -2zM227 272h-51q-2 0 -2 2v340q-72 -54 -73 -55q-2 -2 -2 1l-7 24l-7 24q0 1 3 4l84 67q1 1 4 1h51q3 0 3 -2v-404q0 -2 -3 -2z" />
<glyph unicode="&#xbd;" horiz-adv-x="804" d="M199 -6q-5 0 -3 4q25 63 152.5 347t148.5 336q1 4 5 4h59q3 0 2 -4q-2 -3 -151 -342.5t-149 -340.5q-1 -4 -5 -4h-59zM717 0h-223l-2 1v51q0 3 1 4q114 128 139 164q26 38 26 58v34q0 45 -64 45q-18 0 -40 -3.5t-34.5 -6.5t-14.5 -4q-2 0 -2 2q0 1 -5 22l-6 21q0 2 1 3 q40 20 101 20q123 0 123 -93v-44q0 -36 -53 -123t-71 -92l-19 -6h143q2 0 2 -2v-49q0 -2 -2 -2zM227 272h-51q-2 0 -2 2v340q-72 -54 -73 -55q-2 -2 -2 1l-7 24l-7 24q0 1 3 4l84 67q1 1 4 1h51q3 0 3 -2v-404q0 -2 -3 -2z" />
<glyph unicode="&#xbe;" horiz-adv-x="837" d="M262 -6q-4 0 -2 4q22 57 149.5 340.5t150.5 342.5q3 4 6 4h59q4 0 1 -4q-2 -3 -150.5 -342.5t-148.5 -340.5q-3 -4 -6 -4h-59zM87 288q-1 1 -1 3q1 1 5.5 22t4.5 22t3 1l6 -1q6 -1 16 -3t21.5 -4t25 -3t25.5 -1q66 0 66 45v33q0 54 -57 54h-44q-3 0 -3 2v47q0 2 3 2h44 q19 0 34 12.5t15 34.5v33q0 45 -63 45q-18 0 -40 -3t-34.5 -6t-14.5 -4q-1 -1 -2 -0.5t-1 1.5t-5 22l-5 22q0 2 1 3t12 5t36.5 8.5t52.5 4.5q120 0 120 -91v-40q0 -19 -7.5 -36t-14.5 -24l-8 -7v-4q4 -2 10.5 -7t17 -25t10.5 -46v-43q0 -30 -11 -49.5t-31.5 -28t-38.5 -11 t-42 -2.5q-28 0 -54.5 4.5t-38.5 8.5zM704 0h-48q-3 0 -3 2v70h-154q-2 0 -2 2v51q0 3 2 5l27 68l56 138t28 70q2 2 3 2h55q1 0 1 -2l-108 -275v-5h92v78q0 2 2 2h49q3 0 3 -2v-78h41q3 0 3 -3v-48q0 -3 -3 -3h-41v-70q0 -2 -3 -2z" />
<glyph unicode="&#xbf;" horiz-adv-x="443" d="M182 490h101q3 0 3 -4v-42q0 -48 -32 -95t-63.5 -84t-31.5 -61v-42q0 -68 78 -68q65 0 134 23q3 2 5 -2l21 -82q1 -4 -2 -6l-3 -1q-3 -2 -7.5 -3.5t-11 -4t-15 -5t-18 -5.5t-21.5 -5t-25 -4t-28 -3t-30 -1q-28 0 -50.5 2.5t-49.5 12t-45 25.5t-30.5 46t-12.5 71v52 q0 27 20.5 60.5t45 60.5t45 60t20.5 59v42q0 4 3 4zM181 680h105q4 0 4 -4v-105q0 -4 -4 -4h-105q-3 0 -3 4v105q0 4 3 4z" />
<glyph unicode="&#xc0;" horiz-adv-x="591" d="M129 0h-112q-4 0 -3 4q8 25 114 347.5t106 324.5q1 4 5 4h126q4 0 5 -4l217 -672q2 -4 -3 -4h-113q-3 0 -4 4l-38 128h-256q-38 -125 -39 -128q-1 -4 -5 -4zM201 226h200l-90 301h-20zM303 756l-91 141q-3 4 2 4h97q4 0 5 -4l72 -141q1 -4 -1 -4h-78q-4 0 -6 4z" />
<glyph unicode="&#xc1;" horiz-adv-x="591" d="M129 0h-112q-4 0 -3 4q8 25 114 347.5t106 324.5q1 4 5 4h126q4 0 5 -4l217 -672q2 -4 -3 -4h-113q-3 0 -4 4l-38 128h-256q-38 -125 -39 -128q-1 -4 -5 -4zM201 226h200l-90 301h-20zM297 756q-2 -4 -6 -4h-77q-3 0 -2 4l71 141q3 4 7 4h96q6 0 2 -4z" />
<glyph unicode="&#xc2;" horiz-adv-x="591" d="M129 0h-112q-4 0 -3 4q8 25 114 347.5t106 324.5q1 4 5 4h126q4 0 5 -4l217 -672q2 -4 -3 -4h-113q-3 0 -4 4l-38 128h-256q-38 -125 -39 -128q-1 -4 -5 -4zM201 226h200l-90 301h-20zM239 751h-78q-4 0 -2 4q8 14 45.5 72.5t43.5 69.5q2 3 7 3h91q5 0 8 -4 q0 -2 43.5 -71t44.5 -70q4 -4 -1 -4h-78q-4 0 -6 4l-55 77h-4q-51 -74 -53 -77q-4 -4 -6 -4z" />
<glyph unicode="&#xc3;" horiz-adv-x="591" d="M129 0h-112q-4 0 -3 4q8 25 114 347.5t106 324.5q1 4 5 4h126q4 0 5 -4l217 -672q2 -4 -3 -4h-113q-3 0 -4 4l-38 128h-256q-38 -125 -39 -128q-1 -4 -5 -4zM201 226h200l-90 301h-20zM168 777q-3 0 -3 5v56q0 10 5 15q29 35 72 35q26 0 64 -19t59 -19q23 0 44 17.5 t23 17.5q4 0 4 -5v-55q0 -10 -5 -16q-32 -37 -73 -37q-27 0 -64 20t-56 20q-23 0 -46 -17.5t-24 -17.5z" />
<glyph unicode="&#xc4;" horiz-adv-x="591" d="M129 0h-112q-4 0 -3 4q8 25 114 347.5t106 324.5q1 4 5 4h126q4 0 5 -4l217 -672q2 -4 -3 -4h-113q-3 0 -4 4l-38 128h-256q-38 -125 -39 -128q-1 -4 -5 -4zM201 226h200l-90 301h-20zM163 777q-4 0 -4 4v95q0 4 4 4h84q4 0 4 -4v-95q0 -4 -4 -4h-84zM355 777q-4 0 -4 4 v95q0 4 4 4h83q4 0 4 -4v-95q0 -4 -4 -4h-83z" />
<glyph unicode="&#xc5;" horiz-adv-x="591" d="M129 0h-112q-4 0 -3 4q8 25 114 347.5t106 324.5q1 4 5 4h126q4 0 5 -4l217 -672q2 -4 -3 -4h-113q-3 0 -4 4l-38 128h-256q-38 -125 -39 -128q-1 -4 -5 -4zM201 226h200l-90 301h-20zM301 733q-44 0 -71 17.5t-27 70.5v22q0 51 27.5 68.5t72.5 17.5q20 0 33.5 -2.5 t29.5 -10.5t24 -26.5t8 -46.5v-22q0 -29 -8 -47.5t-23.5 -27t-30 -11t-35.5 -2.5zM301 782q23 0 35 8.5t12 35.5v12q0 25 -11.5 34t-33.5 9q-50 0 -50 -43v-12q0 -27 12.5 -35.5t35.5 -8.5z" />
<glyph unicode="&#xc6;" horiz-adv-x="894" d="M253 226h180v314h-19zM135 0h-114q-4 0 -1 4q2 5 180 337.5t179 333.5q1 5 6 5h452q3 0 3 -4v-94q0 -4 -3 -4h-288v-183h242q4 0 4 -4v-93q0 -4 -4 -4h-242v-193h288q3 0 3 -4v-93q0 -4 -3 -4h-404v132h-227q-64 -125 -66 -128q-1 -4 -5 -4z" />
<glyph unicode="&#xc7;" horiz-adv-x="536" d="M293 -156h-97q-4 0 -2 4q0 1 12.5 28.5t29 63t23.5 52.5q-44 3 -77.5 14t-64.5 36.5t-47.5 75t-16.5 120.5v210q0 64 15 110t38 71t58.5 39.5t67 18.5t74.5 4q119 0 177 -29q3 -3 2 -6q0 -1 -8.5 -22t-16 -41.5t-7.5 -21.5q-2 -3 -6 -2q-2 1 -20.5 5t-53.5 8t-67 4 q-29 0 -48.5 -4t-42 -17.5t-34 -45.5t-11.5 -83v-188q0 -92 34 -121t101 -29q22 0 45.5 2.5t42 5.5t33 6t23.5 6l9 2q2 2 4 -2q1 -2 16.5 -43t15.5 -42q2 -4 -2 -5q-2 -2 -16 -8.5t-50 -15.5t-79 -12l-48 -144q-1 -4 -6 -4z" />
<glyph unicode="&#xc8;" horiz-adv-x="529" d="M74 0v680h414q4 0 4 -4v-94q0 -4 -4 -4h-298v-183h252q4 0 4 -4v-93q0 -4 -4 -4h-252v-193h298q4 0 4 -4v-93q0 -4 -4 -4h-414zM272 756l-91 141q-3 4 2 4h97q4 0 5 -4l72 -141q1 -4 -1 -4h-78q-4 0 -6 4z" />
<glyph unicode="&#xc9;" horiz-adv-x="529" d="M74 0v680h414q4 0 4 -4v-94q0 -4 -4 -4h-298v-183h252q4 0 4 -4v-93q0 -4 -4 -4h-252v-193h298q4 0 4 -4v-93q0 -4 -4 -4h-414zM275 756q-2 -4 -6 -4h-77q-3 0 -2 4l71 141q3 4 7 4h96q6 0 2 -4z" />
<glyph unicode="&#xca;" horiz-adv-x="529" d="M74 0v680h414q4 0 4 -4v-94q0 -4 -4 -4h-298v-183h252q4 0 4 -4v-93q0 -4 -4 -4h-252v-193h298q4 0 4 -4v-93q0 -4 -4 -4h-414zM217 751h-78q-4 0 -2 4q8 14 45.5 72.5t43.5 69.5q2 3 7 3h91q5 0 8 -4q0 -2 44 -71t44 -70q4 -4 -1 -4h-78q-4 0 -6 4l-55 77h-4 q-51 -74 -53 -77q-4 -4 -6 -4z" />
<glyph unicode="&#xcb;" horiz-adv-x="529" d="M74 0v680h414q4 0 4 -4v-94q0 -4 -4 -4h-298v-183h252q4 0 4 -4v-93q0 -4 -4 -4h-252v-193h298q4 0 4 -4v-93q0 -4 -4 -4h-414zM136 777q-4 0 -4 4v95q0 4 4 4h84q4 0 4 -4v-95q0 -4 -4 -4h-84zM328 777q-4 0 -4 4v95q0 4 4 4h83q4 0 4 -4v-95q0 -4 -4 -4h-83z" />
<glyph unicode="&#xcc;" horiz-adv-x="254" d="M78 0q-4 0 -4 4v672q0 4 4 4h108q4 0 4 -4v-672q0 -4 -4 -4h-108zM135 756l-91 141q-3 4 2 4h97q4 0 5 -4l72 -141q1 -4 -1 -4h-78q-4 0 -6 4z" />
<glyph unicode="&#xcd;" horiz-adv-x="254" d="M78 0q-4 0 -4 4v672q0 4 4 4h108q4 0 4 -4v-672q0 -4 -4 -4h-108zM129 756q-2 -4 -6 -4h-77q-3 0 -2 4l71 141q3 4 7 4h96q6 0 2 -4z" />
<glyph unicode="&#xce;" horiz-adv-x="254" d="M78 0q-4 0 -4 4v672q0 4 4 4h108q4 0 4 -4v-672q0 -4 -4 -4h-108zM71 751h-78q-4 0 -2 4q8 14 45.5 72.5t43.5 69.5q2 3 7 3h91q5 0 8 -4q0 -2 44 -71t44 -70q4 -4 -1 -4h-78q-4 0 -6 4l-55 77h-4q-51 -74 -53 -77q-4 -4 -6 -4z" />
<glyph unicode="&#xcf;" horiz-adv-x="254" d="M78 0q-4 0 -4 4v672q0 4 4 4h108q4 0 4 -4v-672q0 -4 -4 -4h-108zM-5 777q-4 0 -4 4v95q0 4 4 4h84q4 0 4 -4v-95q0 -4 -4 -4h-84zM187 777q-4 0 -4 4v95q0 4 4 4h83q4 0 4 -4v-95q0 -4 -4 -4h-83z" />
<glyph unicode="&#xd0;" horiz-adv-x="605" d="M190 105h114q30 0 48.5 3.5t39.5 17t31 46t10 84.5v171q0 51 -10.5 83t-32.5 45t-39 16t-47 3h-114v-185h103q4 0 4 -4v-83q0 -4 -4 -4h-103v-193zM297 0h-223v298h-41q-4 0 -4 4v83q0 4 4 4h41v291h223q28 0 49 -1.5t49 -6.5t48.5 -15t41.5 -28t34.5 -43t22 -62.5 t8.5 -85.5v-191q0 -50 -9 -90t-22 -65.5t-36 -43.5t-42 -27.5t-48.5 -14t-48 -5.5t-47.5 -1z" />
<glyph unicode="&#xd1;" horiz-adv-x="633" d="M76 0q-4 0 -4 4v672q0 4 4 4h127q5 0 6 -4l240 -471h12v471q0 4 4 4h106q4 0 4 -4v-672q0 -4 -4 -4h-129q-4 0 -5 4l-240 473h-12v-473q0 -4 -4 -4h-105zM189 777q-3 0 -3 5v56q0 10 5 15q29 35 72 35q26 0 64 -19t59 -19q22 0 44 17.5t23 17.5q4 0 4 -5v-55 q0 -10 -5 -16q-32 -37 -73 -37q-27 0 -64 20t-56 20q-23 0 -46 -17.5t-24 -17.5z" />
<glyph unicode="&#xd2;" horiz-adv-x="588" d="M298 -11q-41 0 -69 3t-64.5 17t-58.5 39t-37.5 73t-15.5 116v210q0 47 8 84.5t20.5 63t32.5 43.5t39 28t46.5 15.5t48.5 7t50 1.5q33 0 56.5 -2t55 -9t53 -23.5t41.5 -42t30 -68t10 -98.5v-210q0 -50 -8 -89t-20.5 -65t-33.5 -44t-40 -27.5t-47 -15t-48 -6.5t-49 -1z M298 94q32 0 52 4.5t39.5 19t28.5 46.5t9 82v190q0 49 -9.5 80.5t-29 45.5t-39 18.5t-51.5 4.5q-31 0 -50.5 -4.5t-39 -18.5t-29 -45.5t-9.5 -80.5v-190q0 -51 9.5 -83t29.5 -46t39 -18.5t50 -4.5zM302 756l-91 141q-3 4 2 4h97q4 0 5 -4l72 -141q1 -4 -1 -4h-78q-4 0 -6 4z " />
<glyph unicode="&#xd3;" horiz-adv-x="588" d="M298 -11q-41 0 -69 3t-64.5 17t-58.5 39t-37.5 73t-15.5 116v210q0 47 8 84.5t20.5 63t32.5 43.5t39 28t46.5 15.5t48.5 7t50 1.5q33 0 56.5 -2t55 -9t53 -23.5t41.5 -42t30 -68t10 -98.5v-210q0 -50 -8 -89t-20.5 -65t-33.5 -44t-40 -27.5t-47 -15t-48 -6.5t-49 -1z M298 94q32 0 52 4.5t39.5 19t28.5 46.5t9 82v190q0 49 -9.5 80.5t-29 45.5t-39 18.5t-51.5 4.5q-31 0 -50.5 -4.5t-39 -18.5t-29 -45.5t-9.5 -80.5v-190q0 -51 9.5 -83t29.5 -46t39 -18.5t50 -4.5zM295 756q-2 -4 -6 -4h-77q-3 0 -2 4l71 141q3 4 7 4h96q6 0 2 -4z" />
<glyph unicode="&#xd4;" horiz-adv-x="588" d="M298 94q32 0 52 4.5t39.5 19t28.5 46.5t9 82v190q0 49 -9.5 80.5t-29 45.5t-39 18.5t-51.5 4.5q-31 0 -50.5 -4.5t-39 -18.5t-29 -45.5t-9.5 -80.5v-190q0 -51 9.5 -83t29.5 -46t39 -18.5t50 -4.5zM298 -11q-41 0 -69 3t-64.5 17t-58.5 39t-37.5 73t-15.5 116v210 q0 47 8 84.5t20.5 63t32.5 43.5t39 28t46.5 15.5t48.5 7t50 1.5q33 0 56.5 -2t55 -9t53 -23.5t41.5 -42t30 -68t10 -98.5v-210q0 -50 -8 -89t-20.5 -65t-33.5 -44t-40 -27.5t-47 -15t-48 -6.5t-49 -1zM237 751h-78q-4 0 -2 4q8 14 45.5 72.5t43.5 69.5q2 3 7 3h91q5 0 8 -4 q0 -2 44 -71t44 -70q4 -4 -1 -4h-78q-4 0 -6 4l-55 77h-4q-51 -74 -53 -77q-4 -4 -6 -4z" />
<glyph unicode="&#xd5;" horiz-adv-x="588" d="M298 94q32 0 52 4.5t39.5 19t28.5 46.5t9 82v190q0 49 -9.5 80.5t-29 45.5t-39 18.5t-51.5 4.5q-31 0 -50.5 -4.5t-39 -18.5t-29 -45.5t-9.5 -80.5v-190q0 -51 9.5 -83t29.5 -46t39 -18.5t50 -4.5zM298 -11q-41 0 -69 3t-64.5 17t-58.5 39t-37.5 73t-15.5 116v210 q0 47 8 84.5t20.5 63t32.5 43.5t39 28t46.5 15.5t48.5 7t50 1.5q33 0 56.5 -2t55 -9t53 -23.5t41.5 -42t30 -68t10 -98.5v-210q0 -50 -8 -89t-20.5 -65t-33.5 -44t-40 -27.5t-47 -15t-48 -6.5t-49 -1zM167 777q-3 0 -3 5v56q0 10 5 15q29 35 72 35q26 0 64 -19t59 -19 q22 0 44 17.5t23 17.5q4 0 4 -5v-55q0 -10 -5 -16q-32 -37 -73 -37q-27 0 -64 20t-56 20q-23 0 -46 -17.5t-24 -17.5z" />
<glyph unicode="&#xd6;" horiz-adv-x="588" d="M298 -11q-41 0 -69 3t-64.5 17t-58.5 39t-37.5 73t-15.5 116v210q0 47 8 84.5t20.5 63t32.5 43.5t39 28t46.5 15.5t48.5 7t50 1.5q33 0 56.5 -2t55 -9t53 -23.5t41.5 -42t30 -68t10 -98.5v-210q0 -50 -8 -89t-20.5 -65t-33.5 -44t-40 -27.5t-47 -15t-48 -6.5t-49 -1z M298 94q32 0 52 4.5t39.5 19t28.5 46.5t9 82v190q0 49 -9.5 80.5t-29 45.5t-39 18.5t-51.5 4.5q-31 0 -50.5 -4.5t-39 -18.5t-29 -45.5t-9.5 -80.5v-190q0 -51 9.5 -83t29.5 -46t39 -18.5t50 -4.5zM161 777q-4 0 -4 4v95q0 4 4 4h84q4 0 4 -4v-95q0 -4 -4 -4h-84zM353 777 q-4 0 -4 4v95q0 4 4 4h83q4 0 4 -4v-95q0 -4 -4 -4h-83z" />
<glyph unicode="&#xd7;" d="M136 80q-1 2 -29 30l-29 29q-2 2 0 6l124 131q-122 129 -124 131q-3 3 0 6q57 57 58 59q4 2 6 0l124 -131q123 129 124 131q3 2 5 0l59 -59q3 -3 0 -6l-124 -131q123 -129 124 -131q4 -2 0 -6l-59 -59q-3 -2 -5 0l-124 131q-122 -129 -124 -131t-6 0z" />
<glyph unicode="&#xd8;" horiz-adv-x="588" d="M68 -40q-2 0 -1 4l41 82q-55 60 -55 191v210q0 47 8 84.5t20.5 63t32.5 43.5t39 28t46.5 15.5t48.5 7t50 1.5q77 0 118 -13l21 40q2 4 5 4h89q5 0 2 -4q-1 -1 -7.5 -14l-17.5 -35l-18 -36q54 -61 54 -185v-210q0 -50 -8 -89t-20.5 -65t-33.5 -44t-40 -27.5t-47 -15 t-48 -6.5t-49 -1q-76 0 -116 12q-19 -36 -19 -37q-1 -4 -5 -4h-90zM298 94q32 0 52 4.5t39.5 19t28.5 46.5t9 82v190q0 49 -9.5 80.5t-29 45.5t-39 18.5t-51.5 4.5q-31 0 -50.5 -4.5t-39 -18.5t-29 -45.5t-9.5 -80.5v-190q0 -51 9.5 -83t29.5 -46t39 -18.5t50 -4.5z" />
<glyph unicode="&#xd9;" horiz-adv-x="610" d="M289 -10q-125 0 -173 61.5t-48 207.5v417q0 4 4 4h108q4 0 4 -4v-408q0 -96 19 -134.5t86 -38.5h43q67 0 85.5 37t18.5 136v408q0 4 4 4h108q4 0 4 -4v-417q0 -70 -8.5 -116t-31.5 -83t-67 -53.5t-113 -16.5h-43zM312 756l-91 141q-3 4 2 4h97q4 0 5 -4l72 -141 q1 -4 -1 -4h-78q-4 0 -6 4z" />
<glyph unicode="&#xda;" horiz-adv-x="610" d="M289 -10q-125 0 -173 61.5t-48 207.5v417q0 4 4 4h108q4 0 4 -4v-408q0 -96 19 -134.5t86 -38.5h43q67 0 85.5 37t18.5 136v408q0 4 4 4h108q4 0 4 -4v-417q0 -70 -8.5 -116t-31.5 -83t-67 -53.5t-113 -16.5h-43zM306 756q-2 -4 -6 -4h-77q-3 0 -2 4l71 141q3 4 7 4h96 q6 0 2 -4z" />
<glyph unicode="&#xdb;" horiz-adv-x="610" d="M289 -10q-125 0 -173 61.5t-48 207.5v417q0 4 4 4h108q4 0 4 -4v-408q0 -96 19 -134.5t86 -38.5h43q67 0 85.5 37t18.5 136v408q0 4 4 4h108q4 0 4 -4v-417q0 -70 -8.5 -116t-31.5 -83t-67 -53.5t-113 -16.5h-43zM248 751h-78q-4 0 -2 4q8 14 45.5 72.5t43.5 69.5 q1 3 7 3h91q5 0 8 -4q1 -2 44 -71t44 -70q4 -4 -1 -4h-78q-4 0 -6 4l-55 77h-4q-51 -74 -53 -77q-4 -4 -6 -4z" />
<glyph unicode="&#xdc;" horiz-adv-x="610" d="M289 -10q-125 0 -173 61.5t-48 207.5v417q0 4 4 4h108q4 0 4 -4v-408q0 -96 19 -134.5t86 -38.5h43q67 0 85.5 37t18.5 136v408q0 4 4 4h108q4 0 4 -4v-417q0 -70 -8.5 -116t-31.5 -83t-67 -53.5t-113 -16.5h-43zM173 777q-4 0 -4 4v95q0 4 4 4h84q4 0 4 -4v-95 q0 -4 -4 -4h-84zM365 777q-4 0 -4 4v95q0 4 4 4h83q4 0 4 -4v-95q0 -4 -4 -4h-83z" />
<glyph unicode="&#xdd;" horiz-adv-x="534" d="M219 0q-4 0 -4 4v263q-199 406 -200 409q-2 4 3 4h116q2 0 5 -4l132 -279h6q129 276 130 279q3 4 5 4h114q4 0 3 -4l-199 -409v-263q0 -4 -3 -4h-108zM268 756q-2 -4 -6 -4h-77q-3 0 -2 4l71 141q3 4 7 4h96q6 0 2 -4z" />
<glyph unicode="&#xde;" horiz-adv-x="580" d="M190 243h124q110 0 110 88v40q0 29 -9 47.5t-26.5 27t-34 11t-39.5 2.5h-125v-216zM185 0h-107q-4 0 -4 4v672q0 4 4 4h107q4 0 4 -4v-116h130q32 0 55.5 -2t57 -12t55 -28.5t37 -54t15.5 -85.5v-55q0 -41 -10.5 -73t-30.5 -51t-41 -31.5t-49 -17.5t-47 -6.5t-42 -1.5 h-130v-138q0 -4 -4 -4z" />
<glyph unicode="&#xdf;" horiz-adv-x="543" d="M178 0h-102q-4 0 -4 4v478q0 64 15.5 106.5t46 62.5t62.5 27t76 7q28 0 50 -2.5t49 -13t45 -27.5t30.5 -49t12.5 -76v-48q0 -35 -9.5 -62.5t-19.5 -37.5l-10 -10v-6q3 -1 7.5 -4t16 -14.5t20.5 -25.5t16.5 -38t7.5 -51v-49q0 -45 -12 -77.5t-30.5 -51t-48.5 -29 t-57.5 -13.5t-65.5 -3q-4 0 -4 4v87q0 4 4 4q46 0 74 18t28 68v38q0 88 -102 88q-4 0 -4 4v87q0 4 4 4q79 0 79 77v36q0 79 -81 79q-44 0 -67 -21.5t-23 -87.5v-478q0 -4 -4 -4z" />
<glyph unicode="&#xe0;" horiz-adv-x="497" d="M200 -10q-71 0 -111 35t-40 91v52q0 58 43.5 90.5t103.5 32.5q24 0 58 -3.5t56 -7.5l22 -3v52q0 44 -23.5 58.5t-78.5 14.5q-18 0 -38 -1.5t-35 -3.5t-27.5 -4t-19.5 -3.5t-8 -1.5q-4 -2 -4 3q-1 3 -5.5 19t-8.5 33t-5 19q-2 3 2 5q75 25 161 25q42 0 69.5 -4t60.5 -19 t50 -50.5t17 -90.5v-324q0 -4 -4 -4h-99q-4 0 -4 4v16q-24 -30 -132 -30zM234 75q22 0 36.5 1.5t30.5 6t24 15.5t8 28v77q-68 14 -115 14q-30 0 -49 -14.5t-19 -35.5v-31q0 -26 21 -43.5t63 -17.5zM256 556l-91 141q-3 4 2 4h97q4 0 5 -4l72 -141q1 -4 -1 -4h-78q-4 0 -6 4z " />
<glyph unicode="&#xe1;" horiz-adv-x="497" d="M200 -10q-71 0 -111 35t-40 91v52q0 58 43.5 90.5t103.5 32.5q24 0 58 -3.5t56 -7.5l22 -3v52q0 44 -23.5 58.5t-78.5 14.5q-18 0 -38 -1.5t-35 -3.5t-27.5 -4t-19.5 -3.5t-8 -1.5q-4 -2 -4 3q-1 3 -5.5 19t-8.5 33t-5 19q-2 3 2 5q75 25 161 25q42 0 69.5 -4t60.5 -19 t50 -50.5t17 -90.5v-324q0 -4 -4 -4h-99q-4 0 -4 4v16q-24 -30 -132 -30zM234 75q22 0 36.5 1.5t30.5 6t24 15.5t8 28v77q-68 14 -115 14q-30 0 -49 -14.5t-19 -35.5v-31q0 -26 21 -43.5t63 -17.5zM250 556q-2 -4 -6 -4h-77q-3 0 -2 4l71 141q3 4 7 4h96q6 0 2 -4z" />
<glyph unicode="&#xe2;" horiz-adv-x="497" d="M234 75q22 0 36.5 1.5t30.5 6t24 15.5t8 28v77q-68 14 -115 14q-30 0 -49 -14.5t-19 -35.5v-31q0 -26 21 -43.5t63 -17.5zM200 -10q-71 0 -111 35t-40 91v52q0 58 43.5 90.5t103.5 32.5q24 0 58 -3.5t56 -7.5l22 -3v52q0 44 -23.5 58.5t-78.5 14.5q-18 0 -38 -1.5 t-35 -3.5t-27.5 -4t-19.5 -3.5t-8 -1.5q-4 -2 -4 3q-1 3 -5.5 19t-8.5 33t-5 19q-2 3 2 5q75 25 161 25q42 0 69.5 -4t60.5 -19t50 -50.5t17 -90.5v-324q0 -4 -4 -4h-99q-4 0 -4 4v16q-24 -30 -132 -30zM192 551h-78q-4 0 -2 4q8 14 45.5 72.5t43.5 69.5q1 3 7 3h91 q5 0 8 -4q1 -2 44 -71t44 -70q4 -4 -1 -4h-78q-4 0 -6 4l-55 77h-4q-51 -74 -53 -77q-4 -4 -6 -4z" />
<glyph unicode="&#xe3;" horiz-adv-x="497" d="M234 75q22 0 36.5 1.5t30.5 6t24 15.5t8 28v77q-68 14 -115 14q-30 0 -49 -14.5t-19 -35.5v-31q0 -26 21 -43.5t63 -17.5zM200 -10q-71 0 -111 35t-40 91v52q0 58 43.5 90.5t103.5 32.5q24 0 58 -3.5t56 -7.5l22 -3v52q0 44 -23.5 58.5t-78.5 14.5q-18 0 -38 -1.5 t-35 -3.5t-27.5 -4t-19.5 -3.5t-8 -1.5q-4 -2 -4 3q-1 3 -5.5 19t-8.5 33t-5 19q-2 3 2 5q75 25 161 25q42 0 69.5 -4t60.5 -19t50 -50.5t17 -90.5v-324q0 -4 -4 -4h-99q-4 0 -4 4v16q-24 -30 -132 -30zM121 577q-3 0 -3 5v56q0 10 5 15q29 35 72 35q26 0 64 -19t59 -19 q22 0 44 17.5t23 17.5q4 0 4 -5v-55q0 -10 -5 -16q-32 -37 -73 -37q-27 0 -64 20t-56 20q-23 0 -46 -17.5t-24 -17.5z" />
<glyph unicode="&#xe4;" horiz-adv-x="497" d="M200 -10q-71 0 -111 35t-40 91v52q0 58 43.5 90.5t103.5 32.5q24 0 58 -3.5t56 -7.5l22 -3v52q0 44 -23.5 58.5t-78.5 14.5q-18 0 -38 -1.5t-35 -3.5t-27.5 -4t-19.5 -3.5t-8 -1.5q-4 -2 -4 3q-1 3 -5.5 19t-8.5 33t-5 19q-2 3 2 5q75 25 161 25q42 0 69.5 -4t60.5 -19 t50 -50.5t17 -90.5v-324q0 -4 -4 -4h-99q-4 0 -4 4v16q-24 -30 -132 -30zM234 75q22 0 36.5 1.5t30.5 6t24 15.5t8 28v77q-68 14 -115 14q-30 0 -49 -14.5t-19 -35.5v-31q0 -26 21 -43.5t63 -17.5zM116 577q-4 0 -4 4v95q0 4 4 4h84q4 0 4 -4v-95q0 -4 -4 -4h-84zM308 577 q-4 0 -4 4v95q0 4 4 4h83q4 0 4 -4v-95q0 -4 -4 -4h-83z" />
<glyph unicode="&#xe5;" horiz-adv-x="497" d="M234 75q22 0 36.5 1.5t30.5 6t24 15.5t8 28v77q-68 14 -115 14q-30 0 -49 -14.5t-19 -35.5v-31q0 -26 21 -43.5t63 -17.5zM200 -10q-71 0 -111 35t-40 91v52q0 58 43.5 90.5t103.5 32.5q24 0 58 -3.5t56 -7.5l22 -3v52q0 44 -23.5 58.5t-78.5 14.5q-18 0 -38 -1.5 t-35 -3.5t-27.5 -4t-19.5 -3.5t-8 -1.5q-4 -2 -4 3q-1 3 -5.5 19t-8.5 33t-5 19q-2 3 2 5q75 25 161 25q42 0 69.5 -4t60.5 -19t50 -50.5t17 -90.5v-324q0 -4 -4 -4h-99q-4 0 -4 4v16q-24 -30 -132 -30zM254 582q23 0 35 8.5t12 35.5v12q0 25 -11.5 34t-33.5 9 q-50 0 -50 -43v-12q0 -27 12.5 -35.5t35.5 -8.5zM254 533q-44 0 -71 17.5t-27 70.5v22q0 51 27.5 68.5t72.5 17.5q20 0 33.5 -2.5t29.5 -10.5t24 -26.5t8 -46.5v-22q0 -29 -8 -47.5t-23.5 -27t-30 -11t-35.5 -2.5z" />
<glyph unicode="&#xe6;" horiz-adv-x="786" d="M236 76q99 0 99 56v71q-65 14 -114 14q-28 0 -48.5 -13.5t-20.5 -36.5v-29q0 -34 25.5 -48t58.5 -14zM446 277h184q0 70 -22.5 93t-67.5 23q-48 0 -71 -23.5t-23 -92.5zM208 -8q-19 0 -37.5 2.5t-41 10.5t-39 21t-28 37t-11.5 55v52q0 60 44 91t103 31q24 0 58 -3.5 t56 -6.5l22 -4v47q0 46 -24 59t-78 13q-18 0 -37.5 -1.5t-34.5 -3.5t-27 -4.5t-19 -3.5l-7 -2q-4 0 -4 3q-1 2 -11 36t-10 35q-2 3 2 5q81 27 161 27q116 0 151 -45q47 45 144 45q28 0 48.5 -2t51.5 -13.5t50.5 -32t34.5 -62t15 -98.5v-76h-294q1 -72 27 -94t81 -22 q22 0 45.5 1.5t41 4t32 4.5t22.5 4l8 1q4 0 5 -3l21 -73q2 -3 -3 -5t-22.5 -7.5t-61.5 -12.5t-90 -7q-64 0 -99.5 12.5t-61.5 39.5q-29 -31 -69.5 -43t-113.5 -12z" />
<glyph unicode="&#xe7;" horiz-adv-x="458" d="M254 -156h-97q-4 0 -2 4l66 145q-38 2 -64.5 10.5t-52 28.5t-38.5 59.5t-13 97.5v109q0 52 13.5 89t33 57t50 31t54.5 13.5t57 2.5q83 0 146 -21q4 -3 3 -6l-22 -73q-2 -3 -5 -3q-24 8 -118 8q-19 0 -34.5 -3.5t-32 -13.5t-25.5 -33t-9 -57v-93q0 -36 8 -59.5t24.5 -33.5 t31 -13t36.5 -3q90 0 123 11q3 0 5 -3q0 -1 11.5 -37.5t11.5 -37.5q2 -3 -2 -5q-48 -16 -104 -21l-49 -146q-1 -4 -6 -4z" />
<glyph unicode="&#xe8;" horiz-adv-x="493" d="M263 -9q-32 0 -57.5 3t-57.5 15.5t-53 34t-36 62t-15 95.5v84q0 205 207 205q30 0 52.5 -2.5t52 -14.5t48.5 -33.5t32.5 -62.5t13.5 -97v-77h-294q0 -73 28 -96t80 -23q22 0 45 1.5t41 3.5t32.5 4t23.5 3l9 2q3 1 5 -3l18 -72q2 -5 -2 -6q-78 -26 -173 -26zM156 277h184 q0 69 -23 93.5t-66 24.5q-46 0 -70.5 -23.5t-24.5 -94.5zM254 556l-91 141q-3 4 2 4h97q4 0 5 -4l72 -141q1 -4 -1 -4h-78q-4 0 -6 4z" />
<glyph unicode="&#xe9;" horiz-adv-x="493" d="M263 -9q-32 0 -57.5 3t-57.5 15.5t-53 34t-36 62t-15 95.5v84q0 205 207 205q30 0 52.5 -2.5t52 -14.5t48.5 -33.5t32.5 -62.5t13.5 -97v-77h-294q0 -73 28 -96t80 -23q22 0 45 1.5t41 3.5t32.5 4t23.5 3l9 2q3 1 5 -3l18 -72q2 -5 -2 -6q-78 -26 -173 -26zM156 277h184 q0 69 -23 93.5t-66 24.5q-46 0 -70.5 -23.5t-24.5 -94.5zM248 556q-2 -4 -6 -4h-77q-3 0 -2 4l71 141q3 4 7 4h96q6 0 2 -4z" />
<glyph unicode="&#xea;" horiz-adv-x="493" d="M156 277h184q0 69 -23 93.5t-66 24.5q-46 0 -70.5 -23.5t-24.5 -94.5zM263 -9q-32 0 -57.5 3t-57.5 15.5t-53 34t-36 62t-15 95.5v84q0 205 207 205q30 0 52.5 -2.5t52 -14.5t48.5 -33.5t32.5 -62.5t13.5 -97v-77h-294q0 -73 28 -96t80 -23q22 0 45 1.5t41 3.5t32.5 4 t23.5 3l9 2q3 1 5 -3l18 -72q2 -5 -2 -6q-78 -26 -173 -26zM190 551h-78q-4 0 -2 4q8 14 45.5 72.5t43.5 69.5q1 3 7 3h91q5 0 8 -4q1 -2 44 -71t44 -70q4 -4 -1 -4h-78q-4 0 -6 4l-55 77h-4q-51 -74 -53 -77q-4 -4 -6 -4z" />
<glyph unicode="&#xeb;" horiz-adv-x="493" d="M263 -9q-32 0 -57.5 3t-57.5 15.5t-53 34t-36 62t-15 95.5v84q0 205 207 205q30 0 52.5 -2.5t52 -14.5t48.5 -33.5t32.5 -62.5t13.5 -97v-77h-294q0 -73 28 -96t80 -23q22 0 45 1.5t41 3.5t32.5 4t23.5 3l9 2q3 1 5 -3l18 -72q2 -5 -2 -6q-78 -26 -173 -26zM156 277h184 q0 69 -23 93.5t-66 24.5q-46 0 -70.5 -23.5t-24.5 -94.5zM114 577q-4 0 -4 4v95q0 4 4 4h84q4 0 4 -4v-95q0 -4 -4 -4h-84zM306 577q-4 0 -4 4v95q0 4 4 4h83q4 0 4 -4v-95q0 -4 -4 -4h-83z" />
<glyph unicode="&#xec;" horiz-adv-x="245" d="M70 0q-3 0 -3 4v474q0 4 3 4h104q3 0 3 -4v-474q0 -4 -3 -4h-104zM130 556l-91 141q-3 4 2 4h97q4 0 5 -4l72 -141q1 -4 -1 -4h-78q-4 0 -6 4z" />
<glyph unicode="&#xed;" horiz-adv-x="245" d="M70 0q-3 0 -3 4v474q0 4 3 4h104q3 0 3 -4v-474q0 -4 -3 -4h-104zM124 556q-2 -4 -6 -4h-77q-3 0 -2 4l71 141q3 4 7 4h96q6 0 2 -4z" />
<glyph unicode="&#xee;" horiz-adv-x="245" d="M70 0q-3 0 -3 4v474q0 4 3 4h104q3 0 3 -4v-474q0 -4 -3 -4h-104zM66 551h-78q-4 0 -2 4q8 14 45.5 72.5t43.5 69.5q1 3 7 3h91q5 0 8 -4q0 -2 43.5 -71t44.5 -70q4 -4 -1 -4h-78q-4 0 -6 4l-55 77h-4q-51 -74 -53 -77q-4 -4 -6 -4z" />
<glyph unicode="&#xef;" horiz-adv-x="245" d="M70 0q-3 0 -3 4v474q0 4 3 4h104q3 0 3 -4v-474q0 -4 -3 -4h-104zM-10 577q-4 0 -4 4v95q0 4 4 4h84q4 0 4 -4v-95q0 -4 -4 -4h-84zM182 577q-4 0 -4 4v95q0 4 4 4h83q4 0 4 -4v-95q0 -4 -4 -4h-83z" />
<glyph unicode="&#xf0;" horiz-adv-x="530" d="M245 89q100 0 100 56v227q-67 20 -103 20q-41 0 -62.5 -22.5t-21.5 -92.5v-70q0 -72 22 -95t65 -23zM219 -6q-41 0 -67 6t-52.5 26t-39.5 63.5t-13 111.5v83q0 54 11 93t26.5 60t41 32.5t47 14.5t51.5 3q21 0 51 -5t50 -10l20 -5v81h-117q-4 0 -4 4v72q0 4 5 4h116v47 q0 4 4 4h103q3 0 3 -4v-47h44q5 0 5 -4v-72q0 -4 -4 -4h-45v-544q0 -4 -3 -4h-103q-4 0 -4 3v22q-28 -31 -126 -31z" />
<glyph unicode="&#xf1;" horiz-adv-x="529" d="M76 0q-4 0 -4 4v474q0 4 4 4h103q4 0 4 -4v-17q83 26 124 26q28 0 46.5 -2t43.5 -12t39.5 -28t25.5 -53t11 -84v-304q0 -4 -4 -4h-102q-4 0 -4 4v298q0 57 -17.5 74t-55.5 17q-16 0 -43 -6.5t-45 -12.5l-19 -6v-364q0 -4 -4 -4h-103zM137 577q-3 0 -3 5v56q0 10 5 15 q29 35 72 35q26 0 64 -19t59 -19q22 0 44 17.5t23 17.5q4 0 4 -5v-55q0 -10 -5 -16q-32 -37 -73 -37q-27 0 -64 20t-56 20q-23 0 -46 -17.5t-24 -17.5z" />
<glyph unicode="&#xf2;" horiz-adv-x="499" d="M252 -8q-37 0 -62.5 3t-55 15t-47 33.5t-29.5 61t-12 94.5v88q0 45 7.5 79.5t23 56.5t33.5 36t44 20.5t48 9t52 2.5q36 0 60 -2.5t54 -14t48 -32t30.5 -60t12.5 -94.5v-89q0 -56 -12 -96t-30 -61t-48 -33t-55 -14.5t-62 -2.5zM252 87q23 0 37 3t29 14t22 36t7 65v75 q0 73 -23 94.5t-70 21.5t-72 -22t-25 -94v-75q0 -75 23.5 -96.5t71.5 -21.5zM257 556l-91 141q-3 4 2 4h97q4 0 5 -4l72 -141q1 -4 -1 -4h-78q-4 0 -6 4z" />
<glyph unicode="&#xf3;" horiz-adv-x="499" d="M252 -8q-37 0 -62.5 3t-55 15t-47 33.5t-29.5 61t-12 94.5v88q0 45 7.5 79.5t23 56.5t33.5 36t44 20.5t48 9t52 2.5q36 0 60 -2.5t54 -14t48 -32t30.5 -60t12.5 -94.5v-89q0 -56 -12 -96t-30 -61t-48 -33t-55 -14.5t-62 -2.5zM252 87q23 0 37 3t29 14t22 36t7 65v75 q0 73 -23 94.5t-70 21.5t-72 -22t-25 -94v-75q0 -75 23.5 -96.5t71.5 -21.5zM250 556q-2 -4 -6 -4h-77q-3 0 -2 4l71 141q3 4 7 4h96q6 0 2 -4z" />
<glyph unicode="&#xf4;" horiz-adv-x="499" d="M252 87q23 0 37 3t29 14t22 36t7 65v75q0 73 -23 94.5t-70 21.5t-72 -22t-25 -94v-75q0 -75 23.5 -96.5t71.5 -21.5zM252 -8q-37 0 -62.5 3t-55 15t-47 33.5t-29.5 61t-12 94.5v88q0 45 7.5 79.5t23 56.5t33.5 36t44 20.5t48 9t52 2.5q36 0 60 -2.5t54 -14t48 -32 t30.5 -60t12.5 -94.5v-89q0 -56 -12 -96t-30 -61t-48 -33t-55 -14.5t-62 -2.5zM192 551h-78q-4 0 -2 4q8 14 45.5 72.5t43.5 69.5q1 3 7 3h91q5 0 8 -4q1 -2 44 -71t44 -70q4 -4 -1 -4h-78q-4 0 -6 4l-55 77h-4q-51 -74 -53 -77q-4 -4 -6 -4z" />
<glyph unicode="&#xf5;" horiz-adv-x="499" d="M252 87q23 0 37 3t29 14t22 36t7 65v75q0 73 -23 94.5t-70 21.5t-72 -22t-25 -94v-75q0 -75 23.5 -96.5t71.5 -21.5zM252 -8q-37 0 -62.5 3t-55 15t-47 33.5t-29.5 61t-12 94.5v88q0 45 7.5 79.5t23 56.5t33.5 36t44 20.5t48 9t52 2.5q36 0 60 -2.5t54 -14t48 -32 t30.5 -60t12.5 -94.5v-89q0 -56 -12 -96t-30 -61t-48 -33t-55 -14.5t-62 -2.5zM122 577q-3 0 -3 5v56q0 10 5 15q29 35 72 35q26 0 64 -19t59 -19q23 0 44 17.5t23 17.5q4 0 4 -5v-55q0 -10 -5 -16q-32 -37 -73 -37q-27 0 -64 20t-56 20q-23 0 -46 -17.5t-24 -17.5z" />
<glyph unicode="&#xf6;" horiz-adv-x="499" d="M252 -8q-37 0 -62.5 3t-55 15t-47 33.5t-29.5 61t-12 94.5v88q0 45 7.5 79.5t23 56.5t33.5 36t44 20.5t48 9t52 2.5q36 0 60 -2.5t54 -14t48 -32t30.5 -60t12.5 -94.5v-89q0 -56 -12 -96t-30 -61t-48 -33t-55 -14.5t-62 -2.5zM252 87q23 0 37 3t29 14t22 36t7 65v75 q0 73 -23 94.5t-70 21.5t-72 -22t-25 -94v-75q0 -75 23.5 -96.5t71.5 -21.5zM117 577q-4 0 -4 4v95q0 4 4 4h84q4 0 4 -4v-95q0 -4 -4 -4h-84zM309 577q-4 0 -4 4v95q0 4 4 4h83q4 0 4 -4v-95q0 -4 -4 -4h-83z" />
<glyph unicode="&#xf7;" d="M62 229q-4 0 -4 4v84q0 4 4 4h406q4 0 4 -4v-84q0 -4 -4 -4h-406zM215 42q-4 0 -4 4v109q0 4 4 4h100q4 0 4 -4v-109q0 -4 -4 -4h-100zM215 392q-4 0 -4 4v108q0 4 4 4h100q4 0 4 -4v-108q0 -4 -4 -4h-100z" />
<glyph unicode="&#xf8;" horiz-adv-x="499" d="M109 -40q-4 0 -3 4q0 3 21 49q-81 42 -81 186v88q0 45 7.5 79.5t23 56.5t33.5 36t44 20.5t48 9t52 2.5q43 0 64 -3q3 6 6 13.5l5 12.5l2 4q3 4 6 4h68q3 0 2 -4l-22 -51q74 -43 74 -179v-89q0 -56 -12 -96t-30 -61t-48 -33t-55 -14.5t-62 -2.5q-30 0 -57 3 q-14 -28 -14 -31q-1 -4 -6 -4h-66zM252 87q23 0 37 3t29 14t22 36t7 65v75q0 73 -23 94.5t-70 21.5t-72 -22t-25 -94v-75q0 -75 23.5 -96.5t71.5 -21.5z" />
<glyph unicode="&#xf9;" horiz-adv-x="527" d="M463 482q4 0 4 -4v-474q0 -4 -4 -4h-102q-4 0 -4 4v13q-83 -25 -124 -25q-27 0 -46 2t-44 12t-40 28t-26 53t-11 84v307q0 4 4 4h103q4 0 4 -4v-300q0 -57 18 -74t55 -17q16 0 43 5.5t45 11.5l19 6v368q0 4 4 4h102zM271 556l-91 141q-3 4 2 4h97q4 0 5 -4l72 -141 q1 -4 -1 -4h-78q-4 0 -6 4z" />
<glyph unicode="&#xfa;" horiz-adv-x="527" d="M463 482q4 0 4 -4v-474q0 -4 -4 -4h-102q-4 0 -4 4v13q-83 -25 -124 -25q-27 0 -46 2t-44 12t-40 28t-26 53t-11 84v307q0 4 4 4h103q4 0 4 -4v-300q0 -57 18 -74t55 -17q16 0 43 5.5t45 11.5l19 6v368q0 4 4 4h102zM265 556q-2 -4 -6 -4h-77q-3 0 -2 4l71 141q3 4 7 4 h96q6 0 2 -4z" />
<glyph unicode="&#xfb;" horiz-adv-x="527" d="M463 482q4 0 4 -4v-474q0 -4 -4 -4h-102q-4 0 -4 4v13q-83 -25 -124 -25q-27 0 -46 2t-44 12t-40 28t-26 53t-11 84v307q0 4 4 4h103q4 0 4 -4v-300q0 -57 18 -74t55 -17q16 0 43 5.5t45 11.5l19 6v368q0 4 4 4h102zM207 551h-78q-4 0 -2 4q8 14 45.5 72.5t43.5 69.5 q2 3 7 3h91q5 0 8 -4q0 -2 44 -71t44 -70q4 -4 -1 -4h-78q-4 0 -6 4l-55 77h-4q-51 -74 -53 -77q-4 -4 -6 -4z" />
<glyph unicode="&#xfc;" horiz-adv-x="527" d="M463 482q4 0 4 -4v-474q0 -4 -4 -4h-102q-4 0 -4 4v13q-83 -25 -124 -25q-27 0 -46 2t-44 12t-40 28t-26 53t-11 84v307q0 4 4 4h103q4 0 4 -4v-300q0 -57 18 -74t55 -17q16 0 43 5.5t45 11.5l19 6v368q0 4 4 4h102zM131 577q-4 0 -4 4v95q0 4 4 4h84q4 0 4 -4v-95 q0 -4 -4 -4h-84zM323 577q-4 0 -4 4v95q0 4 4 4h83q4 0 4 -4v-95q0 -4 -4 -4h-83z" />
<glyph unicode="&#xfd;" horiz-adv-x="477" d="M69 -180q-3 0 -3 4q0 2 5 44l5 41q0 4 4 4h26q14 0 24 3.5t23.5 19t23.5 44.5l13 39q-166 456 -167 459q-2 4 2 4h108q5 0 5 -4l104 -308h10q99 305 99 308q2 4 5 4h107q3 0 2 -4q-1 -2 -46 -125t-93 -255t-55 -149q-17 -46 -33.5 -73.5t-37.5 -39t-37 -14t-48 -2.5h-46z M244 556q-2 -4 -6 -4h-77q-3 0 -2 4l71 141q3 4 7 4h96q6 0 2 -4z" />
<glyph unicode="&#xfe;" horiz-adv-x="528" d="M183 109q67 -20 102 -20q19 0 30.5 2.5t25.5 13t21 35.5t7 65v69q0 39 -6.5 64.5t-20.5 36t-27 14t-33 3.5q-99 0 -99 -55v-228zM179 -180h-103q-4 0 -4 4v852q0 4 4 4h103q4 0 4 -4v-220q2 3 10 9t39.5 14t76.5 8q20 0 31.5 -0.5t32 -4.5t33.5 -11.5t28.5 -22.5 t24.5 -36.5t15.5 -55t6.5 -76.5v-83q0 -42 -7 -75t-16.5 -54t-26 -36t-30 -22t-34.5 -11t-32 -4.5t-31 -0.5q-11 0 -41 5t-55 10l-25 5v-190q0 -4 -4 -4z" />
<glyph unicode="&#xff;" horiz-adv-x="477" d="M69 -180q-3 0 -3 4q0 2 5 44l5 41q0 4 4 4h26q14 0 24 3.5t23.5 19t23.5 44.5l13 39q-166 456 -167 459q-2 4 2 4h108q5 0 5 -4l104 -308h10q99 305 99 308q2 4 5 4h107q3 0 2 -4q-1 -2 -46 -125t-93 -255t-55 -149q-17 -46 -33.5 -73.5t-37.5 -39t-37 -14t-48 -2.5h-46z M110 577q-4 0 -4 4v95q0 4 4 4h84q4 0 4 -4v-95q0 -4 -4 -4h-84zM302 577q-4 0 -4 4v95q0 4 4 4h83q4 0 4 -4v-95q0 -4 -4 -4h-83z" />
<glyph unicode="&#x100;" horiz-adv-x="591" d="M129 0h-112q-4 0 -3 4q8 25 114 347.5t106 324.5q1 4 5 4h126q4 0 5 -4l217 -672q2 -4 -3 -4h-113q-3 0 -4 4l-38 128h-256q-38 -125 -39 -128q-1 -4 -5 -4zM201 226h200l-90 301h-20zM436 788h-271q-4 0 -4 4v76q0 4 4 4h271q4 0 4 -4v-76q0 -4 -4 -4z" />
<glyph unicode="&#x101;" horiz-adv-x="497" d="M234 75q22 0 36.5 1.5t30.5 6t24 15.5t8 28v77q-68 14 -115 14q-30 0 -49 -14.5t-19 -35.5v-31q0 -26 21 -43.5t63 -17.5zM200 -10q-71 0 -111 35t-40 91v52q0 58 43.5 90.5t103.5 32.5q24 0 58 -3.5t56 -7.5l22 -3v52q0 44 -23.5 58.5t-78.5 14.5q-18 0 -38 -1.5 t-35 -3.5t-27.5 -4t-19.5 -3.5t-8 -1.5q-4 -2 -4 3q-1 3 -5.5 19t-8.5 33t-5 19q-2 3 2 5q75 25 161 25q42 0 69.5 -4t60.5 -19t50 -50.5t17 -90.5v-324q0 -4 -4 -4h-99q-4 0 -4 4v16q-24 -30 -132 -30zM389 590h-271q-4 0 -4 4v76q0 4 4 4h271q4 0 4 -4v-76q0 -4 -4 -4z " />
<glyph unicode="&#x102;" horiz-adv-x="591" d="M129 0h-112q-4 0 -3 4q8 25 114 347.5t106 324.5q1 4 5 4h126q4 0 5 -4l217 -672q2 -4 -3 -4h-113q-3 0 -4 4l-38 128h-256q-38 -125 -39 -128q-1 -4 -5 -4zM201 226h200l-90 301h-20zM302 754q-137 0 -137 125q0 6 5 6h47q7 0 9 -5q11 -33 26 -43.5t49 -10.5 q31 0 46.5 11.5t26.5 42.5q2 5 8 5h49q6 0 6 -6q-8 -125 -135 -125z" />
<glyph unicode="&#x103;" horiz-adv-x="497" d="M234 75q22 0 36.5 1.5t30.5 6t24 15.5t8 28v77q-68 14 -115 14q-30 0 -49 -14.5t-19 -35.5v-31q0 -26 21 -43.5t63 -17.5zM200 -10q-71 0 -111 35t-40 91v52q0 58 43.5 90.5t103.5 32.5q24 0 58 -3.5t56 -7.5l22 -3v52q0 44 -23.5 58.5t-78.5 14.5q-18 0 -38 -1.5 t-35 -3.5t-27.5 -4t-19.5 -3.5t-8 -1.5q-4 -2 -4 3q-1 3 -5.5 19t-8.5 33t-5 19q-2 3 2 5q75 25 161 25q42 0 69.5 -4t60.5 -19t50 -50.5t17 -90.5v-324q0 -4 -4 -4h-99q-4 0 -4 4v16q-24 -30 -132 -30zM255 556q-137 0 -137 125q0 6 5 6h47q7 0 9 -5q11 -33 26 -43.5 t49 -10.5q31 0 46.5 11.5t26.5 42.5q2 5 8 5h49q6 0 6 -6q-8 -125 -135 -125z" />
<glyph unicode="&#x104;" horiz-adv-x="591" d="M506 -184q-41 0 -64.5 16.5t-23.5 64.5q0 57 62 103h-9q-3 0 -4 4l-38 128h-256q-38 -125 -39 -128q-1 -4 -5 -4h-112q-4 0 -3 4q8 25 114 347.5t106 324.5q1 4 5 4h126q4 0 5 -4l217 -672q2 -4 -3 -4q-1 0 -1 -1q-42 -28 -61.5 -46.5t-19.5 -37.5q0 -13 5 -17t16 -4 q13 0 28 10q5 2 7 -2l26 -49q4 -5 -1 -9q-28 -28 -77 -28zM201 226h200l-90 301h-20z" />
<glyph unicode="&#x105;" horiz-adv-x="497" d="M358 -184q-41 0 -64.5 16.5t-23.5 64.5q0 58 63 104q-1 0 -1 3v16q-24 -30 -132 -30q-71 0 -111 35t-40 91v52q0 58 43.5 90.5t103.5 32.5q24 0 58 -3.5t56 -7.5l22 -3v52q0 44 -23.5 58.5t-78.5 14.5q-18 0 -38 -1.5t-35 -3.5t-27.5 -4t-19.5 -3.5t-8 -1.5q-4 -2 -4 3 q-1 3 -5.5 19t-8.5 33t-5 19q-2 3 2 5q75 25 161 25q42 0 69.5 -4t60.5 -19t50 -50.5t17 -90.5v-324q0 -4 -3 -4q-1 0 -1 -1q-42 -28 -61.5 -46.5t-19.5 -37.5q0 -13 5 -17t16 -4q13 0 28 10q5 2 7 -2l26 -49q4 -5 -1 -9q-28 -28 -77 -28zM234 75q22 0 36.5 1.5t30.5 6 t24 15.5t8 28v77q-68 14 -115 14q-30 0 -49 -14.5t-19 -35.5v-31q0 -26 21 -43.5t63 -17.5z" />
<glyph unicode="&#x106;" horiz-adv-x="536" d="M305 -10q-42 0 -73 4t-67 18.5t-58.5 40.5t-38 73t-15.5 112v210q0 64 15 110t38 71t58.5 39.5t67 18.5t74.5 4q119 0 177 -29q3 -3 2 -6q0 -1 -8.5 -22t-16 -41.5t-7.5 -21.5q-2 -3 -6 -2q-2 1 -20.5 5t-53.5 8t-67 4q-29 0 -48.5 -4t-42 -17.5t-34 -45.5t-11.5 -83 v-188q0 -92 34 -121t101 -29q22 0 45.5 2.5t42 5.5t33 6t23.5 6l9 2q2 2 4 -2q1 -2 16.5 -43t15.5 -42q2 -4 -2 -5q-3 -3 -20 -10.5t-64 -17.5t-103 -10zM299 754q-2 -4 -6 -4h-77q-3 0 -2 4l71 141q3 4 7 4h96q6 0 2 -4z" />
<glyph unicode="&#x107;" horiz-adv-x="458" d="M260 -8q-37 0 -62 2.5t-55 14t-48 31.5t-30 58t-12 91v109q0 52 13.5 89t33 57t50 31t54.5 13.5t57 2.5q83 0 146 -21q4 -3 3 -6l-22 -73q-2 -3 -5 -3q-24 8 -118 8q-19 0 -34.5 -3.5t-32 -13.5t-25.5 -33t-9 -57v-93q0 -36 8 -59.5t24.5 -33.5t31 -13t36.5 -3 q90 0 123 11q3 0 5 -3q0 -1 11.5 -37.5t11.5 -37.5q2 -3 -2 -5q-69 -23 -153 -23zM260 556q-2 -4 -6 -4h-77q-3 0 -2 4l71 141q3 4 7 4h96q6 0 2 -4z" />
<glyph unicode="&#x108;" horiz-adv-x="536" d="M305 -10q-42 0 -73 4t-67 18.5t-58.5 40.5t-38 73t-15.5 112v210q0 64 15 110t38 71t58.5 39.5t67 18.5t74.5 4q119 0 177 -29q3 -3 2 -6q0 -1 -8.5 -22t-16 -41.5t-7.5 -21.5q-2 -3 -6 -2q-2 1 -20.5 5t-53.5 8t-67 4q-29 0 -48.5 -4t-42 -17.5t-34 -45.5t-11.5 -83 v-188q0 -92 34 -121t101 -29q22 0 45.5 2.5t42 5.5t33 6t23.5 6l9 2q2 2 4 -2q1 -2 16.5 -43t15.5 -42q2 -4 -2 -5q-3 -3 -20 -10.5t-64 -17.5t-103 -10zM241 749h-78q-4 0 -2 4q8 14 45.5 72.5t43.5 69.5q2 3 7 3h91q5 0 8 -4q0 -2 44 -71t44 -70q4 -4 -1 -4h-78q-4 0 -6 4 l-55 77h-4q-51 -74 -53 -77q-4 -4 -6 -4z" />
<glyph unicode="&#x109;" horiz-adv-x="458" d="M260 -8q-37 0 -62 2.5t-55 14t-48 31.5t-30 58t-12 91v109q0 52 13.5 89t33 57t50 31t54.5 13.5t57 2.5q83 0 146 -21q4 -3 3 -6l-22 -73q-2 -3 -5 -3q-24 8 -118 8q-19 0 -34.5 -3.5t-32 -13.5t-25.5 -33t-9 -57v-93q0 -36 8 -59.5t24.5 -33.5t31 -13t36.5 -3 q90 0 123 11q3 0 5 -3q0 -1 11.5 -37.5t11.5 -37.5q2 -3 -2 -5q-69 -23 -153 -23zM196 551h-78q-4 0 -2 4q8 14 45.5 72.5t43.5 69.5q1 3 7 3h91q5 0 8 -4q1 -2 44 -71t44 -70q4 -4 -1 -4h-78q-4 0 -6 4l-55 77h-4q-51 -74 -53 -77q-4 -4 -6 -4z" />
<glyph unicode="&#x10a;" horiz-adv-x="536" d="M305 -10q-42 0 -73 4t-67 18.5t-58.5 40.5t-38 73t-15.5 112v210q0 64 15 110t38 71t58.5 39.5t67 18.5t74.5 4q119 0 177 -29q3 -3 2 -6q0 -1 -8.5 -22t-16 -41.5t-7.5 -21.5q-2 -3 -6 -2q-2 1 -20.5 5t-53.5 8t-67 4q-29 0 -48.5 -4t-42 -17.5t-34 -45.5t-11.5 -83 v-188q0 -92 34 -121t101 -29q22 0 45.5 2.5t42 5.5t33 6t23.5 6l9 2q2 2 4 -2q1 -2 16.5 -43t15.5 -42q2 -4 -2 -5q-3 -3 -20 -10.5t-64 -17.5t-103 -10zM251 770q-4 0 -4 4v100q0 4 4 4h102q4 0 4 -4v-100q0 -4 -5 -4h-101z" />
<glyph unicode="&#x10b;" horiz-adv-x="458" d="M260 -8q-37 0 -62 2.5t-55 14t-48 31.5t-30 58t-12 91v109q0 52 13.5 89t33 57t50 31t54.5 13.5t57 2.5q83 0 146 -21q4 -3 3 -6l-22 -73q-2 -3 -5 -3q-24 8 -118 8q-19 0 -34.5 -3.5t-32 -13.5t-25.5 -33t-9 -57v-93q0 -36 8 -59.5t24.5 -33.5t31 -13t36.5 -3 q90 0 123 11q3 0 5 -3q0 -1 11.5 -37.5t11.5 -37.5q2 -3 -2 -5q-69 -23 -153 -23zM213 572q-4 0 -4 4v100q0 4 4 4h102q4 0 4 -4v-100q0 -4 -5 -4h-101z" />
<glyph unicode="&#x10c;" horiz-adv-x="536" d="M305 -10q-42 0 -73 4t-67 18.5t-58.5 40.5t-38 73t-15.5 112v210q0 64 15 110t38 71t58.5 39.5t67 18.5t74.5 4q119 0 177 -29q3 -3 2 -6q0 -1 -8.5 -22t-16 -41.5t-7.5 -21.5q-2 -3 -6 -2q-2 1 -20.5 5t-53.5 8t-67 4q-29 0 -48.5 -4t-42 -17.5t-34 -45.5t-11.5 -83 v-188q0 -92 34 -121t101 -29q22 0 45.5 2.5t42 5.5t33 6t23.5 6l9 2q2 2 4 -2q1 -2 16.5 -43t15.5 -42q2 -4 -2 -5q-3 -3 -20 -10.5t-64 -17.5t-103 -10zM364 896h82q4 0 1 -4l-101 -141q-4 -4 -7 -4h-73q-4 0 -8 4q-8 13 -51 72t-50 70q-1 3 2 3h81q3 0 6 -4l54 -75h4 q52 72 54 75q3 4 6 4z" />
<glyph unicode="&#x10d;" horiz-adv-x="458" d="M260 -8q-37 0 -62 2.5t-55 14t-48 31.5t-30 58t-12 91v109q0 52 13.5 89t33 57t50 31t54.5 13.5t57 2.5q83 0 146 -21q4 -3 3 -6l-22 -73q-2 -3 -5 -3q-24 8 -118 8q-19 0 -34.5 -3.5t-32 -13.5t-25.5 -33t-9 -57v-93q0 -36 8 -59.5t24.5 -33.5t31 -13t36.5 -3 q90 0 123 11q3 0 5 -3q0 -1 11.5 -37.5t11.5 -37.5q2 -3 -2 -5q-69 -23 -153 -23zM320 698h82q4 0 1 -4l-101 -141q-4 -4 -7 -4h-73q-4 0 -8 4q-8 13 -51 72t-50 70q-1 3 2 3h81q3 0 6 -4l54 -75h4q52 72 54 75q3 4 6 4z" />
<glyph unicode="&#x10e;" horiz-adv-x="594" d="M190 105h113q32 0 52.5 4.5t39.5 19t28 46t9 81.5v171q0 40 -7.5 68.5t-18 44t-29 23.5t-34.5 10t-40 2h-113v-470zM303 0h-229v680h229q28 0 46 -1t46 -6t47 -13.5t41 -26.5t35 -43t22 -64t9 -88v-191q0 -69 -16 -117.5t-38 -73t-59 -38t-64 -16t-69 -2.5zM358 896h82 q4 0 1 -4l-101 -141q-4 -4 -7 -4h-73q-4 0 -8 4q-8 13 -51 72t-50 70q-1 3 2 3h81q3 0 6 -4l54 -75h4q52 72 54 75q3 4 6 4z" />
<glyph unicode="&#x10f;" horiz-adv-x="651" d="M452 0h-103q-4 0 -4 3v22q-12 -14 -46 -24t-80 -10q-24 0 -40.5 1.5t-38.5 8t-37 20t-28.5 35.5t-20.5 58t-7 84v87q0 55 11.5 94.5t28 60t43 31.5t46 13.5t48.5 2.5q17 0 47 -4.5t52 -9.5l22 -5v208q0 4 4 4h103q4 0 4 -4v-672q0 -4 -4 -4zM245 86q100 0 100 59v227 q-69 20 -102 20q-19 0 -31 -3t-25.5 -13.5t-20.5 -35t-7 -63.5v-73q0 -40 7 -65.5t21.5 -36t26.5 -13.5t31 -3zM524 492q-5 -2 -5 4v180q0 4 3 4h87q3 0 3 -4v-116q0 -3 -3 -6z" />
<glyph unicode="&#x110;" horiz-adv-x="605" d="M190 105h114q30 0 48.5 3.5t39.5 17t31 46t10 84.5v171q0 51 -10.5 83t-32.5 45t-39 16t-47 3h-114v-185h103q4 0 4 -4v-83q0 -4 -4 -4h-103v-193zM297 0h-223v298h-41q-4 0 -4 4v83q0 4 4 4h41v291h223q28 0 49 -1.5t49 -6.5t48.5 -15t41.5 -28t34.5 -43t22 -62.5 t8.5 -85.5v-191q0 -50 -9 -90t-22 -65.5t-36 -43.5t-42 -27.5t-48.5 -14t-48 -5.5t-47.5 -1z" />
<glyph unicode="&#x111;" horiz-adv-x="530" d="M245 89q100 0 100 56v227q-67 20 -103 20q-41 0 -62.5 -22.5t-21.5 -92.5v-70q0 -72 22 -95t65 -23zM219 -6q-41 0 -67 6t-52.5 26t-39.5 63.5t-13 111.5v83q0 54 11 93t26.5 60t41 32.5t47 14.5t51.5 3q21 0 51 -5t50 -10l20 -5v81h-117q-4 0 -4 4v72q0 4 5 4h116v47 q0 4 4 4h103q3 0 3 -4v-47h44q5 0 5 -4v-72q0 -4 -4 -4h-45v-544q0 -4 -3 -4h-103q-4 0 -4 3v22q-28 -31 -126 -31z" />
<glyph unicode="&#x112;" horiz-adv-x="529" d="M74 0v680h414q4 0 4 -4v-94q0 -4 -4 -4h-298v-183h252q4 0 4 -4v-93q0 -4 -4 -4h-252v-193h298q4 0 4 -4v-93q0 -4 -4 -4h-414zM418 788h-271q-4 0 -4 4v76q0 4 4 4h271q4 0 4 -4v-76q0 -4 -4 -4z" />
<glyph unicode="&#x113;" horiz-adv-x="493" d="M156 277h184q0 69 -23 93.5t-66 24.5q-46 0 -70.5 -23.5t-24.5 -94.5zM263 -9q-32 0 -57.5 3t-57.5 15.5t-53 34t-36 62t-15 95.5v84q0 205 207 205q30 0 52.5 -2.5t52 -14.5t48.5 -33.5t32.5 -62.5t13.5 -97v-77h-294q0 -73 28 -96t80 -23q22 0 45 1.5t41 3.5t32.5 4 t23.5 3l9 2q3 1 5 -3l18 -72q2 -5 -2 -6q-78 -26 -173 -26zM387 590h-271q-4 0 -4 4v76q0 4 4 4h271q4 0 4 -4v-76q0 -4 -4 -4z" />
<glyph unicode="&#x114;" horiz-adv-x="529" d="M74 0v680h414q4 0 4 -4v-94q0 -4 -4 -4h-298v-183h252q4 0 4 -4v-93q0 -4 -4 -4h-252v-193h298q4 0 4 -4v-93q0 -4 -4 -4h-414zM291 754q-137 0 -137 125q0 6 5 6h47q7 0 9 -5q11 -33 26 -43.5t49 -10.5q31 0 46.5 11.5t26.5 42.5q2 5 8 5h49q6 0 6 -6q-8 -125 -135 -125 z" />
<glyph unicode="&#x115;" horiz-adv-x="493" d="M156 277h184q0 69 -23 93.5t-66 24.5q-46 0 -70.5 -23.5t-24.5 -94.5zM263 -9q-32 0 -57.5 3t-57.5 15.5t-53 34t-36 62t-15 95.5v84q0 205 207 205q30 0 52.5 -2.5t52 -14.5t48.5 -33.5t32.5 -62.5t13.5 -97v-77h-294q0 -73 28 -96t80 -23q22 0 45 1.5t41 3.5t32.5 4 t23.5 3l9 2q3 1 5 -3l18 -72q2 -5 -2 -6q-78 -26 -173 -26zM256 556q-137 0 -137 125q0 6 5 6h47q7 0 9 -5q11 -33 26 -43.5t49 -10.5q31 0 46.5 11.5t26.5 42.5q2 5 8 5h49q6 0 6 -6q-8 -125 -135 -125z" />
<glyph unicode="&#x116;" horiz-adv-x="529" d="M74 0v680h414q4 0 4 -4v-94q0 -4 -4 -4h-298v-183h252q4 0 4 -4v-93q0 -4 -4 -4h-252v-193h298q4 0 4 -4v-93q0 -4 -4 -4h-414zM247 770q-4 0 -4 4v100q0 4 4 4h102q4 0 4 -4v-100q0 -4 -5 -4h-101z" />
<glyph unicode="&#x117;" horiz-adv-x="493" d="M263 -9q-32 0 -57.5 3t-57.5 15.5t-53 34t-36 62t-15 95.5v84q0 205 207 205q30 0 52.5 -2.5t52 -14.5t48.5 -33.5t32.5 -62.5t13.5 -97v-77h-294q0 -73 28 -96t80 -23q22 0 45 1.5t41 3.5t32.5 4t23.5 3l9 2q3 1 5 -3l18 -72q2 -5 -2 -6q-78 -26 -173 -26zM156 277h184 q0 69 -23 93.5t-66 24.5q-46 0 -70.5 -23.5t-24.5 -94.5zM205 572q-4 0 -4 4v100q0 4 4 4h102q4 0 4 -4v-100q0 -4 -5 -4h-101z" />
<glyph unicode="&#x118;" horiz-adv-x="529" d="M74 0v680h414q4 0 4 -4v-94q0 -4 -4 -4h-298v-183h252q4 0 4 -4v-93q0 -4 -4 -4h-252v-193h298q4 0 4 -4v-93q0 -2 -2 -4q-2 0 -2 -1q-42 -28 -61.5 -46.5t-19.5 -37.5q0 -13 5 -17t16 -4q13 0 28 10q5 2 7 -2l26 -49q4 -5 -1 -9q-28 -28 -77 -28q-41 0 -64.5 16.5 t-23.5 64.5q0 57 62 103h-311z" />
<glyph unicode="&#x119;" horiz-adv-x="493" d="M246 -187q-41 0 -64.5 16.5t-23.5 64.5q0 55 57 99q-171 17 -171 208v84q0 205 207 205q30 0 52.5 -2.5t52 -14.5t48.5 -33.5t32.5 -62.5t13.5 -97v-77h-294q0 -73 28 -96t80 -23q22 0 45 1.5t41 3.5t32.5 4t23.5 3l9 2q3 1 5 -3l18 -72q2 -5 -2 -6q-53 -18 -117 -23 q-40 -27 -58.5 -45t-18.5 -37q0 -13 5 -17t16 -4q13 0 28 10q5 2 7 -2l26 -49q4 -6 -1 -9q-28 -28 -77 -28zM156 277h184q0 69 -23 93.5t-66 24.5q-46 0 -70.5 -23.5t-24.5 -94.5z" />
<glyph unicode="&#x11a;" horiz-adv-x="529" d="M74 0v680h414q4 0 4 -4v-94q0 -4 -4 -4h-298v-183h252q4 0 4 -4v-93q0 -4 -4 -4h-252v-193h298q4 0 4 -4v-93q0 -4 -4 -4h-414zM355 896h82q4 0 1 -4l-101 -141q-4 -4 -7 -4h-73q-4 0 -8 4q-8 13 -51 72t-50 70q-2 3 2 3h81q3 0 6 -4l54 -75h4q52 72 54 75q3 4 6 4z" />
<glyph unicode="&#x11b;" horiz-adv-x="493" d="M156 277h184q0 69 -23 93.5t-66 24.5q-46 0 -70.5 -23.5t-24.5 -94.5zM263 -9q-32 0 -57.5 3t-57.5 15.5t-53 34t-36 62t-15 95.5v84q0 205 207 205q30 0 52.5 -2.5t52 -14.5t48.5 -33.5t32.5 -62.5t13.5 -97v-77h-294q0 -73 28 -96t80 -23q22 0 45 1.5t41 3.5t32.5 4 t23.5 3l9 2q3 1 5 -3l18 -72q2 -5 -2 -6q-78 -26 -173 -26zM316 698h82q4 0 1 -4l-101 -141q-4 -4 -7 -4h-73q-4 0 -8 4q-8 13 -51 72t-50 70q-1 3 2 3h81q3 0 6 -4l54 -75h4q52 72 54 75q3 4 6 4z" />
<glyph unicode="&#x11c;" horiz-adv-x="588" d="M301 -10q-41 0 -70.5 3.5t-65.5 18t-58 40t-37.5 73t-15.5 113.5v210q0 48 9 86t22.5 63t35.5 43t42.5 27.5t48.5 15t48 6.5t47 1q54 0 105.5 -7t75 -13.5t26.5 -8.5t2 -6l-27 -83q-1 -3 -5 -3q-3 1 -28.5 5t-69.5 8t-78 4q-29 0 -48 -3.5t-42 -17t-35 -45.5t-12 -83 v-190q0 -50 10 -82t30 -46.5t40 -19t50 -4.5l134 9v168h-98q-4 0 -4 4v89q0 4 4 4h198v-357q-165 -22 -234 -22zM250 749h-78q-4 0 -2 4q8 14 45.5 72.5t43.5 69.5q1 3 7 3h91q5 0 8 -4q1 -2 44 -71t44 -70q4 -4 -1 -4h-78q-4 0 -6 4l-55 77h-4q-51 -74 -53 -77q-4 -4 -6 -4 z" />
<glyph unicode="&#x11d;" horiz-adv-x="511" d="M236 88q15 0 40.5 5t43.5 9l19 5v229q0 56 -100 56q-20 0 -32.5 -3t-26 -14t-20.5 -36t-7 -65v-70q0 -72 21 -94t62 -22zM238 -203q-102 0 -171 23q-4 2 -2 5q0 1 12 38t13 39q1 4 4 3q56 -14 140 -14q25 0 40.5 2.5t32 10.5t24.5 26t8 46v38q-80 -18 -121 -18 q-40 0 -65.5 5.5t-54 23.5t-43 61t-14.5 110v84q0 68 13.5 112t40.5 63.5t53 25.5t65 6q98 0 126 -31v22q0 4 4 4h103q4 0 4 -4v-502q0 -50 -13.5 -84.5t-32 -53t-50.5 -28t-55.5 -11.5t-60.5 -2zM197 551h-78q-4 0 -2 4q8 14 45.5 72.5t43.5 69.5q2 3 7 3h91q5 0 8 -4 q0 -2 44 -71t44 -70q4 -4 -1 -4h-78q-4 0 -6 4l-55 77h-4q-51 -74 -53 -77q-4 -4 -6 -4z" />
<glyph unicode="&#x11e;" horiz-adv-x="588" d="M301 -10q-41 0 -70.5 3.5t-65.5 18t-58 40t-37.5 73t-15.5 113.5v210q0 48 9 86t22.5 63t35.5 43t42.5 27.5t48.5 15t48 6.5t47 1q54 0 105.5 -7t75 -13.5t26.5 -8.5t2 -6l-27 -83q-1 -3 -5 -3q-3 1 -28.5 5t-69.5 8t-78 4q-29 0 -48 -3.5t-42 -17t-35 -45.5t-12 -83 v-190q0 -50 10 -82t30 -46.5t40 -19t50 -4.5l134 9v168h-98q-4 0 -4 4v89q0 4 4 4h198v-357q-165 -22 -234 -22zM307 754q-137 0 -137 125q0 6 5 6h47q7 0 9 -5q11 -33 26 -43.5t49 -10.5q31 0 46.5 11.5t26.5 42.5q2 5 8 5h49q6 0 6 -6q-8 -125 -135 -125z" />
<glyph unicode="&#x11f;" horiz-adv-x="511" d="M236 88q15 0 40.5 5t43.5 9l19 5v229q0 56 -100 56q-20 0 -32.5 -3t-26 -14t-20.5 -36t-7 -65v-70q0 -72 21 -94t62 -22zM238 -203q-102 0 -171 23q-4 2 -2 5q0 1 12 38t13 39q1 4 4 3q56 -14 140 -14q25 0 40.5 2.5t32 10.5t24.5 26t8 46v38q-80 -18 -121 -18 q-40 0 -65.5 5.5t-54 23.5t-43 61t-14.5 110v84q0 68 13.5 112t40.5 63.5t53 25.5t65 6q98 0 126 -31v22q0 4 4 4h103q4 0 4 -4v-502q0 -50 -13.5 -84.5t-32 -53t-50.5 -28t-55.5 -11.5t-60.5 -2zM258 556q-137 0 -137 125q0 6 5 6h47q7 0 9 -5q11 -33 26 -43.5t49 -10.5 q31 0 46.5 11.5t26.5 42.5q2 5 8 5h49q6 0 6 -6q-8 -125 -135 -125z" />
<glyph unicode="&#x120;" horiz-adv-x="588" d="M301 -10q-41 0 -70.5 3.5t-65.5 18t-58 40t-37.5 73t-15.5 113.5v210q0 48 9 86t22.5 63t35.5 43t42.5 27.5t48.5 15t48 6.5t47 1q54 0 105.5 -7t75 -13.5t26.5 -8.5t2 -6l-27 -83q-1 -3 -5 -3q-3 1 -28.5 5t-69.5 8t-78 4q-29 0 -48 -3.5t-42 -17t-35 -45.5t-12 -83 v-190q0 -50 10 -82t30 -46.5t40 -19t50 -4.5l134 9v168h-98q-4 0 -4 4v89q0 4 4 4h198v-357q-165 -22 -234 -22zM249 770q-4 0 -4 4v100q0 4 4 4h102q4 0 4 -4v-100q0 -4 -5 -4h-101z" />
<glyph unicode="&#x121;" horiz-adv-x="511" d="M238 -203q-102 0 -171 23q-4 2 -2 5q0 1 12 38t13 39q1 4 4 3q56 -14 140 -14q25 0 40.5 2.5t32 10.5t24.5 26t8 46v38q-80 -18 -121 -18q-40 0 -65.5 5.5t-54 23.5t-43 61t-14.5 110v84q0 68 13.5 112t40.5 63.5t53 25.5t65 6q98 0 126 -31v22q0 4 4 4h103q4 0 4 -4 v-502q0 -50 -13.5 -84.5t-32 -53t-50.5 -28t-55.5 -11.5t-60.5 -2zM236 88q15 0 40.5 5t43.5 9l19 5v229q0 56 -100 56q-20 0 -32.5 -3t-26 -14t-20.5 -36t-7 -65v-70q0 -72 21 -94t62 -22zM206 572q-4 0 -4 4v100q0 4 4 4h102q4 0 4 -4v-100q0 -4 -5 -4h-101z" />
<glyph unicode="&#x122;" horiz-adv-x="588" d="M301 -10q-41 0 -70.5 3.5t-65.5 18t-58 40t-37.5 73t-15.5 113.5v210q0 48 9 86t22.5 63t35.5 43t42.5 27.5t48.5 15t48 6.5t47 1q54 0 105.5 -7t75 -13.5t26.5 -8.5t2 -6l-27 -83q-1 -3 -5 -3q-3 1 -28.5 5t-69.5 8t-78 4q-29 0 -48 -3.5t-42 -17t-35 -45.5t-12 -83 v-190q0 -50 10 -82t30 -46.5t40 -19t50 -4.5l134 9v168h-98q-4 0 -4 4v89q0 4 4 4h198v-357q-165 -22 -234 -22zM267 -259q-5 -3 -5 4v180q0 4 3 4h87q3 0 3 -4v-116q0 -3 -3 -6z" />
<glyph unicode="&#x123;" horiz-adv-x="511" d="M238 -203q-102 0 -171 23q-4 2 -2 5q0 1 12 38t13 39q1 4 4 3q56 -14 140 -14q25 0 40.5 2.5t32 10.5t24.5 26t8 46v38q-80 -18 -121 -18q-40 0 -65.5 5.5t-54 23.5t-43 61t-14.5 110v84q0 68 13.5 112t40.5 63.5t53 25.5t65 6q98 0 126 -31v22q0 4 4 4h103q4 0 4 -4 v-502q0 -50 -13.5 -84.5t-32 -53t-50.5 -28t-55.5 -11.5t-60.5 -2zM236 88q15 0 40.5 5t43.5 9l19 5v229q0 56 -100 56q-20 0 -32.5 -3t-26 -14t-20.5 -36t-7 -65v-70q0 -72 21 -94t62 -22zM290 758q5 2 5 -4v-180q0 -4 -3 -4h-87q-3 0 -3 4v116q0 3 3 6z" />
<glyph unicode="&#x124;" horiz-adv-x="622" d="M78 0q-4 0 -4 4v672q0 4 4 4h108q4 0 4 -4v-284h252v284q0 4 4 4h108q4 0 4 -4v-672q0 -4 -4 -4h-108q-4 0 -4 4v288h-252v-288q0 -4 -4 -4h-108zM254 749h-78q-4 0 -2 4q8 14 45.5 72.5t43.5 69.5q1 3 7 3h91q5 0 8 -4q1 -2 44 -71t44 -70q4 -4 -1 -4h-78q-4 0 -6 4 l-55 77h-4q-51 -74 -53 -77q-4 -4 -6 -4z" />
<glyph unicode="&#x125;" horiz-adv-x="529" d="M76 0q-4 0 -4 4v672q0 4 4 4h103q4 0 4 -4v-215q82 26 124 26q35 0 58.5 -4.5t51.5 -20.5t42.5 -55t14.5 -99v-304q0 -4 -4 -4h-103q-4 0 -4 4v298q0 57 -18 74t-56 17q-16 0 -42.5 -6.5t-44.5 -12.5l-19 -6v-364q0 -4 -4 -4h-103zM208 749h-78q-4 0 -2 4q8 14 45.5 72.5 t43.5 69.5q1 3 7 3h91q5 0 8 -4q1 -2 44 -71t44 -70q4 -4 -1 -4h-78q-4 0 -6 4l-55 77h-4q-51 -74 -53 -77q-4 -4 -6 -4z" />
<glyph unicode="&#x128;" horiz-adv-x="254" d="M78 0q-4 0 -4 4v672q0 4 4 4h108q4 0 4 -4v-672q0 -4 -4 -4h-108zM-1 775q-3 0 -3 5v56q0 10 5 15q29 35 72 35q26 0 64 -19t59 -19q22 0 44 17.5t23 17.5q4 0 4 -5v-55q0 -10 -5 -16q-32 -37 -73 -37q-27 0 -64 20t-56 20q-23 0 -46 -17.5t-24 -17.5z" />
<glyph unicode="&#x129;" horiz-adv-x="245" d="M70 0q-3 0 -3 4v474q0 4 3 4h104q3 0 3 -4v-474q0 -4 -3 -4h-104zM-5 577q-3 0 -3 5v56q0 10 5 15q29 35 72 35q26 0 64 -19t59 -19q22 0 44 17.5t23 17.5q4 0 4 -5v-55q0 -10 -5 -16q-32 -37 -73 -37q-27 0 -64 20t-56 20q-23 0 -46 -17.5t-24 -17.5z" />
<glyph unicode="&#x12a;" horiz-adv-x="254" d="M78 0q-4 0 -4 4v672q0 4 4 4h108q4 0 4 -4v-672q0 -4 -4 -4h-108zM268 788h-271q-4 0 -4 4v76q0 4 4 4h271q4 0 4 -4v-76q0 -4 -4 -4z" />
<glyph unicode="&#x12b;" horiz-adv-x="245" d="M70 0q-3 0 -3 4v474q0 4 3 4h104q3 0 3 -4v-474q0 -4 -3 -4h-104zM263 590h-271q-4 0 -4 4v76q0 4 4 4h271q4 0 4 -4v-76q0 -4 -4 -4z" />
<glyph unicode="&#x12e;" horiz-adv-x="254" d="M78 0q-4 0 -4 4v672q0 4 4 4h108q4 0 4 -4v-672q0 -4 -4 -4h-2q-41 -27 -60 -45.5t-19 -37.5q0 -13 5 -17t16 -4q13 0 28 10q5 2 7 -2l26 -49q4 -5 -1 -9q-28 -28 -77 -28q-41 0 -64.5 16.5t-23.5 64.5q0 57 59 101h-2z" />
<glyph unicode="&#x12f;" horiz-adv-x="245" d="M76 0q-4 0 -4 4v474q0 4 4 4h103q4 0 4 -4v-474q0 -2 -2 -4q-2 0 -2 -1q-42 -28 -61.5 -46.5t-19.5 -37.5q0 -13 5 -17t16 -4q13 0 28 10q5 2 7 -2l26 -49q4 -5 -1 -9q-28 -28 -77 -28q-41 0 -64.5 16.5t-23.5 64.5q0 57 62 103zM74 578q-4 0 -4 4v94q0 4 4 4h107 q3 0 3 -4v-94q0 -4 -3 -4h-107z" />
<glyph unicode="&#x130;" horiz-adv-x="254" d="M78 0q-4 0 -4 4v672q0 4 4 4h108q4 0 4 -4v-672q0 -4 -4 -4h-108zM82 770q-4 0 -4 4v100q0 4 4 4h102q4 0 4 -4v-100q0 -4 -5 -4h-101z" />
<glyph unicode="&#x131;" horiz-adv-x="245" d="M70 0q-3 0 -3 4v474q0 4 3 4h104q3 0 3 -4v-474q0 -4 -3 -4h-104z" />
<glyph unicode="&#x134;" horiz-adv-x="473" d="M199 -10q-94 0 -160 22q-3 1 -1 6l25 86q2 4 5 2q2 -1 20.5 -3t49.5 -4.5t57 -2.5q31 0 50.5 4.5t35.5 25t16 57.5v493q0 4 4 4h108q3 0 3 -4v-501q0 -51 -13.5 -87t-33 -54.5t-51 -29t-55.5 -12.5t-60 -2zM292 749h-78q-4 0 -2 4q8 14 45.5 72.5t43.5 69.5q1 3 7 3h91 q5 0 8 -4q1 -2 44.5 -71t43.5 -70q4 -4 -1 -4h-78q-4 0 -6 4l-55 77h-4q-51 -74 -53 -77q-4 -4 -6 -4z" />
<glyph unicode="&#x136;" horiz-adv-x="584" d="M78 0q-4 0 -4 4v672q0 4 4 4h108q4 0 4 -4v-283h36q190 279 192 283q3 4 6 4h124q3 0 1 -4l-229 -331q242 -339 244 -341q3 -4 -1 -4h-124q-3 0 -7 4l-201 288h-41v-288q0 -4 -4 -4h-108zM256 -259q-5 -3 -5 4v180q0 4 3 4h87q3 0 3 -4v-116q0 -3 -3 -6z" />
<glyph unicode="&#x137;" horiz-adv-x="502" d="M76 0q-4 0 -4 4v672q0 4 4 4h103q4 0 4 -4v-378h37q117 177 119 180q3 4 6 4h118q6 0 2 -4l-153 -226q174 -246 176 -248q2 -4 -1 -4h-122q-3 0 -6 4l-140 201h-36v-201q0 -4 -4 -4h-103zM214 -259q-5 -3 -5 4v180q0 4 3 4h87q3 0 3 -4v-116q0 -3 -3 -6z" />
<glyph unicode="&#x139;" horiz-adv-x="509" d="M74 0v676q0 4 4 4h108q4 0 4 -4v-575h298q4 0 4 -4v-93q0 -4 -4 -4h-414zM256 754q-2 -4 -6 -4h-77q-3 0 -2 4l71 141q3 4 7 4h96q6 0 2 -4z" />
<glyph unicode="&#x13a;" horiz-adv-x="286" d="M216 -6q-39 0 -61.5 4.5t-44 20t-30.5 49.5t-9 91v517q0 4 4 4h102q4 0 4 -4v-518q0 -42 12 -56t34 -14q7 0 18.5 1t20.5 1.5t10 0.5q4 0 4 -3q0 -1 6 -40.5t7 -40.5q0 -3 -3 -5q-24 -8 -74 -8zM159 754q-2 -4 -6 -4h-77q-3 0 -2 4l71 141q3 4 7 4h96q6 0 2 -4z" />
<glyph unicode="&#x13b;" horiz-adv-x="509" d="M74 0v676q0 4 4 4h108q4 0 4 -4v-575h298q4 0 4 -4v-93q0 -4 -4 -4h-414zM238 -259q-5 -3 -5 4v180q0 4 3 4h87q3 0 3 -4v-116q0 -3 -3 -6z" />
<glyph unicode="&#x13c;" horiz-adv-x="286" d="M216 -6q-39 0 -61.5 4.5t-44 20t-30.5 49.5t-9 91v517q0 4 4 4h102q4 0 4 -4v-518q0 -42 12 -56t34 -14q7 0 18.5 1t20.5 1.5t10 0.5q4 0 4 -3q0 -1 6 -40.5t7 -40.5q0 -3 -3 -5q-24 -8 -74 -8zM130 -259q-5 -3 -5 4v180q0 4 3 4h87q3 0 3 -4v-116q0 -3 -3 -6z" />
<glyph unicode="&#x13d;" horiz-adv-x="509" d="M74 0v676q0 4 4 4h108q4 0 4 -4v-575h298q4 0 4 -4v-93q0 -4 -4 -4h-414zM264 562q-5 -2 -5 4v180q0 4 3 4h87q3 0 3 -4v-116q0 -3 -3 -6z" />
<glyph unicode="&#x13e;" horiz-adv-x="415" d="M216 -6q-39 0 -61.5 4.5t-44 20t-30.5 49.5t-9 91v517q0 4 4 4h102q4 0 4 -4v-518q0 -42 12 -56t34 -14q7 0 18.5 1t20.5 1.5t10 0.5q4 0 4 -3q0 -1 6 -40.5t7 -40.5q0 -3 -3 -5q-24 -8 -74 -8zM277 492q-5 -2 -5 4v180q0 4 3 4h87q3 0 3 -4v-116q0 -3 -3 -6z" />
<glyph unicode="&#x141;" horiz-adv-x="521" d="M74 0v261q-48 -31 -50 -32q-4 -2 -4 3v93q0 6 4 7l50 31v313q0 4 4 4h108q4 0 4 -4v-246q137 84 138 85t2 0t1 -3v-93q0 -4 -3 -7l-138 -84v-227h298q4 0 4 -4v-93q0 -4 -4 -4h-414z" />
<glyph unicode="&#x142;" horiz-adv-x="305" d="M215 -6q-39 0 -61.5 4.5t-44 20t-30.5 50t-9 90.5v126q-39 -24 -40 -25q-4 0 -4 3v87q0 5 4 6l40 25v295q0 4 3 4h103q4 0 4 -4v-231q65 41 67 41q1 1 2 0.5t1 -3.5v-86q0 -5 -3 -7l-67 -41v-191q0 -43 12 -56.5t34 -13.5q8 0 19.5 1t20.5 1l8 1q4 1 5 -3q0 -1 6 -40.5 t6 -40.5q2 -5 -3 -5l-5 -1q-5 -1 -12.5 -2t-16.5 -2t-19.5 -2t-19.5 -1z" />
<glyph unicode="&#x143;" horiz-adv-x="633" d="M76 0q-4 0 -4 4v672q0 4 4 4h127q5 0 6 -4l240 -471h12v471q0 4 4 4h106q4 0 4 -4v-672q0 -4 -4 -4h-129q-4 0 -5 4l-240 473h-12v-473q0 -4 -4 -4h-105zM318 754q-2 -4 -6 -4h-77q-3 0 -2 4l71 141q3 4 7 4h96q6 0 2 -4z" />
<glyph unicode="&#x144;" horiz-adv-x="529" d="M76 0q-4 0 -4 4v474q0 4 4 4h103q4 0 4 -4v-17q83 26 124 26q28 0 46.5 -2t43.5 -12t39.5 -28t25.5 -53t11 -84v-304q0 -4 -4 -4h-102q-4 0 -4 4v298q0 57 -17.5 74t-55.5 17q-16 0 -43 -6.5t-45 -12.5l-19 -6v-364q0 -4 -4 -4h-103zM271 556q-2 -4 -6 -4h-77q-3 0 -2 4 l71 141q3 4 7 4h96q6 0 2 -4z" />
<glyph unicode="&#x145;" horiz-adv-x="633" d="M76 0q-4 0 -4 4v672q0 4 4 4h127q5 0 6 -4l240 -471h12v471q0 4 4 4h106q4 0 4 -4v-672q0 -4 -4 -4h-129q-4 0 -5 4l-240 473h-12v-473q0 -4 -4 -4h-105zM289 -259q-5 -3 -5 4v180q0 4 3 4h87q3 0 3 -4v-116q0 -3 -3 -6z" />
<glyph unicode="&#x146;" horiz-adv-x="529" d="M76 0q-4 0 -4 4v474q0 4 4 4h103q4 0 4 -4v-17q83 26 124 26q28 0 46.5 -2t43.5 -12t39.5 -28t25.5 -53t11 -84v-304q0 -4 -4 -4h-102q-4 0 -4 4v298q0 57 -17.5 74t-55.5 17q-16 0 -43 -6.5t-45 -12.5l-19 -6v-364q0 -4 -4 -4h-103zM235 -259q-5 -3 -5 4v180q0 4 3 4h87 q3 0 3 -4v-116q0 -3 -3 -6z" />
<glyph unicode="&#x147;" horiz-adv-x="633" d="M76 0q-4 0 -4 4v672q0 4 4 4h127q5 0 6 -4l240 -471h12v471q0 4 4 4h106q4 0 4 -4v-672q0 -4 -4 -4h-129q-4 0 -5 4l-240 473h-12v-473q0 -4 -4 -4h-105zM383 896h82q4 0 1 -4l-101 -141q-4 -4 -7 -4h-73q-4 0 -8 4q-8 13 -51 72t-50 70q-2 3 2 3h81q3 0 6 -4l54 -75h4 q52 72 54 75q3 4 6 4z" />
<glyph unicode="&#x148;" horiz-adv-x="529" d="M76 0q-4 0 -4 4v474q0 4 4 4h103q4 0 4 -4v-17q83 26 124 26q28 0 46.5 -2t43.5 -12t39.5 -28t25.5 -53t11 -84v-304q0 -4 -4 -4h-102q-4 0 -4 4v298q0 57 -17.5 74t-55.5 17q-16 0 -43 -6.5t-45 -12.5l-19 -6v-364q0 -4 -4 -4h-103zM331 698h82q4 0 1 -4l-101 -141 q-4 -4 -7 -4h-73q-4 0 -8 4q-8 13 -51 72t-50 70q-2 3 2 3h81q3 0 6 -4l54 -75h4q52 72 54 75q3 4 6 4z" />
<glyph unicode="&#x14c;" horiz-adv-x="588" d="M298 94q32 0 52 4.5t39.5 19t28.5 46.5t9 82v190q0 49 -9.5 80.5t-29 45.5t-39 18.5t-51.5 4.5q-31 0 -50.5 -4.5t-39 -18.5t-29 -45.5t-9.5 -80.5v-190q0 -51 9.5 -83t29.5 -46t39 -18.5t50 -4.5zM298 -11q-41 0 -69 3t-64.5 17t-58.5 39t-37.5 73t-15.5 116v210 q0 47 8 84.5t20.5 63t32.5 43.5t39 28t46.5 15.5t48.5 7t50 1.5q33 0 56.5 -2t55 -9t53 -23.5t41.5 -42t30 -68t10 -98.5v-210q0 -50 -8 -89t-20.5 -65t-33.5 -44t-40 -27.5t-47 -15t-48 -6.5t-49 -1zM434 788h-271q-4 0 -4 4v76q0 4 4 4h271q4 0 4 -4v-76q0 -4 -4 -4z" />
<glyph unicode="&#x14d;" horiz-adv-x="499" d="M252 87q23 0 37 3t29 14t22 36t7 65v75q0 73 -23 94.5t-70 21.5t-72 -22t-25 -94v-75q0 -75 23.5 -96.5t71.5 -21.5zM252 -8q-37 0 -62.5 3t-55 15t-47 33.5t-29.5 61t-12 94.5v88q0 45 7.5 79.5t23 56.5t33.5 36t44 20.5t48 9t52 2.5q36 0 60 -2.5t54 -14t48 -32 t30.5 -60t12.5 -94.5v-89q0 -56 -12 -96t-30 -61t-48 -33t-55 -14.5t-62 -2.5zM390 590h-271q-4 0 -4 4v76q0 4 4 4h271q4 0 4 -4v-76q0 -4 -4 -4z" />
<glyph unicode="&#x14e;" horiz-adv-x="588" d="M298 94q32 0 52 4.5t39.5 19t28.5 46.5t9 82v190q0 49 -9.5 80.5t-29 45.5t-39 18.5t-51.5 4.5q-31 0 -50.5 -4.5t-39 -18.5t-29 -45.5t-9.5 -80.5v-190q0 -51 9.5 -83t29.5 -46t39 -18.5t50 -4.5zM298 -11q-41 0 -69 3t-64.5 17t-58.5 39t-37.5 73t-15.5 116v210 q0 47 8 84.5t20.5 63t32.5 43.5t39 28t46.5 15.5t48.5 7t50 1.5q33 0 56.5 -2t55 -9t53 -23.5t41.5 -42t30 -68t10 -98.5v-210q0 -50 -8 -89t-20.5 -65t-33.5 -44t-40 -27.5t-47 -15t-48 -6.5t-49 -1zM301 754q-137 0 -137 125q0 6 5 6h47q7 0 9 -5q11 -33 26 -43.5 t49 -10.5q31 0 46.5 11.5t26.5 42.5q2 5 8 5h49q6 0 6 -6q-8 -125 -135 -125z" />
<glyph unicode="&#x14f;" horiz-adv-x="499" d="M252 87q23 0 37 3t29 14t22 36t7 65v75q0 73 -23 94.5t-70 21.5t-72 -22t-25 -94v-75q0 -75 23.5 -96.5t71.5 -21.5zM252 -8q-37 0 -62.5 3t-55 15t-47 33.5t-29.5 61t-12 94.5v88q0 45 7.5 79.5t23 56.5t33.5 36t44 20.5t48 9t52 2.5q36 0 60 -2.5t54 -14t48 -32 t30.5 -60t12.5 -94.5v-89q0 -56 -12 -96t-30 -61t-48 -33t-55 -14.5t-62 -2.5zM256 556q-137 0 -137 125q0 6 5 6h47q7 0 9 -5q11 -33 26 -43.5t49 -10.5q31 0 46.5 11.5t26.5 42.5q2 5 8 5h49q6 0 6 -6q-8 -125 -135 -125z" />
<glyph unicode="&#x150;" horiz-adv-x="588" d="M298 -11q-41 0 -69 3t-64.5 17t-58.5 39t-37.5 73t-15.5 116v210q0 47 8 84.5t20.5 63t32.5 43.5t39 28t46.5 15.5t48.5 7t50 1.5q33 0 56.5 -2t55 -9t53 -23.5t41.5 -42t30 -68t10 -98.5v-210q0 -50 -8 -89t-20.5 -65t-33.5 -44t-40 -27.5t-47 -15t-48 -6.5t-49 -1z M298 94q32 0 52 4.5t39.5 19t28.5 46.5t9 82v190q0 49 -9.5 80.5t-29 45.5t-39 18.5t-51.5 4.5q-31 0 -50.5 -4.5t-39 -18.5t-29 -45.5t-9.5 -80.5v-190q0 -51 9.5 -83t29.5 -46t39 -18.5t50 -4.5zM241 753q-1 -4 -6 -4h-78q-3 0 -2 4q1 1 36 69.5t36 71.5q1 4 6 4h97 q5 0 2 -4zM390 753q-1 -4 -5 -4h-78q-3 0 -2 4q1 1 36 69.5t36 71.5q1 4 6 4h97q4 0 1 -4z" />
<glyph unicode="&#x151;" horiz-adv-x="499" d="M252 -8q-37 0 -62.5 3t-55 15t-47 33.5t-29.5 61t-12 94.5v88q0 45 7.5 79.5t23 56.5t33.5 36t44 20.5t48 9t52 2.5q36 0 60 -2.5t54 -14t48 -32t30.5 -60t12.5 -94.5v-89q0 -56 -12 -96t-30 -61t-48 -33t-55 -14.5t-62 -2.5zM252 87q23 0 37 3t29 14t22 36t7 65v75 q0 73 -23 94.5t-70 21.5t-72 -22t-25 -94v-75q0 -75 23.5 -96.5t71.5 -21.5zM203 555q-1 -4 -6 -4h-78q-3 0 -2 4q1 1 36 69.5t36 71.5q1 4 6 4h97q5 0 2 -4zM352 555q-1 -4 -5 -4h-78q-3 0 -2 4q1 1 36 69.5t36 71.5q1 4 6 4h97q4 0 1 -4z" />
<glyph unicode="&#x152;" horiz-adv-x="893" d="M300 99q29 0 48.5 5t40 20t30.5 49.5t10 87.5v161q0 53 -11 87t-32.5 48.5t-40 18.5t-45.5 4q-29 0 -47.5 -4t-39.5 -18t-31.5 -47t-10.5 -84v-171q0 -53 10.5 -86.5t31.5 -48t39.5 -18.5t47.5 -4zM299 -3q-40 0 -68 3t-64 17.5t-58.5 39.5t-38.5 74t-16 117v189 q0 48 8 86t20.5 63.5t33 43.5t40 28t46.5 15.5t48 7t49 1.5q77 0 130 -39v37h414q3 0 3 -4v-94q0 -4 -3 -4h-298v-183h252q4 0 4 -4v-93q0 -4 -4 -4h-252v-193h298q3 0 3 -3v-94q0 -4 -3 -4h-414v37q-57 -40 -130 -40z" />
<glyph unicode="&#x153;" horiz-adv-x="804" d="M255 89q21 0 35.5 3.5t29.5 14t23 36t8 65.5v71q0 71 -25 92t-69 21q-22 0 -36 -3t-30 -13.5t-23.5 -35t-7.5 -63.5v-69q0 -73 23.5 -96t71.5 -23zM463 277h184q0 69 -23 92t-67 23q-46 0 -70 -23t-24 -92zM255 -6q-48 0 -80.5 7t-63.5 27t-46.5 63.5t-15.5 110.5v81 q0 55 12.5 94t31 60t48.5 32.5t55 14.5t61 3q98 0 147 -54q28 27 62 40.5t91 13.5q32 0 55 -3t52 -14.5t47.5 -33t31.5 -61.5t13 -95v-77h-293q2 -68 25 -92t83 -24q21 0 44 1.5t40.5 3.5t32.5 4.5t24 3.5l8 2q3 2 5 -3l21 -73q0 -4 -3 -5q-81 -27 -173 -27q-118 0 -165 57 q-55 -57 -150 -57z" />
<glyph unicode="&#x154;" horiz-adv-x="591" d="M185 0h-107q-4 0 -4 4v676h245q32 0 56.5 -2.5t57.5 -13t54 -29.5t36.5 -56t15.5 -88v-52q0 -128 -101 -168l121 -267q1 -4 -2 -4h-120q-5 0 -6 4l-106 247h-136v-247q0 -4 -4 -4zM189 353h125q110 0 110 90v46q0 29 -9.5 48t-27.5 27.5t-34 11t-38 2.5h-126v-225z M297 754q-2 -4 -6 -4h-77q-3 0 -2 4l71 141q3 4 7 4h96q6 0 2 -4z" />
<glyph unicode="&#x155;" horiz-adv-x="396" d="M76 0q-4 0 -4 4v474q0 4 4 4h103q4 0 4 -4v-20q60 29 101 29q26 0 49.5 -4t33.5 -7.5t13 -5.5q4 -1 2 -5q0 -1 -12 -38t-12 -38q-1 -4 -5 -3q-24 8 -79 8q-16 0 -39 -8t-37 -16l-15 -7v-359q0 -4 -4 -4h-103zM207 556q-2 -4 -6 -4h-77q-3 0 -2 4l71 141q3 4 7 4h96 q6 0 2 -4z" />
<glyph unicode="&#x156;" horiz-adv-x="591" d="M185 0h-107q-4 0 -4 4v676h245q32 0 56.5 -2.5t57.5 -13t54 -29.5t36.5 -56t15.5 -88v-52q0 -128 -101 -168l121 -267q1 -4 -2 -4h-120q-5 0 -6 4l-106 247h-136v-247q0 -4 -4 -4zM189 353h125q110 0 110 90v46q0 29 -9.5 48t-27.5 27.5t-34 11t-38 2.5h-126v-225z M264 -259q-5 -3 -5 4v180q0 4 3 4h87q3 0 3 -4v-116q0 -3 -3 -6z" />
<glyph unicode="&#x157;" horiz-adv-x="396" d="M76 0q-4 0 -4 4v474q0 4 4 4h103q4 0 4 -4v-20q60 29 101 29q26 0 49.5 -4t33.5 -7.5t13 -5.5q4 -1 2 -5q0 -1 -12 -38t-12 -38q-1 -4 -5 -3q-24 8 -79 8q-16 0 -39 -8t-37 -16l-15 -7v-359q0 -4 -4 -4h-103zM178 -249q-5 -3 -5 4v180q0 4 3 4h87q3 0 3 -4v-116 q0 -3 -3 -6z" />
<glyph unicode="&#x158;" horiz-adv-x="591" d="M189 353h125q110 0 110 90v46q0 29 -9.5 48t-27.5 27.5t-34 11t-38 2.5h-126v-225zM185 0h-107q-4 0 -4 4v676h245q32 0 56.5 -2.5t57.5 -13t54 -29.5t36.5 -56t15.5 -88v-52q0 -128 -101 -168l121 -267q1 -4 -2 -4h-120q-5 0 -6 4l-106 247h-136v-247q0 -4 -4 -4z M343 896h82q4 0 1 -4l-101 -141q-4 -4 -7 -4h-73q-4 0 -8 4q-8 13 -51 72t-50 70q-2 3 2 3h81q3 0 6 -4l54 -75h4q52 72 54 75q3 4 6 4z" />
<glyph unicode="&#x159;" horiz-adv-x="396" d="M76 0q-4 0 -4 4v474q0 4 4 4h103q4 0 4 -4v-20q60 29 101 29q26 0 49.5 -4t33.5 -7.5t13 -5.5q4 -1 2 -5q0 -1 -12 -38t-12 -38q-1 -4 -5 -3q-24 8 -79 8q-16 0 -39 -8t-37 -16l-15 -7v-359q0 -4 -4 -4h-103zM265 698h82q4 0 1 -4l-101 -141q-4 -4 -7 -4h-73q-4 0 -8 4 q-8 13 -51 72t-50 70q-2 3 2 3h81q3 0 6 -4l54 -75h4q52 72 54 75q3 4 6 4z" />
<glyph unicode="&#x15a;" horiz-adv-x="571" d="M287 -10q-118 0 -223 35q-3 3 -2 6l14 44q13 44 14 45q0 3 4 3q87 -29 196 -29q39 0 62.5 3.5t43 20t19.5 47.5v52q0 35 -32 52.5t-100 23.5q-124 12 -170.5 48t-46.5 120v77q0 153 224 153q59 0 108.5 -7.5t69 -14t22.5 -9.5q4 -2 2 -5l-27 -85q-2 -3 -5 -2 q-2 1 -24 5.5t-64 9.5t-81 5q-49 0 -77.5 -13t-28.5 -51v-50q0 -36 26.5 -52.5t99.5 -23.5q123 -13 172.5 -49t49.5 -121v-78q0 -52 -22 -86t-62 -49t-76.5 -20t-85.5 -5zM302 754q-2 -4 -6 -4h-77q-3 0 -2 4l71 141q3 4 7 4h96q6 0 2 -4z" />
<glyph unicode="&#x15b;" horiz-adv-x="473" d="M244 -8q-119 0 -185 22q-4 1 -2 5q0 2 10 38t11 38q1 3 5 3q4 -1 24.5 -5t60.5 -8t75 -4q43 0 64.5 9t21.5 36v25q0 20 -21 31.5t-81 18.5q-80 10 -122 37.5t-42 82.5v49q0 120 179 120q99 0 165 -22q1 0 1 -4q0 -1 -9.5 -36.5t-10.5 -36.5q0 -2 -3 -2l-9 1q-8 2 -22.5 4 t-31.5 4t-39 3.5t-41 1.5q-74 0 -74 -41v-26q0 -19 22.5 -29.5t77.5 -16.5q82 -9 124 -37.5t42 -82.5v-49q0 -34 -11 -58.5t-27.5 -38t-43.5 -21t-51 -9.5t-57 -2zM250 556q-2 -4 -6 -4h-77q-3 0 -2 4l71 141q3 4 7 4h96q6 0 2 -4z" />
<glyph unicode="&#x15c;" horiz-adv-x="571" d="M287 -10q-118 0 -223 35q-3 3 -2 6l14 44q13 44 14 45q0 3 4 3q87 -29 196 -29q39 0 62.5 3.5t43 20t19.5 47.5v52q0 35 -32 52.5t-100 23.5q-124 12 -170.5 48t-46.5 120v77q0 153 224 153q59 0 108.5 -7.5t69 -14t22.5 -9.5q4 -2 2 -5l-27 -85q-2 -3 -5 -2 q-2 1 -24 5.5t-64 9.5t-81 5q-49 0 -77.5 -13t-28.5 -51v-50q0 -36 26.5 -52.5t99.5 -23.5q123 -13 172.5 -49t49.5 -121v-78q0 -52 -22 -86t-62 -49t-76.5 -20t-85.5 -5zM229 749h-78q-4 0 -2 4q8 14 45.5 72.5t43.5 69.5q2 3 7 3h91q5 0 8 -4q0 -2 44 -71t44 -70 q4 -4 -1 -4h-78q-4 0 -6 4l-55 77h-4q-51 -74 -53 -77q-4 -4 -6 -4z" />
<glyph unicode="&#x15d;" horiz-adv-x="473" d="M244 -8q-119 0 -185 22q-4 1 -2 5q0 2 10 38t11 38q1 3 5 3q4 -1 24.5 -5t60.5 -8t75 -4q43 0 64.5 9t21.5 36v25q0 20 -21 31.5t-81 18.5q-80 10 -122 37.5t-42 82.5v49q0 120 179 120q99 0 165 -22q1 0 1 -4q0 -1 -9.5 -36.5t-10.5 -36.5q0 -2 -3 -2l-9 1q-8 2 -22.5 4 t-31.5 4t-39 3.5t-41 1.5q-74 0 -74 -41v-26q0 -19 22.5 -29.5t77.5 -16.5q82 -9 124 -37.5t42 -82.5v-49q0 -34 -11 -58.5t-27.5 -38t-43.5 -21t-51 -9.5t-57 -2zM183 551h-78q-4 0 -2 4q8 14 45.5 72.5t43.5 69.5q2 3 7 3h91q5 0 8 -4q0 -2 44 -71t44 -70q4 -4 -1 -4h-78 q-4 0 -6 4l-55 77h-4q-51 -74 -53 -77q-4 -4 -6 -4z" />
<glyph unicode="&#x15e;" horiz-adv-x="571" d="M307 -156h-97q-4 0 -2 4l65 142q-128 2 -208 34l-1 1q-3 3 -2 6l14 44q13 44 14 45q0 3 4 3q87 -29 196 -29q39 0 62.5 3.5t43 20t19.5 47.5v52q0 35 -32 52.5t-100 23.5q-124 12 -170.5 48t-46.5 120v77q0 153 224 153q59 0 108.5 -7.5t69 -14t22.5 -9.5q4 -2 2 -5 l-27 -85q-2 -3 -5 -2q-2 1 -24 5.5t-64 9.5t-81 5q-49 0 -77.5 -13t-28.5 -51v-50q0 -36 26.5 -52.5t99.5 -23.5q123 -13 172.5 -49t49.5 -121v-78q0 -139 -171 -156l-49 -146q-1 -4 -6 -4z" />
<glyph unicode="&#x15f;" horiz-adv-x="473" d="M253 -156h-97q-4 0 -2 4l66 144q-104 3 -161 22q-4 1 -2 5q0 2 10 38t11 38q1 3 5 3q4 -1 24.5 -5t60.5 -8t75 -4q43 0 64.5 9t21.5 36v25q0 20 -21 31.5t-81 18.5q-80 10 -122 37.5t-42 82.5v49q0 120 179 120q99 0 165 -22q1 0 1 -4q0 -1 -9.5 -36.5t-10.5 -36.5 q0 -2 -3 -2l-9 1q-8 2 -22.5 4t-31.5 4t-39 3.5t-41 1.5q-74 0 -74 -41v-26q0 -19 22.5 -29.5t77.5 -16.5q82 -9 124 -37.5t42 -82.5v-49q0 -63 -33.5 -91t-92.5 -35l-49 -147q-1 -4 -6 -4z" />
<glyph unicode="&#x160;" horiz-adv-x="571" d="M287 -10q-118 0 -223 35q-3 3 -2 6l14 44q13 44 14 45q0 3 4 3q87 -29 196 -29q39 0 62.5 3.5t43 20t19.5 47.5v52q0 35 -32 52.5t-100 23.5q-124 12 -170.5 48t-46.5 120v77q0 153 224 153q59 0 108.5 -7.5t69 -14t22.5 -9.5q4 -2 2 -5l-27 -85q-2 -3 -5 -2 q-2 1 -24 5.5t-64 9.5t-81 5q-49 0 -77.5 -13t-28.5 -51v-50q0 -36 26.5 -52.5t99.5 -23.5q123 -13 172.5 -49t49.5 -121v-78q0 -52 -22 -86t-62 -49t-76.5 -20t-85.5 -5zM352 896h82q4 0 1 -4l-101 -141q-4 -4 -7 -4h-73q-4 0 -8 4q-8 13 -51 72t-50 70q-1 3 2 3h81 q3 0 6 -4l54 -75h4q52 72 54 75q3 4 6 4z" />
<glyph unicode="&#x161;" horiz-adv-x="473" d="M244 -8q-119 0 -185 22q-4 1 -2 5q0 2 10 38t11 38q1 3 5 3q4 -1 24.5 -5t60.5 -8t75 -4q43 0 64.5 9t21.5 36v25q0 20 -21 31.5t-81 18.5q-80 10 -122 37.5t-42 82.5v49q0 120 179 120q99 0 165 -22q1 0 1 -4q0 -1 -9.5 -36.5t-10.5 -36.5q0 -2 -3 -2l-9 1q-8 2 -22.5 4 t-31.5 4t-39 3.5t-41 1.5q-74 0 -74 -41v-26q0 -19 22.5 -29.5t77.5 -16.5q82 -9 124 -37.5t42 -82.5v-49q0 -34 -11 -58.5t-27.5 -38t-43.5 -21t-51 -9.5t-57 -2zM303 698h82q4 0 1 -4l-101 -141q-4 -4 -7 -4h-73q-4 0 -8 4q-8 13 -51 72t-50 70q-2 3 2 3h81q3 0 6 -4 l54 -75h4q52 72 54 75q3 4 6 4z" />
<glyph unicode="&#x164;" horiz-adv-x="520" d="M211 0q-4 0 -4 4v572h-182q-4 0 -4 4v96q0 4 4 4h481q3 0 3 -4v-96q0 -4 -3 -4h-183v-572q0 -4 -4 -4h-108zM327 896h82q4 0 1 -4l-101 -141q-4 -4 -7 -4h-73q-4 0 -8 4q-8 13 -51 72t-50 70q-2 3 2 3h81q3 0 6 -4l54 -75h4q52 72 54 75q3 4 6 4z" />
<glyph unicode="&#x165;" horiz-adv-x="432" d="M230 -5q-39 0 -60 3.5t-43.5 18.5t-32 50t-9.5 92v238h-49q-4 0 -4 4v77q0 4 4 4h49v154q0 4 3 4h103q4 0 4 -4v-154h90q4 0 4 -4v-77q0 -4 -4 -4h-90v-238q0 -31 8 -47.5t16.5 -19.5t21.5 -3q9 0 20.5 0.5t19.5 1.5t9 1q3 0 4 -4q0 -1 6 -40.5t7 -40.5q1 -3 -3 -5 q-28 -7 -74 -7zM321 492q-5 -2 -5 4v180q0 4 3 4h87q3 0 3 -4v-116q0 -3 -3 -6z" />
<glyph unicode="&#x168;" horiz-adv-x="610" d="M289 -10q-125 0 -173 61.5t-48 207.5v417q0 4 4 4h108q4 0 4 -4v-408q0 -96 19 -134.5t86 -38.5h43q67 0 85.5 37t18.5 136v408q0 4 4 4h108q4 0 4 -4v-417q0 -70 -8.5 -116t-31.5 -83t-67 -53.5t-113 -16.5h-43zM177 775q-3 0 -3 5v56q0 10 5 15q29 35 72 35 q26 0 64 -19t59 -19q22 0 44 17.5t23 17.5q4 0 4 -5v-55q0 -10 -5 -16q-32 -37 -73 -37q-27 0 -64 20t-56 20q-23 0 -46 -17.5t-24 -17.5z" />
<glyph unicode="&#x169;" horiz-adv-x="527" d="M463 482q4 0 4 -4v-474q0 -4 -4 -4h-102q-4 0 -4 4v13q-83 -25 -124 -25q-27 0 -46 2t-44 12t-40 28t-26 53t-11 84v307q0 4 4 4h103q4 0 4 -4v-300q0 -57 18 -74t55 -17q16 0 43 5.5t45 11.5l19 6v368q0 4 4 4h102zM136 577q-3 0 -3 5v56q0 10 5 15q29 35 72 35 q26 0 64 -19t59 -19q22 0 43.5 17.5t23.5 17.5q4 0 4 -5v-55q0 -10 -5 -16q-32 -37 -73 -37q-27 0 -64 20t-56 20q-23 0 -46 -17.5t-24 -17.5z" />
<glyph unicode="&#x16a;" horiz-adv-x="610" d="M289 -10q-125 0 -173 61.5t-48 207.5v417q0 4 4 4h108q4 0 4 -4v-408q0 -96 19 -134.5t86 -38.5h43q67 0 85.5 37t18.5 136v408q0 4 4 4h108q4 0 4 -4v-417q0 -70 -8.5 -116t-31.5 -83t-67 -53.5t-113 -16.5h-43zM445 788h-271q-4 0 -4 4v76q0 4 4 4h271q4 0 4 -4v-76 q0 -4 -4 -4z" />
<glyph unicode="&#x16b;" horiz-adv-x="527" d="M463 482q4 0 4 -4v-474q0 -4 -4 -4h-102q-4 0 -4 4v13q-83 -25 -124 -25q-27 0 -46 2t-44 12t-40 28t-26 53t-11 84v307q0 4 4 4h103q4 0 4 -4v-300q0 -57 18 -74t55 -17q16 0 43 5.5t45 11.5l19 6v368q0 4 4 4h102zM404 590h-271q-4 0 -4 4v76q0 4 4 4h271q4 0 4 -4v-76 q0 -4 -4 -4z" />
<glyph unicode="&#x16c;" horiz-adv-x="610" d="M289 -10q-125 0 -173 61.5t-48 207.5v417q0 4 4 4h108q4 0 4 -4v-408q0 -96 19 -134.5t86 -38.5h43q67 0 85.5 37t18.5 136v408q0 4 4 4h108q4 0 4 -4v-417q0 -70 -8.5 -116t-31.5 -83t-67 -53.5t-113 -16.5h-43zM312 754q-137 0 -137 125q0 6 5 6h47q7 0 9 -5 q11 -33 26 -43.5t49 -10.5q31 0 46.5 11.5t26.5 42.5q2 5 8 5h49q6 0 6 -6q-8 -125 -135 -125z" />
<glyph unicode="&#x16d;" horiz-adv-x="527" d="M463 482q4 0 4 -4v-474q0 -4 -4 -4h-102q-4 0 -4 4v13q-83 -25 -124 -25q-27 0 -46 2t-44 12t-40 28t-26 53t-11 84v307q0 4 4 4h103q4 0 4 -4v-300q0 -57 18 -74t55 -17q16 0 43 5.5t45 11.5l19 6v368q0 4 4 4h102zM270 556q-137 0 -137 125q0 6 5 6h47q7 0 9 -5 q11 -33 26 -43.5t49 -10.5q31 0 46.5 11.5t26.5 42.5q2 5 8 5h49q6 0 6 -6q-8 -125 -135 -125z" />
<glyph unicode="&#x16e;" horiz-adv-x="610" d="M289 -10q-125 0 -173 61.5t-48 207.5v417q0 4 4 4h108q4 0 4 -4v-408q0 -96 19 -134.5t86 -38.5h43q67 0 85.5 37t18.5 136v408q0 4 4 4h108q4 0 4 -4v-417q0 -70 -8.5 -116t-31.5 -83t-67 -53.5t-113 -16.5h-43zM310 731q-44 0 -71 17.5t-27 70.5v22q0 51 27.5 68.5 t72.5 17.5q20 0 33.5 -2.5t29.5 -10.5t24 -26.5t8 -46.5v-22q0 -29 -8 -47.5t-23.5 -27t-30 -11t-35.5 -2.5zM310 780q23 0 35 8.5t12 35.5v12q0 25 -11.5 34t-33.5 9q-50 0 -50 -43v-12q0 -27 12.5 -35.5t35.5 -8.5z" />
<glyph unicode="&#x16f;" horiz-adv-x="527" d="M463 482q4 0 4 -4v-474q0 -4 -4 -4h-102q-4 0 -4 4v13q-83 -25 -124 -25q-27 0 -46 2t-44 12t-40 28t-26 53t-11 84v307q0 4 4 4h103q4 0 4 -4v-300q0 -57 18 -74t55 -17q16 0 43 5.5t45 11.5l19 6v368q0 4 4 4h102zM269 533q-44 0 -71 17.5t-27 70.5v22q0 51 27.5 68.5 t72.5 17.5q20 0 33.5 -2.5t29.5 -10.5t24 -26.5t8 -46.5v-22q0 -29 -8 -47.5t-23.5 -27t-30 -11t-35.5 -2.5zM269 582q23 0 35 8.5t12 35.5v12q0 25 -11.5 34t-33.5 9q-50 0 -50 -43v-12q0 -27 12.5 -35.5t35.5 -8.5z" />
<glyph unicode="&#x170;" horiz-adv-x="610" d="M289 -10q-125 0 -173 61.5t-48 207.5v417q0 4 4 4h108q4 0 4 -4v-408q0 -96 19 -134.5t86 -38.5h43q67 0 85.5 37t18.5 136v408q0 4 4 4h108q4 0 4 -4v-417q0 -70 -8.5 -116t-31.5 -83t-67 -53.5t-113 -16.5h-43zM265 753q-1 -4 -6 -4h-78q-3 0 -2 4q1 1 36 69.5t36 71.5 q1 4 6 4h97q5 0 2 -4zM414 753q-1 -4 -5 -4h-78q-3 0 -2 4q1 1 36 69.5t36 71.5q1 4 6 4h97q4 0 1 -4z" />
<glyph unicode="&#x171;" horiz-adv-x="527" d="M463 482q4 0 4 -4v-474q0 -4 -4 -4h-102q-4 0 -4 4v13q-83 -25 -124 -25q-27 0 -46 2t-44 12t-40 28t-26 53t-11 84v307q0 4 4 4h103q4 0 4 -4v-300q0 -57 18 -74t55 -17q16 0 43 5.5t45 11.5l19 6v368q0 4 4 4h102zM225 555q-1 -4 -6 -4h-78q-3 0 -2 4q1 1 36 69.5 t36 71.5q1 4 6 4h97q5 0 2 -4zM374 555q-1 -4 -5 -4h-78q-3 0 -2 4q1 1 36 69.5t36 71.5q1 4 6 4h97q4 0 1 -4z" />
<glyph unicode="&#x172;" horiz-adv-x="610" d="M292 -188q-41 0 -64.5 16.5t-23.5 64.5q0 54 56 98q-108 7 -150 69t-42 199v417q0 4 4 4h108q4 0 4 -4v-408q0 -96 19 -134.5t86 -38.5h43q67 0 85.5 37t18.5 136v408q0 4 4 4h108q4 0 4 -4v-417q0 -134 -38.5 -197.5t-151.5 -70.5q-38 -26 -56 -44t-18 -36q0 -13 5 -17 t16 -4q13 0 28 10q5 2 7 -2l26 -49q4 -5 -1 -9q-28 -28 -77 -28z" />
<glyph unicode="&#x173;" horiz-adv-x="527" d="M386 -184q-41 0 -64.5 16.5t-23.5 64.5q0 57 62 103q-3 0 -3 4v13q-83 -25 -124 -25q-27 0 -46 2t-44 12t-40 28t-26 53t-11 84v307q0 4 4 4h103q4 0 4 -4v-300q0 -57 18 -74t55 -17q16 0 43 5.5t45 11.5l19 6v368q0 4 4 4h102q4 0 4 -4v-474q0 -4 -3 -4q-1 0 -1 -1 q-42 -28 -61.5 -46.5t-19.5 -37.5q0 -13 5 -17t16 -4q13 0 28 10q5 2 7 -2l26 -49q4 -5 -1 -9q-28 -28 -77 -28z" />
<glyph unicode="&#x174;" horiz-adv-x="828" d="M161 0q-4 0 -5 4l-126 672q-1 4 3 4h112q4 0 5 -4l88 -492h18q112 352 113 354q1 4 4 4h92q4 0 5 -4l112 -354h19q87 489 88 492q1 4 5 4h112q5 0 3 -4l-126 -672q-1 -4 -5 -4h-141q-4 0 -5 4l-106 344h-12q-106 -339 -106 -343q-2 -5 -7 -5h-140zM357 749h-78q-4 0 -2 4 q8 14 45.5 72.5t43.5 69.5q2 3 7 3h91q5 0 8 -4q0 -2 44 -71t44 -70q4 -4 -1 -4h-78q-4 0 -6 4l-55 77h-4q-51 -74 -53 -77q-4 -4 -6 -4z" />
<glyph unicode="&#x175;" horiz-adv-x="718" d="M166 0q-3 0 -4 4l-118 474q0 4 3 4h105q5 0 5 -4l72 -314h9q84 218 85 221q1 4 4 4h76q3 0 4 -4l87 -221h9q66 311 67 314q2 4 6 4h105q3 0 2 -4q-116 -464 -116 -474q-1 -4 -5 -4h-98q-3 0 -4 4l-91 245h-9q-92 -243 -93 -245q-1 -4 -4 -4h-97zM302 551h-78q-4 0 -2 4 q8 14 45.5 72.5t43.5 69.5q1 3 7 3h91q5 0 8 -4q1 -2 44 -71t44 -70q4 -4 -1 -4h-78q-4 0 -6 4l-55 77h-4q-51 -74 -53 -77q-4 -4 -6 -4z" />
<glyph unicode="&#x176;" horiz-adv-x="534" d="M219 0q-4 0 -4 4v263q-199 406 -200 409q-2 4 3 4h116q2 0 5 -4l132 -279h6q129 276 130 279q3 4 5 4h114q4 0 3 -4l-199 -409v-263q0 -4 -3 -4h-108zM210 749h-78q-4 0 -2 4q8 14 45.5 72.5t43.5 69.5q1 3 7 3h91q5 0 8 -4q0 -2 43.5 -71t44.5 -70q4 -4 -1 -4h-78 q-4 0 -6 4l-55 77h-4q-51 -74 -53 -77q-4 -4 -6 -4z" />
<glyph unicode="&#x177;" horiz-adv-x="477" d="M69 -180q-3 0 -3 4q0 2 5 44l5 41q0 4 4 4h26q14 0 24 3.5t23.5 19t23.5 44.5l13 39q-166 456 -167 459q-2 4 2 4h108q5 0 5 -4l104 -308h10q99 305 99 308q2 4 5 4h107q3 0 2 -4q-1 -2 -46 -125t-93 -255t-55 -149q-17 -46 -33.5 -73.5t-37.5 -39t-37 -14t-48 -2.5h-46z M185 551h-78q-4 0 -2 4q8 14 45.5 72.5t43.5 69.5q2 3 7 3h91q5 0 8 -4q0 -2 44 -71t44 -70q4 -4 -1 -4h-78q-4 0 -6 4l-55 77h-4q-51 -74 -53 -77q-4 -4 -6 -4z" />
<glyph unicode="&#x178;" horiz-adv-x="534" d="M219 0q-4 0 -4 4v263q-199 406 -200 409q-2 4 3 4h116q2 0 5 -4l132 -279h6q129 276 130 279q3 4 5 4h114q4 0 3 -4l-199 -409v-263q0 -4 -3 -4h-108zM137 777q-4 0 -4 4v95q0 4 4 4h84q4 0 4 -4v-95q0 -4 -4 -4h-84zM329 777q-4 0 -4 4v95q0 4 4 4h83q4 0 4 -4v-95 q0 -4 -4 -4h-83z" />
<glyph unicode="&#x179;" horiz-adv-x="524" d="M49 0q-3 0 -3 3v98q0 2 3 8l302 458v9h-290q-3 0 -3 4v95q0 5 3 5h421q5 0 5 -5v-95q0 -6 -3 -11l-302 -457v-9h301q4 0 4 -4v-95q0 -4 -4 -4h-434zM288 754q-2 -4 -6 -4h-77q-3 0 -2 4l71 141q3 4 7 4h96q6 0 2 -4z" />
<glyph unicode="&#x17a;" horiz-adv-x="458" d="M56 0q-4 0 -4 4v82q0 3 5 8l225 288v7h-217q-3 0 -3 4v85q0 4 3 4h349q4 0 4 -4v-84q0 -2 -3 -7l-226 -287v-8h227q4 0 4 -4v-84q0 -4 -4 -4h-360zM255 556q-2 -4 -6 -4h-77q-3 0 -2 4l71 141q3 4 7 4h96q6 0 2 -4z" />
<glyph unicode="&#x17b;" horiz-adv-x="524" d="M49 0q-3 0 -3 3v98q0 2 3 8l302 458v9h-290q-3 0 -3 4v95q0 5 3 5h421q5 0 5 -5v-95q0 -6 -3 -11l-302 -457v-9h301q4 0 4 -4v-95q0 -4 -4 -4h-434zM226 770q-4 0 -4 4v100q0 4 4 4h102q4 0 4 -4v-100q0 -4 -5 -4h-101z" />
<glyph unicode="&#x17c;" horiz-adv-x="458" d="M56 0q-4 0 -4 4v82q0 3 5 8l225 288v7h-217q-3 0 -3 4v85q0 4 3 4h349q4 0 4 -4v-84q0 -2 -3 -7l-226 -287v-8h227q4 0 4 -4v-84q0 -4 -4 -4h-360zM190 572q-4 0 -4 4v100q0 4 4 4h102q4 0 4 -4v-100q0 -4 -5 -4h-101z" />
<glyph unicode="&#x17d;" horiz-adv-x="524" d="M49 0q-3 0 -3 3v98q0 2 3 8l302 458v9h-290q-3 0 -3 4v95q0 5 3 5h421q5 0 5 -5v-95q0 -6 -3 -11l-302 -457v-9h301q4 0 4 -4v-95q0 -4 -4 -4h-434zM329 896h82q4 0 1 -4l-101 -141q-4 -4 -7 -4h-73q-4 0 -8 4q-8 13 -51 72t-50 70q-2 3 2 3h81q3 0 6 -4l54 -75h4 q52 72 54 75q3 4 6 4z" />
<glyph unicode="&#x17e;" horiz-adv-x="458" d="M56 0q-4 0 -4 4v82q0 3 5 8l225 288v7h-217q-3 0 -3 4v85q0 4 3 4h349q4 0 4 -4v-84q0 -2 -3 -7l-226 -287v-8h227q4 0 4 -4v-84q0 -4 -4 -4h-360zM296 698h82q4 0 1 -4l-101 -141q-4 -4 -7 -4h-73q-4 0 -8 4q-8 13 -51 72t-50 70q-1 3 2 3h81q3 0 6 -4l54 -75h4 q52 72 54 75q3 4 6 4z" />
<glyph unicode="&#x192;" horiz-adv-x="497" d="M155 -186q-13 0 -32 2t-32 4l-13 2q-3 0 -3 5q0 1 6 39.5t6 39.5q0 3 5 3l10 -1q10 0 23 -1t21 -1q47 0 47 68v356h-67q-3 0 -3 4v77q0 4 3 4h67v109q0 43 9.5 73.5t23 47t34.5 26t39 12t42 2.5q10 0 28.5 -2t33.5 -4t16 -2q2 -1 2 -5q0 -2 -5.5 -40.5t-5.5 -39.5 q0 -3 -5 -3q-1 0 -10.5 0.5t-22.5 1.5t-22 1q-46 0 -46 -68v-109h77q4 0 4 -4v-77q0 -4 -4 -4h-77v-355q0 -52 -12.5 -86.5t-36 -49.5t-46 -20t-54.5 -5z" />
<glyph unicode="&#x218;" horiz-adv-x="571" d="M287 -10q-118 0 -223 35q-3 3 -2 6l14 44q13 44 14 45q0 3 4 3q87 -29 196 -29q39 0 62.5 3.5t43 20t19.5 47.5v52q0 35 -32 52.5t-100 23.5q-124 12 -170.5 48t-46.5 120v77q0 153 224 153q59 0 108.5 -7.5t69 -14t22.5 -9.5q4 -2 2 -5l-27 -85q-2 -3 -5 -2 q-2 1 -24 5.5t-64 9.5t-81 5q-49 0 -77.5 -13t-28.5 -51v-50q0 -36 26.5 -52.5t99.5 -23.5q123 -13 172.5 -49t49.5 -121v-78q0 -52 -22 -86t-62 -49t-76.5 -20t-85.5 -5zM257 -259q-5 -3 -5 4v180q0 4 3 4h87q3 0 3 -4v-116q0 -3 -3 -6z" />
<glyph unicode="&#x219;" horiz-adv-x="473" d="M244 -8q-119 0 -185 22q-4 1 -2 5q0 2 10 38t11 38q1 3 5 3q4 -1 24.5 -5t60.5 -8t75 -4q43 0 64.5 9t21.5 36v25q0 20 -21 31.5t-81 18.5q-80 10 -122 37.5t-42 82.5v49q0 120 179 120q99 0 165 -22q1 0 1 -4q0 -1 -9.5 -36.5t-10.5 -36.5q0 -2 -3 -2l-9 1q-8 2 -22.5 4 t-31.5 4t-39 3.5t-41 1.5q-74 0 -74 -41v-26q0 -19 22.5 -29.5t77.5 -16.5q82 -9 124 -37.5t42 -82.5v-49q0 -34 -11 -58.5t-27.5 -38t-43.5 -21t-51 -9.5t-57 -2zM210 -259q-5 -3 -5 4v180q0 4 3 4h87q3 0 3 -4v-116q0 -3 -3 -6z" />
<glyph unicode="&#x21a;" horiz-adv-x="520" d="M211 0q-4 0 -4 4v572h-182q-4 0 -4 4v96q0 4 4 4h481q3 0 3 -4v-96q0 -4 -3 -4h-183v-572q0 -4 -4 -4h-108zM223 -259q-5 -3 -5 4v180q0 4 3 4h87q3 0 3 -4v-116q0 -3 -3 -6z" />
<glyph unicode="&#x21b;" horiz-adv-x="321" d="M230 -5q-39 0 -60 3.5t-43.5 18.5t-32 50t-9.5 92v238h-49q-4 0 -4 4v77q0 4 4 4h49v154q0 4 3 4h103q4 0 4 -4v-154h90q4 0 4 -4v-77q0 -4 -4 -4h-90v-238q0 -31 8 -47.5t16.5 -19.5t21.5 -3q9 0 20.5 0.5t19.5 1.5t9 1q3 0 4 -4q0 -1 6 -40.5t7 -40.5q1 -3 -3 -5 q-28 -7 -74 -7zM142 -259q-5 -3 -5 4v180q0 4 3 4h87q3 0 3 -4v-116q0 -3 -3 -6z" />
<glyph unicode="&#x2c6;" horiz-adv-x="445" d="M161 551h-78q-4 0 -2 4q8 14 45.5 72.5t43.5 69.5q2 3 7 3h91q5 0 8 -4q0 -2 44 -71t44 -70q4 -4 -1 -4h-78q-4 0 -6 4l-55 77h-4q-51 -74 -53 -77q-4 -4 -6 -4z" />
<glyph unicode="&#x2c7;" horiz-adv-x="445" d="M284 698h82q4 0 1 -4l-101 -141q-4 -4 -7 -4h-73q-4 0 -8 4q-8 13 -51 72t-50 70q-1 3 2 3h81q3 0 6 -4l54 -75h4q52 72 54 75q3 4 6 4z" />
<glyph unicode="&#x2d8;" horiz-adv-x="445" d="M224 556q-137 0 -137 125q0 6 5 6h47q7 0 9 -5q11 -33 26 -43.5t49 -10.5q31 0 46.5 11.5t26.5 42.5q2 5 8 5h49q6 0 6 -6q-8 -125 -135 -125z" />
<glyph unicode="&#x2d9;" horiz-adv-x="445" d="M171 572q-4 0 -4 4v100q0 4 4 4h102q4 0 4 -4v-100q0 -4 -5 -4h-101z" />
<glyph unicode="&#x2da;" horiz-adv-x="445" d="M220 582q23 0 35 8.5t12 35.5v12q0 25 -11.5 34t-33.5 9q-50 0 -50 -43v-12q0 -27 12.5 -35.5t35.5 -8.5zM220 533q-44 0 -71 17.5t-27 70.5v22q0 51 27.5 68.5t72.5 17.5q20 0 33.5 -2.5t29.5 -10.5t24 -26.5t8 -46.5v-22q0 -29 -8 -47.5t-23.5 -27t-30 -11t-35.5 -2.5z " />
<glyph unicode="&#x2db;" horiz-adv-x="445" d="M221 -182q-41 0 -64.5 16.5t-23.5 64.5q0 59 68 107q5 4 14 4h81q4 0 5 -3t-3 -6q-42 -28 -61.5 -46.5t-19.5 -37.5q0 -13 5 -17t16 -4q13 0 28 10q5 2 7 -2l26 -49q4 -5 -1 -9q-28 -28 -77 -28z" />
<glyph unicode="&#x2dc;" horiz-adv-x="445" d="M89 577q-3 0 -3 5v56q0 10 5 15q29 35 72 35q26 0 64 -19t59 -19q22 0 43.5 17.5t23.5 17.5q4 0 4 -5v-55q0 -10 -5 -16q-32 -37 -73 -37q-27 0 -64 20t-56 20q-23 0 -46 -17.5t-24 -17.5z" />
<glyph unicode="&#x2dd;" horiz-adv-x="445" d="M148 555q-1 -4 -6 -4h-78q-3 0 -2 4q1 1 36 69.5t36 71.5q1 4 6 4h97q5 0 2 -4zM297 555q-1 -4 -5 -4h-78q-3 0 -2 4q1 1 36 69.5t36 71.5q1 4 6 4h97q4 0 1 -4z" />
<glyph unicode="&#x1e80;" horiz-adv-x="828" d="M161 0q-4 0 -5 4l-126 672q-1 4 3 4h112q4 0 5 -4l88 -492h18q112 352 113 354q1 4 4 4h92q4 0 5 -4l112 -354h19q87 489 88 492q1 4 5 4h112q5 0 3 -4l-126 -672q-1 -4 -5 -4h-141q-4 0 -5 4l-106 344h-12q-106 -339 -106 -343q-2 -5 -7 -5h-140zM412 754l-91 141 q-3 4 2 4h97q4 0 5 -4l72 -141q1 -4 -1 -4h-78q-4 0 -6 4z" />
<glyph unicode="&#x1e81;" horiz-adv-x="718" d="M166 0q-3 0 -4 4l-118 474q0 4 3 4h105q5 0 5 -4l72 -314h9q84 218 85 221q1 4 4 4h76q3 0 4 -4l87 -221h9q66 311 67 314q2 4 6 4h105q3 0 2 -4q-116 -464 -116 -474q-1 -4 -5 -4h-98q-3 0 -4 4l-91 245h-9q-92 -243 -93 -245q-1 -4 -4 -4h-97zM352 556l-91 141 q-3 4 2 4h97q4 0 5 -4l72 -141q1 -4 -1 -4h-78q-4 0 -6 4z" />
<glyph unicode="&#x1e82;" horiz-adv-x="828" d="M161 0q-4 0 -5 4l-126 672q-1 4 3 4h112q4 0 5 -4l88 -492h18q112 352 113 354q1 4 4 4h92q4 0 5 -4l112 -354h19q87 489 88 492q1 4 5 4h112q5 0 3 -4l-126 -672q-1 -4 -5 -4h-141q-4 0 -5 4l-106 344h-12q-106 -339 -106 -343q-2 -5 -7 -5h-140zM430 754q-2 -4 -6 -4 h-77q-3 0 -2 4l71 141q3 4 7 4h96q6 0 2 -4z" />
<glyph unicode="&#x1e83;" horiz-adv-x="718" d="M166 0q-3 0 -4 4l-118 474q0 4 3 4h105q5 0 5 -4l72 -314h9q84 218 85 221q1 4 4 4h76q3 0 4 -4l87 -221h9q66 311 67 314q2 4 6 4h105q3 0 2 -4q-116 -464 -116 -474q-1 -4 -5 -4h-98q-3 0 -4 4l-91 245h-9q-92 -243 -93 -245q-1 -4 -4 -4h-97zM379 556q-2 -4 -6 -4h-77 q-3 0 -2 4l71 141q3 4 7 4h96q6 0 2 -4z" />
<glyph unicode="&#x1e84;" horiz-adv-x="828" d="M161 0q-4 0 -5 4l-126 672q-1 4 3 4h112q4 0 5 -4l88 -492h18q112 352 113 354q1 4 4 4h92q4 0 5 -4l112 -354h19q87 489 88 492q1 4 5 4h112q5 0 3 -4l-126 -672q-1 -4 -5 -4h-141q-4 0 -5 4l-106 344h-12q-106 -339 -106 -343q-2 -5 -7 -5h-140zM281 775q-4 0 -4 4v95 q0 4 4 4h84q4 0 4 -4v-95q0 -4 -4 -4h-84zM473 775q-4 0 -4 4v95q0 4 4 4h83q4 0 4 -4v-95q0 -4 -4 -4h-83z" />
<glyph unicode="&#x1e85;" horiz-adv-x="718" d="M166 0q-3 0 -4 4l-118 474q0 4 3 4h105q5 0 5 -4l72 -314h9q84 218 85 221q1 4 4 4h76q3 0 4 -4l87 -221h9q66 311 67 314q2 4 6 4h105q3 0 2 -4q-116 -464 -116 -474q-1 -4 -5 -4h-98q-3 0 -4 4l-91 245h-9q-92 -243 -93 -245q-1 -4 -4 -4h-97zM226 577q-4 0 -4 4v95 q0 4 4 4h84q4 0 4 -4v-95q0 -4 -4 -4h-84zM418 577q-4 0 -4 4v95q0 4 4 4h83q4 0 4 -4v-95q0 -4 -4 -4h-83z" />
<glyph unicode="&#x1e9e;" horiz-adv-x="597" d="M72 0q-4 0 -4 4v475q0 51 12.5 88t32.5 58.5t50.5 34t60.5 16.5t69 4h213q4 0 4 -5v-102q0 -3 -2 -9l-99 -166q22 -7 39 -15.5t38 -26t33 -47.5t12 -71v-61q0 -47 -14.5 -81t-36 -52t-56 -28.5t-64 -13t-71.5 -2.5q-4 0 -4 4v89q0 4 4 4q23 0 38.5 1t34.5 6t30.5 14 t19.5 25.5t8 40.5v49q0 88 -114 88q-3 0 -3 4v90l98 171h-108q-111 0 -111 -107v-475q0 -4 -3 -4h-107z" />
<glyph unicode="&#x2000;" horiz-adv-x="464" />
<glyph unicode="&#x2001;" horiz-adv-x="929" />
<glyph unicode="&#x2002;" horiz-adv-x="464" />
<glyph unicode="&#x2003;" horiz-adv-x="929" />
<glyph unicode="&#x2004;" horiz-adv-x="309" />
<glyph unicode="&#x2005;" horiz-adv-x="232" />
<glyph unicode="&#x2006;" horiz-adv-x="154" />
<glyph unicode="&#x2007;" horiz-adv-x="154" />
<glyph unicode="&#x2008;" horiz-adv-x="116" />
<glyph unicode="&#x2009;" horiz-adv-x="185" />
<glyph unicode="&#x200a;" horiz-adv-x="51" />
<glyph unicode="&#x2010;" horiz-adv-x="378" d="M50 228q-4 0 -4 4v86q0 4 4 4h278q4 0 4 -4v-86q0 -4 -4 -4h-278z" />
<glyph unicode="&#x2011;" horiz-adv-x="378" d="M50 228q-4 0 -4 4v86q0 4 4 4h278q4 0 4 -4v-86q0 -4 -4 -4h-278z" />
<glyph unicode="&#x2012;" horiz-adv-x="378" d="M50 228q-4 0 -4 4v86q0 4 4 4h278q4 0 4 -4v-86q0 -4 -4 -4h-278z" />
<glyph unicode="&#x2013;" horiz-adv-x="452" d="M39 228q-3 0 -3 4v86q0 4 3 4h373q4 0 4 -4v-86q0 -4 -4 -4h-373z" />
<glyph unicode="&#x2014;" horiz-adv-x="571" d="M23 228q-4 0 -4 4v86q0 4 4 4h525q4 0 4 -4v-86q0 -4 -4 -4h-525z" />
<glyph unicode="&#x2018;" horiz-adv-x="224" d="M153 685q5 3 5 -4v-180q0 -4 -3 -4h-87q-3 0 -3 4v116q0 3 3 6z" />
<glyph unicode="&#x2019;" horiz-adv-x="224" d="M70 492q-5 -2 -5 4v180q0 4 3 4h87q3 0 3 -4v-116q0 -3 -3 -6z" />
<glyph unicode="&#x201a;" horiz-adv-x="224" d="M71 -67q-6 -4 -6 3v180q0 4 4 4h86q4 0 4 -4v-115q0 -4 -4 -6q-1 -1 -21.5 -16.5t-41.5 -30.5z" />
<glyph unicode="&#x201c;" horiz-adv-x="386" d="M316 685q5 3 5 -4v-180q0 -4 -4 -4h-86q-4 0 -4 4v116q0 3 3 6q2 1 22.5 16t41.5 30t22 16zM153 685q5 3 5 -4v-180q0 -4 -3 -4h-87q-3 0 -3 4v116q0 3 3 6z" />
<glyph unicode="&#x201d;" horiz-adv-x="386" d="M232 492q-5 -2 -5 4v180q0 4 4 4h86q4 0 4 -4v-116q0 -3 -4 -6zM70 492q-5 -2 -5 4v180q0 4 3 4h87q3 0 3 -4v-116q0 -3 -3 -6z" />
<glyph unicode="&#x201e;" horiz-adv-x="386" d="M71 -67q-6 -4 -6 3v180q0 4 4 4h86q4 0 4 -4v-115q0 -4 -4 -6q-1 -1 -21.5 -16.5t-41.5 -30.5zM233 -67q-5 -3 -5 3v180q0 4 3 4h87q3 0 3 -4v-115q0 -4 -3 -6q-2 -2 -42.5 -31.5t-42.5 -30.5z" />
<glyph unicode="&#x2020;" horiz-adv-x="496" d="M201 -180q-4 0 -4 4v533h-148q-4 0 -4 4v86q0 4 4 4h148v225q0 4 4 4h94q4 0 4 -4v-225h147q4 0 4 -4v-86q0 -4 -4 -4h-147v-533q0 -4 -4 -4h-94z" />
<glyph unicode="&#x2021;" horiz-adv-x="496" d="M201 -180q-4 0 -4 4v197h-149q-3 0 -3 4v86q0 4 3 4h149v270h-149q-3 0 -3 4v85q0 4 3 4h149v198q0 4 4 4h94q3 0 3 -4v-198h148q4 0 4 -4v-85q0 -4 -4 -4h-148v-270h148q4 0 4 -4v-86q0 -4 -4 -4h-148v-197q0 -4 -3 -4h-94z" />
<glyph unicode="&#x2022;" horiz-adv-x="395" d="M197 210q-44 0 -70.5 17.5t-26.5 70.5v22q0 51 27.5 68.5t72.5 17.5q19 0 33 -2.5t29.5 -10.5t23.5 -26.5t8 -46.5v-22q0 -29 -8 -47.5t-23.5 -27t-30 -11t-35.5 -2.5z" />
<glyph unicode="&#x2026;" horiz-adv-x="692" d="M516 0q-4 0 -4 4v114q0 4 4 4h105q4 0 4 -4v-114q0 -4 -4 -4h-105zM293 0q-3 0 -3 4v114q0 4 3 4h106q4 0 4 -4v-114q0 -4 -4 -4h-106zM71 0q-3 0 -3 4v114q0 4 3 4h106q3 0 3 -4v-114q0 -4 -3 -4h-106z" />
<glyph unicode="&#x202f;" horiz-adv-x="185" />
<glyph unicode="&#x2030;" horiz-adv-x="1058" d="M243 -6h-90q-5 0 -1 4q29 61 181.5 345.5t178.5 338.5q2 4 6 4h89q4 0 1 -4q-1 -2 -179.5 -342t-180.5 -342q-2 -4 -5 -4zM563 67q25 0 38.5 9.5t13.5 39.5v72q0 28 -13 38t-38 10q-54 0 -54 -48v-72q0 -30 14 -39.5t39 -9.5zM563 -6q-25 0 -44 4t-38.5 15t-30 34.5 t-10.5 58.5v94q0 108 126 108q24 0 42 -3.5t37.5 -14t30 -33t10.5 -57.5v-94q0 -67 -34 -89.5t-89 -22.5zM199 444q25 0 38.5 10t13.5 40v71q0 28 -12.5 38t-37.5 10q-26 0 -40 -10t-14 -38v-71q0 -30 13.5 -40t38.5 -10zM199 372q-25 0 -44 4t-38.5 14.5t-30 34t-10.5 58.5 v94q0 109 126 109q24 0 42.5 -3.5t38 -14t30 -33.5t10.5 -58v-94q0 -35 -10.5 -58.5t-30.5 -34.5t-39 -14.5t-44 -3.5zM859 67q25 0 38.5 9.5t13.5 39.5v72q0 28 -12.5 38t-37.5 10q-26 0 -40.5 -10t-14.5 -38v-72q0 -30 14 -39.5t39 -9.5zM859 -6q-25 0 -44 4t-38.5 15 t-30 34.5t-10.5 58.5v94q0 108 126 108q24 0 42 -3.5t37.5 -14t30 -33t10.5 -57.5v-94q0 -67 -34 -89.5t-89 -22.5z" />
<glyph unicode="&#x2039;" horiz-adv-x="336" d="M239 487l57 -57q2 -2 0 -6l-152 -160q150 -158 152 -160q3 -2 0 -5l-57 -58q-3 -3 -4 0l-212 220q-3 3 0 6l212 220q2 2 4 0z" />
<glyph unicode="&#x203a;" horiz-adv-x="336" d="M97 41l-57 57q-3 3 0 6l152 160q-150 158 -152 160q-3 2 0 5l57 58q3 3 5 0q1 -2 104.5 -109.5t106.5 -110.5t0 -6q-4 -4 -107 -111.5t-104 -108.5q-2 -3 -5 0z" />
<glyph unicode="&#x2044;" horiz-adv-x="417" d="M66 -5q-3 0 -3 4l187 683q1 4 4 4h100q3 0 2 -4t-93 -342.5t-92 -340.5q-1 -4 -5 -4h-100z" />
<glyph unicode="&#x205f;" horiz-adv-x="232" />
<glyph unicode="&#x2070;" horiz-adv-x="336" d="M168 321q39 0 56.5 18.5t17.5 79.5v112q0 60 -17.5 78t-56.5 18t-56.5 -18t-17.5 -78v-112q0 -61 18 -79.5t56 -18.5zM168 267q-30 0 -49 3.5t-41 17t-33 45t-11 81.5v124q0 38 8 65.5t19.5 42.5t31 23t35.5 10t40 2q30 0 48.5 -3.5t41 -16t33.5 -43.5t11 -80v-124 q0 -51 -11 -83t-33.5 -44.5t-40.5 -16t-49 -3.5z" />
<glyph unicode="&#x2074;" horiz-adv-x="310" d="M237 270h-48q-3 0 -3 2v70h-154q-2 0 -2 2v51q0 3 2 5l28 68q27 69 55 138t28 70q2 2 3 2h55q1 0 1 -2l-108 -275v-5h92v78q0 2 2 2h49q3 0 3 -2v-78h41q3 0 3 -3v-48q0 -3 -3 -3h-41v-70q0 -2 -3 -2z" />
<glyph unicode="&#x2075;" horiz-adv-x="310" d="M151 267q-72 0 -106 17q-2 2 -1 3q0 1 4.5 20.5t4.5 23.5q0 1 4 1l6 -1q6 -1 16 -3t21.5 -4t25.5 -3t25 -1q66 0 66 44v35q0 58 -58 58h-104q-2 0 -2 2v214q0 5 5 5h199q2 0 2 -2v-46q0 -3 -2 -3h-152v-120h55q21 0 37 -3t35.5 -12t30.5 -30.5t11 -55.5v-48q0 -25 -9 -43 t-21.5 -27t-31.5 -14t-31.5 -6t-29.5 -1z" />
<glyph unicode="&#x2076;" horiz-adv-x="307" d="M155 316q28 0 44.5 13.5t16.5 55.5v18q0 38 -14.5 51.5t-43.5 13.5q-8 0 -24.5 -3t-28.5 -7l-12 -3v-93q0 -24 18 -35t44 -11zM157 267q-121 0 -121 93v223q0 31 12.5 52t33.5 30t38.5 12.5t35.5 3.5t35 -2t28.5 -4.5t20 -5.5t13.5 -5l5 -2q1 0 1 -3q-11 -33 -11 -43 q0 -1 -3 -1l-5 1q-6 2 -15 4t-19.5 3.5t-24 3t-24.5 1.5q-64 0 -64 -47v-76q51 13 74 13q21 0 35.5 -3t32.5 -12.5t27.5 -33.5t9.5 -61v-27q0 -31 -8 -53t-19 -33.5t-28 -18t-30 -8t-30 -1.5z" />
<glyph unicode="&#x2077;" horiz-adv-x="302" d="M128 270h-56q-2 0 -1 2l131 348v5h-160q-2 0 -2 2v48q0 3 2 3h221q2 0 2 -2v-49q0 -1 -1 -3v-2l-66 -174q-66 -175 -66 -176q-2 -2 -4 -2z" />
<glyph unicode="&#x2078;" horiz-adv-x="310" d="M155 316q31 0 46.5 12t15.5 47v22q0 59 -61 59q-63 0 -63 -59v-22q0 -34 15.5 -46.5t46.5 -12.5zM155 508q59 0 59 50v21q0 53 -58 53q-59 0 -59 -53v-21q0 -50 58 -50zM154 266q-54 0 -85.5 21.5t-31.5 83.5v30q0 26 10.5 46t21.5 27l11 7v2q-4 2 -10.5 7t-17 23 t-10.5 40v29q0 99 116 99q110 0 110 -99v-30q0 -21 -9 -38t-18 -24l-9 -6v-2q5 -2 12 -7.5t18.5 -26t11.5 -47.5v-30q0 -64 -32 -84.5t-88 -20.5z" />
<glyph unicode="&#x2079;" horiz-adv-x="310" d="M155 631q-14 0 -23.5 -2t-19.5 -8t-15 -20.5t-5 -37.5v-27q0 -37 15 -50.5t44 -13.5q9 0 25 3t28 7l12 3v101q0 45 -61 45zM151 681q122 0 122 -92v-224q0 -31 -12.5 -52t-33.5 -30t-38.5 -12.5t-35.5 -3.5q-70 0 -104 17q-1 1 0 3q0 1 5 21.5t5 21.5t4 1l5 -1l15 -2.5 t20 -3.5t24.5 -3t24.5 -1q64 0 64 48v67q-51 -13 -75 -13q-20 0 -34.5 3t-32.5 12.5t-27.5 33.5t-9.5 61v34q0 31 8 53.5t19 34t28 18t29.5 8t29.5 1.5z" />
<glyph unicode="&#x2080;" horiz-adv-x="336" d="M168 51q39 0 56.5 18.5t17.5 79.5v112q0 60 -17.5 78t-56.5 18t-56.5 -18t-17.5 -78v-112q0 -61 18 -79.5t56 -18.5zM168 -3q-30 0 -49 3.5t-41 17t-33 45t-11 81.5v124q0 38 8 65.5t19.5 42.5t31 23t35.5 10t40 2q30 0 48.5 -3.5t41 -16t33.5 -43.5t11 -80v-124 q0 -51 -11 -83t-33.5 -44.5t-40.5 -16t-49 -3.5z" />
<glyph unicode="&#x2081;" horiz-adv-x="298" d="M196 0h-51q-3 0 -3 2v340q-71 -54 -72 -55q-2 0 -3 1l-7 24l-6 24q0 1 3 4l83 67q1 1 5 1h51q2 0 2 -2v-404q0 -2 -2 -2z" />
<glyph unicode="&#x2082;" horiz-adv-x="306" d="M263 0h-223l-2 1v51q0 2 2 4q113 127 136 161q28 40 28 61v34q0 20 -11 30.5t-23 12.5t-30 2t-40 -3.5t-34.5 -6.5t-13.5 -4q-3 0 -3 2q0 1 -5 22l-6 21q0 2 1 3q40 20 101 20q123 0 123 -93v-44q0 -24 -22 -61t-45.5 -65.5t-75.5 -88.5v-6h143q2 0 2 -2v-49q0 -2 -2 -2z " />
<glyph unicode="&#x2083;" horiz-adv-x="310" d="M43 14q-1 1 -1 3q0 1 5 23l5 21q0 1 3 1l6 -1q6 -1 15.5 -3t21 -4t25.5 -3t26 -1q66 0 66 45v33q0 54 -58 54h-43q-3 0 -3 2v47q0 2 3 2h44q19 0 34 12.5t15 34.5v33q0 45 -63 45q-19 0 -41 -3t-34.5 -6t-13.5 -4q-3 -1 -3 1q0 1 -5 22l-5 22q0 2 1 3t12 5t36 8.5t52 4.5 q121 0 121 -91v-40q0 -19 -7.5 -36t-14.5 -24l-8 -7v-4q4 -2 10.5 -7t17 -25t10.5 -46v-43q0 -30 -11.5 -49.5t-32 -28t-38 -11t-41.5 -2.5q-29 0 -55.5 4t-38.5 9z" />
<glyph unicode="&#x2084;" horiz-adv-x="310" d="M237 0h-48q-3 0 -3 2v70h-154q-2 0 -2 2v51q0 3 2 5l28 68q27 69 55 138t28 70q2 2 3 2h55q1 0 1 -2l-108 -275v-5h92v78q0 2 2 2h49q3 0 3 -2v-78h41q3 0 3 -3v-48q0 -3 -3 -3h-41v-70q0 -2 -3 -2z" />
<glyph unicode="&#x2085;" horiz-adv-x="310" d="M151 -3q-72 0 -106 17q-2 2 -1 3q0 1 4.5 20.5t4.5 23.5q0 1 4 1l6 -1q6 -1 16 -3t21.5 -4t25.5 -3t25 -1q66 0 66 44v35q0 58 -58 58h-104q-2 0 -2 2v214q0 5 5 5h199q2 0 2 -2v-46q0 -3 -2 -3h-152v-120h55q21 0 37 -3t35.5 -12t30.5 -30.5t11 -55.5v-48q0 -25 -9 -43 t-21.5 -27t-31.5 -14t-31.5 -6t-29.5 -1z" />
<glyph unicode="&#x2086;" horiz-adv-x="307" d="M155 46q28 0 44.5 13.5t16.5 55.5v18q0 38 -14.5 51.5t-43.5 13.5q-8 0 -24.5 -3t-28.5 -7l-12 -3v-93q0 -24 18 -35t44 -11zM157 -3q-121 0 -121 93v223q0 31 12.5 52t33.5 30t38.5 12.5t35.5 3.5t35 -2t28.5 -4.5t20 -5.5t13.5 -5l5 -2q1 0 1 -3q-11 -33 -11 -43 q0 -1 -3 -1l-5 1q-6 2 -15 4t-19.5 3.5t-24 3t-24.5 1.5q-64 0 -64 -47v-76q51 13 74 13q21 0 35.5 -3t32.5 -12.5t27.5 -33.5t9.5 -61v-27q0 -31 -8 -53t-19 -33.5t-28 -18t-30 -8t-30 -1.5z" />
<glyph unicode="&#x2087;" horiz-adv-x="302" d="M128 0h-56q-2 0 -1 2l131 348v5h-160q-2 0 -2 2v48q0 3 2 3h221q2 0 2 -2v-49q0 -1 -1 -3v-2l-66 -174q-66 -175 -66 -176q-2 -2 -4 -2z" />
<glyph unicode="&#x2088;" horiz-adv-x="310" d="M155 46q31 0 46.5 12t15.5 47v22q0 59 -61 59q-63 0 -63 -59v-22q0 -34 15.5 -46.5t46.5 -12.5zM155 238q59 0 59 50v21q0 53 -58 53q-59 0 -59 -53v-21q0 -50 58 -50zM154 -4q-54 0 -85.5 21.5t-31.5 83.5v30q0 26 10.5 46t21.5 27l11 7v2q-4 2 -10.5 7t-17 23t-10.5 40 v29q0 99 116 99q110 0 110 -99v-30q0 -21 -9 -38t-18 -24l-9 -6v-2q5 -2 12 -7.5t18.5 -26t11.5 -47.5v-30q0 -64 -32 -84.5t-88 -20.5z" />
<glyph unicode="&#x2089;" horiz-adv-x="310" d="M155 361q-14 0 -23.5 -2t-19.5 -8t-15 -20.5t-5 -37.5v-27q0 -37 15 -50.5t44 -13.5q9 0 25 3t28 7l12 3v101q0 45 -61 45zM151 411q122 0 122 -92v-224q0 -31 -12.5 -52t-33.5 -30t-38.5 -12.5t-35.5 -3.5q-70 0 -104 17q-1 1 0 3q0 1 5 21.5t5 21.5t4 1l5 -1l15 -2.5 t20 -3.5t24.5 -3t24.5 -1q64 0 64 48v67q-51 -13 -75 -13q-20 0 -34.5 3t-32.5 12.5t-27.5 33.5t-9.5 61v34q0 31 8 53.5t19 34t28 18t29.5 8t29.5 1.5z" />
<glyph unicode="&#x20ac;" horiz-adv-x="565" d="M347 -8q-41 0 -72 4t-66.5 19.5t-58.5 42t-38.5 74.5t-15.5 114h-49q-4 0 -4 4v59q0 4 4 4h49v58h-49q-4 0 -4 4v59q0 4 4 4h49q0 75 19 126t56 77t79 36t99 10q119 0 177 -29q3 -2 2 -6l-29 -84q-2 -3 -5 -2q-4 1 -22.5 5t-54.5 8t-68 4q-67 0 -98.5 -30.5t-36.5 -114.5 h160q4 0 4 -4v-59q0 -4 -4 -4h-161v-58h161q4 0 4 -4v-59q0 -4 -4 -4h-160q4 -88 35 -117t99 -29q36 0 74.5 5.5t57.5 10.5t22 6q4 1 5 -2l31 -85q2 -4 -2 -5q-6 -4 -22 -11t-64 -17t-103 -10z" />
<glyph unicode="&#x2122;" horiz-adv-x="799" d="M391 291v386q0 3 2 3h84q3 0 3 -2l82 -206h7q79 204 80 205q1 3 4 3h83q1 0 1 -3v-386q0 -2 -1 -2h-69q-1 0 -1 2v245h-8q-64 -162 -64 -163q-2 -3 -3 -3h-52q-4 0 -4 3l-64 163h-8v-245q0 -2 -2 -2h-68q-2 0 -2 2zM149 291v322h-98q-2 0 -2 2v62q0 3 2 3h268q3 0 3 -3 v-62q0 -2 -3 -2h-97v-322q0 -2 -2 -2h-69q-2 0 -2 2z" />
<glyph unicode="&#x2190;" horiz-adv-x="711" d="M223 337h429q4 0 4 -4v-85q0 -4 -4 -4h-429l170 -170q2 -4 0 -6t-31 -30.5t-30 -29.5q-2 -2 -5 0l-280 279q-3 3 0 6l280 280q3 3 5 0l61 -60q3 -3 0 -6z" />
<glyph unicode="&#x2191;" horiz-adv-x="679" d="M386 433v-429q0 -4 -4 -4h-86q-4 0 -4 4v429l-170 -170q-2 -3 -5 0q-1 1 -7.5 7t-15 15t-17 17.5t-14.5 15.5l-6 6q-3 2 0 5q2 2 140 140.5t139 139.5q3 3 6 0l280 -280q2 -3 0 -5l-61 -61q-3 -3 -5 0z" />
<glyph unicode="&#x2192;" horiz-adv-x="711" d="M488 244h-429q-4 0 -4 4v86q0 4 4 4h429l-170 170q-2 2 0 5q3 2 61 60q3 3 5 0q2 -2 140.5 -140t139.5 -139q3 -3 0 -6l-280 -280q-2 -2 -5 0l-61 61q-2 3 0 5z" />
<glyph unicode="&#x2193;" horiz-adv-x="679" d="M293 177v429q0 4 4 4h85q4 0 4 -4v-429l170 170q4 2 6 0l10 -10q9 -10 20 -21t20 -20.5t10 -9.5q2 -2 0 -5l-279 -280q-3 -3 -6 0l-280 280q-3 3 0 5l60 61q3 3 6 0z" />
<glyph unicode="&#x2194;" horiz-adv-x="927" d="M327 8l-280 280q-4 2 0 6l280 280q3 2 5 0l61 -61q3 -3 0 -6l-170 -169h481q-168 167 -169 169q-3 3 0 6l60 61q3 3 6 0l140 -140t139 -140q3 -3 0 -6l-279 -280q-4 -2 -6 0l-60 61q-3 2 0 5l169 170h-481l170 -170q3 -2 0 -5l-61 -61q-2 -2 -5 0z" />
<glyph unicode="&#x2195;" horiz-adv-x="679" d="M57 477q1 2 279 280q3 3 6 0l280 -280q2 -4 0 -6l-61 -60q-3 -3 -5 0l-170 169v-481l170 170q2 3 5 0l61 -61q2 -2 0 -5l-280 -280q-3 -3 -6 0q-278 278 -279 280q-3 2 0 5l60 61q3 3 5 0l170 -170v481q-168 -167 -170 -169q-2 -3 -5 0l-60 60q-3 3 0 6z" />
<glyph unicode="&#x2196;" horiz-adv-x="576" d="M524 142q3 -3 0 -6l-61 -60q-3 -3 -6 0l-304 303v-240q0 -4 -4 -4h-85q-4 0 -4 4v396q0 4 4 4h396q4 0 4 -4v-86q0 -4 -4 -4h-241z" />
<glyph unicode="&#x2197;" horiz-adv-x="575" d="M118 75q-3 -3 -6 0l-60 61q-3 2 0 5l303 304h-240q-4 0 -4 4v86q0 4 4 4h396q4 0 4 -4v-396q0 -4 -4 -4h-86q-4 0 -4 4v240z" />
<glyph unicode="&#x2198;" horiz-adv-x="576" d="M52 471q-3 3 0 6l61 60q3 3 5 0l304 -304v240q0 4 4 4h86q4 0 4 -4v-395q0 -4 -4 -4h-396q-4 0 -4 4v85q0 4 4 4h240z" />
<glyph unicode="&#x2199;" horiz-adv-x="575" d="M457 538q3 3 6 0l60 -61q2 -4 0 -6l-304 -304h240q4 0 4 -4v-85q0 -4 -4 -4h-395q-4 0 -4 4v396q0 4 4 4h85q4 0 4 -4v-241z" />
<glyph unicode="&#x2212;" horiz-adv-x="378" d="M50 228q-4 0 -4 4v86q0 4 4 4h278q4 0 4 -4v-86q0 -4 -4 -4h-278z" />
<glyph unicode="&#x221a;" horiz-adv-x="877" d="M47 285l68 70q3 3 5 0l198 -198q436 439 438 440q3 3 6 0l68 -70q2 -3 0 -5q-16 -16 -262 -264.5t-247 -249.5q-3 -3 -6 0l-28 28q-28 29 -67 68.5l-78 79t-66.5 67.5t-28.5 28q-3 3 0 6z" />
<glyph unicode="&#x2248;" d="M70 388q0 9 5 15q4 5 16.5 14.5t37.5 20t48 10.5q35 0 90 -29t85 -29q29 0 63 22l34 23q4 0 4 -5v-56q0 -9 -5 -15q-6 -7 -17 -16t-35.5 -20t-49.5 -11q-35 0 -89.5 30t-83.5 30q-21 0 -43.5 -11t-38 -22.5t-18.5 -11.5t-3 5v56zM70 182q0 9 5 15q4 5 16.5 14.5t37.5 20 t48 10.5q35 0 90 -29t85 -29q29 0 63 22l34 23q4 0 4 -5v-55q0 -10 -5 -16q-47 -47 -102 -47q-35 0 -89.5 30t-83.5 30q-21 0 -43.5 -11t-38 -22.5t-18.5 -11.5t-3 5v56z" />
<glyph unicode="&#x2260;" d="M104 21q-4 0 -3 4l50 101h-89q-3 0 -3 3v87q0 4 3 4h137l55 112h-192q-3 0 -3 4v86q0 4 3 4h240q49 99 51 103q3 4 5 4h70q5 0 3 -4l-51 -103h89q4 0 4 -4v-86q0 -4 -4 -4h-137l-55 -112h192q4 0 4 -4v-86q0 -4 -4 -4h-240q-48 -99 -50 -101q-1 -4 -5 -4h-70z" />
<glyph unicode="&#x2264;" d="M470 148q-3 1 -206 83l-202 82q-4 2 -4 4v77q0 3 4 5l408 165q4 2 4 -3v-92q0 -3 -4 -6l-265 -105v-5q262 -103 265 -104q4 -2 4 -6v-92q0 -5 -4 -3zM61 0q-4 0 -4 4v87q0 4 4 4h409q4 0 4 -4v-87q0 -4 -4 -4h-409z" />
<glyph unicode="&#x2265;" d="M61 148q-4 -2 -4 3v92q0 4 4 6l265 104v5q-262 104 -265 105q-4 3 -4 6v92q0 5 4 3q2 -1 204.5 -83t203.5 -82q4 -2 4 -5v-77q0 -2 -4 -4l-203 -82q-202 -82 -205 -83zM470 0h-409q-4 0 -4 4v87q0 4 4 4h409q4 0 4 -4v-87q0 -4 -4 -4z" />
<glyph unicode="&#x25b2;" horiz-adv-x="715" d="M697 285v-132q0 -4 -1 -4t-2 1l-332 237h-9q-331 -237 -332 -238q-4 -4 -4 3v133q0 3 4 6l328 236q8 5 16 0l329 -236q3 -3 3 -6z" />
<glyph unicode="&#x25ba;" horiz-adv-x="552" d="M212 0h-132q-5 0 -3 3l237 332v9q-237 331 -238 332q-4 4 3 4h133q3 0 6 -4l236 -328q5 -8 0 -16l-236 -329q-3 -3 -6 -3z" />
<glyph unicode="&#x25bc;" horiz-adv-x="715" d="M17 393v133l3 3l332 -238h9q331 237 333 239q1 1 2 -1q1 -1 1 -2v-134q0 -2 -4 -5t-165 -119t-163 -118q-8 -6 -16 0q-274 198 -329 237q-3 2 -3 5z" />
<glyph unicode="&#x25c4;" horiz-adv-x="552" d="M340 680h132q6 0 3 -3l-237 -332v-9q237 -331 238 -333q2 -1 0 -2t-3 -1h-133q-3 0 -6 4l-236 328q-6 8 0 16q19 26 117 162.5t119 166.5q3 3 6 3z" />
<glyph unicode="&#x25fc;" horiz-adv-x="480" d="M0 480h480v-480h-480v480z" />
<glyph horiz-adv-x="530" />
<glyph horiz-adv-x="530" d="M264 94q61 0 86.5 29t25.5 124v190q0 93 -26 121.5t-86 28.5q-40 0 -62 -9t-36.5 -42.5t-14.5 -98.5v-190q0 -95 26.5 -124t86.5 -29zM264 -10q-41 0 -68 3t-60.5 17t-53 39t-33.5 73t-14 116v211q0 65 13.5 111.5t33.5 71.5t52.5 38.5t60.5 17t69 3.5q40 0 66.5 -3 t60.5 -16t54 -37.5t34.5 -71.5t14.5 -114v-211q0 -50 -7.5 -89t-18.5 -65t-30.5 -44.5t-36.5 -28t-43.5 -14.5t-45.5 -6t-48 -1z" />
<glyph horiz-adv-x="530" d="M355 0h-103q-4 0 -4 4v551q-118 -88 -120 -89q-3 -2 -3 2q-1 2 -13.5 47t-12.5 46q-2 3 4 6q2 2 72 56t71 55q2 2 6 2h103q4 0 4 -4v-673q0 -3 -4 -3z" />
<glyph horiz-adv-x="530" d="M455 0h-382q-4 0 -4 3v94q0 5 3 8q15 16 45 49.5t44.5 50t40.5 45t39 44.5t31.5 39.5t28.5 38.5t20 32.5t14 31t4 24.5v58q0 69 -98 69q-31 0 -68.5 -5.5t-59 -10.5t-23.5 -6q-6 0 -6 3q0 1 -9 42t-9 42q-1 4 1 6q5 3 21 9.5t60.5 14.5t94.5 8q212 0 212 -157v-81 q0 -40 -34.5 -99t-70 -102.5t-117.5 -138.5v-9h222q3 0 3 -4v-95q0 -4 -3 -4z" />
<glyph horiz-adv-x="530" d="M73 17q-2 1 -2 6q1 2 8.5 42.5t7.5 42.5q1 2 6 2q2 -1 25.5 -5.5t63.5 -9t72 -4.5q101 0 101 69v53q0 85 -89 85h-76q-4 0 -4 4v89q0 4 4 4h77q29 0 52 19t23 53v53q0 69 -97 69q-31 0 -69.5 -5t-59 -9.5t-24.5 -5.5q-1 -1 -3 0t-2 3q0 1 -8.5 42t-8.5 43q0 4 2 5 q87 29 173 29q31 0 56 -2.5t55 -11.5t50 -24.5t34 -45.5t14 -70v-71q0 -31 -13 -58.5t-25 -39.5l-13 -12v-8q3 -1 7 -4t15 -13.5t19.5 -23.5t15.5 -35.5t7 -49.5v-77q0 -50 -19 -83t-53.5 -47.5t-66 -19.5t-74.5 -5q-50 0 -95 7t-65 13z" />
<glyph horiz-adv-x="530" d="M420 0h-97q-4 0 -4 4v111h-263q-4 0 -4 3v97q0 4 3 10l90 225q90 224 91 226q2 4 4 4h110q4 0 2 -4l-175 -449v-9h142v123q0 4 3 4h98q4 0 4 -4v-123h59q4 0 4 -4v-95q0 -4 -4 -4h-59v-111q0 -4 -4 -4z" />
<glyph horiz-adv-x="530" d="M257 -11q-98 0 -182 28q-2 1 -2 5l17 85q1 4 5 2q1 0 11.5 -2t27.5 -4.5t37 -5t43.5 -4.5t42.5 -2q100 0 100 68v57q0 89 -89 89h-176q-3 0 -3 4v362q0 9 9 9h344q4 0 4 -4v-89q0 -4 -4 -4h-251v-182h80q37 0 65 -4.5t62 -20t53 -52t19 -91.5v-89q0 -42 -15.5 -72.5 t-36.5 -46t-53.5 -24.5t-55 -10.5t-52.5 -1.5z" />
<glyph horiz-adv-x="530" d="M266 85q20 0 34 3t29 13t23 32.5t8 57.5v34q0 57 -21.5 77.5t-63.5 20.5q-15 0 -40 -5t-43 -10l-17 -5v-151q0 -35 26 -51t65 -16zM273 -10q-210 0 -210 159v372q0 44 16 76.5t38.5 50t53.5 28t53.5 13t45.5 2.5q18 0 35.5 -1t32 -3t27.5 -4t24 -5t19.5 -5.5t15.5 -5 t11.5 -4t7.5 -3.5l3 -1q2 -1 2 -6l-10.5 -42t-9.5 -40t-5 -2l-9 2q-10 2 -25.5 5t-34 6t-41 5t-41.5 2q-97 0 -97 -72v-119q83 20 120 20q34 0 58.5 -5t54 -21.5t45.5 -56.5t16 -101v-50q0 -52 -13.5 -90t-31.5 -57.5t-47.5 -30.5t-51.5 -13.5t-52 -2.5z" />
<glyph horiz-adv-x="530" d="M237 0h-112q-3 0 -2 4l213 566v9h-259q-4 0 -4 4v92q0 5 4 5h379q3 0 3 -4v-92q0 -2 -2 -10q0 -1 -107 -284.5t-108 -285.5q-1 -4 -5 -4z" />
<glyph horiz-adv-x="530" d="M266 84q46 0 69.5 19t23.5 72v39q0 87 -91 87q-95 0 -95 -87v-39q0 -52 23.5 -71.5t69.5 -19.5zM266 403q88 0 88 75v39q0 80 -86 80q-90 0 -90 -80v-39q0 -75 88 -75zM265 -11q-34 0 -60.5 3.5t-55 14.5t-46.5 29.5t-30 52t-12 78.5v54q0 26 7.5 49t17.5 37.5t20.5 24.5 t17.5 14l8 5v4q-7 4 -17 12t-26.5 37t-16.5 65v52q0 44 12.5 76t31 50t46.5 28t52 13t55 3q39 0 67.5 -5.5t59 -21.5t47 -52.5t16.5 -90.5v-53q0 -35 -14.5 -63t-28.5 -39l-15 -11v-3q3 -1 7.5 -4t16.5 -14.5t21 -25t16.5 -37t7.5 -50.5v-54q0 -57 -16.5 -94.5t-48 -54.5 t-63.5 -23t-77 -6z" />
<glyph horiz-adv-x="530" d="M259 688q210 0 210 -159v-367q0 -44 -16 -76.5t-38.5 -50t-53.5 -28t-53.5 -13t-45.5 -2.5q-50 0 -95.5 7.5t-61 13t-21.5 8.5q-3 2 -2 6l20 83q2 2 5 2q3 -1 25 -5t60 -8.5t69 -4.5q97 0 97 73v103q-84 -20 -121 -20q-34 0 -58.5 5t-54 21.5t-45.5 56.5t-16 101v60 q0 52 13.5 90t31.5 57.5t47.5 30.5t51.5 13.5t52 2.5zM266 593q-20 0 -34 -3t-29 -13t-22.5 -32t-7.5 -57v-45q0 -57 21.5 -77.5t63.5 -20.5q15 0 40 5t42 10l18 5v161q0 67 -92 67z" />
<glyph horiz-adv-x="530" d="M213 97q-4 0 -4 4v105q0 4 4 4h105q4 0 4 -4v-105q0 -4 -4 -4h-105zM213 467q-4 0 -4 4v104q0 4 4 4h105q4 0 4 -4v-104q0 -4 -4 -4h-105z" />
<glyph horiz-adv-x="454" d="M102 146q-3 3 0 6q59 59 60 61q2 3 5 0q4 -4 94 -97.5t91 -95.5q2 -2 0 -5q-2 -2 -30.5 -31t-29.5 -30q-2 -3 -5 0z" />
<glyph horiz-adv-x="421" d="M249 425q-5 0 -3 4l38 89q3 4 6 4h68q3 0 2 -4l-38 -89q-4 -4 -5 -4h-68zM62 -40q-4 0 -3 4q1 3 19 44t19 43q1 4 7 4h67q3 0 2 -4l-39 -87q-1 -4 -6 -4h-66z" />
<glyph horiz-adv-x="583" d="M363 592q-3 0 -2 4q1 1 31.5 60.5t31.5 60.5q2 4 5 4h89q5 0 2 -4l-62 -121q-3 -4 -6 -4h-89zM55 -40q-2 0 -1 4l58 115q3 4 6 4h89q5 0 2 -4l-59 -115q-1 -4 -5 -4h-90z" />
<glyph horiz-adv-x="1160" d="M292 -10q-118 0 -223 35q-3 3 -2 6l13 44q14 44 15 45q0 3 4 3q87 -29 196 -29q39 0 62.5 3.5t43 20t19.5 47.5v52q0 35 -32 52.5t-100 23.5q-124 12 -170.5 48t-46.5 120v77q0 153 224 153q59 0 108.5 -7.5t69 -14t22.5 -9.5q4 -2 2 -5l-27 -85q-2 -3 -5 -2 q-2 1 -24 5.5t-64 9.5t-81 5q-49 0 -77.5 -13t-28.5 -51v-50q0 -36 26.5 -52.5t99.5 -23.5q123 -13 172.5 -49t49.5 -121v-78q0 -52 -22 -86t-62 -49t-76.5 -20t-85.5 -5zM841 -10q-118 0 -223 35q-3 3 -2 6l14 44q13 44 14 45q0 3 4 3q87 -29 196 -29q39 0 62.5 3.5t43 20 t19.5 47.5v52q0 35 -32 52.5t-100 23.5q-124 12 -170.5 48t-46.5 120v77q0 153 224 153q59 0 108.5 -7.5t69 -14t22.5 -9.5q4 -2 2 -5l-27 -85q-2 -3 -5 -2q-2 1 -24 5.5t-64 9.5t-81 5q-49 0 -77.5 -13t-28.5 -51v-50q0 -36 26.5 -52.5t99.5 -23.5q123 -13 172.5 -49 t49.5 -121v-78q0 -52 -22 -86t-62 -49t-76.5 -20t-85.5 -5z" />
<glyph horiz-adv-x="477" d="M106 0h-99q-3 0 -2 3q1 2 88 269.5t87 268.5q2 3 4 3h111q3 0 4 -3l173 -538q2 -3 -3 -3h-99q-2 0 -4 3l-29 99h-198q-28 -97 -29 -99q-2 -3 -4 -3zM163 183h151l-67 230h-16z" />
<glyph horiz-adv-x="463" d="M153 81h90q23 0 38 2.5t29 15.5t14 36v46q0 58 -81 58h-90v-158zM153 314h85q31 0 41 -2q24 43 24 77q0 46 -20 60t-56 14h-74v-149zM253 0h-201v544h192q29 0 51.5 -4t50 -17t43 -43.5t15.5 -77.5t-36 -116q28 -16 42.5 -39t14.5 -65v-50q0 -45 -13.5 -73t-41 -40 t-52.5 -15.5t-65 -3.5z" />
<glyph horiz-adv-x="430" d="M241 -4q-44 0 -75 6t-63 25t-49 61.5t-17 107.5v157q0 63 17 104.5t49 60t63.5 25t75.5 6.5q93 0 143 -25q2 -1 1 -4q-1 -2 -14.5 -38.5t-13.5 -37.5q-1 -2 -5 -2q-2 1 -16.5 4.5t-42 7t-52.5 3.5q-22 0 -36.5 -3t-31.5 -13t-26 -35t-9 -63v-138q0 -70 25.5 -92t76.5 -22 q18 0 36.5 2t32.5 4.5t26 5t18.5 4.5t7.5 2q1 1 3 -2q0 -1 7.5 -19.5t14.5 -37.5l7 -18q2 -3 -2 -5q-62 -31 -151 -31z" />
<glyph horiz-adv-x="477" d="M154 92h84q50 0 73.5 21.5t23.5 94.5v130q0 38 -7 62.5t-22.5 34.5t-29.5 13t-38 3h-84v-359zM238 0h-186v544h186q22 0 37 -0.5t38 -4.5t38 -11.5t33 -22t29 -34.5t18 -51.5t7 -71.5v-148q0 -56 -13 -95t-31 -59t-48 -31t-52 -13t-56 -2z" />
<glyph horiz-adv-x="423" d="M52 0v544h335q4 0 4 -3v-83q0 -3 -4 -3h-233v-136h197q3 0 3 -3v-82q0 -3 -3 -3h-197v-142h233q4 0 4 -4v-82q0 -3 -4 -3h-335z" />
<glyph horiz-adv-x="419" d="M55 0q-3 0 -3 3v541h335q4 0 4 -3v-83q0 -3 -4 -3h-233v-160h197q3 0 3 -3v-83q0 -3 -3 -3h-197v-203q0 -3 -3 -3h-96z" />
<glyph horiz-adv-x="472" d="M238 -4q-33 0 -57 3t-53 14.5t-47.5 32t-31 59t-12.5 91.5v157q0 53 14 91.5t33 58t49.5 30.5t53 13t54.5 2q44 0 86 -6.5t59.5 -11.5t21.5 -7t2 -5l-27 -73q-1 -2 -4 -2l-5 1q-4 1 -12 2t-18 2.5t-22.5 3t-25.5 2.5t-27.5 2t-27.5 1q-17 0 -28.5 -1t-27 -7.5t-24.5 -18 t-15.5 -33.5t-6.5 -54v-140q0 -71 25.5 -93t74.5 -22q13 0 38.5 3t44.5 6l19 3v114h-75q-3 0 -3 4v78q0 3 3 3h162v-273q-132 -30 -190 -30z" />
<glyph horiz-adv-x="498" d="M55 0q-3 0 -3 3v538q0 3 3 3h96q3 0 3 -3v-224h190v224q0 3 4 3h95q3 0 3 -3v-538q0 -3 -3 -3h-95q-4 0 -4 3v227h-190v-227q0 -3 -3 -3h-96z" />
<glyph horiz-adv-x="206" d="M55 0q-3 0 -3 3v538q0 3 3 3h96q3 0 3 -3v-538q0 -3 -3 -3h-96z" />
<glyph horiz-adv-x="383" d="M156 -6q-33 0 -66 5t-47 9t-17 6q-2 1 -1 4l24 77q1 2 4 1l6 -1q6 -1 16 -2t22 -2.5t27 -2.5t28 -1q37 0 58.5 13t21.5 54v387q0 3 3 3h95q3 0 3 -3v-394q0 -42 -11.5 -71.5t-27.5 -45t-42 -24t-46 -10.5t-50 -2z" />
<glyph horiz-adv-x="474" d="M55 0q-3 0 -3 3v538q0 3 3 3h96q3 0 3 -3v-224h29q145 221 147 224t5 3h107q2 0 1 -3l-178 -265q188 -271 190 -273q3 -3 -1 -3h-108q-3 0 -5 3l-153 226h-34v-226q0 -3 -3 -3h-96z" />
<glyph horiz-adv-x="407" d="M52 0v541q0 3 3 3h96q3 0 3 -3v-452h233q4 0 4 -4v-82q0 -3 -4 -3h-335z" />
<glyph horiz-adv-x="604" d="M55 0q-3 0 -3 3v538q0 3 3 3h117q3 0 4 -2l124 -290h10q118 286 119 288q1 4 6 4h115q3 0 3 -3v-538q0 -3 -3 -3h-94q-3 0 -3 3v345h-12q-95 -229 -96 -231q-1 -3 -6 -3h-72q-5 0 -6 3l-98 230h-11v-344q0 -3 -3 -3h-94z" />
<glyph horiz-adv-x="508" d="M53 0q-3 0 -3 3v538q0 3 4 3h109q3 0 5 -3l185 -362h9v362q0 3 3 3h94q2 0 2 -3v-538q0 -3 -3 -3h-111q-3 0 -5 3l-184 363h-9v-363q0 -3 -3 -3h-93z" />
<glyph horiz-adv-x="472" d="M235 87q50 0 73.5 21.5t23.5 94.5v140q0 71 -24 92t-73 21q-48 0 -72 -21t-24 -92v-140q0 -74 23.5 -95t72.5 -21zM235 -5q-34 0 -57 2.5t-52 13.5t-47 31.5t-30.5 59.5t-12.5 93v157q0 53 12.5 90.5t30 57.5t46.5 31.5t52.5 14t57.5 2.5q33 0 55.5 -2.5t52.5 -13.5 t48 -30.5t31 -58t13 -91.5v-157q0 -55 -13 -94.5t-30.5 -59.5t-48 -31t-52.5 -13t-56 -2z" />
<glyph horiz-adv-x="458" d="M154 285h94q83 0 83 65v39q0 41 -23 53.5t-60 12.5h-94v-170zM151 0h-96q-3 0 -3 3v541h200q26 0 46 -2t47 -10.5t44.5 -23.5t30 -43.5t12.5 -68.5v-54q0 -146 -180 -146h-98v-193q0 -3 -3 -3z" />
<glyph horiz-adv-x="470" d="M235 -5q-34 0 -57 2.5t-52 13.5t-47 31.5t-30.5 59.5t-12.5 93v157q0 53 12.5 90.5t30 57.5t46.5 31.5t52.5 14t57.5 2.5q33 0 55.5 -2.5t52.5 -13.5t48 -30.5t31 -58t13 -91.5v-157q0 -86 -30 -134q8 -8 17 -18t14 -15l4 -4q3 -1 0 -4q-1 -1 -13.5 -14t-24.5 -26 l-13 -13q-3 -3 -5 0l-41 42q-40 -14 -108 -14zM232 125q-3 2 0 5l52 52q2 2 5 0q0 -1 37 -38q6 22 6 59v140q0 71 -24 92t-73 21q-48 0 -72 -21t-24 -92v-140q0 -74 23.5 -95t72.5 -21q22 0 31 2z" />
<glyph horiz-adv-x="474" d="M153 284h95q83 0 83 68v35q0 68 -83 68h-95v-171zM150 0h-95q-3 0 -3 3v541h200q25 0 45 -2t47 -11t45 -24.5t30.5 -45.5t12.5 -71v-42q0 -103 -80 -134l95 -211q1 -3 -2 -3h-106q-3 0 -4 3l-81 192h-101v-192q0 -3 -3 -3z" />
<glyph horiz-adv-x="457" d="M227 -4q-121 0 -183 31q-3 1 -1 5q0 1 7 20t13.5 38t7.5 19q0 4 4 2l8 -3q8 -2 22.5 -5.5t32.5 -7t42 -6t48 -2.5q45 0 69.5 10t24.5 42v35q0 25 -25 38.5t-77 18.5q-98 9 -135.5 38t-37.5 98v59q0 123 181 123q110 0 164 -27q2 -2 2 -4l-26 -75q-1 -2 -4 -2q-2 1 -19 5 t-50.5 8.5t-64.5 4.5q-79 0 -79 -47v-33q0 -26 20 -38.5t77 -18.5q98 -11 138 -40.5t40 -97.5v-59q0 -34 -13 -58.5t-31.5 -38t-47.5 -21t-52.5 -9.5t-54.5 -2z" />
<glyph horiz-adv-x="419" d="M162 0q-3 0 -3 3v450h-144q-3 0 -3 3v85q0 3 3 3h389q3 0 3 -3v-85q0 -3 -3 -3h-144v-450q0 -3 -3 -3h-95z" />
<glyph horiz-adv-x="488" d="M227 -4q-101 0 -140 49.5t-39 164.5v331q0 3 2 3h96q3 0 3 -3v-323q0 -72 14.5 -101t64.5 -29h34q49 0 63 28t14 102v323q0 3 3 3h95q3 0 3 -3v-331q0 -113 -35.5 -163.5t-143.5 -50.5h-34z" />
<glyph horiz-adv-x="476" d="M180 0q-2 0 -4 2q0 2 -82.5 267t-84.5 272q0 3 2 3h100q3 0 4 -3l116 -394h14q116 391 117 394q0 3 4 3h99q3 0 2 -3l-169 -538q-2 -3 -5 -3h-113z" />
<glyph horiz-adv-x="670" d="M142 0q-4 0 -4 3l-125 538q-1 3 2 3h99q2 0 4 -3l83 -381h15q75 277 76 279q2 3 4 3h80q2 0 4 -3l75 -279h16q81 379 82 381q1 3 4 3h99q4 0 3 -3q-1 -2 -63 -269t-62 -269q-2 -3 -5 -3h-118q-3 0 -5 3l-66 271h-9q-65 -266 -66 -270t-5 -4h-118z" />
<glyph horiz-adv-x="448" d="M12 0q-4 0 -2 3l159 279q-146 257 -147 259q-3 3 2 3h104q1 0 4 -3l89 -162h5q88 160 89 162q3 3 4 3h105q1 0 2 -1t0 -2l-146 -259q157 -278 158 -279q3 -3 -2 -3h-105q-3 0 -4 3l-101 182h-5q-99 -180 -100 -182q-1 -3 -4 -3h-105z" />
<glyph horiz-adv-x="434" d="M170 0q-3 0 -3 3v209q-159 327 -160 329q-1 3 2 3h102q1 0 4 -3l101 -216h5q98 214 100 216q1 3 3 3h100q4 0 3 -3l-159 -329v-209q0 -3 -3 -3h-95z" />
<glyph horiz-adv-x="422" d="M34 0q-2 0 -2 2v85q0 3 2 7l235 352v7h-225q-3 0 -3 4v83q0 4 3 4h341q3 0 3 -4v-83q0 -7 -2 -9l-235 -350v-8h234q3 0 3 -3v-84q0 -3 -3 -3h-351z" />
<glyph horiz-adv-x="353" d="M63 458q-3 0 -3 3v80q0 3 3 3h73q3 0 3 -3v-80q0 -3 -3 -3h-73zM218 458q-4 0 -4 3v80q0 3 4 3h71q3 0 3 -3v-80q0 -3 -3 -3h-71z" />
<glyph horiz-adv-x="354" d="M176 444l-74 114q-3 3 1 3h84q3 0 4 -3l58 -114q1 -4 -1 -4h-68q-2 0 -4 4z" />
<glyph horiz-adv-x="353" d="M128 440h-68q-1 0 -1.5 1t0.5 2q4 7 36 56t36 58l6 3h78q5 0 7 -3l72 -114q2 -3 -1 -3h-68q-3 0 -5 3l-42 59h-3q-40 -57 -41 -59q-3 -3 -6 -3z" />
<glyph horiz-adv-x="353" d="M67 458q-3 0 -3 4v49q0 7 5 13q28 28 59 28q22 0 52.5 -15t47.5 -15q18 0 36 14t20 14q3 0 3 -4v-49q0 -8 -5 -14q-24 -29 -59 -29q-22 0 -52.5 16t-46.5 16q-18 0 -37 -14t-20 -14z" />
<glyph horiz-adv-x="353" d="M288 468h-222q-3 0 -3 3v66q0 3 3 3h222q2 0 2 -3v-66q0 -3 -2 -3z" />
<glyph horiz-adv-x="354" d="M177 444q-2 -4 -4 -4h-68q-3 0 -1 4l58 114q2 3 5 3h84q3 0 1 -3z" />
<glyph horiz-adv-x="353" d="M195 -126h-85q-2 0 -1 3l15 32q14 32 28.5 63.5t15.5 32.5q2 3 4 3h68q2 0 1 -3l-42 -128q-1 -3 -4 -3z" />
<glyph horiz-adv-x="353" d="M177 442q-113 0 -113 103q0 5 5 5h42q6 0 7 -5q9 -25 20.5 -32.5t38.5 -7.5q25 0 37 8.5t19 31.5q2 5 8 5h42q5 0 5 -5q-6 -103 -111 -103z" />
<glyph horiz-adv-x="353" d="M131 453q-3 0 -3 3v85q0 3 3 3h89q3 0 3 -3v-85q0 -3 -4 -3h-88z" />
<glyph horiz-adv-x="353" d="M174 466q18 0 27.5 7t9.5 28v9q0 34 -35 34q-39 0 -39 -34v-9q0 -21 9.5 -28t27.5 -7zM174 425q-36 0 -58 14t-22 58v18q0 42 22.5 56t59.5 14q16 0 27.5 -2t24 -8.5t19.5 -21.5t7 -38v-18q0 -24 -6.5 -39.5t-19.5 -22t-25 -8.5t-29 -2z" />
<glyph horiz-adv-x="353" d="M117 443q-1 -3 -5 -3h-68q-2 0 -1 3l58 114q0 3 4 3h85q2 0 1 -3l-37 -56q-36 -56 -37 -58zM240 443q-2 -3 -4 -3h-68q-2 0 -1 3l58 114q1 3 5 3h83q5 0 2 -3q-1 -1 -12.5 -18.5t-25 -38t-25.5 -38.5t-12 -19z" />
<glyph horiz-adv-x="353" d="M174 -147q-34 0 -53.5 13.5t-19.5 53.5q0 47 53 85q6 3 12 3h71q4 0 5 -3q0 -2 -3 -4q-33 -20 -49.5 -35t-16.5 -30q0 -16 17 -16q5 0 21 8q5 2 7 -1q0 -1 5.5 -11.5t11.5 -21.5l6 -11q2 -5 -1 -7q-23 -23 -66 -23z" />
<glyph horiz-adv-x="353" d="M224 558h71q3 0 1 -3l-83 -114q-3 -3 -5 -3h-64q-4 0 -6 3q-5 9 -42 58.5t-41 55.5q-1 3 1 3h71q2 0 5 -3l42 -58h4q39 56 41 58q3 3 5 3z" />
<glyph horiz-adv-x="477" d="M106 0h-99q-3 0 -2 3q1 2 88 269.5t87 268.5q2 3 4 3h111q3 0 4 -3l173 -538q2 -3 -3 -3h-99q-2 0 -4 3l-29 99h-198q-28 -97 -29 -99q-2 -3 -4 -3zM163 183h151l-67 230h-16zM238 604l-74 114q-3 3 1 3h84q3 0 4 -3l58 -114q1 -4 -1 -4h-68q-2 0 -4 4z" />
<glyph horiz-adv-x="477" d="M106 0h-99q-3 0 -2 3q1 2 88 269.5t87 268.5q2 3 4 3h111q3 0 4 -3l173 -538q2 -3 -3 -3h-99q-2 0 -4 3l-29 99h-198q-28 -97 -29 -99q-2 -3 -4 -3zM163 183h151l-67 230h-16zM236 604q-2 -4 -4 -4h-68q-3 0 -1 4l58 114q1 3 5 3h84q2 0 1 -3z" />
<glyph horiz-adv-x="477" d="M106 0h-99q-3 0 -2 3q1 2 88 269.5t87 268.5q2 3 4 3h111q3 0 4 -3l173 -538q2 -3 -3 -3h-99q-2 0 -4 3l-29 99h-198q-28 -97 -29 -99q-2 -3 -4 -3zM163 183h151l-67 230h-16zM189 600h-68q-1 0 -1.5 1t0.5 2q4 7 36 56t36 58l6 3h78q5 0 7 -3l72 -114q1 -3 -1 -3h-68 q-4 0 -5 3l-42 59h-3q-40 -57 -41 -59q-3 -3 -6 -3z" />
<glyph horiz-adv-x="477" d="M106 0h-99q-3 0 -2 3q1 2 88 269.5t87 268.5q2 3 4 3h111q3 0 4 -3l173 -538q2 -3 -3 -3h-99q-2 0 -4 3l-29 99h-198q-28 -97 -29 -99q-2 -3 -4 -3zM163 183h151l-67 230h-16zM129 618q-3 0 -3 4v49q0 7 5 13q28 28 59 28q22 0 52.5 -15t47.5 -15q18 0 36 14t20 14 q3 0 3 -4v-49q0 -8 -5 -14q-24 -29 -59 -29q-22 0 -52.5 16t-46.5 16q-18 0 -37 -14t-20 -14z" />
<glyph horiz-adv-x="477" d="M106 0h-99q-3 0 -2 3q1 2 88 269.5t87 268.5q2 3 4 3h111q3 0 4 -3l173 -538q2 -3 -3 -3h-99q-2 0 -4 3l-29 99h-198q-28 -97 -29 -99q-2 -3 -4 -3zM163 183h151l-67 230h-16zM125 618q-3 0 -3 3v80q0 3 3 3h73q3 0 3 -3v-80q0 -3 -3 -3h-73zM280 618q-4 0 -4 3v80 q0 3 4 3h71q3 0 3 -3v-80q0 -3 -3 -3h-71z" />
<glyph horiz-adv-x="477" d="M106 0h-99q-3 0 -2 3q1 2 88 269.5t87 268.5q2 3 4 3h111q3 0 4 -3l173 -538q2 -3 -3 -3h-99q-2 0 -4 3l-29 99h-198q-28 -97 -29 -99q-2 -3 -4 -3zM238 585q-36 0 -58 14t-22 58v18q0 42 22.5 56t59.5 14q16 0 27.5 -2t24 -8.5t19.5 -21.5t7 -38v-18q0 -24 -6.5 -39.5 t-19.5 -22t-25 -8.5t-29 -2zM163 183h151l-67 230h-16zM238 626q18 0 27.5 7t9.5 28v9q0 34 -35 34q-39 0 -39 -34v-9q0 -21 9.5 -28t27.5 -7z" />
<glyph horiz-adv-x="430" d="M235 -126h-85q-2 0 -1 3l11 25q11 25 24.5 54.5t19.5 40.5q-77 5 -122 47.5t-45 151.5v157q0 63 17 104.5t49 60t63.5 25t75.5 6.5q93 0 143 -25q2 -1 1 -4q-1 -2 -14.5 -38.5t-13.5 -37.5q-1 -2 -5 -2q-2 1 -16.5 4.5t-42 7t-52.5 3.5q-22 0 -36.5 -3t-31.5 -13t-26 -35 t-9 -63v-138q0 -70 25.5 -92t76.5 -22q18 0 36.5 2t32.5 4.5t26 5t18.5 4.5t7.5 2q1 1 3 -2q0 -1 7.5 -19.5t14.5 -37.5l7 -18q2 -3 -2 -5q-50 -25 -114 -29l-39 -121q-1 -3 -4 -3z" />
<glyph horiz-adv-x="423" d="M52 0v544h335q4 0 4 -3v-83q0 -3 -4 -3h-233v-136h197q3 0 3 -3v-82q0 -3 -3 -3h-197v-142h233q4 0 4 -4v-82q0 -3 -4 -3h-335zM212 604l-74 114q-3 3 1 3h84q3 0 4 -3l58 -114q1 -4 -1 -4h-68q-2 0 -4 4z" />
<glyph horiz-adv-x="423" d="M52 0v544h335q4 0 4 -3v-83q0 -3 -4 -3h-233v-136h197q3 0 3 -3v-82q0 -3 -3 -3h-197v-142h233q4 0 4 -4v-82q0 -3 -4 -3h-335zM218 604q-2 -4 -4 -4h-68q-3 0 -1 4l58 114q1 3 5 3h84q2 0 1 -3z" />
<glyph horiz-adv-x="423" d="M52 0v544h335q4 0 4 -3v-83q0 -3 -4 -3h-233v-136h197q3 0 3 -3v-82q0 -3 -3 -3h-197v-142h233q4 0 4 -4v-82q0 -3 -4 -3h-335zM170 600h-68q-1 0 -1.5 1t0.5 2q4 7 36 56t36 58l6 3h78q5 0 7 -3l72 -114q2 -3 -1 -3h-68q-3 0 -5 3l-42 59h-3q-40 -57 -41 -59 q-3 -3 -6 -3z" />
<glyph horiz-adv-x="423" d="M52 0v544h335q4 0 4 -3v-83q0 -3 -4 -3h-233v-136h197q3 0 3 -3v-82q0 -3 -3 -3h-197v-142h233q4 0 4 -4v-82q0 -3 -4 -3h-335zM100 618q-3 0 -3 3v80q0 3 3 3h73q3 0 3 -3v-80q0 -3 -3 -3h-73zM255 618q-4 0 -4 3v80q0 3 4 3h71q3 0 3 -3v-80q0 -3 -3 -3h-71z" />
<glyph horiz-adv-x="206" d="M55 0q-3 0 -3 3v538q0 3 3 3h96q3 0 3 -3v-538q0 -3 -3 -3h-96zM104 604l-74 114q-3 3 1 3h84q3 0 4 -3l58 -114q1 -4 -1 -4h-68q-2 0 -4 4z" />
<glyph horiz-adv-x="206" d="M55 0q-3 0 -3 3v538q0 3 3 3h96q3 0 3 -3v-538q0 -3 -3 -3h-96zM102 604q-2 -4 -4 -4h-68q-3 0 -1 4l58 114q1 3 5 3h84q2 0 1 -3z" />
<glyph horiz-adv-x="206" d="M55 0q-3 0 -3 3v538q0 3 3 3h96q3 0 3 -3v-538q0 -3 -3 -3h-96zM54 600h-68q-1 0 -1.5 1t0.5 2q4 7 36 56t36 58l6 3h78q5 0 7 -3l72 -114q2 -3 -1 -3h-68q-3 0 -5 3l-42 59h-3q-40 -57 -41 -59q-3 -3 -6 -3z" />
<glyph horiz-adv-x="206" d="M55 0q-3 0 -3 3v538q0 3 3 3h96q3 0 3 -3v-538q0 -3 -3 -3h-96zM-10 618q-3 0 -3 3v80q0 3 3 3h73q3 0 3 -3v-80q0 -3 -3 -3h-73zM145 618q-4 0 -4 3v80q0 3 4 3h71q3 0 3 -3v-80q0 -3 -3 -3h-71z" />
<glyph horiz-adv-x="508" d="M53 0q-3 0 -3 3v538q0 3 4 3h109q3 0 5 -3l185 -362h9v362q0 3 3 3h94q2 0 2 -3v-538q0 -3 -3 -3h-111q-3 0 -5 3l-184 363h-9v-363q0 -3 -3 -3h-93zM146 618q-3 0 -3 4v49q0 7 5 13q28 28 59 28q22 0 52.5 -15t47.5 -15q18 0 36 14t20 14q3 0 3 -4v-49q0 -8 -5 -14 q-24 -29 -59 -29q-22 0 -52.5 16t-46.5 16q-19 0 -38 -14z" />
<glyph horiz-adv-x="472" d="M235 -5q-34 0 -57 2.5t-52 13.5t-47 31.5t-30.5 59.5t-12.5 93v157q0 53 12.5 90.5t30 57.5t46.5 31.5t52.5 14t57.5 2.5q33 0 55.5 -2.5t52.5 -13.5t48 -30.5t31 -58t13 -91.5v-157q0 -55 -13 -94.5t-30.5 -59.5t-48 -31t-52.5 -13t-56 -2zM235 87q50 0 73.5 21.5 t23.5 94.5v140q0 71 -24 92t-73 21q-48 0 -72 -21t-24 -92v-140q0 -74 23.5 -95t72.5 -21zM237 604l-74 114q-3 3 1 3h84q2 0 4 -3l58 -114q1 -4 -1 -4h-68q-2 0 -4 4z" />
<glyph horiz-adv-x="472" d="M235 -5q-34 0 -57 2.5t-52 13.5t-47 31.5t-30.5 59.5t-12.5 93v157q0 53 12.5 90.5t30 57.5t46.5 31.5t52.5 14t57.5 2.5q33 0 55.5 -2.5t52.5 -13.5t48 -30.5t31 -58t13 -91.5v-157q0 -55 -13 -94.5t-30.5 -59.5t-48 -31t-52.5 -13t-56 -2zM235 87q50 0 73.5 21.5 t23.5 94.5v140q0 71 -24 92t-73 21q-48 0 -72 -21t-24 -92v-140q0 -74 23.5 -95t72.5 -21zM234 604q-2 -4 -4 -4h-68q-3 0 -1 4l58 114q1 3 5 3h84q2 0 1 -3z" />
<glyph horiz-adv-x="472" d="M235 -5q-34 0 -57 2.5t-52 13.5t-47 31.5t-30.5 59.5t-12.5 93v157q0 53 12.5 90.5t30 57.5t46.5 31.5t52.5 14t57.5 2.5q33 0 55.5 -2.5t52.5 -13.5t48 -30.5t31 -58t13 -91.5v-157q0 -55 -13 -94.5t-30.5 -59.5t-48 -31t-52.5 -13t-56 -2zM235 87q50 0 73.5 21.5 t23.5 94.5v140q0 71 -24 92t-73 21q-48 0 -72 -21t-24 -92v-140q0 -74 23.5 -95t72.5 -21zM187 600h-68q-1 0 -1.5 1t0.5 2q4 7 36 56t36 58l6 3h78q5 0 7 -3l72 -114q1 -3 -1 -3h-68q-4 0 -5 3l-42 59h-3q-40 -57 -41 -59q-3 -3 -6 -3z" />
<glyph horiz-adv-x="472" d="M235 87q50 0 73.5 21.5t23.5 94.5v140q0 71 -24 92t-73 21q-48 0 -72 -21t-24 -92v-140q0 -74 23.5 -95t72.5 -21zM235 -5q-34 0 -57 2.5t-52 13.5t-47 31.5t-30.5 59.5t-12.5 93v157q0 53 12.5 90.5t30 57.5t46.5 31.5t52.5 14t57.5 2.5q33 0 55.5 -2.5t52.5 -13.5 t48 -30.5t31 -58t13 -91.5v-157q0 -55 -13 -94.5t-30.5 -59.5t-48 -31t-52.5 -13t-56 -2zM127 618q-3 0 -3 4v49q0 7 5 13q28 28 59 28q22 0 52.5 -15t47.5 -15q18 0 36 14t20 14q3 0 3 -4v-49q0 -8 -5 -14q-24 -29 -59 -29q-22 0 -52.5 16t-46.5 16q-18 0 -37 -14t-20 -14z " />
<glyph horiz-adv-x="472" d="M235 -5q-34 0 -57 2.5t-52 13.5t-47 31.5t-30.5 59.5t-12.5 93v157q0 53 12.5 90.5t30 57.5t46.5 31.5t52.5 14t57.5 2.5q33 0 55.5 -2.5t52.5 -13.5t48 -30.5t31 -58t13 -91.5v-157q0 -55 -13 -94.5t-30.5 -59.5t-48 -31t-52.5 -13t-56 -2zM235 87q50 0 73.5 21.5 t23.5 94.5v140q0 71 -24 92t-73 21q-48 0 -72 -21t-24 -92v-140q0 -74 23.5 -95t72.5 -21zM122 618q-3 0 -3 3v80q0 3 3 3h73q3 0 3 -3v-80q0 -3 -3 -3h-73zM277 618q-4 0 -4 3v80q0 3 4 3h71q3 0 3 -3v-80q0 -3 -3 -3h-71z" />
<glyph horiz-adv-x="488" d="M227 -4q-101 0 -140 49.5t-39 164.5v331q0 3 2 3h96q3 0 3 -3v-323q0 -72 14.5 -101t64.5 -29h34q49 0 63 28t14 102v323q0 3 3 3h95q3 0 3 -3v-331q0 -113 -35.5 -163.5t-143.5 -50.5h-34zM244 604l-74 114q-3 3 1 3h84q3 0 4 -3l58 -114q1 -4 -1 -4h-68q-2 0 -4 4z" />
<glyph horiz-adv-x="488" d="M227 -4q-101 0 -140 49.5t-39 164.5v331q0 3 2 3h96q3 0 3 -3v-323q0 -72 14.5 -101t64.5 -29h34q49 0 63 28t14 102v323q0 3 3 3h95q3 0 3 -3v-331q0 -113 -35.5 -163.5t-143.5 -50.5h-34zM242 604q-2 -4 -4 -4h-68q-3 0 -1 4l58 114q1 3 5 3h84q2 0 1 -3z" />
<glyph horiz-adv-x="488" d="M227 -4q-101 0 -140 49.5t-39 164.5v331q0 3 2 3h96q3 0 3 -3v-323q0 -72 14.5 -101t64.5 -29h34q49 0 63 28t14 102v323q0 3 3 3h95q3 0 3 -3v-331q0 -113 -35.5 -163.5t-143.5 -50.5h-34zM195 600h-68q-1 0 -1.5 1t0.5 2q4 7 36 56t36 58l6 3h78q5 0 7 -3l72 -114 q1 -3 -1 -3h-68q-4 0 -5 3l-42 59h-3q-40 -57 -41 -59q-3 -3 -6 -3z" />
<glyph horiz-adv-x="488" d="M227 -4q-101 0 -140 49.5t-39 164.5v331q0 3 2 3h96q3 0 3 -3v-323q0 -72 14.5 -101t64.5 -29h34q49 0 63 28t14 102v323q0 3 3 3h95q3 0 3 -3v-331q0 -113 -35.5 -163.5t-143.5 -50.5h-34zM131 618q-3 0 -3 3v80q0 3 3 3h73q3 0 3 -3v-80q0 -3 -3 -3h-73zM286 618 q-4 0 -4 3v80q0 3 4 3h71q3 0 3 -3v-80q0 -3 -3 -3h-71z" />
<glyph horiz-adv-x="434" d="M170 0q-3 0 -3 3v209q-159 327 -160 329q-1 3 2 3h102q1 0 4 -3l101 -216h5q98 214 100 216q1 3 3 3h100q4 0 3 -3l-159 -329v-209q0 -3 -3 -3h-95zM215 604q-2 -4 -4 -4h-68q-3 0 -1 4l58 114q2 3 5 3h84q3 0 1 -3z" />
<glyph horiz-adv-x="434" d="M170 0q-3 0 -3 3v209q-159 327 -160 329q-1 3 2 3h102q1 0 4 -3l101 -216h5q98 214 100 216q1 3 3 3h100q4 0 3 -3l-159 -329v-209q0 -3 -3 -3h-95zM106 618q-3 0 -3 3v80q0 3 3 3h73q3 0 3 -3v-80q0 -3 -3 -3h-73zM261 618q-4 0 -4 3v80q0 3 4 3h71q3 0 3 -3v-80 q0 -3 -3 -3h-71z" />
<glyph horiz-adv-x="472" d="M48 -32q-2 0 -1 3l35 69q-46 48 -46 155v157q0 53 12.5 90.5t30 57.5t46.5 31.5t52.5 14t57.5 2.5q56 0 89 -9q16 32 19 35q1 3 5 3h78q2 0 1 -3q-1 -1 -6.5 -12.5t-15 -30t-15.5 -30.5q45 -48 45 -149v-157q0 -55 -13 -94.5t-30.5 -59.5t-48 -31t-52.5 -13t-56 -2 q-56 0 -88 8l-16 -32q-1 -3 -5 -3h-78zM235 87q50 0 73.5 21.5t23.5 94.5v140q0 71 -24 92t-73 21q-48 0 -72 -21t-24 -92v-140q0 -74 23.5 -95t72.5 -21z" />
<glyph horiz-adv-x="457" d="M227 -4q-121 0 -183 31q-3 1 -1 5q0 1 7 20t13.5 38t7.5 19q0 4 4 2l8 -3q8 -2 22.5 -5.5t32.5 -7t42 -6t48 -2.5q45 0 69.5 10t24.5 42v35q0 25 -25 38.5t-77 18.5q-98 9 -135.5 38t-37.5 98v59q0 123 181 123q110 0 164 -27q2 -2 2 -4l-26 -75q-1 -2 -4 -2q-2 1 -19 5 t-50.5 8.5t-64.5 4.5q-79 0 -79 -47v-33q0 -26 20 -38.5t77 -18.5q98 -11 138 -40.5t40 -97.5v-59q0 -34 -13 -58.5t-31.5 -38t-47.5 -21t-52.5 -9.5t-54.5 -2zM276 715h71q3 0 1 -3l-83 -114q-3 -3 -5 -3h-64q-4 0 -6 3q-5 9 -42 58.5t-41 55.5q-1 3 1 3h71q2 0 5 -3 l42 -58h4q39 56 41 58q3 3 5 3z" />
<glyph horiz-adv-x="422" d="M34 0q-2 0 -2 2v85q0 3 2 7l235 352v7h-225q-3 0 -3 4v83q0 4 3 4h341q3 0 3 -4v-83q0 -7 -2 -9l-235 -350v-8h234q3 0 3 -3v-84q0 -3 -3 -3h-351zM258 715h71q3 0 1 -3l-83 -114q-3 -3 -5 -3h-64q-4 0 -6 3q-5 9 -42 58.5t-41 55.5q-1 3 1 3h71q2 0 5 -3l42 -58h4 q39 56 41 58q3 3 5 3z" />
<glyph horiz-adv-x="706" d="M204 183h136v240h-16zM112 0h-101q-2 0 -1 3q4 8 142.5 271.5t140.5 265.5q1 4 5 4h367q4 0 4 -3v-83q0 -3 -4 -3h-224v-135h188q2 0 2 -3v-83q0 -3 -2 -3h-188v-142h224q4 0 4 -4v-82q0 -3 -4 -3h-325v102h-175q-48 -97 -49 -99q-3 -3 -4 -3z" />
<glyph horiz-adv-x="703" d="M236 87q22 0 36.5 3.5t30 15t23 38t7.5 67.5v124q0 41 -8 67t-24 37t-30 14t-35 3t-35 -3t-29.5 -13.5t-23.5 -36t-8 -65.5v-130q0 -41 7.5 -67t23.5 -37t29.5 -14t35.5 -3zM236 -2q-33 0 -55.5 2.5t-52 14t-47.5 32t-31 60t-13 94.5v146q0 66 17 108.5t49.5 61t61.5 24 t71 5.5q57 0 97 -29v27h335q3 0 3 -3v-83q0 -3 -3 -3h-233v-135h197q3 0 3 -3v-83q0 -3 -3 -3h-197v-142h233q3 0 3 -4v-82q0 -3 -3 -3h-335v26q-42 -28 -97 -28z" />
<glyph horiz-adv-x="477" d="M154 92h84q24 0 37.5 2.5t29.5 13t23.5 35.5t7.5 65v130q0 40 -8 64.5t-24.5 34t-29.5 12t-36 2.5h-84v-137h78q3 0 3 -3v-73q0 -3 -3 -3h-78v-143zM235 0h-183v235h-32q-3 0 -3 3v73q0 3 3 3h32v230h183q33 0 55.5 -2.5t53 -13.5t49 -30.5t32 -58t13.5 -91.5v-148 q0 -56 -14 -95.5t-32 -59.5t-49.5 -30.5t-52.5 -12.5t-55 -2z" />
<glyph horiz-adv-x="458" d="M154 199h94q83 0 83 66v31q0 40 -23 53t-60 13h-94v-163zM150 0h-95q-3 0 -3 3v538q0 3 3 3h95q3 0 3 -3v-90h99q26 0 45.5 -2t46.5 -10t44.5 -23t30.5 -44t13 -69v-46q0 -146 -180 -146h-99v-108q0 -3 -3 -3z" />
<glyph horiz-adv-x="410" d="M52 0v204q-37 -24 -39 -25q-1 -1 -1.5 0t-0.5 3v81q0 5 2 6l39 23v249q0 3 4 3h95q3 0 3 -3v-189q106 65 107 66q3 2 3 -2v-82q0 -4 -3 -5l-107 -66v-174h234q2 0 2 -4v-82q0 -3 -2 -3h-336z" />
<glyph horiz-adv-x="477" d="M106 0h-99q-3 0 -2 3q1 2 88 269.5t87 268.5q2 3 4 3h111q3 0 4 -3l173 -538q2 -3 -3 -3h-99q-2 0 -4 3l-29 99h-198q-28 -97 -29 -99q-2 -3 -4 -3zM163 183h151l-67 230h-16zM349 626h-222q-3 0 -3 3v66q0 3 3 3h222q2 0 2 -3v-66q0 -3 -2 -3z" />
<glyph horiz-adv-x="477" d="M106 0h-99q-3 0 -2 3q1 2 88 269.5t87 268.5q2 3 4 3h111q3 0 4 -3l173 -538q2 -3 -3 -3h-99q-2 0 -4 3l-29 99h-198q-28 -97 -29 -99q-2 -3 -4 -3zM163 183h151l-67 230h-16zM239 599q-113 0 -113 103q0 5 5 5h42q6 0 7 -5q9 -25 20.5 -32.5t38.5 -7.5q25 0 37 8.5 t19 31.5q2 5 8 5h42q5 0 5 -5q-6 -103 -111 -103z" />
<glyph horiz-adv-x="477" d="M403 -149q-34 0 -53.5 13.5t-19.5 53.5q0 46 48 82h-8q-2 0 -4 3l-29 99h-198q-28 -97 -29 -99q-2 -3 -4 -3h-99q-3 0 -2 3q1 2 88 269.5t87 268.5q2 3 4 3h111q3 0 4 -3l173 -538q2 -3 -3 -3q-1 0 -1 -1q-33 -20 -49.5 -35t-16.5 -30q0 -16 17 -16q5 0 21 8q4 2 7 -1 q0 -1 5.5 -11.5t11.5 -21.5l6 -11q2 -5 -1 -7q-23 -23 -66 -23zM163 183h151l-67 230h-16z" />
<glyph horiz-adv-x="430" d="M241 -4q-44 0 -75 6t-63 25t-49 61.5t-17 107.5v157q0 63 17 104.5t49 60t63.5 25t75.5 6.5q93 0 143 -25q2 -1 1 -4q-1 -2 -14.5 -38.5t-13.5 -37.5q-1 -2 -5 -2q-2 1 -16.5 4.5t-42 7t-52.5 3.5q-22 0 -36.5 -3t-31.5 -13t-26 -35t-9 -63v-138q0 -70 25.5 -92t76.5 -22 q18 0 36.5 2t32.5 4.5t26 5t18.5 4.5t7.5 2q1 1 3 -2q0 -1 7.5 -19.5t14.5 -37.5l7 -18q2 -3 -2 -5q-62 -31 -151 -31zM238 601q-2 -4 -4 -4h-68q-3 0 -1 4l58 114q1 3 5 3h84q2 0 1 -3z" />
<glyph horiz-adv-x="430" d="M241 -4q-44 0 -75 6t-63 25t-49 61.5t-17 107.5v157q0 63 17 104.5t49 60t63.5 25t75.5 6.5q93 0 143 -25q2 -1 1 -4q-1 -2 -14.5 -38.5t-13.5 -37.5q-1 -2 -5 -2q-2 1 -16.5 4.5t-42 7t-52.5 3.5q-22 0 -36.5 -3t-31.5 -13t-26 -35t-9 -63v-138q0 -70 25.5 -92t76.5 -22 q18 0 36.5 2t32.5 4.5t26 5t18.5 4.5t7.5 2q1 1 3 -2q0 -1 7.5 -19.5t14.5 -37.5l7 -18q2 -3 -2 -5q-62 -31 -151 -31zM191 598h-68q-1 0 -1.5 1t0.5 2q4 7 36 56t36 58l6 3h78q5 0 7 -3l72 -114q1 -3 -1 -3h-68q-4 0 -5 3l-42 59h-3q-40 -57 -41 -59q-3 -3 -6 -3z" />
<glyph horiz-adv-x="430" d="M241 -4q-44 0 -75 6t-63 25t-49 61.5t-17 107.5v157q0 63 17 104.5t49 60t63.5 25t75.5 6.5q93 0 143 -25q2 -1 1 -4q-1 -2 -14.5 -38.5t-13.5 -37.5q-1 -2 -5 -2q-2 1 -16.5 4.5t-42 7t-52.5 3.5q-22 0 -36.5 -3t-31.5 -13t-26 -35t-9 -63v-138q0 -70 25.5 -92t76.5 -22 q18 0 36.5 2t32.5 4.5t26 5t18.5 4.5t7.5 2q1 1 3 -2q0 -1 7.5 -19.5t14.5 -37.5l7 -18q2 -3 -2 -5q-62 -31 -151 -31zM195 610q-3 0 -3 3v85q0 3 3 3h89q3 0 3 -3v-85q0 -3 -4 -3h-88z" />
<glyph horiz-adv-x="430" d="M241 -4q-44 0 -75 6t-63 25t-49 61.5t-17 107.5v157q0 63 17 104.5t49 60t63.5 25t75.5 6.5q93 0 143 -25q2 -1 1 -4q-1 -2 -14.5 -38.5t-13.5 -37.5q-1 -2 -5 -2q-2 1 -16.5 4.5t-42 7t-52.5 3.5q-22 0 -36.5 -3t-31.5 -13t-26 -35t-9 -63v-138q0 -70 25.5 -92t76.5 -22 q18 0 36.5 2t32.5 4.5t26 5t18.5 4.5t7.5 2q1 1 3 -2q0 -1 7.5 -19.5t14.5 -37.5l7 -18q2 -3 -2 -5q-62 -31 -151 -31zM288 715h71q3 0 1 -3l-83 -114q-3 -3 -5 -3h-64q-4 0 -6 3q-5 9 -42 58.5t-41 55.5q-1 3 1 3h71q2 0 5 -3l42 -58h4q39 56 41 58q3 3 5 3z" />
<glyph horiz-adv-x="477" d="M154 92h84q50 0 73.5 21.5t23.5 94.5v130q0 38 -7 62.5t-22.5 34.5t-29.5 13t-38 3h-84v-359zM238 0h-186v544h186q22 0 37 -0.5t38 -4.5t38 -11.5t33 -22t29 -34.5t18 -51.5t7 -71.5v-148q0 -56 -13 -95t-31 -59t-48 -31t-52 -13t-56 -2zM281 715h71q3 0 1 -3l-83 -114 q-3 -3 -5 -3h-64q-5 0 -6 3q-5 9 -42 58.5t-41 55.5q-2 3 1 3h71q2 0 5 -3l42 -58h4q39 56 41 58q3 3 5 3z" />
<glyph horiz-adv-x="477" d="M154 92h84q24 0 37.5 2.5t29.5 13t23.5 35.5t7.5 65v130q0 40 -8 64.5t-24.5 34t-29.5 12t-36 2.5h-84v-137h78q3 0 3 -3v-73q0 -3 -3 -3h-78v-143zM235 0h-183v235h-32q-3 0 -3 3v73q0 3 3 3h32v230h183q33 0 55.5 -2.5t53 -13.5t49 -30.5t32 -58t13.5 -91.5v-148 q0 -56 -14 -95.5t-32 -59.5t-49.5 -30.5t-52.5 -12.5t-55 -2z" />
<glyph horiz-adv-x="423" d="M52 0v544h335q4 0 4 -3v-83q0 -3 -4 -3h-233v-136h197q3 0 3 -3v-82q0 -3 -3 -3h-197v-142h233q4 0 4 -4v-82q0 -3 -4 -3h-335zM333 626h-222q-3 0 -3 3v66q0 3 3 3h222q2 0 2 -3v-66q0 -3 -2 -3z" />
<glyph horiz-adv-x="423" d="M52 0v544h335q4 0 4 -3v-83q0 -3 -4 -3h-233v-136h197q3 0 3 -3v-82q0 -3 -3 -3h-197v-142h233q4 0 4 -4v-82q0 -3 -4 -3h-335zM228 599q-113 0 -113 103q0 5 5 5h42q6 0 7 -5q9 -25 20.5 -32.5t38.5 -7.5q25 0 37 8.5t19 31.5q2 5 8 5h42q5 0 5 -5q-6 -103 -111 -103z " />
<glyph horiz-adv-x="423" d="M52 0v544h335q4 0 4 -3v-83q0 -3 -4 -3h-233v-136h197q3 0 3 -3v-82q0 -3 -3 -3h-197v-142h233q4 0 4 -4v-82q0 -3 -4 -3h-335zM190 610q-3 0 -3 3v85q0 3 3 3h89q3 0 3 -3v-85q0 -3 -4 -3h-88z" />
<glyph horiz-adv-x="423" d="M52 0v544h335q4 0 4 -3v-83q0 -3 -4 -3h-233v-136h197q3 0 3 -3v-82q0 -3 -3 -3h-197v-142h233q4 0 4 -4v-82q0 -3 -4 -3h-1q-64 -39 -64 -64q0 -16 17 -16q5 0 21 8q4 2 7 -1q0 -1 5.5 -11.5t11.5 -21.5l6 -11q2 -5 -1 -7q-23 -23 -66 -23q-34 0 -53.5 13.5t-19.5 53.5 q0 44 46 80h-244z" />
<glyph horiz-adv-x="423" d="M52 0v544h335q4 0 4 -3v-83q0 -3 -4 -3h-233v-136h197q3 0 3 -3v-82q0 -3 -3 -3h-197v-142h233q4 0 4 -4v-82q0 -3 -4 -3h-335zM279 715h71q3 0 1 -3l-83 -114q-3 -3 -5 -3h-64q-5 0 -6 3q-5 9 -42 58.5t-41 55.5q-2 3 1 3h71q2 0 5 -3l42 -58h4q39 56 41 58q3 3 5 3z " />
<glyph horiz-adv-x="472" d="M238 -4q-33 0 -57 3t-53 14.5t-47.5 32t-31 59t-12.5 91.5v157q0 53 14 91.5t33 58t49.5 30.5t53 13t54.5 2q44 0 86 -6.5t59.5 -11.5t21.5 -7t2 -5l-27 -73q-1 -2 -4 -2l-5 1q-4 1 -12 2t-18 2.5t-22.5 3t-25.5 2.5t-27.5 2t-27.5 1q-17 0 -28.5 -1t-27 -7.5t-24.5 -18 t-15.5 -33.5t-6.5 -54v-140q0 -71 25.5 -93t74.5 -22q13 0 38.5 3t44.5 6l19 3v114h-75q-3 0 -3 4v78q0 3 3 3h162v-273q-132 -30 -190 -30zM198 598h-68q-1 0 -1.5 1t0.5 2q4 7 36 56t36 58l6 3h78q5 0 7 -3l72 -114q2 -3 -1 -3h-68q-3 0 -5 3l-42 59h-3q-40 -57 -41 -59 q-3 -3 -6 -3z" />
<glyph horiz-adv-x="472" d="M238 -4q-33 0 -57 3t-53 14.5t-47.5 32t-31 59t-12.5 91.5v157q0 53 14 91.5t33 58t49.5 30.5t53 13t54.5 2q44 0 86 -6.5t59.5 -11.5t21.5 -7t2 -5l-27 -73q-1 -2 -4 -2l-5 1q-4 1 -12 2t-18 2.5t-22.5 3t-25.5 2.5t-27.5 2t-27.5 1q-17 0 -28.5 -1t-27 -7.5t-24.5 -18 t-15.5 -33.5t-6.5 -54v-140q0 -71 25.5 -93t74.5 -22q13 0 38.5 3t44.5 6l19 3v114h-75q-3 0 -3 4v78q0 3 3 3h162v-273q-132 -30 -190 -30zM243 599q-113 0 -113 103q0 5 5 5h42q6 0 7 -5q9 -25 20.5 -32.5t38.5 -7.5q25 0 37 8.5t19 31.5q2 5 8 5h42q5 0 5 -5 q-6 -103 -111 -103z" />
<glyph horiz-adv-x="472" d="M238 -4q-33 0 -57 3t-53 14.5t-47.5 32t-31 59t-12.5 91.5v157q0 53 14 91.5t33 58t49.5 30.5t53 13t54.5 2q44 0 86 -6.5t59.5 -11.5t21.5 -7t2 -5l-27 -73q-1 -2 -4 -2l-5 1q-4 1 -12 2t-18 2.5t-22.5 3t-25.5 2.5t-27.5 2t-27.5 1q-17 0 -28.5 -1t-27 -7.5t-24.5 -18 t-15.5 -33.5t-6.5 -54v-140q0 -71 25.5 -93t74.5 -22q13 0 38.5 3t44.5 6l19 3v114h-75q-3 0 -3 4v78q0 3 3 3h162v-273q-132 -30 -190 -30zM192 610q-3 0 -3 3v85q0 3 3 3h89q3 0 3 -3v-85q0 -3 -4 -3h-88z" />
<glyph horiz-adv-x="498" d="M55 0q-3 0 -3 3v538q0 3 3 3h96q3 0 3 -3v-224h190v224q0 3 4 3h95q3 0 3 -3v-538q0 -3 -3 -3h-95q-4 0 -4 3v227h-190v-227q0 -3 -3 -3h-96zM200 598h-68q-1 0 -1.5 1t0.5 2q4 7 36 56t36 58l6 3h78q5 0 7 -3l72 -114q2 -3 -1 -3h-68q-3 0 -5 3l-42 59h-3 q-40 -57 -41 -59q-3 -3 -6 -3z" />
<glyph horiz-adv-x="206" d="M55 0q-3 0 -3 3v538q0 3 3 3h96q3 0 3 -3v-538q0 -3 -3 -3h-96zM-6 615q-3 0 -3 4v49q0 7 5 13q28 28 59 28q22 0 52.5 -15t47.5 -15q18 0 36 14t20 14q3 0 3 -4v-49q0 -8 -5 -14q-24 -29 -59 -29q-22 0 -52.5 16t-46.5 16q-19 0 -38 -14z" />
<glyph horiz-adv-x="206" d="M55 0q-3 0 -3 3v538q0 3 3 3h96q3 0 3 -3v-538q0 -3 -3 -3h-96zM215 626h-222q-3 0 -3 3v66q0 3 3 3h222q2 0 2 -3v-66q0 -3 -2 -3z" />
<glyph horiz-adv-x="206" d="M55 0q-3 0 -3 3v538q0 3 3 3h96q3 0 3 -3v-538q0 -3 -3 -3h-2q-64 -39 -64 -64q0 -16 17 -16q5 0 21 8q5 2 7 -1q0 -1 5.5 -11.5t11.5 -21.5l6 -11q2 -5 -1 -7q-23 -23 -66 -23q-34 0 -53.5 13.5t-19.5 53.5q0 44 46 80h-4z" />
<glyph horiz-adv-x="206" d="M55 0q-3 0 -3 3v538q0 3 3 3h96q3 0 3 -3v-538q0 -3 -3 -3h-96zM59 610q-3 0 -3 3v85q0 3 3 3h89q3 0 3 -3v-85q0 -3 -4 -3h-88z" />
<glyph horiz-adv-x="383" d="M156 -6q-33 0 -66 5t-47 9t-17 6q-2 1 -1 4l24 77q1 2 4 1l6 -1q6 -1 16 -2t22 -2.5t27 -2.5t28 -1q37 0 58.5 13t21.5 54v387q0 3 3 3h95q3 0 3 -3v-394q0 -42 -11.5 -71.5t-27.5 -45t-42 -24t-46 -10.5t-50 -2zM233 598h-68q-1 0 -1.5 1t0.5 2q4 7 36 56t36 58l6 3h78 q5 0 7 -3l72 -114q1 -3 -1 -3h-68q-4 0 -5 3l-42 59h-3q-40 -57 -41 -59q-3 -3 -6 -3z" />
<glyph horiz-adv-x="407" d="M52 0v541q0 3 3 3h96q3 0 3 -3v-452h233q4 0 4 -4v-82q0 -3 -4 -3h-335zM202 601q-2 -4 -4 -4h-68q-3 0 -1 4l58 114q1 3 5 3h84q2 0 1 -3z" />
<glyph horiz-adv-x="508" d="M53 0q-3 0 -3 3v538q0 3 4 3h109q3 0 5 -3l185 -362h9v362q0 3 3 3h94q2 0 2 -3v-538q0 -3 -3 -3h-111q-3 0 -5 3l-184 363h-9v-363q0 -3 -3 -3h-93zM253 601q-2 -4 -4 -4h-68q-3 0 -1 4l58 114q2 3 5 3h84q3 0 1 -3z" />
<glyph horiz-adv-x="508" d="M53 0q-3 0 -3 3v538q0 3 4 3h109q3 0 5 -3l185 -362h9v362q0 3 3 3h94q2 0 2 -3v-538q0 -3 -3 -3h-111q-3 0 -5 3l-184 363h-9v-363q0 -3 -3 -3h-93zM303 715h71q3 0 1 -3l-83 -114q-3 -3 -5 -3h-64q-5 0 -6 3q-5 9 -42 58.5t-41 55.5q-2 3 1 3h71q2 0 5 -3l42 -58h4 q39 56 41 58q3 3 5 3z" />
<glyph horiz-adv-x="472" d="M235 87q50 0 73.5 21.5t23.5 94.5v140q0 71 -24 92t-73 21q-48 0 -72 -21t-24 -92v-140q0 -74 23.5 -95t72.5 -21zM235 -5q-34 0 -57 2.5t-52 13.5t-47 31.5t-30.5 59.5t-12.5 93v157q0 53 12.5 90.5t30 57.5t46.5 31.5t52.5 14t57.5 2.5q33 0 55.5 -2.5t52.5 -13.5 t48 -30.5t31 -58t13 -91.5v-157q0 -55 -13 -94.5t-30.5 -59.5t-48 -31t-52.5 -13t-56 -2zM347 626h-222q-3 0 -3 3v66q0 3 3 3h222q2 0 2 -3v-66q0 -3 -2 -3z" />
<glyph horiz-adv-x="472" d="M235 87q50 0 73.5 21.5t23.5 94.5v140q0 71 -24 92t-73 21q-48 0 -72 -21t-24 -92v-140q0 -74 23.5 -95t72.5 -21zM235 -5q-34 0 -57 2.5t-52 13.5t-47 31.5t-30.5 59.5t-12.5 93v157q0 53 12.5 90.5t30 57.5t46.5 31.5t52.5 14t57.5 2.5q33 0 55.5 -2.5t52.5 -13.5 t48 -30.5t31 -58t13 -91.5v-157q0 -55 -13 -94.5t-30.5 -59.5t-48 -31t-52.5 -13t-56 -2zM237 599q-113 0 -113 103q0 5 5 5h42q6 0 7 -5q9 -25 20.5 -32.5t38.5 -7.5q25 0 37 8.5t19 31.5q2 5 8 5h42q5 0 5 -5q-6 -103 -111 -103z" />
<glyph horiz-adv-x="472" d="M235 -5q-34 0 -57 2.5t-52 13.5t-47 31.5t-30.5 59.5t-12.5 93v157q0 53 12.5 90.5t30 57.5t46.5 31.5t52.5 14t57.5 2.5q33 0 55.5 -2.5t52.5 -13.5t48 -30.5t31 -58t13 -91.5v-157q0 -55 -13 -94.5t-30.5 -59.5t-48 -31t-52.5 -13t-56 -2zM235 87q50 0 73.5 21.5 t23.5 94.5v140q0 71 -24 92t-73 21q-48 0 -72 -21t-24 -92v-140q0 -74 23.5 -95t72.5 -21zM191 601q-1 -3 -5 -3h-68q-2 0 -1 3l58 114q0 3 4 3h85q2 0 1 -3l-37 -56q-36 -56 -37 -58zM314 601q-2 -3 -4 -3h-68q-2 0 -1 3l58 114q1 3 5 3h83q5 0 2 -3q-1 -1 -12.5 -18.5 t-25 -38t-25.5 -38.5t-12 -19z" />
<glyph horiz-adv-x="474" d="M150 0h-95q-3 0 -3 3v541h200q25 0 45 -2t47 -11t45 -24.5t30.5 -45.5t12.5 -71v-42q0 -103 -80 -134l95 -211q1 -3 -2 -3h-106q-3 0 -4 3l-81 192h-101v-192q0 -3 -3 -3zM153 284h95q83 0 83 68v35q0 68 -83 68h-95v-171zM235 601q-2 -4 -4 -4h-68q-3 0 -1 4l58 114 q2 3 5 3h84q3 0 1 -3z" />
<glyph horiz-adv-x="474" d="M153 284h95q83 0 83 68v35q0 68 -83 68h-95v-171zM150 0h-95q-3 0 -3 3v541h200q25 0 45 -2t47 -11t45 -24.5t30.5 -45.5t12.5 -71v-42q0 -103 -80 -134l95 -211q1 -3 -2 -3h-106q-3 0 -4 3l-81 192h-101v-192q0 -3 -3 -3zM270 715h71q3 0 1 -3l-83 -114q-3 -3 -5 -3h-64 q-4 0 -6 3q-5 9 -42 58.5t-41 55.5q-1 3 1 3h71q2 0 5 -3l42 -58h4q39 56 41 58q3 3 5 3z" />
<glyph horiz-adv-x="457" d="M227 -4q-121 0 -183 31q-3 1 -1 5q0 1 7 20t13.5 38t7.5 19q0 4 4 2l8 -3q8 -2 22.5 -5.5t32.5 -7t42 -6t48 -2.5q45 0 69.5 10t24.5 42v35q0 25 -25 38.5t-77 18.5q-98 9 -135.5 38t-37.5 98v59q0 123 181 123q110 0 164 -27q2 -2 2 -4l-26 -75q-1 -2 -4 -2q-2 1 -19 5 t-50.5 8.5t-64.5 4.5q-79 0 -79 -47v-33q0 -26 20 -38.5t77 -18.5q98 -11 138 -40.5t40 -97.5v-59q0 -34 -13 -58.5t-31.5 -38t-47.5 -21t-52.5 -9.5t-54.5 -2zM240 601q-2 -4 -4 -4h-68q-3 0 -1 4l58 114q1 3 5 3h84q2 0 1 -3z" />
<glyph horiz-adv-x="457" d="M227 -4q-121 0 -183 31q-3 1 -1 5q0 1 7 20t13.5 38t7.5 19q0 4 4 2l8 -3q8 -2 22.5 -5.5t32.5 -7t42 -6t48 -2.5q45 0 69.5 10t24.5 42v35q0 25 -25 38.5t-77 18.5q-98 9 -135.5 38t-37.5 98v59q0 123 181 123q110 0 164 -27q2 -2 2 -4l-26 -75q-1 -2 -4 -2q-2 1 -19 5 t-50.5 8.5t-64.5 4.5q-79 0 -79 -47v-33q0 -26 20 -38.5t77 -18.5q98 -11 138 -40.5t40 -97.5v-59q0 -34 -13 -58.5t-31.5 -38t-47.5 -21t-52.5 -9.5t-54.5 -2zM180 598h-68q-1 0 -1.5 1t0.5 2q4 7 36 56t36 58l6 3h78q5 0 7 -3l72 -114q2 -3 -1 -3h-68q-3 0 -5 3l-42 59h-3 q-40 -57 -41 -59q-3 -3 -6 -3z" />
<glyph horiz-adv-x="419" d="M162 0q-3 0 -3 3v450h-144q-3 0 -3 3v85q0 3 3 3h389q3 0 3 -3v-85q0 -3 -3 -3h-144v-450q0 -3 -3 -3h-95zM258 715h71q3 0 1 -3l-83 -114q-3 -3 -5 -3h-64q-4 0 -6 3q-5 9 -42 58.5t-41 55.5q-1 3 1 3h71q2 0 5 -3l42 -58h4q39 56 41 58q3 3 5 3z" />
<glyph horiz-adv-x="488" d="M227 -4q-101 0 -140 49.5t-39 164.5v331q0 3 2 3h96q3 0 3 -3v-323q0 -72 14.5 -101t64.5 -29h34q49 0 63 28t14 102v323q0 3 3 3h95q3 0 3 -3v-331q0 -113 -35.5 -163.5t-143.5 -50.5h-34zM135 615q-3 0 -3 4v49q0 7 5 13q28 28 59 28q22 0 52.5 -15t47.5 -15 q18 0 36 14t20 14q3 0 3 -4v-49q0 -8 -5 -14q-24 -29 -59 -29q-22 0 -52.5 16t-46.5 16q-18 0 -37 -14t-20 -14z" />
<glyph horiz-adv-x="488" d="M227 -4q-101 0 -140 49.5t-39 164.5v331q0 3 2 3h96q3 0 3 -3v-323q0 -72 14.5 -101t64.5 -29h34q49 0 63 28t14 102v323q0 3 3 3h95q3 0 3 -3v-331q0 -113 -35.5 -163.5t-143.5 -50.5h-34zM355 626h-222q-3 0 -3 3v66q0 3 3 3h222q2 0 2 -3v-66q0 -3 -2 -3z" />
<glyph horiz-adv-x="488" d="M227 -4q-101 0 -140 49.5t-39 164.5v331q0 3 2 3h96q3 0 3 -3v-323q0 -72 14.5 -101t64.5 -29h34q49 0 63 28t14 102v323q0 3 3 3h95q3 0 3 -3v-331q0 -113 -35.5 -163.5t-143.5 -50.5h-34zM245 599q-113 0 -113 103q0 5 5 5h42q6 0 7 -5q9 -25 20.5 -32.5t38.5 -7.5 q25 0 37 8.5t19 31.5q2 5 8 5h42q5 0 5 -5q-6 -103 -111 -103z" />
<glyph horiz-adv-x="488" d="M227 -4q-101 0 -140 49.5t-39 164.5v331q0 3 2 3h96q3 0 3 -3v-323q0 -72 14.5 -101t64.5 -29h34q49 0 63 28t14 102v323q0 3 3 3h95q3 0 3 -3v-331q0 -113 -35.5 -163.5t-143.5 -50.5h-34zM244 582q-36 0 -58 14t-22 58v18q0 42 22.5 56t59.5 14q16 0 27.5 -2t24 -8.5 t19.5 -21.5t7 -38v-18q0 -24 -6.5 -39.5t-19.5 -22t-25 -8.5t-29 -2zM244 623q18 0 27.5 7t9.5 28v9q0 34 -35 34q-39 0 -39 -34v-9q0 -21 9.5 -28t27.5 -7z" />
<glyph horiz-adv-x="488" d="M227 -4q-101 0 -140 49.5t-39 164.5v331q0 3 2 3h96q3 0 3 -3v-323q0 -72 14.5 -101t64.5 -29h34q49 0 63 28t14 102v323q0 3 3 3h95q3 0 3 -3v-331q0 -113 -35.5 -163.5t-143.5 -50.5h-34zM209 601q-1 -3 -5 -3h-68q-2 0 -1 3l58 114q0 3 4 3h85q2 0 1 -3l-37 -56 q-36 -56 -37 -58zM332 601q-2 -3 -4 -3h-68q-2 0 -1 3l58 114q1 3 5 3h83q5 0 2 -3q-1 -1 -12.5 -18.5t-25 -38t-25.5 -38.5t-12 -19z" />
<glyph horiz-adv-x="488" d="M229 -152q-34 0 -53.5 13.5t-19.5 53.5q0 46 48 82q-88 4 -122 54t-34 159v331q0 3 2 3h96q3 0 3 -3v-323q0 -72 14.5 -101t64.5 -29h34q49 0 63 28t14 102v323q0 3 3 3h95q3 0 3 -3v-331q0 -104 -29 -154t-115 -58l-2 -2q-33 -20 -49.5 -35t-16.5 -30q0 -16 17 -16 q5 0 21 8q4 1 7 -1q0 -1 5.5 -11.5t11.5 -21.5l6 -11q2 -5 -1 -7q-23 -23 -66 -23z" />
<glyph horiz-adv-x="670" d="M142 0q-4 0 -4 3l-125 538q-1 3 2 3h99q2 0 4 -3l83 -381h15q75 277 76 279q2 3 4 3h80q2 0 4 -3l75 -279h16q81 379 82 381q1 3 4 3h99q4 0 3 -3q-1 -2 -63 -269t-62 -269q-2 -3 -5 -3h-118q-3 0 -5 3l-66 271h-9q-65 -266 -66 -270t-5 -4h-118zM286 598h-68 q-1 0 -1.5 1t0.5 2q4 7 36 56t36 58l6 3h78q5 0 7 -3l72 -114q2 -3 -1 -3h-68q-3 0 -5 3l-42 59h-3q-40 -57 -41 -59q-3 -3 -6 -3z" />
<glyph horiz-adv-x="434" d="M170 0q-3 0 -3 3v209q-159 327 -160 329q-1 3 2 3h102q1 0 4 -3l101 -216h5q98 214 100 216q1 3 3 3h100q4 0 3 -3l-159 -329v-209q0 -3 -3 -3h-95zM168 598h-68q-1 0 -1.5 1t0.5 2q4 7 36 56t36 58l6 3h78q5 0 7 -3l72 -114q2 -3 -1 -3h-68q-3 0 -5 3l-42 59h-3 q-40 -57 -41 -59q-3 -3 -6 -3z" />
<glyph horiz-adv-x="422" d="M34 0q-2 0 -2 2v85q0 3 2 7l235 352v7h-225q-3 0 -3 4v83q0 4 3 4h341q3 0 3 -4v-83q0 -7 -2 -9l-235 -350v-8h234q3 0 3 -3v-84q0 -3 -3 -3h-351zM229 601q-2 -4 -4 -4h-68q-3 0 -1 4l58 114q2 3 5 3h84q3 0 1 -3z" />
<glyph horiz-adv-x="422" d="M34 0q-2 0 -2 2v85q0 3 2 7l235 352v7h-225q-3 0 -3 4v83q0 4 3 4h341q3 0 3 -4v-83q0 -7 -2 -9l-235 -350v-8h234q3 0 3 -3v-84q0 -3 -3 -3h-351zM173 610q-3 0 -3 3v85q0 3 3 3h89q3 0 3 -3v-85q0 -3 -4 -3h-88z" />
<glyph horiz-adv-x="670" d="M142 0q-4 0 -4 3l-125 538q-1 3 2 3h99q2 0 4 -3l83 -381h15q75 277 76 279q2 3 4 3h80q2 0 4 -3l75 -279h16q81 379 82 381q1 3 4 3h99q4 0 3 -3q-1 -2 -63 -269t-62 -269q-2 -3 -5 -3h-118q-3 0 -5 3l-66 271h-9q-65 -266 -66 -270t-5 -4h-118zM327 601l-74 114 q-3 3 1 3h84q2 0 4 -3l58 -114q1 -4 -1 -4h-68q-2 0 -4 4z" />
<glyph horiz-adv-x="670" d="M142 0q-4 0 -4 3l-125 538q-1 3 2 3h99q2 0 4 -3l83 -381h15q75 277 76 279q2 3 4 3h80q2 0 4 -3l75 -279h16q81 379 82 381q1 3 4 3h99q4 0 3 -3q-1 -2 -63 -269t-62 -269q-2 -3 -5 -3h-118q-3 0 -5 3l-66 271h-9q-65 -266 -66 -270t-5 -4h-118zM345 601q-2 -4 -4 -4 h-68q-3 0 -1 4l58 114q2 3 5 3h84q3 0 1 -3z" />
<glyph horiz-adv-x="670" d="M142 0q-4 0 -4 3l-125 538q-1 3 2 3h99q2 0 4 -3l83 -381h15q75 277 76 279q2 3 4 3h80q2 0 4 -3l75 -279h16q81 379 82 381q1 3 4 3h99q4 0 3 -3q-1 -2 -63 -269t-62 -269q-2 -3 -5 -3h-118q-3 0 -5 3l-66 271h-9q-65 -266 -66 -270t-5 -4h-118zM221 615q-3 0 -3 3v80 q0 3 3 3h73q3 0 3 -3v-80q0 -3 -3 -3h-73zM376 615q-4 0 -4 3v80q0 3 4 3h71q3 0 3 -3v-80q0 -3 -3 -3h-71z" />
<glyph horiz-adv-x="407" d="M52 0v541q0 3 3 3h96q3 0 3 -3v-452h233q4 0 4 -4v-82q0 -3 -4 -3h-335zM211 436q-5 -2 -5 4v180q0 4 3 4h87q3 0 3 -4v-116q0 -3 -3 -6z" />
<glyph horiz-adv-x="474" d="M55 0q-3 0 -3 3v538q0 3 3 3h96q3 0 3 -3v-224h29q145 221 147 224t5 3h107q2 0 1 -3l-178 -265q188 -271 190 -273q3 -3 -1 -3h-108q-3 0 -5 3l-153 226h-34v-226q0 -3 -3 -3h-96zM199 -217q-5 -3 -5 4v180q0 4 3 4h87q3 0 3 -4v-116q0 -3 -3 -6z" />
<glyph horiz-adv-x="407" d="M52 0v541q0 3 3 3h96q3 0 3 -3v-452h233q4 0 4 -4v-82q0 -3 -4 -3h-335zM183 -217q-5 -3 -5 4v180q0 4 3 4h87q3 0 3 -4v-116q0 -3 -3 -6z" />
<glyph horiz-adv-x="508" d="M53 0q-3 0 -3 3v538q0 3 4 3h109q3 0 5 -3l185 -362h9v362q0 3 3 3h94q2 0 2 -3v-538q0 -3 -3 -3h-111q-3 0 -5 3l-184 363h-9v-363q0 -3 -3 -3h-93zM224 -217q-5 -3 -5 4v180q0 4 3 4h87q3 0 3 -4v-116q0 -3 -3 -6z" />
<glyph horiz-adv-x="474" d="M150 0h-95q-3 0 -3 3v541h200q25 0 45 -2t47 -11t45 -24.5t30.5 -45.5t12.5 -71v-42q0 -103 -80 -134l95 -211q1 -3 -2 -3h-106q-3 0 -4 3l-81 192h-101v-192q0 -3 -3 -3zM153 284h95q83 0 83 68v35q0 68 -83 68h-95v-171zM203 -217q-5 -3 -5 4v180q0 4 3 4h87q3 0 3 -4 v-116q0 -3 -3 -6z" />
<glyph horiz-adv-x="472" d="M238 -4q-33 0 -57 3t-53 14.5t-47.5 32t-31 59t-12.5 91.5v157q0 53 14 91.5t33 58t49.5 30.5t53 13t54.5 2q44 0 86 -6.5t59.5 -11.5t21.5 -7t2 -5l-27 -73q-1 -2 -4 -2l-5 1q-4 1 -12 2t-18 2.5t-22.5 3t-25.5 2.5t-27.5 2t-27.5 1q-17 0 -28.5 -1t-27 -7.5t-24.5 -18 t-15.5 -33.5t-6.5 -54v-140q0 -71 25.5 -93t74.5 -22q13 0 38.5 3t44.5 6l19 3v114h-75q-3 0 -3 4v78q0 3 3 3h162v-273q-132 -30 -190 -30zM207 -217q-5 -3 -5 4v180q0 4 3 4h87q3 0 3 -4v-116q0 -3 -3 -6z" />
<glyph horiz-adv-x="457" d="M227 -4q-121 0 -183 31q-3 1 -1 5q0 1 7 20t13.5 38t7.5 19q0 4 4 2l8 -3q8 -2 22.5 -5.5t32.5 -7t42 -6t48 -2.5q45 0 69.5 10t24.5 42v35q0 25 -25 38.5t-77 18.5q-98 9 -135.5 38t-37.5 98v59q0 123 181 123q110 0 164 -27q2 -2 2 -4l-26 -75q-1 -2 -4 -2q-2 1 -19 5 t-50.5 8.5t-64.5 4.5q-79 0 -79 -47v-33q0 -26 20 -38.5t77 -18.5q98 -11 138 -40.5t40 -97.5v-59q0 -34 -13 -58.5t-31.5 -38t-47.5 -21t-52.5 -9.5t-54.5 -2zM199 -217q-5 -3 -5 4v180q0 4 3 4h87q3 0 3 -4v-116q0 -3 -3 -6z" />
<glyph horiz-adv-x="419" d="M162 0q-3 0 -3 3v450h-144q-3 0 -3 3v85q0 3 3 3h389q3 0 3 -3v-85q0 -3 -3 -3h-144v-450q0 -3 -3 -3h-95zM172 -217q-5 -3 -5 4v180q0 4 3 4h87q3 0 3 -4v-116q0 -3 -3 -6z" />
<glyph horiz-adv-x="457" d="M245 -126h-85q-2 0 -1 3l11 25q11 24 24 53t19 41q-111 2 -169 31q-3 1 -1 5q0 1 7 20t13.5 38t7.5 19q0 4 4 2l8 -3q8 -2 22.5 -5.5t32.5 -7t42 -6t48 -2.5q45 0 69.5 10t24.5 42v35q0 25 -25 38.5t-77 18.5q-98 9 -135.5 38t-37.5 98v59q0 123 181 123q110 0 164 -27 q2 -2 2 -4l-26 -75q-1 -2 -4 -2q-2 1 -19 5t-50.5 8.5t-64.5 4.5q-79 0 -79 -47v-33q0 -26 20 -38.5t77 -18.5q98 -11 138 -40.5t40 -97.5v-59q0 -110 -137 -126l-40 -122q-1 -3 -4 -3z" />
<glyph horiz-adv-x="363" d="M77 120q-3 2 0 5l52 52q3 3 5 0q3 -3 76.5 -80t74.5 -78q3 -1 0 -4q-1 -1 -13.5 -14t-25.5 -26l-12 -13q-2 -2 -5 0z" />
<glyph horiz-adv-x="333" d="M193 338q-4 0 -2 4l31 74q3 3 5 3h58q3 0 2 -3l-31 -74q-4 -4 -5 -4h-58zM47 -33q-3 0 -2 3l15 36q15 36 16 38q1 3 5 3h58q3 0 2 -3l-32 -74q-1 -3 -4 -3h-58z" />
<glyph horiz-adv-x="466" d="M285 470q-3 0 -2 3t26 51.5t26 49.5q1 3 5 3h78q2 0 1 -3q-1 -1 -25.5 -50.5t-25.5 -50.5q-3 -3 -5 -3h-78zM40 -32q-2 0 -1 3l48 96q3 3 5 3h78q4 0 1 -3q-1 -1 -24 -48t-24 -48q-1 -3 -5 -3h-78z" />
<glyph horiz-adv-x="456" d="M227 87q47 0 66 22t19 95v140q0 71 -19.5 92.5t-65.5 21.5q-44 0 -63.5 -21.5t-19.5 -92.5v-140q0 -73 19.5 -95t63.5 -22zM227 -4q-33 0 -55 2.5t-49 13.5t-43 31.5t-27 59t-11 93.5v158q0 52 11 89.5t27 57.5t42.5 31.5t49 14t55.5 2.5t54.5 -2t49.5 -13t44.5 -31 t28 -57.5t11.5 -91.5v-158q0 -56 -11.5 -95t-27.5 -59t-44.5 -31t-49.5 -13t-55 -2z" />
<glyph horiz-adv-x="403" d="M280 0h-91q-3 0 -3 3v432q-93 -68 -95 -69q-3 -2 -3 1q0 1 -11 40.5t-12 41.5q0 2 3 5l116 88q2 2 5 2h91q3 0 3 -3v-539q0 -2 -3 -2z" />
<glyph horiz-adv-x="414" d="M362 0h-311q-2 0 -2 2v81q0 5 2 7q12 13 35.5 38.5t35 38.5t31.5 35.5t30 35t25 30.5t22.5 30t15.5 25.5t11 24t3 19.5v40q0 51 -73 51q-16 0 -34 -2t-32.5 -5t-27 -5.5t-19.5 -4.5l-8 -2q-4 0 -4 2q0 1 -9.5 37t-9.5 37q0 4 1 5l4 2q4 2 10 4l15 5t21 6t25.5 5.5t31.5 4 t37 1.5q174 0 174 -128v-61q0 -32 -26.5 -77.5t-53 -78t-89.5 -105.5v-8h169q3 0 3 -3v-84q0 -3 -3 -3z" />
<glyph horiz-adv-x="419" d="M52 20q-2 0 -2 4q1 1 8.5 37t7.5 38q1 2 5 2q2 -1 21 -4.5t50.5 -7.5t57.5 -4q75 0 75 50v36q0 64 -67 64h-63q-3 0 -3 3v79q0 3 3 3h63q23 0 40 14t17 40v35q0 51 -73 51q-25 0 -55 -4t-47.5 -8t-19.5 -5q-4 -2 -4 2q0 1 -8 37t-8 37q0 5 1 5q50 25 141 25q34 0 59 -4 t53.5 -15.5t44 -38.5t15.5 -67v-52q0 -24 -10.5 -46t-21.5 -32l-10 -9v-7q6 -3 14.5 -9t22.5 -31t14 -58v-59q0 -40 -15 -66.5t-42.5 -38.5t-54 -16t-61.5 -4q-41 0 -78 6t-54 12z" />
<glyph horiz-adv-x="418" d="M332 0h-85q-4 0 -4 3v85h-205q-2 0 -2 3v85q0 2 2 8l142 357q2 3 4 3h96q4 0 2 -3l-138 -355v-8h99v95q0 4 4 4h85q4 0 4 -4v-95h49q4 0 4 -3v-83q0 -4 -4 -4h-49v-85q0 -3 -4 -3z" />
<glyph horiz-adv-x="418" d="M202 -5q-41 0 -78.5 6.5t-51.5 11t-19 6.5q-1 1 -1 5l16 75q1 3 5 1l9 -2q8 -1 21.5 -3.5t29 -5t34.5 -4t34 -1.5q76 0 76 51v39q0 66 -68 66h-142q-3 0 -3 3v294q0 7 8 7h282q3 0 3 -3v-79q0 -3 -3 -3h-200v-135h57q24 0 42.5 -2t42.5 -9.5t40 -21.5t27.5 -39.5 t11.5 -61.5v-70q0 -34 -12.5 -58.5t-29 -37t-43 -19.5t-45 -8.5t-43.5 -1.5z" />
<glyph horiz-adv-x="419" d="M211 78q15 0 25 2.5t21.5 10t17 24.5t5.5 43v23q0 42 -15.5 57.5t-45.5 15.5q-12 0 -31 -4t-32 -8l-13 -3v-111q0 -50 68 -50zM217 -4q-172 0 -172 130v284q0 44 19 74.5t49.5 43t54 17t46.5 4.5q88 0 144 -28q2 -1 2 -5q0 -2 -5 -20t-9.5 -35t-4.5 -18q0 -2 -4 -2l-7 2 q-8 2 -20.5 4.5t-27.5 5t-33 4.5t-33 2q-73 0 -73 -53v-84q65 15 95 15q27 0 47 -4t43 -17.5t35.5 -45.5t12.5 -81v-36q0 -52 -14.5 -86t-41 -48t-49 -18.5t-54.5 -4.5z" />
<glyph horiz-adv-x="406" d="M186 0h-98q-4 0 -2 3l168 445v8h-204q-2 0 -2 3v81q0 4 2 4h309q3 0 3 -3v-80q0 -3 -2 -9q-1 -2 -85 -225t-84 -224q-3 -3 -5 -3z" />
<glyph horiz-adv-x="419" d="M210 78q34 0 51.5 14.5t17.5 53.5v26q0 64 -68 64q-71 0 -71 -64v-26q0 -38 18 -53t52 -15zM210 325q65 0 65 56v26q0 60 -64 60q-67 0 -67 -60v-26q0 -56 66 -56zM209 -5q-35 0 -61 5t-52 19t-39.5 44.5t-13.5 76.5v37q0 32 14 58t28 35l14 10v3q-5 3 -13 9.5t-21 30 t-13 51.5v37q0 45 13.5 74t39.5 42t50 17.5t57 4.5q32 0 55.5 -4.5t48.5 -17.5t38 -42t13 -74v-38q0 -27 -11.5 -49.5t-23.5 -31.5l-11 -9v-2q6 -3 15.5 -10t25 -34t15.5 -60v-37q0 -46 -13.5 -76.5t-39.5 -44.5t-52 -19t-63 -5z" />
<glyph horiz-adv-x="418" d="M204 549q171 0 171 -130v-284q0 -44 -19 -74.5t-49 -43t-53.5 -17t-46.5 -4.5q-96 0 -146 25q-4 2 -2 5l19 72q0 2 3 2l8 -2q8 -1 21 -3.5t28 -4.5t33.5 -3.5t33.5 -1.5q73 0 73 54v74q-66 -15 -95 -15q-21 0 -37 2t-36.5 10.5t-33.5 23.5t-22.5 43.5t-9.5 68.5v45 q0 42 10.5 73t26 47t39 25t41.5 11t43 2zM211 466q-21 0 -34.5 -4t-25 -22.5t-11.5 -53.5v-32q0 -42 16 -57.5t46 -15.5q12 0 31 3.5t32 7.5l13 4v121q0 49 -67 49z" />
<glyph horiz-adv-x="913" d="M231 -4q-121 0 -183 31q-3 1 -1 5q0 1 7 20t13.5 38t7.5 19q0 4 4 2l8 -3q8 -2 22.5 -5.5t32.5 -7t42 -6t48 -2.5q45 0 69.5 10t24.5 42v35q0 25 -25 38.5t-77 18.5q-98 9 -135.5 38t-37.5 98v59q0 123 181 123q110 0 164 -27q2 -2 2 -4l-26 -75q-1 -2 -4 -2q-2 1 -19 5 t-50.5 8.5t-64.5 4.5q-79 0 -79 -47v-33q0 -26 20 -38.5t77 -18.5q98 -11 138 -40.5t40 -97.5v-59q0 -34 -13 -58.5t-31.5 -38t-47.5 -21t-52.5 -9.5t-54.5 -2zM667 -4q-121 0 -183 31q-3 1 -1 5q0 1 7 20t13.5 38t7.5 19q0 4 4 2l8 -3q8 -2 22.5 -5.5t32.5 -7t42 -6 t48 -2.5q45 0 69.5 10t24.5 42v35q0 25 -25 38.5t-77 18.5q-98 9 -135.5 38t-37.5 98v59q0 123 181 123q110 0 164 -27q2 -2 2 -4l-26 -75q-1 -2 -4 -2q-2 1 -19 5t-50.5 8.5t-64.5 4.5q-79 0 -79 -47v-33q0 -26 20 -38.5t77 -18.5q98 -11 138 -40.5t40 -97.5v-59 q0 -34 -13 -58.5t-31.5 -38t-47.5 -21t-52.5 -9.5t-54.5 -2z" />
<glyph horiz-adv-x="419" d="M172 56q-4 0 -4 3v120h-125q-2 0 -2 4v75q0 3 2 3h125v122q0 3 4 3h74q3 0 3 -3v-122h125q3 0 3 -3v-75q0 -4 -3 -4h-125v-120q0 -3 -3 -3h-74z" />
<glyph horiz-adv-x="182" d="M24 -86q-2 0 -2 4l48 182q2 3 4 3h83q3 0 2 -3q-1 -2 -33.5 -91.5t-32.5 -90.5q-2 -4 -4 -4h-65z" />
<glyph horiz-adv-x="296" d="M35 179q-3 0 -3 3v75q0 4 3 4h226q3 0 3 -4v-75q0 -3 -3 -3h-226z" />
<glyph horiz-adv-x="188" d="M48 0q-3 0 -3 3v98q0 3 3 3h91q3 0 3 -3v-98q0 -3 -3 -3h-91z" />
<glyph horiz-adv-x="328" d="M46 -4q-4 0 -2 3q0 1 74.5 273.5t74.5 273.5q1 3 4 3h87q4 0 3 -3q-1 -2 -75 -274t-74 -273q-2 -3 -4 -3h-88z" />
<glyph horiz-adv-x="419" d="M43 263q-2 0 -2 3v77q0 3 2 3h331q3 0 3 -3v-77q0 -3 -3 -3h-331zM43 96q-2 0 -2 4v76q0 3 2 3h331q3 0 3 -3v-76q0 -4 -3 -4h-331z" />
<glyph horiz-adv-x="227" d="M158 0h-90q-3 0 -3 3v88q0 3 3 3h90q3 0 3 -3v-88q0 -3 -3 -3zM154 159h-81q-3 0 -3 3v379q0 3 3 3h81q3 0 3 -3v-379q0 -3 -3 -3z" />
<glyph horiz-adv-x="357" d="M220 0h-90q-4 0 -4 3v89q0 3 4 3h90q3 0 3 -3v-89q0 -3 -3 -3zM220 154h-88q-3 0 -3 4v31q0 30 15.5 60.5t34.5 50.5t34.5 42t15.5 38v31q0 51 -58 51q-23 0 -49.5 -4.5t-41.5 -9t-16 -5.5q-4 0 -4 2q-1 2 -9.5 35.5t-9.5 36.5q0 5 1 5l4 2q3 1 7 2.5t11.5 4t15.5 5 t18.5 4.5t22 4t25 3t27.5 1q29 0 52 -4t47.5 -16t38.5 -39t14 -68v-41q0 -32 -51 -96.5t-51 -95.5v-30q0 -4 -3 -4z" />
<glyph horiz-adv-x="197" d="M13 -86q-4 0 -2 4q0 1 23.5 90.5t24.5 91.5q1 3 3 3h84q4 0 2 -3l-67 -182q-2 -4 -4 -4h-64zM54 282q-3 0 -3 3v98q0 3 3 3h90q4 0 4 -3v-98q0 -3 -4 -3h-90z" />
<glyph horiz-adv-x="283" d="M110 544q4 0 4 -4v-151q0 -3 -3 -3h-73q-2 0 -2 3v150q0 5 2 5h72zM242 544q5 0 5 -4v-151q0 -3 -3 -3h-72q-3 0 -3 3v150q0 5 3 5h70z" />
<glyph horiz-adv-x="433" d="M167 228h90l11 98h-89zM137 0h-70q-3 0 -3 3l18 154h-58q-3 0 -3 3v65q0 3 3 3h67l11 98h-62q-4 0 -4 3v64q0 3 3 3h71q17 142 17 145t3 3h71q3 0 3 -3l-17 -145h90q16 143 16 145q0 3 4 3h71q1 0 2 -1t0 -2l-16 -145h56q3 0 3 -3v-64q0 -3 -3 -3h-65l-11 -98h61 q3 0 3 -3v-65q0 -3 -3 -3h-69q-18 -152 -18 -154q0 -3 -4 -3h-71q-2 0 -2 3l18 154h-90q-18 -152 -18 -154q0 -3 -4 -3z" />
<glyph horiz-adv-x="454" d="M196 -64q-3 0 -3 3v56q-96 3 -152 31q-2 2 -1 5q1 2 14 39t13 38q1 2 5 2q4 -2 21 -7t55.5 -11t76.5 -6q45 0 69.5 10t24.5 42v35q0 23 -22.5 37t-80.5 20q-94 10 -133 36.5t-39 99.5v59q0 113 149 121v58q0 3 3 3h60q3 0 3 -3v-58q89 -4 130 -25q2 -1 1 -4q0 -1 -12 -37 t-13 -38q-2 -3 -4 -2t-19 5t-50.5 8.5t-64.5 4.5q-80 0 -80 -47v-33q0 -27 20.5 -38.5t77.5 -18.5q93 -11 135.5 -39t42.5 -99v-59q0 -120 -164 -129v-56q0 -3 -3 -3h-60z" />
<glyph horiz-adv-x="607" d="M196 -5h-78q-2 0 -1 3q17 37 143.5 273.5t144.5 274.5q3 3 5 3h78q4 0 1 -4l-288 -547q-1 -3 -5 -3zM155 295q-100 0 -100 91v74q0 89 103 89q98 0 98 -89v-74q0 -91 -101 -91zM452 -5q-101 0 -101 92v73q0 89 103 89q98 0 98 -89v-73q0 -55 -28 -73.5t-72 -18.5z M155 358q20 0 30 7.5t10 30.5v53q0 37 -38 37q-42 0 -42 -37v-53q0 -23 10 -30.5t30 -7.5zM452 58q19 0 29 7.5t10 30.5v53q0 22 -9.5 29.5t-28.5 7.5q-41 0 -41 -37v-53q0 -23 10.5 -30.5t29.5 -7.5z" />
<glyph horiz-adv-x="456" d="M227 -5q-36 0 -61.5 4.5t-55 17.5t-45.5 44t-16 79v31q0 33 12.5 67t25.5 52l13 18q-27 38 -27 100v23q0 118 142 118q28 0 48 -4t42.5 -16t34.5 -41t12 -74q0 -3 -3 -3h-65q-2 0 -2 3q0 43 -17.5 57t-47.5 14q-65 0 -65 -59v-15q0 -10 1.5 -19t6 -19.5l7.5 -17.5 t11.5 -20.5t12.5 -19.5t16 -23t16 -23l95 -138q9 15 9 21v89q0 4 2 4h65q4 0 4 -4v-103q0 -13 -7.5 -31.5t-14.5 -30.5l-8 -11q44 -60 46 -62q2 -3 -1 -3h-86q-2 0 -5 3l-9 13q-33 -21 -86 -21zM227 66q12 0 22 2.5t14 5.5l4 2l-117 163q-20 -24 -20 -79v-13q0 -49 23.5 -65 t73.5 -16z" />
<glyph horiz-adv-x="165" d="M117 544q5 0 5 -4v-151q0 -3 -4 -3h-72q-3 0 -3 3v150q0 5 3 5h71z" />
<glyph horiz-adv-x="173" d="M51 -56q-1 -2 -3 -1t-2 3v150q0 3 3 3h75q3 0 3 -3v-95q0 -3 -3 -5z" />
<glyph horiz-adv-x="308" d="M51 -56q-1 -2 -3 -1t-2 3v150q0 3 3 3h75q3 0 3 -3v-95q0 -3 -3 -5zM186 -56q-2 -2 -3.5 -1t-1.5 3v150q0 3 3 3h74q3 0 3 -3v-95q0 -3 -3 -5z" />
<glyph horiz-adv-x="447" d="M276 -5q-41 0 -71.5 6.5t-63.5 25t-51 61.5t-18 107h-40q-2 0 -2 3v50q0 3 2 3h40v44h-40q-2 0 -2 3v51q0 3 2 3h40q0 60 16 100.5t46.5 60.5t64 27.5t79.5 7.5q42 0 77.5 -6t49 -11.5t15.5 -7.5q2 -1 1 -4l-26 -74q-2 -3 -4 -2t-17 4t-42.5 6.5t-53.5 3.5 q-51 0 -74.5 -21.5t-28.5 -83.5h124q3 0 3 -3v-51q0 -3 -3 -3h-125v-44h125q3 0 3 -3v-50q0 -3 -3 -3h-124q4 -64 27 -84.5t74 -20.5q29 0 59 4.5t44.5 8.5t17.5 5q2 1 4 -2l28 -75q1 -3 -1 -5q-62 -31 -152 -31z" />
<glyph horiz-adv-x="405" d="M192 -79q-3 0 -3 3v73q-20 1 -34 3.5t-34.5 12t-33.5 24.5t-22.5 45t-9.5 71v83q0 39 9.5 68t23 44t34 24.5t35 12.5t32.5 4v73q0 3 3 3h54q3 0 3 -3v-72q64 -3 94 -18q3 -2 2 -4l-22 -65q-1 -2 -4 -2l-5 1q-4 0 -12.5 1t-18.5 2.5t-25 2t-30 0.5q-35 0 -55.5 -16 t-20.5 -64v-68q0 -50 19.5 -66t56.5 -16q24 0 47.5 2.5t34.5 4.5t13 3q4 0 4 -3q1 -1 11.5 -33t10.5 -33q1 -3 -1 -5l-4 -2q-5 -1 -13.5 -3.5t-19.5 -5t-27.5 -4.5t-34.5 -3v-72q0 -3 -3 -3h-54z" />
<glyph horiz-adv-x="686" d="M339 115q29 0 43.5 10t14.5 40v108q0 34 -62 34q-26 0 -39 -15t-13 -55v-50q0 -44 16 -58t40 -14zM339 -117q-305 0 -305 328q0 327 310 327q52 0 92.5 -6.5t82.5 -26t70 -53t46 -90.5t18 -135q0 -103 -36.5 -141.5t-97.5 -38.5q-53 0 -84 27q-35 -27 -98 -27 q-62 0 -98 28t-36 108v58q0 69 31 101.5t83 32.5q29 0 49 -4.5t26 -9.5l5 -5v13q0 2 2 2h74q2 0 2 -2v-200q0 -52 47 -52q17 0 27.5 5.5t19.5 31.5t9 75q0 140 -58.5 190.5t-176.5 50.5q-113 0 -171.5 -58t-58.5 -199q0 -255 226 -255q40 0 83 5t64.5 10t24.5 6q4 2 4 -1 l17 -62q0 -3 -2 -4q-5 -2 -25 -8t-68 -13.5t-98 -7.5z" />
<glyph horiz-adv-x="235" d="M119 -75q-1 0 -6 3q-3 3 -7.5 8.5t-15 31t-18 58.5t-14 96t-6.5 140t6 139.5t14.5 97t18 58.5t15 31t7.5 9q5 3 6 3h74q2 0 0 -3q-2 -2 -6.5 -10.5t-13.5 -35t-17 -61.5t-13.5 -95.5t-5.5 -132.5t5.5 -133t13.5 -95.5t17 -60.5t13.5 -34.5t6.5 -10.5q3 -3 0 -3h-74z" />
<glyph horiz-adv-x="235" d="M117 -75h-74q-1 0 0 3q2 2 6.5 10.5t13.5 34.5t17 60.5t13.5 95.5t5.5 133t-6 133t-13 95t-17 61.5t-13.5 34t-6.5 11.5q-1 3 1 3h73q1 0 6 -3q3 -3 7.5 -9t15 -31t18 -58.5t14 -96.5t6.5 -140t-6.5 -140t-14 -96t-18 -58.5t-15 -31t-7.5 -8.5t-6 -3z" />
<glyph horiz-adv-x="291" d="M121 299q-3 0 -3 3v71q-56 -35 -58 -36q-3 -1 -4 2l-24 43q-2 2 1 4l58 36q-56 34 -58 35q-3 2 -1 4q1 2 12 22t12 21q1 2 4 2l58 -37v72q0 3 3 3h48q4 0 4 -3v-72q56 36 58 37q3 2 4 -2l24 -43q2 -2 -1 -4l-57 -35q55 -35 57 -36q3 -2 1 -4l-24 -43q-2 -3 -4 -2l-58 36 v-71q0 -3 -3 -3h-49z" />
<glyph horiz-adv-x="229" d="M54 -75v675h147q3 0 3 -3v-70q0 -3 -3 -3h-66v-523h66q3 0 3 -4v-69q0 -3 -3 -3h-147z" />
<glyph horiz-adv-x="229" d="M175 -75h-148q-2 0 -2 3v69q0 4 2 4h67v523h-67q-2 0 -2 3v70q0 3 2 3h148v-675z" />
<glyph horiz-adv-x="320" d="M31 179q-3 0 -3 3v75q0 4 3 4h257q3 0 3 -4v-75q0 -3 -3 -3h-257z" />
<glyph horiz-adv-x="367" d="M17 179q-3 0 -3 3v75q0 4 3 4h332q3 0 3 -4v-75q0 -3 -3 -3h-332z" />
<glyph horiz-adv-x="328" d="M46 -4q-4 0 -2 3q0 1 74.5 273.5t74.5 273.5q1 3 4 3h87q4 0 3 -3q-1 -2 -75 -274t-74 -273q-2 -3 -4 -3h-88z" />
<glyph horiz-adv-x="296" d="M35 179q-3 0 -3 3v75q0 4 3 4h226q3 0 3 -4v-75q0 -3 -3 -3h-226z" />
<glyph horiz-adv-x="419" d="M43 180q-2 0 -2 3v74q0 3 2 3h331q3 0 3 -3v-74q0 -3 -3 -3h-331zM166 27q-4 0 -4 3v92q0 4 4 4h86q3 0 3 -4v-92q0 -3 -3 -3h-86zM166 315q-4 0 -4 3v92q0 3 4 3h86q3 0 3 -3v-92q0 -3 -3 -3h-86z" />
<glyph horiz-adv-x="419" d="M75 0q-2 0 -2 2v215h-27q-3 0 -3 3v63q0 3 3 3h27v134q0 128 166 128q83 0 135 -26q3 -2 2 -4q0 -2 -9 -38t-10 -37q0 -2 -3 -2q-1 0 -7.5 2t-18 4.5t-25 4.5t-31 4t-32.5 2q-31 0 -48 -10.5t-17 -40.5v-121h122q3 0 3 -3v-63q0 -3 -3 -3h-122v-127h195q3 0 3 -3v-84 q0 -3 -3 -3h-295z" />
<glyph horiz-adv-x="403" d="M46 17q-1 1 -1 5q17 42 21 63q2 3 5 3q2 -1 19 -4.5t48.5 -7t59.5 -3.5q34 0 49 6.5t15 25.5v16q0 17 -17 24t-61 13q-26 3 -44.5 7.5t-41.5 14.5t-35 28.5t-12 45.5v40q0 40 24 59q-24 18 -24 58v39q0 98 146 98q36 0 69.5 -5t47 -9t17.5 -6q2 -1 2 -3q-1 -2 -10 -32 t-9 -31q0 -2 -4 -2l-7 1q-7 1 -18 3t-24.5 4t-30.5 3t-32 1q-55 0 -55 -29v-17q0 -26 78 -34q60 -7 96 -28t36 -68v-41q0 -38 -22 -60q22 -20 22 -55v-41q0 -35 -13 -57t-38 -31.5t-47.5 -12.5t-56.5 -3q-41 0 -79.5 5.5t-53.5 10t-19 6.5zM252 227q17 7 17 34v16 q0 13 -26.5 24t-59.5 16l-19 2q-8 -1 -17 -9.5t-9 -23.5v-17q0 -26 82 -36q16 -2 32 -6z" />
<glyph horiz-adv-x="436" d="M171 0q-3 0 -3 3v106h-97q-4 0 -4 3v54q0 3 4 3h97v39h-97q-4 0 -4 3v54q0 3 4 3h68q-130 271 -131 273q-2 3 2 3h102q2 0 4 -3l101 -217h4q99 214 100 217q3 3 4 3h101q4 0 2 -3l-132 -273h67q2 0 2 -3v-54q0 -3 -2 -3h-94v-39h94q2 0 2 -3v-54q0 -3 -2 -3h-95v-106 q0 -3 -2 -3h-95z" />
<glyph horiz-adv-x="266" d="M189 -73q-47 0 -69 23.5t-22 77.5v125q0 36 -11.5 54t-42.5 18q-3 0 -3 3v71q0 3 3 3q30 0 42 18t12 54v125q0 53 22 77t69 24h48q3 0 3 -3v-68q0 -4 -3 -4h-24q-34 0 -34 -36v-126q0 -48 -11.5 -67.5t-36.5 -30.5v-3q26 -12 37 -31t11 -67v-126q0 -37 34 -37h24 q3 0 3 -3v-68q0 -3 -3 -3h-48z" />
<glyph horiz-adv-x="231" d="M78 -75q-3 0 -3 3v669q0 3 3 3h75q3 0 3 -3v-669q0 -3 -3 -3h-75z" />
<glyph horiz-adv-x="266" d="M78 -73h-49q-3 0 -3 3v68q0 3 3 3h24q34 0 34 37v126q0 48 11 67t37 31v3q-25 11 -36.5 30.5t-11.5 67.5v126q0 36 -33 36h-25q-3 0 -3 4v68q0 3 3 3h49q46 0 68 -24t22 -77v-125q0 -36 12 -54t42 -18q3 0 3 -3v-71q0 -3 -3 -3q-30 0 -42 -18t-12 -54v-125 q0 -54 -21.5 -77.5t-68.5 -23.5z" />
<glyph horiz-adv-x="231" d="M77 -75q-3 0 -3 3v286q0 3 3 3h75q3 0 3 -3v-286q0 -3 -3 -3h-75zM77 311q-3 0 -3 3v283q0 3 3 3h75q3 0 3 -3v-283q0 -3 -3 -3h-75z" />
<glyph horiz-adv-x="419" d="M107 60l-51 52q-3 2 0 5l98 103q-97 103 -98 105q-2 2 0 4q0 1 25 26t25 26q2 2 4 0l99 -104q97 102 99 104q3 1 4 0q1 -2 51 -52q2 -2 0 -4l-99 -105q98 -102 99 -103q3 -3 0 -5q-50 -50 -51 -52q-1 -1 -4 0l-99 104q-97 -103 -99 -104t-3 0z" />
<glyph horiz-adv-x="418" d="M375 49l-331 133q-3 2 -3 4v67q0 3 3 4l331 134q3 0 3 -3v-81q0 -1 -1.5 -2.5t-1.5 -2.5l-207 -81v-3q205 -80 207 -81q3 -1 3 -4v-82q0 -3 -3 -2z" />
<glyph horiz-adv-x="418" d="M43 49q-1 -1 -1.5 0t-0.5 2v82q0 3 2 4l208 81v3q-206 80 -208 81q-2 4 -2 5v81q0 3 2 3l332 -134q3 -1 3 -4v-67q0 -2 -3 -4q-2 -1 -165.5 -66.5t-166.5 -66.5z" />
<glyph horiz-adv-x="327" d="M285 -4h-88q-3 0 -4 3q0 1 -74 273t-75 274q-2 3 2 3h88q4 0 4 -3l149 -547q0 -3 -2 -3z" />
<glyph horiz-adv-x="419" d="M38 209l132 332q0 3 3 3h73q2 0 3 -3q1 -2 66 -166.5t65 -165.5q2 -3 -2 -3h-83q-3 0 -4 3l-80 208h-3q-80 -206 -81 -208q-1 -3 -5 -3h-82q-4 0 -2 3z" />
<glyph horiz-adv-x="393" d="M3 -121q-3 0 -3 3v66q0 3 3 3h387q3 0 3 -3v-66q0 -3 -3 -3h-387z" />
<glyph horiz-adv-x="419" d="M54 228q0 8 5 13q3 4 13 11.5t29.5 16t38.5 8.5q29 0 73.5 -23.5t68.5 -23.5q23 0 50 18l28 19q4 0 4 -5v-48q0 -7 -5 -13q-38 -38 -83 -38q-28 0 -72 24t-68 24q-23 0 -52 -18l-28 -18q-2 0 -2 5v48z" />
<glyph horiz-adv-x="311" d="M155 166q-35 0 -57 14.5t-22 57.5v19q0 70 82 70q16 0 27.5 -2t24 -8.5t19 -21.5t6.5 -38v-19q0 -44 -21.5 -58t-58.5 -14z" />
<glyph horiz-adv-x="338" d="M169 547q61 0 104.5 -45t43.5 -109t-43.5 -109.5t-104.5 -45.5t-104 45.5t-43 109.5t43 109t104 45zM169 269q49 0 83 36t34 88q0 51 -34 87.5t-83 36.5t-83.5 -36.5t-34.5 -87.5q0 -52 34.5 -88t83.5 -36zM145 308h-32q-1 1 -1 2v170h61q56 0 56 -50v-12q0 -32 -23 -44 l27 -64v-2h-37q-1 1 -1 2l-23 58h-26v-58q0 -2 -1 -2zM146 398h26q22 0 22 20v11q0 21 -22 21h-26v-52z" />
<glyph horiz-adv-x="613" d="M306 548q109 0 186 -81t77 -196q0 -114 -77 -195t-186 -81t-186 81t-77 195q0 115 76.5 196t186.5 81zM306 46q88 0 150.5 66t62.5 159q0 94 -62.5 160t-150.5 66q-89 0 -151.5 -66t-62.5 -160q0 -93 63 -159t151 -66zM314 119q-60 0 -95 25.5t-35 97.5v62q0 120 130 120 q27 0 49 -3.5t30.5 -6.5t9.5 -4q2 -1 2 -3q-1 -1 -8 -25t-7 -25q-2 -2 -3 -1h-4q-4 1 -10.5 2t-14.5 2t-19 1.5t-22 0.5q-60 0 -60 -63v-53q0 -28 10 -43t21 -17.5t29 -2.5q12 0 23.5 0.5t20 1.5t15 2.5t10.5 2.5h4h2l1 -1q0 -1 7 -26l8 -25q2 -3 -2 -3q-32 -16 -92 -16z " />
<glyph horiz-adv-x="632" d="M307 233v309q0 2 3 2h70q3 0 3 -2l64 -159h5q61 157 62 158l1 1q1 2 2 2h71q1 0 1 -2v-309q0 -2 -1 -2h-59q-1 0 -1 2v189h-6q-48 -123 -48 -124q-1 -2 -4 -2h-42q-4 0 -4 3l-49 123h-6v-189q0 -2 -2 -2h-57q-3 0 -3 2zM113 233v254h-77q-2 0 -2 2v53q0 2 2 2h216 q1 0 1 -2v-53q0 -2 -1 -2h-77v-254q0 -2 -2 -2h-59q-1 0 -1 2z" />
<glyph horiz-adv-x="419" d="M77 13q-4 0 -2 4l39 79h-70q-3 0 -3 3v76q0 3 3 3h111l41 85h-152q-3 0 -3 3v76q0 3 3 3h194q38 79 40 81q1 4 4 4h60q4 0 2 -4l-40 -81h70q4 0 4 -3v-76q0 -3 -4 -3h-111l-41 -85h152q4 0 4 -3v-76q0 -3 -4 -3h-193q-38 -78 -39 -80q-2 -3 -5 -3h-60z" />
<glyph horiz-adv-x="418" d="M172 134q-3 0 -3 3v122h-125q-3 0 -3 3v75q0 3 3 3h125v122q0 3 3 3h74q4 0 4 -3v-122h124q4 0 4 -3v-75q0 -3 -4 -3h-124v-122q0 -3 -4 -3h-74zM44 0q-3 0 -3 3v73q0 4 3 4h331q3 0 3 -4v-73q0 -3 -3 -3h-331z" />
<glyph horiz-adv-x="418" d="M375 121q-2 1 -167 67l-164 66q-3 2 -3 4v68q0 3 3 3l331 134q3 1 3 -3v-81q0 -2 -3 -5l-207 -81v-3q205 -80 207 -80q3 -2 3 -5v-81q0 -4 -3 -3zM43 0q-3 0 -3 3v77q0 3 3 3h332q3 0 3 -3v-77q0 -3 -3 -3h-332z" />
<glyph horiz-adv-x="418" d="M43 121q-3 -1 -3 3v81q0 3 3 5l207 80v3q-205 80 -207 81q-3 3 -3 5v81q0 4 3 3l331 -134q3 0 3 -3v-68q0 -2 -3 -4l-164 -66q-165 -66 -167 -67zM375 0h-332q-3 0 -3 3v77q0 3 3 3h332q3 0 3 -3v-77q0 -3 -3 -3z" />
<glyph horiz-adv-x="419" d="M51 146q0 7 5 13q36 36 81 36q30 0 74.5 -23.5t67.5 -23.5q18 0 35.5 9t29 18t13.5 9q4 0 4 -4v-48q0 -8 -5 -13q-5 -6 -13.5 -13.5t-28.5 -16.5t-40 -9q-28 0 -72.5 24.5t-67.5 24.5q-17 0 -35 -9t-30.5 -18t-14.5 -9q-3 0 -3 4v49zM51 313q0 7 5 12q6 9 30 23t51 14 q30 0 74.5 -23.5t67.5 -23.5q24 0 51 19l27 18q4 0 4 -4v-49q0 -8 -5 -13q-5 -6 -13.5 -13t-28.5 -16t-40 -9q-28 0 -72.5 24t-67.5 24q-17 0 -35 -9t-30.5 -18t-14.5 -9q-3 0 -3 4v49z" />
<glyph horiz-adv-x="188" d="M51 163q-3 0 -3 4v91q0 3 3 3h86q4 0 4 -3v-91q0 -4 -4 -4h-86z" />
<glyph horiz-adv-x="308" d="M122 548q5 2 5 -3v-149q0 -3 -3 -3h-75q-3 0 -3 3v95q0 3 3 5zM257 548q4 2 4 -3v-149q0 -3 -3 -3h-74q-3 0 -3 3v95q0 4 2 5z" />
<glyph horiz-adv-x="307" d="M51 388q-5 -2 -5 3v150q0 3 3 3h75q3 0 3 -3v-96q0 -3 -3 -5zM185 388q-4 -2 -4 3v150q0 3 3 3h74q3 0 3 -3v-96q0 -3 -2 -5z" />
<glyph horiz-adv-x="173" d="M122 548q5 2 5 -3v-149q0 -3 -3 -3h-75q-3 0 -3 3v95q0 3 3 5z" />
<glyph horiz-adv-x="173" d="M51 388q-5 -2 -5 3v150q0 3 3 3h75q3 0 3 -3v-96q0 -3 -3 -5z" />
<glyph horiz-adv-x="847" d="M196 -5h-78q-2 0 -1 3q17 37 143.5 273.5t144.5 274.5q3 3 5 3h78q4 0 1 -4l-288 -547q-1 -3 -5 -3zM155 295q-100 0 -100 91v74q0 89 103 89q98 0 98 -89v-74q0 -91 -101 -91zM452 -5q-101 0 -101 92v73q0 89 103 89q98 0 98 -89v-73q0 -55 -28 -73.5t-72 -18.5zM692 -5 q-101 0 -101 92v73q0 89 103 89q98 0 98 -89v-73q0 -55 -28 -73.5t-72 -18.5zM155 358q20 0 30 7.5t10 30.5v53q0 37 -38 37q-42 0 -42 -37v-53q0 -23 10 -30.5t30 -7.5zM692 58q19 0 29.5 7.5t10.5 30.5v53q0 22 -10 29.5t-29 7.5q-41 0 -41 -37v-53q0 -23 10.5 -30.5 t29.5 -7.5zM452 58q19 0 29 7.5t10 30.5v53q0 22 -9.5 29.5t-28.5 7.5q-41 0 -41 -37v-53q0 -23 10.5 -30.5t29.5 -7.5z" />
<glyph horiz-adv-x="321" d="M157 384q20 0 30 7.5t10 30.5v31q0 21 -9.5 28.5t-28.5 7.5q-42 0 -42 -36v-31q0 -23 10.5 -30.5t29.5 -7.5zM157 321q-100 0 -100 91v51q0 89 103 89q98 0 98 -89v-51q0 -54 -28 -72.5t-73 -18.5z" />
<glyph horiz-adv-x="463" d="M390 395l50 -50q2 -3 0 -5l-123 -129q121 -127 123 -129t0 -4q-49 -49 -50 -51q-2 -1 -4 0l-175 182v5l175 181q2 2 4 0zM204 395q49 -49 49 -50q3 -3 0 -5l-122 -129q122 -127 122 -129q3 -1 0 -4l-49 -51q-3 -1 -4 0q-4 4 -89 92.5t-85 89.5q-2 3 0 5l174 181q2 2 4 0z " />
<glyph horiz-adv-x="458" d="M255 27q-49 49 -50 51q-2 2 0 4l122 129q-121 127 -122 129q-2 2 0 4l50 51q1 1 4 0q1 -1 85.5 -89t88.5 -92q3 -2 0 -5l-175 -182q-2 -2 -3 0zM74 27q-49 49 -50 51q-3 1 0 4l122 129q-121 127 -122 129q-3 1 0 4l50 51q2 1 3 0l44 -46q44 -46 87 -91l44 -44q2 -2 0 -5 l-175 -182q-2 -2 -3 0z" />
<glyph horiz-adv-x="277" d="M196 395l49 -50q3 -3 0 -5l-122 -129q121 -127 122 -129q3 -1 0 -4q-47 -47 -49 -51q-3 -1 -4 0q-4 4 -89 92.5t-85 89.5q-2 3 0 5l174 181q2 2 4 0z" />
<glyph horiz-adv-x="277" d="M81 27q-49 49 -49 51q-3 1 0 4l122 129q-122 127 -122 129q-3 1 0 4l49 51q3 1 4 0q1 -2 87 -91.5t87 -89.5q3 -2 0 -5q-1 -1 -85.5 -89.5t-88.5 -92.5q-2 -2 -4 0z" />
<glyph horiz-adv-x="252" d="M74 97q-4 0 -4 4v105q0 4 4 4h105q4 0 4 -4v-105q0 -4 -4 -4h-105zM74 467q-4 0 -4 4v104q0 4 4 4h105q4 0 4 -4v-104q0 -4 -4 -4h-105z" />
</font>
</defs>
</svg>
