<?xml version="1.0" standalone="no"?>
<!DOCTYPE svg PUBLIC "-//W3C//DTD SVG 1.1//EN" "http://www.w3.org/Graphics/SVG/1.1/DTD/svg11.dtd" >
<svg xmlns="http://www.w3.org/2000/svg" xmlns:xlink="http://www.w3.org/1999/xlink" version="1.1">
<metadata></metadata>
<defs>
<font id="sport1bold_italic" horiz-adv-x="540" >
<font-face units-per-em="1000" ascent="750" descent="-250" />
<missing-glyph horiz-adv-x="242" />
<glyph unicode=" "  horiz-adv-x="242" />
<glyph unicode="&#x09;" horiz-adv-x="242" />
<glyph unicode="&#xa0;" horiz-adv-x="242" />
<glyph unicode="!" horiz-adv-x="307" d="M177 0h-127q-4 0 -4 4l17 120q0 4 5 4h127q3 0 2 -4l-17 -120q0 -4 -3 -4zM200 204h-115q-4 0 -4 4l66 468q0 4 4 4h115q3 0 3 -4l-66 -468q0 -4 -3 -4z" />
<glyph unicode="&#x22;" horiz-adv-x="384" d="M383 680q7 0 5 -6l-28 -198q0 -4 -3 -4h-101q-4 0 -4 4l28 197q0 7 5 7h98zM207 680q5 0 4 -6l-28 -198q0 -4 -4 -4h-101q-3 0 -3 4l28 197q0 7 4 7h100z" />
<glyph unicode="#" horiz-adv-x="569" d="M228 291h105l27 110h-104zM149 0h-100q-4 0 -3 4l48 187h-70q-4 0 -4 4l13 92q0 4 5 4h82l27 110h-74q-4 0 -4 4l13 91q0 4 4 4h87q46 173 46 176q0 4 5 4h101q5 0 3 -4l-46 -176h105q45 173 45 176q0 4 5 4h102q4 0 2 -4l-45 -176h67q4 0 4 -4l-13 -91q0 -4 -5 -4h-79 l-28 -110h73q3 0 3 -4l-13 -92q0 -4 -4 -4h-84q-48 -184 -49 -187q-1 -4 -5 -4h-101q-3 0 -3 3l48 188h-104q-48 -184 -48 -187q0 -4 -6 -4z" />
<glyph unicode="$" horiz-adv-x="589" d="M197 -82q-3 0 -3 4l10 72q-120 5 -184 37q-3 2 -1 6l51 111q2 3 5 2q4 -2 26 -7.5t70.5 -12.5t97.5 -7q32 0 52.5 3t38.5 15.5t22 36.5l6 38q4 25 -20 41t-93 24q-59 7 -93.5 16t-62 27.5t-35.5 50t-1 79.5l11 75q20 139 208 154l10 74q1 4 3 4h86q5 0 4 -4l-10 -74 q46 -2 85.5 -9.5t56 -13t18.5 -7.5q2 -1 2 -3q0 -3 -23.5 -55t-25.5 -55t-6 -2q-2 1 -23.5 5.5t-64 9.5t-82.5 5q-86 0 -93 -50l-5 -36q-4 -29 17 -42t89 -22q55 -7 90 -16t64.5 -28t40 -51.5t3.5 -80.5l-11 -76q-7 -50 -33 -84t-65.5 -49.5t-67 -20.5t-64.5 -8l-10 -72 q0 -4 -4 -4h-86z" />
<glyph unicode="%" horiz-adv-x="787" d="M226 -6h-112q-3 0 -1 4q17 30 228 342t228 342q4 4 7 4h112q3 0 0 -4l-456 -684q-3 -4 -6 -4zM557 82q22 0 35 8.5t16 35.5l8 58q3 25 -6.5 33.5t-31.5 8.5q-47 0 -53 -42l-8 -58q-3 -27 7.5 -35.5t32.5 -8.5zM544 -6q-57 0 -89.5 24.5t-23.5 93.5l12 88q16 115 150 115 q55 0 87 -23.5t23 -91.5l-12 -88q-5 -37 -19.5 -62t-37 -36.5t-43 -15.5t-47.5 -4zM225 454q22 0 35.5 8.5t16.5 34.5l8 59q3 25 -7 33.5t-31 8.5q-46 0 -52 -42l-9 -59q-4 -26 6.5 -34.5t32.5 -8.5zM213 366q-57 0 -90 24.5t-23 93.5l13 87q17 115 149 115q55 0 87 -23.5 t23 -91.5l-12 -87q-5 -37 -19.5 -62t-36.5 -36.5t-43 -15.5t-48 -4z" />
<glyph unicode="&#x26;" horiz-adv-x="593" d="M251 -6q-34 0 -59.5 2.5t-57.5 13t-51 29t-29.5 53.5t-4.5 83l5 41q5 41 27 84t41 65l19 22q-3 5 -6 14.5t-9 41t1 63.5l4 30q6 48 27.5 80t53.5 46t60 19t63 5q25 0 43 -2t40.5 -9.5t37 -21.5t24.5 -40.5t10 -63.5q0 -41 -8 -41h-90q-1 0 -1 24q0 40 -18 53t-47 13 q-17 0 -32.5 -4t-32.5 -20t-21 -43l-3 -18q0 -16 -1.5 -24t4 -24t8 -24t11 -24.5t13.5 -25t15 -26t16 -28.5l86 -157q12 17 13 25l14 104q2 4 4 4h91q4 0 4 -4l-18 -126q-3 -18 -15.5 -41.5t-23.5 -37.5l-11 -15q50 -82 51 -85q2 -4 -2 -4h-121q-3 0 -6 4l-9 16 q-44 -26 -109 -26zM265 92q13 0 24 2.5t15 5.5l5 2l-110 190q-25 -27 -34 -93l-2 -14q-8 -55 18 -74t84 -19z" />
<glyph unicode="'" horiz-adv-x="226" d="M216 680q8 0 6 -6l-28 -198q0 -4 -4 -4h-101q-4 0 -4 4l28 197q0 7 5 7h98z" />
<glyph unicode="(" horiz-adv-x="318" d="M101 -94q-3 0 -8 4l-1 2q-2 3 -4 7.5t-4.5 11t-5.5 17t-6 23t-5.5 30t-4.5 38t-3 47t-1 56.5q0 133 15.5 244t36 173t45.5 108.5t37.5 60.5t18.5 18q5 4 8 4h106q3 0 -1 -4q-5 -5 -17 -21.5t-35.5 -67t-43 -114.5t-34.5 -172t-15 -232q0 -75 7 -132.5t12.5 -76t7.5 -20.5 q4 -4 0 -4h-105z" />
<glyph unicode=")" horiz-adv-x="318" d="M112 -94h-105q-3 0 1 4q5 5 16.5 21.5t35.5 67t43.5 114.5t34.5 172t15 232q0 75 -7.5 133t-12.5 74t-8 22q-3 4 1 4h105q2 0 7 -4q4 -3 11 -19t16 -73.5t9 -138.5q0 -131 -15.5 -240t-34 -170t-45 -110t-37.5 -62t-21 -22l-1 -1q-4 -4 -8 -4z" />
<glyph unicode="*" horiz-adv-x="387" d="M171 367q-5 0 -4 4l12 85q-73 -42 -75 -43q-5 -2 -6 2q-10 30 -25 60q-2 3 2 5l76 44q-62 40 -64 42q-3 1 -1 5l42 61q6 2 7 1l63 -43l12 86q0 4 5 4h68q4 0 4 -4l-12 -86q73 42 74 43q3 2 6 -1q0 -2 11.5 -30t13.5 -31q2 -4 -1 -5l-75 -42q61 -42 63 -44q2 -1 0 -5 q-1 -1 -11.5 -16t-21 -29t-10.5 -15q-2 -3 -6 -2l-62 43l-12 -85q0 -4 -4 -4h-69z" />
<glyph unicode="+" horiz-adv-x="543" d="M188 68q-4 0 -4 4l21 146h-154q-4 0 -4 4l15 107q0 4 5 4h154l21 147q0 4 4 4h106q4 0 4 -4l-21 -147h155q4 0 3 -4l-15 -107q0 -4 -4 -4h-155l-21 -146q0 -4 -4 -4h-106z" />
<glyph unicode="," horiz-adv-x="249" d="M-22 -110q-5 0 -2 4l97 242q1 4 5 4h118q4 0 2 -4l-124 -242q-1 -4 -5 -4h-91z" />
<glyph unicode="-" horiz-adv-x="389" d="M41 218q-4 0 -4 4l15 107q0 4 5 4h289q3 0 3 -4l-15 -107q0 -4 -4 -4h-289z" />
<glyph unicode="." horiz-adv-x="257" d="M25 0q-4 0 -3 4l19 135q0 4 4 4h127q4 0 4 -4l-19 -135q0 -4 -5 -4h-127z" />
<glyph unicode="/" horiz-adv-x="432" d="M19 -5q-4 0 -3 4q1 2 141.5 341.5t141.5 341.5q1 4 5 4h127q5 0 2 -4l-282 -683q-1 -4 -5 -4h-127z" />
<glyph unicode="0" horiz-adv-x="592" d="M272 119q53 0 76.5 25.5t35.5 109.5l25 177q11 82 -6 106.5t-69 24.5q-51 0 -75.5 -24.5t-35.5 -106.5l-25 -177q-12 -84 5 -109.5t69 -25.5zM254 -10q-23 0 -39.5 1t-37.5 4t-36 8t-31 14.5t-27 22.5t-20 32t-13 43.5t-4 57t6 71.5l28 200q9 67 29.5 114t44.5 72.5 t60.5 39.5t65.5 17.5t72 3.5q23 0 39 -0.5t37.5 -3.5t36.5 -8t32 -14t28 -21.5t20.5 -31t14 -42.5t4.5 -56t-5 -70l-28 -200q-10 -71 -32 -120.5t-46 -75t-62 -39.5t-65.5 -16.5t-71.5 -2.5z" />
<glyph unicode="1" horiz-adv-x="524" d="M332 0h-131q-4 0 -4 4l74 523q-128 -82 -130 -83q-4 -2 -4 2q0 3 -7 59t-8 57q-1 3 5 7q159 106 162 109q4 2 7 2h131q4 0 4 -4l-95 -673q0 -3 -4 -3z" />
<glyph unicode="2" horiz-adv-x="538" d="M429 0h-399q-4 0 -4 3l16 113q1 5 6 10q20 19 62 58t61.5 58t52.5 51t49.5 50.5t35.5 41.5t27.5 40t10.5 31l7 50q3 23 -10.5 37t-28.5 17t-34 3q-32 0 -71.5 -5.5t-63 -11t-25.5 -6.5q-5 0 -5 3q0 2 -4.5 54t-4.5 53q0 4 3 5q5 4 23 11t66 16t102 9q31 0 57 -2.5 t57 -12.5t51.5 -27t31.5 -48.5t5 -73.5l-12 -83q-8 -55 -64 -122.5t-174 -183.5l-1 -11h195q2 0 2 -4l-17 -119q0 -4 -3 -4z" />
<glyph unicode="3" horiz-adv-x="543" d="M32 18q-2 0 -2 3t17.5 55t18.5 55t6 3q2 -1 26 -5.5t64 -9t72 -4.5q86 0 93 56l6 44q3 23 -2.5 38.5t-18 22t-23 9t-22.5 2.5h-82q-3 0 -3 4l16 112q0 4 4 4h82q25 0 46.5 16t25.5 44l6 42q2 18 -4.5 30.5t-20 17.5t-24.5 7t-24 2q-32 0 -72 -5t-62.5 -9.5t-26.5 -5.5 q-6 -2 -6 3q0 3 -2 54.5t-2 52.5q0 4 3 6q5 2 24.5 8t66.5 13.5t95 7.5q44 0 76.5 -5t66.5 -20t48.5 -48.5t7.5 -84.5l-10 -69q-4 -28 -21 -55t-32 -39l-15 -13l-1 -9q2 -1 6 -3.5t14 -12.5t16.5 -22.5t10.5 -34t1 -46.5l-11 -80q-7 -50 -30 -83.5t-60.5 -49t-73 -21 t-82.5 -5.5q-53 0 -99.5 7t-66.5 14z" />
<glyph unicode="4" horiz-adv-x="544" d="M404 0h-123q-3 0 -3 4l14 100h-263q-4 0 -4 4l17 118q0 4 4 12l234 438q2 4 6 4h139q3 0 1 -4l-227 -435l-1 -9h111l16 112q0 4 5 4h123q3 0 3 -4l-16 -112h52q3 0 3 -4l-17 -120q0 -4 -4 -4h-51l-14 -100q0 -4 -5 -4z" />
<glyph unicode="5" horiz-adv-x="543" d="M220 -11q-103 0 -187 28q-3 2 -1 6l36 108q1 2 5 2q3 -1 27 -5.5t64.5 -9t71.5 -4.5q84 0 92 57l7 48q5 40 -15 56.5t-51 16.5h-180q-3 0 -3 4l53 375q2 9 10 9h366q4 0 4 -4l-16 -112q0 -4 -5 -4h-248l-21 -150h60q32 0 56 -2t54 -11.5t48.5 -26.5t28.5 -49t4 -76 l-14 -97q-6 -43 -26.5 -74.5t-44 -47.5t-58.5 -25t-59.5 -10.5t-57.5 -1.5z" />
<glyph unicode="6" horiz-adv-x="547" d="M248 106q16 0 28 2.5t25.5 11t22.5 28t14 49.5l5 32q8 47 -6.5 63.5t-46.5 16.5q-15 0 -37 -4t-37 -8l-14 -4l-19 -134q-4 -28 15 -40.5t50 -12.5zM241 -10q-31 0 -57.5 3t-56.5 13.5t-49.5 28t-30 49t-4.5 73.5l50 355q7 47 30 82t50 53t62 28.5t57.5 13t44.5 2.5 q19 0 37.5 -1t33.5 -3t29 -4.5t24.5 -5.5t19.5 -6t15.5 -5.5t11 -4.5t7.5 -3l3 -2q3 -1 1 -5q-1 -2 -11.5 -28.5t-19.5 -50.5t-9 -25q0 -2 -5 -2l-10 2q-10 2 -25.5 5t-34 6t-41 5t-42.5 2q-31 0 -57.5 -13t-31.5 -46l-14 -97q82 17 116 17q16 0 28.5 -1t29 -4t28 -8.5 t25 -15t20.5 -23t14 -33t6 -44.5t-4 -58l-7 -49q-8 -54 -27 -92.5t-40.5 -59t-53.5 -32t-56 -14t-56 -2.5z" />
<glyph unicode="7" horiz-adv-x="526" d="M212 1h-140q-6 0 -3 4l280 541l2 10h-246q-3 0 -3 4l17 116q0 4 3 4h396q4 0 4 -4l-16 -112q0 -3 -4 -11l-283 -548q-4 -4 -7 -4z" />
<glyph unicode="8" horiz-adv-x="543" d="M247 106q76 0 87 76l5 34q10 70 -65 70q-77 0 -87 -70l-5 -34q-12 -76 65 -76zM290 413q72 0 81 62l5 34q9 67 -62 67q-72 0 -82 -67l-5 -34q-5 -33 13.5 -47.5t49.5 -14.5zM230 -10q-35 0 -62 3.5t-55.5 14.5t-45 30.5t-24.5 53.5t-2 81l7 51q3 24 13.5 46t23 36t24 24 t19.5 14l8 5v4q-6 4 -14.5 12t-20.5 36.5t-7 62.5l7 50q7 47 24 81t38 52.5t52.5 28.5t56.5 12.5t60 2.5q34 0 58 -2.5t51 -13t42.5 -29t23 -52t1.5 -80.5l-7 -51q-4 -33 -22 -60.5t-34 -38.5l-16 -12v-3q3 -1 7 -4t14 -14t17.5 -24.5t11.5 -35.5t1 -47l-7 -51 q-8 -58 -31 -96.5t-59 -56.5t-71 -24t-82 -6z" />
<glyph unicode="9" horiz-adv-x="543" d="M314 571q-16 0 -28 -2.5t-26 -11t-23.5 -27.5t-13.5 -49l-5 -40q-6 -47 8 -63.5t45 -16.5q15 0 37.5 4.5t37.5 8.5l14 4l20 141q4 28 -15.5 40t-50.5 12zM321 688q40 0 72.5 -6t67 -22t50.5 -51.5t9 -87.5l-49 -348q-7 -47 -30 -82t-50 -53t-62 -28.5t-57.5 -13 t-44.5 -2.5q-20 0 -38.5 1t-34 3t-29 4t-25 5t-20.5 5.5t-16 5t-11.5 4l-7.5 2.5l-3 2q-1 0 -1 3t41 106q2 3 5 3q3 -1 25 -5t61 -8.5t70 -4.5q30 0 57 13t32 46l11 82q-82 -17 -117 -17q-22 0 -38 2t-37.5 8t-34 18.5t-25.5 33t-13.5 51.5t2.5 74l8 57q7 54 26 92.5 t40.5 59t53.5 32t56 14t57 2.5z" />
<glyph unicode=":" horiz-adv-x="270" d="M32 0q-4 0 -4 4l17 120q0 4 5 4h127q3 0 3 -4l-16 -120q-1 -4 -5 -4h-127zM82 357q-4 0 -3 4l16 119q1 4 5 4h127q4 0 4 -4l-17 -119q0 -4 -5 -4h-127z" />
<glyph unicode=";" horiz-adv-x="270" d="M-36 -110q-5 0 -2 4l97 242q1 4 4 4h119q3 0 1 -4l-123 -242q-1 -4 -5 -4h-91zM80 342q-4 0 -3 4l19 134q0 4 4 4h127q3 0 3 -4l-19 -134q0 -4 -4 -4h-127z" />
<glyph unicode="&#x3c;" horiz-adv-x="544" d="M452 53q-3 1 -201 84t-200 84q-3 1 -3 5l14 97q0 3 3 4l449 169q3 2 3 -3l-16 -116q0 -3 -4 -5l-263 -96v-4q233 -93 236 -94q2 -1 2 -6l-17 -116q0 -4 -3 -3z" />
<glyph unicode="=" horiz-adv-x="543" d="M36 112q-4 0 -4 4l16 109q0 4 4 4h423q4 0 4 -4l-16 -109q0 -4 -4 -4h-423zM66 325q-4 0 -4 4l15 108q0 4 5 4h423q4 0 3 -4l-15 -108q0 -4 -4 -4h-423z" />
<glyph unicode="&#x3e;" horiz-adv-x="544" d="M27 53q-2 -1 -2 3l16 116q2 5 4 6l261 94l1 4q-233 94 -235 96q-2 1 -2 5l16 116q2 5 3 3l401 -169q3 -1 3 -4l-13 -97q-2 -3 -5 -5z" />
<glyph unicode="?" horiz-adv-x="467" d="M280 199h-126q-4 0 -4 4l5 33q6 39 30.5 77.5t51 63t49 52t25.5 46.5l4 32q7 57 -55 57q-18 0 -38.5 -2.5t-37.5 -6t-31 -7t-23 -6.5l-8 -2q-5 -2 -5 2l-12 103q0 5 3 6q4 3 23 10t62 16t87 9q38 0 66.5 -5.5t58.5 -21t43.5 -50t6.5 -86.5l-6 -48q-4 -33 -41.5 -76.5 t-75.5 -87t-43 -76.5l-5 -32q0 -4 -4 -4zM251 0h-127q-4 0 -4 4l17 120q0 4 5 4h127q3 0 2 -4l-17 -120q0 -4 -3 -4z" />
<glyph unicode="@" horiz-adv-x="885" d="M419 151q34 0 50 11t21 46l19 134q2 14 -9.5 22.5t-24 10t-29.5 1.5q-28 0 -45 -17.5t-23 -61.5l-9 -65q-1 -28 0 -44t11.5 -24.5t18.5 -10.5t20 -2zM376 -151q-337 0 -337 331q0 496 459 496q58 0 104.5 -6.5t93.5 -26.5t78 -53.5t50.5 -90.5t19.5 -134 q0 -95 -18.5 -159.5t-52 -95.5t-67.5 -42.5t-78 -11.5q-64 0 -100 32q-44 -32 -126 -32q-29 0 -50.5 3.5t-44.5 13.5t-34 28.5t-18.5 49.5t1.5 75l11 77q13 89 58 128.5t109 39.5q34 0 56.5 -5.5t27.5 -11.5l6 -5l2 14q0 3 4 3h105q4 0 4 -3l-35 -246q-9 -64 43 -64 q20 0 33.5 6t28 25.5t21.5 62.5t7 109q0 128 -62.5 176t-191.5 48q-168 0 -250 -88.5t-82 -290.5q0 -74 20.5 -125t57 -76t75 -35t87.5 -10q47 0 102.5 6.5t84 12t33.5 7.5q4 1 5 -2l10 -87q0 -5 -2 -6q-111 -37 -248 -37z" />
<glyph unicode="A" horiz-adv-x="618" d="M114 0h-143q-5 0 -3 4l314 672q0 4 4 4h159q4 0 5 -4l120 -672q2 -4 -3 -4h-144q-3 0 -4 4l-16 117h-234q-50 -114 -51 -117q-1 -4 -4 -4zM217 235h170l-37 265h-21z" />
<glyph unicode="B" horiz-adv-x="596" d="M187 113h99q90 0 99 60l8 56q4 27 -11 42.5t-31.5 18.5t-39.5 3h-99zM227 398h92q35 0 45 -2q42 57 42 106q0 40 -20.5 52.5t-54.5 12.5h-80zM286 0h-259l96 680h250q180 0 180 -147q0 -75 -67 -173q32 -22 45.5 -50t6.5 -80l-8 -62q-6 -46 -23.5 -78t-38.5 -49.5 t-54.5 -27t-60.5 -11.5t-67 -2z" />
<glyph unicode="C" horiz-adv-x="556" d="M271 -10q-23 0 -42.5 1t-41.5 4.5t-38.5 9.5t-35 15.5t-30 23.5t-23.5 32.5t-15 43t-5.5 55.5t4.5 69l28 200q9 64 31 110.5t49.5 72t66.5 40.5t73 19.5t79 4.5q121 0 177 -28q2 -2 1 -5q-2 -3 -55 -109q-1 -3 -6 -3q-2 1 -19.5 4.5t-50.5 7.5t-64 4q-25 0 -42.5 -3.5 t-39.5 -15.5t-36.5 -40.5t-20.5 -73.5l-24 -174q-11 -81 14.5 -105.5t84.5 -24.5q22 0 45.5 2t41.5 4.5t32.5 5t23.5 4.5l9 2q3 2 5 -2l23 -109q1 -2 -3 -6q-72 -36 -196 -36z" />
<glyph unicode="D" horiz-adv-x="613" d="M190 131h94q56 0 85.5 24.5t41.5 109.5l22 152q4 26 3.5 46.5t-3 34.5t-10 23.5t-14.5 15t-19 8.5t-22 3.5t-25 0.5h-94zM266 0h-239l96 680h239q52 0 84.5 -5.5t74 -27t57 -76.5t3.5 -141l-24 -175q-7 -51 -21.5 -91.5t-31 -67t-41.5 -45t-46 -28.5t-51 -15.5t-50 -6.5 t-50 -1z" />
<glyph unicode="E" horiz-adv-x="544" d="M27 0l96 680h428q2 0 2 -4l-16 -117q0 -4 -4 -4h-283l-21 -149h236q4 0 3 -4l-16 -117q-1 -4 -5 -4h-236l-21 -156h283q2 0 2 -4l-16 -117q0 -4 -4 -4h-428z" />
<glyph unicode="F" horiz-adv-x="539" d="M31 0q-4 0 -4 4l95 676h428q3 0 3 -4l-17 -117q0 -4 -3 -4h-283l-25 -179h236q3 0 3 -4l-16 -117q-1 -4 -5 -4h-236l-35 -247q0 -4 -4 -4h-137z" />
<glyph unicode="G" horiz-adv-x="608" d="M269 -10q-22 0 -40 1t-40 4t-38 8.5t-35 15t-30.5 23t-24 32t-16 43t-6.5 56t5 70.5l28 201q9 67 34.5 115.5t54.5 73.5t71 38.5t71.5 16.5t70.5 3q56 0 108 -7.5t74 -13.5t26 -8q3 -1 1 -6l-48 -106q-1 -3 -6 -3q-2 1 -27 4.5t-68 7t-78 3.5q-20 0 -34 -1.5t-33 -9 t-32 -20.5t-24.5 -39t-16.5 -62l-25 -177q-2 -30 -3 -51.5t7 -36.5t15 -23.5t21.5 -13t26.5 -6t30 -1.5l119 7l19 134h-89q-3 0 -3 4l16 111q0 4 3 4h210l-52 -369q-167 -22 -242 -22z" />
<glyph unicode="H" horiz-adv-x="639" d="M31 0q-4 0 -4 4l95 672q0 4 4 4h137q5 0 4 -4l-38 -273h215l38 273q1 4 4 4h137q4 0 4 -4l-95 -672q0 -4 -4 -4h-137q-4 0 -4 4l39 275h-215l-39 -275q0 -4 -4 -4h-137z" />
<glyph unicode="I" horiz-adv-x="279" d="M31 0q-4 0 -4 4l95 672q0 4 4 4h137q4 0 4 -4l-95 -672q0 -4 -4 -4h-137z" />
<glyph unicode="J" horiz-adv-x="503" d="M162 -10q-89 0 -164 25q-2 1 0 5l48 109q2 5 5 3q2 -1 18.5 -3t47 -4.5t59.5 -2.5q95 0 106 80l67 474q0 4 4 4h137q4 0 4 -4l-68 -485q-8 -55 -28.5 -94t-45 -59.5t-61 -31.5t-63.5 -13.5t-66 -2.5z" />
<glyph unicode="K" horiz-adv-x="621" d="M31 0q-4 0 -4 4l95 672q0 4 4 4h137q5 0 4 -4l-38 -273h37q205 269 208 273t5 4h152q4 0 1 -4l-257 -331q175 -338 177 -341q3 -4 -1 -4h-153q-3 0 -6 4l-135 274h-46l-39 -274q0 -4 -4 -4h-137z" />
<glyph unicode="L" horiz-adv-x="526" d="M27 0l95 676q0 4 5 4h137q4 0 3 -4l-77 -551h283q2 0 2 -4l-16 -117q0 -4 -4 -4h-428z" />
<glyph unicode="M" horiz-adv-x="780" d="M31 0q-4 0 -4 4l95 672q0 4 4 4h165q5 0 6 -3l98 -338h13q186 334 187 336q3 5 8 5h163q4 0 4 -4l-95 -672q0 -4 -4 -4h-135q-5 0 -4 4l56 402h-13q-146 -257 -147 -260q-1 -4 -7 -4h-99q-7 0 -7 6l-74 258h-15l-56 -402q-1 -4 -4 -4h-135z" />
<glyph unicode="N" horiz-adv-x="656" d="M28 0q-4 0 -4 4l95 672q0 4 5 4h154q4 0 5 -3l155 -425h11l60 424q0 4 4 4h135q5 0 4 -4l-95 -672q0 -4 -5 -4h-156q-5 0 -6 4l-154 424h-12l-60 -424q0 -4 -3 -4h-133z" />
<glyph unicode="O" horiz-adv-x="608" d="M280 120q58 0 86.5 24t40.5 109l25 176q2 30 3.5 52t-5.5 36.5t-13 23t-20 13t-25.5 5.5t-29.5 1q-27 0 -44 -3.5t-35 -16t-29.5 -40t-17.5 -71.5l-25 -176q-2 -31 -4 -53t5 -36.5t13 -23.5t19.5 -13.5t25.5 -5.5t30 -1zM262 -11q-21 0 -36.5 0.5t-35.5 2.5t-34.5 6.5 t-31.5 11t-29 17t-23.5 24t-18 32.5t-11 42t-4 53t5.5 65l28 199q9 67 31.5 114.5t48.5 73t65 39.5t69.5 17.5t73.5 3.5q20 0 35.5 -0.5t35 -2.5t34.5 -6t32 -10.5t29 -16.5t24 -23t19 -31.5t11.5 -41.5t4.5 -52t-5 -64l-27 -199q-7 -51 -21 -91t-30.5 -66.5t-41 -45.5 t-45.5 -28.5t-51 -15t-50.5 -6.5t-51.5 -1z" />
<glyph unicode="P" horiz-adv-x="592" d="M222 360h105q95 0 105 73l6 47q3 24 -3 40.5t-20.5 23.5t-27.5 9t-31 2h-106zM168 0h-137q-4 0 -4 4l95 676h258q32 0 57.5 -2.5t58.5 -13.5t53.5 -30t31.5 -55.5t4 -86.5l-10 -71q-27 -187 -257 -187h-114l-32 -230q0 -4 -4 -4z" />
<glyph unicode="Q" horiz-adv-x="606" d="M262 -11q-21 0 -36.5 0.5t-35.5 2.5t-34.5 6.5t-31.5 11t-29 17t-23.5 24t-18 32.5t-11 42t-4 53t5.5 65l28 199q9 67 31.5 114.5t48.5 73t65 39.5t69.5 17.5t73.5 3.5q20 0 35.5 -0.5t35 -2.5t34.5 -6t32 -10.5t29 -16.5t24 -23t19 -31.5t11.5 -41.5t4.5 -52t-5 -64 l-27 -199q-14 -103 -56 -163l34 -41q3 -3 0 -5l-84 -74q-3 -3 -6 0l-39 47q-52 -18 -140 -18zM272 165q-4 4 1 6l84 74q1 1 3 1t2 -1t34 -42q7 26 11 50l25 176q2 30 3.5 52t-5.5 36.5t-13 23t-20 13t-25.5 5.5t-29.5 1q-27 0 -44 -3.5t-35 -16t-29.5 -40t-17.5 -71.5 l-25 -176q-2 -31 -4 -53t5 -36.5t13 -23.5t19.5 -13.5t25.5 -5.5t30 -1q19 0 27 1z" />
<glyph unicode="R" horiz-adv-x="610" d="M221 359h106q94 0 105 77l6 41q5 32 -9.5 51t-32 23t-41.5 4h-106zM167 0h-136q-4 0 -4 4l95 676h258q31 0 56 -2.5t58 -14.5t53.5 -32t31.5 -58.5t4 -91.5l-7 -51q-18 -127 -120 -170l78 -256q1 -4 -2 -4h-152q-5 0 -6 4l-62 230h-109l-32 -230q-1 -4 -4 -4z" />
<glyph unicode="S" horiz-adv-x="588" d="M250 -10q-145 0 -228 35l-1 1q-3 1 -1 5l49 114q2 3 5 2q84 -28 196 -28q51 0 80 10.5t34 44.5l6 44q4 27 -23.5 42.5t-88.5 22.5q-121 12 -163.5 48t-29.5 124l12 81q23 155 254 155q62 0 115 -8.5t69 -14t23 -8.5q4 -1 2 -6l-48 -107q-1 -3 -5 -3q-3 1 -25 6t-64.5 10 t-82.5 5q-87 0 -94 -51l-5 -40q-4 -29 17 -42.5t88 -21.5q120 -14 165.5 -52t33.5 -125l-11 -80q-7 -53 -35 -87.5t-72 -50t-83 -20.5t-89 -5z" />
<glyph unicode="T" horiz-adv-x="545" d="M164 0q-3 0 -3 4l77 548h-175q-4 0 -4 4l17 120q0 4 5 4h496q3 0 2 -4l-17 -120q0 -4 -3 -4h-176l-77 -548q0 -4 -5 -4h-137z" />
<glyph unicode="U" horiz-adv-x="628" d="M251 -10q-131 0 -172 61.5t-21 203.5l59 421q0 4 4 4h137q4 0 4 -4l-58 -411q-14 -69 -1.5 -106.5t68.5 -37.5h41q55 0 74.5 31t31.5 113l58 411q0 4 4 4h137q4 0 4 -4l-59 -421q-9 -67 -24.5 -112t-45 -82t-79 -54t-121.5 -17h-41z" />
<glyph unicode="V" horiz-adv-x="621" d="M187 0q-3 0 -5 3q1 2 -54.5 336.5t-55.5 336.5q0 4 4 4h144q2 0 3 -4l67 -470h18q201 467 201 470q0 4 6 4h143q2 0 1 -4l-303 -672q-2 -4 -6 -4h-163z" />
<glyph unicode="W" horiz-adv-x="851" d="M106 0q-5 0 -5 5l-28 671q0 4 4 4h143q4 0 5 -4l11 -449h19q143 311 144 314t5 3h114q4 0 5 -4l54 -313h19q139 446 140 449q1 4 4 4h144q5 0 3 -4l-216 -671q-1 -5 -6 -5h-175q-6 0 -6 4l-50 306h-12q-133 -299 -135 -305q-3 -5 -7 -5h-174z" />
<glyph unicode="X" horiz-adv-x="587" d="M-21 0q-4 0 -3 4l248 348q-137 321 -139 324q-3 4 3 4h150q4 0 5 -4l76 -187h7q125 184 127 187q3 4 5 4h150q5 0 3 -4l-230 -324q148 -346 149 -348q1 -4 -2 -4h-151q-3 0 -4 4l-86 212h-7q-144 -210 -145 -212q-3 -4 -6 -4h-150z" />
<glyph unicode="Y" horiz-adv-x="571" d="M177 0q-4 0 -4 4l37 259q-141 410 -142 413q-1 4 3 4h146q4 0 5 -4l81 -255h7q148 252 150 255q3 4 5 4h144q5 0 2 -4l-256 -413l-37 -259q0 -4 -4 -4h-137z" />
<glyph unicode="Z" horiz-adv-x="545" d="M7 0q-3 0 -3 3l17 119q0 5 5 10l338 410l1 10h-269q-3 0 -3 4l17 120q0 4 4 4h436q4 0 4 -4l-17 -117q-1 -8 -5 -13l-338 -408l-1 -11h280q3 0 3 -4l-17 -119q0 -4 -4 -4h-448z" />
<glyph unicode="[" horiz-adv-x="306" d="M15 -94l119 844h198q3 0 3 -4l-14 -99q0 -4 -4 -4h-82l-89 -630h82q4 0 4 -4l-14 -99q0 -4 -5 -4h-198z" />
<glyph unicode="\" horiz-adv-x="432" d="M334 -5h-127q-4 0 -4 4t-44.5 343t-45.5 340q-1 4 3 4h127q5 0 5 -4t44.5 -342.5t45.5 -340.5q1 -4 -4 -4z" />
<glyph unicode="]" horiz-adv-x="306" d="M186 -94h-199q-4 0 -4 4l14 99q0 4 5 4h82l89 630h-82q-4 0 -4 4l14 99q0 4 5 4h199z" />
<glyph unicode="^" horiz-adv-x="543" d="M47 255l223 421q2 4 6 4h103q2 0 4 -4q1 -1 52 -210t51 -211q0 -4 -2 -4h-120q-3 0 -4 4l-56 246h-3q-125 -243 -127 -246q-2 -4 -6 -4h-118q-5 0 -3 4z" />
<glyph unicode="_" horiz-adv-x="520" d="M-51 -158q-3 0 -3 4l13 92q0 4 4 4h498q4 0 4 -4l-13 -92q0 -4 -5 -4h-498z" />
<glyph unicode="`" horiz-adv-x="467" d="M265 553l-75 144q-3 4 2 4h118q4 0 5 -4q1 -1 27 -71t27 -73q1 -4 -2 -4h-96q-4 0 -6 4z" />
<glyph unicode="a" horiz-adv-x="517" d="M211 91q28 0 44 2t29.5 10.5t15.5 24.5l9 64q-52 14 -94 14q-24 0 -43.5 -11.5t-21.5 -28.5l-3 -25q-3 -22 14 -36t50 -14zM151 -11q-68 0 -104 33.5t-28 91.5l8 54q8 60 57.5 93t111.5 33q24 0 55 -3t50 -7l19 -3l7 46q5 34 -14.5 45.5t-72.5 11.5q-17 0 -36.5 -1.5 t-35 -3t-28.5 -3.5t-20.5 -3.5t-8.5 -1.5q-3 0 -4 3q0 2 -5 44.5t-6 44.5q0 4 4 5q4 2 21.5 8t60.5 12.5t91 6.5q34 0 58 -2t54 -11.5t47 -27t26 -50.5t3 -79l-45 -321q0 -4 -5 -4h-126q-2 0 -2 4l2 12q-29 -27 -134 -27z" />
<glyph unicode="b" horiz-adv-x="539" d="M263 110q15 0 24.5 2.5t22.5 11t22 30t14 55.5l10 67q9 62 -4.5 80t-43.5 18q-16 0 -39.5 -4t-38.5 -8l-16 -5l-29 -206q-6 -41 78 -41zM161 0h-132q-4 0 -4 4l95 672q0 4 5 4h132q2 0 2 -4l-29 -203q83 17 119 17q15 0 26.5 -0.5t26.5 -3t26 -6.5t23.5 -11.5t21 -18 t15.5 -26t10.5 -35t3 -46t-4.5 -57.5l-12 -85q-8 -57 -25 -97.5t-35.5 -61.5t-47 -32.5t-48.5 -14t-51 -2.5q-91 0 -111 27l-2 -16q0 -4 -4 -4z" />
<glyph unicode="c" horiz-adv-x="479" d="M230 -8q-22 0 -38.5 1t-36.5 3t-33.5 6.5t-29.5 12t-24.5 18t-18.5 25t-12 33.5t-4.5 44t3.5 55l15 110q7 52 27 89.5t43 57t57 31t60.5 14t61.5 2.5q77 0 146 -23q3 -3 2 -6l-40 -91q-1 -3 -5 -3q-1 0 -7 0.5t-16.5 1.5t-24 2t-31 1.5t-35.5 0.5q-87 0 -99 -88l-13 -90 q-8 -56 12.5 -73.5t60.5 -17.5q90 0 120 10q4 1 4 -2t8.5 -48.5t8.5 -46.5q0 -3 -3 -5q-72 -24 -158 -24z" />
<glyph unicode="d" horiz-adv-x="539" d="M430 0h-131q-4 0 -3 4l2 17q-12 -13 -45 -21.5t-74 -8.5q-16 0 -27.5 0.5t-27 2.5t-26.5 6t-23.5 12t-20.5 18.5t-15.5 26t-10.5 36t-3 47.5t5 60l12 86q8 55 25 95t36.5 60.5t47.5 32t48.5 14t49.5 2.5q16 0 44 -4t49 -8l20 -5l28 203q1 4 6 4h130q3 0 3 -4l-94 -672 q-1 -4 -5 -4zM227 108q83 0 89 43l29 206q-52 17 -87 17q-15 0 -24.5 -2.5t-21 -12t-19 -30t-12.5 -52.5l-10 -70q-1 -24 -2.5 -40.5t4 -27.5t9.5 -17.5t13.5 -9.5t15.5 -3.5t16 -0.5z" />
<glyph unicode="e" horiz-adv-x="516" d="M182 284h146q7 55 -9.5 74t-48.5 19q-75 0 -88 -93zM228 -10q-32 0 -58 3t-58 16t-51.5 34.5t-29.5 62.5t-2 97l12 83q30 208 245 208q30 0 53 -3t52 -15.5t46.5 -33.5t26.5 -61.5t1 -96.5l-12 -87h-283q-8 -56 12.5 -74.5t63.5 -18.5q36 0 74.5 3.5t59.5 6.5t23 4 q5 1 5 -3q11 -66 11 -88q0 -8 -4 -9q-84 -28 -187 -28z" />
<glyph unicode="f" horiz-adv-x="356" d="M49 0q-4 0 -4 4l53 377h-44q-2 0 -2 4l13 95q1 4 4 4h44l3 23q7 49 23.5 84t35 53t46 28t46.5 12t46 2q18 0 39.5 -2t34 -4t13.5 -3q2 -1 2 -4t-12 -49.5t-15 -52.5q-1 -3 -5 -3q-1 0 -10.5 1t-23 2t-23.5 1q-49 0 -58 -65l-3 -23h93q4 0 3 -4l-13 -95q-1 -4 -5 -4h-93 l-53 -377q0 -4 -4 -4h-131z" />
<glyph unicode="g" horiz-adv-x="534" d="M216 109q15 0 38 4.5t38 8.5l16 4l29 207q3 18 -13 29.5t-64 11.5q-15 0 -26 -3t-23 -12t-20.5 -30.5t-13.5 -54.5l-9 -67q-8 -60 4.5 -79t43.5 -19zM172 -211q-110 0 -176 22q-5 1 -1 5q0 2 21 50l22 48q2 3 5 2q1 0 8 -1t20 -3t29 -4t38.5 -3t45.5 -1q28 0 46.5 4 t36 21.5t21.5 50.5l4 34q-78 -16 -117 -16q-19 0 -33 1t-31.5 4t-28.5 9t-24.5 16t-19 24.5t-12.5 35t-4.5 47.5t4.5 62l12 85q8 55 23.5 94.5t33.5 61.5t45 34t49.5 15t54.5 3q93 0 112 -26l2 16q0 4 4 4h132q3 0 3 -4l-70 -500q-7 -53 -26.5 -90t-42 -56.5t-58 -30 t-61.5 -12.5t-67 -2z" />
<glyph unicode="h" horiz-adv-x="551" d="M29 0q-4 0 -4 4l95 672q0 4 4 4h132q3 0 3 -4l-30 -209q82 23 121 23q15 0 26 -0.5t25.5 -2.5t25.5 -6t23 -11t20 -16.5t15.5 -24.5t10.5 -33t3 -43t-4 -55l-42 -294q0 -4 -3 -4h-132q-4 0 -4 4l40 285q7 54 -5 69t-41 15q-16 0 -39.5 -5t-39.5 -10l-16 -5l-49 -349 q0 -4 -3 -4h-132z" />
<glyph unicode="i" horiz-adv-x="269" d="M28 0q-3 0 -3 4l67 476q0 4 4 4h132q4 0 3 -4l-67 -476q0 -4 -4 -4h-132zM107 564q-3 0 -3 4l15 108q0 4 4 4h133q3 0 3 -4l-15 -108q0 -4 -4 -4h-133z" />
<glyph unicode="j" horiz-adv-x="284" d="M-19 -186q-17 0 -38 2t-35 4l-14 3q-2 0 -2 4q0 1 14.5 50.5t15.5 53.5q1 3 4 3l10 -1q9 -1 22.5 -2t23.5 -1q13 0 22.5 3.5t20.5 19.5t15 45l68 482q0 4 4 4h131q4 0 4 -4l-68 -482q-9 -62 -30 -102t-53 -56.5t-56 -21t-59 -4.5zM123 564q-4 0 -4 4l15 108q0 4 5 4h133 q4 0 3 -4l-15 -108q0 -4 -4 -4h-133z" />
<glyph unicode="k" d="M29 0q-4 0 -4 4l95 672q0 4 4 4h132q3 0 3 -4l-52 -368h36q128 170 130 172q4 4 7 4h147q4 0 0 -4l-178 -228q133 -246 134 -248q2 -4 -1 -4h-151q-2 0 -5 4l-100 192h-35l-27 -192q0 -4 -3 -4h-132z" />
<glyph unicode="l" horiz-adv-x="317" d="M190 -6q-26 0 -43.5 1t-36 5.5t-29.5 12t-20.5 21t-13 33t-3.5 47.5t5 64l70 498q0 4 4 4h131q3 0 3 -4l-70 -498q-6 -41 4.5 -54.5t34.5 -13.5q8 0 19.5 1t20 2t9.5 1q4 0 5 -4v-37q0 -68 -5 -70q-27 -9 -85 -9z" />
<glyph unicode="m" horiz-adv-x="833" d="M29 0q-4 0 -4 4l67 476q0 4 5 4h132q2 0 2 -4l-2 -13q81 23 119 23q52 0 78.5 -10t44.5 -33q97 43 161 43q20 0 35.5 -1.5t34 -6t30 -13t24.5 -22.5t17 -34.5t7.5 -49t-4.5 -65.5l-42 -294q0 -4 -4 -4h-131q-4 0 -4 4l40 285q5 24 2.5 39.5t-4.5 24.5t-10 13.5t-15 5.5 t-18 1q-16 0 -39.5 -6t-39.5 -12l-16 -6q2 -11 -4 -51l-42 -294q0 -4 -3 -4h-132q-3 0 -3 4l40 285q8 39 0 57.5t-17 22.5t-28 4q-16 0 -39 -5t-39 -10l-15 -5l-49 -349q0 -4 -3 -4h-132z" />
<glyph unicode="n" horiz-adv-x="551" d="M29 0q-4 0 -4 4l67 476q0 4 5 4h132q2 0 2 -4l-2 -13q83 23 121 23q15 0 26 -0.5t25.5 -2.5t25.5 -6t23 -11t20 -16.5t15.5 -24.5t10.5 -33t3 -43t-4 -55l-42 -294q0 -4 -4 -4h-131q-4 0 -4 4l40 285q8 53 -4 68.5t-42 15.5q-16 0 -39.5 -5t-39.5 -10l-16 -5l-49 -349 q0 -4 -3 -4h-132z" />
<glyph unicode="o" horiz-adv-x="521" d="M235 108q18 0 30 3t25.5 12t22 30t13.5 54l11 74q9 60 -8 78t-56 18q-38 0 -60 -18t-31 -78l-11 -74q-9 -62 8 -80.5t56 -18.5zM219 -8q-49 0 -82 6.5t-64 26.5t-42 64t-1 111l13 88q10 68 34 111.5t61 63t70.5 25.5t81.5 6q17 0 30.5 -0.5t30.5 -2t30 -5t27.5 -9 t24.5 -13.5t20 -19t16 -26t10 -34t3.5 -43t-4.5 -52l-13 -90q-8 -56 -26.5 -96t-40 -61.5t-54.5 -33t-59.5 -14.5t-65.5 -3z" />
<glyph unicode="p" horiz-adv-x="539" d="M97 484h132q3 0 3 -4l-2 -16q26 26 118 26q16 0 27.5 -0.5t27.5 -2.5t26.5 -6t23.5 -11.5t21 -18t15 -26.5t10 -36t3 -47t-5 -60l-12 -86q-10 -68 -31.5 -112t-54 -62.5t-58.5 -24t-63 -5.5q-16 0 -44 3.5t-48 7.5l-21 4l-28 -199q0 -4 -4 -4h-131q-4 0 -4 4l95 672 q0 4 4 4zM300 374q-83 0 -89 -41l-29 -209q53 -15 88 -15q20 0 32 5t25 27.5t19 64.5l10 69q2 35 1 55t-12.5 30t-20.5 12t-24 2z" />
<glyph unicode="q" horiz-adv-x="539" d="M264 373q-15 0 -24.5 -2.5t-22.5 -11t-22 -30t-14 -54.5l-10 -70q-9 -61 5 -79t45 -18q15 0 38 4t39 8l15 4l29 209q6 40 -78 40zM368 484h131q3 0 3 -4l-94 -672q-1 -4 -5 -4h-131q-3 0 -3 4l28 199q-83 -15 -119 -15q-15 0 -26.5 0.5t-26.5 3t-26 6.5t-23.5 11.5 t-21 18t-15.5 26t-10.5 35t-3 46t4.5 57.5l12 86q8 58 25 98.5t35.5 61.5t47 32.5t48.5 13.5t51 2q91 0 112 -26l2 16q0 4 5 4z" />
<glyph unicode="r" horiz-adv-x="421" d="M29 0q-4 0 -4 4l67 476q0 4 5 4h132q2 0 2 -4l-2 -16q62 26 99 26q72 0 100 -19q2 -2 2 -3q0 -9 -45 -99q-1 -3 -6 -3q-16 8 -82 8q-15 0 -36.5 -7t-34.5 -13l-14 -7l-48 -343q-1 -4 -3 -4h-132z" />
<glyph unicode="s" horiz-adv-x="496" d="M207 -8q-54 0 -101.5 6t-66 11t-22.5 7q-3 1 -2 5l40 94q1 2 5 2l10 -1q10 -2 26 -4.5t36 -5t44.5 -4t46.5 -1.5q68 0 73 32l3 20q2 17 -15 26t-69 15q-77 8 -118 36.5t-33 84.5l8 55q18 124 204 124q30 0 58 -2.5t48 -6t35 -6.5t23 -5l9 -3q1 0 1 -2q0 -3 -18 -46 t-20 -47q-2 -3 -4 -3q-3 1 -22 4t-54.5 6.5t-68.5 3.5q-59 0 -63 -28l-3 -22q-2 -15 18.5 -23.5t70.5 -13.5q81 -9 118 -37.5t29 -84.5l-8 -55q-6 -43 -26.5 -70.5t-53.5 -40t-64 -16.5t-74 -4z" />
<glyph unicode="t" horiz-adv-x="348" d="M205 -5q-26 0 -41.5 1t-35 4.5t-30 11t-21.5 21t-15 33t-4 48t5 65.5l29 203h-48q-3 0 -3 4l13 95q1 4 5 4h47l21 152q0 4 4 4h132q2 0 2 -4l-21 -152h90q3 0 3 -4l-13 -95q-1 -4 -5 -4h-89l-29 -204q-1 -24 -1 -37t8 -20t14.5 -8.5t17.5 -1.5q10 0 22 0.5t19.5 1.5 t8.5 1q3 0 3 -3q1 -2 1 -51.5v-50.5q0 -3 -4 -5q-36 -9 -85 -9z" />
<glyph unicode="u" horiz-adv-x="552" d="M513 484q3 0 2 -4l-67 -476q0 -4 -3 -4h-132q-3 0 -3 4l2 10q-82 -22 -120 -22q-15 0 -26 0.5t-25.5 2.5t-25.5 6t-23 11t-20 16.5t-15.5 24.5t-10.5 33t-3 43t4 55l41 296q1 4 4 4h132q4 0 3 -4l-40 -287q-8 -53 4 -68.5t42 -15.5q16 0 39.5 4.5t39.5 9.5l16 5l49 352 q1 4 4 4h132z" />
<glyph unicode="v" horiz-adv-x="509" d="M150 0q-3 0 -3 4l-100 476q-1 4 1 4h139q6 0 6 -4l45 -285h13q120 283 122 285q0 4 5 4h137q3 0 1 -4l-233 -476q-2 -4 -5 -4h-128z" />
<glyph unicode="w" horiz-adv-x="724" d="M108 0q-3 0 -4 4q-1 1 -23.5 236t-22.5 240q0 4 4 4h132q5 0 5 -4l19 -283h8q100 187 101 190q4 4 5 4h92q1 0 4 -4l48 -190h8q93 280 95 283q2 4 6 4h134q2 0 1 -4q-1 -2 -90 -238.5t-89 -237.5q-1 -4 -5 -4h-122q-4 0 -4 4l-52 219h-8q-115 -216 -116 -219q-1 -4 -4 -4 h-122z" />
<glyph unicode="x" horiz-adv-x="510" d="M-16 0q-6 0 -2 4l191 247q-112 227 -113 230q-2 3 3 3h144q3 0 5 -4l50 -115h10q82 113 83 115q3 4 6 4h141q6 0 1 -3l-176 -230q121 -245 122 -247q1 -4 -2 -4h-143q-2 0 -5 4l-60 133h-10q-97 -130 -99 -133q-3 -4 -5 -4h-141z" />
<glyph unicode="y" horiz-adv-x="508" d="M6 -180q-5 0 -3 4q1 3 14 54.5t13 52.5q0 4 5 4h28q46 0 72 54l16 35q-103 453 -104 456q-1 4 2 4h138q4 0 4 -4l51 -273h9q122 270 123 273q1 4 6 4h134q4 0 1 -4l-271 -533q-23 -45 -44 -72t-45.5 -38.5t-43 -14t-52.5 -2.5h-53z" />
<glyph unicode="z" horiz-adv-x="479" d="M15 0q-4 0 -4 4l15 102q0 3 6 7l242 252l1 7h-200q-4 0 -3 4l14 104q1 4 5 4h364q4 0 3 -4l-14 -104q-2 -4 -4 -6l-242 -250l-1 -8h210q2 0 2 -4l-15 -104q0 -4 -3 -4h-376z" />
<glyph unicode="{" horiz-adv-x="355" d="M196 -91q-63 0 -88 30.5t-15 99.5l20 146q6 46 -5 68t-51 22q-4 0 -4 4l14 100q0 4 5 4q40 0 57.5 22.5t24.5 68.5l20 146q10 68 43.5 99t97.5 31h65q3 0 3 -4l-14 -97q0 -4 -4 -4h-30q-41 0 -46 -44l-21 -144q-8 -60 -27 -85.5t-55 -40.5l-1 -3q33 -15 44.5 -40t3.5 -85 l-21 -145q-3 -21 4 -32.5t31 -11.5h29q4 0 4 -4l-14 -97q0 -4 -5 -4h-65z" />
<glyph unicode="|" horiz-adv-x="318" d="M53 -94q-4 0 -4 4l118 836q0 4 4 4h106q4 0 4 -4l-118 -836q0 -4 -4 -4h-106z" />
<glyph unicode="}" horiz-adv-x="355" d="M54 -91h-66q-4 0 -4 4l14 97q0 4 4 4h29q42 0 49 44l20 145q8 60 26.5 85t55.5 40v3q-31 15 -42.5 40.5t-3.5 85.5l20 144q6 44 -35 44h-30q-3 0 -3 4l13 97q2 4 5 4h66q63 0 88 -31t15 -99l-21 -146q-7 -45 5 -68t51 -23q4 0 4 -4l-14 -100q0 -4 -5 -4q-39 0 -57 -22 t-24 -68l-21 -146q-10 -69 -43 -99.5t-96 -30.5z" />
<glyph unicode="~" horiz-adv-x="543" d="M76 288q0 9 9 18q6 6 19 15t39 19.5t50 10.5q38 0 90.5 -29t82.5 -29q29 0 66.5 22.5t38.5 22.5q4 0 3 -6l-10 -67q-2 -12 -8 -18q-7 -7 -20 -16.5t-39 -20.5t-51 -11q-37 0 -89 30t-82 30q-22 0 -46 -11t-40.5 -22t-19.5 -11t-3 5z" />
<glyph unicode="&#xa1;" horiz-adv-x="291" d="M145 680h127q3 0 3 -4l-17 -120q0 -4 -4 -4h-127q-3 0 -3 4l17 120q0 4 4 4zM123 476h115q2 0 2 -4l-66 -468q0 -4 -3 -4h-115q-4 0 -4 4l66 468q1 4 5 4z" />
<glyph unicode="&#xa2;" horiz-adv-x="524" d="M192 -98q-3 0 -3 4l13 90q-12 1 -20 2t-21.5 3t-22.5 5.5t-21 9t-20 13.5t-17 18t-14 24.5t-8 32t-3 40t4 48.5l15 104q7 48 24.5 84.5t37 55.5t47.5 31t46 15.5t41 5.5l13 90q0 4 5 4h76q3 0 3 -4l-13 -89q33 -1 61.5 -7t39 -10.5t14.5 -6.5q2 -1 1 -5l-44 -93 q-1 -2 -6 -2l-5 1q-5 1 -14.5 2.5t-22 2.5t-30.5 2t-37 1q-86 0 -99 -89l-12 -84q-7 -55 12.5 -72.5t61.5 -17.5q19 0 37.5 1t32 2.5t24.5 3.5t17 3l6 1q5 0 5 -3l19 -95q0 -5 -3 -5q-42 -21 -126 -24l-13 -89q0 -4 -5 -4h-76z" />
<glyph unicode="&#xa3;" horiz-adv-x="543" d="M56 0q-4 0 -4 4l37 262h-32q-4 0 -3 4l12 88q1 4 5 4h32l22 160q23 164 239 164q103 0 171 -34q4 -2 2 -5q-1 -2 -21 -55l-21 -52q-1 -3 -5 -3q-63 21 -142 21q-72 0 -80 -57l-20 -139h151q2 0 2 -4l-12 -88q-1 -4 -4 -4h-150l-19 -139h239q3 0 3 -4l-17 -119q0 -4 -4 -4 h-381z" />
<glyph unicode="&#xa4;" horiz-adv-x="477" d="M228 215q15 0 26 2t22 8t18 19.5t10 34.5l4 30q5 38 -10 50t-45 12q-71 0 -79 -62l-4 -30q-5 -38 10 -51t48 -13zM138 65h-89q-4 0 -4 4q9 56 49 95q-31 36 -22 99l9 63q9 62 50 97q-24 28 -24 76q0 21 6 21h88q3 0 3 -4q1 -27 16.5 -36.5t46.5 -9.5q30 0 46.5 10 t22.5 36q1 4 6 4h88q4 0 3 -4q-9 -57 -47 -93q28 -30 20 -97l-8 -63q-10 -69 -50 -101q24 -30 24 -73q0 -24 -6 -24h-87q-4 0 -4 4q-1 27 -16 37t-46 10q-19 0 -30.5 -2.5t-23.5 -13.5t-16 -31q0 -4 -5 -4z" />
<glyph unicode="&#xa5;" horiz-adv-x="570" d="M177 0q-4 0 -4 4l18 126h-117q-3 0 -3 4l10 74q0 4 5 4h117l6 44h-117q-4 0 -4 4l11 74q0 4 4 4h80q-113 336 -114 338q-2 4 2 4h146q4 0 5 -4l82 -256h5q150 253 152 256q3 4 5 4h143q3 0 2 -4l-209 -338h76q4 0 4 -4l-11 -74q0 -4 -4 -4h-113l-6 -44h113q3 0 3 -4 l-10 -74q-1 -4 -5 -4h-114l-18 -126q0 -4 -4 -4h-136z" />
<glyph unicode="&#xa6;" horiz-adv-x="318" d="M52 -94q-4 0 -4 4l51 358q0 4 4 4h107q3 0 3 -4l-51 -358q0 -4 -3 -4h-107zM120 389q-4 0 -4 4l50 353q0 4 4 4h107q3 0 3 -4l-50 -353q0 -4 -3 -4h-107z" />
<glyph unicode="&#xa7;" horiz-adv-x="519" d="M321 291q17 12 21 37l3 18q1 9 -9 13.5t-37 11.5t-50 18q-3 2 -9.5 2.5t-7.5 0.5q-10 -2 -20.5 -11.5t-13.5 -25.5l-3 -19q-4 -26 96 -39q12 -1 30 -6zM22 23q-3 2 -1 5q2 4 22 45.5t22 45.5q1 3 5 3q2 -1 23.5 -5.5t61 -9t74.5 -4.5q68 0 74 32l3 18q3 18 -15.5 26 t-69.5 14q-23 2 -42 6t-42 13t-38 21t-23.5 33t-5.5 47l7 53q6 47 39 72q-25 25 -19 70l8 53q18 125 205 125q46 0 89 -7t59.5 -12.5t21.5 -7.5q3 -1 2 -4l-20 -43q-19 -44 -19 -46t-5 -2l-8 2q-9 1 -22.5 3t-30.5 4t-39 3.5t-42 1.5q-59 0 -63 -28l-2 -19q-2 -16 19 -23.5 t70 -13.5q35 -4 60 -10.5t48 -19.5t33 -36t6 -55l-7 -54q-6 -43 -37 -70q22 -24 17 -69l-7 -55q-6 -43 -27 -71t-55.5 -40t-64.5 -16t-72 -4q-105 0 -192 29z" />
<glyph unicode="&#xa8;" horiz-adv-x="467" d="M125 564q-4 0 -3 4l15 108q0 4 5 4h101q3 0 3 -4l-15 -108q0 -4 -5 -4h-101zM319 564q-4 0 -3 4l15 108q0 4 5 4h100q3 0 3 -4l-15 -108q0 -4 -5 -4h-100z" />
<glyph unicode="&#xa9;" horiz-adv-x="776" d="M443 686q123 0 203.5 -87.5t80.5 -217.5q0 -103 -53.5 -193t-141.5 -142.5t-186 -52.5q-122 0 -202.5 88t-80.5 216q0 77 32 149.5t84 124.5t121.5 83.5t142.5 31.5zM356 64q119 0 210.5 92.5t91.5 216.5q0 102 -64 172t-161 70q-118 0 -209.5 -92t-91.5 -217 q0 -102 64 -172t160 -70zM381 150q-37 0 -63.5 6t-49 22t-31 47.5t-2.5 78.5l10 76q20 149 189 149q73 0 109 -18q1 -1 1 -4l-32 -71q0 -1 -4 -1l-4 1q-5 0 -12.5 1t-17 2t-23 1.5t-26.5 0.5q-66 0 -76 -68l-9 -64q-3 -24 0 -39t13 -21.5t19.5 -8t24.5 -1.5t29 1t24.5 2.5 t18.5 2.5t13 2l4 1q2 0 4 -2q-1 -1 5 -36t6 -36q0 -3 -2 -4q-40 -20 -118 -20z" />
<glyph unicode="&#xaa;" horiz-adv-x="299" d="M131 385q-42 0 -63.5 21t-16.5 54l5 31q6 35 34 54.5t64 19.5l80 -8l4 27q4 27 -9 35.5t-46 8.5q-11 0 -22.5 -1t-21 -2.5t-17 -3l-12.5 -2.5l-4 -1q-2 0 -2 2l-6 43q0 3 1 3q32 16 99 16q25 0 41.5 -2.5t35 -11.5t26 -30t2.5 -54l-27 -192q-2 -2 -4 -2h-59q-3 0 -1 2 l1 13q-20 -20 -82 -20zM158 436q60 0 64 32l6 44q-40 8 -67 8q-19 0 -31.5 -8.5t-14.5 -21.5l-2 -18q-2 -16 9 -26t36 -10z" />
<glyph unicode="&#xab;" horiz-adv-x="598" d="M533 505q2 -2 31 -37t30 -36q3 -1 -1 -5l-178 -163q132 -161 132 -163q4 -2 -1 -5l-80 -72q-4 -2 -5 0l-196 237q-3 3 0 6l263 238q2 2 5 0zM290 505q2 -2 30.5 -37t29.5 -36q3 -1 -1 -5l-177 -163q131 -161 131 -163q3 -2 0 -5q-1 -1 -40.5 -36t-40.5 -36q-2 -2 -5 0 q-1 1 -98 119l-97 118q-3 3 0 6l263 238q2 2 5 0z" />
<glyph unicode="&#xac;" horiz-adv-x="543" d="M361 219h-310q-3 0 -3 4l16 108q0 4 3 4h424q3 0 3 -4l-34 -238q0 -4 -3 -4h-111q-3 0 -3 4z" />
<glyph unicode="&#xad;" horiz-adv-x="389" d="M41 218q-4 0 -4 4l15 107q0 4 5 4h289q3 0 3 -4l-15 -107q0 -4 -4 -4h-289z" />
<glyph unicode="&#xae;" horiz-adv-x="434" d="M273 684q69 0 114.5 -49.5t45.5 -120.5q0 -88 -65 -153t-149 -65q-69 0 -114 49t-45 122q0 88 64.5 152.5t148.5 64.5zM225 338q66 0 116.5 51t50.5 121q0 56 -35.5 94.5t-89.5 38.5q-65 0 -116 -51t-51 -120q0 -57 35.5 -95.5t89.5 -38.5zM204 385h-45q-1 0 -1 2l30 213 h79q69 0 61 -64l-2 -16q-5 -41 -35 -54l22 -79q0 -2 -2 -2h-49q-1 1 -1 2l-18 71h-28l-10 -71zM221 499h29q26 0 29 23l2 12q3 24 -23 24h-29z" />
<glyph unicode="&#xaf;" horiz-adv-x="467" d="M418 577h-287q-3 0 -3 4l13 92q0 4 4 4h287q3 0 3 -4l-13 -92q0 -4 -4 -4z" />
<glyph unicode="&#xb0;" horiz-adv-x="410" d="M229 484q21 0 34 8.5t17 35.5l5 33q3 25 -6.5 33.5t-30.5 8.5q-47 0 -53 -42l-5 -33q-4 -27 6.5 -35.5t32.5 -8.5zM217 396q-57 0 -90 24.5t-24 93.5l9 63q17 115 149 115q25 0 44 -4t38 -15t26.5 -35.5t2.5 -60.5l-9 -63q-5 -37 -19.5 -62t-36.5 -36.5t-43 -15.5t-47 -4 z" />
<glyph unicode="&#xb1;" horiz-adv-x="543" d="M204 183q-3 0 -3 4l21 147h-155q-4 0 -4 4l15 107q0 4 5 4h154l21 147q0 4 5 4h106q3 0 3 -4l-21 -147h156q3 0 2 -4l-15 -107q0 -4 -3 -4h-155l-21 -147q0 -4 -5 -4h-106zM20 0q-4 0 -4 4l15 104q0 4 4 4h424q3 0 3 -4l-15 -104q0 -4 -3 -4h-424z" />
<glyph unicode="&#xb2;" horiz-adv-x="309" d="M266 270h-229q-2 0 -2 2l8 56q0 2 3 5q128 123 156 156q32 37 34 57l4 32q3 25 -12 33t-41 8q-11 0 -24.5 -1.5t-25 -3.5t-21 -4t-15.5 -4l-6 -1q-1 -1 -2 -0.5t-1 1.5q0 2 -2.5 26.5t-2.5 25.5q0 2 2 3q40 20 108 20q18 0 33 -1.5t33 -7.5t29 -15.5t17 -27.5t2 -42 l-7 -45q-5 -34 -43 -79t-120 -126v-5h134q1 0 1 -2l-8 -58q0 -2 -2 -2z" />
<glyph unicode="&#xb3;" horiz-adv-x="312" d="M41 285q0 1 -0.5 1t-0.5 1t10 27l9 25q0 1 3 1l6 -1q6 -1 15.5 -3t21 -4t25.5 -3t26 -1q60 0 66 41l4 29q4 30 -11.5 40.5t-35.5 10.5h-45q-3 0 -3 2l8 54q0 2 3 2h46q18 0 33 11.5t18 31.5l4 29q3 26 -12.5 34t-39.5 8q-19 0 -41.5 -3t-35.5 -6t-15 -4q-3 -2 -3 1 q0 1 -1.5 25t-1.5 27q0 1 1 2t13.5 5.5t38.5 9t54 4.5q24 0 42 -3t37.5 -11.5t28.5 -28.5t4 -50l-6 -39q-3 -19 -12.5 -35.5t-17.5 -23.5l-9 -7l-1 -5q4 -2 10 -6.5t14 -24t4 -44.5l-6 -44q-13 -93 -140 -93q-30 0 -57 4.5t-39 8.5z" />
<glyph unicode="&#xb4;" horiz-adv-x="467" d="M278 553q-6 -4 -7 -4h-96q-4 0 -1 4l93 144q3 4 7 4h117q5 0 2 -4z" />
<glyph unicode="&#xb6;" horiz-adv-x="639" d="M198 -180q-3 0 -3 4l57 406q-32 0 -63.5 7.5t-64.5 26.5t-50 58.5t-9 94.5l11 79q7 53 34.5 91t65 57t72.5 27.5t69 8.5h314q3 0 3 -4l-120 -852q0 -4 -4 -4h-119q-4 0 -3 4l104 740h-66l-104 -740q0 -4 -5 -4h-119z" />
<glyph unicode="&#xb7;" horiz-adv-x="257" d="M57 199q-4 0 -4 4l18 125q0 4 5 4h120q3 0 3 -4l-17 -125q-1 -4 -5 -4h-120z" />
<glyph unicode="&#xb8;" horiz-adv-x="467" d="M199 -161h-118q-4 0 -2 4q1 2 49.5 81.5t49.5 81.5q3 4 7 4h96q4 0 1 -4l-78 -163q-2 -4 -5 -4z" />
<glyph unicode="&#xb9;" horiz-adv-x="301" d="M202 270h-61q-2 0 -2 2l46 330q-78 -52 -79 -53t-2 -0.5t-1 1.5q0 2 -3.5 28.5t-3.5 27.5t4 4l94 67q1 1 4 1h61q3 0 3 -2l-57 -404q0 -2 -3 -2z" />
<glyph unicode="&#xba;" horiz-adv-x="298" d="M171 444q29 0 46 13t22 58l5 42q5 43 -7 56t-40 13t-46 -13.5t-23 -55.5l-5 -42q-5 -45 7 -58t41 -13zM163 387q-28 0 -46.5 3.5t-36.5 15.5t-24 38t0 67l7 49q11 76 47 99.5t95 23.5q27 0 44.5 -3t36 -14.5t25 -37.5t0.5 -67l-7 -50q-6 -42 -19.5 -68.5t-35 -37.5 t-40 -14.5t-46.5 -3.5z" />
<glyph unicode="&#xbb;" horiz-adv-x="591" d="M61 23q-2 2 -31 37t-30 36q-3 1 1 5l177 163q-131 161 -132 163q-2 2 1 5l81 72q2 2 5 0l97 -118q98 -118 99 -119q3 -3 -1 -6l-262 -238q-2 -2 -5 0zM297 23q-2 2 -31 37t-30 36q-3 1 1 5l176 163q-130 161 -131 163q-2 2 1 5l81 72q3 3 4 0q1 -1 50 -60l98 -118l48 -59 q2 -3 -1 -6q-1 -1 -131 -119t-131 -119q-2 -2 -4 0z" />
<glyph unicode="&#xbc;" horiz-adv-x="792" d="M161 -6q-4 0 -2 4q14 29 198.5 341t199.5 343q1 3 5 3h72q5 0 2 -4l-397 -683q-3 -4 -6 -4h-72zM622 0h-57q-3 0 -3 2l9 67h-154q-1 0 -1 2l8 58l3 6q1 1 73.5 134.5t73.5 136.5q2 2 3 2h65v-2l-143 -270l-1 -5h82l10 74q2 2 4 2h57q4 0 2 -2l-10 -74h39q3 0 3 -3l-8 -57 q0 -2 -4 -2h-39l-9 -67q0 -2 -3 -2zM236 272h-61q-2 0 -2 2l46 330q-77 -52 -78 -53t-2 -0.5t-1 1.5q0 2 -4 28.5t-4 27.5t3 4l96 67q0 1 3 1h61q3 0 3 -2l-57 -404q0 -2 -3 -2z" />
<glyph unicode="&#xbd;" horiz-adv-x="826" d="M164 -6q-5 0 -3 4q15 30 198.5 342t198.5 342q2 3 7 3h72q4 0 1 -4l-397 -683q-3 -4 -5 -4h-72zM699 0h-229q-2 0 -2 2l8 56q0 3 2 5q131 125 160 161q27 34 30 52l5 32q4 25 -11.5 33t-41.5 8q-11 0 -24.5 -1.5t-25 -3.5t-21 -4t-15.5 -4l-6 -1q-1 -1 -2 -0.5t-1 1.5 q0 2 -2.5 26.5t-2.5 25.5q0 2 2 3q40 20 107 20q23 0 41.5 -3t38.5 -12t29 -29t5 -50l-6 -45q-5 -36 -65 -117t-80 -88l-19 -5h134q2 0 2 -2l-8 -58q0 -2 -2 -2zM236 272h-61q-2 0 -2 2l46 330q-77 -52 -78 -53t-2 -0.5t-1 1.5q0 2 -4 28.5t-4 27.5t3 4l96 67q0 1 3 1h61 q3 0 3 -2l-57 -404q0 -2 -3 -2z" />
<glyph unicode="&#xbe;" horiz-adv-x="856" d="M225 -6q-7 0 -1 4q15 30 198.5 342t197.5 342q2 3 6 3h72q4 0 1 -4l-396 -683q-3 -4 -6 -4h-72zM88 289q-2 2 -1 3q1 2 10 26t9 25t3 1l6 -1q6 -1 15.5 -3t21 -4t25.5 -3t26 -1q60 0 66 41l4 29q7 51 -46 51h-45q-3 0 -3 2l8 54q0 2 3 2h46q18 0 33 11.5t18 31.5l4 29 q3 26 -12.5 34t-39.5 8q-19 0 -41.5 -3t-36 -6t-14.5 -4q-4 -2 -4 1q0 1 -2 25t-2 26q0 1 2 3q1 1 13.5 5.5t38.5 9t54 4.5q24 0 41.5 -3t37 -11.5t28.5 -28.5t5 -50l-5 -39q-3 -19 -13 -35.5t-19 -23.5l-8 -7l-1 -5q4 -2 9.5 -6.5t13.5 -24t4 -44.5l-6 -44q-4 -30 -18 -50 t-36 -28.5t-41.5 -11.5t-44.5 -3q-30 0 -56.5 4.5t-37.5 8.5zM686 0h-57q-3 0 -3 2l10 67h-154q-2 0 -2 2l8 58l3 6q1 1 73.5 134.5t73.5 136.5q2 2 3 2h65q1 0 1 -2l-144 -270l-1 -5h82l11 74q0 2 3 2h57q3 0 3 -2l-11 -74h39q3 0 3 -3l-8 -57q0 -2 -3 -2h-39l-10 -67 q0 -2 -3 -2z" />
<glyph unicode="&#xbf;" horiz-adv-x="452" d="M197 481h126q4 0 4 -4l-5 -33q-6 -39 -30.5 -77.5t-51 -63t-49 -52t-25.5 -46.5l-4 -32q-7 -57 55 -57q18 0 38.5 2.5t37.5 6t31 7t22 6.5l9 2q5 2 5 -2l11 -103q1 -4 -2 -6q-4 -3 -23 -10t-62 -16t-87 -9q-38 0 -67 5.5t-59.5 21t-43.5 50t-6 86.5l7 48q4 26 28.5 59.5 t52 60.5t52 60.5t27.5 59.5l4 32q1 4 5 4zM226 680h127q4 0 4 -4l-17 -120q0 -4 -5 -4h-127q-3 0 -2 4l16 120q2 4 4 4z" />
<glyph unicode="&#xc0;" horiz-adv-x="603" d="M114 0h-143q-5 0 -3 4l314 672q0 4 4 4h159q4 0 5 -4l120 -672q2 -4 -3 -4h-144q-3 0 -4 4l-16 117h-234q-50 -114 -51 -117q-1 -4 -4 -4zM217 235h170l-37 265h-21zM370 753l-75 144q-3 4 2 4h118q4 0 5 -4q1 -1 26.5 -69.5t27.5 -74.5q1 -4 -2 -4h-96q-4 0 -6 4z" />
<glyph unicode="&#xc1;" horiz-adv-x="603" d="M114 0h-143q-5 0 -3 4l314 672q0 4 4 4h159q4 0 5 -4l120 -672q2 -4 -3 -4h-144q-3 0 -4 4l-16 117h-234q-50 -114 -51 -117q-1 -4 -4 -4zM217 235h170l-37 265h-21zM379 753q-6 -4 -7 -4h-96q-4 0 -1 4l93 144q3 4 7 4h117q5 0 2 -4z" />
<glyph unicode="&#xc2;" horiz-adv-x="603" d="M114 0h-143q-5 0 -3 4l314 672q0 4 4 4h159q4 0 5 -4l120 -672q2 -4 -3 -4h-144q-3 0 -4 4l-16 117h-234q-50 -114 -51 -117q-1 -4 -4 -4zM316 748h-96q-4 0 -2 4q5 8 58 73.5t57 71.5q2 4 7 4h109q5 0 8 -4q2 -3 37 -73t35 -72q4 -4 -1 -4h-96q-5 0 -6 4l-41 70h-3 q-58 -67 -60 -70q-3 -4 -6 -4zM217 235h170l-37 265h-21z" />
<glyph unicode="&#xc3;" horiz-adv-x="603" d="M114 0h-143q-5 0 -3 4l314 672q0 4 4 4h159q4 0 5 -4l120 -672q2 -4 -3 -4h-144q-3 0 -4 4l-16 117h-234q-50 -114 -51 -117q-1 -4 -4 -4zM234 766q-2 0 -2 5l10 69q1 10 8 18q41 35 81 35q29 0 66.5 -19t59.5 -19q24 0 49.5 17.5t27.5 17.5q6 0 4 -6l-10 -68 q-2 -12 -9 -18q-38 -38 -82 -38q-30 0 -66.5 20t-56.5 20q-24 0 -51.5 -17t-28.5 -17zM217 235h170l-37 265h-21z" />
<glyph unicode="&#xc4;" horiz-adv-x="603" d="M114 0h-143q-5 0 -3 4l314 672q0 4 4 4h159q4 0 5 -4l120 -672q2 -4 -3 -4h-144q-3 0 -4 4l-16 117h-234q-50 -114 -51 -117q-1 -4 -4 -4zM217 235h170l-37 265h-21zM229 764q-4 0 -3 4l15 108q0 4 4 4h101q4 0 4 -4l-15 -108q0 -4 -5 -4h-101zM423 764q-4 0 -3 4l15 108 q0 4 4 4h100q4 0 4 -4l-15 -108q0 -4 -5 -4h-100z" />
<glyph unicode="&#xc5;" horiz-adv-x="603" d="M114 0h-143q-5 0 -3 4l314 672q0 4 4 4h159q4 0 5 -4l120 -672q2 -4 -3 -4h-144q-3 0 -4 4l-16 117h-234q-50 -114 -51 -117q-1 -4 -4 -4zM370 728q-47 0 -72 18t-18 75l3 24q11 92 119 92q21 0 35 -2.5t29.5 -11t21.5 -28.5t2 -50l-3 -24q-4 -31 -15.5 -50.5 t-29.5 -28.5t-34 -11.5t-38 -2.5zM217 235h170l-37 265h-21zM378 785q45 0 52 42l2 12q4 24 -6.5 32.5t-32.5 8.5q-45 0 -52 -41l-2 -12q-4 -25 6.5 -33.5t32.5 -8.5z" />
<glyph unicode="&#xc6;" horiz-adv-x="894" d="M122 0h-144q-3 0 -2 4l438 672q1 4 6 4h473q4 0 4 -4l-17 -117q0 -4 -4 -4h-267l-21 -148h221q4 0 4 -4l-17 -118q0 -4 -5 -4h-221l-22 -156h267q4 0 4 -4l-17 -117q0 -4 -4 -4h-412l17 121h-204q-69 -114 -71 -117q-3 -4 -6 -4zM269 235h150l39 277h-21z" />
<glyph unicode="&#xc7;" d="M246 -161h-118q-4 0 -2 4q1 1 18 30t39.5 66t32.5 54q-44 4 -76.5 16t-59.5 38.5t-36.5 76t0.5 120.5l29 200q9 64 31.5 110.5t49.5 72.5t66 40.5t73 19t78 4.5q121 0 177 -28q3 -3 2 -5q-6 -9 -56 -109q-1 -3 -6 -3q-2 1 -19.5 4.5t-50.5 7.5t-64 4q-25 0 -42.5 -3.5 t-39.5 -15.5t-36.5 -40.5t-20.5 -73.5l-24 -174q-11 -81 15 -105.5t85 -24.5q22 0 45 2t41 4.5t32.5 5t23.5 4.5l9 2q3 2 5 -2l24 -109q1 -2 -3 -6q-52 -26 -146 -34l-71 -149q-2 -4 -5 -4z" />
<glyph unicode="&#xc8;" horiz-adv-x="529" d="M27 0l96 680h428q2 0 2 -4l-16 -117q0 -4 -4 -4h-283l-21 -149h236q4 0 3 -4l-16 -117q-1 -4 -5 -4h-236l-21 -156h283q2 0 2 -4l-16 -117q0 -4 -4 -4h-428zM334 753l-76 144q-3 4 3 4h118q3 0 4 -4q1 -1 26.5 -69.5t27.5 -74.5q1 -4 -2 -4h-96q-3 0 -5 4z" />
<glyph unicode="&#xc9;" horiz-adv-x="529" d="M27 0l96 680h428q2 0 2 -4l-16 -117q0 -4 -4 -4h-283l-21 -149h236q4 0 3 -4l-16 -117q-1 -4 -5 -4h-236l-21 -156h283q2 0 2 -4l-16 -117q0 -4 -4 -4h-428zM352 753q-4 -4 -7 -4h-96q-4 0 -1 4l93 144q3 4 8 4h117q4 0 1 -4z" />
<glyph unicode="&#xca;" horiz-adv-x="529" d="M27 0l96 680h428q2 0 2 -4l-16 -117q0 -4 -4 -4h-283l-21 -149h236q4 0 3 -4l-16 -117q-1 -4 -5 -4h-236l-21 -156h283q2 0 2 -4l-16 -117q0 -4 -4 -4h-428zM288 748h-96q-3 0 -1 4q5 8 57.5 73.5t56.5 71.5q2 4 8 4h109q4 0 7 -4q2 -2 37 -72.5t36 -72.5q2 -4 -2 -4h-96 q-5 0 -5 4l-41 70h-3q-58 -67 -60 -70q-3 -4 -7 -4z" />
<glyph unicode="&#xcb;" horiz-adv-x="529" d="M27 0l96 680h428q2 0 2 -4l-16 -117q0 -4 -4 -4h-283l-21 -149h236q4 0 3 -4l-16 -117q-1 -4 -5 -4h-236l-21 -156h283q2 0 2 -4l-16 -117q0 -4 -4 -4h-428zM193 764q-4 0 -3 4l15 108q0 4 5 4h101q3 0 3 -4l-15 -108q0 -4 -5 -4h-101zM387 764q-4 0 -3 4l15 108q0 4 5 4 h100q3 0 3 -4l-15 -108q0 -4 -5 -4h-100z" />
<glyph unicode="&#xcc;" horiz-adv-x="264" d="M31 0q-4 0 -4 4l95 672q0 4 4 4h137q4 0 4 -4l-95 -672q0 -4 -4 -4h-137zM201 753l-75 144q-3 4 2 4h118q4 0 5 -4q1 -1 26.5 -69.5t27.5 -74.5q1 -4 -2 -4h-96q-4 0 -6 4z" />
<glyph unicode="&#xcd;" horiz-adv-x="264" d="M31 0q-4 0 -4 4l95 672q0 4 4 4h137q4 0 4 -4l-95 -672q0 -4 -4 -4h-137zM210 753q-6 -4 -7 -4h-96q-4 0 -1 4l93 144q3 4 7 4h117q5 0 2 -4z" />
<glyph unicode="&#xce;" horiz-adv-x="264" d="M31 0q-4 0 -4 4l95 672q0 4 4 4h137q4 0 4 -4l-95 -672q0 -4 -4 -4h-137zM147 748h-96q-4 0 -2 4q5 8 58 73.5t57 71.5q2 4 7 4h109q5 0 8 -4q2 -3 37 -73t35 -72q4 -4 -1 -4h-96q-5 0 -6 4l-41 70h-3q-58 -67 -60 -70q-3 -4 -6 -4z" />
<glyph unicode="&#xcf;" horiz-adv-x="264" d="M31 0q-4 0 -4 4l95 672q0 4 5 4h137q4 0 3 -4l-94 -672q0 -4 -5 -4h-137zM59 764q-4 0 -3 4l15 108q0 4 5 4h101q3 0 3 -4l-15 -108q0 -4 -5 -4h-101zM253 764q-4 0 -3 4l15 108q0 4 5 4h100q3 0 3 -4l-15 -108q0 -4 -5 -4h-100z" />
<glyph unicode="&#xd0;" horiz-adv-x="613" d="M191 131h95q27 0 43 3.5t35 15.5t31 41t18 75l21 151q3 23 3.5 42t-2.5 32.5t-7 23.5t-11.5 16t-14.5 10t-18 5.5t-19 2t-20 0.5h-95l-22 -150h89q3 0 3 -4l-15 -104q0 -4 -3 -4h-89zM263 0h-236l41 287h-38q-3 0 -3 4l15 104q0 4 3 4h38l40 281h236q20 0 34.5 -0.5 t34.5 -2.5t35 -6t32.5 -10t29.5 -16t25 -23.5t20 -32t12 -41.5t5 -53t-5 -65l-25 -175q-7 -52 -22 -92.5t-32 -67t-42 -45.5t-46 -28.5t-51.5 -14.5t-50.5 -6t-50 -1z" />
<glyph unicode="&#xd1;" horiz-adv-x="640" d="M28 0q-4 0 -4 4l95 672q0 4 5 4h154q4 0 5 -3l155 -425h11l60 424q0 4 4 4h135q5 0 4 -4l-95 -672q0 -4 -5 -4h-156q-5 0 -6 4l-154 424h-12l-60 -424q0 -4 -3 -4h-133zM254 766q-3 0 -3 5l10 69q1 10 8 18q41 35 81 35q29 0 66.5 -19t59.5 -19q24 0 49.5 17.5t27.5 17.5 q5 0 4 -6l-9 -68q-2 -11 -10 -18q-38 -38 -82 -38q-30 0 -66.5 20t-56.5 20q-24 0 -51 -17t-28 -17z" />
<glyph unicode="&#xd2;" horiz-adv-x="593" d="M280 120q58 0 86.5 24t40.5 109l25 176q2 30 3.5 52t-5.5 36.5t-13 23t-20 13t-25.5 5.5t-29.5 1q-27 0 -44 -3.5t-35 -16t-29.5 -40t-17.5 -71.5l-25 -176q-2 -31 -4 -53t5 -36.5t13 -23.5t19.5 -13.5t25.5 -5.5t30 -1zM262 -11q-21 0 -36.5 0.5t-35.5 2.5t-34.5 6.5 t-31.5 11t-29 17t-23.5 24t-18 32.5t-11 42t-4 53t5.5 65l28 199q9 67 31.5 114.5t48.5 73t65 39.5t69.5 17.5t73.5 3.5q20 0 35.5 -0.5t35 -2.5t34.5 -6t32 -10.5t29 -16.5t24 -23t19 -31.5t11.5 -41.5t4.5 -52t-5 -64l-27 -199q-7 -51 -21 -91t-30.5 -66.5t-41 -45.5 t-45.5 -28.5t-51 -15t-50.5 -6.5t-51.5 -1zM366 753l-75 144q-3 4 2 4h118q4 0 5 -4q1 -1 26.5 -71t26.5 -73q1 -4 -1 -4h-96q-4 0 -6 4z" />
<glyph unicode="&#xd3;" horiz-adv-x="593" d="M262 -11q-21 0 -36.5 0.5t-35.5 2.5t-34.5 6.5t-31.5 11t-29 17t-23.5 24t-18 32.5t-11 42t-4 53t5.5 65l28 199q9 67 31.5 114.5t48.5 73t65 39.5t69.5 17.5t73.5 3.5q20 0 35.5 -0.5t35 -2.5t34.5 -6t32 -10.5t29 -16.5t24 -23t19 -31.5t11.5 -41.5t4.5 -52t-5 -64 l-27 -199q-7 -51 -21 -91t-30.5 -66.5t-41 -45.5t-45.5 -28.5t-51 -15t-50.5 -6.5t-51.5 -1zM280 120q58 0 86.5 24t40.5 109l25 176q2 30 3.5 52t-5.5 36.5t-13 23t-20 13t-25.5 5.5t-29.5 1q-27 0 -44 -3.5t-35 -16t-29.5 -40t-17.5 -71.5l-25 -176q-2 -31 -4 -53t5 -36.5 t13 -23.5t19.5 -13.5t25.5 -5.5t30 -1zM375 753q-6 -4 -7 -4h-96q-3 0 -2 4l94 144q3 4 7 4h117q5 0 2 -4z" />
<glyph unicode="&#xd4;" horiz-adv-x="593" d="M280 120q58 0 86.5 24t40.5 109l25 176q2 30 3.5 52t-5.5 36.5t-13 23t-20 13t-25.5 5.5t-29.5 1q-27 0 -44 -3.5t-35 -16t-29.5 -40t-17.5 -71.5l-25 -176q-2 -31 -4 -53t5 -36.5t13 -23.5t19.5 -13.5t25.5 -5.5t30 -1zM262 -11q-21 0 -36.5 0.5t-35.5 2.5t-34.5 6.5 t-31.5 11t-29 17t-23.5 24t-18 32.5t-11 42t-4 53t5.5 65l28 199q9 67 31.5 114.5t48.5 73t65 39.5t69.5 17.5t73.5 3.5q20 0 35.5 -0.5t35 -2.5t34.5 -6t32 -10.5t29 -16.5t24 -23t19 -31.5t11.5 -41.5t4.5 -52t-5 -64l-27 -199q-7 -51 -21 -91t-30.5 -66.5t-41 -45.5 t-45.5 -28.5t-51 -15t-50.5 -6.5t-51.5 -1zM312 748h-96q-4 0 -2 4q5 8 57.5 73.5t56.5 71.5q2 4 8 4h109q4 0 7 -4q2 -2 37 -72.5t36 -72.5q2 -4 -1 -4h-96q-5 0 -6 4l-41 70h-3q-58 -67 -60 -70q-3 -4 -6 -4z" />
<glyph unicode="&#xd5;" horiz-adv-x="593" d="M280 120q58 0 86.5 24t40.5 109l25 176q2 30 3.5 52t-5.5 36.5t-13 23t-20 13t-25.5 5.5t-29.5 1q-27 0 -44 -3.5t-35 -16t-29.5 -40t-17.5 -71.5l-25 -176q-2 -31 -4 -53t5 -36.5t13 -23.5t19.5 -13.5t25.5 -5.5t30 -1zM262 -11q-21 0 -36.5 0.5t-35.5 2.5t-34.5 6.5 t-31.5 11t-29 17t-23.5 24t-18 32.5t-11 42t-4 53t5.5 65l28 199q9 67 31.5 114.5t48.5 73t65 39.5t69.5 17.5t73.5 3.5q20 0 35.5 -0.5t35 -2.5t34.5 -6t32 -10.5t29 -16.5t24 -23t19 -31.5t11.5 -41.5t4.5 -52t-5 -64l-27 -199q-7 -51 -21 -91t-30.5 -66.5t-41 -45.5 t-45.5 -28.5t-51 -15t-50.5 -6.5t-51.5 -1zM230 766q-2 0 -2 5l9 69q1 9 9 18q35 35 81 35q29 0 66.5 -19t59.5 -19q24 0 49.5 17.5t27.5 17.5q4 0 4 -6l-10 -68q-2 -12 -9 -18q-38 -38 -83 -38q-30 0 -66 20t-56 20q-24 0 -51.5 -17t-28.5 -17z" />
<glyph unicode="&#xd6;" horiz-adv-x="593" d="M262 -11q-21 0 -36.5 0.5t-35.5 2.5t-34.5 6.5t-31.5 11t-29 17t-23.5 24t-18 32.5t-11 42t-4 53t5.5 65l28 199q9 67 31.5 114.5t48.5 73t65 39.5t69.5 17.5t73.5 3.5q20 0 35.5 -0.5t35 -2.5t34.5 -6t32 -10.5t29 -16.5t24 -23t19 -31.5t11.5 -41.5t4.5 -52t-5 -64 l-27 -199q-7 -51 -21 -91t-30.5 -66.5t-41 -45.5t-45.5 -28.5t-51 -15t-50.5 -6.5t-51.5 -1zM280 120q58 0 86.5 24t40.5 109l25 176q2 30 3.5 52t-5.5 36.5t-13 23t-20 13t-25.5 5.5t-29.5 1q-27 0 -44 -3.5t-35 -16t-29.5 -40t-17.5 -71.5l-25 -176q-2 -31 -4 -53t5 -36.5 t13 -23.5t19.5 -13.5t25.5 -5.5t30 -1zM225 764q-4 0 -4 4l16 108q0 4 4 4h101q5 0 3 -4l-15 -108q0 -4 -4 -4h-101zM419 764q-4 0 -4 4l16 108q0 4 4 4h100q5 0 3 -4l-15 -108q0 -4 -4 -4h-100z" />
<glyph unicode="&#xd7;" horiz-adv-x="543" d="M114 68q-1 1 -16 19l-30 36t-16 18q-2 3 1 6l139 128q-101 128 -103 130q-3 3 0 5q1 1 22 19t41.5 36t20.5 19q3 3 5 0l104 -129q138 127 140 129t5 0l63 -74q2 -2 -1 -5l-140 -130q103 -126 104 -128q2 -3 -2 -6l-82 -73q-4 -2 -6 0l-104 128q-138 -126 -140 -128 q-3 -2 -5 0z" />
<glyph unicode="&#xd8;" horiz-adv-x="593" d="M16 -40q-5 0 -2 4q0 1 9 14.5t23.5 35.5t24.5 37q-46 61 -27 192l28 199q9 67 31.5 114.5t48.5 73t65 39.5t69.5 17.5t73.5 3.5q69 0 107 -10l23 37q3 4 7 4h112q4 0 1 -4l-58 -89q47 -60 29 -186l-28 -199q-7 -51 -21 -91t-30.5 -66.5t-41 -45.5t-45.5 -28.5t-51 -15 t-50.5 -6.5t-51.5 -1q-64 0 -107 10q-18 -31 -22 -35q-1 -4 -5 -4h-112zM280 120q58 0 86.5 24t40.5 109l25 176q2 30 3.5 52t-5.5 36.5t-13 23t-20 13t-25.5 5.5t-29.5 1q-27 0 -44 -3.5t-35 -16t-29.5 -40t-17.5 -71.5l-25 -176q-2 -31 -4 -53t5 -36.5t13 -23.5 t19.5 -13.5t25.5 -5.5t30 -1z" />
<glyph unicode="&#xd9;" horiz-adv-x="613" d="M251 -10q-131 0 -172 61.5t-21 203.5l59 421q0 4 4 4h137q4 0 4 -4l-58 -411q-14 -69 -1.5 -106.5t68.5 -37.5h41q55 0 74.5 31t31.5 113l58 411q0 4 4 4h137q4 0 4 -4l-59 -421q-9 -67 -24.5 -112t-45 -82t-79 -54t-121.5 -17h-41zM376 753l-76 144q-3 4 3 4h118 q3 0 4 -4q1 -1 26.5 -69.5t27.5 -74.5q1 -4 -2 -4h-96q-3 0 -5 4z" />
<glyph unicode="&#xda;" horiz-adv-x="613" d="M251 -10q-131 0 -172 61.5t-21 203.5l59 421q0 4 4 4h137q4 0 4 -4l-58 -411q-14 -69 -1.5 -106.5t68.5 -37.5h41q55 0 74.5 31t31.5 113l58 411q0 4 4 4h137q4 0 4 -4l-59 -421q-9 -67 -24.5 -112t-45 -82t-79 -54t-121.5 -17h-41zM384 753q-6 -4 -7 -4h-96q-4 0 -1 4 l93 144q3 4 8 4h117q4 0 1 -4z" />
<glyph unicode="&#xdb;" horiz-adv-x="613" d="M251 -10q-131 0 -172 61.5t-21 203.5l59 421q0 4 4 4h137q4 0 4 -4l-58 -411q-14 -69 -1.5 -106.5t68.5 -37.5h41q55 0 74.5 31t31.5 113l58 411q0 4 4 4h137q4 0 4 -4l-59 -421q-9 -67 -24.5 -112t-45 -82t-79 -54t-121.5 -17h-41zM320 748h-96q-3 0 -1 4q5 8 57.5 73.5 t56.5 71.5q2 4 8 4h109q4 0 7 -4q2 -2 37 -72.5t36 -72.5q2 -4 -2 -4h-96q-5 0 -5 4l-42 70h-3q-57 -67 -59 -70q-3 -4 -7 -4z" />
<glyph unicode="&#xdc;" horiz-adv-x="613" d="M251 -10q-131 0 -172 61.5t-21 203.5l59 421q0 4 4 4h137q4 0 4 -4l-58 -411q-14 -69 -1.5 -106.5t68.5 -37.5h41q55 0 74.5 31t31.5 113l58 411q0 4 4 4h137q4 0 4 -4l-59 -421q-9 -67 -24.5 -112t-45 -82t-79 -54t-121.5 -17h-41zM233 764q-4 0 -3 4l15 108q0 4 5 4 h101q3 0 3 -4l-15 -108q0 -4 -5 -4h-101zM427 764q-4 0 -3 4l15 108q0 4 5 4h100q3 0 3 -4l-15 -108q0 -4 -5 -4h-100z" />
<glyph unicode="&#xdd;" horiz-adv-x="556" d="M177 0q-4 0 -4 4l37 259q-141 410 -142 413q-1 4 3 4h146q4 0 5 -4l81 -255h7q148 252 150 255q3 4 5 4h144q5 0 2 -4l-256 -413l-37 -259q0 -4 -4 -4h-137zM355 753q-6 -4 -7 -4h-96q-4 0 -1 4l93 144q3 4 7 4h117q5 0 2 -4z" />
<glyph unicode="&#xde;" horiz-adv-x="592" d="M208 259h105q95 0 105 73l5 37q4 32 -9.5 49.5t-31 21.5t-42.5 4h-106zM167 0h-136q-4 0 -4 4l95 672q0 4 4 4h136q4 0 4 -4l-15 -107h114q31 0 55.5 -2.5t58 -13t53.5 -29.5t32 -55.5t5 -87.5l-8 -61q-25 -187 -257 -187h-115l-18 -129q0 -4 -4 -4z" />
<glyph unicode="&#xdf;" horiz-adv-x="558" d="M158 0h-129q-4 0 -4 4l68 480q9 63 31 104.5t56.5 62t70 28t83.5 7.5q30 0 54.5 -3t51.5 -14t43.5 -29t25 -51t1.5 -78l-7 -47q-5 -33 -17.5 -59.5t-23.5 -36.5l-10 -10l-1 -6q2 -2 6 -5t14 -14.5t17 -25t11 -36t1 -47.5l-6 -48q-6 -46 -23.5 -79.5t-40.5 -53t-56 -30.5 t-63 -14.5t-69 -3.5q-3 0 -3 4l15 109q0 4 5 4q85 0 96 73l5 34q5 38 -19.5 55.5t-56.5 17.5q-4 0 -3 4l15 108q0 4 4 4q62 0 72 64l5 33q10 66 -59 66q-36 0 -58 -17.5t-30 -69.5l-68 -480q0 -4 -4 -4z" />
<glyph unicode="&#xe0;" horiz-adv-x="502" d="M211 91q28 0 44 2t29.5 10.5t15.5 24.5l9 64q-52 14 -94 14q-24 0 -43.5 -11.5t-21.5 -28.5l-3 -25q-3 -22 14 -36t50 -14zM151 -11q-68 0 -104 33.5t-28 91.5l8 54q8 60 57.5 93t111.5 33q24 0 55 -3t50 -7l19 -3l7 46q5 34 -14.5 45.5t-72.5 11.5q-17 0 -36.5 -1.5 t-35 -3t-28.5 -3.5t-20.5 -3.5t-8.5 -1.5q-3 0 -4 3q0 2 -5 44.5t-6 44.5q0 4 4 5q4 2 21.5 8t60.5 12.5t91 6.5q34 0 58 -2t54 -11.5t47 -27t26 -50.5t3 -79l-45 -321q0 -4 -5 -4h-126q-2 0 -2 4l2 12q-29 -27 -134 -27zM292 553l-75 144q-3 4 2 4h118q4 0 5 -4 q1 -1 27 -71t27 -73q1 -4 -2 -4h-96q-4 0 -6 4z" />
<glyph unicode="&#xe1;" horiz-adv-x="502" d="M151 -11q-68 0 -104 33.5t-28 91.5l8 54q8 60 57.5 93t111.5 33q24 0 55 -3t50 -7l19 -3l7 46q5 34 -14.5 45.5t-72.5 11.5q-17 0 -36.5 -1.5t-35 -3t-28.5 -3.5t-20.5 -3.5t-8.5 -1.5q-3 0 -4 3q0 2 -5 44.5t-6 44.5q0 4 4 5q4 2 21.5 8t60.5 12.5t91 6.5q34 0 58 -2 t54 -11.5t47 -27t26 -50.5t3 -79l-45 -321q0 -4 -5 -4h-126q-2 0 -2 4l2 12q-29 -27 -134 -27zM300 553q-6 -4 -7 -4h-96q-4 0 -1 4l93 144q3 4 7 4h117q5 0 2 -4zM211 91q28 0 44 2t29.5 10.5t15.5 24.5l9 64q-52 14 -94 14q-24 0 -43.5 -11.5t-21.5 -28.5l-3 -25 q-3 -22 14 -36t50 -14z" />
<glyph unicode="&#xe2;" horiz-adv-x="502" d="M211 91q28 0 44 2t29.5 10.5t15.5 24.5l9 64q-52 14 -94 14q-24 0 -43.5 -11.5t-21.5 -28.5l-3 -25q-3 -22 14 -36t50 -14zM151 -11q-68 0 -104 33.5t-28 91.5l8 54q8 60 57.5 93t111.5 33q24 0 55 -3t50 -7l19 -3l7 46q5 34 -14.5 45.5t-72.5 11.5q-17 0 -36.5 -1.5 t-35 -3t-28.5 -3.5t-20.5 -3.5t-8.5 -1.5q-3 0 -4 3q0 2 -5 44.5t-6 44.5q0 4 4 5q4 2 21.5 8t60.5 12.5t91 6.5q34 0 58 -2t54 -11.5t47 -27t26 -50.5t3 -79l-45 -321q0 -4 -5 -4h-126q-2 0 -2 4l2 12q-29 -27 -134 -27zM238 548h-96q-3 0 -1 4q5 8 57.5 73.5t56.5 71.5 q2 4 7 4h109q5 0 8 -4q2 -2 37 -72.5t36 -72.5q2 -4 -2 -4h-96q-5 0 -6 4l-41 70h-3q-57 -67 -59 -70q-3 -4 -7 -4z" />
<glyph unicode="&#xe3;" horiz-adv-x="502" d="M211 91q28 0 44 2t29.5 10.5t15.5 24.5l9 64q-52 14 -94 14q-24 0 -43.5 -11.5t-21.5 -28.5l-3 -25q-3 -22 14 -36t50 -14zM151 -11q-68 0 -104 33.5t-28 91.5l8 54q8 60 57.5 93t111.5 33q24 0 55 -3t50 -7l19 -3l7 46q5 34 -14.5 45.5t-72.5 11.5q-17 0 -36.5 -1.5 t-35 -3t-28.5 -3.5t-20.5 -3.5t-8.5 -1.5q-3 0 -4 3q0 2 -5 44.5t-6 44.5q0 4 4 5q4 2 21.5 8t60.5 12.5t91 6.5q34 0 58 -2t54 -11.5t47 -27t26 -50.5t3 -79l-45 -321q0 -4 -5 -4h-126q-2 0 -2 4l2 12q-29 -27 -134 -27zM156 566q-2 0 -2 5l10 69q1 9 9 18q35 35 80 35 q29 0 66.5 -19t59.5 -19q24 0 49.5 17.5t27.5 17.5q6 0 4 -6l-9 -68q-2 -11 -10 -18q-38 -38 -82 -38q-30 0 -66.5 20t-56.5 20q-24 0 -51.5 -17t-28.5 -17z" />
<glyph unicode="&#xe4;" horiz-adv-x="502" d="M151 -11q-68 0 -104 33.5t-28 91.5l8 54q8 60 57.5 93t111.5 33q24 0 55 -3t50 -7l19 -3l7 46q5 34 -14.5 45.5t-72.5 11.5q-17 0 -36.5 -1.5t-35 -3t-28.5 -3.5t-20.5 -3.5t-8.5 -1.5q-3 0 -4 3q0 2 -5 44.5t-6 44.5q0 4 4 5q4 2 21.5 8t60.5 12.5t91 6.5q34 0 58 -2 t54 -11.5t47 -27t26 -50.5t3 -79l-45 -321q0 -4 -5 -4h-126q-2 0 -2 4l2 12q-29 -27 -134 -27zM211 91q28 0 44 2t29.5 10.5t15.5 24.5l9 64q-52 14 -94 14q-24 0 -43.5 -11.5t-21.5 -28.5l-3 -25q-3 -22 14 -36t50 -14zM150 564q-4 0 -3 4l15 108q0 4 5 4h101q3 0 3 -4 l-15 -108q0 -4 -5 -4h-101zM344 564q-4 0 -3 4l15 108q0 4 5 4h100q3 0 3 -4l-15 -108q0 -4 -5 -4h-100z" />
<glyph unicode="&#xe5;" horiz-adv-x="502" d="M211 91q28 0 44 2t29.5 10.5t15.5 24.5l9 64q-52 14 -94 14q-24 0 -43.5 -11.5t-21.5 -28.5l-3 -25q-3 -22 14 -36t50 -14zM151 -11q-68 0 -104 33.5t-28 91.5l8 54q8 60 57.5 93t111.5 33q24 0 55 -3t50 -7l19 -3l7 46q5 34 -14.5 45.5t-72.5 11.5q-17 0 -36.5 -1.5 t-35 -3t-28.5 -3.5t-20.5 -3.5t-8.5 -1.5q-3 0 -4 3q0 2 -5 44.5t-6 44.5q0 4 4 5q4 2 21.5 8t60.5 12.5t91 6.5q34 0 58 -2t54 -11.5t47 -27t26 -50.5t3 -79l-45 -321q0 -4 -5 -4h-126q-2 0 -2 4l2 12q-29 -27 -134 -27zM300 585q45 0 52 42l2 12q4 24 -6 32.5t-32 8.5 q-46 0 -53 -41l-2 -12q-4 -25 6.5 -33.5t32.5 -8.5zM292 528q-22 0 -37 3t-30.5 12t-21.5 28.5t-1 49.5l4 24q9 54 40 73t79 19q21 0 35.5 -2.5t30 -11t21.5 -28.5t1 -50l-4 -24q-5 -31 -16.5 -50.5t-29.5 -28.5t-33.5 -11.5t-37.5 -2.5z" />
<glyph unicode="&#xe6;" horiz-adv-x="792" d="M215 92q84 0 90 42l8 59q-50 14 -93 14q-24 0 -43.5 -11t-21.5 -29l-3 -23q-4 -28 15.5 -40t47.5 -12zM465 285h147q8 51 -7.5 70t-51.5 19q-37 0 -59 -19t-29 -70zM164 -10q-25 0 -47.5 4.5t-47.5 16.5t-37.5 39t-7.5 66l7 53q8 60 56.5 93t113.5 33q24 0 55 -3.5 t50 -7.5l19 -3l6 43q5 34 -15 45t-71 11q-28 0 -59.5 -3.5t-48.5 -7t-19 -4.5q-5 0 -5 4q-1 2 -6.5 44.5t-4.5 44.5q-1 1 -0.5 2.5t2.5 2.5q84 28 173 28q111 0 148 -37q47 37 144 37q29 0 50 -2t51.5 -13.5t48.5 -32t28 -61t2 -97.5l-12 -87h-283q-7 -56 12.5 -73t63.5 -17 q23 0 47.5 1.5t43 4t33.5 4.5t24 4l9 1q4 0 4 -3l14 -91q0 -4 -4 -5q-87 -29 -188 -29q-110 0 -152 44q-35 -27 -80 -38t-117 -11z" />
<glyph unicode="&#xe7;" horiz-adv-x="464" d="M207 -161h-118q-4 0 -2 4q1 1 18.5 30.5t39.5 67t32 53.5q-80 5 -118 46.5t-23 149.5l15 110q7 52 27 89.5t43.5 57t57.5 31t60.5 14t61.5 2.5q99 0 145 -23q3 -3 2 -6l-40 -91q-1 -3 -5 -3q-1 0 -7 0.5t-16.5 1.5t-24 2t-31 1.5t-35.5 0.5q-87 0 -99 -88l-13 -90 q-8 -56 12.5 -73.5t60.5 -17.5q90 0 120 10q5 2 5 -2q0 -3 8 -48.5t8 -46.5q0 -3 -3 -5q-51 -17 -103 -21l-73 -152q-2 -4 -5 -4z" />
<glyph unicode="&#xe8;" horiz-adv-x="501" d="M182 284h146q7 55 -9.5 74t-48.5 19q-75 0 -88 -93zM228 -10q-32 0 -58 3t-58 16t-51.5 34.5t-29.5 62.5t-2 97l12 83q30 208 245 208q30 0 53 -3t52 -15.5t46.5 -33.5t26.5 -61.5t1 -96.5l-12 -87h-283q-8 -56 12.5 -74.5t63.5 -18.5q36 0 74.5 3.5t59.5 6.5t23 4 q5 1 5 -3q11 -66 11 -88q0 -8 -4 -9q-84 -28 -187 -28zM291 553l-75 144q-3 4 2 4h118q4 0 5 -4q1 -1 27 -71t27 -73q1 -4 -2 -4h-96q-4 0 -6 4z" />
<glyph unicode="&#xe9;" horiz-adv-x="501" d="M228 -10q-32 0 -58 3t-58 16t-51.5 34.5t-29.5 62.5t-2 97l12 83q30 208 245 208q30 0 53 -3t52 -15.5t46.5 -33.5t26.5 -61.5t1 -96.5l-12 -87h-283q-8 -56 12.5 -74.5t63.5 -18.5q36 0 74.5 3.5t59.5 6.5t23 4q5 1 5 -3q11 -66 11 -88q0 -8 -4 -9q-84 -28 -187 -28z M300 553q-6 -4 -7 -4h-96q-4 0 -1 4l93 144q3 4 7 4h117q5 0 2 -4zM182 284h146q7 55 -9.5 74t-48.5 19q-75 0 -88 -93z" />
<glyph unicode="&#xea;" horiz-adv-x="501" d="M182 284h146q7 55 -9.5 74t-48.5 19q-75 0 -88 -93zM228 -10q-32 0 -58 3t-58 16t-51.5 34.5t-29.5 62.5t-2 97l12 83q30 208 245 208q30 0 53 -3t52 -15.5t46.5 -33.5t26.5 -61.5t1 -96.5l-12 -87h-283q-8 -56 12.5 -74.5t63.5 -18.5q36 0 74.5 3.5t59.5 6.5t23 4 q5 1 5 -3q11 -66 11 -88q0 -8 -4 -9q-84 -28 -187 -28zM237 548h-96q-4 0 -2 4q5 8 58 73.5t57 71.5q2 4 7 4h109q5 0 8 -4q2 -2 37 -72.5t36 -72.5q2 -4 -2 -4h-96q-5 0 -6 4l-41 70h-3q-58 -67 -60 -70q-3 -4 -6 -4z" />
<glyph unicode="&#xeb;" horiz-adv-x="501" d="M228 -10q-32 0 -58 3t-58 16t-51.5 34.5t-29.5 62.5t-2 97l12 83q30 208 245 208q30 0 53 -3t52 -15.5t46.5 -33.5t26.5 -61.5t1 -96.5l-12 -87h-283q-8 -56 12.5 -74.5t63.5 -18.5q36 0 74.5 3.5t59.5 6.5t23 4q5 1 5 -3q11 -66 11 -88q0 -8 -4 -9q-84 -28 -187 -28z M149 564q-4 0 -3 4l15 108q0 4 4 4h101q4 0 4 -4l-15 -108q0 -4 -5 -4h-101zM343 564q-4 0 -3 4l15 108q0 4 4 4h100q4 0 4 -4l-15 -108q0 -4 -5 -4h-100zM182 284h146q7 55 -9.5 74t-48.5 19q-75 0 -88 -93z" />
<glyph unicode="&#xec;" horiz-adv-x="253" d="M21 0q-4 0 -4 4l67 476q0 4 5 4h131q4 0 3 -4l-67 -476q0 -4 -4 -4h-131zM168 553l-75 144q-3 4 2 4h118q4 0 5 -4q1 -1 26.5 -69.5t27.5 -74.5q1 -4 -2 -4h-96q-4 0 -6 4z" />
<glyph unicode="&#xed;" horiz-adv-x="253" d="M21 0q-4 0 -4 4l67 476q0 4 5 4h131q4 0 3 -4l-67 -476q0 -4 -4 -4h-131zM177 553q-6 -4 -7 -4h-96q-4 0 -1 4l93 144q3 4 7 4h117q5 0 2 -4z" />
<glyph unicode="&#xee;" horiz-adv-x="253" d="M21 0q-4 0 -4 4l67 476q0 4 5 4h131q3 0 3 -4l-67 -476q0 -4 -4 -4h-131zM113 548h-96q-4 0 -2 4q5 8 58 73.5t57 71.5q2 4 7 4h109q5 0 8 -4q2 -3 37 -73t35 -72q4 -4 -1 -4h-96q-5 0 -6 4l-41 70h-3q-58 -67 -60 -70q-3 -4 -6 -4z" />
<glyph unicode="&#xef;" horiz-adv-x="253" d="M21 0q-4 0 -4 4l67 476q0 4 5 4h131q4 0 4 -4l-67 -476q0 -4 -5 -4h-131zM26 564q-4 0 -3 4l15 108q0 4 5 4h101q3 0 3 -4l-15 -108q0 -4 -5 -4h-101zM220 564q-4 0 -3 4l15 108q0 4 5 4h100q3 0 3 -4l-15 -108q0 -4 -5 -4h-100z" />
<glyph unicode="&#xf0;" horiz-adv-x="552" d="M228 111q83 0 89 40l29 206q-52 16 -87 16q-32 0 -50.5 -18t-26.5 -78l-9 -67q-8 -61 6.5 -80t48.5 -19zM180 -6q-20 0 -35.5 1t-32 4.5t-28.5 10.5t-23.5 17.5t-18.5 26t-11 36.5t-4 49.5t5 63.5l11 83q9 67 29.5 110.5t52 62.5t58.5 25t66 6q21 0 49.5 -4t46.5 -8 l18 -5l9 68h-107q-3 0 -3 5l12 87q1 4 5 4h107l5 39q0 4 5 4h131q4 0 3 -4l-5 -39h45q4 0 4 -4l-12 -88q0 -4 -5 -4h-46l-75 -537q-1 -4 -5 -4h-131q-4 0 -3 4l2 17q-30 -27 -119 -27z" />
<glyph unicode="&#xf1;" horiz-adv-x="536" d="M29 0q-4 0 -4 4l67 476q0 4 5 4h132q2 0 2 -4l-2 -13q83 23 121 23q15 0 26 -0.5t25.5 -2.5t25.5 -6t23 -11t20 -16.5t15.5 -24.5t10.5 -33t3 -43t-4 -55l-42 -294q0 -4 -4 -4h-131q-4 0 -4 4l40 285q8 53 -4 68.5t-42 15.5q-16 0 -39.5 -5t-39.5 -10l-16 -5l-49 -349 q0 -4 -3 -4h-132zM173 566q-2 0 -2 5l10 69q1 10 8 18q41 35 81 35q29 0 66.5 -19t59.5 -19q24 0 49.5 17.5t27.5 17.5q5 0 4 -6l-10 -68q-2 -12 -9 -18q-38 -38 -82 -38q-30 0 -66.5 20t-56.5 20q-24 0 -51.5 -17t-28.5 -17z" />
<glyph unicode="&#xf2;" horiz-adv-x="506" d="M235 108q18 0 30 3t25.5 12t22 30t13.5 54l11 74q9 60 -8 78t-56 18q-38 0 -60 -18t-31 -78l-11 -74q-9 -62 8 -80.5t56 -18.5zM219 -8q-49 0 -82 6.5t-64 26.5t-42 64t-1 111l13 88q10 68 34 111.5t61 63t70.5 25.5t81.5 6q17 0 30.5 -0.5t30.5 -2t30 -5t27.5 -9 t24.5 -13.5t20 -19t16 -26t10 -34t3.5 -43t-4.5 -52l-13 -90q-8 -56 -26.5 -96t-40 -61.5t-54.5 -33t-59.5 -14.5t-65.5 -3zM295 553l-76 144q-3 4 3 4h118q4 0 5 -4q1 -1 26.5 -71t26.5 -73q1 -4 -2 -4h-96q-3 0 -5 4z" />
<glyph unicode="&#xf3;" horiz-adv-x="506" d="M219 -8q-49 0 -82 6.5t-64 26.5t-42 64t-1 111l13 88q10 68 34 111.5t61 63t70.5 25.5t81.5 6q17 0 30.5 -0.5t30.5 -2t30 -5t27.5 -9t24.5 -13.5t20 -19t16 -26t10 -34t3.5 -43t-4.5 -52l-13 -90q-8 -56 -26.5 -96t-40 -61.5t-54.5 -33t-59.5 -14.5t-65.5 -3zM235 108 q18 0 30 3t25.5 12t22 30t13.5 54l11 74q9 60 -8 78t-56 18q-38 0 -60 -18t-31 -78l-11 -74q-9 -62 8 -80.5t56 -18.5zM302 553q-4 -4 -7 -4h-96q-4 0 -1 4l93 144q3 4 8 4h117q4 0 1 -4z" />
<glyph unicode="&#xf4;" horiz-adv-x="506" d="M235 108q18 0 30 3t25.5 12t22 30t13.5 54l11 74q9 60 -8 78t-56 18q-38 0 -60 -18t-31 -78l-11 -74q-9 -62 8 -80.5t56 -18.5zM219 -8q-49 0 -82 6.5t-64 26.5t-42 64t-1 111l13 88q10 68 34 111.5t61 63t70.5 25.5t81.5 6q17 0 30.5 -0.5t30.5 -2t30 -5t27.5 -9 t24.5 -13.5t20 -19t16 -26t10 -34t3.5 -43t-4.5 -52l-13 -90q-8 -56 -26.5 -96t-40 -61.5t-54.5 -33t-59.5 -14.5t-65.5 -3zM239 548h-96q-3 0 -1 4q5 8 57.5 73.5t56.5 71.5q2 4 8 4h109q4 0 7 -4q2 -2 37 -72.5t36 -72.5q2 -4 -2 -4h-96q-4 0 -5 4l-41 70h-3 q-58 -67 -60 -70q-3 -4 -7 -4z" />
<glyph unicode="&#xf5;" horiz-adv-x="506" d="M235 108q18 0 30 3t25.5 12t22 30t13.5 54l11 74q9 60 -8 78t-56 18q-38 0 -60 -18t-31 -78l-11 -74q-9 -62 8 -80.5t56 -18.5zM219 -8q-49 0 -82 6.5t-64 26.5t-42 64t-1 111l13 88q10 68 34 111.5t61 63t70.5 25.5t81.5 6q17 0 30.5 -0.5t30.5 -2t30 -5t27.5 -9 t24.5 -13.5t20 -19t16 -26t10 -34t3.5 -43t-4.5 -52l-13 -90q-8 -56 -26.5 -96t-40 -61.5t-54.5 -33t-59.5 -14.5t-65.5 -3zM159 566q-3 0 -3 5l10 69q1 9 9 18q35 35 81 35q29 0 66 -19t59 -19q24 0 49.5 17.5t27.5 17.5q6 0 4 -6l-9 -68q-2 -11 -10 -18q-38 -38 -82 -38 q-30 0 -66 20t-56 20q-24 0 -51.5 -17t-28.5 -17z" />
<glyph unicode="&#xf6;" horiz-adv-x="506" d="M219 -8q-49 0 -82 6.5t-64 26.5t-42 64t-1 111l13 88q10 68 34 111.5t61 63t70.5 25.5t81.5 6q17 0 30.5 -0.5t30.5 -2t30 -5t27.5 -9t24.5 -13.5t20 -19t16 -26t10 -34t3.5 -43t-4.5 -52l-13 -90q-8 -56 -26.5 -96t-40 -61.5t-54.5 -33t-59.5 -14.5t-65.5 -3zM235 108 q18 0 30 3t25.5 12t22 30t13.5 54l11 74q9 60 -8 78t-56 18q-38 0 -60 -18t-31 -78l-11 -74q-9 -62 8 -80.5t56 -18.5zM153 564q-5 0 -4 4l15 108q0 4 5 4h101q3 0 3 -4l-15 -108q0 -4 -4 -4h-101zM347 564q-5 0 -4 4l15 108q0 4 5 4h100q3 0 3 -4l-15 -108q0 -4 -4 -4h-100 z" />
<glyph unicode="&#xf7;" horiz-adv-x="543" d="M51 219q-4 0 -4 4l15 104q0 4 5 4h423q3 0 3 -4l-15 -104q0 -4 -4 -4h-423zM227 397q-4 0 -4 4l18 125q0 4 4 4h120q4 0 4 -4l-18 -125q0 -4 -4 -4h-120zM174 21q-4 0 -4 4l18 125q0 4 5 4h120q3 0 3 -4l-17 -125q0 -4 -5 -4h-120z" />
<glyph unicode="&#xf8;" horiz-adv-x="506" d="M66 -42q-2 0 -2 2q0 1 27 53q-82 43 -61 187l13 88q10 68 34 111.5t61 63t70.5 25.5t81.5 6q19 0 51 -2q4 7 8.5 14.5t6.5 11.5l3 5q3 4 6 4h82q6 0 3 -4l-29 -52q77 -44 57 -181l-13 -90q-8 -56 -26.5 -96t-40 -61.5t-54.5 -33t-59.5 -14.5t-65.5 -3q-17 0 -47 2 q-18 -32 -18 -33q-3 -3 -7 -3h-81zM236 108q18 0 30 3t25.5 12t22 30t13.5 54l10 74q8 60 -8.5 78t-55.5 18q-38 0 -60 -18t-31 -78l-11 -74q-9 -62 8.5 -80.5t56.5 -18.5z" />
<glyph unicode="&#xf9;" horiz-adv-x="536" d="M513 484q3 0 2 -4l-67 -476q0 -4 -3 -4h-132q-3 0 -3 4l2 10q-82 -22 -120 -22q-15 0 -26 0.5t-25.5 2.5t-25.5 6t-23 11t-20 16.5t-15.5 24.5t-10.5 33t-3 43t4 55l41 296q1 4 4 4h132q4 0 3 -4l-40 -287q-8 -53 4 -68.5t42 -15.5q16 0 39.5 4.5t39.5 9.5l16 5l49 352 q1 4 4 4h132zM309 553l-75 144q-3 4 2 4h118q4 0 5 -4q1 -1 26.5 -69.5t27.5 -74.5q1 -4 -2 -4h-96q-4 0 -6 4z" />
<glyph unicode="&#xfa;" horiz-adv-x="536" d="M513 484q3 0 2 -4l-67 -476q0 -4 -3 -4h-132q-3 0 -3 4l2 10q-82 -22 -120 -22q-15 0 -26 0.5t-25.5 2.5t-25.5 6t-23 11t-20 16.5t-15.5 24.5t-10.5 33t-3 43t4 55l41 296q1 4 4 4h132q4 0 3 -4l-40 -287q-8 -53 4 -68.5t42 -15.5q16 0 39.5 4.5t39.5 9.5l16 5l49 352 q1 4 4 4h132zM317 553q-6 -4 -7 -4h-96q-4 0 -1 4l93 144q3 4 7 4h117q5 0 2 -4z" />
<glyph unicode="&#xfb;" horiz-adv-x="536" d="M513 484q3 0 2 -4l-67 -476q0 -4 -3 -4h-132q-3 0 -3 4l2 10q-82 -22 -120 -22q-15 0 -26 0.5t-25.5 2.5t-25.5 6t-23 11t-20 16.5t-15.5 24.5t-10.5 33t-3 43t4 55l41 296q1 4 4 4h132q4 0 3 -4l-40 -287q-8 -53 4 -68.5t42 -15.5q16 0 39.5 4.5t39.5 9.5l16 5l49 352 q1 4 4 4h132zM255 548h-96q-4 0 -2 4q5 8 58 73.5t57 71.5q2 4 7 4h109q5 0 8 -4q2 -3 37 -73t35 -72q4 -4 -1 -4h-96q-5 0 -6 4l-41 70h-3q-58 -67 -60 -70q-3 -4 -6 -4z" />
<glyph unicode="&#xfc;" horiz-adv-x="536" d="M513 484q3 0 2 -4l-67 -476q0 -4 -3 -4h-132q-3 0 -3 4l2 10q-82 -22 -120 -22q-15 0 -26 0.5t-25.5 2.5t-25.5 6t-23 11t-20 16.5t-15.5 24.5t-10.5 33t-3 43t4 55l41 296q1 4 4 4h132q4 0 3 -4l-40 -287q-8 -53 4 -68.5t42 -15.5q16 0 39.5 4.5t39.5 9.5l16 5l49 352 q1 4 4 4h132zM167 564q-4 0 -3 4l15 108q0 4 4 4h101q4 0 4 -4l-15 -108q0 -4 -5 -4h-101zM361 564q-4 0 -3 4l15 108q0 4 4 4h100q4 0 4 -4l-15 -108q0 -4 -5 -4h-100z" />
<glyph unicode="&#xfd;" horiz-adv-x="492" d="M6 -180q-5 0 -3 4q1 3 14 54.5t13 52.5q0 4 5 4h28q46 0 72 54l16 35q-103 453 -104 456q-1 4 2 4h138q4 0 4 -4l51 -273h9q122 270 123 273q1 4 6 4h134q4 0 1 -4l-271 -533q-23 -45 -44 -72t-45.5 -38.5t-43 -14t-52.5 -2.5h-53zM300 553q-6 -4 -7 -4h-96q-4 0 -1 4 l93 144q3 4 8 4h117q4 0 1 -4z" />
<glyph unicode="&#xfe;" horiz-adv-x="539" d="M182 128q53 -17 88 -17q15 0 23.5 2t20 10.5t19.5 29.5t13 54l10 68q2 35 1.5 54.5t-12 29.5t-21 12.5t-24.5 2.5q-83 0 -89 -41zM135 -180h-131q-4 0 -4 4l120 852q0 4 5 4h131q3 0 3 -4l-30 -212l1 1q2 1 4.5 2.5t6 3.5t9 4t12 4.5t15.5 4t19.5 3t23.5 2.5t28 1 q16 0 25 -0.5t25.5 -2t26.5 -5t23.5 -11t21.5 -17.5t16.5 -26t12 -36t3.5 -48t-5 -62l-12 -84q-7 -49 -20.5 -86t-32.5 -58t-36.5 -34.5t-42.5 -18.5t-38.5 -6t-35.5 -1q-13 0 -41 4t-50 8l-22 5l-27 -187q0 -4 -4 -4z" />
<glyph unicode="&#xff;" horiz-adv-x="492" d="M6 -180q-5 0 -3 4q1 3 14 54.5t13 52.5q0 4 5 4h28q46 0 72 54l16 35q-103 453 -104 456q-1 4 2 4h138q4 0 4 -4l51 -273h9q122 270 123 273q1 4 6 4h134q4 0 1 -4l-271 -533q-23 -45 -44 -72t-45.5 -38.5t-43 -14t-52.5 -2.5h-53zM150 564q-4 0 -3 4l15 108q0 4 5 4h101 q3 0 3 -4l-15 -108q0 -4 -5 -4h-101zM344 564q-4 0 -3 4l15 108q0 4 5 4h100q3 0 3 -4l-15 -108q0 -4 -5 -4h-100z" />
<glyph unicode="&#x100;" horiz-adv-x="603" d="M114 0h-143q-5 0 -3 4l314 672q0 4 4 4h159q4 0 5 -4l120 -672q2 -4 -3 -4h-144q-3 0 -4 4l-16 117h-234q-50 -114 -51 -117q-1 -4 -4 -4zM520 772h-287q-3 0 -2 4l13 92q0 4 3 4h287q4 0 4 -4l-13 -92q0 -4 -5 -4zM217 235h170l-37 265h-21z" />
<glyph unicode="&#x101;" horiz-adv-x="502" d="M211 91q28 0 44 2t29.5 10.5t15.5 24.5l9 64q-52 14 -94 14q-24 0 -43.5 -11.5t-21.5 -28.5l-3 -25q-3 -22 14 -36t50 -14zM151 -11q-68 0 -104 33.5t-28 91.5l8 54q8 60 57.5 93t111.5 33q24 0 55 -3t50 -7l19 -3l7 46q5 34 -14.5 45.5t-72.5 11.5q-17 0 -36.5 -1.5 t-35 -3t-28.5 -3.5t-20.5 -3.5t-8.5 -1.5q-3 0 -4 3q0 2 -5 44.5t-6 44.5q0 4 4 5q4 2 21.5 8t60.5 12.5t91 6.5q34 0 58 -2t54 -11.5t47 -27t26 -50.5t3 -79l-45 -321q0 -4 -5 -4h-126q-2 0 -2 4l2 12q-29 -27 -134 -27zM443 577h-287q-3 0 -2 4l13 92q0 4 3 4h287 q4 0 4 -4l-13 -92q0 -4 -5 -4z" />
<glyph unicode="&#x102;" horiz-adv-x="603" d="M114 0h-143q-5 0 -3 4l314 672q0 4 4 4h159q4 0 5 -4l120 -672q2 -4 -3 -4h-144q-3 0 -4 4l-16 117h-234q-50 -114 -51 -117q-1 -4 -4 -4zM375 744q-129 0 -129 110q0 30 9 30h58q8 0 9 -6q7 -29 19.5 -38t44.5 -9q30 0 46 10t29 37q4 6 11 6h59q7 0 6 -7 q-24 -133 -162 -133zM217 235h170l-37 265h-21z" />
<glyph unicode="&#x103;" horiz-adv-x="502" d="M211 91q28 0 44 2t29.5 10.5t15.5 24.5l9 64q-52 14 -94 14q-24 0 -43.5 -11.5t-21.5 -28.5l-3 -25q-3 -22 14 -36t50 -14zM151 -11q-68 0 -104 33.5t-28 91.5l8 54q8 60 57.5 93t111.5 33q24 0 55 -3t50 -7l19 -3l7 46q5 34 -14.5 45.5t-72.5 11.5q-17 0 -36.5 -1.5 t-35 -3t-28.5 -3.5t-20.5 -3.5t-8.5 -1.5q-3 0 -4 3q0 2 -5 44.5t-6 44.5q0 4 4 5q4 2 21.5 8t60.5 12.5t91 6.5q34 0 58 -2t54 -11.5t47 -27t26 -50.5t3 -79l-45 -321q0 -4 -5 -4h-126q-2 0 -2 4l2 12q-29 -27 -134 -27zM297 549q-129 0 -129 110q0 30 9 30h58q8 0 9 -6 q7 -29 19 -38t44 -9q30 0 46.5 10t29.5 37q3 6 11 6h59q7 0 6 -7q-24 -133 -162 -133z" />
<glyph unicode="&#x104;" horiz-adv-x="603" d="M452 -189q-87 0 -87 72q0 68 74 117h-16q-3 0 -4 4l-16 117h-234q-50 -114 -51 -117q-1 -4 -4 -4h-143q-5 0 -3 4l314 672q0 4 4 4h159q4 0 5 -4l120 -672q2 -4 -3 -4h-1q-1 0 -1 -1q-48 -25 -71 -43t-23 -38q0 -13 16 -13q15 0 29 9q4 3 7 -1q9 -13 25 -62q2 -6 -2 -9 q-39 -31 -94 -31zM217 235h170l-37 265h-21z" />
<glyph unicode="&#x105;" horiz-adv-x="502" d="M298 -189q-87 0 -87 72q0 41 20.5 73t53.5 32q-2 0 -2 16l2 12q-29 -27 -134 -27q-68 0 -104 33.5t-28 91.5l8 54q8 60 57.5 93t111.5 33q24 0 55 -3t50 -7l19 -3l7 46q5 34 -14.5 45.5t-72.5 11.5q-17 0 -36.5 -1.5t-35 -3t-28.5 -3.5t-20.5 -3.5t-8.5 -1.5q-3 0 -4 3 q0 2 -5 44.5t-6 44.5q0 4 4 5q4 2 21.5 8t60.5 12.5t91 6.5q34 0 58 -2t54 -11.5t47 -27t26.5 -50.5t2.5 -79l-45 -321l-1 -1v-1l-2 -2q-1 0 -2 -1q-33 -19 -49 -28.5t-30 -24t-14 -28.5q0 -13 16 -13q14 0 28 9q5 3 8 -1q7 -10 24 -62q2 -6 -2 -9q-39 -31 -94 -31zM211 91 q28 0 44 2t29.5 10.5t15.5 24.5l9 64q-52 14 -94 14q-24 0 -43.5 -11.5t-21.5 -28.5l-3 -25q-3 -22 14 -36t50 -14z" />
<glyph unicode="&#x106;" d="M271 -10q-23 0 -42.5 1t-41.5 4.5t-38.5 9.5t-35 15.5t-30 23.5t-23.5 32.5t-15 43t-5.5 55.5t4.5 69l28 200q9 64 31 110.5t49.5 72t66.5 40.5t73 19.5t79 4.5q121 0 177 -28q2 -2 1 -5q-2 -3 -55 -109q-1 -3 -6 -3q-2 1 -19.5 4.5t-50.5 7.5t-64 4q-25 0 -42.5 -3.5 t-39.5 -15.5t-36.5 -40.5t-20.5 -73.5l-24 -174q-11 -81 14.5 -105.5t84.5 -24.5q22 0 45.5 2t41.5 4.5t32.5 5t23.5 4.5l9 2q3 2 5 -2l23 -109q1 -2 -3 -6q-72 -36 -196 -36zM381 748q-4 -4 -7 -4h-96q-4 0 -1 4l93 144q3 4 8 4h117q4 0 1 -4z" />
<glyph unicode="&#x107;" horiz-adv-x="464" d="M230 -8q-22 0 -38.5 1t-36.5 3t-33.5 6.5t-29.5 12t-24.5 18t-18.5 25t-12 33.5t-4.5 44t3.5 55l15 110q7 52 27 89.5t43 57t57 31t60.5 14t61.5 2.5q77 0 146 -23q3 -3 2 -6l-40 -91q-1 -3 -5 -3q-1 0 -7 0.5t-16.5 1.5t-24 2t-31 1.5t-35.5 0.5q-87 0 -99 -88l-13 -90 q-8 -56 12.5 -73.5t60.5 -17.5q90 0 120 10q4 1 4 -2t8.5 -48.5t8.5 -46.5q0 -3 -3 -5q-72 -24 -158 -24zM316 553q-6 -4 -7 -4h-96q-4 0 -1 4l93 144q3 4 8 4h117q4 0 1 -4z" />
<glyph unicode="&#x108;" d="M271 -10q-23 0 -42.5 1t-41.5 4.5t-38.5 9.5t-35 15.5t-30 23.5t-23.5 32.5t-15 43t-5.5 55.5t4.5 69l28 200q9 64 31 110.5t49.5 72t66.5 40.5t73 19.5t79 4.5q121 0 177 -28q2 -2 1 -5q-2 -3 -55 -109q-1 -3 -6 -3q-2 1 -19.5 4.5t-50.5 7.5t-64 4q-25 0 -42.5 -3.5 t-39.5 -15.5t-36.5 -40.5t-20.5 -73.5l-24 -174q-11 -81 14.5 -105.5t84.5 -24.5q22 0 45.5 2t41.5 4.5t32.5 5t23.5 4.5l9 2q3 2 5 -2l23 -109q1 -2 -3 -6q-72 -36 -196 -36zM318 743h-96q-3 0 -1 4q5 8 57.5 73.5t56.5 71.5q2 4 8 4h109q4 0 7 -4q2 -2 37 -72.5t36 -72.5 q4 -4 -2 -4h-96q-5 0 -5 4l-41 70h-3q-58 -67 -60 -70q-3 -4 -7 -4z" />
<glyph unicode="&#x109;" horiz-adv-x="464" d="M230 -8q-22 0 -38.5 1t-36.5 3t-33.5 6.5t-29.5 12t-24.5 18t-18.5 25t-12 33.5t-4.5 44t3.5 55l15 110q7 52 27 89.5t43 57t57 31t60.5 14t61.5 2.5q77 0 146 -23q3 -3 2 -6l-40 -91q-1 -3 -5 -3q-1 0 -7 0.5t-16.5 1.5t-24 2t-31 1.5t-35.5 0.5q-87 0 -99 -88l-13 -90 q-8 -56 12.5 -73.5t60.5 -17.5q90 0 120 10q4 1 4 -2t8.5 -48.5t8.5 -46.5q0 -3 -3 -5q-72 -24 -158 -24zM245 548h-96q-3 0 -1 4q5 8 57.5 73.5t56.5 71.5q2 4 8 4h109q4 0 7 -4q2 -2 37 -72.5t36 -72.5q2 -4 -2 -4h-96q-5 0 -5 4l-42 70h-3q-57 -67 -59 -70q-3 -4 -7 -4z " />
<glyph unicode="&#x10a;" d="M271 -10q-23 0 -42.5 1t-41.5 4.5t-38.5 9.5t-35 15.5t-30 23.5t-23.5 32.5t-15 43t-5.5 55.5t4.5 69l28 200q9 64 31 110.5t49.5 72t66.5 40.5t73 19.5t79 4.5q121 0 177 -28q2 -2 1 -5q-2 -3 -55 -109q-1 -3 -6 -3q-2 1 -19.5 4.5t-50.5 7.5t-64 4q-25 0 -42.5 -3.5 t-39.5 -15.5t-36.5 -40.5t-20.5 -73.5l-24 -174q-11 -81 14.5 -105.5t84.5 -24.5q22 0 45.5 2t41.5 4.5t32.5 5t23.5 4.5l9 2q3 2 5 -2l23 -109q1 -2 -3 -6q-72 -36 -196 -36zM315 752q-4 0 -4 4l16 115q0 4 5 4h125q4 0 3 -4l-16 -115q0 -4 -4 -4h-125z" />
<glyph unicode="&#x10b;" horiz-adv-x="464" d="M230 -8q-22 0 -38.5 1t-36.5 3t-33.5 6.5t-29.5 12t-24.5 18t-18.5 25t-12 33.5t-4.5 44t3.5 55l15 110q7 52 27 89.5t43 57t57 31t60.5 14t61.5 2.5q77 0 146 -23q3 -3 2 -6l-40 -91q-1 -3 -5 -3q-1 0 -7 0.5t-16.5 1.5t-24 2t-31 1.5t-35.5 0.5q-87 0 -99 -88l-13 -90 q-8 -56 12.5 -73.5t60.5 -17.5q90 0 120 10q4 1 4 -2t8.5 -48.5t8.5 -46.5q0 -3 -3 -5q-72 -24 -158 -24zM249 557q-3 0 -3 4l16 115q0 4 5 4h125q3 0 3 -4l-16 -115q0 -4 -5 -4h-125z" />
<glyph unicode="&#x10c;" d="M271 -10q-23 0 -42.5 1t-41.5 4.5t-38.5 9.5t-35 15.5t-30 23.5t-23.5 32.5t-15 43t-5.5 55.5t4.5 69l28 200q9 64 31 110.5t49.5 72t66.5 40.5t73 19.5t79 4.5q121 0 177 -28q2 -2 1 -5q-2 -3 -55 -109q-1 -3 -6 -3q-2 1 -19.5 4.5t-50.5 7.5t-64 4q-25 0 -42.5 -3.5 t-39.5 -15.5t-36.5 -40.5t-20.5 -73.5l-24 -174q-11 -81 14.5 -105.5t84.5 -24.5q22 0 45.5 2t41.5 4.5t32.5 5t23.5 4.5l9 2q3 2 5 -2l23 -109q1 -2 -3 -6q-72 -36 -196 -36zM454 893h101q3 0 2 -4l-128 -145q-4 -4 -8 -4h-90q-5 0 -7 4q-4 7 -44.5 73t-43.5 72q-2 4 2 4 h101q3 0 6 -4l40 -69h3q59 66 61 69q3 4 5 4z" />
<glyph unicode="&#x10d;" horiz-adv-x="464" d="M230 -8q-22 0 -38.5 1t-36.5 3t-33.5 6.5t-29.5 12t-24.5 18t-18.5 25t-12 33.5t-4.5 44t3.5 55l15 110q7 52 27 89.5t43 57t57 31t60.5 14t61.5 2.5q77 0 146 -23q3 -3 2 -6l-40 -91q-1 -3 -5 -3q-1 0 -7 0.5t-16.5 1.5t-24 2t-31 1.5t-35.5 0.5q-87 0 -99 -88l-13 -90 q-8 -56 12.5 -73.5t60.5 -17.5q90 0 120 10q4 1 4 -2t8.5 -48.5t8.5 -46.5q0 -3 -3 -5q-72 -24 -158 -24zM381 698h101q3 0 2 -4l-129 -145q-2 -4 -7 -4h-90q-6 0 -8 4q-4 7 -44 73t-43 72q-2 4 2 4h101q3 0 6 -4l40 -69h3q59 66 61 69q3 4 5 4z" />
<glyph unicode="&#x10e;" horiz-adv-x="597" d="M190 131h94q56 0 85.5 24.5t41.5 109.5l22 152q4 26 3.5 46.5t-3 34.5t-10 23.5t-14.5 15t-19 8.5t-22 3.5t-25 0.5h-94zM266 0h-239l96 680h239q52 0 84.5 -5.5t74 -27t57 -76.5t3.5 -141l-24 -175q-7 -51 -21.5 -91.5t-31 -67t-41.5 -45t-46 -28.5t-51 -15.5t-50 -6.5 t-50 -1zM441 893h101q4 0 1 -4l-128 -145q-4 -4 -8 -4h-90q-5 0 -7 4q-4 7 -44.5 73t-43.5 72q-2 4 3 4h101q2 0 5 -4l40 -69h3q59 66 61 69q3 4 6 4z" />
<glyph unicode="&#x10f;" horiz-adv-x="679" d="M430 0h-131q-4 0 -3 4l2 17q-12 -13 -45 -21.5t-74 -8.5q-16 0 -27.5 0.5t-27 2.5t-26.5 6t-23.5 12t-20.5 18.5t-15.5 26t-10.5 36t-3 47.5t5 60l12 86q8 55 25 95t36.5 60.5t47.5 32t48.5 14t49.5 2.5q16 0 44 -4t49 -8l20 -5l28 203q1 4 6 4h130q3 0 3 -4l-94 -672 q-1 -4 -5 -4zM227 108q83 0 89 43l29 206q-52 17 -87 17q-15 0 -24.5 -2.5t-21 -12t-19 -30t-12.5 -52.5l-10 -70q-1 -24 -2.5 -40.5t4 -27.5t9.5 -17.5t13.5 -9.5t15.5 -3.5t16 -0.5zM569 475q-5 -3 -5 4l28 197q0 4 5 4h104q3 0 3 -4l-17 -124q-1 -4 -5 -7z" />
<glyph unicode="&#x110;" horiz-adv-x="613" d="M191 131h95q27 0 43 3.5t35 15.5t31 41t18 75l21 151q3 23 3.5 42t-2.5 32.5t-7 23.5t-11.5 16t-14.5 10t-18 5.5t-19 2t-20 0.5h-95l-22 -150h89q3 0 3 -4l-15 -104q0 -4 -3 -4h-89zM263 0h-236l41 287h-38q-3 0 -3 4l15 104q0 4 3 4h38l40 281h236q20 0 34.5 -0.5 t34.5 -2.5t35 -6t32.5 -10t29.5 -16t25 -23.5t20 -32t12 -41.5t5 -53t-5 -65l-25 -175q-7 -52 -22 -92.5t-32 -67t-42 -45.5t-46 -28.5t-51.5 -14.5t-50.5 -6t-50 -1z" />
<glyph unicode="&#x111;" horiz-adv-x="552" d="M228 111q83 0 89 40l29 206q-52 16 -87 16q-32 0 -50.5 -18t-26.5 -78l-9 -67q-8 -61 6.5 -80t48.5 -19zM180 -6q-20 0 -35.5 1t-32 4.5t-28.5 10.5t-23.5 17.5t-18.5 26t-11 36.5t-4 49.5t5 63.5l11 83q9 67 29.5 110.5t52 62.5t58.5 25t66 6q21 0 49.5 -4t46.5 -8 l18 -5l9 68h-107q-3 0 -3 5l12 87q1 4 5 4h107l5 39q0 4 5 4h131q4 0 3 -4l-5 -39h45q4 0 4 -4l-12 -88q0 -4 -5 -4h-46l-75 -537q-1 -4 -5 -4h-131q-4 0 -3 4l2 17q-30 -27 -119 -27z" />
<glyph unicode="&#x112;" horiz-adv-x="529" d="M27 0l96 680h428q2 0 2 -4l-16 -117q0 -4 -4 -4h-283l-21 -149h236q4 0 3 -4l-16 -117q-1 -4 -5 -4h-236l-21 -156h283q2 0 2 -4l-16 -117q0 -4 -4 -4h-428zM494 772h-287q-2 0 -2 4l13 92q0 4 4 4h287q3 0 3 -4l-13 -92q0 -4 -5 -4z" />
<glyph unicode="&#x113;" horiz-adv-x="501" d="M182 284h146q7 55 -9.5 74t-48.5 19q-75 0 -88 -93zM228 -10q-32 0 -58 3t-58 16t-51.5 34.5t-29.5 62.5t-2 97l12 83q30 208 245 208q30 0 53 -3t52 -15.5t46.5 -33.5t26.5 -61.5t1 -96.5l-12 -87h-283q-8 -56 12.5 -74.5t63.5 -18.5q36 0 74.5 3.5t59.5 6.5t23 4 q5 1 5 -3q11 -66 11 -88q0 -8 -4 -9q-84 -28 -187 -28zM442 577h-287q-3 0 -3 4l13 92q0 4 4 4h287q4 0 4 -4l-13 -92q0 -4 -5 -4z" />
<glyph unicode="&#x114;" horiz-adv-x="529" d="M27 0l96 680h428q2 0 2 -4l-16 -117q0 -4 -4 -4h-283l-21 -149h236q4 0 3 -4l-16 -117q-1 -4 -5 -4h-236l-21 -156h283q2 0 2 -4l-16 -117q0 -4 -4 -4h-428zM358 744q-130 0 -130 110q0 30 9 30h58q8 0 9 -6q7 -29 19.5 -38t44.5 -9q30 0 46 10t29 37q4 6 11 6h59 q7 0 6 -7q-24 -133 -161 -133z" />
<glyph unicode="&#x115;" horiz-adv-x="501" d="M182 284h146q7 55 -9.5 74t-48.5 19q-75 0 -88 -93zM228 -10q-32 0 -58 3t-58 16t-51.5 34.5t-29.5 62.5t-2 97l12 83q30 208 245 208q30 0 53 -3t52 -15.5t46.5 -33.5t26.5 -61.5t1 -96.5l-12 -87h-283q-8 -56 12.5 -74.5t63.5 -18.5q36 0 74.5 3.5t59.5 6.5t23 4 q5 1 5 -3q11 -66 11 -88q0 -8 -4 -9q-84 -28 -187 -28zM298 549q-129 0 -129 110q0 30 9 30h58q8 0 9 -6q7 -29 19 -38t44 -9q30 0 46.5 10t29.5 37q3 6 11 6h59q7 0 6 -7q-24 -133 -162 -133z" />
<glyph unicode="&#x116;" horiz-adv-x="529" d="M27 0l96 680h428q2 0 2 -4l-16 -117q0 -4 -4 -4h-283l-21 -149h236q4 0 3 -4l-16 -117q-1 -4 -5 -4h-236l-21 -156h283q2 0 2 -4l-16 -117q0 -4 -4 -4h-428zM304 752q-4 0 -4 4l16 115q0 4 5 4h125q4 0 3 -4l-16 -115q0 -4 -4 -4h-125z" />
<glyph unicode="&#x117;" horiz-adv-x="501" d="M228 -10q-32 0 -58 3t-58 16t-51.5 34.5t-29.5 62.5t-2 97l12 83q30 208 245 208q30 0 53 -3t52 -15.5t46.5 -33.5t26.5 -61.5t1 -96.5l-12 -87h-283q-8 -56 12.5 -74.5t63.5 -18.5q36 0 74.5 3.5t59.5 6.5t23 4q5 1 5 -3q11 -66 11 -88q0 -8 -4 -9q-84 -28 -187 -28z M238 557q-3 0 -3 4l16 115q0 4 4 4h125q4 0 4 -4l-16 -115q0 -4 -5 -4h-125zM182 284h146q7 55 -9.5 74t-48.5 19q-75 0 -88 -93z" />
<glyph unicode="&#x118;" horiz-adv-x="529" d="M27 0l96 680h428q2 0 2 -4l-16 -117q0 -4 -4 -4h-283l-21 -149h236q4 0 3 -4l-16 -117q-1 -4 -5 -4h-236l-21 -156h283q2 0 2 -4l-17 -117v-1l-1 -1q0 -2 -2 -2q-1 0 -1 -1q-47 -25 -70 -43t-23 -38q0 -13 16 -13q15 0 28 9q5 3 8 -1q7 -10 24 -62q2 -6 -2 -9 q-39 -31 -94 -31q-87 0 -87 72q0 68 74 117h-301z" />
<glyph unicode="&#x119;" horiz-adv-x="501" d="M182 -192q-87 0 -87 72q0 67 69 115q-161 25 -135 208l12 83q30 208 245 208q30 0 53 -3t52 -15.5t46.5 -33.5t26.5 -61.5t1 -96.5l-12 -87h-283q-8 -56 12.5 -74.5t63.5 -18.5q36 0 74.5 3.5t59.5 6.5t23 4q5 1 5 -3q11 -66 11 -88q0 -8 -4 -9q-55 -18 -127 -25 q-44 -24 -65.5 -41.5t-21.5 -36.5q0 -13 16 -13q14 0 28 9q5 3 8 -1q9 -13 25 -62q2 -5 -3 -9q-39 -31 -93 -31zM182 284h146q7 55 -9.5 74t-48.5 19q-75 0 -88 -93z" />
<glyph unicode="&#x11a;" horiz-adv-x="529" d="M27 0l96 680h428q2 0 2 -4l-16 -117q0 -4 -4 -4h-283l-21 -149h236q4 0 3 -4l-16 -117q-1 -4 -5 -4h-236l-21 -156h283q2 0 2 -4l-16 -117q0 -4 -4 -4h-428zM441 893h101q2 0 1 -4l-128 -145q-4 -4 -8 -4h-90q-5 0 -7 4q-4 7 -44.5 73t-43.5 72q-2 4 3 4h101q2 0 5 -4 l40 -69h3q59 66 61 69q3 4 6 4z" />
<glyph unicode="&#x11b;" horiz-adv-x="501" d="M182 284h146q7 55 -9.5 74t-48.5 19q-75 0 -88 -93zM228 -10q-32 0 -58 3t-58 16t-51.5 34.5t-29.5 62.5t-2 97l12 83q30 208 245 208q30 0 53 -3t52 -15.5t46.5 -33.5t26.5 -61.5t1 -96.5l-12 -87h-283q-8 -56 12.5 -74.5t63.5 -18.5q36 0 74.5 3.5t59.5 6.5t23 4 q5 1 5 -3q11 -66 11 -88q0 -8 -4 -9q-84 -28 -187 -28zM376 698h101q4 0 2 -4l-129 -145q-2 -4 -8 -4h-90q-5 0 -7 4q-4 8 -45.5 76t-42.5 69q0 4 3 4h101q2 0 5 -4l41 -69h3q58 66 60 69q3 4 6 4z" />
<glyph unicode="&#x11c;" horiz-adv-x="593" d="M269 -10q-22 0 -40 1t-40 4t-38 8.5t-35 15t-30.5 23t-24 32t-16 43t-6.5 56t5 70.5l28 201q9 67 34.5 115.5t54.5 73.5t71 38.5t71.5 16.5t70.5 3q56 0 108 -7.5t74 -13.5t26 -8q3 -1 1 -6l-48 -106q-1 -3 -6 -3q-2 1 -27 4.5t-68 7t-78 3.5q-20 0 -34 -1.5t-33 -9 t-32 -20.5t-24.5 -39t-16.5 -62l-25 -177q-2 -30 -3 -51.5t7 -36.5t15 -23.5t21.5 -13t26.5 -6t30 -1.5l119 7l19 134h-89q-3 0 -3 4l16 111q0 4 3 4h210l-52 -369q-167 -22 -242 -22zM326 743h-96q-3 0 -1 4q5 8 57.5 73.5t56.5 71.5q2 4 8 4h109q4 0 7 -4q2 -2 37 -72.5 t36 -72.5q2 -4 -2 -4h-96q-5 0 -5 4l-41 70h-3q-58 -67 -60 -70q-3 -4 -7 -4z" />
<glyph unicode="&#x11d;" horiz-adv-x="519" d="M216 109q15 0 38 4.5t38 8.5l16 4l29 207q3 18 -13 29.5t-64 11.5q-15 0 -26 -3t-23 -12t-20.5 -30.5t-13.5 -54.5l-9 -67q-8 -60 4.5 -79t43.5 -19zM172 -211q-110 0 -176 22q-5 1 -1 5q0 2 21 50l22 48q2 3 5 2q1 0 8 -1t20 -3t29 -4t38.5 -3t45.5 -1q28 0 46.5 4 t36 21.5t21.5 50.5l4 34q-78 -16 -117 -16q-19 0 -33 1t-31.5 4t-28.5 9t-24.5 16t-19 24.5t-12.5 35t-4.5 47.5t4.5 62l12 85q8 55 23.5 94.5t33.5 61.5t45 34t49.5 15t54.5 3q93 0 112 -26l2 16q0 4 4 4h132q3 0 3 -4l-70 -500q-7 -53 -26.5 -90t-42 -56.5t-58 -30 t-61.5 -12.5t-67 -2zM246 548h-96q-3 0 -1 4q5 8 57.5 73.5t56.5 71.5q2 4 8 4h109q4 0 7 -4q2 -2 37 -72.5t36 -72.5q2 -4 -2 -4h-96q-4 0 -5 4l-41 70h-3q-58 -67 -60 -70q-3 -4 -7 -4z" />
<glyph unicode="&#x11e;" horiz-adv-x="593" d="M269 -10q-22 0 -40 1t-40 4t-38 8.5t-35 15t-30.5 23t-24 32t-16 43t-6.5 56t5 70.5l28 201q9 67 34.5 115.5t54.5 73.5t71 38.5t71.5 16.5t70.5 3q56 0 108 -7.5t74 -13.5t26 -8q3 -1 1 -6l-48 -106q-1 -3 -6 -3q-2 1 -27 4.5t-68 7t-78 3.5q-20 0 -34 -1.5t-33 -9 t-32 -20.5t-24.5 -39t-16.5 -62l-25 -177q-2 -30 -3 -51.5t7 -36.5t15 -23.5t21.5 -13t26.5 -6t30 -1.5l119 7l19 134h-89q-3 0 -3 4l16 111q0 4 3 4h210l-52 -369q-167 -22 -242 -22zM378 744q-129 0 -129 110q0 30 9 30h58q8 0 9 -6q7 -29 19.5 -38t44.5 -9q30 0 46 10 t29 37q4 6 11 6h59q7 0 6 -7q-24 -133 -162 -133z" />
<glyph unicode="&#x11f;" horiz-adv-x="519" d="M216 109q15 0 38 4.5t38 8.5l16 4l29 207q3 18 -13 29.5t-64 11.5q-15 0 -26 -3t-23 -12t-20.5 -30.5t-13.5 -54.5l-9 -67q-8 -60 4.5 -79t43.5 -19zM172 -211q-110 0 -176 22q-5 1 -1 5q0 2 21 50l22 48q2 3 5 2q1 0 8 -1t20 -3t29 -4t38.5 -3t45.5 -1q28 0 46.5 4 t36 21.5t21.5 50.5l4 34q-78 -16 -117 -16q-19 0 -33 1t-31.5 4t-28.5 9t-24.5 16t-19 24.5t-12.5 35t-4.5 47.5t4.5 62l12 85q8 55 23.5 94.5t33.5 61.5t45 34t49.5 15t54.5 3q93 0 112 -26l2 16q0 4 4 4h132q3 0 3 -4l-70 -500q-7 -53 -26.5 -90t-42 -56.5t-58 -30 t-61.5 -12.5t-67 -2zM303 549q-130 0 -130 110q0 30 9 30h58q9 0 10 -6q7 -29 19 -38t44 -9q30 0 46.5 10t29.5 37q3 6 10 6h59q7 0 6 -7q-24 -133 -161 -133z" />
<glyph unicode="&#x120;" horiz-adv-x="593" d="M269 -10q-22 0 -40 1t-40 4t-38 8.5t-35 15t-30.5 23t-24 32t-16 43t-6.5 56t5 70.5l28 201q9 67 34.5 115.5t54.5 73.5t71 38.5t71.5 16.5t70.5 3q56 0 108 -7.5t74 -13.5t26 -8q3 -1 1 -6l-48 -106q-1 -3 -6 -3q-2 1 -27 4.5t-68 7t-78 3.5q-20 0 -34 -1.5t-33 -9 t-32 -20.5t-24.5 -39t-16.5 -62l-25 -177q-2 -30 -3 -51.5t7 -36.5t15 -23.5t21.5 -13t26.5 -6t30 -1.5l119 7l19 134h-89q-3 0 -3 4l16 111q0 4 3 4h210l-52 -369q-167 -22 -242 -22zM308 752q-3 0 -3 4l16 115q0 4 5 4h125q3 0 3 -4l-16 -115q0 -4 -5 -4h-125z" />
<glyph unicode="&#x121;" horiz-adv-x="519" d="M172 -211q-110 0 -176 22q-5 1 -1 5q0 2 21 49t21 49q3 3 6 2q1 0 8 -1t20 -3t29 -4t38.5 -3t45.5 -1q28 0 46.5 4t36 21.5t21.5 50.5l4 34q-78 -16 -117 -16q-19 0 -33 1t-31.5 4t-28.5 9t-24.5 16t-19 24.5t-12.5 35t-4.5 47.5t4.5 62l12 85q8 55 23.5 94.5t33.5 61.5 t45 34t49.5 15t54.5 3q93 0 112 -26l2 16q0 4 4 4h132q3 0 3 -4l-70 -500q-7 -53 -26.5 -90t-42 -56.5t-58 -30t-61.5 -12.5t-67 -2zM216 109q15 0 38 4.5t38 8.5l16 4l29 207q3 18 -13 29.5t-64 11.5q-15 0 -26 -3t-23 -12t-20.5 -30.5t-13.5 -54.5l-9 -67q-8 -60 4.5 -79 t43.5 -19zM239 557q-4 0 -4 4l16 115q0 4 5 4h125q4 0 3 -4l-16 -115q0 -4 -4 -4h-125z" />
<glyph unicode="&#x122;" horiz-adv-x="593" d="M269 -10q-22 0 -40 1t-40 4t-38 8.5t-35 15t-30.5 23t-24 32t-16 43t-6.5 56t5 70.5l28 201q9 67 34.5 115.5t54.5 73.5t71 38.5t71.5 16.5t70.5 3q56 0 108 -7.5t74 -13.5t26 -8q3 -1 1 -6l-48 -106q-1 -3 -6 -3q-2 1 -27 4.5t-68 7t-78 3.5q-20 0 -34 -1.5t-33 -9 t-32 -20.5t-24.5 -39t-16.5 -62l-25 -177q-2 -30 -3 -51.5t7 -36.5t15 -23.5t21.5 -13t26.5 -6t30 -1.5l119 7l19 134h-89q-3 0 -3 4l16 111q0 4 3 4h210l-52 -369q-167 -22 -242 -22zM185 -264q-2 -1 -3 0t-1 4l28 197q0 4 4 4h104q4 0 4 -4l-18 -124q0 -3 -5 -7z" />
<glyph unicode="&#x123;" horiz-adv-x="519" d="M172 -211q-110 0 -176 22q-5 1 -1 5q0 2 21 49t21 49q3 3 6 2q1 0 8 -1t20 -3t29 -4t38.5 -3t45.5 -1q28 0 46.5 4t36 21.5t21.5 50.5l4 34q-78 -16 -117 -16q-19 0 -33 1t-31.5 4t-28.5 9t-24.5 16t-19 24.5t-12.5 35t-4.5 47.5t4.5 62l12 85q8 55 23.5 94.5t33.5 61.5 t45 34t49.5 15t54.5 3q93 0 112 -26l2 16q0 4 4 4h132q3 0 3 -4l-70 -500q-7 -53 -26.5 -90t-42 -56.5t-58 -30t-61.5 -12.5t-67 -2zM216 109q15 0 38 4.5t38 8.5l16 4l29 207q3 18 -13 29.5t-64 11.5q-15 0 -26 -3t-23 -12t-20.5 -30.5t-13.5 -54.5l-9 -67q-8 -60 4.5 -79 t43.5 -19zM371 763q2 2 3.5 0.5t0.5 -3.5l-27 -197q-1 -4 -5 -4h-104q-4 0 -3 4l17 124q0 2 5 6q4 3 57.5 36t55.5 34z" />
<glyph unicode="&#x124;" horiz-adv-x="624" d="M31 0q-4 0 -4 4l95 672q0 4 4 4h137q5 0 4 -4l-38 -273h215l38 273q1 4 4 4h137q4 0 4 -4l-95 -672q0 -4 -4 -4h-137q-4 0 -4 4l39 275h-215l-39 -275q0 -4 -4 -4h-137zM326 743h-96q-3 0 -1 4q5 8 57.5 73.5t56.5 71.5q2 4 8 4h109q4 0 7 -4q2 -2 37 -72.5t36 -72.5 q4 -4 -2 -4h-96q-5 0 -5 4l-41 70h-3q-58 -67 -60 -70q-3 -4 -7 -4z" />
<glyph unicode="&#x125;" horiz-adv-x="536" d="M29 0q-4 0 -4 4l95 672q0 4 4 4h132q3 0 3 -4l-30 -209q82 23 121 23q15 0 26 -0.5t25.5 -2.5t25.5 -6t23 -11t20 -16.5t15.5 -24.5t10.5 -33t3 -43t-4 -55l-42 -294q0 -4 -3 -4h-132q-4 0 -4 4l40 285q7 54 -5 69t-41 15q-16 0 -39.5 -5t-39.5 -10l-16 -5l-49 -349 q0 -4 -3 -4h-132zM283 750h-96q-3 0 -1 4q5 8 57.5 73.5t56.5 71.5q2 4 8 4h109q4 0 7 -4q2 -2 37 -72.5t36 -72.5q4 -4 -2 -4h-96q-5 0 -5 4l-41 70h-3q-58 -67 -60 -70q-3 -4 -7 -4z" />
<glyph unicode="&#x128;" horiz-adv-x="264" d="M31 0q-4 0 -4 4l95 672q0 4 5 4h137q4 0 3 -4l-94 -672q0 -4 -5 -4h-137zM65 761q-4 0 -2 5l9 69q1 9 9 18q41 35 81 35q29 0 66 -19t59 -19q24 0 49.5 17.5t27.5 17.5q5 0 5 -6l-10 -68q-2 -12 -9 -18q-38 -38 -83 -38q-30 0 -66 20t-56 20q-24 0 -51.5 -17t-28.5 -17z " />
<glyph unicode="&#x129;" horiz-adv-x="253" d="M21 0q-4 0 -4 4l67 476q0 4 5 4h131q4 0 4 -4l-67 -476q0 -4 -5 -4h-131zM33 566q-3 0 -3 5l10 69q1 10 8 18q41 35 81 35q29 0 66.5 -19t59.5 -19q24 0 49.5 17.5t27.5 17.5q6 0 4 -6l-9 -68q-2 -11 -10 -18q-38 -38 -82 -38q-30 0 -66.5 20t-56.5 20q-24 0 -51 -17 t-28 -17z" />
<glyph unicode="&#x12a;" horiz-adv-x="264" d="M31 0q-4 0 -4 4l95 672q0 4 4 4h137q4 0 4 -4l-95 -672q0 -4 -4 -4h-137zM351 772h-287q-3 0 -2 4l13 92q0 4 3 4h287q4 0 4 -4l-13 -92q0 -4 -5 -4z" />
<glyph unicode="&#x12b;" horiz-adv-x="253" d="M21 0q-4 0 -4 4l67 476q0 4 5 4h131q4 0 3 -4l-67 -476q0 -4 -4 -4h-131zM319 577h-287q-3 0 -3 4l13 92q0 4 4 4h287q4 0 4 -4l-13 -92q0 -4 -5 -4z" />
<glyph unicode="&#x12e;" horiz-adv-x="264" d="M31 0q-3 0 -3 4l94 672q1 4 5 4h137q4 0 3 -4l-94 -670v-2q0 -4 -5 -4h-2q-46 -24 -68.5 -42t-22.5 -38q0 -13 16 -13q15 0 29 9q4 3 7 -1q9 -13 25 -62q2 -5 -3 -9q-39 -31 -93 -31q-87 0 -87 72q0 67 70 115h-8z" />
<glyph unicode="&#x12f;" horiz-adv-x="254" d="M28 0q-3 0 -3 4l67 476q0 4 4 4h132q3 0 3 -4l-67 -476q0 -4 -4 -4q-1 0 -2 -1q-47 -25 -70 -43t-23 -38q0 -13 16 -13q15 0 29 9q4 3 7 -1q9 -13 25 -62q2 -5 -3 -9q-39 -31 -93 -31q-87 0 -87 72q0 68 74 117h-5zM107 564q-5 0 -3 4l15 108q0 4 4 4h133q3 0 3 -4 l-16 -108q0 -4 -3 -4h-133z" />
<glyph unicode="&#x130;" horiz-adv-x="264" d="M31 0q-4 0 -4 4l95 672q0 4 4 4h137q4 0 4 -4l-95 -672q0 -4 -4 -4h-137zM142 752q-3 0 -3 4l16 115q0 4 5 4h125q3 0 3 -4l-16 -115q0 -4 -5 -4h-125z" />
<glyph unicode="&#x131;" horiz-adv-x="253" d="M21 0q-4 0 -4 4l67 476q0 4 5 4h131q4 0 3 -4l-67 -476q0 -4 -4 -4h-131z" />
<glyph unicode="&#x134;" horiz-adv-x="488" d="M162 -10q-89 0 -164 25q-2 1 0 5l48 109q2 5 5 3q2 -1 18.5 -3t47 -4.5t59.5 -2.5q95 0 106 80l67 474q0 4 4 4h137q4 0 4 -4l-68 -485q-8 -55 -28.5 -94t-45 -59.5t-61 -31.5t-63.5 -13.5t-66 -2.5zM372 743h-96q-3 0 -1 4q5 8 57.5 73.5t56.5 71.5q2 4 8 4h109 q4 0 7 -4q2 -2 37 -72.5t36 -72.5q2 -4 -2 -4h-96q-5 0 -5 4l-41 70h-3q-58 -67 -60 -70q-3 -4 -7 -4z" />
<glyph unicode="&#x136;" horiz-adv-x="606" d="M31 0q-4 0 -4 4l95 672q0 4 4 4h137q5 0 4 -4l-38 -273h37q205 269 208 273t5 4h152q4 0 1 -4l-257 -331q175 -338 177 -341q3 -4 -1 -4h-153q-3 0 -6 4l-135 274h-46l-39 -274q0 -4 -4 -4h-137zM181 -264q-5 -2 -5 4l28 197q0 4 5 4h104q3 0 3 -4l-17 -124q-1 -4 -5 -7z " />
<glyph unicode="&#x137;" horiz-adv-x="525" d="M29 0q-4 0 -4 4l95 672q0 4 4 4h132q3 0 3 -4l-52 -368h36q128 170 130 172q4 4 7 4h147q4 0 0 -4l-178 -228q133 -246 134 -248q2 -4 -1 -4h-151q-2 0 -5 4l-100 192h-35l-27 -192q0 -4 -3 -4h-132zM140 -264q-2 -1 -3 0t-1 4l28 197q0 4 4 4h104q4 0 4 -4l-18 -124 q0 -3 -5 -7z" />
<glyph unicode="&#x139;" horiz-adv-x="511" d="M27 0l95 676q0 4 5 4h137q4 0 3 -4l-77 -551h283q2 0 2 -4l-16 -117q0 -4 -4 -4h-428zM332 748q-4 -4 -6 -4h-96q-5 0 -2 4l93 144q3 4 8 4h117q4 0 1 -4z" />
<glyph unicode="&#x13a;" horiz-adv-x="302" d="M190 -6q-26 0 -43.5 1t-36 5.5t-29.5 12t-20.5 21t-13 33t-3.5 47.5t5 64l70 498q0 4 4 4h131q3 0 3 -4l-70 -498q-6 -41 4.5 -54.5t34.5 -13.5q8 0 19.5 1t20 2t9.5 1q4 0 5 -4v-37q0 -68 -5 -70q-27 -9 -85 -9zM235 754q-4 -4 -7 -4h-96q-4 0 -1 4l93 144q3 4 8 4h117 q4 0 1 -4z" />
<glyph unicode="&#x13b;" horiz-adv-x="511" d="M27 0l95 676q0 4 5 4h137q4 0 3 -4l-77 -551h283q2 0 2 -4l-16 -117q0 -4 -4 -4h-428zM155 -264q-5 -2 -5 4l28 197q0 4 5 4h104q3 0 3 -4l-17 -124q-1 -4 -5 -7z" />
<glyph unicode="&#x13c;" horiz-adv-x="302" d="M190 -6q-26 0 -43.5 1t-36 5.5t-29.5 12t-20.5 21t-13 33t-3.5 47.5t5 64l70 498q0 4 4 4h131q3 0 3 -4l-70 -498q-6 -41 4.5 -54.5t34.5 -13.5q8 0 19.5 1t20 2t9.5 1q4 0 5 -4v-37q0 -68 -5 -70q-27 -9 -85 -9zM54 -264q-5 -2 -5 4l28 197q0 4 5 4h104q3 0 3 -4 l-17 -124q-1 -4 -5 -7z" />
<glyph unicode="&#x13d;" horiz-adv-x="511" d="M27 0l95 676q0 4 5 4h137q4 0 3 -4l-77 -551h283q2 0 2 -4l-16 -117q0 -4 -4 -4h-428zM316 545q-2 -1 -3.5 0t-0.5 4l28 197q0 4 4 4h104q4 0 4 -4l-18 -124q0 -3 -5 -7z" />
<glyph unicode="&#x13e;" horiz-adv-x="443" d="M190 -6q-26 0 -43.5 1t-36 5.5t-29.5 12t-20.5 21t-13 33t-3.5 47.5t5 64l70 498q0 4 4 4h131q3 0 3 -4l-70 -498q-6 -41 4.5 -54.5t34.5 -13.5q8 0 19.5 1t20 2t9.5 1q4 0 5 -4v-37q0 -68 -5 -70q-27 -9 -85 -9zM324 475q-5 -3 -5 4l28 197q0 4 5 4h104q3 0 3 -4 l-17 -124q-1 -4 -5 -7z" />
<glyph unicode="&#x141;" horiz-adv-x="530" d="M27 0l34 245q-48 -28 -50 -29q-4 -2 -4 3l17 116q0 4 5 7l50 28l43 307q0 3 4 3h137q4 0 4 -4l-31 -221q139 79 140 79q4 2 3 -2l-16 -116q-2 -6 -5 -7l-140 -79l-29 -205h283q3 0 3 -4l-17 -117q0 -4 -3 -4h-428z" />
<glyph unicode="&#x142;" horiz-adv-x="332" d="M191 -6q-26 0 -43 1t-36 5.5t-30 12t-21 21t-13.5 33t-3.5 47.5t5 64l12 88q-40 -23 -41 -23q-4 -2 -4 3l15 107q0 4 5 7l42 23l41 293q0 4 3 4h131q4 0 4 -4l-30 -213q71 42 73 42h2q0 -1 -1 -3l-15 -107q-2 -6 -3 -7l-73 -42l-23 -168q-6 -42 4.5 -55t34.5 -13 q8 0 20 1t20 2l9 1q4 0 4 -3v-86q0 -22 -5 -22l-6 -1q-5 -1 -13.5 -2.5t-18.5 -2.5t-22.5 -2t-22.5 -1z" />
<glyph unicode="&#x143;" horiz-adv-x="640" d="M28 0q-4 0 -4 4l95 672q0 4 5 4h154q4 0 5 -3l155 -425h11l60 424q0 4 4 4h135q5 0 4 -4l-95 -672q0 -4 -5 -4h-156q-5 0 -6 4l-154 424h-12l-60 -424q0 -4 -3 -4h-133zM396 748q-4 -4 -7 -4h-96q-4 0 -1 4l93 144q3 4 8 4h117q4 0 1 -4z" />
<glyph unicode="&#x144;" horiz-adv-x="536" d="M29 0q-4 0 -4 4l67 476q0 4 5 4h132q2 0 2 -4l-2 -13q83 23 121 23q15 0 26 -0.5t25.5 -2.5t25.5 -6t23 -11t20 -16.5t15.5 -24.5t10.5 -33t3 -43t-4 -55l-42 -294q0 -4 -4 -4h-131q-4 0 -4 4l40 285q8 53 -4 68.5t-42 15.5q-16 0 -39.5 -5t-39.5 -10l-16 -5l-49 -349 q0 -4 -3 -4h-132zM325 553q-6 -4 -7 -4h-96q-4 0 -1 4l93 144q3 4 7 4h117q5 0 2 -4z" />
<glyph unicode="&#x145;" horiz-adv-x="640" d="M28 0q-4 0 -4 4l95 672q0 4 5 4h154q4 0 5 -3l155 -425h11l60 424q0 4 4 4h135q5 0 4 -4l-95 -672q0 -4 -5 -4h-156q-5 0 -6 4l-154 424h-12l-60 -424q0 -4 -3 -4h-133zM208 -264q-5 -2 -5 4l28 197q0 4 5 4h104q3 0 3 -4l-17 -124q-1 -4 -5 -7z" />
<glyph unicode="&#x146;" horiz-adv-x="536" d="M29 0q-4 0 -4 4l67 476q0 4 5 4h132q2 0 2 -4l-2 -13q83 23 121 23q15 0 26 -0.5t25.5 -2.5t25.5 -6t23 -11t20 -16.5t15.5 -24.5t10.5 -33t3 -43t-4 -55l-42 -294q0 -4 -4 -4h-131q-4 0 -4 4l40 285q8 53 -4 68.5t-42 15.5q-16 0 -39.5 -5t-39.5 -10l-16 -5l-49 -349 q0 -4 -3 -4h-132zM154 -264q-5 -2 -5 4l28 197q0 4 5 4h104q3 0 3 -4l-17 -124q-1 -4 -5 -7z" />
<glyph unicode="&#x147;" horiz-adv-x="640" d="M28 0q-4 0 -4 4l95 672q0 4 5 4h154q4 0 5 -3l155 -425h11l60 424q0 4 4 4h135q5 0 4 -4l-95 -672q0 -4 -5 -4h-156q-5 0 -6 4l-154 424h-12l-60 -424q0 -4 -3 -4h-133zM470 893h101q3 0 2 -4l-128 -145q-4 -4 -8 -4h-90q-5 0 -7 4q-4 7 -44.5 73t-43.5 72q-2 4 2 4h101 q3 0 6 -4l40 -69h3q59 66 61 69q3 4 5 4z" />
<glyph unicode="&#x148;" horiz-adv-x="536" d="M29 0q-4 0 -4 4l67 476q0 4 5 4h132q2 0 2 -4l-2 -13q83 23 121 23q15 0 26 -0.5t25.5 -2.5t25.5 -6t23 -11t20 -16.5t15.5 -24.5t10.5 -33t3 -43t-4 -55l-42 -294q0 -4 -4 -4h-131q-4 0 -4 4l40 285q8 53 -4 68.5t-42 15.5q-16 0 -39.5 -5t-39.5 -10l-16 -5l-49 -349 q0 -4 -3 -4h-132zM391 698h101q3 0 2 -4l-129 -145q-2 -4 -8 -4h-90q-5 0 -7 4q-4 7 -44.5 73t-43.5 72q-2 4 3 4h101q2 0 5 -4l41 -69h3q58 66 60 69q3 4 6 4z" />
<glyph unicode="&#x14c;" horiz-adv-x="593" d="M280 120q58 0 86.5 24t40.5 109l25 176q2 30 3.5 52t-5.5 36.5t-13 23t-20 13t-25.5 5.5t-29.5 1q-27 0 -44 -3.5t-35 -16t-29.5 -40t-17.5 -71.5l-25 -176q-2 -31 -4 -53t5 -36.5t13 -23.5t19.5 -13.5t25.5 -5.5t30 -1zM262 -11q-21 0 -36.5 0.5t-35.5 2.5t-34.5 6.5 t-31.5 11t-29 17t-23.5 24t-18 32.5t-11 42t-4 53t5.5 65l28 199q9 67 31.5 114.5t48.5 73t65 39.5t69.5 17.5t73.5 3.5q20 0 35.5 -0.5t35 -2.5t34.5 -6t32 -10.5t29 -16.5t24 -23t19 -31.5t11.5 -41.5t4.5 -52t-5 -64l-27 -199q-7 -51 -21 -91t-30.5 -66.5t-41 -45.5 t-45.5 -28.5t-51 -15t-50.5 -6.5t-51.5 -1zM516 772h-287q-3 0 -3 4l13 92q0 4 4 4h287q3 0 3 -4l-13 -92q0 -4 -4 -4z" />
<glyph unicode="&#x14d;" horiz-adv-x="506" d="M235 108q18 0 30 3t25.5 12t22 30t13.5 54l11 74q9 60 -8 78t-56 18q-38 0 -60 -18t-31 -78l-11 -74q-9 -62 8 -80.5t56 -18.5zM219 -8q-49 0 -82 6.5t-64 26.5t-42 64t-1 111l13 88q10 68 34 111.5t61 63t70.5 25.5t81.5 6q17 0 30.5 -0.5t30.5 -2t30 -5t27.5 -9 t24.5 -13.5t20 -19t16 -26t10 -34t3.5 -43t-4.5 -52l-13 -90q-8 -56 -26.5 -96t-40 -61.5t-54.5 -33t-59.5 -14.5t-65.5 -3zM445 577h-287q-2 0 -2 4l13 92q0 4 3 4h287q4 0 4 -4l-13 -92q0 -4 -5 -4z" />
<glyph unicode="&#x14e;" horiz-adv-x="593" d="M280 120q58 0 86.5 24t40.5 109l25 176q2 30 3.5 52t-5.5 36.5t-13 23t-20 13t-25.5 5.5t-29.5 1q-27 0 -44 -3.5t-35 -16t-29.5 -40t-17.5 -71.5l-25 -176q-2 -31 -4 -53t5 -36.5t13 -23.5t19.5 -13.5t25.5 -5.5t30 -1zM262 -11q-21 0 -36.5 0.5t-35.5 2.5t-34.5 6.5 t-31.5 11t-29 17t-23.5 24t-18 32.5t-11 42t-4 53t5.5 65l28 199q9 67 31.5 114.5t48.5 73t65 39.5t69.5 17.5t73.5 3.5q20 0 35.5 -0.5t35 -2.5t34.5 -6t32 -10.5t29 -16.5t24 -23t19 -31.5t11.5 -41.5t4.5 -52t-5 -64l-27 -199q-7 -51 -21 -91t-30.5 -66.5t-41 -45.5 t-45.5 -28.5t-51 -15t-50.5 -6.5t-51.5 -1zM371 744q-129 0 -129 110q0 30 9 30h58q8 0 9 -6q7 -29 19 -38t44 -9q30 0 46.5 10t29.5 37q3 6 11 6h59q7 0 6 -7q-24 -133 -162 -133z" />
<glyph unicode="&#x14f;" horiz-adv-x="506" d="M235 108q18 0 30 3t25.5 12t22 30t13.5 54l11 74q9 60 -8 78t-56 18q-38 0 -60 -18t-31 -78l-11 -74q-9 -62 8 -80.5t56 -18.5zM219 -8q-49 0 -82 6.5t-64 26.5t-42 64t-1 111l13 88q10 68 34 111.5t61 63t70.5 25.5t81.5 6q17 0 30.5 -0.5t30.5 -2t30 -5t27.5 -9 t24.5 -13.5t20 -19t16 -26t10 -34t3.5 -43t-4.5 -52l-13 -90q-8 -56 -26.5 -96t-40 -61.5t-54.5 -33t-59.5 -14.5t-65.5 -3zM299 549q-129 0 -129 110q0 30 9 30h58q8 0 9 -6q7 -29 19.5 -38t44.5 -9q30 0 46.5 10t29.5 37q3 6 10 6h59q7 0 6 -7q-24 -133 -162 -133z" />
<glyph unicode="&#x150;" horiz-adv-x="593" d="M262 -11q-21 0 -36.5 0.5t-35.5 2.5t-34.5 6.5t-31.5 11t-29 17t-23.5 24t-18 32.5t-11 42t-4 53t5.5 65l28 199q9 67 31.5 114.5t48.5 73t65 39.5t69.5 17.5t73.5 3.5q20 0 35.5 -0.5t35 -2.5t34.5 -6t32 -10.5t29 -16.5t24 -23t19 -31.5t11.5 -41.5t4.5 -52t-5 -64 l-27 -199q-7 -51 -21 -91t-30.5 -66.5t-41 -45.5t-45.5 -28.5t-51 -15t-50.5 -6.5t-51.5 -1zM280 120q58 0 86.5 24t40.5 109l25 176q2 30 3.5 52t-5.5 36.5t-13 23t-20 13t-25.5 5.5t-29.5 1q-27 0 -44 -3.5t-35 -16t-29.5 -40t-17.5 -71.5l-25 -176q-2 -31 -4 -53t5 -36.5 t13 -23.5t19.5 -13.5t25.5 -5.5t30 -1zM315 747q-1 -4 -5 -4h-97q-4 0 -1 4q1 3 47 73t48 71q1 4 6 4h117q5 0 2 -4zM481 747q-4 -4 -7 -4h-96q-3 0 -2 4q2 1 48 71t47 73q3 4 6 4h118q4 0 1 -4z" />
<glyph unicode="&#x151;" horiz-adv-x="506" d="M219 -8q-49 0 -82 6.5t-64 26.5t-42 64t-1 111l13 88q10 68 34 111.5t61 63t70.5 25.5t81.5 6q17 0 30.5 -0.5t30.5 -2t30 -5t27.5 -9t24.5 -13.5t20 -19t16 -26t10 -34t3.5 -43t-4.5 -52l-13 -90q-8 -56 -26.5 -96t-40 -61.5t-54.5 -33t-59.5 -14.5t-65.5 -3zM235 108 q18 0 30 3t25.5 12t22 30t13.5 54l11 74q9 60 -8 78t-56 18q-38 0 -60 -18t-31 -78l-11 -74q-9 -62 8 -80.5t56 -18.5zM250 552q-3 -4 -6 -4h-97q-3 0 0 4q1 2 47 72.5t47 71.5q3 4 7 4h117q4 0 1 -4zM415 552q-4 -4 -7 -4h-96q-4 0 -1 4q1 1 47 71.5t47 72.5q3 4 7 4h118 q3 0 0 -4z" />
<glyph unicode="&#x152;" horiz-adv-x="889" d="M282 125q26 0 42 3.5t35 16.5t31.5 43.5t19.5 79.5l21 147q6 29 3.5 50t-4 36t-10.5 25t-15.5 16t-19 9t-21.5 3.5t-22 0.5q-24 0 -40 -3.5t-35.5 -15.5t-32.5 -42t-19 -77l-21 -151q-4 -28 -4 -50t3 -37t10.5 -25.5t14.5 -16t19 -8.5t21.5 -3.5t23.5 -0.5zM264 -1 q-20 0 -34.5 0.5t-34.5 2.5t-34.5 6.5t-31.5 11t-29 16.5t-24.5 23.5t-19.5 33t-11.5 42.5t-4 53.5t5.5 66.5l25 175q10 67 32 115t48.5 74t65 40.5t69.5 18t74 3.5q54 0 104 -27l4 26h428q4 0 3 -4l-16 -117q0 -4 -5 -4h-283l-20 -148h237q3 0 3 -4l-17 -118q0 -4 -4 -4 h-237l-22 -156h283q4 0 3 -4l-16 -117q0 -4 -5 -4h-428l4 27q-53 -28 -112 -28z" />
<glyph unicode="&#x153;" horiz-adv-x="809" d="M239 111q17 0 28.5 2.5t25.5 12t23 30.5t14 55l10 67q9 59 -9 77.5t-55 18.5q-17 0 -29 -3t-26 -11.5t-23.5 -29.5t-13.5 -53l-9 -66q-9 -62 8 -81t56 -19zM480 284h147q8 54 -8 72t-51 18t-58 -18.5t-30 -71.5zM223 -6q-51 0 -84.5 7t-63 27.5t-40 64t-1.5 110.5l11 81 q7 55 26.5 95t42 61t56 32.5t59.5 14.5t63 3q38 0 77 -11.5t60 -32.5q62 44 155 44q16 0 29.5 -0.5t31 -3t30.5 -7t28.5 -12t25 -18.5t20 -26.5t13.5 -35.5t6 -45.5t-4 -57.5l-12 -87h-284q-4 -52 12.5 -70.5t65.5 -18.5q22 0 46 1.5t42.5 3.5t34 4t24.5 3l9 2q3 0 4 -3 l13 -91q0 -4 -3 -5q-87 -29 -187 -29q-111 0 -156 46q-61 -46 -150 -46z" />
<glyph unicode="&#x154;" horiz-adv-x="595" d="M167 0h-136q-4 0 -4 4l95 676h258q31 0 56 -2.5t58 -14.5t53.5 -32t31.5 -58.5t4 -91.5l-7 -51q-18 -127 -120 -170l78 -256q1 -4 -2 -4h-152q-5 0 -6 4l-62 230h-109l-32 -230q-1 -4 -4 -4zM221 359h106q94 0 105 77l6 41q5 32 -9.5 51t-32 23t-41.5 4h-106zM374 748 q-4 -4 -7 -4h-96q-4 0 -1 4l93 144q3 4 8 4h117q4 0 1 -4z" />
<glyph unicode="&#x155;" horiz-adv-x="406" d="M29 0q-4 0 -4 4l67 476q0 4 5 4h132q2 0 2 -4l-2 -16q62 26 99 26q72 0 100 -19q2 -2 2 -3q0 -9 -45 -99q-1 -3 -6 -3q-16 8 -82 8q-15 0 -36.5 -7t-34.5 -13l-14 -7l-48 -343q-1 -4 -3 -4h-132zM261 553q-6 -4 -7 -4h-96q-4 0 -1 4l93 144q3 4 7 4h117q5 0 2 -4z" />
<glyph unicode="&#x156;" horiz-adv-x="595" d="M167 0h-136q-4 0 -4 4l95 676h258q31 0 56 -2.5t58 -14.5t53.5 -32t31.5 -58.5t4 -91.5l-7 -51q-18 -127 -120 -170l78 -256q1 -4 -2 -4h-152q-5 0 -6 4l-62 230h-109l-32 -230q-1 -4 -4 -4zM221 359h106q94 0 105 77l6 41q5 32 -9.5 51t-32 23t-41.5 4h-106zM180 -264 q-5 -2 -5 4l28 197q0 4 5 4h104q3 0 3 -4l-17 -124q-1 -4 -5 -7z" />
<glyph unicode="&#x157;" horiz-adv-x="406" d="M29 0q-4 0 -4 4l67 476q0 4 5 4h132q2 0 2 -4l-2 -16q62 26 99 26q72 0 100 -19q2 -2 2 -3q0 -9 -45 -99q-1 -3 -6 -3q-16 8 -82 8q-15 0 -36.5 -7t-34.5 -13l-14 -7l-48 -343q-1 -4 -3 -4h-132zM103 -249q-5 -3 -5 4l28 197q0 4 5 4h104q3 0 3 -4l-17 -124q-1 -4 -5 -7z " />
<glyph unicode="&#x158;" horiz-adv-x="595" d="M221 359h106q94 0 105 77l6 41q5 32 -9.5 51t-32 23t-41.5 4h-106zM167 0h-136q-4 0 -4 4l95 676h258q31 0 56 -2.5t58 -14.5t53.5 -32t31.5 -58.5t4 -91.5l-7 -51q-18 -127 -120 -170l78 -256q1 -4 -2 -4h-152q-5 0 -6 4l-62 230h-109l-32 -230q-1 -4 -4 -4zM428 893 h101q5 0 2 -4l-128 -145q-4 -4 -8 -4h-90q-5 0 -7 4q-4 7 -44.5 73t-43.5 72q-2 4 2 4h101q3 0 6 -4l40 -69h3q59 66 61 69q3 4 5 4z" />
<glyph unicode="&#x159;" horiz-adv-x="406" d="M29 0q-4 0 -4 4l67 476q0 4 5 4h132q2 0 2 -4l-2 -16q62 26 99 26q72 0 100 -19q2 -2 2 -3q0 -9 -45 -99q-1 -3 -6 -3q-16 8 -82 8q-15 0 -36.5 -7t-34.5 -13l-14 -7l-48 -343q-1 -4 -3 -4h-132zM326 698h101q4 0 1 -4l-128 -145q-4 -4 -8 -4h-90q-5 0 -7 4 q-4 7 -44.5 73t-43.5 72q-2 4 3 4h101q2 0 5 -4l41 -69h3q58 66 60 69q3 4 6 4z" />
<glyph unicode="&#x15a;" horiz-adv-x="573" d="M250 -10q-145 0 -228 35l-1 1q-3 1 -1 5l49 114q2 3 5 2q84 -28 196 -28q51 0 80 10.5t34 44.5l6 44q4 27 -23.5 42.5t-88.5 22.5q-121 12 -163.5 48t-29.5 124l12 81q23 155 254 155q62 0 115 -8.5t69 -14t23 -8.5q4 -1 2 -6l-48 -107q-1 -3 -5 -3q-3 1 -25 6t-64.5 10 t-82.5 5q-87 0 -94 -51l-5 -40q-4 -29 17 -42.5t88 -21.5q120 -14 165.5 -52t33.5 -125l-11 -80q-7 -53 -35 -87.5t-72 -50t-83 -20.5t-89 -5zM381 748q-6 -4 -7 -4h-96q-3 0 -2 4l94 144q3 4 7 4h117q5 0 2 -4z" />
<glyph unicode="&#x15b;" horiz-adv-x="480" d="M207 -8q-54 0 -101.5 6t-66 11t-22.5 7q-3 1 -2 5l40 94q1 2 5 2l10 -1q10 -2 26 -4.5t36 -5t44.5 -4t46.5 -1.5q68 0 73 32l3 20q2 17 -15 26t-69 15q-77 8 -118 36.5t-33 84.5l8 55q18 124 204 124q30 0 58 -2.5t48 -6t35 -6.5t23 -5l9 -3q1 0 1 -2q0 -3 -18 -46 t-20 -47q-2 -3 -4 -3q-3 1 -22 4t-54.5 6.5t-68.5 3.5q-59 0 -63 -28l-3 -22q-2 -15 18.5 -23.5t70.5 -13.5q81 -9 118 -37.5t29 -84.5l-8 -55q-6 -43 -26.5 -70.5t-53.5 -40t-64 -16.5t-74 -4zM303 553q-6 -4 -7 -4h-96q-3 0 -2 4l94 144q3 4 7 4h117q5 0 2 -4z" />
<glyph unicode="&#x15c;" horiz-adv-x="573" d="M250 -10q-145 0 -228 35l-1 1q-3 1 -1 5l49 114q2 3 5 2q84 -28 196 -28q51 0 80 10.5t34 44.5l6 44q4 27 -23.5 42.5t-88.5 22.5q-121 12 -163.5 48t-29.5 124l12 81q23 155 254 155q62 0 115 -8.5t69 -14t23 -8.5q4 -1 2 -6l-48 -107q-1 -3 -5 -3q-3 1 -25 6t-64.5 10 t-82.5 5q-87 0 -94 -51l-5 -40q-4 -29 17 -42.5t88 -21.5q120 -14 165.5 -52t33.5 -125l-11 -80q-7 -53 -35 -87.5t-72 -50t-83 -20.5t-89 -5zM301 743h-96q-4 0 -2 4q5 8 58 73.5t57 71.5q2 4 7 4h109q4 0 7 -4q2 -3 37.5 -73t35.5 -72q4 -4 -1 -4h-96q-5 0 -6 4l-41 70h-3 q-58 -67 -60 -70q-3 -4 -6 -4z" />
<glyph unicode="&#x15d;" horiz-adv-x="480" d="M207 -8q-54 0 -101.5 6t-66 11t-22.5 7q-3 1 -2 5l40 94q1 2 5 2l10 -1q10 -2 26 -4.5t36 -5t44.5 -4t46.5 -1.5q68 0 73 32l3 20q2 17 -15 26t-69 15q-77 8 -118 36.5t-33 84.5l8 55q18 124 204 124q30 0 58 -2.5t48 -6t35 -6.5t23 -5l9 -3q1 0 1 -2q0 -3 -18 -46 t-20 -47q-2 -3 -4 -3q-3 1 -22 4t-54.5 6.5t-68.5 3.5q-59 0 -63 -28l-3 -22q-2 -15 18.5 -23.5t70.5 -13.5q81 -9 118 -37.5t29 -84.5l-8 -55q-6 -43 -26.5 -70.5t-53.5 -40t-64 -16.5t-74 -4zM231 548h-96q-4 0 -2 4q5 8 58 73.5t57 71.5q2 4 7 4h109q4 0 7 -4 q2 -3 37.5 -73t35.5 -72q4 -4 -1 -4h-96q-5 0 -6 4l-41 70h-3q-58 -67 -60 -70q-3 -4 -6 -4z" />
<glyph unicode="&#x15e;" horiz-adv-x="573" d="M256 -161h-118q-4 0 -2 4q1 1 17.5 29.5t38.5 64.5l33 54q-129 3 -203 34l-1 1q-3 1 -1 5l49 114q2 3 5 2q84 -28 196 -28q51 0 80 10.5t34 44.5l6 44q4 27 -23.5 42.5t-88.5 22.5q-121 12 -163.5 48t-29.5 124l12 81q23 155 254 155q62 0 115 -8.5t69 -14t23 -8.5 q4 -1 2 -6l-48 -107q-1 -3 -5 -3q-3 1 -25 6t-64.5 10t-82.5 5q-87 0 -94 -51l-5 -40q-4 -29 17 -42.5t88 -21.5q120 -14 165.5 -52t33.5 -125l-11 -80q-20 -140 -195 -159l-73 -151q-2 -4 -5 -4z" />
<glyph unicode="&#x15f;" horiz-adv-x="480" d="M203 -161h-118q-4 0 -2 4q0 1 17.5 30t40 66t33.5 54q-45 1 -84.5 7t-54.5 10t-18 6q-3 1 -2 5l40 94q1 2 5 2l10 -1q10 -2 26 -4.5t36 -5t44.5 -4t46.5 -1.5q68 0 73 32l3 20q2 17 -15 26t-69 15q-77 8 -118 36.5t-33 84.5l8 55q18 124 204 124q30 0 58 -2.5t48 -6 t35 -6.5t23 -5l9 -3q1 0 1 -2q0 -3 -18 -46t-20 -47q-2 -3 -4 -3q-3 1 -22 4t-54.5 6.5t-68.5 3.5q-59 0 -63 -28l-3 -22q-2 -15 18.5 -23.5t70.5 -13.5q81 -9 118 -37.5t29 -84.5l-8 -55q-16 -112 -144 -127l-73 -153q-2 -4 -5 -4z" />
<glyph unicode="&#x160;" horiz-adv-x="573" d="M250 -10q-145 0 -228 35l-1 1q-3 1 -1 5l49 114q2 3 5 2q84 -28 196 -28q51 0 80 10.5t34 44.5l6 44q4 27 -23.5 42.5t-88.5 22.5q-121 12 -163.5 48t-29.5 124l12 81q23 155 254 155q62 0 115 -8.5t69 -14t23 -8.5q4 -1 2 -6l-48 -107q-1 -3 -5 -3q-3 1 -25 6t-64.5 10 t-82.5 5q-87 0 -94 -51l-5 -40q-4 -29 17 -42.5t88 -21.5q120 -14 165.5 -52t33.5 -125l-11 -80q-7 -53 -35 -87.5t-72 -50t-83 -20.5t-89 -5zM437 893h101q4 0 1 -4l-128 -145q-4 -4 -8 -4h-90q-5 0 -7 4q-4 7 -44.5 73t-43.5 72q-2 4 3 4h101q2 0 5 -4l40 -69h3 q59 66 61 69q3 4 6 4z" />
<glyph unicode="&#x161;" horiz-adv-x="480" d="M207 -8q-54 0 -101.5 6t-66 11t-22.5 7q-3 1 -2 5l40 94q1 2 5 2l10 -1q10 -2 26 -4.5t36 -5t44.5 -4t46.5 -1.5q68 0 73 32l3 20q2 17 -15 26t-69 15q-77 8 -118 36.5t-33 84.5l8 55q18 124 204 124q30 0 58 -2.5t48 -6t35 -6.5t23 -5l9 -3q1 0 1 -2q0 -3 -18 -46 t-20 -47q-2 -3 -4 -3q-3 1 -22 4t-54.5 6.5t-68.5 3.5q-59 0 -63 -28l-3 -22q-2 -15 18.5 -23.5t70.5 -13.5q81 -9 118 -37.5t29 -84.5l-8 -55q-6 -43 -26.5 -70.5t-53.5 -40t-64 -16.5t-74 -4zM363 698h101q4 0 1 -4l-128 -145q-4 -4 -8 -4h-90q-5 0 -7 4q-4 7 -44.5 73 t-43.5 72q-2 4 3 4h101q2 0 5 -4l40 -69h3q59 66 61 69q3 4 6 4z" />
<glyph unicode="&#x164;" horiz-adv-x="530" d="M164 0q-3 0 -3 4l77 548h-175q-4 0 -4 4l17 120q0 4 5 4h496q3 0 2 -4l-17 -120q0 -4 -3 -4h-176l-77 -548q0 -4 -5 -4h-137zM416 893h101q4 0 1 -4l-128 -145q-4 -4 -8 -4h-90q-5 0 -7 4q-4 7 -44.5 73t-43.5 72q-2 4 3 4h101q2 0 5 -4l41 -69h3q58 66 60 69q3 4 6 4z " />
<glyph unicode="&#x165;" horiz-adv-x="462" d="M205 -5q-26 0 -41.5 1t-35 4.5t-30 11t-21.5 21t-15 33t-4 48t5 65.5l29 203h-48q-3 0 -3 4l13 95q1 4 5 4h47l21 152q0 4 4 4h132q2 0 2 -4l-21 -152h90q3 0 3 -4l-13 -95q-1 -4 -5 -4h-89l-29 -204q-1 -24 -1 -37t8 -20t14.5 -8.5t17.5 -1.5q10 0 22 0.5t19.5 1.5 t8.5 1q3 0 3 -3q1 -2 1 -51.5v-50.5q0 -3 -4 -5q-36 -9 -85 -9zM370 475q-2 -1 -4 0t-1 4l28 197q0 4 4 4h104q4 0 4 -4l-18 -124q0 -4 -5 -7z" />
<glyph unicode="&#x168;" horiz-adv-x="613" d="M251 -10q-131 0 -172 61.5t-21 203.5l59 421q0 4 4 4h137q4 0 4 -4l-58 -411q-14 -69 -1.5 -106.5t68.5 -37.5h41q55 0 74.5 31t31.5 113l58 411q0 4 4 4h137q4 0 4 -4l-59 -421q-9 -67 -24.5 -112t-45 -82t-79 -54t-121.5 -17h-41zM239 761q-3 0 -3 5l10 69q1 9 9 18 q41 35 81 35q29 0 66 -19t59 -19q24 0 49.5 17.5t27.5 17.5q6 0 4 -6l-9 -68q-2 -11 -10 -18q-38 -38 -82 -38q-30 0 -66 20t-56 20q-24 0 -51.5 -17t-28.5 -17z" />
<glyph unicode="&#x169;" horiz-adv-x="536" d="M513 484q3 0 2 -4l-67 -476q0 -4 -3 -4h-132q-3 0 -3 4l2 10q-82 -22 -120 -22q-15 0 -26 0.5t-25.5 2.5t-25.5 6t-23 11t-20 16.5t-15.5 24.5t-10.5 33t-3 43t4 55l41 296q1 4 4 4h132q4 0 3 -4l-40 -287q-8 -53 4 -68.5t42 -15.5q16 0 39.5 4.5t39.5 9.5l16 5l49 352 q1 4 4 4h132zM173 566q-2 0 -2 5l10 69q1 10 8 18q41 35 81 35q29 0 66.5 -19t59.5 -19q24 0 49.5 17.5t27.5 17.5q5 0 4 -6l-10 -68q-2 -12 -9 -18q-38 -38 -82 -38q-30 0 -66.5 20t-56.5 20q-24 0 -51.5 -17t-28.5 -17z" />
<glyph unicode="&#x16a;" horiz-adv-x="613" d="M251 -10q-131 0 -172 61.5t-21 203.5l59 421q0 4 4 4h137q4 0 4 -4l-58 -411q-14 -69 -1.5 -106.5t68.5 -37.5h41q55 0 74.5 31t31.5 113l58 411q0 4 4 4h137q4 0 4 -4l-59 -421q-9 -67 -24.5 -112t-45 -82t-79 -54t-121.5 -17h-41zM525 772h-287q-2 0 -2 4l13 92 q0 4 3 4h287q4 0 4 -4l-13 -92q0 -4 -5 -4z" />
<glyph unicode="&#x16b;" horiz-adv-x="536" d="M513 484q3 0 2 -4l-67 -476q0 -4 -3 -4h-132q-3 0 -3 4l2 10q-82 -22 -120 -22q-15 0 -26 0.5t-25.5 2.5t-25.5 6t-23 11t-20 16.5t-15.5 24.5t-10.5 33t-3 43t4 55l41 296q1 4 4 4h132q4 0 3 -4l-40 -287q-8 -53 4 -68.5t42 -15.5q16 0 39.5 4.5t39.5 9.5l16 5l49 352 q1 4 4 4h132zM460 577h-287q-3 0 -3 4l13 92q0 4 4 4h287q4 0 4 -4l-13 -92q0 -4 -5 -4z" />
<glyph unicode="&#x16c;" horiz-adv-x="613" d="M251 -10q-131 0 -172 61.5t-21 203.5l59 421q0 4 4 4h137q4 0 4 -4l-58 -411q-14 -69 -1.5 -106.5t68.5 -37.5h41q55 0 74.5 31t31.5 113l58 411q0 4 4 4h137q4 0 4 -4l-59 -421q-9 -67 -24.5 -112t-45 -82t-79 -54t-121.5 -17h-41zM380 744q-129 0 -129 110q0 30 9 30 h58q8 0 9 -6q7 -29 19.5 -38t44.5 -9q30 0 46 10t29 37q4 6 11 6h59q7 0 6 -7q-24 -133 -162 -133z" />
<glyph unicode="&#x16d;" horiz-adv-x="536" d="M513 484q3 0 2 -4l-67 -476q0 -4 -3 -4h-132q-3 0 -3 4l2 10q-82 -22 -120 -22q-15 0 -26 0.5t-25.5 2.5t-25.5 6t-23 11t-20 16.5t-15.5 24.5t-10.5 33t-3 43t4 55l41 296q1 4 4 4h132q4 0 3 -4l-40 -287q-8 -53 4 -68.5t42 -15.5q16 0 39.5 4.5t39.5 9.5l16 5l49 352 q1 4 4 4h132zM315 549q-129 0 -129 110q0 30 9 30h58q8 0 9 -6q7 -29 19 -38t44 -9q30 0 46.5 10t29.5 37q4 6 11 6h59q7 0 6 -7q-24 -133 -162 -133z" />
<glyph unicode="&#x16e;" horiz-adv-x="613" d="M251 -10q-131 0 -172 61.5t-21 203.5l59 421q0 4 4 4h137q4 0 4 -4l-58 -411q-14 -69 -1.5 -106.5t68.5 -37.5h41q55 0 74.5 31t31.5 113l58 411q0 4 4 4h137q4 0 4 -4l-59 -421q-9 -67 -24.5 -112t-45 -82t-79 -54t-121.5 -17h-41zM374 723q-22 0 -37 3t-30.5 12 t-21.5 28.5t-1 49.5l4 24q9 54 40 73t79 19q21 0 35 -2.5t29.5 -11t21.5 -28.5t2 -50l-3 -24q-5 -40 -25.5 -62t-41 -26.5t-51.5 -4.5zM383 780q21 0 34 8.5t17 33.5l2 12q4 24 -6 32.5t-32 8.5q-46 0 -53 -41l-2 -12q-4 -25 7 -33.5t33 -8.5z" />
<glyph unicode="&#x16f;" horiz-adv-x="536" d="M513 484q3 0 2 -4l-67 -476q0 -4 -3 -4h-132q-3 0 -3 4l2 10q-82 -22 -120 -22q-15 0 -26 0.5t-25.5 2.5t-25.5 6t-23 11t-20 16.5t-15.5 24.5t-10.5 33t-3 43t4 55l41 296q1 4 4 4h132q4 0 3 -4l-40 -287q-8 -53 4 -68.5t42 -15.5q16 0 39.5 4.5t39.5 9.5l16 5l49 352 q1 4 4 4h132zM309 528q-22 0 -37.5 3t-31 12t-21 28.5t-0.5 49.5l4 24q9 54 40 73t78 19q21 0 35 -2.5t29.5 -11t21.5 -28.5t2 -50l-3 -24q-4 -31 -15.5 -50.5t-29.5 -28.5t-34 -11.5t-38 -2.5zM317 585q45 0 52 42l2 12q4 24 -6.5 32.5t-32.5 8.5q-45 0 -52 -41l-2 -12 q-4 -25 6.5 -33.5t32.5 -8.5z" />
<glyph unicode="&#x170;" horiz-adv-x="613" d="M251 -10q-131 0 -172 61.5t-21 203.5l59 421q0 4 4 4h137q4 0 4 -4l-58 -411q-14 -69 -1.5 -106.5t68.5 -37.5h41q55 0 74.5 31t31.5 113l58 411q0 4 4 4h137q4 0 4 -4l-59 -421q-9 -67 -24.5 -112t-45 -82t-79 -54t-121.5 -17h-41zM336 747q-3 -4 -6 -4h-97q-3 0 0 4 q1 2 47 72.5t47 71.5q3 4 7 4h117q4 0 1 -4zM501 747q-4 -4 -7 -4h-96q-4 0 -1 4q1 1 47 71.5t47 72.5q3 4 7 4h118q3 0 0 -4z" />
<glyph unicode="&#x171;" horiz-adv-x="536" d="M513 484q3 0 2 -4l-67 -476q0 -4 -3 -4h-132q-3 0 -3 4l2 10q-82 -22 -120 -22q-15 0 -26 0.5t-25.5 2.5t-25.5 6t-23 11t-20 16.5t-15.5 24.5t-10.5 33t-3 43t4 55l41 296q1 4 4 4h132q4 0 3 -4l-40 -287q-8 -53 4 -68.5t42 -15.5q16 0 39.5 4.5t39.5 9.5l16 5l49 352 q1 4 4 4h132zM270 552q-1 -4 -5 -4h-97q-4 0 -1 4q1 3 47 73t48 71q1 4 6 4h117q5 0 2 -4zM436 552q-4 -4 -7 -4h-96q-3 0 -2 4q2 1 48 71t47 73q3 4 6 4h118q4 0 1 -4z" />
<glyph unicode="&#x172;" horiz-adv-x="613" d="M229 -192q-87 0 -87 72q0 66 66 112q-105 9 -137 70.5t-13 192.5l59 421q0 4 4 4h137q4 0 4 -4l-58 -411q-14 -69 -1.5 -106.5t68.5 -37.5h41q55 0 74.5 31t31.5 113l58 411q0 4 4 4h137q4 0 4 -4l-59 -421q-18 -127 -66.5 -191t-162.5 -72q-43 -23 -64 -40.5t-21 -36.5 q0 -13 16 -13q14 0 28 9q5 3 8 -1q9 -13 25 -62q2 -5 -3 -9q-39 -31 -93 -31z" />
<glyph unicode="&#x173;" horiz-adv-x="536" d="M331 -189q-87 0 -87 72q0 68 74 117h-5q-3 0 -3 4l2 10q-82 -22 -120 -22q-15 0 -26 0.5t-25.5 2.5t-25.5 6t-23 11t-20 16.5t-15.5 24.5t-10.5 33t-3 43t4 55l41 296q1 4 4 4h132q4 0 3 -4l-40 -287q-8 -53 4 -68.5t42 -15.5q16 0 39.5 4.5t39.5 9.5l16 5l49 352 q1 4 4 4h132q3 0 2 -4l-67 -476v-2q0 -2 -3 -2q-1 0 -1 -1q-47 -25 -70 -43t-23 -38q0 -13 16 -13q15 0 28 9q4 3 7 -1q9 -13 25 -62q2 -6 -2 -9q-39 -31 -94 -31z" />
<glyph unicode="&#x174;" horiz-adv-x="852" d="M115 0q-5 0 -5 5l-28 671q0 4 4 4h143q4 0 5 -4l11 -449h19q143 311 144 314t5 3h114q4 0 5 -4l54 -313h19q139 446 140 449q1 4 4 4h144q5 0 3 -4l-216 -671q-1 -5 -6 -5h-175q-6 0 -6 4l-50 306h-12q-133 -299 -135 -305q-2 -5 -7 -5h-174zM439 743h-96q-3 0 -1 4 q5 8 57.5 73.5t56.5 71.5q2 4 7 4h109q5 0 8 -4q2 -2 37 -72.5t36 -72.5q2 -4 -2 -4h-96q-5 0 -5 4l-42 70h-3q-57 -67 -59 -70q-3 -4 -7 -4z" />
<glyph unicode="&#x175;" horiz-adv-x="727" d="M117 0q-3 0 -4 4q-1 1 -23.5 236t-22.5 240q0 4 4 4h132q5 0 5 -4l19 -283h8q100 187 101 190q4 4 5 4h92q1 0 4 -4l48 -190h8q93 280 95 283q2 4 6 4h134q2 0 1 -4q-1 -2 -90 -238.5t-89 -237.5q-1 -4 -5 -4h-122q-4 0 -4 4l-52 219h-8q-115 -216 -116 -219q-1 -4 -4 -4 h-122zM350 548h-96q-4 0 -2 4q5 8 57.5 73.5t56.5 71.5q2 4 8 4h109q4 0 7 -4q2 -3 37.5 -73t35.5 -72q4 -4 -1 -4h-96q-5 0 -6 4l-41 70h-3q-58 -67 -60 -70q-3 -4 -6 -4z" />
<glyph unicode="&#x176;" horiz-adv-x="556" d="M177 0q-4 0 -4 4l37 259q-141 410 -142 413q-1 4 3 4h146q4 0 5 -4l81 -255h7q148 252 150 255q3 4 5 4h144q5 0 2 -4l-256 -413l-37 -259q0 -4 -4 -4h-137zM291 743h-96q-3 0 -1 4q5 8 57.5 73.5t56.5 71.5q2 4 7 4h109q5 0 8 -4q2 -2 37 -72.5t36 -72.5q2 -4 -2 -4h-96 q-5 0 -5 4l-42 70h-3q-57 -67 -59 -70q-3 -4 -7 -4z" />
<glyph unicode="&#x177;" horiz-adv-x="492" d="M6 -180q-5 0 -3 4q1 3 14 54.5t13 52.5q0 4 5 4h28q46 0 72 54l16 35q-103 453 -104 456q-1 4 2 4h138q4 0 4 -4l51 -273h9q122 270 123 273q1 4 6 4h134q4 0 1 -4l-271 -533q-23 -45 -44 -72t-45.5 -38.5t-43 -14t-52.5 -2.5h-53zM237 548h-96q-3 0 -1 4q5 8 57.5 73.5 t56.5 71.5q2 4 8 4h109q4 0 7 -4q2 -2 37 -72.5t36 -72.5q2 -4 -2 -4h-96q-5 0 -5 4l-42 70h-3q-57 -67 -59 -70q-3 -4 -7 -4z" />
<glyph unicode="&#x178;" horiz-adv-x="556" d="M177 0q-4 0 -4 4l37 259q-141 410 -142 413q-1 4 3 4h146q4 0 5 -4l81 -255h7q148 252 150 255q3 4 5 4h144q5 0 2 -4l-256 -413l-37 -259q0 -4 -4 -4h-137zM208 764q-4 0 -3 4l15 108q0 4 4 4h101q4 0 4 -4l-15 -108q0 -4 -5 -4h-101zM402 764q-4 0 -3 4l15 108q0 4 4 4 h100q4 0 4 -4l-15 -108q0 -4 -5 -4h-100z" />
<glyph unicode="&#x179;" horiz-adv-x="530" d="M7 0q-3 0 -3 3l17 119q0 5 5 10l338 410l1 10h-269q-3 0 -3 4l17 120q0 4 4 4h436q4 0 4 -4l-17 -117q-1 -8 -5 -13l-338 -408l-1 -11h280q3 0 3 -4l-17 -119q0 -4 -4 -4h-448zM368 748q-4 -4 -7 -4h-96q-4 0 -1 4l93 144q3 4 8 4h117q4 0 1 -4z" />
<glyph unicode="&#x17a;" horiz-adv-x="464" d="M15 0q-4 0 -4 4l15 102q0 3 6 7l242 252l1 7h-200q-4 0 -3 4l14 104q1 4 5 4h364q4 0 3 -4l-14 -104q-2 -4 -4 -6l-242 -250l-1 -8h210q2 0 2 -4l-15 -104q0 -4 -3 -4h-376zM309 553q-6 -4 -7 -4h-96q-4 0 -1 4l93 144q3 4 7 4h117q5 0 2 -4z" />
<glyph unicode="&#x17b;" horiz-adv-x="530" d="M7 0q-3 0 -3 3l17 119q0 5 5 10l338 410l1 10h-269q-3 0 -3 4l17 120q0 4 4 4h436q4 0 4 -4l-17 -117q-1 -8 -5 -13l-338 -408l-1 -11h280q3 0 3 -4l-17 -119q0 -4 -4 -4h-448zM285 752q-4 0 -4 4l16 115q0 4 5 4h125q4 0 3 -4l-16 -115q0 -4 -4 -4h-125z" />
<glyph unicode="&#x17c;" horiz-adv-x="464" d="M15 0q-4 0 -4 4l15 102q0 3 6 7l242 252l1 7h-200q-4 0 -3 4l14 104q1 4 5 4h364q4 0 3 -4l-14 -104q-2 -4 -4 -6l-242 -250l-1 -8h210q2 0 2 -4l-15 -104q0 -4 -3 -4h-376zM223 557q-3 0 -3 4l16 115q0 4 4 4h125q4 0 4 -4l-16 -115q0 -4 -5 -4h-125z" />
<glyph unicode="&#x17d;" horiz-adv-x="530" d="M7 0q-3 0 -3 3l17 119q0 5 5 10l338 410l1 10h-269q-3 0 -3 4l17 120q0 4 4 4h436q4 0 4 -4l-17 -117q-1 -8 -5 -13l-338 -408l-1 -11h280q3 0 3 -4l-17 -119q0 -4 -4 -4h-448zM414 893h101q3 0 2 -4l-128 -145q-4 -4 -8 -4h-90q-5 0 -7 4q-4 7 -44.5 73t-43.5 72 q-2 4 2 4h101q3 0 6 -4l40 -69h3q59 66 61 69q3 4 5 4z" />
<glyph unicode="&#x17e;" horiz-adv-x="464" d="M15 0q-4 0 -4 4l15 102q0 3 6 7l242 252l1 7h-200q-4 0 -3 4l14 104q1 4 5 4h364q4 0 3 -4l-14 -104q-2 -4 -4 -6l-242 -250l-1 -8h210q2 0 2 -4l-15 -104q0 -4 -3 -4h-376zM355 698h101q3 0 2 -4l-129 -145q-2 -4 -8 -4h-90q-5 0 -7 4q-4 7 -44.5 73t-43.5 72q-2 4 3 4 h101q2 0 5 -4l41 -69h3q58 66 60 69q3 4 6 4z" />
<glyph unicode="&#x192;" horiz-adv-x="528" d="M95 -187q-10 0 -22.5 1t-23 2.5t-20 2.5t-15.5 2l-6 1q-2 0 -2 4q0 2 14 51.5t14 50.5q0 3 6 3q8 -4 55 -4q49 0 58 65l46 324h-64q-4 0 -4 4l14 95q0 4 4 4h65l12 87q7 48 22.5 82.5t34 52.5t45 28.5t47.5 13t48 2.5q12 0 33 -2.5t38 -4.5l16 -2q3 0 3 -4q0 -2 -14 -52 l-14 -49q0 -3 -6 -3q-1 0 -10.5 1t-22.5 1.5t-22 0.5q-50 0 -59 -64l-12 -88h79q4 0 4 -4l-14 -95q0 -4 -4 -4h-80l-46 -324q-8 -59 -28.5 -97.5t-51 -55t-56 -21.5t-61.5 -5z" />
<glyph unicode="&#x218;" horiz-adv-x="573" d="M250 -10q-145 0 -228 35l-1 1q-3 1 -1 5l49 114q2 3 5 2q84 -28 196 -28q51 0 80 10.5t34 44.5l6 44q4 27 -23.5 42.5t-88.5 22.5q-121 12 -163.5 48t-29.5 124l12 81q23 155 254 155q62 0 115 -8.5t69 -14t23 -8.5q4 -1 2 -6l-48 -107q-1 -3 -5 -3q-3 1 -25 6t-64.5 10 t-82.5 5q-87 0 -94 -51l-5 -40q-4 -29 17 -42.5t88 -21.5q120 -14 165.5 -52t33.5 -125l-11 -80q-7 -53 -35 -87.5t-72 -50t-83 -20.5t-89 -5zM175 -264q-2 -1 -4 0t-1 4l27 197q1 4 5 4h104q4 0 3 -4l-17 -124q-2 -5 -5 -7z" />
<glyph unicode="&#x219;" horiz-adv-x="480" d="M207 -8q-54 0 -101.5 6t-66 11t-22.5 7q-3 1 -2 5l40 94q1 2 5 2l10 -1q10 -2 26 -4.5t36 -5t44.5 -4t46.5 -1.5q68 0 73 32l3 20q2 17 -15 26t-69 15q-77 8 -118 36.5t-33 84.5l8 55q18 124 204 124q30 0 58 -2.5t48 -6t35 -6.5t23 -5l9 -3q1 0 1 -2q0 -3 -18 -46 t-20 -47q-2 -3 -4 -3q-3 1 -22 4t-54.5 6.5t-68.5 3.5q-59 0 -63 -28l-3 -22q-2 -15 18.5 -23.5t70.5 -13.5q81 -9 118 -37.5t29 -84.5l-8 -55q-6 -43 -26.5 -70.5t-53.5 -40t-64 -16.5t-74 -4zM127 -264q-2 -1 -4 0t-1 4l28 197q0 4 4 4h104q4 0 4 -4l-18 -124q0 -4 -5 -7z " />
<glyph unicode="&#x21a;" horiz-adv-x="530" d="M164 0q-3 0 -3 4l77 548h-175q-4 0 -4 4l17 120q0 4 5 4h496q3 0 2 -4l-17 -120q0 -4 -3 -4h-176l-77 -548q0 -4 -5 -4h-137zM146 -264q-2 -1 -4 0t-1 4l27 197q1 4 5 4h104q4 0 3 -4l-17 -124q-2 -5 -5 -7z" />
<glyph unicode="&#x21b;" horiz-adv-x="333" d="M205 -5q-26 0 -41.5 1t-35 4.5t-30 11t-21.5 21t-15 33t-4 48t5 65.5l29 203h-48q-3 0 -3 4l13 95q1 4 5 4h47l21 152q0 4 4 4h132q2 0 2 -4l-21 -152h90q3 0 3 -4l-13 -95q-1 -4 -5 -4h-89l-29 -204q-1 -24 -1 -37t8 -20t14.5 -8.5t17.5 -1.5q10 0 22 0.5t19.5 1.5 t8.5 1q3 0 3 -3q1 -2 1 -51.5v-50.5q0 -3 -4 -5q-36 -9 -85 -9zM66 -264q-2 -1 -3 0t-1 4l28 197q0 4 4 4h104q4 0 4 -4l-18 -124q0 -3 -5 -7z" />
<glyph unicode="&#x2c6;" horiz-adv-x="467" d="M213 548h-96q-4 0 -2 4q5 8 58 73.5t57 71.5q2 4 7 4h109q5 0 8 -4q2 -2 37 -72.5t36 -72.5q2 -4 -2 -4h-96q-5 0 -6 4l-41 70h-3q-58 -67 -60 -70q-3 -4 -6 -4z" />
<glyph unicode="&#x2c7;" horiz-adv-x="467" d="M348 698h101q5 0 2 -4l-129 -145q-2 -4 -7 -4h-90q-5 0 -7 4q-4 7 -44.5 73t-43.5 72q-2 4 2 4h101q3 0 6 -4l40 -69h3q59 66 61 69q3 4 5 4z" />
<glyph unicode="&#x2d8;" horiz-adv-x="467" d="M272 549q-129 0 -129 110q0 30 9 30h58q8 0 9 -6q7 -29 19.5 -38t44.5 -9q30 0 45.5 10t29.5 37q3 6 11 6h59q7 0 6 -7q-24 -133 -162 -133z" />
<glyph unicode="&#x2d9;" horiz-adv-x="467" d="M208 557q-3 0 -3 4l16 115q0 4 5 4h125q3 0 3 -4l-16 -115q0 -4 -5 -4h-125z" />
<glyph unicode="&#x2da;" horiz-adv-x="467" d="M272 585q47 0 52 42l1 12q2 24 -7.5 32.5t-30.5 8.5q-49 0 -53 -41l-1 -12q-3 -25 7.5 -33.5t31.5 -8.5zM264 528q-47 0 -72 18t-18 75l3 24q11 92 119 92q21 0 35 -2.5t29.5 -11t21.5 -28.5t2 -50l-3 -24q-4 -31 -15.5 -50.5t-29.5 -28.5t-34 -11.5t-38 -2.5z" />
<glyph unicode="&#x2db;" horiz-adv-x="467" d="M164 -187q-87 0 -87 72q0 71 80 121q6 4 16 4h103q3 0 4.5 -1.5t0.5 -3.5t-5 -4q-47 -25 -70 -43t-23 -38q0 -13 16 -13q15 0 29 9q4 3 7 -1q9 -13 25 -62q2 -5 -3 -9q-39 -31 -93 -31z" />
<glyph unicode="&#x2dc;" horiz-adv-x="467" d="M131 566q-3 0 -3 5l10 69q1 9 9 18q35 35 80 35q29 0 66.5 -19t59.5 -19q24 0 49.5 17.5t27.5 17.5q6 0 4 -6l-9 -68q-2 -11 -10 -18q-38 -38 -82 -38q-30 0 -66.5 20t-56.5 20q-24 0 -51 -17t-28 -17z" />
<glyph unicode="&#x2dd;" horiz-adv-x="467" d="M195 552q-1 -4 -5 -4h-97q-3 0 0 4q1 2 47 72.5t47 71.5q1 4 6 4h117q5 0 2 -4zM361 552q-4 -4 -7 -4h-96q-4 0 -1 4q1 1 47 71.5t47 72.5q3 4 6 4h118q4 0 1 -4z" />
<glyph unicode="&#x1e80;" horiz-adv-x="852" d="M115 0q-5 0 -5 5l-28 671q0 4 4 4h143q4 0 5 -4l11 -449h19q143 311 144 314t5 3h114q4 0 5 -4l54 -313h19q139 446 140 449q1 4 4 4h144q5 0 3 -4l-216 -671q-1 -5 -6 -5h-175q-6 0 -6 4l-50 306h-12q-133 -299 -135 -305q-2 -5 -7 -5h-174zM485 748l-76 144q-3 4 2 4 h118q4 0 5 -4q1 -1 26.5 -69.5t27.5 -74.5q1 -4 -2 -4h-96q-3 0 -5 4z" />
<glyph unicode="&#x1e81;" horiz-adv-x="727" d="M117 0q-3 0 -4 4q-1 1 -23.5 236t-22.5 240q0 4 4 4h132q5 0 5 -4l19 -283h8q100 187 101 190q4 4 5 4h92q1 0 4 -4l48 -190h8q93 280 95 283q2 4 6 4h134q2 0 1 -4q-1 -2 -90 -238.5t-89 -237.5q-1 -4 -5 -4h-122q-4 0 -4 4l-52 219h-8q-115 -216 -116 -219q-1 -4 -4 -4 h-122zM387 553l-75 144q-3 4 2 4h118q4 0 5 -4q1 -1 26.5 -71t26.5 -73q1 -4 -1 -4h-96q-4 0 -6 4z" />
<glyph unicode="&#x1e82;" horiz-adv-x="852" d="M115 0q-5 0 -5 5l-28 671q0 4 4 4h143q4 0 5 -4l11 -449h19q143 311 144 314t5 3h114q4 0 5 -4l54 -313h19q139 446 140 449q1 4 4 4h144q5 0 3 -4l-216 -671q-1 -5 -6 -5h-175q-6 0 -6 4l-50 306h-12q-133 -299 -135 -305q-2 -5 -7 -5h-174zM520 748q-6 -4 -7 -4h-96 q-4 0 -1 4l93 144q3 4 7 4h117q5 0 2 -4z" />
<glyph unicode="&#x1e83;" horiz-adv-x="727" d="M117 0q-3 0 -4 4q-1 1 -23.5 236t-22.5 240q0 4 4 4h132q5 0 5 -4l19 -283h8q100 187 101 190q4 4 5 4h92q1 0 4 -4l48 -190h8q93 280 95 283q2 4 6 4h134q2 0 1 -4q-1 -2 -90 -238.5t-89 -237.5q-1 -4 -5 -4h-122q-4 0 -4 4l-52 219h-8q-115 -216 -116 -219q-1 -4 -4 -4 h-122zM432 553q-6 -4 -7 -4h-96q-5 0 -2 4l94 144q3 4 7 4h117q5 0 2 -4z" />
<glyph unicode="&#x1e84;" horiz-adv-x="852" d="M115 0q-5 0 -5 5l-28 671q0 4 4 4h143q4 0 5 -4l11 -449h19q143 311 144 314t5 3h114q4 0 5 -4l54 -313h19q139 446 140 449q1 4 4 4h144q5 0 3 -4l-216 -671q-1 -5 -6 -5h-175q-6 0 -6 4l-50 306h-12q-133 -299 -135 -305q-2 -5 -7 -5h-174zM352 759q-4 0 -3 4l15 108 q0 4 5 4h101q3 0 3 -4l-15 -108q0 -4 -5 -4h-101zM546 759q-4 0 -3 4l15 108q0 4 5 4h100q3 0 3 -4l-15 -108q0 -4 -5 -4h-100z" />
<glyph unicode="&#x1e85;" horiz-adv-x="727" d="M117 0q-3 0 -4 4q-1 1 -23.5 236t-22.5 240q0 4 4 4h132q5 0 5 -4l19 -283h8q100 187 101 190q4 4 5 4h92q1 0 4 -4l48 -190h8q93 280 95 283q2 4 6 4h134q2 0 1 -4q-1 -2 -90 -238.5t-89 -237.5q-1 -4 -5 -4h-122q-4 0 -4 4l-52 219h-8q-115 -216 -116 -219q-1 -4 -4 -4 h-122zM263 564q-4 0 -4 4l16 108q0 4 4 4h101q4 0 4 -4l-16 -108q0 -4 -4 -4h-101zM457 564q-4 0 -4 4l16 108q0 4 4 4h100q5 0 3 -4l-15 -108q0 -4 -4 -4h-100z" />
<glyph unicode="&#x1e9e;" horiz-adv-x="611" d="M25 0q-3 0 -3 4l67 476q7 51 25.5 88t42 58.5t57.5 33.5t65.5 16t73.5 4h224q4 0 4 -5l-18 -128q-1 -4 -4 -10l-106 -139q20 -8 35 -17.5t31.5 -27t23 -46.5t1.5 -67l-8 -56q-7 -48 -27 -83t-45 -54t-62 -30t-68 -14t-73 -3q-4 0 -4 4l16 112q0 4 5 4q23 0 39.5 2t35 8.5 t30 22t14.5 39.5l6 44q5 40 -21 55t-66 15q-4 0 -4 4l16 114l104 141h-95q-92 0 -104 -85l-67 -476q0 -4 -4 -4h-137z" />
<glyph unicode="&#x2000;" horiz-adv-x="468" />
<glyph unicode="&#x2001;" horiz-adv-x="937" />
<glyph unicode="&#x2002;" horiz-adv-x="468" />
<glyph unicode="&#x2003;" horiz-adv-x="937" />
<glyph unicode="&#x2004;" horiz-adv-x="312" />
<glyph unicode="&#x2005;" horiz-adv-x="234" />
<glyph unicode="&#x2006;" horiz-adv-x="156" />
<glyph unicode="&#x2007;" horiz-adv-x="156" />
<glyph unicode="&#x2008;" horiz-adv-x="117" />
<glyph unicode="&#x2009;" horiz-adv-x="187" />
<glyph unicode="&#x200a;" horiz-adv-x="52" />
<glyph unicode="&#x2010;" horiz-adv-x="389" d="M41 218q-4 0 -4 4l15 107q0 4 5 4h289q3 0 3 -4l-15 -107q0 -4 -4 -4h-289z" />
<glyph unicode="&#x2011;" horiz-adv-x="389" d="M41 218q-4 0 -4 4l15 107q0 4 5 4h289q3 0 3 -4l-15 -107q0 -4 -4 -4h-289z" />
<glyph unicode="&#x2012;" horiz-adv-x="389" d="M41 218q-4 0 -4 4l15 107q0 4 5 4h289q3 0 3 -4l-15 -107q0 -4 -4 -4h-289z" />
<glyph unicode="&#x2013;" horiz-adv-x="466" d="M32 218q-4 0 -4 4l15 107q0 4 5 4h384q3 0 3 -4l-15 -107q0 -4 -4 -4h-384z" />
<glyph unicode="&#x2014;" horiz-adv-x="588" d="M17 218q-4 0 -4 4l15 107q0 4 5 4h536q3 0 3 -4l-15 -107q0 -4 -4 -4h-536z" />
<glyph unicode="&#x2018;" horiz-adv-x="236" d="M226 685q4 4 4 -3l-28 -197q0 -4 -4 -4h-104q-4 0 -4 4l18 124q0 2 5 6q6 4 58 36.5t55 33.5z" />
<glyph unicode="&#x2019;" horiz-adv-x="236" d="M94 475q-5 -3 -5 4l28 197q0 4 5 4h104q3 0 3 -4l-17 -124q-1 -4 -5 -7z" />
<glyph unicode="&#x201a;" horiz-adv-x="236" d="M17 -75q-1 -2 -3.5 -1t-2.5 4l28 197q0 4 5 4h105q3 0 2 -4l-17 -124q0 -3 -4 -6q-3 -2 -57 -35.5t-56 -34.5z" />
<glyph unicode="&#x201c;" horiz-adv-x="413" d="M226 685q4 4 4 -3l-28 -197q0 -4 -4 -4h-104q-4 0 -4 4l18 124q0 2 5 6q6 4 58 36.5t55 33.5zM403 685q4 4 4 -3l-28 -197q0 -4 -4 -4h-104q-4 0 -4 4l18 124q0 2 5 6q6 4 58 36.5t55 33.5z" />
<glyph unicode="&#x201d;" horiz-adv-x="413" d="M94 475q-5 -3 -5 4l28 197q0 4 5 4h104q3 0 3 -4l-17 -124q-1 -4 -5 -7zM271 475q-5 -3 -5 4l28 197q0 4 5 4h104q3 0 3 -4l-17 -124q-1 -4 -5 -7z" />
<glyph unicode="&#x201e;" horiz-adv-x="413" d="M17 -75q-1 -2 -3.5 -1t-2.5 4l28 197q0 4 5 4h105q3 0 2 -4l-17 -124q0 -3 -4 -6q-3 -2 -57 -35.5t-56 -34.5zM194 -75q-5 -3 -5 3l28 197q0 4 5 4h104q3 0 2 -4l-17 -124q0 -3 -4 -6q-3 -2 -57 -35.5t-56 -34.5z" />
<glyph unicode="&#x2020;" horiz-adv-x="530" d="M141 -180q-4 0 -3 4l73 521h-152q-4 0 -4 4l15 107q0 4 5 4h152l30 216q0 4 5 4h118q4 0 3 -4l-30 -216h151q3 0 2 -4l-15 -107q0 -4 -3 -4h-151l-73 -521q-1 -4 -5 -4h-118z" />
<glyph unicode="&#x2021;" horiz-adv-x="530" d="M140 -180q-4 0 -3 4l26 187h-152q-3 0 -3 4l15 107l4 4h152l35 248h-152q-3 0 -3 4l15 107q0 4 4 4h152l26 187q0 4 5 4h119q2 0 2 -4l-26 -187h151q3 0 3 -4l-15 -107q0 -4 -4 -4h-151l-35 -248h151q3 0 3 -4l-15 -107q0 -4 -4 -4h-151l-26 -187q-1 -4 -4 -4h-119z" />
<glyph unicode="&#x2022;" horiz-adv-x="412" d="M195 204q-46 0 -71.5 18.5t-18.5 75.5l3 24q7 53 39 72t80 19q21 0 35 -2.5t29 -11t21 -28t2 -49.5l-3 -24q-4 -31 -15.5 -51t-29 -28.5t-33.5 -11.5t-38 -3z" />
<glyph unicode="&#x2026;" horiz-adv-x="725" d="M259 0q-4 0 -3 4l19 135q0 4 4 4h127q4 0 4 -4l-19 -135q0 -4 -5 -4h-127zM21 0q-4 0 -3 4l19 135q0 4 4 4h127q4 0 4 -4l-19 -135q0 -4 -5 -4h-127zM497 0q-4 0 -3 4l19 135q0 4 4 4h127q3 0 3 -4l-19 -135q0 -4 -4 -4h-127z" />
<glyph unicode="&#x202f;" horiz-adv-x="187" />
<glyph unicode="&#x2030;" horiz-adv-x="1093" d="M226 -6h-112q-3 0 -1 4q17 30 228 342t228 342q4 4 7 4h112q3 0 0 -4l-456 -684q-3 -4 -6 -4zM557 82q22 0 35 8.5t16 35.5l8 58q3 25 -6.5 33.5t-31.5 8.5q-47 0 -53 -42l-8 -58q-3 -27 7.5 -35.5t32.5 -8.5zM544 -6q-57 0 -89.5 24.5t-23.5 93.5l12 88q16 115 150 115 q55 0 87 -23.5t23 -91.5l-12 -88q-5 -37 -19.5 -62t-37 -36.5t-43 -15.5t-47.5 -4zM225 454q22 0 35.5 8.5t16.5 34.5l8 59q3 25 -7 33.5t-31 8.5q-46 0 -52 -42l-9 -59q-4 -26 6.5 -34.5t32.5 -8.5zM213 366q-57 0 -90 24.5t-23 93.5l13 87q17 115 149 115q55 0 87 -23.5 t23 -91.5l-12 -87q-5 -37 -19.5 -62t-36.5 -36.5t-43 -15.5t-48 -4zM862 82q22 0 35.5 8.5t16.5 35.5l8 58q3 25 -6.5 33.5t-31.5 8.5q-47 0 -53 -42l-8 -58q-3 -27 7.5 -35.5t31.5 -8.5zM849 -6q-57 0 -89 24.5t-23 93.5l12 88q16 115 150 115q55 0 87 -23.5t23 -91.5 l-12 -88q-5 -37 -19.5 -62t-37 -36.5t-43.5 -15.5t-48 -4z" />
<glyph unicode="&#x2039;" horiz-adv-x="361" d="M284 505l60 -73q3 -2 0 -5l-178 -163q130 -161 132 -163q3 -1 -1 -5l-81 -72q-2 -2 -5 0q-1 1 -98 119l-97 118q-2 4 1 6l262 238q2 2 5 0z" />
<glyph unicode="&#x203a;" horiz-adv-x="361" d="M72 23q-2 2 -31 37t-30 36q-3 1 1 5l177 163q-131 161 -132 163q-2 2 1 5l81 72q3 3 6 0l195 -237q2 -3 -1 -6l-262 -238q-2 -2 -5 0z" />
<glyph unicode="&#x2044;" horiz-adv-x="432" d="M19 -5q-4 0 -3 4q1 2 141.5 341.5t141.5 341.5q1 4 5 4h127q5 0 2 -4l-282 -683q-1 -4 -5 -4h-127z" />
<glyph unicode="&#x205f;" horiz-adv-x="234" />
<glyph unicode="&#x2070;" horiz-adv-x="340" d="M177 329q36 0 54 18t26 75l15 107q8 56 -5.5 73t-49.5 17t-54 -17t-26 -73l-15 -107q-8 -58 5.5 -75.5t49.5 -17.5zM168 267q-32 0 -51 3.5t-39.5 17t-27 45.5t0.5 83l17 120q7 48 22 79t39 45t45 18t52 4t49.5 -3.5t39.5 -16.5t28 -44.5t0 -81.5l-17 -120 q-6 -42 -18.5 -71t-26.5 -44t-35.5 -23t-37 -9.5t-40.5 -1.5z" />
<glyph unicode="&#x2074;" horiz-adv-x="313" d="M242 270h-57q-2 0 -2 2l9 67h-153q-2 0 -2 2l8 58q0 2 2 6q1 1 73.5 134.5t73.5 136.5q2 2 4 2h65v-2l-143 -270v-5h81l10 74q0 2 3 2h57q3 0 3 -2l-10 -74h39q2 0 2 -3l-8 -57q0 -2 -3 -2h-39l-9 -67q0 -2 -4 -2z" />
<glyph unicode="&#x2075;" horiz-adv-x="313" d="M149 267q-70 0 -106 18q-3 1 -2 3q0 2 8.5 25t9.5 26q0 1 4 1l7 -1q6 -1 15.5 -3t21 -4t25.5 -3t25 -1q61 0 67 40l4 32q6 53 -47 53h-106q-1 0 -1 2l30 218q2 5 7 5h206q2 0 2 -2l-8 -54q0 -3 -2 -3h-151l-15 -108h48q22 0 38.5 -3t35.5 -12t27.5 -31t3.5 -55l-7 -51 q-4 -31 -19.5 -51t-39 -28t-41 -10.5t-40.5 -2.5z" />
<glyph unicode="&#x2076;" horiz-adv-x="311" d="M161 324q17 0 27.5 3t22 18t16.5 43l3 17q6 34 -6 46t-38 12q-9 0 -24.5 -2.5t-26.5 -5.5l-11 -3l-12 -88q-5 -40 49 -40zM157 267q-22 0 -40.5 3.5t-38 12.5t-28.5 29t-5 50l30 218q5 32 21.5 54.5t40 31.5t42 12.5t36.5 3.5q19 0 36 -2t28.5 -5t20 -6.5t12.5 -5.5l5 -2 q1 0 0 -3q0 -2 -10 -25.5t-10 -24.5t-3 -1l-6 1q-5 2 -14 4t-19.5 3.5t-23.5 3t-24 1.5q-59 0 -65 -43l-10 -68q52 12 74 12q21 0 35.5 -3t31 -13t22.5 -34t1 -61l-4 -27q-6 -39 -20 -64t-36 -35.5t-38.5 -13.5t-40.5 -3z" />
<glyph unicode="&#x2077;" horiz-adv-x="304" d="M133 270h-66q-3 0 -2 3l177 339l1 6h-156q-2 0 -2 2l8 55q0 3 2 3h227q2 0 2 -2l-8 -55q0 -1 -1.5 -3.5t-1.5 -3.5t-88 -170.5t-89 -170.5q0 -3 -3 -3z" />
<glyph unicode="&#x2078;" horiz-adv-x="312" d="M161 324q28 0 43.5 11.5t20.5 42.5l3 20q8 53 -48 53q-57 0 -64 -53l-3 -20q-5 -31 7.5 -42.5t40.5 -11.5zM188 512q53 0 59 45l3 20q7 48 -45 48q-54 0 -61 -48l-3 -20q-3 -24 10.5 -34.5t36.5 -10.5zM152 267q-26 0 -44.5 3.5t-35.5 14t-24 32.5t-2 56l4 30 q4 25 17.5 44.5t24.5 26.5l12 7l1 2q-4 2 -9.5 7t-13.5 22.5t-5 38.5l4 28q5 33 18 55t33.5 31.5t39 13t42.5 3.5q23 0 40 -3.5t33.5 -13.5t23.5 -31.5t2 -54.5l-4 -28q-3 -21 -14 -38t-21 -23l-9 -7l-1 -2q4 -2 10.5 -7t15.5 -25.5t5 -45.5l-4 -30q-5 -34 -18 -56.5 t-33.5 -32.5t-40 -13.5t-47.5 -3.5z" />
<glyph unicode="&#x2079;" horiz-adv-x="312" d="M204 624q-17 0 -27.5 -3t-22 -18t-15.5 -42l-4 -25q-6 -34 6 -46.5t37 -12.5q9 0 24.5 3t26.5 6l11 3l13 95q5 40 -49 40zM208 682q31 0 55 -5.5t43.5 -28.5t13.5 -62l-30 -217q-5 -32 -21.5 -54.5t-40 -31.5t-41.5 -12.5t-36 -3.5q-68 0 -104 18q-2 2 -1 3q0 1 5 13 t9.5 24t4.5 13q0 2 5 2l6 -1q6 -1 15 -3t19.5 -4t24 -3t24.5 -1q58 0 64 44l9 60q-52 -12 -74 -12q-20 0 -34.5 3t-31 13t-22.5 34t-1 61l5 34q5 32 16 54.5t24 34.5t31 18.5t31.5 8t31.5 1.5z" />
<glyph unicode="&#x2080;" horiz-adv-x="340" d="M139 59q36 0 54 18t26 75l15 107q8 56 -5.5 73t-49.5 17t-54 -17t-26 -73l-15 -107q-8 -58 5.5 -75.5t49.5 -17.5zM130 -3q-32 0 -51 3.5t-39.5 17t-27 45.5t0.5 83l17 120q7 48 22 79t39 45t45 18t52 4t49.5 -3.5t39.5 -16.5t28 -44.5t0 -81.5l-17 -120 q-6 -42 -18.5 -71t-26.5 -44t-35.5 -23t-37 -9.5t-40.5 -1.5z" />
<glyph unicode="&#x2081;" horiz-adv-x="301" d="M164 0h-61q-2 0 -2 2l46 330q-78 -52 -79 -53t-2 -0.5t-1 1.5q0 2 -3.5 28.5t-3.5 27.5t4 4l94 67q1 1 4 1h61q3 0 3 -2l-57 -404q0 -2 -3 -2z" />
<glyph unicode="&#x2082;" horiz-adv-x="309" d="M228 0h-229q-2 0 -2 2l8 56q0 2 3 5q128 123 156 156q32 37 34 57l4 32q3 25 -12 33t-41 8q-11 0 -24.5 -1.5t-25 -3.5t-21 -4t-15.5 -4l-6 -1q-1 -1 -2 -0.5t-1 1.5q0 2 -2.5 26.5t-2.5 25.5q0 2 2 3q40 20 108 20q18 0 33 -1.5t33 -7.5t29 -15.5t17 -27.5t2 -42l-7 -45 q-5 -34 -43 -79t-120 -126v-5h134q1 0 1 -2l-8 -58q0 -2 -2 -2z" />
<glyph unicode="&#x2083;" horiz-adv-x="312" d="M3 15q0 1 -0.5 1t-0.5 1t10 27l9 25q0 1 3 1l6 -1q6 -1 15.5 -3t21 -4t25.5 -3t26 -1q60 0 66 41l4 29q4 30 -11.5 40.5t-35.5 10.5h-45q-3 0 -3 2l8 54q0 2 3 2h46q18 0 33 11.5t18 31.5l4 29q3 26 -12.5 34t-39.5 8q-19 0 -41.5 -3t-35 -6t-14.5 -4q-4 -2 -4 1 q0 1 -1.5 25t-1.5 27q0 1 1 2t13.5 5.5t38.5 9t54 4.5q24 0 42 -3t37.5 -11.5t28.5 -28.5t4 -50l-6 -39q-3 -19 -12.5 -35.5t-17.5 -23.5l-9 -7l-1 -5q4 -2 10 -6.5t14 -24t4 -44.5l-6 -44q-13 -93 -140 -93q-30 0 -57 4.5t-39 8.5z" />
<glyph unicode="&#x2084;" horiz-adv-x="313" d="M204 0h-57q-2 0 -2 2l9 67h-153q-2 0 -2 2l8 58q0 2 2 6q1 1 73.5 134.5t73.5 136.5q2 2 4 2h65v-2l-143 -270v-5h81l10 74q0 2 3 2h57q3 0 3 -2l-10 -74h39q2 0 2 -3l-8 -57q0 -2 -3 -2h-39l-9 -67q0 -2 -4 -2z" />
<glyph unicode="&#x2085;" horiz-adv-x="313" d="M111 -3q-70 0 -106 18q-3 1 -2 3q0 2 8.5 25t9.5 26q0 1 4 1l7 -1q6 -1 15.5 -3t21 -4t25.5 -3t25 -1q60 0 66 40l5 32q8 53 -47 53h-106q-1 0 -1 2l30 218q2 5 7 5h206q2 0 2 -2l-8 -54q0 -3 -2 -3h-151l-15 -108h48q22 0 38.5 -3t35.5 -12t27.5 -31t3.5 -55l-7 -51 q-4 -31 -19.5 -51t-39 -28t-41 -10.5t-40.5 -2.5z" />
<glyph unicode="&#x2086;" horiz-adv-x="311" d="M123 54q17 0 28.5 3t23.5 18.5t15 42.5l2 17q4 34 -7.5 46t-36.5 12q-9 0 -24.5 -2.5t-26.5 -5.5l-11 -3l-12 -88q-5 -40 49 -40zM119 -3q-22 0 -40.5 3.5t-38 12.5t-28.5 29t-5 50l30 218q5 32 21.5 54.5t40 31.5t42 12.5t36.5 3.5q19 0 36 -2t28.5 -5t20 -6.5 t12.5 -5.5l5 -2q1 0 0 -3q0 -2 -10 -25.5t-10 -24.5t-3 -1l-6 1q-5 2 -14 4t-19.5 3.5t-23.5 3t-24 1.5q-59 0 -65 -43l-10 -68q52 12 74 12q21 0 35.5 -3t31 -13t22.5 -34t1 -61l-4 -27q-6 -39 -20 -64t-36 -35.5t-38.5 -13.5t-40.5 -3z" />
<glyph unicode="&#x2087;" horiz-adv-x="304" d="M95 0h-66q-3 0 -2 3l177 339l1 6h-156q-2 0 -2 2l8 55q0 3 2 3h227q2 0 2 -2l-8 -55q0 -1 -1.5 -3.5t-1.5 -3.5t-88 -170.5t-89 -170.5q0 -3 -3 -3z" />
<glyph unicode="&#x2088;" horiz-adv-x="312" d="M123 54q28 0 43.5 11.5t20.5 42.5l3 20q8 53 -48 53q-57 0 -64 -53l-3 -20q-5 -31 7.5 -42.5t40.5 -11.5zM150 242q53 0 59 45l3 20q7 48 -45 48q-54 0 -61 -48l-3 -20q-3 -24 10.5 -34.5t36.5 -10.5zM114 -3q-26 0 -44.5 3.5t-35.5 14t-24 32.5t-2 56l4 30 q4 25 17.5 44.5t24.5 26.5l12 7l1 2q-4 2 -9.5 7t-13.5 22.5t-5 38.5l4 28q5 33 18 55t33.5 31.5t39 13t42.5 3.5q23 0 40 -3.5t33.5 -13.5t23.5 -31.5t2 -54.5l-4 -28q-3 -21 -14 -38t-21 -23l-9 -7l-1 -2q4 -2 10.5 -7t15.5 -25.5t5 -45.5l-4 -30q-5 -34 -18 -56.5 t-33.5 -32.5t-40 -13.5t-47.5 -3.5z" />
<glyph unicode="&#x2089;" horiz-adv-x="312" d="M166 354q-17 0 -27.5 -3t-22 -18t-15.5 -42l-4 -25q-6 -34 6 -46.5t37 -12.5q9 0 24.5 3t26.5 6l11 3l13 95q5 40 -49 40zM170 412q31 0 55 -5.5t43.5 -28.5t13.5 -62l-30 -217q-5 -32 -21.5 -54.5t-40 -31.5t-41.5 -12.5t-36 -3.5q-68 0 -104 18q-2 2 -1 3q0 1 5 13 t9.5 24t4.5 13q0 2 5 2l6 -1q6 -1 15 -3t19.5 -4t24 -3t24.5 -1q58 0 64 44l9 60q-52 -12 -74 -12q-20 0 -34.5 3t-31 13t-22.5 34t-1 61l5 34q5 32 16 54.5t24 34.5t31 18.5t31.5 8t31.5 1.5z" />
<glyph unicode="&#x20ac;" horiz-adv-x="580" d="M316 -8q-39 0 -70 4t-66.5 19t-57.5 40.5t-32.5 73t-1.5 111.5h-47q-4 0 -4 4l10 69q0 4 5 4h47l7 50h-47q-4 0 -4 4l10 69q0 4 5 4h47q10 74 39 124.5t72.5 75.5t88 34.5t100.5 9.5q55 0 98.5 -7t59 -13t18.5 -9q3 -1 1 -5l-51 -107q-2 -3 -5 -2t-21 4t-52.5 6t-65.5 3 q-56 0 -86.5 -23.5t-47.5 -90.5h148q3 0 3 -4l-10 -69q0 -4 -4 -4h-149l-7 -50h149q3 0 3 -4l-10 -69q0 -4 -4 -4h-148q-4 -68 19.5 -90.5t80.5 -22.5q35 0 73.5 4.5t58.5 8.5t22 5q4 1 4 -2l22 -109q0 -4 -3 -6q-72 -36 -197 -36z" />
<glyph unicode="&#x2122;" horiz-adv-x="809" d="M390 291l54 386q0 3 4 3h97q3 0 3 -2l49 -189h7q99 186 100 188q3 3 5 3h97v-3l-54 -386q0 -2 -2 -2h-80q-2 0 -2 2l32 225h-8q-75 -141 -76 -143t-4 -2h-58q-4 0 -3 3l-36 142h-8l-32 -225q0 -2 -3 -2h-79q-3 0 -3 2zM145 291l44 312h-96q-1 0 -1 2l10 72l2 3h275 q2 0 2 -3l-10 -72q0 -2 -3 -2h-94l-44 -312q0 -2 -3 -2h-80q-2 0 -2 2z" />
<glyph unicode="&#x2190;" horiz-adv-x="722" d="M271 349h403q4 0 4 -4l-15 -108q0 -4 -5 -4h-403l130 -151q2 -2 -1 -5l-87 -76q-3 -3 -5 0l-247 287q-3 3 0 6l329 287q2 3 5 0l65 -76q2 -3 0 -5z" />
<glyph unicode="&#x2191;" horiz-adv-x="689" d="M419 407l-56 -403q0 -4 -5 -4h-107q-4 0 -3 4l56 403q-171 -149 -173 -151q-3 -2 -5 0q-1 1 -32.5 38t-32.5 38q-3 2 0 5q2 1 164 143.5t164 144.5q3 3 6 0l246 -288q3 -3 0 -5q-2 -2 -43.5 -38.5t-42.5 -37.5q-3 -3 -6 0z" />
<glyph unicode="&#x2192;" horiz-adv-x="722" d="M453 234h-404q-4 0 -4 4l15 107q0 4 5 4h404q-130 149 -131 151q-2 3 1 6q2 1 43.5 37t43.5 38q2 3 5 0q1 -1 62.5 -72.5t122.5 -142.5t62 -71q3 -3 0 -6l-328 -288q-2 -3 -5 0l-66 76q-3 3 1 6z" />
<glyph unicode="&#x2193;" horiz-adv-x="689" d="M278 218l57 404q0 4 4 4h107q4 0 4 -4l-57 -404l173 152q2 2 5 0q2 -2 32.5 -39t31.5 -38q2 -3 -1 -5l-326 -287q-3 -3 -6 0l-247 287q-3 2 0 5l87 77q4 4 6 0z" />
<glyph unicode="&#x2194;" horiz-adv-x="952" d="M292 2l-247 286q-2 4 1 6l328 288q2 2 5 0q1 -1 32.5 -38t32.5 -38q2 -2 -1 -6l-172 -151h428l-130 151q-3 2 1 6l87 76q3 2 5 0t124 -144.5t123 -143.5q2 -3 -1 -6l-327 -286q-3 -3 -6 0l-65 75q-2 3 1 6l172 151h-428l130 -151q3 -3 -1 -6q-2 -2 -44 -38t-43 -37 q-2 -3 -5 0z" />
<glyph unicode="&#x2195;" horiz-adv-x="689" d="M82 484q1 1 163.5 144t163.5 144q4 4 6 0q1 -2 123 -144t124 -144q3 -1 -1 -5q-1 -1 -42.5 -38t-42.5 -38q-3 -3 -6 0l-130 151l-60 -428l172 151q3 3 6 0l64 -76q3 -3 -1 -6l-327 -287q-3 -3 -6 0q-1 1 -62.5 72.5t-122.5 143t-62 71.5q0 5 2 6l86 76q3 3 5 0l131 -151 l60 428q-171 -149 -173 -151q-3 -3 -5 0l-66 76q-2 2 1 5z" />
<glyph unicode="&#x2196;" horiz-adv-x="594" d="M524 152q2 -2 -1 -6l-87 -75q-2 -3 -5 0l-246 285l-30 -214q0 -4 -4 -4h-107q-4 0 -4 4l57 406q0 4 5 4h406q4 0 3 -4l-15 -107q0 -4 -4 -4h-213z" />
<glyph unicode="&#x2197;" horiz-adv-x="593" d="M103 70q-4 -3 -7 0l-63 76q-3 3 0 6l325 285h-214q-3 0 -3 4l15 107q0 4 4 4h406q4 0 4 -4l-57 -406q0 -4 -5 -4h-107q-4 0 -3 4l30 214z" />
<glyph unicode="&#x2198;" horiz-adv-x="594" d="M78 469q-2 3 1 6l86 75q4 4 6 0l245 -284l30 213q0 4 5 4h107q4 0 3 -4l-57 -406q0 -4 -4 -4h-406q-4 0 -4 4l15 107q0 4 5 4h214z" />
<glyph unicode="&#x2199;" horiz-adv-x="593" d="M498 551q3 3 6 0l64 -76q3 -1 -1 -5l-324 -286h213q4 0 3 -4l-15 -107q0 -4 -4 -4h-406q-4 0 -4 4l57 406q0 4 5 4h107q4 0 3 -4l-30 -213z" />
<glyph unicode="&#x2212;" horiz-adv-x="389" d="M41 218q-4 0 -4 4l15 107q0 4 5 4h289q3 0 3 -4l-15 -107q0 -4 -4 -4h-289z" />
<glyph unicode="&#x221a;" horiz-adv-x="877" d="M39 290l100 90q3 3 6 0l162 -189q482 425 483 426q3 3 6 0l74 -90q3 -2 0 -5t-294 -261t-292 -259q-3 -3 -6 0q-1 1 -60.5 71.5t-119 140.5t-60.5 70q0 5 1 6z" />
<glyph unicode="&#x2248;" horiz-adv-x="543" d="M58 183q1 10 8 18q52 45 109 45q39 0 91 -29t81 -29q30 0 67 22l38 23q6 0 4 -6l-10 -68q-2 -12 -9 -18q-7 -7 -19.5 -16.5t-39 -20.5t-51.5 -11q-37 0 -88 30t-81 30q-29 0 -68 -22l-40 -22q-2 0 -2 5zM88 396q2 13 8 18q12 12 43 28.5t66 16.5q39 0 91 -29t81 -29 q22 0 46 11.5t40 23t19 11.5q6 0 4 -6l-10 -68q-2 -12 -9 -18q-7 -7 -19.5 -16.5t-39 -20.5t-51.5 -11q-37 0 -88 30t-81 30q-29 0 -68 -22l-40 -22q-2 0 -2 5z" />
<glyph unicode="&#x2260;" horiz-adv-x="544" d="M64 10q-5 0 -3 4l61 97h-86q-3 0 -3 4l16 109q0 4 3 4h144l59 96h-189q-3 0 -3 4l16 109q0 4 3 4h246q60 96 62 99q3 4 7 4h84q4 0 2 -4l-62 -99h85q3 0 3 -4l-16 -109q0 -4 -3 -4h-143l-59 -96h188q3 0 3 -4l-16 -109q0 -4 -3 -4h-246q-59 -94 -60 -97q-1 -4 -6 -4h-84z " />
<glyph unicode="&#x2264;" horiz-adv-x="543" d="M466 158q-2 1 -199.5 84t-200.5 84q-4 2 -4 5l14 96q0 5 5 5l448 169q3 1 3 -3l-17 -116q0 -4 -3 -6l-262 -95v-4q231 -94 234 -94q3 -1 3 -6l-17 -116q0 -5 -4 -3zM19 0q-4 0 -4 4l16 109q0 4 4 4h426q3 0 3 -4l-16 -109q0 -4 -3 -4h-426z" />
<glyph unicode="&#x2265;" horiz-adv-x="543" d="M41 158q-4 -2 -4 3l17 116q0 6 4 6l262 94v4q-232 94 -234 95q-4 2 -3 6l16 116q1 4 4 3t201 -85t199 -84q4 0 4 -5l-14 -96q0 -3 -4 -5q-5 -2 -225.5 -84.5t-222.5 -83.5zM445 0h-426q-4 0 -4 4l16 109q0 4 4 4h426q3 0 3 -4l-16 -109q0 -4 -3 -4z" />
<glyph unicode="&#x25b2;" horiz-adv-x="712" d="M698 304l-24 -170l-3 -3l-299 237h-9q-364 -236 -365 -238q-4 -2 -4 3l24 171q0 3 5 6l361 236q8 6 16 0q7 -6 79.5 -63.5t138.5 -110.5t78 -62q3 -3 2 -6z" />
<glyph unicode="&#x25ba;" horiz-adv-x="585" d="M207 0h-170q-6 0 -3 3l284 332l1 9q-189 331 -191 332q-2 4 3 4h171q3 0 6 -4l190 -328q4 -8 -3 -16q-12 -14 -140 -163.5t-142 -165.5q-3 -3 -6 -3z" />
<glyph unicode="&#x25bc;" horiz-adv-x="712" d="M29 375l23 169q2 5 4 3l299 -236h9q364 236 365 237q4 4 4 -3l-24 -170q0 -3 -5 -6l-361 -236q-8 -6 -16 0q-16 12 -151 120l-145 116q-3 3 -2 6z" />
<glyph unicode="&#x25c4;" horiz-adv-x="585" d="M393 680h170q5 0 2 -3l-284 -332l-1 -9q190 -331 191 -332q4 -4 -3 -4h-171q-2 0 -5 4q-1 2 -95 164t-95 164q-5 7 2 16l283 329q1 3 6 3z" />
<glyph unicode="&#x25fc;" horiz-adv-x="485" d="M0 485h485v-485h-485v485z" />
<glyph />
<glyph d="M246 119q53 0 76.5 25.5t35.5 109.5l25 177q11 82 -6 106.5t-69 24.5q-51 0 -75.5 -24.5t-35.5 -106.5l-25 -177q-12 -84 5 -109.5t69 -25.5zM228 -10q-23 0 -39.5 1t-37.5 4t-36 8t-31 14.5t-27 22.5t-20 32t-13 43.5t-4 57t6 71.5l28 200q9 67 29.5 114t44.5 72.5 t60.5 39.5t65.5 17.5t72 3.5q23 0 39 -0.5t37.5 -3.5t36.5 -8t32 -14t28 -21.5t20.5 -31t14 -42.5t4.5 -56t-5 -70l-28 -200q-10 -71 -32 -120.5t-46 -75t-62 -39.5t-65.5 -16.5t-71.5 -2.5z" />
<glyph d="M340 0h-131q-4 0 -4 4l74 523q-128 -82 -130 -83q-4 -2 -4 2q0 3 -7 59t-8 57q-1 3 5 7q159 106 162 109q4 2 7 2h131q4 0 4 -4l-95 -673q0 -3 -4 -3z" />
<glyph d="M429 0h-399q-4 0 -4 3l16 113q1 5 6 10q20 19 62 58t61.5 58t52.5 51t49.5 50.5t35.5 41.5t27.5 40t10.5 31l7 50q3 23 -10.5 37t-28.5 17t-34 3q-32 0 -71.5 -5.5t-63 -11t-25.5 -6.5q-5 0 -5 3q0 2 -4.5 54t-4.5 53q0 4 3 5q5 4 23 11t66 16t102 9q31 0 57 -2.5 t57 -12.5t51.5 -27t31.5 -48.5t5 -73.5l-12 -83q-8 -55 -64 -122.5t-174 -183.5l-1 -11h195q2 0 2 -4l-17 -119q0 -4 -3 -4z" />
<glyph d="M32 18q-2 0 -2 3t17.5 55t18.5 55t6 3q2 -1 26 -5.5t64 -9t72 -4.5q86 0 93 56l6 44q3 23 -2.5 38.5t-18 22t-23 9t-22.5 2.5h-82q-3 0 -3 4l16 112q0 4 4 4h82q25 0 46.5 16t25.5 44l6 42q2 18 -4.5 30.5t-20 17.5t-24.5 7t-24 2q-32 0 -72 -5t-62.5 -9.5t-26.5 -5.5 q-6 -2 -6 3q0 3 -2 54.5t-2 52.5q0 4 3 6q5 2 24.5 8t66.5 13.5t95 7.5q44 0 76.5 -5t66.5 -20t48.5 -48.5t7.5 -84.5l-10 -69q-4 -28 -21 -55t-32 -39l-15 -13l-1 -9q2 -1 6 -3.5t14 -12.5t16.5 -22.5t10.5 -34t1 -46.5l-11 -80q-7 -50 -30 -83.5t-60.5 -49t-73 -21 t-82.5 -5.5q-53 0 -99.5 7t-66.5 14z" />
<glyph d="M404 0h-123q-3 0 -3 4l14 100h-263q-4 0 -4 4l17 118q0 4 4 12l234 438q2 4 6 4h139q3 0 1 -4l-227 -435l-1 -9h111l16 112q0 4 5 4h123q3 0 3 -4l-16 -112h52q3 0 3 -4l-17 -120q0 -4 -4 -4h-51l-14 -100q0 -4 -5 -4z" />
<glyph d="M220 -11q-103 0 -187 28q-3 2 -1 6l36 108q1 2 5 2q3 -1 27 -5.5t64.5 -9t71.5 -4.5q84 0 92 57l7 48q5 40 -15 56.5t-51 16.5h-180q-3 0 -3 4l53 375q2 9 10 9h366q4 0 4 -4l-16 -112q0 -4 -5 -4h-248l-21 -150h60q32 0 56 -2t54 -11.5t48.5 -26.5t28.5 -49t4 -76 l-14 -97q-6 -43 -26.5 -74.5t-44 -47.5t-58.5 -25t-59.5 -10.5t-57.5 -1.5z" />
<glyph d="M245 106q16 0 28 2.5t25.5 11t22.5 28t14 49.5l5 32q8 47 -6.5 63.5t-46.5 16.5q-15 0 -37 -4t-36 -8l-15 -4l-19 -134q-4 -28 15 -40.5t50 -12.5zM238 -10q-31 0 -57.5 3t-56.5 13.5t-49.5 28t-30 49t-4.5 73.5l50 355q7 47 30 82t50 53t62 28.5t57.5 13t44.5 2.5 q19 0 37.5 -1t33.5 -3t29 -4.5t24.5 -5.5t19.5 -6t15.5 -5.5t11 -4.5t7.5 -3l3 -2q3 -1 1 -5q-1 -2 -11.5 -28.5t-19.5 -50.5t-9 -25q0 -2 -5 -2l-10 2q-10 2 -25.5 5t-34 6t-41 5t-42.5 2q-31 0 -57.5 -13t-31.5 -46l-14 -97q82 17 116 17q16 0 28.5 -1t29 -4t28 -8.5 t25 -15t20.5 -23t14 -33t6 -44.5t-4 -58l-7 -49q-8 -54 -27 -92.5t-40.5 -59t-53.5 -32t-56 -14t-56 -2.5z" />
<glyph d="M219 1h-140q-6 0 -3 4l280 541l2 10h-246q-3 0 -3 4l17 116q0 4 3 4h396q4 0 4 -4l-16 -112q0 -3 -4 -11l-283 -548q-4 -4 -7 -4z" />
<glyph d="M247 106q76 0 87 76l5 34q10 70 -65 70q-77 0 -87 -70l-5 -34q-12 -76 65 -76zM290 413q72 0 81 62l5 34q9 67 -62 67q-72 0 -82 -67l-5 -34q-5 -33 13.5 -47.5t49.5 -14.5zM230 -10q-35 0 -62 3.5t-55.5 14.5t-45 30.5t-24.5 53.5t-2 81l7 51q3 24 13.5 46t23 36t24 24 t19.5 14l8 5v4q-6 4 -14.5 12t-20.5 36.5t-7 62.5l7 50q7 47 24 81t38 52.5t52.5 28.5t56.5 12.5t60 2.5q34 0 58 -2.5t51 -13t42.5 -29t23 -52t1.5 -80.5l-7 -51q-4 -33 -22 -60.5t-34 -38.5l-16 -12v-3q3 -1 7 -4t14 -14t17.5 -24.5t11.5 -35.5t1 -47l-7 -51 q-8 -58 -31 -96.5t-59 -56.5t-71 -24t-82 -6z" />
<glyph d="M314 571q-16 0 -28 -2.5t-26 -11t-23.5 -27.5t-13.5 -49l-5 -40q-6 -47 8 -63.5t45 -16.5q15 0 37.5 4.5t37.5 8.5l14 4l20 141q4 28 -15.5 40t-50.5 12zM321 688q40 0 72.5 -6t67 -22t50.5 -51.5t9 -87.5l-49 -348q-7 -47 -30 -82t-50 -53t-62 -28.5t-57.5 -13 t-44.5 -2.5q-20 0 -38.5 1t-34 3t-29 4t-25 5t-20.5 5.5t-16 5t-11.5 4l-7.5 2.5l-3 2q-1 0 -1 3t41 106q2 3 5 3q3 -1 25 -5t61 -8.5t70 -4.5q30 0 57 13t32 46l11 82q-82 -17 -117 -17q-22 0 -38 2t-37.5 8t-34 18.5t-25.5 33t-13.5 51.5t2.5 74l8 57q7 54 26 92.5 t40.5 59t53.5 32t56 14t57 2.5z" />
<glyph d="M175 96q-4 0 -3 4l17 120q0 4 4 4h127q4 0 4 -4l-17 -120q0 -4 -5 -4h-127zM226 453q-4 0 -4 4l17 120q0 4 5 4h127q3 0 3 -4l-17 -120q0 -4 -4 -4h-127z" />
<glyph horiz-adv-x="485" d="M86 156q-3 3 0 6l85 74q3 2 5 0t85 -103t84 -103q2 -3 -1 -5l-83 -74q-3 -3 -6 0z" />
<glyph horiz-adv-x="440" d="M23 -42q-5 0 -2 4l54 100q3 4 8 4h82q3 0 2 -4q-2 -3 -29 -51t-28 -50q-2 -3 -6 -3h-81zM263 420q-5 0 -3 4l55 99q3 4 7 4h82q5 0 2 -4l-55 -99q-3 -4 -5 -4h-83z" />
<glyph horiz-adv-x="611" d="M403 581q-3 0 -2 4l86 132q3 4 7 4h112q4 0 1 -4l-86 -132q-3 -4 -6 -4h-112zM13 -40q-4 0 -1 4l81 127q3 4 8 4h111q5 0 2 -4l-83 -127q-3 -4 -6 -4h-112z" />
<glyph horiz-adv-x="1183" d="M257 -10q-145 0 -228 35l-1 1q-3 1 -1 5l49 114q2 3 5 2q84 -28 196 -28q51 0 80 10.5t34 44.5l6 44q4 27 -23.5 42.5t-88.5 22.5q-121 12 -163.5 48t-29.5 124l12 81q23 155 254 155q62 0 115 -8.5t69 -14t23 -8.5q4 -1 2 -6l-48 -107q-1 -3 -5 -3q-3 1 -25 6t-64.5 10 t-82.5 5q-87 0 -94 -51l-5 -40q-4 -29 17 -42.5t88 -21.5q120 -14 165.5 -52t33.5 -125l-11 -80q-7 -53 -35 -87.5t-72 -50t-83 -20.5t-89 -5zM814 -10q-145 0 -228 35l-1 1q-3 1 -1 5l49 114q2 3 5 2q84 -28 196 -28q51 0 80 10.5t34 44.5l6 44q4 27 -23.5 42.5t-88.5 22.5 q-121 12 -163.5 48t-29.5 124l12 81q23 155 254 155q62 0 115 -8.5t69 -14t23 -8.5q4 -1 2 -6l-48 -107q-1 -3 -5 -3q-3 1 -25 6t-64.5 10t-82.5 5q-85 0 -93 -51l-6 -40q-4 -29 17 -42.5t88 -21.5q120 -14 165.5 -52t33.5 -125l-11 -80q-7 -53 -35 -87.5t-72 -50t-83 -20.5 t-89 -5z" />
<glyph horiz-adv-x="486" d="M84 0h-124q-4 0 -2 3q1 1 125 269t125 269q2 3 4 3h136q4 0 5 -3l95 -538q2 -3 -3 -3h-123q-2 0 -4 3l-12 91h-181q-37 -89 -38 -91q-1 -3 -3 -3zM167 191h126l-26 201h-17z" />
<glyph horiz-adv-x="465" d="M143 97h73q67 0 73 43l6 44q3 20 -8 31.5t-23 14t-30 2.5h-72zM174 321h67q25 0 33 -1q31 41 31 79q0 48 -56 48h-57zM217 0h-212l76 544h205q147 0 147 -118q0 -60 -53 -137q25 -17 35.5 -40t4.5 -64l-7 -49q-5 -37 -19 -63t-31 -40t-43.5 -21.5t-48.5 -9.5t-54 -2z" />
<glyph horiz-adv-x="434" d="M204 -4q-46 0 -77.5 6.5t-62.5 26.5t-42.5 63t-2.5 109l21 149q7 51 25 88.5t40.5 58.5t54 33t59.5 15.5t64 3.5q47 0 82.5 -6t47 -10.5t13.5 -6.5q2 -1 0 -5l-5 -10q-5 -10 -12 -23.5t-14 -27.5l-12 -24l-5 -9q0 -2 -5 -2l-6 1q-6 2 -16 4t-22.5 3.5t-29 3t-31.5 1.5 q-26 0 -43 -4.5t-36 -28t-25 -68.5l-18 -126q-9 -62 10 -80.5t64 -18.5q18 0 36.5 1.5t32.5 4t25.5 4.5t18 3.5t7.5 1.5q4 2 4 -1l21 -95q0 -4 -2 -5q-60 -30 -159 -30z" />
<glyph horiz-adv-x="479" d="M145 113h69q42 0 63 18.5t31 83.5l17 116q10 65 -7 82.5t-59 17.5h-69zM198 0h-193l76 544h193q33 0 54.5 -2t52 -13t47 -31t25.5 -60t1 -96l-19 -136q-8 -57 -27.5 -97.5t-41 -61t-54.5 -32t-56 -13.5t-58 -2z" />
<glyph horiz-adv-x="423" d="M5 0l76 544h346q3 0 3 -3l-14 -101q0 -4 -4 -4h-222l-15 -108h185q3 0 3 -3l-14 -100q0 -4 -4 -4h-185l-16 -113h222q3 0 3 -4l-15 -101q0 -3 -3 -3h-346z" />
<glyph horiz-adv-x="419" d="M8 0q-3 0 -3 3l76 541h346q3 0 3 -3l-14 -101q0 -4 -4 -4h-222l-19 -132h185q3 0 3 -3l-14 -101q0 -3 -4 -3h-185l-27 -194q0 -3 -2 -3h-119z" />
<glyph horiz-adv-x="476" d="M205 -4q-18 0 -32 1t-32.5 3t-31.5 6.5t-28.5 12t-25 18.5t-20 26t-13 35t-5.5 45.5t4 56.5l21 150q8 54 28 93t43 59t57 31.5t57.5 13.5t56.5 2q46 0 87.5 -6.5t60 -12t20.5 -7.5q1 -1 0 -4l-45 -92q-1 -1 -4 -1h-5q-4 1 -11.5 2t-17.5 2.5t-22 3t-24.5 2.5t-27 1.5 t-27.5 0.5q-19 0 -32 -2.5t-29 -11.5t-26 -30.5t-15 -55.5l-18 -129q-9 -63 10.5 -81.5t62.5 -18.5l90 9l12 88h-68q-2 0 -2 4l13 95q0 3 4 3h172l-40 -282q-135 -30 -197 -30z" />
<glyph horiz-adv-x="500" d="M8 0q-3 0 -3 3l76 538q0 3 3 3h119q2 0 2 -3l-30 -214h162l30 214q0 3 3 3h119q2 0 2 -3l-76 -538q0 -3 -2 -3h-119q-3 0 -3 3l30 216h-162l-30 -216q0 -3 -2 -3h-119z" />
<glyph horiz-adv-x="214" d="M8 0q-3 0 -3 3l76 538q0 3 3 3h119q2 0 2 -3l-76 -538q0 -3 -2 -3h-119z" />
<glyph horiz-adv-x="395" d="M117 -7q-90 0 -134 22q-3 1 -1 5l44 94q1 2 5 2l5 -1q6 -1 15 -2t20.5 -2.5t27 -2.5t30.5 -1q73 0 81 62l53 372q0 3 3 3h119q3 0 3 -3l-54 -382q-6 -45 -23 -77.5t-37 -49t-50 -26t-52.5 -11.5t-54.5 -2z" />
<glyph horiz-adv-x="491" d="M8 0q-3 0 -3 3l76 538q0 3 3 3h119q2 0 2 -3l-30 -215h31q156 212 158 215t5 3h130q3 0 1 -3l-200 -266q133 -270 135 -272q3 -3 -1 -3h-131q-2 0 -5 3l-99 216h-40l-30 -216q0 -3 -2 -3h-119z" />
<glyph horiz-adv-x="409" d="M5 0l76 541q0 3 3 3h119q2 0 2 -3l-61 -433h222q3 0 3 -4l-15 -101q0 -3 -3 -3h-346z" />
<glyph horiz-adv-x="617" d="M8 0q-3 0 -3 3l76 538q0 3 3 3h142q3 0 4 -2l75 -260h11q143 256 144 258q3 4 6 4h141q3 0 3 -3l-76 -538q0 -3 -3 -3h-117q-3 0 -3 3l43 308h-11q-109 -192 -110 -194q-1 -3 -5 -3h-84q-6 0 -7 4l-55 193h-12l-43 -308q0 -3 -3 -3h-116z" />
<glyph horiz-adv-x="514" d="M5 0q-3 0 -3 3l76 538q0 3 3 3h132q4 0 5 -2l118 -325h8l46 324q0 3 3 3h117q3 0 3 -3l-76 -538q0 -3 -4 -3h-134q-3 0 -4 3l-117 324h-9l-46 -324q0 -3 -3 -3h-115z" />
<glyph horiz-adv-x="475" d="M212 108q43 0 64 18t30 83l18 128q9 64 -7.5 81.5t-58.5 17.5t-63.5 -17.5t-30.5 -81.5l-18 -128q-9 -65 7 -83t59 -18zM196 -5q-19 0 -33 0.5t-32 3t-30.5 7t-27.5 12t-23.5 18t-18.5 26t-12 35.5t-4.5 45.5t4.5 57.5l21 148q7 54 25.5 92t39.5 58.5t52.5 32t56.5 14.5 t60 3q18 0 31.5 -0.5t32 -3t30.5 -6.5t27.5 -11t24 -17.5t19 -25.5t12.5 -34.5t5 -45t-4 -56.5l-21 -148q-8 -57 -27 -97t-40 -60.5t-53.5 -32t-56 -13.5t-58.5 -2z" />
<glyph horiz-adv-x="463" d="M169 290h79q71 0 79 54l5 36q8 56 -62 56h-80zM127 0h-119q-3 0 -3 3l76 541h210q25 0 46 -2t47.5 -11.5t43.5 -25t26 -45t4 -69.5l-8 -58q-21 -151 -210 -151h-86l-25 -179q0 -3 -2 -3z" />
<glyph horiz-adv-x="475" d="M196 -5q-19 0 -33 0.5t-32 3t-30.5 7t-27.5 12t-23.5 18t-18.5 26t-12 35.5t-4.5 45.5t4.5 57.5l21 148q7 54 25.5 92t39.5 58.5t52.5 32t56.5 14.5t60 3q18 0 31.5 -0.5t32 -3t30.5 -6.5t27.5 -11t24 -17.5t19 -25.5t12.5 -34.5t5 -45t-4 -56.5l-21 -148 q-11 -83 -45 -131q27 -34 28 -34q0 -1 -1 -4q-1 -2 -35 -32t-36 -31q0 -4 -4 0q-6 6 -34 40q-38 -13 -108 -13zM200 136q-3 1 1 5l71 63q4 2 4 0t23 -30q3 11 7 35l18 128q9 64 -7.5 81.5t-58.5 17.5t-63.5 -17.5t-30.5 -81.5l-18 -128q-9 -65 7 -83t59 -18h10z" />
<glyph horiz-adv-x="477" d="M170 290h79q10 0 20.5 2t23.5 7.5t22.5 17.5t11.5 29l5 32q4 24 -7.5 38t-25 17t-30.5 3h-79zM126 0h-118q-3 0 -3 3l76 541h210q24 0 44.5 -2.5t46.5 -12t43 -26t26.5 -47.5t4.5 -74l-5 -40q-13 -102 -95 -137l62 -202q2 -3 -3 -3h-131q-4 0 -5 3l-47 179h-78l-25 -179 q0 -3 -3 -3z" />
<glyph horiz-adv-x="459" d="M186 -4q-121 0 -185 32q-4 1 -2 5l48 96q0 2 4 2l8 -3q8 -2 21.5 -5.5t31.5 -7t42.5 -6t49.5 -2.5q37 0 59 7.5t25 31.5l4 28q6 39 -87 48q-96 11 -130 40t-24 100l9 62q18 125 206 125q115 0 169 -27q2 -2 2 -3q0 -8 -43 -94q-1 -1 -2.5 -2t-2.5 0l-7 2q-8 2 -21.5 4.5 t-29.5 4.5t-37 4t-41 2q-62 0 -68 -36l-4 -25q-3 -21 13 -31t69 -16q95 -12 131 -42.5t27 -101.5l-8 -61q-6 -42 -28.5 -70t-58.5 -40.5t-67.5 -16.5t-72.5 -4z" />
<glyph horiz-adv-x="427" d="M114 0q-3 0 -3 3l61 431h-138q-3 0 -3 3l15 104q0 3 3 3h401q3 0 3 -3l-15 -104q0 -3 -3 -3h-138l-61 -431q0 -3 -3 -3h-119z" />
<glyph horiz-adv-x="490" d="M189 -4q-107 0 -141 49.5t-18 161.5l47 334q0 3 4 3h119q2 0 2 -3l-45 -325q-11 -50 -2.5 -78.5t49.5 -28.5h33q40 0 55 23.5t23 83.5l46 325q0 3 4 3h119q2 0 2 -3l-47 -334q-7 -53 -19 -88.5t-36 -65t-64 -43.5t-99 -14h-32z" />
<glyph horiz-adv-x="490" d="M133 0q-2 0 -4 2q1 2 -43 270t-44 269q0 3 2 3h125q3 0 4 -3l49 -365h14q154 363 154 365q0 3 4 3h123q3 0 2 -3l-241 -538q-2 -3 -5 -3h-140z" />
<glyph horiz-adv-x="689" d="M95 0q-5 0 -5 4q0 5 -22 269.5t-23 267.5q0 3 2 3h124q1 0 3 -3l23 -346h15q102 244 103 246q1 3 4 3h97q4 0 5 -4l32 -245h16q119 344 120 346q1 3 4 3h124q3 0 2 -3q-1 -1 -99 -267.5t-99 -269.5q-1 -4 -5 -4h-145q-6 0 -6 4l-21 240h-10q-86 -235 -88 -240 q-3 -4 -6 -4h-145z" />
<glyph horiz-adv-x="462" d="M-33 0q-3 0 -2 3l197 278q-110 258 -111 260q-1 3 2 3h129q2 0 4 -3l58 -142h5q95 140 97 142q3 3 4 3h130q1 0 2 -1t0 -2l-184 -260q117 -277 118 -278q3 -3 -2 -3h-129q-4 0 -5 3l-64 161h-5q-109 -159 -110 -161q-1 -3 -5 -3h-129z" />
<glyph horiz-adv-x="451" d="M126 0q-3 0 -3 3l29 206q-111 330 -112 332q-1 3 1 3h126q3 0 4 -3l61 -197h6q114 195 115 197q1 3 4 3h123q4 0 3 -3l-206 -332l-29 -206q0 -3 -4 -3h-118z" />
<glyph horiz-adv-x="426" d="M-10 0q-2 0 -2 3l15 102q0 4 4 8l262 313l1 8h-209q-3 0 -3 3l15 104q0 3 3 3h353q3 0 3 -3l-14 -101q-1 -6 -5 -10l-262 -312l-1 -9h218q3 0 3 -3l-15 -103q0 -3 -3 -3h-363z" />
<glyph horiz-adv-x="366" d="M85 447q-3 0 -3 3l13 91q0 3 3 3h87q3 0 3 -3l-13 -91q0 -3 -3 -3h-87zM241 447q-4 0 -4 3l13 91q0 3 4 3h85q3 0 3 -3l-13 -91q0 -3 -3 -3h-85z" />
<glyph horiz-adv-x="367" d="M199 442l-61 116q-3 3 1 3h101q2 0 4 -3l42 -117q2 -3 0 -3h-83q-3 0 -4 4z" />
<glyph horiz-adv-x="367" d="M160 437h-82q-3 0 -1 4q1 2 24 30t45 55.5t22 31.5l3 2q3 1 5 1h92q5 0 7 -3l5 -9q4 -9 10.5 -21.5t14 -28t13.5 -28t11 -21.5t5 -10q3 -3 0 -3h-83q-4 0 -6 4l-30 54h-3q-44 -52 -46 -54q-4 -4 -6 -4z" />
<glyph horiz-adv-x="367" d="M90 450q-2 0 -2 4l8 59q2 7 8 14q4 4 11.5 10t23 12t31.5 6q23 0 54 -15t49 -15q19 0 40 14t23 14t2 -4l-8 -58q-2 -12 -7 -16q-35 -31 -68 -31q-24 0 -54 16.5t-46 16.5q-20 0 -43 -13z" />
<glyph horiz-adv-x="367" d="M326 457h-234q-3 0 -3 3l11 79q0 3 4 3h234q1 0 1 -3l-11 -79q0 -3 -2 -3z" />
<glyph horiz-adv-x="367" d="M213 441q-3 -3 -5 -3h-83q-3 0 -1 3l77 117q1 3 4 3h101q4 0 1 -3z" />
<glyph horiz-adv-x="367" d="M150 -130h-101q-3 0 -1 3q1 1 40.5 66t40.5 66q3 3 5 3h82q2 0 1 -3l-63 -132q-2 -3 -4 -3z" />
<glyph horiz-adv-x="366" d="M205 437q-106 0 -106 91q0 23 8 23h50q7 0 8 -5q6 -22 15.5 -28.5t34.5 -6.5q41 0 58 35q3 5 10 5h49q4 0 5.5 -1t0.5 -4q-20 -109 -133 -109z" />
<glyph horiz-adv-x="367" d="M150 441q-3 0 -3 3l14 97q0 3 3 3h108q3 0 3 -3l-14 -97q0 -3 -4 -3h-107z" />
<glyph horiz-adv-x="366" d="M206 469q16 0 25.5 6.5t14.5 27.5l2 8q7 33 -30 33q-36 0 -41 -33l-1 -8q-3 -20 5.5 -27t24.5 -7zM199 421q-18 0 -30 2.5t-24.5 9.5t-17.5 23t-1 41l3 20q7 44 32.5 59t64.5 15q17 0 28.5 -2t23.5 -9t17 -22.5t2 -40.5l-2 -20q-4 -33 -20.5 -50.5t-33.5 -21.5t-42 -4z " />
<glyph horiz-adv-x="367" d="M145 440q-1 -3 -4 -3h-83q-2 0 -1 3l76 117q1 3 5 3h101q3 0 1 -3q-1 -1 -47.5 -58.5t-47.5 -58.5zM281 440q-1 -3 -4 -3h-83q-2 0 -2 3q2 1 39 58.5t39 58.5q0 3 4 3h101q4 0 1 -3q-2 -2 -48 -58.5t-47 -58.5z" />
<glyph horiz-adv-x="366" d="M118 -151q-71 0 -71 59q0 56 63 97q5 3 12 3h89q6 0 3 -4q-1 -2 -3 -3q-38 -19 -56 -32.5t-18 -29.5q0 -10 12 -10q8 0 22 7q4 4 7 -1l20 -53q2 -5 -1 -8t-12.5 -8t-28.5 -11t-38 -6z" />
<glyph horiz-adv-x="366" d="M265 558h86q4 0 1 -3l-104 -117q-4 -4 -6 -4h-77q-5 0 -7 3t-35.5 59t-34.5 59q-2 3 1 3h86q3 0 5 -3l31 -53h3q45 51 47 53q3 3 4 3z" />
<glyph horiz-adv-x="486" d="M84 0h-124q-4 0 -2 3q1 1 125 269t125 269q2 3 4 3h136q4 0 5 -3l95 -538q2 -3 -3 -3h-123q-2 0 -4 3l-12 91h-181q-37 -89 -38 -91q-1 -3 -3 -3zM167 191h126l-26 201h-17zM282 602l-61 116q-3 3 1 3h101q3 0 4 -3l42 -117q1 -3 0 -3h-83q-3 0 -4 4z" />
<glyph horiz-adv-x="486" d="M84 0h-124q-4 0 -2 3q1 1 125 269t125 269q2 3 4 3h136q4 0 5 -3l95 -538q2 -3 -3 -3h-123q-2 0 -4 3l-12 91h-181q-37 -89 -38 -91q-1 -3 -3 -3zM167 191h126l-26 201h-17zM292 601q-3 -3 -5 -3h-83q-2 0 -1 3l77 117q2 3 4 3h101q4 0 1 -3z" />
<glyph horiz-adv-x="486" d="M84 0h-124q-4 0 -2 3q1 1 125 269t125 269q2 3 4 3h136q4 0 5 -3l95 -538q2 -3 -3 -3h-123q-2 0 -4 3l-12 91h-181q-37 -89 -38 -91q-1 -3 -3 -3zM241 597h-82q-3 0 -1 4q2 3 46.5 58t46.5 59l2 2q2 1 4 1h92q5 0 7 -3l59 -118q3 -3 0 -3h-83q-4 0 -6 4l-30 54h-3 q-44 -52 -46 -54q-4 -4 -6 -4zM167 191h126l-26 201h-17z" />
<glyph horiz-adv-x="486" d="M84 0h-124q-4 0 -2 3q1 1 125 269t125 269q2 3 4 3h136q4 0 5 -3l95 -538q2 -3 -3 -3h-123q-2 0 -4 3l-12 91h-181q-37 -89 -38 -91q-1 -3 -3 -3zM173 610q-3 0 -3 4l8 59q2 7 8 14q4 4 11.5 10t23 12t31.5 6q23 0 54 -15t49 -15q19 0 40 14t23 14q3 0 2 -4l-8 -58 q-2 -12 -7 -16q-35 -31 -67 -31q-24 0 -54.5 16.5t-46.5 16.5q-20 0 -42 -13zM167 191h126l-26 201h-17z" />
<glyph horiz-adv-x="486" d="M84 0h-124q-4 0 -2 3q1 1 125 269t125 269q2 3 4 3h136q4 0 5 -3l95 -538q2 -3 -3 -3h-123q-2 0 -4 3l-12 91h-181q-37 -89 -38 -91q-1 -3 -3 -3zM167 191h126l-26 201h-17zM167 607q-3 0 -2 3l12 91q1 3 4 3h87q1 0 2 -1t0 -2l-12 -91q-2 -3 -4 -3h-87zM323 607 q-4 0 -3 3l12 91q2 3 5 3h85q2 0 2.5 -1t-0.5 -2l-12 -91q-2 -3 -4 -3h-85z" />
<glyph horiz-adv-x="486" d="M84 0h-124q-4 0 -2 3q1 1 125 269t125 269q2 3 4 3h136q4 0 5 -3l95 -538q2 -3 -3 -3h-123q-2 0 -4 3l-12 91h-181q-37 -89 -38 -91q-1 -3 -3 -3zM284 581q-24 0 -40 4t-27.5 22t-6.5 50l3 20q7 44 32.5 59t64.5 15q17 0 28.5 -2t24.5 -9t18 -22.5t1 -40.5l-3 -20 q-4 -25 -13 -41t-23.5 -23.5t-27.5 -9.5t-31 -2zM167 191h126l-26 201h-17zM290 629q37 0 41 34l1 8q3 19 -5 26t-24 7q-37 0 -42 -33l-1 -8q-3 -20 5.5 -27t24.5 -7z" />
<glyph horiz-adv-x="434" d="M185 -130h-101q-2 0 -1 3l76 125q-76 7 -115.5 51t-24.5 152l21 149q7 51 25 88.5t40.5 58.5t54 33t59.5 15.5t64 3.5q47 0 82.5 -6t47 -10.5t13.5 -6.5q2 -1 0 -5l-5 -10q-5 -10 -12 -23.5t-14 -27.5l-12 -24l-5 -9q0 -2 -4 -2l-6 1q-6 2 -16.5 4t-23 3.5t-29 3 t-31.5 1.5q-26 0 -43 -4.5t-36 -28t-25 -68.5l-18 -126q-9 -62 10.5 -80.5t64.5 -18.5q18 0 36.5 1.5t32.5 4t25.5 4.5t18 3.5t7.5 1.5q2 0 3 -1l21 -95q0 -4 -2 -5q-45 -22 -115 -28l-59 -125q-1 -3 -4 -3z" />
<glyph horiz-adv-x="423" d="M5 0l76 544h346q3 0 3 -3l-14 -101q0 -4 -4 -4h-222l-15 -108h185q3 0 3 -3l-14 -100q0 -4 -4 -4h-185l-16 -113h222q3 0 3 -4l-15 -101q0 -3 -3 -3h-346zM251 602l-62 116q-1 3 1 3h101q3 0 4 -3l42 -117q1 -3 0 -3h-83q-3 0 -3 4z" />
<glyph horiz-adv-x="423" d="M5 0l76 544h346q3 0 3 -3l-14 -101q0 -4 -4 -4h-222l-15 -108h185q3 0 3 -3l-14 -100q0 -4 -4 -4h-185l-16 -113h222q3 0 3 -4l-15 -101q0 -3 -3 -3h-346zM269 601q-3 -3 -5 -3h-83q-3 0 -1 3l77 117q1 3 4 3h101q4 0 1 -3z" />
<glyph horiz-adv-x="423" d="M5 0l76 544h346q3 0 3 -3l-14 -101q0 -4 -4 -4h-222l-15 -108h185q3 0 3 -3l-14 -100q0 -4 -4 -4h-185l-16 -113h222q3 0 3 -4l-15 -101q0 -3 -3 -3h-346zM217 597h-82q-3 0 -1 4q2 3 46.5 58t46.5 59l2 2q2 1 4 1h92q5 0 7 -3l59 -118q3 -3 0 -3h-83q-3 0 -5 4l-31 54 h-3q-43 -52 -45 -54q-4 -4 -7 -4z" />
<glyph horiz-adv-x="423" d="M5 0l76 544h346q3 0 3 -3l-14 -101q0 -4 -4 -4h-222l-15 -108h185q3 0 3 -3l-14 -100q0 -4 -4 -4h-185l-16 -113h222q3 0 3 -4l-15 -101q0 -3 -3 -3h-346zM136 607q-3 0 -2 3l13 91q0 3 3 3h87q3 0 3 -3l-13 -91q0 -3 -4 -3h-87zM292 607q-4 0 -3 3l13 91q0 3 4 3h85 q3 0 3 -3l-13 -91q0 -3 -4 -3h-85z" />
<glyph horiz-adv-x="214" d="M8 0q-3 0 -3 3l76 538q0 3 3 3h119q2 0 2 -3l-76 -538q0 -3 -2 -3h-119zM147 602l-62 116q-1 3 2 3h101q2 0 4 -3l42 -117q2 -3 0 -3h-83q-3 0 -4 4z" />
<glyph horiz-adv-x="214" d="M8 0q-3 0 -3 3l76 538q0 3 3 3h119q2 0 2 -3l-76 -538q0 -3 -2 -3h-119zM156 601q-2 -3 -4 -3h-83q-3 0 -1 3l77 117q1 3 4 3h101q4 0 1 -3z" />
<glyph horiz-adv-x="214" d="M8 0q-3 0 -3 3l76 538q0 3 3 3h119q2 0 2 -3l-76 -538q0 -3 -2 -3h-119zM105 597h-82q-3 0 -1 4q2 3 46.5 58t46.5 59l2 2q2 1 4 1h92q5 0 7 -3l59 -118q3 -3 0 -3h-83q-4 0 -6 4l-30 54h-3q-44 -52 -46 -54q-4 -4 -6 -4z" />
<glyph horiz-adv-x="214" d="M8 0q-3 0 -3 3l76 538q0 3 3 3h119q2 0 2 -3l-76 -538q0 -3 -2 -3h-119zM31 607q-3 0 -2 3l13 91q0 3 3 3h87q3 0 3 -3l-13 -91q0 -3 -4 -3h-87zM187 607q-4 0 -3 3l13 91q0 3 4 3h85q3 0 3 -3l-13 -91q0 -3 -4 -3h-85z" />
<glyph horiz-adv-x="514" d="M5 0q-3 0 -3 3l76 538q0 3 3 3h132q4 0 5 -2l118 -325h8l46 324q0 3 3 3h117q3 0 3 -3l-76 -538q0 -3 -4 -3h-134q-3 0 -4 3l-117 324h-9l-46 -324q0 -3 -3 -3h-115zM187 610q-3 0 -3 4l8 59q2 7 8 14q4 4 11.5 10t23 12t31.5 6q23 0 54 -15t49 -15q19 0 40 14t23 14 q3 0 2 -4l-8 -58q-2 -12 -7 -16q-35 -31 -67 -31q-24 0 -54.5 16.5t-46.5 16.5q-20 0 -42 -13z" />
<glyph horiz-adv-x="475" d="M196 -5q-19 0 -33 0.5t-32 3t-30.5 7t-27.5 12t-23.5 18t-18.5 26t-12 35.5t-4.5 45.5t4.5 57.5l21 148q7 54 25.5 92t39.5 58.5t52.5 32t56.5 14.5t60 3q18 0 31.5 -0.5t32 -3t30.5 -6.5t27.5 -11t24 -17.5t19 -25.5t12.5 -34.5t5 -45t-4 -56.5l-21 -148q-8 -57 -27 -97 t-40 -60.5t-53.5 -32t-56 -13.5t-58.5 -2zM212 108q43 0 64 18t30 83l18 128q9 64 -7.5 81.5t-58.5 17.5t-63.5 -17.5t-30.5 -81.5l-18 -128q-9 -65 7 -83t59 -18zM277 602l-61 116q-3 3 1 3h101q2 0 4 -3l42 -117q2 -3 0 -3h-83q-3 0 -4 4z" />
<glyph horiz-adv-x="475" d="M196 -5q-19 0 -33 0.5t-32 3t-30.5 7t-27.5 12t-23.5 18t-18.5 26t-12 35.5t-4.5 45.5t4.5 57.5l21 148q7 54 25.5 92t39.5 58.5t52.5 32t56.5 14.5t60 3q18 0 31.5 -0.5t32 -3t30.5 -6.5t27.5 -11t24 -17.5t19 -25.5t12.5 -34.5t5 -45t-4 -56.5l-21 -148q-8 -57 -27 -97 t-40 -60.5t-53.5 -32t-56 -13.5t-58.5 -2zM212 108q43 0 64 18t30 83l18 128q9 64 -7.5 81.5t-58.5 17.5t-63.5 -17.5t-30.5 -81.5l-18 -128q-9 -65 7 -83t59 -18zM287 601q-3 -3 -5 -3h-83q-3 0 -1 3l77 117q1 3 4 3h101q4 0 1 -3z" />
<glyph horiz-adv-x="475" d="M212 108q43 0 64 18t30 83l18 128q9 64 -7.5 81.5t-58.5 17.5t-63.5 -17.5t-30.5 -81.5l-18 -128q-9 -65 7 -83t59 -18zM196 -5q-19 0 -33 0.5t-32 3t-30.5 7t-27.5 12t-23.5 18t-18.5 26t-12 35.5t-4.5 45.5t4.5 57.5l21 148q7 54 25.5 92t39.5 58.5t52.5 32t56.5 14.5 t60 3q18 0 31.5 -0.5t32 -3t30.5 -6.5t27.5 -11t24 -17.5t19 -25.5t12.5 -34.5t5 -45t-4 -56.5l-21 -148q-8 -57 -27 -97t-40 -60.5t-53.5 -32t-56 -13.5t-58.5 -2zM236 597h-82q-3 0 -1 4q1 2 24 30t45 55.5t22 31.5l3 2q3 1 5 1h92q5 0 7 -3l59 -118q3 -3 0 -3h-83 q-4 0 -6 4l-30 54h-3q-44 -52 -46 -54q-4 -4 -6 -4z" />
<glyph horiz-adv-x="475" d="M212 108q43 0 64 18t30 83l18 128q9 64 -7.5 81.5t-58.5 17.5t-63.5 -17.5t-30.5 -81.5l-18 -128q-9 -65 7 -83t59 -18zM196 -5q-19 0 -33 0.5t-32 3t-30.5 7t-27.5 12t-23.5 18t-18.5 26t-12 35.5t-4.5 45.5t4.5 57.5l21 148q7 54 25.5 92t39.5 58.5t52.5 32t56.5 14.5 t60 3q18 0 31.5 -0.5t32 -3t30.5 -6.5t27.5 -11t24 -17.5t19 -25.5t12.5 -34.5t5 -45t-4 -56.5l-21 -148q-8 -57 -27 -97t-40 -60.5t-53.5 -32t-56 -13.5t-58.5 -2zM168 610q-3 0 -3 4l8 59q1 7 8 14q4 4 11.5 10t23 12t31.5 6q23 0 54 -15t49 -15q19 0 40 14t23 14 q3 0 2 -4l-8 -58q-2 -12 -7 -16q-35 -31 -67 -31q-24 0 -54.5 16.5t-46.5 16.5q-20 0 -42 -13z" />
<glyph horiz-adv-x="475" d="M196 -5q-19 0 -33 0.5t-32 3t-30.5 7t-27.5 12t-23.5 18t-18.5 26t-12 35.5t-4.5 45.5t4.5 57.5l21 148q7 54 25.5 92t39.5 58.5t52.5 32t56.5 14.5t60 3q18 0 31.5 -0.5t32 -3t30.5 -6.5t27.5 -11t24 -17.5t19 -25.5t12.5 -34.5t5 -45t-4 -56.5l-21 -148q-8 -57 -27 -97 t-40 -60.5t-53.5 -32t-56 -13.5t-58.5 -2zM212 108q43 0 64 18t30 83l18 128q9 64 -7.5 81.5t-58.5 17.5t-63.5 -17.5t-30.5 -81.5l-18 -128q-9 -65 7 -83t59 -18zM162 607q-3 0 -2 3l12 91q2 3 4 3h87q1 0 2 -1t0 -2l-12 -91q-1 -3 -4 -3h-87zM318 607q-4 0 -3 3l12 91 q1 3 5 3h85q2 0 2.5 -1t-0.5 -2l-12 -91q-1 -3 -4 -3h-85z" />
<glyph horiz-adv-x="490" d="M189 -4q-107 0 -141 49.5t-18 161.5l47 334q0 3 4 3h119q2 0 2 -3l-45 -325q-11 -50 -2.5 -78.5t49.5 -28.5h33q40 0 55 23.5t23 83.5l46 325q0 3 4 3h119q2 0 2 -3l-47 -334q-7 -53 -19 -88.5t-36 -65t-64 -43.5t-99 -14h-32zM285 602l-62 116q-1 3 1 3h101q3 0 4 -3 l43 -117q2 -3 -1 -3h-83q-3 0 -3 4z" />
<glyph horiz-adv-x="490" d="M189 -4q-107 0 -141 49.5t-18 161.5l47 334q0 3 4 3h119q2 0 2 -3l-45 -325q-11 -50 -2.5 -78.5t49.5 -28.5h33q40 0 55 23.5t23 83.5l46 325q0 3 4 3h119q2 0 2 -3l-47 -334q-7 -53 -19 -88.5t-36 -65t-64 -43.5t-99 -14h-32zM295 601q-3 -3 -5 -3h-83q-3 0 0 3l76 117 q1 3 4 3h101q4 0 1 -3z" />
<glyph horiz-adv-x="490" d="M189 -4q-107 0 -141 49.5t-18 161.5l47 334q0 3 4 3h119q2 0 2 -3l-45 -325q-11 -50 -2.5 -78.5t49.5 -28.5h33q40 0 55 23.5t23 83.5l46 325q0 3 4 3h119q2 0 2 -3l-47 -334q-7 -53 -19 -88.5t-36 -65t-64 -43.5t-99 -14h-32zM243 597h-82q-2 0 0 4q2 3 46 58t46 59l2 2 q2 1 4 1h92q5 0 7 -3q56 -112 60 -118q0 -2 -1 -3h-83q-3 0 -5 4l-31 54h-3q-43 -52 -45 -54q-4 -4 -7 -4z" />
<glyph horiz-adv-x="490" d="M189 -4q-107 0 -141 49.5t-18 161.5l47 334q0 3 4 3h119q2 0 2 -3l-45 -325q-11 -50 -2.5 -78.5t49.5 -28.5h33q40 0 55 23.5t23 83.5l46 325q0 3 4 3h119q2 0 2 -3l-47 -334q-7 -53 -19 -88.5t-36 -65t-64 -43.5t-99 -14h-32zM169 607q-2 0 -2 3l13 91q0 3 3 3h87 q3 0 3 -3l-13 -91q0 -3 -4 -3h-87zM325 607q-3 0 -3 3l13 91q0 3 4 3h85q3 0 3 -3l-13 -91q0 -3 -4 -3h-85z" />
<glyph horiz-adv-x="451" d="M126 0q-3 0 -3 3l29 206q-111 330 -112 332q-1 3 1 3h126q3 0 4 -3l61 -197h6q114 195 115 197q1 3 4 3h123q4 0 3 -3l-206 -332l-29 -206q0 -3 -4 -3h-118zM274 601q-2 -3 -4 -3h-83q-3 0 -1 3l76 117q2 3 5 3h101q4 0 1 -3z" />
<glyph horiz-adv-x="451" d="M126 0q-3 0 -3 3l29 206q-111 330 -112 332q-1 3 1 3h126q3 0 4 -3l61 -197h6q114 195 115 197q1 3 4 3h123q4 0 3 -3l-206 -332l-29 -206q0 -3 -4 -3h-118zM152 607q-3 0 -3 3l13 91q0 3 3 3h87q3 0 3 -3l-13 -91q0 -3 -3 -3h-87zM308 607q-4 0 -4 3l13 91q0 3 4 3h85 q3 0 3 -3l-13 -91q0 -3 -3 -3h-85z" />
<glyph horiz-adv-x="475" d="M-5 -32q-1 1 -1 2t7 12.5t20 31t20 30.5q-37 49 -22 156l21 148q7 54 25.5 92t39.5 58.5t52.5 32t56.5 14.5t60 3q50 0 79 -7l22 33q1 3 6 3h96q1 0 0 -3l-49 -76q38 -49 24 -150l-21 -148q-8 -57 -27 -97t-40 -60.5t-53.5 -32t-56 -13.5t-58.5 -2q-50 0 -80 6 q-4 -6 -9 -14t-7 -12l-3 -4q-5 -3 -6 -3h-96zM212 108q43 0 64 18t30 83l18 128q9 64 -7.5 81.5t-58.5 17.5t-63.5 -17.5t-30.5 -81.5l-18 -128q-9 -65 7 -83t59 -18z" />
<glyph horiz-adv-x="459" d="M186 -4q-121 0 -185 32q-4 1 -2 5l48 96q0 2 4 2l8 -3q8 -2 21.5 -5.5t31.5 -7t42.5 -6t49.5 -2.5q37 0 59 7.5t25 31.5l4 28q6 39 -87 48q-96 11 -130 40t-24 100l9 62q18 125 206 125q115 0 169 -27q2 -2 2 -3q0 -8 -43 -94q-1 -1 -2.5 -2t-2.5 0l-7 2q-8 2 -21.5 4.5 t-29.5 4.5t-37 4t-41 2q-62 0 -68 -36l-4 -25q-3 -21 13 -31t69 -16q95 -12 131 -42.5t27 -101.5l-8 -61q-6 -42 -28.5 -70t-58.5 -40.5t-67.5 -16.5t-72.5 -4zM334 714h86q4 0 2 -3l-105 -117q-4 -4 -6 -4h-77q-4 0 -7 3q-2 4 -35.5 59.5t-34.5 58.5t1 3h86q4 0 5 -3 l31 -53h3q45 51 47 53q3 3 4 3z" />
<glyph horiz-adv-x="426" d="M-10 0q-2 0 -2 3l15 102q0 4 4 8l262 313l1 8h-209q-3 0 -3 3l15 104q0 3 3 3h353q3 0 3 -3l-14 -101q-1 -6 -5 -10l-262 -312l-1 -9h218q3 0 3 -3l-15 -103q0 -3 -3 -3h-363zM317 714h86q3 0 2 -3l-105 -117q-4 -4 -6 -4h-77q-4 0 -7 3q-2 4 -35.5 59.5t-34.5 58.5 q-2 3 1 3h86q3 0 5 -3l31 -53h3q45 51 47 53q3 3 4 3z" />
<glyph horiz-adv-x="702" d="M91 0h-125q-2 0 -1 3l346 538q1 3 5 3h384q4 0 4 -3l-14 -101q0 -4 -5 -4h-207l-15 -107h171q2 0 2 -3l-15 -101q0 -4 -2 -4h-171l-16 -113h207q3 0 3 -4l-14 -101q0 -3 -4 -3h-331l13 94h-157q-52 -88 -54 -91q-1 -3 -4 -3zM208 191h112l29 210h-18z" />
<glyph horiz-adv-x="696" d="M213 108q20 0 31.5 2.5t25.5 12.5t23.5 33t14.5 61l16 113q1 26 2.5 43.5t-4.5 29.5t-10.5 18.5t-15 9.5t-18 4t-19.5 1q-19 0 -30.5 -2.5t-26 -12t-24 -32t-14.5 -58.5l-16 -116q-7 -31 -2.5 -51t7.5 -31t15 -17t21 -7t24 -1zM196 -1q-17 0 -30 0.5t-31 3t-30 6.5 t-27.5 11.5t-24 18.5t-19 26.5t-13 36t-5 46.5t4.5 59l19 135q9 67 32.5 110t59 62t66.5 25t75 6q37 0 79 -19l2 18h346q3 0 3 -3l-15 -101q0 -4 -3 -4h-221l-15 -107h184q2 0 2 -3l-14 -101q0 -4 -3 -4h-184l-16 -113h221q3 0 2 -4l-14 -101q0 -3 -3 -3h-346l2 18 q-48 -19 -84 -19z" />
<glyph horiz-adv-x="479" d="M145 113h70q21 0 32.5 2.5t25.5 11.5t22.5 31t13.5 57l16 116q1 24 3 41t-4.5 28t-10.5 17.5t-15 9.5t-18 3.5t-20 0.5h-70l-16 -109h67q2 0 2 -3l-13 -89q0 -4 -2 -4h-67zM197 0h-192l32 226h-30q-3 0 -3 4l13 89q0 3 3 3h30l31 222h192q16 0 27.5 -0.5t28 -2t28 -4.5 t26.5 -8.5t24 -13t20.5 -19t16 -26t10.5 -33.5t4 -42.5t-4 -52.5l-19 -136q-8 -58 -27.5 -98.5t-41 -61t-55.5 -31.5t-56.5 -13t-57.5 -2z" />
<glyph horiz-adv-x="463" d="M159 212h79q70 0 78 54l4 28q8 57 -62 57h-80zM126 0h-118q-3 0 -3 3l76 538q0 3 3 3h118q3 0 3 -3l-12 -83h86q25 0 45 -2t47 -11t44 -24.5t27 -45t4 -70.5l-7 -50q-21 -151 -210 -151h-86l-14 -101q0 -3 -3 -3z" />
<glyph horiz-adv-x="413" d="M5 0l27 191q-37 -21 -39 -22q-3 -1 -3 2l14 100q0 3 4 5l39 22l34 244q2 2 4 2h118q2 0 2 -3l-24 -170q109 62 110 62q3 1 3 -2l-14 -100q0 -1 -4 -5l-110 -62l-22 -156h222q3 0 3 -4l-14 -101q0 -3 -4 -3h-346z" />
<glyph horiz-adv-x="486" d="M84 0h-124q-4 0 -2 3q1 1 125 269t125 269q2 3 4 3h136q4 0 5 -3l95 -538q2 -3 -3 -3h-123q-2 0 -4 3l-12 91h-181q-37 -89 -38 -91q-1 -3 -3 -3zM406 613h-234q-3 0 -3 3l12 79q0 3 3 3h234q1 0 1 -3l-11 -79q0 -3 -2 -3zM167 191h126l-26 201h-17z" />
<glyph horiz-adv-x="486" d="M84 0h-124q-4 0 -2 3q1 1 125 269t125 269q2 3 4 3h136q4 0 5 -3l95 -538q2 -3 -3 -3h-123q-2 0 -4 3l-12 91h-181q-37 -89 -38 -91q-1 -3 -3 -3zM287 593q-106 0 -106 91q0 23 8 23h50q7 0 8 -5q6 -22 15.5 -28.5t34.5 -6.5q23 0 35 7.5t22 27.5q2 5 11 5h49q6 0 5 -5 q-20 -109 -132 -109zM167 191h126l-26 201h-17z" />
<glyph horiz-adv-x="486" d="M350 -153q-71 0 -71 59q0 55 58 94h-15q-2 0 -4 3l-12 91h-181q-37 -89 -38 -91q-1 -3 -3 -3h-124q-4 0 -2 3q1 1 125 269t125 269q2 3 4 3h136q4 0 5 -3l95 -538q2 -3 -3 -3q-1 0 -1 -1q-26 -13 -39 -20.5t-24.5 -19t-11.5 -22.5q0 -10 13 -10q7 0 21 7q3 4 8 -1l20 -53 q1 -4 -2 -8q-3 -3 -12.5 -8t-28.5 -11t-38 -6zM167 191h126l-26 201h-17z" />
<glyph horiz-adv-x="434" d="M204 -4q-46 0 -77.5 6.5t-62.5 26.5t-42.5 63t-2.5 109l21 149q7 51 25 88.5t40.5 58.5t54 33t59.5 15.5t64 3.5q47 0 82.5 -6t47 -10.5t13.5 -6.5q2 -1 0 -5l-5 -10q-5 -10 -12 -23.5t-14 -27.5l-12 -24l-5 -9q0 -2 -5 -2l-6 1q-6 2 -16 4t-22.5 3.5t-29 3t-31.5 1.5 q-26 0 -43 -4.5t-36 -28t-25 -68.5l-18 -126q-9 -62 10 -80.5t64 -18.5q18 0 36.5 1.5t32.5 4t25.5 4.5t18 3.5t7.5 1.5q4 2 4 -1l21 -95q0 -4 -2 -5q-60 -30 -159 -30zM293 596q-3 -3 -5 -3h-83q-3 0 -1 3l77 117q1 3 4 3h101q4 0 1 -3z" />
<glyph horiz-adv-x="434" d="M204 -4q-46 0 -77.5 6.5t-62.5 26.5t-42.5 63t-2.5 109l21 149q7 51 25 88.5t40.5 58.5t54 33t59.5 15.5t64 3.5q47 0 82.5 -6t47 -10.5t13.5 -6.5q2 -1 0 -5l-5 -10q-5 -10 -12 -23.5t-14 -27.5l-12 -24l-5 -9q0 -2 -5 -2l-6 1q-6 2 -16 4t-22.5 3.5t-29 3t-31.5 1.5 q-26 0 -43 -4.5t-36 -28t-25 -68.5l-18 -126q-9 -62 10 -80.5t64 -18.5q18 0 36.5 1.5t32.5 4t25.5 4.5t18 3.5t7.5 1.5q4 2 4 -1l21 -95q0 -4 -2 -5q-60 -30 -159 -30zM243 593h-82q-3 0 -1 4q2 3 46.5 58t46.5 59l2 2q2 1 4 1h92q5 0 7 -3l4 -9q5 -9 11.5 -21.5t14 -28 t13.5 -28t11 -21.5t5 -10q3 -3 0 -3h-83q-3 0 -5 4l-31 54h-3q-43 -52 -45 -54q-4 -4 -7 -4z" />
<glyph horiz-adv-x="434" d="M204 -4q-46 0 -77.5 6.5t-62.5 26.5t-42.5 63t-2.5 109l21 149q7 51 25 88.5t40.5 58.5t54 33t59.5 15.5t64 3.5q47 0 82.5 -6t47 -10.5t13.5 -6.5q2 -1 0 -5l-5 -10q-5 -10 -12 -23.5t-14 -27.5l-12 -24l-5 -9q0 -2 -5 -2l-6 1q-6 2 -16 4t-22.5 3.5t-29 3t-31.5 1.5 q-26 0 -43 -4.5t-36 -28t-25 -68.5l-18 -126q-9 -62 10 -80.5t64 -18.5q18 0 36.5 1.5t32.5 4t25.5 4.5t18 3.5t7.5 1.5q4 2 4 -1l21 -95q0 -4 -2 -5q-60 -30 -159 -30zM235 597q-3 0 -3 3l14 97q0 3 3 3h108q3 0 3 -3l-14 -97q0 -3 -4 -3h-107z" />
<glyph horiz-adv-x="434" d="M204 -4q-46 0 -77.5 6.5t-62.5 26.5t-42.5 63t-2.5 109l21 149q7 51 25 88.5t40.5 58.5t54 33t59.5 15.5t64 3.5q47 0 82.5 -6t47 -10.5t13.5 -6.5q2 -1 0 -5l-5 -10q-5 -10 -12 -23.5t-14 -27.5l-12 -24l-5 -9q0 -2 -5 -2l-6 1q-6 2 -16 4t-22.5 3.5t-29 3t-31.5 1.5 q-26 0 -43 -4.5t-36 -28t-25 -68.5l-18 -126q-9 -62 10 -80.5t64 -18.5q18 0 36.5 1.5t32.5 4t25.5 4.5t18 3.5t7.5 1.5q4 2 4 -1l21 -95q0 -4 -2 -5q-60 -30 -159 -30zM350 714h86q4 0 1 -3l-104 -117q-4 -4 -6 -4h-77q-4 0 -7 3q-2 4 -35.5 59.5t-34.5 58.5t1 3h86 q2 0 4 -3l32 -53h3q45 51 47 53q3 3 4 3z" />
<glyph horiz-adv-x="479" d="M145 113h69q42 0 63 18.5t31 83.5l17 116q10 65 -7 82.5t-59 17.5h-69zM198 0h-193l76 544h193q33 0 54.5 -2t52 -13t47 -31t25.5 -60t1 -96l-19 -136q-8 -57 -27.5 -97.5t-41 -61t-54.5 -32t-56 -13.5t-58 -2zM336 714h86q4 0 2 -3l-105 -117q-4 -4 -6 -4h-77q-4 0 -6 3 t-36 59t-35 59t1 3h86q4 0 5 -3l31 -53h3q45 51 47 53q3 3 4 3z" />
<glyph horiz-adv-x="479" d="M145 113h70q21 0 32.5 2.5t25.5 11.5t22.5 31t13.5 57l16 116q1 24 3 41t-4.5 28t-10.5 17.5t-15 9.5t-18 3.5t-20 0.5h-70l-16 -109h67q2 0 2 -3l-13 -89q0 -4 -2 -4h-67zM197 0h-192l32 226h-30q-3 0 -3 4l13 89q0 3 3 3h30l31 222h192q16 0 27.5 -0.5t28 -2t28 -4.5 t26.5 -8.5t24 -13t20.5 -19t16 -26t10.5 -33.5t4 -42.5t-4 -52.5l-19 -136q-8 -58 -27.5 -98.5t-41 -61t-55.5 -31.5t-56.5 -13t-57.5 -2z" />
<glyph horiz-adv-x="423" d="M5 0l76 544h346q3 0 3 -3l-14 -101q0 -4 -4 -4h-222l-15 -108h185q3 0 3 -3l-14 -100q0 -4 -4 -4h-185l-16 -113h222q3 0 3 -4l-15 -101q0 -3 -3 -3h-346zM383 613h-234q-1 0 -2 1t0 2l11 79q0 3 3 3h234q2 0 2 -3l-11 -79q0 -3 -3 -3z" />
<glyph horiz-adv-x="423" d="M5 0l76 544h346q3 0 3 -3l-14 -101q0 -4 -4 -4h-222l-15 -108h185q3 0 3 -3l-14 -100q0 -4 -4 -4h-185l-16 -113h222q3 0 3 -4l-15 -101q0 -3 -3 -3h-346zM272 593q-106 0 -106 91q0 23 8 23h50q7 0 8 -5q6 -22 15.5 -28.5t34.5 -6.5q23 0 35.5 7.5t22.5 27.5q2 5 10 5 h49q4 0 5.5 -1t0.5 -4q-20 -109 -133 -109z" />
<glyph horiz-adv-x="423" d="M5 0l76 544h346q3 0 3 -3l-14 -101q0 -4 -4 -4h-222l-15 -108h185q3 0 3 -3l-14 -100q0 -4 -4 -4h-185l-16 -113h222q3 0 3 -4l-15 -101q0 -3 -3 -3h-346zM224 597q-3 0 -3 3l14 97q0 3 3 3h108q3 0 3 -3l-14 -97q0 -3 -4 -3h-107z" />
<glyph horiz-adv-x="423" d="M5 0l76 544h346q3 0 3 -3l-14 -101q0 -4 -4 -4h-222l-15 -108h185q3 0 3 -3l-14 -100q0 -4 -4 -4h-185l-16 -113h222q3 0 3 -4l-15 -101q0 -3 -3 -3h-3q-36 -18 -54 -31.5t-18 -29.5q0 -10 12 -10q8 0 22 7q3 3 7 -1l20 -53q1 -4 -2 -8q-3 -3 -12 -8t-28 -11t-38 -6 q-71 0 -71 59q0 56 55 92h-236z" />
<glyph horiz-adv-x="423" d="M5 0l76 544h346q3 0 3 -3l-14 -101q0 -4 -4 -4h-222l-15 -108h185q3 0 3 -3l-14 -100q0 -4 -4 -4h-185l-16 -113h222q3 0 3 -4l-15 -101q0 -3 -3 -3h-346zM338 714h86q4 0 2 -3l-105 -117q-4 -4 -6 -4h-77q-4 0 -7 3q-2 4 -35.5 59.5t-34.5 58.5t1 3h86q4 0 5 -3l31 -53 h3q45 51 47 53q3 3 4 3z" />
<glyph horiz-adv-x="476" d="M205 -4q-18 0 -32 1t-32.5 3t-31.5 6.5t-28.5 12t-25 18.5t-20 26t-13 35t-5.5 45.5t4 56.5l21 150q8 54 28 93t43 59t57 31.5t57.5 13.5t56.5 2q46 0 87.5 -6.5t60 -12t20.5 -7.5q1 -1 0 -4l-45 -92q-1 -1 -4 -1h-5q-4 1 -11.5 2t-17.5 2.5t-22 3t-24.5 2.5t-27 1.5 t-27.5 0.5q-19 0 -32 -2.5t-29 -11.5t-26 -30.5t-15 -55.5l-18 -129q-9 -63 10.5 -81.5t62.5 -18.5l90 9l12 88h-68q-2 0 -2 4l13 95q0 3 4 3h172l-40 -282q-135 -30 -197 -30zM250 593h-82q-3 0 -1 4q2 3 46.5 58t46.5 59l2 2q2 1 4 1h92q5 0 7 -3l5 -9q4 -9 10.5 -21.5 t14 -28t13.5 -28t11 -21.5t5 -10q3 -3 0 -3h-83q-3 0 -5 4l-31 54h-3q-44 -52 -46 -54q-4 -4 -6 -4z" />
<glyph horiz-adv-x="476" d="M205 -4q-18 0 -32 1t-32.5 3t-31.5 6.5t-28.5 12t-25 18.5t-20 26t-13 35t-5.5 45.5t4 56.5l21 150q8 54 28 93t43 59t57 31.5t57.5 13.5t56.5 2q46 0 87.5 -6.5t60 -12t20.5 -7.5q1 -1 0 -4l-45 -92q-1 -1 -4 -1h-5q-4 1 -11.5 2t-17.5 2.5t-22 3t-24.5 2.5t-27 1.5 t-27.5 0.5q-19 0 -32 -2.5t-29 -11.5t-26 -30.5t-15 -55.5l-18 -129q-9 -63 10.5 -81.5t62.5 -18.5l90 9l12 88h-68q-2 0 -2 4l13 95q0 3 4 3h172l-40 -282q-135 -30 -197 -30zM290 593q-107 0 -107 91q0 23 9 23h50q6 0 7 -5q6 -22 15.5 -28.5t34.5 -6.5q41 0 58 35 q3 5 11 5h49q6 0 5 -5q-20 -109 -132 -109z" />
<glyph horiz-adv-x="476" d="M205 -4q-18 0 -32 1t-32.5 3t-31.5 6.5t-28.5 12t-25 18.5t-20 26t-13 35t-5.5 45.5t4 56.5l21 150q8 54 28 93t43 59t57 31.5t57.5 13.5t56.5 2q46 0 87.5 -6.5t60 -12t20.5 -7.5q1 -1 0 -4l-45 -92q-1 -1 -4 -1h-5q-4 1 -11.5 2t-17.5 2.5t-22 3t-24.5 2.5t-27 1.5 t-27.5 0.5q-19 0 -32 -2.5t-29 -11.5t-26 -30.5t-15 -55.5l-18 -129q-9 -63 10.5 -81.5t62.5 -18.5l90 9l12 88h-68q-2 0 -2 4l13 95q0 3 4 3h172l-40 -282q-135 -30 -197 -30zM229 597q-2 0 -2 3l13 97q3 3 4 3h108q4 0 2 -3l-13 -97q0 -3 -5 -3h-107z" />
<glyph horiz-adv-x="500" d="M8 0q-3 0 -3 3l76 538q0 3 3 3h119q2 0 2 -3l-30 -214h162l30 214q0 3 3 3h119q2 0 2 -3l-76 -538q0 -3 -2 -3h-119q-3 0 -3 3l30 216h-162l-30 -216q0 -3 -2 -3h-119zM247 593h-82q-2 0 0 4q2 3 46 58t46 59l3 2q2 1 4 1h92q4 0 6 -3q56 -112 60 -118q0 -2 -1 -3h-83 q-3 0 -5 4l-31 54h-3q-43 -52 -45 -54q-4 -4 -7 -4z" />
<glyph horiz-adv-x="214" d="M8 0q-3 0 -3 3l76 538q0 3 3 3h119q2 0 2 -3l-76 -538q0 -3 -2 -3h-119zM36 605q-3 0 -2 4l8 59q2 7 8 14q4 4 11.5 10t23 12t31.5 6q23 0 54 -15t49 -15q19 0 40 14t23 14t2 -4l-8 -58q-2 -12 -7 -16q-35 -31 -68 -31q-24 0 -54 16.5t-46 16.5q-20 0 -43 -14z" />
<glyph horiz-adv-x="214" d="M8 0q-3 0 -3 3l76 538q0 3 3 3h119q2 0 2 -3l-76 -538q0 -3 -2 -3h-119zM271 613h-234q-3 0 -3 3l11 79q0 3 4 3h234q1 0 1 -3l-11 -79q0 -3 -2 -3z" />
<glyph horiz-adv-x="214" d="M8 0q-2 0 -2 3l75 538q1 3 4 3h119q1 0 1 -3l-75 -535v-3q0 -3 -3 -3h-3q-24 -12 -37 -20t-24 -19t-11 -22q0 -10 12 -10q8 0 22 7q4 4 7 -1l20 -53q2 -5 -1 -8t-12.5 -8t-28.5 -11t-38 -6q-71 0 -71 59q0 55 55 92h-9z" />
<glyph horiz-adv-x="214" d="M8 0q-3 0 -3 3l76 538q0 3 3 3h119q2 0 2 -3l-76 -538q0 -3 -2 -3h-119zM97 597q-3 0 -3 3l14 97q0 3 3 3h108q3 0 3 -3l-14 -97q0 -3 -4 -3h-107z" />
<glyph horiz-adv-x="395" d="M117 -7q-90 0 -134 22q-3 1 -1 5l44 94q1 2 5 2l5 -1q6 -1 15 -2t20.5 -2.5t27 -2.5t30.5 -1q73 0 81 62l53 372q0 3 3 3h119q3 0 3 -3l-54 -382q-6 -45 -23 -77.5t-37 -49t-50 -26t-52.5 -11.5t-54.5 -2zM287 593h-82q-2 0 0 4q2 3 46 58t46 59l3 2q2 1 4 1h92q4 0 6 -3 q56 -112 60 -118q0 -2 -1 -3h-83q-3 0 -5 4l-31 54h-3q-43 -52 -45 -54q-4 -4 -7 -4z" />
<glyph horiz-adv-x="409" d="M5 0l76 541q0 3 3 3h119q2 0 2 -3l-61 -433h222q3 0 3 -4l-15 -101q0 -3 -3 -3h-346zM253 596q-3 -3 -5 -3h-83q-1 0 0 3l76 117q1 3 5 3h101q3 0 0 -3z" />
<glyph horiz-adv-x="514" d="M5 0q-3 0 -3 3l76 538q0 3 3 3h132q4 0 5 -2l118 -325h8l46 324q0 3 3 3h117q3 0 3 -3l-76 -538q0 -3 -4 -3h-134q-3 0 -4 3l-117 324h-9l-46 -324q0 -3 -3 -3h-115zM306 596q-3 -3 -5 -3h-83q-3 0 0 3l76 117q2 3 4 3h101q4 0 1 -3z" />
<glyph horiz-adv-x="514" d="M5 0q-3 0 -3 3l76 538q0 3 3 3h132q4 0 5 -2l118 -325h8l46 324q0 3 3 3h117q3 0 3 -3l-76 -538q0 -3 -4 -3h-134q-3 0 -4 3l-117 324h-9l-46 -324q0 -3 -3 -3h-115zM362 714h86q4 0 2 -3l-105 -117q-4 -4 -6 -4h-77q-4 0 -7 3q-2 4 -35.5 59.5t-34.5 58.5t1 3h86 q4 0 5 -3l31 -53h3q45 51 47 53q3 3 4 3z" />
<glyph horiz-adv-x="475" d="M212 108q43 0 64 18t30 83l18 128q9 64 -7.5 81.5t-58.5 17.5t-63.5 -17.5t-30.5 -81.5l-18 -128q-9 -65 7 -83t59 -18zM196 -5q-19 0 -33 0.5t-32 3t-30.5 7t-27.5 12t-23.5 18t-18.5 26t-12 35.5t-4.5 45.5t4.5 57.5l21 148q7 54 25.5 92t39.5 58.5t52.5 32t56.5 14.5 t60 3q18 0 31.5 -0.5t32 -3t30.5 -6.5t27.5 -11t24 -17.5t19 -25.5t12.5 -34.5t5 -45t-4 -56.5l-21 -148q-8 -57 -27 -97t-40 -60.5t-53.5 -32t-56 -13.5t-58.5 -2zM401 613h-234q-2 0 -2 3l11 79q0 3 3 3h234q3 0 1 -3l-11 -79q0 -3 -2 -3z" />
<glyph horiz-adv-x="475" d="M212 108q43 0 64 18t30 83l18 128q9 64 -7.5 81.5t-58.5 17.5t-63.5 -17.5t-30.5 -81.5l-18 -128q-9 -65 7 -83t59 -18zM196 -5q-19 0 -33 0.5t-32 3t-30.5 7t-27.5 12t-23.5 18t-18.5 26t-12 35.5t-4.5 45.5t4.5 57.5l21 148q7 54 25.5 92t39.5 58.5t52.5 32t56.5 14.5 t60 3q18 0 31.5 -0.5t32 -3t30.5 -6.5t27.5 -11t24 -17.5t19 -25.5t12.5 -34.5t5 -45t-4 -56.5l-21 -148q-8 -57 -27 -97t-40 -60.5t-53.5 -32t-56 -13.5t-58.5 -2zM282 593q-106 0 -106 91q0 23 8 23h50q7 0 8 -5q6 -22 15.5 -28.5t34.5 -6.5q23 0 35.5 7.5t22.5 27.5 q2 5 10 5h49q6 0 5 -5q-20 -109 -132 -109z" />
<glyph horiz-adv-x="475" d="M196 -5q-19 0 -33 0.5t-32 3t-30.5 7t-27.5 12t-23.5 18t-18.5 26t-12 35.5t-4.5 45.5t4.5 57.5l21 148q7 54 25.5 92t39.5 58.5t52.5 32t56.5 14.5t60 3q18 0 31.5 -0.5t32 -3t30.5 -6.5t27.5 -11t24 -17.5t19 -25.5t12.5 -34.5t5 -45t-4 -56.5l-21 -148q-8 -57 -27 -97 t-40 -60.5t-53.5 -32t-56 -13.5t-58.5 -2zM212 108q43 0 64 18t30 83l18 128q9 64 -7.5 81.5t-58.5 17.5t-63.5 -17.5t-30.5 -81.5l-18 -128q-9 -65 7 -83t59 -18zM240 596q-2 -3 -5 -3h-83q-2 0 0 3l75 117q1 3 6 3h101q2 0 0 -3q-1 -1 -47 -58.5t-47 -58.5zM376 596 q-2 -3 -5 -3h-83q-2 0 -1 3q1 1 38.5 58.5t38.5 58.5q0 3 5 3h101q3 0 0 -3q-2 -2 -47.5 -58.5t-46.5 -58.5z" />
<glyph horiz-adv-x="477" d="M126 0h-118q-3 0 -3 3l76 541h210q24 0 44.5 -2.5t46.5 -12t43 -26t26.5 -47.5t4.5 -74l-5 -40q-13 -102 -95 -137l62 -202q2 -3 -3 -3h-131q-4 0 -5 3l-47 179h-78l-25 -179q0 -3 -3 -3zM170 290h79q10 0 20.5 2t23.5 7.5t22.5 17.5t11.5 29l5 32q4 24 -7.5 38t-25 17 t-30.5 3h-79zM287 596q-3 -3 -5 -3h-83q-3 0 0 3l76 117q1 3 4 3h101q4 0 1 -3z" />
<glyph horiz-adv-x="477" d="M170 290h79q10 0 20.5 2t23.5 7.5t22.5 17.5t11.5 29l5 32q4 24 -7.5 38t-25 17t-30.5 3h-79zM126 0h-118q-3 0 -3 3l76 541h210q24 0 44.5 -2.5t46.5 -12t43 -26t26.5 -47.5t4.5 -74l-5 -40q-13 -102 -95 -137l62 -202q2 -3 -3 -3h-131q-4 0 -5 3l-47 179h-78l-25 -179 q0 -3 -3 -3zM327 714h86q3 0 2 -3l-105 -117q-4 -4 -6 -4h-77q-5 0 -7 3t-35.5 59t-34.5 59q-2 3 1 3h86q3 0 5 -3l31 -53h3q45 51 47 53q3 3 4 3z" />
<glyph horiz-adv-x="459" d="M186 -4q-121 0 -185 32q-4 1 -2 5l48 96q0 2 4 2l8 -3q8 -2 21.5 -5.5t31.5 -7t42.5 -6t49.5 -2.5q37 0 59 7.5t25 31.5l4 28q6 39 -87 48q-96 11 -130 40t-24 100l9 62q18 125 206 125q115 0 169 -27q2 -2 2 -3q0 -8 -43 -94q-1 -1 -2.5 -2t-2.5 0l-7 2q-8 2 -21.5 4.5 t-29.5 4.5t-37 4t-41 2q-62 0 -68 -36l-4 -25q-3 -21 13 -31t69 -16q95 -12 131 -42.5t27 -101.5l-8 -61q-6 -42 -28.5 -70t-58.5 -40.5t-67.5 -16.5t-72.5 -4zM292 596q-3 -3 -5 -3h-83q-2 0 0 3l76 117q2 3 5 3h101q3 0 0 -3z" />
<glyph horiz-adv-x="459" d="M186 -4q-121 0 -185 32q-4 1 -2 5l48 96q0 2 4 2l8 -3q8 -2 21.5 -5.5t31.5 -7t42.5 -6t49.5 -2.5q37 0 59 7.5t25 31.5l4 28q6 39 -87 48q-96 11 -130 40t-24 100l9 62q18 125 206 125q115 0 169 -27q2 -2 2 -3q0 -8 -43 -94q-1 -1 -2.5 -2t-2.5 0l-7 2q-8 2 -21.5 4.5 t-29.5 4.5t-37 4t-41 2q-62 0 -68 -36l-4 -25q-3 -21 13 -31t69 -16q95 -12 131 -42.5t27 -101.5l-8 -61q-6 -42 -28.5 -70t-58.5 -40.5t-67.5 -16.5t-72.5 -4zM227 593h-82q-2 0 0 4q2 3 46 58t46 59l3 2q2 1 4 1h92q4 0 6 -3q56 -112 60 -118q0 -2 -1 -3h-83q-3 0 -5 4 l-31 54h-3q-43 -52 -45 -54q-4 -4 -7 -4z" />
<glyph horiz-adv-x="427" d="M114 0q-3 0 -3 3l61 431h-138q-3 0 -3 3l15 104q0 3 3 3h401q3 0 3 -3l-15 -104q0 -3 -3 -3h-138l-61 -431q0 -3 -3 -3h-119zM318 714h86q4 0 2 -3l-105 -117q-4 -4 -6 -4h-77q-4 0 -7 3q-2 4 -35.5 59.5t-34.5 58.5t1 3h86q4 0 5 -3l31 -53h3q45 51 47 53q3 3 4 3z" />
<glyph horiz-adv-x="490" d="M189 -4q-107 0 -141 49.5t-18 161.5l47 334q0 3 4 3h119q2 0 2 -3l-45 -325q-11 -50 -2.5 -78.5t49.5 -28.5h33q40 0 55 23.5t23 83.5l46 325q0 3 4 3h119q2 0 2 -3l-47 -334q-7 -53 -19 -88.5t-36 -65t-64 -43.5t-99 -14h-32zM174 605q-3 0 -2 4l8 59q2 7 8 14 q4 4 11.5 10t23 12t31.5 6q23 0 54 -15t49 -15q19 0 40 14t23 14t2 -4l-8 -58q-2 -12 -7 -16q-35 -31 -68 -31q-24 0 -54 16.5t-46 16.5q-20 0 -43 -14z" />
<glyph horiz-adv-x="490" d="M189 -4q-107 0 -141 49.5t-18 161.5l47 334q0 3 4 3h119q2 0 2 -3l-45 -325q-11 -50 -2.5 -78.5t49.5 -28.5h33q40 0 55 23.5t23 83.5l46 325q0 3 4 3h119q2 0 2 -3l-47 -334q-7 -53 -19 -88.5t-36 -65t-64 -43.5t-99 -14h-32zM409 613h-234q-2 0 -2 3l11 79q0 3 3 3h234 q2 0 2 -3l-11 -79q0 -3 -3 -3z" />
<glyph horiz-adv-x="490" d="M189 -4q-107 0 -141 49.5t-18 161.5l47 334q0 3 4 3h119q2 0 2 -3l-45 -325q-11 -50 -2.5 -78.5t49.5 -28.5h33q40 0 55 23.5t23 83.5l46 325q0 3 4 3h119q2 0 2 -3l-47 -334q-7 -53 -19 -88.5t-36 -65t-64 -43.5t-99 -14h-32zM290 593q-106 0 -106 91q0 23 9 23h50 q6 0 7 -5q6 -22 15.5 -28.5t34.5 -6.5q23 0 35.5 7.5t22.5 27.5q2 5 11 5h49q6 0 5 -5q-20 -109 -133 -109z" />
<glyph horiz-adv-x="490" d="M189 -4q-107 0 -141 49.5t-18 161.5l47 334q0 3 4 3h119q2 0 2 -3l-45 -325q-11 -50 -2.5 -78.5t49.5 -28.5h33q40 0 55 23.5t23 83.5l46 325q0 3 4 3h119q2 0 2 -3l-47 -334q-7 -53 -19 -88.5t-36 -65t-64 -43.5t-99 -14h-32zM286 576q-18 0 -30 2.5t-24.5 9.5t-17.5 23 t-1 41l3 20q7 44 32.5 59t64.5 15q17 0 28.5 -2t24.5 -9t18 -22.5t1 -40.5l-3 -20q-4 -25 -13.5 -41t-24 -23.5t-27.5 -9.5t-31 -2zM293 624q37 0 41 34l1 8q5 33 -30 33q-36 0 -41 -33l-1 -8q-3 -20 5.5 -27t24.5 -7z" />
<glyph horiz-adv-x="490" d="M189 -4q-107 0 -141 49.5t-18 161.5l47 334q0 3 4 3h119q2 0 2 -3l-45 -325q-11 -50 -2.5 -78.5t49.5 -28.5h33q40 0 55 23.5t23 83.5l46 325q0 3 4 3h119q2 0 2 -3l-47 -334q-7 -53 -19 -88.5t-36 -65t-64 -43.5t-99 -14h-32zM255 596q-1 -3 -5 -3h-83q-1 0 0 3l75 117 q2 3 6 3h101q1 0 0 -3q-1 -1 -47 -58.5t-47 -58.5zM391 596q-1 -3 -5 -3h-83q-1 0 -1 3q1 1 38.5 58.5t38.5 58.5q1 3 5 3h101q3 0 0 -3q-2 -2 -47.5 -58.5t-46.5 -58.5z" />
<glyph horiz-adv-x="490" d="M169 -155q-71 0 -71 59q0 54 56 93q-86 7 -112.5 56.5t-11.5 153.5l47 334q0 3 3 3h119q3 0 3 -3l-46 -325q-10 -50 -1.5 -78.5t49.5 -28.5h33q40 0 55 23.5t23 83.5l46 325q0 3 3 3h119q3 0 3 -3l-47 -334q-13 -97 -50.5 -148t-124.5 -60l-2 -2q-38 -19 -56 -32.5 t-18 -29.5q0 -10 12 -10q8 0 22 7q3 3 7 -1l20 -53q1 -4 -2 -8q-3 -3 -12 -8t-28 -11t-38 -6z" />
<glyph horiz-adv-x="689" d="M95 0q-5 0 -5 4q0 5 -22 269.5t-23 267.5q0 3 2 3h124q1 0 3 -3l23 -346h15q102 244 103 246q1 3 4 3h97q4 0 5 -4l32 -245h16q119 344 120 346q1 3 4 3h124q3 0 2 -3q-1 -1 -99 -267.5t-99 -269.5q-1 -4 -5 -4h-145q-6 0 -6 4l-21 240h-10q-86 -235 -88 -240 q-3 -4 -6 -4h-145zM341 593h-82q-2 0 0 4q2 3 46 58t46 59l2 2q2 1 4 1h92q5 0 7 -3q56 -112 60 -118q0 -2 -1 -3h-83q-3 0 -5 4l-31 54h-3q-43 -52 -45 -54q-4 -4 -7 -4z" />
<glyph horiz-adv-x="451" d="M126 0q-3 0 -3 3l29 206q-111 330 -112 332q-1 3 1 3h126q3 0 4 -3l61 -197h6q114 195 115 197q1 3 4 3h123q4 0 3 -3l-206 -332l-29 -206q0 -3 -4 -3h-118zM222 593h-82q-3 0 -1 4q2 3 46.5 58t46.5 59l2 2q2 1 4 1h92q5 0 7 -3l5 -9q4 -9 10.5 -21.5t14 -28t13.5 -28 t11 -21.5t5 -10q3 -3 0 -3h-83q-3 0 -5 4l-31 54h-3q-43 -52 -45 -54q-4 -4 -7 -4z" />
<glyph horiz-adv-x="426" d="M-10 0q-2 0 -2 3l15 102q0 4 4 8l262 313l1 8h-209q-3 0 -3 3l15 104q0 3 3 3h353q3 0 3 -3l-14 -101q-1 -6 -5 -10l-262 -312l-1 -9h218q3 0 3 -3l-15 -103q0 -3 -3 -3h-363zM283 596q-3 -3 -5 -3h-83q-3 0 0 3l76 117q1 3 4 3h101q4 0 1 -3z" />
<glyph horiz-adv-x="426" d="M-10 0q-2 0 -2 3l15 102q0 4 4 8l262 313l1 8h-209q-3 0 -3 3l15 104q0 3 3 3h353q3 0 3 -3l-14 -101q-1 -6 -5 -10l-262 -312l-1 -9h218q3 0 3 -3l-15 -103q0 -3 -3 -3h-363zM210 597q-3 0 -3 3l14 97q0 3 3 3h108q3 0 3 -3l-14 -97q0 -3 -4 -3h-107z" />
<glyph horiz-adv-x="689" d="M95 0q-5 0 -5 4q0 5 -22 269.5t-23 267.5q0 3 2 3h124q1 0 3 -3l23 -346h15q102 244 103 246q1 3 4 3h97q4 0 5 -4l32 -245h16q119 344 120 346q1 3 4 3h124q3 0 2 -3q-1 -1 -99 -267.5t-99 -269.5q-1 -4 -5 -4h-145q-6 0 -6 4l-21 240h-10q-86 -235 -88 -240 q-3 -4 -6 -4h-145zM375 597l-61 116q-3 3 1 3h101q2 0 4 -3l42 -117q2 -3 0 -3h-83q-3 0 -4 4z" />
<glyph horiz-adv-x="689" d="M95 0q-5 0 -5 4q0 5 -22 269.5t-23 267.5q0 3 2 3h124q1 0 3 -3l23 -346h15q102 244 103 246q1 3 4 3h97q4 0 5 -4l32 -245h16q119 344 120 346q1 3 4 3h124q3 0 2 -3q-1 -1 -99 -267.5t-99 -269.5q-1 -4 -5 -4h-145q-6 0 -6 4l-21 240h-10q-86 -235 -88 -240 q-3 -4 -6 -4h-145zM407 596q-3 -3 -5 -3h-83q-3 0 -1 3l77 117q1 3 4 3h101q4 0 1 -3z" />
<glyph horiz-adv-x="689" d="M95 0q-5 0 -5 4q0 5 -22 269.5t-23 267.5q0 3 2 3h124q1 0 3 -3l23 -346h15q102 244 103 246q1 3 4 3h97q4 0 5 -4l32 -245h16q119 344 120 346q1 3 4 3h124q3 0 2 -3q-1 -1 -99 -267.5t-99 -269.5q-1 -4 -5 -4h-145q-6 0 -6 4l-21 240h-10q-86 -235 -88 -240 q-3 -4 -6 -4h-145zM268 602q-3 0 -2 3l13 91q0 3 3 3h87q3 0 3 -3l-13 -91q0 -3 -4 -3h-87zM424 602q-4 0 -3 3l13 91q0 3 4 3h85q3 0 3 -3l-13 -91q0 -3 -4 -3h-85z" />
<glyph horiz-adv-x="409" d="M5 0l76 541q0 3 3 3h119q2 0 2 -3l-61 -433h222q3 0 3 -4l-15 -101q0 -3 -3 -3h-346zM242 422q-2 -1 -4 0t-1 4l28 197q0 4 4 4h104q4 0 3 -4l-17 -124q-2 -5 -5 -7z" />
<glyph horiz-adv-x="491" d="M8 0q-3 0 -3 3l76 538q0 3 3 3h119q2 0 2 -3l-30 -215h31q156 212 158 215t5 3h130q3 0 1 -3l-200 -266q133 -270 135 -272q3 -3 -1 -3h-131q-2 0 -5 3l-99 216h-40l-30 -216q0 -3 -2 -3h-119zM128 -221q-5 -3 -5 4l28 197q0 4 5 4h104q3 0 3 -4l-17 -124q-1 -4 -5 -7z " />
<glyph horiz-adv-x="409" d="M5 0l76 541q0 3 3 3h119q2 0 2 -3l-61 -433h222q3 0 3 -4l-15 -101q0 -3 -3 -3h-346zM105 -221q-5 -3 -5 4l28 197q0 4 5 4h104q3 0 3 -4l-17 -124q-1 -4 -5 -7z" />
<glyph horiz-adv-x="514" d="M5 0q-3 0 -3 3l76 538q0 3 3 3h132q4 0 5 -2l118 -325h8l46 324q0 3 3 3h117q3 0 3 -3l-76 -538q0 -3 -4 -3h-134q-3 0 -4 3l-117 324h-9l-46 -324q0 -3 -3 -3h-115zM149 -221q-5 -3 -5 4l28 197q0 4 5 4h104q3 0 3 -4l-17 -124q-1 -4 -5 -7z" />
<glyph horiz-adv-x="477" d="M126 0h-118q-3 0 -3 3l76 541h210q24 0 44.5 -2.5t46.5 -12t43 -26t26.5 -47.5t4.5 -74l-5 -40q-13 -102 -95 -137l62 -202q2 -3 -3 -3h-131q-4 0 -5 3l-47 179h-78l-25 -179q0 -3 -3 -3zM170 290h79q10 0 20.5 2t23.5 7.5t22.5 17.5t11.5 29l5 32q4 24 -7.5 38t-25 17 t-30.5 3h-79zM126 -221q-5 -3 -5 4l28 197q0 4 5 4h104q3 0 3 -4l-17 -124q-1 -4 -5 -7z" />
<glyph horiz-adv-x="476" d="M205 -4q-18 0 -32 1t-32.5 3t-31.5 6.5t-28.5 12t-25 18.5t-20 26t-13 35t-5.5 45.5t4 56.5l21 150q8 54 28 93t43 59t57 31.5t57.5 13.5t56.5 2q46 0 87.5 -6.5t60 -12t20.5 -7.5q1 -1 0 -4l-45 -92q-1 -1 -4 -1h-5q-4 1 -11.5 2t-17.5 2.5t-22 3t-24.5 2.5t-27 1.5 t-27.5 0.5q-19 0 -32 -2.5t-29 -11.5t-26 -30.5t-15 -55.5l-18 -129q-9 -63 10.5 -81.5t62.5 -18.5l90 9l12 88h-68q-2 0 -2 4l13 95q0 3 4 3h172l-40 -282q-135 -30 -197 -30zM132 -221q-2 -1 -4 0t-1 4l28 197q0 4 4 4h104q4 0 4 -4l-18 -124q0 -4 -5 -7z" />
<glyph horiz-adv-x="459" d="M186 -4q-121 0 -185 32q-4 1 -2 5l48 96q0 2 4 2l8 -3q8 -2 21.5 -5.5t31.5 -7t42.5 -6t49.5 -2.5q37 0 59 7.5t25 31.5l4 28q6 39 -87 48q-96 11 -130 40t-24 100l9 62q18 125 206 125q115 0 169 -27q2 -2 2 -3q0 -8 -43 -94q-1 -1 -2.5 -2t-2.5 0l-7 2q-8 2 -21.5 4.5 t-29.5 4.5t-37 4t-41 2q-62 0 -68 -36l-4 -25q-3 -21 13 -31t69 -16q95 -12 131 -42.5t27 -101.5l-8 -61q-6 -42 -28.5 -70t-58.5 -40.5t-67.5 -16.5t-72.5 -4zM121 -221q-5 -3 -5 4l28 197q0 4 5 4h104q3 0 3 -4l-17 -124q-1 -4 -5 -7z" />
<glyph horiz-adv-x="427" d="M114 0q-3 0 -3 3l61 431h-138q-3 0 -3 3l15 104q0 3 3 3h401q3 0 3 -3l-15 -104q0 -3 -3 -3h-138l-61 -431q0 -3 -3 -3h-119zM98 -221q-5 -3 -5 4l28 197q0 4 5 4h104q3 0 3 -4l-17 -124q-1 -4 -5 -7z" />
<glyph horiz-adv-x="459" d="M193 -130h-101q-2 0 -1 3q10 19 74 123q-106 3 -164 32q-4 1 -2 5l48 96q0 2 4 2l8 -3q8 -2 21.5 -5.5t31.5 -7t42.5 -6t49.5 -2.5q37 0 59 7.5t25 31.5l4 28q6 39 -87 48q-96 11 -130 40t-24 100l9 62q18 125 206 125q115 0 169 -27q2 -2 2 -3q0 -8 -43 -94 q-1 -1 -2.5 -2t-2.5 0l-7 2q-8 2 -21.5 4.5t-29.5 4.5t-37 4t-41 2q-62 0 -68 -36l-4 -25q-3 -21 13 -31t69 -16q95 -12 131 -42.5t27 -101.5l-8 -61q-15 -111 -156 -127l-60 -127q-1 -3 -4 -3z" />
<glyph horiz-adv-x="384" d="M56 128q-3 1 1 5l71 63q3 1 4 0l138 -169q0 -1 -1 -4q-1 -2 -35 -32t-36 -31q0 -4 -4 0z" />
<glyph horiz-adv-x="344" d="M6 -35q-4 0 -2 3l46 85q2 3 6 3h69q3 0 2 -3l-47 -85q-2 -3 -5 -3h-69zM195 334q-5 0 -3 3l45 83q3 3 5 3h71q3 0 2 -3l-46 -83q-1 -3 -4 -3h-70z" />
<glyph horiz-adv-x="484" d="M306 462q-2 0 -1 3l71 109q2 3 5 3h96q3 0 1 -3q-1 -2 -35 -55t-35 -54q-3 -3 -5 -3h-97zM-4 -32q-3 0 0 3l67 105q1 3 5 3h96q4 0 1 -3q-1 -1 -34 -52.5t-34 -52.5q-3 -3 -5 -3h-96z" />
<glyph horiz-adv-x="465" d="M206 107q41 0 58 19t26 83l18 129q9 63 -4 81.5t-52 18.5q-37 0 -54.5 -18.5t-26.5 -81.5l-18 -129q-9 -63 2.5 -82.5t50.5 -19.5zM190 -4q-19 0 -32.5 0.5t-30.5 3t-29 6.5t-25.5 12t-22 18.5t-16 26t-10.5 35t-2.5 45.5t4.5 58l21 149q9 66 30.5 108.5t55 61t62.5 24 t73 5.5q18 0 31.5 -0.5t31 -3t29.5 -6.5t26 -11t22.5 -17t16.5 -25.5t11.5 -34.5t3.5 -44.5t-4 -56.5l-21 -149q-6 -41 -16.5 -73.5t-23 -54t-31 -36.5t-34 -23t-39 -12t-40 -5t-41.5 -1z" />
<glyph horiz-adv-x="409" d="M259 0h-114q-3 0 -2 3l57 410q-101 -63 -103 -64t-2 1t-6 51t-7 50q-1 2 4 5l130 86q2 2 6 2h114q1 0 2 -1t0 -2l-75 -539q-2 -2 -4 -2z" />
<glyph horiz-adv-x="421" d="M334 0h-325q-2 0 -2 3l14 96q0 4 4 8q152 139 191 185q39 45 43 71l5 34q3 24 -15 33t-41 9q-16 0 -34.5 -2t-34 -5t-28.5 -6t-21 -5l-8 -2q-5 0 -5 2t-4 46t-4 47t2 4q3 3 18.5 9.5t54.5 14t83 7.5q32 0 58.5 -4.5t55.5 -16.5t43 -41t8 -71l-9 -63q-6 -45 -49 -97 t-132 -138l-1 -9h148q3 0 3 -3l-15 -103q0 -3 -3 -3z" />
<glyph horiz-adv-x="425" d="M10 20q-2 2 -2 3q0 2 16 47t17 47t4 2l9 -1q8 -2 21.5 -4t30 -4.5t35.5 -4t35 -1.5q61 0 67 41l4 27q8 54 -49 54h-67q-3 0 -3 4l14 96q0 3 3 3h68q18 0 34 12t19 32l4 27q2 17 -8.5 27t-21.5 12t-24 2q-26 0 -58 -4t-50.5 -8t-20.5 -5q-4 -2 -4 2q0 2 -3 46.5t-3 47.5 q0 2 2 3q5 2 20.5 7.5t54 12t77.5 6.5q37 0 63.5 -4t54 -16t39.5 -39t6 -68l-7 -52q-3 -22 -16.5 -43t-25.5 -31l-12 -10l-1 -8q5 -3 12.5 -8.5t18.5 -29.5t7 -55l-8 -60q-5 -40 -24 -67.5t-49 -40t-59.5 -17t-68.5 -4.5q-44 0 -81.5 6t-53.5 12z" />
<glyph horiz-adv-x="425" d="M309 0h-106q-2 0 -2 3l11 77h-205q-3 0 -3 3l14 101q0 5 5 10l184 347q1 3 3 3h120q4 0 2 -3l-179 -344l-1 -7h75l12 85q0 4 4 4h106q3 0 3 -4l-12 -85h43q4 0 4 -3l-15 -104q0 -3 -4 -3h-43l-11 -77q0 -3 -5 -3z" />
<glyph horiz-adv-x="424" d="M162 -5q-102 0 -152 25q-1 0 -1 4q1 5 16 47.5t17 45.5q2 4 5 2q2 -1 21.5 -4.5t51.5 -7.5t57 -4q62 0 68 41l5 32q5 29 -12 41.5t-40 12.5h-144q-2 0 -2 3l43 304q0 7 8 7h299q2 0 2 -3l-13 -96q0 -4 -4 -4h-197l-15 -110h41q26 0 46 -2t45 -9.5t40.5 -20.5t23.5 -38.5 t3 -60.5l-11 -76q-5 -35 -21.5 -60.5t-35.5 -38.5t-48 -20t-49 -8.5t-47 -1.5z" />
<glyph horiz-adv-x="428" d="M189 96q17 0 27.5 3t22.5 19t16 46l3 21q5 35 -5 47t-31 12q-12 0 -29 -3t-27 -7l-11 -3l-14 -98q-5 -37 48 -37zM183 -4q-33 0 -59.5 5t-54.5 18t-41 41.5t-7 71.5l38 271q7 48 32 80t60 45t59 17t47 4q88 0 148 -30v-5q-1 -3 -9.5 -25t-16.5 -43t-8 -22q0 -2 -4 -2 l-7 2q-8 2 -20.5 5t-27.5 5.5t-33.5 4.5t-34.5 2q-21 0 -42 -10t-24 -33l-9 -68q64 13 92 13q27 0 46.5 -4.5t40.5 -18t28.5 -46t0.5 -81.5l-5 -35q-8 -54 -27.5 -88.5t-49 -49.5t-54 -19.5t-58.5 -4.5z" />
<glyph horiz-adv-x="410" d="M161 1h-121q-4 0 -2 3l220 426l1 7h-193q-1 0 -1.5 1t0.5 2l14 101q0 3 2 3h322q4 0 4 -3l-14 -96q0 -2 -4 -10l-222 -431q-5 -3 -6 -3z" />
<glyph horiz-adv-x="426" d="M187 96q55 0 63 55l3 22q4 28 -11 39.5t-37 11.5t-41 -12t-23 -39l-3 -22q-8 -55 49 -55zM220 333q21 0 38.5 11t20.5 35l3 21q7 50 -46 50t-60 -50l-3 -21q-3 -24 11 -35t36 -11zM172 -4q-37 0 -63.5 5t-52 19.5t-36 45.5t-4.5 78l5 36q4 30 21.5 55t33.5 35l15 9l1 3 q-5 3 -11.5 9.5t-16 29t-5.5 49.5l5 35q7 48 25 78.5t47 44t54 17.5t61 4t60 -4.5t48 -18t33 -44t3 -77.5l-5 -36q-4 -26 -18 -48t-26 -31l-13 -9l-1 -2q6 -3 14.5 -10t21 -32.5t7.5 -56.5l-6 -36q-8 -47 -26.5 -78.5t-47.5 -45.5t-57 -19t-66 -5z" />
<glyph horiz-adv-x="424" d="M238 450q-16 0 -27.5 -3.5t-23.5 -19.5t-16 -45l-4 -29q-5 -35 5 -47t32 -12q12 0 28.5 3t27.5 6l10 3l15 106q3 20 -11 29t-36 9zM243 549q33 0 60 -5t54.5 -18t40.5 -41.5t7 -71.5l-38 -271q-7 -48 -32 -80t-60 -45t-58.5 -17t-46.5 -4q-98 0 -152 27q-1 1 -1 3 q0 4 16.5 44.5t19.5 46.5q1 3 4 3l8 -2q8 -1 21 -3.5t28 -5t33.5 -4t34.5 -1.5q13 0 25.5 3t25.5 13.5t15 27.5l8 58q-64 -13 -92 -13q-27 0 -46.5 4.5t-40.5 18.5t-28.5 46.5t-0.5 81.5l7 44q7 43 22 74t32.5 47.5t42.5 26t44.5 11.5t46.5 2z" />
<glyph horiz-adv-x="923" d="M192 -4q-121 0 -185 32q-4 1 -2 5l48 96q0 2 4 2l8 -3q8 -2 21.5 -5.5t31.5 -7t42.5 -6t49.5 -2.5q37 0 59 7.5t25 31.5l4 28q6 39 -87 48q-96 11 -130 40t-24 100l9 62q18 125 206 125q115 0 169 -27q2 -2 2 -3q0 -8 -43 -94q-1 -1 -2.5 -2t-2.5 0l-7 2q-8 2 -21.5 4.5 t-29.5 4.5t-37 4t-41 2q-62 0 -68 -36l-4 -25q-3 -21 13 -31t69 -16q95 -12 131 -42.5t27 -101.5l-8 -61q-6 -42 -28.5 -70t-58.5 -40.5t-67.5 -16.5t-72.5 -4zM632 -4q-121 0 -185 32q-4 1 -2 5l48 96q0 2 4 2l8 -3q8 -2 21.5 -5.5t31.5 -7t42.5 -6t49.5 -2.5q37 0 59 7.5 t25 31.5l4 28q6 39 -87 48q-96 11 -130 40t-24 100l9 62q18 125 206 125q115 0 169 -27q2 -2 2 -3q0 -8 -43 -94q-1 -1 -2.5 -2t-2.5 0l-7 2q-8 2 -21.5 4.5t-29.5 4.5t-37 4t-41 2q-62 0 -68 -36l-4 -25q-3 -21 13 -31t69 -16q95 -12 131 -42.5t27 -101.5l-8 -61 q-6 -42 -28.5 -70t-58.5 -40.5t-67.5 -16.5t-72.5 -4z" />
<glyph horiz-adv-x="425" d="M133 53q-2 0 -2 3l16 115h-123q-3 0 -3 3l13 92q0 4 4 4h123l16 115q0 3 3 3h91q4 0 4 -3l-16 -115h123q3 0 2 -4l-13 -92q0 -3 -3 -3h-123l-16 -115q0 -3 -5 -3h-91z" />
<glyph horiz-adv-x="190" d="M-35 -90q-2 0 -2 3q0 1 40 100.5t41 101.5q2 3 4 3h100q4 0 2 -3q0 -1 -50.5 -100.5t-51.5 -100.5q-2 -4 -4 -4h-79z" />
<glyph horiz-adv-x="300" d="M16 171q-3 0 -3 3l13 92q0 4 4 4h236q1 0 1 -4l-13 -92q0 -3 -2 -3h-236z" />
<glyph horiz-adv-x="196" d="M4 0q-3 0 -3 3l16 114q0 4 4 4h108q2 0 2 -4l-16 -114q0 -3 -3 -3h-108z" />
<glyph horiz-adv-x="335" d="M-1 -4q-3 0 -2 3q1 2 113.5 274t112.5 273q0 3 5 3h109q3 0 2 -3l-226 -547q-1 -3 -4 -3h-110z" />
<glyph horiz-adv-x="425" d="M12 85q-3 0 -3 3l14 94q0 4 3 4h344q3 0 3 -4l-14 -94q0 -3 -3 -3h-344zM36 257q-1 0 -2 1t0 2l13 94q0 3 3 3h344q3 0 3 -3l-13 -94q-3 -3 -4 -3h-344z" />
<glyph horiz-adv-x="237" d="M132 0h-108q-2 0 -2 3l14 101q0 3 3 3h108q2 0 2 -3l-14 -101q0 -3 -3 -3zM151 165h-99q-2 0 -2 3l52 373q0 3 3 3h99q3 0 3 -3l-53 -373q0 -3 -3 -3z" />
<glyph horiz-adv-x="364" d="M215 162h-109q-2 0 -2 3l3 23q5 41 34 78.5t57 66t31 46.5l4 23q4 23 -9.5 32.5t-30.5 9.5q-15 0 -31.5 -2t-30 -5t-24.5 -5.5t-17 -4.5l-7 -2q-5 -2 -5 1l-9 90q0 4 1 4l3 1q3 1 7 3t10 4l13.5 4.5t16.5 5t19.5 4.5t21.5 3.5t23.5 2.5t25.5 1q31 0 54.5 -4.5t48 -17 t35 -41t4.5 -70.5l-5 -37q-4 -31 -62.5 -95t-62.5 -96l-3 -23q0 -3 -4 -3zM190 0h-107q-3 0 -3 3l14 101q0 3 4 3h107q4 0 4 -3l-14 -101q-3 -3 -5 -3z" />
<glyph horiz-adv-x="207" d="M-46 -90q-4 0 -2 4l82 201q2 3 3 3h101q2 0 0 -3l-101 -201q-2 -4 -4 -4h-79zM48 268q-3 0 -2 3l15 114q1 3 4 3h108q2 0 2 -3l-16 -114q0 -3 -3 -3h-108z" />
<glyph horiz-adv-x="301" d="M300 544q7 0 5 -5l-23 -164q0 -3 -3 -3h-86q-3 0 -3 3l23 163q0 6 4 6h83zM154 544q6 0 4 -5l-23 -164q0 -3 -3 -3h-87q-2 0 -2 3l23 163q0 6 3 6h85z" />
<glyph horiz-adv-x="449" d="M174 235h80l20 83h-80zM110 0h-87q-3 0 -3 2l38 149h-54q-3 0 -3 3l11 78q0 3 4 3h65l20 83h-58q-3 0 -3 3l11 79q0 3 3 3h68q37 135 37 138t3 3h88q2 0 2 -2l-35 -139h80q35 136 35 138q0 3 3 3h88q6 0 3 -3l-36 -138h52q3 0 3 -3l-11 -79q0 -3 -4 -3h-63l-20 -83h57 q2 0 2 -3l-11 -78q0 -3 -3 -3h-67q-38 -146 -38 -148q0 -3 -4 -3h-87q-2 0 -2 2l38 149h-81q-37 -146 -37 -148q0 -3 -4 -3z" />
<glyph horiz-adv-x="462" d="M141 -66q-3 0 -3 3l8 58q-91 4 -147 32q-3 1 -2 4q48 96 48 97q2 2 4 1q4 -2 20.5 -6.5t55 -10.5t77.5 -6q78 0 84 38l4 29q3 18 -15.5 30t-72.5 19q-93 11 -127.5 37.5t-24.5 101.5l8 61q15 112 165 124l9 61q0 3 4 3h74q2 0 2 -3l-9 -61q90 -4 131 -25q1 0 1 -2 q0 -10 -43 -96q-2 -4 -5 -2q-2 1 -19 5t-50.5 8.5t-65.5 4.5q-63 0 -69 -36l-4 -26q-3 -21 13 -30.5t68 -16.5q44 -5 72 -12.5t52 -23t32.5 -42t3.5 -65.5l-8 -62q-4 -32 -20 -56.5t-35 -37.5t-46 -21.5t-44.5 -10.5t-40.5 -4l-8 -58q0 -3 -3 -3h-74z" />
<glyph horiz-adv-x="623" d="M173 -5h-96q-4 0 -1 3q7 16 182.5 275t182.5 273q1 3 5 3h96q4 0 1 -3l-365 -548q-2 -3 -5 -3zM427 -5q-107 0 -93 96l10 69q13 94 122 94q20 0 35.5 -3.5t31 -12.5t22 -28.5t2.5 -49.5l-10 -69q-14 -96 -120 -96zM156 291q-46 0 -72.5 20t-19.5 76l9 68q13 94 122 94 q44 0 70.5 -19t19.5 -75l-9 -68q-13 -96 -120 -96zM167 366q33 0 38 33l6 43q3 19 -4.5 25.5t-23.5 6.5q-36 0 -41 -32l-6 -43q-3 -20 5.5 -26.5t25.5 -6.5zM437 71q35 0 39 32l6 44q3 19 -4.5 25t-23.5 6q-35 0 -40 -31l-6 -44q-3 -20 5 -26t24 -6z" />
<glyph horiz-adv-x="465" d="M188 -5q-28 0 -48.5 2t-47 10.5t-42.5 23t-24.5 42.5t-2.5 67l5 34q5 32 22 66t32 52l15 18q-2 4 -4.5 11.5t-7 32t0.5 49.5l3 24q4 32 17 55.5t29 36t39.5 20t41 9t40.5 1.5q25 0 43 -3t39.5 -13.5t32.5 -34.5t11 -62q0 -33 -6 -33h-78v19q0 53 -50 53q-59 0 -66 -52 l-2 -14q-2 -13 -0.5 -26t8.5 -28.5t11.5 -25t17 -30t17.5 -29.5l64 -117q7 12 8 17l11 80q0 4 4 4h77q4 0 3 -4l-13 -99q-2 -15 -12.5 -34t-19.5 -31l-9 -12q42 -69 43 -71q2 -3 -2 -3h-103q-1 0 -4 3l-6 13q-36 -21 -87 -21zM199 78q9 0 17 2t11 4l3 1l-84 144 q-14 -20 -24 -71l-2 -9q-8 -41 13 -56t66 -15z" />
<glyph horiz-adv-x="172" d="M163 544q6 0 4 -5l-23 -164q0 -3 -3 -3h-86q-3 0 -3 3l23 163q0 6 4 6h84z" />
<glyph horiz-adv-x="179" d="M-1 -63q-6 -2 -6 2l23 163q0 3 4 3h89q2 0 2 -3l-14 -101q0 -3 -3 -5z" />
<glyph horiz-adv-x="326" d="M-1 -63q-6 -2 -6 2l23 163q0 3 4 3h89q2 0 2 -3l-14 -101q0 -3 -3 -5zM145 -63q-1 -1 -3 -0.5t-2 2.5l23 163q0 3 4 3h88q2 0 2 -3l-14 -101q0 -3 -3 -5q-1 -1 -48 -30z" />
<glyph horiz-adv-x="455" d="M241 -5q-31 0 -55.5 3t-54 15t-47.5 32t-27 57t-2 88h-38q-3 0 -3 4l9 58q0 3 3 3h38l5 37h-38q-2 0 -2 3l8 59q0 3 3 3h38q8 59 32 99t60 59t71.5 26.5t79.5 7.5q45 0 80 -6t47 -11t15 -8q2 -1 0 -4l-45 -93q-1 -3 -3 -2t-16 3.5t-41 5.5t-52 3q-41 0 -64 -16t-37 -64 h114q4 0 4 -3l-8 -59q-3 -3 -5 -3h-114l-5 -37h114q4 0 4 -3l-9 -58q0 -4 -4 -4h-114q-2 -48 15.5 -63t60.5 -15q28 0 58 3.5t45 6.5t17 4q3 2 3 -2l21 -95q0 -3 -1 -4q-60 -30 -160 -30z" />
<glyph horiz-adv-x="409" d="M139 -78q-3 0 -3 3l10 72q-10 1 -16 1.5t-17 2.5t-18 4.5t-17 7t-16.5 10.5t-13.5 14.5t-11 20t-7 25.5t-2.5 32t3.5 39l12 83q7 48 25.5 80.5t45 47t45.5 19.5t43 7l10 72q0 3 3 3h65q3 0 3 -3l-10 -71q56 -3 90 -20q3 -2 2 -4l-39 -79q-1 -2 -4 -2l-4 1q-4 0 -11.5 1 t-17.5 2t-24 1.5t-29 0.5q-30 0 -49 -14t-25 -52l-10 -65q-6 -41 9 -54t47 -13q15 0 29.5 1t25.5 2.5t19 2.5t13 2l5 1q4 0 4 -3q0 -2 7.5 -41t8.5 -40q2 -5 -2 -5q-34 -17 -101 -19l-10 -71q0 -3 -3 -3h-65z" />
<glyph horiz-adv-x="702" d="M324 125q27 0 38 8t15 35l15 106q1 9 -7 14.5t-17.5 7t-21.5 1.5q-21 0 -32.5 -13t-16.5 -46l-8 -54q-4 -25 2 -39t13.5 -17t19.5 -3zM290 -123q-41 0 -75 5t-72.5 21.5t-65 44.5t-44 78t-17.5 117q0 399 370 399q48 0 85.5 -5.5t75.5 -21.5t63.5 -42.5t41.5 -72.5 t16 -108q0 -63 -11 -109.5t-27.5 -72.5t-41.5 -41.5t-47 -20t-50 -4.5q-53 0 -80 23q-39 -24 -100 -24q-31 0 -52 5t-40 18t-26 41.5t-1 71.5l9 64q18 134 135 134q26 0 43 -4t21 -8l4 -4l2 10q0 2 3 2h90q3 0 3 -2l-28 -195q-7 -49 33 -49q15 0 25.5 4.5t21.5 19.5 t16.5 48.5t5.5 85.5q0 100 -49.5 138t-152.5 38q-135 0 -198 -70.5t-63 -229.5q0 -59 16 -99t45 -60t59.5 -27.5t69.5 -7.5q36 0 80 5.5t69 10.5t27 6t4 -2l8 -75q0 -4 -3 -5q-4 -2 -26 -8.5t-72 -14t-100 -7.5z" />
<glyph horiz-adv-x="246" d="M64 -75q-2 0 -5 3t-8.5 15t-13 58.5t-7.5 112.5q0 106 12.5 194.5t29 139t36.5 87t30 48t15 14.5q4 3 6 3h91q2 0 0 -3q-24 -35 -26 -40q-90 -162 -90 -447q0 -60 5.5 -105.5t10 -60t6.5 -16.5q3 -3 -1 -3h-91z" />
<glyph horiz-adv-x="246" d="M80 -75h-90q-3 0 0 3q4 4 13.5 17.5t28.5 54t34.5 91.5t27.5 137.5t12 185.5q0 139 -22 183q-2 3 2 3h90q2 0 5 -3t8.5 -15t12.5 -58.5t7 -111.5q0 -108 -13 -197t-28.5 -138t-36.5 -87t-30 -47.5t-15 -14.5q-3 -3 -6 -3z" />
<glyph horiz-adv-x="302" d="M121 289q-2 0 -1 4l9 67q-58 -33 -60 -34q-3 -1 -4 1l-21 52q-2 2 1 5l59 33q-48 32 -50 33q-2 2 0 5q1 1 19 26l18 25q1 2 4 2l50 -35l10 68q0 3 2 3h58q4 0 4 -3l-10 -68q58 34 59 35q4 2 5 -2l21 -51q2 -4 -1 -5l-59 -33q47 -32 49 -33q2 -2 0 -5l-36 -52q-1 -3 -5 -1 l-49 34l-9 -67q0 -4 -4 -4h-59z" />
<glyph horiz-adv-x="235" d="M-6 -75l95 675h166q2 0 2 -3l-12 -86q0 -3 -3 -3h-67l-69 -491h67q2 0 2 -4l-12 -85q0 -3 -3 -3h-166z" />
<glyph horiz-adv-x="235" d="M139 -75h-166q-3 0 -3 3l12 85q0 4 4 4h67l69 491h-67q-3 0 -3 3l12 86q0 3 4 3h166z" />
<glyph horiz-adv-x="329" d="M15 171q-3 0 -3 3l13 92q0 4 4 4h266q2 0 2 -4l-13 -92q0 -3 -3 -3h-266z" />
<glyph horiz-adv-x="377" d="M1 171q-2 0 -2 3l13 92q0 4 3 4h342q2 0 2 -4l-13 -92q0 -3 -3 -3h-342z" />
<glyph horiz-adv-x="335" d="M-1 -4q-3 0 -2 3q1 2 113.5 274t112.5 273q0 3 5 3h109q3 0 2 -3l-226 -547q-1 -3 -4 -3h-110z" />
<glyph horiz-adv-x="300" d="M16 171q-3 0 -3 3l13 92q0 4 4 4h236q1 0 1 -4l-13 -92q0 -3 -2 -3h-236z" />
<glyph horiz-adv-x="425" d="M24 172q-1 0 -2 1t0 2l12 90q2 3 4 3h344q3 0 2 -3l-12 -90q-3 -3 -4 -3h-344zM166 319q-3 0 -3 3l15 106q0 3 4 3h102q2 0 2 -3l-15 -106q0 -3 -3 -3h-102zM122 10q-2 0 -2 4l15 105q0 3 3 3h102q3 0 3 -3l-15 -105q0 -4 -4 -4h-102z" />
<glyph horiz-adv-x="425" d="M27 0q-3 0 -3 3l29 207h-25q-2 0 -2 3l10 76q1 3 4 3h25l17 124q19 133 196 133q83 0 139 -28q4 -2 2 -5q-1 -2 -19 -46.5t-18 -45.5q0 -2 -3 -2q-1 0 -8 2t-18 4.5t-25 4.5t-31.5 4t-33.5 2q-51 0 -57 -42l-15 -105h118q2 0 2 -3l-10 -76q-1 -3 -4 -3h-118l-14 -101h188 q4 0 4 -3l-15 -103q0 -3 -4 -3h-311z" />
<glyph horiz-adv-x="404" d="M1 19q-1 1 -1 5l37 77q1 3 5 3q2 -1 19 -4.5t49 -7.5t60 -4q53 0 55 22l1 13q1 13 -12.5 18.5t-53.5 10.5q-24 3 -42.5 7.5t-40 15t-32 29.5t-6.5 45l6 44q5 39 30 56q-19 19 -14 54l6 44q14 102 167 102q38 0 73 -5.5t48.5 -10t17.5 -6.5q2 -2 2 -3q0 -2 -16.5 -38.5 t-16.5 -37.5q0 -3 -5 -3l-7 1q-6 1 -17 2.5t-24.5 3.5t-31 3t-34.5 1q-44 0 -46 -18l-2 -13q-2 -12 15.5 -18t56.5 -10q58 -6 90 -27t25 -70l-6 -45q-5 -32 -28 -53q17 -19 12 -56l-6 -45q-5 -35 -22 -57.5t-45 -32.5t-52.5 -13t-57.5 -3q-43 0 -82.5 6t-54 11t-19.5 7z M242 236q12 12 14 27l2 14q1 7 -15 14.5t-34 12t-27 4.5q-5 0 -9 2q-21 -6 -25 -28l-2 -13q-1 -8 10 -13.5t27 -9t39 -6.5z" />
<glyph horiz-adv-x="449" d="M125 0q-3 0 -3 3l14 98h-92q-3 0 -3 3l9 63q0 3 4 3h92l4 33h-92q-1 0 -2 1t0 2l8 63q2 3 4 3h61q-89 267 -90 269q-1 3 2 3h125q2 0 4 -3l62 -197h5q113 194 115 197t4 3h124q4 0 2 -3l-166 -269h58q2 0 1 -3l-8 -63l-1 -1q0 -1 -0.5 -1.5t-1.5 -0.5h-89l-4 -33h89 q1 0 1 -3l-9 -63q0 -3 -2 -3h-90l-14 -98q0 -3 -2 -3h-119z" />
<glyph horiz-adv-x="275" d="M146 -73q-53 0 -73.5 25.5t-12.5 80.5l16 112q6 37 -4.5 54.5t-42.5 17.5q-3 0 -3 3l12 86q0 3 4 3q33 0 47.5 18.5t19.5 54.5l16 111q8 56 35.5 81.5t80.5 25.5h54q2 0 2 -3l-12 -84q0 -3 -3 -3h-24q-31 0 -37 -35l-15 -108q-7 -49 -22 -69.5t-45 -32.5l-1 -3 q27 -13 36.5 -33t2.5 -68l-15 -109q-6 -35 28 -35h23q2 0 2 -3l-12 -84q0 -3 -3 -3h-54z" />
<glyph horiz-adv-x="249" d="M28 -75q-2 0 -2 3l94 669q0 3 3 3h92q2 0 2 -3l-94 -669q0 -3 -3 -3h-92z" />
</font>
</defs>
</svg>
